<?xml version="1.0" encoding="UTF-8"?>
<svg xmlns="http://www.w3.org/2000/svg" xmlns:xlink="http://www.w3.org/1999/xlink" version="1.2" >
<font id="GlobotipoRounded-BoldItalic">
<font-face  font-family="Globotipo Rounded" units-per-em="1000" ascent="1000" descent="-400" font-style="italic" font-weight="700" font-stretch="normal" slope="-7" cap-height="710" x-height="480" underline-position="-75" underline-thickness="50" />
<missing-glyph  horiz-adv-x="716" d="M373 710 Q446 710 510.5 682 Q575 654 623.5 606 Q672 558 700 493.5 Q728 429 728 356 Q728 282 700 217 Q672 152 623.5 104 Q575 56 510.5 28 Q446 0 373 0 Q299 0 234.5 28 Q170 56 121.5 104 Q73 152 45 217 Q17 282 17 356 Q17 429 45 493.5 Q73 558 121.5 606 Q170 654 234.5 682 Q299 710 373 710 Z M373 20 Q442 20 503 46.5 Q564 73 609 118.5 Q654 164 680.5 225 Q707 286 707 356 Q707 425 680.5 486 Q654 547 609 592 Q564 637 503 663.5 Q442 690 373 690 Q304 690 243 663.5 Q182 637 136.5 592 Q91 547 64.5 486 Q38 425 38 356 Q38 286 64.5 225 Q91 164 136.5 118.5 Q182 73 243 46.5 Q304 20 373 20 Z M592 560 L387 355 L592 149 L578 135 L373 340 L168 135 L154 149 L359 355 L154 560 L168 574 L373 369 L578 574 L592 560 Z " />
<glyph glyph-name=".null" d="" />
<glyph glyph-name="nonmarkingreturn" unicode="&#xd;" horiz-adv-x="208" d="" />
<glyph glyph-name="space" unicode="&#x20;" horiz-adv-x="208" d="" />
<glyph glyph-name="Adieresis" unicode="&#xc4;" horiz-adv-x="672" d="M627 86 Q630 71 630 59 Q630 26 608.5 8 Q587 -10 553 -10 Q522 -10 504.5 4.5 Q487 19 480 53 L456 155 L195 155 Q178 118 165 91.5 Q152 65 146 53 Q132 20 112 5 Q92 -10 60 -10 Q31 -10 15 5.5 Q-1 21 -1 45 Q-1 64 9 84 L304 660 Q319 690 339.5 703.5 Q360 717 393 717 Q456 717 473 650 L627 86 Z M431 261 Q422 297 413.5 334 Q405 371 397 406.5 Q389 442 382.5 473.5 Q376 505 371 530 Q360 505 345.5 473.5 Q331 442 314.5 406.5 Q298 371 280.5 334 Q263 297 246 261 L431 261 Z M311 775 Q284 775 268 792.5 Q252 810 252 835 Q252 866 273.5 888 Q295 910 327 910 Q353 910 369 892.5 Q385 875 385 849 Q385 819 363.5 797 Q342 775 311 775 Z M494 775 Q467 775 451 792.5 Q435 810 435 835 Q435 866 456.5 888 Q478 910 510 910 Q536 910 552 892.5 Q568 875 568 849 Q568 819 546 797 Q524 775 494 775 Z " />
<glyph glyph-name="Agrave" unicode="&#xc0;" horiz-adv-x="672" d="M627 86 Q630 71 630 59 Q630 26 608.5 8 Q587 -10 553 -10 Q522 -10 504.5 4.5 Q487 19 480 53 L456 155 L195 155 Q178 118 165 91.5 Q152 65 146 53 Q132 20 112 5 Q92 -10 60 -10 Q31 -10 15 5.5 Q-1 21 -1 45 Q-1 64 9 84 L304 660 Q319 690 339.5 703.5 Q360 717 393 717 Q456 717 473 650 L627 86 Z M431 261 Q422 297 413.5 334 Q405 371 397 406.5 Q389 442 382.5 473.5 Q376 505 371 530 Q360 505 345.5 473.5 Q331 442 314.5 406.5 Q298 371 280.5 334 Q263 297 246 261 L431 261 Z M445 760 Q428 760 411 765.5 Q394 771 373 785 L289 842 Q267 856 254 866.5 Q241 877 241 889 Q241 900 255.5 908 Q270 916 311 916 L323 916 Q365 916 391 905 Q417 894 436 863 L455 826 Q465 807 471 796.5 Q477 786 477 779 Q477 760 445 760 Z " />
<glyph glyph-name="Aring" unicode="&#xc5;" horiz-adv-x="672" d="M627 86 Q630 71 630 59 Q630 26 608.5 8 Q587 -10 553 -10 Q522 -10 504.5 4.5 Q487 19 480 53 L456 155 L195 155 Q178 118 165 91.5 Q152 65 146 53 Q132 20 112 5 Q92 -10 60 -10 Q31 -10 15 5.5 Q-1 21 -1 45 Q-1 64 9 84 L304 660 Q319 690 339.5 703.5 Q360 717 393 717 Q456 717 473 650 L627 86 Z M431 261 Q422 297 413.5 334 Q405 371 397 406.5 Q389 442 382.5 473.5 Q376 505 371 530 Q360 505 345.5 473.5 Q331 442 314.5 406.5 Q298 371 280.5 334 Q263 297 246 261 L431 261 Z M398 743 Q357 743 328.5 769.5 Q300 796 300 837 Q300 862 310.5 882.5 Q321 903 338 918 Q355 933 377.5 941 Q400 949 423 949 Q463 949 492 924 Q521 899 521 858 Q521 833 510.5 812 Q500 791 482.5 775.5 Q465 760 443 751.5 Q421 743 398 743 Z M404 797 Q427 797 442.5 813.5 Q458 830 458 853 Q458 872 447 884 Q436 896 416 896 Q394 896 378.5 880.5 Q363 865 363 842 Q363 822 374.5 809.5 Q386 797 404 797 Z " />
<glyph glyph-name="Atilde" unicode="&#xc3;" horiz-adv-x="672" d="M627 86 Q630 71 630 59 Q630 26 608.5 8 Q587 -10 553 -10 Q522 -10 504.5 4.5 Q487 19 480 53 L456 155 L195 155 Q178 118 165 91.5 Q152 65 146 53 Q132 20 112 5 Q92 -10 60 -10 Q31 -10 15 5.5 Q-1 21 -1 45 Q-1 64 9 84 L304 660 Q319 690 339.5 703.5 Q360 717 393 717 Q456 717 473 650 L627 86 Z M431 261 Q422 297 413.5 334 Q405 371 397 406.5 Q389 442 382.5 473.5 Q376 505 371 530 Q360 505 345.5 473.5 Q331 442 314.5 406.5 Q298 371 280.5 334 Q263 297 246 261 L431 261 Z M486 773 Q464 773 446 781 Q428 789 411.5 799 Q395 809 379 817 Q363 825 346 825 Q322 825 306 801 Q298 789 288.5 781.5 Q279 774 265 774 Q249 774 239 784 Q229 794 231 812 Q232 830 240.5 849 Q249 868 263.5 884 Q278 900 297.5 910.5 Q317 921 341 921 Q362 921 382 912.5 Q402 904 420 894.5 Q438 885 453.5 876.5 Q469 868 483 868 Q497 868 504.5 874.5 Q512 881 517 891 Q525 905 533 913.5 Q541 922 557 922 Q575 922 584.5 910 Q594 898 593 882 Q592 863 583.5 843.5 Q575 824 561 808.5 Q547 793 528 783 Q509 773 486 773 Z " />
<glyph glyph-name="AE" unicode="&#xc6;" horiz-adv-x="852" d="M610 599 L588 421 L734 421 Q797 421 797 369 Q797 338 778 324 Q759 310 724 310 L574 310 L550 111 L714 111 Q746 111 764 97.5 Q782 84 783 60 Q783 34 764 17.5 Q745 1 707 0 L472 0 Q441 0 422.5 15 Q404 30 404 60 Q404 63 404 66.5 Q404 70 405 73 L415 152 L213 152 L151 45 Q136 16 114.5 3 Q93 -10 61 -10 Q34 -10 18.5 3.5 Q3 17 3 40 Q3 59 16 81 L341 621 Q355 646 370.5 663 Q386 680 405 690.5 Q424 701 448 705.5 Q472 710 505 710 L789 710 Q821 710 838.5 697 Q856 684 856 658 Q856 631 837 615 Q818 599 785 599 L610 599 Z M474 605 L274 258 L429 258 L474 605 Z " />
<glyph glyph-name="B" unicode="B" horiz-adv-x="582" d="M117 0 Q83 0 66 16.5 Q49 33 49 62 Q49 71 50 76 L123 644 Q132 710 199 710 L328 710 Q441 710 502 665 Q563 620 563 542 Q563 514 552 487.5 Q541 461 522.5 439.5 Q504 418 478 402.5 Q452 387 422 380 L421 378 Q487 366 523 327 Q559 288 559 228 Q559 178 537 136.5 Q515 95 475 64.5 Q435 34 378 17 Q321 0 251 0 L117 0 Z M293 416 Q351 416 386 444.5 Q421 473 421 524 Q421 564 392 585 Q363 606 312 606 L261 606 L236 416 L293 416 Z M253 104 Q324 104 366 136 Q408 168 408 222 Q408 264 375.5 288.5 Q343 313 286 313 L223 313 L196 104 L253 104 Z " />
<glyph glyph-name="C" unicode="C" horiz-adv-x="660" d="M374 -10 Q305 -10 245 11.5 Q185 33 141 74.5 Q97 116 71.5 175 Q46 234 46 309 Q46 403 82.5 479 Q119 555 179 608.5 Q239 662 315.5 691 Q392 720 473 720 Q521 720 553.5 714 Q586 708 609 700 Q629 692 642 675.5 Q655 659 655 635 Q655 607 640.5 589.5 Q626 572 603 572 Q594 572 580.5 575.5 Q567 579 550.5 583 Q534 587 515 590.5 Q496 594 475 594 Q420 594 370 575 Q320 556 281.5 520.5 Q243 485 220 435.5 Q197 386 197 326 Q197 277 213 238.5 Q229 200 256.5 173 Q284 146 321 132 Q358 118 399 118 Q424 118 445.5 121.5 Q467 125 485 129.5 Q503 134 516.5 138 Q530 142 539 142 Q561 142 574.5 129 Q588 116 588 93 Q588 46 549 26 Q515 8 470 -1 Q425 -10 374 -10 Z " />
<glyph glyph-name="Ccedilla" unicode="&#xc7;" horiz-adv-x="660" d="M609 700 Q629 692 642 675.5 Q655 659 655 635 Q655 607 640.5 589.5 Q626 572 603 572 Q594 572 580.5 575.5 Q567 579 550.5 583 Q534 587 515 590.5 Q496 594 475 594 Q420 594 370 575 Q320 556 281.5 520.5 Q243 485 220 435.5 Q197 386 197 326 Q197 277 213 238.5 Q229 200 256.5 173 Q284 146 321 132 Q358 118 399 118 Q424 118 445.5 121.5 Q467 125 485 129.5 Q503 134 516.5 138 Q530 142 539 142 Q561 142 574.5 129 Q588 116 588 93 Q588 46 549 26 Q516 9 472 0 Q428 -9 379 -10 L363 -37 Q395 -39 416.5 -55.5 Q438 -72 438 -101 Q438 -122 428.5 -138.5 Q419 -155 403 -167 Q387 -179 366.5 -185 Q346 -191 324 -191 Q305 -191 287.5 -187.5 Q270 -184 260 -177 Q244 -165 244 -149 Q244 -140 250 -132 Q256 -124 266 -124 Q272 -124 287.5 -129 Q303 -134 317 -134 Q334 -134 345 -126.5 Q356 -119 356 -105 Q356 -92 346 -85.5 Q336 -79 324 -79 Q313 -79 305.5 -81 Q298 -83 294 -83 Q287 -83 287 -77 Q287 -71 295 -59 L325 -7 Q265 0 214 24.5 Q163 49 125.5 89.5 Q88 130 67 185.5 Q46 241 46 309 Q46 403 82.5 479 Q119 555 179 608.5 Q239 662 315.5 691 Q392 720 473 720 Q521 720 553.5 714 Q586 708 609 700 Z " />
<glyph glyph-name="D" unicode="D" horiz-adv-x="731" d="M116 0 Q81 0 65 16.5 Q49 33 49 61 Q49 65 49 68.5 Q49 72 50 77 L128 644 Q137 710 204 710 L330 710 Q418 710 489 687 Q560 664 610 623 Q660 582 686.5 524 Q713 466 713 396 Q713 310 678 237.5 Q643 165 580 112 Q517 59 428.5 29.5 Q340 0 232 0 L116 0 Z M251 117 Q320 117 376.5 136 Q433 155 474 190.5 Q515 226 537.5 275.5 Q560 325 560 387 Q560 484 496 539 Q432 594 318 594 L270 594 L203 117 L251 117 Z " />
<glyph glyph-name="Eth" unicode="&#xd0;" horiz-adv-x="725" d="M330 710 Q418 710 489 687 Q560 664 610 623 Q660 582 686.5 524 Q713 466 713 396 Q713 310 678 237.5 Q643 165 580 112 Q517 59 428.5 29.5 Q340 0 232 0 L116 0 Q81 0 65 16.5 Q49 33 49 61 Q49 65 49 68.5 Q49 72 50 77 L82 309 L78 309 Q52 309 37.5 324.5 Q23 340 23 360 Q23 389 42.5 404.5 Q62 420 88 420 L97 420 L128 644 Q137 710 204 710 L330 710 Z M251 117 Q320 117 376.5 136 Q433 155 474 190.5 Q515 226 537.5 275.5 Q560 325 560 387 Q560 484 496 539 Q432 594 318 594 L270 594 L245 416 L338 416 Q367 416 384 404.5 Q401 393 401 368 Q401 342 381.5 328 Q362 314 329 314 L231 314 L203 117 L251 117 Z " />
<glyph glyph-name="E" unicode="E" horiz-adv-x="527" d="M260 599 L238 421 L407 421 Q439 421 454.5 406.5 Q470 392 470 369 Q470 339 451 324.5 Q432 310 397 310 L224 310 L200 111 L404 111 Q465 111 465 59 Q465 33 446.5 16.5 Q428 0 394 0 L118 0 Q50 0 50 59 Q50 64 50 67.5 Q50 71 51 76 L120 643 Q128 710 195 710 L473 710 Q505 710 522 697 Q539 684 539 657 Q539 631 520.5 615 Q502 599 468 599 L260 599 Z " />
<glyph glyph-name="Eacute" unicode="&#xc9;" horiz-adv-x="527" d="M260 599 L238 421 L407 421 Q439 421 454.5 406.5 Q470 392 470 369 Q470 339 451 324.5 Q432 310 397 310 L224 310 L200 111 L404 111 Q465 111 465 59 Q465 33 446.5 16.5 Q428 0 394 0 L118 0 Q50 0 50 59 Q50 64 50 67.5 Q50 71 51 76 L120 643 Q128 710 195 710 L473 710 Q505 710 522 697 Q539 684 539 657 Q539 631 520.5 615 Q502 599 468 599 L260 599 Z M302 760 Q270 760 270 779 Q270 786 276 796.5 Q282 807 292 826 L311 863 Q330 894 356 905 Q382 916 424 916 L436 916 Q477 916 491.5 908 Q506 900 506 889 Q506 877 493 866.5 Q480 856 458 842 L374 785 Q353 771 336 765.5 Q319 760 302 760 Z " />
<glyph glyph-name="Ecircumflex" unicode="&#xca;" horiz-adv-x="527" d="M260 599 L238 421 L407 421 Q439 421 454.5 406.5 Q470 392 470 369 Q470 339 451 324.5 Q432 310 397 310 L224 310 L200 111 L404 111 Q465 111 465 59 Q465 33 446.5 16.5 Q428 0 394 0 L118 0 Q50 0 50 59 Q50 64 50 67.5 Q50 71 51 76 L120 643 Q128 710 195 710 L473 710 Q505 710 522 697 Q539 684 539 657 Q539 631 520.5 615 Q502 599 468 599 L260 599 Z M226 754 Q212 754 203.5 763.5 Q195 773 195 786 Q195 793 198.5 800.5 Q202 808 210 814 L280 868 Q303 886 319.5 897.5 Q336 909 356 909 Q381 909 395 895.5 Q409 882 426 862 L466 817 Q478 802 478 788 Q478 773 467 763.5 Q456 754 443 754 Q425 754 414.5 763.5 Q404 773 393 782 L347 825 L284 782 Q266 770 253 762 Q240 754 226 754 Z " />
<glyph glyph-name="Edieresis" unicode="&#xcb;" horiz-adv-x="527" d="M260 599 L238 421 L407 421 Q439 421 454.5 406.5 Q470 392 470 369 Q470 339 451 324.5 Q432 310 397 310 L224 310 L200 111 L404 111 Q465 111 465 59 Q465 33 446.5 16.5 Q428 0 394 0 L118 0 Q50 0 50 59 Q50 64 50 67.5 Q50 71 51 76 L120 643 Q128 710 195 710 L473 710 Q505 710 522 697 Q539 684 539 657 Q539 631 520.5 615 Q502 599 468 599 L260 599 Z M248 775 Q221 775 205 792.5 Q189 810 189 835 Q189 866 210.5 888 Q232 910 264 910 Q290 910 306 892.5 Q322 875 322 849 Q322 819 300.5 797 Q279 775 248 775 Z M431 775 Q404 775 388 792.5 Q372 810 372 835 Q372 866 393.5 888 Q415 910 447 910 Q473 910 489 892.5 Q505 875 505 849 Q505 819 483 797 Q461 775 431 775 Z " />
<glyph glyph-name="Egrave" unicode="&#xc8;" horiz-adv-x="527" d="M260 599 L238 421 L407 421 Q439 421 454.5 406.5 Q470 392 470 369 Q470 339 451 324.5 Q432 310 397 310 L224 310 L200 111 L404 111 Q465 111 465 59 Q465 33 446.5 16.5 Q428 0 394 0 L118 0 Q50 0 50 59 Q50 64 50 67.5 Q50 71 51 76 L120 643 Q128 710 195 710 L473 710 Q505 710 522 697 Q539 684 539 657 Q539 631 520.5 615 Q502 599 468 599 L260 599 Z M382 760 Q365 760 348 765.5 Q331 771 310 785 L226 842 Q204 856 191 866.5 Q178 877 178 889 Q178 900 192.5 908 Q207 916 248 916 L260 916 Q302 916 328 905 Q354 894 373 863 L392 826 Q402 807 408 796.5 Q414 786 414 779 Q414 760 382 760 Z " />
<glyph glyph-name="F" unicode="F" horiz-adv-x="519" d="M115 -10 Q47 -10 47 52 Q47 55 47 58.5 Q47 62 48 66 L124 644 Q132 710 199 710 L480 710 Q509 710 524.5 697.5 Q540 685 540 660 Q540 599 475 599 L263 599 L235 387 L413 387 Q442 387 457.5 374.5 Q473 362 473 337 Q472 308 454.5 292 Q437 276 407 276 L221 276 L192 57 Q183 -10 115 -10 Z " />
<glyph glyph-name="G" unicode="G" horiz-adv-x="768" d="M379 -10 Q308 -10 248.5 13.5 Q189 37 145.5 79 Q102 121 78 179.5 Q54 238 54 308 Q54 397 89.5 472.5 Q125 548 186 603 Q247 658 328.5 689 Q410 720 501 720 Q545 720 592 712 Q639 704 677 689 Q730 670 730 624 Q730 592 712 577 Q694 562 672 562 Q660 562 644 567.5 Q628 573 606 579 Q584 585 555.5 590.5 Q527 596 490 596 Q433 596 381 576 Q329 556 290 519 Q251 482 228 431 Q205 380 205 319 Q205 272 220 235 Q235 198 261 171.5 Q287 145 322 131 Q357 117 398 117 Q438 117 475 128.5 Q512 140 541 161 Q570 182 589.5 212.5 Q609 243 615 281 L493 281 Q461 281 444 296 Q427 311 427 337 Q427 395 500 395 L697 395 Q729 395 743.5 382.5 Q758 370 758 338 Q758 263 728 199.5 Q698 136 646 89.5 Q594 43 525.5 16.5 Q457 -10 379 -10 Z " />
<glyph glyph-name="H" unicode="H" horiz-adv-x="728" d="M640 720 Q675 720 692.5 700 Q710 680 710 651 Q710 642 709 637 L636 72 Q630 28 609 9 Q588 -10 551 -10 Q517 -10 501 8 Q485 26 485 58 Q485 63 485 67.5 Q485 72 486 77 L516 307 L230 307 L200 72 Q194 28 173 9 Q152 -10 115 -10 Q81 -10 65 8 Q49 26 49 58 Q49 63 49 67.5 Q49 72 50 77 L124 646 Q133 720 204 720 Q239 720 256.5 700 Q274 680 274 651 Q274 642 273 637 L245 419 L530 419 L560 646 Q569 720 640 720 Z " />
<glyph glyph-name="I" unicode="I" horiz-adv-x="308" d="M122 -10 Q88 -10 72 8 Q56 26 56 58 Q56 63 56 67.5 Q56 72 57 77 L131 646 Q140 720 211 720 Q246 720 263.5 700 Q281 680 281 651 Q281 642 280 637 L207 72 Q201 28 180 9 Q159 -10 122 -10 Z " />
<glyph glyph-name="Iacute" unicode="&#xcd;" horiz-adv-x="308" d="M122 -10 Q88 -10 72 8 Q56 26 56 58 Q56 63 56 67.5 Q56 72 57 77 L131 646 Q140 720 211 720 Q246 720 263.5 700 Q281 680 281 651 Q281 642 280 637 L207 72 Q201 28 180 9 Q159 -10 122 -10 Z M183 760 Q151 760 151 779 Q151 786 157 796.5 Q163 807 173 826 L192 863 Q211 894 237 905 Q263 916 305 916 L317 916 Q358 916 372.5 908 Q387 900 387 889 Q387 877 374 866.5 Q361 856 339 842 L255 785 Q234 771 217 765.5 Q200 760 183 760 Z " />
<glyph glyph-name="Icircumflex" unicode="&#xce;" horiz-adv-x="308" d="M122 -10 Q88 -10 72 8 Q56 26 56 58 Q56 63 56 67.5 Q56 72 57 77 L131 646 Q140 720 211 720 Q246 720 263.5 700 Q281 680 281 651 Q281 642 280 637 L207 72 Q201 28 180 9 Q159 -10 122 -10 Z M107 754 Q93 754 84.5 763.5 Q76 773 76 786 Q76 793 79.5 800.5 Q83 808 91 814 L161 868 Q184 886 200.5 897.5 Q217 909 237 909 Q262 909 276 895.5 Q290 882 307 862 L347 817 Q359 802 359 788 Q359 773 348 763.5 Q337 754 324 754 Q306 754 295.5 763.5 Q285 773 274 782 L228 825 L165 782 Q147 770 134 762 Q121 754 107 754 Z " />
<glyph glyph-name="Idieresis" unicode="&#xcf;" horiz-adv-x="308" d="M122 -10 Q88 -10 72 8 Q56 26 56 58 Q56 63 56 67.5 Q56 72 57 77 L131 646 Q140 720 211 720 Q246 720 263.5 700 Q281 680 281 651 Q281 642 280 637 L207 72 Q201 28 180 9 Q159 -10 122 -10 Z M129 775 Q102 775 86 792.5 Q70 810 70 835 Q70 866 91.5 888 Q113 910 145 910 Q171 910 187 892.5 Q203 875 203 849 Q203 819 181.5 797 Q160 775 129 775 Z M312 775 Q285 775 269 792.5 Q253 810 253 835 Q253 866 274.5 888 Q296 910 328 910 Q354 910 370 892.5 Q386 875 386 849 Q386 819 364 797 Q342 775 312 775 Z " />
<glyph glyph-name="Igrave" unicode="&#xcc;" horiz-adv-x="308" d="M122 -10 Q88 -10 72 8 Q56 26 56 58 Q56 63 56 67.5 Q56 72 57 77 L131 646 Q140 720 211 720 Q246 720 263.5 700 Q281 680 281 651 Q281 642 280 637 L207 72 Q201 28 180 9 Q159 -10 122 -10 Z M263 760 Q246 760 229 765.5 Q212 771 191 785 L107 842 Q85 856 72 866.5 Q59 877 59 889 Q59 900 73.5 908 Q88 916 129 916 L141 916 Q183 916 209 905 Q235 894 254 863 L273 826 Q283 807 289 796.5 Q295 786 295 779 Q295 760 263 760 Z " />
<glyph glyph-name="J" unicode="J" horiz-adv-x="462" d="M135 -10 Q108 -10 83 -5.5 Q58 -1 38 9 Q20 17 9 31.5 Q-2 46 -2 67 Q-2 91 11 107.5 Q24 124 44 124 Q59 124 79.5 117 Q100 110 122 110 Q165 110 194 138.5 Q223 167 231 224 L286 645 Q295 720 367 720 Q402 720 419 700.5 Q436 681 436 652 Q436 643 435 638 L381 228 Q373 169 351 124.5 Q329 80 296.5 50 Q264 20 222.5 5 Q181 -10 135 -10 Z " />
<glyph glyph-name="K" unicode="K" horiz-adv-x="643" d="M588 720 Q615 720 632 703.5 Q649 687 649 663 Q649 651 643.5 637.5 Q638 624 626 610 L392 363 L560 99 Q572 78 572 58 Q572 30 553 10 Q534 -10 505 -10 Q476 -10 458 2 Q440 14 424 43 L236 357 L199 72 Q193 28 172 9 Q151 -10 114 -10 Q80 -10 64 8 Q48 26 48 58 Q48 63 48 67.5 Q48 72 49 77 L123 646 Q132 720 203 720 Q238 720 255.5 700 Q273 680 273 651 Q273 642 272 637 L237 369 L502 666 Q528 698 546 709 Q564 720 588 720 Z " />
<glyph glyph-name="L" unicode="L" horiz-adv-x="493" d="M115 0 Q83 0 65.5 16.5 Q48 33 48 61 Q48 71 49 76 L122 651 Q126 683 145 701.5 Q164 720 197 720 Q232 720 250 701.5 Q268 683 268 654 Q268 651 267.5 648 Q267 645 267 642 L199 116 L389 116 Q419 116 435.5 101.5 Q452 87 452 61 Q452 0 378 0 L115 0 L115 0 Z " />
<glyph glyph-name="Lslash" unicode="&#x141;" horiz-adv-x="493" d="M389 116 Q419 116 435.5 101.5 Q452 87 452 61 Q452 0 378 0 L115 0 Q83 0 65.5 16.5 Q48 33 48 61 Q48 71 49 76 L81 330 Q70 326 58 326 Q42 326 31 337 Q20 348 20 365 Q20 397 59 411 L93 424 L122 651 Q126 683 145 701.5 Q164 720 197 720 Q232 720 250 701.5 Q268 683 268 654 Q268 651 267.5 648 Q267 645 267 642 L246 482 L249 483 Q261 488 273.5 492 Q286 496 296 496 Q311 496 322.5 486.5 Q334 477 334 461 Q334 426 296 411 L234 388 L199 116 L389 116 L389 116 Z " />
<glyph glyph-name="M" unicode="M" horiz-adv-x="905" d="M41 -10 Q12 -10 -3 6 Q-18 22 -18 48 Q-18 65 -12 86 L159 639 Q184 716 259 716 Q296 716 318.5 695 Q341 674 349 639 L444 227 L639 650 Q668 716 731 716 Q770 716 789.5 694 Q809 672 813 628 L851 84 Q855 42 836 16 Q817 -10 777 -10 Q697 -10 696 72 L682 481 L487 55 Q476 30 458 17.5 Q440 5 412 5 Q384 5 369 19.5 Q354 34 349 57 L253 471 L129 60 Q119 26 99 8 Q79 -10 41 -10 Z " />
<glyph glyph-name="N" unicode="N" horiz-adv-x="759" d="M110 -10 Q80 -10 63.5 5.5 Q47 21 47 51 Q47 54 47.5 58 Q48 62 48 66 L123 654 Q132 720 198 720 Q222 720 241 707.5 Q260 695 277 666 L548 221 L601 654 Q608 720 674 720 Q703 720 721 704.5 Q739 689 739 660 Q739 656 738.5 652 Q738 648 738 644 L664 57 Q657 -10 589 -10 Q566 -10 548 1 Q530 12 515 37 L239 483 L185 57 Q178 -10 110 -10 Z " />
<glyph glyph-name="Ntilde" unicode="&#xd1;" horiz-adv-x="759" d="M110 -10 Q80 -10 63.5 5.5 Q47 21 47 51 Q47 54 47.5 58 Q48 62 48 66 L123 654 Q132 720 198 720 Q222 720 241 707.5 Q260 695 277 666 L548 221 L601 654 Q608 720 674 720 Q703 720 721 704.5 Q739 689 739 660 Q739 656 738.5 652 Q738 648 738 644 L664 57 Q657 -10 589 -10 Q566 -10 548 1 Q530 12 515 37 L239 483 L185 57 Q178 -10 110 -10 Z M530 773 Q508 773 490 781 Q472 789 455.5 799 Q439 809 423 817 Q407 825 390 825 Q366 825 350 801 Q342 789 332.5 781.5 Q323 774 309 774 Q293 774 283 784 Q273 794 275 812 Q276 830 284.5 849 Q293 868 307.5 884 Q322 900 341.5 910.5 Q361 921 385 921 Q406 921 426 912.5 Q446 904 464 894.5 Q482 885 497.5 876.5 Q513 868 527 868 Q541 868 548.5 874.5 Q556 881 561 891 Q569 905 577 913.5 Q585 922 601 922 Q619 922 628.5 910 Q638 898 637 882 Q636 863 627.5 843.5 Q619 824 605 808.5 Q591 793 572 783 Q553 773 530 773 Z " />
<glyph glyph-name="O" unicode="O" horiz-adv-x="814" d="M373 -10 Q303 -10 243.5 13.5 Q184 37 140 80 Q96 123 71 182 Q46 241 46 313 Q46 401 81.5 475.5 Q117 550 175.5 604.5 Q234 659 309.5 689.5 Q385 720 466 720 Q536 720 596 696.5 Q656 673 700.5 630 Q745 587 770.5 527.5 Q796 468 796 396 Q796 309 760.5 234.5 Q725 160 666 105.5 Q607 51 530.5 20.5 Q454 -10 373 -10 Z M390 122 Q443 122 491 143 Q539 164 575.5 200 Q612 236 633.5 284 Q655 332 655 385 Q655 429 639.5 466.5 Q624 504 597 531 Q570 558 532 573.5 Q494 589 449 589 Q396 589 348.5 567.5 Q301 546 265.5 509.5 Q230 473 209 425 Q188 377 188 324 Q188 280 203 243 Q218 206 244.5 179 Q271 152 308 137 Q345 122 390 122 Z " />
<glyph glyph-name="Oacute" unicode="&#xd3;" horiz-adv-x="814" d="M373 -10 Q303 -10 243.5 13.5 Q184 37 140 80 Q96 123 71 182 Q46 241 46 313 Q46 401 81.5 475.5 Q117 550 175.5 604.5 Q234 659 309.5 689.5 Q385 720 466 720 Q536 720 596 696.5 Q656 673 700.5 630 Q745 587 770.5 527.5 Q796 468 796 396 Q796 309 760.5 234.5 Q725 160 666 105.5 Q607 51 530.5 20.5 Q454 -10 373 -10 Z M390 122 Q443 122 491 143 Q539 164 575.5 200 Q612 236 633.5 284 Q655 332 655 385 Q655 429 639.5 466.5 Q624 504 597 531 Q570 558 532 573.5 Q494 589 449 589 Q396 589 348.5 567.5 Q301 546 265.5 509.5 Q230 473 209 425 Q188 377 188 324 Q188 280 203 243 Q218 206 244.5 179 Q271 152 308 137 Q345 122 390 122 Z M436 760 Q404 760 404 779 Q404 786 410 796.5 Q416 807 426 826 L445 863 Q464 894 490 905 Q516 916 558 916 L570 916 Q611 916 625.5 908 Q640 900 640 889 Q640 877 627 866.5 Q614 856 592 842 L508 785 Q487 771 470 765.5 Q453 760 436 760 Z " />
<glyph glyph-name="Ocircumflex" unicode="&#xd4;" horiz-adv-x="814" d="M373 -10 Q303 -10 243.5 13.5 Q184 37 140 80 Q96 123 71 182 Q46 241 46 313 Q46 401 81.5 475.5 Q117 550 175.5 604.5 Q234 659 309.5 689.5 Q385 720 466 720 Q536 720 596 696.5 Q656 673 700.5 630 Q745 587 770.5 527.5 Q796 468 796 396 Q796 309 760.5 234.5 Q725 160 666 105.5 Q607 51 530.5 20.5 Q454 -10 373 -10 Z M390 122 Q443 122 491 143 Q539 164 575.5 200 Q612 236 633.5 284 Q655 332 655 385 Q655 429 639.5 466.5 Q624 504 597 531 Q570 558 532 573.5 Q494 589 449 589 Q396 589 348.5 567.5 Q301 546 265.5 509.5 Q230 473 209 425 Q188 377 188 324 Q188 280 203 243 Q218 206 244.5 179 Q271 152 308 137 Q345 122 390 122 Z M360 754 Q346 754 337.5 763.5 Q329 773 329 786 Q329 793 332.5 800.5 Q336 808 344 814 L414 868 Q437 886 453.5 897.5 Q470 909 490 909 Q515 909 529 895.5 Q543 882 560 862 L600 817 Q612 802 612 788 Q612 773 601 763.5 Q590 754 577 754 Q559 754 548.5 763.5 Q538 773 527 782 L481 825 L418 782 Q400 770 387 762 Q374 754 360 754 Z " />
<glyph glyph-name="Odieresis" unicode="&#xd6;" horiz-adv-x="814" d="M373 -10 Q303 -10 243.5 13.5 Q184 37 140 80 Q96 123 71 182 Q46 241 46 313 Q46 401 81.5 475.5 Q117 550 175.5 604.5 Q234 659 309.5 689.5 Q385 720 466 720 Q536 720 596 696.5 Q656 673 700.5 630 Q745 587 770.5 527.5 Q796 468 796 396 Q796 309 760.5 234.5 Q725 160 666 105.5 Q607 51 530.5 20.5 Q454 -10 373 -10 Z M390 122 Q443 122 491 143 Q539 164 575.5 200 Q612 236 633.5 284 Q655 332 655 385 Q655 429 639.5 466.5 Q624 504 597 531 Q570 558 532 573.5 Q494 589 449 589 Q396 589 348.5 567.5 Q301 546 265.5 509.5 Q230 473 209 425 Q188 377 188 324 Q188 280 203 243 Q218 206 244.5 179 Q271 152 308 137 Q345 122 390 122 Z M382 775 Q355 775 339 792.5 Q323 810 323 835 Q323 866 344.5 888 Q366 910 398 910 Q424 910 440 892.5 Q456 875 456 849 Q456 819 434.5 797 Q413 775 382 775 Z M565 775 Q538 775 522 792.5 Q506 810 506 835 Q506 866 527.5 888 Q549 910 581 910 Q607 910 623 892.5 Q639 875 639 849 Q639 819 617 797 Q595 775 565 775 Z " />
<glyph glyph-name="Ograve" unicode="&#xd2;" horiz-adv-x="814" d="M373 -10 Q303 -10 243.5 13.5 Q184 37 140 80 Q96 123 71 182 Q46 241 46 313 Q46 401 81.5 475.5 Q117 550 175.5 604.5 Q234 659 309.5 689.5 Q385 720 466 720 Q536 720 596 696.5 Q656 673 700.5 630 Q745 587 770.5 527.5 Q796 468 796 396 Q796 309 760.5 234.5 Q725 160 666 105.5 Q607 51 530.5 20.5 Q454 -10 373 -10 Z M390 122 Q443 122 491 143 Q539 164 575.5 200 Q612 236 633.5 284 Q655 332 655 385 Q655 429 639.5 466.5 Q624 504 597 531 Q570 558 532 573.5 Q494 589 449 589 Q396 589 348.5 567.5 Q301 546 265.5 509.5 Q230 473 209 425 Q188 377 188 324 Q188 280 203 243 Q218 206 244.5 179 Q271 152 308 137 Q345 122 390 122 Z M516 760 Q499 760 482 765.5 Q465 771 444 785 L360 842 Q338 856 325 866.5 Q312 877 312 889 Q312 900 326.5 908 Q341 916 382 916 L394 916 Q436 916 462 905 Q488 894 507 863 L526 826 Q536 807 542 796.5 Q548 786 548 779 Q548 760 516 760 Z " />
<glyph glyph-name="Oslash" unicode="&#xd8;" horiz-adv-x="814" d="M676 651 Q732 608 764 542.5 Q796 477 796 396 Q796 309 760.5 234.5 Q725 160 666 105.5 Q607 51 530.5 20.5 Q454 -10 373 -10 Q275 -10 198 36 L161 -12 Q152 -24 143 -30.5 Q134 -37 123 -37 Q114 -37 108 -31 Q102 -25 102 -17 Q102 -7 111 5 L157 64 Q105 108 75.5 171 Q46 234 46 313 Q46 401 81.5 475.5 Q117 550 175.5 604.5 Q234 659 309.5 689.5 Q385 720 466 720 Q513 720 555 709.5 Q597 699 634 679 L667 722 Q677 734 684 739.5 Q691 745 702 745 Q713 745 720 739 Q727 733 727 724 Q727 715 720 707 L676 651 Z M188 324 Q188 279 203 242 Q218 205 245 178 L547 567 Q501 589 449 589 Q396 589 348.5 567.5 Q301 546 265.5 509.5 Q230 473 209 425 Q188 377 188 324 Z M390 122 Q443 122 491 143 Q539 164 575.5 200 Q612 236 633.5 284 Q655 332 655 385 Q655 433 637.5 472 Q620 511 589 538 L286 148 Q330 122 390 122 Z " />
<glyph glyph-name="Otilde" unicode="&#xd5;" horiz-adv-x="814" d="M373 -10 Q303 -10 243.5 13.5 Q184 37 140 80 Q96 123 71 182 Q46 241 46 313 Q46 401 81.5 475.5 Q117 550 175.5 604.5 Q234 659 309.5 689.5 Q385 720 466 720 Q536 720 596 696.5 Q656 673 700.5 630 Q745 587 770.5 527.5 Q796 468 796 396 Q796 309 760.5 234.5 Q725 160 666 105.5 Q607 51 530.5 20.5 Q454 -10 373 -10 Z M390 122 Q443 122 491 143 Q539 164 575.5 200 Q612 236 633.5 284 Q655 332 655 385 Q655 429 639.5 466.5 Q624 504 597 531 Q570 558 532 573.5 Q494 589 449 589 Q396 589 348.5 567.5 Q301 546 265.5 509.5 Q230 473 209 425 Q188 377 188 324 Q188 280 203 243 Q218 206 244.5 179 Q271 152 308 137 Q345 122 390 122 Z M557 773 Q535 773 517 781 Q499 789 482.5 799 Q466 809 450 817 Q434 825 417 825 Q393 825 377 801 Q369 789 359.5 781.5 Q350 774 336 774 Q320 774 310 784 Q300 794 302 812 Q303 830 311.5 849 Q320 868 334.5 884 Q349 900 368.5 910.5 Q388 921 412 921 Q433 921 453 912.5 Q473 904 491 894.5 Q509 885 524.5 876.5 Q540 868 554 868 Q568 868 575.5 874.5 Q583 881 588 891 Q596 905 604 913.5 Q612 922 628 922 Q646 922 655.5 910 Q665 898 664 882 Q663 863 654.5 843.5 Q646 824 632 808.5 Q618 793 599 783 Q580 773 557 773 Z " />
<glyph glyph-name="OE" unicode="&#x152;" horiz-adv-x="867" d="M601 599 L579 421 L739 421 Q769 421 785.5 407.5 Q802 394 802 369 Q802 338 782.5 324 Q763 310 729 310 L565 310 L540 111 L734 111 Q763 111 779.5 97.5 Q796 84 796 59 Q796 28 777.5 14 Q759 0 724 0 L382 0 Q308 0 246 22.5 Q184 45 140 86 Q96 127 71.5 185 Q47 243 47 314 Q47 404 81.5 477 Q116 550 174.5 601.5 Q233 653 311 681.5 Q389 710 476 710 L804 710 Q871 710 871 657 Q871 631 852 615 Q833 599 800 599 L601 599 Z M455 589 Q398 589 351.5 569.5 Q305 550 271 515 Q237 480 218.5 431.5 Q200 383 200 325 Q200 233 251 178 Q302 123 394 122 L455 589 Z " />
<glyph glyph-name="P" unicode="P" horiz-adv-x="601" d="M331 710 Q458 710 529.5 656 Q601 602 601 502 Q601 445 578.5 398.5 Q556 352 513.5 319 Q471 286 410.5 267.5 Q350 249 274 249 L219 249 L198 67 Q189 -10 116 -10 Q81 -10 64.5 8 Q48 26 48 58 Q48 62 48 65.5 Q48 69 49 74 L118 643 Q126 710 193 710 L331 710 Z M285 360 Q366 360 409 397.5 Q452 435 452 494 Q452 543 417 571 Q382 599 315 599 L262 599 L233 360 L285 360 Z " />
<glyph glyph-name="Thorn" unicode="&#xde;" horiz-adv-x="604" d="M327 572 Q391 572 440 558 Q489 544 522.5 518.5 Q556 493 573 457.5 Q590 422 590 379 Q590 327 569 283 Q548 239 507.5 207.5 Q467 176 407 158.5 Q347 141 269 141 L208 141 L198 66 Q193 32 173 11 Q153 -10 115 -10 Q81 -10 64.5 7.5 Q48 25 48 57 Q48 61 48 64.5 Q48 68 49 73 L124 645 Q134 720 202 720 Q240 720 258.5 698 Q277 676 273 642 L264 572 L327 572 Z M285 242 Q357 242 396.5 278 Q436 314 436 371 Q436 417 404.5 443.5 Q373 470 311 470 L251 470 L221 242 L285 242 Z " />
<glyph glyph-name="Q" unicode="Q" horiz-adv-x="818" d="M737 22 Q745 10 751 -2 Q757 -14 757 -26 Q757 -57 737.5 -74.5 Q718 -92 695 -92 Q675 -92 660.5 -82.5 Q646 -73 633 -55 L566 37 Q522 14 473 2 Q424 -10 373 -10 Q303 -10 243.5 13.5 Q184 37 140 80 Q96 123 71 182 Q46 241 46 313 Q46 401 81.5 475.5 Q117 550 175.5 604.5 Q234 659 309.5 689.5 Q385 720 466 720 Q536 720 596 696.5 Q656 673 700.5 630 Q745 587 770.5 527.5 Q796 468 796 396 Q796 311 762 238 Q728 165 670 110 L737 22 Z M188 324 Q188 280 203 243 Q218 206 244.5 179 Q271 152 308 137 Q345 122 390 122 Q443 122 491 143 Q539 164 575.5 200 Q612 236 633.5 284 Q655 332 655 385 Q655 429 639.5 466.5 Q624 504 597 531 Q570 558 532 573.5 Q494 589 449 589 Q396 589 348.5 567.5 Q301 546 265.5 509.5 Q230 473 209 425 Q188 377 188 324 Z " />
<glyph glyph-name="R" unicode="R" horiz-adv-x="593" d="M510 92 Q523 72 523 52 Q523 26 503.5 8 Q484 -10 455 -10 Q426 -10 407.5 4.5 Q389 19 372 51 L231 293 L207 293 L176 62 Q167 -10 97 -10 Q65 -10 48.5 7.5 Q32 25 32 55 Q32 59 32 63 Q32 67 33 72 L109 644 Q118 710 185 710 L334 710 Q448 710 513 663 Q578 616 578 535 Q578 493 564 456 Q550 419 523 390 Q496 361 457.5 341.5 Q419 322 370 314 L510 92 Z M219 386 L279 386 Q353 386 393.5 419.5 Q434 453 434 509 Q434 554 401.5 579.5 Q369 605 309 605 L248 605 L219 386 Z " />
<glyph glyph-name="S" unicode="S" horiz-adv-x="545" d="M214 -10 Q179 -10 141.5 -4.5 Q104 1 76 11 Q44 22 29.5 40.5 Q15 59 15 83 Q15 109 31 124.5 Q47 140 66 140 Q76 140 92 135 Q108 130 128 124.5 Q148 119 171.5 114 Q195 109 221 109 Q279 109 317.5 135 Q356 161 356 205 Q356 244 323.5 269 Q291 294 236 318 Q204 333 174.5 350 Q145 367 123 389.5 Q101 412 88 440.5 Q75 469 75 506 Q75 555 96.5 594.5 Q118 634 155.5 662 Q193 690 242 705 Q291 720 347 720 Q385 720 419.5 715.5 Q454 711 482 701 Q503 693 515 677 Q527 661 527 641 Q527 615 512.5 601.5 Q498 588 478 588 Q469 588 455 591 Q441 594 424 598 Q407 602 388 605 Q369 608 350 608 Q298 608 264.5 583 Q231 558 231 520 Q231 500 240 485 Q249 470 265 457.5 Q281 445 302 434.5 Q323 424 346 413 Q380 397 410 379.5 Q440 362 462.5 340 Q485 318 497.5 290.5 Q510 263 510 228 Q510 177 489 133.5 Q468 90 429 58 Q390 26 335.5 8 Q281 -10 214 -10 Z " />
<glyph glyph-name="Scaron" unicode="&#x160;" horiz-adv-x="545" d="M214 -10 Q179 -10 141.5 -4.5 Q104 1 76 11 Q44 22 29.5 40.5 Q15 59 15 83 Q15 109 31 124.5 Q47 140 66 140 Q76 140 92 135 Q108 130 128 124.5 Q148 119 171.5 114 Q195 109 221 109 Q279 109 317.5 135 Q356 161 356 205 Q356 244 323.5 269 Q291 294 236 318 Q204 333 174.5 350 Q145 367 123 389.5 Q101 412 88 440.5 Q75 469 75 506 Q75 555 96.5 594.5 Q118 634 155.5 662 Q193 690 242 705 Q291 720 347 720 Q385 720 419.5 715.5 Q454 711 482 701 Q503 693 515 677 Q527 661 527 641 Q527 615 512.5 601.5 Q498 588 478 588 Q469 588 455 591 Q441 594 424 598 Q407 602 388 605 Q369 608 350 608 Q298 608 264.5 583 Q231 558 231 520 Q231 500 240 485 Q249 470 265 457.5 Q281 445 302 434.5 Q323 424 346 413 Q380 397 410 379.5 Q440 362 462.5 340 Q485 318 497.5 290.5 Q510 263 510 228 Q510 177 489 133.5 Q468 90 429 58 Q390 26 335.5 8 Q281 -10 214 -10 Z M338 755 Q315 755 302 764.5 Q289 774 275 791 L242 833 Q231 847 226 855 Q221 863 221 874 Q221 888 231 898 Q241 908 255 908 Q266 908 276.5 902.5 Q287 897 297 888 L348 838 L404 885 Q421 897 430.5 902.5 Q440 908 452 908 Q465 908 473 900 Q481 892 481 881 Q481 870 475.5 861 Q470 852 458 839 L412 792 Q395 774 377.5 764.5 Q360 755 338 755 Z " />
<glyph glyph-name="T" unicode="T" horiz-adv-x="581" d="M540 710 Q608 710 608 654 Q608 625 589.5 608 Q571 591 534 591 L408 591 L339 61 Q334 23 313.5 6.5 Q293 -10 258 -10 Q188 -10 188 52 Q188 62 189 67 L259 591 L141 591 Q74 591 74 647 Q74 677 92.5 693.5 Q111 710 149 710 L540 710 L540 710 Z " />
<glyph glyph-name="U" unicode="U" horiz-adv-x="702" d="M316 -10 Q261 -10 215.5 4.5 Q170 19 137.5 48 Q105 77 87 120.5 Q69 164 69 223 Q69 237 70 251 Q71 265 73 279 L120 648 Q125 686 146 703 Q167 720 201 720 Q233 720 251 703 Q269 686 269 657 Q269 649 268 644 L221 274 Q218 254 218 236 Q218 171 249.5 142 Q281 113 335 113 Q393 113 435.5 150.5 Q478 188 489 274 L537 649 Q546 720 615 720 Q647 720 665 703 Q683 686 683 657 Q683 654 683 650.5 Q683 647 682 644 L635 279 Q625 206 597 152 Q569 98 526.5 62 Q484 26 430.5 8 Q377 -10 316 -10 Z " />
<glyph glyph-name="Uacute" unicode="&#xda;" horiz-adv-x="702" d="M316 -10 Q261 -10 215.5 4.5 Q170 19 137.5 48 Q105 77 87 120.5 Q69 164 69 223 Q69 237 70 251 Q71 265 73 279 L120 648 Q125 686 146 703 Q167 720 201 720 Q233 720 251 703 Q269 686 269 657 Q269 649 268 644 L221 274 Q218 254 218 236 Q218 171 249.5 142 Q281 113 335 113 Q393 113 435.5 150.5 Q478 188 489 274 L537 649 Q546 720 615 720 Q647 720 665 703 Q683 686 683 657 Q683 654 683 650.5 Q683 647 682 644 L635 279 Q625 206 597 152 Q569 98 526.5 62 Q484 26 430.5 8 Q377 -10 316 -10 Z M380 760 Q348 760 348 779 Q348 786 354 796.5 Q360 807 370 826 L389 863 Q408 894 434 905 Q460 916 502 916 L514 916 Q555 916 569.5 908 Q584 900 584 889 Q584 877 571 866.5 Q558 856 536 842 L452 785 Q431 771 414 765.5 Q397 760 380 760 Z " />
<glyph glyph-name="Ucircumflex" unicode="&#xdb;" horiz-adv-x="702" d="M316 -10 Q261 -10 215.5 4.5 Q170 19 137.5 48 Q105 77 87 120.5 Q69 164 69 223 Q69 237 70 251 Q71 265 73 279 L120 648 Q125 686 146 703 Q167 720 201 720 Q233 720 251 703 Q269 686 269 657 Q269 649 268 644 L221 274 Q218 254 218 236 Q218 171 249.5 142 Q281 113 335 113 Q393 113 435.5 150.5 Q478 188 489 274 L537 649 Q546 720 615 720 Q647 720 665 703 Q683 686 683 657 Q683 654 683 650.5 Q683 647 682 644 L635 279 Q625 206 597 152 Q569 98 526.5 62 Q484 26 430.5 8 Q377 -10 316 -10 Z M304 754 Q290 754 281.5 763.5 Q273 773 273 786 Q273 793 276.5 800.5 Q280 808 288 814 L358 868 Q381 886 397.5 897.5 Q414 909 434 909 Q459 909 473 895.5 Q487 882 504 862 L544 817 Q556 802 556 788 Q556 773 545 763.5 Q534 754 521 754 Q503 754 492.5 763.5 Q482 773 471 782 L425 825 L362 782 Q344 770 331 762 Q318 754 304 754 Z " />
<glyph glyph-name="Udieresis" unicode="&#xdc;" horiz-adv-x="702" d="M316 -10 Q261 -10 215.5 4.5 Q170 19 137.5 48 Q105 77 87 120.5 Q69 164 69 223 Q69 237 70 251 Q71 265 73 279 L120 648 Q125 686 146 703 Q167 720 201 720 Q233 720 251 703 Q269 686 269 657 Q269 649 268 644 L221 274 Q218 254 218 236 Q218 171 249.5 142 Q281 113 335 113 Q393 113 435.5 150.5 Q478 188 489 274 L537 649 Q546 720 615 720 Q647 720 665 703 Q683 686 683 657 Q683 654 683 650.5 Q683 647 682 644 L635 279 Q625 206 597 152 Q569 98 526.5 62 Q484 26 430.5 8 Q377 -10 316 -10 Z M326 775 Q299 775 283 792.5 Q267 810 267 835 Q267 866 288.5 888 Q310 910 342 910 Q368 910 384 892.5 Q400 875 400 849 Q400 819 378.5 797 Q357 775 326 775 Z M509 775 Q482 775 466 792.5 Q450 810 450 835 Q450 866 471.5 888 Q493 910 525 910 Q551 910 567 892.5 Q583 875 583 849 Q583 819 561 797 Q539 775 509 775 Z " />
<glyph glyph-name="Ugrave" unicode="&#xd9;" horiz-adv-x="702" d="M316 -10 Q261 -10 215.5 4.5 Q170 19 137.5 48 Q105 77 87 120.5 Q69 164 69 223 Q69 237 70 251 Q71 265 73 279 L120 648 Q125 686 146 703 Q167 720 201 720 Q233 720 251 703 Q269 686 269 657 Q269 649 268 644 L221 274 Q218 254 218 236 Q218 171 249.5 142 Q281 113 335 113 Q393 113 435.5 150.5 Q478 188 489 274 L537 649 Q546 720 615 720 Q647 720 665 703 Q683 686 683 657 Q683 654 683 650.5 Q683 647 682 644 L635 279 Q625 206 597 152 Q569 98 526.5 62 Q484 26 430.5 8 Q377 -10 316 -10 Z M460 760 Q443 760 426 765.5 Q409 771 388 785 L304 842 Q282 856 269 866.5 Q256 877 256 889 Q256 900 270.5 908 Q285 916 326 916 L338 916 Q380 916 406 905 Q432 894 451 863 L470 826 Q480 807 486 796.5 Q492 786 492 779 Q492 760 460 760 Z " />
<glyph glyph-name="V" unicode="V" horiz-adv-x="682" d="M314 -10 Q258 -10 242 52 L83 624 Q79 637 79 651 Q79 682 99 701 Q119 720 154 720 Q188 720 206 701.5 Q224 683 232 651 L340 197 L562 661 Q575 692 593.5 706 Q612 720 642 720 Q668 720 686 705 Q704 690 704 664 Q704 644 692 622 L394 44 Q366 -10 314 -10 Z " />
<glyph glyph-name="W" unicode="W" horiz-adv-x="977" d="M869 654 Q881 685 898 702.5 Q915 720 947 720 Q975 720 990.5 703 Q1006 686 1006 661 Q1006 645 998 626 L751 50 Q737 18 716 4 Q695 -10 665 -10 Q634 -10 615.5 7 Q597 24 591 62 L514 498 L328 51 Q314 19 293.5 4.5 Q273 -10 243 -10 Q213 -10 195 7 Q177 24 170 62 L72 633 Q71 638 70.5 642 Q70 646 70 651 Q70 680 87.5 700 Q105 720 139 720 Q174 720 192 700 Q210 680 215 644 L280 208 L464 655 Q477 687 494.5 703.5 Q512 720 542 720 Q572 720 588.5 701.5 Q605 683 611 645 L686 194 L869 654 L869 654 Z " />
<glyph glyph-name="X" unicode="X" horiz-adv-x="632" d="M585 720 Q613 720 630.5 703.5 Q648 687 648 663 Q648 639 628 616 L413 363 L562 106 Q576 81 576 56 Q576 27 556.5 8.5 Q537 -10 508 -10 Q479 -10 461.5 4.5 Q444 19 431 45 L316 258 L145 41 Q126 17 106.5 3.5 Q87 -10 63 -10 Q38 -10 22 6 Q6 22 6 47 Q6 61 12 77 Q18 93 32 109 L252 365 L104 608 Q96 619 93 630.5 Q90 642 90 653 Q90 682 110.5 701 Q131 720 163 720 Q188 720 205 707 Q222 694 237 666 L346 467 L508 675 Q527 699 544.5 709.5 Q562 720 585 720 Z " />
<glyph glyph-name="Y" unicode="Y" horiz-adv-x="637" d="M286 -10 Q251 -10 234.5 8 Q218 26 218 57 Q218 61 218 65 Q218 69 219 74 L246 284 L92 622 Q84 641 84 657 Q84 684 103.5 702 Q123 720 152 720 Q186 720 206 703 Q226 686 240 648 L342 409 L508 658 Q529 691 548 705.5 Q567 720 595 720 Q622 720 638 704.5 Q654 689 654 667 Q654 646 639 625 L396 284 L368 64 Q363 26 342 8 Q321 -10 286 -10 Z " />
<glyph glyph-name="Yacute" unicode="&#xdd;" horiz-adv-x="637" d="M286 -10 Q251 -10 234.5 8 Q218 26 218 57 Q218 61 218 65 Q218 69 219 74 L246 284 L92 622 Q84 641 84 657 Q84 684 103.5 702 Q123 720 152 720 Q186 720 206 703 Q226 686 240 648 L342 409 L508 658 Q529 691 548 705.5 Q567 720 595 720 Q622 720 638 704.5 Q654 689 654 667 Q654 646 639 625 L396 284 L368 64 Q363 26 342 8 Q321 -10 286 -10 Z M350 760 Q318 760 318 779 Q318 786 324 796.5 Q330 807 340 826 L359 863 Q378 894 404 905 Q430 916 472 916 L484 916 Q525 916 539.5 908 Q554 900 554 889 Q554 877 541 866.5 Q528 856 506 842 L422 785 Q401 771 384 765.5 Q367 760 350 760 Z " />
<glyph glyph-name="Ydieresis" unicode="&#x178;" horiz-adv-x="637" d="M286 -10 Q251 -10 234.5 8 Q218 26 218 57 Q218 61 218 65 Q218 69 219 74 L246 284 L92 622 Q84 641 84 657 Q84 684 103.5 702 Q123 720 152 720 Q186 720 206 703 Q226 686 240 648 L342 409 L508 658 Q529 691 548 705.5 Q567 720 595 720 Q622 720 638 704.5 Q654 689 654 667 Q654 646 639 625 L396 284 L368 64 Q363 26 342 8 Q321 -10 286 -10 Z M296 775 Q269 775 253 792.5 Q237 810 237 835 Q237 866 258.5 888 Q280 910 312 910 Q338 910 354 892.5 Q370 875 370 849 Q370 819 348.5 797 Q327 775 296 775 Z M479 775 Q452 775 436 792.5 Q420 810 420 835 Q420 866 441.5 888 Q463 910 495 910 Q521 910 537 892.5 Q553 875 553 849 Q553 819 531 797 Q509 775 479 775 Z " />
<glyph glyph-name="Z" unicode="Z" horiz-adv-x="607" d="M74 0 Q50 0 35.5 12.5 Q21 25 21 48 Q21 63 29.5 76 Q38 89 49 104 L418 598 L184 598 Q117 598 117 651 Q117 710 188 710 L545 710 Q574 710 590 697.5 Q606 685 606 663 Q606 646 596.5 631.5 Q587 617 576 602 L208 113 L475 113 Q505 113 520.5 99 Q536 85 536 59 Q536 33 518 16.5 Q500 0 465 0 L74 0 L74 0 Z " />
<glyph glyph-name="Zcaron" unicode="&#x17d;" horiz-adv-x="607" d="M74 0 Q50 0 35.5 12.5 Q21 25 21 48 Q21 63 29.5 76 Q38 89 49 104 L418 598 L184 598 Q117 598 117 651 Q117 710 188 710 L545 710 Q574 710 590 697.5 Q606 685 606 663 Q606 646 596.5 631.5 Q587 617 576 602 L208 113 L475 113 Q505 113 520.5 99 Q536 85 536 59 Q536 33 518 16.5 Q500 0 465 0 L74 0 L74 0 Z M371 755 Q348 755 335 764.5 Q322 774 308 791 L275 833 Q264 847 259 855 Q254 863 254 874 Q254 888 264 898 Q274 908 288 908 Q299 908 309.5 902.5 Q320 897 330 888 L381 838 L437 885 Q454 897 463.5 902.5 Q473 908 485 908 Q498 908 506 900 Q514 892 514 881 Q514 870 508.5 861 Q503 852 491 839 L445 792 Q428 774 410.5 764.5 Q393 755 371 755 Z " />
<glyph glyph-name="a" unicode="a" horiz-adv-x="620" d="M235 -9 Q195 -9 158.5 7 Q122 23 94.5 52 Q67 81 50.5 121.5 Q34 162 34 212 Q34 273 56 324.5 Q78 376 115 412.5 Q152 449 199 469.5 Q246 490 297 490 Q348 490 390 467 Q432 444 452 399 L457 425 Q463 459 481.5 474 Q500 489 531 489 Q561 489 579 473 Q597 457 597 430 Q597 419 596 413 Q595 407 594 401 L553 65 Q549 31 530 12.5 Q511 -6 476 -6 Q447 -6 431.5 10.5 Q416 27 416 53 Q416 61 417 71.5 Q418 82 419 90 L420 95 Q389 41 340 16 Q291 -9 235 -9 Z M292 109 Q320 109 346 120 Q372 131 391.5 150.5 Q411 170 423 197.5 Q435 225 435 259 Q435 311 403.5 341.5 Q372 372 324 372 Q295 372 269 361 Q243 350 223.5 330.5 Q204 311 192 283.5 Q180 256 180 223 Q180 171 212.5 140 Q245 109 292 109 Z " />
<glyph glyph-name="aacute" unicode="&#xe1;" horiz-adv-x="620" d="M235 -9 Q195 -9 158.5 7 Q122 23 94.5 52 Q67 81 50.5 121.5 Q34 162 34 212 Q34 273 56 324.5 Q78 376 115 412.5 Q152 449 199 469.5 Q246 490 297 490 Q348 490 390 467 Q432 444 452 399 L457 425 Q463 459 481.5 474 Q500 489 531 489 Q561 489 579 473 Q597 457 597 430 Q597 419 596 413 Q595 407 594 401 L553 65 Q549 31 530 12.5 Q511 -6 476 -6 Q447 -6 431.5 10.5 Q416 27 416 53 Q416 61 417 71.5 Q418 82 419 90 L420 95 Q389 41 340 16 Q291 -9 235 -9 Z M292 109 Q320 109 346 120 Q372 131 391.5 150.5 Q411 170 423 197.5 Q435 225 435 259 Q435 311 403.5 341.5 Q372 372 324 372 Q295 372 269 361 Q243 350 223.5 330.5 Q204 311 192 283.5 Q180 256 180 223 Q180 171 212.5 140 Q245 109 292 109 Z M345 528 Q329 528 317.5 538 Q306 548 306 564 Q306 574 312 585 L384 711 Q397 734 411 744.5 Q425 755 445 755 Q470 755 487 738 Q504 721 504 698 Q504 678 493 663.5 Q482 649 468 635 L395 555 Q381 541 370.5 534.5 Q360 528 345 528 Z " />
<glyph glyph-name="acircumflex" unicode="&#xe2;" horiz-adv-x="620" d="M235 -9 Q195 -9 158.5 7 Q122 23 94.5 52 Q67 81 50.5 121.5 Q34 162 34 212 Q34 273 56 324.5 Q78 376 115 412.5 Q152 449 199 469.5 Q246 490 297 490 Q348 490 390 467 Q432 444 452 399 L457 425 Q463 459 481.5 474 Q500 489 531 489 Q561 489 579 473 Q597 457 597 430 Q597 419 596 413 Q595 407 594 401 L553 65 Q549 31 530 12.5 Q511 -6 476 -6 Q447 -6 431.5 10.5 Q416 27 416 53 Q416 61 417 71.5 Q418 82 419 90 L420 95 Q389 41 340 16 Q291 -9 235 -9 Z M292 109 Q320 109 346 120 Q372 131 391.5 150.5 Q411 170 423 197.5 Q435 225 435 259 Q435 311 403.5 341.5 Q372 372 324 372 Q295 372 269 361 Q243 350 223.5 330.5 Q204 311 192 283.5 Q180 256 180 223 Q180 171 212.5 140 Q245 109 292 109 Z M242 566 Q229 566 220 573.5 Q211 581 211 593 Q211 603 216.5 613 Q222 623 231 636 L289 710 Q309 735 327.5 746.5 Q346 758 372 758 Q395 758 410.5 747 Q426 736 438 714 L476 641 Q482 630 487 618.5 Q492 607 492 599 Q492 585 481 575.5 Q470 566 456 566 Q439 566 427.5 574 Q416 582 405 599 L363 669 L304 599 Q290 582 274 574 Q258 566 242 566 Z " />
<glyph glyph-name="adieresis" unicode="&#xe4;" horiz-adv-x="620" d="M235 -9 Q195 -9 158.5 7 Q122 23 94.5 52 Q67 81 50.5 121.5 Q34 162 34 212 Q34 273 56 324.5 Q78 376 115 412.5 Q152 449 199 469.5 Q246 490 297 490 Q348 490 390 467 Q432 444 452 399 L457 425 Q463 459 481.5 474 Q500 489 531 489 Q561 489 579 473 Q597 457 597 430 Q597 419 596 413 Q595 407 594 401 L553 65 Q549 31 530 12.5 Q511 -6 476 -6 Q447 -6 431.5 10.5 Q416 27 416 53 Q416 61 417 71.5 Q418 82 419 90 L420 95 Q389 41 340 16 Q291 -9 235 -9 Z M292 109 Q320 109 346 120 Q372 131 391.5 150.5 Q411 170 423 197.5 Q435 225 435 259 Q435 311 403.5 341.5 Q372 372 324 372 Q295 372 269 361 Q243 350 223.5 330.5 Q204 311 192 283.5 Q180 256 180 223 Q180 171 212.5 140 Q245 109 292 109 Z M270 606 Q246 606 232 621.5 Q218 637 218 659 Q218 686 237 705.5 Q256 725 284 725 Q307 725 321 709.5 Q335 694 335 671 Q335 645 316 625.5 Q297 606 270 606 Z M441 606 Q417 606 403 621.5 Q389 637 389 659 Q389 686 408 705.5 Q427 725 455 725 Q478 725 492 709.5 Q506 694 506 671 Q506 645 487 625.5 Q468 606 441 606 Z " />
<glyph glyph-name="agrave" unicode="&#xe0;" horiz-adv-x="620" d="M235 -9 Q195 -9 158.5 7 Q122 23 94.5 52 Q67 81 50.5 121.5 Q34 162 34 212 Q34 273 56 324.5 Q78 376 115 412.5 Q152 449 199 469.5 Q246 490 297 490 Q348 490 390 467 Q432 444 452 399 L457 425 Q463 459 481.5 474 Q500 489 531 489 Q561 489 579 473 Q597 457 597 430 Q597 419 596 413 Q595 407 594 401 L553 65 Q549 31 530 12.5 Q511 -6 476 -6 Q447 -6 431.5 10.5 Q416 27 416 53 Q416 61 417 71.5 Q418 82 419 90 L420 95 Q389 41 340 16 Q291 -9 235 -9 Z M292 109 Q320 109 346 120 Q372 131 391.5 150.5 Q411 170 423 197.5 Q435 225 435 259 Q435 311 403.5 341.5 Q372 372 324 372 Q295 372 269 361 Q243 350 223.5 330.5 Q204 311 192 283.5 Q180 256 180 223 Q180 171 212.5 140 Q245 109 292 109 Z M368 528 Q353 528 342.5 534.5 Q332 541 318 555 L245 635 Q231 649 220 663.5 Q209 678 209 698 Q209 721 226 738 Q243 755 268 755 Q288 755 302 744.5 Q316 734 329 711 L401 585 Q407 574 407 564 Q407 548 395.5 538 Q384 528 368 528 Z " />
<glyph glyph-name="aring" unicode="&#xe5;" horiz-adv-x="620" d="M235 -9 Q195 -9 158.5 7 Q122 23 94.5 52 Q67 81 50.5 121.5 Q34 162 34 212 Q34 273 56 324.5 Q78 376 115 412.5 Q152 449 199 469.5 Q246 490 297 490 Q348 490 390 467 Q432 444 452 399 L457 425 Q463 459 481.5 474 Q500 489 531 489 Q561 489 579 473 Q597 457 597 430 Q597 419 596 413 Q595 407 594 401 L553 65 Q549 31 530 12.5 Q511 -6 476 -6 Q447 -6 431.5 10.5 Q416 27 416 53 Q416 61 417 71.5 Q418 82 419 90 L420 95 Q389 41 340 16 Q291 -9 235 -9 Z M292 109 Q320 109 346 120 Q372 131 391.5 150.5 Q411 170 423 197.5 Q435 225 435 259 Q435 311 403.5 341.5 Q372 372 324 372 Q295 372 269 361 Q243 350 223.5 330.5 Q204 311 192 283.5 Q180 256 180 223 Q180 171 212.5 140 Q245 109 292 109 Z M346 545 Q305 545 277 571 Q249 597 249 639 Q249 664 259.5 684.5 Q270 705 287 720 Q304 735 326.5 743 Q349 751 372 751 Q391 751 409 744 Q427 737 440.5 725 Q454 713 462 696 Q470 679 470 659 Q470 635 459 614 Q448 593 430.5 577.5 Q413 562 391 553.5 Q369 545 346 545 Z M353 598 Q375 598 390.5 614.5 Q406 631 406 654 Q406 673 395 685 Q384 697 365 697 Q342 697 326.5 681.5 Q311 666 311 643 Q311 623 322.5 610.5 Q334 598 353 598 Z " />
<glyph glyph-name="atilde" unicode="&#xe3;" horiz-adv-x="620" d="M235 -9 Q195 -9 158.5 7 Q122 23 94.5 52 Q67 81 50.5 121.5 Q34 162 34 212 Q34 273 56 324.5 Q78 376 115 412.5 Q152 449 199 469.5 Q246 490 297 490 Q348 490 390 467 Q432 444 452 399 L457 425 Q463 459 481.5 474 Q500 489 531 489 Q561 489 579 473 Q597 457 597 430 Q597 419 596 413 Q595 407 594 401 L553 65 Q549 31 530 12.5 Q511 -6 476 -6 Q447 -6 431.5 10.5 Q416 27 416 53 Q416 61 417 71.5 Q418 82 419 90 L420 95 Q389 41 340 16 Q291 -9 235 -9 Z M292 109 Q320 109 346 120 Q372 131 391.5 150.5 Q411 170 423 197.5 Q435 225 435 259 Q435 311 403.5 341.5 Q372 372 324 372 Q295 372 269 361 Q243 350 223.5 330.5 Q204 311 192 283.5 Q180 256 180 223 Q180 171 212.5 140 Q245 109 292 109 Z M438 561 Q416 561 398 569 Q380 577 363.5 587 Q347 597 331 605 Q315 613 298 613 Q274 613 258 589 Q250 577 240.5 569.5 Q231 562 217 562 Q201 562 191 572 Q181 582 183 600 Q184 618 192.5 637 Q201 656 215.5 672 Q230 688 249.5 698.5 Q269 709 293 709 Q314 709 334 700.5 Q354 692 372 682.5 Q390 673 405.5 664.5 Q421 656 435 656 Q449 656 456.5 662.5 Q464 669 469 679 Q477 693 485 701.5 Q493 710 509 710 Q527 710 536.5 698 Q546 686 545 670 Q544 651 535.5 631.5 Q527 612 513 596.5 Q499 581 480 571 Q461 561 438 561 Z " />
<glyph glyph-name="ae" unicode="&#xe6;" horiz-adv-x="795" d="M583 490 Q627 490 661 476 Q695 462 718 436.5 Q741 411 753 375 Q765 339 765 296 Q765 255 752.5 235.5 Q740 216 707 216 L459 216 Q463 153 497 125.5 Q531 98 581 98 Q603 98 621 103 Q639 108 654 114 Q669 120 681 125 Q693 130 703 130 Q720 130 730.5 119.5 Q741 109 741 91 Q741 68 728 52 Q715 36 698 24 Q674 9 638 -0.5 Q602 -10 568 -10 Q503 -10 453 16.5 Q403 43 379 103 Q347 44 291 17.5 Q235 -9 173 -9 Q141 -9 113.5 0 Q86 9 65.5 25.5 Q45 42 33 66.5 Q21 91 21 122 Q21 159 38.5 189 Q56 219 86.5 240 Q117 261 160 272.5 Q203 284 254 285 Q273 286 292.5 285.5 Q312 285 329 284 Q329 337 297.5 360 Q266 383 223 383 Q189 383 159.5 374 Q130 365 113 365 Q96 365 84 376 Q72 387 72 406 Q72 427 84.5 443.5 Q97 460 120 469 Q145 478 177 484 Q209 490 241 490 Q301 490 343 472.5 Q385 455 408 410 Q443 453 490 471.5 Q537 490 583 490 Z M647 297 Q650 342 631.5 367.5 Q613 393 575 393 Q537 393 509 367.5 Q481 342 468 297 L647 297 Z M204 89 Q223 89 242.5 96 Q262 103 278.5 117.5 Q295 132 306.5 153 Q318 174 321 202 L322 209 Q314 210 305.5 210 Q297 210 289 210 Q281 210 273 210 Q265 210 258 209 Q208 207 179 188 Q150 169 150 136 Q150 114 165.5 101.5 Q181 89 204 89 Z " />
<glyph glyph-name="b" unicode="b" horiz-adv-x="615" d="M378 490 Q422 490 459.5 474.5 Q497 459 524 430.5 Q551 402 566.5 362 Q582 322 582 273 Q582 211 559.5 159 Q537 107 500 69.5 Q463 32 415.5 11.5 Q368 -9 318 -9 Q289 -9 263.5 -1 Q238 7 218 20 Q198 33 183.5 50 Q169 67 162 85 L158 62 Q156 50 151 38.5 Q146 27 137 17 Q128 7 115.5 1 Q103 -5 86 -5 Q54 -5 38 12.5 Q22 30 22 59 Q22 69 23 74 L99 686 Q108 757 174 757 Q207 757 223.5 739.5 Q240 722 240 693 Q240 683 239 678 L205 402 Q235 448 283 469 Q331 490 378 490 Z M293 109 Q321 109 347 120 Q373 131 393 151 Q413 171 425 198.5 Q437 226 437 259 Q437 310 406 340.5 Q375 371 325 371 Q295 371 269 360 Q243 349 224 329 Q205 309 194 282 Q183 255 183 223 Q183 171 214 140 Q245 109 293 109 Z " />
<glyph glyph-name="c" unicode="c" horiz-adv-x="468" d="M263 -9 Q217 -9 175 6 Q133 21 100.5 49.5 Q68 78 49 119 Q30 160 30 213 Q30 277 54 328.5 Q78 380 118.5 415.5 Q159 451 211.5 470 Q264 489 320 489 Q379 489 417 473 Q460 456 460 414 Q460 390 446.5 377 Q433 364 416 364 Q402 364 380.5 371 Q359 378 328 378 Q299 378 272 367 Q245 356 224.5 335.5 Q204 315 192 287 Q180 259 180 226 Q180 197 190 174 Q200 151 217 135.5 Q234 120 256.5 112 Q279 104 303 104 Q326 104 345 110 Q364 116 378 116 Q395 116 407 103 Q419 90 419 70 Q419 27 376 8 Q356 0 326.5 -4.5 Q297 -9 263 -9 Z " />
<glyph glyph-name="ccedilla" unicode="&#xe7;" horiz-adv-x="468" d="M328 378 Q299 378 272 367 Q245 356 224.5 335.5 Q204 315 192 287 Q180 259 180 226 Q180 197 190 174 Q200 151 217 135.5 Q234 120 256.5 112 Q279 104 303 104 Q326 104 345 110 Q364 116 378 116 Q395 116 407 103 Q419 90 419 70 Q419 27 376 8 Q341 -6 288 -8 L271 -37 Q303 -39 324.5 -55.5 Q346 -72 346 -101 Q346 -122 336.5 -138.5 Q327 -155 311 -167 Q295 -179 274.5 -185 Q254 -191 232 -191 Q213 -191 195.5 -187.5 Q178 -184 168 -177 Q152 -165 152 -149 Q152 -140 158 -132 Q164 -124 174 -124 Q180 -124 195.5 -129 Q211 -134 225 -134 Q242 -134 253 -126.5 Q264 -119 264 -105 Q264 -92 254 -85.5 Q244 -79 232 -79 Q221 -79 213.5 -81 Q206 -83 202 -83 Q195 -83 195 -77 Q195 -71 203 -59 L233 -7 Q192 -3 155 14 Q118 31 90 59 Q62 87 46 126 Q30 165 30 213 Q30 277 54 328.5 Q78 380 118.5 415.5 Q159 451 211.5 470 Q264 489 320 489 Q379 489 417 473 Q460 456 460 414 Q460 390 446.5 377 Q433 364 416 364 Q402 364 380.5 371 Q359 378 328 378 Z " />
<glyph glyph-name="d" unicode="d" horiz-adv-x="624" d="M236 -9 Q194 -9 156.5 7 Q119 23 91 52 Q63 81 46.5 121.5 Q30 162 30 212 Q30 273 52.5 324.5 Q75 376 112 412.5 Q149 449 197.5 469.5 Q246 490 298 490 Q349 490 390.5 467 Q432 444 448 402 L483 685 Q491 757 558 757 Q590 757 607 739.5 Q624 722 624 690 Q624 685 624 680.5 Q624 676 623 671 L548 60 Q544 31 525.5 12.5 Q507 -6 473 -6 Q445 -6 427 8.5 Q409 23 409 52 Q409 57 409.5 63.5 Q410 70 411 75 L410 85 Q381 37 333.5 14 Q286 -9 236 -9 Z M288 109 Q318 109 344.5 120 Q371 131 390.5 150.5 Q410 170 421 197 Q432 224 432 257 Q432 310 400.5 340.5 Q369 371 321 371 Q292 371 266 360.5 Q240 350 220 331 Q200 312 188 284.5 Q176 257 176 224 Q176 171 208.5 140 Q241 109 288 109 Z " />
<glyph glyph-name="eth" unicode="&#xf0;" horiz-adv-x="578" d="M413 621 Q478 564 515 485.5 Q552 407 552 310 Q552 238 529 179 Q506 120 466 78 Q426 36 373 13 Q320 -10 260 -10 Q212 -10 170 5 Q128 20 96.5 48.5 Q65 77 47 117.5 Q29 158 29 208 Q29 265 51.5 313 Q74 361 111 395 Q148 429 195 448 Q242 467 291 467 Q336 467 368.5 451 Q401 435 414 417 L418 419 Q408 459 384 494 Q360 529 325 560 L252 510 Q238 501 226 501 Q212 501 204 508.5 Q196 516 196 527 Q196 541 216 555 L278 597 Q248 618 216 635 Q186 650 186 674 Q186 690 200 702 Q214 714 235 714 Q260 714 283 704 Q329 684 368 657 L440 705 Q446 710 452 711.5 Q458 713 463 713 Q476 713 484 705.5 Q492 698 492 688 Q492 675 477 665 L413 621 Z M276 104 Q305 104 331 115.5 Q357 127 376 147 Q395 167 406 194 Q417 221 417 251 Q417 302 385 334 Q353 366 304 366 Q274 366 247.5 354.5 Q221 343 201.5 323.5 Q182 304 171 277.5 Q160 251 160 220 Q160 169 192.5 136.5 Q225 104 276 104 Z " />
<glyph glyph-name="e" unicode="e" horiz-adv-x="542" d="M513 286 Q513 251 496.5 234.5 Q480 218 442 218 L172 218 Q175 164 210 133.5 Q245 103 302 103 Q327 103 347.5 107.5 Q368 112 384 118 Q400 124 413 128.5 Q426 133 438 133 Q456 133 467 121.5 Q478 110 478 92 Q478 69 467 54 Q456 39 436 27 Q408 11 366.5 0.5 Q325 -10 280 -10 Q227 -10 181.5 6.5 Q136 23 102.5 53 Q69 83 50 125.5 Q31 168 31 220 Q31 278 54 327.5 Q77 377 115 413 Q153 449 203.5 469.5 Q254 490 308 490 Q352 490 389.5 476.5 Q427 463 454.5 437 Q482 411 497.5 373 Q513 335 513 286 Z M392 300 Q393 336 369.5 361.5 Q346 387 302 387 Q260 387 228 363 Q196 339 181 300 L392 300 Z " />
<glyph glyph-name="eacute" unicode="&#xe9;" horiz-adv-x="542" d="M513 286 Q513 251 496.5 234.5 Q480 218 442 218 L172 218 Q175 164 210 133.5 Q245 103 302 103 Q327 103 347.5 107.5 Q368 112 384 118 Q400 124 413 128.5 Q426 133 438 133 Q456 133 467 121.5 Q478 110 478 92 Q478 69 467 54 Q456 39 436 27 Q408 11 366.5 0.5 Q325 -10 280 -10 Q227 -10 181.5 6.5 Q136 23 102.5 53 Q69 83 50 125.5 Q31 168 31 220 Q31 278 54 327.5 Q77 377 115 413 Q153 449 203.5 469.5 Q254 490 308 490 Q352 490 389.5 476.5 Q427 463 454.5 437 Q482 411 497.5 373 Q513 335 513 286 Z M392 300 Q393 336 369.5 361.5 Q346 387 302 387 Q260 387 228 363 Q196 339 181 300 L392 300 Z M305 528 Q289 528 277.5 538 Q266 548 266 564 Q266 574 272 585 L344 711 Q357 734 371 744.5 Q385 755 405 755 Q430 755 447 738 Q464 721 464 698 Q464 678 453 663.5 Q442 649 428 635 L355 555 Q341 541 330.5 534.5 Q320 528 305 528 Z " />
<glyph glyph-name="ecircumflex" unicode="&#xea;" horiz-adv-x="542" d="M513 286 Q513 251 496.5 234.5 Q480 218 442 218 L172 218 Q175 164 210 133.5 Q245 103 302 103 Q327 103 347.5 107.5 Q368 112 384 118 Q400 124 413 128.5 Q426 133 438 133 Q456 133 467 121.5 Q478 110 478 92 Q478 69 467 54 Q456 39 436 27 Q408 11 366.5 0.5 Q325 -10 280 -10 Q227 -10 181.5 6.5 Q136 23 102.5 53 Q69 83 50 125.5 Q31 168 31 220 Q31 278 54 327.5 Q77 377 115 413 Q153 449 203.5 469.5 Q254 490 308 490 Q352 490 389.5 476.5 Q427 463 454.5 437 Q482 411 497.5 373 Q513 335 513 286 Z M392 300 Q393 336 369.5 361.5 Q346 387 302 387 Q260 387 228 363 Q196 339 181 300 L392 300 Z M202 566 Q189 566 180 573.5 Q171 581 171 593 Q171 603 176.5 613 Q182 623 191 636 L249 710 Q269 735 287.5 746.5 Q306 758 332 758 Q355 758 370.5 747 Q386 736 398 714 L436 641 Q442 630 447 618.5 Q452 607 452 599 Q452 585 441 575.5 Q430 566 416 566 Q399 566 387.5 574 Q376 582 365 599 L323 669 L264 599 Q250 582 234 574 Q218 566 202 566 Z " />
<glyph glyph-name="edieresis" unicode="&#xeb;" horiz-adv-x="542" d="M513 286 Q513 251 496.5 234.5 Q480 218 442 218 L172 218 Q175 164 210 133.5 Q245 103 302 103 Q327 103 347.5 107.5 Q368 112 384 118 Q400 124 413 128.5 Q426 133 438 133 Q456 133 467 121.5 Q478 110 478 92 Q478 69 467 54 Q456 39 436 27 Q408 11 366.5 0.5 Q325 -10 280 -10 Q227 -10 181.5 6.5 Q136 23 102.5 53 Q69 83 50 125.5 Q31 168 31 220 Q31 278 54 327.5 Q77 377 115 413 Q153 449 203.5 469.5 Q254 490 308 490 Q352 490 389.5 476.5 Q427 463 454.5 437 Q482 411 497.5 373 Q513 335 513 286 Z M392 300 Q393 336 369.5 361.5 Q346 387 302 387 Q260 387 228 363 Q196 339 181 300 L392 300 Z M230 606 Q206 606 192 621.5 Q178 637 178 659 Q178 686 197 705.5 Q216 725 244 725 Q267 725 281 709.5 Q295 694 295 671 Q295 645 276 625.5 Q257 606 230 606 Z M401 606 Q377 606 363 621.5 Q349 637 349 659 Q349 686 368 705.5 Q387 725 415 725 Q438 725 452 709.5 Q466 694 466 671 Q466 645 447 625.5 Q428 606 401 606 Z " />
<glyph glyph-name="egrave" unicode="&#xe8;" horiz-adv-x="542" d="M513 286 Q513 251 496.5 234.5 Q480 218 442 218 L172 218 Q175 164 210 133.5 Q245 103 302 103 Q327 103 347.5 107.5 Q368 112 384 118 Q400 124 413 128.5 Q426 133 438 133 Q456 133 467 121.5 Q478 110 478 92 Q478 69 467 54 Q456 39 436 27 Q408 11 366.5 0.5 Q325 -10 280 -10 Q227 -10 181.5 6.5 Q136 23 102.5 53 Q69 83 50 125.5 Q31 168 31 220 Q31 278 54 327.5 Q77 377 115 413 Q153 449 203.5 469.5 Q254 490 308 490 Q352 490 389.5 476.5 Q427 463 454.5 437 Q482 411 497.5 373 Q513 335 513 286 Z M392 300 Q393 336 369.5 361.5 Q346 387 302 387 Q260 387 228 363 Q196 339 181 300 L392 300 Z M328 528 Q313 528 302.5 534.5 Q292 541 278 555 L205 635 Q191 649 180 663.5 Q169 678 169 698 Q169 721 186 738 Q203 755 228 755 Q248 755 262 744.5 Q276 734 289 711 L361 585 Q367 574 367 564 Q367 548 355.5 538 Q344 528 328 528 Z " />
<glyph glyph-name="eogonek" unicode="&#x119;" horiz-adv-x="542" d="M513 286 Q513 251 496.5 234.5 Q480 218 442 218 L172 218 Q175 164 210 133.5 Q245 103 302 103 Q327 103 347.5 107.5 Q368 112 384 118 Q400 124 413 128.5 Q426 133 438 133 Q456 133 467 121.5 Q478 110 478 92 Q478 69 467 54 Q456 39 436 27 Q416 16 388 7 Q360 -2 328 -7 Q305 -26 290.5 -39 Q276 -52 268 -61.5 Q260 -71 257.5 -78.5 Q255 -86 255 -93 Q255 -106 262.5 -112 Q270 -118 279 -118 Q287 -118 293.5 -117 Q300 -116 307 -116 Q315 -116 322 -122 Q329 -128 329 -139 Q329 -162 309.5 -177 Q290 -192 252 -192 Q208 -192 183 -171 Q158 -150 158 -115 Q158 -89 176.5 -61 Q195 -33 237 -7 Q192 -1 154 18 Q116 37 89 66.5 Q62 96 46.5 134.5 Q31 173 31 220 Q31 278 54 327.5 Q77 377 115 413 Q153 449 203.5 469.5 Q254 490 308 490 Q352 490 389.5 476.5 Q427 463 454.5 437 Q482 411 497.5 373 Q513 335 513 286 Z M392 300 Q393 336 369.5 361.5 Q346 387 302 387 Q260 387 228 363 Q196 339 181 300 L392 300 Z " />
<glyph glyph-name="f" unicode="f" horiz-adv-x="380" d="M420 736 Q431 728 438.5 716 Q446 704 446 687 Q446 665 434 650 Q422 635 404 635 Q393 635 381 640.5 Q369 646 351 646 Q323 646 303.5 628 Q284 610 279 570 L268 480 L331 480 Q392 480 392 435 Q392 409 373.5 397 Q355 385 323 385 L256 385 L193 -113 Q184 -192 115 -192 Q83 -192 66 -175 Q49 -158 49 -127 Q49 -123 49 -119 Q49 -115 50 -110 L112 384 L93 384 Q66 384 51.5 396 Q37 408 37 428 Q37 455 55.5 467.5 Q74 480 98 480 L124 480 L135 568 Q147 662 198.5 709.5 Q250 757 335 757 Q388 757 420 736 Z " />
<glyph glyph-name="g" unicode="g" horiz-adv-x="620" d="M217 -191 Q176 -191 137.5 -185.5 Q99 -180 68 -166 Q48 -156 36 -142 Q24 -128 24 -107 Q24 -79 39 -66 Q54 -53 69 -53 Q77 -53 90.5 -57 Q104 -61 122.5 -66.5 Q141 -72 163.5 -76 Q186 -80 212 -80 Q249 -80 280.5 -70.5 Q312 -61 336 -42.5 Q360 -24 375.5 3.5 Q391 31 395 68 L398 88 Q366 56 325 38 Q284 20 234 20 Q190 20 153 35 Q116 50 89 77 Q62 104 47 141.5 Q32 179 32 225 Q32 283 53 332 Q74 381 108.5 415.5 Q143 450 188.5 469.5 Q234 489 284 489 Q333 489 374.5 469.5 Q416 450 442 409 L443 409 L447 432 Q451 455 469.5 471.5 Q488 488 520 488 Q555 488 571.5 470 Q588 452 588 423 Q588 420 588 416.5 Q588 413 587 409 L550 106 Q541 31 511 -25 Q481 -81 436.5 -118 Q392 -155 336 -173 Q280 -191 217 -191 Z M283 130 Q316 130 342 142 Q368 154 386.5 173.5 Q405 193 414.5 219 Q424 245 424 272 Q424 320 394 350.5 Q364 381 316 381 Q290 381 264.5 371 Q239 361 219.5 342 Q200 323 188 296.5 Q176 270 176 237 Q176 186 206 158 Q236 130 283 130 Z " />
<glyph glyph-name="h" unicode="h" horiz-adv-x="603" d="M110 -10 Q42 -10 42 51 Q42 61 43 66 L119 688 Q124 722 143 739.5 Q162 757 194 757 Q225 757 241.5 741.5 Q258 726 258 700 Q258 697 257.5 694.5 Q257 692 257 689 L228 422 Q252 451 295 470.5 Q338 490 394 490 Q472 490 512.5 450 Q553 410 553 340 Q553 332 552.5 323.5 Q552 315 551 307 L521 59 Q512 -10 444 -10 Q409 -10 392 7.5 Q375 25 375 52 Q375 55 375.5 58 Q376 61 376 64 L404 290 Q405 295 405 299.5 Q405 304 405 309 Q405 343 386.5 362.5 Q368 382 328 382 Q280 382 249 352 Q218 322 212 271 L187 59 Q178 -10 110 -10 Z " />
<glyph glyph-name="i" unicode="i" horiz-adv-x="285" d="M182 581 Q145 581 125.5 601.5 Q106 622 106 652 Q106 670 113 686 Q120 702 132.5 714 Q145 726 163 733 Q181 740 202 740 Q239 740 258.5 719.5 Q278 699 278 670 Q278 634 251.5 607.5 Q225 581 182 581 Z M115 -10 Q48 -10 48 50 Q48 60 49 65 L93 423 Q101 490 170 490 Q202 490 219 474 Q236 458 236 430 Q236 428 235.5 425 Q235 422 235 419 L192 58 Q184 -10 115 -10 Z " />
<glyph glyph-name="dotlessi" unicode="&#x131;" horiz-adv-x="324" d="M135 -10 Q68 -10 68 50 Q68 60 69 65 L113 423 Q121 490 190 490 Q222 490 239 474 Q256 458 256 430 Q256 428 255.5 425 Q255 422 255 419 L212 58 Q204 -10 135 -10 Z " />
<glyph glyph-name="iacute" unicode="&#xed;" horiz-adv-x="324" d="M135 -10 Q68 -10 68 50 Q68 60 69 65 L113 423 Q121 490 190 490 Q222 490 239 474 Q256 458 256 430 Q256 428 255.5 425 Q255 422 255 419 L212 58 Q204 -10 135 -10 Z M194 531 Q179 531 169.5 538 Q160 545 160 559 Q160 566 165 578 L224 704 Q243 747 282 747 Q303 747 320.5 734.5 Q338 722 338 699 Q338 682 330 668.5 Q322 655 312 643 L254 565 Q240 548 226 539.5 Q212 531 194 531 Z " />
<glyph glyph-name="icircumflex" unicode="&#xee;" horiz-adv-x="324" d="M135 -10 Q68 -10 68 50 Q68 60 69 65 L113 423 Q121 490 190 490 Q222 490 239 474 Q256 458 256 430 Q256 428 255.5 425 Q255 422 255 419 L212 58 Q204 -10 135 -10 Z M94 566 Q81 566 72 573.5 Q63 581 63 593 Q63 603 68.5 613 Q74 623 83 636 L141 710 Q161 735 179.5 746.5 Q198 758 224 758 Q247 758 262.5 747 Q278 736 290 714 L328 641 Q334 630 339 618.5 Q344 607 344 599 Q344 585 333 575.5 Q322 566 308 566 Q291 566 279.5 574 Q268 582 257 599 L215 669 L156 599 Q142 582 126 574 Q110 566 94 566 Z " />
<glyph glyph-name="idieresis" unicode="&#xef;" horiz-adv-x="324" d="M135 -10 Q68 -10 68 50 Q68 60 69 65 L113 423 Q121 490 190 490 Q222 490 239 474 Q256 458 256 430 Q256 428 255.5 425 Q255 422 255 419 L212 58 Q204 -10 135 -10 Z M122 606 Q98 606 84 621.5 Q70 637 70 659 Q70 686 89 705.5 Q108 725 136 725 Q159 725 173 709.5 Q187 694 187 671 Q187 645 168 625.5 Q149 606 122 606 Z M293 606 Q269 606 255 621.5 Q241 637 241 659 Q241 686 260 705.5 Q279 725 307 725 Q330 725 344 709.5 Q358 694 358 671 Q358 645 339 625.5 Q320 606 293 606 Z " />
<glyph glyph-name="igrave" unicode="&#xec;" horiz-adv-x="324" d="M198 538 Q184 538 173 544 Q162 550 151 564 L89 643 Q71 664 71 687 Q71 709 87 723.5 Q103 738 126 738 Q168 738 185 685 L225 588 Q229 579 229 569 Q229 555 220 546.5 Q211 538 198 538 Z M135 -10 Q68 -10 68 50 Q68 60 69 65 L113 423 Q121 490 190 490 Q222 490 239 474 Q256 458 256 430 Q256 428 255.5 425 Q255 422 255 419 L212 58 Q204 -10 135 -10 Z " />
<glyph glyph-name="j" unicode="j" horiz-adv-x="304" d="M203 581 Q165 581 145 601.5 Q125 622 125 652 Q125 687 151 713.5 Q177 740 218 740 Q257 740 277 719.5 Q297 699 297 670 Q297 634 271 607.5 Q245 581 203 581 Z M27 -192 Q1 -192 -15.5 -187.5 Q-32 -183 -43 -173 Q-64 -155 -64 -126 Q-64 -103 -52 -90.5 Q-40 -78 -26 -78 Q-18 -78 -8.5 -80.5 Q1 -83 11 -83 Q29 -83 41 -72 Q53 -61 56 -37 L113 423 Q120 490 190 490 Q257 490 257 429 Q257 426 256.5 423 Q256 420 256 417 L203 -23 Q192 -108 145 -150 Q98 -192 27 -192 Z " />
<glyph glyph-name="k" unicode="k" horiz-adv-x="529" d="M465 490 Q490 490 505 476 Q520 462 520 442 Q520 417 496 393 L352 258 L464 107 Q487 73 486 47 Q484 22 465.5 6 Q447 -10 418 -10 Q389 -10 369.5 7.5 Q350 25 334 54 L210 246 L187 57 Q179 -10 112 -10 Q43 -10 43 52 Q43 55 43 58.5 Q43 62 44 66 L120 690 Q128 757 196 757 Q232 757 249 737 Q266 717 263 688 L213 272 L375 437 Q399 464 419 477 Q439 490 465 490 Z " />
<glyph glyph-name="l" unicode="l" horiz-adv-x="325" d="M186 -10 Q117 -10 82 23.5 Q47 57 47 115 Q47 122 47.5 129 Q48 136 49 144 L119 686 Q127 757 195 757 Q227 757 244.5 740.5 Q262 724 262 695 Q262 685 261 680 L192 156 Q191 152 191 145 Q191 128 200 117 Q209 106 227 106 Q239 106 249.5 109.5 Q260 113 270 113 Q282 113 292.5 103.5 Q303 94 303 71 Q303 53 295.5 37.5 Q288 22 272 11 Q256 0 233.5 -5 Q211 -10 186 -10 Z " />
<glyph glyph-name="lslash" unicode="&#x142;" horiz-adv-x="325" d="M192 156 Q191 152 191 145 Q191 128 200 117 Q209 106 227 106 Q239 106 249.5 109.5 Q260 113 270 113 Q282 113 292.5 103.5 Q303 94 303 71 Q303 53 295.5 37.5 Q288 22 272 11 Q256 0 233.5 -5 Q211 -10 186 -10 Q117 -10 82 23.5 Q47 57 47 115 Q47 122 47.5 129 Q48 136 49 144 L74 340 L71 339 Q60 334 46 334 Q30 334 19 345 Q8 356 8 373 Q8 405 47 419 L86 434 L119 686 Q127 757 195 757 Q227 757 244.5 740.5 Q262 724 262 695 Q262 685 261 680 L236 491 L237 491 Q249 496 261.5 500 Q274 504 284 504 Q299 504 310.5 494.5 Q322 485 322 469 Q322 434 284 419 L224 396 L192 156 Z " />
<glyph glyph-name="m" unicode="m" horiz-adv-x="850" d="M97 -10 Q64 -10 46.5 6.5 Q29 23 29 52 Q29 61 30 66 L72 418 Q76 451 94.5 469.5 Q113 488 147 488 Q179 488 194 472 Q209 456 207 430 L205 410 Q233 451 272 470.5 Q311 490 356 490 Q405 490 443 470.5 Q481 451 496 406 Q524 449 565 469.5 Q606 490 651 490 Q726 490 765.5 449.5 Q805 409 805 342 Q805 334 804.5 327 Q804 320 803 312 L773 57 Q765 -10 697 -10 Q662 -10 646 6.5 Q630 23 630 52 Q630 55 630 58.5 Q630 62 631 66 L659 306 Q663 342 645 363.5 Q627 385 593 385 Q558 385 532.5 362.5 Q507 340 502 297 L473 57 Q465 -10 397 -10 Q364 -10 346.5 6 Q329 22 329 51 Q329 59 330 64 L359 306 Q359 309 359.5 312 Q360 315 360 317 Q360 346 342 365.5 Q324 385 288 385 Q253 385 229.5 363 Q206 341 201 298 L173 57 Q165 -10 97 -10 Z " />
<glyph glyph-name="n" unicode="n" horiz-adv-x="581" d="M95 -10 Q64 -10 47.5 6.5 Q31 23 31 52 Q31 55 31.5 58 Q32 61 32 64 L74 413 Q82 485 151 485 Q179 485 194 472 Q209 459 209 437 Q209 429 208 421 Q207 413 206 406 L207 402 Q268 490 378 490 Q453 490 497 452.5 Q541 415 541 343 Q541 329 540 318 Q539 307 537 297 L508 57 Q500 -10 432 -10 Q399 -10 381.5 6 Q364 22 364 51 Q364 59 365 64 L390 280 Q391 287 391.5 293.5 Q392 300 392 308 Q392 346 370.5 363 Q349 380 314 380 Q269 380 238 352.5 Q207 325 201 274 L175 57 Q167 -10 95 -10 Z " />
<glyph glyph-name="ntilde" unicode="&#xf1;" horiz-adv-x="581" d="M95 -10 Q64 -10 47.5 6.5 Q31 23 31 52 Q31 55 31.5 58 Q32 61 32 64 L74 413 Q82 485 151 485 Q179 485 194 472 Q209 459 209 437 Q209 429 208 421 Q207 413 206 406 L207 402 Q268 490 378 490 Q453 490 497 452.5 Q541 415 541 343 Q541 329 540 318 Q539 307 537 297 L508 57 Q500 -10 432 -10 Q399 -10 381.5 6 Q364 22 364 51 Q364 59 365 64 L390 280 Q391 287 391.5 293.5 Q392 300 392 308 Q392 346 370.5 363 Q349 380 314 380 Q269 380 238 352.5 Q207 325 201 274 L175 57 Q167 -10 95 -10 Z M419 561 Q397 561 379 569 Q361 577 344.5 587 Q328 597 312 605 Q296 613 279 613 Q255 613 239 589 Q231 577 221.5 569.5 Q212 562 198 562 Q182 562 172 572 Q162 582 164 600 Q165 618 173.5 637 Q182 656 196.5 672 Q211 688 230.5 698.5 Q250 709 274 709 Q295 709 315 700.5 Q335 692 353 682.5 Q371 673 386.5 664.5 Q402 656 416 656 Q430 656 437.5 662.5 Q445 669 450 679 Q458 693 466 701.5 Q474 710 490 710 Q508 710 517.5 698 Q527 686 526 670 Q525 651 516.5 631.5 Q508 612 494 596.5 Q480 581 461 571 Q442 561 419 561 Z " />
<glyph glyph-name="o" unicode="o" horiz-adv-x="586" d="M263 -10 Q213 -10 170 7.5 Q127 25 96 55.5 Q65 86 47.5 128 Q30 170 30 219 Q30 276 54.5 325.5 Q79 375 119.5 411.5 Q160 448 213 469 Q266 490 323 490 Q373 490 415.5 473 Q458 456 489.5 426 Q521 396 538.5 355 Q556 314 556 265 Q556 207 532.5 157 Q509 107 469 70 Q429 33 375.5 11.5 Q322 -10 263 -10 Z M277 109 Q305 109 331 120 Q357 131 377 151 Q397 171 408.5 198.5 Q420 226 420 259 Q420 310 389 340.5 Q358 371 309 371 Q280 371 254.5 360 Q229 349 209 329.5 Q189 310 177.5 283.5 Q166 257 166 225 Q166 172 197.5 140.5 Q229 109 277 109 Z " />
<glyph glyph-name="oacute" unicode="&#xf3;" horiz-adv-x="586" d="M263 -10 Q213 -10 170 7.5 Q127 25 96 55.5 Q65 86 47.5 128 Q30 170 30 219 Q30 276 54.5 325.5 Q79 375 119.5 411.5 Q160 448 213 469 Q266 490 323 490 Q373 490 415.5 473 Q458 456 489.5 426 Q521 396 538.5 355 Q556 314 556 265 Q556 207 532.5 157 Q509 107 469 70 Q429 33 375.5 11.5 Q322 -10 263 -10 Z M277 109 Q305 109 331 120 Q357 131 377 151 Q397 171 408.5 198.5 Q420 226 420 259 Q420 310 389 340.5 Q358 371 309 371 Q280 371 254.5 360 Q229 349 209 329.5 Q189 310 177.5 283.5 Q166 257 166 225 Q166 172 197.5 140.5 Q229 109 277 109 Z M329 528 Q313 528 301.5 538 Q290 548 290 564 Q290 574 296 585 L368 711 Q381 734 395 744.5 Q409 755 429 755 Q454 755 471 738 Q488 721 488 698 Q488 678 477 663.5 Q466 649 452 635 L379 555 Q365 541 354.5 534.5 Q344 528 329 528 Z " />
<glyph glyph-name="ocircumflex" unicode="&#xf4;" horiz-adv-x="586" d="M263 -10 Q213 -10 170 7.5 Q127 25 96 55.5 Q65 86 47.5 128 Q30 170 30 219 Q30 276 54.5 325.5 Q79 375 119.5 411.5 Q160 448 213 469 Q266 490 323 490 Q373 490 415.5 473 Q458 456 489.5 426 Q521 396 538.5 355 Q556 314 556 265 Q556 207 532.5 157 Q509 107 469 70 Q429 33 375.5 11.5 Q322 -10 263 -10 Z M277 109 Q305 109 331 120 Q357 131 377 151 Q397 171 408.5 198.5 Q420 226 420 259 Q420 310 389 340.5 Q358 371 309 371 Q280 371 254.5 360 Q229 349 209 329.5 Q189 310 177.5 283.5 Q166 257 166 225 Q166 172 197.5 140.5 Q229 109 277 109 Z M226 566 Q213 566 204 573.5 Q195 581 195 593 Q195 603 200.5 613 Q206 623 215 636 L273 710 Q293 735 311.5 746.5 Q330 758 356 758 Q379 758 394.5 747 Q410 736 422 714 L460 641 Q466 630 471 618.5 Q476 607 476 599 Q476 585 465 575.5 Q454 566 440 566 Q423 566 411.5 574 Q400 582 389 599 L347 669 L288 599 Q274 582 258 574 Q242 566 226 566 Z " />
<glyph glyph-name="odieresis" unicode="&#xf6;" horiz-adv-x="586" d="M263 -10 Q213 -10 170 7.5 Q127 25 96 55.5 Q65 86 47.5 128 Q30 170 30 219 Q30 276 54.5 325.5 Q79 375 119.5 411.5 Q160 448 213 469 Q266 490 323 490 Q373 490 415.5 473 Q458 456 489.5 426 Q521 396 538.5 355 Q556 314 556 265 Q556 207 532.5 157 Q509 107 469 70 Q429 33 375.5 11.5 Q322 -10 263 -10 Z M277 109 Q305 109 331 120 Q357 131 377 151 Q397 171 408.5 198.5 Q420 226 420 259 Q420 310 389 340.5 Q358 371 309 371 Q280 371 254.5 360 Q229 349 209 329.5 Q189 310 177.5 283.5 Q166 257 166 225 Q166 172 197.5 140.5 Q229 109 277 109 Z M254 606 Q230 606 216 621.5 Q202 637 202 659 Q202 686 221 705.5 Q240 725 268 725 Q291 725 305 709.5 Q319 694 319 671 Q319 645 300 625.5 Q281 606 254 606 Z M425 606 Q401 606 387 621.5 Q373 637 373 659 Q373 686 392 705.5 Q411 725 439 725 Q462 725 476 709.5 Q490 694 490 671 Q490 645 471 625.5 Q452 606 425 606 Z " />
<glyph glyph-name="ograve" unicode="&#xf2;" horiz-adv-x="586" d="M263 -10 Q213 -10 170 7.5 Q127 25 96 55.5 Q65 86 47.5 128 Q30 170 30 219 Q30 276 54.5 325.5 Q79 375 119.5 411.5 Q160 448 213 469 Q266 490 323 490 Q373 490 415.5 473 Q458 456 489.5 426 Q521 396 538.5 355 Q556 314 556 265 Q556 207 532.5 157 Q509 107 469 70 Q429 33 375.5 11.5 Q322 -10 263 -10 Z M277 109 Q305 109 331 120 Q357 131 377 151 Q397 171 408.5 198.5 Q420 226 420 259 Q420 310 389 340.5 Q358 371 309 371 Q280 371 254.5 360 Q229 349 209 329.5 Q189 310 177.5 283.5 Q166 257 166 225 Q166 172 197.5 140.5 Q229 109 277 109 Z M352 528 Q337 528 326.5 534.5 Q316 541 302 555 L229 635 Q215 649 204 663.5 Q193 678 193 698 Q193 721 210 738 Q227 755 252 755 Q272 755 286 744.5 Q300 734 313 711 L385 585 Q391 574 391 564 Q391 548 379.5 538 Q368 528 352 528 Z " />
<glyph glyph-name="oslash" unicode="&#xf8;" horiz-adv-x="586" d="M481 434 Q516 404 536 360.5 Q556 317 556 265 Q556 207 532.5 157 Q509 107 469 70 Q429 33 375.5 11.5 Q322 -10 263 -10 Q212 -10 166 9 L151 -11 Q135 -31 122.5 -43.5 Q110 -56 90 -56 Q79 -56 72.5 -49 Q66 -42 66 -31 Q66 -15 79 2 L110 43 Q72 75 51 120 Q30 165 30 219 Q30 276 54.5 325.5 Q79 375 119.5 411.5 Q160 448 213 469 Q266 490 323 490 Q352 490 377.5 484.5 Q403 479 426 469 L445 494 Q458 511 469 519.5 Q480 528 494 528 Q507 528 514.5 520 Q522 512 522 501 Q522 487 512 476 L481 434 Z M166 225 Q166 202 172 183.5 Q178 165 189 150 L349 365 Q331 371 309 371 Q280 371 254.5 360 Q229 349 209 329.5 Q189 310 177.5 283.5 Q166 257 166 225 Z M277 109 Q305 109 331 120 Q357 131 377 151 Q397 171 408.5 198.5 Q420 226 420 259 Q420 297 401 326 L243 114 Q261 109 277 109 Z " />
<glyph glyph-name="otilde" unicode="&#xf5;" horiz-adv-x="586" d="M263 -10 Q213 -10 170 7.5 Q127 25 96 55.5 Q65 86 47.5 128 Q30 170 30 219 Q30 276 54.5 325.5 Q79 375 119.5 411.5 Q160 448 213 469 Q266 490 323 490 Q373 490 415.5 473 Q458 456 489.5 426 Q521 396 538.5 355 Q556 314 556 265 Q556 207 532.5 157 Q509 107 469 70 Q429 33 375.5 11.5 Q322 -10 263 -10 Z M277 109 Q305 109 331 120 Q357 131 377 151 Q397 171 408.5 198.5 Q420 226 420 259 Q420 310 389 340.5 Q358 371 309 371 Q280 371 254.5 360 Q229 349 209 329.5 Q189 310 177.5 283.5 Q166 257 166 225 Q166 172 197.5 140.5 Q229 109 277 109 Z M422 561 Q400 561 382 569 Q364 577 347.5 587 Q331 597 315 605 Q299 613 282 613 Q258 613 242 589 Q234 577 224.5 569.5 Q215 562 201 562 Q185 562 175 572 Q165 582 167 600 Q168 618 176.5 637 Q185 656 199.5 672 Q214 688 233.5 698.5 Q253 709 277 709 Q298 709 318 700.5 Q338 692 356 682.5 Q374 673 389.5 664.5 Q405 656 419 656 Q433 656 440.5 662.5 Q448 669 453 679 Q461 693 469 701.5 Q477 710 493 710 Q511 710 520.5 698 Q530 686 529 670 Q528 651 519.5 631.5 Q511 612 497 596.5 Q483 581 464 571 Q445 561 422 561 Z " />
<glyph glyph-name="oe" unicode="&#x153;" horiz-adv-x="914" d="M237 -10 Q191 -10 153 6.5 Q115 23 87.5 52.5 Q60 82 45 123 Q30 164 30 213 Q30 273 52 324 Q74 375 110.5 412 Q147 449 195 469.5 Q243 490 295 490 Q364 490 411.5 455.5 Q459 421 479 363 Q511 421 567.5 455.5 Q624 490 691 490 Q730 490 764 477 Q798 464 823.5 439 Q849 414 863.5 377 Q878 340 878 292 Q878 246 866.5 231.5 Q855 217 826 217 L554 217 L557 200 Q562 152 594.5 125.5 Q627 99 680 99 Q703 99 725.5 103 Q748 107 765 113 Q785 119 799.5 124.5 Q814 130 823 130 Q836 130 848 120 Q860 110 860 88 Q860 67 850 52.5 Q840 38 823 28 Q794 11 750.5 0.5 Q707 -10 665 -10 Q590 -10 533 25 Q476 60 455 123 Q423 60 364.5 25 Q306 -10 237 -10 Z M762 299 Q761 341 738.5 364 Q716 387 678 387 Q637 387 607.5 362 Q578 337 563 299 L762 299 Z M256 108 Q284 108 308.5 120.5 Q333 133 351 154 Q369 175 379 202 Q389 229 389 259 Q389 309 362 341 Q335 373 288 373 Q259 373 234.5 361 Q210 349 192 328 Q174 307 163.5 280 Q153 253 153 223 Q153 173 180 140.5 Q207 108 256 108 Z " />
<glyph glyph-name="p" unicode="p" horiz-adv-x="609" d="M64 -192 Q32 -192 16 -174.5 Q0 -157 0 -128 Q0 -125 0 -121.5 Q0 -118 1 -114 L65 413 Q69 447 88 466.5 Q107 486 140 486 Q172 486 190 469 Q208 452 205 423 L202 398 Q231 445 278.5 467 Q326 489 373 489 Q416 489 453.5 473 Q491 457 519 428.5 Q547 400 563 359.5 Q579 319 579 270 Q579 208 556.5 157 Q534 106 496.5 68.5 Q459 31 410.5 10.5 Q362 -10 310 -10 Q265 -10 225 10 Q185 30 164 74 L141 -120 Q137 -152 118 -172 Q99 -192 64 -192 Z M291 109 Q319 109 345.5 119.5 Q372 130 392 149.5 Q412 169 424 196.5 Q436 224 436 257 Q436 310 404 340.5 Q372 371 324 371 Q295 371 269 360 Q243 349 223.5 330 Q204 311 192.5 284 Q181 257 181 226 Q181 171 212 140 Q243 109 291 109 Z " />
<glyph glyph-name="thorn" unicode="&#xfe;" horiz-adv-x="612" d="M65 -181 Q0 -181 0 -121 Q0 -111 1 -106 L98 679 Q106 747 174 747 Q206 747 221.5 730.5 Q237 714 237 689 Q237 680 236 675 L201 398 Q231 445 278.5 467 Q326 489 373 489 Q416 489 453.5 473 Q491 457 519 428.5 Q547 400 563 359.5 Q579 319 579 270 Q579 208 556.5 157 Q534 106 497 68.5 Q460 31 412.5 10.5 Q365 -10 315 -10 Q266 -10 225.5 10 Q185 30 164 74 L141 -114 Q133 -181 65 -181 Z M291 109 Q319 109 345.5 119.5 Q372 130 392 149.5 Q412 169 424 196.5 Q436 224 436 257 Q436 310 404 340.5 Q372 371 324 371 Q295 371 269 360 Q243 349 223.5 330 Q204 311 192.5 284 Q181 257 181 226 Q181 171 212 140 Q243 109 291 109 Z " />
<glyph glyph-name="q" unicode="q" horiz-adv-x="610" d="M440 -192 Q408 -192 391.5 -174.5 Q375 -157 375 -128 Q375 -120 376 -115 L398 67 Q367 28 324.5 9 Q282 -10 232 -10 Q191 -10 154.5 6 Q118 22 91 50.5 Q64 79 48.5 119 Q33 159 33 208 Q33 269 53.5 321 Q74 373 109.5 410.5 Q145 448 192 469 Q239 490 293 490 Q347 490 386.5 467 Q426 444 446 394 L450 424 Q454 453 472.5 470.5 Q491 488 520 488 Q552 488 567.5 469.5 Q583 451 583 422 Q583 414 582 409 L517 -120 Q513 -152 494 -172 Q475 -192 440 -192 Z M282 102 Q309 102 335.5 113 Q362 124 382 144 Q402 164 414.5 193.5 Q427 223 427 259 Q427 314 395 345.5 Q363 377 315 377 Q286 377 259.5 366 Q233 355 213 335 Q193 315 181 285.5 Q169 256 169 220 Q169 164 201.5 133 Q234 102 282 102 Z " />
<glyph glyph-name="r" unicode="r" horiz-adv-x="403" d="M109 -10 Q77 -10 59 6.5 Q41 23 41 52 Q41 55 41.5 61 Q42 67 42.5 74 Q43 81 44 88.5 Q45 96 46 101 L85 413 Q94 486 162 486 Q190 486 207 469.5 Q224 453 224 421 Q224 413 223 406.5 Q222 400 221 392 L217 366 L221 366 Q230 391 245.5 413.5 Q261 436 280.5 452.5 Q300 469 322 478.5 Q344 488 367 488 Q392 488 406.5 474 Q421 460 421 435 Q421 397 403 379 Q385 361 348 356 Q280 344 245 301 Q210 258 202 187 L185 57 Q177 -10 109 -10 Z " />
<glyph glyph-name="s" unicode="s" horiz-adv-x="465" d="M195 -10 Q160 -10 125.5 -4 Q91 2 65 13 Q19 30 19 71 Q19 93 33 108 Q47 123 67 123 Q78 123 91.5 119.5 Q105 116 121.5 111.5 Q138 107 157 103.5 Q176 100 199 100 Q231 100 251 112.5 Q271 125 271 145 Q271 168 249 177.5 Q227 187 185 200 Q156 209 132 220.5 Q108 232 91 247 Q74 262 64.5 281.5 Q55 301 55 328 Q55 368 72.5 398 Q90 428 120.5 448.5 Q151 469 191.5 479.5 Q232 490 277 490 Q312 490 342 484.5 Q372 479 391 471 Q437 454 437 414 Q437 390 425.5 377.5 Q414 365 397 365 Q389 365 377 368.5 Q365 372 350 375.5 Q335 379 317 382.5 Q299 386 280 386 Q246 386 227 374.5 Q208 363 208 345 Q208 324 229 314.5 Q250 305 290 292 Q318 283 342 272.5 Q366 262 383 247.5 Q400 233 410 213 Q420 193 420 166 Q420 128 403.5 95.5 Q387 63 357 39.5 Q327 16 285.5 3 Q244 -10 195 -10 Z " />
<glyph glyph-name="scaron" unicode="&#x161;" horiz-adv-x="465" d="M195 -10 Q160 -10 125.5 -4 Q91 2 65 13 Q19 30 19 71 Q19 93 33 108 Q47 123 67 123 Q78 123 91.5 119.5 Q105 116 121.5 111.5 Q138 107 157 103.5 Q176 100 199 100 Q231 100 251 112.5 Q271 125 271 145 Q271 168 249 177.5 Q227 187 185 200 Q156 209 132 220.5 Q108 232 91 247 Q74 262 64.5 281.5 Q55 301 55 328 Q55 368 72.5 398 Q90 428 120.5 448.5 Q151 469 191.5 479.5 Q232 490 277 490 Q312 490 342 484.5 Q372 479 391 471 Q437 454 437 414 Q437 390 425.5 377.5 Q414 365 397 365 Q389 365 377 368.5 Q365 372 350 375.5 Q335 379 317 382.5 Q299 386 280 386 Q246 386 227 374.5 Q208 363 208 345 Q208 324 229 314.5 Q250 305 290 292 Q318 283 342 272.5 Q366 262 383 247.5 Q400 233 410 213 Q420 193 420 166 Q420 128 403.5 95.5 Q387 63 357 39.5 Q327 16 285.5 3 Q244 -10 195 -10 Z M268 545 Q244 545 228.5 555 Q213 565 199 587 L163 647 Q153 661 148 671.5 Q143 682 143 693 Q143 708 154 719 Q165 730 182 730 Q194 730 203.5 723.5 Q213 717 223 704 L276 635 L333 698 Q350 717 362.5 723.5 Q375 730 389 730 Q402 730 410.5 721.5 Q419 713 419 702 Q419 693 413.5 681.5 Q408 670 391 649 L343 587 Q326 567 308.5 556 Q291 545 268 545 Z " />
<glyph glyph-name="germandbls" unicode="&#xdf;" horiz-adv-x="628" d="M375 -9 Q345 -9 319.5 -6 Q294 -3 275 5 Q252 13 242.5 28 Q233 43 233 57 Q233 75 245 89.5 Q257 104 277 104 Q297 104 317 97.5 Q337 91 363 91 Q402 91 425 112 Q448 133 448 168 Q448 197 426 216 Q404 235 372 256 Q337 279 314.5 303 Q292 327 292 367 Q292 406 309.5 431.5 Q327 457 353 486 Q376 511 392.5 534 Q409 557 409 587 Q409 613 390.5 629.5 Q372 646 340 646 Q305 646 276.5 621.5 Q248 597 241 540 L182 60 Q177 25 156 7.5 Q135 -10 106 -10 Q77 -10 57.5 7 Q38 24 38 57 Q38 60 38.5 63 Q39 66 39 69 L97 549 Q103 600 124 638.5 Q145 677 177.5 703.5 Q210 730 253 743.5 Q296 757 346 757 Q389 757 425.5 746.5 Q462 736 488 717 Q514 698 528.5 671.5 Q543 645 543 612 Q543 590 537 570.5 Q531 551 521 534 Q511 517 499.5 502.5 Q488 488 476 475 Q454 449 440 432 Q426 415 426 390 Q426 361 447 343.5 Q468 326 497 306 Q514 295 529 282 Q544 269 555.5 253.5 Q567 238 574 218.5 Q581 199 581 174 Q581 133 566.5 99.5 Q552 66 525 42 Q498 18 460 4.5 Q422 -9 375 -9 Z " />
<glyph glyph-name="t" unicode="t" horiz-adv-x="400" d="M230 161 Q229 156 229 148 Q229 104 269 104 Q283 104 294 107.5 Q305 111 316 111 Q330 111 342 99.5 Q354 88 354 69 Q354 49 343.5 33.5 Q333 18 315 8 Q297 -2 271.5 -6 Q246 -10 223 -10 Q154 -10 119 28.5 Q84 67 84 127 Q84 134 84.5 141 Q85 148 86 155 L116 384 L97 384 Q70 384 56 396 Q42 408 42 428 Q42 455 61 467.5 Q80 480 104 480 L128 480 L139 564 Q144 599 164.5 619 Q185 639 218 639 Q249 639 266.5 621 Q284 603 284 575 Q284 567 283 563 L272 480 L330 480 Q390 480 390 436 Q390 410 371.5 397.5 Q353 385 321 385 L259 385 L230 161 Z " />
<glyph glyph-name="u" unicode="u" horiz-adv-x="579" d="M203 -10 Q125 -10 85 32.5 Q45 75 45 148 Q45 157 45 166 Q45 175 47 185 L76 421 Q85 490 154 490 Q186 490 203.5 474.5 Q221 459 221 431 Q221 428 220.5 425.5 Q220 423 220 420 L191 191 Q190 184 189.5 178 Q189 172 189 166 Q189 131 205.5 112 Q222 93 262 93 Q308 93 336.5 124.5 Q365 156 372 210 L398 421 Q407 490 475 490 Q507 490 524 473.5 Q541 457 541 428 Q541 419 540 414 L498 63 Q494 29 475.5 12 Q457 -5 427 -5 Q401 -5 384 9 Q367 23 370 55 L373 81 L371 81 Q347 37 302 13.5 Q257 -10 203 -10 Z " />
<glyph glyph-name="uacute" unicode="&#xfa;" horiz-adv-x="579" d="M203 -10 Q125 -10 85 32.5 Q45 75 45 148 Q45 157 45 166 Q45 175 47 185 L76 421 Q85 490 154 490 Q186 490 203.5 474.5 Q221 459 221 431 Q221 428 220.5 425.5 Q220 423 220 420 L191 191 Q190 184 189.5 178 Q189 172 189 166 Q189 131 205.5 112 Q222 93 262 93 Q308 93 336.5 124.5 Q365 156 372 210 L398 421 Q407 490 475 490 Q507 490 524 473.5 Q541 457 541 428 Q541 419 540 414 L498 63 Q494 29 475.5 12 Q457 -5 427 -5 Q401 -5 384 9 Q367 23 370 55 L373 81 L371 81 Q347 37 302 13.5 Q257 -10 203 -10 Z M325 528 Q309 528 297.5 538 Q286 548 286 564 Q286 574 292 585 L364 711 Q377 734 391 744.5 Q405 755 425 755 Q450 755 467 738 Q484 721 484 698 Q484 678 473 663.5 Q462 649 448 635 L375 555 Q361 541 350.5 534.5 Q340 528 325 528 Z " />
<glyph glyph-name="ucircumflex" unicode="&#xfb;" horiz-adv-x="579" d="M203 -10 Q125 -10 85 32.5 Q45 75 45 148 Q45 157 45 166 Q45 175 47 185 L76 421 Q85 490 154 490 Q186 490 203.5 474.5 Q221 459 221 431 Q221 428 220.5 425.5 Q220 423 220 420 L191 191 Q190 184 189.5 178 Q189 172 189 166 Q189 131 205.5 112 Q222 93 262 93 Q308 93 336.5 124.5 Q365 156 372 210 L398 421 Q407 490 475 490 Q507 490 524 473.5 Q541 457 541 428 Q541 419 540 414 L498 63 Q494 29 475.5 12 Q457 -5 427 -5 Q401 -5 384 9 Q367 23 370 55 L373 81 L371 81 Q347 37 302 13.5 Q257 -10 203 -10 Z M222 566 Q209 566 200 573.5 Q191 581 191 593 Q191 603 196.5 613 Q202 623 211 636 L269 710 Q289 735 307.5 746.5 Q326 758 352 758 Q375 758 390.5 747 Q406 736 418 714 L456 641 Q462 630 467 618.5 Q472 607 472 599 Q472 585 461 575.5 Q450 566 436 566 Q419 566 407.5 574 Q396 582 385 599 L343 669 L284 599 Q270 582 254 574 Q238 566 222 566 Z " />
<glyph glyph-name="udieresis" unicode="&#xfc;" horiz-adv-x="579" d="M203 -10 Q125 -10 85 32.5 Q45 75 45 148 Q45 157 45 166 Q45 175 47 185 L76 421 Q85 490 154 490 Q186 490 203.5 474.5 Q221 459 221 431 Q221 428 220.5 425.5 Q220 423 220 420 L191 191 Q190 184 189.5 178 Q189 172 189 166 Q189 131 205.5 112 Q222 93 262 93 Q308 93 336.5 124.5 Q365 156 372 210 L398 421 Q407 490 475 490 Q507 490 524 473.5 Q541 457 541 428 Q541 419 540 414 L498 63 Q494 29 475.5 12 Q457 -5 427 -5 Q401 -5 384 9 Q367 23 370 55 L373 81 L371 81 Q347 37 302 13.5 Q257 -10 203 -10 Z M250 606 Q226 606 212 621.5 Q198 637 198 659 Q198 686 217 705.5 Q236 725 264 725 Q287 725 301 709.5 Q315 694 315 671 Q315 645 296 625.5 Q277 606 250 606 Z M421 606 Q397 606 383 621.5 Q369 637 369 659 Q369 686 388 705.5 Q407 725 435 725 Q458 725 472 709.5 Q486 694 486 671 Q486 645 467 625.5 Q448 606 421 606 Z " />
<glyph glyph-name="ugrave" unicode="&#xf9;" horiz-adv-x="579" d="M203 -10 Q125 -10 85 32.5 Q45 75 45 148 Q45 157 45 166 Q45 175 47 185 L76 421 Q85 490 154 490 Q186 490 203.5 474.5 Q221 459 221 431 Q221 428 220.5 425.5 Q220 423 220 420 L191 191 Q190 184 189.5 178 Q189 172 189 166 Q189 131 205.5 112 Q222 93 262 93 Q308 93 336.5 124.5 Q365 156 372 210 L398 421 Q407 490 475 490 Q507 490 524 473.5 Q541 457 541 428 Q541 419 540 414 L498 63 Q494 29 475.5 12 Q457 -5 427 -5 Q401 -5 384 9 Q367 23 370 55 L373 81 L371 81 Q347 37 302 13.5 Q257 -10 203 -10 Z M348 528 Q333 528 322.5 534.5 Q312 541 298 555 L225 635 Q211 649 200 663.5 Q189 678 189 698 Q189 721 206 738 Q223 755 248 755 Q268 755 282 744.5 Q296 734 309 711 L381 585 Q387 574 387 564 Q387 548 375.5 538 Q364 528 348 528 Z " />
<glyph glyph-name="v" unicode="v" horiz-adv-x="538" d="M237 -10 Q205 -10 186.5 7.5 Q168 25 157 62 L65 381 Q62 392 59.5 403 Q57 414 57 422 Q57 454 76.5 472 Q96 490 128 490 Q157 490 175 473 Q193 456 199 427 L262 170 L383 428 Q397 459 414.5 474.5 Q432 490 461 490 Q490 490 507 473.5 Q524 457 524 436 Q524 422 518.5 408 Q513 394 505 379 L331 56 Q312 22 291 6 Q270 -10 237 -10 Z " />
<glyph glyph-name="w" unicode="w" horiz-adv-x="736" d="M602 427 Q612 459 629.5 474.5 Q647 490 677 490 Q700 490 716.5 476.5 Q733 463 733 442 Q733 422 723 401 L570 52 Q556 21 537 5.5 Q518 -10 489 -10 Q431 -10 419 55 L376 313 L268 47 Q245 -10 187 -10 Q133 -10 120 54 L52 390 Q50 398 48.5 409 Q47 420 47 428 Q47 457 64 473.5 Q81 490 112 490 Q174 490 183 422 L217 180 L316 432 Q328 463 349 476.5 Q370 490 400 490 Q430 490 449 474.5 Q468 459 473 424 L511 178 L602 427 L602 427 Z " />
<glyph glyph-name="x" unicode="x" horiz-adv-x="480" d="M480 438 Q480 421 474 409.5 Q468 398 455 385 L323 245 L407 126 Q422 105 431 86.5 Q440 68 440 51 Q440 25 422 7.5 Q404 -10 376 -10 Q348 -10 333 5 Q318 20 298 46 L230 153 L130 38 Q110 15 91 2.5 Q72 -10 45 -10 Q21 -10 6.5 4 Q-8 18 -8 37 Q-8 55 1.5 70 Q11 85 33 108 L166 243 L67 383 Q58 395 54.5 406.5 Q51 418 51 428 Q51 455 71 472.5 Q91 490 117 490 Q143 490 158.5 474.5 Q174 459 193 430 L255 333 L349 443 Q369 467 385.5 478.5 Q402 490 426 490 Q450 490 465 474.5 Q480 459 480 438 Z " />
<glyph glyph-name="y" unicode="y" horiz-adv-x="560" d="M70 -191 Q29 -191 4 -178 Q-13 -170 -23 -156 Q-33 -142 -33 -121 Q-33 -95 -19 -83.5 Q-5 -72 12 -72 Q22 -72 40.5 -76 Q59 -80 78 -80 Q109 -80 130 -63.5 Q151 -47 170 -15 L187 14 L61 399 Q58 407 57 414 Q56 421 56 428 Q56 453 73 471.5 Q90 490 124 490 Q156 490 172 474 Q188 458 197 426 L270 165 L412 429 Q427 457 444.5 473.5 Q462 490 491 490 Q515 490 532 476.5 Q549 463 549 443 Q549 430 545 418.5 Q541 407 533 395 L299 -16 Q272 -63 246 -96.5 Q220 -130 192 -151 Q164 -172 134 -181.5 Q104 -191 70 -191 Z " />
<glyph glyph-name="yacute" unicode="&#xfd;" horiz-adv-x="560" d="M70 -191 Q29 -191 4 -178 Q-13 -170 -23 -156 Q-33 -142 -33 -121 Q-33 -95 -19 -83.5 Q-5 -72 12 -72 Q22 -72 40.5 -76 Q59 -80 78 -80 Q109 -80 130 -63.5 Q151 -47 170 -15 L187 14 L61 399 Q58 407 57 414 Q56 421 56 428 Q56 453 73 471.5 Q90 490 124 490 Q156 490 172 474 Q188 458 197 426 L270 165 L412 429 Q427 457 444.5 473.5 Q462 490 491 490 Q515 490 532 476.5 Q549 463 549 443 Q549 430 545 418.5 Q541 407 533 395 L299 -16 Q272 -63 246 -96.5 Q220 -130 192 -151 Q164 -172 134 -181.5 Q104 -191 70 -191 Z M315 528 Q299 528 287.5 538 Q276 548 276 564 Q276 574 282 585 L354 711 Q367 734 381 744.5 Q395 755 415 755 Q440 755 457 738 Q474 721 474 698 Q474 678 463 663.5 Q452 649 438 635 L365 555 Q351 541 340.5 534.5 Q330 528 315 528 Z " />
<glyph glyph-name="ydieresis" unicode="&#xff;" horiz-adv-x="560" d="M70 -191 Q29 -191 4 -178 Q-13 -170 -23 -156 Q-33 -142 -33 -121 Q-33 -95 -19 -83.5 Q-5 -72 12 -72 Q22 -72 40.5 -76 Q59 -80 78 -80 Q109 -80 130 -63.5 Q151 -47 170 -15 L187 14 L61 399 Q58 407 57 414 Q56 421 56 428 Q56 453 73 471.5 Q90 490 124 490 Q156 490 172 474 Q188 458 197 426 L270 165 L412 429 Q427 457 444.5 473.5 Q462 490 491 490 Q515 490 532 476.5 Q549 463 549 443 Q549 430 545 418.5 Q541 407 533 395 L299 -16 Q272 -63 246 -96.5 Q220 -130 192 -151 Q164 -172 134 -181.5 Q104 -191 70 -191 Z M240 606 Q216 606 202 621.5 Q188 637 188 659 Q188 686 207 705.5 Q226 725 254 725 Q277 725 291 709.5 Q305 694 305 671 Q305 645 286 625.5 Q267 606 240 606 Z M411 606 Q387 606 373 621.5 Q359 637 359 659 Q359 686 378 705.5 Q397 725 425 725 Q448 725 462 709.5 Q476 694 476 671 Q476 645 457 625.5 Q438 606 411 606 Z " />
<glyph glyph-name="z" unicode="z" horiz-adv-x="472" d="M49 0 Q6 0 6 38 Q6 51 14 64 Q22 77 33 91 L269 368 L124 368 Q89 368 74.5 382 Q60 396 60 422 Q60 448 79.5 464 Q99 480 133 480 L410 480 Q458 480 458 444 Q458 430 450 416.5 Q442 403 431 389 L194 113 L353 113 Q420 113 420 58 Q420 32 401.5 16 Q383 0 348 0 L49 0 L49 0 Z " />
<glyph glyph-name="zcaron" unicode="&#x17e;" horiz-adv-x="472" d="M49 0 Q6 0 6 38 Q6 51 14 64 Q22 77 33 91 L269 368 L124 368 Q89 368 74.5 382 Q60 396 60 422 Q60 448 79.5 464 Q99 480 133 480 L410 480 Q458 480 458 444 Q458 430 450 416.5 Q442 403 431 389 L194 113 L353 113 Q420 113 420 58 Q420 32 401.5 16 Q383 0 348 0 L49 0 L49 0 Z M272 545 Q248 545 232.5 555 Q217 565 203 587 L167 647 Q157 661 152 671.5 Q147 682 147 693 Q147 708 158 719 Q169 730 186 730 Q198 730 207.5 723.5 Q217 717 227 704 L280 635 L337 698 Q354 717 366.5 723.5 Q379 730 393 730 Q406 730 414.5 721.5 Q423 713 423 702 Q423 693 417.5 681.5 Q412 670 395 649 L347 587 Q330 567 312.5 556 Q295 545 272 545 Z " />
<glyph glyph-name="fi" unicode="&#xfb01;" horiz-adv-x="665" d="M420 736 Q431 728 438.5 716 Q446 704 446 687 Q446 665 434 650 Q422 635 404 635 Q393 635 381 640.5 Q369 646 351 646 Q323 646 303.5 628 Q284 610 279 570 L268 480 L331 480 Q392 480 392 435 Q392 409 373.5 397 Q355 385 323 385 L256 385 L193 -113 Q184 -192 115 -192 Q83 -192 66 -175 Q49 -158 49 -127 Q49 -123 49 -119 Q49 -115 50 -110 L112 384 L93 384 Q66 384 51.5 396 Q37 408 37 428 Q37 455 55.5 467.5 Q74 480 98 480 L124 480 L135 568 Q147 662 198.5 709.5 Q250 757 335 757 Q388 757 420 736 Z M562 581 Q525 581 505.5 601.5 Q486 622 486 652 Q486 670 493 686 Q500 702 512.5 714 Q525 726 543 733 Q561 740 582 740 Q619 740 638.5 719.5 Q658 699 658 670 Q658 634 631.5 607.5 Q605 581 562 581 Z M495 -10 Q428 -10 428 50 Q428 60 429 65 L473 423 Q481 490 550 490 Q582 490 599 474 Q616 458 616 430 Q616 428 615.5 425 Q615 422 615 419 L572 58 Q564 -10 495 -10 Z " />
<glyph glyph-name="fl" unicode="&#xfb02;" horiz-adv-x="705" d="M420 736 Q431 728 438.5 716 Q446 704 446 687 Q446 665 434 650 Q422 635 404 635 Q393 635 381 640.5 Q369 646 351 646 Q323 646 303.5 628 Q284 610 279 570 L268 480 L331 480 Q392 480 392 435 Q392 409 373.5 397 Q355 385 323 385 L256 385 L193 -113 Q184 -192 115 -192 Q83 -192 66 -175 Q49 -158 49 -127 Q49 -123 49 -119 Q49 -115 50 -110 L112 384 L93 384 Q66 384 51.5 396 Q37 408 37 428 Q37 455 55.5 467.5 Q74 480 98 480 L124 480 L135 568 Q147 662 198.5 709.5 Q250 757 335 757 Q388 757 420 736 Z M566 -10 Q497 -10 462 23.5 Q427 57 427 115 Q427 122 427.5 129 Q428 136 429 144 L499 686 Q507 757 575 757 Q607 757 624.5 740.5 Q642 724 642 695 Q642 685 641 680 L572 156 Q571 152 571 145 Q571 128 580 117 Q589 106 607 106 Q619 106 629.5 109.5 Q640 113 650 113 Q662 113 672.5 103.5 Q683 94 683 71 Q683 53 675.5 37.5 Q668 22 652 11 Q636 0 613.5 -5 Q591 -10 566 -10 Z " />
<glyph glyph-name="ordfeminine" unicode="&#xaa;" horiz-adv-x="488" d="M220 368 Q189 368 161.5 379.5 Q134 391 114 411.5 Q94 432 82 460.5 Q70 489 70 524 Q70 566 86 601.5 Q102 637 128.5 663.5 Q155 690 189.5 704.5 Q224 719 261 719 Q340 719 375 657 L377 672 Q380 692 395 704 Q410 716 435 716 Q465 716 478.5 700.5 Q492 685 492 660 Q492 652 491 647 L465 439 Q456 370 395 370 Q373 371 359 385.5 Q345 400 346 423 L347 432 Q324 403 292 385.5 Q260 368 220 368 Z M265 455 Q283 455 301 462.5 Q319 470 332.5 483.5 Q346 497 354.5 515.5 Q363 534 363 557 Q363 592 341.5 612 Q320 632 289 632 Q270 632 252.5 624.5 Q235 617 221.5 603.5 Q208 590 200 571 Q192 552 192 530 Q192 494 213 474.5 Q234 455 265 455 Z M99 239 Q80 239 71 248 Q62 257 62 272 Q62 288 73 297 Q84 306 103 306 L401 306 Q417 306 427.5 297.5 Q438 289 438 274 Q438 257 426.5 248 Q415 239 398 239 L99 239 Z " />
<glyph glyph-name="ordmasculine" unicode="&#xba;" horiz-adv-x="449" d="M243 382 Q205 382 173.5 394 Q142 406 118.5 427 Q95 448 82 476 Q69 504 69 536 Q69 575 86 608.5 Q103 642 132 667 Q161 692 200 706 Q239 720 283 720 Q320 720 352 708.5 Q384 697 407.5 676.5 Q431 656 444 628.5 Q457 601 457 569 Q457 530 440 496 Q423 462 393.5 436.5 Q364 411 325 396.5 Q286 382 243 382 Z M253 473 Q271 473 288 479.5 Q305 486 317.5 498 Q330 510 337.5 526.5 Q345 543 345 562 Q345 592 324.5 611 Q304 630 273 630 Q237 630 209.5 605 Q182 580 182 541 Q182 512 202 492.5 Q222 473 253 473 Z M96 239 Q77 239 68 248 Q59 257 59 272 Q59 288 70 297 Q81 306 100 306 L367 306 Q383 306 393.5 297.5 Q404 289 404 274 Q404 257 392 248 Q380 239 363 239 L96 239 Z " />
<glyph glyph-name="Delta" unicode="&#x394;" horiz-adv-x="589" d="M43 0 Q8 0 -8 11.5 Q-24 23 -24 44 Q-24 66 -5 104 L280 661 Q306 712 362 712 Q410 712 426 650 L561 108 Q570 67 570 45 Q570 18 553.5 9 Q537 0 495 0 L43 0 Z M434 103 L334 535 L122 103 L434 103 Z " />
<glyph glyph-name="Omega" unicode="&#x3a9;" horiz-adv-x="744" d="M86 0 Q20 0 20 56 Q20 82 37.5 97.5 Q55 113 92 113 L199 113 L204 143 Q143 179 102.5 240.5 Q62 302 62 385 Q62 458 93 519.5 Q124 581 175.5 625.5 Q227 670 295 695 Q363 720 437 720 Q500 720 554.5 700.5 Q609 681 648.5 645.5 Q688 610 710.5 560.5 Q733 511 733 452 Q733 397 716.5 350 Q700 303 671 264 Q642 225 603 194 Q564 163 520 141 L516 113 L613 113 Q646 113 663 98.5 Q680 84 680 58 Q680 31 662 15.5 Q644 0 607 0 L443 0 Q414 0 399 16.5 Q384 33 386 59 L392 116 Q396 144 409.5 162.5 Q423 181 446 198 Q506 234 544 291 Q582 348 582 422 Q582 459 570.5 490.5 Q559 522 538 544.5 Q517 567 487.5 580 Q458 593 421 593 Q376 593 336.5 575.5 Q297 558 268 527 Q239 496 222.5 454 Q206 412 206 363 Q206 312 227.5 271.5 Q249 231 285 204 Q304 185 315 165.5 Q326 146 323 117 L316 57 Q312 31 293 15.5 Q274 0 241 0 L86 0 L86 0 Z " />
<glyph glyph-name="mu" unicode="&#x3bc;" horiz-adv-x="604" d="M86 -200 Q54 -200 37.5 -185 Q21 -170 21 -143 Q21 -135 22 -126 Q23 -117 25 -108 L60 82 L93 420 Q99 490 169 490 Q201 490 218.5 473 Q236 456 236 426 Q236 423 235.5 418 Q235 413 234 405 L210 206 Q208 196 207 186 Q206 176 206 160 Q206 124 225 107.5 Q244 91 277 91 Q320 91 351.5 122.5 Q383 154 390 209 L416 421 Q420 454 439 472 Q458 490 491 490 Q524 490 541.5 473 Q559 456 559 426 Q559 423 558.5 417.5 Q558 412 557 404 L516 67 Q507 -3 440 -3 Q414 -3 400 11.5 Q386 26 386 46 Q386 50 386.5 55.5 Q387 61 388 72 L385 73 Q339 -10 256 -10 Q227 -10 205.5 0 Q184 10 171 30 L160 -130 Q155 -200 86 -200 Z " />
<glyph glyph-name="pi" unicode="&#x3c0;" horiz-adv-x="619" d="M497 182 Q495 169 494 157.5 Q493 146 493 138 Q493 104 527 104 Q538 104 548.5 106.5 Q559 109 567 109 Q581 109 589.5 98.5 Q598 88 598 71 Q598 38 571 17 Q554 3 530 -3.5 Q506 -10 478 -10 Q412 -10 382 23 Q352 56 352 110 Q352 118 353 130.5 Q354 143 356 157 L383 375 L271 375 L231 59 Q222 -10 153 -10 Q122 -10 107 5.5 Q92 21 92 48 Q92 51 92 54.5 Q92 58 93 62 L132 375 L117 375 Q91 375 72 388 Q53 401 53 428 Q53 480 125 480 L547 480 Q615 480 615 433 Q615 409 596 392 Q577 375 537 375 L522 375 L497 182 Z " />
<glyph glyph-name="zero" unicode="0" horiz-adv-x="621" d="M278 -10 Q230 -10 188.5 10 Q147 30 116.5 68 Q86 106 68.5 161.5 Q51 217 51 288 Q51 391 77 471 Q103 551 147 606.5 Q191 662 248.5 691 Q306 720 368 720 Q417 720 458.5 700.5 Q500 681 530 644 Q560 607 577 553 Q594 499 594 429 Q594 324 568 242 Q542 160 498.5 104 Q455 48 398 19 Q341 -10 278 -10 Z M295 115 Q332 115 360 135.5 Q388 156 407 191 Q426 226 437 272 Q448 318 451 369 Q453 389 454 408 Q455 427 455 447 Q451 520 425 558 Q399 596 351 596 Q321 596 295 579 Q269 562 249 533.5 Q229 505 215.5 466 Q202 427 196 384 Q190 339 190 297 Q190 205 217 160 Q244 115 295 115 Z " />
<glyph glyph-name="one" unicode="1" horiz-adv-x="476" d="M233 -10 Q199 -10 182 6.5 Q165 23 165 52 Q165 61 166 66 L229 556 L155 524 Q148 521 141.5 520 Q135 519 129 519 Q106 519 93 535 Q80 551 80 571 Q80 586 88 600 Q96 614 113 622 L289 700 Q312 711 324.5 715.5 Q337 720 349 720 Q366 720 378 708.5 Q390 697 390 677 Q390 671 389 667 L310 58 Q301 -10 233 -10 Z " />
<glyph glyph-name="two" unicode="2" horiz-adv-x="584" d="M99 0 Q73 0 60 11 Q47 22 47 41 Q47 56 54 67 Q61 78 74 93 L265 314 Q289 342 308.5 365.5 Q328 389 341.5 411.5 Q355 434 362.5 455.5 Q370 477 370 500 Q370 545 337.5 572.5 Q305 600 256 600 Q235 600 217.5 596 Q200 592 185 587.5 Q170 583 157.5 579 Q145 575 135 575 Q115 575 102.5 587.5 Q90 600 90 623 Q90 650 108.5 668 Q127 686 161 697 Q221 720 301 720 Q350 720 391 707 Q432 694 462 669 Q492 644 508.5 609 Q525 574 525 530 Q525 466 490 407 Q455 348 393 279 L249 120 L442 120 Q473 120 489.5 104 Q506 88 506 62 Q506 0 432 0 L99 0 L99 0 Z " />
<glyph glyph-name="three" unicode="3" horiz-adv-x="562" d="M206 -10 Q168 -10 135.5 -4.5 Q103 1 80 11 Q56 22 42.5 38.5 Q29 55 29 78 Q29 103 42 116.5 Q55 130 74 130 Q82 130 95.5 126 Q109 122 126 117 Q142 113 161 109.5 Q180 106 200 106 Q234 106 263 115 Q292 124 313 139.5 Q334 155 345.5 176 Q357 197 357 222 Q357 265 316.5 289 Q276 313 198 313 Q170 313 154.5 327.5 Q139 342 139 369 Q139 398 157.5 412 Q176 426 207 426 Q250 426 282 435 Q314 444 335 458 Q356 472 366.5 490.5 Q377 509 377 529 Q377 564 348 586.5 Q319 609 274 609 Q257 609 240.5 606.5 Q224 604 210 600 Q193 595 179.5 591 Q166 587 155 587 Q137 587 122 599 Q107 611 107 634 Q107 660 128.5 677 Q150 694 185 705 Q210 713 239 716.5 Q268 720 303 720 Q355 720 396 708.5 Q437 697 465.5 677 Q494 657 509.5 628.5 Q525 600 525 567 Q525 506 486 455.5 Q447 405 360 380 Q439 364 476.5 323 Q514 282 514 225 Q514 172 489 128.5 Q464 85 421.5 54.5 Q379 24 323 7 Q267 -10 206 -10 Z " />
<glyph glyph-name="four" unicode="4" horiz-adv-x="590" d="M508 224 Q542 223 557 209 Q572 195 572 172 Q572 143 554 128.5 Q536 114 503 114 L474 114 L470 61 Q465 -10 395 -10 Q360 -10 345.5 8.5 Q331 27 334 62 L338 114 L86 114 Q53 114 35 131 Q17 148 17 180 Q17 200 24.5 217.5 Q32 235 49 259 L343 653 Q369 689 391 704.5 Q413 720 444 720 Q519 720 514 631 L483 224 L508 224 Z M154 224 L347 224 L363 427 Q365 450 369 480 Q373 510 378 539 Q364 513 345.5 483.5 Q327 454 315 438 L154 224 Z " />
<glyph glyph-name="five" unicode="5" horiz-adv-x="595" d="M203 -10 Q174 -10 147.5 -6.5 Q121 -3 98 5 Q73 14 60 29.5 Q47 45 47 69 Q47 96 61.5 109.5 Q76 123 94 123 Q111 123 138.5 115.5 Q166 108 204 108 Q244 108 277 118.5 Q310 129 334 147.5 Q358 166 371 192 Q384 218 384 248 Q384 296 345.5 324.5 Q307 353 246 353 Q216 353 191 348.5 Q166 344 157 344 Q134 344 122.5 355.5 Q111 367 111 386 Q111 399 115 411 L185 650 Q201 710 265 710 L487 710 Q520 711 538 698.5 Q556 686 556 662 Q557 631 536.5 614 Q516 597 482 596 L291 596 L247 451 Q275 456 302 456 Q353 456 396.5 443.5 Q440 431 471.5 407 Q503 383 521 347 Q539 311 539 264 Q539 201 510.5 150 Q482 99 435.5 63.5 Q389 28 328 9 Q267 -10 203 -10 Z " />
<glyph glyph-name="six" unicode="6" horiz-adv-x="583" d="M263 -10 Q211 -10 169.5 6 Q128 22 98.5 49.5 Q69 77 53.5 115 Q38 153 38 198 Q38 261 66 321 Q94 381 155 451 L356 681 Q373 701 390 710.5 Q407 720 428 720 Q451 720 466 707.5 Q481 695 481 675 Q481 651 461 628 L327 475 Q317 464 302.5 448.5 Q288 433 265 412 Q297 434 321 441.5 Q345 449 372 449 Q414 449 448 434.5 Q482 420 506 394 Q530 368 543 332 Q556 296 556 253 Q556 196 532 148 Q508 100 468 65 Q428 30 374.5 10 Q321 -10 263 -10 Z M282 109 Q309 109 335 119 Q361 129 380.5 147 Q400 165 412 190 Q424 215 424 244 Q424 294 393 322.5 Q362 351 312 351 Q283 351 257.5 340.5 Q232 330 213 311.5 Q194 293 182.5 268 Q171 243 171 213 Q171 168 201.5 138.5 Q232 109 282 109 Z " />
<glyph glyph-name="seven" unicode="7" horiz-adv-x="523" d="M115 -5 Q89 -5 73.5 10.5 Q58 26 58 49 Q58 69 71 91 L381 589 L160 589 Q128 589 109.5 603.5 Q91 618 91 647 Q91 676 111 693 Q131 710 166 710 L498 710 Q528 710 544 697.5 Q560 685 560 665 Q560 646 547 624 L197 51 Q181 23 163 9 Q145 -5 115 -5 Z " />
<glyph glyph-name="eight" unicode="8" horiz-adv-x="608" d="M267 -9 Q221 -9 180 3 Q139 15 108.5 38.5 Q78 62 60 96.5 Q42 131 42 175 Q42 213 54 245.5 Q66 278 87 304 Q108 330 136 348.5 Q164 367 196 378 Q158 398 138.5 432 Q119 466 119 509 Q119 556 139.5 595 Q160 634 195.5 661.5 Q231 689 277.5 704.5 Q324 720 375 720 Q419 720 456 708 Q493 696 520 674.5 Q547 653 562 622 Q577 591 577 554 Q577 495 544.5 449.5 Q512 404 454 378 Q500 361 528 320.5 Q556 280 556 225 Q556 169 531.5 125.5 Q507 82 467 52 Q427 22 374.5 6.5 Q322 -9 267 -9 Z M330 420 Q381 420 413.5 452 Q446 484 446 533 Q446 571 422.5 593 Q399 615 361 615 Q338 615 317 607 Q296 599 280.5 585 Q265 571 255.5 550.5 Q246 530 246 505 Q246 467 268.5 443.5 Q291 420 330 420 Z M282 100 Q310 100 334.5 109 Q359 118 377 134.5 Q395 151 405.5 174 Q416 197 416 225 Q416 269 388 295 Q360 321 317 321 Q291 321 266.5 312 Q242 303 223.5 286 Q205 269 194 245.5 Q183 222 183 194 Q183 151 210 125.5 Q237 100 282 100 Z " />
<glyph glyph-name="nine" unicode="9" horiz-adv-x="583" d="M348 720 Q400 720 441.5 704 Q483 688 512 660.5 Q541 633 557 595 Q573 557 573 512 Q573 449 545 389 Q517 329 456 259 L255 29 Q238 9 221 -0.5 Q204 -10 183 -10 Q160 -10 145 2.5 Q130 15 130 35 Q130 59 150 82 L284 235 Q294 246 308.5 261.5 Q323 277 346 298 Q314 276 290 268.5 Q266 261 239 261 Q197 261 163 275.5 Q129 290 105 316 Q81 342 68 378 Q55 414 55 457 Q55 514 79 562 Q103 610 143 645 Q183 680 236 700 Q289 720 348 720 Z M329 601 Q302 601 276 591 Q250 581 230.5 563 Q211 545 199 520 Q187 495 187 466 Q187 416 218 387.5 Q249 359 299 359 Q327 359 353 369.5 Q379 380 398 398.5 Q417 417 428.5 442 Q440 467 440 497 Q440 542 409.5 571.5 Q379 601 329 601 Z " />
<glyph glyph-name="onesuperior" unicode="&#xb9;" horiz-adv-x="319" d="M200 423 Q155 423 155 466 Q155 474 156 478 L189 735 L153 720 Q145 717 137 714.5 Q129 712 120 712 Q104 712 95 723 Q86 734 86 748 Q86 775 115 788 L209 831 Q226 839 236 842.5 Q246 846 257 846 Q272 846 283 837 Q294 828 294 809 Q294 802 293 798 L250 476 Q244 423 200 423 Z " />
<glyph glyph-name="twosuperior" unicode="&#xb2;" horiz-adv-x="358" d="M106 430 Q65 430 65 463 Q65 475 72 486 Q79 497 94 511 L204 616 Q235 645 254 668 Q273 691 273 718 Q273 743 254.5 757.5 Q236 772 207 772 Q186 772 166.5 766 Q147 760 136 760 Q123 760 115 768.5 Q107 777 107 791 Q107 813 128 827 Q146 839 171.5 844.5 Q197 850 225 850 Q289 850 328.5 819 Q368 788 368 737 Q368 697 345.5 662.5 Q323 628 285 593 L193 507 L303 507 Q349 507 349 470 Q349 451 335.5 440.5 Q322 430 299 430 L106 430 L106 430 Z " />
<glyph glyph-name="threesuperior" unicode="&#xb3;" horiz-adv-x="360" d="M175 424 Q136 424 101 435 Q70 446 70 474 Q70 490 79 499.5 Q88 509 102 509 Q112 509 129.5 504 Q147 499 173 499 Q215 499 241 516 Q267 533 267 561 Q267 585 248.5 598.5 Q230 612 198 612 L170 612 Q155 612 145 619.5 Q135 627 135 644 Q135 662 146.5 670.5 Q158 679 177 679 Q229 679 252.5 696 Q276 713 276 736 Q276 756 258.5 768 Q241 780 215 780 Q195 780 175.5 773.5 Q156 767 147 767 Q136 767 127.5 774.5 Q119 782 119 796 Q119 822 151 836 Q166 844 187.5 847.5 Q209 851 232 851 Q301 851 338 825 Q375 799 375 760 Q375 725 351.5 697 Q328 669 274 654 Q325 644 348 620.5 Q371 597 371 562 Q371 530 355.5 504.5 Q340 479 313 461 Q286 443 250.5 433.5 Q215 424 175 424 Z " />
<glyph glyph-name="fraction" unicode="&#x2044;" horiz-adv-x="120" d="M-215 1 Q-223 9 -223 17 Q-223 25 -215 35 L342 704 Q349 714 360 714 Q369 714 376 707 Q385 699 385 690 Q385 681 378 673 L-181 3 Q-188 -7 -199 -7 Q-208 -7 -215 1 Z " />
<glyph glyph-name="onehalf" unicode="&#xbd;" horiz-adv-x="807" d="M185 292 Q140 292 140 335 Q140 343 141 347 L174 604 L138 589 Q130 586 122 583.5 Q114 581 105 581 Q89 581 80 592 Q71 603 71 617 Q71 644 100 657 L194 700 Q211 708 221 711.5 Q231 715 242 715 Q257 715 268 706 Q279 697 279 678 Q279 671 278 667 L235 345 Q229 292 185 292 Z M99 1 Q91 9 91 17 Q91 25 99 35 L656 704 Q663 714 674 714 Q683 714 690 707 Q699 699 699 690 Q699 681 692 673 L133 3 Q126 -7 115 -7 Q106 -7 99 1 Z M502 1 Q461 1 461 34 Q461 46 468 57 Q475 68 490 82 L600 187 Q631 216 650 239 Q669 262 669 289 Q669 314 650.5 328.5 Q632 343 603 343 Q582 343 562.5 337 Q543 331 532 331 Q519 331 511 339.5 Q503 348 503 362 Q503 384 524 398 Q542 410 567.5 415.5 Q593 421 621 421 Q685 421 724.5 390 Q764 359 764 308 Q764 268 741.5 233.5 Q719 199 681 164 L589 78 L699 78 Q745 78 745 41 Q745 22 731.5 11.5 Q718 1 695 1 L502 1 L502 1 Z " />
<glyph glyph-name="onequarter" unicode="&#xbc;" horiz-adv-x="790" d="M185 292 Q140 292 140 335 Q140 343 141 347 L174 604 L138 589 Q130 586 122 583.5 Q114 581 105 581 Q89 581 80 592 Q71 603 71 617 Q71 644 100 657 L194 700 Q211 708 221 711.5 Q231 715 242 715 Q257 715 268 706 Q279 697 279 678 Q279 671 278 667 L235 345 Q229 292 185 292 Z M99 1 Q91 9 91 17 Q91 25 99 35 L656 704 Q663 714 674 714 Q683 714 690 707 Q699 699 699 690 Q699 681 692 673 L133 3 Q126 -7 115 -7 Q106 -7 99 1 Z M723 143 Q739 143 749 135.5 Q759 128 759 111 Q759 92 747.5 83 Q736 74 719 74 L710 74 L706 42 Q700 -4 658 -4 Q620 -4 620 32 Q620 34 620.5 37 Q621 40 621 42 L624 74 L486 74 Q462 74 448.5 85.5 Q435 97 435 116 Q435 133 442.5 146 Q450 159 464 176 L630 374 Q650 398 665.5 408 Q681 418 704 418 Q726 418 737 405.5 Q748 393 748 373 Q748 371 747.5 368 Q747 365 747 363 L719 143 L723 143 Z M521 143 L632 143 L653 305 L521 143 Z " />
<glyph glyph-name="threequarters" unicode="&#xbe;" horiz-adv-x="838" d="M153 294 Q114 294 79 305 Q48 316 48 344 Q48 360 57 369.5 Q66 379 80 379 Q90 379 107.5 374 Q125 369 151 369 Q193 369 219 386 Q245 403 245 431 Q245 455 226.5 468.5 Q208 482 176 482 L148 482 Q133 482 123 489.5 Q113 497 113 514 Q113 532 124.5 540.5 Q136 549 155 549 Q207 549 230.5 566 Q254 583 254 606 Q254 626 236.5 638 Q219 650 193 650 Q173 650 153.5 643.5 Q134 637 125 637 Q114 637 105.5 644.5 Q97 652 97 666 Q97 692 129 706 Q144 714 165.5 717.5 Q187 721 210 721 Q279 721 316 695 Q353 669 353 630 Q353 595 329.5 567 Q306 539 252 524 Q303 514 326 490.5 Q349 467 349 432 Q349 400 333.5 374.5 Q318 349 291 331 Q264 313 228.5 303.5 Q193 294 153 294 Z M147 1 Q139 9 139 17 Q139 25 147 35 L704 704 Q711 714 722 714 Q731 714 738 707 Q747 699 747 690 Q747 681 740 673 L181 3 Q174 -7 163 -7 Q154 -7 147 1 Z M771 143 Q787 143 797 135.5 Q807 128 807 111 Q807 92 795.5 83 Q784 74 767 74 L758 74 L754 42 Q748 -4 706 -4 Q668 -4 668 32 Q668 34 668.5 37 Q669 40 669 42 L672 74 L534 74 Q510 74 496.5 85.5 Q483 97 483 116 Q483 133 490.5 146 Q498 159 512 176 L678 374 Q698 398 713.5 408 Q729 418 752 418 Q774 418 785 405.5 Q796 393 796 373 Q796 371 795.5 368 Q795 365 795 363 L767 143 L771 143 Z M569 143 L680 143 L701 305 L569 143 Z " />
<glyph glyph-name="oneeighth" unicode="&#x215b;" horiz-adv-x="801" d="M185 292 Q140 292 140 335 Q140 343 141 347 L174 604 L138 589 Q130 586 122 583.5 Q114 581 105 581 Q89 581 80 592 Q71 603 71 617 Q71 644 100 657 L194 700 Q211 708 221 711.5 Q231 715 242 715 Q257 715 268 706 Q279 697 279 678 Q279 671 278 667 L235 345 Q229 292 185 292 Z M99 1 Q91 9 91 17 Q91 25 99 35 L656 704 Q663 714 674 714 Q683 714 690 707 Q699 699 699 690 Q699 681 692 673 L133 3 Q126 -7 115 -7 Q106 -7 99 1 Z M591 -5 Q562 -5 536.5 2 Q511 9 491.5 23 Q472 37 461 57.5 Q450 78 450 105 Q450 150 478 179.5 Q506 209 546 221 Q520 233 507 254.5 Q494 276 494 302 Q494 329 506 351 Q518 373 539 389 Q560 405 588 413.5 Q616 422 648 422 Q702 422 737.5 396 Q773 370 773 325 Q773 290 752.5 263 Q732 236 695 221 Q726 211 745 187.5 Q764 164 764 131 Q764 98 749.5 73 Q735 48 711 30.5 Q687 13 656 4 Q625 -5 591 -5 Z M624 246 Q655 246 675 264.5 Q695 283 695 312 Q695 334 679.5 347 Q664 360 639 360 Q610 360 589.5 343 Q569 326 569 297 Q569 274 583.5 260 Q598 246 624 246 Z M600 58 Q633 58 658 78.5 Q683 99 683 131 Q683 157 664 172.5 Q645 188 617 188 Q584 188 559 168 Q534 148 534 116 Q534 90 552 74 Q570 58 600 58 Z " />
<glyph glyph-name="threeeighths" unicode="&#x215c;" horiz-adv-x="849" d="M153 294 Q114 294 79 305 Q48 316 48 344 Q48 360 57 369.5 Q66 379 80 379 Q90 379 107.5 374 Q125 369 151 369 Q193 369 219 386 Q245 403 245 431 Q245 455 226.5 468.5 Q208 482 176 482 L148 482 Q133 482 123 489.5 Q113 497 113 514 Q113 532 124.5 540.5 Q136 549 155 549 Q207 549 230.5 566 Q254 583 254 606 Q254 626 236.5 638 Q219 650 193 650 Q173 650 153.5 643.5 Q134 637 125 637 Q114 637 105.5 644.5 Q97 652 97 666 Q97 692 129 706 Q144 714 165.5 717.5 Q187 721 210 721 Q279 721 316 695 Q353 669 353 630 Q353 595 329.5 567 Q306 539 252 524 Q303 514 326 490.5 Q349 467 349 432 Q349 400 333.5 374.5 Q318 349 291 331 Q264 313 228.5 303.5 Q193 294 153 294 Z M147 1 Q139 9 139 17 Q139 25 147 35 L704 704 Q711 714 722 714 Q731 714 738 707 Q747 699 747 690 Q747 681 740 673 L181 3 Q174 -7 163 -7 Q154 -7 147 1 Z M639 -5 Q610 -5 584.5 2 Q559 9 539.5 23 Q520 37 509 57.5 Q498 78 498 105 Q498 150 526 179.5 Q554 209 594 221 Q568 233 555 254.5 Q542 276 542 302 Q542 329 554 351 Q566 373 587 389 Q608 405 636 413.5 Q664 422 696 422 Q750 422 785.5 396 Q821 370 821 325 Q821 290 800.5 263 Q780 236 743 221 Q774 211 793 187.5 Q812 164 812 131 Q812 98 797.5 73 Q783 48 759 30.5 Q735 13 704 4 Q673 -5 639 -5 Z M672 246 Q703 246 723 264.5 Q743 283 743 312 Q743 334 727.5 347 Q712 360 687 360 Q658 360 637.5 343 Q617 326 617 297 Q617 274 631.5 260 Q646 246 672 246 Z M648 58 Q681 58 706 78.5 Q731 99 731 131 Q731 157 712 172.5 Q693 188 665 188 Q632 188 607 168 Q582 148 582 116 Q582 90 600 74 Q618 58 648 58 Z " />
<glyph glyph-name="fiveeighths" unicode="&#x215d;" horiz-adv-x="836" d="M152 289 Q127 289 108 292.5 Q89 296 75 301 Q44 314 44 343 Q44 358 53 367 Q62 376 73 376 Q85 376 101.5 371.5 Q118 367 141 367 Q185 367 210.5 387 Q236 407 236 442 Q236 468 214.5 484 Q193 500 159 500 Q146 500 133.5 498.5 Q121 497 113 497 Q100 497 91.5 503 Q83 509 83 523 Q83 528 85 538 L118 662 Q131 714 187 714 L306 714 Q349 714 349 680 Q349 639 299 639 L194 639 L173 565 Q179 567 185 567 Q191 567 197 567 Q258 567 299 538 Q340 509 340 452 Q340 414 324.5 384 Q309 354 283 333 Q257 312 223 300.5 Q189 289 152 289 Z M134 1 Q126 9 126 17 Q126 25 134 35 L691 704 Q698 714 709 714 Q718 714 725 707 Q734 699 734 690 Q734 681 727 673 L168 3 Q161 -7 150 -7 Q141 -7 134 1 Z M626 -5 Q597 -5 571.5 2 Q546 9 526.5 23 Q507 37 496 57.5 Q485 78 485 105 Q485 150 513 179.5 Q541 209 581 221 Q555 233 542 254.5 Q529 276 529 302 Q529 329 541 351 Q553 373 574 389 Q595 405 623 413.5 Q651 422 683 422 Q737 422 772.5 396 Q808 370 808 325 Q808 290 787.5 263 Q767 236 730 221 Q761 211 780 187.5 Q799 164 799 131 Q799 98 784.5 73 Q770 48 746 30.5 Q722 13 691 4 Q660 -5 626 -5 Z M659 246 Q690 246 710 264.5 Q730 283 730 312 Q730 334 714.5 347 Q699 360 674 360 Q645 360 624.5 343 Q604 326 604 297 Q604 274 618.5 260 Q633 246 659 246 Z M635 58 Q668 58 693 78.5 Q718 99 718 131 Q718 157 699 172.5 Q680 188 652 188 Q619 188 594 168 Q569 148 569 116 Q569 90 587 74 Q605 58 635 58 Z " />
<glyph glyph-name="seveneighths" unicode="&#x215e;" horiz-adv-x="811" d="M92 296 Q77 296 66.5 305 Q56 314 56 329 Q56 342 67 359 L251 632 L122 632 Q74 632 74 672 Q74 712 125 712 L285 712 Q317 712 334.5 699.5 Q352 687 352 664 Q352 655 348.5 643.5 Q345 632 337 620 L153 342 Q138 321 125 308.5 Q112 296 92 296 Z M109 1 Q101 9 101 17 Q101 25 109 35 L666 704 Q673 714 684 714 Q693 714 700 707 Q709 699 709 690 Q709 681 702 673 L143 3 Q136 -7 125 -7 Q116 -7 109 1 Z M601 -5 Q572 -5 546.5 2 Q521 9 501.5 23 Q482 37 471 57.5 Q460 78 460 105 Q460 150 488 179.5 Q516 209 556 221 Q530 233 517 254.5 Q504 276 504 302 Q504 329 516 351 Q528 373 549 389 Q570 405 598 413.5 Q626 422 658 422 Q712 422 747.5 396 Q783 370 783 325 Q783 290 762.5 263 Q742 236 705 221 Q736 211 755 187.5 Q774 164 774 131 Q774 98 759.5 73 Q745 48 721 30.5 Q697 13 666 4 Q635 -5 601 -5 Z M634 246 Q665 246 685 264.5 Q705 283 705 312 Q705 334 689.5 347 Q674 360 649 360 Q620 360 599.5 343 Q579 326 579 297 Q579 274 593.5 260 Q608 246 634 246 Z M610 58 Q643 58 668 78.5 Q693 99 693 131 Q693 157 674 172.5 Q655 188 627 188 Q594 188 569 168 Q544 148 544 116 Q544 90 562 74 Q580 58 610 58 Z " />
<glyph glyph-name="asterisk" unicode="&#x2a;" horiz-adv-x="453" d="M166 376 Q144 376 130.5 389.5 Q117 403 117 423 Q117 443 135.5 460.5 Q154 478 174 491 L226 524 L168 523 Q146 523 134 526 Q88 529 88 569 Q88 592 103 609 Q118 626 141 626 Q157 626 173.5 616.5 Q190 607 201 597 L243 562 L231 617 Q226 640 226 657 Q226 715 282 715 Q326 715 326 676 Q326 651 310 618 L283 561 L335 597 Q351 608 368.5 617 Q386 626 400 626 Q419 626 429.5 611.5 Q440 597 440 577 Q440 551 423.5 539.5 Q407 528 382 526 Q370 523 347 523 L291 524 L335 491 Q352 478 364.5 463 Q377 448 377 431 Q377 420 372 410.5 Q367 401 359 393 Q351 385 341 380.5 Q331 376 321 376 Q295 376 283.5 394 Q272 412 266 444 L256 501 L232 444 Q220 417 203 396.5 Q186 376 166 376 Z " />
<glyph glyph-name="backslash" unicode="&#x5c;" horiz-adv-x="594" d="M486 -94 Q474 -94 463 -88 Q452 -82 446 -68 L87 697 Q78 716 78 733 Q78 754 93.5 766.5 Q109 779 135 779 Q145 779 170 728 L528 -37 Q532 -45 532 -54 Q532 -72 517.5 -83 Q503 -94 486 -94 Z " />
<glyph glyph-name="periodcentered" unicode="&#xb7;" horiz-adv-x="318" d="M157 221 Q124 221 105 242.5 Q86 264 86 294 Q86 332 111.5 359 Q137 386 175 386 Q208 386 227.5 364.5 Q247 343 247 311 Q247 274 221 247.5 Q195 221 157 221 Z " />
<glyph glyph-name="bullet" unicode="&#x2022;" horiz-adv-x="399" d="M197 217 Q148 217 119.5 249 Q91 281 91 327 Q91 355 101.5 380 Q112 405 130 423.5 Q148 442 173 453 Q198 464 227 464 Q251 464 270.5 455.5 Q290 447 304 432 Q318 417 325.5 396.5 Q333 376 333 352 Q333 325 322.5 300.5 Q312 276 293.5 257.5 Q275 239 250 228 Q225 217 197 217 Z " />
<glyph glyph-name="colon" unicode="&#x3a;" horiz-adv-x="312" d="M169 331 Q137 331 119 351.5 Q101 372 101 401 Q101 437 126 462.5 Q151 488 187 488 Q218 488 236 467.5 Q254 447 254 417 Q254 399 247.5 383.5 Q241 368 229.5 356.5 Q218 345 202.5 338 Q187 331 169 331 Z M126 -9 Q94 -9 76 12 Q58 33 58 62 Q58 80 64.5 95.5 Q71 111 83 122.5 Q95 134 110.5 141 Q126 148 144 148 Q175 148 193 127.5 Q211 107 211 77 Q211 60 204.5 44.5 Q198 29 186.5 17 Q175 5 159.5 -2 Q144 -9 126 -9 Z " />
<glyph glyph-name="comma" unicode="&#x2c;" horiz-adv-x="324" d="M149 158 Q182 158 203.5 136.5 Q225 115 225 82 Q225 56 212.5 31 Q200 6 181 -23 L112 -126 Q93 -156 64 -156 Q54 -156 47.5 -150.5 Q41 -145 41 -135 Q41 -126 46 -117 L110 -5 Q87 1 72.5 20 Q58 39 58 65 Q58 85 65.5 102 Q73 119 86 131.5 Q99 144 115 151 Q131 158 149 158 Z " />
<glyph glyph-name="ellipsis" unicode="&#x2026;" horiz-adv-x="806" d="M129 -8 Q96 -8 77 14 Q58 36 58 66 Q58 85 65 101.5 Q72 118 84 130.5 Q96 143 112.5 150.5 Q129 158 148 158 Q180 158 199.5 136.5 Q219 115 219 83 Q219 46 193 19 Q167 -8 129 -8 Z M373 -8 Q340 -8 321 14 Q302 36 302 66 Q302 85 309 101.5 Q316 118 328 130.5 Q340 143 356.5 150.5 Q373 158 392 158 Q424 158 443.5 136.5 Q463 115 463 83 Q463 46 437 19 Q411 -8 373 -8 Z M616 -8 Q584 -8 564.5 14 Q545 36 545 66 Q545 85 552 101.5 Q559 118 571.5 130.5 Q584 143 600.5 150.5 Q617 158 636 158 Q668 158 687.5 136.5 Q707 115 707 83 Q707 65 700 48.5 Q693 32 680.5 19.5 Q668 7 651.5 -0.5 Q635 -8 616 -8 Z " />
<glyph glyph-name="exclam" unicode="&#x21;" horiz-adv-x="336" d="M163 223 Q113 223 116 288 L144 646 Q146 682 166 701 Q186 720 221 720 Q257 720 273 701 Q289 682 289 656 Q289 651 288.5 646.5 Q288 642 287 637 L223 282 Q217 253 203 238 Q189 223 163 223 Z M134 -8 Q101 -8 81 13.5 Q61 35 61 67 Q61 104 86 130.5 Q111 157 151 157 Q183 157 203 135.5 Q223 114 223 82 Q223 64 216 47.5 Q209 31 197 19 Q185 7 168.5 -0.5 Q152 -8 134 -8 Z " />
<glyph glyph-name="exclamdown" unicode="&#xa1;" horiz-adv-x="337" d="M231 719 Q264 719 284 697.5 Q304 676 304 644 Q304 607 279 580.5 Q254 554 214 554 Q182 554 162 575.5 Q142 597 142 629 Q142 647 149 663.5 Q156 680 168 692 Q180 704 196.5 711.5 Q213 719 231 719 Z M202 488 Q252 488 249 423 L221 65 Q219 29 199 10 Q179 -9 144 -9 Q108 -9 92 10 Q76 29 76 55 Q76 60 76.5 64.5 Q77 69 78 74 L142 429 Q148 458 162 473 Q176 488 202 488 Z " />
<glyph glyph-name="numbersign" unicode="&#x23;" horiz-adv-x="646" d="M508 449 L474 276 L565 276 Q604 276 604 242 Q604 209 565 209 L462 209 L429 39 Q424 16 410.5 4.5 Q397 -7 381 -7 Q367 -7 357.5 2.5 Q348 12 348 30 Q348 38 349 43 L381 209 L230 209 L197 39 Q193 16 179 4.5 Q165 -7 150 -7 Q136 -7 126 2.5 Q116 12 116 31 Q116 39 117 43 L149 209 L80 209 Q42 209 42 242 Q42 276 80 276 L162 276 L196 449 L112 449 Q74 449 74 483 Q74 517 112 517 L209 517 L240 678 Q243 698 255.5 707.5 Q268 717 282 717 Q299 718 310 709.5 Q321 701 321 684 Q321 678 320 675 L289 517 L440 517 L471 678 Q475 698 487 707.5 Q499 717 513 717 Q531 718 541.5 709.5 Q552 701 552 684 Q552 678 551 675 L521 517 L593 517 Q631 517 631 483 Q631 449 593 449 L508 449 Z M427 449 L276 449 L243 276 L394 276 L427 449 Z " />
<glyph glyph-name="period" unicode="&#x2e;" horiz-adv-x="318" d="M129 -8 Q96 -8 77 14 Q58 36 58 66 Q58 85 65 101.5 Q72 118 84 130.5 Q96 143 112.5 150.5 Q129 158 148 158 Q180 158 199.5 136.5 Q219 115 219 83 Q219 46 193 19 Q167 -8 129 -8 Z " />
<glyph glyph-name="question" unicode="&#x3f;" horiz-adv-x="492" d="M197 201 Q171 201 158 217 Q145 233 147 259 L151 319 Q153 345 166.5 360 Q180 375 203 385 Q267 412 304.5 442 Q342 472 342 521 Q342 542 334 559 Q326 576 312 588 Q298 600 279.5 606 Q261 612 240 612 Q219 612 202 608.5 Q185 605 171 601.5 Q157 598 145.5 594.5 Q134 591 125 591 Q105 591 94 603.5 Q83 616 83 636 Q83 657 96 671.5 Q109 686 132 697 Q159 708 193 714 Q227 720 262 720 Q370 720 429.5 671 Q489 622 489 541 Q489 492 468.5 454 Q448 416 416 387 Q384 358 344.5 337.5 Q305 317 267 303 L259 253 Q247 201 197 201 Z M171 -8 Q137 -8 117 12 Q97 32 97 61 Q97 79 104 94.5 Q111 110 123.5 121.5 Q136 133 152.5 140 Q169 147 188 147 Q222 147 242 126.5 Q262 106 262 77 Q262 60 255 44.5 Q248 29 235.5 17.5 Q223 6 206.5 -1 Q190 -8 171 -8 Z " />
<glyph glyph-name="questiondown" unicode="&#xbf;" horiz-adv-x="491" d="M349 721 Q383 721 403 701 Q423 681 423 652 Q423 634 416 618.5 Q409 603 396.5 591.5 Q384 580 367.5 573 Q351 566 332 566 Q298 566 278 586.5 Q258 607 258 636 Q258 653 265 668.5 Q272 684 284.5 695.5 Q297 707 313.5 714 Q330 721 349 721 Z M323 512 Q349 512 362 496 Q375 480 373 454 L369 394 Q367 368 353.5 353 Q340 338 317 328 Q253 301 215.5 271 Q178 241 178 192 Q178 171 186 154 Q194 137 208 125 Q222 113 240.5 107 Q259 101 280 101 Q301 101 318 104.5 Q335 108 349 111.5 Q363 115 374.5 118.5 Q386 122 395 122 Q415 122 426 109.5 Q437 97 437 77 Q437 56 424 41.5 Q411 27 388 16 Q361 5 327 -1 Q293 -7 258 -7 Q150 -7 90.5 42 Q31 91 31 172 Q31 221 51.5 259 Q72 297 104 326 Q136 355 175.5 375.5 Q215 396 253 410 L261 460 Q273 512 323 512 Z " />
<glyph glyph-name="quotedbl" unicode="&#x22;" horiz-adv-x="510" d="M173 434 Q150 434 138.5 451 Q127 468 128 496 L134 640 Q135 675 153 692.5 Q171 710 203 710 Q263 710 263 655 Q263 650 263 644 Q263 638 261 632 L231 487 Q226 463 211 448.5 Q196 434 173 434 Z M385 434 Q362 434 350 451 Q338 468 339 496 L345 640 Q347 675 364.5 692.5 Q382 710 414 710 Q475 710 475 655 Q475 644 472 632 L442 487 Q437 463 422.5 448.5 Q408 434 385 434 Z " />
<glyph glyph-name="quotesingle" unicode="&#x27;" horiz-adv-x="298" d="M173 434 Q150 434 138.5 450 Q127 466 128 492 L134 645 Q136 720 206 720 Q233 720 247.5 705 Q262 690 262 664 Q262 653 259 641 L231 485 Q226 462 211 448 Q196 434 173 434 Z " />
<glyph glyph-name="semicolon" unicode="&#x3b;" horiz-adv-x="325" d="M174 325 Q141 325 122 347 Q103 369 103 399 Q103 418 110 434.5 Q117 451 129 463.5 Q141 476 157.5 483.5 Q174 491 193 491 Q225 491 244.5 469.5 Q264 448 264 416 Q264 379 238 352 Q212 325 174 325 Z M149 158 Q182 158 203.5 136.5 Q225 115 225 82 Q225 56 212.5 31 Q200 6 181 -23 L112 -126 Q93 -156 64 -156 Q54 -156 47.5 -150.5 Q41 -145 41 -135 Q41 -126 46 -117 L110 -5 Q87 1 72.5 20 Q58 39 58 65 Q58 85 65.5 102 Q73 119 86 131.5 Q99 144 115 151 Q131 158 149 158 Z " />
<glyph glyph-name="slash" unicode="&#x2f;" horiz-adv-x="372" d="M0 -121 Q-17 -121 -27.5 -111 Q-38 -101 -38 -84 Q-38 -68 -28 -45 L335 729 Q348 755 359.5 768 Q371 781 391 781 Q410 781 421 770 Q432 759 431 739 Q430 732 428.5 724 Q427 716 422 708 L55 -76 Q44 -98 31.5 -109.5 Q19 -121 0 -121 Z " />
<glyph glyph-name="underscore" unicode="&#x5f;" horiz-adv-x="541" d="M82 -169 Q53 -169 39 -155.5 Q25 -142 25 -119 Q25 -93 42.5 -80 Q60 -67 89 -67 L372 -67 Q397 -67 413 -79 Q429 -91 429 -114 Q429 -140 408.5 -154.5 Q388 -169 361 -169 L82 -169 L82 -169 Z " />
<glyph glyph-name="braceleft" unicode="&#x7b;" horiz-adv-x="288" d="M118 -165 Q88 -165 66.5 -157 Q45 -149 31.5 -135.5 Q18 -122 11.5 -105 Q5 -88 5 -69 Q5 -38 21 -4 Q37 30 56 63 Q75 96 91 126.5 Q107 157 107 181 Q107 201 96.5 216 Q86 231 58 236 Q45 238 34.5 245.5 Q24 253 24 272 Q24 295 37 305 Q50 315 67 317 Q106 322 121 344.5 Q136 367 136 392 Q136 411 129.5 436 Q123 461 114.5 487.5 Q106 514 99.5 541.5 Q93 569 93 594 Q93 618 101.5 640 Q110 662 127.5 679.5 Q145 697 172 707.5 Q199 718 235 718 Q256 718 270.5 715.5 Q285 713 296 710 Q307 706 313.5 699.5 Q320 693 320 681 Q320 663 310.5 656 Q301 649 290 649 Q287 649 277.5 650 Q268 651 260 651 Q228 651 209 633 Q190 615 190 586 Q190 566 197 541.5 Q204 517 212 491 Q220 465 227 439 Q234 413 234 389 Q234 351 206.5 318 Q179 285 125 277 Q168 271 187.5 244.5 Q207 218 207 187 Q207 159 191 127.5 Q175 96 156.5 64.5 Q138 33 122 3.5 Q106 -26 106 -48 Q106 -71 120.5 -84.5 Q135 -98 162 -98 Q167 -98 174.5 -97 Q182 -96 187 -96 Q197 -96 203.5 -100.5 Q210 -105 210 -117 Q210 -135 200.5 -144.5 Q191 -154 184 -156 Q172 -160 156 -162.5 Q140 -165 118 -165 Z " />
<glyph glyph-name="braceright" unicode="&#x7d;" horiz-adv-x="289" d="M63 -165 Q42 -165 27 -162.5 Q12 -160 1 -155 Q-11 -151 -16.5 -142.5 Q-22 -134 -22 -125 Q-22 -113 -14.5 -104 Q-7 -95 7 -95 Q13 -95 21 -96.5 Q29 -98 38 -98 Q70 -98 89.5 -80 Q109 -62 109 -33 Q109 -13 102 11.5 Q95 36 86.5 62.5 Q78 89 71 115.5 Q64 142 64 165 Q64 203 92 236 Q120 269 175 277 Q131 283 111 309.5 Q91 336 91 366 Q91 396 107 428 Q123 460 142 491 Q161 522 177 550.5 Q193 579 193 602 Q193 624 178 637.5 Q163 651 137 651 Q131 651 123 650.5 Q115 650 111 650 Q100 650 93.5 657.5 Q87 665 87 675 Q87 685 93 694 Q99 703 112 708 Q126 713 143 715.5 Q160 718 180 718 Q210 718 231.5 710 Q253 702 266.5 689 Q280 676 286.5 658.5 Q293 641 293 622 Q293 590 277 556 Q261 522 242.5 489 Q224 456 208 425.5 Q192 395 192 371 Q192 352 201.5 337.5 Q211 323 237 318 Q256 314 266 305 Q276 296 276 279 Q276 258 263 249.5 Q250 241 232 237 Q192 230 177.5 209 Q163 188 163 162 Q163 142 169.5 117.5 Q176 93 184.5 66.5 Q193 40 199.5 12.5 Q206 -15 206 -40 Q206 -64 197.5 -86.5 Q189 -109 171 -126.5 Q153 -144 126 -154.5 Q99 -165 63 -165 Z " />
<glyph glyph-name="bracketleft" unicode="&#x5b;" horiz-adv-x="367" d="M306 711 Q324 711 337 701 Q350 691 350 669 Q350 643 335 633 Q320 623 303 623 L224 623 L132 -75 L206 -75 Q221 -75 234.5 -83.5 Q248 -92 248 -114 Q248 -138 233 -147 Q218 -156 203 -156 L78 -156 Q54 -156 39 -144 Q24 -132 24 -110 Q24 -103 25 -99 L131 653 Q140 711 198 711 L306 711 L306 711 Z " />
<glyph glyph-name="bracketright" unicode="&#x5d;" horiz-adv-x="367" d="M67 -157 Q49 -157 36 -147 Q23 -137 23 -115 Q23 -89 38 -79 Q53 -69 70 -69 L149 -69 L241 629 L167 629 Q152 629 138.5 637.5 Q125 646 125 668 Q125 692 140 701 Q155 710 170 710 L295 710 Q319 710 334 698 Q349 686 349 664 Q349 657 348 653 L242 -99 Q233 -157 175 -157 L67 -157 L67 -157 Z " />
<glyph glyph-name="parenleft" unicode="&#x28;" horiz-adv-x="360" d="M193 -166 Q173 -166 157 -153 Q141 -140 123 -114 Q106 -92 90.5 -58.5 Q75 -25 63 16 Q51 57 44 104 Q37 151 37 201 Q37 277 52.5 346 Q68 415 94 475 Q120 535 154 584 Q188 633 226 669 Q251 691 272 703 Q293 715 311 715 Q325 715 336 708.5 Q347 702 347 689 Q347 682 339.5 673 Q332 664 320 650 Q291 618 261 573.5 Q231 529 207 473 Q183 417 167.5 350 Q152 283 152 207 Q152 92 175.5 13.5 Q199 -65 227 -107 Q233 -117 237.5 -124 Q242 -131 242 -137 Q242 -150 229 -158 Q216 -166 193 -166 Z " />
<glyph glyph-name="parenright" unicode="&#x29;" horiz-adv-x="360" d="M54 -154 Q38 -154 27.5 -149 Q17 -144 17 -133 Q17 -124 29 -109 Q66 -64 99.5 -11 Q133 42 158.5 101 Q184 160 199 223 Q214 286 214 351 Q214 396 208 440.5 Q202 485 191 525.5 Q180 566 165.5 601 Q151 636 134 662 Q126 675 126 687 Q126 700 137 705 Q148 710 164 710 Q194 710 208 701.5 Q222 693 237 674 Q256 650 273 616.5 Q290 583 302.5 541.5 Q315 500 322.5 453 Q330 406 330 357 Q330 282 314.5 213 Q299 144 271.5 83 Q244 22 206.5 -30.5 Q169 -83 125 -124 Q92 -154 54 -154 Z " />
<glyph glyph-name="emdash" unicode="&#x2014;" horiz-adv-x="934" d="M125 210 Q99 210 85 222 Q71 234 71 255 Q71 282 89 295 Q107 308 130 308 L807 308 Q868 308 868 262 Q868 236 849 223 Q830 210 798 210 L125 210 L125 210 Z " />
<glyph glyph-name="endash" unicode="&#x2013;" horiz-adv-x="539" d="M127 210 Q99 210 84.5 222 Q70 234 70 254 Q70 282 89.5 295 Q109 308 134 308 L410 308 Q473 308 473 262 Q473 236 453.5 223 Q434 210 401 210 L127 210 L127 210 Z " />
<glyph glyph-name="hyphen" unicode="&#x2d;" horiz-adv-x="446" d="M129 210 Q100 210 85.5 223 Q71 236 71 259 Q71 285 88 298.5 Q105 312 133 312 L325 312 Q349 312 364.5 299.5 Q380 287 380 264 Q380 238 363 224 Q346 210 320 210 L129 210 L129 210 Z " />
<glyph glyph-name="softhyphen" unicode="&#xad;" horiz-adv-x="445" d="M129 210 Q71 210 71 256 Q71 284 90.5 297.5 Q110 311 136 311 L315 311 Q380 311 380 264 Q380 237 360 223.5 Q340 210 306 210 L129 210 L129 210 Z " />
<glyph glyph-name="guillemotleft" unicode="&#xab;" horiz-adv-x="624" d="M279 63 Q266 50 250 50 Q223 50 195 87 L98 219 Q81 244 81 266 Q81 292 107 320 L247 455 Q271 479 297 479 Q324 479 348 454 Q358 442 315 391 L208 273 L283 155 Q299 128 299 108 Q299 83 279 63 Z M513 63 Q500 50 484 50 Q457 50 429 87 L333 219 Q316 242 316 266 Q316 294 342 320 L481 455 Q505 479 532 479 Q559 479 583 454 Q592 442 549 391 L443 273 L518 155 Q533 129 533 108 Q533 82 513 63 Z " />
<glyph glyph-name="guillemotright" unicode="&#xbb;" horiz-adv-x="627" d="M157 484 Q183 484 210 448 L304 317 Q321 293 321 268 Q321 239 293 211 L158 80 Q131 55 108 55 Q89 55 77 67 Q65 79 65 96 Q65 116 83 137 L196 265 L116 391 Q109 402 106.5 412.5 Q104 423 104 433 Q104 456 118 470 Q132 484 157 484 Z M392 484 Q418 484 445 448 L539 317 Q556 293 556 268 Q556 239 528 211 L393 80 Q366 55 343 55 Q324 55 312 67 Q300 79 300 96 Q300 116 318 137 L431 265 L351 391 Q344 402 341.5 412.5 Q339 423 339 433 Q339 456 353 470 Q367 484 392 484 Z " />
<glyph glyph-name="guilsinglleft" unicode="&#x2039;" horiz-adv-x="392" d="M246 50 Q220 50 193 86 L99 217 Q82 241 82 266 Q82 295 110 323 L245 454 Q272 479 295 479 Q314 479 326 467 Q338 455 338 438 Q338 418 320 397 L207 269 L287 143 Q294 132 296.5 121.5 Q299 111 299 101 Q299 78 285 64 Q271 50 246 50 Z " />
<glyph glyph-name="guilsinglright" unicode="&#x203a;" horiz-adv-x="392" d="M152 479 Q178 479 205 443 L299 312 Q316 288 316 263 Q316 234 288 206 L153 75 Q126 50 103 50 Q84 50 72 62 Q60 74 60 91 Q60 111 78 132 L191 260 L111 386 Q104 397 101.5 407.5 Q99 418 99 428 Q99 451 113 465 Q127 479 152 479 Z " />
<glyph glyph-name="quotedblbase" unicode="&#x201e;" horiz-adv-x="538" d="M149 158 Q182 158 203.5 136.5 Q225 115 225 82 Q225 56 212.5 31 Q200 6 181 -23 L112 -126 Q93 -156 64 -156 Q54 -156 47.5 -150.5 Q41 -145 41 -135 Q41 -126 46 -117 L110 -5 Q87 1 72.5 20 Q58 39 58 65 Q58 85 65.5 102 Q73 119 86 131.5 Q99 144 115 151 Q131 158 149 158 Z M363 158 Q396 158 417.5 136.5 Q439 115 439 82 Q439 56 426.5 31 Q414 6 395 -23 L326 -126 Q307 -156 278 -156 Q268 -156 261.5 -150.5 Q255 -145 255 -135 Q255 -126 260 -117 L324 -5 Q301 1 286.5 20 Q272 39 272 65 Q272 85 279.5 102 Q287 119 300 131.5 Q313 144 329 151 Q345 158 363 158 Z " />
<glyph glyph-name="quotedblleft" unicode="&#x201c;" horiz-adv-x="538" d="M180 407 Q147 407 125.5 428.5 Q104 450 104 483 Q104 509 116.5 534 Q129 559 148 588 L217 691 Q236 721 265 721 Q275 721 281.5 715.5 Q288 710 288 700 Q288 691 283 682 L219 570 Q242 564 256.5 545 Q271 526 271 500 Q271 480 263.5 463 Q256 446 243 433.5 Q230 421 214 414 Q198 407 180 407 Z M394 407 Q361 407 339.5 428.5 Q318 450 318 483 Q318 509 330.5 534 Q343 559 362 588 L431 691 Q450 721 479 721 Q489 721 495.5 715.5 Q502 710 502 700 Q502 691 497 682 L433 570 Q456 564 470.5 545 Q485 526 485 500 Q485 480 477.5 463 Q470 446 457 433.5 Q444 421 428 414 Q412 407 394 407 Z " />
<glyph glyph-name="quotedblright" unicode="&#x201d;" horiz-adv-x="537" d="M218 721 Q251 721 272.5 699.5 Q294 678 294 645 Q294 619 281.5 594 Q269 569 250 540 L181 437 Q162 407 133 407 Q123 407 116.5 412.5 Q110 418 110 428 Q110 437 115 446 L179 558 Q156 564 141.5 583 Q127 602 127 628 Q127 648 134.5 665 Q142 682 155 694.5 Q168 707 184 714 Q200 721 218 721 Z M432 721 Q465 721 486.5 699.5 Q508 678 508 645 Q508 619 495.5 594 Q483 569 464 540 L395 437 Q376 407 347 407 Q337 407 330.5 412.5 Q324 418 324 428 Q324 437 329 446 L393 558 Q370 564 355.5 583 Q341 602 341 628 Q341 648 348.5 665 Q356 682 369 694.5 Q382 707 398 714 Q414 721 432 721 Z " />
<glyph glyph-name="quoteleft" unicode="&#x2018;" horiz-adv-x="324" d="M180 407 Q147 407 125.5 428.5 Q104 450 104 483 Q104 509 116.5 534 Q129 559 148 588 L217 691 Q236 721 265 721 Q275 721 281.5 715.5 Q288 710 288 700 Q288 691 283 682 L219 570 Q242 564 256.5 545 Q271 526 271 500 Q271 480 263.5 463 Q256 446 243 433.5 Q230 421 214 414 Q198 407 180 407 Z " />
<glyph glyph-name="quoteright" unicode="&#x2019;" horiz-adv-x="324" d="M218 721 Q251 721 272.5 699.5 Q294 678 294 645 Q294 619 281.5 594 Q269 569 250 540 L181 437 Q162 407 133 407 Q123 407 116.5 412.5 Q110 418 110 428 Q110 437 115 446 L179 558 Q156 564 141.5 583 Q127 602 127 628 Q127 648 134.5 665 Q142 682 155 694.5 Q168 707 184 714 Q200 721 218 721 Z " />
<glyph glyph-name="quotesinglbase" unicode="&#x201a;" horiz-adv-x="324" d="M149 158 Q182 158 203.5 136.5 Q225 115 225 82 Q225 56 212.5 31 Q200 6 181 -23 L112 -126 Q93 -156 64 -156 Q54 -156 47.5 -150.5 Q41 -145 41 -135 Q41 -126 46 -117 L110 -5 Q87 1 72.5 20 Q58 39 58 65 Q58 85 65.5 102 Q73 119 86 131.5 Q99 144 115 151 Q131 158 149 158 Z " />
<glyph glyph-name="emspace" unicode="&#x2003;" horiz-adv-x="1000" d="" />
<glyph glyph-name="enspace" unicode="&#x2002;" horiz-adv-x="500" d="" />
<glyph glyph-name="fourperemspace" unicode="&#x2005;" horiz-adv-x="250" d="" />
<glyph glyph-name="hairspace" unicode="&#x200a;" horiz-adv-x="70" d="" />
<glyph glyph-name="Acircumflex" unicode="&#xc2;" horiz-adv-x="672" d="M627 86 Q630 71 630 59 Q630 26 608.5 8 Q587 -10 553 -10 Q522 -10 504.5 4.5 Q487 19 480 53 L456 155 L195 155 Q178 118 165 91.5 Q152 65 146 53 Q132 20 112 5 Q92 -10 60 -10 Q31 -10 15 5.5 Q-1 21 -1 45 Q-1 64 9 84 L304 660 Q319 690 339.5 703.5 Q360 717 393 717 Q456 717 473 650 L627 86 Z M431 261 Q422 297 413.5 334 Q405 371 397 406.5 Q389 442 382.5 473.5 Q376 505 371 530 Q360 505 345.5 473.5 Q331 442 314.5 406.5 Q298 371 280.5 334 Q263 297 246 261 L431 261 Z M289 754 Q275 754 266.5 763.5 Q258 773 258 786 Q258 793 261.5 800.5 Q265 808 273 814 L343 868 Q366 886 382.5 897.5 Q399 909 419 909 Q444 909 458 895.5 Q472 882 489 862 L529 817 Q541 802 541 788 Q541 773 530 763.5 Q519 754 506 754 Q488 754 477.5 763.5 Q467 773 456 782 L410 825 L347 782 Q329 770 316 762 Q303 754 289 754 Z " />
<glyph glyph-name="nbspace" unicode="&#xa0;" horiz-adv-x="208" d="" />
<glyph glyph-name="thinspace" unicode="&#x2009;" horiz-adv-x="104" d="" />
<glyph glyph-name="threeperemspace" unicode="&#x2004;" horiz-adv-x="479" d="" />
<glyph glyph-name="cent" unicode="&#xa2;" horiz-adv-x="473" d="M342 497 Q313 497 286 486 Q259 475 238.5 454.5 Q218 434 206 406 Q194 378 194 345 Q194 316 204 293 Q214 270 231 254.5 Q248 239 270.5 231 Q293 223 317 223 Q340 223 359 229 Q378 235 392 235 Q409 235 421 222 Q433 209 433 189 Q433 146 390 127 Q373 120 348.5 116 Q324 112 296 110 L276 17 Q271 -5 259.5 -13.5 Q248 -22 232 -22 Q195 -22 195 14 Q195 18 197 28 L217 117 Q181 125 149 143.5 Q117 162 94 189 Q71 216 57.5 252 Q44 288 44 332 Q44 390 64 437.5 Q84 485 117.5 520 Q151 555 196 576.5 Q241 598 291 605 L311 696 Q317 722 329 731 Q341 740 358 740 Q373 740 383 731.5 Q393 723 393 706 Q393 702 391 692 L374 606 Q391 604 405 600.5 Q419 597 431 592 Q474 575 474 533 Q474 509 460.5 496 Q447 483 430 483 Q416 483 394.5 490 Q373 497 342 497 Z " />
<glyph glyph-name="currency" unicode="&#xa4;" horiz-adv-x="622" d="M583 151 Q601 133 601 115 Q601 102 589 90 Q575 78 562 78 Q545 78 527 96 L457 169 Q400 129 326 129 Q288 129 255 139.5 Q222 150 195 170 L124 97 Q106 79 89 79 Q75 79 64 90 Q53 101 53 116 Q53 134 69 151 L140 225 Q122 252 112 285 Q102 318 102 354 Q102 392 112 425.5 Q122 459 141 487 L66 564 Q50 581 50 598 Q50 613 63 626 Q74 637 86 637 Q105 637 123 617 L196 542 Q223 560 255.5 570 Q288 580 324 580 Q361 580 393.5 570 Q426 560 453 542 L526 618 Q543 637 561 637 Q575 637 587 625 Q599 613 599 599 Q599 583 582 564 L508 488 Q528 460 538.5 426 Q549 392 549 354 Q549 317 539 284.5 Q529 252 512 225 L583 151 Z M326 223 Q353 223 375.5 232.5 Q398 242 414 259.5 Q430 277 439 300.5 Q448 324 448 352 Q448 411 414 448.5 Q380 486 324 486 Q297 486 274.5 476 Q252 466 236 448 Q220 430 211.5 406 Q203 382 203 354 Q203 326 212 302 Q221 278 237 260.5 Q253 243 276 233 Q299 223 326 223 Z " />
<glyph glyph-name="Euro" unicode="&#x20ac;" horiz-adv-x="585" d="M568 702 Q602 686 602 649 Q602 619 588.5 604 Q575 589 554 589 Q548 589 538.5 590.5 Q529 592 517.5 594 Q506 596 494.5 597.5 Q483 599 473 599 Q394 599 341 559.5 Q288 520 261 458 L496 458 Q513 458 525 449.5 Q537 441 537 422 Q537 405 524.5 395 Q512 385 493 385 L239 385 Q237 370 235.5 355 Q234 340 234 325 L481 325 Q498 325 510.5 316 Q523 307 523 290 Q523 273 509.5 262 Q496 251 479 251 L241 251 Q255 189 299 151 Q343 113 411 113 Q434 113 455.5 117.5 Q477 122 491 122 Q508 122 521.5 111 Q535 100 535 73 Q535 21 474 5 Q451 -2 424 -6 Q397 -10 366 -10 Q314 -10 269 6.5 Q224 23 189 56 Q154 89 130.5 137 Q107 185 98 248 L73 248 Q55 248 42.5 259.5 Q30 271 30 288 Q30 308 43.5 318.5 Q57 329 77 329 L93 329 Q93 343 94 355.5 Q95 368 97 381 L86 381 Q68 381 54 391.5 Q40 402 40 420 Q40 440 55 450.5 Q70 461 88 461 L116 461 Q134 516 167 563.5 Q200 611 245 645.5 Q290 680 346.5 700 Q403 720 469 720 Q498 720 523.5 715.5 Q549 711 568 702 Z " />
<glyph glyph-name="florin" unicode="&#x192;" horiz-adv-x="480" d="M465 751 Q493 746 505 732 Q517 718 517 699 Q517 669 505 657 Q493 645 476 645 Q468 645 456 647.5 Q444 650 433 650 Q367 650 346 564 L325 480 L406 480 Q457 480 457 439 Q457 413 442.5 399.5 Q428 386 402 386 L302 386 L206 1 Q181 -99 133 -145 Q85 -191 1 -191 Q-17 -191 -35 -188.5 Q-53 -186 -67 -181 Q-105 -168 -105 -127 Q-105 -104 -92 -91.5 Q-79 -79 -64 -79 Q-54 -79 -42.5 -81 Q-31 -83 -20 -83 Q15 -83 36.5 -60 Q58 -37 70 11 L162 386 L112 386 Q86 386 72.5 398 Q59 410 62 433 Q66 480 117 480 L185 480 L208 574 Q231 668 280 713 Q329 758 407 758 Q423 758 437 756 Q451 754 465 751 Z " />
<glyph glyph-name="sterling" unicode="&#xa3;" horiz-adv-x="585" d="M549 707 Q570 701 583 687 Q596 673 596 651 Q596 627 585 613.5 Q574 600 557 600 Q551 600 548 601 Q532 604 514 608.5 Q496 613 473 613 Q421 613 386.5 582 Q352 551 339 489 L322 408 L455 408 Q478 408 492.5 397 Q507 386 507 366 Q507 343 491.5 331.5 Q476 320 450 320 L303 320 L255 98 L454 98 Q480 98 492.5 86 Q505 74 505 54 Q505 27 489.5 13.5 Q474 0 448 0 L95 0 Q68 0 56 12 Q44 24 44 44 Q44 70 59.5 84 Q75 98 101 98 L129 98 L177 320 L152 320 Q125 320 113 330.5 Q101 341 101 359 Q101 384 116 396 Q131 408 157 408 L196 408 L216 502 Q238 608 303 664 Q368 720 459 720 Q483 720 506 716.5 Q529 713 549 707 Z " />
<glyph glyph-name="yen" unicode="&#xa5;" horiz-adv-x="637" d="M595 720 Q622 720 638 704.5 Q654 689 654 667 Q654 646 639 625 L437 341 L484 341 Q547 341 547 295 Q547 269 527.5 256 Q508 243 475 243 L391 243 L368 64 Q363 26 342 8 Q321 -10 286 -10 Q251 -10 234.5 8 Q218 26 218 57 Q218 61 218 65 Q218 69 219 74 L241 243 L156 243 Q128 243 113.5 255 Q99 267 99 287 Q99 315 118.5 328 Q138 341 163 341 L220 341 L92 622 Q84 641 84 657 Q84 684 103.5 702 Q123 720 152 720 Q186 720 206 703 Q226 686 240 648 L342 409 L508 658 Q529 691 548 705.5 Q567 720 595 720 Z " />
<glyph glyph-name="dollar" unicode="&#x24;" horiz-adv-x="593" d="M371 594 Q319 594 285.5 570.5 Q252 547 252 511 Q252 492 261 477.5 Q270 463 286 451.5 Q302 440 323 429.5 Q344 419 367 409 Q401 394 431 377.5 Q461 361 483.5 340 Q506 319 518.5 293 Q531 267 531 234 Q531 190 513.5 152 Q496 114 463 84.5 Q430 55 383.5 36 Q337 17 280 11 L258 -80 Q251 -109 237.5 -122 Q224 -135 202 -135 Q185 -135 177.5 -126 Q170 -117 170 -103 Q170 -93 173 -79 L194 11 Q168 13 142.5 17 Q117 21 97 28 Q36 48 36 97 Q36 122 52 136.5 Q68 151 87 151 Q97 151 113 146.5 Q129 142 149 136 Q169 130 192.5 125.5 Q216 121 242 121 Q300 121 338.5 145.5 Q377 170 377 212 Q377 250 344.5 273 Q312 296 257 319 Q225 333 195.5 349.5 Q166 366 144 387.5 Q122 409 109 435.5 Q96 462 96 497 Q96 540 114.5 575.5 Q133 611 165.5 637 Q198 663 241.5 679 Q285 695 335 699 L353 772 Q366 827 407 827 Q441 827 441 793 Q441 782 438 770 L421 698 Q444 696 464.5 692 Q485 688 503 682 Q524 674 536 659.5 Q548 645 548 625 Q548 601 533.5 588 Q519 575 499 575 Q490 575 476 578 Q462 581 445 584.5 Q428 588 409 591 Q390 594 371 594 Z " />
<glyph glyph-name="plus" unicode="&#x2b;" horiz-adv-x="585" d="M492 354 Q521 354 535.5 340 Q550 326 550 303 Q550 281 535.5 266.5 Q521 252 492 252 L343 252 L343 102 Q343 73 329 59 Q315 45 292 45 Q270 45 255.5 59 Q241 73 241 102 L241 252 L91 252 Q62 252 48 266 Q34 280 34 303 Q34 325 48 339.5 Q62 354 91 354 L241 354 L241 503 Q241 532 255 546.5 Q269 561 292 561 Q314 561 328.5 546.5 Q343 532 343 503 L343 354 L492 354 L492 354 Z " />
<glyph glyph-name="minus" unicode="&#x2212;" horiz-adv-x="585" d="M95 252 Q66 252 51.5 265 Q37 278 37 301 Q37 327 54 340.5 Q71 354 99 354 L494 354 Q518 354 533.5 341.5 Q549 329 549 306 Q549 280 531.5 266 Q514 252 488 252 L95 252 L95 252 Z " />
<glyph glyph-name="multiply" unicode="&#xd7;" horiz-adv-x="585" d="M501 165 Q522 144 522 124 Q522 105 506 89 Q490 73 471 73 Q449 73 429 93 L292 231 L154 93 Q134 73 113 73 Q94 73 78 89 Q62 105 62 124 Q62 145 82 165 L220 303 L82 440 Q62 460 62 482 Q62 502 78 517 Q93 532 113 532 Q135 532 154 513 L292 375 L429 512 Q450 533 471 533 Q488 533 506 517 Q522 501 522 482 Q522 461 501 440 L364 303 L501 165 L501 165 Z " />
<glyph glyph-name="divide" unicode="&#xf7;" horiz-adv-x="585" d="M293 450 Q261 450 241 472 Q221 494 221 523 Q221 554 241.5 575.5 Q262 597 294 597 Q326 597 345.5 575.5 Q365 554 365 524 Q365 494 344.5 472 Q324 450 293 450 Z M95 260 Q66 260 51.5 273 Q37 286 37 309 Q37 335 54 348.5 Q71 362 99 362 L494 362 Q518 362 533.5 349.5 Q549 337 549 314 Q549 288 531.5 274 Q514 260 488 260 L95 260 Z M293 18 Q261 18 241 40 Q221 62 221 91 Q221 122 241.5 143.5 Q262 165 294 165 Q326 165 345.5 143.5 Q365 122 365 92 Q365 62 344.5 40 Q324 18 293 18 Z " />
<glyph glyph-name="equal" unicode="&#x3d;" horiz-adv-x="585" d="M92 357 Q64 357 49.5 369 Q35 381 35 402 Q35 429 54.5 442 Q74 455 99 455 L490 456 Q552 456 552 410 Q552 384 532.5 371 Q513 358 481 358 L92 357 Z M92 149 Q64 149 49.5 161 Q35 173 35 194 Q35 221 54.5 234 Q74 247 99 247 L490 248 Q552 248 552 202 Q552 176 532.5 163 Q513 150 481 150 L92 149 Z " />
<glyph glyph-name="notequal" unicode="&#x2260;" horiz-adv-x="585" d="M491 245 Q546 245 546 196 Q546 147 491 147 L232 147 L194 71 Q186 57 177.5 50.5 Q169 44 155 44 Q144 44 137.5 49.5 Q131 55 131 64 Q131 69 132.5 73 Q134 77 136 82 L169 147 L92 147 Q38 147 38 196 Q38 245 92 245 L219 245 L275 355 L92 355 Q38 355 38 404 Q38 453 92 453 L325 453 L369 540 Q379 562 404 562 Q429 562 429 543 Q429 536 424 526 L387 453 L491 453 Q546 453 546 404 Q546 355 491 355 L338 355 L282 245 L491 245 L491 245 Z " />
<glyph glyph-name="greater" unicode="&#x3e;" horiz-adv-x="585" d="M141 41 Q123 32 107 32 Q84 32 69.5 47 Q55 62 55 85 Q55 125 103 148 L381 283 L105 418 Q57 440 57 478 Q57 501 72 516.5 Q87 532 110 532 Q123 532 141 524 L514 339 Q535 328 546 315 Q557 302 557 284 Q557 247 510 224 L141 41 L141 41 Z " />
<glyph glyph-name="less" unicode="&#x3c;" horiz-adv-x="585" d="M58 224 Q11 247 11 284 Q11 302 22 315 Q33 328 54 339 L427 524 Q445 532 458 532 Q481 532 496 516.5 Q511 501 511 478 Q511 440 463 418 L187 283 L465 148 Q513 125 513 85 Q513 62 498.5 47 Q484 32 461 32 Q445 32 427 41 L58 224 Z " />
<glyph glyph-name="greaterequal" unicode="&#x2265;" horiz-adv-x="585" d="M127 180 Q109 171 93 171 Q70 171 55.5 186 Q41 201 41 224 Q41 264 89 287 L367 422 L91 557 Q43 579 43 617 Q43 640 58 655.5 Q73 671 96 671 Q109 671 127 663 L500 478 Q521 467 532 454 Q543 441 543 423 Q543 386 496 363 L127 180 Z M96 1 Q67 1 51 14.5 Q35 28 35 51 Q35 103 96 103 L482 103 Q508 103 526 90.5 Q544 78 544 55 Q544 29 526 15 Q508 1 482 1 L96 1 Z " />
<glyph glyph-name="lessequal" unicode="&#x2264;" horiz-adv-x="585" d="M87 363 Q40 386 40 423 Q40 441 51 454 Q62 467 83 478 L456 663 Q474 671 487 671 Q510 671 525 655.5 Q540 640 540 617 Q540 579 492 557 L216 422 L494 287 Q542 264 542 224 Q542 201 527.5 186 Q513 171 490 171 Q474 171 456 180 L87 363 Z M101 1 Q75 1 57 15 Q39 29 39 55 Q39 78 57 90.5 Q75 103 101 103 L487 103 Q548 103 548 51 Q548 28 532 14.5 Q516 1 487 1 L101 1 Z " />
<glyph glyph-name="plusminus" unicode="&#xb1;" horiz-adv-x="585" d="M79 350 Q50 350 36 364 Q22 378 22 401 Q22 423 36 437.5 Q50 452 79 452 L229 452 L229 535 Q229 564 243 578.5 Q257 593 280 593 Q302 593 316.5 578.5 Q331 564 331 535 L331 452 L480 452 Q509 452 523.5 437.5 Q538 423 538 401 Q538 379 523.5 364.5 Q509 350 480 350 L331 350 L331 265 Q331 236 317 222 Q303 208 280 208 Q258 208 243.5 222 Q229 236 229 265 L229 350 L79 350 Z M477 144 Q503 144 521 131.5 Q539 119 539 96 Q539 70 521 56 Q503 42 477 42 L92 42 Q65 42 47 55.5 Q29 69 29 92 Q29 118 47 131 Q65 144 92 144 L477 144 Z " />
<glyph glyph-name="approxequal" unicode="&#x2248;" horiz-adv-x="603" d="M422 349 Q392 349 366.5 363 Q341 377 318 393.5 Q295 410 274 424 Q253 438 231 438 Q211 438 195 424.5 Q179 411 170 388 Q156 355 124 355 Q111 355 100 365 Q89 375 89 396 Q89 424 99.5 450.5 Q110 477 128.5 497.5 Q147 518 172 530 Q197 542 226 542 Q256 542 282 528 Q308 514 331 496.5 Q354 479 375 465 Q396 451 414 451 Q437 451 452 464 Q467 477 476 497 Q481 511 490.5 520 Q500 529 515 529 Q532 529 542 517.5 Q552 506 552 490 Q552 466 542 441 Q532 416 514.5 395.5 Q497 375 473 362 Q449 349 422 349 Z M407 121 Q377 121 351.5 135 Q326 149 303 165.5 Q280 182 259 196 Q238 210 216 210 Q196 210 180 196.5 Q164 183 155 160 Q141 127 109 127 Q96 127 85 137 Q74 147 74 168 Q74 196 84.5 222.5 Q95 249 113.5 269.5 Q132 290 157 302 Q182 314 211 314 Q241 314 267 300 Q293 286 316 268.5 Q339 251 360 237 Q381 223 399 223 Q422 223 437 236 Q452 249 461 269 Q466 283 475.5 292 Q485 301 500 301 Q517 301 527 289.5 Q537 278 537 262 Q537 238 527 213 Q517 188 499.5 167.5 Q482 147 458 134 Q434 121 407 121 Z " />
<glyph glyph-name="asciitilde" unicode="&#x7e;" horiz-adv-x="585" d="M381 217 Q351 217 325.5 231 Q300 245 277 261.5 Q254 278 233 292 Q212 306 190 306 Q170 306 154 292.5 Q138 279 129 256 Q115 223 83 223 Q70 223 59 233 Q48 243 48 264 Q48 292 58.5 318.5 Q69 345 87.5 365.5 Q106 386 131 398 Q156 410 185 410 Q215 410 241 396 Q267 382 290 364.5 Q313 347 334 333 Q355 319 373 319 Q396 319 411 332 Q426 345 435 365 Q440 379 449.5 388 Q459 397 474 397 Q491 397 501 385.5 Q511 374 511 358 Q511 334 501 309 Q491 284 473.5 263.5 Q456 243 432 230 Q408 217 381 217 Z " />
<glyph glyph-name="logicalnot" unicode="&#xac;" horiz-adv-x="585" d="M433 408 Q504 408 504 337 L504 195 Q504 139 450 139 Q397 139 397 195 L397 309 L108 309 Q52 309 52 358 Q52 408 108 408 L433 408 L433 408 Z " />
<glyph glyph-name="infinity" unicode="&#x221e;" horiz-adv-x="920" d="M680 512 Q722 512 758.5 496.5 Q795 481 822.5 452.5 Q850 424 866 384.5 Q882 345 882 297 Q882 249 866 209 Q850 169 823 141 Q796 113 759.5 97.5 Q723 82 681 82 Q646 82 616 93.5 Q586 105 559.5 124 Q533 143 511 166 Q489 189 471 213 Q424 156 373.5 119 Q323 82 260 82 Q217 82 179.5 98 Q142 114 114 142 Q86 170 70 209 Q54 248 54 293 Q54 339 70.5 379 Q87 419 115.5 448.5 Q144 478 182 495 Q220 512 263 512 Q295 512 323 500.5 Q351 489 375.5 470 Q400 451 421.5 427 Q443 403 461 378 Q482 404 504.5 428.5 Q527 453 553.5 471.5 Q580 490 611 501 Q642 512 680 512 Z M257 185 Q292 185 327 214.5 Q362 244 400 296 Q360 349 327 379 Q294 409 258 409 Q240 409 223 400.5 Q206 392 192.5 377 Q179 362 171 341 Q163 320 163 296 Q163 272 171 251.5 Q179 231 192 216.5 Q205 202 222 193.5 Q239 185 257 185 Z M682 185 Q719 185 745.5 213.5 Q772 242 772 293 Q772 347 744 378 Q716 409 678 409 Q657 409 637.5 399.5 Q618 390 599 373.5 Q580 357 562.5 335.5 Q545 314 529 291 Q568 243 604 214 Q640 185 682 185 Z " />
<glyph glyph-name="integral" unicode="&#x222b;" horiz-adv-x="423" d="M5 -191 Q-13 -191 -30.5 -189 Q-48 -187 -63 -181 Q-101 -168 -101 -127 Q-101 -104 -87.5 -91.5 Q-74 -79 -60 -79 Q-49 -79 -38 -81 Q-27 -83 -16 -83 Q19 -83 43 -60 Q67 -37 74 11 L160 574 Q174 669 227.5 713.5 Q281 758 359 758 Q390 758 417 751 Q445 746 458 732 Q471 718 471 699 Q471 669 458 657 Q445 645 428 645 Q420 645 408 647.5 Q396 650 385 650 Q351 650 327.5 628 Q304 606 298 564 L211 1 Q196 -100 143 -145.5 Q90 -191 5 -191 Z " />
<glyph glyph-name="product" unicode="&#x220f;" horiz-adv-x="704" d="M635 710 Q670 710 688 696 Q706 682 706 656 Q706 627 687.5 613.5 Q669 600 637 600 L603 600 L603 -54 Q603 -93 582.5 -109 Q562 -125 527 -125 Q450 -125 450 -54 L450 600 L284 600 L284 -54 Q284 -125 211 -125 Q140 -125 140 -54 L140 600 L109 600 Q77 600 59.5 614 Q42 628 42 657 Q42 684 59.5 697 Q77 710 109 710 L635 710 L635 710 Z " />
<glyph glyph-name="summation" unicode="&#x2211;" horiz-adv-x="570" d="M101 -126 Q49 -126 49 -76 Q49 -61 55.5 -49.5 Q62 -38 73 -24 L336 297 L73 608 Q61 623 55 635 Q49 647 49 665 Q49 684 62 697 Q75 710 100 710 L457 710 Q516 710 516 658 Q516 606 457 606 L222 606 L461 323 Q473 309 473 296 Q473 284 462 271 L220 -22 L462 -22 Q521 -22 521 -74 Q521 -126 462 -126 L101 -126 L101 -126 Z " />
<glyph glyph-name="radical" unicode="&#x221a;" horiz-adv-x="624" d="M267 -130 Q248 -130 234.5 -116.5 Q221 -103 210 -79 L58 250 Q50 268 50 281 Q50 304 66 319 Q82 334 106 334 Q129 334 143 321 Q157 308 169 280 L272 35 L502 664 Q523 720 568 720 Q591 720 605.5 707 Q620 694 620 671 Q620 655 613 640 L333 -75 Q322 -104 304.5 -117 Q287 -130 267 -130 Z " />
<glyph glyph-name="micro" unicode="&#xb5;" horiz-adv-x="604" d="M86 -192 Q54 -192 37.5 -177 Q21 -162 21 -135 Q21 -129 22.5 -119.5 Q24 -110 28.5 -87.5 Q33 -65 40.5 -25 Q48 15 60 82 L93 423 Q96 457 115.5 473.5 Q135 490 168 490 Q201 490 218 475 Q235 460 235 433 Q235 431 234.5 428 Q234 425 234 422 L209 210 Q207 192 206.5 181 Q206 170 206 165 Q206 125 225 108 Q244 91 277 91 Q322 91 352 120 Q382 149 388 199 L416 424 Q423 490 492 490 Q527 490 543 474 Q559 458 559 429 Q559 419 558 414 L516 57 Q508 -10 442 -10 Q417 -10 402 1 Q387 12 387 38 L388 73 L387 73 Q338 -10 256 -10 Q227 -10 205.5 0 Q184 10 171 30 L160 -122 Q155 -192 86 -192 Z " />
<glyph glyph-name="partialdiff" unicode="&#x2202;" horiz-adv-x="571" d="M252 720 Q328 720 383 697.5 Q438 675 473.5 635 Q509 595 526 538.5 Q543 482 543 415 Q543 326 521 248.5 Q499 171 459.5 114 Q420 57 363.5 24 Q307 -9 238 -9 Q196 -9 159 5 Q122 19 95 46 Q68 73 52 111.5 Q36 150 36 200 Q36 259 56.5 307 Q77 355 112 389 Q147 423 192.5 441.5 Q238 460 288 460 Q325 460 359 450.5 Q393 441 418 421 Q414 520 368.5 570 Q323 620 244 620 Q221 620 193 615 Q179 613 169 610.5 Q159 608 154 608 Q111 608 111 652 Q111 675 124 688 Q137 701 159 708 Q181 715 205 717.5 Q229 720 252 720 Z M259 96 Q321 96 362 159 Q403 222 414 331 Q394 345 366 354 Q338 363 310 363 Q280 363 254.5 351 Q229 339 210 318 Q191 297 180.5 268.5 Q170 240 170 207 Q170 157 194.5 126.5 Q219 96 259 96 Z " />
<glyph glyph-name="percent" unicode="&#x25;" horiz-adv-x="730" d="M209 406 Q183 406 161 415.5 Q139 425 122 443 Q105 461 95.5 486 Q86 511 86 542 Q86 582 100 615 Q114 648 136.5 671.5 Q159 695 188 707.5 Q217 720 248 720 Q273 720 295.5 710.5 Q318 701 335 683 Q352 665 361.5 639.5 Q371 614 371 583 Q371 543 357.5 510.5 Q344 478 321.5 454.5 Q299 431 269.5 418.5 Q240 406 209 406 Z M80 1 Q72 9 72 17 Q72 25 80 35 L637 704 Q644 714 655 714 Q664 714 671 707 Q680 699 680 690 Q680 681 673 673 L114 3 Q107 -7 96 -7 Q87 -7 80 1 Z M218 476 Q250 476 269 506.5 Q288 537 288 580 Q288 611 275.5 630 Q263 649 240 649 Q209 649 189 620 Q169 591 169 546 Q169 515 182 495.5 Q195 476 218 476 Z M511 -10 Q485 -10 462.5 -0.5 Q440 9 423 27 Q406 45 396.5 70.5 Q387 96 387 127 Q387 167 401 200 Q415 233 437.5 256 Q460 279 489 291.5 Q518 304 549 304 Q574 304 597 294.5 Q620 285 636.5 267 Q653 249 663 223.5 Q673 198 673 167 Q673 127 659 94.5 Q645 62 622.5 38.5 Q600 15 570.5 2.5 Q541 -10 511 -10 Z M519 61 Q551 61 570 91 Q589 121 589 164 Q589 196 576 215 Q563 234 540 234 Q509 234 489 205 Q469 176 469 131 Q469 99 482.5 80 Q496 61 519 61 Z " />
<glyph glyph-name="perthousand" unicode="&#x2030;" horiz-adv-x="1059" d="M209 406 Q183 406 161 415.5 Q139 425 122 443 Q105 461 95.5 486 Q86 511 86 542 Q86 582 100 615 Q114 648 136.5 671.5 Q159 695 188 707.5 Q217 720 248 720 Q273 720 295.5 710.5 Q318 701 335 683 Q352 665 361.5 639.5 Q371 614 371 583 Q371 543 357.5 510.5 Q344 478 321.5 454.5 Q299 431 269.5 418.5 Q240 406 209 406 Z M80 1 Q72 9 72 17 Q72 25 80 35 L637 704 Q644 714 655 714 Q664 714 671 707 Q680 699 680 690 Q680 681 673 673 L114 3 Q107 -7 96 -7 Q87 -7 80 1 Z M218 476 Q250 476 269 506.5 Q288 537 288 580 Q288 611 275.5 630 Q263 649 240 649 Q209 649 189 620 Q169 591 169 546 Q169 515 182 495.5 Q195 476 218 476 Z M511 -10 Q485 -10 462.5 -0.5 Q440 9 423 27 Q406 45 396.5 70.5 Q387 96 387 127 Q387 167 401 200 Q415 233 437.5 256 Q460 279 489 291.5 Q518 304 549 304 Q574 304 597 294.5 Q620 285 636.5 267 Q653 249 663 223.5 Q673 198 673 167 Q673 127 659 94.5 Q645 62 622.5 38.5 Q600 15 570.5 2.5 Q541 -10 511 -10 Z M840 -10 Q814 -10 791.5 -0.5 Q769 9 752 27 Q735 45 725.5 70.5 Q716 96 716 127 Q716 167 730 200 Q744 233 766.5 256 Q789 279 818.5 291.5 Q848 304 879 304 Q904 304 926.5 294.5 Q949 285 965.5 267 Q982 249 991.5 223.5 Q1001 198 1001 167 Q1001 127 987.5 94.5 Q974 62 951.5 38.5 Q929 15 900 2.5 Q871 -10 840 -10 Z M519 61 Q551 61 570 91 Q589 121 589 164 Q589 196 576 215 Q563 234 540 234 Q509 234 489 205 Q469 176 469 131 Q469 99 482.5 80 Q496 61 519 61 Z M848 61 Q880 61 899 91 Q918 121 918 164 Q918 196 905 215 Q892 234 869 234 Q839 234 819 205 Q799 176 799 131 Q799 99 812 80 Q825 61 848 61 Z " />
<glyph glyph-name="lozenge" unicode="&#x25ca;" horiz-adv-x="585" d="M294 -49 Q268 -49 245 -7 L70 302 Q55 327 55 351 Q55 374 70 400 L241 701 Q264 742 296 742 Q314 742 325.5 731 Q337 720 347 702 L515 400 Q530 374 530 351 Q530 327 515 302 L343 -6 Q332 -27 320.5 -38 Q309 -49 294 -49 Z M442 351 L294 618 L142 351 L294 84 L442 351 Z " />
<glyph glyph-name="apple" unicode="&#xf8ff;" horiz-adv-x="999" d="M499 -140 Q430 -140 366.5 -122 Q303 -104 247.5 -71.5 Q192 -39 146.5 6.5 Q101 52 68.5 107.5 Q36 163 18 227 Q0 291 0 360 Q0 463 39.5 554 Q79 645 146.5 712.5 Q214 780 305 819.5 Q396 859 499 859 Q602 859 693 819.5 Q784 780 852 712.5 Q920 645 959.5 554 Q999 463 999 360 Q999 256 959.5 165 Q920 74 852 6.5 Q784 -61 693 -100.5 Q602 -140 499 -140 Z M499 109 Q585 109 671.5 112 Q758 115 840 124 Q864 126 876.5 134.5 Q889 143 892 168 Q896 216 896.5 263.5 Q897 311 897 360 Q897 408 896.5 455.5 Q896 503 892 551 Q889 576 876.5 584.5 Q864 593 840 595 Q758 604 671.5 607 Q585 610 499 610 Q413 610 326.5 607 Q240 604 157 595 Q134 593 121.5 584.5 Q109 576 106 551 Q101 503 100.5 455.5 Q100 408 100 360 Q100 311 100.5 263.5 Q101 216 106 168 Q109 143 121.5 134.5 Q134 126 157 124 Q240 115 326.5 112 Q413 109 499 109 Z M499 157 Q456 157 419 173 Q382 189 355 217 Q328 245 312.5 281.5 Q297 318 297 360 Q297 401 312.5 438 Q328 475 355 502.5 Q382 530 419 546 Q456 562 499 562 Q542 562 579 546 Q616 530 643 502.5 Q670 475 685.5 438 Q701 401 701 360 Q701 318 685.5 281.5 Q670 245 643 217 Q616 189 579 173 Q542 157 499 157 Z " />
<glyph glyph-name="at" unicode="&#x40;" horiz-adv-x="892" d="M431 -166 Q344 -166 272.5 -137 Q201 -108 149.5 -57 Q98 -6 69.5 63 Q41 132 41 212 Q41 302 78 380 Q115 458 177 515 Q239 572 321.5 605 Q404 638 496 638 Q575 638 641 613 Q707 588 754.5 544 Q802 500 828 439.5 Q854 379 854 308 Q854 250 838.5 200.5 Q823 151 795 114.5 Q767 78 729 57.5 Q691 37 646 37 Q598 37 569 58.5 Q540 80 534 117 Q508 79 469.5 60.5 Q431 42 390 42 Q358 42 329.5 55 Q301 68 279.5 91 Q258 114 245.5 147 Q233 180 233 219 Q233 267 251 307.5 Q269 348 298 377 Q327 406 364 422.5 Q401 439 439 439 Q480 439 511 421 Q542 403 559 366 L561 383 Q566 408 580.5 419.5 Q595 431 617 431 Q642 431 652.5 416 Q663 401 663 380 Q663 378 662.5 375 Q662 372 662 369 L636 157 Q635 152 635 142 Q635 123 644.5 112 Q654 101 677 101 Q701 101 722.5 116.5 Q744 132 760 159 Q776 186 785.5 223 Q795 260 795 303 Q795 364 773 415.5 Q751 467 710.5 504.5 Q670 542 614 563 Q558 584 489 584 Q409 584 338.5 555 Q268 526 215 476 Q162 426 131 358.5 Q100 291 100 215 Q100 148 124 89 Q148 30 192.5 -14.5 Q237 -59 299 -84.5 Q361 -110 437 -110 Q491 -110 531.5 -102 Q572 -94 600.5 -85 Q629 -76 647 -68 Q665 -60 674 -60 Q686 -60 692.5 -66.5 Q699 -73 699 -82 Q699 -90 695 -96.5 Q691 -103 682 -108 Q652 -125 618.5 -136 Q585 -147 552 -153.5 Q519 -160 487.5 -163 Q456 -166 431 -166 Z M429 129 Q453 129 474.5 138 Q496 147 512 164 Q528 181 537 204 Q546 227 546 256 Q546 302 520.5 326 Q495 350 458 350 Q435 350 414 341 Q393 332 376.5 316 Q360 300 350.5 277 Q341 254 341 226 Q341 181 367.5 155 Q394 129 429 129 Z " />
<glyph glyph-name="ampersand" unicode="&#x26;" horiz-adv-x="704" d="M574 95 Q596 67 596 46 Q596 20 577.5 5.5 Q559 -9 535 -9 Q515 -9 502 0.5 Q489 10 477 29 L460 52 Q415 23 365 6.5 Q315 -10 262 -10 Q213 -10 171 1.5 Q129 13 98.5 36 Q68 59 50.5 92.5 Q33 126 33 171 Q33 241 80 295 Q127 349 208 380 Q188 409 173 442 Q158 475 158 516 Q158 561 177 598.5 Q196 636 228.5 663 Q261 690 302.5 705 Q344 720 389 720 Q424 720 452.5 716 Q481 712 502 701 Q520 693 530.5 679.5 Q541 666 541 646 Q541 623 526 610 Q511 597 495 597 Q481 597 458.5 604 Q436 611 410 611 Q364 611 331 584 Q298 557 298 509 Q298 472 317.5 436 Q337 400 372 355 L483 215 Q502 245 514 280.5 Q526 316 531 355 Q534 377 547.5 393 Q561 409 587 409 Q612 409 625 394.5 Q638 380 638 356 Q638 294 614 235.5 Q590 177 548 129 L574 95 Z M172 190 Q172 148 203 122.5 Q234 97 285 97 Q347 97 400 130 L264 308 Q172 265 172 190 Z " />
<glyph glyph-name="paragraph" unicode="&#xb6;" horiz-adv-x="586" d="M223 -181 Q212 -181 206 -174.5 Q200 -168 200 -157 Q200 -147 206 -136 Q236 -85 254 -36 Q272 13 278 56 L306 252 L286 252 Q237 252 195.5 266 Q154 280 123.5 306 Q93 332 76 369 Q59 406 59 453 Q59 512 82.5 559.5 Q106 607 146 640.5 Q186 674 238.5 692 Q291 710 350 710 L401 710 Q439 710 434 672 L347 56 Q339 2 317.5 -52.5 Q296 -107 264 -154 Q246 -181 223 -181 Z M491 678 Q496 710 529 710 Q564 710 559 672 L495 215 Q486 153 461.5 102 Q437 51 399 23 L491 678 Z " />
<glyph glyph-name="section" unicode="&#xa7;" horiz-adv-x="568" d="M169 -191 Q137 -191 100 -185.5 Q63 -180 28 -168 Q2 -160 -11 -142 Q-24 -124 -24 -101 Q-24 -78 -13.5 -64.5 Q-3 -51 16 -51 Q34 -51 61 -60 Q122 -79 194 -79 Q240 -79 278.5 -68.5 Q317 -58 348 -39 L136 319 Q110 362 94.5 400 Q79 438 79 484 Q79 542 102.5 591.5 Q126 641 168 677.5 Q210 714 266.5 735 Q323 756 389 756 Q418 756 449.5 752 Q481 748 511 741 Q540 735 553.5 718 Q567 701 567 677 Q567 648 554 635.5 Q541 623 515 623 Q499 623 484 627 Q448 635 412 639 Q376 643 350 643 Q299 643 255 621 L457 277 Q484 233 497.5 194.5 Q511 156 511 117 Q511 56 486.5 0 Q462 -56 417.5 -98.5 Q373 -141 310 -166 Q247 -191 169 -191 Z M393 -11 Q451 41 451 118 Q451 147 441 178.5 Q431 210 412 242 L207 596 Q177 573 159 542 Q141 511 141 471 Q141 439 154 409 Q167 379 188 343 L393 -11 Z " />
<glyph glyph-name="copyright" unicode="&#xa9;" horiz-adv-x="811" d="M381 -10 Q309 -10 248.5 14 Q188 38 143.5 81.5 Q99 125 74.5 185.5 Q50 246 50 318 Q50 406 84 480 Q118 554 174.5 607 Q231 660 305 690 Q379 720 459 720 Q530 720 590.5 695.5 Q651 671 695.5 627 Q740 583 765 521.5 Q790 460 790 386 Q790 299 756.5 226.5 Q723 154 667 101.5 Q611 49 536.5 19.5 Q462 -10 381 -10 Z M386 21 Q459 21 526.5 47.5 Q594 74 645.5 122 Q697 170 727.5 237 Q758 304 758 385 Q758 453 735.5 509.5 Q713 566 672.5 606 Q632 646 576.5 668 Q521 690 455 690 Q381 690 314 663 Q247 636 195 587 Q143 538 112.5 470 Q82 402 82 321 Q82 254 105 199 Q128 144 168.5 104.5 Q209 65 264.5 43 Q320 21 386 21 Z M397 147 Q362 147 331 159.5 Q300 172 277 196 Q254 220 240.5 253.5 Q227 287 227 329 Q227 383 246.5 426 Q266 469 298 499.5 Q330 530 370.5 546 Q411 562 454 562 Q481 562 505.5 555.5 Q530 549 547 539 Q571 523 571 496 Q571 481 563 473.5 Q555 466 544 466 Q539 466 530.5 470 Q522 474 510 478.5 Q498 483 483.5 487 Q469 491 453 491 Q426 491 400 480 Q374 469 354 449 Q334 429 321.5 400.5 Q309 372 309 338 Q309 311 317.5 289 Q326 267 341 251.5 Q356 236 376 228 Q396 220 418 220 Q437 220 452.5 224.5 Q468 229 481 234 Q495 239 503.5 243.5 Q512 248 517 248 Q541 248 541 222 Q541 204 530 193 Q519 182 507 175 Q489 164 460 155.5 Q431 147 397 147 Z " />
<glyph glyph-name="registered" unicode="&#xae;" horiz-adv-x="444" d="M234 334 Q197 334 166.5 346.5 Q136 359 114 381 Q92 403 80 434 Q68 465 68 503 Q68 551 85 591 Q102 631 131 659.5 Q160 688 198.5 704 Q237 720 281 720 Q317 720 347.5 707.5 Q378 695 400 672.5 Q422 650 434.5 619 Q447 588 447 550 Q447 502 430.5 462.5 Q414 423 385 394.5 Q356 366 317 350 Q278 334 234 334 Z M236 359 Q274 359 308 373 Q342 387 367 412 Q392 437 406.5 472 Q421 507 421 549 Q421 616 381.5 655.5 Q342 695 278 695 Q240 695 206.5 681.5 Q173 668 148 643 Q123 618 108.5 583 Q94 548 94 506 Q94 439 133.5 399 Q173 359 236 359 Z M203 435 Q186 435 187 455 L207 621 Q208 633 221 633 L272 633 Q301 633 318.5 619 Q336 605 336 582 Q336 559 321 543 Q306 527 281 522 L326 456 Q329 451 329 448 Q329 435 311 435 Q303 435 297 438 Q291 441 286 449 L242 518 L232 518 L224 453 Q221 435 203 435 Z M256 542 Q276 542 287 551 Q298 560 298 577 Q298 589 289.5 596.5 Q281 604 264 604 L242 604 L234 542 L256 542 Z " />
<glyph glyph-name="trademark" unicode="&#x2122;" horiz-adv-x="820" d="M179 350 Q138 350 138 393 Q138 395 138.5 397.5 Q139 400 139 403 L168 638 L112 638 Q94 638 84.5 646 Q75 654 75 668 Q75 710 116 710 L324 710 Q344 710 354 700.5 Q364 691 361 674 Q356 638 320 638 L260 638 L230 397 Q224 350 179 350 Z M366 350 Q335 350 335 382 Q335 387 336 393 Q337 399 339 405 L421 667 Q434 710 480 710 Q527 710 536 664 L577 476 L664 670 Q681 710 725 710 Q768 710 771 660 L790 401 Q793 350 748 350 Q702 350 702 398 L696 588 L603 387 Q590 359 561 359 Q530 359 523 392 L477 582 L420 391 Q408 350 366 350 Z " />
<glyph glyph-name="degree" unicode="&#xb0;" horiz-adv-x="408" d="M227 429 Q198 429 173.5 439 Q149 449 131 466 Q113 483 102.5 507 Q92 531 92 560 Q92 595 106 624.5 Q120 654 143.5 675 Q167 696 197.5 708 Q228 720 262 720 Q291 720 316 710.5 Q341 701 359 684 Q377 667 387.5 643 Q398 619 398 591 Q398 556 384 526.5 Q370 497 346 475 Q322 453 291 441 Q260 429 227 429 Z M236 504 Q267 504 288 527 Q309 550 309 584 Q309 611 294 628 Q279 645 254 645 Q223 645 201 623 Q179 601 179 566 Q179 539 194.5 521.5 Q210 504 236 504 Z " />
<glyph glyph-name="bar" unicode="&#x7c;" horiz-adv-x="180" d="M31 -200 Q12 -200 4 -188 Q-4 -176 -4 -156 Q-4 -152 -4 -148 Q-4 -144 -3 -139 L118 781 Q126 840 169 840 Q189 840 197 828 Q205 816 205 795 Q205 785 204 780 L81 -141 Q73 -200 31 -200 Z " />
<glyph glyph-name="brokenbar" unicode="&#xa6;" horiz-adv-x="180" d="M111 411 Q92 411 84 423 Q76 435 76 455 Q76 459 76 463 Q76 467 77 472 L118 784 Q122 810 134.5 825 Q147 840 170 840 Q205 840 205 800 Q205 796 205 792 Q205 788 204 783 L161 470 Q153 411 111 411 Z M31 -200 Q11 -200 3 -187.5 Q-5 -175 -5 -154 Q-5 -144 -4 -139 L37 158 Q46 225 90 225 Q108 225 116.5 212.5 Q125 200 125 180 Q125 175 124.5 169.5 Q124 164 123 158 L81 -141 Q73 -200 31 -200 Z " />
<glyph glyph-name="dagger" unicode="&#x2020;" horiz-adv-x="380" d="M343 608 Q364 608 376.5 597.5 Q389 587 389 568 Q389 545 373.5 532.5 Q358 520 333 520 Q319 520 304.5 521 Q290 522 276 524 L252 323 Q248 291 232 274.5 Q216 258 190 258 Q147 258 147 309 Q147 313 147 316.5 Q147 320 148 325 L172 523 Q145 520 119 520 Q70 520 70 562 Q70 582 86 595 Q102 608 127 608 Q141 607 154.5 606.5 Q168 606 182 604 L188 657 Q191 689 207.5 704.5 Q224 720 247 720 Q271 720 283.5 705 Q296 690 293 661 L286 604 Q300 606 314.5 607 Q329 608 343 608 Z " />
<glyph glyph-name="daggerdbl" unicode="&#x2021;" horiz-adv-x="380" d="M336 534 Q322 534 307.5 535 Q293 536 279 538 L267 442 Q281 444 295.5 445 Q310 446 324 446 Q345 446 357.5 435.5 Q370 425 370 406 Q370 383 354.5 370.5 Q339 358 314 358 Q300 358 286 359 Q272 360 258 362 L253 323 Q249 291 233 274.5 Q217 258 191 258 Q148 258 148 309 Q148 313 148 316.5 Q148 320 149 325 L153 362 Q140 360 127 359 Q114 358 100 358 Q51 358 51 400 Q51 420 67 433 Q83 446 108 446 Q122 446 135.5 445 Q149 444 163 442 L175 538 Q161 536 147.5 535 Q134 534 120 534 Q71 534 71 576 Q71 597 87 609.5 Q103 622 128 622 Q142 622 156 621 Q170 620 184 618 L189 657 Q192 688 208 704 Q224 720 248 720 Q272 720 284.5 705 Q297 690 294 661 L289 618 Q303 620 316.5 621 Q330 622 344 622 Q365 622 377.5 612 Q390 602 390 582 Q390 560 374.5 547 Q359 534 336 534 Z " />
<glyph glyph-name="asciicircum" unicode="&#x5e;" horiz-adv-x="600" d="M443 273 Q432 273 420.5 279.5 Q409 286 399 300 L321 407 L213 292 Q202 281 192 276.5 Q182 272 172 272 Q158 272 148 281 Q138 290 138 304 Q138 317 150 334 L240 443 Q260 468 281 480 Q302 492 330 492 Q359 492 378.5 477 Q398 462 415 434 L472 339 Q476 331 478.5 324 Q481 317 481 310 Q481 293 469.5 283 Q458 273 443 273 Z " />
<glyph glyph-name="dieresiscomb" unicode="&#x308;" d="M-39 606 Q-63 606 -77 621.5 Q-91 637 -91 659 Q-91 686 -72 705.5 Q-53 725 -25 725 Q-2 725 12 709.5 Q26 694 26 671 Q26 645 7 625.5 Q-12 606 -39 606 Z M132 606 Q108 606 94 621.5 Q80 637 80 659 Q80 686 99 705.5 Q118 725 146 725 Q169 725 183 709.5 Q197 694 197 671 Q197 645 178 625.5 Q159 606 132 606 Z " />
<glyph glyph-name="dotaccentcomb" unicode="&#x307;" d="M46 598 Q17 598 0 617 Q-17 636 -17 663 Q-17 697 6 721 Q29 745 64 745 Q93 745 109.5 725.5 Q126 706 126 678 Q126 662 119.5 647.5 Q113 633 102.5 622 Q92 611 77 604.5 Q62 598 46 598 Z " />
<glyph glyph-name="gravecomb" unicode="&#x300;" d="M-230 528 Q-245 528 -255.5 534.5 Q-266 541 -280 555 L-353 635 Q-367 649 -378 663.5 Q-389 678 -389 698 Q-389 721 -372 738 Q-355 755 -330 755 Q-310 755 -296 744.5 Q-282 734 -269 711 L-197 585 Q-191 574 -191 564 Q-191 548 -202.5 538 Q-214 528 -230 528 Z " />
<glyph glyph-name="acutecomb" unicode="&#x301;" d="M38 528 Q22 528 10.5 538 Q-1 548 -1 564 Q-1 574 5 585 L77 711 Q90 734 104 744.5 Q118 755 138 755 Q163 755 180 738 Q197 721 197 698 Q197 678 186 663.5 Q175 649 161 635 L88 555 Q74 541 63.5 534.5 Q53 528 38 528 Z " />
<glyph glyph-name="hungarumlautcomb" unicode="&#x30b;" d="M-99 540 Q-115 540 -126.5 550 Q-138 560 -138 576 Q-138 586 -132 597 L-60 723 Q-47 746 -33 756.5 Q-19 767 1 767 Q26 767 43 750 Q60 733 60 710 Q60 690 49 675.5 Q38 661 24 647 L-49 567 Q-63 553 -73.5 546.5 Q-84 540 -99 540 Z M80 540 Q64 540 52.5 550 Q41 560 41 576 Q41 586 47 597 L119 723 Q132 746 146 756.5 Q160 767 180 767 Q205 767 222 750 Q239 733 239 710 Q239 690 228 675.5 Q217 661 203 647 L130 567 Q116 553 105.5 546.5 Q95 540 80 540 Z " />
<glyph glyph-name="circumflexcomb" unicode="&#x302;" d="M-67 566 Q-80 566 -89 573.5 Q-98 581 -98 593 Q-98 603 -92.5 613 Q-87 623 -78 636 L-20 710 Q0 735 18.5 746.5 Q37 758 63 758 Q86 758 101.5 747 Q117 736 129 714 L167 641 Q173 630 178 618.5 Q183 607 183 599 Q183 585 172 575.5 Q161 566 147 566 Q130 566 118.5 574 Q107 582 96 599 L54 669 L-5 599 Q-19 582 -35 574 Q-51 566 -67 566 Z " />
<glyph glyph-name="caroncomb" unicode="&#x30c;" d="M37 545 Q13 545 -2.5 555 Q-18 565 -32 587 L-68 647 Q-78 661 -83 671.5 Q-88 682 -88 693 Q-88 708 -77 719 Q-66 730 -49 730 Q-37 730 -27.5 723.5 Q-18 717 -8 704 L45 635 L102 698 Q119 717 131.5 723.5 Q144 730 158 730 Q171 730 179.5 721.5 Q188 713 188 702 Q188 693 182.5 681.5 Q177 670 160 649 L112 587 Q95 567 77.5 556 Q60 545 37 545 Z " />
<glyph glyph-name="brevecomb" unicode="&#x306;" d="M42 573 Q13 573 -10 582 Q-33 591 -49.5 606 Q-66 621 -76 641 Q-86 661 -87 683 Q-88 700 -79 710 Q-70 720 -55 720 Q-43 720 -36 713.5 Q-29 707 -24 693 Q-14 665 2.5 652.5 Q19 640 48 640 Q77 640 97 654 Q117 668 128 692 Q141 720 163 720 Q191 720 191 691 Q191 672 180 651 Q169 630 149 613 Q129 596 101.5 584.5 Q74 573 42 573 Z " />
<glyph glyph-name="ringcomb" unicode="&#x30a;" d="M37 545 Q-4 545 -32 571 Q-60 597 -60 639 Q-60 664 -49.5 684.5 Q-39 705 -22 720 Q-5 735 17.5 743 Q40 751 63 751 Q82 751 100 744 Q118 737 131.5 725 Q145 713 153 696 Q161 679 161 659 Q161 635 150 614 Q139 593 121.5 577.5 Q104 562 82 553.5 Q60 545 37 545 Z M44 598 Q66 598 81.5 614.5 Q97 631 97 654 Q97 673 86 685 Q75 697 56 697 Q33 697 17.5 681.5 Q2 666 2 643 Q2 623 13.5 610.5 Q25 598 44 598 Z " />
<glyph glyph-name="tildecomb" unicode="&#x303;" d="M128 561 Q106 561 88 569 Q70 577 53.5 587 Q37 597 21 605 Q5 613 -12 613 Q-36 613 -52 589 Q-60 577 -69.5 569.5 Q-79 562 -93 562 Q-109 562 -119 572 Q-129 582 -127 600 Q-126 618 -117.5 637 Q-109 656 -94.5 672 Q-80 688 -60.5 698.5 Q-41 709 -17 709 Q4 709 24 700.5 Q44 692 62 682.5 Q80 673 95.5 664.5 Q111 656 125 656 Q139 656 146.5 662.5 Q154 669 159 679 Q167 693 175 701.5 Q183 710 199 710 Q217 710 226.5 698 Q236 686 235 670 Q234 651 225.5 631.5 Q217 612 203 596.5 Q189 581 170 571 Q151 561 128 561 Z " />
<glyph glyph-name="macroncomb" unicode="&#x304;" d="M-58 609 Q-81 609 -93 620 Q-105 631 -105 650 Q-105 670 -90.5 681 Q-76 692 -52 692 L162 692 Q182 692 195 682 Q208 672 208 653 Q208 633 194 621 Q180 609 158 609 L-58 609 L-58 609 Z " />
<glyph glyph-name="cedillacomb" unicode="&#x327;" d="M-14 -37 Q18 -39 39.5 -55.5 Q61 -72 61 -101 Q61 -122 51.5 -138.5 Q42 -155 26 -167 Q10 -179 -10.5 -185 Q-31 -191 -53 -191 Q-72 -191 -89.5 -187.5 Q-107 -184 -117 -177 Q-133 -165 -133 -149 Q-133 -140 -127 -132 Q-121 -124 -111 -124 Q-105 -124 -89.5 -129 Q-74 -134 -60 -134 Q-43 -134 -32 -126.5 Q-21 -119 -21 -105 Q-21 -92 -31 -85.5 Q-41 -79 -53 -79 Q-64 -79 -71.5 -81 Q-79 -83 -83 -83 Q-90 -83 -90 -77 Q-90 -71 -82 -59 L-34 23 L22 23 L-14 -37 L-14 -37 Z " />
<glyph glyph-name="ogonekcomb" unicode="&#x328;" d="M-324 -192 Q-368 -192 -393 -171 Q-418 -150 -418 -115 Q-418 -79 -382 -40.5 Q-346 -2 -264 30 L-240 0 Q-266 -21 -282 -35 Q-298 -49 -306.5 -59.5 Q-315 -70 -318 -78 Q-321 -86 -321 -93 Q-321 -106 -313.5 -112 Q-306 -118 -297 -118 Q-289 -118 -282.5 -117 Q-276 -116 -269 -116 Q-261 -116 -254 -122 Q-247 -128 -247 -139 Q-247 -162 -266.5 -177 Q-286 -192 -324 -192 Z " />
<glyph glyph-name="slashshortcomb" unicode="&#x337;" d="M-426 -55 Q-437 -55 -443.5 -48 Q-450 -41 -450 -30 Q-450 -14 -437 3 L-71 495 Q-58 512 -47 520.5 Q-36 529 -22 529 Q-9 529 -1.5 521 Q6 513 6 502 Q6 488 -4 477 L-365 -10 Q-381 -30 -393.5 -42.5 Q-406 -55 -426 -55 Z " />
<glyph glyph-name="slashlongcomb" unicode="&#x338;" d="M-550 -41 Q-559 -41 -565 -35 Q-571 -29 -571 -21 Q-571 -11 -562 1 L-6 718 Q4 730 11 735.5 Q18 741 29 741 Q40 741 47 735 Q54 729 54 720 Q54 711 47 703 L-512 -16 Q-521 -28 -530 -34.5 Q-539 -41 -550 -41 Z " />
<glyph glyph-name="acute" unicode="&#xb4;" horiz-adv-x="500" d="M238 528 Q222 528 210.5 538 Q199 548 199 564 Q199 574 205 585 L277 711 Q290 734 304 744.5 Q318 755 338 755 Q363 755 380 738 Q397 721 397 698 Q397 678 386 663.5 Q375 649 361 635 L288 555 Q274 541 263.5 534.5 Q253 528 238 528 Z " />
<glyph glyph-name="breve" unicode="&#x2d8;" horiz-adv-x="500" d="M295 573 Q266 573 243 582 Q220 591 203.5 606 Q187 621 177 641 Q167 661 166 683 Q165 700 174 710 Q183 720 198 720 Q210 720 217 713.5 Q224 707 229 693 Q239 665 255.5 652.5 Q272 640 301 640 Q330 640 350 654 Q370 668 381 692 Q394 720 416 720 Q444 720 444 691 Q444 672 433 651 Q422 630 402 613 Q382 596 354.5 584.5 Q327 573 295 573 Z " />
<glyph glyph-name="caron" unicode="&#x2c7;" horiz-adv-x="500" d="M293 545 Q269 545 253.5 555 Q238 565 224 587 L188 647 Q178 661 173 671.5 Q168 682 168 693 Q168 708 179 719 Q190 730 207 730 Q219 730 228.5 723.5 Q238 717 248 704 L301 635 L358 698 Q375 717 387.5 723.5 Q400 730 414 730 Q427 730 435.5 721.5 Q444 713 444 702 Q444 693 438.5 681.5 Q433 670 416 649 L368 587 Q351 567 333.5 556 Q316 545 293 545 Z " />
<glyph glyph-name="cedilla" unicode="&#xb8;" horiz-adv-x="500" d="M227 -37 Q259 -39 280.5 -55.5 Q302 -72 302 -101 Q302 -122 292.5 -138.5 Q283 -155 267 -167 Q251 -179 230.5 -185 Q210 -191 188 -191 Q169 -191 151.5 -187.5 Q134 -184 124 -177 Q108 -165 108 -149 Q108 -140 114 -132 Q120 -124 130 -124 Q136 -124 151.5 -129 Q167 -134 181 -134 Q198 -134 209 -126.5 Q220 -119 220 -105 Q220 -92 210 -85.5 Q200 -79 188 -79 Q177 -79 169.5 -81 Q162 -83 158 -83 Q151 -83 151 -77 Q151 -71 159 -59 L207 23 L263 23 L227 -37 L227 -37 Z " />
<glyph glyph-name="circumflex" unicode="&#x2c6;" horiz-adv-x="500" d="M184 566 Q171 566 162 573.5 Q153 581 153 593 Q153 603 158.5 613 Q164 623 173 636 L231 710 Q251 735 269.5 746.5 Q288 758 314 758 Q337 758 352.5 747 Q368 736 380 714 L418 641 Q424 630 429 618.5 Q434 607 434 599 Q434 585 423 575.5 Q412 566 398 566 Q381 566 369.5 574 Q358 582 347 599 L305 669 L246 599 Q232 582 216 574 Q200 566 184 566 Z " />
<glyph glyph-name="dieresis" unicode="&#xa8;" horiz-adv-x="500" d="M210 606 Q186 606 172 621.5 Q158 637 158 659 Q158 686 177 705.5 Q196 725 224 725 Q247 725 261 709.5 Q275 694 275 671 Q275 645 256 625.5 Q237 606 210 606 Z M381 606 Q357 606 343 621.5 Q329 637 329 659 Q329 686 348 705.5 Q367 725 395 725 Q418 725 432 709.5 Q446 694 446 671 Q446 645 427 625.5 Q408 606 381 606 Z " />
<glyph glyph-name="dotaccent" unicode="&#x2d9;" horiz-adv-x="500" d="M294 598 Q265 598 248 617 Q231 636 231 663 Q231 697 254 721 Q277 745 312 745 Q341 745 357.5 725.5 Q374 706 374 678 Q374 662 367.5 647.5 Q361 633 350.5 622 Q340 611 325 604.5 Q310 598 294 598 Z " />
<glyph glyph-name="grave" unicode="&#x60;" horiz-adv-x="500" d="M358 528 Q343 528 332.5 534.5 Q322 541 308 555 L235 635 Q221 649 210 663.5 Q199 678 199 698 Q199 721 216 738 Q233 755 258 755 Q278 755 292 744.5 Q306 734 319 711 L391 585 Q397 574 397 564 Q397 548 385.5 538 Q374 528 358 528 Z " />
<glyph glyph-name="hungarumlaut" unicode="&#x2dd;" horiz-adv-x="500" d="M151 548 Q135 548 123.5 558 Q112 568 112 584 Q112 594 118 605 L190 731 Q203 754 217 764.5 Q231 775 251 775 Q276 775 293 758 Q310 741 310 718 Q310 698 299 683.5 Q288 669 274 655 L201 575 Q187 561 176.5 554.5 Q166 548 151 548 Z M330 548 Q314 548 302.5 558 Q291 568 291 584 Q291 594 297 605 L369 731 Q382 754 396 764.5 Q410 775 430 775 Q455 775 472 758 Q489 741 489 718 Q489 698 478 683.5 Q467 669 453 655 L380 575 Q366 561 355.5 554.5 Q345 548 330 548 Z " />
<glyph glyph-name="macron" unicode="&#xaf;" horiz-adv-x="500" d="M191 609 Q168 609 156 620 Q144 631 144 650 Q144 670 158.5 681 Q173 692 197 692 L411 692 Q431 692 444 682 Q457 672 457 653 Q457 633 443 621 Q429 609 407 609 L191 609 L191 609 Z " />
<glyph glyph-name="ogonek" unicode="&#x2db;" horiz-adv-x="500" d="M213 -192 Q169 -192 144 -171 Q119 -150 119 -115 Q119 -79 155 -40.5 Q191 -2 273 30 L297 0 Q271 -21 255 -35 Q239 -49 230.5 -59.5 Q222 -70 219 -78 Q216 -86 216 -93 Q216 -106 223.5 -112 Q231 -118 240 -118 Q248 -118 254.5 -117 Q261 -116 268 -116 Q276 -116 283 -122 Q290 -128 290 -139 Q290 -162 270.5 -177 Q251 -192 213 -192 Z " />
<glyph glyph-name="ring" unicode="&#x2da;" horiz-adv-x="500" d="M287 545 Q246 545 218 571 Q190 597 190 639 Q190 664 200.5 684.5 Q211 705 228 720 Q245 735 267.5 743 Q290 751 313 751 Q332 751 350 744 Q368 737 381.5 725 Q395 713 403 696 Q411 679 411 659 Q411 635 400 614 Q389 593 371.5 577.5 Q354 562 332 553.5 Q310 545 287 545 Z M294 598 Q316 598 331.5 614.5 Q347 631 347 654 Q347 673 336 685 Q325 697 306 697 Q283 697 267.5 681.5 Q252 666 252 643 Q252 623 263.5 610.5 Q275 598 294 598 Z " />
<glyph glyph-name="tilde" unicode="&#x2dc;" horiz-adv-x="500" d="M374 571 Q352 571 334 579 Q316 587 299.5 597 Q283 607 267 615 Q251 623 234 623 Q210 623 194 599 Q186 587 176.5 579.5 Q167 572 153 572 Q137 572 127 582 Q117 592 119 610 Q120 628 128.5 647 Q137 666 151.5 682 Q166 698 185.5 708.5 Q205 719 229 719 Q250 719 270 710.5 Q290 702 308 692.5 Q326 683 341.5 674.5 Q357 666 371 666 Q385 666 392.5 672.5 Q400 679 405 689 Q413 703 421 711.5 Q429 720 445 720 Q463 720 472.5 708 Q482 696 481 680 Q480 661 471.5 641.5 Q463 622 449 606.5 Q435 591 416 581 Q397 571 374 571 Z " />
<glyph glyph-name="A" unicode="A" horiz-adv-x="672" d="M627 86 Q630 71 630 59 Q630 26 608.5 8 Q587 -10 553 -10 Q522 -10 504.5 4.5 Q487 19 480 53 L456 155 L195 155 Q178 118 165 91.5 Q152 65 146 53 Q132 20 112 5 Q92 -10 60 -10 Q31 -10 15 5.5 Q-1 21 -1 45 Q-1 64 9 84 L304 660 Q319 690 339.5 703.5 Q360 717 393 717 Q456 717 473 650 L627 86 Z M431 261 Q422 297 413.5 334 Q405 371 397 406.5 Q389 442 382.5 473.5 Q376 505 371 530 Q360 505 345.5 473.5 Q331 442 314.5 406.5 Q298 371 280.5 334 Q263 297 246 261 L431 261 Z " />
<glyph glyph-name="Aacute" unicode="&#xc1;" horiz-adv-x="672" d="M627 86 Q630 71 630 59 Q630 26 608.5 8 Q587 -10 553 -10 Q522 -10 504.5 4.5 Q487 19 480 53 L456 155 L195 155 Q178 118 165 91.5 Q152 65 146 53 Q132 20 112 5 Q92 -10 60 -10 Q31 -10 15 5.5 Q-1 21 -1 45 Q-1 64 9 84 L304 660 Q319 690 339.5 703.5 Q360 717 393 717 Q456 717 473 650 L627 86 Z M431 261 Q422 297 413.5 334 Q405 371 397 406.5 Q389 442 382.5 473.5 Q376 505 371 530 Q360 505 345.5 473.5 Q331 442 314.5 406.5 Q298 371 280.5 334 Q263 297 246 261 L431 261 Z M365 760 Q333 760 333 779 Q333 786 339 796.5 Q345 807 355 826 L374 863 Q393 894 419 905 Q445 916 487 916 L499 916 Q540 916 554.5 908 Q569 900 569 889 Q569 877 556 866.5 Q543 856 521 842 L437 785 Q416 771 399 765.5 Q382 760 365 760 Z " />
</font>
</svg>
