<?xml version="1.0" encoding="UTF-8"?>
<svg xmlns="http://www.w3.org/2000/svg" xmlns:xlink="http://www.w3.org/1999/xlink" version="1.2" >
<font id="GlobotipoRounded-LightItalic">
<font-face  font-family="Globotipo Rounded" units-per-em="1000" ascent="1000" descent="-400" font-style="italic" font-weight="300" font-stretch="normal" slope="-7" cap-height="710" x-height="480" underline-position="-75" underline-thickness="50" />
<missing-glyph  horiz-adv-x="716" d="M373 710 Q446 710 510.5 682 Q575 654 623.5 606 Q672 558 700 493.5 Q728 429 728 356 Q728 282 700 217 Q672 152 623.5 104 Q575 56 510.5 28 Q446 0 373 0 Q299 0 234.5 28 Q170 56 121.5 104 Q73 152 45 217 Q17 282 17 356 Q17 429 45 493.5 Q73 558 121.5 606 Q170 654 234.5 682 Q299 710 373 710 Z M373 20 Q442 20 503 46.5 Q564 73 609 118.5 Q654 164 680.5 225 Q707 286 707 356 Q707 425 680.5 486 Q654 547 609 592 Q564 637 503 663.5 Q442 690 373 690 Q304 690 243 663.5 Q182 637 136.5 592 Q91 547 64.5 486 Q38 425 38 356 Q38 286 64.5 225 Q91 164 136.5 118.5 Q182 73 243 46.5 Q304 20 373 20 Z M592 560 L387 355 L592 149 L578 135 L373 340 L168 135 L154 149 L359 355 L154 560 L168 574 L373 369 L578 574 L592 560 Z " />
<glyph glyph-name=".null" d="" />
<glyph glyph-name="nonmarkingreturn" unicode="&#xd;" horiz-adv-x="216" d="" />
<glyph glyph-name="space" unicode="&#x20;" horiz-adv-x="216" d="" />
<glyph glyph-name="Adieresis" unicode="&#xc4;" horiz-adv-x="603" d="M570 32 Q571 28 571.5 25 Q572 22 572 19 Q572 6 564.5 -0.5 Q557 -7 546 -7 Q535 -7 527.5 -1.5 Q520 4 517 18 L460 230 L143 230 Q125 194 107.5 161 Q90 128 75.5 100.5 Q61 73 49.5 51 Q38 29 31 16 Q20 -5 0 -5 Q-21 -5 -21 15 Q-21 22 -17 30 L334 697 Q343 714 360 714 Q378 714 383 695 L570 32 Z M448 275 Q434 327 419.5 380.5 Q405 434 392 482.5 Q379 531 368.5 571 Q358 611 351 637 Q339 614 319 574.5 Q299 535 274.5 486.5 Q250 438 222 383.5 Q194 329 166 275 L448 275 Z M292 779 Q273 779 262 792 Q251 805 251 823 Q251 845 265.5 860.5 Q280 876 303 876 Q322 876 333 863.5 Q344 851 344 832 Q344 811 329 795 Q314 779 292 779 Z M447 779 Q428 779 416.5 792 Q405 805 405 823 Q405 845 420 860.5 Q435 876 458 876 Q477 876 487.5 863.5 Q498 851 498 832 Q498 811 483.5 795 Q469 779 447 779 Z " />
<glyph glyph-name="Agrave" unicode="&#xc0;" horiz-adv-x="603" d="M570 32 Q571 28 571.5 25 Q572 22 572 19 Q572 6 564.5 -0.5 Q557 -7 546 -7 Q535 -7 527.5 -1.5 Q520 4 517 18 L460 230 L143 230 Q125 194 107.5 161 Q90 128 75.5 100.5 Q61 73 49.5 51 Q38 29 31 16 Q20 -5 0 -5 Q-21 -5 -21 15 Q-21 22 -17 30 L334 697 Q343 714 360 714 Q378 714 383 695 L570 32 Z M448 275 Q434 327 419.5 380.5 Q405 434 392 482.5 Q379 531 368.5 571 Q358 611 351 637 Q339 614 319 574.5 Q299 535 274.5 486.5 Q250 438 222 383.5 Q194 329 166 275 L448 275 Z M415 768 Q407 768 397.5 770.5 Q388 773 377 781 L299 830 Q273 847 261 855 Q249 863 249 871 Q249 878 256 883 Q263 888 280 888 L286 888 Q305 888 324 882 Q343 876 367 850 L410 805 Q427 786 427 778 Q427 768 415 768 Z " />
<glyph glyph-name="Aring" unicode="&#xc5;" horiz-adv-x="603" d="M570 32 Q571 28 571.5 25 Q572 22 572 19 Q572 6 564.5 -0.5 Q557 -7 546 -7 Q535 -7 527.5 -1.5 Q520 4 517 18 L460 230 L143 230 Q125 194 107.5 161 Q90 128 75.5 100.5 Q61 73 49.5 51 Q38 29 31 16 Q20 -5 0 -5 Q-21 -5 -21 15 Q-21 22 -17 30 L334 697 Q343 714 360 714 Q378 714 383 695 L570 32 Z M448 275 Q434 327 419.5 380.5 Q405 434 392 482.5 Q379 531 368.5 571 Q358 611 351 637 Q339 614 319 574.5 Q299 535 274.5 486.5 Q250 438 222 383.5 Q194 329 166 275 L448 275 Z M364 743 Q332 743 310.5 765 Q289 787 289 820 Q289 840 297 857 Q305 874 318 886.5 Q331 899 348.5 906 Q366 913 385 913 Q417 913 438 892.5 Q459 872 459 839 Q459 819 451.5 801.5 Q444 784 431 771 Q418 758 400.5 750.5 Q383 743 364 743 Z M367 769 Q393 769 412 788 Q431 807 431 836 Q431 859 417.5 873.5 Q404 888 381 888 Q355 888 336.5 869.5 Q318 851 318 822 Q318 799 331.5 784 Q345 769 367 769 Z " />
<glyph glyph-name="Atilde" unicode="&#xc3;" horiz-adv-x="603" d="M570 32 Q571 28 571.5 25 Q572 22 572 19 Q572 6 564.5 -0.5 Q557 -7 546 -7 Q535 -7 527.5 -1.5 Q520 4 517 18 L460 230 L143 230 Q125 194 107.5 161 Q90 128 75.5 100.5 Q61 73 49.5 51 Q38 29 31 16 Q20 -5 0 -5 Q-21 -5 -21 15 Q-21 22 -17 30 L334 697 Q343 714 360 714 Q378 714 383 695 L570 32 Z M448 275 Q434 327 419.5 380.5 Q405 434 392 482.5 Q379 531 368.5 571 Q358 611 351 637 Q339 614 319 574.5 Q299 535 274.5 486.5 Q250 438 222 383.5 Q194 329 166 275 L448 275 Z M424 779 Q401 779 386.5 790 Q372 801 359.5 814.5 Q347 828 334.5 839 Q322 850 303 850 Q284 850 274.5 835.5 Q265 821 260 807 Q253 790 239 790 Q232 790 227.5 795.5 Q223 801 225 812 Q227 824 233 838 Q239 852 249.5 864 Q260 876 274 883.5 Q288 891 305 891 Q328 891 343.5 880 Q359 869 372 855.5 Q385 842 397 831 Q409 820 425 820 Q444 820 454.5 832 Q465 844 469 865 Q473 875 476.5 881 Q480 887 489 887 Q498 887 502 881 Q506 875 506 866 Q505 852 499 836.5 Q493 821 482.5 808 Q472 795 457.5 787 Q443 779 424 779 Z " />
<glyph glyph-name="AE" unicode="&#xc6;" horiz-adv-x="756" d="M726 710 Q753 710 753 690 Q753 666 724 666 L499 666 L466 394 L667 394 Q692 394 692 373 Q692 362 684.5 356 Q677 350 665 350 L460 350 L423 44 L648 44 Q675 44 675 23 Q675 13 667.5 6.5 Q660 0 646 0 L402 0 Q386 0 378 8.5 Q370 17 372 33 L394 212 L162 212 L34 15 Q20 -6 1 -6 Q-20 -6 -20 10 Q-20 15 -17 21 Q-14 27 -9 35 L413 680 Q423 696 437 703 Q451 710 474 710 L726 710 Z M448 652 L190 255 L399 255 L448 652 Z " />
<glyph glyph-name="B" unicode="B" horiz-adv-x="529" d="M85 0 Q51 0 56 34 L142 681 Q145 710 175 710 L283 710 Q381 710 436.5 668.5 Q492 627 492 552 Q492 522 481.5 492.5 Q471 463 451 438.5 Q431 414 401.5 396.5 Q372 379 335 372 L335 371 Q407 362 445.5 321 Q484 280 484 220 Q484 172 464 131.5 Q444 91 408 62 Q372 33 321 16.5 Q270 0 209 0 L85 0 Z M259 388 Q298 388 331 399 Q364 410 388 430 Q412 450 426 479.5 Q440 509 440 547 Q440 604 397.5 635 Q355 666 280 666 L190 666 L153 388 L259 388 Z M212 43 Q261 43 301.5 56 Q342 69 370.5 92 Q399 115 415 147 Q431 179 431 217 Q431 276 386.5 310.5 Q342 345 270 345 L147 345 L106 43 L212 43 Z " />
<glyph glyph-name="C" unicode="C" horiz-adv-x="656" d="M375 -11 Q306 -11 247 11.5 Q188 34 145.5 75.5 Q103 117 79 176 Q55 235 55 308 Q55 402 90 478 Q125 554 183.5 608 Q242 662 318 691 Q394 720 477 720 Q519 720 553.5 713.5 Q588 707 617 698 Q641 689 641 670 Q641 646 623 646 Q618 646 606 650.5 Q594 655 575.5 660 Q557 665 532 669.5 Q507 674 477 674 Q402 674 335 648.5 Q268 623 217 575.5 Q166 528 136 461.5 Q106 395 106 313 Q106 248 127 197 Q148 146 185.5 110.5 Q223 75 274.5 56 Q326 37 387 37 Q415 37 441 41 Q467 45 488 49.5 Q509 54 523 58 Q537 62 543 62 Q560 62 560 44 Q560 23 540 16 Q505 4 463 -3.5 Q421 -11 375 -11 Z " />
<glyph glyph-name="Ccedilla" unicode="&#xc7;" horiz-adv-x="656" d="M617 698 Q641 689 641 670 Q641 646 623 646 Q618 646 606 650.5 Q594 655 575.5 660 Q557 665 532 669.5 Q507 674 477 674 Q402 674 335 648.5 Q268 623 217 575.5 Q166 528 136 461.5 Q106 395 106 313 Q106 248 127 197 Q148 146 185.5 110.5 Q223 75 274.5 56 Q326 37 387 37 Q415 37 441 41 Q467 45 488 49.5 Q509 54 523 58 Q537 62 543 62 Q560 62 560 44 Q560 23 540 16 Q507 5 468 -2.5 Q429 -10 386 -11 L363 -44 L373 -44 Q403 -44 421.5 -58.5 Q440 -73 440 -99 Q440 -116 432 -130.5 Q424 -145 410.5 -155 Q397 -165 380 -170.5 Q363 -176 344 -176 Q307 -176 286 -163 Q278 -158 278 -147 Q278 -133 289 -133 Q294 -133 309 -139 Q324 -145 344 -145 Q369 -145 385.5 -133.5 Q402 -122 402 -102 Q402 -86 390.5 -78 Q379 -70 360 -70 Q348 -70 337 -72.5 Q326 -75 324 -75 Q318 -75 318 -70 Q318 -68 323 -58 L356 -11 Q290 -8 235 16 Q180 40 140 81 Q100 122 77.5 179.5 Q55 237 55 308 Q55 402 90 478 Q125 554 183.5 608 Q242 662 318 691 Q394 720 477 720 Q519 720 553.5 713.5 Q588 707 617 698 Z " />
<glyph glyph-name="D" unicode="D" horiz-adv-x="674" d="M85 0 Q53 0 56 34 L145 681 Q148 710 178 710 L280 710 Q364 710 432 687.5 Q500 665 547.5 623.5 Q595 582 621 524 Q647 466 647 396 Q647 309 612.5 236 Q578 163 516 110.5 Q454 58 369 29 Q284 0 182 0 L85 0 Z M188 44 Q278 44 352.5 69.5 Q427 95 481 140.5 Q535 186 565 250.5 Q595 315 595 393 Q595 455 573 505.5 Q551 556 509.5 591.5 Q468 627 409 646.5 Q350 666 276 666 L194 667 L107 43 L188 44 Z " />
<glyph glyph-name="Eth" unicode="&#xd0;" horiz-adv-x="670" d="M280 710 Q364 710 432 687.5 Q500 665 547.5 623.5 Q595 582 621 524 Q647 466 647 396 Q647 309 612.5 236 Q578 163 516 110.5 Q454 58 369 29 Q284 0 182 0 L85 0 Q53 0 56 34 L99 343 L50 343 Q39 343 32.5 349 Q26 355 26 364 Q26 376 34 382 Q42 388 53 388 L105 388 L145 681 Q148 710 178 710 L280 710 Z M188 44 Q278 44 352.5 69.5 Q427 95 481 140.5 Q535 186 565 250.5 Q595 315 595 393 Q595 455 573 505.5 Q551 556 509.5 591.5 Q468 627 409 646.5 Q350 666 276 666 L194 667 L155 387 L335 387 Q360 387 360 367 Q360 356 352 350 Q344 344 333 344 L149 344 L107 43 L188 44 Z " />
<glyph glyph-name="E" unicode="E" horiz-adv-x="495" d="M472 710 Q499 710 499 690 Q499 679 491.5 672.5 Q484 666 470 666 L184 666 L151 394 L399 394 Q424 394 424 374 Q424 350 396 350 L145 350 L108 44 L388 44 Q416 44 416 23 Q416 0 385 0 L86 0 Q70 0 62 8.5 Q54 17 56 33 L135 681 Q140 710 169 710 L472 710 L472 710 Z " />
<glyph glyph-name="Eacute" unicode="&#xc9;" horiz-adv-x="495" d="M472 710 Q499 710 499 690 Q499 679 491.5 672.5 Q484 666 470 666 L184 666 L151 394 L399 394 Q424 394 424 374 Q424 350 396 350 L145 350 L108 44 L388 44 Q416 44 416 23 Q416 0 385 0 L86 0 Q70 0 62 8.5 Q54 17 56 33 L135 681 Q140 710 169 710 L472 710 L472 710 Z M269 768 Q257 768 257 778 Q257 786 274 805 L317 850 Q341 876 360 882 Q379 888 398 888 L404 888 Q421 888 428 883 Q435 878 435 871 Q435 863 423 855 Q411 847 385 830 L307 781 Q296 773 286.5 770.5 Q277 768 269 768 Z " />
<glyph glyph-name="Ecircumflex" unicode="&#xca;" horiz-adv-x="495" d="M472 710 Q499 710 499 690 Q499 679 491.5 672.5 Q484 666 470 666 L184 666 L151 394 L399 394 Q424 394 424 374 Q424 350 396 350 L145 350 L108 44 L388 44 Q416 44 416 23 Q416 0 385 0 L86 0 Q70 0 62 8.5 Q54 17 56 33 L135 681 Q140 710 169 710 L472 710 L472 710 Z M207 759 Q201 759 197 763.5 Q193 768 193 774 Q193 782 201 789 L298 877 Q309 886 315.5 891 Q322 896 331 896 Q342 896 347 889.5 Q352 883 361 873 L429 789 Q434 783 434 776 Q434 769 429 765 Q424 761 418 761 Q411 761 406.5 765 Q402 769 394 777 L326 852 L236 774 Q228 768 221.5 763.5 Q215 759 207 759 Z " />
<glyph glyph-name="Edieresis" unicode="&#xcb;" horiz-adv-x="495" d="M472 710 Q499 710 499 690 Q499 679 491.5 672.5 Q484 666 470 666 L184 666 L151 394 L399 394 Q424 394 424 374 Q424 350 396 350 L145 350 L108 44 L388 44 Q416 44 416 23 Q416 0 385 0 L86 0 Q70 0 62 8.5 Q54 17 56 33 L135 681 Q140 710 169 710 L472 710 L472 710 Z M240 779 Q221 779 210 792 Q199 805 199 823 Q199 845 213.5 860.5 Q228 876 251 876 Q270 876 281 863.5 Q292 851 292 832 Q292 811 277 795 Q262 779 240 779 Z M395 779 Q376 779 364.5 792 Q353 805 353 823 Q353 845 368 860.5 Q383 876 406 876 Q425 876 435.5 863.5 Q446 851 446 832 Q446 811 431.5 795 Q417 779 395 779 Z " />
<glyph glyph-name="Egrave" unicode="&#xc8;" horiz-adv-x="495" d="M472 710 Q499 710 499 690 Q499 679 491.5 672.5 Q484 666 470 666 L184 666 L151 394 L399 394 Q424 394 424 374 Q424 350 396 350 L145 350 L108 44 L388 44 Q416 44 416 23 Q416 0 385 0 L86 0 Q70 0 62 8.5 Q54 17 56 33 L135 681 Q140 710 169 710 L472 710 L472 710 Z M363 768 Q355 768 345.5 770.5 Q336 773 325 781 L247 830 Q221 847 209 855 Q197 863 197 871 Q197 878 204 883 Q211 888 228 888 L234 888 Q253 888 272 882 Q291 876 315 850 L358 805 Q375 786 375 778 Q375 768 363 768 Z " />
<glyph glyph-name="F" unicode="F" horiz-adv-x="469" d="M77 -6 Q54 -6 54 15 Q54 19 54.5 23.5 Q55 28 56 37 L136 681 Q139 710 169 710 L453 710 Q477 710 477 691 Q477 666 452 666 L185 666 L148 370 L391 370 Q402 370 408.5 364.5 Q415 359 415 350 Q413 326 388 326 L143 326 L105 21 Q102 -6 77 -6 Z " />
<glyph glyph-name="G" unicode="G" horiz-adv-x="743" d="M366 -11 Q300 -11 244 12.5 Q188 36 147 78.5 Q106 121 82.5 180.5 Q59 240 59 312 Q59 401 93 476 Q127 551 184 605 Q241 659 316 689.5 Q391 720 474 720 Q525 720 577.5 707.5 Q630 695 664 677 Q685 667 685 652 Q685 640 678 633.5 Q671 627 661 627 Q654 627 639.5 634 Q625 641 602 649.5 Q579 658 546 665 Q513 672 468 672 Q398 672 333 646 Q268 620 218.5 572.5 Q169 525 139.5 459.5 Q110 394 110 315 Q110 251 130.5 199.5 Q151 148 186.5 112 Q222 76 269.5 57 Q317 38 371 38 Q427 38 479 55.5 Q531 73 572.5 107 Q614 141 640 189.5 Q666 238 671 300 L474 300 Q450 300 450 321 Q450 344 477 344 L697 344 Q711 344 716 339 Q721 334 721 322 Q721 255 695 194.5 Q669 134 621.5 88.5 Q574 43 509 16 Q444 -11 366 -11 Z " />
<glyph glyph-name="H" unicode="H" horiz-adv-x="663" d="M614 716 Q626 716 632 708 Q638 700 636 684 L555 26 Q551 -5 525 -5 Q502 -5 502 20 Q502 22 502.5 24 Q503 26 503 28 L543 349 L147 349 L107 26 Q103 -5 77 -5 Q54 -5 54 20 Q54 22 54.5 24 Q55 26 55 28 L136 685 Q140 716 166 716 Q178 716 184 708 Q190 700 188 684 L152 391 L548 391 L584 685 Q588 716 614 716 Z " />
<glyph glyph-name="I" unicode="I" horiz-adv-x="249" d="M94 -5 Q71 -5 71 20 Q71 22 71.5 24 Q72 26 72 28 L153 685 Q157 716 183 716 Q195 716 201 708 Q207 700 205 684 L124 26 Q120 -5 94 -5 Z " />
<glyph glyph-name="Iacute" unicode="&#xcd;" horiz-adv-x="249" d="M94 -5 Q71 -5 71 20 Q71 22 71.5 24 Q72 26 72 28 L153 685 Q157 716 183 716 Q195 716 201 708 Q207 700 205 684 L124 26 Q120 -5 94 -5 Z M143 768 Q131 768 131 778 Q131 786 148 805 L191 850 Q215 876 234 882 Q253 888 272 888 L278 888 Q295 888 302 883 Q309 878 309 871 Q309 863 297 855 Q285 847 259 830 L181 781 Q170 773 160.5 770.5 Q151 768 143 768 Z " />
<glyph glyph-name="Icircumflex" unicode="&#xce;" horiz-adv-x="249" d="M94 -5 Q71 -5 71 20 Q71 22 71.5 24 Q72 26 72 28 L153 685 Q157 716 183 716 Q195 716 201 708 Q207 700 205 684 L124 26 Q120 -5 94 -5 Z M81 759 Q75 759 71 763.5 Q67 768 67 774 Q67 782 75 789 L172 877 Q183 886 189.5 891 Q196 896 205 896 Q216 896 221 889.5 Q226 883 235 873 L303 789 Q308 783 308 776 Q308 769 303 765 Q298 761 292 761 Q285 761 280.5 765 Q276 769 268 777 L200 852 L110 774 Q102 768 95.5 763.5 Q89 759 81 759 Z " />
<glyph glyph-name="Idieresis" unicode="&#xcf;" horiz-adv-x="249" d="M94 -5 Q71 -5 71 20 Q71 22 71.5 24 Q72 26 72 28 L153 685 Q157 716 183 716 Q195 716 201 708 Q207 700 205 684 L124 26 Q120 -5 94 -5 Z M114 779 Q95 779 84 792 Q73 805 73 823 Q73 845 87.5 860.5 Q102 876 125 876 Q144 876 155 863.5 Q166 851 166 832 Q166 811 151 795 Q136 779 114 779 Z M269 779 Q250 779 238.5 792 Q227 805 227 823 Q227 845 242 860.5 Q257 876 280 876 Q299 876 309.5 863.5 Q320 851 320 832 Q320 811 305.5 795 Q291 779 269 779 Z " />
<glyph glyph-name="Igrave" unicode="&#xcc;" horiz-adv-x="249" d="M94 -5 Q71 -5 71 20 Q71 22 71.5 24 Q72 26 72 28 L153 685 Q157 716 183 716 Q195 716 201 708 Q207 700 205 684 L124 26 Q120 -5 94 -5 Z M237 768 Q229 768 219.5 770.5 Q210 773 199 781 L121 830 Q95 847 83 855 Q71 863 71 871 Q71 878 78 883 Q85 888 102 888 L108 888 Q127 888 146 882 Q165 876 189 850 L232 805 Q249 786 249 778 Q249 768 237 768 Z " />
<glyph glyph-name="J" unicode="J" horiz-adv-x="393" d="M107 -10 Q78 -10 54.5 -5.5 Q31 -1 13 7 Q-10 16 -10 35 Q-10 45 -4 51 Q2 57 10 57 Q20 57 46.5 46.5 Q73 36 107 36 Q154 36 191 67.5 Q228 99 236 164 L301 687 Q304 716 329 716 Q355 716 352 686 L288 165 Q282 121 266.5 88.5 Q251 56 227 34 Q203 12 172.5 1 Q142 -10 107 -10 Z " />
<glyph glyph-name="K" unicode="K" horiz-adv-x="539" d="M536 716 Q546 716 552.5 709.5 Q559 703 559 695 Q559 683 548 673 L212 364 L462 35 Q468 26 468 18 Q468 7 461.5 0.5 Q455 -6 445 -6 Q435 -6 428.5 -2 Q422 2 414 13 L149 363 L108 26 Q104 -5 78 -5 Q55 -5 55 20 Q55 22 55.5 24 Q56 26 56 28 L137 685 Q141 716 167 716 Q179 716 185 708 Q191 700 189 684 L150 369 L507 699 Q516 708 522 712 Q528 716 536 716 Z " />
<glyph glyph-name="L" unicode="L" horiz-adv-x="448" d="M85 0 Q52 0 55 33 L135 689 Q138 717 163 717 Q189 715 186 686 L107 46 L375 46 Q403 46 403 23 Q403 0 372 0 L85 0 L85 0 Z " />
<glyph glyph-name="Lslash" unicode="&#x141;" horiz-adv-x="448" d="M375 46 Q403 46 403 23 Q403 0 372 0 L85 0 Q52 0 55 33 L98 382 L72 372 Q68 370 64.5 369 Q61 368 56 368 Q39 368 39 385 Q39 398 54 405 L103 425 L135 689 Q138 717 163 717 Q189 715 186 686 L156 446 L196 462 Q207 466 214 466 Q231 466 231 450 Q231 435 212 427 L151 403 L107 46 L375 46 L375 46 Z " />
<glyph glyph-name="M" unicode="M" horiz-adv-x="842" d="M14 -6 Q3 -6 -1.5 0 Q-6 6 -6 14 Q-6 18 -4 26 L194 684 Q203 717 231 717 Q258 717 266 686 L401 92 L678 687 Q692 717 716 717 Q731 717 738 707.5 Q745 698 747 683 L786 27 Q788 13 781 3.5 Q774 -6 760 -6 Q732 -6 730 25 L701 637 L423 38 Q412 16 391 16 Q369 16 363 42 L228 633 L47 21 Q37 -6 14 -6 Z " />
<glyph glyph-name="N" unicode="N" horiz-adv-x="716" d="M75 -6 Q54 -6 54 16 Q54 19 55.5 30 Q57 41 59 63 L137 689 Q139 704 145.5 710 Q152 716 163 716 Q183 716 197 690 L566 79 L642 694 Q643 706 649.5 711.5 Q656 717 667 717 Q690 717 690 695 Q690 692 689 685 Q688 678 685 653 L608 23 Q603 -6 574 -6 Q561 -6 549 15 L178 628 L102 20 Q99 -6 75 -6 Z " />
<glyph glyph-name="Ntilde" unicode="&#xd1;" horiz-adv-x="716" d="M75 -6 Q54 -6 54 16 Q54 19 55.5 30 Q57 41 59 63 L137 689 Q139 704 145.5 710 Q152 716 163 716 Q183 716 197 690 L566 79 L642 694 Q643 706 649.5 711.5 Q656 717 667 717 Q690 717 690 695 Q690 692 689 685 Q688 678 685 653 L608 23 Q603 -6 574 -6 Q561 -6 549 15 L178 628 L102 20 Q99 -6 75 -6 Z M480 779 Q457 779 442.5 790 Q428 801 415.5 814.5 Q403 828 390.5 839 Q378 850 359 850 Q340 850 330.5 835.5 Q321 821 316 807 Q309 790 295 790 Q288 790 283.5 795.5 Q279 801 281 812 Q283 824 289 838 Q295 852 305.5 864 Q316 876 330 883.5 Q344 891 361 891 Q384 891 399.5 880 Q415 869 428 855.5 Q441 842 453 831 Q465 820 481 820 Q500 820 510.5 832 Q521 844 525 865 Q529 875 532.5 881 Q536 887 545 887 Q554 887 558 881 Q562 875 562 866 Q561 852 555 836.5 Q549 821 538.5 808 Q528 795 513.5 787 Q499 779 480 779 Z " />
<glyph glyph-name="O" unicode="O" horiz-adv-x="820" d="M373 -10 Q304 -10 245.5 14 Q187 38 144 80 Q101 122 77 180.5 Q53 239 53 308 Q53 395 88 470.5 Q123 546 181.5 601.5 Q240 657 315.5 688.5 Q391 720 472 720 Q541 720 599.5 696 Q658 672 701.5 628.5 Q745 585 769.5 525 Q794 465 794 394 Q794 310 759 236 Q724 162 665.5 107.5 Q607 53 531 21.5 Q455 -10 373 -10 Z M380 38 Q452 38 518 65.5 Q584 93 634.5 141 Q685 189 715 253 Q745 317 745 391 Q745 452 724 504 Q703 556 665.5 593.5 Q628 631 577 652 Q526 673 465 673 Q394 673 328.5 644.5 Q263 616 213 567 Q163 518 133 452.5 Q103 387 103 312 Q103 253 124 202.5 Q145 152 181.5 115.5 Q218 79 269 58.5 Q320 38 380 38 Z " />
<glyph glyph-name="Oacute" unicode="&#xd3;" horiz-adv-x="820" d="M373 -10 Q304 -10 245.5 14 Q187 38 144 80 Q101 122 77 180.5 Q53 239 53 308 Q53 395 88 470.5 Q123 546 181.5 601.5 Q240 657 315.5 688.5 Q391 720 472 720 Q541 720 599.5 696 Q658 672 701.5 628.5 Q745 585 769.5 525 Q794 465 794 394 Q794 310 759 236 Q724 162 665.5 107.5 Q607 53 531 21.5 Q455 -10 373 -10 Z M380 38 Q452 38 518 65.5 Q584 93 634.5 141 Q685 189 715 253 Q745 317 745 391 Q745 452 724 504 Q703 556 665.5 593.5 Q628 631 577 652 Q526 673 465 673 Q394 673 328.5 644.5 Q263 616 213 567 Q163 518 133 452.5 Q103 387 103 312 Q103 253 124 202.5 Q145 152 181.5 115.5 Q218 79 269 58.5 Q320 38 380 38 Z M429 768 Q417 768 417 778 Q417 786 434 805 L477 850 Q501 876 520 882 Q539 888 558 888 L564 888 Q581 888 588 883 Q595 878 595 871 Q595 863 583 855 Q571 847 545 830 L467 781 Q456 773 446.5 770.5 Q437 768 429 768 Z " />
<glyph glyph-name="Ocircumflex" unicode="&#xd4;" horiz-adv-x="820" d="M373 -10 Q304 -10 245.5 14 Q187 38 144 80 Q101 122 77 180.5 Q53 239 53 308 Q53 395 88 470.5 Q123 546 181.5 601.5 Q240 657 315.5 688.5 Q391 720 472 720 Q541 720 599.5 696 Q658 672 701.5 628.5 Q745 585 769.5 525 Q794 465 794 394 Q794 310 759 236 Q724 162 665.5 107.5 Q607 53 531 21.5 Q455 -10 373 -10 Z M380 38 Q452 38 518 65.5 Q584 93 634.5 141 Q685 189 715 253 Q745 317 745 391 Q745 452 724 504 Q703 556 665.5 593.5 Q628 631 577 652 Q526 673 465 673 Q394 673 328.5 644.5 Q263 616 213 567 Q163 518 133 452.5 Q103 387 103 312 Q103 253 124 202.5 Q145 152 181.5 115.5 Q218 79 269 58.5 Q320 38 380 38 Z M367 759 Q361 759 357 763.5 Q353 768 353 774 Q353 782 361 789 L458 877 Q469 886 475.5 891 Q482 896 491 896 Q502 896 507 889.5 Q512 883 521 873 L589 789 Q594 783 594 776 Q594 769 589 765 Q584 761 578 761 Q571 761 566.5 765 Q562 769 554 777 L486 852 L396 774 Q388 768 381.5 763.5 Q375 759 367 759 Z " />
<glyph glyph-name="Odieresis" unicode="&#xd6;" horiz-adv-x="820" d="M373 -10 Q304 -10 245.5 14 Q187 38 144 80 Q101 122 77 180.5 Q53 239 53 308 Q53 395 88 470.5 Q123 546 181.5 601.5 Q240 657 315.5 688.5 Q391 720 472 720 Q541 720 599.5 696 Q658 672 701.5 628.5 Q745 585 769.5 525 Q794 465 794 394 Q794 310 759 236 Q724 162 665.5 107.5 Q607 53 531 21.5 Q455 -10 373 -10 Z M380 38 Q452 38 518 65.5 Q584 93 634.5 141 Q685 189 715 253 Q745 317 745 391 Q745 452 724 504 Q703 556 665.5 593.5 Q628 631 577 652 Q526 673 465 673 Q394 673 328.5 644.5 Q263 616 213 567 Q163 518 133 452.5 Q103 387 103 312 Q103 253 124 202.5 Q145 152 181.5 115.5 Q218 79 269 58.5 Q320 38 380 38 Z M400 779 Q381 779 370 792 Q359 805 359 823 Q359 845 373.5 860.5 Q388 876 411 876 Q430 876 441 863.5 Q452 851 452 832 Q452 811 437 795 Q422 779 400 779 Z M555 779 Q536 779 524.5 792 Q513 805 513 823 Q513 845 528 860.5 Q543 876 566 876 Q585 876 595.5 863.5 Q606 851 606 832 Q606 811 591.5 795 Q577 779 555 779 Z " />
<glyph glyph-name="Ograve" unicode="&#xd2;" horiz-adv-x="820" d="M373 -10 Q304 -10 245.5 14 Q187 38 144 80 Q101 122 77 180.5 Q53 239 53 308 Q53 395 88 470.5 Q123 546 181.5 601.5 Q240 657 315.5 688.5 Q391 720 472 720 Q541 720 599.5 696 Q658 672 701.5 628.5 Q745 585 769.5 525 Q794 465 794 394 Q794 310 759 236 Q724 162 665.5 107.5 Q607 53 531 21.5 Q455 -10 373 -10 Z M380 38 Q452 38 518 65.5 Q584 93 634.5 141 Q685 189 715 253 Q745 317 745 391 Q745 452 724 504 Q703 556 665.5 593.5 Q628 631 577 652 Q526 673 465 673 Q394 673 328.5 644.5 Q263 616 213 567 Q163 518 133 452.5 Q103 387 103 312 Q103 253 124 202.5 Q145 152 181.5 115.5 Q218 79 269 58.5 Q320 38 380 38 Z M523 768 Q515 768 505.5 770.5 Q496 773 485 781 L407 830 Q381 847 369 855 Q357 863 357 871 Q357 878 364 883 Q371 888 388 888 L394 888 Q413 888 432 882 Q451 876 475 850 L518 805 Q535 786 535 778 Q535 768 523 768 Z " />
<glyph glyph-name="Oslash" unicode="&#xd8;" horiz-adv-x="820" d="M649 670 Q715 628 754.5 556.5 Q794 485 794 394 Q794 310 759 236 Q724 162 665.5 107.5 Q607 53 531 21.5 Q455 -10 373 -10 Q328 -10 288.5 0 Q249 10 214 28 L181 -21 Q173 -35 161 -35 Q151 -35 151 -26 Q151 -21 155 -16 L193 41 Q128 83 90.5 151.5 Q53 220 53 308 Q53 395 88 470.5 Q123 546 181.5 601.5 Q240 657 315.5 688.5 Q391 720 472 720 Q558 720 627 683 L661 733 Q669 745 678 745 Q683 745 686.5 742.5 Q690 740 690 735 Q690 730 686 725 L649 670 Z M103 312 Q103 237 135 178 Q167 119 222 83 L599 642 Q539 673 465 673 Q394 673 328.5 644.5 Q263 616 213 567 Q163 518 133 452.5 Q103 387 103 312 Z M380 38 Q452 38 518 65.5 Q584 93 634.5 141 Q685 189 715 253 Q745 317 745 391 Q745 469 711.5 530.5 Q678 592 621 629 L243 71 Q273 55 307.5 46.5 Q342 38 380 38 Z " />
<glyph glyph-name="Otilde" unicode="&#xd5;" horiz-adv-x="820" d="M373 -10 Q304 -10 245.5 14 Q187 38 144 80 Q101 122 77 180.5 Q53 239 53 308 Q53 395 88 470.5 Q123 546 181.5 601.5 Q240 657 315.5 688.5 Q391 720 472 720 Q541 720 599.5 696 Q658 672 701.5 628.5 Q745 585 769.5 525 Q794 465 794 394 Q794 310 759 236 Q724 162 665.5 107.5 Q607 53 531 21.5 Q455 -10 373 -10 Z M380 38 Q452 38 518 65.5 Q584 93 634.5 141 Q685 189 715 253 Q745 317 745 391 Q745 452 724 504 Q703 556 665.5 593.5 Q628 631 577 652 Q526 673 465 673 Q394 673 328.5 644.5 Q263 616 213 567 Q163 518 133 452.5 Q103 387 103 312 Q103 253 124 202.5 Q145 152 181.5 115.5 Q218 79 269 58.5 Q320 38 380 38 Z M532 779 Q509 779 494.5 790 Q480 801 467.5 814.5 Q455 828 442.5 839 Q430 850 411 850 Q392 850 382.5 835.5 Q373 821 368 807 Q361 790 347 790 Q340 790 335.5 795.5 Q331 801 333 812 Q335 824 341 838 Q347 852 357.5 864 Q368 876 382 883.5 Q396 891 413 891 Q436 891 451.5 880 Q467 869 480 855.5 Q493 842 505 831 Q517 820 533 820 Q552 820 562.5 832 Q573 844 577 865 Q581 875 584.5 881 Q588 887 597 887 Q606 887 610 881 Q614 875 614 866 Q613 852 607 836.5 Q601 821 590.5 808 Q580 795 565.5 787 Q551 779 532 779 Z " />
<glyph glyph-name="OE" unicode="&#x152;" horiz-adv-x="784" d="M770 710 Q801 710 801 690 Q801 679 792.5 672.5 Q784 666 768 666 L491 666 L457 394 L700 394 Q725 394 725 374 Q725 350 698 350 L452 350 L414 44 L689 44 Q717 44 717 23 Q717 0 686 0 L361 0 Q290 0 233.5 23 Q177 46 137.5 87.5 Q98 129 77 186.5 Q56 244 56 313 Q56 400 86 473 Q116 546 168.5 598.5 Q221 651 293.5 680.5 Q366 710 450 710 L770 710 Z M441 665 Q367 665 305.5 639 Q244 613 200 567 Q156 521 132 457 Q108 393 108 317 Q108 257 125.5 207 Q143 157 175.5 121.5 Q208 86 255.5 66 Q303 46 363 46 L441 665 Z " />
<glyph glyph-name="P" unicode="P" horiz-adv-x="517" d="M288 710 Q391 710 448.5 660 Q506 610 506 526 Q506 476 487 434.5 Q468 393 433 363 Q398 333 349 316 Q300 299 239 299 L140 299 L105 19 Q103 5 96 -1 Q89 -7 78 -7 Q67 -7 59.5 0.5 Q52 8 54 22 L135 681 Q138 710 168 710 L288 710 Z M242 341 Q292 341 331.5 354.5 Q371 368 398.5 392 Q426 416 440.5 449.5 Q455 483 455 523 Q455 589 411 628 Q367 667 283 667 L184 667 L145 341 L242 341 Z " />
<glyph glyph-name="Thorn" unicode="&#xde;" horiz-adv-x="517" d="M268 567 Q375 567 432 517 Q489 467 489 384 Q489 333 470.5 291 Q452 249 416.5 219 Q381 189 331 172 Q281 155 218 155 L123 155 L107 20 Q104 -6 80 -6 Q52 -6 55 22 L137 690 Q140 716 163 716 Q175 716 182.5 708.5 Q190 701 188 688 L173 567 L268 567 Z M227 196 Q276 196 315 209.5 Q354 223 381 247.5 Q408 272 422.5 306 Q437 340 437 381 Q437 447 393 486.5 Q349 526 263 526 L168 526 L128 196 L227 196 Z " />
<glyph glyph-name="Q" unicode="Q" horiz-adv-x="808" d="M725 -35 Q729 -40 732.5 -46.5 Q736 -53 736 -59 Q736 -69 729 -76 Q722 -83 714 -83 Q706 -83 700 -78 Q694 -73 687 -65 L596 54 Q545 24 489 7 Q433 -10 373 -10 Q304 -10 245.5 14 Q187 38 144 80 Q101 122 77 180.5 Q53 239 53 308 Q53 395 88 470.5 Q123 546 181.5 601.5 Q240 657 315.5 688.5 Q391 720 472 720 Q541 720 599.5 696 Q658 672 701.5 628.5 Q745 585 769.5 525 Q794 465 794 394 Q794 299 750.5 218 Q707 137 635 82 L725 -35 Z M103 312 Q103 253 124 202.5 Q145 152 181.5 115.5 Q218 79 269 58.5 Q320 38 380 38 Q452 38 518 65.5 Q584 93 634.5 141 Q685 189 715 253 Q745 317 745 391 Q745 452 724 504 Q703 556 665.5 593.5 Q628 631 577 652 Q526 673 465 673 Q394 673 328.5 644.5 Q263 616 213 567 Q163 518 133 452.5 Q103 387 103 312 Z " />
<glyph glyph-name="R" unicode="R" horiz-adv-x="530" d="M451 32 Q456 24 456 16 Q456 7 449.5 0.5 Q443 -6 432 -6 Q420 -6 413.5 -0.5 Q407 5 400 16 L202 336 L137 336 L98 23 Q93 -6 70 -6 Q45 -6 48 25 L130 681 Q135 710 164 710 L282 710 Q381 710 437 666 Q493 622 493 547 Q493 502 476 464.5 Q459 427 427.5 400 Q396 373 352 357 Q308 341 254 340 L451 32 Z M142 376 L240 376 Q286 376 324 388 Q362 400 388.5 421.5 Q415 443 429.5 473 Q444 503 444 539 Q444 598 400 633.5 Q356 669 276 669 L179 669 L142 376 Z " />
<glyph glyph-name="S" unicode="S" horiz-adv-x="496" d="M196 -10 Q153 -10 109 0 Q65 10 36 24 Q14 35 14 53 Q14 64 21 69.5 Q28 75 36 75 Q42 75 56.5 69 Q71 63 92 55.5 Q113 48 140 42 Q167 36 199 36 Q241 36 278 47 Q315 58 342.5 79 Q370 100 385.5 129 Q401 158 401 194 Q401 222 389.5 244 Q378 266 358 285 Q338 304 310.5 320 Q283 336 252 351 Q222 366 192 382.5 Q162 399 139 420.5 Q116 442 101.5 469.5 Q87 497 87 533 Q87 573 104.5 607.5 Q122 642 152 667 Q182 692 223 706 Q264 720 312 720 Q350 720 384 714 Q418 708 445 697 Q469 690 469 669 Q469 659 462.5 654 Q456 649 447 649 Q442 649 430 653 Q418 657 400 662.5 Q382 668 359.5 672 Q337 676 312 676 Q277 676 246 666 Q215 656 192 637.5 Q169 619 155.5 594 Q142 569 142 539 Q142 510 154 487.5 Q166 465 186.5 447.5 Q207 430 233 416 Q259 402 287 389 Q322 373 352.5 355 Q383 337 405.5 314.5 Q428 292 440.5 264.5 Q453 237 453 203 Q453 156 433.5 117 Q414 78 379.5 49.5 Q345 21 298 5.5 Q251 -10 196 -10 Z " />
<glyph glyph-name="Scaron" unicode="&#x160;" horiz-adv-x="496" d="M196 -10 Q153 -10 109 0 Q65 10 36 24 Q14 35 14 53 Q14 64 21 69.5 Q28 75 36 75 Q42 75 56.5 69 Q71 63 92 55.5 Q113 48 140 42 Q167 36 199 36 Q241 36 278 47 Q315 58 342.5 79 Q370 100 385.5 129 Q401 158 401 194 Q401 222 389.5 244 Q378 266 358 285 Q338 304 310.5 320 Q283 336 252 351 Q222 366 192 382.5 Q162 399 139 420.5 Q116 442 101.5 469.5 Q87 497 87 533 Q87 573 104.5 607.5 Q122 642 152 667 Q182 692 223 706 Q264 720 312 720 Q350 720 384 714 Q418 708 445 697 Q469 690 469 669 Q469 659 462.5 654 Q456 649 447 649 Q442 649 430 653 Q418 657 400 662.5 Q382 668 359.5 672 Q337 676 312 676 Q277 676 246 666 Q215 656 192 637.5 Q169 619 155.5 594 Q142 569 142 539 Q142 510 154 487.5 Q166 465 186.5 447.5 Q207 430 233 416 Q259 402 287 389 Q322 373 352.5 355 Q383 337 405.5 314.5 Q428 292 440.5 264.5 Q453 237 453 203 Q453 156 433.5 117 Q414 78 379.5 49.5 Q345 21 298 5.5 Q251 -10 196 -10 Z M308 756 Q298 756 292 761 Q286 766 279 774 L218 857 Q213 864 213 869 Q213 875 217.5 879.5 Q222 884 230 884 Q238 884 246 875 L313 796 L404 880 Q409 885 417 885 Q431 885 431 872 Q431 866 426 861 L340 772 Q324 756 308 756 Z " />
<glyph glyph-name="T" unicode="T" horiz-adv-x="505" d="M512 710 Q538 710 538 688 Q538 677 531 670.5 Q524 664 509 664 L331 664 L251 19 Q248 -6 223 -6 Q198 -6 201 21 L280 664 L102 664 Q90 664 83.5 670.5 Q77 677 77 687 Q77 697 84 703.5 Q91 710 105 710 L512 710 L512 710 Z " />
<glyph glyph-name="U" unicode="U" horiz-adv-x="651" d="M294 -11 Q247 -11 207.5 2 Q168 15 139.5 42 Q111 69 95.5 110 Q80 151 80 208 Q80 221 81 235 Q82 249 84 264 L136 689 Q137 716 164 716 Q190 716 187 689 L134 263 Q131 236 131 213 Q131 166 143.5 132 Q156 98 178 76.5 Q200 55 231 45 Q262 35 300 35 Q342 35 379 47.5 Q416 60 445.5 87.5 Q475 115 494.5 158.5 Q514 202 522 263 L574 689 Q576 716 601 716 Q612 716 618.5 709 Q625 702 623 687 L572 264 Q563 192 538.5 140.5 Q514 89 477 55 Q440 21 393 5 Q346 -11 294 -11 Z " />
<glyph glyph-name="Uacute" unicode="&#xda;" horiz-adv-x="651" d="M294 -11 Q247 -11 207.5 2 Q168 15 139.5 42 Q111 69 95.5 110 Q80 151 80 208 Q80 221 81 235 Q82 249 84 264 L136 689 Q137 716 164 716 Q190 716 187 689 L134 263 Q131 236 131 213 Q131 166 143.5 132 Q156 98 178 76.5 Q200 55 231 45 Q262 35 300 35 Q342 35 379 47.5 Q416 60 445.5 87.5 Q475 115 494.5 158.5 Q514 202 522 263 L574 689 Q576 716 601 716 Q612 716 618.5 709 Q625 702 623 687 L572 264 Q563 192 538.5 140.5 Q514 89 477 55 Q440 21 393 5 Q346 -11 294 -11 Z M344 768 Q332 768 332 778 Q332 786 349 805 L392 850 Q416 876 435 882 Q454 888 473 888 L479 888 Q496 888 503 883 Q510 878 510 871 Q510 863 498 855 Q486 847 460 830 L382 781 Q371 773 361.5 770.5 Q352 768 344 768 Z " />
<glyph glyph-name="Ucircumflex" unicode="&#xdb;" horiz-adv-x="651" d="M294 -11 Q247 -11 207.5 2 Q168 15 139.5 42 Q111 69 95.5 110 Q80 151 80 208 Q80 221 81 235 Q82 249 84 264 L136 689 Q137 716 164 716 Q190 716 187 689 L134 263 Q131 236 131 213 Q131 166 143.5 132 Q156 98 178 76.5 Q200 55 231 45 Q262 35 300 35 Q342 35 379 47.5 Q416 60 445.5 87.5 Q475 115 494.5 158.5 Q514 202 522 263 L574 689 Q576 716 601 716 Q612 716 618.5 709 Q625 702 623 687 L572 264 Q563 192 538.5 140.5 Q514 89 477 55 Q440 21 393 5 Q346 -11 294 -11 Z M282 759 Q276 759 272 763.5 Q268 768 268 774 Q268 782 276 789 L373 877 Q384 886 390.5 891 Q397 896 406 896 Q417 896 422 889.5 Q427 883 436 873 L504 789 Q509 783 509 776 Q509 769 504 765 Q499 761 493 761 Q486 761 481.5 765 Q477 769 469 777 L401 852 L311 774 Q303 768 296.5 763.5 Q290 759 282 759 Z " />
<glyph glyph-name="Udieresis" unicode="&#xdc;" horiz-adv-x="651" d="M294 -11 Q247 -11 207.5 2 Q168 15 139.5 42 Q111 69 95.5 110 Q80 151 80 208 Q80 221 81 235 Q82 249 84 264 L136 689 Q137 716 164 716 Q190 716 187 689 L134 263 Q131 236 131 213 Q131 166 143.5 132 Q156 98 178 76.5 Q200 55 231 45 Q262 35 300 35 Q342 35 379 47.5 Q416 60 445.5 87.5 Q475 115 494.5 158.5 Q514 202 522 263 L574 689 Q576 716 601 716 Q612 716 618.5 709 Q625 702 623 687 L572 264 Q563 192 538.5 140.5 Q514 89 477 55 Q440 21 393 5 Q346 -11 294 -11 Z M315 779 Q296 779 285 792 Q274 805 274 823 Q274 845 288.5 860.5 Q303 876 326 876 Q345 876 356 863.5 Q367 851 367 832 Q367 811 352 795 Q337 779 315 779 Z M470 779 Q451 779 439.5 792 Q428 805 428 823 Q428 845 443 860.5 Q458 876 481 876 Q500 876 510.5 863.5 Q521 851 521 832 Q521 811 506.5 795 Q492 779 470 779 Z " />
<glyph glyph-name="Ugrave" unicode="&#xd9;" horiz-adv-x="651" d="M294 -11 Q247 -11 207.5 2 Q168 15 139.5 42 Q111 69 95.5 110 Q80 151 80 208 Q80 221 81 235 Q82 249 84 264 L136 689 Q137 716 164 716 Q190 716 187 689 L134 263 Q131 236 131 213 Q131 166 143.5 132 Q156 98 178 76.5 Q200 55 231 45 Q262 35 300 35 Q342 35 379 47.5 Q416 60 445.5 87.5 Q475 115 494.5 158.5 Q514 202 522 263 L574 689 Q576 716 601 716 Q612 716 618.5 709 Q625 702 623 687 L572 264 Q563 192 538.5 140.5 Q514 89 477 55 Q440 21 393 5 Q346 -11 294 -11 Z M438 768 Q430 768 420.5 770.5 Q411 773 400 781 L322 830 Q296 847 284 855 Q272 863 272 871 Q272 878 279 883 Q286 888 303 888 L309 888 Q328 888 347 882 Q366 876 390 850 L433 805 Q450 786 450 778 Q450 768 438 768 Z " />
<glyph glyph-name="V" unicode="V" horiz-adv-x="629" d="M286 -9 Q268 -9 261 16 L76 681 Q75 684 75 690 Q75 702 82.5 709.5 Q90 717 101 717 Q121 717 128 690 L294 72 L611 693 Q617 705 623.5 711 Q630 717 641 717 Q652 717 657.5 711 Q663 705 663 697 Q663 690 658 680 L316 16 Q303 -9 286 -9 Z " />
<glyph glyph-name="W" unicode="W" horiz-adv-x="933" d="M919 688 Q924 702 930.5 709 Q937 716 949 716 Q959 716 964.5 710 Q970 704 970 695 Q970 686 966 678 L685 17 Q674 -7 654 -7 Q629 -7 625 21 L511 634 L252 18 Q246 5 239 -1 Q232 -7 220 -7 Q198 -7 192 22 L74 682 Q74 684 73.5 686 Q73 688 73 690 Q73 716 97 716 Q119 716 125 686 L231 76 L487 688 Q499 716 521 716 Q543 716 549 687 L660 71 L919 688 L919 688 Z " />
<glyph glyph-name="X" unicode="X" horiz-adv-x="643" d="M618 716 Q628 716 634.5 709.5 Q641 703 641 693 Q641 684 634 676 L369 363 L562 36 Q568 25 568 16 Q568 5 561 -0.5 Q554 -6 544 -6 Q533 -6 526.5 -0.5 Q520 5 515 14 L333 323 L73 13 Q65 3 57.5 -1.5 Q50 -6 39 -6 Q30 -6 24.5 -1 Q19 4 19 12 Q19 22 28 34 L308 364 L121 674 Q116 684 116 691 Q116 702 123.5 709 Q131 716 142 716 Q159 716 170 696 L343 403 L588 698 Q596 708 602 712 Q608 716 618 716 Z " />
<glyph glyph-name="Y" unicode="Y" horiz-adv-x="562" d="M249 -6 Q235 -6 229 2 Q223 10 225 24 L261 304 L86 680 Q83 687 83 693 Q83 703 89.5 709.5 Q96 716 107 716 Q117 716 124 711 Q131 706 136 692 L293 351 L535 694 Q550 716 564 716 Q574 716 579.5 711 Q585 706 585 698 Q585 690 579 681 L312 304 L278 22 Q275 -6 249 -6 Z " />
<glyph glyph-name="Yacute" unicode="&#xdd;" horiz-adv-x="562" d="M249 -6 Q235 -6 229 2 Q223 10 225 24 L261 304 L86 680 Q83 687 83 693 Q83 703 89.5 709.5 Q96 716 107 716 Q117 716 124 711 Q131 706 136 692 L293 351 L535 694 Q550 716 564 716 Q574 716 579.5 711 Q585 706 585 698 Q585 690 579 681 L312 304 L278 22 Q275 -6 249 -6 Z M300 768 Q288 768 288 778 Q288 786 305 805 L348 850 Q372 876 391 882 Q410 888 429 888 L435 888 Q452 888 459 883 Q466 878 466 871 Q466 863 454 855 Q442 847 416 830 L338 781 Q327 773 317.5 770.5 Q308 768 300 768 Z " />
<glyph glyph-name="Ydieresis" unicode="&#x178;" horiz-adv-x="562" d="M249 -6 Q235 -6 229 2 Q223 10 225 24 L261 304 L86 680 Q83 687 83 693 Q83 703 89.5 709.5 Q96 716 107 716 Q117 716 124 711 Q131 706 136 692 L293 351 L535 694 Q550 716 564 716 Q574 716 579.5 711 Q585 706 585 698 Q585 690 579 681 L312 304 L278 22 Q275 -6 249 -6 Z M271 779 Q252 779 241 792 Q230 805 230 823 Q230 845 244.5 860.5 Q259 876 282 876 Q301 876 312 863.5 Q323 851 323 832 Q323 811 308 795 Q293 779 271 779 Z M426 779 Q407 779 395.5 792 Q384 805 384 823 Q384 845 399 860.5 Q414 876 437 876 Q456 876 466.5 863.5 Q477 851 477 832 Q477 811 462.5 795 Q448 779 426 779 Z " />
<glyph glyph-name="Z" unicode="Z" horiz-adv-x="564" d="M41 0 Q20 0 20 19 Q20 30 31 43 L499 667 L153 667 Q130 667 130 688 Q130 710 154 710 L534 710 Q549 710 556 705 Q563 700 563 692 Q563 685 559.5 678.5 Q556 672 551 666 L82 43 L460 43 Q485 43 485 21 Q485 10 477 5 Q469 0 457 0 L41 0 L41 0 Z " />
<glyph glyph-name="Zcaron" unicode="&#x17d;" horiz-adv-x="564" d="M41 0 Q20 0 20 19 Q20 30 31 43 L499 667 L153 667 Q130 667 130 688 Q130 710 154 710 L534 710 Q549 710 556 705 Q563 700 563 692 Q563 685 559.5 678.5 Q556 672 551 666 L82 43 L460 43 Q485 43 485 21 Q485 10 477 5 Q469 0 457 0 L41 0 L41 0 Z M342 756 Q332 756 326 761 Q320 766 313 774 L252 857 Q247 864 247 869 Q247 875 251.5 879.5 Q256 884 264 884 Q272 884 280 875 L347 796 L438 880 Q443 885 451 885 Q465 885 465 872 Q465 866 460 861 L374 772 Q358 756 342 756 Z " />
<glyph glyph-name="a" unicode="a" horiz-adv-x="594" d="M250 -10 Q211 -10 174 5 Q137 20 109 48 Q81 76 64 116.5 Q47 157 47 209 Q47 275 69.5 327 Q92 379 129 415.5 Q166 452 213.5 471 Q261 490 311 490 Q372 490 420 460.5 Q468 431 487 371 L498 461 Q501 487 525 487 Q536 487 542 481 Q548 475 548 467 Q548 462 548 457.5 Q548 453 546 444 L494 21 Q492 -5 467 -5 Q444 -5 444 17 Q444 23 445 32 Q446 41 448 54 L456 114 Q439 84 416 60.5 Q393 37 366 21.5 Q339 6 309 -2 Q279 -10 250 -10 Z M263 35 Q302 35 340 51.5 Q378 68 408 99 Q438 130 456.5 173 Q475 216 475 269 Q475 312 462.5 345 Q450 378 428 400 Q406 422 376.5 433 Q347 444 313 444 Q271 444 232.5 428.5 Q194 413 164 383 Q134 353 116 310 Q98 267 98 213 Q98 171 111.5 138 Q125 105 147.5 82 Q170 59 200 47 Q230 35 263 35 Z " />
<glyph glyph-name="aacute" unicode="&#xe1;" horiz-adv-x="594" d="M250 -10 Q211 -10 174 5 Q137 20 109 48 Q81 76 64 116.5 Q47 157 47 209 Q47 275 69.5 327 Q92 379 129 415.5 Q166 452 213.5 471 Q261 490 311 490 Q372 490 420 460.5 Q468 431 487 371 L498 461 Q501 487 525 487 Q536 487 542 481 Q548 475 548 467 Q548 462 548 457.5 Q548 453 546 444 L494 21 Q492 -5 467 -5 Q444 -5 444 17 Q444 23 445 32 Q446 41 448 54 L456 114 Q439 84 416 60.5 Q393 37 366 21.5 Q339 6 309 -2 Q279 -10 250 -10 Z M263 35 Q302 35 340 51.5 Q378 68 408 99 Q438 130 456.5 173 Q475 216 475 269 Q475 312 462.5 345 Q450 378 428 400 Q406 422 376.5 433 Q347 444 313 444 Q271 444 232.5 428.5 Q194 413 164 383 Q134 353 116 310 Q98 267 98 213 Q98 171 111.5 138 Q125 105 147.5 82 Q170 59 200 47 Q230 35 263 35 Z M323 557 Q316 557 311 561.5 Q306 566 306 573 Q306 580 310 585 L413 733 Q427 752 444 752 Q455 752 463 744 Q471 736 471 725 Q471 717 466 709.5 Q461 702 454 694 L346 571 Q339 563 334.5 560 Q330 557 323 557 Z " />
<glyph glyph-name="acircumflex" unicode="&#xe2;" horiz-adv-x="594" d="M250 -10 Q211 -10 174 5 Q137 20 109 48 Q81 76 64 116.5 Q47 157 47 209 Q47 275 69.5 327 Q92 379 129 415.5 Q166 452 213.5 471 Q261 490 311 490 Q372 490 420 460.5 Q468 431 487 371 L498 461 Q501 487 525 487 Q536 487 542 481 Q548 475 548 467 Q548 462 548 457.5 Q548 453 546 444 L494 21 Q492 -5 467 -5 Q444 -5 444 17 Q444 23 445 32 Q446 41 448 54 L456 114 Q439 84 416 60.5 Q393 37 366 21.5 Q339 6 309 -2 Q279 -10 250 -10 Z M263 35 Q302 35 340 51.5 Q378 68 408 99 Q438 130 456.5 173 Q475 216 475 269 Q475 312 462.5 345 Q450 378 428 400 Q406 422 376.5 433 Q347 444 313 444 Q271 444 232.5 428.5 Q194 413 164 383 Q134 353 116 310 Q98 267 98 213 Q98 171 111.5 138 Q125 105 147.5 82 Q170 59 200 47 Q230 35 263 35 Z M247 574 Q231 574 231 588 Q231 594 237 603 L335 732 Q344 744 351.5 748.5 Q359 753 368 753 Q386 753 396 734 L462 605 Q467 595 467 590 Q465 575 449 575 Q435 575 427 589 L364 708 L269 586 Q258 574 247 574 Z " />
<glyph glyph-name="adieresis" unicode="&#xe4;" horiz-adv-x="594" d="M250 -10 Q211 -10 174 5 Q137 20 109 48 Q81 76 64 116.5 Q47 157 47 209 Q47 275 69.5 327 Q92 379 129 415.5 Q166 452 213.5 471 Q261 490 311 490 Q372 490 420 460.5 Q468 431 487 371 L498 461 Q501 487 525 487 Q536 487 542 481 Q548 475 548 467 Q548 462 548 457.5 Q548 453 546 444 L494 21 Q492 -5 467 -5 Q444 -5 444 17 Q444 23 445 32 Q446 41 448 54 L456 114 Q439 84 416 60.5 Q393 37 366 21.5 Q339 6 309 -2 Q279 -10 250 -10 Z M263 35 Q302 35 340 51.5 Q378 68 408 99 Q438 130 456.5 173 Q475 216 475 269 Q475 312 462.5 345 Q450 378 428 400 Q406 422 376.5 433 Q347 444 313 444 Q271 444 232.5 428.5 Q194 413 164 383 Q134 353 116 310 Q98 267 98 213 Q98 171 111.5 138 Q125 105 147.5 82 Q170 59 200 47 Q230 35 263 35 Z M280 646 Q265 646 256.5 655.5 Q248 665 248 679 Q248 696 259 708.5 Q270 721 287 721 Q302 721 310.5 711 Q319 701 319 686 Q319 669 308 657.5 Q297 646 280 646 Z M417 646 Q402 646 393.5 655.5 Q385 665 385 679 Q385 696 396 708.5 Q407 721 424 721 Q439 721 447.5 711 Q456 701 456 686 Q456 669 445 657.5 Q434 646 417 646 Z " />
<glyph glyph-name="agrave" unicode="&#xe0;" horiz-adv-x="594" d="M250 -10 Q211 -10 174 5 Q137 20 109 48 Q81 76 64 116.5 Q47 157 47 209 Q47 275 69.5 327 Q92 379 129 415.5 Q166 452 213.5 471 Q261 490 311 490 Q372 490 420 460.5 Q468 431 487 371 L498 461 Q501 487 525 487 Q536 487 542 481 Q548 475 548 467 Q548 462 548 457.5 Q548 453 546 444 L494 21 Q492 -5 467 -5 Q444 -5 444 17 Q444 23 445 32 Q446 41 448 54 L456 114 Q439 84 416 60.5 Q393 37 366 21.5 Q339 6 309 -2 Q279 -10 250 -10 Z M263 35 Q302 35 340 51.5 Q378 68 408 99 Q438 130 456.5 173 Q475 216 475 269 Q475 312 462.5 345 Q450 378 428 400 Q406 422 376.5 433 Q347 444 313 444 Q271 444 232.5 428.5 Q194 413 164 383 Q134 353 116 310 Q98 267 98 213 Q98 171 111.5 138 Q125 105 147.5 82 Q170 59 200 47 Q230 35 263 35 Z M402 557 Q395 557 390.5 560 Q386 563 379 571 L271 694 Q264 702 259 709.5 Q254 717 254 725 Q254 736 262 744 Q270 752 281 752 Q298 752 312 733 L415 585 Q419 580 419 573 Q419 566 414 561.5 Q409 557 402 557 Z " />
<glyph glyph-name="aring" unicode="&#xe5;" horiz-adv-x="594" d="M250 -10 Q211 -10 174 5 Q137 20 109 48 Q81 76 64 116.5 Q47 157 47 209 Q47 275 69.5 327 Q92 379 129 415.5 Q166 452 213.5 471 Q261 490 311 490 Q372 490 420 460.5 Q468 431 487 371 L498 461 Q501 487 525 487 Q536 487 542 481 Q548 475 548 467 Q548 462 548 457.5 Q548 453 546 444 L494 21 Q492 -5 467 -5 Q444 -5 444 17 Q444 23 445 32 Q446 41 448 54 L456 114 Q439 84 416 60.5 Q393 37 366 21.5 Q339 6 309 -2 Q279 -10 250 -10 Z M263 35 Q302 35 340 51.5 Q378 68 408 99 Q438 130 456.5 173 Q475 216 475 269 Q475 312 462.5 345 Q450 378 428 400 Q406 422 376.5 433 Q347 444 313 444 Q271 444 232.5 428.5 Q194 413 164 383 Q134 353 116 310 Q98 267 98 213 Q98 171 111.5 138 Q125 105 147.5 82 Q170 59 200 47 Q230 35 263 35 Z M339 576 Q306 576 285 597.5 Q264 619 264 652 Q264 694 292.5 719.5 Q321 745 359 745 Q391 745 413 724.5 Q435 704 435 671 Q435 651 427 633.5 Q419 616 405.5 603.5 Q392 591 375 583.5 Q358 576 339 576 Z M342 602 Q368 602 387 621 Q406 640 406 669 Q406 692 392.5 706.5 Q379 721 356 721 Q330 721 311.5 702 Q293 683 293 654 Q293 631 306 616.5 Q319 602 342 602 Z " />
<glyph glyph-name="atilde" unicode="&#xe3;" horiz-adv-x="594" d="M250 -10 Q211 -10 174 5 Q137 20 109 48 Q81 76 64 116.5 Q47 157 47 209 Q47 275 69.5 327 Q92 379 129 415.5 Q166 452 213.5 471 Q261 490 311 490 Q372 490 420 460.5 Q468 431 487 371 L498 461 Q501 487 525 487 Q536 487 542 481 Q548 475 548 467 Q548 462 548 457.5 Q548 453 546 444 L494 21 Q492 -5 467 -5 Q444 -5 444 17 Q444 23 445 32 Q446 41 448 54 L456 114 Q439 84 416 60.5 Q393 37 366 21.5 Q339 6 309 -2 Q279 -10 250 -10 Z M263 35 Q302 35 340 51.5 Q378 68 408 99 Q438 130 456.5 173 Q475 216 475 269 Q475 312 462.5 345 Q450 378 428 400 Q406 422 376.5 433 Q347 444 313 444 Q271 444 232.5 428.5 Q194 413 164 383 Q134 353 116 310 Q98 267 98 213 Q98 171 111.5 138 Q125 105 147.5 82 Q170 59 200 47 Q230 35 263 35 Z M413 567 Q390 567 375.5 578 Q361 589 348.5 602.5 Q336 616 323.5 627 Q311 638 292 638 Q273 638 263.5 623.5 Q254 609 249 595 Q242 578 228 578 Q221 578 216.5 583.5 Q212 589 214 600 Q216 612 222 626 Q228 640 238.5 652 Q249 664 263 671.5 Q277 679 294 679 Q317 679 332.5 668 Q348 657 361 643.5 Q374 630 386 619 Q398 608 414 608 Q433 608 443.5 620 Q454 632 458 653 Q462 663 465.5 669 Q469 675 478 675 Q487 675 491 669 Q495 663 495 654 Q494 640 488 624.5 Q482 609 471.5 596 Q461 583 446.5 575 Q432 567 413 567 Z " />
<glyph glyph-name="ae" unicode="&#xe6;" horiz-adv-x="787" d="M598 490 Q675 490 718 439.5 Q761 389 757 298 Q757 279 748.5 269 Q740 259 720 259 L419 259 Q417 247 416 234 Q415 221 415 208 Q415 121 456 77.5 Q497 34 566 34 Q598 34 622.5 42.5 Q647 51 664.5 61.5 Q682 72 693.5 80.5 Q705 89 712 89 Q720 89 724.5 84 Q729 79 729 72 Q729 63 723.5 56 Q718 49 710 44 Q676 15 637.5 2.5 Q599 -10 561 -10 Q492 -10 444 26 Q396 62 380 130 Q363 94 339.5 67.5 Q316 41 288.5 24.5 Q261 8 230 0 Q199 -8 168 -8 Q110 -8 71.5 23.5 Q33 55 33 112 Q33 152 52.5 182 Q72 212 105 232.5 Q138 253 181 263.5 Q224 274 271 276 Q288 277 305 277.5 Q322 278 336 278 Q347 278 355.5 277.5 Q364 277 371 277 L374 306 Q375 313 375.5 319 Q376 325 376 331 Q376 391 340 419 Q304 447 246 447 Q222 447 200.5 443 Q179 439 162.5 434.5 Q146 430 134.5 426.5 Q123 423 120 423 Q111 423 106 428 Q101 433 101 441 Q101 461 124 467 Q153 478 187 484 Q221 490 253 490 Q398 490 415 375 Q446 432 494 461 Q542 490 598 490 Z M712 297 Q715 365 685 405.5 Q655 446 597 446 Q532 446 488.5 404.5 Q445 363 427 297 L712 297 Z M177 34 Q204 34 234 45 Q264 56 290.5 77.5 Q317 99 336.5 130.5 Q356 162 362 203 L366 240 Q358 240 349 240.5 Q340 241 329 241 Q314 241 298 240.5 Q282 240 267 239 Q230 237 196.5 229 Q163 221 138 205.5 Q113 190 98.5 168 Q84 146 84 118 Q84 76 111.5 55 Q139 34 177 34 Z " />
<glyph glyph-name="b" unicode="b" horiz-adv-x="592" d="M340 490 Q382 490 419.5 475.5 Q457 461 485 433 Q513 405 529 365 Q545 325 545 273 Q545 206 521.5 153.5 Q498 101 461 64.5 Q424 28 377 9 Q330 -10 284 -10 Q255 -10 227.5 -2 Q200 6 176 21.5 Q152 37 134 59.5 Q116 82 106 111 L95 24 Q90 -5 66 -5 Q40 -5 45 26 L132 731 Q135 759 159 759 Q185 759 182 729 L137 372 Q171 431 226.5 460.5 Q282 490 340 490 Z M281 36 Q320 36 358 51.5 Q396 67 426 97 Q456 127 475 170 Q494 213 494 268 Q494 310 481 342.5 Q468 375 445.5 397.5 Q423 420 392.5 432 Q362 444 327 444 Q285 444 247 428 Q209 412 180 382 Q151 352 134 309 Q117 266 117 212 Q117 170 130 137 Q143 104 165.5 81.5 Q188 59 218 47.5 Q248 36 281 36 Z " />
<glyph glyph-name="c" unicode="c" horiz-adv-x="475" d="M271 -10 Q224 -10 182.5 6 Q141 22 110.5 51.5 Q80 81 62.5 123 Q45 165 45 217 Q45 278 67.5 328 Q90 378 129 414 Q168 450 220 470 Q272 490 332 490 Q360 490 385 486 Q410 482 429 475 Q457 465 457 447 Q457 436 451.5 431 Q446 426 438 426 Q429 426 401 436.5 Q373 447 329 447 Q283 447 241 431 Q199 415 167 385.5 Q135 356 116 314 Q97 272 97 221 Q97 177 111.5 142 Q126 107 151 83 Q176 59 210 46 Q244 33 284 33 Q328 33 354 43 Q380 53 392 53 Q400 53 405 48 Q410 43 410 35 Q410 18 386 9 Q363 0 333 -5 Q303 -10 271 -10 Z " />
<glyph glyph-name="ccedilla" unicode="&#xe7;" horiz-adv-x="475" d="M429 475 Q457 465 457 447 Q457 436 451.5 431 Q446 426 438 426 Q429 426 401 436.5 Q373 447 329 447 Q283 447 241 431 Q199 415 167 385.5 Q135 356 116 314 Q97 272 97 221 Q97 177 111.5 142 Q126 107 151 83 Q176 59 210 46 Q244 33 284 33 Q328 33 354 43 Q380 53 392 53 Q400 53 405 48 Q410 43 410 35 Q410 18 386 9 Q340 -8 281 -10 L257 -44 L267 -44 Q297 -44 315.5 -58.5 Q334 -73 334 -99 Q334 -116 326 -130.5 Q318 -145 304.5 -155 Q291 -165 274 -170.5 Q257 -176 238 -176 Q201 -176 180 -163 Q172 -158 172 -147 Q172 -133 183 -133 Q188 -133 203 -139 Q218 -145 238 -145 Q263 -145 279.5 -133.5 Q296 -122 296 -102 Q296 -86 284.5 -78 Q273 -70 254 -70 Q242 -70 231 -72.5 Q220 -75 218 -75 Q212 -75 212 -70 Q212 -68 217 -58 L251 -9 Q207 -6 169.5 11 Q132 28 104.5 57.5 Q77 87 61 127 Q45 167 45 217 Q45 278 67.5 328 Q90 378 129 414 Q168 450 220 470 Q272 490 332 490 Q360 490 385 486 Q410 482 429 475 Z " />
<glyph glyph-name="d" unicode="d" horiz-adv-x="590" d="M247 -10 Q208 -10 171.5 5 Q135 20 107 48 Q79 76 62 117 Q45 158 45 210 Q45 276 67.5 328 Q90 380 127 416 Q164 452 211.5 471 Q259 490 309 490 Q369 490 417 460.5 Q465 431 484 373 L527 732 Q530 757 554 757 Q565 757 571.5 752 Q578 747 578 736 Q578 731 578 726.5 Q578 722 577 717 L492 21 Q489 -6 465 -6 Q443 -6 443 15 Q443 20 444 28.5 Q445 37 447 57 L453 113 Q436 83 413 60 Q390 37 363 21.5 Q336 6 306 -2 Q276 -10 247 -10 Z M260 36 Q299 36 337 52.5 Q375 69 405 99.5 Q435 130 453.5 174.5 Q472 219 472 275 Q472 315 459.5 346.5 Q447 378 425.5 399.5 Q404 421 374.5 432.5 Q345 444 311 444 Q269 444 230 428 Q191 412 161 382.5 Q131 353 113 310 Q95 267 95 213 Q95 171 108.5 138 Q122 105 144.5 82.5 Q167 60 197 48 Q227 36 260 36 Z " />
<glyph glyph-name="eth" unicode="&#xf0;" horiz-adv-x="544" d="M351 620 Q422 550 461 468 Q500 386 500 289 Q500 220 479.5 164.5 Q459 109 424 70.5 Q389 32 342 11 Q295 -10 242 -10 Q200 -10 164 5.5 Q128 21 101.5 49 Q75 77 59.5 116 Q44 155 44 202 Q44 259 63.5 307 Q83 355 117 389.5 Q151 424 196 443.5 Q241 463 291 463 Q323 463 349.5 454 Q376 445 396.5 430.5 Q417 416 431 397.5 Q445 379 452 360 L454 361 Q443 426 410 485.5 Q377 545 323 599 L226 526 Q222 524 218 522 Q214 520 211 520 Q204 520 200.5 523.5 Q197 527 197 532 Q197 540 207 546 L303 618 Q267 651 227 679 Q212 688 212 698 Q212 704 217 708.5 Q222 713 228 713 Q237 713 253 702 Q295 672 331 639 L421 707 Q429 712 434 712 Q439 712 443.5 708.5 Q448 705 448 700 Q448 693 441 689 L351 620 Z M248 32 Q292 32 329 49.5 Q366 67 393 96.5 Q420 126 435.5 165.5 Q451 205 451 249 Q451 286 439 318 Q427 350 406 373 Q385 396 356 409.5 Q327 423 293 423 Q250 423 212.5 406.5 Q175 390 147.5 361 Q120 332 104.5 292 Q89 252 89 206 Q89 170 101 138 Q113 106 134 82.5 Q155 59 184 45.5 Q213 32 248 32 Z " />
<glyph glyph-name="e" unicode="e" horiz-adv-x="513" d="M262 -10 Q214 -10 174 6 Q134 22 105.5 51 Q77 80 61 121 Q45 162 45 213 Q45 272 65.5 322.5 Q86 373 121 410.5 Q156 448 202.5 469 Q249 490 301 490 Q384 490 434 440 Q484 390 484 301 Q484 281 474.5 270 Q465 259 441 259 L100 259 Q96 242 96 217 Q96 175 109 141 Q122 107 145 84 Q168 61 199.5 48.5 Q231 36 269 36 Q303 36 329 43.5 Q355 51 374.5 60.5 Q394 70 407 77.5 Q420 85 428 85 Q437 85 442 80 Q447 75 447 67 Q447 51 428 39 Q390 14 348 2 Q306 -10 262 -10 Z M438 298 Q439 365 402 405 Q365 445 298 445 Q266 445 236 434.5 Q206 424 181 404.5 Q156 385 137 358 Q118 331 108 298 L438 298 Z " />
<glyph glyph-name="eacute" unicode="&#xe9;" horiz-adv-x="513" d="M262 -10 Q214 -10 174 6 Q134 22 105.5 51 Q77 80 61 121 Q45 162 45 213 Q45 272 65.5 322.5 Q86 373 121 410.5 Q156 448 202.5 469 Q249 490 301 490 Q384 490 434 440 Q484 390 484 301 Q484 281 474.5 270 Q465 259 441 259 L100 259 Q96 242 96 217 Q96 175 109 141 Q122 107 145 84 Q168 61 199.5 48.5 Q231 36 269 36 Q303 36 329 43.5 Q355 51 374.5 60.5 Q394 70 407 77.5 Q420 85 428 85 Q437 85 442 80 Q447 75 447 67 Q447 51 428 39 Q390 14 348 2 Q306 -10 262 -10 Z M438 298 Q439 365 402 405 Q365 445 298 445 Q266 445 236 434.5 Q206 424 181 404.5 Q156 385 137 358 Q118 331 108 298 L438 298 Z M280 557 Q273 557 268 561.5 Q263 566 263 573 Q263 580 267 585 L370 733 Q384 752 401 752 Q412 752 420 744 Q428 736 428 725 Q428 717 423 709.5 Q418 702 411 694 L303 571 Q296 563 291.5 560 Q287 557 280 557 Z " />
<glyph glyph-name="ecircumflex" unicode="&#xea;" horiz-adv-x="513" d="M262 -10 Q214 -10 174 6 Q134 22 105.5 51 Q77 80 61 121 Q45 162 45 213 Q45 272 65.5 322.5 Q86 373 121 410.5 Q156 448 202.5 469 Q249 490 301 490 Q384 490 434 440 Q484 390 484 301 Q484 281 474.5 270 Q465 259 441 259 L100 259 Q96 242 96 217 Q96 175 109 141 Q122 107 145 84 Q168 61 199.5 48.5 Q231 36 269 36 Q303 36 329 43.5 Q355 51 374.5 60.5 Q394 70 407 77.5 Q420 85 428 85 Q437 85 442 80 Q447 75 447 67 Q447 51 428 39 Q390 14 348 2 Q306 -10 262 -10 Z M438 298 Q439 365 402 405 Q365 445 298 445 Q266 445 236 434.5 Q206 424 181 404.5 Q156 385 137 358 Q118 331 108 298 L438 298 Z M204 574 Q188 574 188 588 Q188 594 194 603 L292 732 Q301 744 308.5 748.5 Q316 753 325 753 Q343 753 353 734 L419 605 Q424 595 424 590 Q422 575 406 575 Q392 575 384 589 L321 708 L226 586 Q215 574 204 574 Z " />
<glyph glyph-name="edieresis" unicode="&#xeb;" horiz-adv-x="513" d="M262 -10 Q214 -10 174 6 Q134 22 105.5 51 Q77 80 61 121 Q45 162 45 213 Q45 272 65.5 322.5 Q86 373 121 410.5 Q156 448 202.5 469 Q249 490 301 490 Q384 490 434 440 Q484 390 484 301 Q484 281 474.5 270 Q465 259 441 259 L100 259 Q96 242 96 217 Q96 175 109 141 Q122 107 145 84 Q168 61 199.5 48.5 Q231 36 269 36 Q303 36 329 43.5 Q355 51 374.5 60.5 Q394 70 407 77.5 Q420 85 428 85 Q437 85 442 80 Q447 75 447 67 Q447 51 428 39 Q390 14 348 2 Q306 -10 262 -10 Z M438 298 Q439 365 402 405 Q365 445 298 445 Q266 445 236 434.5 Q206 424 181 404.5 Q156 385 137 358 Q118 331 108 298 L438 298 Z M237 646 Q222 646 213.5 655.5 Q205 665 205 679 Q205 696 216 708.5 Q227 721 244 721 Q259 721 267.5 711 Q276 701 276 686 Q276 669 265 657.5 Q254 646 237 646 Z M374 646 Q359 646 350.5 655.5 Q342 665 342 679 Q342 696 353 708.5 Q364 721 381 721 Q396 721 404.5 711 Q413 701 413 686 Q413 669 402 657.5 Q391 646 374 646 Z " />
<glyph glyph-name="egrave" unicode="&#xe8;" horiz-adv-x="513" d="M262 -10 Q214 -10 174 6 Q134 22 105.5 51 Q77 80 61 121 Q45 162 45 213 Q45 272 65.5 322.5 Q86 373 121 410.5 Q156 448 202.5 469 Q249 490 301 490 Q384 490 434 440 Q484 390 484 301 Q484 281 474.5 270 Q465 259 441 259 L100 259 Q96 242 96 217 Q96 175 109 141 Q122 107 145 84 Q168 61 199.5 48.5 Q231 36 269 36 Q303 36 329 43.5 Q355 51 374.5 60.5 Q394 70 407 77.5 Q420 85 428 85 Q437 85 442 80 Q447 75 447 67 Q447 51 428 39 Q390 14 348 2 Q306 -10 262 -10 Z M438 298 Q439 365 402 405 Q365 445 298 445 Q266 445 236 434.5 Q206 424 181 404.5 Q156 385 137 358 Q118 331 108 298 L438 298 Z M359 557 Q352 557 347.5 560 Q343 563 336 571 L228 694 Q221 702 216 709.5 Q211 717 211 725 Q211 736 219 744 Q227 752 238 752 Q255 752 269 733 L372 585 Q376 580 376 573 Q376 566 371 561.5 Q366 557 359 557 Z " />
<glyph glyph-name="eogonek" unicode="&#x119;" horiz-adv-x="513" d="M100 259 Q96 242 96 217 Q96 175 109 141 Q122 107 145 84 Q168 61 199.5 48.5 Q231 36 269 36 Q303 36 329 43.5 Q355 51 374.5 60.5 Q394 70 407 77.5 Q420 85 428 85 Q437 85 442 80 Q447 75 447 67 Q447 51 428 39 Q388 13 344 1 Q314 -19 294 -34.5 Q274 -50 263 -62.5 Q252 -75 247.5 -86 Q243 -97 243 -106 Q243 -123 254 -131.5 Q265 -140 280 -140 Q292 -140 299 -137 Q306 -134 313 -134 Q327 -134 327 -148 Q327 -161 312 -168.5 Q297 -176 272 -176 Q240 -176 220 -159 Q200 -142 200 -112 Q200 -87 217.5 -61 Q235 -35 272 -10 L262 -10 Q214 -10 174 6 Q134 22 105.5 51 Q77 80 61 121 Q45 162 45 213 Q45 272 65.5 322.5 Q86 373 121 410.5 Q156 448 202.5 469 Q249 490 301 490 Q384 490 434 440 Q484 390 484 301 Q484 281 474.5 270 Q465 259 441 259 L100 259 Z M298 445 Q266 445 236 434.5 Q206 424 181 404.5 Q156 385 137 358 Q118 331 108 298 L438 298 Q439 365 402 405 Q365 445 298 445 Z " />
<glyph glyph-name="f" unicode="f" horiz-adv-x="313" d="M356 749 Q378 739 378 722 Q378 713 372.5 707.5 Q367 702 359 702 Q352 702 338.5 709 Q325 716 304 716 Q267 716 240.5 693.5 Q214 671 207 618 L190 479 L298 479 Q319 479 319 462 Q319 454 312.5 448 Q306 442 295 442 L186 442 L114 -146 Q112 -172 87 -172 Q62 -172 65 -143 L136 442 L96 442 Q74 442 74 459 Q74 479 99 479 L140 479 L157 617 Q166 692 205 725.5 Q244 759 304 759 Q334 759 356 749 Z " />
<glyph glyph-name="g" unicode="g" horiz-adv-x="575" d="M212 -175 Q168 -175 130.5 -167.5 Q93 -160 65 -147 Q45 -136 45 -121 Q45 -111 50.5 -105.5 Q56 -100 64 -100 Q70 -100 81.5 -105 Q93 -110 111 -116 Q129 -122 154 -127 Q179 -132 212 -132 Q304 -132 360.5 -81 Q417 -30 429 62 L436 120 Q403 69 351 41 Q299 13 241 13 Q200 13 164.5 27 Q129 41 103 67 Q77 93 61.5 131.5 Q46 170 46 219 Q46 283 68 333 Q90 383 125 418 Q160 453 205 471.5 Q250 490 295 490 Q352 490 398.5 459.5 Q445 429 467 372 L468 372 L477 457 Q482 485 505 485 Q517 485 523 476.5 Q529 468 527 454 L480 71 Q473 13 450.5 -33 Q428 -79 393.5 -110.5 Q359 -142 313 -158.5 Q267 -175 212 -175 Z M251 55 Q297 55 335 74.5 Q373 94 399 125 Q425 156 439.5 195 Q454 234 454 274 Q454 311 442.5 343 Q431 375 411 398 Q391 421 362.5 434.5 Q334 448 301 448 Q264 448 227.5 433 Q191 418 161.5 389.5 Q132 361 114 319.5 Q96 278 96 224 Q96 183 108.5 152 Q121 121 142 99 Q163 77 191 66 Q219 55 251 55 Z " />
<glyph glyph-name="h" unicode="h" horiz-adv-x="541" d="M77 -6 Q51 -6 54 23 L144 731 Q147 759 171 759 Q198 759 193 731 L148 384 Q174 435 220.5 462.5 Q267 490 327 490 Q402 490 439 450 Q476 410 476 344 Q476 338 475.5 331 Q475 324 474 317 L439 22 Q436 -6 411 -6 Q387 -6 390 24 L423 311 Q424 319 424.5 325.5 Q425 332 425 339 Q425 392 398.5 420 Q372 448 312 448 Q242 448 194 398 Q146 348 133 254 L103 22 Q100 -6 77 -6 Z " />
<glyph glyph-name="i" unicode="i" horiz-adv-x="222" d="M159 643 Q143 643 134 653.5 Q125 664 125 678 Q125 697 137 710.5 Q149 724 169 724 Q186 724 195 713.5 Q204 703 204 689 Q204 670 191.5 656.5 Q179 643 159 643 Z M82 -7 Q57 -7 60 23 L114 461 Q119 487 141 487 Q167 487 164 461 L109 20 Q106 -7 82 -7 Z " />
<glyph glyph-name="dotlessi" unicode="&#x131;" horiz-adv-x="245" d="M93 -7 Q68 -7 71 23 L125 461 Q130 487 152 487 Q178 487 175 461 L120 20 Q117 -7 93 -7 Z " />
<glyph glyph-name="iacute" unicode="&#xed;" horiz-adv-x="245" d="M93 -7 Q68 -7 71 23 L125 461 Q130 487 152 487 Q178 487 175 461 L120 20 Q117 -7 93 -7 Z M156 552 Q142 552 142 563 Q142 567 145 572 L217 721 Q226 740 244 740 Q255 740 262.5 735 Q270 730 270 720 Q270 710 262 699 L181 569 Q170 552 156 552 Z " />
<glyph glyph-name="icircumflex" unicode="&#xee;" horiz-adv-x="245" d="M93 -7 Q68 -7 71 23 L125 461 Q130 487 152 487 Q178 487 175 461 L120 20 Q117 -7 93 -7 Z M72 574 Q56 574 56 588 Q56 594 62 603 L160 732 Q169 744 176.5 748.5 Q184 753 193 753 Q211 753 221 734 L287 605 Q292 595 292 590 Q290 575 274 575 Q260 575 252 589 L189 708 L94 586 Q83 574 72 574 Z " />
<glyph glyph-name="idieresis" unicode="&#xef;" horiz-adv-x="245" d="M93 -7 Q68 -7 71 23 L125 461 Q130 487 152 487 Q178 487 175 461 L120 20 Q117 -7 93 -7 Z M105 646 Q90 646 81.5 655.5 Q73 665 73 679 Q73 696 84 708.5 Q95 721 112 721 Q127 721 135.5 711 Q144 701 144 686 Q144 669 133 657.5 Q122 646 105 646 Z M242 646 Q227 646 218.5 655.5 Q210 665 210 679 Q210 696 221 708.5 Q232 721 249 721 Q264 721 272.5 711 Q281 701 281 686 Q281 669 270 657.5 Q259 646 242 646 Z " />
<glyph glyph-name="igrave" unicode="&#xec;" horiz-adv-x="245" d="M153 558 Q140 558 132 572 L50 702 Q45 709 45 719 Q45 730 52 736.5 Q59 743 70 743 Q86 743 97 721 L164 583 Q167 575 167 570 Q167 558 153 558 Z M93 -7 Q68 -7 71 23 L125 461 Q130 487 152 487 Q178 487 175 461 L120 20 Q117 -7 93 -7 Z " />
<glyph glyph-name="j" unicode="j" horiz-adv-x="240" d="M175 643 Q158 643 149 653.5 Q140 664 140 678 Q140 697 152 710.5 Q164 724 183 724 Q200 724 209.5 713.5 Q219 703 219 689 Q219 670 206.5 656.5 Q194 643 175 643 Z M4 -176 Q-25 -176 -42 -165 Q-54 -158 -54 -143 Q-54 -135 -49 -130 Q-44 -125 -37 -125 Q-32 -125 -22 -129.5 Q-12 -134 3 -134 Q27 -134 45 -118 Q63 -102 68 -70 L133 461 Q136 487 159 487 Q186 487 182 457 L118 -67 Q111 -122 80 -149 Q49 -176 4 -176 Z " />
<glyph glyph-name="k" unicode="k" horiz-adv-x="454" d="M409 487 Q417 487 423 481.5 Q429 476 429 468 Q429 458 418 448 L190 256 L385 40 Q391 33 395.5 27 Q400 21 400 15 Q400 5 393.5 -1 Q387 -7 376 -7 Q365 -7 358 -1 Q351 5 342 15 L134 253 L105 19 Q103 -7 79 -7 Q53 -7 56 21 L142 731 Q145 756 168 756 Q180 756 187 749 Q194 742 192 730 L135 261 L379 471 Q389 480 395 483.5 Q401 487 409 487 Z " />
<glyph glyph-name="l" unicode="l" horiz-adv-x="255" d="M148 -10 Q106 -10 84.5 12.5 Q63 35 63 74 Q63 80 63.5 85.5 Q64 91 65 97 L143 726 Q145 756 170 756 Q184 756 189.5 748 Q195 740 193 727 L114 98 Q113 93 113 89.5 Q113 86 113 81 Q113 59 123 46 Q133 33 159 33 Q173 33 184.5 36.5 Q196 40 204 40 Q209 40 214 36 Q219 32 219 24 Q219 8 203 0 Q192 -5 177 -7.5 Q162 -10 148 -10 Z " />
<glyph glyph-name="lslash" unicode="&#x142;" horiz-adv-x="255" d="M114 98 Q113 93 113 89.5 Q113 86 113 81 Q113 59 123 46 Q133 33 159 33 Q173 33 184.5 36.5 Q196 40 204 40 Q209 40 214 36 Q219 32 219 24 Q219 8 203 0 Q192 -5 177 -7.5 Q162 -10 148 -10 Q106 -10 84.5 12.5 Q63 35 63 74 Q63 80 63.5 85.5 Q64 91 65 97 L103 401 L71 389 Q67 387 63.5 386 Q60 385 55 385 Q38 385 38 402 Q38 415 53 422 L108 444 L143 726 Q145 756 170 756 Q184 756 189.5 748 Q195 740 193 727 L160 465 L195 479 Q206 483 213 483 Q230 483 230 467 Q230 452 211 444 L155 422 L114 98 Z " />
<glyph glyph-name="m" unicode="m" horiz-adv-x="775" d="M70 -6 Q42 -6 47 23 L101 458 Q103 470 109 477.5 Q115 485 128 485 Q150 485 150 464 Q150 458 149 455 L142 404 Q167 446 207 468.5 Q247 491 292 491 Q338 491 375 467 Q412 443 423 395 Q447 442 489 466 Q531 490 578 490 Q642 490 678 454.5 Q714 419 714 359 Q714 353 714 347 Q714 341 713 335 L677 21 Q674 -6 649 -6 Q625 -6 625 15 Q625 17 625.5 19 Q626 21 626 23 L663 332 Q664 337 664 341 Q664 345 664 349 Q664 392 638 419.5 Q612 447 564 447 Q538 447 514.5 437.5 Q491 428 471.5 411 Q452 394 439 370 Q426 346 423 317 L389 21 Q385 -6 361 -6 Q332 -6 337 23 L375 332 Q376 337 376 340.5 Q376 344 376 349 Q376 391 349.5 419 Q323 447 272 447 Q246 447 222.5 437.5 Q199 428 180 411 Q161 394 148.5 370.5 Q136 347 133 319 L99 21 Q95 -6 70 -6 Z " />
<glyph glyph-name="n" unicode="n" horiz-adv-x="530" d="M72 -6 Q44 -6 49 24 L100 453 Q102 467 108.5 475 Q115 483 128 483 Q138 483 143.5 477 Q149 471 149 463 Q149 457 148 446.5 Q147 436 145 425 L139 377 Q168 434 214.5 462 Q261 490 321 490 Q390 490 430.5 455 Q471 420 471 348 Q471 339 470 330 Q469 321 468 312 L433 21 Q430 -6 406 -6 Q378 -6 383 23 L417 308 Q418 316 418.5 324 Q419 332 419 342 Q419 397 388.5 422 Q358 447 306 447 Q271 447 241 434.5 Q211 422 187.5 398 Q164 374 148 338 Q132 302 127 255 L100 22 Q96 -6 72 -6 Z " />
<glyph glyph-name="ntilde" unicode="&#xf1;" horiz-adv-x="530" d="M72 -6 Q44 -6 49 24 L100 453 Q102 467 108.5 475 Q115 483 128 483 Q138 483 143.5 477 Q149 471 149 463 Q149 457 148 446.5 Q147 436 145 425 L139 377 Q168 434 214.5 462 Q261 490 321 490 Q390 490 430.5 455 Q471 420 471 348 Q471 339 470 330 Q469 321 468 312 L433 21 Q430 -6 406 -6 Q378 -6 383 23 L417 308 Q418 316 418.5 324 Q419 332 419 342 Q419 397 388.5 422 Q358 447 306 447 Q271 447 241 434.5 Q211 422 187.5 398 Q164 374 148 338 Q132 302 127 255 L100 22 Q96 -6 72 -6 Z M381 567 Q358 567 343.5 578 Q329 589 316.5 602.5 Q304 616 291.5 627 Q279 638 260 638 Q241 638 231.5 623.5 Q222 609 217 595 Q210 578 196 578 Q189 578 184.5 583.5 Q180 589 182 600 Q184 612 190 626 Q196 640 206.5 652 Q217 664 231 671.5 Q245 679 262 679 Q285 679 300.5 668 Q316 657 329 643.5 Q342 630 354 619 Q366 608 382 608 Q401 608 411.5 620 Q422 632 426 653 Q430 663 433.5 669 Q437 675 446 675 Q455 675 459 669 Q463 663 463 654 Q462 640 456 624.5 Q450 609 439.5 596 Q429 583 414.5 575 Q400 567 381 567 Z " />
<glyph glyph-name="o" unicode="o" horiz-adv-x="582" d="M260 -10 Q214 -10 175 7 Q136 24 107 54 Q78 84 61.5 125.5 Q45 167 45 215 Q45 273 68.5 323.5 Q92 374 130.5 411 Q169 448 218.5 469 Q268 490 321 490 Q366 490 405.5 473.5 Q445 457 474.5 427.5 Q504 398 520.5 357.5 Q537 317 537 269 Q537 210 513.5 159 Q490 108 451.5 70.5 Q413 33 363 11.5 Q313 -10 260 -10 Z M265 36 Q308 36 348 53.5 Q388 71 418.5 102 Q449 133 467.5 175 Q486 217 486 267 Q486 306 473 338.5 Q460 371 437.5 394.5 Q415 418 383.5 431 Q352 444 316 444 Q273 444 233.5 427 Q194 410 163.5 379.5 Q133 349 114.5 307.5 Q96 266 96 217 Q96 177 109 144 Q122 111 145 87 Q168 63 198.5 49.5 Q229 36 265 36 Z " />
<glyph glyph-name="oacute" unicode="&#xf3;" horiz-adv-x="582" d="M260 -10 Q214 -10 175 7 Q136 24 107 54 Q78 84 61.5 125.5 Q45 167 45 215 Q45 273 68.5 323.5 Q92 374 130.5 411 Q169 448 218.5 469 Q268 490 321 490 Q366 490 405.5 473.5 Q445 457 474.5 427.5 Q504 398 520.5 357.5 Q537 317 537 269 Q537 210 513.5 159 Q490 108 451.5 70.5 Q413 33 363 11.5 Q313 -10 260 -10 Z M265 36 Q308 36 348 53.5 Q388 71 418.5 102 Q449 133 467.5 175 Q486 217 486 267 Q486 306 473 338.5 Q460 371 437.5 394.5 Q415 418 383.5 431 Q352 444 316 444 Q273 444 233.5 427 Q194 410 163.5 379.5 Q133 349 114.5 307.5 Q96 266 96 217 Q96 177 109 144 Q122 111 145 87 Q168 63 198.5 49.5 Q229 36 265 36 Z M316 557 Q309 557 304 561.5 Q299 566 299 573 Q299 580 303 585 L406 733 Q420 752 437 752 Q448 752 456 744 Q464 736 464 725 Q464 717 459 709.5 Q454 702 447 694 L339 571 Q332 563 327.5 560 Q323 557 316 557 Z " />
<glyph glyph-name="ocircumflex" unicode="&#xf4;" horiz-adv-x="582" d="M260 -10 Q214 -10 175 7 Q136 24 107 54 Q78 84 61.5 125.5 Q45 167 45 215 Q45 273 68.5 323.5 Q92 374 130.5 411 Q169 448 218.5 469 Q268 490 321 490 Q366 490 405.5 473.5 Q445 457 474.5 427.5 Q504 398 520.5 357.5 Q537 317 537 269 Q537 210 513.5 159 Q490 108 451.5 70.5 Q413 33 363 11.5 Q313 -10 260 -10 Z M265 36 Q308 36 348 53.5 Q388 71 418.5 102 Q449 133 467.5 175 Q486 217 486 267 Q486 306 473 338.5 Q460 371 437.5 394.5 Q415 418 383.5 431 Q352 444 316 444 Q273 444 233.5 427 Q194 410 163.5 379.5 Q133 349 114.5 307.5 Q96 266 96 217 Q96 177 109 144 Q122 111 145 87 Q168 63 198.5 49.5 Q229 36 265 36 Z M240 574 Q224 574 224 588 Q224 594 230 603 L328 732 Q337 744 344.5 748.5 Q352 753 361 753 Q379 753 389 734 L455 605 Q460 595 460 590 Q458 575 442 575 Q428 575 420 589 L357 708 L262 586 Q251 574 240 574 Z " />
<glyph glyph-name="odieresis" unicode="&#xf6;" horiz-adv-x="582" d="M260 -10 Q214 -10 175 7 Q136 24 107 54 Q78 84 61.5 125.5 Q45 167 45 215 Q45 273 68.5 323.5 Q92 374 130.5 411 Q169 448 218.5 469 Q268 490 321 490 Q366 490 405.5 473.5 Q445 457 474.5 427.5 Q504 398 520.5 357.5 Q537 317 537 269 Q537 210 513.5 159 Q490 108 451.5 70.5 Q413 33 363 11.5 Q313 -10 260 -10 Z M265 36 Q308 36 348 53.5 Q388 71 418.5 102 Q449 133 467.5 175 Q486 217 486 267 Q486 306 473 338.5 Q460 371 437.5 394.5 Q415 418 383.5 431 Q352 444 316 444 Q273 444 233.5 427 Q194 410 163.5 379.5 Q133 349 114.5 307.5 Q96 266 96 217 Q96 177 109 144 Q122 111 145 87 Q168 63 198.5 49.5 Q229 36 265 36 Z M273 646 Q258 646 249.5 655.5 Q241 665 241 679 Q241 696 252 708.5 Q263 721 280 721 Q295 721 303.5 711 Q312 701 312 686 Q312 669 301 657.5 Q290 646 273 646 Z M410 646 Q395 646 386.5 655.5 Q378 665 378 679 Q378 696 389 708.5 Q400 721 417 721 Q432 721 440.5 711 Q449 701 449 686 Q449 669 438 657.5 Q427 646 410 646 Z " />
<glyph glyph-name="ograve" unicode="&#xf2;" horiz-adv-x="582" d="M260 -10 Q214 -10 175 7 Q136 24 107 54 Q78 84 61.5 125.5 Q45 167 45 215 Q45 273 68.5 323.5 Q92 374 130.5 411 Q169 448 218.5 469 Q268 490 321 490 Q366 490 405.5 473.5 Q445 457 474.5 427.5 Q504 398 520.5 357.5 Q537 317 537 269 Q537 210 513.5 159 Q490 108 451.5 70.5 Q413 33 363 11.5 Q313 -10 260 -10 Z M265 36 Q308 36 348 53.5 Q388 71 418.5 102 Q449 133 467.5 175 Q486 217 486 267 Q486 306 473 338.5 Q460 371 437.5 394.5 Q415 418 383.5 431 Q352 444 316 444 Q273 444 233.5 427 Q194 410 163.5 379.5 Q133 349 114.5 307.5 Q96 266 96 217 Q96 177 109 144 Q122 111 145 87 Q168 63 198.5 49.5 Q229 36 265 36 Z M395 557 Q388 557 383.5 560 Q379 563 372 571 L264 694 Q257 702 252 709.5 Q247 717 247 725 Q247 736 255 744 Q263 752 274 752 Q291 752 305 733 L408 585 Q412 580 412 573 Q412 566 407 561.5 Q402 557 395 557 Z " />
<glyph glyph-name="oslash" unicode="&#xf8;" horiz-adv-x="582" d="M455 445 Q493 415 515 370 Q537 325 537 269 Q537 210 513.5 159 Q490 108 451.5 70.5 Q413 33 363 11.5 Q313 -10 260 -10 Q206 -10 159 15 L127 -32 Q119 -44 111 -51 Q103 -58 92 -58 Q79 -58 79 -43 Q79 -34 86 -24 L127 36 Q89 66 67 112 Q45 158 45 215 Q45 273 68.5 323.5 Q92 374 130.5 411 Q169 448 218.5 469 Q268 490 321 490 Q376 490 423 465 L454 511 Q462 522 468.5 527.5 Q475 533 483 533 Q500 533 500 517 Q500 509 494 502 L455 445 Z M96 217 Q96 172 112 136.5 Q128 101 155 77 L395 426 Q378 434 358 439 Q338 444 316 444 Q273 444 233.5 427 Q194 410 163.5 379.5 Q133 349 114.5 307.5 Q96 266 96 217 Z M265 36 Q308 36 348 53.5 Q388 71 418.5 102 Q449 133 467.5 175 Q486 217 486 267 Q486 311 470.5 346 Q455 381 427 404 L187 55 Q223 36 265 36 Z " />
<glyph glyph-name="otilde" unicode="&#xf5;" horiz-adv-x="582" d="M260 -10 Q214 -10 175 7 Q136 24 107 54 Q78 84 61.5 125.5 Q45 167 45 215 Q45 273 68.5 323.5 Q92 374 130.5 411 Q169 448 218.5 469 Q268 490 321 490 Q366 490 405.5 473.5 Q445 457 474.5 427.5 Q504 398 520.5 357.5 Q537 317 537 269 Q537 210 513.5 159 Q490 108 451.5 70.5 Q413 33 363 11.5 Q313 -10 260 -10 Z M265 36 Q308 36 348 53.5 Q388 71 418.5 102 Q449 133 467.5 175 Q486 217 486 267 Q486 306 473 338.5 Q460 371 437.5 394.5 Q415 418 383.5 431 Q352 444 316 444 Q273 444 233.5 427 Q194 410 163.5 379.5 Q133 349 114.5 307.5 Q96 266 96 217 Q96 177 109 144 Q122 111 145 87 Q168 63 198.5 49.5 Q229 36 265 36 Z M406 567 Q383 567 368.5 578 Q354 589 341.5 602.5 Q329 616 316.5 627 Q304 638 285 638 Q266 638 256.5 623.5 Q247 609 242 595 Q235 578 221 578 Q214 578 209.5 583.5 Q205 589 207 600 Q209 612 215 626 Q221 640 231.5 652 Q242 664 256 671.5 Q270 679 287 679 Q310 679 325.5 668 Q341 657 354 643.5 Q367 630 379 619 Q391 608 407 608 Q426 608 436.5 620 Q447 632 451 653 Q455 663 458.5 669 Q462 675 471 675 Q480 675 484 669 Q488 663 488 654 Q487 640 481 624.5 Q475 609 464.5 596 Q454 583 439.5 575 Q425 567 406 567 Z " />
<glyph glyph-name="oe" unicode="&#x153;" horiz-adv-x="898" d="M235 -10 Q193 -10 158 6.5 Q123 23 98 52.5 Q73 82 59 122 Q45 162 45 210 Q45 270 65 321 Q85 372 119.5 409.5 Q154 447 199.5 468.5 Q245 490 296 490 Q365 490 412 448.5 Q459 407 474 336 Q503 408 558.5 449 Q614 490 686 490 Q765 490 811.5 439.5 Q858 389 858 299 Q858 276 851 267.5 Q844 259 822 259 L496 259 Q493 247 492 234.5 Q491 222 491 210 Q491 125 537.5 79.5 Q584 34 663 34 Q698 34 731.5 43 Q765 52 794 72 Q805 77 812.5 80.5 Q820 84 825 84 Q831 84 835.5 79.5 Q840 75 840 67 Q840 51 821 39 Q783 14 741 2 Q699 -10 656 -10 Q576 -10 522.5 32.5 Q469 75 455 147 Q424 75 365 32.5 Q306 -10 235 -10 Z M243 34 Q283 34 319.5 52.5 Q356 71 383 103.5 Q410 136 426 179 Q442 222 442 271 Q442 309 431 341 Q420 373 400.5 396.5 Q381 420 353.5 433 Q326 446 292 446 Q251 446 214.5 428 Q178 410 150.5 378.5 Q123 347 107 304 Q91 261 91 212 Q91 174 102 141.5 Q113 109 132.5 85 Q152 61 180 47.5 Q208 34 243 34 Z M814 297 Q814 329 806 356.5 Q798 384 781 404 Q764 424 739.5 435 Q715 446 682 446 Q650 446 621.5 434.5 Q593 423 570.5 403 Q548 383 531 355.5 Q514 328 504 297 L814 297 Z " />
<glyph glyph-name="p" unicode="p" horiz-adv-x="590" d="M47 -172 Q20 -172 25 -142 L98 455 Q101 485 125 485 Q148 485 148 461 Q148 459 147.5 457 Q147 455 147 453 L136 371 Q170 430 225.5 460 Q281 490 341 490 Q383 490 420.5 475.5 Q458 461 485.5 433 Q513 405 529.5 364.5 Q546 324 546 272 Q546 206 522.5 153.5 Q499 101 460.5 64.5 Q422 28 374.5 9 Q327 -10 279 -10 Q222 -10 174 20 Q126 50 105 108 L75 -144 Q72 -172 47 -172 Z M279 36 Q318 36 356.5 51.5 Q395 67 425.5 97 Q456 127 475 170 Q494 213 494 268 Q494 310 481.5 342.5 Q469 375 447 397.5 Q425 420 395 432 Q365 444 330 444 Q288 444 249.5 428 Q211 412 181.5 382 Q152 352 134.5 309.5 Q117 267 117 215 Q117 172 130 139 Q143 106 165.5 83 Q188 60 217 48 Q246 36 279 36 Z " />
<glyph glyph-name="thorn" unicode="&#xfe;" horiz-adv-x="593" d="M47 -165 Q20 -165 25 -135 L130 726 Q134 755 159 755 Q181 755 181 734 Q181 728 180 725 L136 371 Q170 430 225.5 460 Q281 490 341 490 Q383 490 420.5 475.5 Q458 461 485.5 433 Q513 405 529.5 364.5 Q546 324 546 272 Q546 206 522.5 153.5 Q499 101 460.5 64.5 Q422 28 374.5 9 Q327 -10 279 -10 Q222 -10 174 20 Q126 50 105 108 L75 -137 Q72 -165 47 -165 Z M279 36 Q318 36 356.5 51.5 Q395 67 425.5 97 Q456 127 475 170 Q494 213 494 268 Q494 310 481.5 342.5 Q469 375 447 397.5 Q425 420 395 432 Q365 444 330 444 Q288 444 249.5 428 Q211 412 181.5 382 Q152 352 134.5 309.5 Q117 267 117 215 Q117 172 130 139 Q143 106 165.5 83 Q188 60 217 48 Q246 36 279 36 Z " />
<glyph glyph-name="q" unicode="q" horiz-adv-x="593" d="M443 -172 Q421 -172 421 -149 Q421 -147 421.5 -145 Q422 -143 422 -141 L452 109 Q417 50 361.5 20 Q306 -10 248 -10 Q208 -10 171.5 4.5 Q135 19 107.5 47 Q80 75 63.5 115.5 Q47 156 47 208 Q47 274 68.5 326 Q90 378 126.5 414.5 Q163 451 210 470.5 Q257 490 308 490 Q371 490 418 458 Q465 426 485 363 L496 455 Q501 485 524 485 Q538 485 542 476 Q546 467 545 453 L472 -143 Q467 -172 443 -172 Z M261 33 Q299 33 336.5 49 Q374 65 404 95 Q434 125 453 169 Q472 213 472 269 Q472 311 459.5 344.5 Q447 378 425 400.5 Q403 423 374 435 Q345 447 312 447 Q270 447 231 431 Q192 415 162 385 Q132 355 114 311.5 Q96 268 96 212 Q96 169 109.5 135.5 Q123 102 146 79.5 Q169 57 198.5 45 Q228 33 261 33 Z " />
<glyph glyph-name="r" unicode="r" horiz-adv-x="345" d="M77 -7 Q54 -7 54 14 Q54 19 56 36 Q58 53 60 72 L107 455 Q112 484 135 484 Q157 484 157 461 Q157 456 156 448 Q155 440 152 421 L142 343 L144 343 Q157 373 176 399.5 Q195 426 218.5 446 Q242 466 268.5 477.5 Q295 489 322 489 Q350 489 350 468 Q350 445 319 440 Q275 435 241.5 412 Q208 389 184 354 Q160 319 145 274.5 Q130 230 124 182 L105 19 Q100 -7 77 -7 Z " />
<glyph glyph-name="s" unicode="s" horiz-adv-x="423" d="M174 -10 Q142 -10 108.5 -3.5 Q75 3 58 11 Q41 19 33.5 25.5 Q26 32 26 43 Q26 53 31.5 58.5 Q37 64 45 64 Q50 64 61 59.5 Q72 55 88 49.5 Q104 44 125 39.5 Q146 35 173 35 Q236 35 273 63.5 Q310 92 310 131 Q310 150 301 165 Q292 180 277 191.5 Q262 203 241.5 212.5 Q221 222 198 230 Q141 251 107 279.5 Q73 308 73 356 Q73 385 85.5 409.5 Q98 434 121.5 452 Q145 470 177.5 480 Q210 490 250 490 Q279 490 307.5 485 Q336 480 355 472 Q382 463 382 444 Q382 434 376.5 428.5 Q371 423 363 423 Q358 423 348.5 426.5 Q339 430 325 434.5 Q311 439 292.5 442.5 Q274 446 251 446 Q193 446 159.5 421.5 Q126 397 126 361 Q126 326 153.5 306 Q181 286 229 269 Q257 259 281.5 247 Q306 235 324 220 Q342 205 352 185 Q362 165 362 138 Q362 106 347.5 79 Q333 52 307.5 32 Q282 12 248 1 Q214 -10 174 -10 Z " />
<glyph glyph-name="scaron" unicode="&#x161;" horiz-adv-x="423" d="M174 -10 Q142 -10 108.5 -3.5 Q75 3 58 11 Q41 19 33.5 25.5 Q26 32 26 43 Q26 53 31.5 58.5 Q37 64 45 64 Q50 64 61 59.5 Q72 55 88 49.5 Q104 44 125 39.5 Q146 35 173 35 Q236 35 273 63.5 Q310 92 310 131 Q310 150 301 165 Q292 180 277 191.5 Q262 203 241.5 212.5 Q221 222 198 230 Q141 251 107 279.5 Q73 308 73 356 Q73 385 85.5 409.5 Q98 434 121.5 452 Q145 470 177.5 480 Q210 490 250 490 Q279 490 307.5 485 Q336 480 355 472 Q382 463 382 444 Q382 434 376.5 428.5 Q371 423 363 423 Q358 423 348.5 426.5 Q339 430 325 434.5 Q311 439 292.5 442.5 Q274 446 251 446 Q193 446 159.5 421.5 Q126 397 126 361 Q126 326 153.5 306 Q181 286 229 269 Q257 259 281.5 247 Q306 235 324 220 Q342 205 352 185 Q362 165 362 138 Q362 106 347.5 79 Q333 52 307.5 32 Q282 12 248 1 Q214 -10 174 -10 Z M242 567 Q224 567 212 589 L148 705 Q141 715 141 723 Q141 730 146 735 Q151 740 159 740 Q166 740 170.5 735.5 Q175 731 180 722 L247 612 L339 724 Q354 743 368 743 Q375 743 379 739.5 Q383 736 383 731 Q383 723 370 708 L276 586 Q261 567 242 567 Z " />
<glyph glyph-name="germandbls" unicode="&#xdf;" horiz-adv-x="536" d="M295 -10 Q274 -10 251 -7 Q228 -4 208 1 Q196 4 191.5 10 Q187 16 187 23 Q187 31 193.5 37.5 Q200 44 210 42 Q228 37 249 33.5 Q270 30 291 30 Q357 30 392 63 Q427 96 427 149 Q427 186 403 210.5 Q379 235 336 261 Q317 273 299.5 284.5 Q282 296 268.5 309.5 Q255 323 247 340.5 Q239 358 239 382 Q239 405 245.5 423 Q252 441 262.5 456.5 Q273 472 287 486 Q301 500 317 515 Q334 531 348 545 Q362 559 372 573.5 Q382 588 387.5 603 Q393 618 393 637 Q393 673 368.5 695 Q344 717 302 717 Q279 717 258 709.5 Q237 702 219.5 686 Q202 670 189.5 644 Q177 618 173 582 L104 18 Q101 -6 78 -6 Q67 -6 60 1 Q53 8 55 21 L123 583 Q129 628 145.5 661.5 Q162 695 186.5 716.5 Q211 738 241.5 748.5 Q272 759 305 759 Q365 759 403 727 Q441 695 441 643 Q441 620 434 601 Q427 582 415 565.5 Q403 549 388 533.5 Q373 518 357 503 Q343 489 330 476.5 Q317 464 307 451 Q297 438 291.5 423.5 Q286 409 286 390 Q286 371 293 356.5 Q300 342 312.5 330.5 Q325 319 341 308.5 Q357 298 375 286 Q394 274 412 261.5 Q430 249 443.5 233.5 Q457 218 465 198.5 Q473 179 473 153 Q473 118 461 88 Q449 58 426 36.5 Q403 15 370 2.5 Q337 -10 295 -10 Z " />
<glyph glyph-name="t" unicode="t" horiz-adv-x="335" d="M298 480 Q319 480 319 463 Q319 454 312.5 448.5 Q306 443 295 443 L187 443 L146 123 Q145 118 145 113.5 Q145 109 145 104 Q145 71 159.5 51.5 Q174 32 205 32 Q231 32 241.5 38 Q252 44 263 44 Q278 44 278 28 Q278 12 257 1 Q233 -10 195 -10 Q144 -10 119.5 20.5 Q95 51 95 96 Q95 102 95 107.5 Q95 113 96 119 L136 443 L96 443 Q74 443 74 460 Q74 480 99 480 L141 480 L155 596 Q160 624 182 624 Q209 624 206 595 L191 480 L298 480 L298 480 Z " />
<glyph glyph-name="u" unicode="u" horiz-adv-x="530" d="M207 -10 Q134 -10 98.5 31 Q63 72 63 142 Q63 150 63.5 159 Q64 168 65 178 L100 458 Q103 486 129 486 Q153 486 150 458 L115 179 Q114 170 113.5 161.5 Q113 153 113 145 Q113 91 138.5 61 Q164 31 223 31 Q258 31 287.5 44.5 Q317 58 339.5 82.5 Q362 107 376.5 142 Q391 177 396 219 L424 458 Q428 486 453 486 Q478 486 475 457 L422 21 Q419 -4 395 -4 Q373 -4 376 22 L385 98 L384 98 Q356 46 310.5 18 Q265 -10 207 -10 Z " />
<glyph glyph-name="uacute" unicode="&#xfa;" horiz-adv-x="530" d="M207 -10 Q134 -10 98.5 31 Q63 72 63 142 Q63 150 63.5 159 Q64 168 65 178 L100 458 Q103 486 129 486 Q153 486 150 458 L115 179 Q114 170 113.5 161.5 Q113 153 113 145 Q113 91 138.5 61 Q164 31 223 31 Q258 31 287.5 44.5 Q317 58 339.5 82.5 Q362 107 376.5 142 Q391 177 396 219 L424 458 Q428 486 453 486 Q478 486 475 457 L422 21 Q419 -4 395 -4 Q373 -4 376 22 L385 98 L384 98 Q356 46 310.5 18 Q265 -10 207 -10 Z M291 557 Q284 557 279 561.5 Q274 566 274 573 Q274 580 278 585 L381 733 Q395 752 412 752 Q423 752 431 744 Q439 736 439 725 Q439 717 434 709.5 Q429 702 422 694 L314 571 Q307 563 302.5 560 Q298 557 291 557 Z " />
<glyph glyph-name="ucircumflex" unicode="&#xfb;" horiz-adv-x="530" d="M207 -10 Q134 -10 98.5 31 Q63 72 63 142 Q63 150 63.5 159 Q64 168 65 178 L100 458 Q103 486 129 486 Q153 486 150 458 L115 179 Q114 170 113.5 161.5 Q113 153 113 145 Q113 91 138.5 61 Q164 31 223 31 Q258 31 287.5 44.5 Q317 58 339.5 82.5 Q362 107 376.5 142 Q391 177 396 219 L424 458 Q428 486 453 486 Q478 486 475 457 L422 21 Q419 -4 395 -4 Q373 -4 376 22 L385 98 L384 98 Q356 46 310.5 18 Q265 -10 207 -10 Z M215 574 Q199 574 199 588 Q199 594 205 603 L303 732 Q312 744 319.5 748.5 Q327 753 336 753 Q354 753 364 734 L430 605 Q435 595 435 590 Q433 575 417 575 Q403 575 395 589 L332 708 L237 586 Q226 574 215 574 Z " />
<glyph glyph-name="udieresis" unicode="&#xfc;" horiz-adv-x="530" d="M207 -10 Q134 -10 98.5 31 Q63 72 63 142 Q63 150 63.5 159 Q64 168 65 178 L100 458 Q103 486 129 486 Q153 486 150 458 L115 179 Q114 170 113.5 161.5 Q113 153 113 145 Q113 91 138.5 61 Q164 31 223 31 Q258 31 287.5 44.5 Q317 58 339.5 82.5 Q362 107 376.5 142 Q391 177 396 219 L424 458 Q428 486 453 486 Q478 486 475 457 L422 21 Q419 -4 395 -4 Q373 -4 376 22 L385 98 L384 98 Q356 46 310.5 18 Q265 -10 207 -10 Z M248 646 Q233 646 224.5 655.5 Q216 665 216 679 Q216 696 227 708.5 Q238 721 255 721 Q270 721 278.5 711 Q287 701 287 686 Q287 669 276 657.5 Q265 646 248 646 Z M385 646 Q370 646 361.5 655.5 Q353 665 353 679 Q353 696 364 708.5 Q375 721 392 721 Q407 721 415.5 711 Q424 701 424 686 Q424 669 413 657.5 Q402 646 385 646 Z " />
<glyph glyph-name="ugrave" unicode="&#xf9;" horiz-adv-x="530" d="M207 -10 Q134 -10 98.5 31 Q63 72 63 142 Q63 150 63.5 159 Q64 168 65 178 L100 458 Q103 486 129 486 Q153 486 150 458 L115 179 Q114 170 113.5 161.5 Q113 153 113 145 Q113 91 138.5 61 Q164 31 223 31 Q258 31 287.5 44.5 Q317 58 339.5 82.5 Q362 107 376.5 142 Q391 177 396 219 L424 458 Q428 486 453 486 Q478 486 475 457 L422 21 Q419 -4 395 -4 Q373 -4 376 22 L385 98 L384 98 Q356 46 310.5 18 Q265 -10 207 -10 Z M370 557 Q363 557 358.5 560 Q354 563 347 571 L239 694 Q232 702 227 709.5 Q222 717 222 725 Q222 736 230 744 Q238 752 249 752 Q266 752 280 733 L383 585 Q387 580 387 573 Q387 566 382 561.5 Q377 557 370 557 Z " />
<glyph glyph-name="v" unicode="v" horiz-adv-x="478" d="M208 -10 Q196 -10 189.5 -3 Q183 4 178 19 L63 435 Q61 443 59 450 Q57 457 57 461 Q57 473 64.5 480 Q72 487 83 487 Q102 487 108 466 L217 54 L427 470 Q436 489 453 489 Q464 489 470 482.5 Q476 476 476 466 Q474 460 472 455 L245 16 Q231 -10 208 -10 Z " />
<glyph glyph-name="w" unicode="w" horiz-adv-x="655" d="M602 461 Q612 487 631 487 Q642 487 647 481.5 Q652 476 652 468 Q652 461 648 452 L474 20 Q469 7 461.5 0.5 Q454 -6 442 -6 Q419 -6 415 20 L349 418 L186 19 Q177 -6 154 -6 Q131 -6 127 21 L58 441 Q56 446 55.5 452 Q55 458 55 463 Q55 487 79 487 Q101 487 104 458 L163 64 L324 462 Q334 487 356 487 Q369 487 376 481 Q383 475 385 459 L449 64 L602 461 L602 461 Z " />
<glyph glyph-name="x" unicode="x" horiz-adv-x="435" d="M433 466 Q433 455 421 442 L252 248 L372 48 Q377 41 380.5 33.5 Q384 26 384 19 Q384 8 377 1 Q370 -6 359 -6 Q348 -6 341.5 0 Q335 6 329 17 L217 211 L51 16 Q43 5 35 -0.5 Q27 -6 16 -6 Q-5 -6 -5 11 Q-5 19 -1 25 Q3 31 13 42 L190 244 L73 439 Q64 453 64 462 Q64 473 71.5 479.5 Q79 486 90 486 Q101 486 108 479.5 Q115 473 123 459 L226 282 L380 465 Q389 476 395.5 481 Q402 486 412 486 Q421 486 427 480 Q433 474 433 466 Z " />
<glyph glyph-name="y" unicode="y" horiz-adv-x="494" d="M52 -175 Q18 -175 -4 -166 Q-30 -156 -30 -137 Q-30 -126 -24.5 -121.5 Q-19 -117 -13 -117 Q-5 -117 11 -124.5 Q27 -132 54 -132 Q88 -132 112.5 -110 Q137 -88 160 -48 L192 9 L57 451 Q55 459 55 464 Q55 472 61.5 479 Q68 486 79 486 Q99 486 106 461 L222 64 L441 461 Q448 473 454.5 479.5 Q461 486 472 486 Q481 486 487 481 Q493 476 493 469 Q493 462 490.5 456.5 Q488 451 485 445 L203 -56 Q171 -114 134.5 -144.5 Q98 -175 52 -175 Z " />
<glyph glyph-name="yacute" unicode="&#xfd;" horiz-adv-x="494" d="M52 -175 Q18 -175 -4 -166 Q-30 -156 -30 -137 Q-30 -126 -24.5 -121.5 Q-19 -117 -13 -117 Q-5 -117 11 -124.5 Q27 -132 54 -132 Q88 -132 112.5 -110 Q137 -88 160 -48 L192 9 L57 451 Q55 459 55 464 Q55 472 61.5 479 Q68 486 79 486 Q99 486 106 461 L222 64 L441 461 Q448 473 454.5 479.5 Q461 486 472 486 Q481 486 487 481 Q493 476 493 469 Q493 462 490.5 456.5 Q488 451 485 445 L203 -56 Q171 -114 134.5 -144.5 Q98 -175 52 -175 Z M272 557 Q265 557 260 561.5 Q255 566 255 573 Q255 580 259 585 L362 733 Q376 752 393 752 Q404 752 412 744 Q420 736 420 725 Q420 717 415 709.5 Q410 702 403 694 L295 571 Q288 563 283.5 560 Q279 557 272 557 Z " />
<glyph glyph-name="ydieresis" unicode="&#xff;" horiz-adv-x="494" d="M52 -175 Q18 -175 -4 -166 Q-30 -156 -30 -137 Q-30 -126 -24.5 -121.5 Q-19 -117 -13 -117 Q-5 -117 11 -124.5 Q27 -132 54 -132 Q88 -132 112.5 -110 Q137 -88 160 -48 L192 9 L57 451 Q55 459 55 464 Q55 472 61.5 479 Q68 486 79 486 Q99 486 106 461 L222 64 L441 461 Q448 473 454.5 479.5 Q461 486 472 486 Q481 486 487 481 Q493 476 493 469 Q493 462 490.5 456.5 Q488 451 485 445 L203 -56 Q171 -114 134.5 -144.5 Q98 -175 52 -175 Z M229 646 Q214 646 205.5 655.5 Q197 665 197 679 Q197 696 208 708.5 Q219 721 236 721 Q251 721 259.5 711 Q268 701 268 686 Q268 669 257 657.5 Q246 646 229 646 Z M366 646 Q351 646 342.5 655.5 Q334 665 334 679 Q334 696 345 708.5 Q356 721 373 721 Q388 721 396.5 711 Q405 701 405 686 Q405 669 394 657.5 Q383 646 366 646 Z " />
<glyph glyph-name="z" unicode="z" horiz-adv-x="412" d="M12 0 Q-8 0 -8 17 Q-8 28 4 42 L341 437 L83 437 Q58 437 58 458 Q58 480 86 480 L387 480 Q409 480 409 464 Q409 453 396 438 L57 43 L329 43 Q341 43 348.5 38 Q356 33 356 23 Q356 11 347.5 5.5 Q339 0 325 0 L12 0 L12 0 Z " />
<glyph glyph-name="zcaron" unicode="&#x17e;" horiz-adv-x="412" d="M12 0 Q-8 0 -8 17 Q-8 28 4 42 L341 437 L83 437 Q58 437 58 458 Q58 480 86 480 L387 480 Q409 480 409 464 Q409 453 396 438 L57 43 L329 43 Q341 43 348.5 38 Q356 33 356 23 Q356 11 347.5 5.5 Q339 0 325 0 L12 0 L12 0 Z M236 567 Q218 567 206 589 L142 705 Q135 715 135 723 Q135 730 140 735 Q145 740 153 740 Q160 740 164.5 735.5 Q169 731 174 722 L241 612 L333 724 Q348 743 362 743 Q369 743 373 739.5 Q377 736 377 731 Q377 723 364 708 L270 586 Q255 567 236 567 Z " />
<glyph glyph-name="fi" unicode="&#xfb01;" horiz-adv-x="535" d="M356 749 Q378 739 378 722 Q378 713 372.5 707.5 Q367 702 359 702 Q352 702 338.5 709 Q325 716 304 716 Q267 716 240.5 693.5 Q214 671 207 618 L190 479 L298 479 Q319 479 319 462 Q319 454 312.5 448 Q306 442 295 442 L186 442 L114 -146 Q112 -172 87 -172 Q62 -172 65 -143 L136 442 L96 442 Q74 442 74 459 Q74 479 99 479 L140 479 L157 617 Q166 692 205 725.5 Q244 759 304 759 Q334 759 356 749 Z M472 643 Q456 643 447 653.5 Q438 664 438 678 Q438 697 450 710.5 Q462 724 482 724 Q499 724 508 713.5 Q517 703 517 689 Q517 670 504.5 656.5 Q492 643 472 643 Z M395 -7 Q370 -7 373 23 L427 461 Q432 487 454 487 Q480 487 477 461 L422 20 Q419 -7 395 -7 Z " />
<glyph glyph-name="fl" unicode="&#xfb02;" horiz-adv-x="568" d="M356 749 Q378 739 378 722 Q378 713 372.5 707.5 Q367 702 359 702 Q352 702 338.5 709 Q325 716 304 716 Q267 716 240.5 693.5 Q214 671 207 618 L190 479 L298 479 Q319 479 319 462 Q319 454 312.5 448 Q306 442 295 442 L186 442 L114 -146 Q112 -172 87 -172 Q62 -172 65 -143 L136 442 L96 442 Q74 442 74 459 Q74 479 99 479 L140 479 L157 617 Q166 692 205 725.5 Q244 759 304 759 Q334 759 356 749 Z M461 -10 Q419 -10 397.5 12.5 Q376 35 376 74 Q376 80 376.5 85.5 Q377 91 378 97 L456 726 Q458 756 483 756 Q497 756 502.5 748 Q508 740 506 727 L427 98 Q426 93 426 89.5 Q426 86 426 81 Q426 59 436 46 Q446 33 472 33 Q486 33 497.5 36.5 Q509 40 517 40 Q522 40 527 36 Q532 32 532 24 Q532 8 516 0 Q505 -5 490 -7.5 Q475 -10 461 -10 Z " />
<glyph glyph-name="ordfeminine" unicode="&#xaa;" horiz-adv-x="400" d="M205 424 Q180 424 157 433 Q134 442 117 458.5 Q100 475 89.5 499 Q79 523 79 553 Q79 591 92.5 622 Q106 653 128 674.5 Q150 696 179 707.5 Q208 719 240 719 Q277 719 306 702 Q335 685 349 653 L353 690 Q354 712 376 712 Q390 712 393.5 705 Q397 698 395 687 L367 454 Q365 429 343 429 Q332 429 328 435.5 Q324 442 325 452 L329 486 Q307 457 273.5 440.5 Q240 424 205 424 Z M220 459 Q242 459 263.5 467.5 Q285 476 302 492.5 Q319 509 330 533 Q341 557 341 587 Q341 633 313 658.5 Q285 684 247 684 Q223 684 201 675 Q179 666 161.5 649.5 Q144 633 134 609.5 Q124 586 124 556 Q124 509 153 484 Q182 459 220 459 Z M89 333 Q73 333 73 347 Q73 362 90 362 L339 362 Q356 362 356 348 Q356 341 351 337 Q346 333 338 333 L89 333 Z " />
<glyph glyph-name="ordmasculine" unicode="&#xba;" horiz-adv-x="395" d="M221 432 Q192 432 167.5 441.5 Q143 451 125 468.5 Q107 486 96.5 509.5 Q86 533 86 561 Q86 595 100 624 Q114 653 137.5 674.5 Q161 696 192 708 Q223 720 256 720 Q284 720 308.5 710.5 Q333 701 351.5 684 Q370 667 380.5 643.5 Q391 620 391 592 Q391 558 377 529 Q363 500 339.5 478.5 Q316 457 285.5 444.5 Q255 432 221 432 Z M226 469 Q250 469 272 478 Q294 487 311.5 503 Q329 519 339 541.5 Q349 564 349 590 Q349 632 321 657.5 Q293 683 252 683 Q228 683 206 674 Q184 665 166.5 649.5 Q149 634 139 612 Q129 590 129 564 Q129 522 157 495.5 Q185 469 226 469 Z M100 334 Q84 334 84 348 Q84 362 102 362 L338 362 Q355 362 355 349 Q355 341 350 337.5 Q345 334 337 334 L100 334 Z " />
<glyph glyph-name="Delta" unicode="&#x394;" horiz-adv-x="585" d="M0 0 Q-28 0 -28 19 Q-28 28 -21 41 L324 691 Q334 711 353 711 Q369 711 375 689 L556 44 Q559 30 559 23 Q559 9 551 4.5 Q543 0 527 0 L0 0 Z M509 42 L343 641 L26 42 L509 42 Z " />
<glyph glyph-name="Omega" unicode="&#x3a9;" horiz-adv-x="683" d="M65 0 Q51 0 43 6 Q35 12 37 25 Q37 44 67 44 L237 44 L249 128 Q165 163 116.5 232 Q68 301 68 392 Q68 462 95 522 Q122 582 168 626 Q214 670 274.5 695 Q335 720 402 720 Q459 720 507.5 700.5 Q556 681 590.5 646 Q625 611 644.5 563 Q664 515 664 459 Q664 402 645 350.5 Q626 299 592 256.5 Q558 214 511 180.5 Q464 147 408 126 L398 44 L566 44 Q592 44 592 23 Q592 0 563 0 L381 0 Q348 0 351 33 L362 123 Q366 148 390 158 Q436 176 476.5 203.5 Q517 231 547 268 Q577 305 594.5 351 Q612 397 612 451 Q612 499 596.5 540 Q581 581 553 611 Q525 641 485 657.5 Q445 674 397 674 Q339 674 288 652 Q237 630 199.5 591.5 Q162 553 140 501 Q118 449 118 388 Q118 306 160 247.5 Q202 189 271 160 Q296 147 293 121 L281 29 Q278 0 247 0 L65 0 L65 0 Z " />
<glyph glyph-name="mu" unicode="&#x3bc;" horiz-adv-x="536" d="M48 -200 Q26 -200 26 -180 Q26 -174 27 -167.5 Q28 -161 29 -154 L62 87 L104 458 Q107 486 132 486 Q155 486 155 464 Q155 459 152 434 L124 197 Q121 175 120 163.5 Q119 152 119 139 Q119 80 149 55 Q179 30 227 30 Q260 30 289 43 Q318 56 341.5 81 Q365 106 381 143 Q397 180 403 228 L430 458 Q434 486 458 486 Q481 486 481 464 Q481 460 478 433 L429 27 Q426 -3 400 -3 Q381 -3 381 19 Q381 24 383.5 45 Q386 66 391 102 L390 103 Q363 47 319.5 18.5 Q276 -10 220 -10 Q177 -10 146.5 7 Q116 24 102 60 L76 -175 Q73 -200 48 -200 Z " />
<glyph glyph-name="pi" unicode="&#x3c0;" horiz-adv-x="513" d="M479 480 Q504 480 504 461 Q504 439 476 439 L410 439 L370 124 Q368 107 367 95.5 Q366 84 366 77 Q366 57 376 45 Q386 33 409 33 Q426 33 436 36 Q446 39 452 39 Q465 39 465 25 Q465 10 447 0 Q425 -10 397 -10 Q355 -10 336 11.5 Q317 33 317 68 Q317 76 318.5 91 Q320 106 322 126 L361 439 L186 439 L134 21 Q132 7 124.5 0.5 Q117 -6 106 -6 Q86 -6 86 16 L86 22 L137 439 L73 439 Q48 439 48 459 Q48 480 78 480 L479 480 L479 480 Z " />
<glyph glyph-name="zero" unicode="0" horiz-adv-x="619" d="M281 -10 Q233 -10 193 10 Q153 30 124.5 68.5 Q96 107 80.5 162.5 Q65 218 65 289 Q65 386 89.5 465.5 Q114 545 155.5 601.5 Q197 658 252 689 Q307 720 368 720 Q418 720 457.5 699 Q497 678 524 639 Q551 600 565.5 545 Q580 490 580 421 Q580 323 556 243 Q532 163 491 107 Q450 51 396 20.5 Q342 -10 281 -10 Z M288 35 Q345 35 390.5 66 Q436 97 467.5 148 Q499 199 515.5 266 Q532 333 533 405 Q534 427 532.5 446.5 Q531 466 528 486 Q517 575 475 625.5 Q433 676 362 676 Q312 676 270.5 651 Q229 626 197 583 Q165 540 144.5 484 Q124 428 117 367 Q115 347 114 328 Q113 309 113 290 Q113 169 159.5 102 Q206 35 288 35 Z " />
<glyph glyph-name="one" unicode="1" horiz-adv-x="421" d="M202 -6 Q176 -6 179 22 L257 654 L116 587 Q112 585 106 585 Q97 585 92 591.5 Q87 598 87 606 Q87 618 99 625 L266 703 Q277 708 283 710.5 Q289 713 295 713 Q304 713 309 707 Q314 701 312 689 L229 20 Q226 -6 202 -6 Z " />
<glyph glyph-name="two" unicode="2" horiz-adv-x="540" d="M60 0 Q34 0 34 18 Q34 30 47 43 L304 311 Q338 346 364 376 Q390 406 408 434 Q426 462 435 489 Q444 516 444 545 Q444 574 432 598 Q420 622 399 639 Q378 656 348.5 665.5 Q319 675 284 675 Q252 675 226 668.5 Q200 662 180.5 654.5 Q161 647 148 641 Q135 635 129 635 Q121 635 115 640.5 Q109 646 109 655 Q109 668 125 677 Q158 697 201 708.5 Q244 720 292 720 Q337 720 374.5 708 Q412 696 439 674 Q466 652 480.5 621 Q495 590 495 552 Q495 518 485.5 487.5 Q476 457 458 427 Q440 397 413.5 366 Q387 335 353 300 L104 43 L440 43 Q466 43 466 22 Q466 0 438 0 L60 0 L60 0 Z " />
<glyph glyph-name="three" unicode="3" horiz-adv-x="522" d="M199 -10 Q154 -10 115.5 -2 Q77 6 48 18 Q21 29 21 51 Q21 71 39 71 Q44 71 51 68 Q58 65 68 61 Q94 50 126 42.5 Q158 35 200 35 Q247 35 287 49 Q327 63 356.5 87 Q386 111 402.5 143.5 Q419 176 419 212 Q419 274 362 313 Q305 352 197 352 Q167 352 167 375 Q167 398 198 398 Q256 398 299.5 412.5 Q343 427 372 449.5 Q401 472 416 500.5 Q431 529 431 558 Q431 608 390.5 641.5 Q350 675 278 675 Q247 675 218 669 Q189 663 163 652 Q153 649 145 646 Q137 643 129 643 Q111 643 111 661 Q111 673 121.5 680.5 Q132 688 148 694 Q179 706 214 713 Q249 720 284 720 Q332 720 369 708 Q406 696 431.5 676 Q457 656 470 628 Q483 600 483 569 Q483 538 470.5 507.5 Q458 477 433.5 450.5 Q409 424 374 405 Q339 386 294 378 Q376 367 424 322.5 Q472 278 472 212 Q472 167 451.5 126.5 Q431 86 394.5 55.5 Q358 25 308 7.5 Q258 -10 199 -10 Z " />
<glyph glyph-name="four" unicode="4" horiz-adv-x="559" d="M506 187 Q518 187 524 181 Q530 175 530 166 Q530 144 504 144 L421 144 L408 21 Q405 -6 380 -6 Q369 -6 364 2 Q359 10 360 23 L373 144 L41 144 Q10 144 10 168 Q10 177 14 184 Q18 191 26 199 L425 692 Q441 713 458 713 Q481 713 479 684 L426 187 L506 187 Z M70 187 L378 187 L416 532 Q418 555 421 579 Q424 603 427 629 Q411 607 396 586.5 Q381 566 364 546 L70 187 Z " />
<glyph glyph-name="five" unicode="5" horiz-adv-x="562" d="M196 -10 Q161 -10 127 -4 Q93 2 65 14 Q51 19 46 25.5 Q41 32 41 42 Q41 51 47 56.5 Q53 62 60 62 Q66 62 78 57.5 Q90 53 107 48 Q124 43 146.5 38.5 Q169 34 197 34 Q249 34 295 49.5 Q341 65 375.5 92.5 Q410 120 430 159 Q450 198 450 245 Q450 281 436 310.5 Q422 340 397.5 361 Q373 382 338.5 393.5 Q304 405 263 405 Q235 405 212.5 401.5 Q190 398 173.5 393.5 Q157 389 146 385.5 Q135 382 129 382 Q112 382 112 399 Q112 407 114 412 L204 684 Q213 710 239 710 L501 710 Q525 710 525 691 Q525 666 499 666 L242 666 L161 427 Q187 437 218 441.5 Q249 446 281 446 Q329 446 370 432.5 Q411 419 440 394 Q469 369 485.5 332.5 Q502 296 502 251 Q502 192 477.5 144 Q453 96 411 62 Q369 28 313.5 9 Q258 -10 196 -10 Z " />
<glyph glyph-name="six" unicode="6" horiz-adv-x="533" d="M237 -10 Q192 -10 154.5 4 Q117 18 90 43.5 Q63 69 48 104.5 Q33 140 33 182 Q33 236 56 290.5 Q79 345 138 410 L403 701 Q415 716 430 716 Q450 716 450 698 Q450 691 443 681 L219 436 Q208 424 191.5 407.5 Q175 391 153 369 Q191 402 226 415.5 Q261 429 299 429 Q343 429 379.5 415 Q416 401 442 375.5 Q468 350 482.5 314.5 Q497 279 497 236 Q497 182 474.5 137 Q452 92 415.5 59.5 Q379 27 332.5 8.5 Q286 -10 237 -10 Z M242 35 Q282 35 319.5 50.5 Q357 66 385.5 92.5 Q414 119 431.5 155 Q449 191 449 232 Q449 267 437 296 Q425 325 403.5 345.5 Q382 366 351.5 377.5 Q321 389 285 389 Q244 389 207 373 Q170 357 142 330 Q114 303 97.5 266.5 Q81 230 81 188 Q81 155 93 127 Q105 99 126 78.5 Q147 58 176.5 46.5 Q206 35 242 35 Z " />
<glyph glyph-name="seven" unicode="7" horiz-adv-x="475" d="M61 -3 Q42 -3 42 15 Q42 22 47 30 L452 663 L124 663 Q96 663 96 685 Q96 710 126 710 L488 710 Q515 710 515 690 Q515 682 509 672 L92 17 Q85 6 78.5 1.5 Q72 -3 61 -3 Z " />
<glyph glyph-name="eight" unicode="8" horiz-adv-x="596" d="M267 -8 Q222 -8 184 5 Q146 18 118 42 Q90 66 74 99.5 Q58 133 58 174 Q58 213 72.5 247 Q87 281 111.5 307.5 Q136 334 167.5 352.5 Q199 371 233 379 Q185 396 158.5 434 Q132 472 132 524 Q132 567 150 603 Q168 639 198.5 665 Q229 691 270 705.5 Q311 720 357 720 Q396 720 429.5 708.5 Q463 697 487 676 Q511 655 524.5 625.5 Q538 596 538 560 Q538 495 498.5 447 Q459 399 396 379 Q423 371 446.5 356 Q470 341 488 319.5 Q506 298 516 271 Q526 244 526 213 Q526 164 505 123.5 Q484 83 448.5 53.5 Q413 24 366 8 Q319 -8 267 -8 Z M316 396 Q355 396 387 408.5 Q419 421 442.5 442.5 Q466 464 479 493 Q492 522 492 555 Q492 583 481.5 605.5 Q471 628 452.5 644.5 Q434 661 408.5 670 Q383 679 353 679 Q318 679 286 667.5 Q254 656 230 635.5 Q206 615 192 586.5 Q178 558 178 524 Q178 468 214 432 Q250 396 316 396 Z M270 34 Q313 34 350.5 47.5 Q388 61 416 85 Q444 109 460.5 141.5 Q477 174 477 212 Q477 245 464 271.5 Q451 298 429 317.5 Q407 337 376.5 347.5 Q346 358 312 358 Q273 358 236 345 Q199 332 170.5 308.5 Q142 285 124.5 252 Q107 219 107 180 Q107 148 119 121.5 Q131 95 153 75.5 Q175 56 204.5 45 Q234 34 270 34 Z " />
<glyph glyph-name="nine" unicode="9" horiz-adv-x="533" d="M323 720 Q368 720 405.5 706 Q443 692 470 666.5 Q497 641 512 605.5 Q527 570 527 528 Q527 474 504 419.5 Q481 365 422 300 L157 9 Q145 -6 130 -6 Q110 -6 110 12 Q110 17 112 20.5 Q114 24 117 29 L341 274 Q352 286 368.5 302.5 Q385 319 407 341 Q369 308 334 294.5 Q299 281 261 281 Q217 281 180.5 295 Q144 309 118 334.5 Q92 360 77.5 395.5 Q63 431 63 474 Q63 528 85.5 573 Q108 618 144.5 650.5 Q181 683 227.5 701.5 Q274 720 323 720 Z M318 675 Q278 675 240.5 659.5 Q203 644 174.5 617.5 Q146 591 128.5 555 Q111 519 111 478 Q111 443 123 414 Q135 385 156.5 364.5 Q178 344 208.5 332.5 Q239 321 275 321 Q316 321 353 337 Q390 353 418 380 Q446 407 462.5 443.5 Q479 480 479 522 Q479 555 467 583 Q455 611 434 631.5 Q413 652 383.5 663.5 Q354 675 318 675 Z " />
<glyph glyph-name="onesuperior" unicode="&#xb9;" horiz-adv-x="315" d="M197 415 Q176 415 179 440 L223 796 L140 764 Q134 762 128 760 Q122 758 116 758 Q101 758 101 774 Q101 787 117 794 L224 835 Q241 843 251 843 Q259 843 263.5 838.5 Q268 834 266 823 L219 439 Q216 415 197 415 Z " />
<glyph glyph-name="twosuperior" unicode="&#xb2;" horiz-adv-x="364" d="M109 422 Q84 422 84 440 Q84 451 95 463 L235 608 Q273 646 297 677 Q321 708 321 744 Q321 775 297.5 795 Q274 815 231 815 Q197 815 172 805 Q147 795 138 795 Q124 795 124 808 Q124 819 142 829 Q163 839 187.5 844.5 Q212 850 238 850 Q292 850 326.5 823 Q361 796 361 751 Q361 709 337.5 676 Q314 643 274 602 L131 457 L315 457 Q336 457 336 440 Q336 422 313 422 L109 422 L109 422 Z " />
<glyph glyph-name="threesuperior" unicode="&#xb3;" horiz-adv-x="359" d="M183 416 Q158 416 137 419.5 Q116 423 98 429 Q76 435 76 450 Q76 459 82 462.5 Q88 466 96 464 Q116 459 136 454.5 Q156 450 183 450 Q211 450 234 457.5 Q257 465 274 478.5 Q291 492 300.5 509.5 Q310 527 310 547 Q310 584 279 606.5 Q248 629 194 629 L177 629 Q160 629 160 644 Q160 661 180 661 Q214 661 239 669 Q264 677 281 689.5 Q298 702 306.5 718 Q315 734 315 750 Q315 779 291 798.5 Q267 818 227 818 Q199 818 176.5 810 Q154 802 147 802 Q134 802 134 816 Q134 829 152 835 Q189 850 233 850 Q292 850 323.5 823.5 Q355 797 355 759 Q355 741 348 723.5 Q341 706 326.5 691 Q312 676 291.5 664.5 Q271 653 244 648 Q295 640 323 613.5 Q351 587 351 548 Q351 521 338.5 497 Q326 473 303.5 455 Q281 437 250 426.5 Q219 416 183 416 Z " />
<glyph glyph-name="fraction" unicode="&#x2044;" horiz-adv-x="119" d="M-207 -11 Q-211 -8 -211 -3 Q-211 3 -207 7 L320 696 Q324 702 330 702 Q335 702 338 699 Q342 695 342 689 Q342 685 339 681 L-189 -8 Q-194 -14 -199 -14 Q-204 -14 -207 -11 Z " />
<glyph glyph-name="onehalf" unicode="&#xbd;" horiz-adv-x="788" d="M184 286 Q163 286 166 311 L210 667 L127 635 Q121 633 115 631 Q109 629 103 629 Q88 629 88 645 Q88 658 104 665 L211 706 Q228 714 238 714 Q246 714 250.5 709.5 Q255 705 253 694 L206 310 Q203 286 184 286 Z M98 -11 Q94 -8 94 -3 Q94 3 98 7 L625 696 Q629 702 635 702 Q640 702 643 699 Q647 695 647 689 Q647 685 644 681 L116 -8 Q111 -14 106 -14 Q101 -14 98 -11 Z M481 0 Q456 0 456 18 Q456 29 467 41 L607 186 Q645 224 669 255 Q693 286 693 322 Q693 353 669.5 373 Q646 393 603 393 Q569 393 544 383 Q519 373 510 373 Q496 373 496 386 Q496 397 514 407 Q535 417 559.5 422.5 Q584 428 610 428 Q664 428 698.5 401 Q733 374 733 329 Q733 287 709.5 254 Q686 221 646 180 L503 35 L687 35 Q708 35 708 18 Q708 0 685 0 L481 0 L481 0 Z " />
<glyph glyph-name="onequarter" unicode="&#xbc;" horiz-adv-x="767" d="M184 286 Q163 286 166 311 L210 667 L127 635 Q121 633 115 631 Q109 629 103 629 Q88 629 88 645 Q88 658 104 665 L211 706 Q228 714 238 714 Q246 714 250.5 709.5 Q255 705 253 694 L206 310 Q203 286 184 286 Z M98 -11 Q94 -8 94 -3 Q94 3 98 7 L625 696 Q629 702 635 702 Q640 702 643 699 Q647 695 647 689 Q647 685 644 681 L116 -8 Q111 -14 106 -14 Q101 -14 98 -11 Z M704 117 Q723 117 723 102 Q723 94 716.5 89 Q710 84 701 84 L670 84 L662 21 Q660 10 654.5 3.5 Q649 -3 640 -3 Q621 -3 623 21 L630 84 L456 84 Q442 84 436 90 Q430 96 430 105 Q430 112 434.5 118.5 Q439 125 444 132 L663 407 Q677 424 691 424 Q700 424 705.5 417.5 Q711 411 709 399 L674 117 L704 117 Z M473 117 L636 117 L666 360 L473 117 Z " />
<glyph glyph-name="threequarters" unicode="&#xbe;" horiz-adv-x="817" d="M164 286 Q139 286 118 289.5 Q97 293 79 299 Q57 305 57 320 Q57 329 63 332.5 Q69 336 77 334 Q97 329 117 324.5 Q137 320 164 320 Q192 320 215 327.5 Q238 335 255 348.5 Q272 362 281.5 379.5 Q291 397 291 417 Q291 454 260 476.5 Q229 499 175 499 L158 499 Q141 499 141 514 Q141 531 161 531 Q195 531 220 539 Q245 547 262 559.5 Q279 572 287.5 588 Q296 604 296 620 Q296 649 272 668.5 Q248 688 208 688 Q180 688 157.5 680 Q135 672 128 672 Q115 672 115 686 Q115 699 133 705 Q170 720 214 720 Q273 720 304.5 693.5 Q336 667 336 629 Q336 611 329 593.5 Q322 576 307.5 561 Q293 546 272.5 534.5 Q252 523 225 518 Q276 510 304 483.5 Q332 457 332 418 Q332 391 319.5 367 Q307 343 284.5 325 Q262 307 231 296.5 Q200 286 164 286 Z M148 -11 Q144 -8 144 -3 Q144 3 148 7 L675 696 Q679 702 685 702 Q690 702 693 699 Q697 695 697 689 Q697 685 694 681 L166 -8 Q161 -14 156 -14 Q151 -14 148 -11 Z M754 117 Q773 117 773 102 Q773 94 766.5 89 Q760 84 751 84 L720 84 L712 21 Q710 10 704.5 3.5 Q699 -3 690 -3 Q671 -3 673 21 L680 84 L506 84 Q492 84 486 90 Q480 96 480 105 Q480 112 484.5 118.5 Q489 125 494 132 L713 407 Q727 424 741 424 Q750 424 755.5 417.5 Q761 411 759 399 L724 117 L754 117 Z M523 117 L686 117 L716 360 L523 117 Z " />
<glyph glyph-name="oneeighth" unicode="&#x215b;" horiz-adv-x="767" d="M184 286 Q163 286 166 311 L210 667 L127 635 Q121 633 115 631 Q109 629 103 629 Q88 629 88 645 Q88 658 104 665 L211 706 Q228 714 238 714 Q246 714 250.5 709.5 Q255 705 253 694 L206 310 Q203 286 184 286 Z M573 -5 Q546 -5 522.5 2.5 Q499 10 482 24.5 Q465 39 455 59 Q445 79 445 104 Q445 128 454 147.5 Q463 167 477.5 182.5 Q492 198 511 209 Q530 220 551 225 Q522 236 506 258.5 Q490 281 490 312 Q490 338 501 359.5 Q512 381 530.5 396 Q549 411 574.5 419.5 Q600 428 629 428 Q677 428 707.5 402 Q738 376 738 334 Q738 295 714.5 266 Q691 237 653 225 Q686 217 708.5 191 Q731 165 731 128 Q731 98 718.5 73.5 Q706 49 684 31.5 Q662 14 633.5 4.5 Q605 -5 573 -5 Z M604 237 Q648 237 676.5 263.5 Q705 290 705 328 Q705 360 682 380 Q659 400 624 400 Q604 400 585.5 393.5 Q567 387 553 375 Q539 363 531 346.5 Q523 330 523 310 Q523 278 544.5 257.5 Q566 237 604 237 Z M578 25 Q602 25 623 32.5 Q644 40 660.5 53.5 Q677 67 686.5 86 Q696 105 696 127 Q696 145 688.5 160 Q681 175 668 186 Q655 197 637.5 203.5 Q620 210 600 210 Q577 210 556 202 Q535 194 519 180.5 Q503 167 493 148.5 Q483 130 483 109 Q483 72 509 48.5 Q535 25 578 25 Z M98 -11 Q94 -8 94 -3 Q94 3 98 7 L625 696 Q629 702 635 702 Q640 702 643 699 Q647 695 647 689 Q647 685 644 681 L116 -8 Q111 -14 106 -14 Q101 -14 98 -11 Z " />
<glyph glyph-name="threeeighths" unicode="&#x215c;" horiz-adv-x="817" d="M164 286 Q139 286 118 289.5 Q97 293 79 299 Q57 305 57 320 Q57 329 63 332.5 Q69 336 77 334 Q97 329 117 324.5 Q137 320 164 320 Q192 320 215 327.5 Q238 335 255 348.5 Q272 362 281.5 379.5 Q291 397 291 417 Q291 454 260 476.5 Q229 499 175 499 L158 499 Q141 499 141 514 Q141 531 161 531 Q195 531 220 539 Q245 547 262 559.5 Q279 572 287.5 588 Q296 604 296 620 Q296 649 272 668.5 Q248 688 208 688 Q180 688 157.5 680 Q135 672 128 672 Q115 672 115 686 Q115 699 133 705 Q170 720 214 720 Q273 720 304.5 693.5 Q336 667 336 629 Q336 611 329 593.5 Q322 576 307.5 561 Q293 546 272.5 534.5 Q252 523 225 518 Q276 510 304 483.5 Q332 457 332 418 Q332 391 319.5 367 Q307 343 284.5 325 Q262 307 231 296.5 Q200 286 164 286 Z M148 -11 Q144 -8 144 -3 Q144 3 148 7 L675 696 Q679 702 685 702 Q690 702 693 699 Q697 695 697 689 Q697 685 694 681 L166 -8 Q161 -14 156 -14 Q151 -14 148 -11 Z M623 -5 Q596 -5 572.5 2.5 Q549 10 532 24.5 Q515 39 505 59 Q495 79 495 104 Q495 128 504 147.5 Q513 167 527.5 182.5 Q542 198 561 209 Q580 220 601 225 Q572 236 556 258.5 Q540 281 540 312 Q540 338 551 359.5 Q562 381 580.5 396 Q599 411 624.5 419.5 Q650 428 679 428 Q727 428 757.5 402 Q788 376 788 334 Q788 295 764.5 266 Q741 237 703 225 Q736 217 758.5 191 Q781 165 781 128 Q781 98 768.5 73.5 Q756 49 734 31.5 Q712 14 683.5 4.5 Q655 -5 623 -5 Z M654 237 Q698 237 726.5 263.5 Q755 290 755 328 Q755 360 732 380 Q709 400 674 400 Q654 400 635.5 393.5 Q617 387 603 375 Q589 363 581 346.5 Q573 330 573 310 Q573 278 594.5 257.5 Q616 237 654 237 Z M628 25 Q652 25 673 32.5 Q694 40 710.5 53.5 Q727 67 736.5 86 Q746 105 746 127 Q746 145 738.5 160 Q731 175 718 186 Q705 197 687.5 203.5 Q670 210 650 210 Q627 210 606 202 Q585 194 569 180.5 Q553 167 543 148.5 Q533 130 533 109 Q533 72 559 48.5 Q585 25 628 25 Z " />
<glyph glyph-name="fiveeighths" unicode="&#x215d;" horiz-adv-x="795" d="M140 283 Q101 283 71 295 Q63 298 57.5 302.5 Q52 307 52 316 Q52 324 58 327.5 Q64 331 72 329 Q86 325 102.5 321 Q119 317 137 317 Q167 317 193 326 Q219 335 238 350.5 Q257 366 268 388 Q279 410 279 437 Q279 479 249.5 503 Q220 527 174 527 Q156 527 137 523 Q118 519 110 519 Q93 519 93 534 Q93 537 95 543 L139 686 Q146 714 177 714 L310 714 Q333 714 333 698 Q333 680 309 680 L173 680 L131 550 Q161 558 191 558 Q218 558 241.5 550 Q265 542 282.5 527 Q300 512 310 490.5 Q320 469 320 441 Q320 406 305 377 Q290 348 265.5 327 Q241 306 208.5 294.5 Q176 283 140 283 Z M126 -11 Q122 -8 122 -3 Q122 3 126 7 L653 696 Q657 702 663 702 Q668 702 671 699 Q675 695 675 689 Q675 685 672 681 L144 -8 Q139 -14 134 -14 Q129 -14 126 -11 Z M601 -5 Q574 -5 550.5 2.5 Q527 10 510 24.5 Q493 39 483 59 Q473 79 473 104 Q473 128 482 147.5 Q491 167 505.5 182.5 Q520 198 539 209 Q558 220 579 225 Q550 236 534 258.5 Q518 281 518 312 Q518 338 529 359.5 Q540 381 558.5 396 Q577 411 602.5 419.5 Q628 428 657 428 Q705 428 735.5 402 Q766 376 766 334 Q766 295 742.5 266 Q719 237 681 225 Q714 217 736.5 191 Q759 165 759 128 Q759 98 746.5 73.5 Q734 49 712 31.5 Q690 14 661.5 4.5 Q633 -5 601 -5 Z M632 237 Q676 237 704.5 263.5 Q733 290 733 328 Q733 360 710 380 Q687 400 652 400 Q632 400 613.5 393.5 Q595 387 581 375 Q567 363 559 346.5 Q551 330 551 310 Q551 278 572.5 257.5 Q594 237 632 237 Z M606 25 Q630 25 651 32.5 Q672 40 688.5 53.5 Q705 67 714.5 86 Q724 105 724 127 Q724 145 716.5 160 Q709 175 696 186 Q683 197 665.5 203.5 Q648 210 628 210 Q605 210 584 202 Q563 194 547 180.5 Q531 167 521 148.5 Q511 130 511 109 Q511 72 537 48.5 Q563 25 606 25 Z " />
<glyph glyph-name="seveneighths" unicode="&#x215e;" horiz-adv-x="779" d="M83 290 Q69 290 69 303 Q69 309 73 316 L306 677 L117 677 Q96 677 96 695 Q96 713 119 713 L322 713 Q349 713 349 692 Q349 683 343 673 L111 311 Q103 300 97.5 295 Q92 290 83 290 Z M110 -11 Q106 -8 106 -3 Q106 3 110 7 L637 696 Q641 702 647 702 Q652 702 655 699 Q659 695 659 689 Q659 685 656 681 L128 -8 Q123 -14 118 -14 Q113 -14 110 -11 Z M585 -5 Q558 -5 534.5 2.5 Q511 10 494 24.5 Q477 39 467 59 Q457 79 457 104 Q457 128 466 147.5 Q475 167 489.5 182.5 Q504 198 523 209 Q542 220 563 225 Q534 236 518 258.5 Q502 281 502 312 Q502 338 513 359.5 Q524 381 542.5 396 Q561 411 586.5 419.5 Q612 428 641 428 Q689 428 719.5 402 Q750 376 750 334 Q750 295 726.5 266 Q703 237 665 225 Q698 217 720.5 191 Q743 165 743 128 Q743 98 730.5 73.5 Q718 49 696 31.5 Q674 14 645.5 4.5 Q617 -5 585 -5 Z M616 237 Q660 237 688.5 263.5 Q717 290 717 328 Q717 360 694 380 Q671 400 636 400 Q616 400 597.5 393.5 Q579 387 565 375 Q551 363 543 346.5 Q535 330 535 310 Q535 278 556.5 257.5 Q578 237 616 237 Z M590 25 Q614 25 635 32.5 Q656 40 672.5 53.5 Q689 67 698.5 86 Q708 105 708 127 Q708 145 700.5 160 Q693 175 680 186 Q667 197 649.5 203.5 Q632 210 612 210 Q589 210 568 202 Q547 194 531 180.5 Q515 167 505 148.5 Q495 130 495 109 Q495 72 521 48.5 Q547 25 590 25 Z " />
<glyph glyph-name="asterisk" unicode="&#x2a;" horiz-adv-x="391" d="M137 423 Q129 423 122.5 428.5 Q116 434 116 444 Q116 455 132 470.5 Q148 486 175 512 L216 550 L166 560 Q149 564 130.5 568 Q112 572 105 574 Q90 579 90 593 Q90 604 97 611.5 Q104 619 115 619 Q123 619 141.5 609.5 Q160 600 180 591 L225 569 L224 621 Q225 638 225.5 659 Q226 680 226 686 Q227 698 233 705.5 Q239 713 252 713 Q273 713 273 693 Q273 686 268 663.5 Q263 641 258 621 L244 569 L295 591 Q319 602 337 611 Q355 620 364 620 Q372 620 378 614 Q384 608 384 599 Q384 580 363 574 Q351 571 334 567 Q317 563 301 560 L248 550 L279 512 Q302 483 312.5 470 Q323 457 323 447 Q323 437 315 430 Q307 423 298 423 Q284 423 275.5 439.5 Q267 456 256 483 L230 539 L200 493 Q180 464 165 443.5 Q150 423 137 423 Z " />
<glyph glyph-name="backslash" unicode="&#x5c;" horiz-adv-x="540" d="M463 -90 Q452 -90 446 -78 L82 725 Q79 731 79 737 Q79 745 84 749.5 Q89 754 95 754 Q107 754 114 738 L479 -66 Q481 -72 481 -74 Q481 -82 475.5 -86 Q470 -90 463 -90 Z " />
<glyph glyph-name="periodcentered" unicode="&#xb7;" horiz-adv-x="273" d="M134 221 Q114 221 102.5 234.5 Q91 248 91 267 Q91 290 106.5 306.5 Q122 323 146 323 Q166 323 177 309.5 Q188 296 188 277 Q188 254 172.5 237.5 Q157 221 134 221 Z " />
<glyph glyph-name="bullet" unicode="&#x2022;" horiz-adv-x="321" d="M164 265 Q135 265 117 285 Q99 305 99 334 Q99 369 122.5 393.5 Q146 418 182 418 Q211 418 228 398 Q245 378 245 349 Q245 315 222 290 Q199 265 164 265 Z " />
<glyph glyph-name="colon" unicode="&#x3a;" horiz-adv-x="275" d="M154 389 Q135 389 123.5 402.5 Q112 416 112 435 Q112 458 127.5 474 Q143 490 167 490 Q186 490 197 477 Q208 464 208 444 Q208 421 192.5 405 Q177 389 154 389 Z M108 -9 Q88 -9 76.5 4.5 Q65 18 65 37 Q65 60 81 76 Q97 92 120 92 Q140 92 151 79 Q162 66 162 46 Q162 23 146.5 7 Q131 -9 108 -9 Z " />
<glyph glyph-name="comma" unicode="&#x2c;" horiz-adv-x="275" d="M117 95 Q137 95 149.5 82 Q162 69 162 49 Q162 32 153 13.5 Q144 -5 132 -25 L76 -119 Q71 -128 65.5 -132.5 Q60 -137 52 -137 Q41 -137 41 -128 Q41 -124 44 -119 L99 -7 Q84 -5 73 6.5 Q62 18 62 38 Q62 64 79 79.5 Q96 95 117 95 Z " />
<glyph glyph-name="ellipsis" unicode="&#x2026;" horiz-adv-x="650" d="M106 -7 Q86 -7 74.5 6.5 Q63 20 63 39 Q63 62 78.5 78.5 Q94 95 118 95 Q138 95 149 81.5 Q160 68 160 49 Q160 26 144.5 9.5 Q129 -7 106 -7 Z M294 -7 Q274 -7 262.5 6.5 Q251 20 251 39 Q251 62 266.5 78.5 Q282 95 306 95 Q326 95 337 81.5 Q348 68 348 49 Q348 26 332.5 9.5 Q317 -7 294 -7 Z M483 -7 Q463 -7 451.5 6.5 Q440 20 440 39 Q440 62 455.5 78.5 Q471 95 495 95 Q515 95 526 81.5 Q537 68 537 49 Q537 26 521.5 9.5 Q506 -7 483 -7 Z " />
<glyph glyph-name="exclam" unicode="&#x21;" horiz-adv-x="277" d="M128 171 Q109 171 112 201 L166 686 Q169 716 195 716 Q218 716 218 694 Q218 688 217 685 L152 198 Q147 171 128 171 Z M107 -7 Q87 -7 75.5 6.5 Q64 20 64 39 Q64 62 79.5 78.5 Q95 95 119 95 Q139 95 150 81.5 Q161 68 161 49 Q161 26 145.5 9.5 Q130 -7 107 -7 Z " />
<glyph glyph-name="exclamdown" unicode="&#xa1;" horiz-adv-x="278" d="M199 718 Q219 718 230.5 704.5 Q242 691 242 672 Q242 649 226.5 632.5 Q211 616 187 616 Q167 616 156 629.5 Q145 643 145 662 Q145 685 160.5 701.5 Q176 718 199 718 Z M178 540 Q197 540 194 510 L140 25 Q137 -5 111 -5 Q88 -5 88 17 Q88 23 89 26 L154 513 Q158 540 178 540 Z " />
<glyph glyph-name="numbersign" unicode="&#x23;" horiz-adv-x="620" d="M578 512 Q594 512 594 497 Q594 481 578 481 L470 481 L423 255 L555 255 Q571 255 571 240 Q571 225 555 225 L416 225 L372 15 Q369 -1 354 -1 Q338 -1 341 18 L384 225 L200 225 L156 15 Q153 -1 138 -1 Q122 -1 125 18 L168 225 L66 225 Q50 225 50 240 Q50 255 66 255 L175 255 L222 481 L102 481 Q85 481 85 497 Q85 512 102 512 L228 512 L267 696 Q270 710 284 712 Q302 712 299 694 L261 512 L444 512 L483 696 Q486 710 500 712 Q518 712 515 694 L477 512 L578 512 Z M438 481 L254 481 L207 255 L391 255 L438 481 Z " />
<glyph glyph-name="period" unicode="&#x2e;" horiz-adv-x="273" d="M106 -7 Q86 -7 74.5 6.5 Q63 20 63 39 Q63 62 78.5 78.5 Q94 95 118 95 Q138 95 149 81.5 Q160 68 160 49 Q160 26 144.5 9.5 Q129 -7 106 -7 Z " />
<glyph glyph-name="question" unicode="&#x3f;" horiz-adv-x="484" d="M196 160 Q176 160 179 190 L190 304 Q193 329 215 340 Q252 358 287 378 Q322 398 349 422.5 Q376 447 392 477 Q408 507 408 546 Q408 607 366 642 Q324 677 260 677 Q231 677 206.5 671.5 Q182 666 163 660 Q144 654 130.5 648.5 Q117 643 109 643 Q93 643 93 659 Q93 675 117 686 Q148 700 188 710 Q228 720 268 720 Q358 720 408.5 674 Q459 628 459 552 Q459 503 439 465.5 Q419 428 387.5 398.5 Q356 369 316.5 346 Q277 323 237 305 L219 187 Q214 160 196 160 Z M179 -7 Q159 -7 147.5 6 Q136 19 136 38 Q136 61 151.5 77.5 Q167 94 192 94 Q211 94 222.5 80.5 Q234 67 234 48 Q234 25 218 9 Q202 -7 179 -7 Z " />
<glyph glyph-name="questiondown" unicode="&#xbf;" horiz-adv-x="483" d="M333 720 Q353 720 364.5 707 Q376 694 376 675 Q376 652 360.5 635.5 Q345 619 320 619 Q301 619 289.5 632.5 Q278 646 278 665 Q278 688 294 704 Q310 720 333 720 Z M316 553 Q336 553 333 523 L322 409 Q319 384 297 373 Q259 355 224.5 335 Q190 315 163 290.5 Q136 266 120 236 Q104 206 104 167 Q104 106 146 71 Q188 36 252 36 Q281 36 305.5 41.5 Q330 47 349 53 Q368 59 381.5 64.5 Q395 70 403 70 Q419 70 419 54 Q419 38 395 27 Q364 13 324 3 Q284 -7 244 -7 Q154 -7 103.5 39 Q53 85 53 161 Q53 210 73 247.5 Q93 285 124.5 314.5 Q156 344 195.5 367 Q235 390 275 408 L293 526 Q297 553 316 553 Z " />
<glyph glyph-name="quotedbl" unicode="&#x22;" horiz-adv-x="360" d="M147 497 Q129 497 131 530 L143 679 Q145 710 176 710 Q193 710 193 687 Q193 680 192 676 L168 526 Q164 497 147 497 Z M278 497 Q261 497 263 530 L275 679 Q277 710 307 710 Q325 710 325 687 Q325 680 324 676 L299 526 Q295 497 278 497 Z " />
<glyph glyph-name="quotesingle" unicode="&#x27;" horiz-adv-x="229" d="M147 497 Q129 497 131 520 L143 688 Q146 716 171 716 Q193 716 193 694 Q193 692 193 688.5 Q193 685 192 682 L167 518 Q164 497 147 497 Z " />
<glyph glyph-name="semicolon" unicode="&#x3b;" horiz-adv-x="277" d="M158 388 Q138 388 126.5 401.5 Q115 415 115 434 Q115 457 130.5 473.5 Q146 490 170 490 Q190 490 201 476.5 Q212 463 212 444 Q212 421 196.5 404.5 Q181 388 158 388 Z M117 95 Q137 95 149.5 82 Q162 69 162 49 Q162 32 153 13.5 Q144 -5 132 -25 L76 -119 Q71 -128 65.5 -132.5 Q60 -137 52 -137 Q41 -137 41 -128 Q41 -124 44 -119 L99 -7 Q84 -5 73 6.5 Q62 18 62 38 Q62 64 79 79.5 Q96 95 117 95 Z " />
<glyph glyph-name="slash" unicode="&#x2f;" horiz-adv-x="327" d="M-19 -103 Q-24 -103 -28.5 -99.5 Q-33 -96 -33 -90 Q-33 -83 -26 -69 L342 743 Q349 760 362 760 Q370 760 374.5 755 Q379 750 378 742 Q378 740 376 732 L6 -82 Q-3 -103 -19 -103 Z " />
<glyph glyph-name="underscore" unicode="&#x5f;" horiz-adv-x="504" d="M46 -129 Q34 -129 27.5 -123 Q21 -117 21 -108 Q21 -97 29 -91.5 Q37 -86 48 -86 L374 -86 Q399 -86 399 -106 Q399 -117 391.5 -123 Q384 -129 372 -129 L46 -129 L46 -129 Z " />
<glyph glyph-name="braceleft" unicode="&#x7b;" horiz-adv-x="222" d="M93 -119 Q49 -119 29 -96.5 Q9 -74 9 -41 Q9 -11 25 24 Q41 59 59.5 95 Q78 131 94 164 Q110 197 110 223 Q110 243 98.5 260 Q87 277 54 280 Q48 282 43.5 285.5 Q39 289 39 297 Q39 314 59 316 Q82 318 96 326 Q110 334 118 345.5 Q126 357 129 370 Q132 383 132 395 Q132 417 125.5 444 Q119 471 111.5 500.5 Q104 530 98 558.5 Q92 587 92 612 Q92 656 117.5 685.5 Q143 715 197 715 Q211 715 222 714 Q233 713 241 711 Q255 708 255 697 Q255 682 241 682 Q236 682 225 683.5 Q214 685 204 685 Q171 685 150.5 665.5 Q130 646 130 611 Q130 589 136 561.5 Q142 534 149.5 505 Q157 476 163.5 447.5 Q170 419 170 395 Q170 363 150.5 334.5 Q131 306 92 299 Q123 294 136 271.5 Q149 249 149 225 Q149 198 133.5 163.5 Q118 129 99 93.5 Q80 58 64.5 24.5 Q49 -9 49 -34 Q49 -59 64 -73.5 Q79 -88 108 -88 Q116 -88 124.5 -87 Q133 -86 141 -84 L144 -84 Q155 -84 155 -95 Q155 -103 150.5 -107 Q146 -111 140 -113 Q122 -119 93 -119 Z " />
<glyph glyph-name="braceright" unicode="&#x7d;" horiz-adv-x="222" d="M43 -119 Q29 -119 18 -117 Q7 -115 -2 -113 Q-15 -109 -15 -98 Q-15 -84 -1 -84 Q3 -84 12.5 -86 Q22 -88 36 -88 Q71 -88 91 -68 Q111 -48 111 -14 Q111 8 104.5 35.5 Q98 63 90.5 92 Q83 121 77 149.5 Q71 178 71 202 Q71 234 90 263 Q109 292 149 299 Q118 304 105 325.5 Q92 347 92 373 Q92 400 107.5 434.5 Q123 469 141.5 504.5 Q160 540 175.5 573 Q191 606 191 631 Q191 656 176 670.5 Q161 685 133 685 Q122 685 112 683.5 Q102 682 97 682 Q85 682 85 694 Q85 699 88 703 Q91 707 98 709 Q120 715 148 715 Q192 715 211 693.5 Q230 672 230 638 Q230 608 214.5 572.5 Q199 537 180.5 502 Q162 467 146.5 433.5 Q131 400 131 375 Q131 354 142 337.5 Q153 321 184 317 Q203 314 203 300 Q203 291 197 286.5 Q191 282 182 281 Q159 279 145 270.5 Q131 262 123 251 Q115 240 112.5 227 Q110 214 110 202 Q110 180 116 153 Q122 126 129.5 97 Q137 68 143 39 Q149 10 149 -14 Q149 -58 123 -88.5 Q97 -119 43 -119 Z " />
<glyph glyph-name="bracketleft" unicode="&#x5b;" horiz-adv-x="318" d="M274 710 Q291 710 291 693 Q291 675 272 675 L177 675 L83 -81 L175 -81 Q189 -81 189 -96 Q189 -104 184.5 -109 Q180 -114 172 -114 L67 -114 Q56 -114 48.5 -108 Q41 -102 43 -89 L141 685 Q144 710 170 710 L274 710 L274 710 Z " />
<glyph glyph-name="bracketright" unicode="&#x5d;" horiz-adv-x="317" d="M58 -114 Q41 -114 41 -97 Q41 -79 60 -79 L155 -79 L249 677 L157 677 Q143 677 143 692 Q143 700 147.5 705 Q152 710 160 710 L265 710 Q276 710 283.5 704 Q291 698 289 685 L191 -89 Q188 -114 162 -114 L58 -114 L58 -114 Z " />
<glyph glyph-name="parenleft" unicode="&#x28;" horiz-adv-x="286" d="M172 -108 Q164 -108 159 -103.5 Q154 -99 148 -92 Q124 -64 104.5 -27 Q85 10 71.5 51.5 Q58 93 51 138.5 Q44 184 44 231 Q44 295 58.5 360.5 Q73 426 99.5 486.5 Q126 547 163.5 601 Q201 655 246 696 Q255 704 260.5 707 Q266 710 273 710 Q286 710 286 699 Q286 695 280 689 Q239 648 203.5 595.5 Q168 543 142 483.5 Q116 424 101 361.5 Q86 299 86 239 Q86 196 92.5 151 Q99 106 111.5 64 Q124 22 142 -16 Q160 -54 182 -83 Q188 -91 188 -96 Q188 -101 183.5 -104.5 Q179 -108 172 -108 Z " />
<glyph glyph-name="parenright" unicode="&#x29;" horiz-adv-x="285" d="M21 -106 Q9 -106 9 -98 Q9 -94 13 -90 Q55 -45 91.5 9 Q128 63 154.5 122.5 Q181 182 196.5 244 Q212 306 212 366 Q212 409 205 454 Q198 499 185 541.5 Q172 584 153 623.5 Q134 663 110 695 Q108 697 108 702 Q108 710 122 710 Q131 710 137 707 Q143 704 150 696 Q174 667 193.5 631 Q213 595 226.5 553.5 Q240 512 247 466.5 Q254 421 254 375 Q254 309 239.5 243.5 Q225 178 198 117.5 Q171 57 133.5 3 Q96 -51 50 -93 Q36 -106 21 -106 Z " />
<glyph glyph-name="emdash" unicode="&#x2014;" horiz-adv-x="884" d="M88 238 Q66 238 66 257 Q66 267 73 273.5 Q80 280 91 280 L800 280 Q823 280 823 260 Q823 250 815 244 Q807 238 796 238 L88 238 L88 238 Z " />
<glyph glyph-name="endash" unicode="&#x2013;" horiz-adv-x="506" d="M91 238 Q66 238 66 257 Q66 267 73 273.5 Q80 280 94 280 L420 280 Q445 280 445 260 Q445 250 437.5 244 Q430 238 418 238 L91 238 L91 238 Z " />
<glyph glyph-name="hyphen" unicode="&#x2d;" horiz-adv-x="391" d="M91 238 Q66 238 66 258 Q66 269 73 274.5 Q80 280 91 280 L306 280 Q317 280 323.5 275.5 Q330 271 330 260 Q330 249 322.5 243.5 Q315 238 304 238 L91 238 L91 238 Z " />
<glyph glyph-name="softhyphen" unicode="&#xad;" horiz-adv-x="390" d="M90 238 Q66 238 66 257 Q66 267 73 273.5 Q80 280 94 280 L304 280 Q329 280 329 260 Q329 250 321 244 Q313 238 301 238 L90 238 L90 238 Z " />
<glyph glyph-name="guillemotleft" unicode="&#xab;" horiz-adv-x="522" d="M241 62 Q236 57 230 57 Q217 57 205 74 L90 228 Q82 238 82 248 Q82 260 94 272 L250 423 Q257 430 266 432 Q268 433 271 433 Q281 433 286 421 L286 419 Q286 406 273 393 L130 252 L239 100 Q243 93 245.5 88 Q248 83 248 78 Q248 71 241 62 Z M416 62 Q409 57 405 57 Q392 57 380 74 L265 228 Q257 238 257 248 Q257 259 268 272 L424 423 Q433 431 441 432 Q443 433 446 433 Q457 433 460 421 L460 417 Q460 405 447 393 L304 252 L413 100 Q422 86 422 78 Q422 69 416 62 Z " />
<glyph glyph-name="guillemotright" unicode="&#xbb;" horiz-adv-x="524" d="M124 432 Q135 432 143 421 L256 268 Q264 255 264 246 Q264 232 251 220 L98 72 Q87 63 78 63 Q70 63 65.5 67.5 Q61 72 61 78 Q61 87 70 96 L218 245 L109 397 Q104 403 104 412 Q104 420 109.5 426 Q115 432 124 432 Z M299 432 Q310 432 318 421 L431 268 Q439 255 439 246 Q439 232 426 220 L273 72 Q262 63 253 63 Q245 63 240.5 67.5 Q236 72 236 78 Q236 87 245 96 L393 245 L284 397 Q279 403 279 412 Q279 420 284.5 426 Q290 432 299 432 Z " />
<glyph glyph-name="guilsinglleft" unicode="&#x2039;" horiz-adv-x="349" d="M223 62 Q212 62 204 73 L91 226 Q83 239 83 248 Q83 262 96 274 L249 422 Q259 431 269 431 Q277 431 281.5 426.5 Q286 422 286 416 Q286 407 277 398 L129 249 L238 97 Q243 91 243 82 Q243 74 237.5 68 Q232 62 223 62 Z " />
<glyph glyph-name="guilsinglright" unicode="&#x203a;" horiz-adv-x="348" d="M127 432 Q138 432 146 421 L259 268 Q267 255 267 246 Q267 232 254 220 L101 72 Q90 63 81 63 Q73 63 68.5 67.5 Q64 72 64 78 Q64 87 73 96 L221 245 L112 397 Q107 403 107 412 Q107 420 112.5 426 Q118 432 127 432 Z " />
<glyph glyph-name="quotedblbase" unicode="&#x201e;" horiz-adv-x="416" d="M118 95 Q138 95 150.5 82 Q163 69 163 49 Q163 32 154 13.5 Q145 -5 133 -25 L77 -119 Q72 -128 66.5 -132.5 Q61 -137 53 -137 Q42 -137 42 -128 Q42 -124 45 -119 L100 -7 Q85 -5 74 6.5 Q63 18 63 38 Q63 64 80 79.5 Q97 95 118 95 Z M258 95 Q278 95 290.5 82 Q303 69 303 49 Q303 32 294 13.5 Q285 -5 273 -25 L217 -119 Q212 -128 206.5 -132.5 Q201 -137 193 -137 Q182 -137 182 -128 Q182 -124 185 -119 L240 -7 Q225 -5 214 6.5 Q203 18 203 38 Q203 64 220 79.5 Q237 95 258 95 Z " />
<glyph glyph-name="quotedblleft" unicode="&#x201c;" horiz-adv-x="415" d="M164 489 Q144 489 131.5 502 Q119 515 119 535 Q119 552 128 570.5 Q137 589 149 609 L205 703 Q215 721 229 721 Q240 721 240 712 Q240 707 237 703 L182 591 Q197 589 208 577.5 Q219 566 219 546 Q219 520 202 504.5 Q185 489 164 489 Z M304 489 Q284 489 271.5 502 Q259 515 259 535 Q259 552 268 570.5 Q277 589 289 609 L345 703 Q355 721 369 721 Q380 721 380 712 Q380 707 377 703 L322 591 Q337 589 348 577.5 Q359 566 359 546 Q359 520 342 504.5 Q325 489 304 489 Z " />
<glyph glyph-name="quotedblright" unicode="&#x201d;" horiz-adv-x="415" d="M193 721 Q213 721 225.5 708 Q238 695 238 675 Q238 658 229 639.5 Q220 621 208 601 L152 507 Q147 498 141.5 493.5 Q136 489 128 489 Q117 489 117 498 Q117 502 120 507 L175 619 Q160 621 149 632.5 Q138 644 138 664 Q138 690 155 705.5 Q172 721 193 721 Z M333 721 Q353 721 365.5 708 Q378 695 378 675 Q378 658 369 639.5 Q360 621 348 601 L292 507 Q287 498 281.5 493.5 Q276 489 268 489 Q257 489 257 498 Q257 502 260 507 L315 619 Q300 621 289 632.5 Q278 644 278 664 Q278 690 295 705.5 Q312 721 333 721 Z " />
<glyph glyph-name="quoteleft" unicode="&#x2018;" horiz-adv-x="275" d="M164 489 Q144 489 131.5 502 Q119 515 119 535 Q119 552 128 570.5 Q137 589 149 609 L205 703 Q215 721 229 721 Q240 721 240 712 Q240 707 237 703 L182 591 Q197 589 208 577.5 Q219 566 219 546 Q219 520 202 504.5 Q185 489 164 489 Z " />
<glyph glyph-name="quoteright" unicode="&#x2019;" horiz-adv-x="275" d="M193 721 Q213 721 225.5 708 Q238 695 238 675 Q238 658 229 639.5 Q220 621 208 601 L152 507 Q147 498 141.5 493.5 Q136 489 128 489 Q117 489 117 498 Q117 502 120 507 L175 619 Q160 621 149 632.5 Q138 644 138 664 Q138 690 155 705.5 Q172 721 193 721 Z " />
<glyph glyph-name="quotesinglbase" unicode="&#x201a;" horiz-adv-x="275" d="M118 95 Q138 95 150.5 82 Q163 69 163 49 Q163 32 154 13.5 Q145 -5 133 -25 L77 -119 Q72 -128 66.5 -132.5 Q61 -137 53 -137 Q42 -137 42 -128 Q42 -124 45 -119 L100 -7 Q85 -5 74 6.5 Q63 18 63 38 Q63 64 80 79.5 Q97 95 118 95 Z " />
<glyph glyph-name="emspace" unicode="&#x2003;" horiz-adv-x="1000" d="" />
<glyph glyph-name="enspace" unicode="&#x2002;" horiz-adv-x="500" d="" />
<glyph glyph-name="fourperemspace" unicode="&#x2005;" horiz-adv-x="250" d="" />
<glyph glyph-name="hairspace" unicode="&#x200a;" horiz-adv-x="72" d="" />
<glyph glyph-name="Acircumflex" unicode="&#xc2;" horiz-adv-x="603" d="M570 32 Q571 28 571.5 25 Q572 22 572 19 Q572 6 564.5 -0.5 Q557 -7 546 -7 Q535 -7 527.5 -1.5 Q520 4 517 18 L460 230 L143 230 Q125 194 107.5 161 Q90 128 75.5 100.5 Q61 73 49.5 51 Q38 29 31 16 Q20 -5 0 -5 Q-21 -5 -21 15 Q-21 22 -17 30 L334 697 Q343 714 360 714 Q378 714 383 695 L570 32 Z M448 275 Q434 327 419.5 380.5 Q405 434 392 482.5 Q379 531 368.5 571 Q358 611 351 637 Q339 614 319 574.5 Q299 535 274.5 486.5 Q250 438 222 383.5 Q194 329 166 275 L448 275 Z M259 759 Q253 759 249 763.5 Q245 768 245 774 Q245 782 253 789 L350 877 Q361 886 367.5 891 Q374 896 383 896 Q394 896 399 889.5 Q404 883 413 873 L481 789 Q486 783 486 776 Q486 769 481 765 Q476 761 470 761 Q463 761 458.5 765 Q454 769 446 777 L378 852 L288 774 Q280 768 273.5 763.5 Q267 759 259 759 Z " />
<glyph glyph-name="nbspace" unicode="&#xa0;" horiz-adv-x="216" d="" />
<glyph glyph-name="thinspace" unicode="&#x2009;" horiz-adv-x="108" d="" />
<glyph glyph-name="threeperemspace" unicode="&#x2004;" horiz-adv-x="574" d="" />
<glyph glyph-name="cent" unicode="&#xa2;" horiz-adv-x="477" d="M443 595 Q471 585 471 567 Q471 556 465.5 551 Q460 546 452 546 Q443 546 415 556.5 Q387 567 343 567 Q297 567 255 551 Q213 535 181 505.5 Q149 476 130 434 Q111 392 111 341 Q111 297 125.5 262 Q140 227 165 203 Q190 179 224 166 Q258 153 298 153 Q342 153 368 163 Q394 173 406 173 Q414 173 419 168 Q424 163 424 155 Q424 138 400 129 Q377 120 348.5 115.5 Q320 111 290 110 L270 6 Q268 -5 263 -8 Q258 -11 251 -11 Q230 -11 234 11 L253 112 Q211 117 175.5 135 Q140 153 114 182 Q88 211 73.5 250 Q59 289 59 337 Q59 395 79.5 443 Q100 491 135 527 Q170 563 218 584 Q266 605 322 609 L341 711 Q344 723 349 727.5 Q354 732 362 732 Q382 732 378 709 L360 610 Q410 607 443 595 Z " />
<glyph glyph-name="currency" unicode="&#xa4;" horiz-adv-x="619" d="M592 123 Q599 116 599 110 Q599 104 593 100 Q587 94 581 94 Q575 94 569 100 L467 199 Q440 173 403.5 158 Q367 143 324 143 Q280 143 244 158 Q208 173 181 199 L81 100 Q75 94 69 94 Q63 94 57 100 Q52 105 52 111 Q52 117 58 123 L159 224 Q139 252 128 287 Q117 322 117 361 Q117 402 127.5 436 Q138 470 158 498 L55 600 Q49 606 49 612 Q49 617 54 624 Q61 629 65 629 Q71 629 78 622 L180 522 Q236 578 322 578 Q366 578 402.5 563 Q439 548 466 522 L566 622 Q572 628 578 628 Q583 628 590 623 Q596 618 596 612 Q596 606 590 600 L486 497 Q529 440 529 361 Q529 321 518.5 286.5 Q508 252 489 225 L592 123 Z M324 179 Q361 179 392 192.5 Q423 206 445 230 Q467 254 479 287 Q491 320 491 359 Q491 398 479 431.5 Q467 465 444.5 489.5 Q422 514 391 527.5 Q360 541 322 541 Q284 541 253.5 527.5 Q223 514 201 490 Q179 466 167 433 Q155 400 155 361 Q155 322 167.5 288.5 Q180 255 202 231 Q224 207 255 193 Q286 179 324 179 Z " />
<glyph glyph-name="dollar" unicode="&#x24;" horiz-adv-x="585" d="M492 634 Q484 634 459.5 643 Q435 652 400 657 L335 386 Q369 371 399 354 Q429 337 451 316 Q473 295 485.5 269 Q498 243 498 211 Q498 167 479 130 Q460 93 426 66 Q392 39 345.5 24 Q299 9 244 9 L217 -105 Q214 -119 209 -125 Q204 -131 193 -131 Q179 -131 179 -116 Q179 -109 180 -105 L208 10 Q173 13 139 21.5 Q105 30 81 41 Q59 51 59 68 Q59 79 66 84 Q73 89 81 89 Q86 89 98 84 Q110 79 128 73 Q146 67 168.5 61 Q191 55 218 53 L291 354 Q261 367 232.5 383 Q204 399 181.5 419 Q159 439 145.5 465 Q132 491 132 524 Q132 562 149.5 594.5 Q167 627 197 651 Q227 675 268 688.5 Q309 702 357 702 L375 702 L400 806 Q405 829 422 829 Q436 829 436 814 Q436 808 435 804 L410 699 Q433 696 453 691.5 Q473 687 490 680 Q514 673 514 653 Q514 644 507.5 639 Q501 634 492 634 Z M365 660 L357 660 Q322 660 291 650.5 Q260 641 237 623.5 Q214 606 200.5 582 Q187 558 187 530 Q187 506 196 487 Q205 468 221 452.5 Q237 437 257.5 424.5 Q278 412 302 401 L365 660 Z M446 202 Q446 248 411 280.5 Q376 313 323 339 L255 52 Q295 53 330 64.5 Q365 76 391 95.5 Q417 115 431.5 142 Q446 169 446 202 Z " />
<glyph glyph-name="Euro" unicode="&#x20ac;" horiz-adv-x="585" d="M566 700 Q589 691 589 673 Q589 663 583.5 657.5 Q578 652 570 652 Q565 652 555.5 655.5 Q546 659 532 663.5 Q518 668 499.5 671.5 Q481 675 459 675 Q405 675 359 656.5 Q313 638 277 605 Q241 572 215 527.5 Q189 483 175 431 L494 431 Q503 431 509.5 426.5 Q516 422 516 412 Q516 402 509.5 397 Q503 392 493 392 L166 392 Q162 372 160 352 Q158 332 158 311 L484 311 Q493 311 499.5 306.5 Q506 302 506 292 Q506 283 499 277.5 Q492 272 483 272 L159 272 Q163 218 180.5 174 Q198 130 226.5 99.5 Q255 69 293.5 52 Q332 35 379 35 Q424 35 455.5 45.5 Q487 56 502 56 Q519 56 519 38 Q519 29 514.5 22.5 Q510 16 498 12 Q469 2 436.5 -4.5 Q404 -11 369 -11 Q315 -11 269 8.5 Q223 28 189 65 Q155 102 134.5 154.5 Q114 207 110 272 L75 272 Q66 272 59.5 277.5 Q53 283 53 291 Q53 301 59.5 306 Q66 311 76 311 L109 311 Q110 332 111.5 352 Q113 372 117 392 L85 392 Q76 392 69.5 397 Q63 402 63 411 Q63 421 70 426 Q77 431 86 431 L125 431 Q141 493 172 546 Q203 599 246 637.5 Q289 676 343 698 Q397 720 460 720 Q490 720 517 714 Q544 708 566 700 Z " />
<glyph glyph-name="florin" unicode="&#x192;" horiz-adv-x="383" d="M419 747 Q435 741 435 726 Q435 703 414 708 Q403 713 387 716.5 Q371 720 355 720 Q280 720 254 613 L222 480 L353 480 Q374 480 374 462 Q371 444 353 444 L213 444 L100 -28 Q82 -103 48.5 -139 Q15 -175 -42 -175 Q-79 -175 -106 -167 Q-124 -163 -124 -144 Q-123 -133 -117 -129 Q-111 -125 -103 -127 Q-92 -130 -77 -132.5 Q-62 -135 -47 -135 Q28 -135 55 -24 L167 444 L83 444 Q62 444 64 462 Q64 480 85 480 L175 480 L208 617 Q225 689 259 724.5 Q293 760 349 760 Q369 760 387 756 Q405 752 419 747 Z " />
<glyph glyph-name="sterling" unicode="&#xa3;" horiz-adv-x="585" d="M575 694 Q591 687 588 668 Q586 653 576 653 Q573 653 570 654 Q567 655 563 657 Q543 668 518 674 Q493 680 465 680 Q399 680 358 639.5 Q317 599 300 528 L268 390 L467 390 Q489 390 487 372 Q484 354 464 354 L260 354 L187 38 L465 38 Q487 38 485 19 Q482 0 462 0 L82 0 Q59 0 62 19 Q64 38 84 38 L142 38 L215 354 L148 354 Q128 354 128 370 Q128 390 150 390 L223 390 L255 531 Q275 619 327.5 669.5 Q380 720 464 720 Q496 720 524.5 713 Q553 706 575 694 Z " />
<glyph glyph-name="yen" unicode="&#xa5;" horiz-adv-x="562" d="M564 716 Q574 716 579.5 711 Q585 706 585 698 Q585 690 579 681 L333 333 L453 333 Q478 333 478 313 Q478 303 470 297 Q462 291 450 291 L310 291 L278 22 Q275 -6 249 -6 Q235 -6 229 2 Q223 10 225 24 L259 291 L122 291 Q98 291 98 310 Q98 320 105.5 326.5 Q113 333 126 333 L248 333 L86 680 Q83 687 83 693 Q83 703 89.5 709.5 Q96 716 107 716 Q117 716 124 711 Q131 706 136 692 L293 351 L535 694 Q550 716 564 716 Z " />
<glyph glyph-name="plus" unicode="&#x2b;" horiz-adv-x="549" d="M488 312 Q501 312 506.5 306 Q512 300 512 291 Q512 282 506.5 276 Q501 270 488 270 L296 270 L296 78 Q296 53 274 53 Q265 53 259 59 Q253 65 253 77 L253 270 L61 270 Q36 270 36 291 Q36 300 42 306.5 Q48 313 61 313 L253 313 L253 505 Q253 516 259 522.5 Q265 529 274 529 Q296 529 296 505 L296 312 L488 312 L488 312 Z " />
<glyph glyph-name="minus" unicode="&#x2212;" horiz-adv-x="549" d="M63 275 Q39 275 39 295 Q39 306 46 311.5 Q53 317 64 317 L489 317 Q499 317 505.5 312.5 Q512 308 512 297 Q512 286 505 280.5 Q498 275 487 275 L63 275 L63 275 Z " />
<glyph glyph-name="multiply" unicode="&#xd7;" horiz-adv-x="549" d="M485 110 Q494 101 494 92 Q494 85 487 78 Q480 71 473 71 Q464 71 455 80 L274 261 L94 80 Q85 71 76 71 Q68 71 61 78 Q54 85 54 92 Q54 101 63 110 L244 291 L63 472 Q55 482 55 489 Q55 497 62 504 Q69 511 76 511 Q85 511 94 502 L274 321 L455 502 Q464 511 473 511 Q481 511 488 504 Q494 498 494 490 Q494 481 485 472 L304 291 L485 110 Z " />
<glyph glyph-name="divide" unicode="&#xf7;" horiz-adv-x="549" d="M277 450 Q256 450 242 465.5 Q228 481 228 501 Q228 521 241.5 535 Q255 549 277 549 Q297 549 310 534 Q323 519 323 499 Q323 479 310 464.5 Q297 450 277 450 Z M63 278 Q39 278 39 298 Q39 309 46 314.5 Q53 320 64 320 L489 320 Q499 320 505.5 315.5 Q512 311 512 300 Q512 289 505 283.5 Q498 278 487 278 L63 278 Z M277 43 Q256 43 242.5 58.5 Q229 74 229 94 Q229 114 242 128 Q255 142 277 142 Q297 142 310 127 Q323 112 323 92 Q323 72 310 57.5 Q297 43 277 43 Z " />
<glyph glyph-name="equal" unicode="&#x3d;" horiz-adv-x="549" d="M60 368 Q36 368 36 387 Q36 397 43.5 403.5 Q51 410 64 410 L489 410 Q513 410 513 390 Q513 368 485 368 L60 368 Z M60 174 Q36 174 36 193 Q36 216 64 216 L489 216 Q513 216 513 197 Q513 187 505.5 180.5 Q498 174 485 174 L60 174 Z " />
<glyph glyph-name="notequal" unicode="&#x2260;" horiz-adv-x="549" d="M486 214 Q509 214 509 194 Q509 175 486 175 L222 175 L171 63 Q165 51 153 51 Q141 51 141 61 Q141 63 143 69 L191 175 L62 175 Q40 175 40 194 Q40 214 62 214 L209 214 L279 368 L62 368 Q40 368 40 388 Q40 408 62 408 L298 408 L352 527 Q358 539 370 539 Q381 539 381 530 Q381 527 379 521 L328 408 L486 408 Q509 408 509 388 Q509 368 486 368 L310 368 L240 214 L486 214 L486 214 Z " />
<glyph glyph-name="greater" unicode="&#x3e;" horiz-adv-x="549" d="M92 18 Q82 13 77 13 Q67 13 61.5 20 Q56 27 56 35 Q56 41 59.5 47 Q63 53 71 57 L457 253 L67 450 Q51 459 51 473 Q51 481 56.5 488 Q62 495 73 495 Q80 495 87 491 L502 277 Q521 268 521 254 Q521 246 515 239 Q509 232 500 227 L92 18 L92 18 Z " />
<glyph glyph-name="less" unicode="&#x3c;" horiz-adv-x="549" d="M68 227 Q59 232 53 239 Q47 246 47 254 Q47 268 66 277 L481 491 Q488 495 495 495 Q506 495 511.5 488 Q517 481 517 473 Q517 459 501 450 L111 253 L497 57 Q505 53 508.5 47 Q512 41 512 35 Q512 27 506.5 20 Q501 13 491 13 Q486 13 476 18 L68 227 Z " />
<glyph glyph-name="greaterequal" unicode="&#x2265;" horiz-adv-x="549" d="M78 107 Q68 102 63 102 Q53 102 47.5 109 Q42 116 42 124 Q42 130 45.5 136 Q49 142 57 146 L443 342 L53 539 Q37 548 37 562 Q37 570 42.5 577 Q48 584 59 584 Q66 584 73 580 L488 366 Q507 357 507 343 Q507 335 501 328 Q495 321 486 316 L78 107 Z M58 2 Q45 2 38 8 Q31 14 31 23 Q31 34 38.5 39.5 Q46 45 58 45 L484 45 Q495 45 502.5 40 Q510 35 510 25 Q510 14 502.5 8 Q495 2 484 2 L58 2 Z " />
<glyph glyph-name="lessequal" unicode="&#x2264;" horiz-adv-x="549" d="M51 316 Q42 321 36 328 Q30 335 30 343 Q30 357 49 366 L464 580 Q471 584 478 584 Q489 584 494.5 577 Q500 570 500 562 Q500 548 484 539 L94 342 L480 146 Q488 142 491.5 136 Q495 130 495 124 Q495 116 489.5 109 Q484 102 474 102 Q469 102 459 107 L51 316 Z M53 2 Q42 2 34.5 8 Q27 14 27 25 Q27 35 34.5 40 Q42 45 53 45 L479 45 Q491 45 498.5 39.5 Q506 34 506 23 Q506 14 499 8 Q492 2 479 2 L53 2 Z " />
<glyph glyph-name="plusminus" unicode="&#xb1;" horiz-adv-x="549" d="M44 305 Q19 305 19 327 Q19 336 25 342 Q31 348 44 348 L236 348 L236 477 Q236 488 242 494.5 Q248 501 257 501 Q279 501 279 477 L279 348 L471 348 Q495 348 495 326 Q495 306 470 306 L278 306 L278 176 Q278 163 272 157 Q266 151 257 151 Q236 151 236 176 L236 305 L44 305 Z M484 112 Q495 112 502.5 107.5 Q510 103 510 92 Q510 82 502.5 76 Q495 70 484 70 L58 70 Q31 70 31 91 Q31 102 38.5 107 Q46 112 58 112 L484 112 Z " />
<glyph glyph-name="approxequal" unicode="&#x2248;" horiz-adv-x="561" d="M385 339 Q356 339 332.5 355 Q309 371 287.5 390.5 Q266 410 244 426 Q222 442 198 442 Q166 442 146 416.5 Q126 391 120 357 Q115 339 99 339 Q92 339 87.5 345 Q83 351 85 365 Q88 387 97 408 Q106 429 120.5 445.5 Q135 462 154.5 472.5 Q174 483 198 483 Q228 483 252.5 467 Q277 451 299.5 431.5 Q322 412 343.5 396 Q365 380 387 380 Q416 380 434 399 Q452 418 457 453 Q460 475 477 475 Q485 475 489.5 469 Q494 463 494 454 Q493 435 485.5 415 Q478 395 463.5 378 Q449 361 429.5 350 Q410 339 385 339 Z M386 149 Q357 149 333.5 165 Q310 181 288.5 200.5 Q267 220 245 236 Q223 252 199 252 Q167 252 147 226.5 Q127 201 121 167 Q116 149 100 149 Q93 149 88.5 155 Q84 161 86 175 Q89 197 98 218 Q107 239 121.5 255.5 Q136 272 155.5 282.5 Q175 293 199 293 Q229 293 253.5 277 Q278 261 300.5 241.5 Q323 222 344.5 206 Q366 190 388 190 Q417 190 435 209 Q453 228 458 263 Q461 285 478 285 Q486 285 490.5 279 Q495 273 495 264 Q494 245 486.5 225 Q479 205 464.5 188 Q450 171 430.5 160 Q411 149 386 149 Z " />
<glyph glyph-name="asciitilde" unicode="&#x7e;" horiz-adv-x="549" d="M354 237 Q325 237 301.5 253 Q278 269 256.5 288.5 Q235 308 213 324 Q191 340 167 340 Q135 340 115 314.5 Q95 289 89 255 Q84 237 68 237 Q61 237 56.5 243 Q52 249 54 263 Q57 285 66 306 Q75 327 89.5 343.5 Q104 360 123.5 370.5 Q143 381 167 381 Q197 381 221.5 365 Q246 349 268.5 329.5 Q291 310 312.5 294 Q334 278 356 278 Q385 278 403 297 Q421 316 426 351 Q429 373 446 373 Q454 373 458.5 367 Q463 361 463 352 Q462 333 454.5 313 Q447 293 432.5 276 Q418 259 398.5 248 Q379 237 354 237 Z " />
<glyph glyph-name="logicalnot" unicode="&#xac;" horiz-adv-x="549" d="M432 348 Q464 348 464 317 L464 172 Q464 149 443 149 Q422 149 422 172 L422 307 L83 307 Q61 307 61 328 Q61 348 83 348 L432 348 L432 348 Z " />
<glyph glyph-name="infinity" unicode="&#x221e;" horiz-adv-x="851" d="M646 478 Q680 478 709.5 465 Q739 452 760.5 428.5 Q782 405 794.5 371.5 Q807 338 807 296 Q807 254 795 220.5 Q783 187 761.5 163.5 Q740 140 711 127.5 Q682 115 648 115 Q612 115 581 128.5 Q550 142 523.5 163.5 Q497 185 475 211.5 Q453 238 435 263 Q414 235 391 208.5 Q368 182 342.5 161 Q317 140 288.5 127.5 Q260 115 227 115 Q192 115 162.5 128.5 Q133 142 110.5 165.5 Q88 189 75.5 221.5 Q63 254 63 292 Q63 331 76 364.5 Q89 398 111.5 423.5 Q134 449 165 463.5 Q196 478 231 478 Q264 478 292.5 464.5 Q321 451 345.5 430 Q370 409 391.5 382 Q413 355 433 328 Q452 354 473.5 381 Q495 408 521 429.5 Q547 451 578 464.5 Q609 478 646 478 Z M228 155 Q255 155 279 167 Q303 179 325.5 198.5 Q348 218 368.5 243 Q389 268 409 295 Q389 322 368.5 347.5 Q348 373 326 393.5 Q304 414 280 426 Q256 438 229 438 Q204 438 181.5 427 Q159 416 141.5 396.5 Q124 377 114 351 Q104 325 104 295 Q104 266 114 240.5 Q124 215 141 196 Q158 177 180.5 166 Q203 155 228 155 Z M650 155 Q699 155 732 190 Q765 225 765 291 Q765 324 756 351.5 Q747 379 730.5 398 Q714 417 692 427.5 Q670 438 645 438 Q615 438 589 425 Q563 412 539.5 391.5 Q516 371 496 345.5 Q476 320 458 295 Q478 268 499 243 Q520 218 543.5 198.5 Q567 179 593.5 167 Q620 155 650 155 Z " />
<glyph glyph-name="integral" unicode="&#x222b;" horiz-adv-x="341" d="M-39 -175 Q-76 -175 -103 -167 Q-121 -163 -121 -144 Q-120 -133 -114 -129 Q-108 -125 -100 -127 Q-89 -130 -74 -132.5 Q-59 -135 -44 -135 Q-6 -135 20.5 -107.5 Q47 -80 58 -24 L174 617 Q187 689 223 724.5 Q259 760 315 760 Q354 760 385 747 Q401 741 401 726 Q401 703 380 708 Q369 713 353 716.5 Q337 720 321 720 Q283 720 256 693 Q229 666 220 613 L103 -28 Q89 -103 53.5 -139 Q18 -175 -39 -175 Z " />
<glyph glyph-name="product" unicode="&#x220f;" horiz-adv-x="602" d="M580 710 Q608 710 608 687 Q608 666 580 666 L495 666 L495 -95 Q495 -121 468 -121 Q443 -121 443 -95 L443 666 L210 666 L210 -95 Q210 -121 185 -121 Q160 -121 160 -95 L160 666 L88 666 Q60 666 60 689 Q60 710 88 710 L580 710 L580 710 Z " />
<glyph glyph-name="summation" unicode="&#x2211;" horiz-adv-x="540" d="M84 -122 Q64 -122 64 -103 Q64 -90 72 -81 L369 303 L73 670 Q68 676 66 681 Q64 686 64 694 Q64 710 84 710 L453 710 Q475 710 475 691 Q475 671 453 671 L122 671 L412 313 Q416 309 416 303 Q416 297 412 292 L121 -82 L454 -82 Q475 -82 475 -102 Q475 -122 454 -122 L84 -122 L84 -122 Z " />
<glyph glyph-name="radical" unicode="&#x221a;" horiz-adv-x="527" d="M229 -127 Q215 -127 206 -106 L39 299 Q36 305 36 311 Q36 331 56 331 Q71 331 80 310 L230 -64 L468 694 Q476 720 494 720 Q514 720 514 701 Q514 694 511 687 L255 -105 Q247 -127 229 -127 Z " />
<glyph glyph-name="micro" unicode="&#xb5;" horiz-adv-x="536" d="M51 -172 Q27 -172 27 -149 Q27 -146 29 -133.5 Q31 -121 35.5 -94 Q40 -67 46.5 -23 Q53 21 62 87 L104 461 Q107 490 132 490 Q144 490 149 484 Q154 478 154 469 Q154 462 153 459 L120 171 Q118 162 118 155.5 Q118 149 118 144 Q118 82 148 56 Q178 30 227 30 Q260 30 289.5 42.5 Q319 55 342 79 Q365 103 380.5 138.5 Q396 174 402 221 L431 463 Q434 490 458 490 Q481 490 481 468 Q481 466 480.5 463.5 Q480 461 480 459 L429 19 Q426 -10 403 -10 Q392 -10 386.5 -5.5 Q381 -1 383 14 L391 100 L390 100 Q364 45 320 17.5 Q276 -10 220 -10 Q177 -10 146.5 7 Q116 24 102 60 L78 -144 Q75 -172 51 -172 Z " />
<glyph glyph-name="partialdiff" unicode="&#x2202;" horiz-adv-x="512" d="M255 719 Q309 719 351.5 698.5 Q394 678 423 640 Q452 602 467.5 547.5 Q483 493 483 424 Q483 341 465 262.5 Q447 184 412 123.5 Q377 63 326 26.5 Q275 -10 209 -10 Q174 -10 143 3.5 Q112 17 89.5 43 Q67 69 54 105.5 Q41 142 41 189 Q41 244 60 292 Q79 340 112 374.5 Q145 409 189.5 429 Q234 449 285 449 Q327 449 368 437 Q409 425 437 400 L437 418 Q437 539 388.5 609.5 Q340 680 248 680 Q231 680 212 677 Q193 674 176 669 Q169 667 163 666 Q157 665 154 665 Q137 665 137 683 Q137 699 160 705 Q204 719 255 719 Z M216 31 Q259 31 296.5 56 Q334 81 362.5 125.5 Q391 170 409.5 230 Q428 290 434 361 Q421 372 404 381 Q387 390 367.5 396.5 Q348 403 327.5 406.5 Q307 410 288 410 Q246 410 209.5 393 Q173 376 146 347 Q119 318 103.5 278.5 Q88 239 88 194 Q88 157 97.5 127 Q107 97 124.5 75.5 Q142 54 165.5 42.5 Q189 31 216 31 Z " />
<glyph glyph-name="percent" unicode="&#x25;" horiz-adv-x="652" d="M197 427 Q155 427 126.5 461 Q98 495 98 552 Q98 590 109 621 Q120 652 139 674 Q158 696 182.5 708 Q207 720 233 720 Q275 720 303 686.5 Q331 653 331 595 Q331 557 320 526.5 Q309 496 290 473.5 Q271 451 247 439 Q223 427 197 427 Z M58 -11 Q54 -8 54 -3 Q54 3 58 7 L585 696 Q589 702 595 702 Q600 702 603 699 Q607 695 607 689 Q607 685 604 681 L76 -8 Q71 -14 66 -14 Q61 -14 58 -11 Z M201 459 Q220 459 237.5 468.5 Q255 478 268 496 Q281 514 289 539 Q297 564 297 595 Q297 640 277.5 664 Q258 688 229 688 Q210 688 192.5 678.5 Q175 669 162 652 Q149 635 141 609.5 Q133 584 133 553 Q133 509 152 484 Q171 459 201 459 Z M451 -10 Q408 -10 380 24 Q352 58 352 115 Q352 153 363 184 Q374 215 393 237 Q412 259 436.5 271 Q461 283 487 283 Q529 283 557 249.5 Q585 216 585 158 Q585 120 573.5 89.5 Q562 59 543.5 36.5 Q525 14 500.5 2 Q476 -10 451 -10 Z M455 22 Q474 22 491 31.5 Q508 41 521 59 Q534 77 542 102 Q550 127 550 157 Q550 202 531 226.5 Q512 251 482 251 Q463 251 445.5 241.5 Q428 232 415 215 Q402 198 394 172.5 Q386 147 386 116 Q386 72 405 47 Q424 22 455 22 Z " />
<glyph glyph-name="perthousand" unicode="&#x2030;" horiz-adv-x="932" d="M197 427 Q155 427 126.5 461 Q98 495 98 552 Q98 590 109 621 Q120 652 139 674 Q158 696 182.5 708 Q207 720 233 720 Q275 720 303 686.5 Q331 653 331 595 Q331 557 320 526.5 Q309 496 290 473.5 Q271 451 247 439 Q223 427 197 427 Z M58 -11 Q54 -8 54 -3 Q54 3 58 7 L585 696 Q589 702 595 702 Q600 702 603 699 Q607 695 607 689 Q607 685 604 681 L76 -8 Q71 -14 66 -14 Q61 -14 58 -11 Z M201 459 Q220 459 237.5 468.5 Q255 478 268 496 Q281 514 289 539 Q297 564 297 595 Q297 640 277.5 664 Q258 688 229 688 Q210 688 192.5 678.5 Q175 669 162 652 Q149 635 141 609.5 Q133 584 133 553 Q133 509 152 484 Q171 459 201 459 Z M451 -10 Q408 -10 380 24 Q352 58 352 115 Q352 153 363 184 Q374 215 393 237 Q412 259 436.5 271 Q461 283 487 283 Q529 283 557 249.5 Q585 216 585 158 Q585 120 573.5 89.5 Q562 59 543.5 36.5 Q525 14 500.5 2 Q476 -10 451 -10 Z M730 -10 Q688 -10 659.5 24 Q631 58 631 115 Q631 153 642.5 184 Q654 215 673 237 Q692 259 716.5 271 Q741 283 767 283 Q808 283 836 249.5 Q864 216 864 158 Q864 120 853 89.5 Q842 59 823 36.5 Q804 14 780 2 Q756 -10 730 -10 Z M455 22 Q474 22 491 31.5 Q508 41 521 59 Q534 77 542 102 Q550 127 550 157 Q550 202 531 226.5 Q512 251 482 251 Q463 251 445.5 241.5 Q428 232 415 215 Q402 198 394 172.5 Q386 147 386 116 Q386 72 405 47 Q424 22 455 22 Z M734 22 Q753 22 770 31.5 Q787 41 800.5 59 Q814 77 822 102 Q830 127 830 157 Q830 202 811 226.5 Q792 251 762 251 Q743 251 725.5 241.5 Q708 232 694.5 215 Q681 198 673 172.5 Q665 147 665 116 Q665 72 684.5 47 Q704 22 734 22 Z " />
<glyph glyph-name="lozenge" unicode="&#x25ca;" horiz-adv-x="549" d="M278 -55 Q267 -55 254 -33 L55 324 Q50 333 50 345 Q50 355 56 367 L254 723 Q265 742 278 742 Q293 742 302 723 L494 367 Q500 355 500 345 Q500 334 494 324 L302 -32 Q290 -55 278 -55 Z M466 345 L278 692 L83 345 L278 -2 L466 345 Z " />
<glyph glyph-name="apple" unicode="&#xf8ff;" horiz-adv-x="999" d="M499 -140 Q430 -140 366.5 -122 Q303 -104 247.5 -71.5 Q192 -39 146.5 6.5 Q101 52 68.5 107.5 Q36 163 18 227 Q0 291 0 360 Q0 463 39.5 554 Q79 645 146.5 712.5 Q214 780 305 819.5 Q396 859 499 859 Q602 859 693 819.5 Q784 780 852 712.5 Q920 645 959.5 554 Q999 463 999 360 Q999 256 959.5 165 Q920 74 852 6.5 Q784 -61 693 -100.5 Q602 -140 499 -140 Z M499 109 Q585 109 671.5 112 Q758 115 840 124 Q864 126 876.5 134.5 Q889 143 892 168 Q896 216 896.5 263.5 Q897 311 897 360 Q897 408 896.5 455.5 Q896 503 892 551 Q889 576 876.5 584.5 Q864 593 840 595 Q758 604 671.5 607 Q585 610 499 610 Q413 610 326.5 607 Q240 604 157 595 Q134 593 121.5 584.5 Q109 576 106 551 Q101 503 100.5 455.5 Q100 408 100 360 Q100 311 100.5 263.5 Q101 216 106 168 Q109 143 121.5 134.5 Q134 126 157 124 Q240 115 326.5 112 Q413 109 499 109 Z M499 157 Q456 157 419 173 Q382 189 355 217 Q328 245 312.5 281.5 Q297 318 297 360 Q297 401 312.5 438 Q328 475 355 502.5 Q382 530 419 546 Q456 562 499 562 Q542 562 579 546 Q616 530 643 502.5 Q670 475 685.5 438 Q701 401 701 360 Q701 318 685.5 281.5 Q670 245 643 217 Q616 189 579 173 Q542 157 499 157 Z " />
<glyph glyph-name="at" unicode="&#x40;" horiz-adv-x="839" d="M389 -150 Q310 -150 245.5 -122 Q181 -94 135 -45.5 Q89 3 64 68 Q39 133 39 207 Q39 292 73 367.5 Q107 443 165.5 499.5 Q224 556 302 588.5 Q380 621 467 621 Q542 621 604 597 Q666 573 710.5 530 Q755 487 779 429 Q803 371 803 303 Q803 250 789.5 202.5 Q776 155 752.5 119.5 Q729 84 697.5 63 Q666 42 630 42 Q592 42 569 65 Q546 88 545 131 Q517 86 473.5 63 Q430 40 386 40 Q355 40 326.5 52.5 Q298 65 276.5 88.5 Q255 112 242 144.5 Q229 177 229 217 Q229 265 246.5 305.5 Q264 346 293 375 Q322 404 358.5 420 Q395 436 434 436 Q479 436 515 412.5 Q551 389 568 344 L576 405 Q581 428 599 428 Q608 428 613 421.5 Q618 415 616 405 L584 148 Q583 143 583 135 Q583 110 596 93 Q609 76 637 76 Q664 76 688.5 94.5 Q713 113 731.5 143.5 Q750 174 760.5 215 Q771 256 771 301 Q771 363 749 416 Q727 469 687 507.5 Q647 546 590 568 Q533 590 463 590 Q382 590 310.5 559.5 Q239 529 186 477 Q133 425 102.5 355.5 Q72 286 72 209 Q72 142 94.5 82.5 Q117 23 158.5 -22 Q200 -67 259 -93 Q318 -119 391 -119 Q441 -119 479 -111 Q517 -103 544 -94 Q571 -85 587 -77 Q603 -69 610 -69 Q625 -69 625 -83 Q625 -92 615 -98 Q562 -126 501 -138 Q440 -150 389 -150 Z M396 77 Q431 77 461 92 Q491 107 512.5 132.5 Q534 158 546 191 Q558 224 558 259 Q558 293 548.5 319.5 Q539 346 522.5 364 Q506 382 484 391 Q462 400 437 400 Q405 400 375 386.5 Q345 373 322 349 Q299 325 285 291.5 Q271 258 271 218 Q271 186 281 160 Q291 134 308.5 115.5 Q326 97 348.5 87 Q371 77 396 77 Z " />
<glyph glyph-name="ampersand" unicode="&#x26;" horiz-adv-x="633" d="M542 28 Q548 20 548 14 Q548 5 541 -1.5 Q534 -8 525 -8 Q513 -8 506 2 L445 75 Q401 35 346 12.5 Q291 -10 226 -10 Q184 -10 148.5 1 Q113 12 88 32.5 Q63 53 49 82.5 Q35 112 35 148 Q35 217 81 269 Q127 321 215 359 Q186 397 167 439 Q148 481 148 525 Q148 570 165 606.5 Q182 643 211.5 668 Q241 693 279.5 706.5 Q318 720 360 720 Q389 720 413 716.5 Q437 713 457 707 Q483 698 483 680 Q483 670 477.5 664.5 Q472 659 465 659 Q456 659 428.5 668.5 Q401 678 364 678 Q331 678 301 668 Q271 658 248 638.5 Q225 619 211 591 Q197 563 197 527 Q197 479 223 431.5 Q249 384 292 333 L450 139 Q485 185 505.5 245.5 Q526 306 528 375 Q528 400 548 400 Q569 400 569 376 Q569 298 545 229 Q521 160 476 108 L542 28 Z M85 152 Q85 98 126 65 Q167 32 234 32 Q290 32 337 51.5 Q384 71 420 106 L247 318 L238 329 Q163 294 124 252 Q85 210 85 152 Z " />
<glyph glyph-name="paragraph" unicode="&#xb6;" horiz-adv-x="527" d="M221 -165 Q210 -165 210 -155 Q210 -150 215 -143 Q270 -67 282 25 L321 301 L290 301 Q241 301 201.5 314 Q162 327 134 350.5 Q106 374 90.5 407 Q75 440 75 481 Q75 532 95.5 574 Q116 616 153 646.5 Q190 677 239.5 693.5 Q289 710 348 710 L392 710 Q410 710 408 692 L313 25 Q306 -29 289 -71 Q272 -113 243 -151 Q232 -165 221 -165 Z M451 695 Q454 710 469 710 Q484 710 482 692 L409 177 Q405 146 400.5 123 Q396 100 389.5 81 Q383 62 374.5 44.5 Q366 27 354 8 L451 695 Z " />
<glyph glyph-name="section" unicode="&#xa7;" horiz-adv-x="519" d="M128 -172 Q93 -172 55.5 -164.5 Q18 -157 -20 -139 Q-36 -130 -36 -113 Q-36 -103 -31 -97.5 Q-26 -92 -19 -92 Q-14 -92 -9.5 -94 Q-5 -96 3 -100 Q38 -117 71.5 -123.5 Q105 -130 137 -130 Q205 -130 262.5 -104 Q320 -78 358 -33 L128 374 Q111 404 101.5 434 Q92 464 92 497 Q92 552 114 599.5 Q136 647 174 682 Q212 717 263.5 736.5 Q315 756 374 756 Q403 756 436.5 750.5 Q470 745 499 736 Q519 729 519 710 Q519 699 514 694 Q509 689 501 689 Q495 689 482 694 Q456 703 423.5 708 Q391 713 362 713 Q314 713 271.5 697.5 Q229 682 197 655 L414 275 Q434 241 442.5 205.5 Q451 170 451 138 Q451 73 426 16.5 Q401 -40 357.5 -82 Q314 -124 255 -148 Q196 -172 128 -172 Z M377 -11 Q398 20 410 56.5 Q422 93 422 134 Q422 163 415 196 Q408 229 391 259 L176 636 Q150 608 135.5 573 Q121 538 121 496 Q121 470 129.5 443 Q138 416 153 387 L377 -11 Z " />
<glyph glyph-name="copyright" unicode="&#xa9;" horiz-adv-x="816" d="M385 -10 Q314 -10 254 13.5 Q194 37 150 80 Q106 123 81 183 Q56 243 56 316 Q56 405 90 479.5 Q124 554 180 607.5 Q236 661 309 690.5 Q382 720 460 720 Q530 720 590 696 Q650 672 694 628 Q738 584 763 523 Q788 462 788 387 Q788 300 754.5 227 Q721 154 665.5 101.5 Q610 49 537 19.5 Q464 -10 385 -10 Z M388 12 Q461 12 529 39 Q597 66 649.5 115.5 Q702 165 733 234 Q764 303 764 387 Q764 457 740.5 515 Q717 573 676 613.5 Q635 654 579 676.5 Q523 699 457 699 Q383 699 315 671 Q247 643 195 593 Q143 543 111.5 473 Q80 403 80 318 Q80 249 103.5 193 Q127 137 168.5 96.5 Q210 56 266 34 Q322 12 388 12 Z M400 154 Q368 154 339 166.5 Q310 179 288 202 Q266 225 253 257.5 Q240 290 240 331 Q240 382 258.5 423.5 Q277 465 307 494 Q337 523 375 539 Q413 555 452 555 Q480 555 504 547.5 Q528 540 545 531 Q560 523 560 509 Q560 501 555.5 497 Q551 493 546 493 Q541 493 533.5 497 Q526 501 514 506.5 Q502 512 486 516 Q470 520 450 520 Q419 520 388.5 507 Q358 494 333.5 469.5 Q309 445 294 410.5 Q279 376 279 334 Q279 300 289.5 273 Q300 246 318 227.5 Q336 209 359.5 199 Q383 189 409 189 Q439 189 461 197 Q483 205 491 208 Q499 212 504 214.5 Q509 217 512 217 Q526 217 526 203 Q526 189 510 182 Q487 171 459 162.5 Q431 154 400 154 Z " />
<glyph glyph-name="registered" unicode="&#xae;" horiz-adv-x="461" d="M242 334 Q205 334 174.5 346.5 Q144 359 122 381 Q100 403 88 434 Q76 465 76 503 Q76 551 93 591 Q110 631 139 659.5 Q168 688 206.5 704 Q245 720 289 720 Q325 720 355.5 707.5 Q386 695 408 672.5 Q430 650 442.5 619 Q455 588 455 550 Q455 502 438.5 462.5 Q422 423 393 394.5 Q364 366 325 350 Q286 334 242 334 Z M244 353 Q284 353 318.5 367.5 Q353 382 379 407.5 Q405 433 420 469 Q435 505 435 549 Q435 619 394.5 660 Q354 701 287 701 Q248 701 213 687 Q178 673 152 647 Q126 621 111 585 Q96 549 96 505 Q96 436 137 394.5 Q178 353 244 353 Z M211 429 Q198 429 200 443 L222 625 Q224 638 236 638 L278 638 Q307 638 323.5 624 Q340 610 340 587 Q340 561 323 545 Q306 529 277 525 L333 446 Q335 444 335 439 Q335 429 324 429 Q313 429 307 439 L249 524 L235 524 L224 441 Q222 429 211 429 Z M267 544 Q289 544 302 555.5 Q315 567 315 584 Q315 598 304.5 607.5 Q294 617 275 617 L246 617 L237 544 L267 544 Z " />
<glyph glyph-name="trademark" unicode="&#x2122;" horiz-adv-x="714" d="M290 369 Q277 369 277 383 Q277 385 277 387.5 Q277 390 278 392 L372 692 Q378 710 396 710 Q416 710 419 691 L483 429 L611 694 Q620 710 637 710 Q655 710 657 689 L677 390 L677 387 Q677 369 660 369 Q642 369 640 389 L626 662 L496 394 Q490 381 477 381 Q463 381 459 396 L395 657 L312 385 Q308 369 290 369 Z M154 369 Q136 369 138 390 L174 678 L88 678 Q71 678 73 694 Q76 709 90 709 L298 709 Q316 709 313 693 Q311 678 296 678 L210 678 L174 387 Q171 369 154 369 Z " />
<glyph glyph-name="degree" unicode="&#xb0;" horiz-adv-x="339" d="M199 476 Q151 476 122 506.5 Q93 537 93 585 Q93 614 103.5 639 Q114 664 132.5 682 Q151 700 175.5 710 Q200 720 227 720 Q274 720 303.5 690 Q333 660 333 613 Q333 584 322 559 Q311 534 293 515.5 Q275 497 250.5 486.5 Q226 476 199 476 Z M202 510 Q221 510 238.5 517.5 Q256 525 268.5 538.5 Q281 552 288.5 570.5 Q296 589 296 610 Q296 644 276 665.5 Q256 687 224 687 Q185 687 157 659 Q129 631 129 589 Q129 554 149.5 532 Q170 510 202 510 Z " />
<glyph glyph-name="bar" unicode="&#x7c;" horiz-adv-x="139" d="M13 -197 Q-3 -196 0 -170 L121 811 Q125 839 146 839 Q163 836 160 809 L36 -172 Q32 -197 13 -197 Z " />
<glyph glyph-name="brokenbar" unicode="&#xa6;" horiz-adv-x="139" d="M90 415 Q73 415 76 442 L121 811 Q125 839 146 839 Q163 836 160 809 L113 442 Q108 415 90 415 Z M12 -197 Q-1 -195 -1 -179 Q-1 -173 0 -170 L45 203 Q49 231 68 231 Q86 231 83 203 L35 -172 Q32 -197 12 -197 Z " />
<glyph glyph-name="dagger" unicode="&#x2020;" horiz-adv-x="338" d="M320 596 Q344 596 344 579 Q344 559 318 561 Q295 561 272.5 561.5 Q250 562 227 563 L196 309 Q193 282 174 282 Q156 282 159 310 L189 563 Q166 562 143.5 561.5 Q121 561 98 561 Q76 561 76 579 Q76 596 100 596 Q124 595 147 594.5 Q170 594 193 594 L205 692 Q208 716 227 716 Q235 716 240 710 Q245 704 243 692 L231 594 Q254 595 275.5 595.5 Q297 596 320 596 Z " />
<glyph glyph-name="daggerdbl" unicode="&#x2021;" horiz-adv-x="338" d="M318 562 Q295 563 272.5 563.5 Q250 564 227 564 L210 425 Q233 426 255 426.5 Q277 427 300 427 Q324 427 324 410 Q324 399 317 395.5 Q310 392 298 392 Q275 392 252 392.5 Q229 393 206 394 L196 309 Q193 282 174 282 Q156 282 159 310 L169 394 Q146 393 123.5 392.5 Q101 392 78 392 Q56 392 56 410 Q56 427 80 427 Q104 427 127 426.5 Q150 426 173 425 L190 564 Q167 563 144 562.5 Q121 562 98 562 Q76 562 76 581 Q76 598 100 598 L193 595 L205 692 Q208 716 227 716 Q235 716 240 710 Q245 704 243 692 L231 596 Q254 597 275.5 597.5 Q297 598 320 598 Q344 598 344 581 Q344 570 337 566 Q330 562 318 562 Z " />
<glyph glyph-name="asciicircum" unicode="&#x5e;" horiz-adv-x="600" d="M436 310 Q425 310 415 323 L324 444 L199 319 Q191 311 182 311 Q168 311 168 325 Q168 332 174 340 L292 469 Q302 480 311 484 Q320 488 331 488 Q351 488 365 465 L449 341 Q453 334 453 327 Q453 310 436 310 Z " />
<glyph glyph-name="dieresiscomb" unicode="&#x308;" d="M-17 646 Q-32 646 -40.5 655.5 Q-49 665 -49 679 Q-49 696 -38 708.5 Q-27 721 -10 721 Q5 721 13.5 711 Q22 701 22 686 Q22 669 11 657.5 Q0 646 -17 646 Z M120 646 Q105 646 96.5 655.5 Q88 665 88 679 Q88 696 99 708.5 Q110 721 127 721 Q142 721 150.5 711 Q159 701 159 686 Q159 669 148 657.5 Q137 646 120 646 Z " />
<glyph glyph-name="dotaccentcomb" unicode="&#x307;" d="M48 628 Q29 628 18 641.5 Q7 655 7 673 Q7 696 22 711.5 Q37 727 60 727 Q79 727 90 714.5 Q101 702 101 683 Q101 661 86 644.5 Q71 628 48 628 Z " />
<glyph glyph-name="gravecomb" unicode="&#x300;" d="M-181 557 Q-188 557 -192.5 560 Q-197 563 -204 571 L-312 694 Q-319 702 -324 709.5 Q-329 717 -329 725 Q-329 736 -321 744 Q-313 752 -302 752 Q-285 752 -271 733 L-168 585 Q-164 580 -164 573 Q-164 566 -169 561.5 Q-174 557 -181 557 Z " />
<glyph glyph-name="acutecomb" unicode="&#x301;" d="M29 557 Q22 557 17 561.5 Q12 566 12 573 Q12 580 16 585 L119 733 Q133 752 150 752 Q161 752 169 744 Q177 736 177 725 Q177 717 172 709.5 Q167 702 160 694 L52 571 Q45 563 40.5 560 Q36 557 29 557 Z " />
<glyph glyph-name="hungarumlautcomb" unicode="&#x30b;" d="M-125 564 Q-132 564 -137 568.5 Q-142 573 -142 580 Q-142 587 -138 592 L-35 740 Q-21 759 -4 759 Q7 759 15 751 Q23 743 23 732 Q23 724 18 716.5 Q13 709 6 701 L-102 578 Q-109 570 -113.5 567 Q-118 564 -125 564 Z M-6 564 Q-13 564 -18 568.5 Q-23 573 -23 580 Q-23 587 -19 592 L84 740 Q98 759 115 759 Q126 759 134 751 Q142 743 142 732 Q142 724 137 716.5 Q132 709 125 701 L17 578 Q10 570 5.5 567 Q1 564 -6 564 Z " />
<glyph glyph-name="circumflexcomb" unicode="&#x302;" d="M-59 574 Q-75 574 -75 588 Q-75 594 -69 603 L29 732 Q38 744 45.5 748.5 Q53 753 62 753 Q80 753 90 734 L156 605 Q161 595 161 590 Q159 575 143 575 Q129 575 121 589 L58 708 L-37 586 Q-48 574 -59 574 Z " />
<glyph glyph-name="caroncomb" unicode="&#x30c;" d="M38 567 Q20 567 8 589 L-56 705 Q-63 715 -63 723 Q-63 730 -58 735 Q-53 740 -45 740 Q-38 740 -33.5 735.5 Q-29 731 -24 722 L43 612 L135 724 Q150 743 164 743 Q171 743 175 739.5 Q179 736 179 731 Q179 723 166 708 L72 586 Q57 567 38 567 Z " />
<glyph glyph-name="brevecomb" unicode="&#x306;" d="M48 606 Q1 606 -27.5 633.5 Q-56 661 -61 697 Q-61 699 -61.5 700 Q-62 701 -62 703 Q-62 711 -57.5 715.5 Q-53 720 -48 720 Q-37 720 -33 704 Q-22 668 -0.5 653.5 Q21 639 50 639 Q82 639 108.5 656.5 Q135 674 143 705 Q147 720 159 720 Q171 720 171 706 Q171 687 160.5 669 Q150 651 132.5 637 Q115 623 93 614.5 Q71 606 48 606 Z " />
<glyph glyph-name="ringcomb" unicode="&#x30a;" d="M41 576 Q8 576 -13 597.5 Q-34 619 -34 652 Q-34 694 -5.5 719.5 Q23 745 61 745 Q93 745 115 724.5 Q137 704 137 671 Q137 651 129 633.5 Q121 616 107.5 603.5 Q94 591 77 583.5 Q60 576 41 576 Z M44 602 Q70 602 89 621 Q108 640 108 669 Q108 692 94.5 706.5 Q81 721 58 721 Q32 721 13.5 702 Q-5 683 -5 654 Q-5 631 8 616.5 Q21 602 44 602 Z " />
<glyph glyph-name="tildecomb" unicode="&#x303;" d="M115 567 Q92 567 77.5 578 Q63 589 50.5 602.5 Q38 616 25.5 627 Q13 638 -6 638 Q-25 638 -34.5 623.5 Q-44 609 -49 595 Q-56 578 -70 578 Q-77 578 -81.5 583.5 Q-86 589 -84 600 Q-82 612 -76 626 Q-70 640 -59.5 652 Q-49 664 -35 671.5 Q-21 679 -4 679 Q19 679 34.5 668 Q50 657 63 643.5 Q76 630 88 619 Q100 608 116 608 Q135 608 145.5 620 Q156 632 160 653 Q164 663 167.5 669 Q171 675 180 675 Q189 675 193 669 Q197 663 197 654 Q196 640 190 624.5 Q184 609 173.5 596 Q163 583 148.5 575 Q134 567 115 567 Z " />
<glyph glyph-name="macroncomb" unicode="&#x304;" d="M-58 638 Q-80 638 -80 656 Q-80 666 -73.5 670.5 Q-67 675 -56 675 L159 675 Q168 675 174 671 Q180 667 180 657 Q180 649 173.5 643.5 Q167 638 157 638 L-58 638 L-58 638 Z " />
<glyph glyph-name="cedillacomb" unicode="&#x327;" d="M-27 -44 Q3 -44 21.5 -58.5 Q40 -73 40 -99 Q40 -116 32 -130.5 Q24 -145 10.5 -155 Q-3 -165 -20 -170.5 Q-37 -176 -56 -176 Q-93 -176 -114 -163 Q-122 -158 -122 -147 Q-122 -133 -111 -133 Q-106 -133 -91 -139 Q-76 -145 -56 -145 Q-31 -145 -14.5 -133.5 Q2 -122 2 -102 Q2 -86 -9.5 -78 Q-21 -70 -40 -70 Q-52 -70 -63 -72.5 Q-74 -75 -76 -75 Q-82 -75 -82 -70 Q-82 -68 -77 -58 L-29 10 L1 10 L-37 -44 L-27 -44 L-27 -44 Z " />
<glyph glyph-name="ogonekcomb" unicode="&#x328;" d="M-352 -176 Q-384 -176 -404 -159 Q-424 -142 -424 -112 Q-424 -78 -391.5 -42.5 Q-359 -7 -290 25 L-272 6 Q-305 -15 -326 -31 Q-347 -47 -359.5 -60.5 Q-372 -74 -376.5 -85 Q-381 -96 -381 -106 Q-381 -123 -370 -131.5 Q-359 -140 -344 -140 Q-332 -140 -325 -137 Q-318 -134 -311 -134 Q-297 -134 -297 -148 Q-297 -161 -312 -168.5 Q-327 -176 -352 -176 Z " />
<glyph glyph-name="slashshortcomb" unicode="&#x337;" d="M-410 -49 Q-423 -49 -423 -34 Q-423 -25 -416 -15 L-48 520 Q-40 531 -33.5 536.5 Q-27 542 -19 542 Q-2 542 -2 526 Q-2 518 -8 511 L-375 -23 Q-383 -35 -391 -42 Q-399 -49 -410 -49 Z " />
<glyph glyph-name="slashlongcomb" unicode="&#x338;" d="M-487 -44 Q-497 -44 -497 -35 Q-497 -30 -493 -25 L13 724 Q21 736 30 736 Q35 736 38.5 733.5 Q42 731 42 726 Q42 721 38 716 L-467 -30 Q-475 -44 -487 -44 Z " />
<glyph glyph-name="acute" unicode="&#xb4;" horiz-adv-x="500" d="M234 557 Q227 557 222 561.5 Q217 566 217 573 Q217 580 221 585 L324 733 Q338 752 355 752 Q366 752 374 744 Q382 736 382 725 Q382 717 377 709.5 Q372 702 365 694 L257 571 Q250 563 245.5 560 Q241 557 234 557 Z " />
<glyph glyph-name="breve" unicode="&#x2d8;" horiz-adv-x="500" d="M300 606 Q253 606 224.5 633.5 Q196 661 191 697 Q191 699 190.5 700 Q190 701 190 703 Q190 711 194.5 715.5 Q199 720 204 720 Q215 720 219 704 Q230 668 251.5 653.5 Q273 639 302 639 Q334 639 360.5 656.5 Q387 674 395 705 Q399 720 411 720 Q423 720 423 706 Q423 687 412.5 669 Q402 651 384.5 637 Q367 623 345 614.5 Q323 606 300 606 Z " />
<glyph glyph-name="caron" unicode="&#x2c7;" horiz-adv-x="500" d="M290 567 Q272 567 260 589 L196 705 Q189 715 189 723 Q189 730 194 735 Q199 740 207 740 Q214 740 218.5 735.5 Q223 731 228 722 L295 612 L387 724 Q402 743 416 743 Q423 743 427 739.5 Q431 736 431 731 Q431 723 418 708 L324 586 Q309 567 290 567 Z " />
<glyph glyph-name="cedilla" unicode="&#xb8;" horiz-adv-x="500" d="M219 -44 Q249 -44 267.5 -58.5 Q286 -73 286 -99 Q286 -116 278 -130.5 Q270 -145 256.5 -155 Q243 -165 226 -170.5 Q209 -176 190 -176 Q153 -176 132 -163 Q124 -158 124 -147 Q124 -133 135 -133 Q140 -133 155 -139 Q170 -145 190 -145 Q215 -145 231.5 -133.5 Q248 -122 248 -102 Q248 -86 236.5 -78 Q225 -70 206 -70 Q194 -70 183 -72.5 Q172 -75 170 -75 Q164 -75 164 -70 Q164 -68 169 -58 L217 10 L247 10 L209 -44 L219 -44 L219 -44 Z " />
<glyph glyph-name="circumflex" unicode="&#x2c6;" horiz-adv-x="500" d="M191 574 Q175 574 175 588 Q175 594 181 603 L279 732 Q288 744 295.5 748.5 Q303 753 312 753 Q330 753 340 734 L406 605 Q411 595 411 590 Q409 575 393 575 Q379 575 371 589 L308 708 L213 586 Q202 574 191 574 Z " />
<glyph glyph-name="dieresis" unicode="&#xa8;" horiz-adv-x="500" d="M232 646 Q217 646 208.5 655.5 Q200 665 200 679 Q200 696 211 708.5 Q222 721 239 721 Q254 721 262.5 711 Q271 701 271 686 Q271 669 260 657.5 Q249 646 232 646 Z M369 646 Q354 646 345.5 655.5 Q337 665 337 679 Q337 696 348 708.5 Q359 721 376 721 Q391 721 399.5 711 Q408 701 408 686 Q408 669 397 657.5 Q386 646 369 646 Z " />
<glyph glyph-name="dotaccent" unicode="&#x2d9;" horiz-adv-x="500" d="M297 628 Q278 628 267 641.5 Q256 655 256 673 Q256 696 271 711.5 Q286 727 309 727 Q328 727 339 714.5 Q350 702 350 683 Q350 661 335 644.5 Q320 628 297 628 Z " />
<glyph glyph-name="grave" unicode="&#x60;" horiz-adv-x="500" d="M366 557 Q359 557 354.5 560 Q350 563 343 571 L235 694 Q228 702 223 709.5 Q218 717 218 725 Q218 736 226 744 Q234 752 245 752 Q262 752 276 733 L379 585 Q383 580 383 573 Q383 566 378 561.5 Q373 557 366 557 Z " />
<glyph glyph-name="hungarumlaut" unicode="&#x2dd;" horiz-adv-x="500" d="M175 564 Q168 564 163 568.5 Q158 573 158 580 Q158 587 162 592 L265 740 Q279 759 296 759 Q307 759 315 751 Q323 743 323 732 Q323 724 318 716.5 Q313 709 306 701 L198 578 Q191 570 186.5 567 Q182 564 175 564 Z M294 564 Q287 564 282 568.5 Q277 573 277 580 Q277 587 281 592 L384 740 Q398 759 415 759 Q426 759 434 751 Q442 743 442 732 Q442 724 437 716.5 Q432 709 425 701 L317 578 Q310 570 305.5 567 Q301 564 294 564 Z " />
<glyph glyph-name="macron" unicode="&#xaf;" horiz-adv-x="500" d="M193 638 Q171 638 171 656 Q171 666 177.5 670.5 Q184 675 195 675 L410 675 Q419 675 425 671 Q431 667 431 657 Q431 649 424.5 643.5 Q418 638 408 638 L193 638 L193 638 Z " />
<glyph glyph-name="ogonek" unicode="&#x2db;" horiz-adv-x="500" d="M209 -176 Q177 -176 157 -159 Q137 -142 137 -112 Q137 -78 169.5 -42.5 Q202 -7 271 25 L289 6 Q256 -15 235 -31 Q214 -47 201.5 -60.5 Q189 -74 184.5 -85 Q180 -96 180 -106 Q180 -123 191 -131.5 Q202 -140 217 -140 Q229 -140 236 -137 Q243 -134 250 -134 Q264 -134 264 -148 Q264 -161 249 -168.5 Q234 -176 209 -176 Z " />
<glyph glyph-name="ring" unicode="&#x2da;" horiz-adv-x="500" d="M291 576 Q258 576 237 597.5 Q216 619 216 652 Q216 694 244.5 719.5 Q273 745 311 745 Q343 745 365 724.5 Q387 704 387 671 Q387 651 379 633.5 Q371 616 357.5 603.5 Q344 591 327 583.5 Q310 576 291 576 Z M294 602 Q320 602 339 621 Q358 640 358 669 Q358 692 344.5 706.5 Q331 721 308 721 Q282 721 263.5 702 Q245 683 245 654 Q245 631 258 616.5 Q271 602 294 602 Z " />
<glyph glyph-name="tilde" unicode="&#x2dc;" horiz-adv-x="500" d="M361 605 Q338 605 323.5 616 Q309 627 296.5 640.5 Q284 654 271.5 665 Q259 676 240 676 Q221 676 211.5 661.5 Q202 647 197 633 Q190 616 176 616 Q169 616 164.5 621.5 Q160 627 162 638 Q164 650 170 664 Q176 678 186.5 690 Q197 702 211 709.5 Q225 717 242 717 Q265 717 280.5 706 Q296 695 309 681.5 Q322 668 334 657 Q346 646 362 646 Q381 646 391.5 658 Q402 670 406 691 Q410 701 413.5 707 Q417 713 426 713 Q435 713 439 707 Q443 701 443 692 Q442 678 436 662.5 Q430 647 419.5 634 Q409 621 394.5 613 Q380 605 361 605 Z " />
<glyph glyph-name="A" unicode="A" horiz-adv-x="603" d="M570 32 Q571 28 571.5 25 Q572 22 572 19 Q572 6 564.5 -0.5 Q557 -7 546 -7 Q535 -7 527.5 -1.5 Q520 4 517 18 L460 230 L143 230 Q125 194 107.5 161 Q90 128 75.5 100.5 Q61 73 49.5 51 Q38 29 31 16 Q20 -5 0 -5 Q-21 -5 -21 15 Q-21 22 -17 30 L334 697 Q343 714 360 714 Q378 714 383 695 L570 32 Z M448 275 Q434 327 419.5 380.5 Q405 434 392 482.5 Q379 531 368.5 571 Q358 611 351 637 Q339 614 319 574.5 Q299 535 274.5 486.5 Q250 438 222 383.5 Q194 329 166 275 L448 275 Z " />
<glyph glyph-name="Aacute" unicode="&#xc1;" horiz-adv-x="603" d="M570 32 Q571 28 571.5 25 Q572 22 572 19 Q572 6 564.5 -0.5 Q557 -7 546 -7 Q535 -7 527.5 -1.5 Q520 4 517 18 L460 230 L143 230 Q125 194 107.5 161 Q90 128 75.5 100.5 Q61 73 49.5 51 Q38 29 31 16 Q20 -5 0 -5 Q-21 -5 -21 15 Q-21 22 -17 30 L334 697 Q343 714 360 714 Q378 714 383 695 L570 32 Z M448 275 Q434 327 419.5 380.5 Q405 434 392 482.5 Q379 531 368.5 571 Q358 611 351 637 Q339 614 319 574.5 Q299 535 274.5 486.5 Q250 438 222 383.5 Q194 329 166 275 L448 275 Z M321 768 Q309 768 309 778 Q309 786 326 805 L369 850 Q393 876 412 882 Q431 888 450 888 L456 888 Q473 888 480 883 Q487 878 487 871 Q487 863 475 855 Q463 847 437 830 L359 781 Q348 773 338.5 770.5 Q329 768 321 768 Z " />
</font>
</svg>
