<?xml version="1.0" encoding="UTF-8"?>
<svg xmlns="http://www.w3.org/2000/svg" xmlns:xlink="http://www.w3.org/1999/xlink" version="1.2" >
<font id="GlobotipoTexto-ThinItalic">
<font-face  font-family="Globotipo Texto" units-per-em="1000" ascent="1000" descent="-400" font-style="italic" font-weight="100" font-stretch="normal" slope="-7" cap-height="710" x-height="480" underline-position="-75" underline-thickness="50" />
<missing-glyph  horiz-adv-x="700" d="M350 709 Q423 709 487.5 681 Q552 653 600 605 Q648 557 676 492.5 Q704 428 704 355 Q704 281 676 216.5 Q648 152 600 104 Q552 56 487.5 28 Q423 0 350 0 Q276 0 211.5 28 Q147 56 99 104 Q51 152 23 216.5 Q-5 281 -5 355 Q-5 428 23 492.5 Q51 557 99 605 Q147 653 211.5 681 Q276 709 350 709 Z M350 20 Q419 20 480 46.5 Q541 73 586 118.5 Q631 164 657.5 225 Q684 286 684 355 Q684 424 657.5 485 Q631 546 586 591 Q541 636 480 662.5 Q419 689 350 689 Q281 689 220 662.5 Q159 636 113.5 591 Q68 546 41.5 485 Q15 424 15 355 Q15 286 41.5 225 Q68 164 113.5 118.5 Q159 73 220 46.5 Q281 20 350 20 Z M551 569 Q555 573 559 569 L565 563 Q569 559 565 555 L364 354 L565 153 Q569 149 565 145 L559 139 Q555 135 551 139 L350 340 L149 139 Q145 135 141 139 L135 145 Q131 149 135 153 L336 354 L135 555 Q131 559 135 563 L141 569 Q145 573 149 569 L350 368 L551 569 Z " />
<glyph glyph-name=".null" d="" />
<glyph glyph-name="nonmarkingreturn" unicode="&#xd;" horiz-adv-x="218" d="" />
<glyph glyph-name="space" unicode="&#x20;" horiz-adv-x="218" d="" />
<glyph glyph-name="Adieresis" unicode="&#xc4;" horiz-adv-x="589" d="M535 0 Q530 0 529 5 L461 250 L130 250 Q98 187 66 126.5 Q34 66 1 4 Q0 0 -6 0 L-25 0 Q-32 0 -29 7 L344 711 Q345 715 351 715 L356 715 Q361 715 362 710 L561 7 Q562 0 556 0 L535 0 Z M453 278 Q427 375 400 470.5 Q373 566 347 661 Q296 566 246 470.5 Q196 375 145 278 L453 278 Z M287 780 Q270 780 260 791.5 Q250 803 250 820 Q250 839 263.5 853 Q277 867 297 867 Q314 867 323.5 855.5 Q333 844 333 827 Q333 808 320 794 Q307 780 287 780 Z M436 780 Q419 780 409 791.5 Q399 803 399 820 Q399 839 412.5 853 Q426 867 446 867 Q463 867 472.5 855.5 Q482 844 482 827 Q482 808 469 794 Q456 780 436 780 Z " />
<glyph glyph-name="Agrave" unicode="&#xc0;" horiz-adv-x="589" d="M535 0 Q530 0 529 5 L461 250 L130 250 Q98 187 66 126.5 Q34 66 1 4 Q0 0 -6 0 L-25 0 Q-32 0 -29 7 L344 711 Q345 715 351 715 L356 715 Q361 715 362 710 L561 7 Q562 0 556 0 L535 0 Z M453 278 Q427 375 400 470.5 Q373 566 347 661 Q296 566 246 470.5 Q196 375 145 278 L453 278 Z M350 772 Q353 765 345 765 L335 765 Q331 765 327 769 L247 886 Q242 893 251 893 L294 893 Q300 893 301 888 L350 772 L350 772 Z " />
<glyph glyph-name="Aring" unicode="&#xc5;" horiz-adv-x="589" d="M535 0 Q530 0 529 5 L461 250 L130 250 Q98 187 66 126.5 Q34 66 1 4 Q0 0 -6 0 L-25 0 Q-32 0 -29 7 L344 711 Q345 715 351 715 L356 715 Q361 715 362 710 L561 7 Q562 0 556 0 L535 0 Z M453 278 Q427 375 400 470.5 Q373 566 347 661 Q296 566 246 470.5 Q196 375 145 278 L453 278 Z M356 743 Q325 743 305.5 763.5 Q286 784 286 816 Q286 855 312.5 880 Q339 905 376 905 Q406 905 425.5 885.5 Q445 866 445 835 Q445 796 419 769.5 Q393 743 356 743 Z M359 763 Q385 763 404.5 783 Q424 803 424 832 Q424 855 410 870.5 Q396 886 373 886 Q346 886 327 866.5 Q308 847 308 818 Q308 794 322 778.5 Q336 763 359 763 Z " />
<glyph glyph-name="Atilde" unicode="&#xc3;" horiz-adv-x="589" d="M535 0 Q530 0 529 5 L461 250 L130 250 Q98 187 66 126.5 Q34 66 1 4 Q0 0 -6 0 L-25 0 Q-32 0 -29 7 L344 711 Q345 715 351 715 L356 715 Q361 715 362 710 L561 7 Q562 0 556 0 L535 0 Z M453 278 Q427 375 400 470.5 Q373 566 347 661 Q296 566 246 470.5 Q196 375 145 278 L453 278 Z M308 857 Q284 857 271.5 836.5 Q259 816 257 784 Q257 778 251 778 L240 778 Q234 778 234 784 Q236 826 255 855 Q274 884 307 884 Q334 884 348.5 870 Q363 856 375 842 Q386 829 397.5 818 Q409 807 428 807 Q450 807 461 826 Q472 845 474 874 Q474 880 480 880 L492 880 Q498 880 498 874 Q496 833 477.5 806 Q459 779 428 779 Q402 779 386.5 792.5 Q371 806 360 821 Q349 835 338.5 846 Q328 857 308 857 Z " />
<glyph glyph-name="AE" unicode="&#xc6;" horiz-adv-x="735" d="M735 688 Q735 682 728 682 L476 682 L439 387 L669 387 Q674 387 674 381 L673 365 Q673 359 666 359 L436 359 L395 28 L647 28 Q652 28 652 22 L651 6 Q651 0 644 0 L368 0 Q363 0 363 6 L390 225 L150 225 L2 4 Q-2 0 -6 0 L-24 0 Q-33 0 -28 7 L438 706 Q442 710 446 710 L731 710 Q736 710 736 704 L735 688 Z M393 253 L443 664 L168 253 L393 253 Z " />
<glyph glyph-name="B" unicode="B" horiz-adv-x="520" d="M315 370 Q390 362 429.5 320 Q469 278 469 218 Q469 170 449.5 130 Q430 90 394.5 61 Q359 32 309.5 16 Q260 0 200 0 L60 0 Q53 0 55 6 L150 704 Q150 710 157 710 L275 710 Q370 710 423.5 669 Q477 628 477 557 Q477 525 466.5 495 Q456 465 435.5 439.5 Q415 414 385 396 Q355 378 315 371 L315 370 Z M136 381 L252 381 Q294 381 329.5 392.5 Q365 404 391 426.5 Q417 449 432 480.5 Q447 512 447 553 Q447 614 401.5 648 Q356 682 273 682 L177 682 L136 381 Z M203 27 Q256 27 299.5 41 Q343 55 373.5 80 Q404 105 421 139.5 Q438 174 438 216 Q438 247 425.5 272.5 Q413 298 390.5 316 Q368 334 336.5 343.5 Q305 353 267 353 L132 353 L87 27 L203 27 Z " />
<glyph glyph-name="C" unicode="C" horiz-adv-x="626" d="M376 -11 Q306 -11 247.5 11.5 Q189 34 146.5 75.5 Q104 117 80 176 Q56 235 56 308 Q56 401 90.5 477 Q125 553 183.5 607 Q242 661 318 690.5 Q394 720 478 720 Q525 720 564.5 711 Q604 702 635 690 Q639 689 639 683 L637 662 Q637 659 634.5 657.5 Q632 656 630 658 Q599 672 561 682 Q523 692 476 692 Q398 692 327 665 Q256 638 203 588 Q150 538 118.5 467.5 Q87 397 87 310 Q87 242 109 188 Q131 134 170 96.5 Q209 59 263 39 Q317 19 382 19 Q430 19 473 28 Q516 37 552 50 Q558 53 558 45 L556 27 Q556 22 552 21 Q516 7 471 -2 Q426 -11 376 -11 Z " />
<glyph glyph-name="Ccedilla" unicode="&#xc7;" horiz-adv-x="626" d="M476 692 Q398 692 327 665 Q256 638 203 588 Q150 538 118.5 467.5 Q87 397 87 310 Q87 242 109 188 Q131 134 170 96.5 Q209 59 263 39 Q317 19 382 19 Q430 19 473 28 Q516 37 552 50 Q558 53 558 45 L556 27 Q556 21 551 20 Q515 7 470.5 -2 Q426 -11 376 -11 L368 -11 L334 -48 Q339 -47 345 -46.5 Q351 -46 356 -46 Q385 -46 401.5 -60.5 Q418 -75 418 -98 Q418 -115 410.5 -128.5 Q403 -142 390 -151.5 Q377 -161 359.5 -166.5 Q342 -172 323 -172 Q286 -172 260 -158 Q257 -157 257 -151 L258 -141 Q258 -134 266 -138 Q290 -151 324 -151 Q351 -151 372.5 -137.5 Q394 -124 394 -101 Q394 -84 379.5 -74.5 Q365 -65 345 -65 Q321 -65 300 -71 Q299 -70 299 -69 Q299 -65 300 -64 L346 -10 Q282 -5 229 19.5 Q176 44 137.5 85 Q99 126 77.5 182.5 Q56 239 56 308 Q56 401 90.5 477 Q125 553 183.5 607 Q242 661 318 690.5 Q394 720 478 720 Q525 720 564.5 711 Q604 702 635 690 Q639 689 639 683 L637 662 Q637 655 631 657 Q600 671 562 681.5 Q524 692 476 692 Z " />
<glyph glyph-name="D" unicode="D" horiz-adv-x="662" d="M60 0 Q53 0 55 6 L150 704 Q150 710 157 710 L269 710 Q352 710 419.5 687.5 Q487 665 534.5 623.5 Q582 582 607.5 524 Q633 466 633 396 Q633 309 598.5 236 Q564 163 502.5 110.5 Q441 58 356.5 29 Q272 0 172 0 L60 0 Z M175 28 Q269 28 347.5 54.5 Q426 81 482.5 129 Q539 177 570.5 244.5 Q602 312 602 394 Q602 460 579 513 Q556 566 512.5 603.5 Q469 641 407 661.5 Q345 682 267 682 L178 683 L87 27 L175 28 Z " />
<glyph glyph-name="Eth" unicode="&#xd0;" horiz-adv-x="662" d="M269 710 Q352 710 419.5 687.5 Q487 665 534.5 623.5 Q582 582 607.5 524 Q633 466 633 396 Q633 309 598.5 236 Q564 163 502.5 110.5 Q441 58 356.5 29 Q272 0 172 0 L60 0 Q55 0 55 6 L103 359 L25 359 Q19 359 19 365 L20 379 Q20 385 26 385 L107 385 L150 704 Q150 710 157 710 L269 710 Z M175 28 Q269 28 347.5 54.5 Q426 81 482.5 129 Q539 177 570.5 244.5 Q602 312 602 394 Q602 460 579 513 Q556 566 512.5 603.5 Q469 641 407 661.5 Q345 682 267 682 L178 683 L137 385 L358 385 Q364 385 364 379 L363 365 Q363 359 357 359 L133 359 L87 27 L175 28 Z " />
<glyph glyph-name="E" unicode="E" horiz-adv-x="488" d="M489 687 Q489 681 482 681 L167 681 L132 388 L417 388 Q423 388 422 382 L420 365 Q420 359 413 359 L128 359 L88 29 L402 29 Q408 29 407 23 L405 6 Q405 0 398 0 L60 0 Q55 0 55 6 L140 704 Q140 710 147 710 L486 710 Q491 710 491 704 L489 687 L489 687 Z " />
<glyph glyph-name="Eacute" unicode="&#xc9;" horiz-adv-x="489" d="M489 687 Q489 681 482 681 L167 681 L132 388 L417 388 Q423 388 422 382 L420 365 Q420 359 413 359 L128 359 L88 29 L402 29 Q408 29 407 23 L405 6 Q405 0 398 0 L60 0 Q55 0 55 6 L140 704 Q140 710 147 710 L486 710 Q491 710 491 704 L489 687 L489 687 Z M292 764 Q283 764 288 771 L366 888 Q370 892 374 892 L416 892 Q424 892 419 885 L309 767 Q307 764 302 764 L292 764 L292 764 Z " />
<glyph glyph-name="Ecircumflex" unicode="&#xca;" horiz-adv-x="489" d="M489 687 Q489 681 482 681 L167 681 L132 388 L417 388 Q423 388 422 382 L420 365 Q420 359 413 359 L128 359 L88 29 L402 29 Q408 29 407 23 L405 6 Q405 0 398 0 L60 0 Q55 0 55 6 L140 704 Q140 710 147 710 L486 710 Q491 710 491 704 L489 687 L489 687 Z M444 763 Q449 756 440 756 L422 756 Q417 756 415 759 L333 860 L225 759 Q222 756 218 756 L201 756 Q193 756 198 763 L321 889 Q324 892 328 892 L344 892 Q348 892 352 888 L444 763 L444 763 Z " />
<glyph glyph-name="Edieresis" unicode="&#xcb;" horiz-adv-x="489" d="M489 687 Q489 681 482 681 L167 681 L132 388 L417 388 Q423 388 422 382 L420 365 Q420 359 413 359 L128 359 L88 29 L402 29 Q408 29 407 23 L405 6 Q405 0 398 0 L60 0 Q55 0 55 6 L140 704 Q140 710 147 710 L486 710 Q491 710 491 704 L489 687 L489 687 Z M241 780 Q224 780 214 791.5 Q204 803 204 820 Q204 839 217.5 853 Q231 867 251 867 Q268 867 277.5 855.5 Q287 844 287 827 Q287 808 274 794 Q261 780 241 780 Z M390 780 Q373 780 363 791.5 Q353 803 353 820 Q353 839 366.5 853 Q380 867 400 867 Q417 867 426.5 855.5 Q436 844 436 827 Q436 808 423 794 Q410 780 390 780 Z " />
<glyph glyph-name="Egrave" unicode="&#xc8;" horiz-adv-x="489" d="M489 687 Q489 681 482 681 L167 681 L132 388 L417 388 Q423 388 422 382 L420 365 Q420 359 413 359 L128 359 L88 29 L402 29 Q408 29 407 23 L405 6 Q405 0 398 0 L60 0 Q55 0 55 6 L140 704 Q140 710 147 710 L486 710 Q491 710 491 704 L489 687 L489 687 Z M304 772 Q307 765 299 765 L289 765 Q285 765 281 769 L201 886 Q196 893 205 893 L248 893 Q254 893 255 888 L304 772 L304 772 Z " />
<glyph glyph-name="F" unicode="F" horiz-adv-x="458" d="M472 687 Q472 681 465 681 L168 681 L130 366 L407 366 Q413 366 412 360 L410 343 Q410 337 403 337 L126 337 L86 6 Q86 0 79 0 L61 0 Q56 0 56 6 L140 704 Q140 710 147 710 L468 710 Q473 710 473 704 L472 687 L472 687 Z " />
<glyph glyph-name="G" unicode="G" horiz-adv-x="736" d="M360 -11 Q296 -11 240.5 12 Q185 35 144 77 Q103 119 79.5 178 Q56 237 56 308 Q56 399 89.5 475 Q123 551 179.5 605.5 Q236 660 310 690 Q384 720 465 720 Q519 720 578.5 705 Q638 690 684 655 Q687 653 687 647 L684 627 Q682 619 677 624 Q633 659 574 675 Q515 691 461 691 Q388 691 320.5 663.5 Q253 636 201 585.5 Q149 535 118 465 Q87 395 87 310 Q87 244 108.5 190.5 Q130 137 167.5 98.5 Q205 60 255 39.5 Q305 19 362 19 Q422 19 477 38.5 Q532 58 575.5 94.5 Q619 131 647 184 Q675 237 681 305 L436 305 Q428 305 430 312 L433 327 Q435 332 439 332 L707 332 Q712 332 712 327 L712 322 Q707 240 676.5 177.5 Q646 115 597.5 73 Q549 31 487.5 10 Q426 -11 360 -11 Z " />
<glyph glyph-name="H" unicode="H" horiz-adv-x="649" d="M591 704 Q591 710 598 710 L616 710 Q621 710 621 704 L536 6 Q536 0 529 0 L511 0 Q506 0 506 6 L549 358 L129 358 L86 6 Q86 0 79 0 L61 0 Q56 0 56 6 L141 704 Q141 710 148 710 L166 710 Q171 710 171 704 L132 385 L552 385 L591 704 L591 704 Z " />
<glyph glyph-name="I" unicode="I" horiz-adv-x="237" d="M80 0 Q75 0 75 6 L159 704 Q159 710 166 710 L185 710 Q190 710 190 704 L106 6 Q106 0 99 0 L80 0 L80 0 Z " />
<glyph glyph-name="Iacute" unicode="&#xcd;" horiz-adv-x="237" d="M80 0 Q75 0 75 6 L159 704 Q159 710 166 710 L185 710 Q190 710 190 704 L106 6 Q106 0 99 0 L80 0 L80 0 Z M162 764 Q153 764 158 771 L236 888 Q240 892 244 892 L286 892 Q294 892 289 885 L179 767 Q177 764 172 764 L162 764 L162 764 Z " />
<glyph glyph-name="Icircumflex" unicode="&#xce;" horiz-adv-x="237" d="M80 0 Q75 0 75 6 L159 704 Q159 710 166 710 L185 710 Q190 710 190 704 L106 6 Q106 0 99 0 L80 0 L80 0 Z M314 763 Q319 756 310 756 L292 756 Q287 756 285 759 L203 860 L95 759 Q92 756 88 756 L71 756 Q63 756 68 763 L191 889 Q194 892 198 892 L214 892 Q218 892 222 888 L314 763 L314 763 Z " />
<glyph glyph-name="Idieresis" unicode="&#xcf;" horiz-adv-x="237" d="M80 0 Q75 0 75 6 L159 704 Q159 710 166 710 L185 710 Q190 710 190 704 L106 6 Q106 0 99 0 L80 0 L80 0 Z M111 780 Q94 780 84 791.5 Q74 803 74 820 Q74 839 87.5 853 Q101 867 121 867 Q138 867 147.5 855.5 Q157 844 157 827 Q157 808 144 794 Q131 780 111 780 Z M260 780 Q243 780 233 791.5 Q223 803 223 820 Q223 839 236.5 853 Q250 867 270 867 Q287 867 296.5 855.5 Q306 844 306 827 Q306 808 293 794 Q280 780 260 780 Z " />
<glyph glyph-name="Igrave" unicode="&#xcc;" horiz-adv-x="237" d="M80 0 Q75 0 75 6 L159 704 Q159 710 166 710 L185 710 Q190 710 190 704 L106 6 Q106 0 99 0 L80 0 L80 0 Z M174 772 Q177 765 169 765 L159 765 Q155 765 151 769 L71 886 Q66 893 75 893 L118 893 Q124 893 125 888 L174 772 L174 772 Z " />
<glyph glyph-name="J" unicode="J" horiz-adv-x="378" d="M102 -10 Q64 -10 38 -3 Q12 4 -8 15 Q-11 17 -11 23 L-9 44 Q-9 52 -1 48 Q19 35 47 27 Q75 19 105 19 Q129 19 151 27 Q173 35 191 51.5 Q209 68 221 93 Q233 118 237 151 L305 704 Q305 710 312 710 L330 710 Q335 710 335 704 L268 151 Q258 70 212.5 30 Q167 -10 102 -10 Z " />
<glyph glyph-name="K" unicode="K" horiz-adv-x="513" d="M539 710 Q543 710 544 707.5 Q545 705 542 703 L167 368 L458 7 Q463 0 455 0 L428 0 Q423 0 420 4 L130 365 L87 6 Q87 0 80 0 L61 0 Q56 0 56 6 L140 704 Q140 710 147 710 L166 710 Q171 710 171 704 L131 368 L506 707 Q509 710 513 710 L539 710 L539 710 Z " />
<glyph glyph-name="L" unicode="L" horiz-adv-x="438" d="M391 30 Q396 30 396 24 L394 6 Q394 0 388 0 L60 0 Q55 0 55 6 L140 704 Q140 710 147 710 L165 710 Q170 710 170 704 L88 30 L391 30 Z " />
<glyph glyph-name="Lslash" unicode="&#x141;" horiz-adv-x="438" d="M391 30 Q396 30 396 24 L394 6 Q394 0 388 0 L60 0 Q55 0 55 6 L105 419 L53 399 Q46 395 46 403 L46 416 Q46 421 51 423 L109 445 L140 704 Q140 710 147 710 L165 710 Q170 710 170 704 L140 457 L202 481 Q209 484 209 477 L209 464 Q209 459 204 457 L137 431 L88 30 L391 30 Z " />
<glyph glyph-name="M" unicode="M" horiz-adv-x="831" d="M775 6 Q775 0 769 0 L747 0 Q741 0 741 6 L707 669 L406 29 Q405 25 399 25 L378 25 Q374 25 372 30 L225 667 L27 5 Q26 0 21 0 L2 0 Q-4 0 -3 7 L207 707 Q208 712 214 712 L241 712 Q245 712 247 707 L394 70 L696 708 Q697 712 703 712 L728 712 Q734 712 734 706 L775 6 L775 6 Z " />
<glyph glyph-name="N" unicode="N" horiz-adv-x="707" d="M650 704 Q650 710 657 710 L675 710 Q680 710 680 704 L595 6 Q595 0 588 0 L571 0 Q568 0 564 4 L164 656 L84 6 Q84 0 77 0 L60 0 Q55 0 55 6 L140 704 Q140 710 147 710 L163 710 Q166 710 170 706 L570 53 L650 704 L650 704 Z " />
<glyph glyph-name="Ntilde" unicode="&#xd1;" horiz-adv-x="707" d="M650 704 Q650 710 657 710 L675 710 Q680 710 680 704 L595 6 Q595 0 588 0 L571 0 Q568 0 564 4 L164 656 L84 6 Q84 0 77 0 L60 0 Q55 0 55 6 L140 704 Q140 710 147 710 L163 710 Q166 710 170 706 L570 53 L650 704 L650 704 Z M367 857 Q343 857 330.5 836.5 Q318 816 316 784 Q316 778 310 778 L299 778 Q293 778 293 784 Q295 826 314 855 Q333 884 366 884 Q393 884 407.5 870 Q422 856 434 842 Q445 829 456.5 818 Q468 807 487 807 Q509 807 520 826 Q531 845 533 874 Q533 880 539 880 L551 880 Q557 880 557 874 Q555 833 536.5 806 Q518 779 487 779 Q461 779 445.5 792.5 Q430 806 419 821 Q408 835 397.5 846 Q387 857 367 857 Z " />
<glyph glyph-name="O" unicode="O" horiz-adv-x="823" d="M376 -10 Q306 -10 247 14 Q188 38 145.5 80.5 Q103 123 79 181.5 Q55 240 55 308 Q55 395 90 470 Q125 545 183.5 600.5 Q242 656 317.5 688 Q393 720 474 720 Q543 720 601.5 695.5 Q660 671 703 627.5 Q746 584 770.5 524 Q795 464 795 393 Q795 309 760 235.5 Q725 162 667 107.5 Q609 53 533 21.5 Q457 -10 376 -10 Z M380 19 Q455 19 525 48 Q595 77 648 127.5 Q701 178 733 246 Q765 314 765 392 Q765 457 743 512 Q721 567 681.5 607 Q642 647 588 669.5 Q534 692 470 692 Q395 692 325 662 Q255 632 202 580.5 Q149 529 117 459 Q85 389 85 310 Q85 247 107 194 Q129 141 168.5 102 Q208 63 262 41 Q316 19 380 19 Z " />
<glyph glyph-name="Oacute" unicode="&#xd3;" horiz-adv-x="824" d="M376 -10 Q306 -10 247 14 Q188 38 145.5 80.5 Q103 123 79 181.5 Q55 240 55 308 Q55 395 90 470 Q125 545 183.5 600.5 Q242 656 317.5 688 Q393 720 474 720 Q543 720 601.5 695.5 Q660 671 703 627.5 Q746 584 770.5 524 Q795 464 795 393 Q795 309 760 235.5 Q725 162 667 107.5 Q609 53 533 21.5 Q457 -10 376 -10 Z M380 19 Q455 19 525 48 Q595 77 648 127.5 Q701 178 733 246 Q765 314 765 392 Q765 457 743 512 Q721 567 681.5 607 Q642 647 588 669.5 Q534 692 470 692 Q395 692 325 662 Q255 632 202 580.5 Q149 529 117 459 Q85 389 85 310 Q85 247 107 194 Q129 141 168.5 102 Q208 63 262 41 Q316 19 380 19 Z M462 764 Q453 764 458 771 L536 888 Q540 892 544 892 L586 892 Q594 892 589 885 L479 767 Q477 764 472 764 L462 764 L462 764 Z " />
<glyph glyph-name="Ocircumflex" unicode="&#xd4;" horiz-adv-x="824" d="M376 -10 Q306 -10 247 14 Q188 38 145.5 80.5 Q103 123 79 181.5 Q55 240 55 308 Q55 395 90 470 Q125 545 183.5 600.5 Q242 656 317.5 688 Q393 720 474 720 Q543 720 601.5 695.5 Q660 671 703 627.5 Q746 584 770.5 524 Q795 464 795 393 Q795 309 760 235.5 Q725 162 667 107.5 Q609 53 533 21.5 Q457 -10 376 -10 Z M380 19 Q455 19 525 48 Q595 77 648 127.5 Q701 178 733 246 Q765 314 765 392 Q765 457 743 512 Q721 567 681.5 607 Q642 647 588 669.5 Q534 692 470 692 Q395 692 325 662 Q255 632 202 580.5 Q149 529 117 459 Q85 389 85 310 Q85 247 107 194 Q129 141 168.5 102 Q208 63 262 41 Q316 19 380 19 Z M614 763 Q619 756 610 756 L592 756 Q587 756 585 759 L503 860 L395 759 Q392 756 388 756 L371 756 Q363 756 368 763 L491 889 Q494 892 498 892 L514 892 Q518 892 522 888 L614 763 L614 763 Z " />
<glyph glyph-name="Odieresis" unicode="&#xd6;" horiz-adv-x="824" d="M376 -10 Q306 -10 247 14 Q188 38 145.5 80.5 Q103 123 79 181.5 Q55 240 55 308 Q55 395 90 470 Q125 545 183.5 600.5 Q242 656 317.5 688 Q393 720 474 720 Q543 720 601.5 695.5 Q660 671 703 627.5 Q746 584 770.5 524 Q795 464 795 393 Q795 309 760 235.5 Q725 162 667 107.5 Q609 53 533 21.5 Q457 -10 376 -10 Z M380 19 Q455 19 525 48 Q595 77 648 127.5 Q701 178 733 246 Q765 314 765 392 Q765 457 743 512 Q721 567 681.5 607 Q642 647 588 669.5 Q534 692 470 692 Q395 692 325 662 Q255 632 202 580.5 Q149 529 117 459 Q85 389 85 310 Q85 247 107 194 Q129 141 168.5 102 Q208 63 262 41 Q316 19 380 19 Z M411 780 Q394 780 384 791.5 Q374 803 374 820 Q374 839 387.5 853 Q401 867 421 867 Q438 867 447.5 855.5 Q457 844 457 827 Q457 808 444 794 Q431 780 411 780 Z M560 780 Q543 780 533 791.5 Q523 803 523 820 Q523 839 536.5 853 Q550 867 570 867 Q587 867 596.5 855.5 Q606 844 606 827 Q606 808 593 794 Q580 780 560 780 Z " />
<glyph glyph-name="Ograve" unicode="&#xd2;" horiz-adv-x="824" d="M376 -10 Q306 -10 247 14 Q188 38 145.5 80.5 Q103 123 79 181.5 Q55 240 55 308 Q55 395 90 470 Q125 545 183.5 600.5 Q242 656 317.5 688 Q393 720 474 720 Q543 720 601.5 695.5 Q660 671 703 627.5 Q746 584 770.5 524 Q795 464 795 393 Q795 309 760 235.5 Q725 162 667 107.5 Q609 53 533 21.5 Q457 -10 376 -10 Z M380 19 Q455 19 525 48 Q595 77 648 127.5 Q701 178 733 246 Q765 314 765 392 Q765 457 743 512 Q721 567 681.5 607 Q642 647 588 669.5 Q534 692 470 692 Q395 692 325 662 Q255 632 202 580.5 Q149 529 117 459 Q85 389 85 310 Q85 247 107 194 Q129 141 168.5 102 Q208 63 262 41 Q316 19 380 19 Z M474 772 Q477 765 469 765 L459 765 Q455 765 451 769 L371 886 Q366 893 375 893 L418 893 Q424 893 425 888 L474 772 L474 772 Z " />
<glyph glyph-name="Oslash" unicode="&#xd8;" horiz-adv-x="824" d="M646 673 Q715 631 755 558.5 Q795 486 795 393 Q795 309 760 235.5 Q725 162 667 107.5 Q609 53 533 21.5 Q457 -10 376 -10 Q333 -10 294 -0.5 Q255 9 221 26 L184 -31 Q180 -35 176 -35 L167 -35 Q159 -35 163 -28 L204 35 Q135 77 95 147.5 Q55 218 55 308 Q55 395 90 470 Q125 545 183.5 600.5 Q242 656 317.5 688 Q393 720 474 720 Q517 720 556 710 Q595 700 630 682 L668 741 Q672 745 676 745 L685 745 Q694 745 689 738 L646 673 Z M85 310 Q85 229 121.5 164 Q158 99 221 61 L614 658 Q549 692 470 692 Q395 692 325 662 Q255 632 202 580.5 Q149 529 117 459 Q85 389 85 310 Z M380 19 Q455 19 525 48 Q595 77 648 127.5 Q701 178 733 246 Q765 314 765 392 Q765 477 729 543.5 Q693 610 630 648 L238 52 Q270 36 305.5 27.5 Q341 19 380 19 Z " />
<glyph glyph-name="Otilde" unicode="&#xd5;" horiz-adv-x="824" d="M376 -10 Q306 -10 247 14 Q188 38 145.5 80.5 Q103 123 79 181.5 Q55 240 55 308 Q55 395 90 470 Q125 545 183.5 600.5 Q242 656 317.5 688 Q393 720 474 720 Q543 720 601.5 695.5 Q660 671 703 627.5 Q746 584 770.5 524 Q795 464 795 393 Q795 309 760 235.5 Q725 162 667 107.5 Q609 53 533 21.5 Q457 -10 376 -10 Z M380 19 Q455 19 525 48 Q595 77 648 127.5 Q701 178 733 246 Q765 314 765 392 Q765 457 743 512 Q721 567 681.5 607 Q642 647 588 669.5 Q534 692 470 692 Q395 692 325 662 Q255 632 202 580.5 Q149 529 117 459 Q85 389 85 310 Q85 247 107 194 Q129 141 168.5 102 Q208 63 262 41 Q316 19 380 19 Z M432 857 Q408 857 395.5 836.5 Q383 816 381 784 Q381 778 375 778 L364 778 Q358 778 358 784 Q360 826 379 855 Q398 884 431 884 Q458 884 472.5 870 Q487 856 499 842 Q510 829 521.5 818 Q533 807 552 807 Q574 807 585 826 Q596 845 598 874 Q598 880 604 880 L616 880 Q622 880 622 874 Q620 833 601.5 806 Q583 779 552 779 Q526 779 510.5 792.5 Q495 806 484 821 Q473 835 462.5 846 Q452 857 432 857 Z " />
<glyph glyph-name="OE" unicode="&#x152;" horiz-adv-x="767" d="M766 687 Q766 681 759 681 L468 681 L431 387 L693 387 Q698 387 698 381 L697 365 Q697 359 690 359 L428 359 L387 29 L678 29 Q683 29 683 23 L681 6 Q681 0 675 0 L357 0 Q286 0 230.5 23 Q175 46 136.5 87.5 Q98 129 78 186.5 Q58 244 58 313 Q58 400 87 473 Q116 546 167.5 598.5 Q219 651 289.5 680.5 Q360 710 444 710 L762 710 Q767 710 767 704 L766 687 Z M438 682 Q360 682 295.5 654.5 Q231 627 185.5 578.5 Q140 530 114.5 462.5 Q89 395 89 315 Q89 251 107 198.5 Q125 146 159.5 108.5 Q194 71 243.5 50 Q293 29 356 29 L438 682 Z " />
<glyph glyph-name="P" unicode="P" horiz-adv-x="499" d="M279 710 Q377 710 431.5 661 Q486 612 486 532 Q486 483 468 442.5 Q450 402 416.5 372.5 Q383 343 336 326.5 Q289 310 231 310 L123 310 L87 6 Q87 0 80 0 L61 0 Q56 0 56 6 L140 704 Q140 710 147 710 L279 710 Z M233 337 Q285 337 326.5 351 Q368 365 396.5 390.5 Q425 416 440 451.5 Q455 487 455 530 Q455 599 409.5 640.5 Q364 682 276 682 L168 682 L126 337 L233 337 Z " />
<glyph glyph-name="Thorn" unicode="&#xde;" horiz-adv-x="498" d="M262 562 Q360 562 414 513.5 Q468 465 468 385 Q468 336 450 295 Q432 254 398.5 224.5 Q365 195 317.5 178.5 Q270 162 212 162 L106 162 L87 6 Q87 0 80 0 L61 0 Q56 0 56 6 L140 704 Q140 710 147 710 L166 710 Q171 710 171 704 L154 562 L262 562 Z M217 189 Q268 189 309 203 Q350 217 378.5 242.5 Q407 268 422 304 Q437 340 437 383 Q437 452 391.5 493.5 Q346 535 258 535 L151 535 L109 189 L217 189 Z " />
<glyph glyph-name="Q" unicode="Q" horiz-adv-x="806" d="M795 393 Q795 294 748 211 Q701 128 625 73 L730 -60 Q733 -65 729 -69 L716 -80 Q710 -84 707 -79 L600 56 Q549 24 492.5 7 Q436 -10 376 -10 Q306 -10 247 14 Q188 38 145.5 80.5 Q103 123 79 181.5 Q55 240 55 308 Q55 395 90 470 Q125 545 183.5 600.5 Q242 656 317.5 688 Q393 720 474 720 Q543 720 601.5 695.5 Q660 671 703 627.5 Q746 584 770.5 524 Q795 464 795 393 Z M85 310 Q85 247 107 194 Q129 141 168.5 102 Q208 63 262 41 Q316 19 380 19 Q455 19 525 48 Q595 77 648 127.5 Q701 178 733 246 Q765 314 765 392 Q765 457 743 512 Q721 567 681.5 607 Q642 647 588 669.5 Q534 692 470 692 Q395 692 325 662 Q255 632 202 580.5 Q149 529 117 459 Q85 389 85 310 Z " />
<glyph glyph-name="R" unicode="R" horiz-adv-x="523" d="M233 348 L453 7 Q456 0 449 0 L424 0 Q420 0 416 4 L200 346 L126 346 L85 6 Q85 0 78 0 L60 0 Q55 0 55 6 L140 704 Q140 710 147 710 L275 710 Q371 710 425.5 666 Q480 622 480 549 Q480 504 462 467 Q444 430 411.5 403.5 Q379 377 334 362.5 Q289 348 234 348 L233 348 Z M130 373 L235 373 Q284 373 323.5 385.5 Q363 398 391 420.5 Q419 443 434.5 475 Q450 507 450 545 Q450 608 404 645.5 Q358 683 273 683 L168 683 L130 373 Z " />
<glyph glyph-name="S" unicode="S" horiz-adv-x="486" d="M192 -11 Q142 -11 94.5 2 Q47 15 16 34 Q13 36 13 42 L15 61 Q15 69 23 65 Q57 43 102 30.5 Q147 18 195 18 Q240 18 279 30.5 Q318 43 347.5 65.5 Q377 88 393.5 120 Q410 152 410 192 Q410 222 398 245.5 Q386 269 365 289 Q344 309 316 326 Q288 343 256 358 Q226 373 196.5 389.5 Q167 406 143 427.5 Q119 449 104.5 476.5 Q90 504 90 540 Q90 578 106.5 611 Q123 644 151.5 668 Q180 692 219.5 706 Q259 720 305 720 Q349 720 387 711.5 Q425 703 454 688 Q457 687 457 681 L455 662 Q455 654 447 658 Q420 674 383 683 Q346 692 304 692 Q267 692 234 681 Q201 670 176.5 650.5 Q152 631 137.5 603.5 Q123 576 123 543 Q123 512 136 488.5 Q149 465 170 446.5 Q191 428 218 413 Q245 398 274 385 Q309 368 339.5 349.5 Q370 331 392.5 308.5 Q415 286 428 258.5 Q441 231 441 197 Q441 151 422 112.5 Q403 74 369 46.5 Q335 19 289.5 4 Q244 -11 192 -11 Z " />
<glyph glyph-name="Scaron" unicode="&#x160;" horiz-adv-x="486" d="M192 -11 Q142 -11 94.5 2 Q47 15 16 34 Q13 36 13 42 L15 61 Q15 69 23 65 Q57 43 102 30.5 Q147 18 195 18 Q240 18 279 30.5 Q318 43 347.5 65.5 Q377 88 393.5 120 Q410 152 410 192 Q410 222 398 245.5 Q386 269 365 289 Q344 309 316 326 Q288 343 256 358 Q226 373 196.5 389.5 Q167 406 143 427.5 Q119 449 104.5 476.5 Q90 504 90 540 Q90 578 106.5 611 Q123 644 151.5 668 Q180 692 219.5 706 Q259 720 305 720 Q349 720 387 711.5 Q425 703 454 688 Q457 687 457 681 L455 662 Q455 654 447 658 Q420 674 383 683 Q346 692 304 692 Q267 692 234 681 Q201 670 176.5 650.5 Q152 631 137.5 603.5 Q123 576 123 543 Q123 512 136 488.5 Q149 465 170 446.5 Q191 428 218 413 Q245 398 274 385 Q309 368 339.5 349.5 Q370 331 392.5 308.5 Q415 286 428 258.5 Q441 231 441 197 Q441 151 422 112.5 Q403 74 369 46.5 Q335 19 289.5 4 Q244 -11 192 -11 Z M417 889 Q420 892 424 892 L440 892 Q450 892 443 885 L318 759 Q315 756 311 756 L297 756 Q293 756 289 760 L196 885 Q191 892 200 892 L217 892 Q222 892 224 889 L308 788 L417 889 L417 889 Z " />
<glyph glyph-name="T" unicode="T" horiz-adv-x="489" d="M525 710 Q531 710 530 704 L528 687 Q528 681 521 681 L314 681 L232 6 Q232 0 225 0 L207 0 Q202 0 202 6 L284 681 L76 681 Q71 681 71 687 L73 704 Q73 710 79 710 L525 710 L525 710 Z " />
<glyph glyph-name="U" unicode="U" horiz-adv-x="640" d="M289 -11 Q243 -11 205 1.5 Q167 14 139.5 40.5 Q112 67 97 108 Q82 149 82 205 Q82 218 83 232 Q84 246 86 261 L140 704 Q140 710 147 710 L165 710 Q170 710 170 704 L116 261 Q113 232 113 208 Q113 157 126 121 Q139 85 163 62 Q187 39 220 28.5 Q253 18 293 18 Q338 18 377 31.5 Q416 45 447 74 Q478 103 499.5 149.5 Q521 196 529 261 L582 704 Q582 710 589 710 L607 710 Q612 710 612 704 L559 261 Q550 190 526 138.5 Q502 87 466 54 Q430 21 385 5 Q340 -11 289 -11 Z " />
<glyph glyph-name="Uacute" unicode="&#xda;" horiz-adv-x="640" d="M289 -11 Q243 -11 205 1.5 Q167 14 139.5 40.5 Q112 67 97 108 Q82 149 82 205 Q82 218 83 232 Q84 246 86 261 L140 704 Q140 710 147 710 L165 710 Q170 710 170 704 L116 261 Q113 232 113 208 Q113 157 126 121 Q139 85 163 62 Q187 39 220 28.5 Q253 18 293 18 Q338 18 377 31.5 Q416 45 447 74 Q478 103 499.5 149.5 Q521 196 529 261 L582 704 Q582 710 589 710 L607 710 Q612 710 612 704 L559 261 Q550 190 526 138.5 Q502 87 466 54 Q430 21 385 5 Q340 -11 289 -11 Z M364 764 Q355 764 360 771 L438 888 Q442 892 446 892 L488 892 Q496 892 491 885 L381 767 Q379 764 374 764 L364 764 L364 764 Z " />
<glyph glyph-name="Ucircumflex" unicode="&#xdb;" horiz-adv-x="640" d="M289 -11 Q243 -11 205 1.5 Q167 14 139.5 40.5 Q112 67 97 108 Q82 149 82 205 Q82 218 83 232 Q84 246 86 261 L140 704 Q140 710 147 710 L165 710 Q170 710 170 704 L116 261 Q113 232 113 208 Q113 157 126 121 Q139 85 163 62 Q187 39 220 28.5 Q253 18 293 18 Q338 18 377 31.5 Q416 45 447 74 Q478 103 499.5 149.5 Q521 196 529 261 L582 704 Q582 710 589 710 L607 710 Q612 710 612 704 L559 261 Q550 190 526 138.5 Q502 87 466 54 Q430 21 385 5 Q340 -11 289 -11 Z M516 763 Q521 756 512 756 L494 756 Q489 756 487 759 L405 860 L297 759 Q294 756 290 756 L273 756 Q265 756 270 763 L393 889 Q396 892 400 892 L416 892 Q420 892 424 888 L516 763 L516 763 Z " />
<glyph glyph-name="Udieresis" unicode="&#xdc;" horiz-adv-x="640" d="M289 -11 Q243 -11 205 1.5 Q167 14 139.5 40.5 Q112 67 97 108 Q82 149 82 205 Q82 218 83 232 Q84 246 86 261 L140 704 Q140 710 147 710 L165 710 Q170 710 170 704 L116 261 Q113 232 113 208 Q113 157 126 121 Q139 85 163 62 Q187 39 220 28.5 Q253 18 293 18 Q338 18 377 31.5 Q416 45 447 74 Q478 103 499.5 149.5 Q521 196 529 261 L582 704 Q582 710 589 710 L607 710 Q612 710 612 704 L559 261 Q550 190 526 138.5 Q502 87 466 54 Q430 21 385 5 Q340 -11 289 -11 Z M313 780 Q296 780 286 791.5 Q276 803 276 820 Q276 839 289.5 853 Q303 867 323 867 Q340 867 349.5 855.5 Q359 844 359 827 Q359 808 346 794 Q333 780 313 780 Z M462 780 Q445 780 435 791.5 Q425 803 425 820 Q425 839 438.5 853 Q452 867 472 867 Q489 867 498.5 855.5 Q508 844 508 827 Q508 808 495 794 Q482 780 462 780 Z " />
<glyph glyph-name="Ugrave" unicode="&#xd9;" horiz-adv-x="640" d="M289 -11 Q243 -11 205 1.5 Q167 14 139.5 40.5 Q112 67 97 108 Q82 149 82 205 Q82 218 83 232 Q84 246 86 261 L140 704 Q140 710 147 710 L165 710 Q170 710 170 704 L116 261 Q113 232 113 208 Q113 157 126 121 Q139 85 163 62 Q187 39 220 28.5 Q253 18 293 18 Q338 18 377 31.5 Q416 45 447 74 Q478 103 499.5 149.5 Q521 196 529 261 L582 704 Q582 710 589 710 L607 710 Q612 710 612 704 L559 261 Q550 190 526 138.5 Q502 87 466 54 Q430 21 385 5 Q340 -11 289 -11 Z M376 772 Q379 765 371 765 L361 765 Q357 765 353 769 L273 886 Q268 893 277 893 L320 893 Q326 893 327 888 L376 772 L376 772 Z " />
<glyph glyph-name="V" unicode="V" horiz-adv-x="619" d="M629 706 Q630 710 636 710 L657 710 Q664 710 661 703 L288 -5 Q287 -9 281 -9 L277 -9 Q272 -9 271 -4 L71 703 Q70 710 76 710 L96 710 Q101 710 102 705 L286 50 L629 706 L629 706 Z " />
<glyph glyph-name="W" unicode="W" horiz-adv-x="925" d="M936 705 Q938 710 943 710 L962 710 Q970 710 967 703 L666 3 Q664 -2 659 -2 L641 -2 Q637 -2 635 3 L513 660 L231 3 Q229 -2 224 -2 L206 -2 Q202 -2 200 3 L72 703 L72 705 Q72 710 78 710 L97 710 Q102 710 104 705 L221 48 L501 705 Q502 710 508 710 L528 710 Q533 710 535 705 L655 46 L936 705 L936 705 Z " />
<glyph glyph-name="X" unicode="X" horiz-adv-x="599" d="M623 710 Q632 710 627 703 L332 363 L552 7 Q555 0 548 0 L529 0 Q526 0 522 4 L313 340 L22 3 Q20 0 15 0 L-6 0 Q-15 0 -10 7 L299 364 L89 703 Q85 710 93 710 L113 710 Q116 710 120 706 L319 387 L594 707 Q596 710 601 710 L623 710 L623 710 Z " />
<glyph glyph-name="Y" unicode="Y" horiz-adv-x="546" d="M546 706 Q550 710 554 710 L575 710 Q584 710 579 703 L295 309 L258 6 Q258 0 251 0 L232 0 Q227 0 227 6 L264 309 L76 703 Q73 710 81 710 L102 710 Q108 710 109 706 L283 339 L546 706 L546 706 Z " />
<glyph glyph-name="Yacute" unicode="&#xdd;" horiz-adv-x="546" d="M546 706 Q550 710 554 710 L575 710 Q584 710 579 703 L295 309 L258 6 Q258 0 251 0 L232 0 Q227 0 227 6 L264 309 L76 703 Q73 710 81 710 L102 710 Q108 710 109 706 L283 339 L546 706 L546 706 Z M306 791 Q297 791 302 798 L380 915 Q384 919 388 919 L430 919 Q438 919 433 912 L323 794 Q321 791 316 791 L306 791 L306 791 Z " />
<glyph glyph-name="Ydieresis" unicode="&#x178;" horiz-adv-x="546" d="M546 706 Q550 710 554 710 L575 710 Q584 710 579 703 L295 309 L258 6 Q258 0 251 0 L232 0 Q227 0 227 6 L264 309 L76 703 Q73 710 81 710 L102 710 Q108 710 109 706 L283 339 L546 706 L546 706 Z M265 780 Q248 780 238 791.5 Q228 803 228 820 Q228 839 241.5 853 Q255 867 275 867 Q292 867 301.5 855.5 Q311 844 311 827 Q311 808 298 794 Q285 780 265 780 Z M414 780 Q397 780 387 791.5 Q377 803 377 820 Q377 839 390.5 853 Q404 867 424 867 Q441 867 450.5 855.5 Q460 844 460 827 Q460 808 447 794 Q434 780 414 780 Z " />
<glyph glyph-name="Z" unicode="Z" horiz-adv-x="554" d="M476 27 Q482 27 482 21 L481 6 Q481 0 474 0 L20 0 Q15 0 15 6 L16 12 Q16 15 18 19 L515 683 L128 683 Q121 683 123 689 L125 704 Q125 710 132 710 L551 710 Q558 710 557 704 L556 697 Q556 695 555 693.5 Q554 692 553 690 L56 27 L476 27 Z " />
<glyph glyph-name="Zcaron" unicode="&#x17d;" horiz-adv-x="554" d="M476 27 Q482 27 482 21 L481 6 Q481 0 474 0 L20 0 Q15 0 15 6 L16 12 Q16 15 18 19 L515 683 L128 683 Q121 683 123 689 L125 704 Q125 710 132 710 L551 710 Q558 710 557 704 L556 697 Q556 695 555 693.5 Q554 692 553 690 L56 27 L476 27 Z M450 889 Q453 892 457 892 L473 892 Q483 892 476 885 L351 759 Q348 756 344 756 L330 756 Q326 756 322 760 L229 885 Q224 892 233 892 L250 892 Q255 892 257 889 L341 788 L450 889 L450 889 Z " />
<glyph glyph-name="a" unicode="a" horiz-adv-x="596" d="M511 474 Q511 480 518 480 L535 480 Q540 480 540 474 L483 6 Q483 0 476 0 L459 0 Q454 0 454 6 L468 121 Q450 89 425.5 64.5 Q401 40 372.5 23.5 Q344 7 313.5 -1.5 Q283 -10 253 -10 Q214 -10 178 4.5 Q142 19 114.5 47 Q87 75 70 115.5 Q53 156 53 208 Q53 275 75 327.5 Q97 380 133.5 416 Q170 452 217 471 Q264 490 313 490 Q378 490 428 457 Q478 424 497 358 L511 474 Z M259 18 Q299 18 339.5 35 Q380 52 412.5 84.5 Q445 117 465.5 164.5 Q486 212 486 273 Q486 319 472.5 354.5 Q459 390 435.5 414 Q412 438 380 450 Q348 462 312 462 Q268 462 227 445 Q186 428 154 396 Q122 364 102.5 317 Q83 270 83 210 Q83 164 97.5 128 Q112 92 136.5 67.5 Q161 43 192.5 30.5 Q224 18 259 18 Z " />
<glyph glyph-name="aacute" unicode="&#xe1;" horiz-adv-x="598" d="M511 474 Q511 480 518 480 L535 480 Q540 480 540 474 L483 6 Q483 0 476 0 L459 0 Q454 0 454 6 L468 121 Q450 89 425.5 64.5 Q401 40 372.5 23.5 Q344 7 313.5 -1.5 Q283 -10 253 -10 Q214 -10 178 4.5 Q142 19 114.5 47 Q87 75 70 115.5 Q53 156 53 208 Q53 275 75 327.5 Q97 380 133.5 416 Q170 452 217 471 Q264 490 313 490 Q378 490 428 457 Q478 424 497 358 L511 474 Z M259 18 Q299 18 339.5 35 Q380 52 412.5 84.5 Q445 117 465.5 164.5 Q486 212 486 273 Q486 319 472.5 354.5 Q459 390 435.5 414 Q412 438 380 450 Q348 462 312 462 Q268 462 227 445 Q186 428 154 396 Q122 364 102.5 317 Q83 270 83 210 Q83 164 97.5 128 Q112 92 136.5 67.5 Q161 43 192.5 30.5 Q224 18 259 18 Z M312 561 Q303 561 308 568 L442 750 Q446 754 450 753 L479 745 Q482 744 483 741.5 Q484 739 482 737 L333 564 Q331 561 326 561 L312 561 L312 561 Z " />
<glyph glyph-name="acircumflex" unicode="&#xe2;" horiz-adv-x="598" d="M511 474 Q511 480 518 480 L535 480 Q540 480 540 474 L483 6 Q483 0 476 0 L459 0 Q454 0 454 6 L468 121 Q450 89 425.5 64.5 Q401 40 372.5 23.5 Q344 7 313.5 -1.5 Q283 -10 253 -10 Q214 -10 178 4.5 Q142 19 114.5 47 Q87 75 70 115.5 Q53 156 53 208 Q53 275 75 327.5 Q97 380 133.5 416 Q170 452 217 471 Q264 490 313 490 Q378 490 428 457 Q478 424 497 358 L511 474 Z M259 18 Q299 18 339.5 35 Q380 52 412.5 84.5 Q445 117 465.5 164.5 Q486 212 486 273 Q486 319 472.5 354.5 Q459 390 435.5 414 Q412 438 380 450 Q348 462 312 462 Q268 462 227 445 Q186 428 154 396 Q122 364 102.5 317 Q83 270 83 210 Q83 164 97.5 128 Q112 92 136.5 67.5 Q161 43 192.5 30.5 Q224 18 259 18 Z M472 572 Q475 565 468 565 L449 565 Q443 565 442 569 L366 715 L252 569 Q248 565 244 565 L227 565 Q218 565 223 572 L354 746 Q358 750 362 750 L377 750 Q383 750 384 746 L472 572 L472 572 Z " />
<glyph glyph-name="adieresis" unicode="&#xe4;" horiz-adv-x="598" d="M511 474 Q511 480 518 480 L535 480 Q540 480 540 474 L483 6 Q483 0 476 0 L459 0 Q454 0 454 6 L468 121 Q450 89 425.5 64.5 Q401 40 372.5 23.5 Q344 7 313.5 -1.5 Q283 -10 253 -10 Q214 -10 178 4.5 Q142 19 114.5 47 Q87 75 70 115.5 Q53 156 53 208 Q53 275 75 327.5 Q97 380 133.5 416 Q170 452 217 471 Q264 490 313 490 Q378 490 428 457 Q478 424 497 358 L511 474 Z M259 18 Q299 18 339.5 35 Q380 52 412.5 84.5 Q445 117 465.5 164.5 Q486 212 486 273 Q486 319 472.5 354.5 Q459 390 435.5 414 Q412 438 380 450 Q348 462 312 462 Q268 462 227 445 Q186 428 154 396 Q122 364 102.5 317 Q83 270 83 210 Q83 164 97.5 128 Q112 92 136.5 67.5 Q161 43 192.5 30.5 Q224 18 259 18 Z M294 656 Q281 656 273.5 664.5 Q266 673 266 685 Q266 700 276 710.5 Q286 721 302 721 Q314 721 321 712.5 Q328 704 328 691 Q328 677 318.5 666.5 Q309 656 294 656 Z M424 656 Q411 656 403.5 664.5 Q396 673 396 685 Q396 700 406 710.5 Q416 721 432 721 Q444 721 451 712.5 Q458 704 458 691 Q458 677 448.5 666.5 Q439 656 424 656 Z " />
<glyph glyph-name="agrave" unicode="&#xe0;" horiz-adv-x="598" d="M511 474 Q511 480 518 480 L535 480 Q540 480 540 474 L483 6 Q483 0 476 0 L459 0 Q454 0 454 6 L468 121 Q450 89 425.5 64.5 Q401 40 372.5 23.5 Q344 7 313.5 -1.5 Q283 -10 253 -10 Q214 -10 178 4.5 Q142 19 114.5 47 Q87 75 70 115.5 Q53 156 53 208 Q53 275 75 327.5 Q97 380 133.5 416 Q170 452 217 471 Q264 490 313 490 Q378 490 428 457 Q478 424 497 358 L511 474 Z M259 18 Q299 18 339.5 35 Q380 52 412.5 84.5 Q445 117 465.5 164.5 Q486 212 486 273 Q486 319 472.5 354.5 Q459 390 435.5 414 Q412 438 380 450 Q348 462 312 462 Q268 462 227 445 Q186 428 154 396 Q122 364 102.5 317 Q83 270 83 210 Q83 164 97.5 128 Q112 92 136.5 67.5 Q161 43 192.5 30.5 Q224 18 259 18 Z M396 568 Q401 561 392 561 L378 561 Q373 561 371 564 L222 737 Q220 739 221 741.5 Q222 744 225 745 L254 753 Q258 754 262 750 L396 568 L396 568 Z " />
<glyph glyph-name="aring" unicode="&#xe5;" horiz-adv-x="598" d="M511 474 Q511 480 518 480 L535 480 Q540 480 540 474 L483 6 Q483 0 476 0 L459 0 Q454 0 454 6 L468 121 Q450 89 425.5 64.5 Q401 40 372.5 23.5 Q344 7 313.5 -1.5 Q283 -10 253 -10 Q214 -10 178 4.5 Q142 19 114.5 47 Q87 75 70 115.5 Q53 156 53 208 Q53 275 75 327.5 Q97 380 133.5 416 Q170 452 217 471 Q264 490 313 490 Q378 490 428 457 Q478 424 497 358 L511 474 Z M259 18 Q299 18 339.5 35 Q380 52 412.5 84.5 Q445 117 465.5 164.5 Q486 212 486 273 Q486 319 472.5 354.5 Q459 390 435.5 414 Q412 438 380 450 Q348 462 312 462 Q268 462 227 445 Q186 428 154 396 Q122 364 102.5 317 Q83 270 83 210 Q83 164 97.5 128 Q112 92 136.5 67.5 Q161 43 192.5 30.5 Q224 18 259 18 Z M349 583 Q317 583 298 603.5 Q279 624 279 655 Q279 695 305.5 719.5 Q332 744 368 744 Q399 744 419 725 Q439 706 439 674 Q439 655 431.5 638.5 Q424 622 412 609.5 Q400 597 383.5 590 Q367 583 349 583 Z M351 603 Q378 603 397.5 623 Q417 643 417 672 Q417 695 403 710.5 Q389 726 366 726 Q338 726 319.5 706 Q301 686 301 657 Q301 634 314.5 618.5 Q328 603 351 603 Z " />
<glyph glyph-name="atilde" unicode="&#xe3;" horiz-adv-x="598" d="M511 474 Q511 480 518 480 L535 480 Q540 480 540 474 L483 6 Q483 0 476 0 L459 0 Q454 0 454 6 L468 121 Q450 89 425.5 64.5 Q401 40 372.5 23.5 Q344 7 313.5 -1.5 Q283 -10 253 -10 Q214 -10 178 4.5 Q142 19 114.5 47 Q87 75 70 115.5 Q53 156 53 208 Q53 275 75 327.5 Q97 380 133.5 416 Q170 452 217 471 Q264 490 313 490 Q378 490 428 457 Q478 424 497 358 L511 474 Z M259 18 Q299 18 339.5 35 Q380 52 412.5 84.5 Q445 117 465.5 164.5 Q486 212 486 273 Q486 319 472.5 354.5 Q459 390 435.5 414 Q412 438 380 450 Q348 462 312 462 Q268 462 227 445 Q186 428 154 396 Q122 364 102.5 317 Q83 270 83 210 Q83 164 97.5 128 Q112 92 136.5 67.5 Q161 43 192.5 30.5 Q224 18 259 18 Z M413 612 Q389 612 375.5 625 Q362 638 351 654 Q342 668 331.5 679 Q321 690 303 690 Q278 690 263.5 669 Q249 648 244 616 Q242 610 237 610 L225 610 Q219 610 220 617 Q227 660 248.5 689 Q270 718 305 718 Q331 718 345 704 Q359 690 370 675 Q380 661 389.5 651 Q399 641 416 641 Q439 641 452.5 659.5 Q466 678 471 707 Q472 713 478 713 L490 713 Q497 713 495 705 Q488 665 466.5 638.5 Q445 612 413 612 Z " />
<glyph glyph-name="ae" unicode="&#xe6;" horiz-adv-x="786" d="M607 490 Q683 490 722 439 Q761 388 757 297 Q757 292 756.5 286.5 Q756 281 755 276 Q753 271 749 271 L412 271 Q406 239 406 203 Q406 111 449.5 64 Q493 17 565 17 Q605 17 643.5 30.5 Q682 44 716 70 Q719 73 721.5 72 Q724 71 723 66 L721 49 Q721 46 717 42 Q648 -10 561 -10 Q489 -10 442.5 30 Q396 70 382 142 Q366 103 342.5 74.5 Q319 46 291 28 Q263 10 232 1 Q201 -8 171 -8 Q109 -8 72.5 22.5 Q36 53 36 109 Q36 187 98 231.5 Q160 276 266 276 Q299 276 333.5 274.5 Q368 273 383 271 L389 321 Q390 329 390.5 336 Q391 343 391 350 Q391 408 356.5 435.5 Q322 463 250 463 Q215 463 177.5 454.5 Q140 446 108 430 Q101 427 101 435 L103 451 Q103 457 107 458 Q138 473 178 481.5 Q218 490 255 490 Q335 490 374.5 461.5 Q414 433 419 372 Q450 426 498.5 458 Q547 490 607 490 Z M604 463 Q539 463 488 419 Q437 375 417 296 L730 296 Q734 372 701 417.5 Q668 463 604 463 Z M177 18 Q203 18 234.5 29 Q266 40 294.5 63 Q323 86 345 121.5 Q367 157 375 207 L379 242 L379 246 Q371 247 357.5 247.5 Q344 248 328.5 249 Q313 250 296 250.5 Q279 251 266 251 Q169 251 117.5 214.5 Q66 178 66 113 Q66 64 99 41 Q132 18 177 18 Z " />
<glyph glyph-name="b" unicode="b" horiz-adv-x="596" d="M343 490 Q384 490 420.5 476 Q457 462 484 434.5 Q511 407 527 366.5 Q543 326 543 274 Q543 206 519.5 153 Q496 100 458.5 64 Q421 28 374.5 9 Q328 -10 282 -10 Q222 -10 171 24 Q120 58 100 123 L85 6 Q85 0 78 0 L61 0 Q56 0 56 6 L146 744 Q146 750 153 750 L170 750 Q175 750 175 744 L129 360 Q163 424 221.5 457 Q280 490 343 490 Z M282 18 Q323 18 364 34.5 Q405 51 438 83.5 Q471 116 492 163 Q513 210 513 271 Q513 317 499.5 352.5 Q486 388 462 412.5 Q438 437 406 449.5 Q374 462 337 462 Q294 462 253 445 Q212 428 180.5 396 Q149 364 129.5 317 Q110 270 110 210 Q110 163 124 127.5 Q138 92 162 67.5 Q186 43 217 30.5 Q248 18 282 18 Z " />
<glyph glyph-name="c" unicode="c" horiz-adv-x="482" d="M276 -10 Q229 -10 188 5.5 Q147 21 117 49.5 Q87 78 70 119 Q53 160 53 210 Q53 271 75 322.5 Q97 374 135 411.5 Q173 449 224.5 469.5 Q276 490 336 490 Q371 490 401.5 484 Q432 478 456 467 Q460 466 460 460 L458 440 Q458 432 450 436 Q402 463 335 463 Q284 463 238 445 Q192 427 157.5 394.5 Q123 362 103 315.5 Q83 269 83 212 Q83 166 98 129.5 Q113 93 140 68 Q167 43 203.5 30 Q240 17 283 17 Q350 17 408 45 Q412 47 414 45 Q416 43 415 40 L413 21 Q413 17 408 15 Q350 -10 276 -10 Z " />
<glyph glyph-name="ccedilla" unicode="&#xe7;" horiz-adv-x="482" d="M335 463 Q284 463 238 445 Q192 427 157.5 394.5 Q123 362 103 315.5 Q83 269 83 212 Q83 166 98 129.5 Q113 93 140 68 Q167 43 203.5 30 Q240 17 283 17 Q350 17 408 45 Q412 47 414 45 Q416 43 415 40 L413 21 Q413 16 408 14 Q379 3 346 -3.5 Q313 -10 276 -10 L275 -10 L240 -48 Q245 -47 251 -46.5 Q257 -46 262 -46 Q291 -46 307.5 -60.5 Q324 -75 324 -98 Q324 -115 316.5 -128.5 Q309 -142 296 -151.5 Q283 -161 265.5 -166.5 Q248 -172 229 -172 Q192 -172 166 -158 Q163 -157 163 -151 L164 -141 Q164 -134 172 -138 Q196 -151 230 -151 Q257 -151 278.5 -137.5 Q300 -124 300 -101 Q300 -84 285.5 -74.5 Q271 -65 251 -65 Q227 -65 206 -71 Q205 -70 205 -69 Q205 -65 206 -64 L253 -9 Q210 -5 173.5 12 Q137 29 110 57 Q83 85 68 124 Q53 163 53 210 Q53 271 75 322.5 Q97 374 135 411.5 Q173 449 224.5 469.5 Q276 490 336 490 Q371 490 401.5 484 Q432 478 456 467 Q460 466 460 460 L458 440 Q458 431 451 435 Q402 463 335 463 Z " />
<glyph glyph-name="d" unicode="d" horiz-adv-x="590" d="M544 744 Q544 750 551 750 L568 750 Q573 750 573 744 L483 6 Q483 0 476 0 L459 0 Q454 0 454 6 L468 122 Q450 90 425.5 65 Q401 40 372.5 23.5 Q344 7 313.5 -1.5 Q283 -10 253 -10 Q214 -10 178 4.5 Q142 19 114.5 47 Q87 75 70 115.5 Q53 156 53 208 Q53 275 75 327.5 Q97 380 134 416 Q171 452 217.5 471 Q264 490 314 490 Q377 490 427.5 457 Q478 424 496 356 L544 744 Z M259 18 Q299 18 340 35 Q381 52 413.5 84 Q446 116 466.5 163.5 Q487 211 487 271 Q487 317 473.5 352.5 Q460 388 437 412.5 Q414 437 382 449.5 Q350 462 314 462 Q270 462 228 445 Q186 428 154 396 Q122 364 102.5 317 Q83 270 83 210 Q83 164 97.5 128 Q112 92 136.5 67.5 Q161 43 192.5 30.5 Q224 18 259 18 Z " />
<glyph glyph-name="eth" unicode="&#xf0;" horiz-adv-x="592" d="M386 620 Q429 576 459 532 Q489 488 507 446 Q525 404 533 364 Q541 324 541 288 Q541 217 517 161.5 Q493 106 454 68 Q415 30 366.5 10 Q318 -10 269 -10 Q224 -10 184 6 Q144 22 115 50.5 Q86 79 69 119 Q52 159 52 206 Q52 264 74.5 312.5 Q97 361 134.5 396.5 Q172 432 220 451.5 Q268 471 318 471 Q355 471 386 460.5 Q417 450 441.5 431.5 Q466 413 484 388 Q502 363 513 335 L514 336 Q503 404 467.5 472.5 Q432 541 367 606 L256 523 Q255 523 255 524 L248 533 Q243 538 249 542 L353 620 Q330 641 304.5 661 Q279 681 250 700 Q244 704 250 708 L261 716 Q266 720 273 716 Q302 696 326 675 Q350 654 372 634 L485 718 Q490 723 494 717 L497 712 Q502 707 496 703 L386 620 Z M271 18 Q316 18 358.5 36.5 Q401 55 434.5 86.5 Q468 118 488 160.5 Q508 203 508 251 Q508 292 492.5 327.5 Q477 363 451 389 Q425 415 390.5 429.5 Q356 444 317 444 Q273 444 230.5 426.5 Q188 409 155 378 Q122 347 101.5 304.5 Q81 262 81 211 Q81 170 95.5 135 Q110 100 135.5 74 Q161 48 196 33 Q231 18 271 18 Z " />
<glyph glyph-name="e" unicode="e" horiz-adv-x="513" d="M305 490 Q344 490 377 478 Q410 466 434 442.5 Q458 419 471.5 384 Q485 349 485 303 Q485 289 482 280.5 Q479 272 465 272 L89 272 Q83 245 83 214 Q83 169 97 132.5 Q111 96 136 70.5 Q161 45 195 31 Q229 17 268 17 Q313 17 358 34 Q403 51 442 83 Q450 89 450 80 L449 59 Q449 55 445 52 Q404 20 358.5 5 Q313 -10 265 -10 Q219 -10 180 5.5 Q141 21 113 49.5 Q85 78 69 119.5 Q53 161 53 212 Q53 271 73 321.5 Q93 372 127.5 409.5 Q162 447 208 468.5 Q254 490 305 490 Z M304 463 Q269 463 236.5 451 Q204 439 176.5 417 Q149 395 128 364 Q107 333 95 296 L458 296 Q458 374 417.5 418.5 Q377 463 304 463 Z " />
<glyph glyph-name="eacute" unicode="&#xe9;" horiz-adv-x="513" d="M305 490 Q344 490 377 478 Q410 466 434 442.5 Q458 419 471.5 384 Q485 349 485 303 Q485 289 482 280.5 Q479 272 465 272 L89 272 Q83 245 83 214 Q83 169 97 132.5 Q111 96 136 70.5 Q161 45 195 31 Q229 17 268 17 Q313 17 358 34 Q403 51 442 83 Q450 89 450 80 L449 59 Q449 55 445 52 Q404 20 358.5 5 Q313 -10 265 -10 Q219 -10 180 5.5 Q141 21 113 49.5 Q85 78 69 119.5 Q53 161 53 212 Q53 271 73 321.5 Q93 372 127.5 409.5 Q162 447 208 468.5 Q254 490 305 490 Z M304 463 Q269 463 236.5 451 Q204 439 176.5 417 Q149 395 128 364 Q107 333 95 296 L458 296 Q458 374 417.5 418.5 Q377 463 304 463 Z M263 561 Q254 561 259 568 L393 750 Q397 754 401 753 L430 745 Q433 744 434 741.5 Q435 739 433 737 L284 564 Q282 561 277 561 L263 561 L263 561 Z " />
<glyph glyph-name="ecircumflex" unicode="&#xea;" horiz-adv-x="513" d="M305 490 Q344 490 377 478 Q410 466 434 442.5 Q458 419 471.5 384 Q485 349 485 303 Q485 289 482 280.5 Q479 272 465 272 L89 272 Q83 245 83 214 Q83 169 97 132.5 Q111 96 136 70.5 Q161 45 195 31 Q229 17 268 17 Q313 17 358 34 Q403 51 442 83 Q450 89 450 80 L449 59 Q449 55 445 52 Q404 20 358.5 5 Q313 -10 265 -10 Q219 -10 180 5.5 Q141 21 113 49.5 Q85 78 69 119.5 Q53 161 53 212 Q53 271 73 321.5 Q93 372 127.5 409.5 Q162 447 208 468.5 Q254 490 305 490 Z M304 463 Q269 463 236.5 451 Q204 439 176.5 417 Q149 395 128 364 Q107 333 95 296 L458 296 Q458 374 417.5 418.5 Q377 463 304 463 Z M423 572 Q426 565 419 565 L400 565 Q394 565 393 569 L317 715 L203 569 Q199 565 195 565 L178 565 Q169 565 174 572 L305 746 Q309 750 313 750 L328 750 Q334 750 335 746 L423 572 L423 572 Z " />
<glyph glyph-name="edieresis" unicode="&#xeb;" horiz-adv-x="513" d="M305 490 Q344 490 377 478 Q410 466 434 442.5 Q458 419 471.5 384 Q485 349 485 303 Q485 289 482 280.5 Q479 272 465 272 L89 272 Q83 245 83 214 Q83 169 97 132.5 Q111 96 136 70.5 Q161 45 195 31 Q229 17 268 17 Q313 17 358 34 Q403 51 442 83 Q450 89 450 80 L449 59 Q449 55 445 52 Q404 20 358.5 5 Q313 -10 265 -10 Q219 -10 180 5.5 Q141 21 113 49.5 Q85 78 69 119.5 Q53 161 53 212 Q53 271 73 321.5 Q93 372 127.5 409.5 Q162 447 208 468.5 Q254 490 305 490 Z M304 463 Q269 463 236.5 451 Q204 439 176.5 417 Q149 395 128 364 Q107 333 95 296 L458 296 Q458 374 417.5 418.5 Q377 463 304 463 Z M245 656 Q232 656 224.5 664.5 Q217 673 217 685 Q217 700 227 710.5 Q237 721 253 721 Q265 721 272 712.5 Q279 704 279 691 Q279 677 269.5 666.5 Q260 656 245 656 Z M375 656 Q362 656 354.5 664.5 Q347 673 347 685 Q347 700 357 710.5 Q367 721 383 721 Q395 721 402 712.5 Q409 704 409 691 Q409 677 399.5 666.5 Q390 656 375 656 Z " />
<glyph glyph-name="egrave" unicode="&#xe8;" horiz-adv-x="513" d="M305 490 Q344 490 377 478 Q410 466 434 442.5 Q458 419 471.5 384 Q485 349 485 303 Q485 289 482 280.5 Q479 272 465 272 L89 272 Q83 245 83 214 Q83 169 97 132.5 Q111 96 136 70.5 Q161 45 195 31 Q229 17 268 17 Q313 17 358 34 Q403 51 442 83 Q450 89 450 80 L449 59 Q449 55 445 52 Q404 20 358.5 5 Q313 -10 265 -10 Q219 -10 180 5.5 Q141 21 113 49.5 Q85 78 69 119.5 Q53 161 53 212 Q53 271 73 321.5 Q93 372 127.5 409.5 Q162 447 208 468.5 Q254 490 305 490 Z M304 463 Q269 463 236.5 451 Q204 439 176.5 417 Q149 395 128 364 Q107 333 95 296 L458 296 Q458 374 417.5 418.5 Q377 463 304 463 Z M347 568 Q352 561 343 561 L329 561 Q324 561 322 564 L173 737 Q171 739 172 741.5 Q173 744 176 745 L205 753 Q209 754 213 750 L347 568 L347 568 Z " />
<glyph glyph-name="eogonek" unicode="&#x119;" horiz-adv-x="513" d="M305 490 Q344 490 377 478 Q410 466 434 442.5 Q458 419 471.5 384 Q485 349 485 303 Q485 289 482 280.5 Q479 272 465 272 L89 272 Q83 245 83 214 Q83 169 97 132.5 Q111 96 136 70.5 Q161 45 195 31 Q229 17 268 17 Q313 17 358 34 Q403 51 442 83 Q450 89 450 80 L449 59 Q449 55 446 52 Q398 16 345 1 Q293 -34 267.5 -57.5 Q242 -81 242 -107 Q242 -127 255 -137.5 Q268 -148 288 -148 Q310 -148 329 -138 Q336 -135 336 -143 L335 -152 Q335 -158 331 -159 Q310 -171 282 -171 Q253 -171 234 -154.5 Q215 -138 215 -109 Q215 -81 234.5 -57.5 Q254 -34 292 -9 Q285 -10 278.5 -10 Q272 -10 265 -10 Q219 -10 180 5.5 Q141 21 113 49.5 Q85 78 69 119.5 Q53 161 53 212 Q53 271 73 321.5 Q93 372 127.5 409.5 Q162 447 208 468.5 Q254 490 305 490 Z M304 463 Q269 463 236.5 451 Q204 439 176.5 417 Q149 395 128 364 Q107 333 95 296 L458 296 Q458 374 417.5 418.5 Q377 463 304 463 Z " />
<glyph glyph-name="f" unicode="f" horiz-adv-x="302" d="M296 733 Q254 733 226 709 Q198 685 191 628 L173 480 L325 480 Q332 480 331 474 L329 461 Q327 456 322 456 L170 456 L97 -156 Q97 -162 90 -162 L72 -162 Q67 -162 67 -156 L140 456 L56 456 Q48 456 50 462 L52 475 Q54 480 59 480 L143 480 L161 629 Q169 699 205 729.5 Q241 760 296 760 Q320 760 338.5 755 Q357 750 371 743 Q374 742 374 736 L371 718 Q369 711 365 714 Q340 733 296 733 Z " />
<glyph glyph-name="g" unicode="g" horiz-adv-x="592" d="M506 474 Q506 480 513 480 L532 480 Q537 480 537 474 L486 63 Q479 9 458 -34.5 Q437 -78 403 -108.5 Q369 -139 323.5 -155.5 Q278 -172 223 -172 Q170 -172 127.5 -161.5 Q85 -151 55 -133 Q51 -130 51 -125 L53 -106 Q53 -98 61 -102 Q125 -145 225 -145 Q324 -145 383.5 -90.5 Q443 -36 456 61 L466 138 Q431 76 373.5 43.5 Q316 11 253 11 Q212 11 176 24.5 Q140 38 113 64.5 Q86 91 70 130 Q54 169 54 219 Q54 283 76.5 333.5 Q99 384 135 418.5 Q171 453 216.5 471.5 Q262 490 307 490 Q371 490 421.5 455 Q472 420 491 354 L492 358 L506 474 Z M258 38 Q302 38 342 55.5 Q382 73 413 104.5 Q444 136 462 180 Q480 224 480 276 Q480 316 467 350.5 Q454 385 431 410 Q408 435 376 449 Q344 463 306 463 Q267 463 227 447 Q187 431 155.5 400 Q124 369 104 324 Q84 279 84 221 Q84 177 98 142.5 Q112 108 135.5 85 Q159 62 190.5 50 Q222 38 258 38 Z " />
<glyph glyph-name="h" unicode="h" horiz-adv-x="527" d="M316 490 Q382 490 421.5 456 Q461 422 461 351 Q461 343 460 334.5 Q459 326 458 317 L420 6 Q420 0 413 0 L396 0 Q391 0 391 6 L428 314 Q429 323 429.5 330.5 Q430 338 430 346 Q430 408 397 435.5 Q364 463 309 463 Q271 463 238.5 448.5 Q206 434 181.5 408 Q157 382 140 345 Q123 308 117 263 L86 6 Q86 0 79 0 L61 0 Q56 0 56 6 L146 744 Q146 750 153 750 L170 750 Q175 750 175 744 L129 366 L129 364 Q157 425 205 457.5 Q253 490 316 490 Z " />
<glyph glyph-name="i" unicode="i" horiz-adv-x="211" d="M155 656 Q142 656 134.5 664 Q127 672 127 685 Q127 699 137 710.5 Q147 722 162 722 Q176 722 183 713 Q190 704 190 693 Q190 678 180 667 Q170 656 155 656 Z M67 0 Q62 0 62 6 L119 474 Q119 480 126 480 L144 480 Q149 480 149 474 L92 6 Q92 0 85 0 L67 0 Z " />
<glyph glyph-name="idotless" unicode="&#x131;" horiz-adv-x="227" d="M75 0 Q70 0 70 6 L127 474 Q127 480 134 480 L152 480 Q157 480 157 474 L100 6 Q100 0 93 0 L75 0 L75 0 Z " />
<glyph glyph-name="iacute" unicode="&#xed;" horiz-adv-x="227" d="M75 0 Q70 0 70 6 L127 474 Q127 480 134 480 L152 480 Q157 480 157 474 L100 6 Q100 0 93 0 L75 0 L75 0 Z M145 556 Q138 556 141 563 L230 745 Q232 750 238 748 L262 737 Q267 733 265 729 L164 560 Q162 556 157 556 L145 556 L145 556 Z " />
<glyph glyph-name="icircumflex" unicode="&#xee;" horiz-adv-x="227" d="M75 0 Q70 0 70 6 L127 474 Q127 480 134 480 L152 480 Q157 480 157 474 L100 6 Q100 0 93 0 L75 0 L75 0 Z M279 572 Q282 565 275 565 L256 565 Q250 565 249 569 L173 715 L59 569 Q55 565 51 565 L34 565 Q25 565 30 572 L161 746 Q165 750 169 750 L184 750 Q190 750 191 746 L279 572 L279 572 Z " />
<glyph glyph-name="idieresis" unicode="&#xef;" horiz-adv-x="227" d="M75 0 Q70 0 70 6 L127 474 Q127 480 134 480 L152 480 Q157 480 157 474 L100 6 Q100 0 93 0 L75 0 L75 0 Z M101 656 Q88 656 80.5 664.5 Q73 673 73 685 Q73 700 83 710.5 Q93 721 109 721 Q121 721 128 712.5 Q135 704 135 691 Q135 677 125.5 666.5 Q116 656 101 656 Z M231 656 Q218 656 210.5 664.5 Q203 673 203 685 Q203 700 213 710.5 Q223 721 239 721 Q251 721 258 712.5 Q265 704 265 691 Q265 677 255.5 666.5 Q246 656 231 656 Z " />
<glyph glyph-name="igrave" unicode="&#xec;" horiz-adv-x="227" d="M75 0 Q70 0 70 6 L127 474 Q127 480 134 480 L152 480 Q157 480 157 474 L100 6 Q100 0 93 0 L75 0 L75 0 Z M170 563 Q173 556 166 556 L154 556 Q149 556 147 560 L46 729 Q44 733 49 737 L73 748 Q79 750 81 745 L170 563 L170 563 Z " />
<glyph glyph-name="j" unicode="j" horiz-adv-x="219" d="M161 656 Q148 656 140.5 664 Q133 672 133 685 Q133 699 143 710.5 Q153 722 168 722 Q182 722 189 713 Q196 704 196 693 Q196 678 186 667 Q176 656 161 656 Z M-11 -172 Q-27 -172 -39.5 -168.5 Q-52 -165 -62 -160 Q-65 -159 -65 -153 L-64 -137 Q-64 -134 -61.5 -133 Q-59 -132 -56 -134 Q-39 -145 -11 -145 Q15 -145 35 -128 Q55 -111 59 -77 L127 474 Q127 480 134 480 L152 480 Q157 480 157 474 L89 -77 Q83 -125 56 -148.5 Q29 -172 -11 -172 Z " />
<glyph glyph-name="k" unicode="k" horiz-adv-x="420" d="M421 480 Q431 480 424 473 L155 256 L392 7 Q397 0 389 0 L360 0 Q355 0 353 3 L117 254 L87 6 Q87 0 80 0 L62 0 Q57 0 57 6 L147 744 Q147 750 154 750 L172 750 Q177 750 177 744 L118 258 L386 477 Q389 480 393 480 L421 480 L421 480 Z " />
<glyph glyph-name="l" unicode="l" horiz-adv-x="241" d="M132 -10 Q61 -10 61 60 Q61 65 61 71.5 Q61 78 62 85 L143 744 Q143 750 150 750 L168 750 Q173 750 173 744 L92 86 Q91 81 91 77 Q91 73 91 69 Q91 41 104 29 Q117 17 141 17 Q154 17 168 20 Q182 23 195 30 Q204 35 202 26 L200 9 Q200 4 195 2 Q182 -3 165 -6.5 Q148 -10 132 -10 Z " />
<glyph glyph-name="lslash" unicode="&#x142;" horiz-adv-x="241" d="M92 86 Q91 81 91 77 Q91 73 91 69 Q91 41 104 29 Q117 17 141 17 Q154 17 168 20 Q182 23 195 30 Q204 35 202 26 L200 9 Q200 4 195 2 Q182 -3 165 -6.5 Q148 -10 132 -10 Q61 -10 61 60 Q61 65 61 71.5 Q61 78 62 85 L103 416 L52 397 Q45 393 45 401 L45 414 Q45 419 50 421 L106 443 L143 744 Q143 750 150 750 L168 750 Q173 750 173 744 L138 455 L201 479 Q208 482 208 475 L208 462 Q208 457 203 455 L134 429 L92 86 Z " />
<glyph glyph-name="m" unicode="m" horiz-adv-x="765" d="M570 490 Q596 490 620 482.5 Q644 475 662 459 Q680 443 690.5 419.5 Q701 396 701 365 Q701 360 701 354 Q701 348 700 342 L659 6 Q659 0 652 0 L634 0 Q629 0 629 6 L670 340 Q671 345 671 350 Q671 355 671 360 Q671 387 662 406.5 Q653 426 638.5 438.5 Q624 451 604.5 457 Q585 463 564 463 Q537 463 511 452.5 Q485 442 464 424 Q443 406 429 380.5 Q415 355 411 325 L372 6 Q372 0 365 0 L347 0 Q342 0 342 6 L383 340 Q384 345 384 350.5 Q384 356 384 361 Q384 388 375 407 Q366 426 351.5 438.5 Q337 451 318 457 Q299 463 278 463 Q251 463 224.5 452.5 Q198 442 177 424 Q156 406 142 381 Q128 356 125 326 L86 6 Q86 0 79 0 L61 0 Q56 0 56 6 L113 474 Q113 480 120 480 L137 480 Q142 480 142 474 L133 399 Q157 444 198.5 467 Q240 490 285 490 Q332 490 368.5 465 Q405 440 413 388 Q436 438 479 464 Q522 490 570 490 Z " />
<glyph glyph-name="n" unicode="n" horiz-adv-x="527" d="M316 490 Q382 490 421 455.5 Q460 421 460 352 Q460 335 457 319 L420 6 Q420 0 413 0 L395 0 Q390 0 390 6 L427 316 Q428 325 428.5 333 Q429 341 429 350 Q429 409 396.5 436 Q364 463 309 463 Q271 463 239 449.5 Q207 436 182.5 411 Q158 386 141.5 351 Q125 316 118 274 L86 6 Q86 0 79 0 L61 0 Q56 0 56 6 L112 474 Q112 480 119 480 L136 480 Q141 480 141 474 L127 362 Q154 425 203.5 457.5 Q253 490 316 490 Z " />
<glyph glyph-name="ntilde" unicode="&#xf1;" horiz-adv-x="529" d="M316 490 Q382 490 421 455.5 Q460 421 460 352 Q460 335 457 319 L420 6 Q420 0 413 0 L395 0 Q390 0 390 6 L427 316 Q428 325 428.5 333 Q429 341 429 350 Q429 409 396.5 436 Q364 463 309 463 Q271 463 239 449.5 Q207 436 182.5 411 Q158 386 141.5 351 Q125 316 118 274 L86 6 Q86 0 79 0 L61 0 Q56 0 56 6 L112 474 Q112 480 119 480 L136 480 Q141 480 141 474 L127 362 Q154 425 203.5 457.5 Q253 490 316 490 Z M372 612 Q348 612 334.5 625 Q321 638 310 654 Q301 668 290.5 679 Q280 690 262 690 Q237 690 222.5 669 Q208 648 203 616 Q201 610 196 610 L184 610 Q178 610 179 617 Q186 660 207.5 689 Q229 718 264 718 Q290 718 304 704 Q318 690 329 675 Q339 661 348.5 651 Q358 641 375 641 Q398 641 411.5 659.5 Q425 678 430 707 Q431 713 437 713 L449 713 Q456 713 454 705 Q447 665 425.5 638.5 Q404 612 372 612 Z " />
<glyph glyph-name="o" unicode="o" horiz-adv-x="590" d="M264 -10 Q220 -10 181.5 7 Q143 24 114.5 54 Q86 84 69.5 125 Q53 166 53 214 Q53 273 76 323.5 Q99 374 137.5 411 Q176 448 225 469 Q274 490 325 490 Q369 490 408 473.5 Q447 457 475.5 427.5 Q504 398 520.5 357.5 Q537 317 537 269 Q537 210 513.5 159 Q490 108 452 70.5 Q414 33 365 11.5 Q316 -10 264 -10 Z M267 18 Q313 18 356.5 37 Q400 56 433.5 89.5 Q467 123 487 169 Q507 215 507 268 Q507 310 492.5 346 Q478 382 453.5 407.5 Q429 433 395 447.5 Q361 462 322 462 Q276 462 233 443.5 Q190 425 156.5 392 Q123 359 103 314 Q83 269 83 216 Q83 173 97.5 136.5 Q112 100 136.5 74 Q161 48 194.5 33 Q228 18 267 18 Z " />
<glyph glyph-name="oacute" unicode="&#xf3;" horiz-adv-x="589" d="M264 -10 Q220 -10 181.5 7 Q143 24 114.5 54 Q86 84 69.5 125 Q53 166 53 214 Q53 273 76 323.5 Q99 374 137.5 411 Q176 448 225 469 Q274 490 325 490 Q369 490 408 473.5 Q447 457 475.5 427.5 Q504 398 520.5 357.5 Q537 317 537 269 Q537 210 513.5 159 Q490 108 452 70.5 Q414 33 365 11.5 Q316 -10 264 -10 Z M267 18 Q313 18 356.5 37 Q400 56 433.5 89.5 Q467 123 487 169 Q507 215 507 268 Q507 310 492.5 346 Q478 382 453.5 407.5 Q429 433 395 447.5 Q361 462 322 462 Q276 462 233 443.5 Q190 425 156.5 392 Q123 359 103 314 Q83 269 83 216 Q83 173 97.5 136.5 Q112 100 136.5 74 Q161 48 194.5 33 Q228 18 267 18 Z M300 561 Q291 561 296 568 L430 750 Q434 754 438 753 L467 745 Q470 744 471 741.5 Q472 739 470 737 L321 564 Q319 561 314 561 L300 561 L300 561 Z " />
<glyph glyph-name="ocircumflex" unicode="&#xf4;" horiz-adv-x="589" d="M264 -10 Q220 -10 181.5 7 Q143 24 114.5 54 Q86 84 69.5 125 Q53 166 53 214 Q53 273 76 323.5 Q99 374 137.5 411 Q176 448 225 469 Q274 490 325 490 Q369 490 408 473.5 Q447 457 475.5 427.5 Q504 398 520.5 357.5 Q537 317 537 269 Q537 210 513.5 159 Q490 108 452 70.5 Q414 33 365 11.5 Q316 -10 264 -10 Z M267 18 Q313 18 356.5 37 Q400 56 433.5 89.5 Q467 123 487 169 Q507 215 507 268 Q507 310 492.5 346 Q478 382 453.5 407.5 Q429 433 395 447.5 Q361 462 322 462 Q276 462 233 443.5 Q190 425 156.5 392 Q123 359 103 314 Q83 269 83 216 Q83 173 97.5 136.5 Q112 100 136.5 74 Q161 48 194.5 33 Q228 18 267 18 Z M460 572 Q463 565 456 565 L437 565 Q431 565 430 569 L354 715 L240 569 Q236 565 232 565 L215 565 Q206 565 211 572 L342 746 Q346 750 350 750 L365 750 Q371 750 372 746 L460 572 L460 572 Z " />
<glyph glyph-name="odieresis" unicode="&#xf6;" horiz-adv-x="589" d="M264 -10 Q220 -10 181.5 7 Q143 24 114.5 54 Q86 84 69.5 125 Q53 166 53 214 Q53 273 76 323.5 Q99 374 137.5 411 Q176 448 225 469 Q274 490 325 490 Q369 490 408 473.5 Q447 457 475.5 427.5 Q504 398 520.5 357.5 Q537 317 537 269 Q537 210 513.5 159 Q490 108 452 70.5 Q414 33 365 11.5 Q316 -10 264 -10 Z M267 18 Q313 18 356.5 37 Q400 56 433.5 89.5 Q467 123 487 169 Q507 215 507 268 Q507 310 492.5 346 Q478 382 453.5 407.5 Q429 433 395 447.5 Q361 462 322 462 Q276 462 233 443.5 Q190 425 156.5 392 Q123 359 103 314 Q83 269 83 216 Q83 173 97.5 136.5 Q112 100 136.5 74 Q161 48 194.5 33 Q228 18 267 18 Z M282 656 Q269 656 261.5 664.5 Q254 673 254 685 Q254 700 264 710.5 Q274 721 290 721 Q302 721 309 712.5 Q316 704 316 691 Q316 677 306.5 666.5 Q297 656 282 656 Z M412 656 Q399 656 391.5 664.5 Q384 673 384 685 Q384 700 394 710.5 Q404 721 420 721 Q432 721 439 712.5 Q446 704 446 691 Q446 677 436.5 666.5 Q427 656 412 656 Z " />
<glyph glyph-name="ograve" unicode="&#xf2;" horiz-adv-x="589" d="M264 -10 Q220 -10 181.5 7 Q143 24 114.5 54 Q86 84 69.5 125 Q53 166 53 214 Q53 273 76 323.5 Q99 374 137.5 411 Q176 448 225 469 Q274 490 325 490 Q369 490 408 473.5 Q447 457 475.5 427.5 Q504 398 520.5 357.5 Q537 317 537 269 Q537 210 513.5 159 Q490 108 452 70.5 Q414 33 365 11.5 Q316 -10 264 -10 Z M267 18 Q313 18 356.5 37 Q400 56 433.5 89.5 Q467 123 487 169 Q507 215 507 268 Q507 310 492.5 346 Q478 382 453.5 407.5 Q429 433 395 447.5 Q361 462 322 462 Q276 462 233 443.5 Q190 425 156.5 392 Q123 359 103 314 Q83 269 83 216 Q83 173 97.5 136.5 Q112 100 136.5 74 Q161 48 194.5 33 Q228 18 267 18 Z M384 568 Q389 561 380 561 L366 561 Q361 561 359 564 L210 737 Q208 739 209 741.5 Q210 744 213 745 L242 753 Q246 754 250 750 L384 568 L384 568 Z " />
<glyph glyph-name="oslash" unicode="&#xf8;" horiz-adv-x="589" d="M445 453 Q487 424 512 376.5 Q537 329 537 269 Q537 210 513.5 159 Q490 108 452 70.5 Q414 33 365 11.5 Q316 -10 264 -10 Q235 -10 209.5 -3 Q184 4 161 17 L115 -53 Q111 -57 107 -57 L98 -57 Q90 -57 94 -50 L144 28 Q102 57 77.5 105.5 Q53 154 53 214 Q53 273 76 323.5 Q99 374 137.5 411 Q176 448 225 469 Q274 490 325 490 Q354 490 380 483 Q406 476 429 463 L475 534 Q479 538 483 538 L492 538 Q499 538 496 531 L445 453 Z M83 216 Q83 163 104 120.5 Q125 78 161 52 L413 439 Q372 462 322 462 Q276 462 233 443.5 Q190 425 156.5 392 Q123 359 103 314 Q83 269 83 216 Z M267 18 Q313 18 356.5 37 Q400 56 433.5 89.5 Q467 123 487 169 Q507 215 507 268 Q507 320 486 361 Q465 402 429 428 L177 42 Q197 31 219.5 24.5 Q242 18 267 18 Z " />
<glyph glyph-name="otilde" unicode="&#xf5;" horiz-adv-x="589" d="M264 -10 Q220 -10 181.5 7 Q143 24 114.5 54 Q86 84 69.5 125 Q53 166 53 214 Q53 273 76 323.5 Q99 374 137.5 411 Q176 448 225 469 Q274 490 325 490 Q369 490 408 473.5 Q447 457 475.5 427.5 Q504 398 520.5 357.5 Q537 317 537 269 Q537 210 513.5 159 Q490 108 452 70.5 Q414 33 365 11.5 Q316 -10 264 -10 Z M267 18 Q313 18 356.5 37 Q400 56 433.5 89.5 Q467 123 487 169 Q507 215 507 268 Q507 310 492.5 346 Q478 382 453.5 407.5 Q429 433 395 447.5 Q361 462 322 462 Q276 462 233 443.5 Q190 425 156.5 392 Q123 359 103 314 Q83 269 83 216 Q83 173 97.5 136.5 Q112 100 136.5 74 Q161 48 194.5 33 Q228 18 267 18 Z M401 612 Q377 612 363.5 625 Q350 638 339 654 Q330 668 319.5 679 Q309 690 291 690 Q266 690 251.5 669 Q237 648 232 616 Q230 610 225 610 L213 610 Q207 610 208 617 Q215 660 236.5 689 Q258 718 293 718 Q319 718 333 704 Q347 690 358 675 Q368 661 377.5 651 Q387 641 404 641 Q427 641 440.5 659.5 Q454 678 459 707 Q460 713 466 713 L478 713 Q485 713 483 705 Q476 665 454.5 638.5 Q433 612 401 612 Z " />
<glyph glyph-name="oe" unicode="&#x153;" horiz-adv-x="890" d="M692 490 Q771 490 816 441.5 Q861 393 861 312 Q861 286 857 279 Q853 272 845 272 L491 272 Q487 256 485.5 239.5 Q484 223 484 206 Q484 114 532.5 65.5 Q581 17 663 17 Q705 17 746 31 Q787 45 822 74 Q830 80 830 71 L829 52 Q829 48 825 45 Q789 17 746 3.5 Q703 -10 658 -10 Q578 -10 526 33.5 Q474 77 462 152 Q430 77 371 33.5 Q312 -10 240 -10 Q198 -10 164 6.5 Q130 23 105 52 Q80 81 66.5 121.5 Q53 162 53 209 Q53 269 73 320.5 Q93 372 127 409.5 Q161 447 206.5 468.5 Q252 490 302 490 Q371 490 418 446.5 Q465 403 479 328 Q508 404 563.5 447 Q619 490 692 490 Z M245 17 Q288 17 327 37 Q366 57 395.5 91.5 Q425 126 442 172.5 Q459 219 459 273 Q459 315 447.5 349.5 Q436 384 415 409.5 Q394 435 365 449 Q336 463 300 463 Q255 463 215.5 443.5 Q176 424 146.5 390 Q117 356 99.5 310 Q82 264 82 210 Q82 168 93.5 133 Q105 98 126.5 72 Q148 46 178 31.5 Q208 17 245 17 Z M690 463 Q655 463 624 450 Q593 437 568.5 414.5 Q544 392 525.5 361.5 Q507 331 497 296 L835 296 Q835 301 835.5 305 Q836 309 836 314 Q836 383 796 423 Q756 463 690 463 Z " />
<glyph glyph-name="p" unicode="p" horiz-adv-x="597" d="M343 490 Q384 490 420.5 476 Q457 462 484.5 434 Q512 406 528 365.5 Q544 325 544 273 Q544 205 520.5 152.5 Q497 100 459 64 Q421 28 374 9 Q327 -10 281 -10 Q221 -10 170.5 23.5 Q120 57 100 122 L66 -156 Q66 -162 59 -162 L41 -162 Q36 -162 36 -156 L113 474 Q113 480 120 480 L137 480 Q142 480 142 474 L128 360 Q163 424 221 457 Q279 490 343 490 Z M283 18 Q324 18 365 34.5 Q406 51 439 83.5 Q472 116 492.5 163 Q513 210 513 271 Q513 317 499.5 352.5 Q486 388 462 412.5 Q438 437 406 449.5 Q374 462 338 462 Q294 462 253 445 Q212 428 180.5 395.5 Q149 363 129.5 316 Q110 269 110 210 Q110 163 124 127.5 Q138 92 162 67.5 Q186 43 217 30.5 Q248 18 283 18 Z " />
<glyph glyph-name="thorn" unicode="&#xfe;" horiz-adv-x="597" d="M343 490 Q384 490 420.5 475.5 Q457 461 484.5 433.5 Q512 406 528 366 Q544 326 544 274 Q544 206 520.5 153 Q497 100 459 64 Q421 28 374 9 Q327 -10 281 -10 Q251 -10 222.5 -1.5 Q194 7 170 23.5 Q146 40 128 65 Q110 90 100 122 L66 -156 Q66 -162 59 -162 L41 -162 Q36 -162 36 -156 L147 744 Q147 750 154 750 L171 750 Q176 750 176 744 L128 360 Q163 424 221 457 Q279 490 343 490 Z M283 18 Q324 18 365 34.5 Q406 51 439 83.5 Q472 116 492.5 163 Q513 210 513 271 Q513 317 499.5 352.5 Q486 388 462 412.5 Q438 437 406 449.5 Q374 462 338 462 Q294 462 253 445 Q212 428 180.5 395.5 Q149 363 129.5 316 Q110 269 110 210 Q110 164 124 128 Q138 92 162 67.5 Q186 43 217 30.5 Q248 18 283 18 Z " />
<glyph glyph-name="q" unicode="q" horiz-adv-x="597" d="M511 474 Q511 480 518 480 L535 480 Q540 480 540 474 L463 -156 Q463 -162 456 -162 L438 -162 Q433 -162 433 -156 L467 121 Q449 89 424.5 64.5 Q400 40 372 23.5 Q344 7 314 -1.5 Q284 -10 254 -10 Q215 -10 178.5 4.5 Q142 19 114 47 Q86 75 69.5 115.5 Q53 156 53 208 Q53 275 75 327.5 Q97 380 133.5 416 Q170 452 217 471 Q264 490 314 490 Q378 490 427.5 456 Q477 422 496 353 L511 474 Z M259 17 Q299 17 339 34 Q379 51 411.5 83.5 Q444 116 464 163 Q484 210 484 271 Q484 317 470.5 352.5 Q457 388 434 412.5 Q411 437 380 450 Q349 463 314 463 Q270 463 228 446 Q186 429 154 397 Q122 365 102.5 317.5 Q83 270 83 210 Q83 163 97.5 127.5 Q112 92 136.5 67 Q161 42 192.5 29.5 Q224 17 259 17 Z " />
<glyph glyph-name="r" unicode="r" horiz-adv-x="337" d="M123 308 Q154 398 207.5 443 Q261 488 334 490 Q339 490 339 484 L337 464 Q337 458 330 458 Q278 457 233 427 Q182 395 150 328.5 Q118 262 107 171 L87 6 Q87 0 80 0 L62 0 Q57 0 57 6 L113 474 Q113 480 120 480 L138 480 Q143 480 143 474 L123 310 L123 308 L123 308 Z " />
<glyph glyph-name="s" unicode="s" horiz-adv-x="414" d="M165 -10 Q130 -10 93 -0.5 Q56 9 32 26 Q29 28 29 34 L31 52 Q33 60 39 55 Q65 35 100.5 25.5 Q136 16 168 16 Q201 16 228.5 25.5 Q256 35 275.5 51.5 Q295 68 306 90 Q317 112 317 137 Q317 160 307 176 Q297 192 280.5 203.5 Q264 215 243 223.5 Q222 232 199 240 Q175 249 153 258.5 Q131 268 113.5 281 Q96 294 85.5 312 Q75 330 75 356 Q75 416 120 453 Q165 490 243 490 Q277 490 309 482.5 Q341 475 364 463 Q367 462 367 456 L365 438 Q365 430 357 434 Q334 448 303 456 Q272 464 241 464 Q178 464 141.5 435.5 Q105 407 105 361 Q105 340 114.5 325 Q124 310 139.5 299 Q155 288 175.5 279.5 Q196 271 218 264 Q242 256 265.5 246 Q289 236 307 222.5 Q325 209 336.5 190 Q348 171 348 144 Q348 111 334.5 83 Q321 55 296.5 34.5 Q272 14 238.5 2 Q205 -10 165 -10 Z " />
<glyph glyph-name="scaron" unicode="&#x161;" horiz-adv-x="414" d="M165 -10 Q130 -10 93 -0.5 Q56 9 32 26 Q29 28 29 34 L31 52 Q33 60 39 55 Q65 35 100.5 25.5 Q136 16 168 16 Q201 16 228.5 25.5 Q256 35 275.5 51.5 Q295 68 306 90 Q317 112 317 137 Q317 160 307 176 Q297 192 280.5 203.5 Q264 215 243 223.5 Q222 232 199 240 Q175 249 153 258.5 Q131 268 113.5 281 Q96 294 85.5 312 Q75 330 75 356 Q75 416 120 453 Q165 490 243 490 Q277 490 309 482.5 Q341 475 364 463 Q367 462 367 456 L365 438 Q365 430 357 434 Q334 448 303 456 Q272 464 241 464 Q178 464 141.5 435.5 Q105 407 105 361 Q105 340 114.5 325 Q124 310 139.5 299 Q155 288 175.5 279.5 Q196 271 218 264 Q242 256 265.5 246 Q289 236 307 222.5 Q325 209 336.5 190 Q348 171 348 144 Q348 111 334.5 83 Q321 55 296.5 34.5 Q272 14 238.5 2 Q205 -10 165 -10 Z M363 744 Q365 747 370 747 L388 747 Q396 747 391 740 L263 576 Q259 572 255 572 L241 572 Q235 572 234 576 L144 740 Q141 747 148 747 L165 747 Q171 747 172 743 L252 606 L363 744 L363 744 Z " />
<glyph glyph-name="germandbls" unicode="&#xdf;" horiz-adv-x="516" d="M278 -10 Q252 -10 223.5 -5 Q195 0 174 8 Q170 9 170 15 L172 32 Q173 39 179 36 Q200 25 227 20.5 Q254 16 277 16 Q347 16 385 52 Q423 88 423 145 Q423 184 398 209.5 Q373 235 328 262 Q309 274 291 285.5 Q273 297 259 311 Q245 325 236.5 343 Q228 361 228 385 Q228 409 234.5 427.5 Q241 446 252 461.5 Q263 477 277.5 491.5 Q292 506 308 521 Q327 538 342 552.5 Q357 567 367.5 581.5 Q378 596 384 611.5 Q390 627 390 647 Q390 686 364 709.5 Q338 733 294 733 Q270 733 248 725 Q226 717 207.5 700 Q189 683 176 656 Q163 629 159 591 L87 6 Q87 0 80 0 L62 0 Q57 0 57 6 L129 591 Q134 635 150 667 Q166 699 188.5 719.5 Q211 740 238.5 750 Q266 760 296 760 Q350 760 384.5 729.5 Q419 699 419 650 Q419 627 411.5 608.5 Q404 590 392 573.5 Q380 557 364 542 Q348 527 332 511 Q317 497 303.5 484 Q290 471 279.5 456.5 Q269 442 263 426 Q257 410 257 390 Q257 370 264.5 355 Q272 340 284.5 327.5 Q297 315 313.5 304.5 Q330 294 349 282 Q368 270 386.5 257 Q405 244 419 228.5 Q433 213 441.5 193.5 Q450 174 450 148 Q450 115 438.5 86 Q427 57 404.5 35.5 Q382 14 350 2 Q318 -10 278 -10 Z " />
<glyph glyph-name="t" unicode="t" horiz-adv-x="319" d="M127 119 Q126 111 125.5 105 Q125 99 125 94 Q125 55 143.5 36 Q162 17 194 17 Q235 17 267 37 Q270 39 272.5 38.5 Q275 38 274 33 L272 16 Q272 12 267 10 Q252 2 232.5 -4 Q213 -10 187 -10 Q144 -10 119.5 17 Q95 44 95 91 Q95 96 95.5 102.5 Q96 109 97 117 L139 456 L61 456 Q56 456 56 462 L57 474 Q57 480 64 480 L142 480 L159 615 Q159 621 166 621 L184 621 Q189 621 189 615 L172 480 L314 480 Q319 480 319 474 L318 462 Q318 456 312 456 L169 456 L127 119 Z " />
<glyph glyph-name="u" unicode="u" horiz-adv-x="519" d="M433 474 Q433 480 440 480 L458 480 Q463 480 463 474 L407 6 Q407 0 400 0 L384 0 Q379 0 379 6 L389 104 L389 107 Q361 50 314.5 20 Q268 -10 208 -10 Q146 -10 107 24 Q68 58 68 135 Q68 153 71 176 L107 474 Q107 480 114 480 L132 480 Q137 480 137 474 L101 176 Q98 155 98 137 Q98 71 130.5 43.5 Q163 16 216 16 Q253 16 285 30.5 Q317 45 341 72 Q365 99 381 137 Q397 175 403 221 L433 474 L433 474 Z " />
<glyph glyph-name="uacute" unicode="&#xfa;" horiz-adv-x="522" d="M433 474 Q433 480 440 480 L458 480 Q463 480 463 474 L407 6 Q407 0 400 0 L384 0 Q379 0 379 6 L389 104 L389 107 Q361 50 314.5 20 Q268 -10 208 -10 Q146 -10 107 24 Q68 58 68 135 Q68 153 71 176 L107 474 Q107 480 114 480 L132 480 Q137 480 137 474 L101 176 Q98 155 98 137 Q98 71 130.5 43.5 Q163 16 216 16 Q253 16 285 30.5 Q317 45 341 72 Q365 99 381 137 Q397 175 403 221 L433 474 L433 474 Z M265 561 Q256 561 261 568 L395 750 Q399 754 403 753 L432 745 Q435 744 436 741.5 Q437 739 435 737 L286 564 Q284 561 279 561 L265 561 L265 561 Z " />
<glyph glyph-name="ucircumflex" unicode="&#xfb;" horiz-adv-x="522" d="M433 474 Q433 480 440 480 L458 480 Q463 480 463 474 L407 6 Q407 0 400 0 L384 0 Q379 0 379 6 L389 104 L389 107 Q361 50 314.5 20 Q268 -10 208 -10 Q146 -10 107 24 Q68 58 68 135 Q68 153 71 176 L107 474 Q107 480 114 480 L132 480 Q137 480 137 474 L101 176 Q98 155 98 137 Q98 71 130.5 43.5 Q163 16 216 16 Q253 16 285 30.5 Q317 45 341 72 Q365 99 381 137 Q397 175 403 221 L433 474 L433 474 Z M425 572 Q428 565 421 565 L402 565 Q396 565 395 569 L319 715 L205 569 Q201 565 197 565 L180 565 Q171 565 176 572 L307 746 Q311 750 315 750 L330 750 Q336 750 337 746 L425 572 L425 572 Z " />
<glyph glyph-name="udieresis" unicode="&#xfc;" horiz-adv-x="522" d="M433 474 Q433 480 440 480 L458 480 Q463 480 463 474 L407 6 Q407 0 400 0 L384 0 Q379 0 379 6 L389 104 L389 107 Q361 50 314.5 20 Q268 -10 208 -10 Q146 -10 107 24 Q68 58 68 135 Q68 153 71 176 L107 474 Q107 480 114 480 L132 480 Q137 480 137 474 L101 176 Q98 155 98 137 Q98 71 130.5 43.5 Q163 16 216 16 Q253 16 285 30.5 Q317 45 341 72 Q365 99 381 137 Q397 175 403 221 L433 474 L433 474 Z M247 656 Q234 656 226.5 664.5 Q219 673 219 685 Q219 700 229 710.5 Q239 721 255 721 Q267 721 274 712.5 Q281 704 281 691 Q281 677 271.5 666.5 Q262 656 247 656 Z M377 656 Q364 656 356.5 664.5 Q349 673 349 685 Q349 700 359 710.5 Q369 721 385 721 Q397 721 404 712.5 Q411 704 411 691 Q411 677 401.5 666.5 Q392 656 377 656 Z " />
<glyph glyph-name="ugrave" unicode="&#xf9;" horiz-adv-x="522" d="M433 474 Q433 480 440 480 L458 480 Q463 480 463 474 L407 6 Q407 0 400 0 L384 0 Q379 0 379 6 L389 104 L389 107 Q361 50 314.5 20 Q268 -10 208 -10 Q146 -10 107 24 Q68 58 68 135 Q68 153 71 176 L107 474 Q107 480 114 480 L132 480 Q137 480 137 474 L101 176 Q98 155 98 137 Q98 71 130.5 43.5 Q163 16 216 16 Q253 16 285 30.5 Q317 45 341 72 Q365 99 381 137 Q397 175 403 221 L433 474 L433 474 Z M349 568 Q354 561 345 561 L331 561 Q326 561 324 564 L175 737 Q173 739 174 741.5 Q175 744 178 745 L207 753 Q211 754 215 750 L349 568 L349 568 Z " />
<glyph glyph-name="v" unicode="v" horiz-adv-x="465" d="M435 476 Q436 480 442 480 L461 480 Q468 480 465 473 L220 4 Q219 0 213 0 L192 0 Q187 0 186 5 L56 473 Q55 480 61 480 L80 480 Q85 480 86 475 L207 36 L435 476 L435 476 Z " />
<glyph glyph-name="w" unicode="w" horiz-adv-x="639" d="M608 475 Q609 480 615 480 L634 480 Q642 480 639 473 L448 5 Q447 0 441 0 L423 0 Q418 0 416 5 L343 440 L163 5 Q162 0 156 0 L139 0 Q134 0 132 5 L55 474 Q53 480 61 480 L78 480 Q83 480 85 475 L153 38 L332 475 Q333 480 339 480 L356 480 Q361 480 363 475 L436 41 L608 475 L608 475 Z " />
<glyph glyph-name="x" unicode="x" horiz-adv-x="425" d="M426 480 Q435 480 430 473 L234 248 L381 7 Q384 0 377 0 L351 0 Q346 0 344 4 L213 225 L22 3 Q20 0 15 0 L-10 0 Q-19 0 -14 7 L197 246 L58 473 Q54 480 62 480 L87 480 Q92 480 94 476 L218 269 L395 477 Q397 480 402 480 L426 480 L426 480 Z " />
<glyph glyph-name="y" unicode="y" horiz-adv-x="480" d="M457 476 Q458 480 464 480 L483 480 Q490 480 487 473 L184 -64 Q155 -115 123 -143.5 Q91 -172 49 -172 Q25 -172 8 -167 Q-9 -162 -22 -154 Q-25 -152 -25 -146 L-23 -127 Q-23 -124 -20.5 -123 Q-18 -122 -15 -124 Q-2 -134 14 -139.5 Q30 -145 52 -145 Q84 -145 108.5 -123.5 Q133 -102 156 -62 L195 7 L194 7 L54 473 Q53 480 59 480 L77 480 Q82 480 83 475 L213 40 L457 476 L457 476 Z " />
<glyph glyph-name="yacute" unicode="&#xfd;" horiz-adv-x="480" d="M457 476 Q458 480 464 480 L483 480 Q490 480 487 473 L184 -64 Q155 -115 123 -143.5 Q91 -172 49 -172 Q25 -172 8 -167 Q-9 -162 -22 -154 Q-25 -152 -25 -146 L-23 -127 Q-23 -124 -20.5 -123 Q-18 -122 -15 -124 Q-2 -134 14 -139.5 Q30 -145 52 -145 Q84 -145 108.5 -123.5 Q133 -102 156 -62 L195 7 L194 7 L54 473 Q53 480 59 480 L77 480 Q82 480 83 475 L213 40 L457 476 L457 476 Z M234 561 Q225 561 230 568 L364 750 Q368 754 372 753 L401 745 Q404 744 405 741.5 Q406 739 404 737 L255 564 Q253 561 248 561 L234 561 L234 561 Z " />
<glyph glyph-name="ydieresis" unicode="&#xff;" horiz-adv-x="480" d="M457 476 Q458 480 464 480 L483 480 Q490 480 487 473 L184 -64 Q155 -115 123 -143.5 Q91 -172 49 -172 Q25 -172 8 -167 Q-9 -162 -22 -154 Q-25 -152 -25 -146 L-23 -127 Q-23 -124 -20.5 -123 Q-18 -122 -15 -124 Q-2 -134 14 -139.5 Q30 -145 52 -145 Q84 -145 108.5 -123.5 Q133 -102 156 -62 L195 7 L194 7 L54 473 Q53 480 59 480 L77 480 Q82 480 83 475 L213 40 L457 476 L457 476 Z M216 656 Q203 656 195.5 664.5 Q188 673 188 685 Q188 700 198 710.5 Q208 721 224 721 Q236 721 243 712.5 Q250 704 250 691 Q250 677 240.5 666.5 Q231 656 216 656 Z M346 656 Q333 656 325.5 664.5 Q318 673 318 685 Q318 700 328 710.5 Q338 721 354 721 Q366 721 373 712.5 Q380 704 380 691 Q380 677 370.5 666.5 Q361 656 346 656 Z " />
<glyph glyph-name="z" unicode="z" horiz-adv-x="398" d="M-10 0 Q-15 0 -15 6 L-14 14 Q-14 16 -11 21 L359 453 L59 453 Q52 453 54 459 L56 474 Q56 480 63 480 L395 480 Q400 480 400 474 L399 467 Q399 464 396 460 L24 27 L339 27 Q345 27 344 21 L342 6 Q342 0 335 0 L-10 0 L-10 0 Z " />
<glyph glyph-name="zcaron" unicode="&#x17e;" horiz-adv-x="398" d="M-10 0 Q-15 0 -15 6 L-14 14 Q-14 16 -11 21 L359 453 L59 453 Q52 453 54 459 L56 474 Q56 480 63 480 L395 480 Q400 480 400 474 L399 467 Q399 464 396 460 L24 27 L339 27 Q345 27 344 21 L342 6 Q342 0 335 0 L-10 0 L-10 0 Z M342 744 Q344 747 349 747 L367 747 Q375 747 370 740 L242 576 Q238 572 234 572 L220 572 Q214 572 213 576 L123 740 Q120 747 127 747 L144 747 Q150 747 151 743 L231 606 L342 744 L342 744 Z " />
<glyph glyph-name="fi" unicode="&#xfb01;" horiz-adv-x="513" d="M296 733 Q254 733 226 709 Q198 685 191 628 L173 480 L325 480 Q332 480 331 474 L329 461 Q327 456 322 456 L170 456 L97 -156 Q97 -162 90 -162 L72 -162 Q67 -162 67 -156 L140 456 L56 456 Q48 456 50 462 L52 475 Q54 480 59 480 L143 480 L161 629 Q169 699 205 729.5 Q241 760 296 760 Q320 760 338.5 755 Q357 750 371 743 Q374 742 374 736 L371 718 Q369 711 365 714 Q340 733 296 733 Z M457 656 Q444 656 436.5 664 Q429 672 429 685 Q429 699 439 710.5 Q449 722 464 722 Q478 722 485 713 Q492 704 492 693 Q492 678 482 667 Q472 656 457 656 Z M369 0 Q364 0 364 6 L421 474 Q421 480 428 480 L446 480 Q451 480 451 474 L394 6 Q394 0 387 0 L369 0 Z " />
<glyph glyph-name="fl" unicode="&#xfb02;" horiz-adv-x="542" d="M296 733 Q254 733 226 709 Q198 685 191 628 L173 480 L325 480 Q332 480 331 474 L329 461 Q327 456 322 456 L170 456 L97 -156 Q97 -162 90 -162 L72 -162 Q67 -162 67 -156 L140 456 L56 456 Q48 456 50 462 L52 475 Q54 480 59 480 L143 480 L161 629 Q169 699 205 729.5 Q241 760 296 760 Q320 760 338.5 755 Q357 750 371 743 Q374 742 374 736 L371 718 Q369 711 365 714 Q340 733 296 733 Z M432 -10 Q361 -10 361 60 Q361 65 361 71.5 Q361 78 362 85 L443 744 Q443 750 450 750 L468 750 Q473 750 473 744 L392 86 Q391 81 391 77 Q391 73 391 69 Q391 41 404 29 Q417 17 441 17 Q454 17 468 20 Q482 23 495 30 Q504 35 502 26 L500 9 Q500 4 495 2 Q482 -3 465 -6.5 Q448 -10 432 -10 Z " />
<glyph glyph-name="ordfeminine" unicode="&#xaa;" horiz-adv-x="375" d="M200 438 Q176 438 154.5 446 Q133 454 116.5 469.5 Q100 485 90.5 508 Q81 531 81 560 Q81 597 93.5 627 Q106 657 127.5 677 Q149 697 176.5 708 Q204 719 234 719 Q271 719 299.5 702 Q328 685 341 652 L347 705 Q347 711 354 711 L369 711 Q374 711 374 705 L344 450 Q344 444 337 444 L322 444 Q317 444 317 450 L324 508 Q302 473 268.5 455.5 Q235 438 200 438 Z M237 695 Q212 695 189 686 Q166 677 148 660 Q130 643 119.5 618.5 Q109 594 109 563 Q109 513 139.5 487.5 Q170 462 209 462 Q231 462 253.5 471 Q276 480 294 496.5 Q312 513 323 537.5 Q334 562 334 594 Q334 642 305.5 668.5 Q277 695 237 695 Z M72 355 Q65 355 67 361 L68 370 Q68 376 75 376 L344 376 Q349 376 349 370 L348 361 Q348 355 342 355 L72 355 Z " />
<glyph glyph-name="ordmasculine" unicode="&#xba;" horiz-adv-x="369" d="M209 443 Q182 443 159 452 Q136 461 119 477.5 Q102 494 92 517 Q82 540 82 567 Q82 600 95.5 628 Q109 656 131 676.5 Q153 697 182 708.5 Q211 720 243 720 Q269 720 292 711 Q315 702 332 685.5 Q349 669 359 646.5 Q369 624 369 597 Q369 564 356 536 Q343 508 320.5 487.5 Q298 467 269 455 Q240 443 209 443 Z M212 468 Q237 468 260.5 477.5 Q284 487 302 504 Q320 521 331 544.5 Q342 568 342 596 Q342 641 312 668 Q282 695 240 695 Q214 695 190.5 685.5 Q167 676 149 659.5 Q131 643 120.5 619.5 Q110 596 110 569 Q110 524 140 496 Q170 468 212 468 Z M73 358 Q66 358 68 364 L69 373 Q69 379 76 379 L332 379 Q338 379 337 373 L336 364 Q336 358 329 358 L73 358 Z " />
<glyph glyph-name="Delta" unicode="&#x394;" horiz-adv-x="584" d="M-27 0 Q-33 0 -33 6 L-33 9 Q-33 11 -32 12.5 Q-31 14 -30 16 L339 711 Q340 715 346 715 L355 715 Q360 715 361 710 L558 17 Q559 15 559 13 Q559 11 559 9 L559 6 Q559 0 553 0 L-27 0 Z M525 28 L345 665 L6 28 L525 28 Z " />
<glyph glyph-name="Omega" unicode="&#x3a9;" horiz-adv-x="670" d="M45 0 Q40 0 40 6 L42 23 Q42 29 48 29 L245 29 L258 133 Q214 146 179 171.5 Q144 197 119.5 230.5 Q95 264 82 305.5 Q69 347 69 394 Q69 463 95 522.5 Q121 582 166 626 Q211 670 270 695 Q329 720 395 720 Q451 720 497.5 700.5 Q544 681 578 646 Q612 611 630.5 563.5 Q649 516 649 461 Q649 402 629.5 350 Q610 298 575 255.5 Q540 213 491.5 181.5 Q443 150 386 133 L373 29 L570 29 Q575 29 575 23 L573 6 Q573 0 567 0 L347 0 Q342 0 342 6 L358 139 Q358 143 364 145 Q416 161 462.5 190 Q509 219 543.5 258.5 Q578 298 598 348 Q618 398 618 458 Q618 509 601.5 551.5 Q585 594 555.5 625.5 Q526 657 484.5 674.5 Q443 692 392 692 Q331 692 277.5 669 Q224 646 184.5 606 Q145 566 122 511.5 Q99 457 99 394 Q99 347 112.5 307.5 Q126 268 151 236.5 Q176 205 209.5 182 Q243 159 284 146 Q288 145 288 139 L272 6 Q272 0 265 0 L45 0 L45 0 Z " />
<glyph glyph-name="mu" unicode="&#x3bc;" horiz-adv-x="522" d="M435 474 Q435 480 442 480 L460 480 Q465 480 465 474 L409 6 Q409 0 402 0 L386 0 Q381 0 381 6 L392 106 L391 110 Q364 50 318 20 Q272 -10 212 -10 Q166 -10 133.5 8.5 Q101 27 87 68 L57 -194 Q57 -200 50 -200 L32 -200 Q27 -200 27 -194 L63 88 L108 474 Q108 480 115 480 L133 480 Q138 480 138 474 L101 162 Q100 156 100 149.5 Q100 143 100 138 Q100 71 132 43.5 Q164 16 217 16 Q288 16 337 66 Q386 116 402 200 L435 474 L435 474 Z " />
<glyph glyph-name="pi" unicode="&#x3c0;" horiz-adv-x="490" d="M339 85 Q338 80 338 76 Q338 72 338 68 Q338 40 351 28.5 Q364 17 388 17 Q400 17 414.5 20 Q429 23 440 29 Q447 33 447 25 L445 9 Q445 3 441 2 Q428 -3 411.5 -6.5 Q395 -10 379 -10 Q345 -10 326 6.5 Q307 23 307 60 Q307 65 307.5 71 Q308 77 309 83 L354 452 L169 452 L114 6 Q114 0 107 0 L90 0 Q85 0 85 6 L139 452 L49 452 Q42 452 44 458 L46 474 Q46 480 53 480 L476 480 Q482 480 481 474 L479 458 Q479 452 472 452 L384 452 L339 85 Z " />
<glyph glyph-name="zero" unicode="0" horiz-adv-x="631" d="M288 -10 Q238 -10 198 10 Q158 30 129.5 68.5 Q101 107 85.5 163 Q70 219 70 290 Q70 383 94 462 Q118 541 159.5 598 Q201 655 256.5 687.5 Q312 720 374 720 Q425 720 465 698.5 Q505 677 532.5 637.5 Q560 598 574.5 542 Q589 486 589 417 Q589 324 565 245.5 Q541 167 500 110.5 Q459 54 404.5 22 Q350 -10 288 -10 Z M292 20 Q353 20 402 53 Q451 86 485.5 140.5 Q520 195 538.5 267 Q557 339 557 417 Q557 438 555.5 457.5 Q554 477 552 497 Q539 587 493 639 Q447 691 370 691 Q317 691 272 664.5 Q227 638 192.5 593.5 Q158 549 135.5 490 Q113 431 105 366 Q102 346 101 326.5 Q100 307 100 287 Q100 225 113.5 175.5 Q127 126 151.5 91.5 Q176 57 211.5 38.5 Q247 20 292 20 Z " />
<glyph glyph-name="one" unicode="1" horiz-adv-x="397" d="M281 708 Q285 710 289 710 L299 710 Q304 710 304 704 L218 6 Q218 0 211 0 L193 0 Q188 0 188 6 L270 674 L93 589 Q86 585 86 593 L88 610 Q88 614 92 617 L281 708 L281 708 Z " />
<glyph glyph-name="two" unicode="2" horiz-adv-x="534" d="M76 27 L460 27 Q465 27 465 21 L464 6 Q464 0 457 0 L24 0 Q16 0 21 7 L322 311 Q395 384 432.5 440.5 Q470 497 470 557 Q470 588 457.5 613 Q445 638 423 655.5 Q401 673 369.5 682.5 Q338 692 301 692 Q249 692 204.5 676.5 Q160 661 122 634 Q119 632 116.5 632.5 Q114 633 115 638 L117 657 Q117 660 121 664 Q156 689 204 704.5 Q252 720 306 720 Q349 720 385 708.5 Q421 697 447 676.5 Q473 656 487 626.5 Q501 597 501 561 Q501 526 490.5 494.5 Q480 463 460.5 432 Q441 401 413 369.5 Q385 338 349 302 L76 27 Z " />
<glyph glyph-name="three" unicode="3" horiz-adv-x="514" d="M276 378 Q318 374 352.5 359.5 Q387 345 411.5 323 Q436 301 449.5 272 Q463 243 463 209 Q463 165 443.5 125.5 Q424 86 389 56 Q354 26 305.5 8 Q257 -10 199 -10 Q144 -10 100 1 Q56 12 23 29 Q20 30 20 36 L22 56 Q22 64 30 60 Q63 42 104 30.5 Q145 19 202 19 Q251 19 293.5 34 Q336 49 366.5 75 Q397 101 414.5 135.5 Q432 170 432 209 Q432 276 371.5 319 Q311 362 196 362 L176 362 Q171 362 171 368 L172 384 Q172 390 179 390 L200 390 Q259 390 304.5 406 Q350 422 381 447 Q412 472 428 503 Q444 534 444 565 Q444 592 432.5 615 Q421 638 400 655 Q379 672 348 682 Q317 692 278 692 Q232 692 193.5 680 Q155 668 120 650 Q111 647 113 655 L115 674 Q115 679 120 681 Q155 698 196.5 709 Q238 720 282 720 Q328 720 363.5 708 Q399 696 423.5 676 Q448 656 461 628.5 Q474 601 474 570 Q474 539 460.5 507.5 Q447 476 421.5 449.5 Q396 423 359 404 Q322 385 276 378 Z " />
<glyph glyph-name="four" unicode="4" horiz-adv-x="554" d="M524 179 Q529 179 529 173 L528 157 Q528 151 521 151 L414 151 L396 6 Q396 0 389 0 L371 0 Q366 0 366 6 L383 151 L16 151 Q11 151 11 157 L12 168 Q12 170 15 175 L460 707 Q462 710 467 710 L477 710 Q482 710 482 704 L417 179 L524 179 Z M446 647 Q429 628 414 609 Q399 590 382 570 L50 179 L388 179 L434 556 L446 647 Z " />
<glyph glyph-name="five" unicode="5" horiz-adv-x="555" d="M516 687 Q516 681 509 681 L231 681 L139 417 Q168 431 203 437.5 Q238 444 275 444 Q323 444 362.5 430 Q402 416 431 390.5 Q460 365 476 329 Q492 293 492 248 Q492 191 468 143.5 Q444 96 403 62 Q362 28 307 9 Q252 -10 190 -10 Q149 -10 110 -1.5 Q71 7 42 24 Q38 25 38 31 L40 49 Q40 52 42.5 53 Q45 54 48 52 Q79 36 116.5 27 Q154 18 193 18 Q248 18 297 34.5 Q346 51 382.5 80.5 Q419 110 440 151.5 Q461 193 461 244 Q461 284 446.5 316 Q432 348 405.5 370.5 Q379 393 342.5 405.5 Q306 418 263 418 Q232 418 189.5 409.5 Q147 401 109 381 Q99 377 102 386 L211 705 Q212 710 218 710 L512 710 Q517 710 517 704 L516 687 L516 687 Z " />
<glyph glyph-name="six" unicode="6" horiz-adv-x="522" d="M447 710 Q455 710 450 703 L180 413 Q170 402 155.5 387.5 Q141 373 125 356 L124 355 Q167 394 205.5 409 Q244 424 286 424 Q330 424 366.5 410 Q403 396 429.5 370.5 Q456 345 470.5 310 Q485 275 485 232 Q485 179 463 134.5 Q441 90 405.5 58 Q370 26 324.5 8 Q279 -10 232 -10 Q189 -10 152.5 4 Q116 18 89.5 42.5 Q63 67 48 101.5 Q33 136 33 178 Q33 230 55 283 Q77 336 134 398 L420 707 Q422 710 427 710 L447 710 Z M280 398 Q236 398 196.5 381 Q157 364 127 334.5 Q97 305 79.5 266 Q62 227 62 182 Q62 147 74.5 117.5 Q87 88 110 65.5 Q133 43 164.5 30.5 Q196 18 235 18 Q278 18 317.5 34.5 Q357 51 388 79.5 Q419 108 437.5 146.5 Q456 185 456 229 Q456 267 443 298 Q430 329 407 351.5 Q384 374 351.5 386 Q319 398 280 398 Z " />
<glyph glyph-name="seven" unicode="7" horiz-adv-x="465" d="M99 704 Q99 710 106 710 L511 710 Q518 710 515 703 L65 4 Q61 0 57 0 L39 0 Q31 0 35 7 L469 680 L102 680 Q97 680 97 686 L99 704 L99 704 Z " />
<glyph glyph-name="eight" unicode="8" horiz-adv-x="598" d="M268 -8 Q224 -8 186.5 5 Q149 18 121.5 42 Q94 66 78.5 99 Q63 132 63 172 Q63 212 78.5 246.5 Q94 281 119.5 308 Q145 335 177.5 353 Q210 371 245 379 Q195 394 166.5 433 Q138 472 138 526 Q138 569 155.5 604.5 Q173 640 203 665.5 Q233 691 273 705.5 Q313 720 358 720 Q397 720 429.5 708.5 Q462 697 485.5 676.5 Q509 656 522 627 Q535 598 535 563 Q535 496 493.5 447 Q452 398 386 379 Q414 372 439.5 357 Q465 342 483.5 320 Q502 298 513 270.5 Q524 243 524 211 Q524 163 503.5 123 Q483 83 448 53.5 Q413 24 366.5 8 Q320 -8 268 -8 Z M318 392 Q360 392 394.5 405 Q429 418 454 441 Q479 464 493 494 Q507 524 507 559 Q507 589 495.5 613.5 Q484 638 463.5 656 Q443 674 415.5 683.5 Q388 693 355 693 Q317 693 283 681 Q249 669 223 647 Q197 625 181.5 594.5 Q166 564 166 528 Q166 469 206 430.5 Q246 392 318 392 Z M271 18 Q317 18 357.5 33 Q398 48 428.5 73.5 Q459 99 476.5 134 Q494 169 494 210 Q494 245 480 273.5 Q466 302 441.5 322.5 Q417 343 384 354 Q351 365 314 365 Q272 365 232 351 Q192 337 161 312.5 Q130 288 111 253.5 Q92 219 92 177 Q92 142 105.5 113 Q119 84 142.5 63 Q166 42 199 30 Q232 18 271 18 Z " />
<glyph glyph-name="nine" unicode="9" horiz-adv-x="522" d="M103 0 Q95 0 100 7 L370 297 Q380 308 394.5 322.5 Q409 337 425 354 L426 355 Q383 316 344.5 301 Q306 286 264 286 Q220 286 183.5 300 Q147 314 120.5 339.5 Q94 365 79.5 400 Q65 435 65 478 Q65 531 87 575.5 Q109 620 144.5 652 Q180 684 225.5 702 Q271 720 318 720 Q361 720 397.5 706 Q434 692 460.5 667.5 Q487 643 502 608.5 Q517 574 517 532 Q517 480 495 427 Q473 374 416 312 L130 3 Q128 0 123 0 L103 0 Z M270 312 Q314 312 353.5 329 Q393 346 423 375.5 Q453 405 470.5 444 Q488 483 488 528 Q488 562 475.5 592 Q463 622 440 644.5 Q417 667 385.5 679.5 Q354 692 315 692 Q272 692 232 675.5 Q192 659 161.5 630.5 Q131 602 112.5 563.5 Q94 525 94 481 Q94 443 107 412 Q120 381 143 358.5 Q166 336 198.5 324 Q231 312 270 312 Z " />
<glyph glyph-name="onesuperior" unicode="&#xb9;" horiz-adv-x="311" d="M247 843 Q249 844 251 844 Q253 844 255 844 L263 844 Q268 844 268 838 L218 426 Q218 420 211 420 L196 420 Q191 420 191 426 L239 814 L111 765 Q105 762 105 770 L106 783 Q106 788 111 790 L247 843 L247 843 Z " />
<glyph glyph-name="twosuperior" unicode="&#xb2;" horiz-adv-x="364" d="M95 444 L315 444 Q320 444 320 438 L319 426 Q319 420 313 420 L54 420 Q46 420 51 427 L227 609 Q246 629 262 646.5 Q278 664 290 681 Q302 698 308.5 715 Q315 732 315 751 Q315 783 289.5 804.5 Q264 826 218 826 Q189 826 161.5 817 Q134 808 111 794 Q108 792 105.5 793 Q103 794 104 799 L106 813 Q106 817 111 819 Q133 833 162.5 841.5 Q192 850 223 850 Q276 850 308.5 823.5 Q341 797 341 754 Q341 733 335 714.5 Q329 696 317.5 678.5 Q306 661 290 643.5 Q274 626 254 605 L95 444 Z " />
<glyph glyph-name="threesuperior" unicode="&#xb3;" horiz-adv-x="360" d="M221 646 Q273 640 302.5 612.5 Q332 585 332 544 Q332 518 320 494.5 Q308 471 286.5 453 Q265 435 235.5 424.5 Q206 414 171 414 Q138 414 111 420 Q84 426 64 436 Q58 437 60 443 L62 454 Q63 461 69 458 Q89 450 113.5 444 Q138 438 172 438 Q201 438 225.5 446.5 Q250 455 267.5 469.5 Q285 484 295 503 Q305 522 305 544 Q305 584 270 608.5 Q235 633 167 633 L155 633 Q150 633 150 639 L151 650 Q151 656 157 656 L169 656 Q203 656 229.5 664.5 Q256 673 273.5 687 Q291 701 300 718.5 Q309 736 309 754 Q309 786 284 806.5 Q259 827 214 827 Q187 827 164.5 821 Q142 815 122 804 Q113 801 115 809 L116 822 Q116 827 121 829 Q143 838 168 844 Q193 850 218 850 Q275 850 305 823.5 Q335 797 335 759 Q335 741 327.5 723 Q320 705 305 689.5 Q290 674 269 662.5 Q248 651 221 646 Z " />
<glyph glyph-name="fraction" unicode="&#x2044;" horiz-adv-x="117" d="M-213 -17 Q-217 -14 -214 -9 L335 720 Q338 725 343 722 L349 718 Q354 715 351 710 L-198 -19 Q-201 -24 -206 -21 L-213 -17 L-213 -17 Z " />
<glyph glyph-name="onehalf" unicode="&#xbd;" horiz-adv-x="795" d="M231 713 Q233 714 235 714 Q237 714 239 714 L247 714 Q252 714 252 708 L202 296 Q202 290 195 290 L180 290 Q175 290 175 296 L223 684 L95 635 Q89 632 89 640 L90 653 Q90 658 95 660 L231 713 L231 713 Z M101 -17 Q97 -14 100 -9 L649 720 Q652 725 657 722 L663 718 Q668 715 665 710 L116 -19 Q113 -24 108 -21 L101 -17 L101 -17 Z M495 24 L715 24 Q720 24 720 18 L719 6 Q719 0 713 0 L454 0 Q446 0 451 7 L627 189 Q646 209 662 226.5 Q678 244 690 261 Q702 278 708.5 295 Q715 312 715 331 Q715 363 689.5 384.5 Q664 406 618 406 Q589 406 561.5 397 Q534 388 511 374 Q508 372 505.5 373 Q503 374 504 379 L506 393 Q506 397 511 399 Q533 413 562.5 421.5 Q592 430 623 430 Q676 430 708.5 403.5 Q741 377 741 334 Q741 313 735 294.5 Q729 276 717.5 258.5 Q706 241 690 223.5 Q674 206 654 185 L495 24 Z " />
<glyph glyph-name="onequarter" unicode="&#xbc;" horiz-adv-x="724" d="M231 713 Q233 714 235 714 Q237 714 239 714 L247 714 Q252 714 252 708 L202 296 Q202 290 195 290 L180 290 Q175 290 175 296 L223 684 L95 635 Q89 632 89 640 L90 653 Q90 658 95 660 L231 713 L231 713 Z M101 -17 Q97 -14 100 -9 L649 720 Q652 725 657 722 L663 718 Q668 715 665 710 L116 -19 Q113 -24 108 -21 L101 -17 L101 -17 Z M680 110 Q685 110 685 104 L684 93 Q684 87 677 87 L621 87 L611 6 Q611 0 604 0 L589 0 Q584 0 584 6 L594 87 L393 87 Q386 87 388 93 L389 103 Q389 105 392 110 L637 420 Q640 424 645 424 L656 424 Q661 424 661 418 L623 110 L680 110 Z M598 110 L631 378 L418 110 L598 110 Z " />
<glyph glyph-name="threequarters" unicode="&#xbe;" horiz-adv-x="770" d="M205 516 Q257 510 286.5 482.5 Q316 455 316 414 Q316 388 304 364.5 Q292 341 270.5 323 Q249 305 219.5 294.5 Q190 284 155 284 Q122 284 95 290 Q68 296 48 306 Q42 307 44 313 L46 324 Q47 331 53 328 Q73 320 97.5 314 Q122 308 156 308 Q185 308 209.5 316.5 Q234 325 251.5 339.5 Q269 354 279 373 Q289 392 289 414 Q289 454 254 478.5 Q219 503 151 503 L139 503 Q134 503 134 509 L135 520 Q135 526 141 526 L153 526 Q187 526 213.5 534.5 Q240 543 257.5 557 Q275 571 284 588.5 Q293 606 293 624 Q293 656 268 676.5 Q243 697 198 697 Q171 697 148.5 691 Q126 685 106 674 Q97 671 99 679 L100 692 Q100 697 105 699 Q127 708 152 714 Q177 720 202 720 Q259 720 289 693.5 Q319 667 319 629 Q319 611 311.5 593 Q304 575 289 559.5 Q274 544 253 532.5 Q232 521 205 516 Z M147 -17 Q143 -14 146 -9 L695 720 Q698 725 703 722 L709 718 Q714 715 711 710 L162 -19 Q159 -24 154 -21 L147 -17 L147 -17 Z M726 110 Q731 110 731 104 L730 93 Q730 87 723 87 L667 87 L657 6 Q657 0 650 0 L635 0 Q630 0 630 6 L640 87 L439 87 Q432 87 434 93 L435 103 Q435 105 438 110 L683 420 Q686 424 691 424 L702 424 Q707 424 707 418 L669 110 L726 110 Z M644 110 L677 378 L464 110 L644 110 Z " />
<glyph glyph-name="oneeighth" unicode="&#x215b;" horiz-adv-x="769" d="M231 713 Q233 714 235 714 Q237 714 239 714 L247 714 Q252 714 252 708 L202 296 Q202 290 195 290 L180 290 Q175 290 175 296 L223 684 L95 635 Q89 632 89 640 L90 653 Q90 658 95 660 L231 713 L231 713 Z M101 -17 Q97 -14 100 -9 L649 720 Q652 725 657 722 L663 718 Q668 715 665 710 L116 -19 Q113 -24 108 -21 L101 -17 L101 -17 Z M570 -5 Q516 -5 480.5 24.5 Q445 54 445 104 Q445 128 454 148 Q463 168 478 183.5 Q493 199 512.5 210 Q532 221 553 226 Q524 236 507 259 Q490 282 490 314 Q490 339 500.5 360.5 Q511 382 529.5 397.5 Q548 413 572.5 421.5 Q597 430 625 430 Q672 430 702 404 Q732 378 732 336 Q732 296 707.5 266.5 Q683 237 645 226 Q679 218 702 191.5 Q725 165 725 127 Q725 98 712.5 73.5 Q700 49 679 31.5 Q658 14 629.5 4.5 Q601 -5 570 -5 Z M601 235 Q649 235 678.5 263 Q708 291 708 332 Q708 366 684 387.5 Q660 409 622 409 Q600 409 580.5 402 Q561 395 546 382 Q531 369 522.5 351.5 Q514 334 514 313 Q514 279 536.5 257 Q559 235 601 235 Z M574 17 Q599 17 622 25.5 Q645 34 662.5 48.5 Q680 63 690 83 Q700 103 700 126 Q700 145 692 161 Q684 177 670 189 Q656 201 637.5 208 Q619 215 598 215 Q574 215 551.5 206.5 Q529 198 511.5 184 Q494 170 483.5 150 Q473 130 473 108 Q473 68 501 42.5 Q529 17 574 17 Z " />
<glyph glyph-name="threeeighths" unicode="&#x215c;" horiz-adv-x="815" d="M205 516 Q257 510 286.5 482.5 Q316 455 316 414 Q316 388 304 364.5 Q292 341 270.5 323 Q249 305 219.5 294.5 Q190 284 155 284 Q122 284 95 290 Q68 296 48 306 Q42 307 44 313 L46 324 Q47 331 53 328 Q73 320 97.5 314 Q122 308 156 308 Q185 308 209.5 316.5 Q234 325 251.5 339.5 Q269 354 279 373 Q289 392 289 414 Q289 454 254 478.5 Q219 503 151 503 L139 503 Q134 503 134 509 L135 520 Q135 526 141 526 L153 526 Q187 526 213.5 534.5 Q240 543 257.5 557 Q275 571 284 588.5 Q293 606 293 624 Q293 656 268 676.5 Q243 697 198 697 Q171 697 148.5 691 Q126 685 106 674 Q97 671 99 679 L100 692 Q100 697 105 699 Q127 708 152 714 Q177 720 202 720 Q259 720 289 693.5 Q319 667 319 629 Q319 611 311.5 593 Q304 575 289 559.5 Q274 544 253 532.5 Q232 521 205 516 Z M147 -17 Q143 -14 146 -9 L695 720 Q698 725 703 722 L709 718 Q714 715 711 710 L162 -19 Q159 -24 154 -21 L147 -17 L147 -17 Z M616 -5 Q562 -5 526.5 24.5 Q491 54 491 104 Q491 128 500 148 Q509 168 524 183.5 Q539 199 558.5 210 Q578 221 599 226 Q570 236 553 259 Q536 282 536 314 Q536 339 546.5 360.5 Q557 382 575.5 397.5 Q594 413 618.5 421.5 Q643 430 671 430 Q718 430 748 404 Q778 378 778 336 Q778 296 753.5 266.5 Q729 237 691 226 Q725 218 748 191.5 Q771 165 771 127 Q771 98 758.5 73.5 Q746 49 725 31.5 Q704 14 675.5 4.5 Q647 -5 616 -5 Z M647 235 Q695 235 724.5 263 Q754 291 754 332 Q754 366 730 387.5 Q706 409 668 409 Q646 409 626.5 402 Q607 395 592 382 Q577 369 568.5 351.5 Q560 334 560 313 Q560 279 582.5 257 Q605 235 647 235 Z M620 17 Q645 17 668 25.5 Q691 34 708.5 48.5 Q726 63 736 83 Q746 103 746 126 Q746 145 738 161 Q730 177 716 189 Q702 201 683.5 208 Q665 215 644 215 Q620 215 597.5 206.5 Q575 198 557.5 184 Q540 170 529.5 150 Q519 130 519 108 Q519 68 547 42.5 Q575 17 620 17 Z " />
<glyph glyph-name="fiveeighths" unicode="&#x215d;" horiz-adv-x="816" d="M346 696 Q346 690 339 690 L186 690 L139 545 Q172 556 208 556 Q262 556 297.5 525 Q333 494 333 440 Q333 405 319 376.5 Q305 348 280.5 327.5 Q256 307 224 295.5 Q192 284 156 284 Q133 284 111 289 Q89 294 73 303 Q69 306 69 311 L70 322 Q70 330 78 326 Q114 307 156 307 Q187 307 214.5 316.5 Q242 326 262 343 Q282 360 294 384 Q306 408 306 437 Q306 482 275.5 508 Q245 534 195 534 Q178 534 156 529.5 Q134 525 113 515 Q109 513 107 514.5 Q105 516 107 520 L167 709 Q168 714 174 714 L342 714 Q347 714 347 708 L346 696 L346 696 Z M148 -17 Q144 -14 147 -9 L696 720 Q699 725 704 722 L710 718 Q715 715 712 710 L163 -19 Q160 -24 155 -21 L148 -17 L148 -17 Z M617 -5 Q563 -5 527.5 24.5 Q492 54 492 104 Q492 128 501 148 Q510 168 525 183.5 Q540 199 559.5 210 Q579 221 600 226 Q571 236 554 259 Q537 282 537 314 Q537 339 547.5 360.5 Q558 382 576.5 397.5 Q595 413 619.5 421.5 Q644 430 672 430 Q719 430 749 404 Q779 378 779 336 Q779 296 754.5 266.5 Q730 237 692 226 Q726 218 749 191.5 Q772 165 772 127 Q772 98 759.5 73.5 Q747 49 726 31.5 Q705 14 676.5 4.5 Q648 -5 617 -5 Z M648 235 Q696 235 725.5 263 Q755 291 755 332 Q755 366 731 387.5 Q707 409 669 409 Q647 409 627.5 402 Q608 395 593 382 Q578 369 569.5 351.5 Q561 334 561 313 Q561 279 583.5 257 Q606 235 648 235 Z M621 17 Q646 17 669 25.5 Q692 34 709.5 48.5 Q727 63 737 83 Q747 103 747 126 Q747 145 739 161 Q731 177 717 189 Q703 201 684.5 208 Q666 215 645 215 Q621 215 598.5 206.5 Q576 198 558.5 184 Q541 170 530.5 150 Q520 130 520 108 Q520 68 548 42.5 Q576 17 621 17 Z " />
<glyph glyph-name="seveneighths" unicode="&#x215e;" horiz-adv-x="726" d="M109 708 Q109 714 115 714 L361 714 Q368 714 365 707 L100 294 Q96 290 92 290 L77 290 Q69 290 73 297 L327 689 L113 689 Q108 689 108 695 L109 708 L109 708 Z M58 -17 Q54 -14 57 -9 L606 720 Q609 725 614 722 L620 718 Q625 715 622 710 L73 -19 Q70 -24 65 -21 L58 -17 L58 -17 Z M527 -5 Q473 -5 437.5 24.5 Q402 54 402 104 Q402 128 411 148 Q420 168 435 183.5 Q450 199 469.5 210 Q489 221 510 226 Q481 236 464 259 Q447 282 447 314 Q447 339 457.5 360.5 Q468 382 486.5 397.5 Q505 413 529.5 421.5 Q554 430 582 430 Q629 430 659 404 Q689 378 689 336 Q689 296 664.5 266.5 Q640 237 602 226 Q636 218 659 191.5 Q682 165 682 127 Q682 98 669.5 73.5 Q657 49 636 31.5 Q615 14 586.5 4.5 Q558 -5 527 -5 Z M558 235 Q606 235 635.5 263 Q665 291 665 332 Q665 366 641 387.5 Q617 409 579 409 Q557 409 537.5 402 Q518 395 503 382 Q488 369 479.5 351.5 Q471 334 471 313 Q471 279 493.5 257 Q516 235 558 235 Z M531 17 Q556 17 579 25.5 Q602 34 619.5 48.5 Q637 63 647 83 Q657 103 657 126 Q657 145 649 161 Q641 177 627 189 Q613 201 594.5 208 Q576 215 555 215 Q531 215 508.5 206.5 Q486 198 468.5 184 Q451 170 440.5 150 Q430 130 430 108 Q430 68 458 42.5 Q486 17 531 17 Z " />
<glyph glyph-name="asterisk" unicode="&#x2a;" horiz-adv-x="337" d="M112 416 Q109 413 105 413 Q101 415 99 417 L91 425 Q85 429 90 434 L126 476 L190 544 L115 565 L61 582 Q53 584 57 590 L65 609 Q68 615 75 612 L199 564 L206 652 L210 703 Q211 710 218 710 L235 710 Q242 710 241 703 L233 651 L218 563 L304 594 L352 612 Q354 613 359 613 Q361 614 363 608 L366 591 L366 588 Q366 584 360 582 L310 567 L222 544 L268 475 L294 435 Q299 429 292 425 L276 415 Q271 411 267 417 L242 461 L205 533 L146 458 L112 416 L112 416 Z " />
<glyph glyph-name="backslash" unicode="&#x5c;" horiz-adv-x="528" d="M477 -92 Q480 -99 472 -99 L459 -99 Q454 -99 452 -94 L72 751 Q69 758 77 758 L90 758 Q95 758 97 753 L477 -92 L477 -92 Z " />
<glyph glyph-name="periodcentered" unicode="&#xb7;" horiz-adv-x="264" d="M129 221 Q112 221 102 232.5 Q92 244 92 261 Q92 281 105.5 295 Q119 309 140 309 Q157 309 166.5 297.5 Q176 286 176 269 Q176 249 162.5 235 Q149 221 129 221 Z " />
<glyph glyph-name="bullet" unicode="&#x2022;" horiz-adv-x="305" d="M157 276 Q132 276 116.5 293.5 Q101 311 101 336 Q101 365 121 386.5 Q141 408 173 408 Q198 408 212.5 390.5 Q227 373 227 348 Q227 319 207 297.5 Q187 276 157 276 Z " />
<glyph glyph-name="colon" unicode="&#x3a;" horiz-adv-x="263" d="M140 308 Q123 308 113 319.5 Q103 331 103 348 Q103 368 116.5 382 Q130 396 151 396 Q168 396 177.5 384.5 Q187 373 187 356 Q187 336 173.5 322 Q160 308 140 308 Z M100 -9 Q83 -9 73 2.5 Q63 14 63 31 Q63 51 76.5 65 Q90 79 111 79 Q128 79 137.5 67.5 Q147 56 147 39 Q147 19 133.5 5 Q120 -9 100 -9 Z " />
<glyph glyph-name="comma" unicode="&#x2c;" horiz-adv-x="265" d="M111 81 Q128 81 138.5 71 Q149 61 149 43 Q149 27 140.5 9.5 Q132 -8 122 -26 L68 -126 Q67 -130 61 -130 L53 -130 Q45 -130 48 -123 L97 -7 Q83 -6 74 4 Q65 14 65 31 Q65 55 79.5 68 Q94 81 111 81 Z " />
<glyph glyph-name="ellipsis" unicode="&#x2026;" horiz-adv-x="617" d="M101 -7 Q84 -7 74 4.5 Q64 16 64 33 Q64 53 77.5 67 Q91 81 112 81 Q129 81 138.5 69.5 Q148 58 148 41 Q148 21 134.5 7 Q121 -7 101 -7 Z M277 -7 Q260 -7 250 4.5 Q240 16 240 33 Q240 53 253.5 67 Q267 81 288 81 Q305 81 314.5 69.5 Q324 58 324 41 Q324 21 310.5 7 Q297 -7 277 -7 Z M454 -7 Q437 -7 427 4.5 Q417 16 417 33 Q417 53 430.5 67 Q444 81 465 81 Q482 81 491.5 69.5 Q501 58 501 41 Q501 21 487.5 7 Q474 -7 454 -7 Z " />
<glyph glyph-name="exclam" unicode="&#x21;" horiz-adv-x="265" d="M114 159 Q109 159 109 165 L173 704 Q173 710 180 710 L199 710 Q204 710 204 704 L135 165 Q135 159 128 159 L114 159 Z M101 -7 Q84 -7 74 4.5 Q64 16 64 33 Q64 53 77.5 67 Q91 81 112 81 Q129 81 138.5 69.5 Q148 58 148 41 Q148 21 134.5 7 Q121 -7 101 -7 Z " />
<glyph glyph-name="exclamdown" unicode="&#xa1;" horiz-adv-x="265" d="M193 720 Q210 720 220 708.5 Q230 697 230 680 Q230 660 216.5 646 Q203 632 182 632 Q165 632 155.5 643.5 Q146 655 146 672 Q146 692 159.5 706 Q173 720 193 720 Z M180 554 Q185 554 185 548 L121 9 Q121 3 114 3 L95 3 Q90 3 90 9 L159 548 Q159 554 166 554 L180 554 Z " />
<glyph glyph-name="numbersign" unicode="&#x23;" horiz-adv-x="616" d="M595 492 Q595 486 589 486 L465 486 L416 252 L560 252 Q566 252 566 246 L566 233 Q566 227 560 227 L411 227 L364 5 Q362 0 358 0 L344 0 Q337 0 338 7 L385 227 L196 227 L149 5 Q147 0 143 0 L130 0 Q123 0 124 7 L171 227 L58 227 Q52 227 52 233 L52 246 Q52 252 58 252 L176 252 L226 486 L87 486 Q81 486 81 492 L81 505 Q81 511 87 511 L231 511 L272 705 Q274 710 278 710 L291 710 Q298 710 297 703 L256 511 L445 511 L486 705 Q488 710 492 710 L505 710 Q512 710 511 703 L470 511 L589 511 Q595 511 595 505 L595 492 Z M440 486 L251 486 L201 252 L390 252 L440 486 Z " />
<glyph glyph-name="period" unicode="&#x2e;" horiz-adv-x="264" d="M101 -7 Q84 -7 74 4.5 Q64 16 64 33 Q64 53 77.5 67 Q91 81 112 81 Q129 81 138.5 69.5 Q148 58 148 41 Q148 21 134.5 7 Q121 -7 101 -7 Z " />
<glyph glyph-name="question" unicode="&#x3f;" horiz-adv-x="482" d="M191 151 Q186 151 186 157 L203 314 Q203 320 207 321 Q247 341 285.5 363 Q324 385 354.5 412.5 Q385 440 403.5 474 Q422 508 422 553 Q422 585 410.5 610.5 Q399 636 378 654 Q357 672 328 682 Q299 692 265 692 Q217 692 175.5 678.5 Q134 665 98 645 Q95 643 92.5 644 Q90 645 91 649 L93 667 Q93 671 98 673 Q131 693 176.5 706.5 Q222 720 270 720 Q355 720 404 675.5 Q453 631 453 558 Q453 508 433.5 470 Q414 432 382.5 402 Q351 372 311 348.5 Q271 325 231 305 L209 157 Q209 151 202 151 L191 151 Z M181 -7 Q164 -7 154 4.5 Q144 16 144 33 Q144 53 157.5 67 Q171 81 192 81 Q209 81 218.5 69.5 Q228 58 228 41 Q228 21 214.5 7 Q201 -7 181 -7 Z " />
<glyph glyph-name="questiondown" unicode="&#xbf;" horiz-adv-x="482" d="M330 720 Q347 720 357 708.5 Q367 697 367 680 Q367 660 353.5 646 Q340 632 319 632 Q302 632 292.5 643.5 Q283 655 283 672 Q283 692 296.5 706 Q310 720 330 720 Z M320 562 Q325 562 325 556 L308 399 Q308 393 304 392 Q264 372 225.5 350 Q187 328 156.5 300.5 Q126 273 107.5 239 Q89 205 89 160 Q89 128 100.5 102.5 Q112 77 133 59 Q154 41 182.5 31 Q211 21 246 21 Q294 21 335.5 34.5 Q377 48 413 68 Q416 70 418.5 69 Q421 68 420 64 L418 46 Q418 42 413 40 Q380 20 334.5 6.5 Q289 -7 241 -7 Q156 -7 107 37.5 Q58 82 58 155 Q58 204 77.5 242.5 Q97 281 128.5 311 Q160 341 200 364.5 Q240 388 280 408 L302 556 Q302 562 309 562 L320 562 Z " />
<glyph glyph-name="quotedbl" unicode="&#x22;" horiz-adv-x="328" d="M136 511 Q131 511 131 517 L147 704 Q147 710 153 710 L174 710 Q181 710 180 704 L152 517 Q152 511 145 511 L136 511 Z M251 511 Q246 511 246 517 L262 704 Q262 710 268 710 L289 710 Q296 710 295 704 L267 517 Q267 511 260 511 L251 511 Z " />
<glyph glyph-name="quotesingle" unicode="&#x27;" horiz-adv-x="214" d="M136 511 Q131 511 131 517 L147 704 Q147 710 153 710 L174 710 Q181 710 180 704 L152 517 Q152 511 145 511 L136 511 L136 511 Z " />
<glyph glyph-name="semicolon" unicode="&#x3b;" horiz-adv-x="266" d="M154 396 Q171 396 180.5 384.5 Q190 373 190 356 Q190 336 176.5 322 Q163 308 143 308 Q126 308 116 319.5 Q106 331 106 348 Q106 368 119.5 382 Q133 396 154 396 Z M110 80 Q127 80 137.5 70 Q148 60 148 42 Q148 26 139.5 8.5 Q131 -9 121 -27 L68 -126 Q67 -130 61 -130 L53 -130 Q45 -130 48 -123 L97 -8 Q83 -7 74 3 Q65 13 65 30 Q65 54 79.5 67 Q94 80 110 80 Z " />
<glyph glyph-name="slash" unicode="&#x2f;" horiz-adv-x="317" d="M-29 -99 Q-37 -99 -34 -92 L346 753 Q348 758 353 758 L366 758 Q374 758 371 751 L-9 -94 Q-11 -99 -16 -99 L-29 -99 L-29 -99 Z " />
<glyph glyph-name="underscore" unicode="&#x5f;" horiz-adv-x="499" d="M25 -119 Q19 -119 19 -113 L21 -96 Q21 -90 27 -90 L392 -90 Q397 -90 397 -96 L395 -113 Q395 -119 389 -119 L25 -119 L25 -119 Z " />
<glyph glyph-name="braceleft" unicode="&#x7b;" horiz-adv-x="208" d="M190 715 Q217 715 232 711 Q237 709 237 704 L236 692 Q236 686 229 688 Q213 692 194 692 Q160 692 139.5 671.5 Q119 651 119 616 Q119 594 125 566 Q131 538 138.5 508 Q146 478 152 449 Q158 420 158 396 Q158 366 140.5 338 Q123 310 86 303 Q115 298 126.5 276.5 Q138 255 138 232 Q138 205 122.5 170 Q107 135 88.5 99 Q70 63 54.5 28.5 Q39 -6 39 -31 Q39 -57 54 -71.5 Q69 -86 98 -86 Q117 -86 133 -82 Q140 -80 139 -87 L138 -99 Q138 -103 132 -105 Q114 -110 88 -110 Q48 -110 29 -89 Q10 -68 10 -36 Q10 -6 25.5 29.5 Q41 65 60 101 Q79 137 94.5 171 Q110 205 110 231 Q110 252 98.5 269 Q87 286 53 289 Q47 291 48 296 L50 311 Q50 316 57 316 Q81 318 95.5 326 Q110 334 118 345.5 Q126 357 128.5 370.5 Q131 384 131 396 Q131 418 125 446 Q119 474 111.5 503.5 Q104 533 98 562 Q92 591 92 615 Q92 658 115.5 686.5 Q139 715 190 715 Z " />
<glyph glyph-name="braceright" unicode="&#x7d;" horiz-adv-x="208" d="M120 375 Q120 354 131.5 337 Q143 320 177 317 Q183 315 182 310 L180 295 Q180 290 173 290 Q149 288 135 279.5 Q121 271 113 259.5 Q105 248 102.5 235 Q100 222 100 210 Q100 188 106 160 Q112 132 119.5 102.5 Q127 73 133 44 Q139 15 139 -9 Q139 -52 114.5 -81 Q90 -110 40 -110 Q26 -110 16 -108.5 Q6 -107 -2 -105 Q-7 -105 -7 -98 L-6 -86 Q-6 -80 1 -82 Q17 -86 36 -86 Q71 -86 91 -66 Q111 -46 111 -11 Q111 11 105 39.5 Q99 68 91.5 98 Q84 128 78 156.5 Q72 185 72 209 Q72 240 89.5 268 Q107 296 144 303 Q116 308 104 329 Q92 350 92 374 Q92 401 107.5 436 Q123 471 141.5 507 Q160 543 175.5 577 Q191 611 191 637 Q191 662 176 677 Q161 692 133 692 Q113 692 97 688 Q90 686 91 693 L92 704 Q92 710 98 710 Q116 715 142 715 Q183 715 201 694.5 Q219 674 219 641 Q219 611 203.5 575.5 Q188 540 169.5 504 Q151 468 135.5 434.5 Q120 401 120 375 Z " />
<glyph glyph-name="bracketleft" unicode="&#x5b;" horiz-adv-x="308" d="M180 -100 Q180 -106 173 -106 L48 -106 Q43 -106 43 -100 L141 704 Q141 710 148 710 L265 710 Q270 710 270 704 L269 692 Q269 686 262 686 L167 686 L72 -81 L176 -81 Q181 -81 181 -87 L180 -100 L180 -100 Z " />
<glyph glyph-name="bracketright" unicode="&#x5d;" horiz-adv-x="307" d="M49 -106 Q44 -106 44 -100 L45 -87 Q45 -81 52 -81 L156 -81 L250 686 L155 686 Q150 686 150 692 L151 704 Q151 710 158 710 L274 710 Q279 710 279 704 L181 -100 Q181 -106 174 -106 L49 -106 L49 -106 Z " />
<glyph glyph-name="parenleft" unicode="&#x28;" horiz-adv-x="270" d="M182 -90 Q187 -97 179 -97 L165 -97 Q161 -97 158 -94 Q102 -30 73.5 57.5 Q45 145 45 238 Q45 254 46 270 Q47 286 49 302 Q55 357 72.5 413 Q90 469 117 521.5 Q144 574 179.5 621.5 Q215 669 258 707 Q261 710 265 710 L276 710 Q280 710 281 707.5 Q282 705 279 703 Q238 662 203.5 613 Q169 564 142.5 511.5 Q116 459 99.5 405 Q83 351 77 302 Q74 275 74 246 Q74 159 101.5 69 Q129 -21 182 -90 Z " />
<glyph glyph-name="parenright" unicode="&#x29;" horiz-adv-x="269" d="M10 -97 Q6 -97 5 -94.5 Q4 -92 7 -90 Q48 -49 82.5 0.5 Q117 50 143.5 102.5 Q170 155 186.5 208.5 Q203 262 209 311 Q212 338 212 368 Q212 455 184.5 544.5 Q157 634 104 703 Q99 710 107 710 L121 710 Q125 710 128 707 Q184 643 212.5 556 Q241 469 241 378 Q241 361 240 345 Q239 329 237 312 Q231 256 213.5 200.5 Q196 145 169 92.5 Q142 40 106.5 -7.5 Q71 -55 28 -94 Q25 -97 21 -97 L10 -97 L10 -97 Z " />
<glyph glyph-name="emdash" unicode="&#x2014;" horiz-adv-x="873" d="M69 244 Q63 244 63 250 L65 267 Q65 273 71 273 L810 273 Q815 273 815 267 L813 250 Q813 244 807 244 L69 244 L69 244 Z " />
<glyph glyph-name="endash" unicode="&#x2013;" horiz-adv-x="499" d="M69 244 Q63 244 63 250 L65 267 Q65 273 71 273 L436 273 Q441 273 441 267 L439 250 Q439 244 433 244 L69 244 L69 244 Z " />
<glyph glyph-name="hyphen" unicode="&#x2d;" horiz-adv-x="379" d="M69 244 Q63 244 63 250 L65 267 Q65 273 71 273 L315 273 Q321 273 321 267 L319 250 Q319 244 313 244 L69 244 L69 244 Z " />
<glyph glyph-name="softhyphen" unicode="&#xad;" horiz-adv-x="379" d="M69 244 Q63 244 63 250 L65 267 Q65 273 71 273 L315 273 Q321 273 321 267 L319 250 Q319 244 313 244 L69 244 L69 244 Z " />
<glyph glyph-name="guillemetleft" unicode="&#xab;" horiz-adv-x="500" d="M227 56 Q222 51 219 56 L78 242 Q75 247 79 251 L263 428 Q268 433 272 427 L280 417 Q283 412 279 408 L113 247 L239 76 Q242 72 238 68 L227 56 Z M389 56 Q384 51 381 56 L240 242 Q237 247 241 251 L425 428 Q430 433 434 427 L442 417 Q445 412 441 408 L275 247 L401 76 Q404 72 400 68 L389 56 Z " />
<glyph glyph-name="guillemetright" unicode="&#xbb;" horiz-adv-x="501" d="M112 428 Q117 433 120 428 L261 242 Q264 237 260 233 L76 56 Q71 51 67 57 L59 67 Q56 72 60 76 L226 237 L100 408 Q97 412 101 416 L112 428 Z M274 428 Q279 433 282 428 L423 242 Q426 237 422 233 L238 56 Q233 51 229 57 L221 67 Q218 72 222 76 L388 237 L262 408 Q259 412 263 416 L274 428 Z " />
<glyph glyph-name="guilsinglleft" unicode="&#x2039;" horiz-adv-x="338" d="M227 56 Q222 51 219 56 L78 242 Q75 247 79 251 L263 428 Q268 433 272 427 L280 417 Q283 412 279 408 L113 247 L239 76 Q242 72 238 68 L227 56 L227 56 Z " />
<glyph glyph-name="guilsinglright" unicode="&#x203a;" horiz-adv-x="340" d="M75 56 Q70 51 66 56 L58 67 Q55 72 59 76 L227 247 L101 408 Q98 413 101 416 L113 428 Q117 432 121 427 L261 251 Q264 246 261 243 L75 56 L75 56 Z " />
<glyph glyph-name="quotedblbase" unicode="&#x201e;" horiz-adv-x="390" d="M112 81 Q129 81 139.5 71 Q150 61 150 43 Q150 27 141.5 9.5 Q133 -8 123 -26 L69 -126 Q68 -130 62 -130 L54 -130 Q46 -130 49 -123 L98 -7 Q84 -6 75 4 Q66 14 66 31 Q66 55 80.5 68 Q95 81 112 81 Z M237 81 Q254 81 264.5 71 Q275 61 275 43 Q275 27 266.5 9.5 Q258 -8 248 -26 L194 -126 Q193 -130 187 -130 L179 -130 Q171 -130 174 -123 L223 -7 Q209 -6 200 4 Q191 14 191 31 Q191 55 205.5 68 Q220 81 237 81 Z " />
<glyph glyph-name="quotedblleft" unicode="&#x201c;" horiz-adv-x="390" d="M180 587 Q194 586 203 576 Q212 566 212 549 Q212 525 197.5 512 Q183 499 166 499 Q149 499 138.5 509 Q128 519 128 537 Q128 553 136.5 570.5 Q145 588 155 606 L209 706 Q210 710 216 710 L224 710 Q232 710 229 703 L180 587 L180 587 Z M305 587 Q319 586 328 576 Q337 566 337 549 Q337 525 322.5 512 Q308 499 291 499 Q274 499 263.5 509 Q253 519 253 537 Q253 553 261.5 570.5 Q270 588 280 606 L334 706 Q335 710 341 710 L349 710 Q357 710 354 703 L305 587 L305 587 Z " />
<glyph glyph-name="quotedblright" unicode="&#x201d;" horiz-adv-x="391" d="M191 720 Q208 720 218.5 710 Q229 700 229 682 Q229 666 220.5 648.5 Q212 631 202 613 L148 513 Q147 509 141 509 L133 509 Q125 509 128 516 L177 632 Q163 633 154 643 Q145 653 145 670 Q145 694 159.5 707 Q174 720 191 720 Z M316 720 Q333 720 343.5 710 Q354 700 354 682 Q354 666 345.5 648.5 Q337 631 327 613 L273 513 Q272 509 266 509 L258 509 Q250 509 253 516 L302 632 Q288 633 279 643 Q270 653 270 670 Q270 694 284.5 707 Q299 720 316 720 Z " />
<glyph glyph-name="quoteleft" unicode="&#x2018;" horiz-adv-x="265" d="M180 587 Q194 586 203 576 Q212 566 212 549 Q212 525 197.5 512 Q183 499 166 499 Q149 499 138.5 509 Q128 519 128 537 Q128 553 136.5 570.5 Q145 588 155 606 L209 706 Q210 710 216 710 L224 710 Q232 710 229 703 L180 587 L180 587 Z " />
<glyph glyph-name="quoteright" unicode="&#x2019;" horiz-adv-x="266" d="M190 720 Q207 720 217.5 710 Q228 700 228 682 Q228 666 219.5 648.5 Q211 631 201 613 L147 513 Q146 509 140 509 L132 509 Q124 509 127 516 L176 632 Q162 633 153 643 Q144 653 144 670 Q144 694 158.5 707 Q173 720 190 720 Z " />
<glyph glyph-name="quotesinglbase" unicode="&#x201a;" horiz-adv-x="265" d="M111 81 Q128 81 138.5 71 Q149 61 149 43 Q149 27 140.5 9.5 Q132 -8 122 -26 L68 -126 Q67 -130 61 -130 L53 -130 Q45 -130 48 -123 L97 -7 Q83 -6 74 4 Q65 14 65 31 Q65 55 79.5 68 Q94 81 111 81 Z " />
<glyph glyph-name="emspace" unicode="&#x2003;" horiz-adv-x="1000" d="" />
<glyph glyph-name="enspace" unicode="&#x2002;" horiz-adv-x="500" d="" />
<glyph glyph-name="fourperemspace" unicode="&#x2005;" horiz-adv-x="250" d="" />
<glyph glyph-name="hairspace" unicode="&#x200a;" horiz-adv-x="73" d="" />
<glyph glyph-name="Acircumflex" unicode="&#xc2;" horiz-adv-x="589" d="M535 0 Q530 0 529 5 L461 250 L130 250 Q98 187 66 126.5 Q34 66 1 4 Q0 0 -6 0 L-25 0 Q-32 0 -29 7 L344 711 Q345 715 351 715 L356 715 Q361 715 362 710 L561 7 Q562 0 556 0 L535 0 Z M453 278 Q427 375 400 470.5 Q373 566 347 661 Q296 566 246 470.5 Q196 375 145 278 L453 278 Z M490 763 Q495 756 486 756 L468 756 Q463 756 461 759 L379 860 L271 759 Q268 756 264 756 L247 756 Q239 756 244 763 L367 889 Q370 892 374 892 L390 892 Q394 892 398 888 L490 763 L490 763 Z " />
<glyph glyph-name="nbspace" unicode="&#xa0;" horiz-adv-x="218" d="" />
<glyph glyph-name="thinspace" unicode="&#x2009;" horiz-adv-x="109" d="" />
<glyph glyph-name="threeperemspace" unicode="&#x2004;" horiz-adv-x="594" d="" />
<glyph glyph-name="cent" unicode="&#xa2;" horiz-adv-x="478" d="M349 582 Q298 582 252 564 Q206 546 171.5 513.5 Q137 481 117 434.5 Q97 388 97 331 Q97 285 112 248.5 Q127 212 154 187 Q181 162 217.5 149 Q254 136 297 136 Q364 136 422 164 Q426 166 428 164 Q430 162 429 159 L427 140 Q427 135 422 133 Q393 122 360 115.5 Q327 109 290 109 L285 109 L260 -16 Q258 -21 254 -21 L241 -21 Q234 -21 235 -14 L261 111 Q219 115 183.5 132.5 Q148 150 122 178 Q96 206 81.5 244 Q67 282 67 329 Q67 387 87 436.5 Q107 486 142 523 Q177 560 224.5 582 Q272 604 328 608 L349 726 Q351 731 356 731 L368 731 Q376 731 374 724 L352 609 Q387 609 417 603 Q447 597 470 586 Q474 585 474 579 L472 559 Q472 550 465 554 Q416 582 349 582 Z " />
<glyph glyph-name="currency" unicode="&#xa4;" horiz-adv-x="618" d="M604 108 Q610 104 604 100 L594 91 Q589 88 586 91 L468 206 Q442 177 405.5 161.5 Q369 146 324 146 Q279 146 242.5 161.5 Q206 177 179 205 L63 91 Q60 88 55 91 L46 100 Q39 104 45 108 L163 224 Q143 252 131.5 286.5 Q120 321 120 362 Q120 444 162 500 L42 616 Q36 620 42 624 L52 633 Q57 636 60 633 L177 519 Q204 547 240.5 562.5 Q277 578 321 578 Q366 578 403 562.5 Q440 547 467 518 L583 633 Q586 636 591 633 L600 624 Q606 620 601 616 L482 499 Q502 472 513.5 437.5 Q525 403 525 362 Q525 281 484 225 L604 108 Z M324 171 Q363 171 395 185.5 Q427 200 450 225 Q473 250 486 284.5 Q499 319 499 360 Q499 401 486 436.5 Q473 472 449.5 497.5 Q426 523 393.5 537.5 Q361 552 321 552 Q282 552 250 537.5 Q218 523 194.5 497.5 Q171 472 158.5 437.5 Q146 403 146 362 Q146 321 159 286 Q172 251 195.5 225.5 Q219 200 252 185.5 Q285 171 324 171 Z " />
<glyph glyph-name="dollar" unicode="&#x24;" horiz-adv-x="585" d="M519 629 Q517 621 511 626 Q486 643 457 654.5 Q428 666 396 671 L327 383 Q365 370 396 355 Q427 340 448.5 320.5 Q470 301 482 276 Q494 251 494 218 Q494 170 475 131.5 Q456 93 422.5 65.5 Q389 38 343.5 23.5 Q298 9 245 9 L238 9 L205 -126 Q203 -131 199 -131 L186 -131 Q180 -131 181 -124 L213 10 Q170 15 131.5 28 Q93 41 67 60 Q64 62 64 68 L66 89 Q66 98 74 92 Q103 70 140.5 56 Q178 42 220 37 L298 361 Q270 371 241 382.5 Q212 394 188 412 Q164 430 149 456 Q134 482 134 520 Q134 560 151.5 593.5 Q169 627 199 651 Q229 675 269 688.5 Q309 702 355 702 Q361 702 367 702 Q373 702 379 701 L410 828 Q412 833 416 833 L428 833 Q434 833 433 826 L403 699 Q436 694 465 683 Q494 672 518 658 Q521 656 521 650 L519 629 Z M373 673 Q368 674 363.5 674 Q359 674 354 674 Q315 674 281 663 Q247 652 221.5 632.5 Q196 613 181 585.5 Q166 558 166 526 Q166 496 177.5 475 Q189 454 208 438.5 Q227 423 252 411.5 Q277 400 304 391 L373 673 Z M463 214 Q463 243 452.5 264 Q442 285 423 301 Q404 317 378 329.5 Q352 342 321 353 L244 36 L249 36 Q294 36 333 48 Q372 60 401 82.5 Q430 105 446.5 138.5 Q463 172 463 214 Z " />
<glyph glyph-name="euro" unicode="&#x20ac;" horiz-adv-x="585" d="M456 692 Q405 692 358 674 Q311 656 271.5 622.5 Q232 589 202.5 540.5 Q173 492 158 432 L518 432 Q524 432 524 426 L523 413 Q523 407 516 407 L152 407 Q147 384 144.5 360.5 Q142 337 142 312 L504 312 Q509 312 509 306 L508 292 Q508 286 501 286 L142 286 Q145 224 163 174 Q181 124 211.5 89.5 Q242 55 283 36.5 Q324 18 373 18 Q413 18 448 26.5 Q483 35 512 49 Q521 51 519 44 L517 26 Q517 21 512 19 Q481 7 444.5 -2 Q408 -11 367 -11 Q313 -11 267.5 10 Q222 31 188 69.5 Q154 108 134.5 163 Q115 218 112 286 L49 286 Q44 286 44 292 L45 306 Q45 312 52 312 L112 312 Q112 337 114.5 360.5 Q117 384 122 407 L63 407 Q58 407 58 413 L59 426 Q59 432 66 432 L127 432 Q144 499 176.5 552 Q209 605 253 642.5 Q297 680 349.5 700 Q402 720 458 720 Q495 720 527 711 Q559 702 584 690 Q589 689 589 683 L587 664 Q587 656 581 660 Q557 673 525.5 682.5 Q494 692 456 692 Z " />
<glyph glyph-name="florin" unicode="&#x192;" horiz-adv-x="363" d="M341 733 Q264 733 236 619 L203 480 L353 480 Q359 480 359 474 L358 461 Q358 455 351 455 L197 455 L81 -33 Q64 -104 33 -138 Q2 -172 -51 -172 Q-74 -172 -92.5 -168.5 Q-111 -165 -124 -160 Q-129 -159 -129 -153 L-128 -136 Q-128 -128 -120 -132 Q-92 -145 -52 -145 Q25 -145 52 -31 L168 455 L69 455 Q63 455 63 461 L64 474 Q64 480 70 480 L173 480 L207 621 Q224 692 255 726 Q286 760 339 760 Q363 760 383 755 Q403 750 417 743 Q421 742 421 736 L420 718 Q420 710 414 714 Q385 733 341 733 Z " />
<glyph glyph-name="sterling" unicode="&#xa3;" horiz-adv-x="585" d="M464 693 Q395 693 353.5 650.5 Q312 608 293 536 L255 386 L479 386 Q486 386 485 380 L483 366 Q481 361 476 361 L248 361 L162 26 L478 26 Q485 26 484 20 L482 6 Q482 0 475 0 L70 0 Q62 0 64 6 L66 20 Q66 26 73 26 L132 26 L217 361 L138 361 Q130 361 132 367 L134 381 Q136 386 141 386 L224 386 L262 536 Q284 621 333.5 670.5 Q383 720 465 720 Q501 720 532.5 711 Q564 702 585 688 Q589 685 589 680 L588 663 Q588 655 582 658 Q559 675 529 684 Q499 693 464 693 Z " />
<glyph glyph-name="yen" unicode="&#xa5;" horiz-adv-x="546" d="M575 710 Q584 710 579 703 L307 326 L456 326 Q461 326 461 320 L460 307 Q460 301 453 301 L294 301 L258 6 Q258 0 251 0 L232 0 Q227 0 227 6 L263 301 L108 301 Q100 301 102 307 L104 321 Q106 326 111 326 L256 326 L76 703 Q73 710 81 710 L102 710 Q108 710 109 706 L283 339 L546 706 Q550 710 554 710 L575 710 L575 710 Z " />
<glyph glyph-name="plus" unicode="&#x2b;" horiz-adv-x="542" d="M496 308 Q502 308 502 302 L502 286 Q502 280 496 280 L285 280 L285 58 Q285 52 279 52 L263 52 Q257 52 257 58 L257 280 L46 280 Q40 280 40 286 L40 302 Q40 308 46 308 L257 308 L257 529 Q257 535 263 535 L279 535 Q285 535 285 529 L285 308 L496 308 L496 308 Z " />
<glyph glyph-name="minus" unicode="&#x2212;" horiz-adv-x="542" d="M46 280 Q40 280 40 286 L40 302 Q40 308 46 308 L496 308 Q502 308 502 302 L502 286 Q502 280 496 280 L46 280 L46 280 Z " />
<glyph glyph-name="multiply" unicode="&#xd7;" horiz-adv-x="542" d="M487 494 Q491 490 487 486 L290 289 L487 92 Q490 89 487 84 L476 71 Q472 66 468 70 L271 268 L74 71 Q70 67 66 71 L54 83 Q50 87 54 91 L251 288 L55 485 Q52 488 55 493 L65 505 Q69 510 73 506 L271 308 L468 505 Q472 509 476 505 L487 494 L487 494 Z " />
<glyph glyph-name="divide" unicode="&#xf7;" horiz-adv-x="542" d="M242 450 Q225 450 215 461.5 Q205 473 205 490 Q205 510 218.5 523.5 Q232 537 253 537 Q269 537 278.5 526 Q288 515 288 498 Q288 478 275 464 Q262 450 242 450 Z M46 280 Q40 280 40 286 L40 302 Q40 308 46 308 L496 308 Q502 308 502 302 L502 286 Q502 280 496 280 L46 280 Z M242 49 Q225 49 215 60.5 Q205 72 205 89 Q205 109 218.5 122.5 Q232 136 253 136 Q269 136 278.5 125 Q288 114 288 97 Q288 77 275 63 Q262 49 242 49 Z " />
<glyph glyph-name="equal" unicode="&#x3d;" horiz-adv-x="542" d="M46 371 Q40 371 40 377 L40 393 Q40 399 46 399 L496 399 Q502 399 502 393 L502 377 Q502 371 496 371 L46 371 Z M46 180 Q40 180 40 186 L40 202 Q40 208 46 208 L496 208 Q502 208 502 202 L502 186 Q502 180 496 180 L46 180 Z " />
<glyph glyph-name="notequal" unicode="&#x2260;" horiz-adv-x="542" d="M502 377 Q502 371 496 371 L305 371 L232 208 L496 208 Q502 208 502 202 L502 186 Q502 180 496 180 L220 180 L165 57 Q163 52 158 52 L146 52 Q138 52 141 59 L195 180 L46 180 Q40 180 40 186 L40 202 Q40 208 46 208 L207 208 L280 371 L46 371 Q40 371 40 377 L40 393 Q40 399 46 399 L292 399 L351 530 Q353 535 358 535 L370 535 Q378 535 375 528 L317 399 L496 399 Q502 399 502 393 L502 377 L502 377 Z " />
<glyph glyph-name="greater" unicode="&#x3e;" horiz-adv-x="542" d="M61 3 Q54 -1 54 7 L54 28 Q54 34 58 35 L473 246 L58 457 Q54 458 54 464 L54 485 Q54 492 61 489 L513 257 Q517 256 517 250 L517 242 Q517 236 513 235 L61 3 L61 3 Z " />
<glyph glyph-name="less" unicode="&#x3c;" horiz-adv-x="542" d="M502 7 Q502 -1 495 3 L43 235 Q39 236 39 242 L39 250 Q39 256 43 257 L495 489 Q502 492 502 485 L502 464 Q502 458 498 457 L83 246 L498 35 Q502 34 502 28 L502 7 L502 7 Z " />
<glyph glyph-name="greaterequal" unicode="&#x2265;" horiz-adv-x="542" d="M43 80 Q36 76 36 84 L36 105 Q36 111 40 112 L455 323 L40 534 Q36 535 36 541 L36 562 Q36 569 43 566 L495 334 Q499 333 499 327 L499 319 Q499 313 495 312 L43 80 Z M46 3 Q40 3 40 9 L40 25 Q40 31 46 31 L496 31 Q502 31 502 25 L502 9 Q502 3 496 3 L46 3 Z " />
<glyph glyph-name="lessequal" unicode="&#x2264;" horiz-adv-x="542" d="M506 84 Q506 76 499 80 L47 312 Q43 313 43 319 L43 327 Q43 333 47 334 L499 566 Q506 569 506 562 L506 541 Q506 535 502 534 L87 323 L502 112 Q506 111 506 105 L506 84 Z M502 9 Q502 3 496 3 L46 3 Q40 3 40 9 L40 25 Q40 31 46 31 L496 31 Q502 31 502 25 L502 9 Z " />
<glyph glyph-name="plusminus" unicode="&#xb1;" horiz-adv-x="542" d="M245 139 Q239 139 239 145 L239 297 L56 297 Q50 297 50 303 L50 319 Q50 325 56 325 L239 325 L239 478 Q239 484 245 484 L260 484 Q266 484 266 478 L266 325 L449 325 Q455 325 455 319 L455 303 Q455 297 449 297 L266 297 L266 145 Q266 139 260 139 L245 139 Z M40 98 Q40 104 46 104 L496 104 Q502 104 502 98 L502 82 Q502 76 496 76 L46 76 Q40 76 40 82 L40 98 Z " />
<glyph glyph-name="approxequal" unicode="&#x2248;" horiz-adv-x="600" d="M350 334 Q314 334 292 351.5 Q270 369 251 390 Q233 410 213 426.5 Q193 443 160 443 Q122 443 101.5 413.5 Q81 384 78 338 Q78 332 72 332 L58 332 Q52 332 52 338 Q54 395 82 433.5 Q110 472 159 472 Q199 472 223 453.5 Q247 435 267 413 Q284 393 303 378 Q322 363 351 363 Q386 363 405.5 390.5 Q425 418 427 460 Q427 466 433 466 L447 466 Q453 466 453 459 Q451 405 424 369.5 Q397 334 350 334 Z M350 153 Q314 153 292 170.5 Q270 188 251 209 Q233 229 213 245.5 Q193 262 160 262 Q122 262 101.5 232.5 Q81 203 78 157 Q78 151 72 151 L58 151 Q52 151 52 157 Q54 214 82 252.5 Q110 291 159 291 Q199 291 223 272.5 Q247 254 267 232 Q284 212 303 197 Q322 182 351 182 Q386 182 405.5 209.5 Q425 237 427 279 Q427 285 433 285 L447 285 Q453 285 453 278 Q451 224 424 188.5 Q397 153 350 153 Z " />
<glyph glyph-name="asciitilde" unicode="&#x7e;" horiz-adv-x="542" d="M350 240 Q314 240 292 257.5 Q270 275 251 296 Q233 316 213 332.5 Q193 349 160 349 Q122 349 101.5 319.5 Q81 290 78 244 Q78 238 72 238 L58 238 Q52 238 52 244 Q54 301 82 339.5 Q110 378 159 378 Q199 378 223 359.5 Q247 341 267 319 Q284 299 303 284 Q322 269 351 269 Q386 269 405.5 296.5 Q425 324 427 366 Q427 372 433 372 L447 372 Q453 372 453 365 Q451 311 424 275.5 Q397 240 350 240 Z " />
<glyph glyph-name="logicalnot" unicode="&#xac;" horiz-adv-x="542" d="M449 335 Q455 335 455 329 L455 145 Q455 139 449 139 L433 139 Q427 139 427 145 L427 307 L56 307 Q50 307 50 313 L50 329 Q50 335 56 335 L449 335 L449 335 Z " />
<glyph glyph-name="infinity" unicode="&#x221e;" horiz-adv-x="836" d="M639 471 Q672 471 699.5 458.5 Q727 446 747.5 423.5 Q768 401 779.5 368.5 Q791 336 791 296 Q791 255 779.5 223 Q768 191 748 168.5 Q728 146 700.5 134 Q673 122 641 122 Q604 122 573 136.5 Q542 151 515.5 173 Q489 195 467 222 Q445 249 427 274 Q407 246 384.5 219 Q362 192 336.5 170.5 Q311 149 282 135.5 Q253 122 220 122 Q187 122 159 135 Q131 148 110 170.5 Q89 193 77 224 Q65 255 65 292 Q65 329 77.5 361.5 Q90 394 111.5 418.5 Q133 443 162 457 Q191 471 224 471 Q257 471 286 457 Q315 443 339.5 421 Q364 399 385.5 371.5 Q407 344 427 317 Q445 343 466.5 370 Q488 397 514 419.5 Q540 442 571 456.5 Q602 471 639 471 Z M222 148 Q250 148 276 161 Q302 174 325.5 195 Q349 216 370 242 Q391 268 411 295 Q391 322 370.5 348.5 Q350 375 326.5 396.5 Q303 418 277.5 431 Q252 444 223 444 Q196 444 172.5 432 Q149 420 131 400 Q113 380 102.5 353 Q92 326 92 295 Q92 265 102.5 238 Q113 211 130.5 191 Q148 171 171.5 159.5 Q195 148 222 148 Z M643 148 Q695 148 729.5 185 Q764 222 764 291 Q764 326 754.5 354 Q745 382 728 402 Q711 422 688 433 Q665 444 638 444 Q606 444 578.5 430 Q551 416 526.5 394.5 Q502 373 481.5 347 Q461 321 443 296 Q463 269 484.5 242.5 Q506 216 531 195 Q556 174 583.5 161 Q611 148 643 148 Z " />
<glyph glyph-name="integral" unicode="&#x222b;" horiz-adv-x="324" d="M-53 -209 Q-76 -209 -94.5 -206 Q-113 -203 -126 -198 Q-131 -197 -131 -191 L-131 -173 Q-131 -166 -124 -169 Q-96 -182 -56 -182 Q21 -182 42 -69 L172 621 Q186 692 215.5 726 Q245 760 298 760 Q322 760 342 755 Q362 750 376 743 Q380 742 380 736 L380 719 Q380 710 373 715 Q344 733 301 733 Q223 733 202 619 L72 -70 Q58 -141 29 -175 Q0 -209 -53 -209 Z " />
<glyph glyph-name="product" unicode="&#x220f;" horiz-adv-x="581" d="M581 710 Q587 710 587 704 L587 687 Q587 681 581 681 L473 681 L473 -114 Q473 -120 467 -120 L448 -120 Q442 -120 442 -114 L442 681 L194 681 L194 -114 Q194 -120 188 -120 L170 -120 Q164 -120 164 -114 L164 681 L70 681 Q64 681 64 687 L64 704 Q64 710 70 710 L581 710 L581 710 Z " />
<glyph glyph-name="summation" unicode="&#x2211;" horiz-adv-x="533" d="M461 710 Q467 710 467 704 L467 689 Q467 683 461 683 L104 683 L405 308 Q408 304 405 300 L103 -94 L461 -94 Q467 -94 467 -100 L467 -115 Q467 -121 461 -121 L72 -121 Q66 -121 66 -115 L66 -103 Q66 -101 69 -96 L375 304 L69 686 Q66 690 66 693 L66 704 Q66 710 72 710 L461 710 L461 710 Z " />
<glyph glyph-name="radical" unicode="&#x221a;" horiz-adv-x="507" d="M464 705 Q465 710 471 710 L489 710 Q495 710 494 703 L234 -125 Q233 -130 227 -130 L217 -130 Q211 -130 210 -125 L29 327 Q26 334 33 334 L50 334 Q56 334 57 329 L221 -87 L464 705 L464 705 Z " />
<glyph glyph-name="micro" unicode="&#xb5;" horiz-adv-x="522" d="M435 474 Q435 480 442 480 L460 480 Q465 480 465 474 L409 6 Q409 0 402 0 L386 0 Q381 0 381 6 L392 106 L391 110 Q364 50 318 20 Q272 -10 212 -10 Q166 -10 133.5 8.5 Q101 27 87 68 L57 -194 Q57 -200 50 -200 L32 -200 Q27 -200 27 -194 L63 88 L108 474 Q108 480 115 480 L133 480 Q138 480 138 474 L101 162 Q100 156 100 149.5 Q100 143 100 138 Q100 71 132 43.5 Q164 16 217 16 Q288 16 337 66 Q386 116 402 200 L435 474 L435 474 Z " />
<glyph glyph-name="partialdiff" unicode="&#x2202;" horiz-adv-x="500" d="M255 719 Q355 719 412.5 642 Q470 565 470 426 Q470 344 452.5 265.5 Q435 187 401.5 126 Q368 65 318 27.5 Q268 -10 203 -10 Q169 -10 139.5 3.5 Q110 17 88.5 42.5 Q67 68 54.5 104.5 Q42 141 42 187 Q42 241 60.5 288.5 Q79 336 111.5 371.5 Q144 407 188.5 427 Q233 447 284 447 Q327 447 370 434 Q413 421 441 395 L441 421 Q441 483 428.5 533 Q416 583 392 618.5 Q368 654 332.5 673.5 Q297 693 251 693 Q225 693 194.5 687 Q164 681 140 670 Q136 668 134 670 Q132 672 133 675 L135 691 Q135 696 140 698 Q191 719 255 719 Z M207 17 Q259 17 300 47 Q341 77 370.5 126.5 Q400 176 417 239 Q434 302 439 368 Q426 380 407.5 389.5 Q389 399 368.5 406 Q348 413 326 416.5 Q304 420 283 420 Q238 420 199 402 Q160 384 131.5 353 Q103 322 87 280.5 Q71 239 71 191 Q71 152 81.5 119.5 Q92 87 110 64.5 Q128 42 153 29.5 Q178 17 207 17 Z " />
<glyph glyph-name="percent" unicode="&#x25;" horiz-adv-x="636" d="M46 -17 Q42 -14 45 -9 L594 720 Q597 725 602 722 L608 718 Q613 715 610 710 L61 -19 Q58 -24 53 -21 L46 -17 Z M195 432 Q154 432 127.5 465.5 Q101 499 101 554 Q101 591 111.5 622 Q122 653 140 674.5 Q158 696 181.5 708 Q205 720 230 720 Q270 720 296 687.5 Q322 655 322 598 Q322 561 311.5 530.5 Q301 500 283.5 478 Q266 456 243 444 Q220 432 195 432 Z M197 455 Q217 455 235.5 465 Q254 475 268 494 Q282 513 290.5 539 Q299 565 299 598 Q299 646 278.5 671.5 Q258 697 227 697 Q207 697 188.5 687.5 Q170 678 156 659.5 Q142 641 133.5 614.5 Q125 588 125 555 Q125 508 145.5 481.5 Q166 455 197 455 Z M438 -10 Q397 -10 370.5 23.5 Q344 57 344 112 Q344 149 355 180 Q366 211 384 232.5 Q402 254 425.5 266 Q449 278 474 278 Q513 278 539.5 245.5 Q566 213 566 156 Q566 119 555 88.5 Q544 58 526 36 Q508 14 485 2 Q462 -10 438 -10 Z M441 13 Q460 13 478.5 23 Q497 33 511 52 Q525 71 533.5 97 Q542 123 542 156 Q542 204 522 229.5 Q502 255 470 255 Q450 255 431.5 245.5 Q413 236 399 217.5 Q385 199 376.5 172.5 Q368 146 368 113 Q368 66 388.5 39.5 Q409 13 441 13 Z " />
<glyph glyph-name="perthousand" unicode="&#x2030;" horiz-adv-x="905" d="M46 -17 Q42 -14 45 -9 L594 720 Q597 725 602 722 L608 718 Q613 715 610 710 L61 -19 Q58 -24 53 -21 L46 -17 Z M195 432 Q154 432 127.5 465.5 Q101 499 101 554 Q101 591 111.5 622 Q122 653 140 674.5 Q158 696 181.5 708 Q205 720 230 720 Q270 720 296 687.5 Q322 655 322 598 Q322 561 311.5 530.5 Q301 500 283.5 478 Q266 456 243 444 Q220 432 195 432 Z M197 455 Q217 455 235.5 465 Q254 475 268 494 Q282 513 290.5 539 Q299 565 299 598 Q299 646 278.5 671.5 Q258 697 227 697 Q207 697 188.5 687.5 Q170 678 156 659.5 Q142 641 133.5 614.5 Q125 588 125 555 Q125 508 145.5 481.5 Q166 455 197 455 Z M438 -10 Q397 -10 370.5 23.5 Q344 57 344 112 Q344 149 355 180 Q366 211 384 232.5 Q402 254 425.5 266 Q449 278 474 278 Q513 278 539.5 245.5 Q566 213 566 156 Q566 119 555 88.5 Q544 58 526 36 Q508 14 485 2 Q462 -10 438 -10 Z M707 -10 Q666 -10 639.5 23.5 Q613 57 613 112 Q613 149 624 180 Q635 211 653 232.5 Q671 254 694.5 266 Q718 278 743 278 Q782 278 808.5 245.5 Q835 213 835 156 Q835 119 824.5 88.5 Q814 58 796 36 Q778 14 755 2 Q732 -10 707 -10 Z M441 13 Q460 13 478.5 23 Q497 33 511 52 Q525 71 533.5 97 Q542 123 542 156 Q542 204 522 229.5 Q502 255 470 255 Q450 255 431.5 245.5 Q413 236 399 217.5 Q385 199 376.5 172.5 Q368 146 368 113 Q368 66 388.5 39.5 Q409 13 441 13 Z M710 13 Q729 13 747.5 23 Q766 33 780 52 Q794 71 802.5 97 Q811 123 811 156 Q811 204 791 229.5 Q771 255 739 255 Q719 255 700.5 245.5 Q682 236 668 217.5 Q654 199 645.5 172.5 Q637 146 637 113 Q637 66 657.5 39.5 Q678 13 710 13 Z " />
<glyph glyph-name="lozenge" unicode="&#x25ca;" horiz-adv-x="542" d="M271 -56 Q265 -56 264 -52 L46 340 Q45 344 46 348 L264 740 Q265 744 271 744 L279 744 Q285 744 286 740 L496 348 Q497 344 496 340 L286 -52 Q285 -56 279 -56 L271 -56 Z M471 344 L275 708 L71 344 L275 -21 L471 344 Z " />
<glyph glyph-name="apple" unicode="&#xf8ff;" horiz-adv-x="999" d="M499 -140 Q430 -140 366.5 -122 Q303 -104 247.5 -71.5 Q192 -39 146.5 6.5 Q101 52 68.5 107.5 Q36 163 18 227 Q0 291 0 360 Q0 463 39.5 554 Q79 645 146.5 712.5 Q214 780 305 819.5 Q396 859 499 859 Q602 859 693 819.5 Q784 780 852 712.5 Q920 645 959.5 554 Q999 463 999 360 Q999 256 959.5 165 Q920 74 852 6.5 Q784 -61 693 -100.5 Q602 -140 499 -140 Z M499 109 Q585 109 671.5 112 Q758 115 840 124 Q864 126 876.5 134.5 Q889 143 892 168 Q896 216 896.5 263.5 Q897 311 897 360 Q897 408 896.5 455.5 Q896 503 892 551 Q889 576 876.5 584.5 Q864 593 840 595 Q758 604 671.5 607 Q585 610 499 610 Q413 610 326.5 607 Q240 604 157 595 Q134 593 121.5 584.5 Q109 576 106 551 Q101 503 100.5 455.5 Q100 408 100 360 Q100 311 100.5 263.5 Q101 216 106 168 Q109 143 121.5 134.5 Q134 126 157 124 Q240 115 326.5 112 Q413 109 499 109 Z M499 157 Q456 157 419 173 Q382 189 355 217 Q328 245 312.5 281.5 Q297 318 297 360 Q297 401 312.5 438 Q328 475 355 502.5 Q382 530 419 546 Q456 562 499 562 Q542 562 579 546 Q616 530 643 502.5 Q670 475 685.5 438 Q701 401 701 360 Q701 318 685.5 281.5 Q670 245 643 217 Q616 189 579 173 Q542 157 499 157 Z " />
<glyph glyph-name="at" unicode="&#x40;" horiz-adv-x="826" d="M459 617 Q534 617 595 593 Q656 569 699.5 527 Q743 485 767 427.5 Q791 370 791 303 Q791 251 777.5 204 Q764 157 741.5 121 Q719 85 688 64 Q657 43 623 43 Q587 43 565 66.5 Q543 90 545 137 Q516 89 471.5 64.5 Q427 40 382 40 Q351 40 322.5 52.5 Q294 65 272.5 88 Q251 111 238.5 143.5 Q226 176 226 216 Q226 264 243 304.5 Q260 345 288.5 374 Q317 403 354 419 Q391 435 430 435 Q476 435 513 409.5 Q550 384 567 335 L579 422 Q579 428 586 428 L600 428 Q605 428 605 422 L571 145 Q570 140 570 130 Q570 98 585.5 82.5 Q601 67 627 67 Q655 67 681 86.5 Q707 106 726 138.5 Q745 171 756.5 213.5 Q768 256 768 302 Q768 365 746 418.5 Q724 472 683.5 511 Q643 550 585 572.5 Q527 595 456 595 Q374 595 302 563.5 Q230 532 177 479 Q124 426 93 355.5 Q62 285 62 207 Q62 139 84 79 Q106 19 147 -26 Q188 -71 246.5 -97.5 Q305 -124 378 -124 Q406 -124 437 -120 Q468 -116 499 -108 Q530 -100 559.5 -88.5 Q589 -77 615 -61 Q618 -59 620.5 -60 Q623 -61 622 -66 L620 -81 Q620 -85 615 -87 Q562 -119 497 -133 Q432 -147 377 -147 Q300 -147 237.5 -119.5 Q175 -92 130.5 -44 Q86 4 62 68 Q38 132 38 205 Q38 290 71.5 365 Q105 440 163 496 Q221 552 297 584.5 Q373 617 459 617 Z M389 65 Q416 65 442.5 75 Q469 85 491.5 104.5 Q514 124 530.5 153 Q547 182 554 219 L558 247 L558 263 Q558 298 548 325.5 Q538 353 520.5 372 Q503 391 480 401 Q457 411 431 411 Q397 411 365 396.5 Q333 382 308.5 356.5 Q284 331 269 295 Q254 259 254 217 Q254 182 265 154 Q276 126 294.5 106.5 Q313 87 337.5 76 Q362 65 389 65 Z " />
<glyph glyph-name="ampersand" unicode="&#x26;" horiz-adv-x="619" d="M548 399 Q554 399 554 393 Q553 385 553.5 375.5 Q554 366 554 360 Q553 281 528 215.5 Q503 150 461 102 L539 7 Q544 0 535 0 L511 0 Q506 0 504 3 L441 81 Q396 37 338.5 13.5 Q281 -10 218 -10 Q177 -10 143.5 1 Q110 12 85.5 31.5 Q61 51 47.5 79 Q34 107 34 142 Q34 211 79.5 262.5 Q125 314 216 354 Q185 396 165 438.5 Q145 481 145 529 Q145 574 162 609 Q179 644 208 669 Q237 694 274.5 707 Q312 720 354 720 Q388 720 415 715 Q442 710 464 702 Q468 701 468 695 L466 673 Q466 670 463.5 668.5 Q461 667 458 669 Q437 680 411 686 Q385 692 354 692 Q319 692 287 681.5 Q255 671 230.5 650.5 Q206 630 191 600 Q176 570 176 531 Q176 480 203.5 430.5 Q231 381 275 328 L445 122 Q482 167 503.5 226 Q525 285 526 356 L526 393 Q526 399 532 399 L548 399 Z M64 145 Q64 85 108 50.5 Q152 16 223 16 Q281 16 332.5 38 Q384 60 425 100 L310 242 L290 265 L246 317 Q242 322 238.5 326.5 Q235 331 231 336 Q150 298 107 253 Q64 208 64 145 Z " />
<glyph glyph-name="paragraph" unicode="&#xb6;" horiz-adv-x="515" d="M399 710 Q405 710 404 704 L307 19 Q299 -38 281 -79.5 Q263 -121 232 -159 Q229 -162 225 -162 L211 -162 Q202 -162 207 -155 Q239 -118 257 -77 Q275 -36 283 19 L324 310 L291 310 Q242 310 202.5 322.5 Q163 335 135.5 358 Q108 381 93 413.5 Q78 446 78 486 Q78 535 98 576.5 Q118 618 154 647.5 Q190 677 239.5 693.5 Q289 710 348 710 L399 710 Z M445 704 Q445 710 452 710 L464 710 Q470 710 469 704 L394 170 Q386 115 377.5 82.5 Q369 50 358 27 Q356 23 353 24.5 Q350 26 351 30 L445 704 Z " />
<glyph glyph-name="section" unicode="&#xa7;" horiz-adv-x="509" d="M509 704 Q508 697 502 700 Q475 713 437.5 721 Q400 729 364 729 Q311 729 265.5 711 Q220 693 186 661 L405 275 Q423 243 430.5 207.5 Q438 172 438 143 Q438 77 413 20 Q388 -37 344.5 -78.5 Q301 -120 243.5 -144 Q186 -168 120 -168 Q81 -168 40.5 -159 Q0 -150 -37 -128 Q-40 -126 -40 -120 L-37 -101 Q-36 -94 -29 -97 Q13 -123 51.5 -132 Q90 -141 125 -141 Q197 -141 258.5 -111 Q320 -81 359 -29 L126 387 Q111 414 103 442 Q95 470 95 500 Q95 555 116.5 602 Q138 649 175.5 683 Q213 717 263 736.5 Q313 756 371 756 Q405 756 442.5 748.5 Q480 741 508 730 Q514 728 512 723 L509 704 Z M416 138 Q416 166 409.5 199.5 Q403 233 386 263 L170 644 Q145 615 131 579.5 Q117 544 117 502 Q117 452 146 397 L373 -10 Q393 22 404.5 59 Q416 96 416 138 Z " />
<glyph glyph-name="copyright" unicode="&#xa9;" horiz-adv-x="817" d="M386 -11 Q315 -11 255 12.5 Q195 36 151 79 Q107 122 82 182.5 Q57 243 57 316 Q57 405 91 479.5 Q125 554 181 607.5 Q237 661 309.5 690.5 Q382 720 460 720 Q529 720 589 696 Q649 672 693.5 628.5 Q738 585 763 524 Q788 463 788 388 Q788 300 754.5 226.5 Q721 153 665.5 100.5 Q610 48 537.5 18.5 Q465 -11 386 -11 Z M388 9 Q462 9 530 36.5 Q598 64 650.5 113.5 Q703 163 734.5 233 Q766 303 766 387 Q766 458 742.5 516 Q719 574 677.5 615 Q636 656 580 678.5 Q524 701 458 701 Q384 701 315.5 673 Q247 645 194.5 594.5 Q142 544 110.5 473 Q79 402 79 317 Q79 248 102.5 191 Q126 134 167.5 93.5 Q209 53 265.5 31 Q322 9 388 9 Z M400 156 Q369 156 340.5 168.5 Q312 181 290.5 204 Q269 227 256.5 259 Q244 291 244 331 Q244 382 262 423 Q280 464 309.5 493 Q339 522 376 537.5 Q413 553 451 553 Q480 553 504 545.5 Q528 538 547 527 Q550 526 550 520 L549 505 Q549 497 541 501 Q522 512 499.5 520 Q477 528 449 528 Q417 528 385 514 Q353 500 327.5 474.5 Q302 449 286.5 413 Q271 377 271 333 Q271 298 282 269.5 Q293 241 311.5 221.5 Q330 202 354.5 191.5 Q379 181 406 181 Q464 181 510 210 Q513 212 515.5 211 Q518 210 517 205 L515 191 Q515 186 511 184 Q488 173 459.5 164.5 Q431 156 400 156 Z " />
<glyph glyph-name="registered" unicode="&#xae;" horiz-adv-x="475" d="M296 720 Q332 720 362.5 707.5 Q393 695 415 672.5 Q437 650 449.5 619 Q462 588 462 550 Q462 502 445.5 462.5 Q429 423 400 394.5 Q371 366 332 350 Q293 334 249 334 Q212 334 181.5 346.5 Q151 359 129 381 Q107 403 95 434 Q83 465 83 503 Q83 551 100 591 Q117 631 146 659.5 Q175 688 213.5 704 Q252 720 296 720 Z M251 352 Q291 352 326 366.5 Q361 381 387.5 407 Q414 433 429 469 Q444 505 444 549 Q444 620 403 661 Q362 702 294 702 Q254 702 219 688 Q184 674 158 648 Q132 622 117 585.5 Q102 549 102 505 Q102 435 143 393.5 Q184 352 251 352 Z M346 589 Q346 563 328 546 Q310 529 281 526 L345 435 Q350 428 341 428 L327 428 Q323 428 319 432 L256 526 L240 526 L229 434 Q229 428 222 428 L213 428 Q208 428 208 434 L231 633 Q231 639 238 639 L285 639 Q314 639 330 625.5 Q346 612 346 589 Z M242 545 L274 545 Q297 545 310.5 556.5 Q324 568 324 586 Q324 601 313.5 610.5 Q303 620 283 620 L252 620 L242 545 Z " />
<glyph glyph-name="trademark" unicode="&#x2122;" horiz-adv-x="668" d="M658 379 Q658 373 652 373 L636 373 Q630 373 630 379 L614 677 L474 389 Q473 385 467 385 L456 385 Q451 385 450 390 L380 671 L291 378 Q290 373 284 373 L269 373 Q263 373 264 380 L365 705 Q366 710 372 710 L390 710 Q395 710 396 705 L466 419 L606 706 Q607 710 613 710 L629 710 Q635 710 635 704 L658 379 Z M304 692 Q304 686 298 686 L201 686 L163 379 Q163 373 156 373 L142 373 Q137 373 137 379 L175 686 L77 686 Q72 686 72 692 L73 703 Q73 709 79 709 L300 709 Q305 709 305 703 L304 692 Z " />
<glyph glyph-name="degree" unicode="&#xb0;" horiz-adv-x="324" d="M223 487 Q178 487 150.5 516.5 Q123 546 123 591 Q123 619 133 642.5 Q143 666 160.5 683 Q178 700 201 710 Q224 720 250 720 Q295 720 322.5 691.5 Q350 663 350 618 Q350 590 340 566 Q330 542 312.5 524.5 Q295 507 272 497 Q249 487 223 487 Z M225 511 Q245 511 263 519 Q281 527 294.5 541.5 Q308 556 316 575 Q324 594 324 616 Q324 651 303 673.5 Q282 696 248 696 Q207 696 178 667.5 Q149 639 149 594 Q149 558 170 534.5 Q191 511 225 511 Z " />
<glyph glyph-name="bar" unicode="&#x7c;" horiz-adv-x="130" d="M3 -200 Q-2 -200 -2 -194 L125 834 Q125 840 132 840 L146 840 Q151 840 151 834 L24 -194 Q24 -200 17 -200 L3 -200 L3 -200 Z " />
<glyph glyph-name="brokenbar" unicode="&#xa6;" horiz-adv-x="130" d="M81 425 Q76 425 76 431 L125 834 Q125 840 132 840 L146 840 Q151 840 151 834 L101 431 Q101 425 94 425 L81 425 Z M3 -200 Q-2 -200 -2 -194 L48 209 Q48 215 55 215 L68 215 Q73 215 73 209 L24 -194 Q24 -200 17 -200 L3 -200 Z " />
<glyph glyph-name="dagger" unicode="&#x2020;" horiz-adv-x="332" d="M333 589 Q338 589 338 583 L337 566 Q337 560 330 560 L220 563 L186 286 Q186 280 179 280 L163 280 Q158 280 158 286 L191 563 L80 560 Q75 560 75 566 L76 583 Q76 589 83 589 L194 587 L208 704 Q208 710 215 710 L232 710 Q237 710 237 704 L223 587 L333 589 L333 589 Z " />
<glyph glyph-name="daggerdbl" unicode="&#x2021;" horiz-adv-x="332" d="M337 569 Q337 563 330 563 L219 565 L201 418 L312 420 Q317 420 317 414 L316 397 Q316 391 309 391 L198 393 L185 286 Q185 280 178 280 L163 280 Q158 280 158 286 L171 393 L59 391 Q54 391 54 397 L55 414 Q55 420 62 420 L174 418 L191 565 L80 563 Q75 563 75 569 L76 586 Q76 592 83 592 L194 589 L208 704 Q208 710 215 710 L231 710 Q236 710 236 704 L222 589 L333 592 Q338 592 338 586 L337 569 L337 569 Z " />
<glyph glyph-name="asciicircum" unicode="&#x5e;" horiz-adv-x="600" d="M463 312 Q468 305 459 305 L441 305 Q437 305 433 309 L325 449 L182 308 Q179 305 175 305 L158 305 Q150 305 155 312 L314 482 Q316 485 321 485 L338 485 Q342 485 346 481 L463 312 L463 312 Z " />
<glyph glyph-name="dieresiscomb" unicode="&#x308;" d="M-13 656 Q-26 656 -33.5 664.5 Q-41 673 -41 685 Q-41 700 -31 710.5 Q-21 721 -5 721 Q7 721 14 712.5 Q21 704 21 691 Q21 677 11.5 666.5 Q2 656 -13 656 Z M117 656 Q104 656 96.5 664.5 Q89 673 89 685 Q89 700 99 710.5 Q109 721 125 721 Q137 721 144 712.5 Q151 704 151 691 Q151 677 141.5 666.5 Q132 656 117 656 Z " />
<glyph glyph-name="dotaccentcomb" unicode="&#x307;" d="M48 635 Q31 635 21.5 646.5 Q12 658 12 675 Q12 695 25 708.5 Q38 722 59 722 Q76 722 85.5 711 Q95 700 95 683 Q95 663 81.5 649 Q68 635 48 635 Z " />
<glyph glyph-name="gravecomb" unicode="&#x300;" d="M91 568 Q96 561 87 561 L73 561 Q68 561 66 564 L-83 737 Q-85 739 -84 741.5 Q-83 744 -80 745 L-51 753 Q-47 754 -43 750 L91 568 L91 568 Z " />
<glyph glyph-name="acutecomb" unicode="&#x301;" d="M2 561 Q-7 561 -2 568 L132 750 Q136 754 140 753 L169 745 Q172 744 173 741.5 Q174 739 172 737 L23 564 Q21 561 16 561 L2 561 L2 561 Z " />
<glyph glyph-name="hungarumlautcomb" unicode="&#x30b;" d="M-71 565 Q-79 565 -75 572 L39 756 Q42 761 47 759 L71 751 Q78 749 74 743 L-49 569 Q-53 565 -57 565 L-71 565 Z M32 565 Q24 565 28 572 L143 756 Q146 761 151 759 L174 751 Q181 748 177 743 L52 569 Q48 565 44 565 L32 565 Z " />
<glyph glyph-name="circumflexcomb" unicode="&#x302;" d="M165 572 Q168 565 161 565 L142 565 Q136 565 135 569 L59 715 L-55 569 Q-59 565 -63 565 L-80 565 Q-89 565 -84 572 L47 746 Q51 750 55 750 L70 750 Q76 750 77 746 L165 572 L165 572 Z " />
<glyph glyph-name="caroncomb" unicode="&#x30c;" d="M155 744 Q157 747 162 747 L180 747 Q188 747 183 740 L55 576 Q51 572 47 572 L33 572 Q27 572 26 576 L-64 740 Q-67 747 -60 747 L-43 747 Q-37 747 -36 743 L44 606 L155 744 L155 744 Z " />
<glyph glyph-name="brevecomb" unicode="&#x306;" d="M45 605 Q21 605 1 613.5 Q-19 622 -32.5 636.5 Q-46 651 -53 671.5 Q-60 692 -58 716 Q-57 722 -51 722 L-41 722 Q-35 722 -36 716 Q-38 678 -15.5 654 Q7 630 47 630 Q86 630 115 654 Q144 678 151 716 Q152 722 158 722 L168 722 Q174 722 173 715 Q169 691 157.5 671 Q146 651 128.5 636.5 Q111 622 90 613.5 Q69 605 45 605 Z " />
<glyph glyph-name="ringcomb" unicode="&#x30a;" d="M42 583 Q10 583 -9 603.5 Q-28 624 -28 655 Q-28 695 -1.5 719.5 Q25 744 61 744 Q92 744 112 725 Q132 706 132 674 Q132 655 124.5 638.5 Q117 622 105 609.5 Q93 597 76.5 590 Q60 583 42 583 Z M44 603 Q71 603 90.5 623 Q110 643 110 672 Q110 695 96 710.5 Q82 726 59 726 Q31 726 12.5 706 Q-6 686 -6 657 Q-6 634 7.5 618.5 Q21 603 44 603 Z " />
<glyph glyph-name="tildecomb" unicode="&#x303;" d="M107 614 Q83 614 69.5 627 Q56 640 45 656 Q36 670 25.5 681 Q15 692 -3 692 Q-28 692 -42.5 671 Q-57 650 -62 618 Q-64 612 -69 612 L-81 612 Q-87 612 -86 619 Q-79 662 -57.5 691 Q-36 720 -1 720 Q25 720 39 706 Q53 692 64 677 Q74 663 83.5 653 Q93 643 110 643 Q133 643 146.5 661.5 Q160 680 165 709 Q166 715 172 715 L184 715 Q191 715 189 707 Q182 667 160.5 640.5 Q139 614 107 614 Z " />
<glyph glyph-name="macroncomb" unicode="&#x304;" d="M-72 645 Q-77 645 -77 651 L-76 666 Q-76 672 -69 672 L174 672 Q179 672 179 666 L178 651 Q178 645 171 645 L-72 645 L-72 645 Z " />
<glyph glyph-name="cedillacomb" unicode="&#x327;" d="M-27 -46 Q2 -46 18.5 -60.5 Q35 -75 35 -98 Q35 -115 27.5 -128.5 Q20 -142 7 -151.5 Q-6 -161 -23.5 -166.5 Q-41 -172 -60 -172 Q-97 -172 -123 -158 Q-126 -157 -126 -151 L-125 -141 Q-125 -134 -117 -138 Q-93 -151 -59 -151 Q-32 -151 -10.5 -137.5 Q11 -124 11 -101 Q11 -84 -3.5 -74.5 Q-18 -65 -38 -65 Q-62 -65 -83 -71 Q-84 -70 -84 -69 Q-84 -68 -84.5 -67 Q-85 -66 -83 -64 L-26 3 Q-24 6 -19 6 L-9 6 Q-1 6 -6 -1 L-49 -48 Q-44 -47 -38 -46.5 Q-32 -46 -27 -46 Z " />
<glyph glyph-name="ogonekcomb" unicode="&#x328;" horiz-adv-x="587" d="M234 -172 Q205 -172 186 -155.5 Q167 -139 167 -110 Q167 -75 198.5 -46 Q230 -17 290 18 Q295 21 298 18 L304 13 Q306 11 306.5 9 Q307 7 304 5 Q249 -32 221.5 -56.5 Q194 -81 194 -108 Q194 -128 207 -138.5 Q220 -149 240 -149 Q262 -149 281 -139 Q288 -136 288 -144 L287 -153 Q287 -159 283 -160 Q262 -172 234 -172 Z " />
<glyph glyph-name="slashshortcomb" unicode="&#x337;" horiz-adv-x="423" d="M44 -46 Q36 -46 40 -39 L421 545 Q425 549 429 549 L438 549 Q445 549 442 542 L61 -42 Q57 -46 53 -46 L44 -46 L44 -46 Z " />
<glyph glyph-name="slashlongcomb" unicode="&#x338;" horiz-adv-x="524" d="M44 -45 Q36 -45 40 -38 L545 731 Q549 735 553 735 L562 735 Q569 735 566 728 L61 -41 Q57 -45 53 -45 L44 -45 L44 -45 Z " />
<glyph glyph-name="acute" unicode="&#xb4;" horiz-adv-x="500" d="M214 561 Q205 561 210 568 L344 750 Q348 754 352 753 L381 745 Q384 744 385 741.5 Q386 739 384 737 L235 564 Q233 561 228 561 L214 561 L214 561 Z " />
<glyph glyph-name="breve" unicode="&#x2d8;" horiz-adv-x="500" d="M295 605 Q271 605 251 613.5 Q231 622 217.5 636.5 Q204 651 197 671.5 Q190 692 192 716 Q193 722 199 722 L209 722 Q215 722 214 716 Q212 678 234.5 654 Q257 630 297 630 Q336 630 365 654 Q394 678 401 716 Q402 722 408 722 L418 722 Q424 722 423 715 Q419 691 407.5 671 Q396 651 378.5 636.5 Q361 622 340 613.5 Q319 605 295 605 Z " />
<glyph glyph-name="caron" unicode="&#x2c7;" horiz-adv-x="500" d="M405 744 Q407 747 412 747 L430 747 Q438 747 433 740 L305 576 Q301 572 297 572 L283 572 Q277 572 276 576 L186 740 Q183 747 190 747 L207 747 Q213 747 214 743 L294 606 L405 744 L405 744 Z " />
<glyph glyph-name="cedilla" unicode="&#xb8;" horiz-adv-x="500" d="M223 -46 Q252 -46 268.5 -60.5 Q285 -75 285 -98 Q285 -115 277.5 -128.5 Q270 -142 257 -151.5 Q244 -161 226.5 -166.5 Q209 -172 190 -172 Q153 -172 127 -158 Q124 -157 124 -151 L125 -141 Q125 -134 133 -138 Q157 -151 191 -151 Q218 -151 239.5 -137.5 Q261 -124 261 -101 Q261 -84 246.5 -74.5 Q232 -65 212 -65 Q188 -65 167 -71 Q166 -70 166 -69 Q166 -65 167 -64 L224 3 Q226 6 231 6 L241 6 Q249 6 244 -1 L201 -48 Q206 -47 212 -46.5 Q218 -46 223 -46 Z " />
<glyph glyph-name="circumflex" unicode="&#x2c6;" horiz-adv-x="500" d="M415 572 Q418 565 411 565 L392 565 Q386 565 385 569 L309 715 L195 569 Q191 565 187 565 L170 565 Q161 565 166 572 L297 746 Q301 750 305 750 L320 750 Q326 750 327 746 L415 572 L415 572 Z " />
<glyph glyph-name="dieresis" unicode="&#xa8;" horiz-adv-x="500" d="M237 656 Q224 656 216.5 664.5 Q209 673 209 685 Q209 700 219 710.5 Q229 721 245 721 Q257 721 264 712.5 Q271 704 271 691 Q271 677 261.5 666.5 Q252 656 237 656 Z M367 656 Q354 656 346.5 664.5 Q339 673 339 685 Q339 700 349 710.5 Q359 721 375 721 Q387 721 394 712.5 Q401 704 401 691 Q401 677 391.5 666.5 Q382 656 367 656 Z " />
<glyph glyph-name="dotaccent" unicode="&#x2d9;" horiz-adv-x="500" d="M298 635 Q281 635 271.5 646.5 Q262 658 262 675 Q262 695 275 708.5 Q288 722 309 722 Q326 722 335.5 711 Q345 700 345 683 Q345 663 331.5 649 Q318 635 298 635 Z " />
<glyph glyph-name="grave" unicode="&#x60;" horiz-adv-x="500" d="M393 568 Q398 561 389 561 L375 561 Q370 561 368 564 L219 737 Q217 739 218 741.5 Q219 744 222 745 L251 753 Q255 754 259 750 L393 568 L393 568 Z " />
<glyph glyph-name="hungarumlaut" unicode="&#x2dd;" horiz-adv-x="500" d="M179 565 Q171 565 175 572 L289 756 Q292 761 297 759 L321 751 Q328 749 324 743 L201 569 Q197 565 193 565 L179 565 Z M282 565 Q274 565 278 572 L393 756 Q396 761 401 759 L424 751 Q431 748 427 743 L302 569 Q298 565 294 565 L282 565 Z " />
<glyph glyph-name="macron" unicode="&#xaf;" horiz-adv-x="500" d="M178 645 Q173 645 173 651 L174 666 Q174 672 181 672 L424 672 Q429 672 429 666 L428 651 Q428 645 421 645 L178 645 L178 645 Z " />
<glyph glyph-name="ogonek" unicode="&#x2db;" horiz-adv-x="500" d="M210 -172 Q181 -172 162 -155.5 Q143 -139 143 -110 Q143 -75 174.5 -46 Q206 -17 266 18 Q271 21 274 18 L280 13 Q282 11 282.5 9 Q283 7 280 5 Q225 -32 197.5 -56.5 Q170 -81 170 -108 Q170 -128 183 -138.5 Q196 -149 216 -149 Q238 -149 257 -139 Q264 -136 264 -144 L263 -153 Q263 -159 259 -160 Q238 -172 210 -172 Z " />
<glyph glyph-name="ring" unicode="&#x2da;" horiz-adv-x="500" d="M292 583 Q260 583 241 603.5 Q222 624 222 655 Q222 695 248.5 719.5 Q275 744 311 744 Q342 744 362 725 Q382 706 382 674 Q382 655 374.5 638.5 Q367 622 355 609.5 Q343 597 326.5 590 Q310 583 292 583 Z M294 603 Q321 603 340.5 623 Q360 643 360 672 Q360 695 346 710.5 Q332 726 309 726 Q281 726 262.5 706 Q244 686 244 657 Q244 634 257.5 618.5 Q271 603 294 603 Z " />
<glyph glyph-name="tilde" unicode="&#x2dc;" horiz-adv-x="500" d="M357 614 Q333 614 319.5 627 Q306 640 295 656 Q286 670 275.5 681 Q265 692 247 692 Q222 692 207.5 671 Q193 650 188 618 Q186 612 181 612 L169 612 Q163 612 164 619 Q171 662 192.5 691 Q214 720 249 720 Q275 720 289 706 Q303 692 314 677 Q324 663 333.5 653 Q343 643 360 643 Q383 643 396.5 661.5 Q410 680 415 709 Q416 715 422 715 L434 715 Q441 715 439 707 Q432 667 410.5 640.5 Q389 614 357 614 Z " />
<glyph glyph-name="A" unicode="A" horiz-adv-x="589" d="M535 0 Q530 0 529 5 L461 250 L130 250 Q98 187 66 126.5 Q34 66 1 4 Q0 0 -6 0 L-25 0 Q-32 0 -29 7 L344 711 Q345 715 351 715 L356 715 Q361 715 362 710 L561 7 Q562 0 556 0 L535 0 Z M453 278 Q427 375 400 470.5 Q373 566 347 661 Q296 566 246 470.5 Q196 375 145 278 L453 278 Z " />
<glyph glyph-name="Aacute" unicode="&#xc1;" horiz-adv-x="589" d="M535 0 Q530 0 529 5 L461 250 L130 250 Q98 187 66 126.5 Q34 66 1 4 Q0 0 -6 0 L-25 0 Q-32 0 -29 7 L344 711 Q345 715 351 715 L356 715 Q361 715 362 710 L561 7 Q562 0 556 0 L535 0 Z M453 278 Q427 375 400 470.5 Q373 566 347 661 Q296 566 246 470.5 Q196 375 145 278 L453 278 Z M338 764 Q329 764 334 771 L412 888 Q416 892 420 892 L462 892 Q470 892 465 885 L355 767 Q353 764 348 764 L338 764 L338 764 Z " />
</font>
</svg>
