<?xml version="1.0" encoding="UTF-8"?>
<svg xmlns="http://www.w3.org/2000/svg" xmlns:xlink="http://www.w3.org/1999/xlink" version="1.2" >
<font id="GlobotipoTexto-LightItalic">
<font-face  font-family="Globotipo Texto" units-per-em="1000" ascent="1000" descent="-400" font-style="italic" font-weight="300" font-stretch="normal" slope="-7" cap-height="710" x-height="480" underline-position="-75" underline-thickness="50" />
<missing-glyph  horiz-adv-x="700" d="M350 709 Q423 709 487.5 681 Q552 653 600 605 Q648 557 676 492.5 Q704 428 704 355 Q704 281 676 216.5 Q648 152 600 104 Q552 56 487.5 28 Q423 0 350 0 Q276 0 211.5 28 Q147 56 99 104 Q51 152 23 216.5 Q-5 281 -5 355 Q-5 428 23 492.5 Q51 557 99 605 Q147 653 211.5 681 Q276 709 350 709 Z M350 20 Q419 20 480 46.5 Q541 73 586 118.5 Q631 164 657.5 225 Q684 286 684 355 Q684 424 657.5 485 Q631 546 586 591 Q541 636 480 662.5 Q419 689 350 689 Q281 689 220 662.5 Q159 636 113.5 591 Q68 546 41.5 485 Q15 424 15 355 Q15 286 41.5 225 Q68 164 113.5 118.5 Q159 73 220 46.5 Q281 20 350 20 Z M549 567 Q555 573 561 567 L563 565 Q569 559 563 553 L364 354 L563 155 Q569 149 563 143 L561 141 Q555 135 549 141 L350 340 L151 141 Q145 135 139 141 L137 143 Q131 149 137 155 L336 354 L137 553 Q131 559 137 565 L139 567 Q145 573 151 567 L350 368 L549 567 Z " />
<glyph glyph-name=".null" d="" />
<glyph glyph-name="nonmarkingreturn" unicode="&#xd;" horiz-adv-x="218" d="" />
<glyph glyph-name="space" unicode="&#x20;" horiz-adv-x="218" d="" />
<glyph glyph-name="Adieresis" unicode="&#xc4;" horiz-adv-x="605" d="M532 0 Q524 0 523 7 Q508 64 492.5 119.5 Q477 175 463 232 L140 232 Q111 175 81.5 119 Q52 63 23 6 Q20 0 14 0 L-23 0 Q-28 0 -29.5 3 Q-31 6 -29 10 L341 708 Q344 714 350 714 L371 714 Q378 714 380 707 L576 9 L576 7 Q576 0 570 0 L532 0 Z M451 275 Q426 368 401.5 459 Q377 550 352 641 L162 275 L451 275 Z M292 779 Q273 779 262 792 Q251 805 251 824 Q251 846 266 862 Q281 878 304 878 Q323 878 334 865 Q345 852 345 833 Q345 811 330 795 Q315 779 292 779 Z M448 779 Q429 779 418 792 Q407 805 407 824 Q407 846 422 862 Q437 878 460 878 Q479 878 490 865 Q501 852 501 833 Q501 811 486 795 Q471 779 448 779 Z " />
<glyph glyph-name="Agrave" unicode="&#xc0;" horiz-adv-x="605" d="M532 0 Q524 0 523 7 Q508 64 492.5 119.5 Q477 175 463 232 L140 232 Q111 175 81.5 119 Q52 63 23 6 Q20 0 14 0 L-23 0 Q-28 0 -29.5 3 Q-31 6 -29 10 L341 708 Q344 714 350 714 L371 714 Q378 714 380 707 L576 9 L576 7 Q576 0 570 0 L532 0 Z M451 275 Q426 368 401.5 459 Q377 550 352 641 L162 275 L451 275 Z M363 774 Q364 773 364 770 Q364 765 357 765 L339 765 Q331 765 329 770 L247 887 Q245 891 245 892 Q245 897 252 897 L307 897 Q314 897 316 891 L363 774 L363 774 Z " />
<glyph glyph-name="Aring" unicode="&#xc5;" horiz-adv-x="605" d="M532 0 Q524 0 523 7 Q508 64 492.5 119.5 Q477 175 463 232 L140 232 Q111 175 81.5 119 Q52 63 23 6 Q20 0 14 0 L-23 0 Q-28 0 -29.5 3 Q-31 6 -29 10 L341 708 Q344 714 350 714 L371 714 Q378 714 380 707 L576 9 L576 7 Q576 0 570 0 L532 0 Z M451 275 Q426 368 401.5 459 Q377 550 352 641 L162 275 L451 275 Z M364 743 Q331 743 310 765 Q289 787 289 820 Q289 841 296.5 858 Q304 875 317.5 887.5 Q331 900 348 907 Q365 914 385 914 Q417 914 438 893 Q459 872 459 839 Q459 819 451.5 801.5 Q444 784 431 771 Q418 758 400.5 750.5 Q383 743 364 743 Z M367 770 Q393 770 412 789 Q431 808 431 837 Q431 860 417.5 874.5 Q404 889 381 889 Q355 889 336.5 870 Q318 851 318 823 Q318 800 331 785 Q344 770 367 770 Z " />
<glyph glyph-name="Atilde" unicode="&#xc3;" horiz-adv-x="605" d="M532 0 Q524 0 523 7 Q508 64 492.5 119.5 Q477 175 463 232 L140 232 Q111 175 81.5 119 Q52 63 23 6 Q20 0 14 0 L-23 0 Q-28 0 -29.5 3 Q-31 6 -29 10 L341 708 Q344 714 350 714 L371 714 Q378 714 380 707 L576 9 L576 7 Q576 0 570 0 L532 0 Z M451 275 Q426 368 401.5 459 Q377 550 352 641 L162 275 L451 275 Z M313 851 Q291 851 278.5 833.5 Q266 816 264 787 Q264 779 256 779 L240 779 Q232 779 232 787 Q235 832 255 862 Q275 892 312 892 Q339 892 354.5 879 Q370 866 383 852 Q394 841 405.5 831 Q417 821 435 821 Q455 821 466.5 837.5 Q478 854 480 880 Q480 888 488 888 L505 888 Q513 888 513 880 Q510 837 490 808 Q470 779 436 779 Q410 779 394.5 791.5 Q379 804 366 818 Q355 830 343.5 840.5 Q332 851 313 851 Z " />
<glyph glyph-name="AE" unicode="&#xc6;" horiz-adv-x="755" d="M755 674 Q753 666 746 666 L499 666 L465 393 L687 393 Q696 393 695 385 L692 358 Q690 350 683 350 L460 350 L422 44 L669 44 Q677 44 676 36 L673 8 Q671 0 664 0 L377 0 Q368 0 369 8 L394 210 L158 210 L23 5 Q20 0 14 0 L-22 0 Q-27 0 -28.5 3 Q-30 6 -28 10 L431 705 Q433 710 440 710 L751 710 Q759 710 758 702 L755 674 Z M399 253 L448 654 L186 253 L399 253 Z " />
<glyph glyph-name="B" unicode="B" horiz-adv-x="532" d="M334 372 Q408 363 446.5 321.5 Q485 280 485 220 Q485 172 465 131.5 Q445 91 408.5 62 Q372 33 321 16.5 Q270 0 209 0 L60 0 Q50 0 52 9 L146 703 Q147 710 154 710 L284 710 Q383 710 438 669 Q493 628 493 556 Q493 524 482.5 494.5 Q472 465 452 440 Q432 415 402.5 397.5 Q373 380 335 373 L334 372 Z M442 547 Q442 603 400 634.5 Q358 666 281 666 L191 666 L153 389 L259 389 Q298 389 331.5 400 Q365 411 389.5 431 Q414 451 428 480.5 Q442 510 442 547 Z M212 43 Q262 43 302.5 56 Q343 69 372 92 Q401 115 416.5 147 Q432 179 432 217 Q432 276 388 310.5 Q344 345 271 345 L147 345 L106 43 L212 43 Z " />
<glyph glyph-name="C" unicode="C" horiz-adv-x="631" d="M377 -11 Q307 -11 248 11.5 Q189 34 146 75.5 Q103 117 79 176 Q55 235 55 308 Q55 402 90 478 Q125 554 184 608 Q243 662 320 691 Q397 720 481 720 Q528 720 568 711 Q608 702 639 690 Q647 687 645 680 L640 644 Q638 636 630 639 Q601 653 563 663 Q525 673 479 673 Q404 673 336 647.5 Q268 622 217 575 Q166 528 136 461.5 Q106 395 106 313 Q106 249 127 198 Q148 147 185.5 111.5 Q223 76 275 57 Q327 38 389 38 Q437 38 480 47.5 Q523 57 558 71 Q559 71 560 71.5 Q561 72 562 72 Q569 72 567 64 L563 30 Q562 23 557 22 Q520 8 474.5 -1.5 Q429 -11 377 -11 Z " />
<glyph glyph-name="Ccedilla" unicode="&#xc7;" horiz-adv-x="631" d="M479 673 Q404 673 336 647.5 Q268 622 217 575 Q166 528 136 461.5 Q106 395 106 313 Q106 249 127 198 Q148 147 185.5 111.5 Q223 76 275 57 Q327 38 389 38 Q437 38 480 47.5 Q523 57 558 71 Q559 71 560 71.5 Q561 72 562 72 Q569 72 567 64 L563 30 Q562 23 556 22 Q519 8 473.5 -1.5 Q428 -11 377 -11 L372 -11 L344 -45 Q349 -44 358 -44 Q387 -44 405 -58.5 Q423 -73 423 -98 Q423 -116 415 -130 Q407 -144 393 -154 Q379 -164 360.5 -169.5 Q342 -175 322 -175 Q284 -175 260 -162 Q255 -160 255 -152 L256 -139 Q256 -129 266 -134 Q278 -139 292 -142.5 Q306 -146 323 -146 Q348 -146 368 -134 Q388 -122 388 -102 Q388 -85 374.5 -77 Q361 -69 341 -69 Q318 -69 300 -75 Q298 -74 297 -72 Q295 -68 297 -66 L343 -10 Q280 -4 227 20.5 Q174 45 136 86.5 Q98 128 76.5 184 Q55 240 55 308 Q55 402 90 478 Q125 554 184 608 Q243 662 320 691 Q397 720 481 720 Q528 720 568 711 Q608 702 639 690 Q647 687 645 680 L640 644 Q638 635 633 638 Q603 652 564.5 662.5 Q526 673 479 673 Z " />
<glyph glyph-name="D" unicode="D" horiz-adv-x="674" d="M60 0 Q50 0 52 9 L148 703 Q149 710 156 710 L280 710 Q364 710 432 687.5 Q500 665 548 623.5 Q596 582 622 524 Q648 466 648 396 Q648 309 613.5 236 Q579 163 517 110.5 Q455 58 369.5 29 Q284 0 182 0 L60 0 Z M189 45 Q279 45 353.5 70.5 Q428 96 482 141.5 Q536 187 566 251 Q596 315 596 393 Q596 455 574 505 Q552 555 510.5 590.5 Q469 626 410 645.5 Q351 665 276 665 L194 665 L107 45 L189 45 Z " />
<glyph glyph-name="Eth" unicode="&#xd0;" horiz-adv-x="676" d="M281 710 Q365 710 433 687.5 Q501 665 549 623.5 Q597 582 623 524 Q649 466 649 396 Q649 309 614.5 236 Q580 163 518 110.5 Q456 58 370.5 29 Q285 0 183 0 L61 0 Q51 0 53 9 L100 349 L25 349 Q18 349 18 357 L20 383 Q20 391 28 391 L106 391 L149 703 Q150 710 157 710 L281 710 Z M190 45 Q280 45 354.5 70.5 Q429 96 483 141.5 Q537 187 567 251 Q597 315 597 393 Q597 455 575 505 Q553 555 511.5 590.5 Q470 626 411 645.5 Q352 665 277 665 L195 665 L156 389 L361 389 Q368 389 368 381 L367 359 Q367 351 358 351 L151 351 L108 45 L190 45 Z " />
<glyph glyph-name="E" unicode="E" horiz-adv-x="495" d="M497 672 Q497 664 488 664 L182 664 L149 394 L423 394 Q432 394 431 385 L427 356 Q426 349 419 349 L144 349 L107 46 L410 46 Q419 46 418 38 L414 7 Q413 0 405 0 L60 0 Q51 0 52 8 L137 703 Q138 710 146 710 L493 710 Q501 710 500 702 L497 672 L497 672 Z " />
<glyph glyph-name="Eacute" unicode="&#xc9;" horiz-adv-x="496" d="M497 672 Q497 664 488 664 L182 664 L149 394 L423 394 Q432 394 431 385 L427 356 Q426 349 419 349 L144 349 L107 46 L410 46 Q419 46 418 38 L414 7 Q413 0 405 0 L60 0 Q51 0 52 8 L137 703 Q138 710 146 710 L493 710 Q501 710 500 702 L497 672 L497 672 Z M293 763 Q288 763 287 766 Q286 769 288 773 L364 891 Q366 896 373 896 L428 896 Q433 896 435 893 Q437 890 433 886 L320 767 Q316 763 310 763 L293 763 L293 763 Z " />
<glyph glyph-name="Ecircumflex" unicode="&#xca;" horiz-adv-x="496" d="M497 672 Q497 664 488 664 L182 664 L149 394 L423 394 Q432 394 431 385 L427 356 Q426 349 419 349 L144 349 L107 46 L410 46 Q419 46 418 38 L414 7 Q413 0 405 0 L60 0 Q51 0 52 8 L137 703 Q138 710 146 710 L493 710 Q501 710 500 702 L497 672 L497 672 Z M454 766 Q456 762 456 761 Q456 756 449 756 L425 756 Q418 756 415 761 L336 856 L233 760 Q229 756 223 756 L200 756 Q195 756 193.5 759 Q192 762 196 766 L318 891 Q322 895 328 895 L354 895 Q361 895 364 890 L454 766 L454 766 Z " />
<glyph glyph-name="Edieresis" unicode="&#xcb;" horiz-adv-x="496" d="M497 672 Q497 664 488 664 L182 664 L149 394 L423 394 Q432 394 431 385 L427 356 Q426 349 419 349 L144 349 L107 46 L410 46 Q419 46 418 38 L414 7 Q413 0 405 0 L60 0 Q51 0 52 8 L137 703 Q138 710 146 710 L493 710 Q501 710 500 702 L497 672 L497 672 Z M242 779 Q223 779 212 792 Q201 805 201 824 Q201 846 216 862 Q231 878 254 878 Q273 878 284 865 Q295 852 295 833 Q295 811 280 795 Q265 779 242 779 Z M398 779 Q379 779 368 792 Q357 805 357 824 Q357 846 372 862 Q387 878 410 878 Q429 878 440 865 Q451 852 451 833 Q451 811 436 795 Q421 779 398 779 Z " />
<glyph glyph-name="Egrave" unicode="&#xc8;" horiz-adv-x="496" d="M497 672 Q497 664 488 664 L182 664 L149 394 L423 394 Q432 394 431 385 L427 356 Q426 349 419 349 L144 349 L107 46 L410 46 Q419 46 418 38 L414 7 Q413 0 405 0 L60 0 Q51 0 52 8 L137 703 Q138 710 146 710 L493 710 Q501 710 500 702 L497 672 L497 672 Z M313 774 Q314 773 314 770 Q314 765 307 765 L289 765 Q281 765 279 770 L197 887 Q195 891 195 892 Q195 897 202 897 L257 897 Q264 897 266 891 L313 774 L313 774 Z " />
<glyph glyph-name="F" unicode="F" horiz-adv-x="470" d="M484 673 Q482 665 475 665 L184 665 L148 370 L417 370 Q426 370 425 361 L421 332 Q420 325 413 325 L142 325 L103 7 Q102 0 94 0 L61 0 Q52 0 53 8 L138 703 Q139 710 147 710 L480 710 Q488 710 487 702 L484 673 L484 673 Z " />
<glyph glyph-name="G" unicode="G" horiz-adv-x="741" d="M363 -10 Q297 -10 240.5 13 Q184 36 142.5 78 Q101 120 77.5 178.5 Q54 237 54 308 Q54 399 88 474.5 Q122 550 179.5 604.5 Q237 659 313 689.5 Q389 720 472 720 Q526 720 586.5 705.5 Q647 691 692 660 Q697 655 696 650 L691 615 Q690 605 680 611 Q659 626 633 637.5 Q607 649 578.5 656.5 Q550 664 521.5 668 Q493 672 466 672 Q395 672 330 646 Q265 620 215 572.5 Q165 525 135 458.5 Q105 392 105 312 Q105 250 125.5 199.5 Q146 149 181.5 113.5 Q217 78 265 58.5 Q313 39 368 39 Q424 39 476 56.5 Q528 74 569 107.5 Q610 141 637 189.5 Q664 238 670 299 L436 299 Q426 299 428 308 L433 338 Q435 345 441 345 L713 345 Q721 345 721 338 Q721 336 720.5 334 Q720 332 720 330 Q716 247 685.5 184 Q655 121 606.5 77.5 Q558 34 495 12 Q432 -10 363 -10 Z " />
<glyph glyph-name="H" unicode="H" horiz-adv-x="663" d="M588 703 Q589 710 597 710 L631 710 Q640 710 639 702 L553 7 Q552 0 544 0 L510 0 Q501 0 502 8 L544 348 L145 348 L103 7 Q102 0 94 0 L61 0 Q52 0 53 8 L139 703 Q140 710 148 710 L181 710 Q190 710 189 702 L151 392 L550 392 L588 703 L588 703 Z " />
<glyph glyph-name="I" unicode="I" horiz-adv-x="249" d="M78 0 Q69 0 70 8 L155 703 Q156 710 164 710 L199 710 Q208 710 207 702 L122 7 Q121 0 113 0 L78 0 L78 0 Z " />
<glyph glyph-name="Iacute" unicode="&#xcd;" horiz-adv-x="249" d="M78 0 Q69 0 70 8 L155 703 Q156 710 164 710 L199 710 Q208 710 207 702 L122 7 Q121 0 113 0 L78 0 L78 0 Z M165 763 Q160 763 159 766 Q158 769 160 773 L236 891 Q238 896 245 896 L300 896 Q305 896 307 893 Q309 890 305 886 L192 767 Q188 763 182 763 L165 763 L165 763 Z " />
<glyph glyph-name="Icircumflex" unicode="&#xce;" horiz-adv-x="249" d="M78 0 Q69 0 70 8 L155 703 Q156 710 164 710 L199 710 Q208 710 207 702 L122 7 Q121 0 113 0 L78 0 L78 0 Z M326 766 Q328 762 328 761 Q328 756 321 756 L297 756 Q290 756 287 761 L208 856 L105 760 Q101 756 95 756 L72 756 Q67 756 65.5 759 Q64 762 68 766 L190 891 Q194 895 200 895 L226 895 Q233 895 236 890 L326 766 L326 766 Z " />
<glyph glyph-name="Idieresis" unicode="&#xcf;" horiz-adv-x="249" d="M78 0 Q69 0 70 8 L155 703 Q156 710 164 710 L199 710 Q208 710 207 702 L122 7 Q121 0 113 0 L78 0 L78 0 Z M114 779 Q95 779 84 792 Q73 805 73 824 Q73 846 88 862 Q103 878 126 878 Q145 878 156 865 Q167 852 167 833 Q167 811 152 795 Q137 779 114 779 Z M270 779 Q251 779 240 792 Q229 805 229 824 Q229 846 244 862 Q259 878 282 878 Q301 878 312 865 Q323 852 323 833 Q323 811 308 795 Q293 779 270 779 Z " />
<glyph glyph-name="Igrave" unicode="&#xcc;" horiz-adv-x="249" d="M78 0 Q69 0 70 8 L155 703 Q156 710 164 710 L199 710 Q208 710 207 702 L122 7 Q121 0 113 0 L78 0 L78 0 Z M185 774 Q186 773 186 770 Q186 765 179 765 L161 765 Q153 765 151 770 L69 887 Q67 891 67 892 Q67 897 74 897 L129 897 Q136 897 138 891 L185 774 L185 774 Z " />
<glyph glyph-name="J" unicode="J" horiz-adv-x="395" d="M107 -10 Q68 -10 41.5 -3 Q15 4 -5 15 Q-10 17 -10 25 L-6 59 Q-5 69 4 63 Q24 51 51 43.5 Q78 36 107 36 Q155 36 192.5 68.5 Q230 101 238 166 L305 703 Q306 710 314 710 L348 710 Q357 710 356 702 L290 167 Q279 79 228.5 34.5 Q178 -10 107 -10 Z " />
<glyph glyph-name="K" unicode="K" horiz-adv-x="541" d="M566 710 Q571 710 572.5 707 Q574 704 570 700 L204 367 L485 10 Q492 0 481 0 L435 0 Q428 0 425 5 L148 366 L104 7 Q103 0 95 0 L60 0 Q51 0 52 8 L137 703 Q138 710 146 710 L181 710 Q190 710 189 702 L148 368 L513 706 Q519 710 523 710 L566 710 L566 710 Z " />
<glyph glyph-name="L" unicode="L" horiz-adv-x="451" d="M403 47 Q411 47 410 39 L407 8 Q407 0 398 0 L60 0 Q51 0 52 8 L138 703 Q139 710 147 710 L180 710 Q189 710 188 702 L107 47 L403 47 Z " />
<glyph glyph-name="Lslash" unicode="&#x141;" horiz-adv-x="451" d="M403 47 Q411 47 410 39 L407 8 Q407 0 398 0 L60 0 Q51 0 52 8 L101 403 L51 384 Q50 384 49.5 383.5 Q49 383 48 383 Q42 383 42 391 L42 408 Q42 414 48 417 L105 439 L138 703 Q139 710 147 710 L180 710 Q189 710 188 702 L158 459 L219 482 Q220 483 223 483 Q228 483 228 476 L228 458 Q228 452 222 449 L153 423 L107 47 L403 47 Z " />
<glyph glyph-name="M" unicode="M" horiz-adv-x="842" d="M789 8 Q789 0 781 0 L741 0 Q733 0 733 8 L703 636 L418 29 Q415 23 408 23 L377 23 Q370 23 368 30 L230 632 L43 7 Q41 0 34 0 L-2 0 Q-12 0 -8 9 L202 705 Q204 712 211 712 L254 712 Q261 712 263 705 L402 99 L689 706 Q692 712 699 712 L738 712 Q746 712 746 704 L789 8 L789 8 Z " />
<glyph glyph-name="N" unicode="N" horiz-adv-x="718" d="M646 703 Q647 710 655 710 L686 710 Q695 710 694 702 L608 7 Q607 0 599 0 L571 0 Q564 0 562 5 L176 621 L100 7 Q99 0 91 0 L60 0 Q51 0 52 8 L138 703 Q139 710 147 710 L175 710 Q181 710 184 705 L569 88 L646 703 L646 703 Z " />
<glyph glyph-name="Ntilde" unicode="&#xd1;" horiz-adv-x="718" d="M646 703 Q647 710 655 710 L686 710 Q695 710 694 702 L608 7 Q607 0 599 0 L571 0 Q564 0 562 5 L176 621 L100 7 Q99 0 91 0 L60 0 Q51 0 52 8 L138 703 Q139 710 147 710 L175 710 Q181 710 184 705 L569 88 L646 703 L646 703 Z M370 851 Q348 851 335.5 833.5 Q323 816 321 787 Q321 779 313 779 L297 779 Q289 779 289 787 Q292 832 312 862 Q332 892 369 892 Q396 892 411.5 879 Q427 866 440 852 Q451 841 462.5 831 Q474 821 492 821 Q512 821 523.5 837.5 Q535 854 537 880 Q537 888 545 888 L562 888 Q570 888 570 880 Q567 837 547 808 Q527 779 493 779 Q467 779 451.5 791.5 Q436 804 423 818 Q412 830 400.5 840.5 Q389 851 370 851 Z " />
<glyph glyph-name="O" unicode="O" horiz-adv-x="822" d="M376 -10 Q306 -10 247 14 Q188 38 145 80.5 Q102 123 77.5 181.5 Q53 240 53 309 Q53 396 88 471 Q123 546 181.5 601.5 Q240 657 315.5 688.5 Q391 720 472 720 Q541 720 600.5 696 Q660 672 703.5 628.5 Q747 585 771.5 525 Q796 465 796 393 Q796 309 761 235.5 Q726 162 667.5 107.5 Q609 53 533 21.5 Q457 -10 376 -10 Z M382 39 Q454 39 520 66.5 Q586 94 636.5 141.5 Q687 189 717 253 Q747 317 747 390 Q747 451 726 503 Q705 555 667.5 592.5 Q630 630 579 651 Q528 672 467 672 Q395 672 329 643.5 Q263 615 212.5 566.5 Q162 518 132 452.5 Q102 387 102 312 Q102 253 123 203 Q144 153 181.5 116.5 Q219 80 270.5 59.5 Q322 39 382 39 Z " />
<glyph glyph-name="Oacute" unicode="&#xd3;" horiz-adv-x="828" d="M376 -10 Q306 -10 247 14 Q188 38 145 80.5 Q102 123 77.5 181.5 Q53 240 53 309 Q53 396 88 471 Q123 546 181.5 601.5 Q240 657 315.5 688.5 Q391 720 472 720 Q541 720 600.5 696 Q660 672 703.5 628.5 Q747 585 771.5 525 Q796 465 796 393 Q796 309 761 235.5 Q726 162 667.5 107.5 Q609 53 533 21.5 Q457 -10 376 -10 Z M382 39 Q454 39 520 66.5 Q586 94 636.5 141.5 Q687 189 717 253 Q747 317 747 390 Q747 451 726 503 Q705 555 667.5 592.5 Q630 630 579 651 Q528 672 467 672 Q395 672 329 643.5 Q263 615 212.5 566.5 Q162 518 132 452.5 Q102 387 102 312 Q102 253 123 203 Q144 153 181.5 116.5 Q219 80 270.5 59.5 Q322 39 382 39 Z M460 763 Q455 763 454 766 Q453 769 455 773 L531 891 Q533 896 540 896 L595 896 Q600 896 602 893 Q604 890 600 886 L487 767 Q483 763 477 763 L460 763 L460 763 Z " />
<glyph glyph-name="Ocircumflex" unicode="&#xd4;" horiz-adv-x="828" d="M376 -10 Q306 -10 247 14 Q188 38 145 80.5 Q102 123 77.5 181.5 Q53 240 53 309 Q53 396 88 471 Q123 546 181.5 601.5 Q240 657 315.5 688.5 Q391 720 472 720 Q541 720 600.5 696 Q660 672 703.5 628.5 Q747 585 771.5 525 Q796 465 796 393 Q796 309 761 235.5 Q726 162 667.5 107.5 Q609 53 533 21.5 Q457 -10 376 -10 Z M382 39 Q454 39 520 66.5 Q586 94 636.5 141.5 Q687 189 717 253 Q747 317 747 390 Q747 451 726 503 Q705 555 667.5 592.5 Q630 630 579 651 Q528 672 467 672 Q395 672 329 643.5 Q263 615 212.5 566.5 Q162 518 132 452.5 Q102 387 102 312 Q102 253 123 203 Q144 153 181.5 116.5 Q219 80 270.5 59.5 Q322 39 382 39 Z M621 766 Q623 762 623 761 Q623 756 616 756 L592 756 Q585 756 582 761 L503 856 L400 760 Q396 756 390 756 L367 756 Q362 756 360.5 759 Q359 762 363 766 L485 891 Q489 895 495 895 L521 895 Q528 895 531 890 L621 766 L621 766 Z " />
<glyph glyph-name="Odieresis" unicode="&#xd6;" horiz-adv-x="828" d="M376 -10 Q306 -10 247 14 Q188 38 145 80.5 Q102 123 77.5 181.5 Q53 240 53 309 Q53 396 88 471 Q123 546 181.5 601.5 Q240 657 315.5 688.5 Q391 720 472 720 Q541 720 600.5 696 Q660 672 703.5 628.5 Q747 585 771.5 525 Q796 465 796 393 Q796 309 761 235.5 Q726 162 667.5 107.5 Q609 53 533 21.5 Q457 -10 376 -10 Z M382 39 Q454 39 520 66.5 Q586 94 636.5 141.5 Q687 189 717 253 Q747 317 747 390 Q747 451 726 503 Q705 555 667.5 592.5 Q630 630 579 651 Q528 672 467 672 Q395 672 329 643.5 Q263 615 212.5 566.5 Q162 518 132 452.5 Q102 387 102 312 Q102 253 123 203 Q144 153 181.5 116.5 Q219 80 270.5 59.5 Q322 39 382 39 Z M409 779 Q390 779 379 792 Q368 805 368 824 Q368 846 383 862 Q398 878 421 878 Q440 878 451 865 Q462 852 462 833 Q462 811 447 795 Q432 779 409 779 Z M565 779 Q546 779 535 792 Q524 805 524 824 Q524 846 539 862 Q554 878 577 878 Q596 878 607 865 Q618 852 618 833 Q618 811 603 795 Q588 779 565 779 Z " />
<glyph glyph-name="Ograve" unicode="&#xd2;" horiz-adv-x="828" d="M376 -10 Q306 -10 247 14 Q188 38 145 80.5 Q102 123 77.5 181.5 Q53 240 53 309 Q53 396 88 471 Q123 546 181.5 601.5 Q240 657 315.5 688.5 Q391 720 472 720 Q541 720 600.5 696 Q660 672 703.5 628.5 Q747 585 771.5 525 Q796 465 796 393 Q796 309 761 235.5 Q726 162 667.5 107.5 Q609 53 533 21.5 Q457 -10 376 -10 Z M382 39 Q454 39 520 66.5 Q586 94 636.5 141.5 Q687 189 717 253 Q747 317 747 390 Q747 451 726 503 Q705 555 667.5 592.5 Q630 630 579 651 Q528 672 467 672 Q395 672 329 643.5 Q263 615 212.5 566.5 Q162 518 132 452.5 Q102 387 102 312 Q102 253 123 203 Q144 153 181.5 116.5 Q219 80 270.5 59.5 Q322 39 382 39 Z M480 774 Q481 773 481 770 Q481 765 474 765 L456 765 Q448 765 446 770 L364 887 Q362 891 362 892 Q362 897 369 897 L424 897 Q431 897 433 891 L480 774 L480 774 Z " />
<glyph glyph-name="Oslash" unicode="&#xd8;" horiz-adv-x="828" d="M654 668 Q720 625 758 554.5 Q796 484 796 393 Q796 309 761 235.5 Q726 162 667.5 107.5 Q609 53 533 21.5 Q457 -10 376 -10 Q290 -10 219 27 L181 -29 Q178 -34 172 -34 L159 -34 Q154 -34 152.5 -31.5 Q151 -29 154 -24 L197 39 Q130 81 91.5 151 Q53 221 53 309 Q53 396 88 471 Q123 546 181.5 601.5 Q240 657 315.5 688.5 Q391 720 472 720 Q517 720 557 710 Q597 700 632 681 L672 739 Q674 744 681 744 L694 744 Q699 744 700 741 Q701 738 699 734 L654 668 Z M102 312 Q102 237 135.5 177.5 Q169 118 226 82 L604 639 Q574 655 539.5 663.5 Q505 672 467 672 Q395 672 329 643.5 Q263 615 212.5 566.5 Q162 518 132 452.5 Q102 387 102 312 Z M382 39 Q454 39 520 66.5 Q586 94 636.5 141.5 Q687 189 717 253 Q747 317 747 390 Q747 468 715 528.5 Q683 589 626 626 L248 69 Q277 55 311 47 Q345 39 382 39 Z " />
<glyph glyph-name="Otilde" unicode="&#xd5;" horiz-adv-x="828" d="M376 -10 Q306 -10 247 14 Q188 38 145 80.5 Q102 123 77.5 181.5 Q53 240 53 309 Q53 396 88 471 Q123 546 181.5 601.5 Q240 657 315.5 688.5 Q391 720 472 720 Q541 720 600.5 696 Q660 672 703.5 628.5 Q747 585 771.5 525 Q796 465 796 393 Q796 309 761 235.5 Q726 162 667.5 107.5 Q609 53 533 21.5 Q457 -10 376 -10 Z M382 39 Q454 39 520 66.5 Q586 94 636.5 141.5 Q687 189 717 253 Q747 317 747 390 Q747 451 726 503 Q705 555 667.5 592.5 Q630 630 579 651 Q528 672 467 672 Q395 672 329 643.5 Q263 615 212.5 566.5 Q162 518 132 452.5 Q102 387 102 312 Q102 253 123 203 Q144 153 181.5 116.5 Q219 80 270.5 59.5 Q322 39 382 39 Z M430 851 Q408 851 395.5 833.5 Q383 816 381 787 Q381 779 373 779 L357 779 Q349 779 349 787 Q352 832 372 862 Q392 892 429 892 Q456 892 471.5 879 Q487 866 500 852 Q511 841 522.5 831 Q534 821 552 821 Q572 821 583.5 837.5 Q595 854 597 880 Q597 888 605 888 L622 888 Q630 888 630 880 Q627 837 607 808 Q587 779 553 779 Q527 779 511.5 791.5 Q496 804 483 818 Q472 830 460.5 840.5 Q449 851 430 851 Z " />
<glyph glyph-name="OE" unicode="&#x152;" horiz-adv-x="786" d="M786 674 Q784 666 777 666 L493 666 L459 394 L712 394 Q720 394 719 386 L716 357 Q716 349 707 349 L453 349 L415 44 L698 44 Q706 44 705 36 L702 8 Q700 0 693 0 L364 0 Q292 0 235 23 Q178 46 138 87 Q98 128 77 186 Q56 244 56 313 Q56 401 86 474 Q116 547 169 599.5 Q222 652 294.5 681 Q367 710 452 710 L782 710 Q790 710 789 702 L786 674 Z M442 664 Q368 664 307 638 Q246 612 202 566 Q158 520 133.5 456.5 Q109 393 109 317 Q109 257 126.5 207 Q144 157 176.5 122 Q209 87 256.5 67 Q304 47 364 47 L442 664 Z " />
<glyph glyph-name="P" unicode="P" horiz-adv-x="517" d="M290 710 Q392 710 449 660.5 Q506 611 506 526 Q506 476 487 434 Q468 392 433.5 362 Q399 332 349.5 315 Q300 298 240 298 L139 298 L104 7 Q103 0 95 0 L61 0 Q52 0 53 8 L137 703 Q138 710 146 710 L290 710 Z M243 342 Q293 342 332.5 355 Q372 368 399 392 Q426 416 440.5 449.5 Q455 483 455 524 Q455 589 411 627.5 Q367 666 284 666 L184 666 L144 342 L243 342 Z " />
<glyph glyph-name="Thorn" unicode="&#xde;" horiz-adv-x="517" d="M273 567 Q376 567 432.5 517 Q489 467 489 385 Q489 334 470.5 291.5 Q452 249 417 219 Q382 189 332 172 Q282 155 220 155 L122 155 L104 7 Q103 0 95 0 L61 0 Q52 0 53 8 L139 703 Q140 710 148 710 L182 710 Q191 710 190 702 L173 567 L273 567 Z M228 197 Q277 197 315.5 210.5 Q354 224 381 248 Q408 272 422.5 306 Q437 340 437 381 Q437 447 394 486 Q351 525 269 525 L168 525 L127 197 L228 197 Z " />
<glyph glyph-name="Q" unicode="Q" horiz-adv-x="813" d="M796 393 Q796 296 751.5 215.5 Q707 135 634 79 L738 -53 Q742 -59 737 -64 L711 -85 Q705 -91 700 -84 L595 53 Q546 23 490.5 6.5 Q435 -10 376 -10 Q306 -10 247 14 Q188 38 145 80.5 Q102 123 77.5 181.5 Q53 240 53 309 Q53 396 88 471 Q123 546 181.5 601.5 Q240 657 315.5 688.5 Q391 720 472 720 Q541 720 600.5 696 Q660 672 703.5 628.5 Q747 585 771.5 525 Q796 465 796 393 Z M102 312 Q102 253 123 203 Q144 153 181.5 116.5 Q219 80 270.5 59.5 Q322 39 382 39 Q454 39 520 66.5 Q586 94 636.5 141.5 Q687 189 717 253 Q747 317 747 390 Q747 451 726 503 Q705 555 667.5 592.5 Q630 630 579 651 Q528 672 467 672 Q395 672 329 643.5 Q263 615 212.5 566.5 Q162 518 132 452.5 Q102 387 102 312 Z " />
<glyph glyph-name="R" unicode="R" horiz-adv-x="537" d="M500 546 Q500 501 483 464 Q466 427 434.5 400 Q403 373 359 357 Q315 341 261 339 L473 10 Q474 8 474 6 Q474 0 468 0 L424 0 Q417 0 415 5 L208 335 L143 335 L102 7 Q101 0 93 0 L60 0 Q51 0 52 8 L138 703 Q139 710 147 710 L288 710 Q388 710 444 665.5 Q500 621 500 546 Z M148 376 L246 376 Q292 376 330 388 Q368 400 394.5 421 Q421 442 435.5 472 Q450 502 450 538 Q450 598 406 633 Q362 668 283 668 L184 668 L148 376 Z " />
<glyph glyph-name="S" unicode="S" horiz-adv-x="499" d="M197 -11 Q172 -11 147 -8 Q122 -5 98.5 1 Q75 7 54 15.5 Q33 24 17 34 Q13 38 13 44 L17 77 Q19 88 27 81 Q62 60 107 47 Q152 34 200 34 Q243 34 280 45.5 Q317 57 344.5 78 Q372 99 387.5 128.5 Q403 158 403 195 Q403 223 391.5 245 Q380 267 359.5 285.5 Q339 304 311.5 319.5 Q284 335 253 350 Q223 364 193.5 380.5 Q164 397 140.5 418.5 Q117 440 102.5 468 Q88 496 88 532 Q88 572 105.5 606.5 Q123 641 153.5 666.5 Q184 692 225 706 Q266 720 314 720 Q359 720 397.5 711.5 Q436 703 466 689 Q473 686 471 679 L467 648 Q465 639 457 643 Q429 658 392 667 Q355 676 313 676 Q278 676 247 666 Q216 656 193 638 Q170 620 156 594.5 Q142 569 142 538 Q142 509 154.5 487 Q167 465 187 448 Q207 431 233.5 417 Q260 403 288 390 Q323 374 353.5 356 Q384 338 406.5 315.5 Q429 293 442 265.5 Q455 238 455 203 Q455 156 435.5 117 Q416 78 381.5 49.5 Q347 21 299.5 5 Q252 -11 197 -11 Z " />
<glyph glyph-name="Scaron" unicode="&#x160;" horiz-adv-x="499" d="M197 -11 Q172 -11 147 -8 Q122 -5 98.5 1 Q75 7 54 15.5 Q33 24 17 34 Q13 38 13 44 L17 77 Q19 88 27 81 Q62 60 107 47 Q152 34 200 34 Q243 34 280 45.5 Q317 57 344.5 78 Q372 99 387.5 128.5 Q403 158 403 195 Q403 223 391.5 245 Q380 267 359.5 285.5 Q339 304 311.5 319.5 Q284 335 253 350 Q223 364 193.5 380.5 Q164 397 140.5 418.5 Q117 440 102.5 468 Q88 496 88 532 Q88 572 105.5 606.5 Q123 641 153.5 666.5 Q184 692 225 706 Q266 720 314 720 Q359 720 397.5 711.5 Q436 703 466 689 Q473 686 471 679 L467 648 Q465 639 457 643 Q429 658 392 667 Q355 676 313 676 Q278 676 247 666 Q216 656 193 638 Q170 620 156 594.5 Q142 569 142 538 Q142 509 154.5 487 Q167 465 187 448 Q207 431 233.5 417 Q260 403 288 390 Q323 374 353.5 356 Q384 338 406.5 315.5 Q429 293 442 265.5 Q455 238 455 203 Q455 156 435.5 117 Q416 78 381.5 49.5 Q347 21 299.5 5 Q252 -11 197 -11 Z M420 891 Q426 895 430 895 L451 895 Q456 895 457.5 892 Q459 889 455 885 L330 760 Q326 756 320 756 L301 756 Q294 756 291 761 L197 885 Q195 889 195 890 Q195 895 202 895 L225 895 Q232 895 235 890 L316 796 L420 891 L420 891 Z " />
<glyph glyph-name="T" unicode="T" horiz-adv-x="506" d="M538 710 Q547 710 546 702 L542 671 Q541 664 533 664 L331 664 L249 7 Q248 0 240 0 L206 0 Q197 0 198 8 L280 664 L77 664 Q69 664 70 672 L73 702 Q73 710 82 710 L538 710 L538 710 Z " />
<glyph glyph-name="U" unicode="U" horiz-adv-x="652" d="M294 -11 Q246 -11 207 2 Q168 15 139.5 42.5 Q111 70 95.5 111.5 Q80 153 80 210 Q80 236 83 266 L137 703 Q138 710 146 710 L180 710 Q189 710 188 702 L134 264 Q132 250 131 237 Q130 224 130 212 Q130 165 142.5 132 Q155 99 177.5 78 Q200 57 231.5 47 Q263 37 301 37 Q343 37 380 49.5 Q417 62 446.5 89.5 Q476 117 496 160 Q516 203 524 264 L578 703 Q579 710 587 710 L620 710 Q629 710 628 702 L574 266 Q565 194 540 141.5 Q515 89 478 55.5 Q441 22 394 5.5 Q347 -11 294 -11 Z " />
<glyph glyph-name="Uacute" unicode="&#xda;" horiz-adv-x="652" d="M294 -11 Q246 -11 207 2 Q168 15 139.5 42.5 Q111 70 95.5 111.5 Q80 153 80 210 Q80 236 83 266 L137 703 Q138 710 146 710 L180 710 Q189 710 188 702 L134 264 Q132 250 131 237 Q130 224 130 212 Q130 165 142.5 132 Q155 99 177.5 78 Q200 57 231.5 47 Q263 37 301 37 Q343 37 380 49.5 Q417 62 446.5 89.5 Q476 117 496 160 Q516 203 524 264 L578 703 Q579 710 587 710 L620 710 Q629 710 628 702 L574 266 Q565 194 540 141.5 Q515 89 478 55.5 Q441 22 394 5.5 Q347 -11 294 -11 Z M368 763 Q363 763 362 766 Q361 769 363 773 L439 891 Q441 896 448 896 L503 896 Q508 896 510 893 Q512 890 508 886 L395 767 Q391 763 385 763 L368 763 L368 763 Z " />
<glyph glyph-name="Ucircumflex" unicode="&#xdb;" horiz-adv-x="652" d="M294 -11 Q246 -11 207 2 Q168 15 139.5 42.5 Q111 70 95.5 111.5 Q80 153 80 210 Q80 236 83 266 L137 703 Q138 710 146 710 L180 710 Q189 710 188 702 L134 264 Q132 250 131 237 Q130 224 130 212 Q130 165 142.5 132 Q155 99 177.5 78 Q200 57 231.5 47 Q263 37 301 37 Q343 37 380 49.5 Q417 62 446.5 89.5 Q476 117 496 160 Q516 203 524 264 L578 703 Q579 710 587 710 L620 710 Q629 710 628 702 L574 266 Q565 194 540 141.5 Q515 89 478 55.5 Q441 22 394 5.5 Q347 -11 294 -11 Z M529 766 Q531 762 531 761 Q531 756 524 756 L500 756 Q493 756 490 761 L411 856 L308 760 Q304 756 298 756 L275 756 Q270 756 268.5 759 Q267 762 271 766 L393 891 Q397 895 403 895 L429 895 Q436 895 439 890 L529 766 L529 766 Z " />
<glyph glyph-name="Udieresis" unicode="&#xdc;" horiz-adv-x="652" d="M294 -11 Q246 -11 207 2 Q168 15 139.5 42.5 Q111 70 95.5 111.5 Q80 153 80 210 Q80 236 83 266 L137 703 Q138 710 146 710 L180 710 Q189 710 188 702 L134 264 Q132 250 131 237 Q130 224 130 212 Q130 165 142.5 132 Q155 99 177.5 78 Q200 57 231.5 47 Q263 37 301 37 Q343 37 380 49.5 Q417 62 446.5 89.5 Q476 117 496 160 Q516 203 524 264 L578 703 Q579 710 587 710 L620 710 Q629 710 628 702 L574 266 Q565 194 540 141.5 Q515 89 478 55.5 Q441 22 394 5.5 Q347 -11 294 -11 Z M317 779 Q298 779 287 792 Q276 805 276 824 Q276 846 291 862 Q306 878 329 878 Q348 878 359 865 Q370 852 370 833 Q370 811 355 795 Q340 779 317 779 Z M473 779 Q454 779 443 792 Q432 805 432 824 Q432 846 447 862 Q462 878 485 878 Q504 878 515 865 Q526 852 526 833 Q526 811 511 795 Q496 779 473 779 Z " />
<glyph glyph-name="Ugrave" unicode="&#xd9;" horiz-adv-x="652" d="M294 -11 Q246 -11 207 2 Q168 15 139.5 42.5 Q111 70 95.5 111.5 Q80 153 80 210 Q80 236 83 266 L137 703 Q138 710 146 710 L180 710 Q189 710 188 702 L134 264 Q132 250 131 237 Q130 224 130 212 Q130 165 142.5 132 Q155 99 177.5 78 Q200 57 231.5 47 Q263 37 301 37 Q343 37 380 49.5 Q417 62 446.5 89.5 Q476 117 496 160 Q516 203 524 264 L578 703 Q579 710 587 710 L620 710 Q629 710 628 702 L574 266 Q565 194 540 141.5 Q515 89 478 55.5 Q441 22 394 5.5 Q347 -11 294 -11 Z M388 774 Q389 773 389 770 Q389 765 382 765 L364 765 Q356 765 354 770 L272 887 Q270 891 270 892 Q270 897 277 897 L332 897 Q339 897 341 891 L388 774 L388 774 Z " />
<glyph glyph-name="V" unicode="V" horiz-adv-x="632" d="M623 704 Q626 710 632 710 L671 710 Q676 710 677.5 707 Q679 704 677 700 L305 -3 Q302 -9 296 -9 L278 -9 Q271 -9 269 -2 L69 701 L69 703 Q69 710 75 710 L114 710 Q121 710 123 703 L296 78 L623 704 L623 704 Z " />
<glyph glyph-name="W" unicode="W" horiz-adv-x="941" d="M933 704 Q935 710 943 710 L978 710 Q987 710 984 701 L683 4 Q681 -2 673 -2 L641 -2 Q635 -2 633 5 L513 630 L247 4 Q245 -2 237 -2 L206 -2 Q200 -2 198 5 L71 701 L71 703 Q71 710 78 710 L114 710 Q120 710 122 703 L233 85 L496 704 Q498 710 506 710 L540 710 Q546 710 548 703 L666 78 L933 704 L933 704 Z " />
<glyph glyph-name="X" unicode="X" horiz-adv-x="618" d="M640 710 Q645 710 646.5 707 Q648 704 645 700 L353 363 L569 10 Q570 8 570 5 Q570 0 564 0 L526 0 Q520 0 517 5 L321 326 L45 5 Q42 0 35 0 L-3 0 Q-8 0 -9 3 Q-10 6 -7 10 L298 362 L90 700 Q89 702 89 705 Q89 710 95 710 L134 710 Q140 710 143 705 L331 399 L592 705 Q595 710 602 710 L640 710 L640 710 Z " />
<glyph glyph-name="Y" unicode="Y" horiz-adv-x="564" d="M545 705 Q548 710 555 710 L594 710 Q599 710 600.5 707.5 Q602 705 599 700 L313 305 L276 7 Q275 0 267 0 L232 0 Q223 0 224 8 L261 305 L74 701 Q74 702 73.5 702.5 Q73 703 73 705 Q73 710 80 710 L120 710 Q127 710 130 704 L294 352 L545 705 L545 705 Z " />
<glyph glyph-name="Yacute" unicode="&#xdd;" horiz-adv-x="564" d="M545 705 Q548 710 555 710 L594 710 Q599 710 600.5 707.5 Q602 705 599 700 L313 305 L276 7 Q275 0 267 0 L232 0 Q223 0 224 8 L261 305 L74 701 Q74 702 73.5 702.5 Q73 703 73 705 Q73 710 80 710 L120 710 Q127 710 130 704 L294 352 L545 705 L545 705 Z M310 781 Q305 781 304 784 Q303 787 305 791 L381 909 Q383 914 390 914 L445 914 Q450 914 452 911 Q454 908 450 904 L337 785 Q333 781 327 781 L310 781 L310 781 Z " />
<glyph glyph-name="Ydieresis" unicode="&#x178;" horiz-adv-x="564" d="M545 705 Q548 710 555 710 L594 710 Q599 710 600.5 707.5 Q602 705 599 700 L313 305 L276 7 Q275 0 267 0 L232 0 Q223 0 224 8 L261 305 L74 701 Q74 702 73.5 702.5 Q73 703 73 705 Q73 710 80 710 L120 710 Q127 710 130 704 L294 352 L545 705 L545 705 Z M271 779 Q252 779 241 792 Q230 805 230 824 Q230 846 245 862 Q260 878 283 878 Q302 878 313 865 Q324 852 324 833 Q324 811 309 795 Q294 779 271 779 Z M427 779 Q408 779 397 792 Q386 805 386 824 Q386 846 401 862 Q416 878 439 878 Q458 878 469 865 Q480 852 480 833 Q480 811 465 795 Q450 779 427 779 Z " />
<glyph glyph-name="Z" unicode="Z" horiz-adv-x="565" d="M488 44 Q496 44 495 36 L492 8 Q490 0 483 0 L22 0 Q12 0 14 9 L16 21 Q18 27 20 30 L501 666 L128 666 Q120 666 121 674 L124 702 Q126 710 133 710 L562 710 Q571 710 570 701 L568 688 Q566 682 564 679 L82 44 L488 44 Z " />
<glyph glyph-name="Zcaron" unicode="&#x17d;" horiz-adv-x="565" d="M488 44 Q496 44 495 36 L492 8 Q490 0 483 0 L22 0 Q12 0 14 9 L16 21 Q18 27 20 30 L501 666 L128 666 Q120 666 121 674 L124 702 Q126 710 133 710 L562 710 Q571 710 570 701 L568 688 Q566 682 564 679 L82 44 L488 44 Z M453 891 Q459 895 463 895 L484 895 Q489 895 490.5 892 Q492 889 488 885 L363 760 Q359 756 353 756 L334 756 Q327 756 324 761 L230 885 Q228 889 228 890 Q228 895 235 895 L258 895 Q265 895 268 890 L349 796 L453 891 L453 891 Z " />
<glyph glyph-name="a" unicode="a" horiz-adv-x="598" d="M502 473 Q503 480 511 480 L544 480 Q553 480 552 472 L495 7 Q494 0 486 0 L453 0 Q444 0 445 8 L457 108 Q440 79 417 57 Q394 35 367 20 Q340 5 311 -2.5 Q282 -10 253 -10 Q214 -10 177.5 5 Q141 20 112.5 48 Q84 76 67 117 Q50 158 50 210 Q50 276 72.5 328 Q95 380 132 416 Q169 452 216.5 471 Q264 490 313 490 Q375 490 422.5 461 Q470 432 489 373 L502 473 Z M265 37 Q304 37 342 53 Q380 69 410 99 Q440 129 458.5 172 Q477 215 477 270 Q477 312 464.5 344 Q452 376 430 398 Q408 420 378 431.5 Q348 443 314 443 Q273 443 234.5 427 Q196 411 166.5 381.5 Q137 352 119 309.5 Q101 267 101 213 Q101 171 114.5 138.5 Q128 106 150.5 83.5 Q173 61 202.5 49 Q232 37 265 37 Z " />
<glyph glyph-name="aacute" unicode="&#xe1;" horiz-adv-x="609" d="M502 473 Q503 480 511 480 L544 480 Q553 480 552 472 L495 7 Q494 0 486 0 L453 0 Q444 0 445 8 L457 108 Q440 79 417 57 Q394 35 367 20 Q340 5 311 -2.5 Q282 -10 253 -10 Q214 -10 177.5 5 Q141 20 112.5 48 Q84 76 67 117 Q50 158 50 210 Q50 276 72.5 328 Q95 380 132 416 Q169 452 216.5 471 Q264 490 313 490 Q375 490 422.5 461 Q470 432 489 373 L502 473 Z M265 37 Q304 37 342 53 Q380 69 410 99 Q440 129 458.5 172 Q477 215 477 270 Q477 312 464.5 344 Q452 376 430 398 Q408 420 378 431.5 Q348 443 314 443 Q273 443 234.5 427 Q196 411 166.5 381.5 Q137 352 119 309.5 Q101 267 101 213 Q101 171 114.5 138.5 Q128 106 150.5 83.5 Q173 61 202.5 49 Q232 37 265 37 Z M310 551 Q305 551 304 554 Q303 557 305 561 L423 735 Q427 741 433 739 L484 733 Q495 731 488 723 L340 555 Q336 551 330 551 L310 551 L310 551 Z " />
<glyph glyph-name="acircumflex" unicode="&#xe2;" horiz-adv-x="609" d="M502 473 Q503 480 511 480 L544 480 Q553 480 552 472 L495 7 Q494 0 486 0 L453 0 Q444 0 445 8 L457 108 Q440 79 417 57 Q394 35 367 20 Q340 5 311 -2.5 Q282 -10 253 -10 Q214 -10 177.5 5 Q141 20 112.5 48 Q84 76 67 117 Q50 158 50 210 Q50 276 72.5 328 Q95 380 132 416 Q169 452 216.5 471 Q264 490 313 490 Q375 490 422.5 461 Q470 432 489 373 L502 473 Z M265 37 Q304 37 342 53 Q380 69 410 99 Q440 129 458.5 172 Q477 215 477 270 Q477 312 464.5 344 Q452 376 430 398 Q408 420 378 431.5 Q348 443 314 443 Q273 443 234.5 427 Q196 411 166.5 381.5 Q137 352 119 309.5 Q101 267 101 213 Q101 171 114.5 138.5 Q128 106 150.5 83.5 Q173 61 202.5 49 Q232 37 265 37 Z M483 571 Q484 570 484 567 Q484 562 477 562 L452 562 Q446 562 443 568 L370 705 L261 567 Q258 562 251 562 L227 562 Q222 562 220.5 564.5 Q219 567 222 572 L352 744 Q355 749 362 749 L387 749 Q393 749 396 743 L483 571 L483 571 Z " />
<glyph glyph-name="adieresis" unicode="&#xe4;" horiz-adv-x="609" d="M502 473 Q503 480 511 480 L544 480 Q553 480 552 472 L495 7 Q494 0 486 0 L453 0 Q444 0 445 8 L457 108 Q440 79 417 57 Q394 35 367 20 Q340 5 311 -2.5 Q282 -10 253 -10 Q214 -10 177.5 5 Q141 20 112.5 48 Q84 76 67 117 Q50 158 50 210 Q50 276 72.5 328 Q95 380 132 416 Q169 452 216.5 471 Q264 490 313 490 Q375 490 422.5 461 Q470 432 489 373 L502 473 Z M265 37 Q304 37 342 53 Q380 69 410 99 Q440 129 458.5 172 Q477 215 477 270 Q477 312 464.5 344 Q452 376 430 398 Q408 420 378 431.5 Q348 443 314 443 Q273 443 234.5 427 Q196 411 166.5 381.5 Q137 352 119 309.5 Q101 267 101 213 Q101 171 114.5 138.5 Q128 106 150.5 83.5 Q173 61 202.5 49 Q232 37 265 37 Z M292 647 Q277 647 269 657 Q261 667 261 681 Q261 698 272.5 710 Q284 722 301 722 Q315 722 323.5 712 Q332 702 332 688 Q332 671 320.5 659 Q309 647 292 647 Z M430 647 Q415 647 407 657 Q399 667 399 681 Q399 698 410.5 710 Q422 722 439 722 Q453 722 461.5 712 Q470 702 470 688 Q470 671 458.5 659 Q447 647 430 647 Z " />
<glyph glyph-name="agrave" unicode="&#xe0;" horiz-adv-x="609" d="M502 473 Q503 480 511 480 L544 480 Q553 480 552 472 L495 7 Q494 0 486 0 L453 0 Q444 0 445 8 L457 108 Q440 79 417 57 Q394 35 367 20 Q340 5 311 -2.5 Q282 -10 253 -10 Q214 -10 177.5 5 Q141 20 112.5 48 Q84 76 67 117 Q50 158 50 210 Q50 276 72.5 328 Q95 380 132 416 Q169 452 216.5 471 Q264 490 313 490 Q375 490 422.5 461 Q470 432 489 373 L502 473 Z M265 37 Q304 37 342 53 Q380 69 410 99 Q440 129 458.5 172 Q477 215 477 270 Q477 312 464.5 344 Q452 376 430 398 Q408 420 378 431.5 Q348 443 314 443 Q273 443 234.5 427 Q196 411 166.5 381.5 Q137 352 119 309.5 Q101 267 101 213 Q101 171 114.5 138.5 Q128 106 150.5 83.5 Q173 61 202.5 49 Q232 37 265 37 Z M409 561 Q410 559 410 557 Q410 551 404 551 L384 551 Q378 551 374 555 L226 723 Q219 731 230 733 L281 739 L283 739 Q287 739 291 735 L409 561 L409 561 Z " />
<glyph glyph-name="aring" unicode="&#xe5;" horiz-adv-x="609" d="M502 473 Q503 480 511 480 L544 480 Q553 480 552 472 L495 7 Q494 0 486 0 L453 0 Q444 0 445 8 L457 108 Q440 79 417 57 Q394 35 367 20 Q340 5 311 -2.5 Q282 -10 253 -10 Q214 -10 177.5 5 Q141 20 112.5 48 Q84 76 67 117 Q50 158 50 210 Q50 276 72.5 328 Q95 380 132 416 Q169 452 216.5 471 Q264 490 313 490 Q375 490 422.5 461 Q470 432 489 373 L502 473 Z M265 37 Q304 37 342 53 Q380 69 410 99 Q440 129 458.5 172 Q477 215 477 270 Q477 312 464.5 344 Q452 376 430 398 Q408 420 378 431.5 Q348 443 314 443 Q273 443 234.5 427 Q196 411 166.5 381.5 Q137 352 119 309.5 Q101 267 101 213 Q101 171 114.5 138.5 Q128 106 150.5 83.5 Q173 61 202.5 49 Q232 37 265 37 Z M351 575 Q318 575 297 597 Q276 619 276 652 Q276 694 304.5 720 Q333 746 371 746 Q403 746 425 725 Q447 704 447 672 Q447 651 439 633.5 Q431 616 418 603 Q405 590 387.5 582.5 Q370 575 351 575 Z M354 602 Q380 602 399 621 Q418 640 418 669 Q418 692 404.5 706.5 Q391 721 369 721 Q341 721 323 702 Q305 683 305 655 Q305 632 318 617 Q331 602 354 602 Z " />
<glyph glyph-name="atilde" unicode="&#xe3;" horiz-adv-x="609" d="M502 473 Q503 480 511 480 L544 480 Q553 480 552 472 L495 7 Q494 0 486 0 L453 0 Q444 0 445 8 L457 108 Q440 79 417 57 Q394 35 367 20 Q340 5 311 -2.5 Q282 -10 253 -10 Q214 -10 177.5 5 Q141 20 112.5 48 Q84 76 67 117 Q50 158 50 210 Q50 276 72.5 328 Q95 380 132 416 Q169 452 216.5 471 Q264 490 313 490 Q375 490 422.5 461 Q470 432 489 373 L502 473 Z M265 37 Q304 37 342 53 Q380 69 410 99 Q440 129 458.5 172 Q477 215 477 270 Q477 312 464.5 344 Q452 376 430 398 Q408 420 378 431.5 Q348 443 314 443 Q273 443 234.5 427 Q196 411 166.5 381.5 Q137 352 119 309.5 Q101 267 101 213 Q101 171 114.5 138.5 Q128 106 150.5 83.5 Q173 61 202.5 49 Q232 37 265 37 Z M416 603 Q391 603 376 616 Q361 629 349 644 Q339 658 328.5 668 Q318 678 301 678 Q278 678 263.5 659 Q249 640 245 609 Q243 601 236 601 L220 601 Q210 601 212 610 Q219 657 242 688.5 Q265 720 303 720 Q329 720 344 706 Q359 692 370 678 Q381 665 390.5 655.5 Q400 646 417 646 Q438 646 451.5 663 Q465 680 469 707 Q471 715 478 715 L494 715 Q504 715 502 704 Q495 660 472.5 631.5 Q450 603 416 603 Z " />
<glyph glyph-name="ae" unicode="&#xe6;" horiz-adv-x="790" d="M605 490 Q682 490 723 440.5 Q764 391 761 303 Q761 294 760 283.5 Q759 273 757 265 Q756 258 748 258 L420 258 Q417 234 417 209 Q417 121 459 78 Q501 35 570 35 Q608 35 647 47.5 Q686 60 718 84 Q722 86 723 86 Q729 86 727 78 L724 49 Q724 43 718 40 Q687 17 645.5 3.5 Q604 -10 561 -10 Q492 -10 445 24.5 Q398 59 379 122 Q344 54 287 23 Q230 -8 171 -8 Q109 -8 72 23 Q35 54 35 110 Q35 150 52 181.5 Q69 213 99.5 234.5 Q130 256 173 267.5 Q216 279 268 279 Q298 279 328.5 278 Q359 277 375 275 L379 309 Q380 317 380.5 323.5 Q381 330 381 336 Q381 394 347 420.5 Q313 447 244 447 Q211 447 175 438.5 Q139 430 108 416 Q106 415 103 415 Q98 415 99 422 L102 452 Q102 457 109 461 Q140 475 178.5 482.5 Q217 490 255 490 Q329 490 369.5 465.5 Q410 441 422 390 Q454 437 501 463.5 Q548 490 605 490 Z M600 445 Q540 445 494 406.5 Q448 368 428 297 L716 297 Q719 364 689 404.5 Q659 445 600 445 Z M184 34 Q209 34 238 44.5 Q267 55 293 76 Q319 97 339 130 Q359 163 365 208 Q366 213 367 213 L369 227 L369 237 Q361 238 349 238.5 Q337 239 323.5 240 Q310 241 296 241.5 Q282 242 270 242 Q182 242 133 209.5 Q84 177 84 117 Q84 75 113 54.5 Q142 34 184 34 Z " />
<glyph glyph-name="b" unicode="b" horiz-adv-x="598" d="M346 490 Q388 490 424.5 475.5 Q461 461 488.5 433.5 Q516 406 532 365.5 Q548 325 548 274 Q548 207 524.5 154 Q501 101 463.5 64.5 Q426 28 379 9 Q332 -10 286 -10 Q257 -10 229.5 -2 Q202 6 178.5 21 Q155 36 137 58.5 Q119 81 109 110 L96 7 Q95 0 87 0 L55 0 Q46 0 47 8 L137 742 Q138 749 146 749 L178 749 Q187 749 186 741 L141 374 Q176 432 231.5 461 Q287 490 346 490 Z M283 37 Q322 37 360 52.5 Q398 68 428.5 98 Q459 128 478 171 Q497 214 497 268 Q497 309 484.5 341.5 Q472 374 450 396.5 Q428 419 398 431 Q368 443 333 443 Q292 443 254 427 Q216 411 186.5 381.5 Q157 352 139 309.5 Q121 267 121 213 Q121 171 134 138 Q147 105 169.5 82.5 Q192 60 221 48.5 Q250 37 283 37 Z " />
<glyph glyph-name="c" unicode="c" horiz-adv-x="484" d="M278 -10 Q230 -10 188.5 5.5 Q147 21 116 50 Q85 79 67.5 119.5 Q50 160 50 211 Q50 273 72.5 324.5 Q95 376 134 412.5 Q173 449 225.5 469.5 Q278 490 338 490 Q373 490 403.5 484 Q434 478 459 468 Q466 465 464 458 L460 425 Q459 415 450 421 Q427 435 399.5 441 Q372 447 340 447 Q292 447 249 430.5 Q206 414 173 383.5 Q140 353 121 310 Q102 267 102 214 Q102 172 116.5 138.5 Q131 105 156.5 81.5 Q182 58 216.5 46 Q251 34 292 34 Q357 34 412 60 Q414 61 417 61 Q422 61 421 54 L417 22 Q416 15 411 14 Q384 3 350 -3.5 Q316 -10 278 -10 Z " />
<glyph glyph-name="ccedilla" unicode="&#xe7;" horiz-adv-x="485" d="M340 447 Q292 447 249 430.5 Q206 414 173 383.5 Q140 353 121 310 Q102 267 102 214 Q102 172 116.5 138.5 Q131 105 156.5 81.5 Q182 58 216.5 46 Q251 34 292 34 Q357 34 412 60 Q414 61 417 61 Q422 61 421 54 L417 22 Q416 15 410 14 Q384 3 350 -3.5 Q316 -10 280 -10 L251 -45 Q256 -44 265 -44 Q294 -44 312 -58.5 Q330 -73 330 -98 Q330 -116 322 -130 Q314 -144 300 -154 Q286 -164 267.5 -169.5 Q249 -175 229 -175 Q191 -175 167 -162 Q162 -160 162 -152 L163 -139 Q163 -129 173 -134 Q185 -139 199 -142.5 Q213 -146 230 -146 Q255 -146 275 -134 Q295 -122 295 -102 Q295 -85 281.5 -77 Q268 -69 248 -69 Q225 -69 207 -75 Q205 -74 204 -72 Q202 -68 204 -66 L251 -9 Q208 -5 171 12.5 Q134 30 107 58.5 Q80 87 65 125.5 Q50 164 50 211 Q50 273 72.5 324.5 Q95 376 134 412.5 Q173 449 225.5 469.5 Q278 490 338 490 Q373 490 403.5 484 Q434 478 459 468 Q466 465 464 458 L460 425 Q459 415 451 420 Q428 434 400 440.5 Q372 447 340 447 Z " />
<glyph glyph-name="d" unicode="d" horiz-adv-x="593" d="M535 742 Q536 749 544 749 L577 749 Q586 749 585 741 L495 7 Q494 0 486 0 L453 0 Q444 0 445 8 L457 109 Q440 80 417 57.5 Q394 35 367 20 Q340 5 311 -2.5 Q282 -10 253 -10 Q214 -10 177.5 5 Q141 20 112.5 48 Q84 76 67 117 Q50 158 50 210 Q50 276 72.5 328 Q95 380 132.5 416 Q170 452 217 471 Q264 490 314 490 Q374 490 422 461 Q470 432 489 372 L535 742 Z M265 37 Q304 37 342 53 Q380 69 410 99 Q440 129 458.5 172 Q477 215 477 269 Q477 310 465 342 Q453 374 431 396.5 Q409 419 379.5 431 Q350 443 315 443 Q274 443 235.5 427 Q197 411 167 381.5 Q137 352 119 309.5 Q101 267 101 213 Q101 171 114.5 138.5 Q128 106 150.5 83.5 Q173 61 202.5 49 Q232 37 265 37 Z " />
<glyph glyph-name="eth" unicode="&#xf0;" horiz-adv-x="598" d="M400 622 Q484 537 517 453 Q550 369 550 297 Q550 223 525.5 166 Q501 109 461.5 70 Q422 31 372 10.5 Q322 -10 270 -10 Q224 -10 184 6 Q144 22 114 50.5 Q84 79 67 119 Q50 159 50 207 Q50 266 73 315 Q96 364 133.5 399.5 Q171 435 219 455 Q267 475 318 475 Q387 475 434.5 440.5 Q482 406 505 354 L507 355 Q496 413 461 476 Q426 539 365 599 L256 527 Q249 522 245 529 L239 539 Q236 545 242 549 L346 617 Q324 637 299.5 656 Q275 675 247 692 Q240 696 247 700 L274 716 Q282 720 288 715 Q340 677 381 640 L495 715 Q500 719 504 713 L510 702 Q513 696 507 692 L400 622 Z M275 36 Q318 36 358 53 Q398 70 429 99.5 Q460 129 478.5 168.5 Q497 208 497 254 Q497 292 483 324 Q469 356 445 379.5 Q421 403 388.5 416.5 Q356 430 320 430 Q278 430 238 413.5 Q198 397 167.5 368 Q137 339 118 299 Q99 259 99 213 Q99 175 112.5 142.5 Q126 110 150 86.5 Q174 63 206 49.5 Q238 36 275 36 Z " />
<glyph glyph-name="e" unicode="e" horiz-adv-x="520" d="M308 490 Q390 490 440.5 440.5 Q491 391 491 303 Q491 281 486 270 Q481 259 463 259 L104 259 Q101 238 101 217 Q101 174 114.5 140.5 Q128 107 151 83.5 Q174 60 206 47.5 Q238 35 276 35 Q320 35 364.5 50.5 Q409 66 448 97 Q452 99 453 99 Q457 99 457 92 L455 58 Q455 52 450 48 Q411 20 364 5 Q317 -10 269 -10 Q221 -10 180.5 6 Q140 22 111 51 Q82 80 66 121 Q50 162 50 213 Q50 272 71 323 Q92 374 127 411 Q162 448 209 469 Q256 490 308 490 Z M305 445 Q240 445 187.5 404.5 Q135 364 113 297 L447 297 Q448 365 410.5 405 Q373 445 305 445 Z " />
<glyph glyph-name="eacute" unicode="&#xe9;" horiz-adv-x="523" d="M308 490 Q390 490 440.5 440.5 Q491 391 491 303 Q491 281 486 270 Q481 259 463 259 L104 259 Q101 238 101 217 Q101 174 114.5 140.5 Q128 107 151 83.5 Q174 60 206 47.5 Q238 35 276 35 Q320 35 364.5 50.5 Q409 66 448 97 Q452 99 453 99 Q457 99 457 92 L455 58 Q455 52 450 48 Q411 20 364 5 Q317 -10 269 -10 Q221 -10 180.5 6 Q140 22 111 51 Q82 80 66 121 Q50 162 50 213 Q50 272 71 323 Q92 374 127 411 Q162 448 209 469 Q256 490 308 490 Z M305 445 Q240 445 187.5 404.5 Q135 364 113 297 L447 297 Q448 365 410.5 405 Q373 445 305 445 Z M262 551 Q257 551 256 554 Q255 557 257 561 L375 735 Q379 741 385 739 L436 733 Q447 731 440 723 L292 555 Q288 551 282 551 L262 551 L262 551 Z " />
<glyph glyph-name="ecircumflex" unicode="&#xea;" horiz-adv-x="523" d="M308 490 Q390 490 440.5 440.5 Q491 391 491 303 Q491 281 486 270 Q481 259 463 259 L104 259 Q101 238 101 217 Q101 174 114.5 140.5 Q128 107 151 83.5 Q174 60 206 47.5 Q238 35 276 35 Q320 35 364.5 50.5 Q409 66 448 97 Q452 99 453 99 Q457 99 457 92 L455 58 Q455 52 450 48 Q411 20 364 5 Q317 -10 269 -10 Q221 -10 180.5 6 Q140 22 111 51 Q82 80 66 121 Q50 162 50 213 Q50 272 71 323 Q92 374 127 411 Q162 448 209 469 Q256 490 308 490 Z M305 445 Q240 445 187.5 404.5 Q135 364 113 297 L447 297 Q448 365 410.5 405 Q373 445 305 445 Z M435 571 Q436 570 436 567 Q436 562 429 562 L404 562 Q398 562 395 568 L322 705 L213 567 Q210 562 203 562 L179 562 Q174 562 172.5 564.5 Q171 567 174 572 L304 744 Q307 749 314 749 L339 749 Q345 749 348 743 L435 571 L435 571 Z " />
<glyph glyph-name="edieresis" unicode="&#xeb;" horiz-adv-x="523" d="M308 490 Q390 490 440.5 440.5 Q491 391 491 303 Q491 281 486 270 Q481 259 463 259 L104 259 Q101 238 101 217 Q101 174 114.5 140.5 Q128 107 151 83.5 Q174 60 206 47.5 Q238 35 276 35 Q320 35 364.5 50.5 Q409 66 448 97 Q452 99 453 99 Q457 99 457 92 L455 58 Q455 52 450 48 Q411 20 364 5 Q317 -10 269 -10 Q221 -10 180.5 6 Q140 22 111 51 Q82 80 66 121 Q50 162 50 213 Q50 272 71 323 Q92 374 127 411 Q162 448 209 469 Q256 490 308 490 Z M305 445 Q240 445 187.5 404.5 Q135 364 113 297 L447 297 Q448 365 410.5 405 Q373 445 305 445 Z M244 647 Q229 647 221 657 Q213 667 213 681 Q213 698 224.5 710 Q236 722 253 722 Q267 722 275.5 712 Q284 702 284 688 Q284 671 272.5 659 Q261 647 244 647 Z M382 647 Q367 647 359 657 Q351 667 351 681 Q351 698 362.5 710 Q374 722 391 722 Q405 722 413.5 712 Q422 702 422 688 Q422 671 410.5 659 Q399 647 382 647 Z " />
<glyph glyph-name="egrave" unicode="&#xe8;" horiz-adv-x="523" d="M308 490 Q390 490 440.5 440.5 Q491 391 491 303 Q491 281 486 270 Q481 259 463 259 L104 259 Q101 238 101 217 Q101 174 114.5 140.5 Q128 107 151 83.5 Q174 60 206 47.5 Q238 35 276 35 Q320 35 364.5 50.5 Q409 66 448 97 Q452 99 453 99 Q457 99 457 92 L455 58 Q455 52 450 48 Q411 20 364 5 Q317 -10 269 -10 Q221 -10 180.5 6 Q140 22 111 51 Q82 80 66 121 Q50 162 50 213 Q50 272 71 323 Q92 374 127 411 Q162 448 209 469 Q256 490 308 490 Z M305 445 Q240 445 187.5 404.5 Q135 364 113 297 L447 297 Q448 365 410.5 405 Q373 445 305 445 Z M361 561 Q362 559 362 557 Q362 551 356 551 L336 551 Q330 551 326 555 L178 723 Q171 731 182 733 L233 739 L235 739 Q239 739 243 735 L361 561 L361 561 Z " />
<glyph glyph-name="eogonek" unicode="&#x119;" horiz-adv-x="523" d="M308 490 Q390 490 440.5 440.5 Q491 391 491 303 Q491 281 486 270 Q481 259 463 259 L104 259 Q101 238 101 217 Q101 174 114.5 140.5 Q128 107 151 83.5 Q174 60 206 47.5 Q238 35 276 35 Q320 35 364.5 50.5 Q409 66 448 97 Q452 99 453 99 Q457 99 457 92 L455 58 Q455 52 450 48 Q428 32 404 20.5 Q380 9 354 2 Q300 -30 274.5 -53.5 Q249 -77 249 -103 Q249 -122 262 -132 Q275 -142 294 -142 Q313 -142 332 -134 Q334 -133 337 -133 Q342 -133 341 -140 L339 -155 Q338 -162 333 -164 Q309 -175 282 -175 Q250 -175 229 -157 Q208 -139 208 -108 Q208 -79 227 -56 Q246 -33 281 -10 L269 -10 Q221 -10 180.5 6 Q140 22 111 51 Q82 80 66 121 Q50 162 50 213 Q50 272 71 323 Q92 374 127 411 Q162 448 209 469 Q256 490 308 490 Z M305 445 Q240 445 187.5 404.5 Q135 364 113 297 L447 297 Q448 365 410.5 405 Q373 445 305 445 Z " />
<glyph glyph-name="f" unicode="f" horiz-adv-x="318" d="M311 716 Q269 716 241.5 692.5 Q214 669 207 614 L191 480 L339 480 Q348 480 347 471 L344 449 Q343 442 336 442 L186 442 L114 -158 Q113 -165 105 -165 L72 -165 Q63 -165 64 -157 L136 442 L55 442 Q45 442 47 451 L50 473 Q51 480 58 480 L141 480 L157 615 Q166 691 205 725 Q244 759 307 759 Q355 759 384 743 Q391 740 389 733 L385 705 Q384 696 378 699 Q352 716 311 716 Z " />
<glyph glyph-name="g" unicode="g" horiz-adv-x="596" d="M498 473 Q499 480 507 480 L540 480 Q549 480 548 472 L499 71 Q492 13 469 -33 Q446 -79 410.5 -110.5 Q375 -142 327.5 -158.5 Q280 -175 223 -175 Q171 -175 127.5 -165 Q84 -155 53 -136 Q49 -133 49 -127 L52 -94 Q53 -84 62 -89 Q94 -109 135.5 -120.5 Q177 -132 224 -132 Q318 -132 376.5 -81 Q435 -30 446 62 L454 123 Q419 69 365 41 Q311 13 251 13 Q210 13 173.5 27 Q137 41 110 67.5 Q83 94 67 132.5 Q51 171 51 220 Q51 283 73.5 333.5 Q96 384 132 418.5 Q168 453 213.5 471.5 Q259 490 305 490 Q365 490 414 460 Q463 430 486 372 L498 473 Z M264 56 Q300 56 334 68.5 Q368 81 395.5 104.5 Q423 128 442 160.5 Q461 193 468 232 L472 260 L472 275 Q472 312 460 343.5 Q448 375 426.5 398 Q405 421 375 434 Q345 447 310 447 Q272 447 235 432 Q198 417 168.5 388.5 Q139 360 120.5 318.5 Q102 277 102 225 Q102 184 115 152.5 Q128 121 150 99.5 Q172 78 201.5 67 Q231 56 264 56 Z " />
<glyph glyph-name="h" unicode="h" horiz-adv-x="535" d="M324 490 Q393 490 433.5 455 Q474 420 474 348 Q474 339 473.5 330 Q473 321 472 312 L434 7 Q433 0 425 0 L392 0 Q383 0 384 8 L421 307 Q422 315 422.5 322 Q423 329 423 336 Q423 394 392 420 Q361 446 308 446 Q240 446 193.5 401 Q147 356 132 281 L99 7 Q98 0 90 0 L57 0 Q48 0 49 8 L139 742 Q140 749 148 749 L179 749 Q188 749 187 741 L142 378 Q171 433 217.5 461.5 Q264 490 324 490 Z " />
<glyph glyph-name="i" unicode="i" horiz-adv-x="224" d="M160 641 Q143 641 133 651.5 Q123 662 123 678 Q123 697 136.5 711.5 Q150 726 170 726 Q187 726 196.5 715 Q206 704 206 689 Q206 669 193 655 Q180 641 160 641 Z M66 0 Q57 0 58 8 L115 473 Q116 480 124 480 L157 480 Q166 480 165 472 L108 7 Q107 0 99 0 L66 0 Z " />
<glyph glyph-name="idotless" unicode="&#x131;" horiz-adv-x="240" d="M74 0 Q65 0 66 8 L123 473 Q124 480 132 480 L165 480 Q174 480 173 472 L116 7 Q115 0 107 0 L74 0 L74 0 Z " />
<glyph glyph-name="iacute" unicode="&#xed;" horiz-adv-x="240" d="M74 0 Q65 0 66 8 L123 473 Q124 480 132 480 L165 480 Q174 480 173 472 L116 7 Q115 0 107 0 L74 0 L74 0 Z M146 552 Q135 552 140 561 L229 744 Q233 751 239 748 L275 733 Q283 730 278 723 L175 557 Q172 552 166 552 L146 552 L146 552 Z " />
<glyph glyph-name="icircumflex" unicode="&#xee;" horiz-adv-x="240" d="M74 0 Q65 0 66 8 L123 473 Q124 480 132 480 L165 480 Q174 480 173 472 L116 7 Q115 0 107 0 L74 0 L74 0 Z M293 571 Q294 570 294 567 Q294 562 287 562 L262 562 Q256 562 253 568 L180 705 L71 567 Q68 562 61 562 L37 562 Q32 562 30.5 564.5 Q29 567 32 572 L162 744 Q165 749 172 749 L197 749 Q203 749 206 743 L293 571 L293 571 Z " />
<glyph glyph-name="idieresis" unicode="&#xef;" horiz-adv-x="240" d="M74 0 Q65 0 66 8 L123 473 Q124 480 132 480 L165 480 Q174 480 173 472 L116 7 Q115 0 107 0 L74 0 L74 0 Z M102 647 Q87 647 79 657 Q71 667 71 681 Q71 698 82.5 710 Q94 722 111 722 Q125 722 133.5 712 Q142 702 142 688 Q142 671 130.5 659 Q119 647 102 647 Z M240 647 Q225 647 217 657 Q209 667 209 681 Q209 698 220.5 710 Q232 722 249 722 Q263 722 271.5 712 Q280 702 280 688 Q280 671 268.5 659 Q257 647 240 647 Z " />
<glyph glyph-name="igrave" unicode="&#xec;" horiz-adv-x="240" d="M74 0 Q65 0 66 8 L123 473 Q124 480 132 480 L165 480 Q174 480 173 472 L116 7 Q115 0 107 0 L74 0 L74 0 Z M182 561 Q183 560 183 557 Q183 552 176 552 L156 552 Q149 552 147 557 L44 723 Q39 730 47 733 L83 748 Q84 749 86 749 Q91 749 93 744 L182 561 L182 561 Z " />
<glyph glyph-name="j" unicode="j" horiz-adv-x="231" d="M166 641 Q149 641 139 651.5 Q129 662 129 678 Q129 697 142.5 711.5 Q156 726 176 726 Q193 726 202.5 715 Q212 704 212 689 Q212 669 199 655 Q186 641 166 641 Z M-10 -176 Q-27 -176 -40 -173 Q-53 -170 -64 -165 Q-69 -163 -69 -155 L-66 -127 Q-65 -119 -56 -123 Q-38 -133 -13 -133 Q13 -133 32.5 -115.5 Q52 -98 57 -66 L123 473 Q124 480 132 480 L165 480 Q174 480 173 472 L107 -66 Q99 -122 68.5 -149 Q38 -176 -10 -176 Z " />
<glyph glyph-name="k" unicode="k" horiz-adv-x="445" d="M444 480 Q449 480 450 477 Q451 474 447 470 L189 257 L414 10 Q417 6 416 3 Q415 0 410 0 L364 0 Q358 0 354 4 L133 253 L103 7 Q102 0 94 0 L62 0 Q53 0 54 8 L143 742 Q144 749 152 749 L185 749 Q194 749 193 741 L134 260 L389 476 Q395 480 399 480 L444 480 L444 480 Z " />
<glyph glyph-name="l" unicode="l" horiz-adv-x="255" d="M138 -10 Q100 -10 79 9.5 Q58 29 58 70 Q58 75 58 83 Q58 91 60 99 L140 742 Q141 749 149 749 L181 749 Q190 749 189 741 L109 101 Q109 96 108.5 92 Q108 88 108 84 Q108 34 158 34 Q170 34 183.5 36.5 Q197 39 209 45 Q210 45 210.5 45.5 Q211 46 212 46 Q219 46 217 38 L214 11 Q214 4 208 3 Q194 -3 175 -6.5 Q156 -10 138 -10 Z " />
<glyph glyph-name="lslash" unicode="&#x142;" horiz-adv-x="255" d="M109 101 Q109 96 108.5 92 Q108 88 108 84 Q108 34 158 34 Q170 34 183.5 36.5 Q197 39 209 45 Q210 45 210.5 45.5 Q211 46 212 46 Q219 46 217 38 L214 11 Q214 5 207 3 Q176 -10 138 -10 Q100 -10 79 9.5 Q58 29 58 70 Q58 75 58 83 Q58 91 60 99 L97 399 L50 381 Q49 381 48.5 380.5 Q48 380 47 380 Q41 380 41 388 L41 405 Q41 411 47 414 L102 435 L140 742 Q141 749 149 749 L181 749 Q190 749 189 741 L153 455 L218 480 Q219 480 219.5 480.5 Q220 481 221 481 Q227 481 227 473 L227 455 Q227 449 221 446 L149 419 L109 101 Z " />
<glyph glyph-name="m" unicode="m" horiz-adv-x="780" d="M585 490 Q613 490 637.5 482 Q662 474 680.5 457.5 Q699 441 710 416.5 Q721 392 721 358 Q721 352 721 346 Q721 340 720 334 L680 7 Q679 0 671 0 L638 0 Q629 0 630 8 L670 331 Q671 336 671 340 Q671 344 671 349 Q671 399 640.5 422 Q610 445 570 445 Q547 445 524 437 Q501 429 482 414 Q463 399 449.5 378 Q436 357 430 332 L389 7 Q388 0 380 0 L348 0 Q339 0 340 8 L379 331 Q380 336 380 340.5 Q380 345 380 350 Q380 375 371.5 393 Q363 411 349.5 422.5 Q336 434 317.5 439.5 Q299 445 280 445 Q255 445 231.5 436.5 Q208 428 188.5 412 Q169 396 155.5 373.5 Q142 351 138 323 Q137 318 136 318 L99 7 Q98 0 90 0 L57 0 Q48 0 49 8 L106 473 Q107 480 115 480 L146 480 Q155 480 154 471 L144 400 Q170 445 211 467.5 Q252 490 297 490 Q343 490 380 466.5 Q417 443 428 392 Q453 441 495.5 465.5 Q538 490 585 490 Z " />
<glyph glyph-name="n" unicode="n" horiz-adv-x="532" d="M323 490 Q391 490 431.5 455 Q472 420 472 348 Q472 330 469 312 L433 7 Q432 0 424 0 L391 0 Q382 0 383 8 L419 308 Q420 316 420.5 323 Q421 330 421 338 Q421 395 390.5 420.5 Q360 446 307 446 Q271 446 240.5 433 Q210 420 187 396.5 Q164 373 149 339.5 Q134 306 129 266 L98 7 Q97 0 89 0 L56 0 Q47 0 48 8 L105 473 Q106 480 114 480 L144 480 Q153 480 152 472 L141 379 Q169 433 216 461.5 Q263 490 323 490 Z " />
<glyph glyph-name="ntilde" unicode="&#xf1;" horiz-adv-x="543" d="M323 490 Q391 490 431.5 455 Q472 420 472 348 Q472 330 469 312 L433 7 Q432 0 424 0 L391 0 Q382 0 383 8 L419 308 Q420 316 420.5 323 Q421 330 421 338 Q421 395 390.5 420.5 Q360 446 307 446 Q271 446 240.5 433 Q210 420 187 396.5 Q164 373 149 339.5 Q134 306 129 266 L98 7 Q97 0 89 0 L56 0 Q47 0 48 8 L105 473 Q106 480 114 480 L144 480 Q153 480 152 472 L141 379 Q169 433 216 461.5 Q263 490 323 490 Z M374 603 Q349 603 334 616 Q319 629 307 644 Q297 658 286.5 668 Q276 678 259 678 Q236 678 221.5 659 Q207 640 203 609 Q201 601 194 601 L178 601 Q168 601 170 610 Q177 657 200 688.5 Q223 720 261 720 Q287 720 302 706 Q317 692 328 678 Q339 665 348.5 655.5 Q358 646 375 646 Q396 646 409.5 663 Q423 680 427 707 Q429 715 436 715 L452 715 Q462 715 460 704 Q453 660 430.5 631.5 Q408 603 374 603 Z " />
<glyph glyph-name="o" unicode="o" horiz-adv-x="595" d="M266 -10 Q221 -10 181.5 7 Q142 24 112.5 54 Q83 84 66.5 125.5 Q50 167 50 215 Q50 273 73.5 323.5 Q97 374 136 411 Q175 448 224.5 469 Q274 490 327 490 Q373 490 412.5 473.5 Q452 457 481 427.5 Q510 398 527 357.5 Q544 317 544 269 Q544 210 520.5 159 Q497 108 458 70.5 Q419 33 369 11.5 Q319 -10 266 -10 Z M271 36 Q314 36 354.5 53.5 Q395 71 426 102 Q457 133 475.5 175 Q494 217 494 267 Q494 306 481 338.5 Q468 371 445 394.5 Q422 418 390.5 431 Q359 444 322 444 Q279 444 239 427 Q199 410 168 379.5 Q137 349 118.5 307.5 Q100 266 100 217 Q100 177 113 144 Q126 111 149.5 87 Q173 63 204 49.5 Q235 36 271 36 Z " />
<glyph glyph-name="oacute" unicode="&#xf3;" horiz-adv-x="595" d="M266 -10 Q221 -10 181.5 7 Q142 24 112.5 54 Q83 84 66.5 125.5 Q50 167 50 215 Q50 273 73.5 323.5 Q97 374 136 411 Q175 448 224.5 469 Q274 490 327 490 Q373 490 412.5 473.5 Q452 457 481 427.5 Q510 398 527 357.5 Q544 317 544 269 Q544 210 520.5 159 Q497 108 458 70.5 Q419 33 369 11.5 Q319 -10 266 -10 Z M271 36 Q314 36 354.5 53.5 Q395 71 426 102 Q457 133 475.5 175 Q494 217 494 267 Q494 306 481 338.5 Q468 371 445 394.5 Q422 418 390.5 431 Q359 444 322 444 Q279 444 239 427 Q199 410 168 379.5 Q137 349 118.5 307.5 Q100 266 100 217 Q100 177 113 144 Q126 111 149.5 87 Q173 63 204 49.5 Q235 36 271 36 Z M297 551 Q292 551 291 554 Q290 557 292 561 L410 735 Q414 741 420 739 L471 733 Q482 731 475 723 L327 555 Q323 551 317 551 L297 551 L297 551 Z " />
<glyph glyph-name="ocircumflex" unicode="&#xf4;" horiz-adv-x="595" d="M266 -10 Q221 -10 181.5 7 Q142 24 112.5 54 Q83 84 66.5 125.5 Q50 167 50 215 Q50 273 73.5 323.5 Q97 374 136 411 Q175 448 224.5 469 Q274 490 327 490 Q373 490 412.5 473.5 Q452 457 481 427.5 Q510 398 527 357.5 Q544 317 544 269 Q544 210 520.5 159 Q497 108 458 70.5 Q419 33 369 11.5 Q319 -10 266 -10 Z M271 36 Q314 36 354.5 53.5 Q395 71 426 102 Q457 133 475.5 175 Q494 217 494 267 Q494 306 481 338.5 Q468 371 445 394.5 Q422 418 390.5 431 Q359 444 322 444 Q279 444 239 427 Q199 410 168 379.5 Q137 349 118.5 307.5 Q100 266 100 217 Q100 177 113 144 Q126 111 149.5 87 Q173 63 204 49.5 Q235 36 271 36 Z M470 571 Q471 570 471 567 Q471 562 464 562 L439 562 Q433 562 430 568 L357 705 L248 567 Q245 562 238 562 L214 562 Q209 562 207.5 564.5 Q206 567 209 572 L339 744 Q342 749 349 749 L374 749 Q380 749 383 743 L470 571 L470 571 Z " />
<glyph glyph-name="odieresis" unicode="&#xf6;" horiz-adv-x="595" d="M266 -10 Q221 -10 181.5 7 Q142 24 112.5 54 Q83 84 66.5 125.5 Q50 167 50 215 Q50 273 73.5 323.5 Q97 374 136 411 Q175 448 224.5 469 Q274 490 327 490 Q373 490 412.5 473.5 Q452 457 481 427.5 Q510 398 527 357.5 Q544 317 544 269 Q544 210 520.5 159 Q497 108 458 70.5 Q419 33 369 11.5 Q319 -10 266 -10 Z M271 36 Q314 36 354.5 53.5 Q395 71 426 102 Q457 133 475.5 175 Q494 217 494 267 Q494 306 481 338.5 Q468 371 445 394.5 Q422 418 390.5 431 Q359 444 322 444 Q279 444 239 427 Q199 410 168 379.5 Q137 349 118.5 307.5 Q100 266 100 217 Q100 177 113 144 Q126 111 149.5 87 Q173 63 204 49.5 Q235 36 271 36 Z M279 647 Q264 647 256 657 Q248 667 248 681 Q248 698 259.5 710 Q271 722 288 722 Q302 722 310.5 712 Q319 702 319 688 Q319 671 307.5 659 Q296 647 279 647 Z M417 647 Q402 647 394 657 Q386 667 386 681 Q386 698 397.5 710 Q409 722 426 722 Q440 722 448.5 712 Q457 702 457 688 Q457 671 445.5 659 Q434 647 417 647 Z " />
<glyph glyph-name="ograve" unicode="&#xf2;" horiz-adv-x="595" d="M266 -10 Q221 -10 181.5 7 Q142 24 112.5 54 Q83 84 66.5 125.5 Q50 167 50 215 Q50 273 73.5 323.5 Q97 374 136 411 Q175 448 224.5 469 Q274 490 327 490 Q373 490 412.5 473.5 Q452 457 481 427.5 Q510 398 527 357.5 Q544 317 544 269 Q544 210 520.5 159 Q497 108 458 70.5 Q419 33 369 11.5 Q319 -10 266 -10 Z M271 36 Q314 36 354.5 53.5 Q395 71 426 102 Q457 133 475.5 175 Q494 217 494 267 Q494 306 481 338.5 Q468 371 445 394.5 Q422 418 390.5 431 Q359 444 322 444 Q279 444 239 427 Q199 410 168 379.5 Q137 349 118.5 307.5 Q100 266 100 217 Q100 177 113 144 Q126 111 149.5 87 Q173 63 204 49.5 Q235 36 271 36 Z M396 561 Q397 559 397 557 Q397 551 391 551 L371 551 Q365 551 361 555 L213 723 Q206 731 217 733 L268 739 L270 739 Q274 739 278 735 L396 561 L396 561 Z " />
<glyph glyph-name="oslash" unicode="&#xf8;" horiz-adv-x="595" d="M453 451 Q495 422 519.5 375 Q544 328 544 269 Q544 210 520.5 159 Q497 108 458 70.5 Q419 33 369 11.5 Q319 -10 266 -10 Q209 -10 163 16 L117 -52 Q114 -57 108 -57 L95 -57 Q90 -57 88.5 -54 Q87 -51 89 -47 L141 30 Q99 59 74.5 107 Q50 155 50 215 Q50 273 73.5 323.5 Q97 374 136 411 Q175 448 224.5 469 Q274 490 327 490 Q385 490 432 464 L477 531 Q479 536 486 536 L498 536 Q503 536 504.5 533 Q506 530 504 526 L453 451 Z M100 217 Q100 169 118 131.5 Q136 94 168 70 L405 424 Q368 444 322 444 Q279 444 239 427 Q199 410 168 379.5 Q137 349 118.5 307.5 Q100 266 100 217 Z M271 36 Q314 36 354.5 53.5 Q395 71 426 102 Q457 133 475.5 175 Q494 217 494 267 Q494 314 476 351 Q458 388 426 411 L190 56 Q227 36 271 36 Z " />
<glyph glyph-name="otilde" unicode="&#xf5;" horiz-adv-x="595" d="M266 -10 Q221 -10 181.5 7 Q142 24 112.5 54 Q83 84 66.5 125.5 Q50 167 50 215 Q50 273 73.5 323.5 Q97 374 136 411 Q175 448 224.5 469 Q274 490 327 490 Q373 490 412.5 473.5 Q452 457 481 427.5 Q510 398 527 357.5 Q544 317 544 269 Q544 210 520.5 159 Q497 108 458 70.5 Q419 33 369 11.5 Q319 -10 266 -10 Z M271 36 Q314 36 354.5 53.5 Q395 71 426 102 Q457 133 475.5 175 Q494 217 494 267 Q494 306 481 338.5 Q468 371 445 394.5 Q422 418 390.5 431 Q359 444 322 444 Q279 444 239 427 Q199 410 168 379.5 Q137 349 118.5 307.5 Q100 266 100 217 Q100 177 113 144 Q126 111 149.5 87 Q173 63 204 49.5 Q235 36 271 36 Z M403 603 Q378 603 363 616 Q348 629 336 644 Q326 658 315.5 668 Q305 678 288 678 Q265 678 250.5 659 Q236 640 232 609 Q230 601 223 601 L207 601 Q197 601 199 610 Q206 657 229 688.5 Q252 720 290 720 Q316 720 331 706 Q346 692 357 678 Q368 665 377.5 655.5 Q387 646 404 646 Q425 646 438.5 663 Q452 680 456 707 Q458 715 465 715 L481 715 Q491 715 489 704 Q482 660 459.5 631.5 Q437 603 403 603 Z " />
<glyph glyph-name="oe" unicode="&#x153;" horiz-adv-x="900" d="M690 490 Q731 490 763.5 475 Q796 460 818.5 434.5 Q841 409 852.5 374 Q864 339 864 299 Q864 273 859.5 264 Q855 255 843 255 L500 255 Q497 234 497 214 Q497 172 509.5 138.5 Q522 105 545.5 81.5 Q569 58 601.5 45.5 Q634 33 673 33 Q715 33 756.5 48 Q798 63 830 93 Q840 101 840 89 L840 57 Q840 51 835 47 Q800 18 754 4 Q708 -10 666 -10 Q626 -10 592 2.5 Q558 15 532 37 Q506 59 488 89 Q470 119 463 153 Q431 77 371 33.5 Q311 -10 240 -10 Q198 -10 163 6.5 Q128 23 103 52.5 Q78 82 64 122 Q50 162 50 210 Q50 270 70.5 321 Q91 372 125.5 409.5 Q160 447 205.5 468.5 Q251 490 301 490 Q371 490 418 447.5 Q465 405 479 331 Q508 405 563 447.5 Q618 490 690 490 Z M688 447 Q655 447 627 435 Q599 423 576 403 Q553 383 536.5 355 Q520 327 510 296 L823 296 Q823 367 786 407 Q749 447 688 447 Z M248 36 Q289 36 325 54.5 Q361 73 388 104.5 Q415 136 431 178.5 Q447 221 447 270 Q447 308 436.5 340 Q426 372 406.5 395 Q387 418 359.5 431 Q332 444 298 444 Q257 444 220 426.5 Q183 409 155.5 377.5 Q128 346 112 303.5 Q96 261 96 212 Q96 174 107 141.5 Q118 109 137.5 85.5 Q157 62 185 49 Q213 36 248 36 Z " />
<glyph glyph-name="p" unicode="p" horiz-adv-x="599" d="M344 490 Q386 490 423 475.5 Q460 461 488 433 Q516 405 532.5 364 Q549 323 549 271 Q549 205 525.5 153 Q502 101 463.5 64.5 Q425 28 377.5 9 Q330 -10 282 -10 Q226 -10 178 19.5 Q130 49 108 106 L76 -159 Q75 -166 67 -166 L34 -166 Q25 -166 26 -158 L103 473 Q104 480 112 480 L145 480 Q154 480 153 472 L141 374 Q175 431 230.5 460.5 Q286 490 344 490 Z M283 37 Q322 37 360.5 52.5 Q399 68 429.5 98 Q460 128 478.5 170.5 Q497 213 497 267 Q497 309 484.5 341.5 Q472 374 450 396.5 Q428 419 398 431 Q368 443 334 443 Q293 443 254.5 427 Q216 411 186.5 381 Q157 351 139.5 308 Q122 265 122 212 Q122 171 135 138.5 Q148 106 169.5 83.5 Q191 61 220.5 49 Q250 37 283 37 Z " />
<glyph glyph-name="thorn" unicode="&#xfe;" horiz-adv-x="599" d="M344 490 Q386 490 423 475.5 Q460 461 488 433 Q516 405 532.5 364.5 Q549 324 549 272 Q549 206 525.5 153.5 Q502 101 463.5 64.5 Q425 28 377.5 9 Q330 -10 282 -10 Q226 -10 178 19.5 Q130 49 108 106 L76 -159 Q75 -166 67 -166 L34 -166 Q25 -166 26 -158 L137 742 Q138 749 146 749 L179 749 Q188 749 187 741 L141 374 Q175 431 230.5 460.5 Q286 490 344 490 Z M283 37 Q322 37 360.5 52.5 Q399 68 429.5 98 Q460 128 478.5 171 Q497 214 497 268 Q497 309 484.5 341.5 Q472 374 450 396.5 Q428 419 398 431 Q368 443 334 443 Q293 443 254.5 427 Q216 411 186.5 381 Q157 351 139 308.5 Q121 266 121 213 Q121 171 134 138.5 Q147 106 169 83.5 Q191 61 220.5 49 Q250 37 283 37 Z " />
<glyph glyph-name="q" unicode="q" horiz-adv-x="599" d="M500 473 Q501 480 509 480 L540 480 Q549 480 548 472 L470 -159 Q469 -166 461 -166 L428 -166 Q419 -166 420 -158 L453 107 Q417 49 362 19.5 Q307 -10 250 -10 Q211 -10 174.5 5 Q138 20 110.5 48 Q83 76 66.5 116.5 Q50 157 50 208 Q50 274 71.5 326 Q93 378 129.5 414.5 Q166 451 213 470.5 Q260 490 311 490 Q371 490 418.5 459.5 Q466 429 486 366 L500 473 Z M263 33 Q300 33 337.5 49 Q375 65 405 95 Q435 125 454 168.5 Q473 212 473 268 Q473 310 460.5 343.5 Q448 377 426 399.5 Q404 422 375.5 434 Q347 446 314 446 Q272 446 233 430 Q194 414 164 384 Q134 354 116 310.5 Q98 267 98 211 Q98 168 111.5 135 Q125 102 148 79.5 Q171 57 200.5 45 Q230 33 263 33 Z " />
<glyph glyph-name="r" unicode="r" horiz-adv-x="351" d="M139 315 Q170 401 222 444.5 Q274 488 344 490 Q353 490 352 481 L347 443 Q346 436 338 436 Q313 436 290.5 429 Q268 422 248 410 Q198 381 166 318.5 Q134 256 123 168 L103 7 Q102 0 94 0 L62 0 Q53 0 54 8 L110 473 Q111 480 119 480 L150 480 Q159 480 158 472 L139 317 L139 315 L139 315 Z " />
<glyph glyph-name="s" unicode="s" horiz-adv-x="424" d="M170 -10 Q135 -10 96 -1 Q57 8 32 25 Q28 29 28 35 L31 65 Q33 76 41 69 Q69 50 105.5 41 Q142 32 174 32 Q204 32 229 40.5 Q254 49 272 63 Q290 77 300 96.5 Q310 116 310 139 Q310 159 300.5 173 Q291 187 275.5 197.5 Q260 208 239 216.5 Q218 225 195 233 Q171 242 148.5 251.5 Q126 261 109 274.5 Q92 288 81.5 306.5 Q71 325 71 351 Q71 414 120 452 Q169 490 250 490 Q285 490 317 482.5 Q349 475 374 464 Q381 461 379 454 L375 426 Q373 417 365 421 Q342 435 311 442.5 Q280 450 249 450 Q191 450 157.5 424.5 Q124 399 124 357 Q124 338 132.5 324.5 Q141 311 156 301.5 Q171 292 190.5 284 Q210 276 232 269 Q256 260 279.5 250.5 Q303 241 321 227 Q339 213 350 194 Q361 175 361 148 Q361 114 347 85 Q333 56 308 35 Q283 14 247.5 2 Q212 -10 170 -10 Z " />
<glyph glyph-name="scaron" unicode="&#x161;" horiz-adv-x="422" d="M170 -10 Q135 -10 96 -1 Q57 8 32 25 Q28 29 28 35 L31 65 Q33 76 41 69 Q69 50 105.5 41 Q142 32 174 32 Q204 32 229 40.5 Q254 49 272 63 Q290 77 300 96.5 Q310 116 310 139 Q310 159 300.5 173 Q291 187 275.5 197.5 Q260 208 239 216.5 Q218 225 195 233 Q171 242 148.5 251.5 Q126 261 109 274.5 Q92 288 81.5 306.5 Q71 325 71 351 Q71 414 120 452 Q169 490 250 490 Q285 490 317 482.5 Q349 475 374 464 Q381 461 379 454 L375 426 Q373 417 365 421 Q342 435 311 442.5 Q280 450 249 450 Q191 450 157.5 424.5 Q124 399 124 357 Q124 338 132.5 324.5 Q141 311 156 301.5 Q171 292 190.5 284 Q210 276 232 269 Q256 260 279.5 250.5 Q303 241 321 227 Q339 213 350 194 Q361 175 361 148 Q361 114 347 85 Q333 56 308 35 Q283 14 247.5 2 Q212 -10 170 -10 Z M364 739 Q367 744 374 744 L398 744 Q409 744 402 734 L277 572 Q274 567 267 567 L244 567 Q238 567 235 573 L144 734 Q143 735 143 738 Q143 744 150 744 L175 744 Q181 744 184 739 L260 612 L364 739 L364 739 Z " />
<glyph glyph-name="germandbls" unicode="&#xdf;" horiz-adv-x="537" d="M296 -10 Q270 -10 240.5 -5 Q211 0 189 8 Q181 11 183 18 L187 45 Q189 54 197 50 Q218 40 244 35.5 Q270 31 292 31 Q358 31 393.5 64.5 Q429 98 429 149 Q429 186 405 210.5 Q381 235 337 261 Q319 273 301.5 284.5 Q284 296 270.5 309.5 Q257 323 248.5 340.5 Q240 358 240 382 Q240 405 246.5 423 Q253 441 263.5 456.5 Q274 472 288 485.5 Q302 499 317 514 Q335 530 349 544 Q363 558 373 572 Q383 586 388.5 601 Q394 616 394 634 Q394 672 369.5 694 Q345 716 303 716 Q257 716 220 684.5 Q183 653 174 580 L103 7 Q102 0 94 0 L61 0 Q52 0 53 8 L124 582 Q129 627 145.5 660.5 Q162 694 186.5 716 Q211 738 242 748.5 Q273 759 306 759 Q366 759 404 727 Q442 695 442 642 Q442 619 435 600 Q428 581 416 565 Q404 549 389 534 Q374 519 358 504 Q330 477 308.5 452 Q287 427 287 390 Q287 371 294 357 Q301 343 313.5 331 Q326 319 342 308.5 Q358 298 376 287 Q395 275 413 262.5 Q431 250 444.5 234.5 Q458 219 466 199 Q474 179 474 153 Q474 118 462 88.5 Q450 59 427 37 Q404 15 371 2.5 Q338 -10 296 -10 Z " />
<glyph glyph-name="t" unicode="t" horiz-adv-x="335" d="M147 131 Q146 124 145.5 118 Q145 112 145 107 Q145 70 162.5 51.5 Q180 33 212 33 Q252 33 282 51 Q286 53 287 53 Q293 53 291 46 L288 18 Q288 13 282 9 Q265 1 243.5 -4.5 Q222 -10 195 -10 Q148 -10 121.5 19 Q95 48 95 99 Q95 105 95 111.5 Q95 118 97 126 L136 442 L60 442 Q52 442 53 450 L55 472 Q55 480 64 480 L140 480 L157 617 Q158 624 166 624 L199 624 Q208 624 207 616 L190 480 L328 480 Q337 480 336 471 L333 449 Q332 442 325 442 L185 442 L147 131 Z " />
<glyph glyph-name="u" unicode="u" horiz-adv-x="524" d="M426 473 Q427 480 435 480 L467 480 Q476 480 475 472 L419 7 Q418 0 410 0 L382 0 Q375 0 375 8 L383 94 Q354 43 308 16.5 Q262 -10 205 -10 Q141 -10 101 25.5 Q61 61 61 137 Q61 157 64 178 L100 473 Q101 480 109 480 L142 480 Q151 480 150 472 L114 179 Q111 159 111 143 Q111 82 141 57 Q171 32 221 32 Q256 32 285.5 45.5 Q315 59 337.5 83.5 Q360 108 375 142.5 Q390 177 395 219 L426 473 L426 473 Z " />
<glyph glyph-name="uacute" unicode="&#xfa;" horiz-adv-x="535" d="M426 473 Q427 480 435 480 L467 480 Q476 480 475 472 L419 7 Q418 0 410 0 L382 0 Q375 0 375 8 L383 94 Q354 43 308 16.5 Q262 -10 205 -10 Q141 -10 101 25.5 Q61 61 61 137 Q61 157 64 178 L100 473 Q101 480 109 480 L142 480 Q151 480 150 472 L114 179 Q111 159 111 143 Q111 82 141 57 Q171 32 221 32 Q256 32 285.5 45.5 Q315 59 337.5 83.5 Q360 108 375 142.5 Q390 177 395 219 L426 473 L426 473 Z M257 551 Q252 551 251 554 Q250 557 252 561 L370 735 Q374 741 380 739 L431 733 Q442 731 435 723 L287 555 Q283 551 277 551 L257 551 L257 551 Z " />
<glyph glyph-name="ucircumflex" unicode="&#xfb;" horiz-adv-x="535" d="M426 473 Q427 480 435 480 L467 480 Q476 480 475 472 L419 7 Q418 0 410 0 L382 0 Q375 0 375 8 L383 94 Q354 43 308 16.5 Q262 -10 205 -10 Q141 -10 101 25.5 Q61 61 61 137 Q61 157 64 178 L100 473 Q101 480 109 480 L142 480 Q151 480 150 472 L114 179 Q111 159 111 143 Q111 82 141 57 Q171 32 221 32 Q256 32 285.5 45.5 Q315 59 337.5 83.5 Q360 108 375 142.5 Q390 177 395 219 L426 473 L426 473 Z M430 571 Q431 570 431 567 Q431 562 424 562 L399 562 Q393 562 390 568 L317 705 L208 567 Q205 562 198 562 L174 562 Q169 562 167.5 564.5 Q166 567 169 572 L299 744 Q302 749 309 749 L334 749 Q340 749 343 743 L430 571 L430 571 Z " />
<glyph glyph-name="udieresis" unicode="&#xfc;" horiz-adv-x="535" d="M426 473 Q427 480 435 480 L467 480 Q476 480 475 472 L419 7 Q418 0 410 0 L382 0 Q375 0 375 8 L383 94 Q354 43 308 16.5 Q262 -10 205 -10 Q141 -10 101 25.5 Q61 61 61 137 Q61 157 64 178 L100 473 Q101 480 109 480 L142 480 Q151 480 150 472 L114 179 Q111 159 111 143 Q111 82 141 57 Q171 32 221 32 Q256 32 285.5 45.5 Q315 59 337.5 83.5 Q360 108 375 142.5 Q390 177 395 219 L426 473 L426 473 Z M239 647 Q224 647 216 657 Q208 667 208 681 Q208 698 219.5 710 Q231 722 248 722 Q262 722 270.5 712 Q279 702 279 688 Q279 671 267.5 659 Q256 647 239 647 Z M377 647 Q362 647 354 657 Q346 667 346 681 Q346 698 357.5 710 Q369 722 386 722 Q400 722 408.5 712 Q417 702 417 688 Q417 671 405.5 659 Q394 647 377 647 Z " />
<glyph glyph-name="ugrave" unicode="&#xf9;" horiz-adv-x="535" d="M426 473 Q427 480 435 480 L467 480 Q476 480 475 472 L419 7 Q418 0 410 0 L382 0 Q375 0 375 8 L383 94 Q354 43 308 16.5 Q262 -10 205 -10 Q141 -10 101 25.5 Q61 61 61 137 Q61 157 64 178 L100 473 Q101 480 109 480 L142 480 Q151 480 150 472 L114 179 Q111 159 111 143 Q111 82 141 57 Q171 32 221 32 Q256 32 285.5 45.5 Q315 59 337.5 83.5 Q360 108 375 142.5 Q390 177 395 219 L426 473 L426 473 Z M356 561 Q357 559 357 557 Q357 551 351 551 L331 551 Q325 551 321 555 L173 723 Q166 731 177 733 L228 739 L230 739 Q234 739 238 735 L356 561 L356 561 Z " />
<glyph glyph-name="v" unicode="v" horiz-adv-x="481" d="M431 474 Q434 480 440 480 L476 480 Q481 480 482.5 477 Q484 474 482 470 L237 6 Q234 0 228 0 L193 0 Q186 0 184 7 L54 471 L54 473 Q54 480 60 480 L96 480 Q103 480 105 473 L218 59 L431 474 L431 474 Z " />
<glyph glyph-name="w" unicode="w" horiz-adv-x="657" d="M612 474 Q614 480 621 480 L654 480 Q664 480 660 471 L467 6 Q465 0 457 0 L427 0 Q421 0 419 7 L350 417 L179 6 Q177 0 169 0 L140 0 Q134 0 132 7 L51 471 L51 473 Q51 480 59 480 L93 480 Q99 480 101 473 L165 63 L333 474 Q335 480 343 480 L373 480 Q379 480 381 473 L452 66 L612 474 L612 474 Z " />
<glyph glyph-name="x" unicode="x" horiz-adv-x="449" d="M449 480 Q454 480 455 477 Q456 474 453 470 L258 248 L405 10 Q406 8 406 6 Q406 0 400 0 L352 0 Q346 0 343 5 L223 211 L44 4 Q41 0 34 0 L-9 0 Q-14 0 -15 3 Q-16 6 -13 10 L196 246 L57 470 Q56 472 56 474 Q56 480 62 480 L107 480 Q113 480 116 475 L231 282 L397 475 Q400 480 407 480 L449 480 L449 480 Z " />
<glyph glyph-name="y" unicode="y" horiz-adv-x="495" d="M453 474 Q456 480 462 480 L497 480 Q502 480 503.5 477 Q505 474 503 470 L204 -54 Q172 -113 135.5 -144 Q99 -175 52 -175 Q28 -175 10 -170.5 Q-8 -166 -22 -158 Q-28 -155 -27 -148 L-23 -117 Q-22 -108 -13 -112 Q1 -121 17.5 -126 Q34 -131 56 -131 Q89 -131 113.5 -109.5 Q138 -88 161 -46 L193 11 L51 471 Q51 472 50.5 472.5 Q50 473 50 474 Q50 480 57 480 L92 480 Q99 480 101 473 L223 65 L453 474 L453 474 Z " />
<glyph glyph-name="yacute" unicode="&#xfd;" horiz-adv-x="496" d="M453 474 Q456 480 462 480 L497 480 Q502 480 503.5 477 Q505 474 503 470 L204 -54 Q172 -113 135.5 -144 Q99 -175 52 -175 Q28 -175 10 -170.5 Q-8 -166 -22 -158 Q-28 -155 -27 -148 L-23 -117 Q-22 -108 -13 -112 Q1 -121 17.5 -126 Q34 -131 56 -131 Q89 -131 113.5 -109.5 Q138 -88 161 -46 L193 11 L51 471 Q51 472 50.5 472.5 Q50 473 50 474 Q50 480 57 480 L92 480 Q99 480 101 473 L223 65 L453 474 L453 474 Z M236 551 Q231 551 230 554 Q229 557 231 561 L349 735 Q353 741 359 739 L410 733 Q421 731 414 723 L266 555 Q262 551 256 551 L236 551 L236 551 Z " />
<glyph glyph-name="ydieresis" unicode="&#xff;" horiz-adv-x="496" d="M453 474 Q456 480 462 480 L497 480 Q502 480 503.5 477 Q505 474 503 470 L204 -54 Q172 -113 135.5 -144 Q99 -175 52 -175 Q28 -175 10 -170.5 Q-8 -166 -22 -158 Q-28 -155 -27 -148 L-23 -117 Q-22 -108 -13 -112 Q1 -121 17.5 -126 Q34 -131 56 -131 Q89 -131 113.5 -109.5 Q138 -88 161 -46 L193 11 L51 471 Q51 472 50.5 472.5 Q50 473 50 474 Q50 480 57 480 L92 480 Q99 480 101 473 L223 65 L453 474 L453 474 Z M218 647 Q203 647 195 657 Q187 667 187 681 Q187 698 198.5 710 Q210 722 227 722 Q241 722 249.5 712 Q258 702 258 688 Q258 671 246.5 659 Q235 647 218 647 Z M356 647 Q341 647 333 657 Q325 667 325 681 Q325 698 336.5 710 Q348 722 365 722 Q379 722 387.5 712 Q396 702 396 688 Q396 671 384.5 659 Q373 647 356 647 Z " />
<glyph glyph-name="z" unicode="z" horiz-adv-x="412" d="M-6 0 Q-13 0 -13 8 L-12 18 Q-12 22 -8 28 L345 436 L62 436 Q52 436 54 445 L58 473 Q59 480 66 480 L406 480 Q415 480 414 472 L413 460 Q413 457 411.5 455 Q410 453 408 451 L54 44 L353 44 Q361 44 360 36 L357 8 Q355 0 348 0 L-6 0 L-6 0 Z " />
<glyph glyph-name="zcaron" unicode="&#x17e;" horiz-adv-x="411" d="M-6 0 Q-13 0 -13 8 L-12 18 Q-12 22 -8 28 L345 436 L62 436 Q52 436 54 445 L58 473 Q59 480 66 480 L406 480 Q415 480 414 472 L413 460 Q413 457 411.5 455 Q410 453 408 451 L54 44 L353 44 Q361 44 360 36 L357 8 Q355 0 348 0 L-6 0 L-6 0 Z M342 739 Q345 744 352 744 L376 744 Q387 744 380 734 L255 572 Q252 567 245 567 L222 567 Q216 567 213 573 L122 734 Q121 735 121 738 Q121 744 128 744 L153 744 Q159 744 162 739 L238 612 L342 739 L342 739 Z " />
<glyph glyph-name="fi" unicode="&#xfb01;" horiz-adv-x="542" d="M311 716 Q269 716 241.5 692.5 Q214 669 207 614 L191 480 L339 480 Q348 480 347 471 L344 449 Q343 442 336 442 L186 442 L114 -158 Q113 -165 105 -165 L72 -165 Q63 -165 64 -157 L136 442 L55 442 Q45 442 47 451 L50 473 Q51 480 58 480 L141 480 L157 615 Q166 691 205 725 Q244 759 307 759 Q355 759 384 743 Q391 740 389 733 L385 705 Q384 696 378 699 Q352 716 311 716 Z M478 641 Q461 641 451 651.5 Q441 662 441 678 Q441 697 454.5 711.5 Q468 726 488 726 Q505 726 514.5 715 Q524 704 524 689 Q524 669 511 655 Q498 641 478 641 Z M384 0 Q375 0 376 8 L433 473 Q434 480 442 480 L475 480 Q484 480 483 472 L426 7 Q425 0 417 0 L384 0 Z " />
<glyph glyph-name="fl" unicode="&#xfb02;" horiz-adv-x="572" d="M311 716 Q269 716 241.5 692.5 Q214 669 207 614 L191 480 L339 480 Q348 480 347 471 L344 449 Q343 442 336 442 L186 442 L114 -158 Q113 -165 105 -165 L72 -165 Q63 -165 64 -157 L136 442 L55 442 Q45 442 47 451 L50 473 Q51 480 58 480 L141 480 L157 615 Q166 691 205 725 Q244 759 307 759 Q355 759 384 743 Q391 740 389 733 L385 705 Q384 696 378 699 Q352 716 311 716 Z M456 -10 Q418 -10 397 9.5 Q376 29 376 70 Q376 75 376 83 Q376 91 378 99 L458 742 Q459 749 467 749 L499 749 Q508 749 507 741 L427 101 Q427 96 426.5 92 Q426 88 426 84 Q426 34 476 34 Q488 34 501.5 36.5 Q515 39 527 45 Q528 45 528.5 45.5 Q529 46 530 46 Q537 46 535 38 L532 11 Q532 4 526 3 Q512 -3 493 -6.5 Q474 -10 456 -10 Z " />
<glyph glyph-name="ordfeminine" unicode="&#xaa;" horiz-adv-x="401" d="M206 423 Q181 423 158.5 432 Q136 441 118.5 457.5 Q101 474 91 498 Q81 522 81 553 Q81 591 94 622 Q107 653 129.5 674.5 Q152 696 181 707.5 Q210 719 242 719 Q279 719 308 702.5 Q337 686 351 654 L357 704 Q358 711 366 711 L391 711 Q400 711 399 703 L367 436 Q366 429 358 429 L332 429 Q322 429 324 438 L331 490 Q308 458 275 440.5 Q242 423 206 423 Z M249 683 Q225 683 202.5 674.5 Q180 666 162.5 649.5 Q145 633 135 609.5 Q125 586 125 556 Q125 532 133 514 Q141 496 154.5 484 Q168 472 185 465.5 Q202 459 221 459 Q243 459 264.5 467.5 Q286 476 303.5 492.5 Q321 509 331.5 532.5 Q342 556 342 586 Q342 633 314.5 658 Q287 683 249 683 Z M72 331 Q65 331 65 339 L66 353 Q66 361 75 361 L365 361 Q372 361 372 353 L371 339 Q371 331 362 331 L72 331 Z " />
<glyph glyph-name="ordmasculine" unicode="&#xba;" horiz-adv-x="388" d="M217 430 Q188 430 163.5 440 Q139 450 120.5 467 Q102 484 91.5 508 Q81 532 81 561 Q81 595 95 624 Q109 653 132.5 674.5 Q156 696 187 708 Q218 720 252 720 Q280 720 305 710.5 Q330 701 348.5 683.5 Q367 666 377.5 642.5 Q388 619 388 591 Q388 557 374 527.5 Q360 498 336.5 476.5 Q313 455 282 442.5 Q251 430 217 430 Z M221 468 Q245 468 267.5 477 Q290 486 307.5 502 Q325 518 335 540.5 Q345 563 345 589 Q345 631 317 656.5 Q289 682 248 682 Q224 682 201.5 673 Q179 664 161.5 648.5 Q144 633 134 611 Q124 589 124 563 Q124 521 152.5 494.5 Q181 468 221 468 Z M74 336 Q64 336 66 345 L68 359 Q69 366 76 366 L346 366 Q353 366 353 358 L352 344 Q352 336 343 336 L74 336 Z " />
<glyph glyph-name="Delta" unicode="&#x394;" horiz-adv-x="588" d="M-25 0 Q-34 0 -33 8 L-32 19 Q-32 22 -31.5 23.5 Q-31 25 -29 28 L334 708 Q337 714 343 714 L364 714 Q371 714 373 707 L564 29 Q565 26 565 19 L564 8 Q564 0 555 0 L-25 0 Z M512 42 L345 639 L27 42 L512 42 Z " />
<glyph glyph-name="Omega" unicode="&#x3a9;" horiz-adv-x="686" d="M43 0 Q35 0 36 8 L39 37 Q39 45 48 45 L238 45 L250 138 Q208 151 174.5 175.5 Q141 200 117.5 233 Q94 266 81 306.5 Q68 347 68 392 Q68 462 95 522 Q122 582 168.5 626 Q215 670 275.5 695 Q336 720 404 720 Q461 720 509 700.5 Q557 681 592 646 Q627 611 646.5 563.5 Q666 516 666 459 Q666 402 647 351 Q628 300 594 258 Q560 216 513.5 185.5 Q467 155 412 138 L400 45 L590 45 Q598 45 597 37 L594 8 Q594 0 585 0 L358 0 Q349 0 350 8 L367 142 Q368 149 374 150 Q423 167 467 195 Q511 223 543 261.5 Q575 300 594 347.5 Q613 395 613 451 Q613 499 597.5 540 Q582 581 554 610.5 Q526 640 486 656.5 Q446 673 398 673 Q340 673 289.5 651 Q239 629 201 590.5 Q163 552 141 500 Q119 448 119 387 Q119 300 167.5 239.5 Q216 179 291 150 Q299 148 297 141 L280 7 Q279 0 271 0 L43 0 L43 0 Z " />
<glyph glyph-name="mu" unicode="&#x3bc;" horiz-adv-x="537" d="M433 473 Q434 480 442 480 L475 480 Q484 480 483 472 L427 7 Q426 0 418 0 L389 0 Q381 0 382 8 L392 99 L390 103 Q363 47 319.5 18.5 Q276 -10 220 -10 Q178 -10 146.5 6.5 Q115 23 101 58 L74 -192 Q74 -200 65 -200 L32 -200 Q22 -200 24 -191 L62 86 L106 472 Q108 480 115 480 L147 480 Q156 480 155 472 L120 178 Q119 169 118.5 160.5 Q118 152 118 144 Q118 82 147.5 56 Q177 30 227 30 Q295 30 341 78 Q387 126 401 206 L433 473 L433 473 Z " />
<glyph glyph-name="pi" unicode="&#x3c0;" horiz-adv-x="516" d="M370 100 Q369 95 369 91 Q369 87 369 83 Q369 56 381.5 44.5 Q394 33 417 33 Q442 33 466 44 Q468 45 470 45 Q477 45 475 38 L472 11 Q472 5 465 2 Q452 -3 434 -6.5 Q416 -10 399 -10 Q360 -10 339 9 Q318 28 318 70 Q318 76 318.5 82 Q319 88 320 95 L362 437 L187 437 L134 7 Q133 0 125 0 L93 0 Q84 0 85 8 L138 437 L53 437 Q43 437 45 446 L49 473 Q50 480 57 480 L499 480 Q508 480 507 472 L504 445 Q502 437 495 437 L412 437 L370 100 Z " />
<glyph glyph-name="zero" unicode="0" horiz-adv-x="640" d="M291 -10 Q241 -10 200 10 Q159 30 129.5 68.5 Q100 107 84 163 Q68 219 68 291 Q68 384 92.5 462.5 Q117 541 159.5 598.5 Q202 656 258.5 688 Q315 720 379 720 Q431 720 472 699 Q513 678 541.5 638.5 Q570 599 585 543 Q600 487 600 417 Q600 324 575.5 245.5 Q551 167 509 110 Q467 53 410.5 21.5 Q354 -10 291 -10 Z M298 39 Q353 39 397 66.5 Q441 94 473 141 Q505 188 523 249.5 Q541 311 544 379 Q547 403 547 428 Q547 444 546 459 Q545 474 543 489 Q531 574 488 623 Q445 672 373 672 Q324 672 282.5 648.5 Q241 625 209 584.5 Q177 544 156 490.5 Q135 437 126 378 Q121 356 119.5 333.5 Q118 311 118 289 Q118 172 165.5 105.5 Q213 39 298 39 Z " />
<glyph glyph-name="one" unicode="1" horiz-adv-x="410" d="M290 708 Q293 710 300 710 L313 710 Q322 710 321 702 L234 7 Q233 0 225 0 L192 0 Q183 0 184 8 L264 651 L93 571 Q91 570 88 570 Q83 570 84 577 L88 607 Q89 613 95 616 L290 708 L290 708 Z " />
<glyph glyph-name="two" unicode="2" horiz-adv-x="542" d="M110 45 L465 45 Q474 45 473 36 L469 7 Q468 0 461 0 L26 0 Q21 0 19.5 3 Q18 6 22 10 L312 309 Q382 379 418.5 433 Q455 487 455 545 Q455 605 410 639.5 Q365 674 293 674 Q244 674 201.5 660 Q159 646 123 622 Q112 615 114 627 L118 658 Q119 665 124 667 Q159 691 206 705.5 Q253 720 307 720 Q352 720 388.5 708.5 Q425 697 451.5 675.5 Q478 654 492.5 623.5 Q507 593 507 556 Q507 521 497 489.5 Q487 458 468 427.5 Q449 397 421.5 365 Q394 333 359 297 L110 45 Z " />
<glyph glyph-name="three" unicode="3" horiz-adv-x="523" d="M295 379 Q378 368 425.5 323 Q473 278 473 213 Q473 167 452.5 126.5 Q432 86 395 55.5 Q358 25 308 7.5 Q258 -10 200 -10 Q146 -10 102 0 Q58 10 26 26 Q19 29 21 36 L25 68 Q26 77 35 74 Q67 57 106.5 46.5 Q146 36 200 36 Q247 36 287.5 50 Q328 64 357.5 87.5 Q387 111 404 143 Q421 175 421 211 Q421 274 363 313 Q305 352 196 352 L175 352 Q165 352 167 361 L171 389 Q172 396 179 396 L201 396 Q258 396 301.5 410.5 Q345 425 374 448 Q403 471 418 499.5 Q433 528 433 557 Q433 608 391 641.5 Q349 675 274 675 Q230 675 193 664 Q156 653 122 636 Q121 635 118 635 Q111 635 113 642 L117 674 Q118 680 124 683 Q158 698 199 709 Q240 720 285 720 Q332 720 369 708 Q406 696 431.5 675.5 Q457 655 470 627.5 Q483 600 483 568 Q483 538 470.5 507.5 Q458 477 434 451.5 Q410 426 375 407 Q340 388 295 379 Z " />
<glyph glyph-name="four" unicode="4" horiz-adv-x="561" d="M529 188 Q537 188 536 180 L533 152 Q531 144 524 144 L425 144 L408 7 Q407 0 399 0 L366 0 Q357 0 358 8 L375 144 L20 144 Q12 144 13 152 L15 176 Q15 179 19 185 L451 705 Q454 710 461 710 L487 710 Q496 710 495 702 L431 188 L529 188 Z M438 627 Q421 605 405.5 585 Q390 565 373 545 L71 188 L381 188 L424 531 Q427 554 430 577.5 Q433 601 438 627 Z " />
<glyph glyph-name="five" unicode="5" horiz-adv-x="564" d="M523 672 Q523 664 514 664 L241 664 L160 428 Q186 436 217 441 Q248 446 280 446 Q328 446 369 432.5 Q410 419 439.5 394 Q469 369 485.5 332.5 Q502 296 502 251 Q502 192 477 144 Q452 96 410 62 Q368 28 311.5 9 Q255 -10 192 -10 Q150 -10 111.5 -1.5 Q73 7 44 23 Q37 26 39 33 L43 62 Q45 71 53 67 Q82 52 118.5 43.5 Q155 35 193 35 Q246 35 292.5 50 Q339 65 374 93 Q409 121 429 159 Q449 197 449 244 Q449 281 435 311 Q421 341 396 362 Q371 383 336 394.5 Q301 406 259 406 Q228 406 187.5 398 Q147 390 109 372 Q108 371 105 371 Q98 371 101 379 L209 703 Q211 710 218 710 L519 710 Q527 710 526 702 L523 672 L523 672 Z " />
<glyph glyph-name="six" unicode="6" horiz-adv-x="533" d="M300 429 Q344 429 380.5 415 Q417 401 443 375.5 Q469 350 483.5 315 Q498 280 498 237 Q498 183 475.5 137.5 Q453 92 416.5 59.5 Q380 27 333.5 8.5 Q287 -10 238 -10 Q193 -10 155.5 4 Q118 18 91 43.5 Q64 69 49 104.5 Q34 140 34 182 Q34 209 39.5 236 Q45 263 57 291 Q69 319 89 348.5 Q109 378 138 410 L413 706 Q417 710 423 710 L460 710 Q465 710 467 707 Q469 704 465 700 L217 438 Q206 427 191.5 411 Q177 395 162 379 Q197 406 230 417.5 Q263 429 300 429 Z M244 35 Q284 35 321.5 50.5 Q359 66 387.5 92.5 Q416 119 433.5 155 Q451 191 451 232 Q451 303 405.5 345.5 Q360 388 286 388 Q245 388 207.5 372.5 Q170 357 142 330 Q114 303 97.5 266.5 Q81 230 81 188 Q81 156 93 128 Q105 100 126.5 79.5 Q148 59 178 47 Q208 35 244 35 Z " />
<glyph glyph-name="seven" unicode="7" horiz-adv-x="475" d="M98 702 Q98 710 107 710 L522 710 Q527 710 528 707 Q529 704 527 700 L85 5 Q82 0 76 0 L39 0 Q34 0 33 3 Q32 6 34 10 L452 662 L102 662 Q95 662 95 670 L98 702 L98 702 Z " />
<glyph glyph-name="eight" unicode="8" horiz-adv-x="605" d="M271 -8 Q226 -8 187.5 5 Q149 18 120.5 41.5 Q92 65 76 98.5 Q60 132 60 174 Q60 213 75 247 Q90 281 114.5 307.5 Q139 334 171.5 352 Q204 370 239 379 Q190 395 162.5 433.5 Q135 472 135 524 Q135 567 153 603.5 Q171 640 202 665.5 Q233 691 274 705.5 Q315 720 362 720 Q402 720 435.5 708.5 Q469 697 493.5 676 Q518 655 531.5 626 Q545 597 545 561 Q545 496 505 447.5 Q465 399 400 379 Q428 372 452 357 Q476 342 494 320.5 Q512 299 522.5 272 Q533 245 533 214 Q533 164 511.5 123 Q490 82 454 53 Q418 24 370.5 8 Q323 -8 271 -8 Z M322 397 Q361 397 393.5 409.5 Q426 422 449.5 443 Q473 464 486 492.5 Q499 521 499 554 Q499 610 459 644.5 Q419 679 357 679 Q321 679 289 667.5 Q257 656 233 635.5 Q209 615 194.5 586.5 Q180 558 180 524 Q180 469 217.5 433 Q255 397 322 397 Z M276 33 Q319 33 356.5 46.5 Q394 60 422.5 84 Q451 108 467.5 141 Q484 174 484 213 Q484 245 471 271.5 Q458 298 435 317 Q412 336 381.5 346.5 Q351 357 316 357 Q276 357 239 344 Q202 331 173 308 Q144 285 126.5 252.5 Q109 220 109 181 Q109 149 121.5 121.5 Q134 94 156 74.5 Q178 55 208.5 44 Q239 33 276 33 Z " />
<glyph glyph-name="nine" unicode="9" horiz-adv-x="533" d="M323 720 Q368 720 405.5 706 Q443 692 470 666.5 Q497 641 512 605.5 Q527 570 527 528 Q527 474 504 419 Q481 364 423 300 L148 4 Q144 0 138 0 L101 0 Q96 0 94 3 Q92 6 96 10 L344 272 Q355 283 369.5 299 Q384 315 399 331 Q364 304 331 292.5 Q298 281 261 281 Q217 281 180.5 295 Q144 309 118 334.5 Q92 360 77.5 395 Q63 430 63 473 Q63 527 85.5 572.5 Q108 618 144.5 650.5 Q181 683 227.5 701.5 Q274 720 323 720 Z M275 322 Q316 322 353.5 337.5 Q391 353 419 380 Q447 407 463.5 443.5 Q480 480 480 522 Q480 554 468 582 Q456 610 434.5 630.5 Q413 651 383 663 Q353 675 317 675 Q277 675 239.5 659.5 Q202 644 173.5 617.5 Q145 591 127.5 555 Q110 519 110 478 Q110 407 155.5 364.5 Q201 322 275 322 Z " />
<glyph glyph-name="onesuperior" unicode="&#xb9;" horiz-adv-x="316" d="M249 842 Q255 844 259 844 L268 844 Q277 844 276 836 L225 430 Q224 423 216 423 L196 423 Q187 423 188 431 L235 801 L114 756 Q113 756 112.5 755.5 Q112 755 110 755 Q105 755 105 762 L106 780 Q106 785 113 789 L249 842 L249 842 Z " />
<glyph glyph-name="twosuperior" unicode="&#xb2;" horiz-adv-x="366" d="M114 456 L318 456 Q327 456 326 448 L324 430 Q323 423 315 423 L58 423 Q53 423 51.5 426 Q50 429 54 433 L222 607 Q259 645 283.5 676.5 Q308 708 308 745 Q308 776 284 796.5 Q260 817 216 817 Q189 817 163 809 Q137 801 115 788 Q111 786 111 786 Q104 786 106 794 L108 812 Q108 818 114 821 Q136 834 165 842 Q194 850 225 850 Q279 850 312.5 823.5 Q346 797 346 752 Q346 731 340 712.5 Q334 694 322.5 676.5 Q311 659 295 641 Q279 623 260 603 L114 456 Z " />
<glyph glyph-name="threesuperior" unicode="&#xb3;" horiz-adv-x="361" d="M229 648 Q280 640 308 613.5 Q336 587 336 548 Q336 521 323.5 497 Q311 473 288.5 455.5 Q266 438 235.5 427.5 Q205 417 169 417 Q136 417 110 422.5 Q84 428 64 437 Q57 440 59 447 L62 463 Q64 472 71 469 Q91 461 114 455.5 Q137 450 169 450 Q197 450 220.5 457.5 Q244 465 261 478.5 Q278 492 287.5 509.5 Q297 527 297 547 Q297 585 263.5 607.5 Q230 630 165 630 L154 630 Q144 630 146 639 L148 653 Q149 660 156 660 L168 660 Q201 660 226.5 668 Q252 676 268.5 689 Q285 702 293.5 718 Q302 734 302 751 Q302 780 277.5 799.5 Q253 819 210 819 Q184 819 163 813.5 Q142 808 123 799 Q121 798 119 798 Q112 798 114 805 L116 822 Q117 828 123 831 Q143 839 167.5 844.5 Q192 850 218 850 Q276 850 307.5 823.5 Q339 797 339 759 Q339 724 310.5 691.5 Q282 659 229 648 Z " />
<glyph glyph-name="fraction" unicode="&#x2044;" horiz-adv-x="116" d="M-214 -15 Q-220 -10 -216 -3 L337 721 Q342 728 348 723 L357 717 Q364 712 359 706 L-195 -18 Q-200 -25 -206 -20 L-214 -15 L-214 -15 Z " />
<glyph glyph-name="onehalf" unicode="&#xbd;" horiz-adv-x="805" d="M233 712 Q239 714 243 714 L252 714 Q261 714 260 706 L209 300 Q208 293 200 293 L180 293 Q171 293 172 301 L219 671 L98 626 Q97 626 96.5 625.5 Q96 625 94 625 Q89 625 89 632 L90 650 Q90 655 97 659 L233 712 L233 712 Z M107 -15 Q101 -10 105 -3 L658 721 Q663 728 669 723 L678 717 Q685 712 680 706 L126 -18 Q121 -25 115 -20 L107 -15 L107 -15 Z M520 33 L724 33 Q733 33 732 25 L730 7 Q729 0 721 0 L464 0 Q459 0 457.5 3 Q456 6 460 10 L628 184 Q665 222 689.5 253.5 Q714 285 714 322 Q714 353 690 373.5 Q666 394 622 394 Q595 394 569 386 Q543 378 521 365 Q517 363 517 363 Q510 363 512 371 L514 389 Q514 395 520 398 Q542 411 571 419 Q600 427 631 427 Q685 427 718.5 400.5 Q752 374 752 329 Q752 308 746 289.5 Q740 271 728.5 253.5 Q717 236 701 218 Q685 200 666 180 L520 33 Z " />
<glyph glyph-name="onequarter" unicode="&#xbc;" horiz-adv-x="735" d="M233 712 Q239 714 243 714 L252 714 Q261 714 260 706 L209 300 Q208 293 200 293 L180 293 Q171 293 172 301 L219 671 L98 626 Q97 626 96.5 625.5 Q96 625 94 625 Q89 625 89 632 L90 650 Q90 655 97 659 L233 712 L233 712 Z M107 -15 Q101 -10 105 -3 L658 721 Q663 728 669 723 L678 717 Q685 712 680 706 L126 -18 Q121 -25 115 -20 L107 -15 L107 -15 Z M689 114 Q698 114 697 106 L695 89 Q694 82 686 82 L633 82 L624 7 Q623 0 615 0 L595 0 Q586 0 587 8 L596 82 L402 82 Q392 82 394 91 L396 107 Q396 110 400 116 L640 416 Q643 421 650 421 L666 421 Q675 421 674 413 L637 114 L689 114 Z M602 114 L633 363 L433 114 L602 114 Z " />
<glyph glyph-name="threequarters" unicode="&#xbe;" horiz-adv-x="775" d="M213 518 Q264 510 292 483.5 Q320 457 320 418 Q320 391 307.5 367 Q295 343 272.5 325.5 Q250 308 219.5 297.5 Q189 287 153 287 Q120 287 94 292.5 Q68 298 48 307 Q41 310 43 317 L46 333 Q48 342 55 339 Q75 331 98 325.5 Q121 320 153 320 Q181 320 204.5 327.5 Q228 335 245 348.5 Q262 362 271.5 379.5 Q281 397 281 417 Q281 455 247.5 477.5 Q214 500 149 500 L138 500 Q128 500 130 509 L132 523 Q133 530 140 530 L152 530 Q185 530 210.5 538 Q236 546 252.5 559 Q269 572 277.5 588 Q286 604 286 621 Q286 650 261.5 669.5 Q237 689 194 689 Q168 689 147 683.5 Q126 678 107 669 Q105 668 103 668 Q96 668 98 675 L100 692 Q101 698 107 701 Q127 709 151.5 714.5 Q176 720 202 720 Q260 720 291.5 693.5 Q323 667 323 629 Q323 594 294.5 561.5 Q266 529 213 518 Z M147 -15 Q141 -10 145 -3 L698 721 Q703 728 709 723 L718 717 Q725 712 720 706 L166 -18 Q161 -25 155 -20 L147 -15 L147 -15 Z M729 114 Q738 114 737 106 L735 89 Q734 82 726 82 L673 82 L664 7 Q663 0 655 0 L635 0 Q626 0 627 8 L636 82 L442 82 Q432 82 434 91 L436 107 Q436 110 440 116 L680 416 Q683 421 690 421 L706 421 Q715 421 714 413 L677 114 L729 114 Z M642 114 L673 363 L473 114 L642 114 Z " />
<glyph glyph-name="oneeighth" unicode="&#x215b;" horiz-adv-x="780" d="M233 712 Q239 714 243 714 L252 714 Q261 714 260 706 L209 300 Q208 293 200 293 L180 293 Q171 293 172 301 L219 671 L98 626 Q97 626 96.5 625.5 Q96 625 94 625 Q89 625 89 632 L90 650 Q90 655 97 659 L233 712 L233 712 Z M107 -15 Q101 -10 105 -3 L658 721 Q663 728 669 723 L678 717 Q685 712 680 706 L126 -18 Q121 -25 115 -20 L107 -15 L107 -15 Z M579 -5 Q525 -5 488.5 24 Q452 53 452 104 Q452 127 460.5 147 Q469 167 483.5 182 Q498 197 517 208 Q536 219 557 224 Q528 235 512 257.5 Q496 280 496 310 Q496 336 507 357.5 Q518 379 537 394.5 Q556 410 581 418.5 Q606 427 635 427 Q683 427 714 401 Q745 375 745 333 Q745 294 721 265.5 Q697 237 659 224 Q692 216 714.5 190 Q737 164 737 127 Q737 97 724.5 73 Q712 49 690 31.5 Q668 14 639.5 4.5 Q611 -5 579 -5 Z M610 237 Q655 237 683 263 Q711 289 711 327 Q711 359 688 378.5 Q665 398 630 398 Q610 398 591.5 391.5 Q573 385 559 373 Q545 361 537 344.5 Q529 328 529 309 Q529 277 550.5 257 Q572 237 610 237 Z M584 25 Q608 25 629.5 33 Q651 41 667 54.5 Q683 68 692.5 86.5 Q702 105 702 127 Q702 144 694.5 159 Q687 174 674 185 Q661 196 643.5 202.5 Q626 209 607 209 Q584 209 563 201.5 Q542 194 525.5 180.5 Q509 167 499 148.5 Q489 130 489 109 Q489 72 515 48.5 Q541 25 584 25 Z " />
<glyph glyph-name="threeeighths" unicode="&#x215c;" horiz-adv-x="820" d="M213 518 Q264 510 292 483.5 Q320 457 320 418 Q320 391 307.5 367 Q295 343 272.5 325.5 Q250 308 219.5 297.5 Q189 287 153 287 Q120 287 94 292.5 Q68 298 48 307 Q41 310 43 317 L46 333 Q48 342 55 339 Q75 331 98 325.5 Q121 320 153 320 Q181 320 204.5 327.5 Q228 335 245 348.5 Q262 362 271.5 379.5 Q281 397 281 417 Q281 455 247.5 477.5 Q214 500 149 500 L138 500 Q128 500 130 509 L132 523 Q133 530 140 530 L152 530 Q185 530 210.5 538 Q236 546 252.5 559 Q269 572 277.5 588 Q286 604 286 621 Q286 650 261.5 669.5 Q237 689 194 689 Q168 689 147 683.5 Q126 678 107 669 Q105 668 103 668 Q96 668 98 675 L100 692 Q101 698 107 701 Q127 709 151.5 714.5 Q176 720 202 720 Q260 720 291.5 693.5 Q323 667 323 629 Q323 594 294.5 561.5 Q266 529 213 518 Z M147 -15 Q141 -10 145 -3 L698 721 Q703 728 709 723 L718 717 Q725 712 720 706 L166 -18 Q161 -25 155 -20 L147 -15 L147 -15 Z M619 -5 Q565 -5 528.5 24 Q492 53 492 104 Q492 127 500.5 147 Q509 167 523.5 182 Q538 197 557 208 Q576 219 597 224 Q568 235 552 257.5 Q536 280 536 310 Q536 336 547 357.5 Q558 379 577 394.5 Q596 410 621 418.5 Q646 427 675 427 Q723 427 754 401 Q785 375 785 333 Q785 294 761 265.5 Q737 237 699 224 Q732 216 754.5 190 Q777 164 777 127 Q777 97 764.5 73 Q752 49 730 31.5 Q708 14 679.5 4.5 Q651 -5 619 -5 Z M650 237 Q695 237 723 263 Q751 289 751 327 Q751 359 728 378.5 Q705 398 670 398 Q650 398 631.5 391.5 Q613 385 599 373 Q585 361 577 344.5 Q569 328 569 309 Q569 277 590.5 257 Q612 237 650 237 Z M624 25 Q648 25 669.5 33 Q691 41 707 54.5 Q723 68 732.5 86.5 Q742 105 742 127 Q742 144 734.5 159 Q727 174 714 185 Q701 196 683.5 202.5 Q666 209 647 209 Q624 209 603 201.5 Q582 194 565.5 180.5 Q549 167 539 148.5 Q529 130 529 109 Q529 72 555 48.5 Q581 25 624 25 Z " />
<glyph glyph-name="fiveeighths" unicode="&#x215d;" horiz-adv-x="823" d="M349 688 Q348 681 340 681 L191 681 L149 550 Q177 559 210 559 Q265 559 301 528 Q337 497 337 443 Q337 408 322.5 379.5 Q308 351 283 330.5 Q258 310 225 298.5 Q192 287 156 287 Q133 287 111.5 292 Q90 297 74 305 Q69 307 69 315 L71 332 Q73 341 81 337 Q115 320 155 320 Q185 320 211.5 328.5 Q238 337 257.5 353 Q277 369 288 390.5 Q299 412 299 439 Q299 480 269.5 504.5 Q240 529 192 529 Q175 529 154.5 525 Q134 521 114 512 Q113 511 110 511 Q103 511 106 519 L165 707 Q167 714 174 714 L343 714 Q352 714 351 706 L349 688 L349 688 Z M150 -15 Q144 -10 148 -3 L701 721 Q706 728 712 723 L721 717 Q728 712 723 706 L169 -18 Q164 -25 158 -20 L150 -15 L150 -15 Z M621 -5 Q567 -5 530.5 24 Q494 53 494 104 Q494 127 502.5 147 Q511 167 525.5 182 Q540 197 559 208 Q578 219 599 224 Q570 235 554 257.5 Q538 280 538 310 Q538 336 549 357.5 Q560 379 579 394.5 Q598 410 623 418.5 Q648 427 677 427 Q725 427 756 401 Q787 375 787 333 Q787 294 763 265.5 Q739 237 701 224 Q734 216 756.5 190 Q779 164 779 127 Q779 97 766.5 73 Q754 49 732 31.5 Q710 14 681.5 4.5 Q653 -5 621 -5 Z M652 237 Q697 237 725 263 Q753 289 753 327 Q753 359 730 378.5 Q707 398 672 398 Q652 398 633.5 391.5 Q615 385 601 373 Q587 361 579 344.5 Q571 328 571 309 Q571 277 592.5 257 Q614 237 652 237 Z M626 25 Q650 25 671.5 33 Q693 41 709 54.5 Q725 68 734.5 86.5 Q744 105 744 127 Q744 144 736.5 159 Q729 174 716 185 Q703 196 685.5 202.5 Q668 209 649 209 Q626 209 605 201.5 Q584 194 567.5 180.5 Q551 167 541 148.5 Q531 130 531 109 Q531 72 557 48.5 Q583 25 626 25 Z " />
<glyph glyph-name="seveneighths" unicode="&#x215e;" horiz-adv-x="737" d="M108 706 Q110 714 117 714 L366 714 Q371 714 372 711 Q373 708 371 704 L110 298 Q107 293 101 293 L79 293 Q74 293 72.5 296 Q71 299 73 303 L317 679 L113 679 Q105 679 106 687 L108 706 L108 706 Z M64 -15 Q58 -10 62 -3 L615 721 Q620 728 626 723 L635 717 Q642 712 637 706 L83 -18 Q78 -25 72 -20 L64 -15 L64 -15 Z M535 -5 Q481 -5 444.5 24 Q408 53 408 104 Q408 127 416.5 147 Q425 167 439.5 182 Q454 197 473 208 Q492 219 513 224 Q484 235 468 257.5 Q452 280 452 310 Q452 336 463 357.5 Q474 379 493 394.5 Q512 410 537 418.5 Q562 427 591 427 Q639 427 670 401 Q701 375 701 333 Q701 294 677 265.5 Q653 237 615 224 Q648 216 670.5 190 Q693 164 693 127 Q693 97 680.5 73 Q668 49 646 31.5 Q624 14 595.5 4.5 Q567 -5 535 -5 Z M566 237 Q611 237 639 263 Q667 289 667 327 Q667 359 644 378.5 Q621 398 586 398 Q566 398 547.5 391.5 Q529 385 515 373 Q501 361 493 344.5 Q485 328 485 309 Q485 277 506.5 257 Q528 237 566 237 Z M540 25 Q564 25 585.5 33 Q607 41 623 54.5 Q639 68 648.5 86.5 Q658 105 658 127 Q658 144 650.5 159 Q643 174 630 185 Q617 196 599.5 202.5 Q582 209 563 209 Q540 209 519 201.5 Q498 194 481.5 180.5 Q465 167 455 148.5 Q445 130 445 109 Q445 72 471 48.5 Q497 25 540 25 Z " />
<glyph glyph-name="asterisk" unicode="&#x2a;" horiz-adv-x="352" d="M121 402 Q116 395 110 401 L90 418 Q84 423 89 429 L127 471 L192 536 L116 555 L62 571 Q54 573 57 580 L70 610 Q73 617 80 614 L132 593 L203 562 L207 650 L211 702 Q213 710 220 710 L247 710 Q255 710 254 702 L245 649 L227 561 L311 595 L363 614 Q371 617 372 609 L377 586 Q378 582 377 576 Q377 572 371 571 L319 557 L233 536 L280 470 L307 430 Q311 423 305 418 L280 401 Q273 397 269 403 L245 449 L211 522 L155 447 L121 402 L121 402 Z " />
<glyph glyph-name="backslash" unicode="&#x5c;" horiz-adv-x="543" d="M496 -93 Q497 -94 497 -97 Q497 -102 490 -102 L468 -102 Q461 -102 458 -96 L69 755 Q69 756 68.5 756.5 Q68 757 68 759 Q68 764 75 764 L97 764 Q104 764 107 758 L496 -93 L496 -93 Z " />
<glyph glyph-name="periodcentered" unicode="&#xb7;" horiz-adv-x="275" d="M135 221 Q115 221 103.5 234.5 Q92 248 92 268 Q92 291 107.5 307.5 Q123 324 147 324 Q167 324 178.5 310.5 Q190 297 190 277 Q190 254 174 237.5 Q158 221 135 221 Z " />
<glyph glyph-name="bullet" unicode="&#x2022;" horiz-adv-x="323" d="M165 264 Q134 264 117 284.5 Q100 305 100 334 Q100 368 123.5 393 Q147 418 183 418 Q212 418 229.5 397.5 Q247 377 247 348 Q247 314 223.5 289 Q200 264 165 264 Z " />
<glyph glyph-name="colon" unicode="&#x3a;" horiz-adv-x="273" d="M145 305 Q125 305 114 318.5 Q103 332 103 352 Q103 374 118 390.5 Q133 407 157 407 Q177 407 188.5 393.5 Q200 380 200 361 Q200 338 184 321.5 Q168 305 145 305 Z M106 -9 Q86 -9 75 4.5 Q64 18 64 38 Q64 60 79 76.5 Q94 93 118 93 Q138 93 149.5 79.5 Q161 66 161 47 Q161 24 145 7.5 Q129 -9 106 -9 Z " />
<glyph glyph-name="comma" unicode="&#x2c;" horiz-adv-x="276" d="M119 96 Q138 96 150.5 83.5 Q163 71 163 51 Q163 33 153.5 13.5 Q144 -6 133 -26 L74 -132 Q71 -138 65 -138 L55 -138 Q45 -138 49 -129 L99 -7 Q84 -5 74 7 Q64 19 64 38 Q64 65 81.5 80.5 Q99 96 119 96 Z " />
<glyph glyph-name="ellipsis" unicode="&#x2026;" horiz-adv-x="653" d="M107 -7 Q87 -7 75.5 6.5 Q64 20 64 40 Q64 63 79.5 79.5 Q95 96 119 96 Q139 96 150.5 82.5 Q162 69 162 49 Q162 26 146 9.5 Q130 -7 107 -7 Z M296 -7 Q276 -7 264.5 6.5 Q253 20 253 40 Q253 63 268.5 79.5 Q284 96 308 96 Q328 96 339.5 82.5 Q351 69 351 49 Q351 26 335 9.5 Q319 -7 296 -7 Z M485 -7 Q465 -7 453.5 6.5 Q442 20 442 40 Q442 63 457.5 79.5 Q473 96 497 96 Q517 96 528.5 82.5 Q540 69 540 49 Q540 26 524 9.5 Q508 -7 485 -7 Z " />
<glyph glyph-name="exclam" unicode="&#x21;" horiz-adv-x="278" d="M117 171 Q109 171 110 179 L169 702 Q171 710 178 710 L213 710 Q222 710 221 701 L148 178 Q147 171 140 171 L117 171 Z M108 -7 Q88 -7 76.5 6.5 Q65 20 65 40 Q65 63 80.5 79.5 Q96 96 120 96 Q140 96 151.5 82.5 Q163 69 163 49 Q163 26 147 9.5 Q131 -7 108 -7 Z " />
<glyph glyph-name="exclamdown" unicode="&#xa1;" horiz-adv-x="279" d="M199 720 Q219 720 230.5 706.5 Q242 693 242 673 Q242 650 226.5 633.5 Q211 617 187 617 Q167 617 155.5 630.5 Q144 644 144 664 Q144 687 160 703.5 Q176 720 199 720 Z M190 542 Q198 542 197 534 L138 11 Q136 3 129 3 L94 3 Q84 3 86 12 L159 535 Q160 542 167 542 L190 542 Z " />
<glyph glyph-name="numbersign" unicode="&#x23;" horiz-adv-x="627" d="M608 486 Q608 478 600 478 L476 478 L430 257 L571 257 Q579 257 579 249 L579 230 Q579 222 571 222 L423 222 L378 7 Q376 0 370 0 L350 0 Q341 0 343 9 L387 222 L203 222 L158 7 Q156 0 150 0 L130 0 Q121 0 123 9 L167 222 L58 222 Q50 222 50 230 L50 249 Q50 257 58 257 L174 257 L220 478 L87 478 Q79 478 79 486 L79 505 Q79 513 87 513 L227 513 L267 703 Q269 710 275 710 L295 710 Q303 710 302 701 L263 513 L447 513 L487 703 Q489 710 495 710 L515 710 Q523 710 522 701 L483 513 L600 513 Q608 513 608 505 L608 486 Z M440 478 L256 478 L210 257 L394 257 L440 478 Z " />
<glyph glyph-name="period" unicode="&#x2e;" horiz-adv-x="275" d="M107 -7 Q87 -7 75.5 6.5 Q64 20 64 40 Q64 63 79.5 79.5 Q95 96 119 96 Q139 96 150.5 82.5 Q162 69 162 49 Q162 26 146 9.5 Q130 -7 107 -7 Z " />
<glyph glyph-name="question" unicode="&#x3f;" horiz-adv-x="486" d="M188 160 Q181 160 181 168 L195 318 Q195 323 202 327 Q241 346 278 367 Q315 388 344 413.5 Q373 439 390.5 471.5 Q408 504 408 546 Q408 606 366 641 Q324 676 257 676 Q212 676 172.5 664.5 Q133 653 99 633 Q97 632 95 632 Q88 632 90 639 L93 668 Q93 673 99 677 Q132 695 178 707.5 Q224 720 270 720 Q359 720 409.5 675.5 Q460 631 460 556 Q460 506 440.5 468 Q421 430 389.5 400 Q358 370 318 346.5 Q278 323 238 304 L217 167 Q215 160 209 160 L188 160 Z M181 -7 Q161 -7 149.5 6.5 Q138 20 138 39 Q138 62 153.5 78.5 Q169 95 193 95 Q213 95 225 81.5 Q237 68 237 48 Q237 26 220.5 9.5 Q204 -7 181 -7 Z " />
<glyph glyph-name="questiondown" unicode="&#xbf;" horiz-adv-x="485" d="M333 720 Q353 720 364.5 706.5 Q376 693 376 674 Q376 651 360.5 634.5 Q345 618 321 618 Q301 618 289 631.5 Q277 645 277 665 Q277 687 293.5 703.5 Q310 720 333 720 Z M326 553 Q333 553 333 545 L319 395 Q319 389 312 386 Q273 367 236 346 Q199 325 170 299.5 Q141 274 123.5 241.5 Q106 209 106 167 Q106 107 148 72 Q190 37 257 37 Q302 37 341.5 48.5 Q381 60 415 80 Q417 81 419 81 Q426 81 424 74 L421 45 Q421 40 415 36 Q382 18 336 5.5 Q290 -7 244 -7 Q155 -7 104.5 37.5 Q54 82 54 157 Q54 206 73.5 244.5 Q93 283 124.5 313 Q156 343 196 366 Q236 389 276 409 L297 546 Q299 553 305 553 L326 553 Z " />
<glyph glyph-name="quotedbl" unicode="&#x22;" horiz-adv-x="362" d="M138 495 Q131 495 131 503 L145 702 Q145 710 154 710 L190 710 Q199 710 198 701 L164 502 Q162 495 156 495 L138 495 Z M270 495 Q263 495 263 503 L277 702 Q277 710 286 710 L322 710 Q331 710 330 701 L296 502 Q294 495 288 495 L270 495 Z " />
<glyph glyph-name="quotesingle" unicode="&#x27;" horiz-adv-x="230" d="M138 495 Q131 495 131 503 L145 702 Q145 710 154 710 L190 710 Q199 710 198 701 L164 502 Q162 495 156 495 L138 495 L138 495 Z " />
<glyph glyph-name="semicolon" unicode="&#x3b;" horiz-adv-x="276" d="M160 407 Q180 407 191.5 393.5 Q203 380 203 361 Q203 338 187 321.5 Q171 305 148 305 Q128 305 117 318.5 Q106 332 106 352 Q106 374 121 390.5 Q136 407 160 407 Z M118 93 Q137 93 149.5 80.5 Q162 68 162 48 Q162 31 152.5 11.5 Q143 -8 132 -28 L74 -132 Q71 -138 65 -138 L55 -138 Q45 -138 49 -129 L99 -9 Q84 -7 74 5 Q64 17 64 35 Q64 62 81 77.5 Q98 93 118 93 Z " />
<glyph glyph-name="slash" unicode="&#x2f;" horiz-adv-x="330" d="M-32 -102 Q-42 -102 -38 -93 L351 758 Q354 764 361 764 L383 764 Q393 764 389 755 L0 -96 Q-3 -102 -10 -102 L-32 -102 L-32 -102 Z " />
<glyph glyph-name="underscore" unicode="&#x5f;" horiz-adv-x="508" d="M27 -129 Q18 -129 19 -121 L22 -94 Q24 -86 31 -86 L396 -86 Q405 -86 404 -94 L401 -121 Q399 -129 392 -129 L27 -129 L27 -129 Z " />
<glyph glyph-name="braceleft" unicode="&#x7b;" horiz-adv-x="225" d="M200 716 Q214 716 225.5 714 Q237 712 246 710 Q254 708 252 701 L250 686 Q249 678 241 680 Q224 683 208 683 Q175 683 155 663.5 Q135 644 135 610 Q135 588 141 560.5 Q147 533 154.5 504 Q162 475 168 447 Q174 419 174 395 Q174 379 169 363 Q164 347 154 333.5 Q144 320 129 310 Q114 300 94 297 Q126 292 139.5 270 Q153 248 153 222 Q153 195 137.5 160.5 Q122 126 103 91 Q84 56 68.5 23 Q53 -10 53 -35 Q53 -60 68 -74.5 Q83 -89 112 -89 Q131 -89 144 -85 L146 -85 Q155 -85 153 -93 L151 -107 Q149 -115 144 -116 Q134 -118 122 -119.5 Q110 -121 95 -121 Q50 -121 30 -98.5 Q10 -76 10 -43 Q10 -13 25.5 22.5 Q41 58 60 93 Q79 128 94.5 161 Q110 194 110 220 Q110 240 98.5 257 Q87 274 55 278 Q47 280 48 287 L49 297 L51 309 Q53 316 59 317 Q82 319 96.5 327 Q111 335 119 346 Q127 357 130 370 Q133 383 133 395 Q133 417 126.5 444 Q120 471 112.5 500 Q105 529 99 557.5 Q93 586 93 611 Q93 655 119 685.5 Q145 716 200 716 Z " />
<glyph glyph-name="braceright" unicode="&#x7d;" horiz-adv-x="225" d="M135 374 Q135 354 146.5 337.5 Q158 321 190 317 Q198 315 197 308 L196 297 L194 286 Q192 279 186 278 Q163 276 149 268 Q135 260 127 248.5 Q119 237 116 224 Q113 211 113 199 Q113 178 119 150.5 Q125 123 132.5 94.5 Q140 66 146.5 37 Q153 8 153 -16 Q153 -60 126.5 -90.5 Q100 -121 45 -121 Q17 -121 -1 -116 Q-9 -114 -7 -107 L-5 -92 Q-4 -83 4 -85 Q19 -89 37 -89 Q71 -89 90.5 -69.5 Q110 -50 110 -15 Q110 7 104 34 Q98 61 90.5 90 Q83 119 77 147.5 Q71 176 71 200 Q71 232 90.5 261 Q110 290 152 297 Q120 302 106.5 324.5 Q93 347 93 372 Q93 399 108.5 433.5 Q124 468 142.5 503 Q161 538 176.5 571 Q192 604 192 629 Q192 654 177 668.5 Q162 683 134 683 Q117 683 101 680 L99 680 Q91 680 93 687 L94 701 Q94 708 101 710 Q111 712 123 714 Q135 716 150 716 Q195 716 214.5 693.5 Q234 671 234 637 Q234 607 218.5 572 Q203 537 184.5 501.5 Q166 466 150.5 433 Q135 400 135 374 Z " />
<glyph glyph-name="bracketleft" unicode="&#x5b;" horiz-adv-x="319" d="M190 -110 Q189 -117 181 -117 L47 -117 Q38 -117 39 -109 L140 703 Q141 710 149 710 L277 710 Q285 710 284 702 L282 682 Q282 674 273 674 L178 674 L84 -79 L185 -79 Q194 -79 193 -87 L190 -110 L190 -110 Z " />
<glyph glyph-name="bracketright" unicode="&#x5d;" horiz-adv-x="318" d="M48 -117 Q38 -117 40 -108 L43 -86 Q44 -79 51 -79 L155 -79 L249 674 L154 674 Q146 674 147 682 L149 702 Q149 710 158 710 L286 710 Q295 710 294 702 L192 -110 Q191 -117 183 -117 L48 -117 L48 -117 Z " />
<glyph glyph-name="parenleft" unicode="&#x28;" horiz-adv-x="286" d="M194 -99 Q198 -104 196.5 -106.5 Q195 -109 190 -109 L167 -109 Q161 -109 157 -105 Q102 -40 73 47 Q44 134 44 228 Q44 258 47 288 Q53 346 70 404 Q87 462 114.5 516 Q142 570 178.5 618 Q215 666 259 706 Q263 710 269 710 L291 710 Q296 710 297.5 707 Q299 704 295 700 Q253 658 217.5 607.5 Q182 557 155.5 503.5 Q129 450 112.5 395 Q96 340 91 289 Q88 263 88 235 Q88 192 95 147.5 Q102 103 115.5 59.5 Q129 16 148.5 -24.5 Q168 -65 194 -99 Z " />
<glyph glyph-name="parenright" unicode="&#x29;" horiz-adv-x="285" d="M10 -109 Q5 -109 3.5 -106 Q2 -103 6 -99 Q48 -57 83.5 -6.5 Q119 44 145 97.5 Q171 151 188 206 Q205 261 210 313 Q213 338 213 366 Q213 453 185.5 542 Q158 631 107 700 Q103 705 104.5 707.5 Q106 710 111 710 L134 710 Q140 710 144 706 Q199 642 228 555.5 Q257 469 257 375 Q257 344 254 314 Q249 255 231.5 197.5 Q214 140 186.5 86 Q159 32 122.5 -16.5 Q86 -65 42 -105 Q38 -109 32 -109 L10 -109 L10 -109 Z " />
<glyph glyph-name="emdash" unicode="&#x2014;" horiz-adv-x="885" d="M72 237 Q63 237 64 245 L67 272 Q69 280 76 280 L818 280 Q827 280 826 272 L823 245 Q821 237 814 237 L72 237 L72 237 Z " />
<glyph glyph-name="endash" unicode="&#x2013;" horiz-adv-x="508" d="M72 237 Q63 237 64 245 L67 272 Q69 280 76 280 L441 280 Q450 280 449 272 L446 245 Q444 237 437 237 L72 237 L72 237 Z " />
<glyph glyph-name="hyphen" unicode="&#x2d;" horiz-adv-x="393" d="M71 237 Q63 237 64 245 L67 273 Q69 281 76 281 L327 281 Q334 281 334 273 L332 245 Q332 237 323 237 L71 237 L71 237 Z " />
<glyph glyph-name="softhyphen" unicode="&#xad;" horiz-adv-x="393" d="M71 237 Q63 237 64 245 L67 273 Q69 281 76 281 L327 281 Q334 281 334 273 L332 245 Q332 237 323 237 L71 237 L71 237 Z " />
<glyph glyph-name="guillemetleft" unicode="&#xab;" horiz-adv-x="526" d="M233 52 Q227 45 222 52 L77 246 Q73 252 78 257 L269 441 Q276 446 280 441 L294 424 Q299 418 294 413 L131 252 L253 84 Q257 79 252 73 L233 52 Z M410 52 Q404 45 399 52 L254 246 Q250 252 255 257 L446 441 Q453 446 457 441 L471 424 Q476 418 471 413 L308 252 L430 84 Q434 79 429 73 L410 52 Z " />
<glyph glyph-name="guillemetright" unicode="&#xbb;" horiz-adv-x="527" d="M118 442 Q123 449 129 442 L274 248 Q278 242 273 237 L82 53 Q75 48 71 53 L57 70 Q52 76 57 81 L220 242 L98 410 Q94 415 99 421 L118 442 Z M295 442 Q300 449 306 442 L451 248 Q455 242 450 237 L259 53 Q252 48 248 53 L234 70 Q229 76 234 81 L397 242 L275 410 Q271 415 276 421 L295 442 Z " />
<glyph glyph-name="guilsinglleft" unicode="&#x2039;" horiz-adv-x="349" d="M233 52 Q227 45 222 52 L77 246 Q73 252 78 257 L269 441 Q276 446 280 441 L294 424 Q299 418 294 413 L131 252 L253 84 Q257 79 252 73 L233 52 L233 52 Z " />
<glyph glyph-name="guilsinglright" unicode="&#x203a;" horiz-adv-x="351" d="M82 51 Q76 45 71 52 L57 72 Q53 78 58 83 L222 252 L100 412 Q95 418 100 423 L119 441 Q126 446 130 440 L275 258 Q280 252 275 247 L82 51 L82 51 Z " />
<glyph glyph-name="quotedblbase" unicode="&#x201e;" horiz-adv-x="417" d="M119 96 Q138 96 150.5 83.5 Q163 71 163 51 Q163 33 153.5 13.5 Q144 -6 133 -26 L74 -132 Q71 -138 65 -138 L55 -138 Q45 -138 49 -129 L99 -7 Q84 -5 74 7 Q64 19 64 38 Q64 65 81.5 80.5 Q99 96 119 96 Z M260 96 Q279 96 291.5 83.5 Q304 71 304 51 Q304 33 294.5 13.5 Q285 -6 274 -26 L215 -132 Q212 -138 206 -138 L196 -138 Q186 -138 190 -129 L240 -7 Q225 -5 215 7 Q205 19 205 38 Q205 65 222.5 80.5 Q240 96 260 96 Z " />
<glyph glyph-name="quotedblleft" unicode="&#x201c;" horiz-adv-x="417" d="M189 579 Q204 577 214 565 Q224 553 224 534 Q224 507 206.5 491.5 Q189 476 169 476 Q150 476 137.5 488.5 Q125 501 125 521 Q125 539 134.5 558.5 Q144 578 155 598 L214 704 Q217 710 223 710 L233 710 Q243 710 239 701 L189 579 L189 579 Z M330 579 Q345 577 355 565 Q365 553 365 534 Q365 507 347.5 491.5 Q330 476 310 476 Q291 476 278.5 488.5 Q266 501 266 521 Q266 539 275.5 558.5 Q285 578 296 598 L355 704 Q358 710 364 710 L374 710 Q384 710 380 701 L330 579 L330 579 Z " />
<glyph glyph-name="quotedblright" unicode="&#x201d;" horiz-adv-x="418" d="M196 720 Q215 720 227.5 707.5 Q240 695 240 675 Q240 657 230.5 637.5 Q221 618 210 598 L151 492 Q148 486 142 486 L132 486 Q122 486 126 495 L176 617 Q161 619 151 631 Q141 643 141 662 Q141 689 158.5 704.5 Q176 720 196 720 Z M337 720 Q356 720 368.5 707.5 Q381 695 381 675 Q381 657 371.5 637.5 Q362 618 351 598 L292 492 Q289 486 283 486 L273 486 Q263 486 267 495 L317 617 Q302 619 292 631 Q282 643 282 662 Q282 689 299.5 704.5 Q317 720 337 720 Z " />
<glyph glyph-name="quoteleft" unicode="&#x2018;" horiz-adv-x="276" d="M189 579 Q204 577 214 565 Q224 553 224 534 Q224 507 206.5 491.5 Q189 476 169 476 Q150 476 137.5 488.5 Q125 501 125 521 Q125 539 134.5 558.5 Q144 578 155 598 L214 704 Q217 710 223 710 L233 710 Q243 710 239 701 L189 579 L189 579 Z " />
<glyph glyph-name="quoteright" unicode="&#x2019;" horiz-adv-x="277" d="M196 720 Q215 720 227.5 707.5 Q240 695 240 675 Q240 657 230.5 637.5 Q221 618 210 598 L151 492 Q148 486 142 486 L132 486 Q122 486 126 495 L176 617 Q161 619 151 631 Q141 643 141 662 Q141 689 158.5 704.5 Q176 720 196 720 Z " />
<glyph glyph-name="quotesinglbase" unicode="&#x201a;" horiz-adv-x="276" d="M119 96 Q138 96 150.5 83.5 Q163 71 163 51 Q163 33 153.5 13.5 Q144 -6 133 -26 L74 -132 Q71 -138 65 -138 L55 -138 Q45 -138 49 -129 L99 -7 Q84 -5 74 7 Q64 19 64 38 Q64 65 81.5 80.5 Q99 96 119 96 Z " />
<glyph glyph-name="emspace" unicode="&#x2003;" horiz-adv-x="1000" d="" />
<glyph glyph-name="enspace" unicode="&#x2002;" horiz-adv-x="500" d="" />
<glyph glyph-name="fourperemspace" unicode="&#x2005;" horiz-adv-x="250" d="" />
<glyph glyph-name="hairspace" unicode="&#x200a;" horiz-adv-x="73" d="" />
<glyph glyph-name="Acircumflex" unicode="&#xc2;" horiz-adv-x="605" d="M532 0 Q524 0 523 7 Q508 64 492.5 119.5 Q477 175 463 232 L140 232 Q111 175 81.5 119 Q52 63 23 6 Q20 0 14 0 L-23 0 Q-28 0 -29.5 3 Q-31 6 -29 10 L341 708 Q344 714 350 714 L371 714 Q378 714 380 707 L576 9 L576 7 Q576 0 570 0 L532 0 Z M451 275 Q426 368 401.5 459 Q377 550 352 641 L162 275 L451 275 Z M504 766 Q506 762 506 761 Q506 756 499 756 L475 756 Q468 756 465 761 L386 856 L283 760 Q279 756 273 756 L250 756 Q245 756 243.5 759 Q242 762 246 766 L368 891 Q372 895 378 895 L404 895 Q411 895 414 890 L504 766 L504 766 Z " />
<glyph glyph-name="nbspace" unicode="&#xa0;" horiz-adv-x="218" d="" />
<glyph glyph-name="thinspace" unicode="&#x2009;" horiz-adv-x="109" d="" />
<glyph glyph-name="threeperemspace" unicode="&#x2004;" horiz-adv-x="581" d="" />
<glyph glyph-name="cent" unicode="&#xa2;" horiz-adv-x="481" d="M354 566 Q306 566 263 549.5 Q220 533 187 502.5 Q154 472 135 429 Q116 386 116 333 Q116 291 130.5 257.5 Q145 224 170.5 200.5 Q196 177 230.5 165 Q265 153 306 153 Q371 153 426 179 Q428 180 431 180 Q436 180 435 173 L431 141 Q430 134 424 133 Q397 122 363 115.5 Q329 109 292 109 L290 109 L266 -15 Q264 -22 258 -22 L239 -22 Q230 -22 232 -13 L258 111 Q216 116 180.5 133.5 Q145 151 119 179.5 Q93 208 78.5 246 Q64 284 64 330 Q64 388 84 437.5 Q104 487 139.5 523 Q175 559 222.5 581 Q270 603 325 608 L346 725 Q348 732 354 732 L373 732 Q381 732 380 723 L358 609 Q392 608 421 602 Q450 596 473 587 Q480 584 478 577 L474 544 Q473 534 465 539 Q442 553 414 559.5 Q386 566 354 566 Z " />
<glyph glyph-name="currency" unicode="&#xa4;" horiz-adv-x="621" d="M606 107 Q608 105 608.5 101 Q609 97 606 95 L593 83 Q590 80 586.5 81 Q583 82 581 84 L468 197 Q441 170 405 155 Q369 140 325 140 Q282 140 246 155 Q210 170 183 196 L71 84 Q69 82 65.5 81 Q62 80 59 83 L46 95 Q43 97 43.5 101 Q44 105 46 107 L160 222 Q140 250 129 285 Q118 320 118 360 Q118 401 128.5 435.5 Q139 470 159 498 L43 614 Q41 616 40.5 620 Q40 624 43 626 L56 638 Q62 644 68 638 L182 524 Q208 550 244 564.5 Q280 579 323 579 Q367 579 403 564 Q439 549 466 523 L578 637 Q584 643 590 638 L603 626 Q606 624 605.5 620 Q605 616 603 614 L488 498 Q508 470 519 435 Q530 400 530 360 Q530 280 490 223 L606 107 Z M325 180 Q362 180 392.5 193.5 Q423 207 445 231 Q467 255 479 287.5 Q491 320 491 358 Q491 397 479 430 Q467 463 445 487.5 Q423 512 392 525.5 Q361 539 323 539 Q286 539 255.5 525.5 Q225 512 203 488 Q181 464 169 431.5 Q157 399 157 360 Q157 321 169.5 288 Q182 255 204 231 Q226 207 257 193.5 Q288 180 325 180 Z " />
<glyph glyph-name="dollar" unicode="&#x24;" horiz-adv-x="585" d="M523 616 Q522 608 513 612 Q489 629 459.5 639.5 Q430 650 399 655 L334 390 Q372 377 402.5 361.5 Q433 346 455 326.5 Q477 307 488.5 281.5 Q500 256 500 223 Q500 174 480.5 134 Q461 94 427 66 Q393 38 346.5 23 Q300 8 245 8 L243 8 L211 -125 Q209 -132 202 -132 L182 -132 Q173 -132 175 -123 L208 10 Q166 15 127.5 27.5 Q89 40 63 58 Q59 62 59 68 L63 102 Q65 113 73 106 Q102 86 139 72 Q176 58 218 53 L291 351 Q264 361 235 373.5 Q206 386 182 404 Q158 422 142.5 448.5 Q127 475 127 513 Q127 555 145.5 590 Q164 625 195.5 649.5 Q227 674 269 688 Q311 702 358 702 L375 702 L405 826 Q407 833 414 833 L433 833 Q442 833 440 824 L409 698 Q441 693 469.5 683 Q498 673 523 659 Q530 656 528 649 L523 616 Z M364 658 L356 658 Q320 658 288 648 Q256 638 232.5 620 Q209 602 195 577 Q181 552 181 522 Q181 496 191 477 Q201 458 217.5 444 Q234 430 256 419.5 Q278 409 302 400 L364 658 Z M446 215 Q446 265 412 292 Q378 319 323 339 L254 52 Q294 53 329 64 Q364 75 390 96 Q416 117 431 147 Q446 177 446 215 Z " />
<glyph glyph-name="euro" unicode="&#x20ac;" horiz-adv-x="585" d="M459 674 Q411 674 367 658 Q323 642 285.5 611.5 Q248 581 219.5 537.5 Q191 494 175 440 L522 440 Q530 440 529 432 L527 412 Q527 404 518 404 L166 404 Q162 383 159.5 360.5 Q157 338 157 315 L507 315 Q515 315 514 307 L512 286 Q512 278 503 278 L158 278 Q162 221 180 176.5 Q198 132 227.5 100.5 Q257 69 295.5 52.5 Q334 36 380 36 Q417 36 451 44.5 Q485 53 513 65 Q515 66 518 66 Q523 66 522 59 L519 28 Q519 22 512 20 Q482 7 445 -2 Q408 -11 367 -11 Q313 -11 267.5 9.5 Q222 30 188 67.5 Q154 105 133.5 158.5 Q113 212 110 278 L48 278 Q40 278 41 286 L43 307 Q43 315 52 315 L109 315 Q111 362 118 404 L63 404 Q55 404 56 412 L58 432 Q58 440 67 440 L127 440 Q145 505 178 557 Q211 609 255 645 Q299 681 351.5 700.5 Q404 720 460 720 Q497 720 529 711.5 Q561 703 586 692 Q593 689 591 682 L587 651 Q585 641 580 644 Q557 657 526.5 665.5 Q496 674 459 674 Z " />
<glyph glyph-name="florin" unicode="&#x192;" horiz-adv-x="384" d="M358 716 Q284 716 256 607 L225 480 L370 480 Q378 480 377 472 L375 449 Q375 441 366 441 L216 441 L104 -25 Q85 -102 51 -138.5 Q17 -175 -41 -175 Q-64 -175 -83.5 -172 Q-103 -169 -117 -164 Q-122 -162 -122 -154 L-120 -125 Q-120 -115 -110 -120 Q-86 -132 -46 -132 Q28 -132 55 -23 L167 441 L71 441 Q64 441 64 449 L66 472 Q66 480 74 480 L176 480 L207 609 Q226 686 260.5 722.5 Q295 759 352 759 Q377 759 397.5 754.5 Q418 750 432 743 Q437 740 437 733 L435 705 Q435 700 432.5 698.5 Q430 697 427 699 Q401 716 358 716 Z " />
<glyph glyph-name="sterling" unicode="&#xa3;" horiz-adv-x="585" d="M466 676 Q401 676 360.5 635.5 Q320 595 303 526 L269 391 L482 391 Q491 391 490 382 L487 360 Q486 353 479 353 L259 353 L179 41 L481 41 Q490 41 489 32 L485 7 Q483 0 477 0 L68 0 Q58 0 60 9 L64 34 Q66 41 72 41 L131 41 L210 353 L133 353 Q123 353 125 362 L129 384 Q131 391 137 391 L219 391 L254 529 Q277 618 328.5 669 Q380 720 465 720 Q501 720 532.5 711.5 Q564 703 587 689 Q591 686 591 680 L589 649 Q589 637 581 643 Q558 658 529 667 Q500 676 466 676 Z " />
<glyph glyph-name="yen" unicode="&#xa5;" horiz-adv-x="564" d="M594 710 Q599 710 600.5 707.5 Q602 705 599 700 L328 326 L470 326 Q479 326 478 317 L474 295 Q472 288 466 288 L311 288 L276 7 Q275 0 267 0 L232 0 Q223 0 224 8 L259 288 L109 288 Q99 288 101 297 L105 319 Q107 326 113 326 L251 326 L74 701 Q74 702 73.5 702.5 Q73 703 73 705 Q73 710 80 710 L120 710 Q127 710 130 704 L294 352 L545 705 Q548 710 555 710 L594 710 L594 710 Z " />
<glyph glyph-name="plus" unicode="&#x2b;" horiz-adv-x="550" d="M503 318 Q511 318 511 310 L511 282 Q511 274 503 274 L296 274 L296 58 Q296 50 288 50 L262 50 Q254 50 254 58 L254 274 L47 274 Q39 274 39 282 L39 310 Q39 318 47 318 L254 318 L254 533 Q254 541 262 541 L288 541 Q296 541 296 533 L296 318 L503 318 L503 318 Z " />
<glyph glyph-name="minus" unicode="&#x2212;" horiz-adv-x="550" d="M47 274 Q39 274 39 282 L39 310 Q39 318 47 318 L503 318 Q511 318 511 310 L511 282 Q511 274 503 274 L47 274 L47 274 Z " />
<glyph glyph-name="multiply" unicode="&#xd7;" horiz-adv-x="550" d="M494 493 Q500 487 494 481 L304 291 L495 100 Q500 95 495 89 L477 69 Q472 63 466 69 L275 261 L84 70 Q82 68 78 67.5 Q74 67 72 70 L54 89 Q49 95 55 101 L245 291 L55 481 Q50 486 55 492 L72 512 Q76 517 83 512 L275 321 L465 511 Q471 517 477 511 L494 493 L494 493 Z " />
<glyph glyph-name="divide" unicode="&#xf7;" horiz-adv-x="550" d="M246 449 Q226 449 215 462.5 Q204 476 204 495 Q204 517 219.5 533.5 Q235 550 258 550 Q278 550 289.5 536.5 Q301 523 301 504 Q301 482 285 465.5 Q269 449 246 449 Z M47 275 Q39 275 39 283 L39 311 Q39 319 47 319 L503 319 Q511 319 511 311 L511 283 Q511 275 503 275 L47 275 Z M246 43 Q226 43 215 56.5 Q204 70 204 89 Q204 111 219.5 127.5 Q235 144 258 144 Q278 144 289.5 130.5 Q301 117 301 98 Q301 76 285 59.5 Q269 43 246 43 Z " />
<glyph glyph-name="equal" unicode="&#x3d;" horiz-adv-x="550" d="M47 368 Q39 368 39 376 L39 404 Q39 412 47 412 L503 412 Q511 412 511 404 L511 376 Q511 368 503 368 L47 368 Z M47 173 Q39 173 39 181 L39 209 Q39 217 47 217 L503 217 Q511 217 511 209 L511 181 Q511 173 503 173 L47 173 Z " />
<glyph glyph-name="notequal" unicode="&#x2260;" horiz-adv-x="550" d="M511 376 Q511 368 503 368 L311 368 L242 217 L503 217 Q511 217 511 209 L511 181 Q511 173 503 173 L222 173 L169 56 Q166 50 159 50 L144 50 Q134 50 138 59 L190 173 L47 173 Q39 173 39 181 L39 209 Q39 217 47 217 L210 217 L279 368 L47 368 Q39 368 39 376 L39 404 Q39 412 47 412 L299 412 L355 535 Q358 541 365 541 L380 541 Q390 541 386 532 L331 412 L503 412 Q511 412 511 404 L511 376 L511 376 Z " />
<glyph glyph-name="greater" unicode="&#x3e;" horiz-adv-x="550" d="M63 4 Q62 3 59 3 Q54 3 54 10 L54 46 Q54 52 60 55 L456 254 L60 453 Q54 456 54 462 L54 497 Q54 508 63 503 L521 270 Q527 267 527 261 L527 246 Q527 240 521 237 L63 4 L63 4 Z " />
<glyph glyph-name="less" unicode="&#x3c;" horiz-adv-x="550" d="M511 10 Q511 -1 502 4 L45 237 Q39 240 39 246 L39 261 Q39 267 45 270 L502 503 Q503 504 506 504 Q511 504 511 497 L511 462 Q511 456 505 453 L109 254 L505 55 Q511 52 511 46 L511 10 L511 10 Z " />
<glyph glyph-name="greaterequal" unicode="&#x2265;" horiz-adv-x="550" d="M43 93 Q42 92 39 92 Q34 92 34 99 L34 135 Q34 141 40 144 L436 343 L40 542 Q34 545 34 551 L34 586 Q34 597 43 592 L501 359 Q507 356 507 350 L507 335 Q507 329 501 326 L43 93 Z M47 2 Q39 2 39 10 L39 38 Q39 46 47 46 L503 46 Q511 46 511 38 L511 10 Q511 2 503 2 L47 2 Z " />
<glyph glyph-name="lessequal" unicode="&#x2264;" horiz-adv-x="550" d="M516 99 Q516 88 507 93 L49 326 Q43 329 43 335 L43 350 Q43 356 49 359 L507 592 Q508 593 511 593 Q516 593 516 586 L516 551 Q516 545 510 542 L114 343 L510 144 Q516 141 516 135 L516 99 Z M511 10 Q511 2 503 2 L47 2 Q39 2 39 10 L39 38 Q39 46 47 46 L503 46 Q511 46 511 38 L511 10 Z " />
<glyph glyph-name="plusminus" unicode="&#xb1;" horiz-adv-x="550" d="M245 153 Q237 153 237 161 L237 308 L59 308 Q51 308 51 316 L51 344 Q51 352 59 352 L237 352 L237 499 Q237 507 245 507 L270 507 Q278 507 278 499 L278 352 L456 352 Q464 352 464 344 L464 316 Q464 308 456 308 L278 308 L278 161 Q278 153 270 153 L245 153 Z M39 106 Q39 114 47 114 L503 114 Q511 114 511 106 L511 78 Q511 70 503 70 L47 70 Q39 70 39 78 L39 106 Z " />
<glyph glyph-name="approxequal" unicode="&#x2248;" horiz-adv-x="600" d="M357 336 Q320 336 297.5 353.5 Q275 371 255 392 Q236 412 216.5 427 Q197 442 166 442 Q129 442 109.5 414.5 Q90 387 87 343 Q87 335 79 335 L58 335 Q50 335 50 343 Q51 373 59.5 399.5 Q68 426 82 445 Q96 464 116 475 Q136 486 162 486 Q202 486 227 468 Q252 450 272 428 Q290 409 308.5 394.5 Q327 380 355 380 Q389 380 407 406 Q425 432 427 472 Q427 480 435 480 L456 480 Q464 480 464 470 Q462 412 433.5 374 Q405 336 357 336 Z M357 145 Q320 145 297.5 162.5 Q275 180 255 201 Q236 221 216.5 236 Q197 251 166 251 Q129 251 109.5 223.5 Q90 196 87 152 Q87 144 79 144 L58 144 Q50 144 50 152 Q51 182 59.5 208.5 Q68 235 82 254 Q96 273 116 284 Q136 295 162 295 Q202 295 227 277 Q252 259 272 237 Q290 218 308.5 203.5 Q327 189 355 189 Q389 189 407 215 Q425 241 427 281 Q427 289 435 289 L456 289 Q464 289 464 279 Q462 221 433.5 183 Q405 145 357 145 Z " />
<glyph glyph-name="asciitilde" unicode="&#x7e;" horiz-adv-x="550" d="M357 234 Q320 234 297.5 251.5 Q275 269 255 290 Q236 310 216.5 325 Q197 340 166 340 Q129 340 109.5 312.5 Q90 285 87 241 Q87 233 79 233 L58 233 Q50 233 50 241 Q51 271 59.5 297.5 Q68 324 82 343 Q96 362 116 373 Q136 384 162 384 Q202 384 227 366 Q252 348 272 326 Q290 307 308.5 292.5 Q327 278 355 278 Q389 278 407 304 Q425 330 427 370 Q427 378 435 378 L456 378 Q464 378 464 368 Q462 310 433.5 272 Q405 234 357 234 Z " />
<glyph glyph-name="logicalnot" unicode="&#xac;" horiz-adv-x="550" d="M456 350 Q464 350 464 342 L464 147 Q464 139 456 139 L429 139 Q421 139 421 147 L421 307 L59 307 Q51 307 51 315 L51 342 Q51 350 59 350 L456 350 L456 350 Z " />
<glyph glyph-name="infinity" unicode="&#x221e;" horiz-adv-x="852" d="M647 479 Q681 479 711 466 Q741 453 762.5 429 Q784 405 796.5 371.5 Q809 338 809 296 Q809 254 796.5 220.5 Q784 187 762.5 163 Q741 139 712 126.5 Q683 114 649 114 Q613 114 581.5 128 Q550 142 524 163.5 Q498 185 476 211.5 Q454 238 436 263 Q415 235 392.5 208 Q370 181 344.5 160 Q319 139 289.5 126.5 Q260 114 227 114 Q192 114 162.5 127.5 Q133 141 110.5 165 Q88 189 75.5 221.5 Q63 254 63 292 Q63 331 76 365 Q89 399 112 424.5 Q135 450 165.5 464.5 Q196 479 231 479 Q264 479 293 465.5 Q322 452 346.5 430.5 Q371 409 392.5 382.5 Q414 356 434 329 Q453 355 474.5 382 Q496 409 522 430.5 Q548 452 579 465.5 Q610 479 647 479 Z M229 156 Q255 156 279 167.5 Q303 179 325.5 198.5 Q348 218 369 243.5 Q390 269 410 296 Q390 323 369.5 348.5 Q349 374 327 393.5 Q305 413 281 425 Q257 437 230 437 Q204 437 181.5 426 Q159 415 142 395.5 Q125 376 115 350.5 Q105 325 105 295 Q105 266 115 240.5 Q125 215 141.5 196 Q158 177 180.5 166.5 Q203 156 229 156 Z M651 156 Q700 156 733 191 Q766 226 766 292 Q766 358 731.5 397.5 Q697 437 646 437 Q617 437 590.5 424 Q564 411 541 390.5 Q518 370 497.5 345 Q477 320 459 295 Q479 269 500.5 244 Q522 219 545.5 199.5 Q569 180 595 168 Q621 156 651 156 Z " />
<glyph glyph-name="integral" unicode="&#x222b;" horiz-adv-x="340" d="M-41 -209 Q-64 -209 -84 -205.5 Q-104 -202 -118 -197 Q-124 -196 -124 -188 L-124 -160 Q-124 -149 -115 -154 Q-90 -166 -50 -166 Q26 -166 45 -57 L168 609 Q182 686 214 722.5 Q246 759 304 759 Q329 759 349.5 754.5 Q370 750 384 743 Q390 740 390 733 L390 705 Q390 695 381 700 Q352 716 313 716 Q237 716 218 607 L95 -59 Q81 -136 49 -172.5 Q17 -209 -41 -209 Z " />
<glyph glyph-name="product" unicode="&#x220f;" horiz-adv-x="603" d="M602 710 Q610 710 610 702 L610 672 Q610 664 602 664 L498 664 L498 -113 Q498 -121 490 -121 L453 -121 Q445 -121 445 -113 L445 664 L211 664 L211 -113 Q211 -121 203 -121 L169 -121 Q161 -121 161 -113 L161 664 L69 664 Q61 664 61 672 L61 702 Q61 710 69 710 L602 710 L602 710 Z " />
<glyph glyph-name="summation" unicode="&#x2211;" horiz-adv-x="544" d="M472 -79 Q480 -79 480 -87 L480 -114 Q480 -122 472 -122 L72 -122 Q64 -122 64 -114 L64 -95 Q64 -90 67 -85 L369 303 L68 674 Q64 680 64 684 L64 702 Q64 710 72 710 L470 710 Q478 710 478 702 L478 675 Q478 667 470 667 L127 667 L418 309 Q420 307 420.5 303 Q421 299 419 297 L126 -79 L472 -79 Z " />
<glyph glyph-name="radical" unicode="&#x221a;" horiz-adv-x="529" d="M473 703 Q475 710 482 710 L512 710 Q516 710 518.5 707.5 Q521 705 519 701 L248 -123 Q246 -130 239 -130 L224 -130 Q216 -130 214 -124 L29 325 Q29 326 28.5 326.5 Q28 327 28 329 Q28 334 35 334 L64 334 Q72 334 74 328 L231 -62 L473 703 L473 703 Z " />
<glyph glyph-name="micro" unicode="&#xb5;" horiz-adv-x="537" d="M433 473 Q434 480 442 480 L475 480 Q484 480 483 472 L427 7 Q426 0 418 0 L389 0 Q381 0 382 8 L392 99 L390 103 Q363 47 319.5 18.5 Q276 -10 220 -10 Q178 -10 146.5 6.5 Q115 23 101 58 L74 -192 Q74 -200 65 -200 L32 -200 Q22 -200 24 -191 L62 86 L106 472 Q108 480 115 480 L147 480 Q156 480 155 472 L120 178 Q119 169 118.5 160.5 Q118 152 118 144 Q118 82 147.5 56 Q177 30 227 30 Q295 30 341 78 Q387 126 401 206 L433 473 L433 473 Z " />
<glyph glyph-name="partialdiff" unicode="&#x2202;" horiz-adv-x="512" d="M255 719 Q309 719 351 698.5 Q393 678 422.5 639.5 Q452 601 467.5 546.5 Q483 492 483 424 Q483 341 465 262.5 Q447 184 412 123.5 Q377 63 326 26.5 Q275 -10 209 -10 Q174 -10 143 3.5 Q112 17 89.5 43 Q67 69 54 106 Q41 143 41 190 Q41 245 60 292.5 Q79 340 112 374.5 Q145 409 189.5 429 Q234 449 285 449 Q327 449 368 437 Q409 425 436 402 L436 417 Q436 538 387.5 608 Q339 678 247 678 Q223 678 194 673.5 Q165 669 141 658 Q139 657 136 657 Q132 657 133 664 L136 692 Q136 698 142 700 Q168 710 196.5 714.5 Q225 719 255 719 Z M216 33 Q265 33 303 61 Q341 89 368.5 135.5 Q396 182 412.5 240.5 Q429 299 434 361 Q408 384 367.5 396.5 Q327 409 288 409 Q246 409 209.5 392.5 Q173 376 146 347 Q119 318 104 279 Q89 240 89 195 Q89 158 98.5 128 Q108 98 125.5 77 Q143 56 166 44.5 Q189 33 216 33 Z " />
<glyph glyph-name="percent" unicode="&#x25;" horiz-adv-x="653" d="M52 -15 Q46 -10 50 -3 L603 721 Q608 728 614 723 L623 717 Q630 712 625 706 L71 -18 Q66 -25 60 -20 L52 -15 Z M197 427 Q155 427 126.5 461 Q98 495 98 552 Q98 590 109 621 Q120 652 139 674 Q158 696 182.5 708 Q207 720 233 720 Q275 720 303.5 686 Q332 652 332 595 Q332 557 320.5 526.5 Q309 496 290.5 473.5 Q272 451 247.5 439 Q223 427 197 427 Z M201 459 Q220 459 237.5 468.5 Q255 478 268 496 Q281 514 289 539 Q297 564 297 594 Q297 639 278 663.5 Q259 688 230 688 Q211 688 193.5 678.5 Q176 669 162.5 651.5 Q149 634 141 609.5 Q133 585 133 554 Q133 509 152.5 484 Q172 459 201 459 Z M451 -10 Q408 -10 379.5 24 Q351 58 351 115 Q351 153 362 184 Q373 215 392 237 Q411 259 435.5 271 Q460 283 486 283 Q528 283 556.5 249.5 Q585 216 585 158 Q585 120 573.5 89.5 Q562 59 543.5 36.5 Q525 14 500.5 2 Q476 -10 451 -10 Z M454 22 Q473 22 490 32 Q507 42 520.5 59.5 Q534 77 542 102 Q550 127 550 157 Q550 202 530.5 226.5 Q511 251 482 251 Q463 251 445.5 241.5 Q428 232 414.5 215 Q401 198 393 173 Q385 148 385 117 Q385 73 404.5 47.5 Q424 22 454 22 Z " />
<glyph glyph-name="perthousand" unicode="&#x2030;" horiz-adv-x="935" d="M52 -15 Q46 -10 50 -3 L603 721 Q608 728 614 723 L623 717 Q630 712 625 706 L71 -18 Q66 -25 60 -20 L52 -15 Z M197 427 Q155 427 126.5 461 Q98 495 98 552 Q98 590 109 621 Q120 652 139 674 Q158 696 182.5 708 Q207 720 233 720 Q275 720 303.5 686 Q332 652 332 595 Q332 557 320.5 526.5 Q309 496 290.5 473.5 Q272 451 247.5 439 Q223 427 197 427 Z M201 459 Q220 459 237.5 468.5 Q255 478 268 496 Q281 514 289 539 Q297 564 297 594 Q297 639 278 663.5 Q259 688 230 688 Q211 688 193.5 678.5 Q176 669 162.5 651.5 Q149 634 141 609.5 Q133 585 133 554 Q133 509 152.5 484 Q172 459 201 459 Z M451 -10 Q408 -10 379.5 24 Q351 58 351 115 Q351 153 362 184 Q373 215 392 237 Q411 259 435.5 271 Q460 283 486 283 Q528 283 556.5 249.5 Q585 216 585 158 Q585 120 573.5 89.5 Q562 59 543.5 36.5 Q525 14 500.5 2 Q476 -10 451 -10 Z M732 -10 Q689 -10 660.5 24 Q632 58 632 115 Q632 153 643.5 184 Q655 215 674 237 Q693 259 717.5 271 Q742 283 768 283 Q810 283 838.5 249.5 Q867 216 867 158 Q867 120 855.5 89.5 Q844 59 825.5 36.5 Q807 14 782.5 2 Q758 -10 732 -10 Z M454 22 Q473 22 490 32 Q507 42 520.5 59.5 Q534 77 542 102 Q550 127 550 157 Q550 202 530.5 226.5 Q511 251 482 251 Q463 251 445.5 241.5 Q428 232 414.5 215 Q401 198 393 173 Q385 148 385 117 Q385 73 404.5 47.5 Q424 22 454 22 Z M736 22 Q755 22 772 32 Q789 42 802.5 59.5 Q816 77 824 102 Q832 127 832 157 Q832 202 812.5 226.5 Q793 251 764 251 Q745 251 727.5 241.5 Q710 232 696.5 215 Q683 198 675 173 Q667 148 667 117 Q667 73 686.5 47.5 Q706 22 736 22 Z " />
<glyph glyph-name="lozenge" unicode="&#x25ca;" horiz-adv-x="550" d="M273 -55 Q267 -55 264 -49 L46 340 Q43 345 46 350 L264 739 Q267 745 273 745 L284 745 Q290 745 293 739 L503 350 Q506 345 503 340 L293 -49 Q290 -55 284 -55 L273 -55 Z M465 345 L279 689 L85 345 L279 1 L465 345 Z " />
<glyph glyph-name="apple" unicode="&#xf8ff;" horiz-adv-x="999" d="M499 -140 Q430 -140 366.5 -122 Q303 -104 247.5 -71.5 Q192 -39 146.5 6.5 Q101 52 68.5 107.5 Q36 163 18 227 Q0 291 0 360 Q0 463 39.5 554 Q79 645 146.5 712.5 Q214 780 305 819.5 Q396 859 499 859 Q602 859 693 819.5 Q784 780 852 712.5 Q920 645 959.5 554 Q999 463 999 360 Q999 256 959.5 165 Q920 74 852 6.5 Q784 -61 693 -100.5 Q602 -140 499 -140 Z M499 109 Q585 109 671.5 112 Q758 115 840 124 Q864 126 876.5 134.5 Q889 143 892 168 Q896 216 896.5 263.5 Q897 311 897 360 Q897 408 896.5 455.5 Q896 503 892 551 Q889 576 876.5 584.5 Q864 593 840 595 Q758 604 671.5 607 Q585 610 499 610 Q413 610 326.5 607 Q240 604 157 595 Q134 593 121.5 584.5 Q109 576 106 551 Q101 503 100.5 455.5 Q100 408 100 360 Q100 311 100.5 263.5 Q101 216 106 168 Q109 143 121.5 134.5 Q134 126 157 124 Q240 115 326.5 112 Q413 109 499 109 Z M499 157 Q456 157 419 173 Q382 189 355 217 Q328 245 312.5 281.5 Q297 318 297 360 Q297 401 312.5 438 Q328 475 355 502.5 Q382 530 419 546 Q456 562 499 562 Q542 562 579 546 Q616 530 643 502.5 Q670 475 685.5 438 Q701 401 701 360 Q701 318 685.5 281.5 Q670 245 643 217 Q616 189 579 173 Q542 157 499 157 Z " />
<glyph glyph-name="at" unicode="&#x40;" horiz-adv-x="842" d="M612 429 Q621 429 620 421 L587 149 Q586 144 586 134 Q586 105 600.5 90.5 Q615 76 640 76 Q667 76 692 94.5 Q717 113 735.5 144 Q754 175 765 216 Q776 257 776 302 Q776 364 754 417 Q732 470 691 508.5 Q650 547 592.5 569 Q535 591 464 591 Q382 591 310 560.5 Q238 530 185 477.5 Q132 425 101 355.5 Q70 286 70 209 Q70 142 92.5 82 Q115 22 157 -23 Q199 -68 258 -94 Q317 -120 390 -120 Q447 -120 511.5 -104.5 Q576 -89 628 -57 Q632 -55 632 -55 Q639 -55 637 -63 L635 -83 Q635 -88 629 -92 Q602 -107 571.5 -118.5 Q541 -130 509.5 -137 Q478 -144 447 -147.5 Q416 -151 388 -151 Q309 -151 244.5 -123 Q180 -95 134 -46.5 Q88 2 63 67 Q38 132 38 207 Q38 293 72.5 368.5 Q107 444 166 500 Q225 556 303 588.5 Q381 621 468 621 Q544 621 606.5 597 Q669 573 713.5 530.5 Q758 488 782.5 430 Q807 372 807 304 Q807 250 793 202.5 Q779 155 755.5 119.5 Q732 84 700 63.5 Q668 43 632 43 Q593 43 569.5 66 Q546 89 546 132 Q517 87 474 64 Q431 41 386 41 Q354 41 325.5 53.5 Q297 66 275.5 89 Q254 112 241 144.5 Q228 177 228 217 Q228 265 245.5 305 Q263 345 292 374.5 Q321 404 358 420 Q395 436 434 436 Q479 436 515.5 412.5 Q552 389 569 342 L580 422 Q581 429 588 429 L612 429 Z M399 77 Q424 77 449.5 86.5 Q475 96 496.5 114 Q518 132 533.5 159 Q549 186 555 221 L558 246 Q559 251 559 262 Q559 295 549.5 320.5 Q540 346 523.5 363.5 Q507 381 485 390 Q463 399 438 399 Q406 399 375.5 386 Q345 373 322 349 Q299 325 285 292 Q271 259 271 219 Q271 186 281.5 160 Q292 134 309.5 115.5 Q327 97 350 87 Q373 77 399 77 Z " />
<glyph glyph-name="ampersand" unicode="&#x26;" horiz-adv-x="636" d="M564 401 Q572 401 572 393 Q571 384 571 374 Q571 364 570 356 Q567 280 542.5 217.5 Q518 155 477 107 L556 10 Q558 6 558 5 Q558 0 551 0 L511 0 Q504 0 501 5 L444 74 Q399 33 343 11.5 Q287 -10 225 -10 Q183 -10 147.5 1 Q112 12 86.5 32.5 Q61 53 47 82.5 Q33 112 33 148 Q33 285 214 358 Q184 397 165 438 Q146 479 146 525 Q146 570 163.5 606.5 Q181 643 211 668 Q241 693 280 706.5 Q319 720 362 720 Q396 720 423 715 Q450 710 473 702 Q481 700 479 693 L475 659 Q473 650 465 654 Q423 676 364 676 Q331 676 301 666 Q271 656 248 637 Q225 618 211 590 Q197 562 197 526 Q197 478 223.5 431 Q250 384 292 333 L451 139 Q485 181 504.5 235 Q524 289 526 354 Q527 362 527 372.5 Q527 383 527 393 Q527 401 535 401 L564 401 Z M82 153 Q82 97 123.5 64.5 Q165 32 234 32 Q287 32 334.5 51 Q382 70 420 105 L303 253 L284 275 L242 323 Q240 326 235 331 Q160 297 121 253.5 Q82 210 82 153 Z " />
<glyph glyph-name="paragraph" unicode="&#xb6;" horiz-adv-x="529" d="M403 710 Q412 710 411 701 L316 24 Q308 -33 288.5 -77.5 Q269 -122 236 -160 Q232 -165 226 -165 L208 -165 Q196 -165 204 -155 Q236 -117 255.5 -73.5 Q275 -30 283 24 L321 298 L291 298 Q242 298 202 311 Q162 324 134 348 Q106 372 90.5 405.5 Q75 439 75 480 Q75 531 95.5 573.5 Q116 616 153 646.5 Q190 677 240 693.5 Q290 710 349 710 L403 710 Z M455 703 Q456 710 463 710 L479 710 Q488 710 487 701 L414 181 Q406 125 395.5 90 Q385 55 370 30 Q367 26 365 26 Q359 26 361 34 L455 703 Z " />
<glyph glyph-name="section" unicode="&#xa7;" horiz-adv-x="520" d="M520 689 Q518 680 510 683 Q481 697 440 704.5 Q399 712 364 712 Q316 712 273.5 697 Q231 682 199 656 L416 274 Q435 241 443 205.5 Q451 170 451 138 Q451 72 426 15 Q401 -42 357 -84 Q313 -126 253.5 -150 Q194 -174 126 -174 Q86 -174 45 -164 Q4 -154 -34 -133 Q-41 -130 -39 -123 L-34 -92 Q-32 -83 -24 -87 Q18 -111 57.5 -120.5 Q97 -130 135 -130 Q205 -130 263.5 -104 Q322 -78 360 -32 L359 -33 Q356 -33 353 -26 L127 374 Q111 404 102 434 Q93 464 93 496 Q93 552 115 599.5 Q137 647 175.5 682 Q214 717 265.5 736.5 Q317 756 377 756 Q412 756 451 748.5 Q490 741 519 730 Q526 727 524 720 L520 689 Z M422 135 Q422 163 415.5 195.5 Q409 228 392 258 L178 636 Q151 608 136 573 Q121 538 121 496 Q121 469 129.5 442.5 Q138 416 153 387 L376 -12 Q398 20 410 56.5 Q422 93 422 135 Z " />
<glyph glyph-name="copyright" unicode="&#xa9;" horiz-adv-x="817" d="M386 -11 Q315 -11 254.5 13 Q194 37 150 80 Q106 123 81 183.5 Q56 244 56 317 Q56 406 90 480 Q124 554 180 607.5 Q236 661 309 690.5 Q382 720 460 720 Q530 720 590 696 Q650 672 694 628 Q738 584 763.5 523 Q789 462 789 387 Q789 299 755.5 226 Q722 153 666.5 100.5 Q611 48 538 18.5 Q465 -11 386 -11 Z M388 12 Q461 12 529.5 39 Q598 66 650 115.5 Q702 165 733.5 234 Q765 303 765 386 Q765 456 741.5 514 Q718 572 676.5 612.5 Q635 653 579 675.5 Q523 698 457 698 Q383 698 315 670.5 Q247 643 194.5 593 Q142 543 110.5 473 Q79 403 79 318 Q79 249 102.5 193 Q126 137 167.5 96.5 Q209 56 265.5 34 Q322 12 388 12 Z M400 153 Q368 153 339 165.5 Q310 178 288 201.5 Q266 225 253 257.5 Q240 290 240 331 Q240 382 258.5 423.5 Q277 465 307 494.5 Q337 524 375 539.5 Q413 555 452 555 Q481 555 505.5 548 Q530 541 548 530 Q552 527 552 521 L550 498 Q549 488 540 493 Q522 504 499.5 511 Q477 518 451 518 Q420 518 389.5 505 Q359 492 335 468 Q311 444 296 410.5 Q281 377 281 335 Q281 301 291.5 274 Q302 247 319.5 228.5 Q337 210 360.5 200 Q384 190 410 190 Q466 190 510 218 Q514 220 514 220 Q521 220 519 212 L517 190 Q517 184 512 182 Q489 170 460.5 161.5 Q432 153 400 153 Z " />
<glyph glyph-name="registered" unicode="&#xae;" horiz-adv-x="477" d="M297 720 Q333 720 363.5 707.5 Q394 695 416 672.5 Q438 650 450.5 619 Q463 588 463 550 Q463 502 446.5 462.5 Q430 423 401 394.5 Q372 366 333 350 Q294 334 250 334 Q213 334 182.5 346.5 Q152 359 130 381 Q108 403 96 434 Q84 465 84 503 Q84 551 101 591 Q118 631 147 659.5 Q176 688 214.5 704 Q253 720 297 720 Z M252 353 Q292 353 326.5 367.5 Q361 382 387 407.5 Q413 433 428 469 Q443 505 443 549 Q443 618 402 659.5 Q361 701 294 701 Q255 701 220.5 687 Q186 673 160 647 Q134 621 119 585 Q104 549 104 506 Q104 471 115 443 Q126 415 145.5 395 Q165 375 192 364 Q219 353 252 353 Z M348 587 Q348 561 331 544.5 Q314 528 285 525 L345 440 Q347 436 347 435 Q347 430 340 430 L326 430 Q319 430 317 435 L258 524 L243 524 L233 438 Q231 430 224 430 L215 430 Q206 430 207 438 L230 630 Q231 637 239 637 L287 637 Q316 637 332 623.5 Q348 610 348 587 Z M245 544 L275 544 Q297 544 309.5 555 Q322 566 322 584 Q322 615 284 615 L253 615 L245 544 Z " />
<glyph glyph-name="trademark" unicode="&#x2122;" horiz-adv-x="695" d="M685 376 Q685 368 678 368 L654 368 Q646 368 646 376 L632 661 L499 385 Q496 379 489 379 L475 379 Q468 379 466 386 L400 657 L314 375 Q312 368 305 368 L284 368 Q274 368 278 377 L379 703 Q380 710 388 710 L414 710 Q421 710 423 703 L489 430 L621 704 Q624 710 631 710 L654 710 Q663 710 663 702 L685 376 Z M316 684 Q315 677 307 677 L211 677 L175 375 Q174 368 166 368 L145 368 Q136 368 137 376 L173 677 L79 677 Q70 677 71 685 L73 702 Q74 709 82 709 L310 709 Q319 709 318 701 L316 684 Z " />
<glyph glyph-name="degree" unicode="&#xb0;" horiz-adv-x="341" d="M230 475 Q182 475 152.5 505.5 Q123 536 123 584 Q123 614 134 639 Q145 664 163.5 682 Q182 700 206.5 710 Q231 720 259 720 Q306 720 335.5 690 Q365 660 365 613 Q365 584 354 558.5 Q343 533 324.5 514.5 Q306 496 281.5 485.5 Q257 475 230 475 Z M233 509 Q252 509 269.5 516.5 Q287 524 299.5 537.5 Q312 551 319.5 569.5 Q327 588 327 609 Q327 643 307.5 664.5 Q288 686 255 686 Q236 686 218.5 678.5 Q201 671 188 658 Q175 645 167.5 627 Q160 609 160 588 Q160 554 180.5 531.5 Q201 509 233 509 Z " />
<glyph glyph-name="bar" unicode="&#x7c;" horiz-adv-x="139" d="M4 -200 Q-5 -200 -4 -192 L125 833 Q126 840 134 840 L154 840 Q163 840 162 832 L33 -193 Q32 -200 24 -200 L4 -200 L4 -200 Z " />
<glyph glyph-name="brokenbar" unicode="&#xa6;" horiz-adv-x="139" d="M83 424 Q74 424 75 432 L125 833 Q126 840 134 840 L154 840 Q163 840 162 832 L112 431 Q111 424 103 424 L83 424 Z M4 -200 Q-5 -200 -4 -192 L47 209 Q48 216 56 216 L76 216 Q85 216 84 208 L33 -193 Q32 -200 24 -200 L4 -200 Z " />
<glyph glyph-name="dagger" unicode="&#x2020;" horiz-adv-x="341" d="M341 591 Q350 591 349 582 L346 557 Q344 549 337 549 L231 552 L198 280 Q197 273 189 273 L163 273 Q154 273 155 281 L187 552 L80 549 Q70 549 72 558 L75 583 Q77 591 84 591 L192 588 L205 702 Q207 710 214 710 L241 710 Q250 710 249 702 L235 589 L341 591 L341 591 Z " />
<glyph glyph-name="daggerdbl" unicode="&#x2021;" horiz-adv-x="341" d="M347 563 Q347 555 338 555 L231 558 L214 419 L320 422 Q328 422 328 414 L326 387 Q326 379 317 379 L209 382 L197 280 Q196 273 188 273 L162 273 Q153 273 154 281 L166 382 L60 379 Q52 379 52 387 L54 414 Q54 422 63 422 L171 419 L188 558 L81 555 Q73 555 73 563 L75 589 Q75 597 84 597 L192 594 L205 703 Q206 710 214 710 L240 710 Q249 710 248 702 L235 594 L342 597 Q349 597 349 589 L347 563 L347 563 Z " />
<glyph glyph-name="asciicircum" unicode="&#x5e;" horiz-adv-x="600" d="M469 309 Q470 308 470 305 Q470 299 463 299 L438 299 Q431 299 428 304 L325 439 L186 303 Q182 299 176 299 L152 299 Q147 299 145.5 302 Q144 305 148 309 L306 480 Q310 484 316 484 L345 484 Q351 484 354 479 L469 309 L469 309 Z " />
<glyph glyph-name="dieresiscomb" unicode="&#x308;" d="M-18 647 Q-33 647 -41 657 Q-49 667 -49 681 Q-49 698 -37.5 710 Q-26 722 -9 722 Q5 722 13.5 712 Q22 702 22 688 Q22 671 10.5 659 Q-1 647 -18 647 Z M120 647 Q105 647 97 657 Q89 667 89 681 Q89 698 100.5 710 Q112 722 129 722 Q143 722 151.5 712 Q160 702 160 688 Q160 671 148.5 659 Q137 647 120 647 Z " />
<glyph glyph-name="dotaccentcomb" unicode="&#x307;" d="M49 627 Q29 627 18 640.5 Q7 654 7 673 Q7 695 22 711.5 Q37 728 60 728 Q80 728 91 714.5 Q102 701 102 682 Q102 660 87 643.5 Q72 627 49 627 Z " />
<glyph glyph-name="gravecomb" unicode="&#x300;" d="M100 561 Q101 559 101 557 Q101 551 95 551 L75 551 Q69 551 65 555 L-83 723 Q-90 731 -79 733 L-28 739 L-26 739 Q-22 739 -18 735 L100 561 L100 561 Z " />
<glyph glyph-name="acutecomb" unicode="&#x301;" d="M-10 551 Q-15 551 -16 554 Q-17 557 -15 561 L103 735 Q107 741 113 739 L164 733 Q175 731 168 723 L20 555 Q16 551 10 551 L-10 551 L-10 551 Z " />
<glyph glyph-name="hungarumlautcomb" unicode="&#x30b;" d="M-80 562 Q-85 562 -86 565 Q-87 568 -85 572 L22 758 Q25 764 33 762 L67 752 Q76 749 71 741 L-49 567 Q-52 562 -59 562 L-80 562 Z M32 562 Q22 562 27 572 L139 758 Q142 764 150 762 L185 752 Q193 749 188 741 L63 567 Q60 562 53 562 L32 562 Z " />
<glyph glyph-name="circumflexcomb" unicode="&#x302;" d="M171 571 Q172 570 172 567 Q172 562 165 562 L140 562 Q134 562 131 568 L58 705 L-51 567 Q-54 562 -61 562 L-85 562 Q-90 562 -91.5 564.5 Q-93 567 -90 572 L40 744 Q43 749 50 749 L75 749 Q81 749 84 743 L171 571 L171 571 Z " />
<glyph glyph-name="caroncomb" unicode="&#x30c;" d="M145 739 Q148 744 155 744 L179 744 Q190 744 183 734 L58 572 Q55 567 48 567 L25 567 Q19 567 16 573 L-75 734 Q-76 735 -76 738 Q-76 744 -69 744 L-44 744 Q-38 744 -35 739 L41 612 L145 739 L145 739 Z " />
<glyph glyph-name="brevecomb" unicode="&#x306;" d="M44 600 Q-6 600 -36 632 Q-66 664 -64 714 Q-62 722 -55 722 L-40 722 Q-31 722 -33 714 Q-34 679 -12 656.5 Q10 634 48 634 Q86 634 113.5 657 Q141 680 149 715 Q150 722 157 722 L171 722 Q180 722 179 713 Q169 664 131.5 632 Q94 600 44 600 Z " />
<glyph glyph-name="ringcomb" unicode="&#x30a;" d="M41 575 Q8 575 -13 597 Q-34 619 -34 652 Q-34 694 -5.5 720 Q23 746 61 746 Q93 746 115 725 Q137 704 137 672 Q137 651 129 633.5 Q121 616 108 603 Q95 590 77.5 582.5 Q60 575 41 575 Z M44 602 Q70 602 89 621 Q108 640 108 669 Q108 692 94.5 706.5 Q81 721 59 721 Q31 721 13 702 Q-5 683 -5 655 Q-5 632 8 617 Q21 602 44 602 Z " />
<glyph glyph-name="tildecomb" unicode="&#x303;" d="M110 604 Q85 604 70 617 Q55 630 43 645 Q33 659 22.5 669 Q12 679 -5 679 Q-28 679 -42.5 660 Q-57 641 -61 610 Q-63 602 -70 602 L-86 602 Q-96 602 -94 611 Q-87 658 -64 689.5 Q-41 721 -3 721 Q23 721 38 707 Q53 693 64 679 Q75 666 84.5 656.5 Q94 647 111 647 Q132 647 145.5 664 Q159 681 163 708 Q165 716 172 716 L188 716 Q198 716 196 705 Q189 661 166.5 632.5 Q144 604 110 604 Z " />
<glyph glyph-name="macroncomb" unicode="&#x304;" d="M-77 638 Q-85 638 -84 646 L-82 668 Q-82 676 -73 676 L178 676 Q186 676 185 668 L183 646 Q183 638 174 638 L-77 638 L-77 638 Z " />
<glyph glyph-name="cedillacomb" unicode="&#x327;" d="M-26 -44 Q3 -44 21 -58.5 Q39 -73 39 -98 Q39 -116 31 -130 Q23 -144 9 -154 Q-5 -164 -23.5 -169.5 Q-42 -175 -62 -175 Q-100 -175 -124 -162 Q-129 -160 -129 -152 L-128 -139 Q-128 -129 -118 -134 Q-106 -139 -92 -142.5 Q-78 -146 -61 -146 Q-36 -146 -16 -134 Q4 -122 4 -102 Q4 -85 -9.5 -77 Q-23 -69 -43 -69 Q-66 -69 -84 -75 Q-86 -74 -87 -72 Q-89 -68 -87 -66 L-30 4 Q-27 9 -20 9 L-8 9 Q-3 9 -1.5 6 Q0 3 -3 -1 L-40 -45 Q-35 -44 -26 -44 Z " />
<glyph glyph-name="ogonekcomb" unicode="&#x328;" horiz-adv-x="590" d="M237 -175 Q205 -175 184 -157 Q163 -139 163 -108 Q163 -70 196.5 -40.5 Q230 -11 292 23 Q299 26 303 22 L312 14 Q318 7 311 3 Q256 -30 230 -53.5 Q204 -77 204 -103 Q204 -122 217 -132 Q230 -142 249 -142 Q268 -142 287 -134 Q289 -133 292 -133 Q297 -133 296 -140 L294 -155 Q293 -162 289 -164 Q265 -175 237 -175 Z " />
<glyph glyph-name="slashshortcomb" unicode="&#x337;" horiz-adv-x="425" d="M41 -45 Q36 -45 34.5 -42 Q33 -39 35 -35 L423 543 Q425 548 432 548 L444 548 Q449 548 450.5 545 Q452 542 450 538 L63 -40 Q60 -45 54 -45 L41 -45 L41 -45 Z " />
<glyph glyph-name="slashlongcomb" unicode="&#x338;" horiz-adv-x="533" d="M41 -43 Q36 -43 35 -40 Q34 -37 36 -33 L554 730 Q556 735 563 735 L576 735 Q581 735 582 732 Q583 729 581 725 L63 -38 Q60 -43 54 -43 L41 -43 L41 -43 Z " />
<glyph glyph-name="acute" unicode="&#xb4;" horiz-adv-x="500" d="M201 551 Q196 551 195 554 Q194 557 196 561 L314 735 Q318 741 324 739 L375 733 Q386 731 379 723 L231 555 Q227 551 221 551 L201 551 L201 551 Z " />
<glyph glyph-name="breve" unicode="&#x2d8;" horiz-adv-x="500" d="M294 600 Q244 600 214 632 Q184 664 186 714 Q188 722 195 722 L210 722 Q219 722 217 714 Q216 679 238 656.5 Q260 634 298 634 Q336 634 363.5 657 Q391 680 399 715 Q400 722 407 722 L421 722 Q430 722 429 713 Q419 664 381.5 632 Q344 600 294 600 Z " />
<glyph glyph-name="caron" unicode="&#x2c7;" horiz-adv-x="500" d="M395 739 Q398 744 405 744 L429 744 Q440 744 433 734 L308 572 Q305 567 298 567 L275 567 Q269 567 266 573 L175 734 Q174 735 174 738 Q174 744 181 744 L206 744 Q212 744 215 739 L291 612 L395 739 L395 739 Z " />
<glyph glyph-name="cedilla" unicode="&#xb8;" horiz-adv-x="500" d="M224 -44 Q253 -44 271 -58.5 Q289 -73 289 -98 Q289 -116 281 -130 Q273 -144 259 -154 Q245 -164 226.5 -169.5 Q208 -175 188 -175 Q150 -175 126 -162 Q121 -160 121 -152 L122 -139 Q122 -129 132 -134 Q144 -139 158 -142.5 Q172 -146 189 -146 Q214 -146 234 -134 Q254 -122 254 -102 Q254 -85 240.5 -77 Q227 -69 207 -69 Q184 -69 166 -75 Q164 -74 163 -72 Q161 -68 163 -66 L220 4 Q223 9 230 9 L242 9 Q247 9 248.5 6 Q250 3 247 -1 L210 -45 Q215 -44 224 -44 Z " />
<glyph glyph-name="circumflex" unicode="&#x2c6;" horiz-adv-x="500" d="M421 571 Q422 570 422 567 Q422 562 415 562 L390 562 Q384 562 381 568 L308 705 L199 567 Q196 562 189 562 L165 562 Q160 562 158.5 564.5 Q157 567 160 572 L290 744 Q293 749 300 749 L325 749 Q331 749 334 743 L421 571 L421 571 Z " />
<glyph glyph-name="dieresis" unicode="&#xa8;" horiz-adv-x="500" d="M232 647 Q217 647 209 657 Q201 667 201 681 Q201 698 212.5 710 Q224 722 241 722 Q255 722 263.5 712 Q272 702 272 688 Q272 671 260.5 659 Q249 647 232 647 Z M370 647 Q355 647 347 657 Q339 667 339 681 Q339 698 350.5 710 Q362 722 379 722 Q393 722 401.5 712 Q410 702 410 688 Q410 671 398.5 659 Q387 647 370 647 Z " />
<glyph glyph-name="dotaccent" unicode="&#x2d9;" horiz-adv-x="500" d="M299 627 Q279 627 268 640.5 Q257 654 257 673 Q257 695 272 711.5 Q287 728 310 728 Q330 728 341 714.5 Q352 701 352 682 Q352 660 337 643.5 Q322 627 299 627 Z " />
<glyph glyph-name="grave" unicode="&#x60;" horiz-adv-x="500" d="M406 561 Q407 559 407 557 Q407 551 401 551 L381 551 Q375 551 371 555 L223 723 Q216 731 227 733 L278 739 L280 739 Q284 739 288 735 L406 561 L406 561 Z " />
<glyph glyph-name="hungarumlaut" unicode="&#x2dd;" horiz-adv-x="500" d="M169 562 Q164 562 163 565 Q162 568 164 572 L271 758 Q274 764 282 762 L316 752 Q325 749 320 741 L200 567 Q197 562 190 562 L169 562 Z M281 562 Q271 562 276 572 L388 758 Q391 764 399 762 L434 752 Q442 749 437 741 L312 567 Q309 562 302 562 L281 562 Z " />
<glyph glyph-name="macron" unicode="&#xaf;" horiz-adv-x="500" d="M173 638 Q165 638 166 646 L168 668 Q168 676 177 676 L428 676 Q436 676 435 668 L433 646 Q433 638 424 638 L173 638 L173 638 Z " />
<glyph glyph-name="ogonek" unicode="&#x2db;" horiz-adv-x="500" d="M213 -175 Q181 -175 160 -157 Q139 -139 139 -108 Q139 -70 172.5 -40.5 Q206 -11 268 23 Q275 26 279 22 L288 14 Q294 7 287 3 Q232 -30 206 -53.5 Q180 -77 180 -103 Q180 -122 193 -132 Q206 -142 225 -142 Q244 -142 263 -134 Q265 -133 268 -133 Q273 -133 272 -140 L270 -155 Q269 -162 265 -164 Q241 -175 213 -175 Z " />
<glyph glyph-name="ring" unicode="&#x2da;" horiz-adv-x="500" d="M291 575 Q258 575 237 597 Q216 619 216 652 Q216 694 244.5 720 Q273 746 311 746 Q343 746 365 725 Q387 704 387 672 Q387 651 379 633.5 Q371 616 358 603 Q345 590 327.5 582.5 Q310 575 291 575 Z M294 602 Q320 602 339 621 Q358 640 358 669 Q358 692 344.5 706.5 Q331 721 309 721 Q281 721 263 702 Q245 683 245 655 Q245 632 258 617 Q271 602 294 602 Z " />
<glyph glyph-name="tilde" unicode="&#x2dc;" horiz-adv-x="500" d="M360 604 Q335 604 320 617 Q305 630 293 645 Q283 659 272.5 669 Q262 679 245 679 Q222 679 207.5 660 Q193 641 189 610 Q187 602 180 602 L164 602 Q154 602 156 611 Q163 658 186 689.5 Q209 721 247 721 Q273 721 288 707 Q303 693 314 679 Q325 666 334.5 656.5 Q344 647 361 647 Q382 647 395.5 664 Q409 681 413 708 Q415 716 422 716 L438 716 Q448 716 446 705 Q439 661 416.5 632.5 Q394 604 360 604 Z " />
<glyph glyph-name="A" unicode="A" horiz-adv-x="604" d="M532 0 Q524 0 523 7 Q508 64 492.5 119.5 Q477 175 463 232 L140 232 Q111 175 81.5 119 Q52 63 23 6 Q20 0 14 0 L-23 0 Q-28 0 -29.5 3 Q-31 6 -29 10 L341 708 Q344 714 350 714 L371 714 Q378 714 380 707 L576 9 L576 7 Q576 0 570 0 L532 0 Z M451 275 Q426 368 401.5 459 Q377 550 352 641 L162 275 L451 275 Z " />
<glyph glyph-name="Aacute" unicode="&#xc1;" horiz-adv-x="605" d="M532 0 Q524 0 523 7 Q508 64 492.5 119.5 Q477 175 463 232 L140 232 Q111 175 81.5 119 Q52 63 23 6 Q20 0 14 0 L-23 0 Q-28 0 -29.5 3 Q-31 6 -29 10 L341 708 Q344 714 350 714 L371 714 Q378 714 380 707 L576 9 L576 7 Q576 0 570 0 L532 0 Z M451 275 Q426 368 401.5 459 Q377 550 352 641 L162 275 L451 275 Z M343 763 Q338 763 337 766 Q336 769 338 773 L414 891 Q416 896 423 896 L478 896 Q483 896 485 893 Q487 890 483 886 L370 767 Q366 763 360 763 L343 763 L343 763 Z " />
</font>
</svg>
