<?xml version="1.0" encoding="UTF-8"?>
<svg xmlns="http://www.w3.org/2000/svg" xmlns:xlink="http://www.w3.org/1999/xlink" version="1.2" >
<font id="GlobotipoTexto-BoldItalic">
<font-face  font-family="Globotipo Texto" units-per-em="1000" ascent="1000" descent="-400" font-style="italic" font-weight="700" font-stretch="normal" slope="-7" cap-height="710" x-height="480" underline-position="-75" underline-thickness="50" />
<missing-glyph  horiz-adv-x="700" d="M350 709 Q423 709 487.5 681 Q552 653 600 605 Q648 557 676 492.5 Q704 428 704 355 Q704 281 676 216.5 Q648 152 600 104 Q552 56 487.5 28 Q423 0 350 0 Q276 0 211.5 28 Q147 56 99 104 Q51 152 23 216.5 Q-5 281 -5 355 Q-5 428 23 492.5 Q51 557 99 605 Q147 653 211.5 681 Q276 709 350 709 Z M350 20 Q419 20 480 46.5 Q541 73 586 118.5 Q631 164 657.5 225 Q684 286 684 355 Q684 424 657.5 485 Q631 546 586 591 Q541 636 480 662.5 Q419 689 350 689 Q281 689 220 662.5 Q159 636 113.5 591 Q68 546 41.5 485 Q15 424 15 355 Q15 286 41.5 225 Q68 164 113.5 118.5 Q159 73 220 46.5 Q281 20 350 20 Z M545 563 Q550 568 555 568 Q560 568 565 563 Q566 563 566 561 Q566 556 559 549 L364 354 L559 159 Q564 154 564 149 Q564 144 559 139 Q559 139 557 138 Q554 138 545 145 L350 340 L155 145 Q151 141 145 141 Q139 141 135 145 Q135 146 134.5 146 Q134 146 134 147 Q134 152 141 159 L336 354 L141 549 Q137 553 137 559 Q137 565 141 569 Q142 570 143 570 Q148 570 155 563 L350 368 L545 563 Z " />
<glyph glyph-name=".null" d="" />
<glyph glyph-name="nonmarkingreturn" unicode="&#xd;" horiz-adv-x="206" d="" />
<glyph glyph-name="space" unicode="&#x20;" horiz-adv-x="206" d="" />
<glyph glyph-name="Adieresis" unicode="&#xc4;" horiz-adv-x="667" d="M505 0 Q492 0 489 12 Q481 48 473 84 Q465 120 457 156 L187 156 Q170 119 152.5 83 Q135 47 118 10 Q114 0 102 0 L-15 0 Q-23 0 -26.5 5 Q-30 10 -26 17 L325 702 Q329 712 341 712 L439 712 Q451 712 454 700 L637 16 Q637 14 637.5 13.5 Q638 13 638 12 Q636 0 625 0 L505 0 Z M434 261 L371 544 Q337 474 304 403.5 Q271 333 237 261 L434 261 Z M313 774 Q287 774 271 792.5 Q255 811 255 837 Q255 869 276.5 892 Q298 915 330 915 Q356 915 372 896.5 Q388 878 388 852 Q388 820 366 797 Q344 774 313 774 Z M493 774 Q467 774 451 792.5 Q435 811 435 837 Q435 869 456.5 892 Q478 915 510 915 Q536 915 552 896.5 Q568 878 568 852 Q568 820 546 797 Q524 774 493 774 Z " />
<glyph glyph-name="Agrave" unicode="&#xc0;" horiz-adv-x="667" d="M505 0 Q492 0 489 12 Q481 48 473 84 Q465 120 457 156 L187 156 Q170 119 152.5 83 Q135 47 118 10 Q114 0 102 0 L-15 0 Q-23 0 -26.5 5 Q-30 10 -26 17 L325 702 Q329 712 341 712 L439 712 Q451 712 454 700 L637 16 Q637 14 637.5 13.5 Q638 13 638 12 Q636 0 625 0 L505 0 Z M434 261 L371 544 Q337 474 304 403.5 Q271 333 237 261 L434 261 Z M416 778 Q417 776 417 773 Q417 762 404 762 L352 762 Q341 762 335 771 L245 897 Q242 901 242 905 Q242 914 254 914 L363 914 Q376 914 379 902 L416 778 L416 778 Z " />
<glyph glyph-name="Aring" unicode="&#xc5;" horiz-adv-x="667" d="M505 0 Q492 0 489 12 Q481 48 473 84 Q465 120 457 156 L187 156 Q170 119 152.5 83 Q135 47 118 10 Q114 0 102 0 L-15 0 Q-23 0 -26.5 5 Q-30 10 -26 17 L325 702 Q329 712 341 712 L439 712 Q451 712 454 700 L637 16 Q637 14 637.5 13.5 Q638 13 638 12 Q636 0 625 0 L505 0 Z M434 261 L371 544 Q337 474 304 403.5 Q271 333 237 261 L434 261 Z M395 743 Q355 743 327 769 Q299 795 299 837 Q299 862 309.5 882.5 Q320 903 337 918 Q354 933 375.5 941 Q397 949 420 949 Q439 949 456.5 942.5 Q474 936 487 924 Q500 912 508 895 Q516 878 516 858 Q516 833 505.5 812 Q495 791 478 775.5 Q461 760 439 751.5 Q417 743 395 743 Z M401 798 Q423 798 439 813.5 Q455 829 455 852 Q455 872 443.5 883.5 Q432 895 413 895 Q390 895 374.5 879.5 Q359 864 359 841 Q359 822 370.5 810 Q382 798 401 798 Z " />
<glyph glyph-name="Atilde" unicode="&#xc3;" horiz-adv-x="667" d="M505 0 Q492 0 489 12 Q481 48 473 84 Q465 120 457 156 L187 156 Q170 119 152.5 83 Q135 47 118 10 Q114 0 102 0 L-15 0 Q-23 0 -26.5 5 Q-30 10 -26 17 L325 702 Q329 712 341 712 L439 712 Q451 712 454 700 L637 16 Q637 14 637.5 13.5 Q638 13 638 12 Q636 0 625 0 L505 0 Z M434 261 L371 544 Q337 474 304 403.5 Q271 333 237 261 L434 261 Z M338 826 Q322 826 310.5 817 Q299 808 295 790 Q293 777 281 777 L237 777 Q222 777 224 791 Q226 817 233.5 840.5 Q241 864 254.5 881.5 Q268 899 287 909.5 Q306 920 331 920 Q355 920 375.5 909 Q396 898 413 887 Q426 878 438 871.5 Q450 865 461 865 Q478 865 487 875.5 Q496 886 498 903 Q500 917 513 917 L558 917 Q572 917 572 903 Q570 876 562 852 Q554 828 540.5 810 Q527 792 508.5 782 Q490 772 468 772 Q445 772 426 782 Q407 792 390 803 Q376 812 363.5 819 Q351 826 338 826 Z " />
<glyph glyph-name="AE" unicode="&#xc6;" horiz-adv-x="846" d="M847 617 Q845 604 833 604 L603 604 L580 418 L776 418 Q790 418 789 403 L780 325 Q778 312 766 312 L567 312 L542 106 L769 106 Q783 106 782 91 L773 13 Q771 0 758 0 L409 0 Q394 0 396 15 L412 150 L204 150 L123 10 Q116 0 106 0 L-14 0 Q-22 0 -25.5 5 Q-29 10 -24 17 L389 701 Q395 710 406 710 L843 710 Q857 710 856 695 L847 617 Z M425 257 L468 605 L266 257 L425 257 Z " />
<glyph glyph-name="B" unicode="B" horiz-adv-x="567" d="M413 382 Q477 370 512.5 330 Q548 290 548 229 Q548 180 527 138 Q506 96 466.5 65.5 Q427 35 371 17.5 Q315 0 245 0 L54 0 Q39 0 41 15 L125 697 Q127 710 140 710 L314 710 Q430 710 491 668.5 Q552 627 552 554 Q552 522 541.5 493.5 Q531 465 512 442.5 Q493 420 468 405 Q443 390 414 384 L413 382 Z M414 523 Q414 562 385 582.5 Q356 603 307 603 L254 603 L231 418 L288 418 Q344 418 379 445 Q414 472 414 523 Z M248 107 Q317 107 359 137.5 Q401 168 401 221 Q401 263 368 287 Q335 311 278 311 L217 311 L191 107 L248 107 Z " />
<glyph glyph-name="C" unicode="C" horiz-adv-x="639" d="M372 -9 Q304 -9 244.5 13 Q185 35 141 75.5 Q97 116 71.5 174.5 Q46 233 46 306 Q46 402 83.5 478.5 Q121 555 182.5 608.5 Q244 662 323 691 Q402 720 485 720 Q535 720 578 711 Q621 702 647 691 Q657 687 656 674 L641 565 Q640 555 631 555 Q626 555 623 557 Q597 573 559.5 582.5 Q522 592 479 592 Q422 592 370 573 Q318 554 279 518.5 Q240 483 216.5 433.5 Q193 384 193 323 Q193 276 209.5 238 Q226 200 254.5 174 Q283 148 322.5 134 Q362 120 409 120 Q453 120 495 131 Q537 142 572 159 Q576 162 580 162 Q589 162 587 148 L572 44 Q570 33 564 30 Q528 13 479.5 2 Q431 -9 372 -9 Z " />
<glyph glyph-name="Ccedilla" unicode="&#xc7;" horiz-adv-x="639" d="M479 592 Q422 592 370 573 Q318 554 279 518.5 Q240 483 216.5 433.5 Q193 384 193 323 Q193 276 209.5 238 Q226 200 254.5 174 Q283 148 322.5 134 Q362 120 409 120 Q453 120 495 131 Q537 142 572 159 Q576 162 580 162 Q589 162 587 148 L572 44 Q570 33 561 28 Q526 12 479.5 2 Q433 -8 376 -9 L355 -38 Q389 -39 409.5 -55 Q430 -71 430 -100 Q430 -121 420 -138 Q410 -155 392.5 -167 Q375 -179 352 -185.5 Q329 -192 304 -192 Q281 -192 263.5 -188.5 Q246 -185 233 -180 Q222 -175 224 -163 L228 -133 Q230 -117 245 -124 Q256 -128 269 -131 Q282 -134 297 -134 Q318 -134 332 -126.5 Q346 -119 346 -106 Q346 -94 334.5 -87.5 Q323 -81 306 -81 Q298 -81 290 -82 Q282 -83 274 -85 Q272 -83 271 -80 Q270 -78 270 -75.5 Q270 -73 272 -69 L315 -5 Q257 3 208 28.5 Q159 54 123 93.5 Q87 133 66.5 187 Q46 241 46 306 Q46 402 83.5 478.5 Q121 555 182.5 608.5 Q244 662 323 691 Q402 720 485 720 Q535 720 578 711 Q621 702 647 691 Q657 687 656 674 L641 565 Q640 557 636 554 Q632 551 627 554 Q601 571 562.5 581.5 Q524 592 479 592 Z " />
<glyph glyph-name="D" unicode="D" horiz-adv-x="727" d="M54 0 Q39 0 41 15 L135 697 Q137 710 150 710 L328 710 Q416 710 486.5 687 Q557 664 606.5 623 Q656 582 682.5 523.5 Q709 465 709 395 Q709 309 674 236.5 Q639 164 576 111.5 Q513 59 425 29.5 Q337 0 230 0 L54 0 Z M248 119 Q317 119 374.5 138 Q432 157 473 191.5 Q514 226 537 275.5 Q560 325 560 386 Q560 483 495 537 Q430 591 316 591 L267 591 L199 118 L248 119 Z " />
<glyph glyph-name="Eth" unicode="&#xd0;" horiz-adv-x="733" d="M334 710 Q422 710 492.5 687 Q563 664 612.5 623 Q662 582 688.5 523.5 Q715 465 715 395 Q715 309 680 236.5 Q645 164 582 111.5 Q519 59 431 29.5 Q343 0 236 0 L60 0 Q45 0 47 15 L88 313 L30 313 Q15 313 17 328 L25 401 Q27 414 39 414 L102 414 L141 697 Q143 710 156 710 L334 710 Z M254 119 Q323 119 380.5 138 Q438 157 479 191.5 Q520 226 543 275.5 Q566 325 566 386 Q566 483 501 537 Q436 591 322 591 L273 591 L247 410 L382 410 Q397 410 396 395 L389 330 Q387 317 375 317 L234 317 L205 118 L254 119 Z " />
<glyph glyph-name="E" unicode="E" horiz-adv-x="518" d="M532 609 Q530 596 517 596 L252 596 L231 422 L458 422 Q472 422 471 407 L461 321 Q459 308 447 308 L217 308 L193 114 L454 114 Q468 114 467 99 L457 13 Q455 0 443 0 L54 0 Q39 0 41 15 L124 697 Q126 710 139 710 L528 710 Q542 710 541 695 L532 609 L532 609 Z " />
<glyph glyph-name="Eacute" unicode="&#xc9;" horiz-adv-x="531" d="M532 609 Q530 596 517 596 L252 596 L231 422 L458 422 Q472 422 471 407 L461 321 Q459 308 447 308 L217 308 L193 114 L454 114 Q468 114 467 99 L457 13 Q455 0 443 0 L54 0 Q39 0 41 15 L124 697 Q126 710 139 710 L528 710 Q542 710 541 695 L532 609 L532 609 Z M300 759 Q288 759 288 768 Q288 770 290 776 L359 900 Q366 910 375 910 L483 910 Q494 910 494 902 Q494 897 490 893 L368 766 Q361 759 351 759 L300 759 L300 759 Z " />
<glyph glyph-name="Ecircumflex" unicode="&#xca;" horiz-adv-x="531" d="M532 609 Q530 596 517 596 L252 596 L231 422 L458 422 Q472 422 471 407 L461 321 Q459 308 447 308 L217 308 L193 114 L454 114 Q468 114 467 99 L457 13 Q455 0 443 0 L54 0 Q39 0 41 15 L124 697 Q126 710 139 710 L528 710 Q542 710 541 695 L532 609 L532 609 Z M503 774 Q506 769 506 766 Q506 757 494 757 L439 757 Q430 757 422 765 L358 840 L275 764 Q268 757 258 757 L203 757 Q192 757 192 765 Q192 770 196 774 L311 900 Q318 908 328 908 L403 908 Q415 908 420 899 L503 774 L503 774 Z " />
<glyph glyph-name="Edieresis" unicode="&#xcb;" horiz-adv-x="531" d="M532 609 Q530 596 517 596 L252 596 L231 422 L458 422 Q472 422 471 407 L461 321 Q459 308 447 308 L217 308 L193 114 L454 114 Q468 114 467 99 L457 13 Q455 0 443 0 L54 0 Q39 0 41 15 L124 697 Q126 710 139 710 L528 710 Q542 710 541 695 L532 609 L532 609 Z M255 774 Q229 774 213 792.5 Q197 811 197 837 Q197 869 218.5 892 Q240 915 272 915 Q298 915 314 896.5 Q330 878 330 852 Q330 820 308 797 Q286 774 255 774 Z M435 774 Q409 774 393 792.5 Q377 811 377 837 Q377 869 398.5 892 Q420 915 452 915 Q478 915 494 896.5 Q510 878 510 852 Q510 820 488 797 Q466 774 435 774 Z " />
<glyph glyph-name="Egrave" unicode="&#xc8;" horiz-adv-x="531" d="M532 609 Q530 596 517 596 L252 596 L231 422 L458 422 Q472 422 471 407 L461 321 Q459 308 447 308 L217 308 L193 114 L454 114 Q468 114 467 99 L457 13 Q455 0 443 0 L54 0 Q39 0 41 15 L124 697 Q126 710 139 710 L528 710 Q542 710 541 695 L532 609 L532 609 Z M358 778 Q359 776 359 773 Q359 762 346 762 L294 762 Q283 762 277 771 L187 897 Q184 901 184 905 Q184 914 196 914 L305 914 Q318 914 321 902 L358 778 L358 778 Z " />
<glyph glyph-name="F" unicode="F" horiz-adv-x="515" d="M529 611 Q527 598 514 598 L258 598 L231 387 L460 387 Q474 387 473 372 L463 288 Q461 275 448 275 L217 275 L183 13 Q181 0 168 0 L55 0 Q40 0 42 15 L130 697 Q132 710 145 710 L526 710 Q540 710 539 695 L529 611 L529 611 Z " />
<glyph glyph-name="G" unicode="G" horiz-adv-x="754" d="M365 -9 Q294 -9 235.5 14 Q177 37 134.5 79 Q92 121 68.5 179 Q45 237 45 306 Q45 394 80.5 470 Q116 546 177.5 601.5 Q239 657 320.5 688.5 Q402 720 495 720 Q524 720 554.5 716 Q585 712 614 705 Q643 698 668.5 688.5 Q694 679 712 668 Q722 662 720 651 L706 545 Q704 534 697 534 Q693 534 689 537 Q651 563 594 579 Q537 595 479 595 Q421 595 368.5 574.5 Q316 554 276.5 517.5 Q237 481 213.5 430 Q190 379 190 318 Q190 271 205 234 Q220 197 246.5 171.5 Q273 146 308 132 Q343 118 383 118 Q424 118 461 129.5 Q498 141 527.5 162 Q557 183 577 213 Q597 243 603 280 L424 280 Q409 280 411 295 L423 384 Q425 397 438 397 L730 397 Q745 397 745 383 Q745 378 745 373.5 Q745 369 744 365 Q743 278 712.5 208.5 Q682 139 630 90.5 Q578 42 509.5 16.5 Q441 -9 365 -9 Z " />
<glyph glyph-name="H" unicode="H" horiz-adv-x="724" d="M566 697 Q568 710 581 710 L697 710 Q711 710 710 695 L622 13 Q620 0 607 0 L490 0 Q475 0 477 15 L515 306 L224 306 L186 13 Q184 0 171 0 L55 0 Q40 0 42 15 L130 697 Q132 710 145 710 L262 710 Q276 710 275 695 L239 420 L530 420 L566 697 L566 697 Z " />
<glyph glyph-name="I" unicode="I" horiz-adv-x="305" d="M63 0 Q48 0 50 15 L137 697 Q139 710 152 710 L270 710 Q284 710 283 695 L196 13 Q194 0 181 0 L63 0 L63 0 Z " />
<glyph glyph-name="Iacute" unicode="&#xcd;" horiz-adv-x="305" d="M63 0 Q48 0 50 15 L137 697 Q139 710 152 710 L270 710 Q284 710 283 695 L196 13 Q194 0 181 0 L63 0 L63 0 Z M179 759 Q167 759 167 768 Q167 770 169 776 L238 900 Q245 910 254 910 L362 910 Q373 910 373 902 Q373 897 369 893 L247 766 Q240 759 230 759 L179 759 L179 759 Z " />
<glyph glyph-name="Icircumflex" unicode="&#xce;" horiz-adv-x="305" d="M63 0 Q48 0 50 15 L137 697 Q139 710 152 710 L270 710 Q284 710 283 695 L196 13 Q194 0 181 0 L63 0 L63 0 Z M382 774 Q385 769 385 766 Q385 757 373 757 L318 757 Q309 757 301 765 L237 840 L154 764 Q147 757 137 757 L82 757 Q71 757 71 765 Q71 770 75 774 L190 900 Q197 908 207 908 L282 908 Q294 908 299 899 L382 774 L382 774 Z " />
<glyph glyph-name="Idieresis" unicode="&#xcf;" horiz-adv-x="305" d="M63 0 Q48 0 50 15 L137 697 Q139 710 152 710 L270 710 Q284 710 283 695 L196 13 Q194 0 181 0 L63 0 L63 0 Z M134 774 Q108 774 92 792.5 Q76 811 76 837 Q76 869 97.5 892 Q119 915 151 915 Q177 915 193 896.5 Q209 878 209 852 Q209 820 187 797 Q165 774 134 774 Z M314 774 Q288 774 272 792.5 Q256 811 256 837 Q256 869 277.5 892 Q299 915 331 915 Q357 915 373 896.5 Q389 878 389 852 Q389 820 367 797 Q345 774 314 774 Z " />
<glyph glyph-name="Igrave" unicode="&#xcc;" horiz-adv-x="305" d="M63 0 Q48 0 50 15 L137 697 Q139 710 152 710 L270 710 Q284 710 283 695 L196 13 Q194 0 181 0 L63 0 L63 0 Z M238 778 Q239 776 239 773 Q239 762 226 762 L174 762 Q163 762 157 771 L67 897 Q64 901 64 905 Q64 914 76 914 L185 914 Q198 914 201 902 L238 778 L238 778 Z " />
<glyph glyph-name="J" unicode="J" horiz-adv-x="456" d="M128 -9 Q88 -9 58 -3 Q28 3 6 13 Q-5 17 -3 30 L9 125 Q11 136 18 136 Q21 136 26 133 Q45 123 68 117.5 Q91 112 114 112 Q158 112 189.5 140 Q221 168 229 224 L291 698 Q293 711 306 711 L423 711 Q437 711 436 696 L374 228 Q366 169 344.5 125 Q323 81 291 51 Q259 21 217.5 6 Q176 -9 128 -9 Z " />
<glyph glyph-name="K" unicode="K" horiz-adv-x="661" d="M686 710 Q697 710 697 702 Q697 697 693 693 L375 363 L609 17 Q612 12 612 8 Q612 0 601 0 L464 0 Q453 0 447 9 L232 357 L188 13 Q186 0 173 0 L55 0 Q40 0 42 15 L129 697 Q131 710 144 710 L262 710 Q276 710 275 695 L233 369 L535 702 Q542 710 552 710 L686 710 L686 710 Z " />
<glyph glyph-name="L" unicode="L" horiz-adv-x="488" d="M440 117 Q454 117 453 102 L442 13 Q440 0 427 0 L54 0 Q39 0 41 15 L130 697 Q132 710 145 710 L257 710 Q271 710 270 695 L194 117 L440 117 Z " />
<glyph glyph-name="Lslash" unicode="&#x141;" horiz-adv-x="488" d="M440 117 Q454 117 453 102 L442 13 Q440 0 427 0 L54 0 Q39 0 41 15 L84 340 L39 325 Q37 324 34 324 Q23 324 23 337 L23 380 Q23 393 34 396 L93 415 L130 697 Q132 710 145 710 L257 710 Q271 710 270 695 L240 464 L299 484 Q301 485 304 485 Q315 485 315 472 L315 429 Q315 416 304 413 L230 389 L194 117 L440 117 Z " />
<glyph glyph-name="M" unicode="M" horiz-adv-x="893" d="M845 13 Q845 0 831 0 L701 0 Q687 0 687 14 L671 474 L456 18 Q452 8 440 8 L363 8 Q350 8 347 20 L240 463 L103 12 Q100 0 87 0 L-34 0 Q-51 0 -46 16 L169 699 Q172 711 185 711 L306 711 Q318 711 321 699 L433 241 L653 701 Q657 711 669 711 L781 711 Q793 711 795 698 L845 15 L845 13 Z " />
<glyph glyph-name="N" unicode="N" horiz-adv-x="754" d="M606 697 Q608 710 621 710 L728 710 Q742 710 741 695 L653 13 Q651 0 638 0 L555 0 Q543 0 538 9 L236 472 L176 13 Q174 0 161 0 L54 0 Q39 0 41 15 L130 697 Q132 710 145 710 L227 710 Q239 710 244 701 L546 232 L606 697 L606 697 Z " />
<glyph glyph-name="Ntilde" unicode="&#xd1;" horiz-adv-x="754" d="M606 697 Q608 710 621 710 L728 710 Q742 710 741 695 L653 13 Q651 0 638 0 L555 0 Q543 0 538 9 L236 472 L176 13 Q174 0 161 0 L54 0 Q39 0 41 15 L130 697 Q132 710 145 710 L227 710 Q239 710 244 701 L546 232 L606 697 L606 697 Z M385 826 Q369 826 357.5 817 Q346 808 342 790 Q340 777 328 777 L284 777 Q269 777 271 791 Q273 817 280.5 840.5 Q288 864 301.5 881.5 Q315 899 334 909.5 Q353 920 378 920 Q402 920 422.5 909 Q443 898 460 887 Q473 878 485 871.5 Q497 865 508 865 Q525 865 534 875.5 Q543 886 545 903 Q547 917 560 917 L605 917 Q619 917 619 903 Q617 876 609 852 Q601 828 587.5 810 Q574 792 555.5 782 Q537 772 515 772 Q492 772 473 782 Q454 792 437 803 Q423 812 410.5 819 Q398 826 385 826 Z " />
<glyph glyph-name="O" unicode="O" horiz-adv-x="804" d="M370 -10 Q300 -10 240.5 13.5 Q181 37 137.5 80 Q94 123 69.5 182.5 Q45 242 45 314 Q45 401 80 475.5 Q115 550 172.5 604 Q230 658 305 689 Q380 720 460 720 Q529 720 589 696 Q649 672 693 629.5 Q737 587 762 527.5 Q787 468 787 396 Q787 309 752 235 Q717 161 658.5 106.5 Q600 52 525 21 Q450 -10 370 -10 Z M385 124 Q437 124 485 144.5 Q533 165 569.5 200.5 Q606 236 627.5 283.5 Q649 331 649 384 Q649 427 633.5 464 Q618 501 591 528 Q564 555 526 570.5 Q488 586 443 586 Q390 586 343 565 Q296 544 260.5 508.5 Q225 473 204 425.5 Q183 378 183 325 Q183 281 197.5 244.5 Q212 208 239 181 Q266 154 303 139 Q340 124 385 124 Z " />
<glyph glyph-name="Oacute" unicode="&#xd3;" horiz-adv-x="814" d="M370 -10 Q300 -10 240.5 13.5 Q181 37 137.5 80 Q94 123 69.5 182.5 Q45 242 45 314 Q45 401 80 475.5 Q115 550 172.5 604 Q230 658 305 689 Q380 720 460 720 Q529 720 589 696 Q649 672 693 629.5 Q737 587 762 527.5 Q787 468 787 396 Q787 309 752 235 Q717 161 658.5 106.5 Q600 52 525 21 Q450 -10 370 -10 Z M385 124 Q437 124 485 144.5 Q533 165 569.5 200.5 Q606 236 627.5 283.5 Q649 331 649 384 Q649 427 633.5 464 Q618 501 591 528 Q564 555 526 570.5 Q488 586 443 586 Q390 586 343 565 Q296 544 260.5 508.5 Q225 473 204 425.5 Q183 378 183 325 Q183 281 197.5 244.5 Q212 208 239 181 Q266 154 303 139 Q340 124 385 124 Z M439 759 Q427 759 427 768 Q427 770 429 776 L498 900 Q505 910 514 910 L622 910 Q633 910 633 902 Q633 897 629 893 L507 766 Q500 759 490 759 L439 759 L439 759 Z " />
<glyph glyph-name="Ocircumflex" unicode="&#xd4;" horiz-adv-x="814" d="M370 -10 Q300 -10 240.5 13.5 Q181 37 137.5 80 Q94 123 69.5 182.5 Q45 242 45 314 Q45 401 80 475.5 Q115 550 172.5 604 Q230 658 305 689 Q380 720 460 720 Q529 720 589 696 Q649 672 693 629.5 Q737 587 762 527.5 Q787 468 787 396 Q787 309 752 235 Q717 161 658.5 106.5 Q600 52 525 21 Q450 -10 370 -10 Z M385 124 Q437 124 485 144.5 Q533 165 569.5 200.5 Q606 236 627.5 283.5 Q649 331 649 384 Q649 427 633.5 464 Q618 501 591 528 Q564 555 526 570.5 Q488 586 443 586 Q390 586 343 565 Q296 544 260.5 508.5 Q225 473 204 425.5 Q183 378 183 325 Q183 281 197.5 244.5 Q212 208 239 181 Q266 154 303 139 Q340 124 385 124 Z M642 774 Q645 769 645 766 Q645 757 633 757 L578 757 Q569 757 561 765 L497 840 L414 764 Q407 757 397 757 L342 757 Q331 757 331 765 Q331 770 335 774 L450 900 Q457 908 467 908 L542 908 Q554 908 559 899 L642 774 L642 774 Z " />
<glyph glyph-name="Odieresis" unicode="&#xd6;" horiz-adv-x="814" d="M370 -10 Q300 -10 240.5 13.5 Q181 37 137.5 80 Q94 123 69.5 182.5 Q45 242 45 314 Q45 401 80 475.5 Q115 550 172.5 604 Q230 658 305 689 Q380 720 460 720 Q529 720 589 696 Q649 672 693 629.5 Q737 587 762 527.5 Q787 468 787 396 Q787 309 752 235 Q717 161 658.5 106.5 Q600 52 525 21 Q450 -10 370 -10 Z M385 124 Q437 124 485 144.5 Q533 165 569.5 200.5 Q606 236 627.5 283.5 Q649 331 649 384 Q649 427 633.5 464 Q618 501 591 528 Q564 555 526 570.5 Q488 586 443 586 Q390 586 343 565 Q296 544 260.5 508.5 Q225 473 204 425.5 Q183 378 183 325 Q183 281 197.5 244.5 Q212 208 239 181 Q266 154 303 139 Q340 124 385 124 Z M394 774 Q368 774 352 792.5 Q336 811 336 837 Q336 869 357.5 892 Q379 915 411 915 Q437 915 453 896.5 Q469 878 469 852 Q469 820 447 797 Q425 774 394 774 Z M574 774 Q548 774 532 792.5 Q516 811 516 837 Q516 869 537.5 892 Q559 915 591 915 Q617 915 633 896.5 Q649 878 649 852 Q649 820 627 797 Q605 774 574 774 Z " />
<glyph glyph-name="Ograve" unicode="&#xd2;" horiz-adv-x="814" d="M370 -10 Q300 -10 240.5 13.5 Q181 37 137.5 80 Q94 123 69.5 182.5 Q45 242 45 314 Q45 401 80 475.5 Q115 550 172.5 604 Q230 658 305 689 Q380 720 460 720 Q529 720 589 696 Q649 672 693 629.5 Q737 587 762 527.5 Q787 468 787 396 Q787 309 752 235 Q717 161 658.5 106.5 Q600 52 525 21 Q450 -10 370 -10 Z M385 124 Q437 124 485 144.5 Q533 165 569.5 200.5 Q606 236 627.5 283.5 Q649 331 649 384 Q649 427 633.5 464 Q618 501 591 528 Q564 555 526 570.5 Q488 586 443 586 Q390 586 343 565 Q296 544 260.5 508.5 Q225 473 204 425.5 Q183 378 183 325 Q183 281 197.5 244.5 Q212 208 239 181 Q266 154 303 139 Q340 124 385 124 Z M497 778 Q498 776 498 773 Q498 762 485 762 L433 762 Q422 762 416 771 L326 897 Q323 901 323 905 Q323 914 335 914 L444 914 Q457 914 460 902 L497 778 L497 778 Z " />
<glyph glyph-name="Oslash" unicode="&#xd8;" horiz-adv-x="814" d="M679 643 Q730 599 758.5 536.5 Q787 474 787 396 Q787 309 752 235 Q717 161 658.5 106.5 Q600 52 525 21 Q450 -10 370 -10 Q324 -10 282.5 0 Q241 10 206 29 L160 -30 Q155 -38 143 -38 L113 -38 Q101 -38 101 -29 Q101 -26 104 -21 L164 57 Q108 100 76.5 165.5 Q45 231 45 314 Q45 401 80 475.5 Q115 550 172.5 604 Q230 658 305 689 Q380 720 460 720 Q511 720 556 707.5 Q601 695 639 672 L692 740 Q697 748 709 748 L738 748 Q750 748 750 739 Q750 735 747 731 L679 643 Z M183 325 Q183 277 201 237 Q219 197 251 170 L552 558 Q504 586 443 586 Q390 586 343 565 Q296 544 260.5 508.5 Q225 473 204 425.5 Q183 378 183 325 Z M385 124 Q437 124 485 144.5 Q533 165 569.5 200.5 Q606 236 627.5 283.5 Q649 331 649 384 Q649 428 633.5 465 Q618 502 591 529 L294 143 Q335 124 385 124 Z " />
<glyph glyph-name="Otilde" unicode="&#xd5;" horiz-adv-x="814" d="M370 -10 Q300 -10 240.5 13.5 Q181 37 137.5 80 Q94 123 69.5 182.5 Q45 242 45 314 Q45 401 80 475.5 Q115 550 172.5 604 Q230 658 305 689 Q380 720 460 720 Q529 720 589 696 Q649 672 693 629.5 Q737 587 762 527.5 Q787 468 787 396 Q787 309 752 235 Q717 161 658.5 106.5 Q600 52 525 21 Q450 -10 370 -10 Z M385 124 Q437 124 485 144.5 Q533 165 569.5 200.5 Q606 236 627.5 283.5 Q649 331 649 384 Q649 427 633.5 464 Q618 501 591 528 Q564 555 526 570.5 Q488 586 443 586 Q390 586 343 565 Q296 544 260.5 508.5 Q225 473 204 425.5 Q183 378 183 325 Q183 281 197.5 244.5 Q212 208 239 181 Q266 154 303 139 Q340 124 385 124 Z M419 826 Q403 826 391.5 817 Q380 808 376 790 Q374 777 362 777 L318 777 Q303 777 305 791 Q307 817 314.5 840.5 Q322 864 335.5 881.5 Q349 899 368 909.5 Q387 920 412 920 Q436 920 456.5 909 Q477 898 494 887 Q507 878 519 871.5 Q531 865 542 865 Q559 865 568 875.5 Q577 886 579 903 Q581 917 594 917 L639 917 Q653 917 653 903 Q651 876 643 852 Q635 828 621.5 810 Q608 792 589.5 782 Q571 772 549 772 Q526 772 507 782 Q488 792 471 803 Q457 812 444.5 819 Q432 826 419 826 Z " />
<glyph glyph-name="OE" unicode="&#x152;" horiz-adv-x="861" d="M862 616 Q860 603 847 603 L596 603 L571 419 L785 419 Q799 419 798 404 L789 325 Q787 312 774 312 L557 312 L529 107 L778 107 Q792 107 791 92 L781 13 Q779 0 766 0 L378 0 Q304 0 243.5 22.5 Q183 45 139 86 Q95 127 71 184.5 Q47 242 47 313 Q47 402 81 475.5 Q115 549 173 601 Q231 653 308 681.5 Q385 710 472 710 L858 710 Q872 710 871 695 L862 616 Z M453 586 Q395 586 347.5 566.5 Q300 547 266 512.5 Q232 478 213 430 Q194 382 194 325 Q194 234 245.5 179.5 Q297 125 391 124 L453 586 Z " />
<glyph glyph-name="P" unicode="P" horiz-adv-x="596" d="M327 710 Q454 710 525 655 Q596 600 596 500 Q596 443 573.5 396.5 Q551 350 509 317 Q467 284 407 265.5 Q347 247 271 247 L215 247 L187 13 Q185 0 172 0 L55 0 Q40 0 42 15 L124 697 Q126 710 139 710 L327 710 Z M281 360 Q365 360 408 397 Q451 434 451 492 Q451 541 416 569 Q381 597 312 597 L257 597 L229 360 L281 360 Z " />
<glyph glyph-name="Thorn" unicode="&#xde;" horiz-adv-x="600" d="M308 588 Q445 588 514.5 534 Q584 480 584 385 Q584 326 562.5 278 Q541 230 498.5 195.5 Q456 161 392 142.5 Q328 124 243 124 L201 124 L187 13 Q185 0 172 0 L55 0 Q40 0 42 15 L131 697 Q133 710 146 710 L263 710 Q277 710 276 695 L262 588 L308 588 Z M269 228 Q348 228 391.5 268.5 Q435 309 435 374 Q435 425 401 454.5 Q367 484 303 484 L248 484 L215 228 L269 228 Z " />
<glyph glyph-name="Q" unicode="Q" horiz-adv-x="812" d="M787 396 Q787 307 750 231.5 Q713 156 652 101 L745 -23 Q748 -28 748 -32 Q748 -39 742 -43 L664 -106 Q660 -110 655 -110 Q649 -110 645 -103 L548 31 Q506 11 461.5 0.5 Q417 -10 370 -10 Q300 -10 240.5 13.5 Q181 37 137.5 80 Q94 123 69.5 182.5 Q45 242 45 314 Q45 401 80 475.5 Q115 550 172.5 604 Q230 658 305 689 Q380 720 460 720 Q529 720 589 696 Q649 672 693 629.5 Q737 587 762 527.5 Q787 468 787 396 Z M183 325 Q183 281 197.5 244.5 Q212 208 239 181 Q266 154 303 139 Q340 124 385 124 Q437 124 485 144.5 Q533 165 569.5 200.5 Q606 236 627.5 283.5 Q649 331 649 384 Q649 427 633.5 464 Q618 501 591 528 Q564 555 526 570.5 Q488 586 443 586 Q390 586 343 565 Q296 544 260.5 508.5 Q225 473 204 425.5 Q183 378 183 325 Z " />
<glyph glyph-name="R" unicode="R" horiz-adv-x="589" d="M584 538 Q584 448 528.5 387 Q473 326 376 307 L561 17 Q564 12 564 9 Q564 0 552 0 L421 0 Q411 0 404 10 L241 287 L217 287 L181 13 Q179 0 166 0 L54 0 Q39 0 41 15 L132 697 Q134 710 147 710 L344 710 Q456 710 520 664 Q584 618 584 538 Z M231 390 L293 390 Q366 390 407 422.5 Q448 455 448 511 Q448 555 415 579 Q382 603 322 603 L260 603 L231 390 Z " />
<glyph glyph-name="S" unicode="S" horiz-adv-x="540" d="M211 -10 Q164 -10 111.5 1 Q59 12 22 32 Q11 38 13 50 L25 145 Q27 162 42 154 Q84 131 129.5 118 Q175 105 219 105 Q248 105 273 112 Q298 119 316.5 132.5 Q335 146 345.5 164.5 Q356 183 356 206 Q356 244 323.5 268.5 Q291 293 235 318 Q203 333 174 350 Q145 367 123 389.5 Q101 412 88 440 Q75 468 75 504 Q75 553 96.5 593 Q118 633 154.5 661.5 Q191 690 240 705 Q289 720 344 720 Q392 720 436 713 Q480 706 512 695 Q524 692 523 679 L512 587 Q510 570 495 577 Q463 591 422.5 599 Q382 607 346 607 Q294 607 260 582.5 Q226 558 226 520 Q226 500 235.5 485 Q245 470 260.5 458 Q276 446 297 435.5 Q318 425 342 414 Q376 398 406 380 Q436 362 458 340 Q480 318 492.5 291 Q505 264 505 229 Q505 178 484 134.5 Q463 91 424.5 59 Q386 27 332 8.5 Q278 -10 211 -10 Z " />
<glyph glyph-name="Scaron" unicode="&#x160;" horiz-adv-x="540" d="M211 -10 Q164 -10 111.5 1 Q59 12 22 32 Q11 38 13 50 L25 145 Q27 162 42 154 Q84 131 129.5 118 Q175 105 219 105 Q248 105 273 112 Q298 119 316.5 132.5 Q335 146 345.5 164.5 Q356 183 356 206 Q356 244 323.5 268.5 Q291 293 235 318 Q203 333 174 350 Q145 367 123 389.5 Q101 412 88 440 Q75 468 75 504 Q75 553 96.5 593 Q118 633 154.5 661.5 Q191 690 240 705 Q289 720 344 720 Q392 720 436 713 Q480 706 512 695 Q524 692 523 679 L512 587 Q510 570 495 577 Q463 591 422.5 599 Q382 607 346 607 Q294 607 260 582.5 Q226 558 226 520 Q226 500 235.5 485 Q245 470 260.5 458 Q276 446 297 435.5 Q318 425 342 414 Q376 398 406 380 Q436 362 458 340 Q480 318 492.5 291 Q505 264 505 229 Q505 178 484 134.5 Q463 91 424.5 59 Q386 27 332 8.5 Q278 -10 211 -10 Z M418 901 Q425 908 435 908 L487 908 Q498 908 498 900 Q498 895 494 891 L370 764 Q363 757 353 757 L304 757 Q293 757 287 766 L195 891 Q192 895 192 900 Q192 908 203 908 L261 908 Q271 908 278 900 L339 832 L418 901 L418 901 Z " />
<glyph glyph-name="T" unicode="T" horiz-adv-x="576" d="M597 710 Q611 710 610 695 L599 601 Q597 588 584 588 L403 588 L328 13 Q326 0 313 0 L196 0 Q181 0 183 15 L258 588 L80 588 Q65 588 67 603 L79 697 Q81 710 94 710 L597 710 L597 710 Z " />
<glyph glyph-name="U" unicode="U" horiz-adv-x="698" d="M314 -9 Q260 -9 215 5.5 Q170 20 137.5 49 Q105 78 87 121.5 Q69 165 69 224 Q69 237 70 250.5 Q71 264 73 278 L128 698 Q130 711 143 711 L259 711 Q273 711 272 696 L217 273 Q214 252 214 235 Q214 171 246 142.5 Q278 114 332 114 Q362 114 388 123 Q414 132 434.5 151.5 Q455 171 469 201 Q483 231 488 273 L543 698 Q545 711 558 711 L671 711 Q685 711 684 696 L630 278 Q620 205 592 151 Q564 97 522.5 61.5 Q481 26 427.5 8.5 Q374 -9 314 -9 Z " />
<glyph glyph-name="Uacute" unicode="&#xda;" horiz-adv-x="698" d="M314 -9 Q260 -9 215 5.5 Q170 20 137.5 49 Q105 78 87 121.5 Q69 165 69 224 Q69 237 70 250.5 Q71 264 73 278 L128 698 Q130 711 143 711 L259 711 Q273 711 272 696 L217 273 Q214 252 214 235 Q214 171 246 142.5 Q278 114 332 114 Q362 114 388 123 Q414 132 434.5 151.5 Q455 171 469 201 Q483 231 488 273 L543 698 Q545 711 558 711 L671 711 Q685 711 684 696 L630 278 Q620 205 592 151 Q564 97 522.5 61.5 Q481 26 427.5 8.5 Q374 -9 314 -9 Z M377 759 Q365 759 365 768 Q365 770 367 776 L436 900 Q443 910 452 910 L560 910 Q571 910 571 902 Q571 897 567 893 L445 766 Q438 759 428 759 L377 759 L377 759 Z " />
<glyph glyph-name="Ucircumflex" unicode="&#xdb;" horiz-adv-x="698" d="M314 -9 Q260 -9 215 5.5 Q170 20 137.5 49 Q105 78 87 121.5 Q69 165 69 224 Q69 237 70 250.5 Q71 264 73 278 L128 698 Q130 711 143 711 L259 711 Q273 711 272 696 L217 273 Q214 252 214 235 Q214 171 246 142.5 Q278 114 332 114 Q362 114 388 123 Q414 132 434.5 151.5 Q455 171 469 201 Q483 231 488 273 L543 698 Q545 711 558 711 L671 711 Q685 711 684 696 L630 278 Q620 205 592 151 Q564 97 522.5 61.5 Q481 26 427.5 8.5 Q374 -9 314 -9 Z M580 774 Q583 769 583 766 Q583 757 571 757 L516 757 Q507 757 499 765 L435 840 L352 764 Q345 757 335 757 L280 757 Q269 757 269 765 Q269 770 273 774 L388 900 Q395 908 405 908 L480 908 Q492 908 497 899 L580 774 L580 774 Z " />
<glyph glyph-name="Udieresis" unicode="&#xdc;" horiz-adv-x="698" d="M314 -9 Q260 -9 215 5.5 Q170 20 137.5 49 Q105 78 87 121.5 Q69 165 69 224 Q69 237 70 250.5 Q71 264 73 278 L128 698 Q130 711 143 711 L259 711 Q273 711 272 696 L217 273 Q214 252 214 235 Q214 171 246 142.5 Q278 114 332 114 Q362 114 388 123 Q414 132 434.5 151.5 Q455 171 469 201 Q483 231 488 273 L543 698 Q545 711 558 711 L671 711 Q685 711 684 696 L630 278 Q620 205 592 151 Q564 97 522.5 61.5 Q481 26 427.5 8.5 Q374 -9 314 -9 Z M332 774 Q306 774 290 792.5 Q274 811 274 837 Q274 869 295.5 892 Q317 915 349 915 Q375 915 391 896.5 Q407 878 407 852 Q407 820 385 797 Q363 774 332 774 Z M512 774 Q486 774 470 792.5 Q454 811 454 837 Q454 869 475.5 892 Q497 915 529 915 Q555 915 571 896.5 Q587 878 587 852 Q587 820 565 797 Q543 774 512 774 Z " />
<glyph glyph-name="Ugrave" unicode="&#xd9;" horiz-adv-x="698" d="M314 -9 Q260 -9 215 5.5 Q170 20 137.5 49 Q105 78 87 121.5 Q69 165 69 224 Q69 237 70 250.5 Q71 264 73 278 L128 698 Q130 711 143 711 L259 711 Q273 711 272 696 L217 273 Q214 252 214 235 Q214 171 246 142.5 Q278 114 332 114 Q362 114 388 123 Q414 132 434.5 151.5 Q455 171 469 201 Q483 231 488 273 L543 698 Q545 711 558 711 L671 711 Q685 711 684 696 L630 278 Q620 205 592 151 Q564 97 522.5 61.5 Q481 26 427.5 8.5 Q374 -9 314 -9 Z M435 778 Q436 776 436 773 Q436 762 423 762 L371 762 Q360 762 354 771 L264 897 Q261 901 261 905 Q261 914 273 914 L382 914 Q395 914 398 902 L435 778 L435 778 Z " />
<glyph glyph-name="V" unicode="V" horiz-adv-x="675" d="M580 700 Q584 710 596 710 L717 710 Q725 710 728 705 Q731 700 727 693 L364 6 Q360 -4 348 -4 L270 -4 Q258 -4 255 8 L62 694 Q61 696 61 699 Q61 710 74 710 L199 710 Q212 710 215 698 L335 199 L580 700 L580 700 Z " />
<glyph glyph-name="W" unicode="W" horiz-adv-x="963" d="M880 699 Q884 710 896 710 L1004 710 Q1012 710 1015 705.5 Q1018 701 1015 694 L719 10 Q715 -1 702 -1 L610 -1 Q597 -1 595 12 L509 498 L300 10 Q296 -1 283 -1 L192 -1 Q179 -1 177 12 L59 695 L59 699 Q59 710 71 710 L184 710 Q197 710 199 697 L271 215 L475 699 Q479 710 492 710 L579 710 Q593 710 594 697 L677 199 L880 699 L880 699 Z " />
<glyph glyph-name="X" unicode="X" horiz-adv-x="700" d="M715 710 Q727 710 727 702 Q727 698 723 693 L443 362 L642 17 Q644 14 644 9 Q644 0 633 0 L506 0 Q497 0 490 10 L351 263 L148 8 Q142 0 130 0 L7 0 Q-5 0 -5 8 Q-5 12 -1 17 L291 358 L92 693 Q89 697 89 700 Q89 710 102 710 L231 710 Q240 710 247 700 L381 458 L573 702 Q578 710 591 710 L715 710 L715 710 Z " />
<glyph glyph-name="Y" unicode="Y" horiz-adv-x="632" d="M533 702 Q538 711 550 711 L670 711 Q682 711 682 702 Q682 698 679 694 L390 283 L354 13 Q352 0 339 0 L222 0 Q207 0 209 15 L244 283 L62 695 Q61 697 61 701 Q61 711 73 711 L202 711 Q214 711 218 700 L339 406 L533 702 L533 702 Z " />
<glyph glyph-name="Yacute" unicode="&#xdd;" horiz-adv-x="632" d="M533 702 Q538 711 550 711 L670 711 Q682 711 682 702 Q682 698 679 694 L390 283 L354 13 Q352 0 339 0 L222 0 Q207 0 209 15 L244 283 L62 695 Q61 697 61 701 Q61 711 73 711 L202 711 Q214 711 218 700 L339 406 L533 702 L533 702 Z M321 764 Q309 764 309 773 Q309 775 311 781 L380 905 Q387 915 396 915 L504 915 Q515 915 515 907 Q515 902 511 898 L389 771 Q382 764 372 764 L321 764 L321 764 Z " />
<glyph glyph-name="Ydieresis" unicode="&#x178;" horiz-adv-x="632" d="M533 702 Q538 711 550 711 L670 711 Q682 711 682 702 Q682 698 679 694 L390 283 L354 13 Q352 0 339 0 L222 0 Q207 0 209 15 L244 283 L62 695 Q61 697 61 701 Q61 711 73 711 L202 711 Q214 711 218 700 L339 406 L533 702 L533 702 Z M296 774 Q270 774 254 792.5 Q238 811 238 837 Q238 869 259.5 892 Q281 915 313 915 Q339 915 355 896.5 Q371 878 371 852 Q371 820 349 797 Q327 774 296 774 Z M476 774 Q450 774 434 792.5 Q418 811 418 837 Q418 869 439.5 892 Q461 915 493 915 Q519 915 535 896.5 Q551 878 551 852 Q551 820 529 797 Q507 774 476 774 Z " />
<glyph glyph-name="Z" unicode="Z" horiz-adv-x="607" d="M526 114 Q540 114 539 99 L529 13 Q527 0 514 0 L26 0 Q11 0 13 15 L20 61 Q21 68 27 77 L424 596 L123 596 Q108 596 110 611 L121 697 Q123 710 136 710 L595 710 Q609 710 608 695 L602 649 Q601 642 595 633 L197 114 L526 114 Z " />
<glyph glyph-name="Zcaron" unicode="&#x17d;" horiz-adv-x="607" d="M526 114 Q540 114 539 99 L529 13 Q527 0 514 0 L26 0 Q11 0 13 15 L20 61 Q21 68 27 77 L424 596 L123 596 Q108 596 110 611 L121 697 Q123 710 136 710 L595 710 Q609 710 608 695 L602 649 Q601 642 595 633 L197 114 L526 114 Z M454 901 Q461 908 471 908 L523 908 Q534 908 534 900 Q534 895 530 891 L406 764 Q399 757 389 757 L340 757 Q329 757 323 766 L231 891 Q228 895 228 900 Q228 908 239 908 L297 908 Q307 908 314 900 L375 832 L454 901 L454 901 Z " />
<glyph glyph-name="a" unicode="a" horiz-adv-x="621" d="M460 467 Q462 480 475 480 L585 480 Q599 480 598 465 L543 13 Q541 0 528 0 L418 0 Q403 0 405 15 L413 80 Q385 33 338.5 12 Q292 -9 244 -9 Q202 -9 164 7 Q126 23 97.5 52 Q69 81 52.5 121.5 Q36 162 36 212 Q36 273 59 324.5 Q82 376 119.5 412.5 Q157 449 205.5 469.5 Q254 490 306 490 Q355 490 395.5 470.5 Q436 451 453 405 L460 467 Z M292 115 Q317 115 341 123 Q365 131 384 146.5 Q403 162 416 184 Q429 206 434 233 L434 238 Q434 243 435 246 Q436 249 436 252 L436 259 Q436 309 404.5 337.5 Q373 366 324 366 Q295 366 269 356 Q243 346 223.5 327 Q204 308 192 282 Q180 256 180 225 Q180 174 212.5 144.5 Q245 115 292 115 Z " />
<glyph glyph-name="aacute" unicode="&#xe1;" horiz-adv-x="642" d="M460 467 Q462 480 475 480 L585 480 Q599 480 598 465 L543 13 Q541 0 528 0 L418 0 Q403 0 405 15 L413 80 Q385 33 338.5 12 Q292 -9 244 -9 Q202 -9 164 7 Q126 23 97.5 52 Q69 81 52.5 121.5 Q36 162 36 212 Q36 273 59 324.5 Q82 376 119.5 412.5 Q157 449 205.5 469.5 Q254 490 306 490 Q355 490 395.5 470.5 Q436 451 453 405 L460 467 Z M292 115 Q317 115 341 123 Q365 131 384 146.5 Q403 162 416 184 Q429 206 434 233 L434 238 Q434 243 435 246 Q436 249 436 252 L436 259 Q436 309 404.5 337.5 Q373 366 324 366 Q295 366 269 356 Q243 346 223.5 327 Q204 308 192 282 Q180 256 180 225 Q180 174 212.5 144.5 Q245 115 292 115 Z M294 534 Q283 534 283 543 Q283 548 285 551 L380 718 Q385 728 398 726 L514 710 Q525 708 525 701 Q525 697 520 692 L374 541 Q367 534 357 534 L294 534 L294 534 Z " />
<glyph glyph-name="acircumflex" unicode="&#xe2;" horiz-adv-x="642" d="M460 467 Q462 480 475 480 L585 480 Q599 480 598 465 L543 13 Q541 0 528 0 L418 0 Q403 0 405 15 L413 80 Q385 33 338.5 12 Q292 -9 244 -9 Q202 -9 164 7 Q126 23 97.5 52 Q69 81 52.5 121.5 Q36 162 36 212 Q36 273 59 324.5 Q82 376 119.5 412.5 Q157 449 205.5 469.5 Q254 490 306 490 Q355 490 395.5 470.5 Q436 451 453 405 L460 467 Z M292 115 Q317 115 341 123 Q365 131 384 146.5 Q403 162 416 184 Q429 206 434 233 L434 238 Q434 243 435 246 Q436 249 436 252 L436 259 Q436 309 404.5 337.5 Q373 366 324 366 Q295 366 269 356 Q243 346 223.5 327 Q204 308 192 282 Q180 256 180 225 Q180 174 212.5 144.5 Q245 115 292 115 Z M520 572 Q522 568 522 566 Q522 555 509 555 L452 555 Q442 555 435 565 L378 662 L296 563 Q290 555 279 555 L220 555 Q209 555 209 563 Q209 567 212 572 L338 739 Q343 747 355 747 L420 747 Q432 747 436 737 L520 572 L520 572 Z " />
<glyph glyph-name="adieresis" unicode="&#xe4;" horiz-adv-x="642" d="M460 467 Q462 480 475 480 L585 480 Q599 480 598 465 L543 13 Q541 0 528 0 L418 0 Q403 0 405 15 L413 80 Q385 33 338.5 12 Q292 -9 244 -9 Q202 -9 164 7 Q126 23 97.5 52 Q69 81 52.5 121.5 Q36 162 36 212 Q36 273 59 324.5 Q82 376 119.5 412.5 Q157 449 205.5 469.5 Q254 490 306 490 Q355 490 395.5 470.5 Q436 451 453 405 L460 467 Z M292 115 Q317 115 341 123 Q365 131 384 146.5 Q403 162 416 184 Q429 206 434 233 L434 238 Q434 243 435 246 Q436 249 436 252 L436 259 Q436 309 404.5 337.5 Q373 366 324 366 Q295 366 269 356 Q243 346 223.5 327 Q204 308 192 282 Q180 256 180 225 Q180 174 212.5 144.5 Q245 115 292 115 Z M281 605 Q258 605 244.5 621 Q231 637 231 660 Q231 688 249.5 708 Q268 728 296 728 Q319 728 333 712 Q347 696 347 673 Q347 645 327.5 625 Q308 605 281 605 Z M448 605 Q425 605 411.5 621 Q398 637 398 660 Q398 688 416.5 708 Q435 728 463 728 Q486 728 500 712 Q514 696 514 673 Q514 645 494.5 625 Q475 605 448 605 Z " />
<glyph glyph-name="agrave" unicode="&#xe0;" horiz-adv-x="642" d="M460 467 Q462 480 475 480 L585 480 Q599 480 598 465 L543 13 Q541 0 528 0 L418 0 Q403 0 405 15 L413 80 Q385 33 338.5 12 Q292 -9 244 -9 Q202 -9 164 7 Q126 23 97.5 52 Q69 81 52.5 121.5 Q36 162 36 212 Q36 273 59 324.5 Q82 376 119.5 412.5 Q157 449 205.5 469.5 Q254 490 306 490 Q355 490 395.5 470.5 Q436 451 453 405 L460 467 Z M292 115 Q317 115 341 123 Q365 131 384 146.5 Q403 162 416 184 Q429 206 434 233 L434 238 Q434 243 435 246 Q436 249 436 252 L436 259 Q436 309 404.5 337.5 Q373 366 324 366 Q295 366 269 356 Q243 346 223.5 327 Q204 308 192 282 Q180 256 180 225 Q180 174 212.5 144.5 Q245 115 292 115 Z M437 551 Q439 548 439 543 Q439 534 428 534 L365 534 Q355 534 348 541 L202 692 Q197 697 197 701 Q197 708 208 710 L324 726 L328 726 Q338 726 342 718 L437 551 L437 551 Z " />
<glyph glyph-name="aring" unicode="&#xe5;" horiz-adv-x="642" d="M460 467 Q462 480 475 480 L585 480 Q599 480 598 465 L543 13 Q541 0 528 0 L418 0 Q403 0 405 15 L413 80 Q385 33 338.5 12 Q292 -9 244 -9 Q202 -9 164 7 Q126 23 97.5 52 Q69 81 52.5 121.5 Q36 162 36 212 Q36 273 59 324.5 Q82 376 119.5 412.5 Q157 449 205.5 469.5 Q254 490 306 490 Q355 490 395.5 470.5 Q436 451 453 405 L460 467 Z M292 115 Q317 115 341 123 Q365 131 384 146.5 Q403 162 416 184 Q429 206 434 233 L434 238 Q434 243 435 246 Q436 249 436 252 L436 259 Q436 309 404.5 337.5 Q373 366 324 366 Q295 366 269 356 Q243 346 223.5 327 Q204 308 192 282 Q180 256 180 225 Q180 174 212.5 144.5 Q245 115 292 115 Z M356 544 Q316 544 288 570 Q260 596 260 638 Q260 663 270.5 683.5 Q281 704 298 719 Q315 734 336.5 742 Q358 750 381 750 Q420 750 449 725 Q478 700 478 659 Q478 634 467.5 613 Q457 592 440 576.5 Q423 561 401 552.5 Q379 544 356 544 Z M362 598 Q385 598 401 614 Q417 630 417 653 Q417 672 405.5 684 Q394 696 375 696 Q352 696 336.5 680.5 Q321 665 321 642 Q321 623 332.5 610.5 Q344 598 362 598 Z " />
<glyph glyph-name="atilde" unicode="&#xe3;" horiz-adv-x="642" d="M460 467 Q462 480 475 480 L585 480 Q599 480 598 465 L543 13 Q541 0 528 0 L418 0 Q403 0 405 15 L413 80 Q385 33 338.5 12 Q292 -9 244 -9 Q202 -9 164 7 Q126 23 97.5 52 Q69 81 52.5 121.5 Q36 162 36 212 Q36 273 59 324.5 Q82 376 119.5 412.5 Q157 449 205.5 469.5 Q254 490 306 490 Q355 490 395.5 470.5 Q436 451 453 405 L460 467 Z M292 115 Q317 115 341 123 Q365 131 384 146.5 Q403 162 416 184 Q429 206 434 233 L434 238 Q434 243 435 246 Q436 249 436 252 L436 259 Q436 309 404.5 337.5 Q373 366 324 366 Q295 366 269 356 Q243 346 223.5 327 Q204 308 192 282 Q180 256 180 225 Q180 174 212.5 144.5 Q245 115 292 115 Z M421 565 Q397 565 378.5 576.5 Q360 588 345 600 Q332 611 319.5 620 Q307 629 292 629 Q276 629 265 617 Q254 605 250 580 Q247 567 235 567 L192 567 Q176 567 178 582 Q181 611 190 637.5 Q199 664 213 683.5 Q227 703 247 714.5 Q267 726 292 726 Q319 726 338 713 Q357 700 373 686 Q386 675 397 667.5 Q408 660 421 660 Q438 660 447 672.5 Q456 685 460 706 Q462 719 474 719 L519 719 Q535 719 532 700 Q528 672 518.5 647.5 Q509 623 495 604.5 Q481 586 462 575.5 Q443 565 421 565 Z " />
<glyph glyph-name="ae" unicode="&#xe6;" horiz-adv-x="792" d="M764 312 Q764 289 760.5 268 Q757 247 752 231 Q749 219 737 219 L452 219 Q454 151 488.5 121 Q523 91 578 91 Q613 91 650.5 101.5 Q688 112 718 132 Q722 135 726 135 Q735 135 733 122 L724 49 Q723 38 714 33 Q684 14 639.5 2 Q595 -10 550 -10 Q486 -10 438.5 14 Q391 38 364 81 Q326 35 275 13 Q224 -9 170 -9 Q104 -9 63 23.5 Q22 56 22 116 Q22 155 38.5 185.5 Q55 216 85 237.5 Q115 259 157.5 271.5 Q200 284 252 286 Q272 287 295 287 Q318 287 334 287 Q337 345 306.5 368 Q276 391 222 391 Q192 391 162 384 Q132 377 106 366 Q100 364 98 364 Q89 364 90 377 L98 449 Q100 460 109 464 Q141 476 179 483 Q217 490 256 490 Q373 490 415 423 Q450 455 494 472.5 Q538 490 589 490 Q670 490 717 442 Q764 394 764 312 Z M573 402 Q533 402 503.5 375.5 Q474 349 461 300 L647 300 Q650 347 631 374.5 Q612 402 573 402 Z M207 82 Q224 82 242.5 88 Q261 94 277 108.5 Q293 123 305.5 145.5 Q318 168 324 201 Q325 209 326 209 L327 218 Q310 217 292.5 216.5 Q275 216 259 214 Q214 212 181.5 192.5 Q149 173 149 135 Q149 109 165.5 95.5 Q182 82 207 82 Z " />
<glyph glyph-name="b" unicode="b" horiz-adv-x="619" d="M376 490 Q421 490 459 474.5 Q497 459 524.5 430.5 Q552 402 568 361.5 Q584 321 584 272 Q584 210 561 158 Q538 106 500.5 69 Q463 32 415 11.5 Q367 -9 316 -9 Q293 -9 270.5 -4 Q248 1 228 12 Q208 23 192.5 40 Q177 57 169 80 L161 13 Q159 0 146 0 L37 0 Q22 0 24 15 L112 734 Q114 747 127 747 L236 747 Q250 747 249 732 L209 407 Q223 429 242.5 445 Q262 461 284 471 Q306 481 329.5 485.5 Q353 490 376 490 Z M295 115 Q323 115 349 125 Q375 135 395 154 Q415 173 427.5 199.5 Q440 226 440 258 Q440 308 408 337 Q376 366 328 366 Q278 366 238.5 336.5 Q199 307 188 256 L185 231 L185 224 Q185 173 216.5 144 Q248 115 295 115 Z " />
<glyph glyph-name="c" unicode="c" horiz-adv-x="469" d="M273 -8 Q225 -8 181.5 7 Q138 22 105.5 50 Q73 78 54 119 Q35 160 35 213 Q35 277 59.5 328 Q84 379 126 415 Q168 451 223 470 Q278 489 338 489 Q369 489 399 484 Q429 479 450 469 Q461 464 459 452 L448 360 Q446 349 439 349 Q435 349 431 352 Q396 374 347 374 Q315 374 285 363.5 Q255 353 232.5 333.5 Q210 314 196.5 286 Q183 258 183 224 Q183 169 220.5 139 Q258 109 312 109 Q339 109 363 115 Q387 121 407 131 Q413 133 415 133 Q424 133 423 120 L412 30 Q410 19 404 16 Q380 5 344.5 -1.5 Q309 -8 273 -8 Z " />
<glyph glyph-name="ccedilla" unicode="&#xe7;" horiz-adv-x="473" d="M347 374 Q315 374 285 363.5 Q255 353 232.5 333.5 Q210 314 196.5 286 Q183 258 183 224 Q183 169 220.5 139 Q258 109 312 109 Q339 109 363 115 Q387 121 407 131 Q413 133 415 133 Q424 133 423 120 L412 30 Q410 18 401 15 Q379 6 349 0 Q319 -6 287 -8 L265 -38 Q299 -39 319.5 -55 Q340 -71 340 -100 Q340 -121 330 -138 Q320 -155 302.5 -167 Q285 -179 262 -185.5 Q239 -192 214 -192 Q191 -192 173.5 -188.5 Q156 -185 143 -180 Q132 -175 134 -163 L138 -133 Q140 -117 155 -124 Q166 -128 179 -131 Q192 -134 207 -134 Q228 -134 242 -126.5 Q256 -119 256 -106 Q256 -94 244.5 -87.5 Q233 -81 216 -81 Q208 -81 200 -82 Q192 -83 184 -85 Q182 -83 181 -80 Q180 -78 180 -75.5 Q180 -73 182 -69 L226 -4 Q186 2 151 19.5 Q116 37 90.5 64.5 Q65 92 50 129.5 Q35 167 35 213 Q35 277 59.5 328 Q84 379 126 415 Q168 451 223 470 Q278 489 338 489 Q369 489 399 484 Q429 479 450 469 Q461 464 459 452 L448 360 Q447 352 443 349 Q439 346 434 350 Q417 361 395 367.5 Q373 374 347 374 Z " />
<glyph glyph-name="d" unicode="d" horiz-adv-x="617" d="M489 734 Q491 747 504 747 L614 747 Q628 747 627 732 L540 13 Q538 0 525 0 L416 0 Q401 0 403 15 L411 78 Q382 32 337 11.5 Q292 -9 244 -9 Q202 -9 164 7 Q126 23 97.5 52 Q69 81 52.5 121.5 Q36 162 36 212 Q36 273 58.5 324.5 Q81 376 118.5 412.5 Q156 449 205 469.5 Q254 490 306 490 Q329 490 351.5 485.5 Q374 481 393 471.5 Q412 462 426.5 446.5 Q441 431 450 409 L489 734 Z M291 115 Q316 115 340 123.5 Q364 132 382.5 147 Q401 162 414 184 Q427 206 432 233 L432 238 Q432 243 433 246 Q434 249 434 252 L434 259 Q434 309 402.5 337.5 Q371 366 323 366 Q295 366 269 356 Q243 346 223.5 327.5 Q204 309 192 283 Q180 257 180 225 Q180 174 212.5 144.5 Q245 115 291 115 Z " />
<glyph glyph-name="eth" unicode="&#xf0;" horiz-adv-x="596" d="M438 628 Q507 560 536.5 479.5 Q566 399 566 324 Q566 247 541 185.5 Q516 124 474 80.5 Q432 37 376 13.5 Q320 -10 258 -10 Q211 -10 170.5 6 Q130 22 100 50.5 Q70 79 52.5 119.5 Q35 160 35 210 Q35 270 58 319.5 Q81 369 119 405 Q157 441 205.5 460.5 Q254 480 305 480 Q349 480 383.5 466 Q418 452 439 427 L443 429 Q427 467 399.5 506.5 Q372 546 334 581 L201 520 Q200 520 200 521 L188 555 Q187 557 187 560 Q187 566 194 570 L294 615 Q250 650 197 674 Q186 679 198 683 L296 716 Q299 717 306 717 Q313 717 321 714 Q343 703 362.5 690 Q382 677 400 663 L509 712 Q513 714 515 714 Q520 714 523 707 L533 684 Q534 682 534 679 Q534 673 527 669 L438 628 Z M279 107 Q310 107 338 118.5 Q366 130 387 150 Q408 170 420 197.5 Q432 225 432 257 Q432 306 400.5 337.5 Q369 369 318 369 Q286 369 258.5 357.5 Q231 346 210 325.5 Q189 305 177 278 Q165 251 165 221 Q165 171 196.5 139 Q228 107 279 107 Z " />
<glyph glyph-name="e" unicode="e" horiz-adv-x="540" d="M315 490 Q356 490 391.5 478 Q427 466 453.5 441 Q480 416 495 379 Q510 342 510 292 Q510 265 507 249.5 Q504 234 498 225.5 Q492 217 482.5 214.5 Q473 212 460 212 L171 212 Q177 163 211.5 135.5 Q246 108 304 108 Q339 108 382 118 Q425 128 460 145 Q466 147 468 147 Q477 147 476 134 L467 56 Q466 45 458 40 Q442 29 420.5 20 Q399 11 375 5 Q351 -1 325.5 -4.5 Q300 -8 276 -8 Q225 -8 180.5 8.5 Q136 25 104 54.5 Q72 84 53.5 125.5 Q35 167 35 217 Q35 276 58 326 Q81 376 120 412.5 Q159 449 209.5 469.5 Q260 490 315 490 Z M302 383 Q262 383 230.5 360 Q199 337 183 299 L393 299 Q392 333 368.5 358 Q345 383 302 383 Z " />
<glyph glyph-name="eacute" unicode="&#xe9;" horiz-adv-x="548" d="M315 490 Q356 490 391.5 478 Q427 466 453.5 441 Q480 416 495 379 Q510 342 510 292 Q510 265 507 249.5 Q504 234 498 225.5 Q492 217 482.5 214.5 Q473 212 460 212 L171 212 Q177 163 211.5 135.5 Q246 108 304 108 Q339 108 382 118 Q425 128 460 145 Q466 147 468 147 Q477 147 476 134 L467 56 Q466 45 458 40 Q442 29 420.5 20 Q399 11 375 5 Q351 -1 325.5 -4.5 Q300 -8 276 -8 Q225 -8 180.5 8.5 Q136 25 104 54.5 Q72 84 53.5 125.5 Q35 167 35 217 Q35 276 58 326 Q81 376 120 412.5 Q159 449 209.5 469.5 Q260 490 315 490 Z M302 383 Q262 383 230.5 360 Q199 337 183 299 L393 299 Q392 333 368.5 358 Q345 383 302 383 Z M246 534 Q235 534 235 543 Q235 548 237 551 L332 718 Q337 728 350 726 L466 710 Q477 708 477 701 Q477 697 472 692 L326 541 Q319 534 309 534 L246 534 L246 534 Z " />
<glyph glyph-name="ecircumflex" unicode="&#xea;" horiz-adv-x="548" d="M315 490 Q356 490 391.5 478 Q427 466 453.5 441 Q480 416 495 379 Q510 342 510 292 Q510 265 507 249.5 Q504 234 498 225.5 Q492 217 482.5 214.5 Q473 212 460 212 L171 212 Q177 163 211.5 135.5 Q246 108 304 108 Q339 108 382 118 Q425 128 460 145 Q466 147 468 147 Q477 147 476 134 L467 56 Q466 45 458 40 Q442 29 420.5 20 Q399 11 375 5 Q351 -1 325.5 -4.5 Q300 -8 276 -8 Q225 -8 180.5 8.5 Q136 25 104 54.5 Q72 84 53.5 125.5 Q35 167 35 217 Q35 276 58 326 Q81 376 120 412.5 Q159 449 209.5 469.5 Q260 490 315 490 Z M302 383 Q262 383 230.5 360 Q199 337 183 299 L393 299 Q392 333 368.5 358 Q345 383 302 383 Z M472 572 Q474 568 474 566 Q474 555 461 555 L404 555 Q394 555 387 565 L330 662 L248 563 Q242 555 231 555 L172 555 Q161 555 161 563 Q161 567 164 572 L290 739 Q295 747 307 747 L372 747 Q384 747 388 737 L472 572 L472 572 Z " />
<glyph glyph-name="edieresis" unicode="&#xeb;" horiz-adv-x="548" d="M315 490 Q356 490 391.5 478 Q427 466 453.5 441 Q480 416 495 379 Q510 342 510 292 Q510 265 507 249.5 Q504 234 498 225.5 Q492 217 482.5 214.5 Q473 212 460 212 L171 212 Q177 163 211.5 135.5 Q246 108 304 108 Q339 108 382 118 Q425 128 460 145 Q466 147 468 147 Q477 147 476 134 L467 56 Q466 45 458 40 Q442 29 420.5 20 Q399 11 375 5 Q351 -1 325.5 -4.5 Q300 -8 276 -8 Q225 -8 180.5 8.5 Q136 25 104 54.5 Q72 84 53.5 125.5 Q35 167 35 217 Q35 276 58 326 Q81 376 120 412.5 Q159 449 209.5 469.5 Q260 490 315 490 Z M302 383 Q262 383 230.5 360 Q199 337 183 299 L393 299 Q392 333 368.5 358 Q345 383 302 383 Z M233 605 Q210 605 196.5 621 Q183 637 183 660 Q183 688 201.5 708 Q220 728 248 728 Q271 728 285 712 Q299 696 299 673 Q299 645 279.5 625 Q260 605 233 605 Z M400 605 Q377 605 363.5 621 Q350 637 350 660 Q350 688 368.5 708 Q387 728 415 728 Q438 728 452 712 Q466 696 466 673 Q466 645 446.5 625 Q427 605 400 605 Z " />
<glyph glyph-name="egrave" unicode="&#xe8;" horiz-adv-x="548" d="M315 490 Q356 490 391.5 478 Q427 466 453.5 441 Q480 416 495 379 Q510 342 510 292 Q510 265 507 249.5 Q504 234 498 225.5 Q492 217 482.5 214.5 Q473 212 460 212 L171 212 Q177 163 211.5 135.5 Q246 108 304 108 Q339 108 382 118 Q425 128 460 145 Q466 147 468 147 Q477 147 476 134 L467 56 Q466 45 458 40 Q442 29 420.5 20 Q399 11 375 5 Q351 -1 325.5 -4.5 Q300 -8 276 -8 Q225 -8 180.5 8.5 Q136 25 104 54.5 Q72 84 53.5 125.5 Q35 167 35 217 Q35 276 58 326 Q81 376 120 412.5 Q159 449 209.5 469.5 Q260 490 315 490 Z M302 383 Q262 383 230.5 360 Q199 337 183 299 L393 299 Q392 333 368.5 358 Q345 383 302 383 Z M389 551 Q391 548 391 543 Q391 534 380 534 L317 534 Q307 534 300 541 L154 692 Q149 697 149 701 Q149 708 160 710 L276 726 L280 726 Q290 726 294 718 L389 551 L389 551 Z " />
<glyph glyph-name="eogonek" unicode="&#x119;" horiz-adv-x="548" d="M315 490 Q356 490 391.5 478 Q427 466 453.5 441 Q480 416 495 379 Q510 342 510 292 Q510 265 507 249.5 Q504 234 498 225.5 Q492 217 482.5 214.5 Q473 212 460 212 L171 212 Q177 163 211.5 135.5 Q246 108 304 108 Q339 108 382 118 Q425 128 460 145 Q466 147 468 147 Q477 147 476 134 L467 56 Q466 45 458 40 Q423 18 376 6 Q321 -23 298.5 -45.5 Q276 -68 276 -89 Q276 -105 286.5 -113.5 Q297 -122 314 -122 Q326 -122 337 -119 L342 -119 Q353 -119 352 -132 L347 -167 Q345 -179 335 -182 Q323 -187 307 -189.5 Q291 -192 274 -192 Q232 -192 203.5 -168.5 Q175 -145 175 -105 Q175 -74 191.5 -50 Q208 -26 239 -6 Q195 0 157.5 18 Q120 36 93 65 Q66 94 50.5 132.5 Q35 171 35 217 Q35 276 58 326 Q81 376 120 412.5 Q159 449 209.5 469.5 Q260 490 315 490 Z M302 383 Q262 383 230.5 360 Q199 337 183 299 L393 299 Q392 333 368.5 358 Q345 383 302 383 Z " />
<glyph glyph-name="f" unicode="f" horiz-adv-x="385" d="M369 644 Q333 644 309 624 Q285 604 279 558 L269 480 L395 480 Q409 480 408 465 L400 395 Q398 382 385 382 L257 382 L187 -169 Q185 -182 172 -182 L61 -182 Q46 -182 48 -167 L117 382 L45 382 Q30 382 32 397 L40 467 Q42 480 55 480 L130 480 L141 568 Q152 662 203.5 709.5 Q255 757 343 757 Q398 757 435 744 Q446 740 445 727 L435 645 Q433 629 423 634 Q400 644 369 644 Z " />
<glyph glyph-name="g" unicode="g" horiz-adv-x="620" d="M455 467 Q457 480 470 480 L582 480 Q596 480 595 465 L551 106 Q542 31 512.5 -25 Q483 -81 439 -118 Q395 -155 339 -173.5 Q283 -192 221 -192 Q167 -192 120 -182.5 Q73 -173 38 -154 Q27 -148 29 -136 L40 -39 Q42 -28 49 -28 Q52 -28 57 -31 Q93 -53 135.5 -64 Q178 -75 216 -75 Q291 -75 341.5 -39.5 Q392 -4 401 68 L404 90 Q337 20 234 20 Q191 20 155 35 Q119 50 92.5 77 Q66 104 51.5 141.5 Q37 179 37 225 Q37 283 58 331.5 Q79 380 114 415 Q149 450 195 469.5 Q241 489 291 489 Q340 489 381 470.5 Q422 452 449 413 L455 467 Z M286 136 Q315 136 341 146 Q367 156 386.5 174 Q406 192 417.5 217 Q429 242 429 272 Q429 317 399 346.5 Q369 376 321 376 Q294 376 268.5 366.5 Q243 357 223 339 Q203 321 190.5 295.5 Q178 270 178 238 Q178 190 209 163 Q240 136 286 136 Z " />
<glyph glyph-name="h" unicode="h" horiz-adv-x="574" d="M372 490 Q447 490 491 453 Q535 416 535 339 Q535 328 534 317 Q533 306 531 295 L497 13 Q495 0 482 0 L370 0 Q355 0 357 15 L389 280 Q389 285 389.5 291 Q390 297 390 303 Q392 342 370 359.5 Q348 377 311 377 Q265 377 235 350 Q205 323 196 278 L164 13 Q162 0 149 0 L37 0 Q22 0 24 15 L112 734 Q114 747 127 747 L232 747 Q246 747 245 732 L206 414 Q265 490 372 490 Z " />
<glyph glyph-name="i" unicode="i" horiz-adv-x="287" d="M183 578 Q147 578 127.5 598.5 Q108 619 108 650 Q108 687 134 713.5 Q160 740 202 740 Q238 740 257.5 719.5 Q277 699 277 669 Q277 631 251 604.5 Q225 578 183 578 Z M59 0 Q44 0 46 15 L101 467 Q103 480 116 480 L228 480 Q242 480 241 465 L186 13 Q184 0 171 0 L59 0 Z " />
<glyph glyph-name="idotless" unicode="&#x131;" horiz-adv-x="294" d="M63 0 Q48 0 50 15 L105 467 Q107 480 120 480 L232 480 Q246 480 245 465 L190 13 Q188 0 175 0 L63 0 L63 0 Z " />
<glyph glyph-name="iacute" unicode="&#xed;" horiz-adv-x="294" d="M63 0 Q48 0 50 15 L105 467 Q107 480 120 480 L232 480 Q246 480 245 465 L190 13 Q188 0 175 0 L63 0 L63 0 Z M148 537 Q131 537 138 553 L222 736 Q227 749 241 744 L329 715 Q338 712 338 705 Q338 701 335 697 L220 545 Q215 537 203 537 L148 537 L148 537 Z " />
<glyph glyph-name="icircumflex" unicode="&#xee;" horiz-adv-x="294" d="M63 0 Q48 0 50 15 L105 467 Q107 480 120 480 L232 480 Q246 480 245 465 L190 13 Q188 0 175 0 L63 0 L63 0 Z M349 572 Q351 568 351 566 Q351 555 338 555 L281 555 Q271 555 264 565 L207 662 L125 563 Q119 555 108 555 L49 555 Q38 555 38 563 Q38 567 41 572 L167 739 Q172 747 184 747 L249 747 Q261 747 265 737 L349 572 L349 572 Z " />
<glyph glyph-name="idieresis" unicode="&#xef;" horiz-adv-x="294" d="M63 0 Q48 0 50 15 L105 467 Q107 480 120 480 L232 480 Q246 480 245 465 L190 13 Q188 0 175 0 L63 0 L63 0 Z M110 605 Q87 605 73.5 621 Q60 637 60 660 Q60 688 78.5 708 Q97 728 125 728 Q148 728 162 712 Q176 696 176 673 Q176 645 156.5 625 Q137 605 110 605 Z M277 605 Q254 605 240.5 621 Q227 637 227 660 Q227 688 245.5 708 Q264 728 292 728 Q315 728 329 712 Q343 696 343 673 Q343 645 323.5 625 Q304 605 277 605 Z " />
<glyph glyph-name="igrave" unicode="&#xec;" horiz-adv-x="294" d="M63 0 Q48 0 50 15 L105 467 Q107 480 120 480 L232 480 Q246 480 245 465 L190 13 Q188 0 175 0 L63 0 L63 0 Z M225 553 Q227 549 227 547 Q227 537 215 537 L160 537 Q148 537 143 545 L28 696 Q25 700 25 705 Q25 712 34 715 L122 744 Q124 745 128 745 Q138 745 141 736 L225 553 L225 553 Z " />
<glyph glyph-name="j" unicode="j" horiz-adv-x="284" d="M186 578 Q150 578 130.5 598.5 Q111 619 111 650 Q111 687 137 713.5 Q163 740 205 740 Q241 740 260.5 719.5 Q280 699 280 669 Q280 631 254 604.5 Q228 578 186 578 Z M-2 -193 Q-21 -193 -39.5 -190.5 Q-58 -188 -72 -183 Q-83 -180 -82 -167 L-72 -84 Q-71 -73 -63 -73 Q-61 -73 -55 -75 Q-47 -78 -38.5 -80 Q-30 -82 -20 -82 Q6 -82 23.5 -66.5 Q41 -51 44 -22 L105 467 Q107 480 120 480 L232 480 Q246 480 245 465 L184 -23 Q174 -108 126 -150.5 Q78 -193 -2 -193 Z " />
<glyph glyph-name="k" unicode="k" horiz-adv-x="554" d="M554 480 Q566 480 566 472 Q566 468 561 463 L342 258 L519 17 Q522 12 522 8 Q522 0 511 0 L373 0 Q361 0 356 9 L205 245 L177 13 Q175 0 162 0 L50 0 Q35 0 37 15 L125 734 Q127 747 140 747 L252 747 Q266 747 265 732 L208 270 L402 473 Q408 480 419 480 L554 480 L554 480 Z " />
<glyph glyph-name="l" unicode="l" horiz-adv-x="308" d="M164 -10 Q107 -10 75 22 Q43 54 43 111 Q43 118 44.5 133.5 Q46 149 48 164 L123 734 Q125 747 138 747 L249 747 Q263 747 262 732 L188 170 Q187 165 187 160 Q187 155 187 150 Q187 126 198.5 116 Q210 106 230 106 Q247 106 264 112 Q266 113 270 113 Q280 113 279 100 L268 21 Q266 10 260 7 Q241 -1 214.5 -5.5 Q188 -10 164 -10 Z " />
<glyph glyph-name="lslash" unicode="&#x142;" horiz-adv-x="308" d="M188 170 Q187 165 187 160 Q187 155 187 150 Q187 126 198.5 116 Q210 106 230 106 Q247 106 264 112 Q266 113 270 113 Q280 113 279 100 L268 21 Q266 9 257 6 Q239 -2 213 -6 Q187 -10 164 -10 Q107 -10 75 22 Q43 54 43 111 Q43 118 44.5 133.5 Q46 149 48 164 L71 340 L31 326 Q29 325 26 325 Q15 325 15 338 L15 381 Q15 394 26 397 L81 415 L123 734 Q125 747 138 747 L249 747 Q263 747 262 732 L227 463 L291 485 Q293 486 296 486 Q307 486 307 473 L307 430 Q307 417 296 414 L217 388 L188 170 Z " />
<glyph glyph-name="m" unicode="m" horiz-adv-x="836" d="M643 490 Q676 490 704.5 482 Q733 474 754 456.5 Q775 439 786.5 411.5 Q798 384 798 345 Q798 337 798 328 Q798 319 796 310 L760 13 Q758 0 745 0 L633 0 Q618 0 620 15 L656 307 Q657 311 657 314.5 Q657 318 657 321 Q657 353 637.5 368.5 Q618 384 590 384 Q557 384 531.5 364.5 Q506 345 498 308 L462 13 Q460 0 447 0 L335 0 Q320 0 322 15 L358 307 Q359 310 359 313.5 Q359 317 359 320 Q359 353 340 368.5 Q321 384 292 384 Q257 384 230.5 363 Q204 342 199 300 L164 13 Q162 0 149 0 L37 0 Q22 0 24 15 L79 467 Q81 480 94 480 L198 480 Q212 480 211 465 L205 413 Q231 452 269.5 471 Q308 490 351 490 Q400 490 437.5 470 Q475 450 491 405 Q518 449 558.5 469.5 Q599 490 643 490 Z " />
<glyph glyph-name="n" unicode="n" horiz-adv-x="574" d="M372 490 Q447 490 491 452.5 Q535 415 535 344 Q535 330 534 318 Q533 306 531 296 L496 13 Q494 0 481 0 L370 0 Q355 0 357 15 L388 278 Q389 285 389.5 292 Q390 299 390 306 Q390 344 368.5 361 Q347 378 311 378 Q263 378 233.5 350 Q204 322 196 272 L164 13 Q162 0 149 0 L37 0 Q22 0 24 15 L79 467 Q81 480 94 480 L197 480 Q211 480 210 465 L203 408 Q262 490 372 490 Z " />
<glyph glyph-name="ntilde" unicode="&#xf1;" horiz-adv-x="599" d="M372 490 Q447 490 491 452.5 Q535 415 535 344 Q535 330 534 318 Q533 306 531 296 L496 13 Q494 0 481 0 L370 0 Q355 0 357 15 L388 278 Q389 285 389.5 292 Q390 299 390 306 Q390 344 368.5 361 Q347 378 311 378 Q263 378 233.5 350 Q204 322 196 272 L164 13 Q162 0 149 0 L37 0 Q22 0 24 15 L79 467 Q81 480 94 480 L197 480 Q211 480 210 465 L203 408 Q262 490 372 490 Z M389 565 Q365 565 346.5 576.5 Q328 588 313 600 Q300 611 287.5 620 Q275 629 260 629 Q244 629 233 617 Q222 605 218 580 Q215 567 203 567 L160 567 Q144 567 146 582 Q149 611 158 637.5 Q167 664 181 683.5 Q195 703 215 714.5 Q235 726 260 726 Q287 726 306 713 Q325 700 341 686 Q354 675 365 667.5 Q376 660 389 660 Q406 660 415 672.5 Q424 685 428 706 Q430 719 442 719 L487 719 Q503 719 500 700 Q496 672 486.5 647.5 Q477 623 463 604.5 Q449 586 430 575.5 Q411 565 389 565 Z " />
<glyph glyph-name="o" unicode="o" horiz-adv-x="590" d="M264 -10 Q214 -10 172 7.5 Q130 25 99.5 55.5 Q69 86 52 127.5 Q35 169 35 216 Q35 273 59 323 Q83 373 123 410 Q163 447 215.5 468.5 Q268 490 325 490 Q375 490 417 473 Q459 456 490 426 Q521 396 538 355.5 Q555 315 555 268 Q555 211 532.5 160 Q510 109 470.5 71.5 Q431 34 378 12 Q325 -10 264 -10 Z M279 114 Q307 114 333 124.5 Q359 135 378.5 153.5 Q398 172 410 198.5 Q422 225 422 258 Q422 308 390.5 337 Q359 366 311 366 Q283 366 257 356 Q231 346 211.5 327 Q192 308 180 282 Q168 256 168 224 Q168 173 200.5 143.5 Q233 114 279 114 Z " />
<glyph glyph-name="oacute" unicode="&#xf3;" horiz-adv-x="593" d="M264 -10 Q214 -10 172 7.5 Q130 25 99.5 55.5 Q69 86 52 127.5 Q35 169 35 216 Q35 273 59 323 Q83 373 123 410 Q163 447 215.5 468.5 Q268 490 325 490 Q375 490 417 473 Q459 456 490 426 Q521 396 538 355.5 Q555 315 555 268 Q555 211 532.5 160 Q510 109 470.5 71.5 Q431 34 378 12 Q325 -10 264 -10 Z M279 114 Q307 114 333 124.5 Q359 135 378.5 153.5 Q398 172 410 198.5 Q422 225 422 258 Q422 308 390.5 337 Q359 366 311 366 Q283 366 257 356 Q231 346 211.5 327 Q192 308 180 282 Q168 256 168 224 Q168 173 200.5 143.5 Q233 114 279 114 Z M270 534 Q259 534 259 543 Q259 548 261 551 L356 718 Q361 728 374 726 L490 710 Q501 708 501 701 Q501 697 496 692 L350 541 Q343 534 333 534 L270 534 L270 534 Z " />
<glyph glyph-name="ocircumflex" unicode="&#xf4;" horiz-adv-x="593" d="M264 -10 Q214 -10 172 7.5 Q130 25 99.5 55.5 Q69 86 52 127.5 Q35 169 35 216 Q35 273 59 323 Q83 373 123 410 Q163 447 215.5 468.5 Q268 490 325 490 Q375 490 417 473 Q459 456 490 426 Q521 396 538 355.5 Q555 315 555 268 Q555 211 532.5 160 Q510 109 470.5 71.5 Q431 34 378 12 Q325 -10 264 -10 Z M279 114 Q307 114 333 124.5 Q359 135 378.5 153.5 Q398 172 410 198.5 Q422 225 422 258 Q422 308 390.5 337 Q359 366 311 366 Q283 366 257 356 Q231 346 211.5 327 Q192 308 180 282 Q168 256 168 224 Q168 173 200.5 143.5 Q233 114 279 114 Z M496 572 Q498 568 498 566 Q498 555 485 555 L428 555 Q418 555 411 565 L354 662 L272 563 Q266 555 255 555 L196 555 Q185 555 185 563 Q185 567 188 572 L314 739 Q319 747 331 747 L396 747 Q408 747 412 737 L496 572 L496 572 Z " />
<glyph glyph-name="odieresis" unicode="&#xf6;" horiz-adv-x="593" d="M264 -10 Q214 -10 172 7.5 Q130 25 99.5 55.5 Q69 86 52 127.5 Q35 169 35 216 Q35 273 59 323 Q83 373 123 410 Q163 447 215.5 468.5 Q268 490 325 490 Q375 490 417 473 Q459 456 490 426 Q521 396 538 355.5 Q555 315 555 268 Q555 211 532.5 160 Q510 109 470.5 71.5 Q431 34 378 12 Q325 -10 264 -10 Z M279 114 Q307 114 333 124.5 Q359 135 378.5 153.5 Q398 172 410 198.5 Q422 225 422 258 Q422 308 390.5 337 Q359 366 311 366 Q283 366 257 356 Q231 346 211.5 327 Q192 308 180 282 Q168 256 168 224 Q168 173 200.5 143.5 Q233 114 279 114 Z M257 605 Q234 605 220.5 621 Q207 637 207 660 Q207 688 225.5 708 Q244 728 272 728 Q295 728 309 712 Q323 696 323 673 Q323 645 303.5 625 Q284 605 257 605 Z M424 605 Q401 605 387.5 621 Q374 637 374 660 Q374 688 392.5 708 Q411 728 439 728 Q462 728 476 712 Q490 696 490 673 Q490 645 470.5 625 Q451 605 424 605 Z " />
<glyph glyph-name="ograve" unicode="&#xf2;" horiz-adv-x="593" d="M264 -10 Q214 -10 172 7.5 Q130 25 99.5 55.5 Q69 86 52 127.5 Q35 169 35 216 Q35 273 59 323 Q83 373 123 410 Q163 447 215.5 468.5 Q268 490 325 490 Q375 490 417 473 Q459 456 490 426 Q521 396 538 355.5 Q555 315 555 268 Q555 211 532.5 160 Q510 109 470.5 71.5 Q431 34 378 12 Q325 -10 264 -10 Z M279 114 Q307 114 333 124.5 Q359 135 378.5 153.5 Q398 172 410 198.5 Q422 225 422 258 Q422 308 390.5 337 Q359 366 311 366 Q283 366 257 356 Q231 346 211.5 327 Q192 308 180 282 Q168 256 168 224 Q168 173 200.5 143.5 Q233 114 279 114 Z M413 551 Q415 548 415 543 Q415 534 404 534 L341 534 Q331 534 324 541 L178 692 Q173 697 173 701 Q173 708 184 710 L300 726 L304 726 Q314 726 318 718 L413 551 L413 551 Z " />
<glyph glyph-name="oslash" unicode="&#xf8;" horiz-adv-x="589" d="M450 456 Q498 427 526 377.5 Q554 328 554 268 Q554 211 531.5 160 Q509 109 469.5 71.5 Q430 34 377 12 Q324 -10 263 -10 Q241 -10 221 -6.5 Q201 -3 182 3 L154 -44 Q147 -54 137 -54 L106 -54 Q98 -54 94.5 -49 Q91 -44 96 -37 L134 27 Q87 57 60.5 106.5 Q34 156 34 216 Q34 273 58 323 Q82 373 122 410 Q162 447 214.5 468.5 Q267 490 324 490 Q366 490 402 478 L429 524 Q436 534 446 534 L476 534 Q484 534 487 529 Q490 524 486 517 L450 456 Z M278 114 Q306 114 332 124.5 Q358 135 377.5 153.5 Q397 172 409 198.5 Q421 225 421 258 Q421 308 389.5 337 Q358 366 310 366 Q282 366 256 356 Q230 346 210.5 327 Q191 308 179 282 Q167 256 167 224 Q167 173 199.5 143.5 Q232 114 278 114 Z " />
<glyph glyph-name="otilde" unicode="&#xf5;" horiz-adv-x="593" d="M264 -10 Q214 -10 172 7.5 Q130 25 99.5 55.5 Q69 86 52 127.5 Q35 169 35 216 Q35 273 59 323 Q83 373 123 410 Q163 447 215.5 468.5 Q268 490 325 490 Q375 490 417 473 Q459 456 490 426 Q521 396 538 355.5 Q555 315 555 268 Q555 211 532.5 160 Q510 109 470.5 71.5 Q431 34 378 12 Q325 -10 264 -10 Z M279 114 Q307 114 333 124.5 Q359 135 378.5 153.5 Q398 172 410 198.5 Q422 225 422 258 Q422 308 390.5 337 Q359 366 311 366 Q283 366 257 356 Q231 346 211.5 327 Q192 308 180 282 Q168 256 168 224 Q168 173 200.5 143.5 Q233 114 279 114 Z M397 565 Q373 565 354.5 576.5 Q336 588 321 600 Q308 611 295.5 620 Q283 629 268 629 Q252 629 241 617 Q230 605 226 580 Q223 567 211 567 L168 567 Q152 567 154 582 Q157 611 166 637.5 Q175 664 189 683.5 Q203 703 223 714.5 Q243 726 268 726 Q295 726 314 713 Q333 700 349 686 Q362 675 373 667.5 Q384 660 397 660 Q414 660 423 672.5 Q432 685 436 706 Q438 719 450 719 L495 719 Q511 719 508 700 Q504 672 494.5 647.5 Q485 623 471 604.5 Q457 586 438 575.5 Q419 565 397 565 Z " />
<glyph glyph-name="oe" unicode="&#x153;" horiz-adv-x="911" d="M694 490 Q732 490 766 478 Q800 466 825.5 441 Q851 416 866 379 Q881 342 881 291 Q881 266 878.5 251 Q876 236 870.5 227.5 Q865 219 857 216.5 Q849 214 838 214 L554 214 Q559 164 593.5 133.5 Q628 103 691 103 Q729 103 770 113.5 Q811 124 840 143 Q844 146 849 146 Q857 146 856 134 L849 56 Q848 45 840 40 Q809 16 762 3 Q715 -10 667 -10 Q592 -10 535.5 24 Q479 58 457 122 Q425 59 366.5 24.5 Q308 -10 240 -10 Q195 -10 157.5 6.5 Q120 23 93 52.5 Q66 82 51 123 Q36 164 36 213 Q36 273 57.5 324 Q79 375 115 411.5 Q151 448 199 469 Q247 490 300 490 Q368 490 416 455 Q464 420 482 359 Q514 419 570.5 454.5 Q627 490 694 490 Z M680 383 Q640 383 610 359 Q580 335 566 298 L768 298 Q763 337 740.5 360 Q718 383 680 383 Z M263 113 Q292 113 316.5 125.5 Q341 138 359 158.5 Q377 179 387 205.5 Q397 232 397 261 Q397 306 370.5 336.5 Q344 367 295 367 Q266 367 241.5 355 Q217 343 199 323 Q181 303 170.5 276.5 Q160 250 160 221 Q160 175 187 144 Q214 113 263 113 Z " />
<glyph glyph-name="p" unicode="p" horiz-adv-x="619" d="M373 489 Q417 489 455.5 473 Q494 457 522.5 428 Q551 399 567.5 358.5 Q584 318 584 269 Q584 207 561 156 Q538 105 500 68 Q462 31 412.5 10.5 Q363 -10 310 -10 Q267 -10 228 8.5 Q189 27 169 69 L140 -169 Q138 -182 125 -182 L14 -182 Q-1 -182 1 -167 L78 467 Q80 480 93 480 L203 480 Q217 480 216 465 L208 404 Q237 449 283 469 Q329 489 373 489 Z M295 114 Q324 114 350 124 Q376 134 396 153 Q416 172 428 198 Q440 224 440 256 Q440 307 407.5 336 Q375 365 328 365 Q300 365 274.5 354.5 Q249 344 229.5 325.5 Q210 307 198 280.5 Q186 254 186 222 Q186 172 217 143 Q248 114 295 114 Z " />
<glyph glyph-name="thorn" unicode="&#xfe;" horiz-adv-x="619" d="M373 489 Q417 489 455.5 473 Q494 457 522.5 428 Q551 399 567.5 358.5 Q584 318 584 269 Q584 207 561 156 Q538 105 500 68 Q462 31 412.5 10.5 Q363 -10 310 -10 Q267 -10 228 8.5 Q189 27 169 69 L140 -169 Q138 -182 125 -182 L14 -182 Q-1 -182 1 -167 L111 734 Q113 747 126 747 L236 747 Q250 747 249 732 L208 404 Q237 448 283 468.5 Q329 489 373 489 Z M295 114 Q324 114 350 124 Q376 134 396 153 Q416 172 428 198 Q440 224 440 256 Q440 307 407.5 336 Q375 365 328 365 Q302 365 278.5 356.5 Q255 348 236 332.5 Q217 317 204 295 Q191 273 187 246 L186 236 Q185 231 185 222 Q185 172 216 143 Q247 114 295 114 Z " />
<glyph glyph-name="q" unicode="q" horiz-adv-x="616" d="M455 467 Q457 480 470 480 L572 480 Q586 480 585 465 L508 -169 Q506 -182 493 -182 L381 -182 Q366 -182 368 -167 L396 55 Q335 -10 235 -10 Q194 -10 157.5 5.5 Q121 21 94 49.5 Q67 78 51 118 Q35 158 35 207 Q35 268 55.5 320 Q76 372 111.5 409.5 Q147 447 195 468 Q243 489 298 489 Q349 489 387.5 469 Q426 449 448 407 L455 467 Z M281 104 Q309 104 335.5 115 Q362 126 382.5 146 Q403 166 415.5 194.5 Q428 223 428 258 Q428 312 395.5 342.5 Q363 373 316 373 Q287 373 260.5 362.5 Q234 352 214 332 Q194 312 182 283.5 Q170 255 170 219 Q170 165 202.5 134.5 Q235 104 281 104 Z " />
<glyph glyph-name="r" unicode="r" horiz-adv-x="407" d="M213 341 Q272 481 395 490 Q410 490 408 475 L395 357 Q393 345 380 345 Q363 345 346.5 342.5 Q330 340 314 335 Q269 321 236.5 275.5 Q204 230 194 148 L177 13 Q175 0 162 0 L50 0 Q35 0 37 15 L92 467 Q94 480 107 480 L214 480 Q228 480 227 465 L212 342 L213 341 L213 341 Z " />
<glyph glyph-name="s" unicode="s" horiz-adv-x="469" d="M192 -9 Q150 -9 107 -1 Q64 7 34 20 Q23 24 24 37 L34 123 Q35 139 51 132 Q84 115 124.5 106.5 Q165 98 203 98 Q236 98 254.5 110.5 Q273 123 273 143 Q273 163 251.5 172 Q230 181 185 196 Q128 214 92 243 Q56 272 56 325 Q56 365 74 396 Q92 427 123.5 448 Q155 469 197.5 479.5 Q240 490 290 490 Q327 490 361 484.5 Q395 479 421 470 Q433 467 432 454 L422 373 Q420 357 405 364 Q380 374 347.5 380 Q315 386 287 386 Q249 386 228.5 374 Q208 362 208 342 Q208 324 227.5 316 Q247 308 287 294 Q315 285 339.5 274.5 Q364 264 382 249 Q400 234 410 214 Q420 194 420 165 Q420 126 404 94 Q388 62 358.5 39 Q329 16 286.5 3.5 Q244 -9 192 -9 Z " />
<glyph glyph-name="scaron" unicode="&#x161;" horiz-adv-x="459" d="M192 -9 Q150 -9 107 -1 Q64 7 34 20 Q23 24 24 37 L34 123 Q35 139 51 132 Q84 115 124.5 106.5 Q165 98 203 98 Q236 98 254.5 110.5 Q273 123 273 143 Q273 163 251.5 172 Q230 181 185 196 Q128 214 92 243 Q56 272 56 325 Q56 365 74 396 Q92 427 123.5 448 Q155 469 197.5 479.5 Q240 490 290 490 Q327 490 361 484.5 Q395 479 421 470 Q433 467 432 454 L422 373 Q420 357 405 364 Q380 374 347.5 380 Q315 386 287 386 Q249 386 228.5 374 Q208 362 208 342 Q208 324 227.5 316 Q247 308 287 294 Q315 285 339.5 274.5 Q364 264 382 249 Q400 234 410 214 Q420 194 420 165 Q420 126 404 94 Q388 62 358.5 39 Q329 16 286.5 3.5 Q244 -9 192 -9 Z M367 713 Q375 721 384 721 L449 721 Q461 721 461 712 Q461 708 458 704 L355 552 Q350 543 338 543 L262 543 Q251 543 245 552 L153 704 Q150 708 150 711 Q150 721 163 721 L231 721 Q243 721 248 713 L304 639 L367 713 L367 713 Z " />
<glyph glyph-name="germandbls" unicode="&#xdf;" horiz-adv-x="623" d="M372 -9 Q343 -9 308.5 -3.5 Q274 2 249 11 Q238 16 239 28 L248 104 Q250 115 257 115 Q260 115 265 112 Q287 101 311 96.5 Q335 92 353 92 Q397 92 421.5 112.5 Q446 133 446 168 Q446 197 424 216 Q402 235 370 255 Q335 278 312 302 Q289 326 289 366 Q289 385 293.5 400.5 Q298 416 306 429.5 Q314 443 324.5 456 Q335 469 348 483 Q373 509 390 532 Q407 555 407 583 Q407 612 388 627.5 Q369 643 337 643 Q302 643 273.5 619.5 Q245 596 238 540 L173 13 Q171 0 158 0 L46 0 Q31 0 33 15 L98 550 Q104 600 124.5 638.5 Q145 677 177 703.5 Q209 730 251 743.5 Q293 757 342 757 Q385 757 421 746.5 Q457 736 482.5 716.5 Q508 697 522 670.5 Q536 644 536 611 Q536 568 514.5 536.5 Q493 505 469 478 Q446 451 432 432.5 Q418 414 418 389 Q418 360 440 342.5 Q462 325 491 306 Q524 283 549 253 Q574 223 574 174 Q574 133 559.5 99.5 Q545 66 518.5 42 Q492 18 454.5 4.5 Q417 -9 372 -9 Z " />
<glyph glyph-name="t" unicode="t" horiz-adv-x="408" d="M237 185 Q236 179 235.5 174 Q235 169 235 165 Q235 135 250 119.5 Q265 104 292 104 Q309 104 323 107.5 Q337 111 349 116 Q352 118 358 118 Q366 118 365 106 L355 25 Q353 14 344 10 Q323 2 295 -4 Q267 -10 234 -10 Q167 -10 130.5 28 Q94 66 94 134 Q94 142 94 150 Q94 158 96 168 L123 382 L57 382 Q42 382 44 397 L52 467 Q54 480 66 480 L135 480 L152 621 Q154 634 167 634 L278 634 Q292 634 291 619 L274 480 L393 480 Q407 480 406 465 L398 395 Q396 382 384 382 L262 382 L237 185 Z " />
<glyph glyph-name="u" unicode="u" horiz-adv-x="560" d="M396 467 Q398 480 411 480 L523 480 Q537 480 536 465 L481 13 Q479 0 466 0 L372 0 Q358 0 358 14 L359 66 Q299 -9 201 -9 Q129 -9 84.5 28.5 Q40 66 40 147 Q40 166 43 187 L77 467 Q79 480 92 480 L204 480 Q218 480 217 465 L183 191 Q180 177 180 166 Q180 128 200 111 Q220 94 253 94 Q300 94 329 126.5 Q358 159 365 210 L396 467 L396 467 Z " />
<glyph glyph-name="uacute" unicode="&#xfa;" horiz-adv-x="589" d="M396 467 Q398 480 411 480 L523 480 Q537 480 536 465 L481 13 Q479 0 466 0 L372 0 Q358 0 358 14 L359 66 Q299 -9 201 -9 Q129 -9 84.5 28.5 Q40 66 40 147 Q40 166 43 187 L77 467 Q79 480 92 480 L204 480 Q218 480 217 465 L183 191 Q180 177 180 166 Q180 128 200 111 Q220 94 253 94 Q300 94 329 126.5 Q358 159 365 210 L396 467 L396 467 Z M223 534 Q212 534 212 543 Q212 548 214 551 L309 718 Q314 728 327 726 L443 710 Q454 708 454 701 Q454 697 449 692 L303 541 Q296 534 286 534 L223 534 L223 534 Z " />
<glyph glyph-name="ucircumflex" unicode="&#xfb;" horiz-adv-x="589" d="M396 467 Q398 480 411 480 L523 480 Q537 480 536 465 L481 13 Q479 0 466 0 L372 0 Q358 0 358 14 L359 66 Q299 -9 201 -9 Q129 -9 84.5 28.5 Q40 66 40 147 Q40 166 43 187 L77 467 Q79 480 92 480 L204 480 Q218 480 217 465 L183 191 Q180 177 180 166 Q180 128 200 111 Q220 94 253 94 Q300 94 329 126.5 Q358 159 365 210 L396 467 L396 467 Z M449 572 Q451 568 451 566 Q451 555 438 555 L381 555 Q371 555 364 565 L307 662 L225 563 Q219 555 208 555 L149 555 Q138 555 138 563 Q138 567 141 572 L267 739 Q272 747 284 747 L349 747 Q361 747 365 737 L449 572 L449 572 Z " />
<glyph glyph-name="udieresis" unicode="&#xfc;" horiz-adv-x="589" d="M396 467 Q398 480 411 480 L523 480 Q537 480 536 465 L481 13 Q479 0 466 0 L372 0 Q358 0 358 14 L359 66 Q299 -9 201 -9 Q129 -9 84.5 28.5 Q40 66 40 147 Q40 166 43 187 L77 467 Q79 480 92 480 L204 480 Q218 480 217 465 L183 191 Q180 177 180 166 Q180 128 200 111 Q220 94 253 94 Q300 94 329 126.5 Q358 159 365 210 L396 467 L396 467 Z M210 605 Q187 605 173.5 621 Q160 637 160 660 Q160 688 178.5 708 Q197 728 225 728 Q248 728 262 712 Q276 696 276 673 Q276 645 256.5 625 Q237 605 210 605 Z M377 605 Q354 605 340.5 621 Q327 637 327 660 Q327 688 345.5 708 Q364 728 392 728 Q415 728 429 712 Q443 696 443 673 Q443 645 423.5 625 Q404 605 377 605 Z " />
<glyph glyph-name="ugrave" unicode="&#xf9;" horiz-adv-x="589" d="M396 467 Q398 480 411 480 L523 480 Q537 480 536 465 L481 13 Q479 0 466 0 L372 0 Q358 0 358 14 L359 66 Q299 -9 201 -9 Q129 -9 84.5 28.5 Q40 66 40 147 Q40 166 43 187 L77 467 Q79 480 92 480 L204 480 Q218 480 217 465 L183 191 Q180 177 180 166 Q180 128 200 111 Q220 94 253 94 Q300 94 329 126.5 Q358 159 365 210 L396 467 L396 467 Z M366 551 Q368 548 368 543 Q368 534 357 534 L294 534 Q284 534 277 541 L131 692 Q126 697 126 701 Q126 708 137 710 L253 726 L257 726 Q267 726 271 718 L366 551 L366 551 Z " />
<glyph glyph-name="v" unicode="v" horiz-adv-x="536" d="M397 470 Q401 480 413 480 L539 480 Q547 480 550 475 Q553 470 549 463 L304 10 Q297 0 288 0 L187 0 Q175 0 172 12 L39 464 Q38 466 38 470 Q38 480 50 480 L178 480 Q191 480 194 468 L262 181 L397 470 L397 470 Z " />
<glyph glyph-name="w" unicode="w" horiz-adv-x="722" d="M608 469 Q613 480 624 480 L733 480 Q750 480 744 464 L541 11 Q537 0 524 0 L436 0 Q422 0 421 13 L371 311 L245 11 Q241 0 228 0 L141 0 Q128 0 125 12 L33 465 L33 468 Q33 480 46 480 L156 480 Q169 480 171 467 L212 182 L328 469 Q332 480 344 480 L441 480 Q454 480 456 467 L505 181 L608 469 L608 469 Z " />
<glyph glyph-name="x" unicode="x" horiz-adv-x="547" d="M547 480 Q558 480 558 472 Q558 467 554 463 L351 243 L504 17 Q507 12 507 9 Q507 0 495 0 L352 0 Q343 0 336 10 L260 150 L142 8 Q136 0 125 0 L-7 0 Q-19 0 -19 8 Q-19 13 -15 17 L198 242 L53 463 Q50 467 50 471 Q50 480 62 480 L197 480 Q209 480 213 470 L286 333 L399 472 Q405 480 416 480 L547 480 L547 480 Z " />
<glyph glyph-name="y" unicode="y" horiz-adv-x="554" d="M431 470 Q435 480 447 480 L557 480 Q568 480 568 471 Q568 466 566 463 L291 -18 Q240 -109 187 -150.5 Q134 -192 68 -192 Q15 -192 -18 -175 Q-29 -169 -27 -157 L-17 -72 Q-16 -56 0 -63 Q18 -71 37.5 -75 Q57 -79 76 -79 Q113 -79 138 -55 Q163 -31 186 12 L38 464 Q37 466 37 469 Q37 480 50 480 L165 480 Q177 480 180 468 L265 161 L431 470 L431 470 Z " />
<glyph glyph-name="yacute" unicode="&#xfd;" horiz-adv-x="555" d="M431 470 Q435 480 447 480 L557 480 Q568 480 568 471 Q568 466 566 463 L291 -18 Q240 -109 187 -150.5 Q134 -192 68 -192 Q15 -192 -18 -175 Q-29 -169 -27 -157 L-17 -72 Q-16 -56 0 -63 Q18 -71 37.5 -75 Q57 -79 76 -79 Q113 -79 138 -55 Q163 -31 186 12 L38 464 Q37 466 37 469 Q37 480 50 480 L165 480 Q177 480 180 468 L265 161 L431 470 L431 470 Z M243 534 Q232 534 232 543 Q232 548 234 551 L329 718 Q334 728 347 726 L463 710 Q474 708 474 701 Q474 697 469 692 L323 541 Q316 534 306 534 L243 534 L243 534 Z " />
<glyph glyph-name="ydieresis" unicode="&#xff;" horiz-adv-x="555" d="M431 470 Q435 480 447 480 L557 480 Q568 480 568 471 Q568 466 566 463 L291 -18 Q240 -109 187 -150.5 Q134 -192 68 -192 Q15 -192 -18 -175 Q-29 -169 -27 -157 L-17 -72 Q-16 -56 0 -63 Q18 -71 37.5 -75 Q57 -79 76 -79 Q113 -79 138 -55 Q163 -31 186 12 L38 464 Q37 466 37 469 Q37 480 50 480 L165 480 Q177 480 180 468 L265 161 L431 470 L431 470 Z M230 605 Q207 605 193.5 621 Q180 637 180 660 Q180 688 198.5 708 Q217 728 245 728 Q268 728 282 712 Q296 696 296 673 Q296 645 276.5 625 Q257 605 230 605 Z M397 605 Q374 605 360.5 621 Q347 637 347 660 Q347 688 365.5 708 Q384 728 412 728 Q435 728 449 712 Q463 696 463 673 Q463 645 443.5 625 Q424 605 397 605 Z " />
<glyph glyph-name="z" unicode="z" horiz-adv-x="469" d="M11 0 Q-5 0 -3 15 L-1 40 Q1 50 6 57 L271 366 L69 366 Q54 366 56 381 L66 467 Q68 480 81 480 L453 480 Q467 480 466 465 L463 438 Q461 429 456 422 L190 114 L411 114 Q425 114 424 99 L414 13 Q412 0 399 0 L11 0 L11 0 Z " />
<glyph glyph-name="zcaron" unicode="&#x17e;" horiz-adv-x="462" d="M11 0 Q-5 0 -3 15 L-1 40 Q1 50 6 57 L271 366 L69 366 Q54 366 56 381 L66 467 Q68 480 81 480 L453 480 Q467 480 466 465 L463 438 Q461 429 456 422 L190 114 L411 114 Q425 114 424 99 L414 13 Q412 0 399 0 L11 0 L11 0 Z M324 713 Q332 721 341 721 L406 721 Q418 721 418 712 Q418 708 415 704 L312 552 Q307 543 295 543 L219 543 Q208 543 202 552 L110 704 Q107 708 107 711 Q107 721 120 721 L188 721 Q200 721 205 713 L261 639 L324 713 L324 713 Z " />
<glyph glyph-name="fi" unicode="&#xfb01;" horiz-adv-x="672" d="M369 644 Q333 644 309 624 Q285 604 279 558 L269 480 L395 480 Q409 480 408 465 L400 395 Q398 382 385 382 L257 382 L187 -169 Q185 -182 172 -182 L61 -182 Q46 -182 48 -167 L117 382 L45 382 Q30 382 32 397 L40 467 Q42 480 55 480 L130 480 L141 568 Q152 662 203.5 709.5 Q255 757 343 757 Q398 757 435 744 Q446 740 445 727 L435 645 Q433 629 423 634 Q400 644 369 644 Z M568 578 Q532 578 512.5 598.5 Q493 619 493 650 Q493 687 519 713.5 Q545 740 587 740 Q623 740 642.5 719.5 Q662 699 662 669 Q662 631 636 604.5 Q610 578 568 578 Z M444 0 Q429 0 431 15 L486 467 Q488 480 501 480 L613 480 Q627 480 626 465 L571 13 Q569 0 556 0 L444 0 Z " />
<glyph glyph-name="fl" unicode="&#xfb02;" horiz-adv-x="692" d="M369 644 Q333 644 309 624 Q285 604 279 558 L269 480 L395 480 Q409 480 408 465 L400 395 Q398 382 385 382 L257 382 L187 -169 Q185 -182 172 -182 L61 -182 Q46 -182 48 -167 L117 382 L45 382 Q30 382 32 397 L40 467 Q42 480 55 480 L130 480 L141 568 Q152 662 203.5 709.5 Q255 757 343 757 Q398 757 435 744 Q446 740 445 727 L435 645 Q433 629 423 634 Q400 644 369 644 Z M548 -10 Q491 -10 459 22 Q427 54 427 111 Q427 118 428.5 133.5 Q430 149 432 164 L507 734 Q509 747 522 747 L633 747 Q647 747 646 732 L572 170 Q571 165 571 160 Q571 155 571 150 Q571 126 582.5 116 Q594 106 614 106 Q631 106 648 112 Q650 113 654 113 Q664 113 663 100 L652 21 Q650 10 644 7 Q625 -1 598.5 -5.5 Q572 -10 548 -10 Z " />
<glyph glyph-name="ordfeminine" unicode="&#xaa;" horiz-adv-x="525" d="M239 361 Q207 361 179.5 372.5 Q152 384 131 405 Q110 426 98 455 Q86 484 86 520 Q86 563 102 599 Q118 635 145 661.5 Q172 688 207 703 Q242 718 280 718 Q318 718 348.5 702 Q379 686 397 654 L402 697 Q404 710 417 710 L502 710 Q516 710 515 695 L476 381 Q474 368 461 368 L376 368 Q361 368 363 383 L367 420 Q342 391 309 376 Q276 361 239 361 Z M309 632 Q288 632 269.5 624 Q251 616 237 601.5 Q223 587 214.5 567.5 Q206 548 206 525 Q206 487 228 467 Q250 447 282 447 Q301 447 319.5 455 Q338 463 352.5 477 Q367 491 376 510.5 Q385 530 385 554 Q385 591 363 611.5 Q341 632 309 632 Z M74 232 Q59 232 61 247 L65 284 Q67 297 79 297 L467 297 Q481 297 480 282 L476 245 Q474 232 462 232 L74 232 Z " />
<glyph glyph-name="ordmasculine" unicode="&#xba;" horiz-adv-x="481" d="M258 381 Q221 381 189.5 393 Q158 405 135.5 426 Q113 447 100 475 Q87 503 87 535 Q87 574 104 608 Q121 642 149.5 666.5 Q178 691 216.5 705.5 Q255 720 298 720 Q335 720 366 708.5 Q397 697 420 676.5 Q443 656 456 628.5 Q469 601 469 569 Q469 530 452 495.5 Q435 461 406 435.5 Q377 410 339 395.5 Q301 381 258 381 Z M268 474 Q286 474 303 480.5 Q320 487 333 499 Q346 511 353.5 527 Q361 543 361 562 Q361 591 340 609.5 Q319 628 288 628 Q270 628 253 621.5 Q236 615 223.5 603.5 Q211 592 203.5 576 Q196 560 196 541 Q196 512 216 493 Q236 474 268 474 Z M81 254 Q66 254 68 269 L72 307 Q74 320 87 320 L414 320 Q428 320 427 305 L423 267 Q421 254 409 254 L81 254 Z " />
<glyph glyph-name="Delta" unicode="&#x394;" horiz-adv-x="585" d="M-19 0 Q-34 0 -32 15 L-27 54 Q-25 65 -22 71 L301 702 Q305 712 317 712 L394 712 Q406 712 409 700 L565 72 Q566 67 566.5 63 Q567 59 566 54 L561 13 Q559 0 546 0 L-19 0 Z M435 104 L333 533 L117 104 L435 104 Z " />
<glyph glyph-name="Omega" unicode="&#x3a9;" horiz-adv-x="738" d="M25 0 Q10 0 12 15 L23 102 Q25 115 38 115 L200 115 L206 164 Q175 177 148.5 198 Q122 219 103 247 Q84 275 73 310 Q62 345 62 385 Q62 458 92.5 519.5 Q123 581 174.5 626 Q226 671 293 696 Q360 721 434 721 Q497 721 550.5 701 Q604 681 643 645.5 Q682 610 704.5 560.5 Q727 511 727 451 Q727 397 710 351.5 Q693 306 663.5 270 Q634 234 595.5 207 Q557 180 514 164 L508 115 L667 115 Q681 115 680 100 L670 13 Q668 0 655 0 L388 0 Q373 0 375 15 L395 161 Q397 172 406 177 Q445 195 477 219.5 Q509 244 532 274.5 Q555 305 568 341.5 Q581 378 581 420 Q581 457 569.5 489 Q558 521 536.5 543.5 Q515 566 484.5 579 Q454 592 417 592 Q371 592 331.5 574.5 Q292 557 262.5 526 Q233 495 216.5 453 Q200 411 200 363 Q200 300 231 252.5 Q262 205 316 177 Q326 171 325 160 L306 13 Q304 0 291 0 L25 0 L25 0 Z " />
<glyph glyph-name="mu" unicode="&#x3bc;" horiz-adv-x="600" d="M422 467 Q424 480 437 480 L549 480 Q563 480 562 465 L504 13 Q502 0 489 0 L398 0 Q385 0 385 14 L387 71 L384 72 Q337 -9 254 -9 Q225 -9 203 -0.5 Q181 8 168 28 L153 -187 Q151 -200 138 -200 L23 -200 Q8 -200 11 -185 L60 83 L100 467 Q102 480 114 480 L225 480 Q239 480 238 465 L203 188 L203 189 Q202 183 201.5 177 Q201 171 201 165 Q201 126 220.5 109.5 Q240 93 275 93 Q323 93 352.5 125.5 Q382 158 390 213 L422 467 L422 467 Z " />
<glyph glyph-name="pi" unicode="&#x3c0;" horiz-adv-x="610" d="M493 164 Q492 159 492 155.5 Q492 152 492 148 Q492 125 503 115.5 Q514 106 534 106 Q551 106 568 112 Q570 113 574 113 Q584 113 583 100 L572 21 Q570 9 561 5 Q544 -2 518.5 -6 Q493 -10 470 -10 Q414 -10 383.5 19 Q353 48 353 110 Q353 127 356 147 L386 378 L261 378 L214 13 Q212 0 199 0 L92 0 Q77 0 79 15 L126 378 L58 378 Q43 378 45 393 L54 467 Q56 480 69 480 L601 480 Q615 480 614 465 L605 391 Q603 378 590 378 L521 378 L493 164 Z " />
<glyph glyph-name="zero" unicode="0" horiz-adv-x="673" d="M306 -9 Q252 -9 206.5 10.5 Q161 30 128 68.5 Q95 107 76.5 163 Q58 219 58 292 Q58 390 86 469 Q114 548 161 604 Q208 660 269 690 Q330 720 396 720 Q451 720 496.5 700 Q542 680 574.5 641.5 Q607 603 625 547 Q643 491 643 420 Q643 322 615 242.5 Q587 163 540.5 107 Q494 51 433 21 Q372 -9 306 -9 Z M321 119 Q351 119 376.5 130.5 Q402 142 421.5 162 Q441 182 455 209.5 Q469 237 477 269 Q491 308 496.5 354.5 Q502 401 500 446 Q494 514 464.5 553 Q435 592 381 592 Q352 592 328 580.5 Q304 569 284 548.5 Q264 528 249 500.5 Q234 473 225 441 Q212 407 205.5 369.5 Q199 332 199 297 Q199 213 231 166 Q263 119 321 119 Z " />
<glyph glyph-name="one" unicode="1" horiz-adv-x="467" d="M327 706 Q335 710 344 710 L379 710 Q393 710 392 695 L303 13 Q301 0 288 0 L176 0 Q161 0 163 15 L232 545 L92 486 Q86 484 84 484 Q76 484 77 497 L89 590 Q91 601 100 605 L327 706 L327 706 Z " />
<glyph glyph-name="two" unicode="2" horiz-adv-x="575" d="M252 119 L492 119 Q506 119 505 104 L493 13 Q491 0 478 0 L19 0 Q7 0 7 8 Q7 13 11 17 L260 294 Q288 324 310.5 350.5 Q333 377 349.5 401.5 Q366 426 375 450 Q384 474 384 499 Q384 544 350 571.5 Q316 599 257 599 Q222 599 189.5 590 Q157 581 126 566 Q123 564 118 564 Q109 564 111 576 L122 666 Q124 678 133 682 Q171 700 217.5 710 Q264 720 312 720 Q413 720 473 672.5 Q533 625 533 538 Q533 503 523 470 Q513 437 494.5 404.5 Q476 372 450.5 339.5 Q425 307 394 273 L252 119 Z " />
<glyph glyph-name="three" unicode="3" horiz-adv-x="559" d="M354 383 Q435 366 473 325 Q511 284 511 227 Q511 174 486.5 130 Q462 86 420 55 Q378 24 322.5 7 Q267 -10 206 -10 Q154 -10 109.5 -2.5 Q65 5 35 17 Q25 21 26 34 L37 125 Q39 141 54 134 Q82 123 114 116.5 Q146 110 188 110 Q225 110 257 118.5 Q289 127 312 142 Q335 157 348 178 Q361 199 361 224 Q361 263 319 287 Q277 311 193 311 L164 311 Q149 311 151 326 L161 412 Q163 425 176 425 L200 425 Q247 425 281 434 Q315 443 336.5 457.5 Q358 472 368.5 490.5 Q379 509 379 529 Q379 561 346 581 Q313 601 256 601 Q218 601 187.5 592 Q157 583 128 569 Q122 567 121 567 Q111 567 113 580 L124 668 Q126 680 135 684 Q167 699 209.5 709.5 Q252 720 297 720 Q351 720 393 708.5 Q435 697 464 676 Q493 655 508 626 Q523 597 523 563 Q523 506 483 457 Q443 408 354 383 Z " />
<glyph glyph-name="four" unicode="4" horiz-adv-x="596" d="M558 226 Q572 226 571 211 L560 126 Q558 113 545 113 L475 113 L462 13 Q460 0 447 0 L337 0 Q322 0 324 15 L337 113 L32 113 Q17 113 19 128 L30 211 Q31 218 37 227 L415 702 Q421 710 433 710 L541 710 Q555 710 554 695 L491 226 L558 226 Z M401 531 Q383 499 368.5 477 Q354 455 335 430 L165 226 L352 226 L380 418 Q383 440 388 468 Q393 496 402 531 L401 531 Z " />
<glyph glyph-name="five" unicode="5" horiz-adv-x="592" d="M548 608 Q546 595 533 595 L285 595 L244 453 Q271 456 301 456 Q352 456 395 443.5 Q438 431 469.5 407 Q501 383 518.5 347 Q536 311 536 264 Q536 201 507.5 150 Q479 99 431.5 63.5 Q384 28 323 9 Q262 -10 197 -10 Q152 -10 113.5 -2.5 Q75 5 47 18 Q37 22 39 35 L50 124 Q52 140 67 133 Q95 122 127 115.5 Q159 109 191 109 Q234 109 269.5 119.5 Q305 130 331 148.5 Q357 167 371.5 192.5 Q386 218 386 248 Q386 296 346.5 325 Q307 354 238 354 Q209 354 175 348 Q141 342 109 329 Q106 328 102 328 Q92 328 95 342 L199 698 Q202 710 214 710 L546 710 Q560 710 559 695 L548 608 L548 608 Z " />
<glyph glyph-name="six" unicode="6" horiz-adv-x="581" d="M363 449 Q405 449 440 434.5 Q475 420 500 394.5 Q525 369 539 333.5 Q553 298 553 256 Q553 198 529.5 149.5 Q506 101 465.5 65.5 Q425 30 372 10 Q319 -10 261 -10 Q210 -10 169 6 Q128 22 98.5 49.5 Q69 77 53.5 115.5 Q38 154 38 199 Q38 262 65 322.5 Q92 383 155 452 L385 702 Q392 710 402 710 L519 710 Q530 710 530 702 Q530 697 526 693 L374 536 Q364 524 350.5 509 Q337 494 322 477.5 Q307 461 293.5 446 Q280 431 270 419 Q292 435 314.5 442 Q337 449 363 449 Z M280 111 Q308 111 334 121 Q360 131 380.5 149 Q401 167 413 191.5 Q425 216 425 245 Q425 293 393.5 321.5 Q362 350 311 350 Q282 350 256 339.5 Q230 329 210 311 Q190 293 178.5 268 Q167 243 167 214 Q167 169 198 140 Q229 111 280 111 Z " />
<glyph glyph-name="seven" unicode="7" horiz-adv-x="521" d="M97 697 Q99 710 112 710 L576 710 Q584 710 587.5 705 Q591 700 586 693 L166 9 Q160 0 149 0 L35 0 Q23 0 23 9 Q23 12 26 17 L383 588 L99 588 Q84 588 86 603 L97 697 L97 697 Z " />
<glyph glyph-name="eight" unicode="8" horiz-adv-x="635" d="M284 -9 Q236 -9 193 3 Q150 15 117.5 39 Q85 63 66.5 98 Q48 133 48 179 Q48 216 61 248 Q74 280 96 305 Q118 330 147.5 348 Q177 366 210 377 Q166 397 144 433 Q122 469 122 514 Q122 561 143 599 Q164 637 199 664 Q234 691 281 705.5 Q328 720 380 720 Q426 720 464.5 708 Q503 696 531 674.5 Q559 653 574.5 622 Q590 591 590 553 Q590 494 555.5 448.5 Q521 403 460 377 Q511 360 543.5 320 Q576 280 576 223 Q576 167 551.5 123.5 Q527 80 486.5 50.5 Q446 21 393.5 6 Q341 -9 284 -9 Z M341 421 Q395 421 429 452 Q463 483 463 531 Q463 569 436 591.5 Q409 614 366 614 Q342 614 320 606.5 Q298 599 281.5 585 Q265 571 255 551 Q245 531 245 507 Q245 469 270.5 445 Q296 421 341 421 Z M298 97 Q327 97 353 106.5 Q379 116 398.5 132.5 Q418 149 429.5 172 Q441 195 441 223 Q441 267 408.5 293.5 Q376 320 328 320 Q300 320 274 311.5 Q248 303 228 287 Q208 271 196 248.5 Q184 226 184 198 Q184 152 215.5 124.5 Q247 97 298 97 Z " />
<glyph glyph-name="nine" unicode="9" horiz-adv-x="581" d="M348 720 Q399 720 440 704 Q481 688 510.5 660.5 Q540 633 555.5 594.5 Q571 556 571 511 Q571 448 544 387.5 Q517 327 454 258 L224 8 Q217 0 207 0 L90 0 Q79 0 79 8 Q79 13 83 17 L235 174 Q245 186 258.5 201 Q272 216 287 232.5 Q302 249 315.5 264 Q329 279 339 291 Q317 275 294.5 268 Q272 261 246 261 Q204 261 169 275.5 Q134 290 109 315.5 Q84 341 70 376.5 Q56 412 56 454 Q56 512 79.5 560.5 Q103 609 143.5 644.5 Q184 680 236.5 700 Q289 720 348 720 Z M298 360 Q327 360 353 370.5 Q379 381 399 399 Q419 417 430.5 442 Q442 467 442 496 Q442 541 411 570 Q380 599 329 599 Q301 599 275 589 Q249 579 228.5 561 Q208 543 196 518.5 Q184 494 184 465 Q184 417 215.5 388.5 Q247 360 298 360 Z " />
<glyph glyph-name="onesuperior" unicode="&#xb9;" horiz-adv-x="329" d="M252 841 Q257 843 260.5 843.5 Q264 844 269 844 L297 844 Q311 844 310 829 L259 440 Q257 427 244 427 L183 427 Q168 427 170 442 L210 744 L120 711 Q118 710 114 710 Q103 710 105 723 L111 774 Q113 785 122 789 L252 841 L252 841 Z " />
<glyph glyph-name="twosuperior" unicode="&#xb2;" horiz-adv-x="378" d="M206 502 L348 502 Q362 502 361 487 L355 440 Q353 427 340 427 L72 427 Q60 427 60 435 Q60 440 64 444 L209 596 Q241 631 263.5 658.5 Q286 686 286 718 Q286 743 266 759 Q246 775 209 775 Q168 775 131 758 Q129 757 124 757 Q115 757 116 770 L122 815 Q124 827 134 830 Q157 840 185 845 Q213 850 241 850 Q304 850 342 821.5 Q380 793 380 744 Q380 701 356 664.5 Q332 628 293 588 L206 502 Z " />
<glyph glyph-name="threesuperior" unicode="&#xb3;" horiz-adv-x="360" d="M259 653 Q310 643 333 619 Q356 595 356 560 Q356 528 341 502.5 Q326 477 299.5 459 Q273 441 238 431 Q203 421 164 421 Q134 421 109 425 Q84 429 65 435 Q55 439 56 452 L62 495 Q64 510 79 505 Q96 500 114.5 497 Q133 494 157 494 Q203 494 232 512 Q261 530 261 558 Q261 611 159 611 L146 611 Q131 611 133 626 L137 664 Q139 677 152 677 L162 677 Q219 677 244.5 695 Q270 713 270 736 Q270 757 250 770 Q230 783 195 783 Q174 783 156.5 779.5 Q139 776 123 770 Q120 769 116 769 Q105 769 108 782 L113 822 Q115 833 126 837 Q146 843 170.5 846.5 Q195 850 221 850 Q288 850 324.5 825 Q361 800 361 760 Q361 725 337 696 Q313 667 259 653 Z " />
<glyph glyph-name="fraction" unicode="&#x2044;" horiz-adv-x="116" d="M-232 -5 Q-238 -1 -238 6 Q-238 11 -234 15 L357 723 Q362 728 368 728 Q372 728 377 725 L392 714 Q399 710 399 704 Q399 699 395 695 L-196 -15 Q-201 -21 -206 -21 Q-212 -21 -216 -17 L-232 -5 L-232 -5 Z " />
<glyph glyph-name="onehalf" unicode="&#xbd;" horiz-adv-x="845" d="M236 711 Q241 713 244.5 713.5 Q248 714 253 714 L281 714 Q295 714 294 699 L243 310 Q241 297 228 297 L167 297 Q152 297 154 312 L194 614 L104 581 Q102 580 98 580 Q87 580 89 593 L95 644 Q97 655 106 659 L236 711 L236 711 Z M110 -5 Q104 -1 104 6 Q104 11 108 15 L699 723 Q704 728 710 728 Q714 728 719 725 L734 714 Q741 710 741 704 Q741 699 737 695 L146 -15 Q141 -21 136 -21 Q130 -21 126 -17 L110 -5 L110 -5 Z M627 75 L769 75 Q783 75 782 60 L776 13 Q774 0 761 0 L493 0 Q481 0 481 8 Q481 13 485 17 L630 169 Q662 204 684.5 231.5 Q707 259 707 291 Q707 316 687 332 Q667 348 630 348 Q589 348 552 331 Q550 330 545 330 Q536 330 537 343 L543 388 Q545 400 555 403 Q578 413 606 418 Q634 423 662 423 Q725 423 763 394.5 Q801 366 801 317 Q801 274 777 237.5 Q753 201 714 161 L627 75 Z " />
<glyph glyph-name="onequarter" unicode="&#xbc;" horiz-adv-x="771" d="M236 711 Q241 713 244.5 713.5 Q248 714 253 714 L281 714 Q295 714 294 699 L243 310 Q241 297 228 297 L167 297 Q152 297 154 312 L194 614 L104 581 Q102 580 98 580 Q87 580 89 593 L95 644 Q97 655 106 659 L236 711 L236 711 Z M110 -5 Q104 -1 104 6 Q104 11 108 15 L699 723 Q704 728 710 728 Q714 728 719 725 L734 714 Q741 710 741 704 Q741 699 737 695 L146 -15 Q141 -21 136 -21 Q130 -21 126 -17 L110 -5 L110 -5 Z M728 131 Q742 131 741 116 L737 77 Q735 64 722 64 L681 64 L674 13 Q672 0 659 0 L606 0 Q591 0 593 15 L599 64 L420 64 Q405 64 407 79 L413 123 Q415 132 420 139 L640 409 Q646 417 657 417 L713 417 Q727 417 726 402 L690 131 L728 131 Z M610 131 L634 302 L487 131 L610 131 Z " />
<glyph glyph-name="threequarters" unicode="&#xbe;" horiz-adv-x="789" d="M243 523 Q294 513 317 489 Q340 465 340 430 Q340 398 325 372.5 Q310 347 283.5 329 Q257 311 222 301 Q187 291 148 291 Q118 291 93 295 Q68 299 49 305 Q39 309 40 322 L46 365 Q48 380 63 375 Q80 370 98.5 367 Q117 364 141 364 Q187 364 216 382 Q245 400 245 428 Q245 481 143 481 L130 481 Q115 481 117 496 L121 534 Q123 547 136 547 L146 547 Q203 547 228.5 565 Q254 583 254 606 Q254 627 234 640 Q214 653 179 653 Q158 653 140.5 649.5 Q123 646 107 640 Q104 639 100 639 Q89 639 92 652 L97 692 Q99 703 110 707 Q130 713 154.5 716.5 Q179 720 205 720 Q272 720 308.5 695 Q345 670 345 630 Q345 595 321 566 Q297 537 243 523 Z M128 -5 Q122 -1 122 6 Q122 11 126 15 L717 723 Q722 728 728 728 Q732 728 737 725 L752 714 Q759 710 759 704 Q759 699 755 695 L164 -15 Q159 -21 154 -21 Q148 -21 144 -17 L128 -5 L128 -5 Z M746 131 Q760 131 759 116 L755 77 Q753 64 740 64 L699 64 L692 13 Q690 0 677 0 L624 0 Q609 0 611 15 L617 64 L438 64 Q423 64 425 79 L431 123 Q433 132 438 139 L658 409 Q664 417 675 417 L731 417 Q745 417 744 402 L708 131 L746 131 Z M628 131 L652 302 L505 131 L628 131 Z " />
<glyph glyph-name="oneeighth" unicode="&#x215b;" horiz-adv-x="825" d="M236 711 Q241 713 244.5 713.5 Q248 714 253 714 L281 714 Q295 714 294 699 L243 310 Q241 297 228 297 L167 297 Q152 297 154 312 L194 614 L104 581 Q102 580 98 580 Q87 580 89 593 L95 644 Q97 655 106 659 L236 711 L236 711 Z M110 -5 Q104 -1 104 6 Q104 11 108 15 L699 723 Q704 728 710 728 Q714 728 719 725 L734 714 Q741 710 741 704 Q741 699 737 695 L146 -15 Q141 -21 136 -21 Q130 -21 126 -17 L110 -5 L110 -5 Z M611 -5 Q582 -5 556.5 2 Q531 9 512 23 Q493 37 482 57.5 Q471 78 471 105 Q471 150 499.5 179.5 Q528 209 568 222 Q515 247 515 303 Q515 330 527 352.5 Q539 375 560 390.5 Q581 406 609 414.5 Q637 423 668 423 Q722 423 757.5 397 Q793 371 793 326 Q793 291 772 264 Q751 237 715 222 Q745 211 764.5 188 Q784 165 784 131 Q784 98 769.5 73 Q755 48 731 30.5 Q707 13 676 4 Q645 -5 611 -5 Z M645 247 Q676 247 696.5 265 Q717 283 717 312 Q717 335 701 348 Q685 361 660 361 Q631 361 609.5 344 Q588 327 588 298 Q588 275 603 261 Q618 247 645 247 Z M620 59 Q655 59 679.5 79 Q704 99 704 131 Q704 157 685 172.5 Q666 188 637 188 Q604 188 578.5 168.5 Q553 149 553 117 Q553 90 571.5 74.5 Q590 59 620 59 Z " />
<glyph glyph-name="threeeighths" unicode="&#x215c;" horiz-adv-x="843" d="M243 523 Q294 513 317 489 Q340 465 340 430 Q340 398 325 372.5 Q310 347 283.5 329 Q257 311 222 301 Q187 291 148 291 Q118 291 93 295 Q68 299 49 305 Q39 309 40 322 L46 365 Q48 380 63 375 Q80 370 98.5 367 Q117 364 141 364 Q187 364 216 382 Q245 400 245 428 Q245 481 143 481 L130 481 Q115 481 117 496 L121 534 Q123 547 136 547 L146 547 Q203 547 228.5 565 Q254 583 254 606 Q254 627 234 640 Q214 653 179 653 Q158 653 140.5 649.5 Q123 646 107 640 Q104 639 100 639 Q89 639 92 652 L97 692 Q99 703 110 707 Q130 713 154.5 716.5 Q179 720 205 720 Q272 720 308.5 695 Q345 670 345 630 Q345 595 321 566 Q297 537 243 523 Z M128 -5 Q122 -1 122 6 Q122 11 126 15 L717 723 Q722 728 728 728 Q732 728 737 725 L752 714 Q759 710 759 704 Q759 699 755 695 L164 -15 Q159 -21 154 -21 Q148 -21 144 -17 L128 -5 L128 -5 Z M629 -5 Q600 -5 574.5 2 Q549 9 530 23 Q511 37 500 57.5 Q489 78 489 105 Q489 150 517.5 179.5 Q546 209 586 222 Q533 247 533 303 Q533 330 545 352.5 Q557 375 578 390.5 Q599 406 627 414.5 Q655 423 686 423 Q740 423 775.5 397 Q811 371 811 326 Q811 291 790 264 Q769 237 733 222 Q763 211 782.5 188 Q802 165 802 131 Q802 98 787.5 73 Q773 48 749 30.5 Q725 13 694 4 Q663 -5 629 -5 Z M663 247 Q694 247 714.5 265 Q735 283 735 312 Q735 335 719 348 Q703 361 678 361 Q649 361 627.5 344 Q606 327 606 298 Q606 275 621 261 Q636 247 663 247 Z M638 59 Q673 59 697.5 79 Q722 99 722 131 Q722 157 703 172.5 Q684 188 655 188 Q622 188 596.5 168.5 Q571 149 571 117 Q571 90 589.5 74.5 Q608 59 638 59 Z " />
<glyph glyph-name="fiveeighths" unicode="&#x215d;" horiz-adv-x="850" d="M359 655 Q357 642 344 642 L205 642 L183 565 Q190 566 197 566 Q204 566 212 566 Q272 566 312 537.5 Q352 509 352 452 Q352 415 335 385 Q318 355 290 334 Q262 313 226.5 302 Q191 291 154 291 Q126 291 104 295 Q82 299 66 306 Q55 310 57 323 L63 367 Q65 383 80 377 Q111 366 146 366 Q196 366 227 388 Q258 410 258 443 Q258 469 234.5 485 Q211 501 171 501 Q140 501 104 490 Q102 489 98 489 Q88 489 91 503 L146 702 Q149 714 161 714 L351 714 Q365 714 364 699 L359 655 L359 655 Z M135 -5 Q129 -1 129 6 Q129 11 133 15 L724 723 Q729 728 735 728 Q739 728 744 725 L759 714 Q766 710 766 704 Q766 699 762 695 L171 -15 Q166 -21 161 -21 Q155 -21 151 -17 L135 -5 L135 -5 Z M636 -5 Q607 -5 581.5 2 Q556 9 537 23 Q518 37 507 57.5 Q496 78 496 105 Q496 150 524.5 179.5 Q553 209 593 222 Q540 247 540 303 Q540 330 552 352.5 Q564 375 585 390.5 Q606 406 634 414.5 Q662 423 693 423 Q747 423 782.5 397 Q818 371 818 326 Q818 291 797 264 Q776 237 740 222 Q770 211 789.5 188 Q809 165 809 131 Q809 98 794.5 73 Q780 48 756 30.5 Q732 13 701 4 Q670 -5 636 -5 Z M670 247 Q701 247 721.5 265 Q742 283 742 312 Q742 335 726 348 Q710 361 685 361 Q656 361 634.5 344 Q613 327 613 298 Q613 275 628 261 Q643 247 670 247 Z M645 59 Q680 59 704.5 79 Q729 99 729 131 Q729 157 710 172.5 Q691 188 662 188 Q629 188 603.5 168.5 Q578 149 578 117 Q578 90 596.5 74.5 Q615 59 645 59 Z " />
<glyph glyph-name="seveneighths" unicode="&#x215e;" horiz-adv-x="797" d="M102 701 Q104 714 117 714 L389 714 Q401 714 401 705 Q401 701 398 697 L153 306 Q148 297 136 297 L77 297 Q65 297 65 306 Q65 309 68 314 L276 638 L109 638 Q94 638 96 653 L102 701 L102 701 Z M83 -5 Q77 -1 77 6 Q77 11 81 15 L672 723 Q677 728 683 728 Q687 728 692 725 L707 714 Q714 710 714 704 Q714 699 710 695 L119 -15 Q114 -21 109 -21 Q103 -21 99 -17 L83 -5 L83 -5 Z M584 -5 Q555 -5 529.5 2 Q504 9 485 23 Q466 37 455 57.5 Q444 78 444 105 Q444 150 472.5 179.5 Q501 209 541 222 Q488 247 488 303 Q488 330 500 352.5 Q512 375 533 390.5 Q554 406 582 414.5 Q610 423 641 423 Q695 423 730.5 397 Q766 371 766 326 Q766 291 745 264 Q724 237 688 222 Q718 211 737.5 188 Q757 165 757 131 Q757 98 742.5 73 Q728 48 704 30.5 Q680 13 649 4 Q618 -5 584 -5 Z M618 247 Q649 247 669.5 265 Q690 283 690 312 Q690 335 674 348 Q658 361 633 361 Q604 361 582.5 344 Q561 327 561 298 Q561 275 576 261 Q591 247 618 247 Z M593 59 Q628 59 652.5 79 Q677 99 677 131 Q677 157 658 172.5 Q639 188 610 188 Q577 188 551.5 168.5 Q526 149 526 117 Q526 90 544.5 74.5 Q563 59 593 59 Z " />
<glyph glyph-name="asterisk" unicode="&#x2a;" horiz-adv-x="427" d="M160 344 Q157 338 151 338 Q147 338 142 342 L88 388 Q83 393 83 397 Q83 401 88 406 L134 450 L204 505 L124 512 L65 524 Q52 527 58 540 L91 617 Q96 629 109 623 L160 597 L225 554 L217 637 L218 697 Q218 710 232 710 L306 710 Q319 710 316 696 L302 637 L273 553 L351 597 L408 624 Q410 625 414 625 Q422 625 423 615 L437 539 L437 536 Q437 526 425 523 L367 512 L283 505 L339 449 L373 406 Q376 401 376 398 Q376 392 370 388 L302 340 Q297 337 294 337 Q289 337 286 345 L264 398 L240 476 L196 397 L160 344 L160 344 Z " />
<glyph glyph-name="backslash" unicode="&#x5c;" horiz-adv-x="587" d="M552 -107 Q554 -111 554 -113 Q554 -123 542 -123 L478 -123 Q465 -123 461 -113 L56 763 Q54 767 54 769 Q54 779 66 779 L130 779 Q143 779 147 769 L552 -107 L552 -107 Z " />
<glyph glyph-name="periodcentered" unicode="&#xb7;" horiz-adv-x="314" d="M154 220 Q122 220 103.5 241.5 Q85 263 85 295 Q85 333 110.5 360 Q136 387 174 387 Q205 387 224 365.5 Q243 344 243 312 Q243 293 236 276.5 Q229 260 217 247.5 Q205 235 188.5 227.5 Q172 220 154 220 Z " />
<glyph glyph-name="bullet" unicode="&#x2022;" horiz-adv-x="393" d="M193 216 Q145 216 117.5 248.5 Q90 281 90 329 Q90 357 100 382 Q110 407 128 426 Q146 445 170.5 456 Q195 467 223 467 Q270 467 298.5 434.5 Q327 402 327 354 Q327 326 316.5 301 Q306 276 288 257 Q270 238 245.5 227 Q221 216 193 216 Z " />
<glyph glyph-name="colon" unicode="&#x3a;" horiz-adv-x="306" d="M162 293 Q132 293 114 314 Q96 335 96 365 Q96 383 102.5 399 Q109 415 120.5 427 Q132 439 147.5 446 Q163 453 181 453 Q210 453 228.5 432 Q247 411 247 381 Q247 363 240.5 347 Q234 331 222.5 319 Q211 307 195.5 300 Q180 293 162 293 Z M121 -9 Q91 -9 73 12 Q55 33 55 63 Q55 81 61.5 97 Q68 113 79.5 125 Q91 137 106.5 144 Q122 151 140 151 Q169 151 187.5 130 Q206 109 206 79 Q206 61 199.5 45 Q193 29 181.5 17 Q170 5 154.5 -2 Q139 -9 121 -9 Z " />
<glyph glyph-name="comma" unicode="&#x2c;" horiz-adv-x="320" d="M146 159 Q178 159 199.5 137.5 Q221 116 221 82 Q221 56 208 31.5 Q195 7 178 -22 L96 -160 Q90 -169 79 -169 L60 -169 Q52 -169 49 -164.5 Q46 -160 49 -153 L109 -5 Q86 2 71.5 20.5 Q57 39 57 65 Q57 85 64.5 102.5 Q72 120 84.5 132.5 Q97 145 113 152 Q129 159 146 159 Z " />
<glyph glyph-name="ellipsis" unicode="&#x2026;" horiz-adv-x="794" d="M126 -8 Q94 -8 75.5 13.5 Q57 35 57 67 Q57 105 82.5 132 Q108 159 146 159 Q177 159 196 137.5 Q215 116 215 84 Q215 65 208 48.5 Q201 32 189 19.5 Q177 7 160.5 -0.5 Q144 -8 126 -8 Z M366 -8 Q334 -8 315.5 13.5 Q297 35 297 67 Q297 105 322.5 132 Q348 159 386 159 Q417 159 436 137.5 Q455 116 455 84 Q455 65 448 48.5 Q441 32 429 19.5 Q417 7 400.5 -0.5 Q384 -8 366 -8 Z M606 -8 Q574 -8 555.5 13.5 Q537 35 537 67 Q537 105 562.5 132 Q588 159 626 159 Q657 159 676 137.5 Q695 116 695 84 Q695 65 688 48.5 Q681 32 669 19.5 Q657 7 640.5 -0.5 Q624 -8 606 -8 Z " />
<glyph glyph-name="exclam" unicode="&#x21;" horiz-adv-x="332" d="M126 225 Q110 225 112 240 L147 697 Q149 710 161 710 L284 710 Q299 710 296 695 L210 238 Q207 225 195 225 L126 225 Z M130 -8 Q98 -8 79.5 13.5 Q61 35 61 67 Q61 105 86.5 132 Q112 159 150 159 Q181 159 200 137.5 Q219 116 219 84 Q219 65 212 48.5 Q205 32 193 19.5 Q181 7 164.5 -0.5 Q148 -8 130 -8 Z " />
<glyph glyph-name="exclamdown" unicode="&#xa1;" horiz-adv-x="333" d="M231 720 Q263 720 281.5 698.5 Q300 677 300 645 Q300 607 274.5 580 Q249 553 211 553 Q180 553 161 574.5 Q142 596 142 628 Q142 647 149 663.5 Q156 680 168 692.5 Q180 705 196.5 712.5 Q213 720 231 720 Z M235 487 Q250 487 249 472 L214 15 Q212 2 200 2 L77 2 Q62 2 65 17 L151 474 Q154 487 166 487 L235 487 Z " />
<glyph glyph-name="numbersign" unicode="&#x23;" horiz-adv-x="642" d="M632 458 Q632 444 618 444 L505 444 L473 276 L592 276 Q606 276 606 262 L606 218 Q606 204 592 204 L460 204 L423 13 Q420 0 408 0 L353 0 Q337 0 340 15 L376 204 L228 204 L191 13 Q188 0 176 0 L122 0 Q106 0 109 15 L145 204 L52 204 Q38 204 38 218 L38 262 Q38 276 52 276 L158 276 L190 444 L78 444 Q64 444 64 458 L64 502 Q64 516 78 516 L203 516 L238 697 Q241 710 253 710 L308 710 Q324 710 321 695 L287 516 L434 516 L469 697 Q472 710 484 710 L539 710 Q555 710 552 695 L518 516 L618 516 Q632 516 632 502 L632 458 Z M421 444 L273 444 L241 276 L389 276 L421 444 Z " />
<glyph glyph-name="period" unicode="&#x2e;" horiz-adv-x="314" d="M126 -8 Q94 -8 75.5 13.5 Q57 35 57 67 Q57 105 82.5 132 Q108 159 146 159 Q177 159 196 137.5 Q215 116 215 84 Q215 65 208 48.5 Q201 32 189 19.5 Q177 7 160.5 -0.5 Q144 -8 126 -8 Z " />
<glyph glyph-name="question" unicode="&#x3f;" horiz-adv-x="489" d="M161 202 Q147 202 148 216 L155 338 Q155 349 167 354 Q206 370 239 386 Q272 402 295 421.5 Q318 441 331 464 Q344 487 344 516 Q344 561 308.5 585.5 Q273 610 216 610 Q182 610 151.5 603 Q121 596 94 585 Q92 584 88 584 Q77 584 79 597 L89 674 Q91 685 100 690 Q133 704 175.5 712 Q218 720 263 720 Q369 720 427.5 672 Q486 624 486 545 Q486 495 465.5 456 Q445 417 413 387.5 Q381 358 341.5 337 Q302 316 263 303 L245 214 Q242 202 229 202 L161 202 Z M168 -9 Q136 -9 116.5 12 Q97 33 97 62 Q97 80 104 95.5 Q111 111 123.5 123 Q136 135 152.5 142 Q169 149 188 149 Q220 149 239.5 128.5 Q259 108 259 78 Q259 60 252 44.5 Q245 29 232.5 17 Q220 5 203.5 -2 Q187 -9 168 -9 Z " />
<glyph glyph-name="questiondown" unicode="&#xbf;" horiz-adv-x="489" d="M350 721 Q382 721 401.5 700 Q421 679 421 650 Q421 632 414 616.5 Q407 601 394.5 589 Q382 577 365.5 570 Q349 563 330 563 Q298 563 278.5 583.5 Q259 604 259 634 Q259 652 266 667.5 Q273 683 285.5 695 Q298 707 314.5 714 Q331 721 350 721 Z M357 510 Q371 510 370 496 L363 374 Q363 362 351 358 Q312 342 279 326 Q246 310 223 290.5 Q200 271 187 248 Q174 225 174 196 Q174 151 209.5 126.5 Q245 102 302 102 Q336 102 366.5 109 Q397 116 424 127 Q426 128 430 128 Q441 128 439 115 L429 38 Q427 27 418 22 Q385 8 342.5 0 Q300 -8 255 -8 Q149 -8 90.5 40 Q32 88 32 167 Q32 217 52.5 256 Q73 295 105 324.5 Q137 354 176.5 375 Q216 396 255 409 L273 498 Q276 510 289 510 L357 510 Z " />
<glyph glyph-name="quotedbl" unicode="&#x22;" horiz-adv-x="501" d="M140 433 Q127 433 127 447 L136 696 Q136 710 150 710 L257 710 Q273 710 270 695 L219 445 Q216 433 203 433 L140 433 Z M348 433 Q335 433 335 447 L344 696 Q344 710 358 710 L465 710 Q481 710 478 695 L427 445 Q424 433 411 433 L348 433 Z " />
<glyph glyph-name="quotesingle" unicode="&#x27;" horiz-adv-x="293" d="M140 433 Q127 433 127 447 L136 696 Q136 710 150 710 L257 710 Q273 710 270 695 L219 445 Q216 433 203 433 L140 433 L140 433 Z " />
<glyph glyph-name="semicolon" unicode="&#x3b;" horiz-adv-x="309" d="M182 453 Q211 453 229.5 432 Q248 411 248 381 Q248 363 241.5 347 Q235 331 223.5 319 Q212 307 196.5 300 Q181 293 163 293 Q133 293 115 314 Q97 335 97 365 Q97 383 103.5 399 Q110 415 121.5 427 Q133 439 148.5 446 Q164 453 182 453 Z M139 141 Q170 141 190 120.5 Q210 100 210 68 Q210 43 198 20 Q186 -3 170 -31 L92 -161 Q86 -170 75 -170 L58 -170 Q50 -170 47 -165.5 Q44 -161 47 -154 L103 -15 Q81 -9 68 9.5 Q55 28 55 52 Q55 71 62 87.5 Q69 104 81 116 Q93 128 108 134.5 Q123 141 139 141 Z " />
<glyph glyph-name="slash" unicode="&#x2f;" horiz-adv-x="366" d="M-45 -123 Q-62 -123 -55 -107 L350 769 Q354 779 367 779 L431 779 Q448 779 441 763 L36 -113 Q32 -123 19 -123 L-45 -123 L-45 -123 Z " />
<glyph glyph-name="underscore" unicode="&#x5f;" horiz-adv-x="533" d="M31 -169 Q16 -169 18 -154 L26 -80 Q28 -67 40 -67 L416 -67 Q430 -67 429 -82 L421 -156 Q419 -169 406 -169 L31 -169 L31 -169 Z " />
<glyph glyph-name="braceleft" unicode="&#x7b;" horiz-adv-x="283" d="M233 718 Q254 718 269 715.5 Q284 713 295 709 Q305 705 304 692 L300 658 Q298 646 289 646 Q281 646 273.5 647.5 Q266 649 258 649 Q226 649 207 631 Q188 613 188 584 Q188 564 195 540 Q202 516 210 490 Q218 464 225 437.5 Q232 411 232 388 Q232 350 204.5 316.5 Q177 283 123 275 Q166 269 185.5 242.5 Q205 216 205 185 Q205 157 189 125.5 Q173 94 154 62.5 Q135 31 119 2 Q103 -27 103 -49 Q103 -71 117.5 -84.5 Q132 -98 159 -98 Q166 -98 172 -97.5 Q178 -97 185 -96 L188 -96 Q200 -96 199 -110 L195 -142 Q193 -153 183 -157 Q171 -161 155 -164 Q139 -167 116 -167 Q86 -167 65 -159 Q44 -151 30.5 -137.5 Q17 -124 10.5 -106.5 Q4 -89 4 -70 Q4 -39 20 -5 Q36 29 55 62 Q74 95 90 125 Q106 155 106 178 Q106 199 95 214 Q84 229 56 233 Q42 234 43 248 L49 303 Q51 316 64 317 Q104 321 119 343 Q134 365 134 390 Q134 409 127.5 434 Q121 459 113 485.5 Q105 512 98.5 539.5 Q92 567 92 592 Q92 616 100.5 638.5 Q109 661 126.5 679 Q144 697 170.5 707.5 Q197 718 233 718 Z " />
<glyph glyph-name="braceright" unicode="&#x7d;" horiz-adv-x="283" d="M189 372 Q189 352 200.5 336.5 Q212 321 240 317 Q254 315 253 302 L250 275 L246 247 Q245 235 231 233 Q191 229 176 207 Q161 185 161 160 Q161 141 167.5 116.5 Q174 92 182.5 65.5 Q191 39 197.5 11.5 Q204 -16 204 -41 Q204 -65 195.5 -87.5 Q187 -110 169 -128 Q151 -146 124.5 -156.5 Q98 -167 62 -167 Q40 -167 25.5 -164.5 Q11 -162 0 -158 Q-10 -154 -9 -141 L-5 -107 Q-4 -95 6 -95 Q14 -95 21.5 -96.5 Q29 -98 38 -98 Q70 -98 89 -80 Q108 -62 108 -33 Q108 -14 101 10.5 Q94 35 86 61 Q78 87 71 113 Q64 139 64 162 Q64 200 91 233.5 Q118 267 172 275 Q129 281 109.5 308 Q90 335 90 365 Q90 393 106 424.5 Q122 456 141 487.5 Q160 519 176 548 Q192 577 192 600 Q192 622 177.5 635.5 Q163 649 136 649 Q130 649 124 648.5 Q118 648 111 647 L106 647 Q96 647 97 660 L101 693 Q103 704 112 708 Q124 712 140 715 Q156 718 179 718 Q238 718 264.5 688.5 Q291 659 291 620 Q291 588 275 554.5 Q259 521 240 488 Q221 455 205 425 Q189 395 189 372 Z " />
<glyph glyph-name="bracketleft" unicode="&#x5b;" horiz-adv-x="364" d="M239 -148 Q237 -161 224 -161 L35 -161 Q20 -161 22 -146 L134 697 Q136 710 149 710 L333 710 Q347 710 346 695 L339 638 Q337 625 324 625 L227 625 L135 -67 L234 -67 Q248 -67 247 -82 L239 -148 L239 -148 Z " />
<glyph glyph-name="bracketright" unicode="&#x5d;" horiz-adv-x="364" d="M36 -161 Q21 -161 23 -146 L31 -80 Q33 -67 46 -67 L147 -67 L239 625 L144 625 Q129 625 131 640 L138 697 Q140 710 153 710 L338 710 Q352 710 351 695 L239 -148 Q237 -161 224 -161 L36 -161 L36 -161 Z " />
<glyph glyph-name="parenleft" unicode="&#x28;" horiz-adv-x="356" d="M253 -139 Q256 -144 256 -147 Q256 -156 244 -156 L168 -156 Q158 -156 151 -148 Q97 -80 66.5 9.5 Q36 99 36 200 Q36 208 36.5 215.5 Q37 223 37 231 Q44 375 105.5 493.5 Q167 612 266 703 Q273 710 283 710 L355 710 Q367 710 367 702 Q367 697 363 693 Q318 645 280.5 590.5 Q243 536 215.5 477 Q188 418 172 356.5 Q156 295 153 234 Q152 226 152 218.5 Q152 211 152 203 Q152 112 178.5 22.5 Q205 -67 253 -139 Z " />
<glyph glyph-name="parenright" unicode="&#x29;" horiz-adv-x="356" d="M10 -156 Q-2 -156 -2 -148 Q-2 -144 3 -139 Q48 -91 85.5 -36.5 Q123 18 150 77 Q177 136 193 197 Q209 258 212 320 Q213 329 213 337.5 Q213 346 213 355 Q213 445 187 533.5 Q161 622 113 693 Q110 697 110 701 Q110 710 122 710 L197 710 Q207 710 214 702 Q269 635 299.5 546 Q330 457 330 357 Q330 349 330 340 Q330 331 329 323 Q326 251 308 185.5 Q290 120 260 60.5 Q230 1 189 -51.5 Q148 -104 99 -149 Q92 -156 82 -156 L10 -156 L10 -156 Z " />
<glyph glyph-name="emdash" unicode="&#x2014;" horiz-adv-x="931" d="M77 209 Q62 209 64 224 L72 297 Q74 310 86 310 L860 310 Q874 310 873 295 L865 222 Q863 209 851 209 L77 209 L77 209 Z " />
<glyph glyph-name="endash" unicode="&#x2013;" horiz-adv-x="533" d="M77 209 Q62 209 64 224 L72 298 Q74 311 86 311 L462 311 Q476 311 475 296 L467 222 Q465 209 452 209 L77 209 L77 209 Z " />
<glyph glyph-name="hyphen" unicode="&#x2d;" horiz-adv-x="440" d="M77 209 Q62 209 64 224 L72 299 Q74 312 86 312 L369 312 Q383 312 382 297 L373 222 Q371 209 359 209 L77 209 L77 209 Z " />
<glyph glyph-name="softhyphen" unicode="&#xad;" horiz-adv-x="440" d="M77 209 Q62 209 64 224 L72 299 Q74 312 86 312 L369 312 Q383 312 382 297 L373 222 Q371 209 359 209 L77 209 L77 209 Z " />
<glyph glyph-name="guillemetleft" unicode="&#xab;" horiz-adv-x="614" d="M249 35 Q244 30 240 30 Q234 30 229 37 L67 262 Q63 268 63 272 Q63 277 68 282 L285 495 Q290 500 295 500 Q300 500 305 494 L344 451 Q349 446 349 441 Q349 436 344 431 L203 273 L305 112 Q308 107 308 103 Q308 97 303 92 L249 35 Z M479 35 Q474 30 470 30 Q464 30 459 37 L297 262 Q293 268 293 272 Q293 277 298 282 L515 495 Q520 500 525 500 Q530 500 535 494 L574 451 Q579 446 579 441 Q579 436 574 431 L433 273 L535 112 Q538 107 538 103 Q538 97 533 92 L479 35 Z " />
<glyph glyph-name="guillemetright" unicode="&#xbb;" horiz-adv-x="615" d="M142 500 Q147 505 151 505 Q157 505 162 498 L324 273 Q328 267 328 263 Q328 258 323 253 L106 40 Q101 35 96 35 Q90 35 86 41 L47 84 Q43 88 43 94 Q43 100 47 104 L188 262 L86 423 Q83 427 83 432 Q83 438 88 443 L142 500 Z M372 500 Q377 505 381 505 Q387 505 392 498 L554 273 Q558 267 558 263 Q558 258 553 253 L336 40 Q331 35 326 35 Q320 35 316 41 L277 84 Q273 88 273 94 Q273 100 277 104 L418 262 L316 423 Q313 427 313 432 Q313 438 318 443 L372 500 Z " />
<glyph glyph-name="guilsinglleft" unicode="&#x2039;" horiz-adv-x="384" d="M249 35 Q244 30 240 30 Q234 30 229 37 L67 262 Q63 268 63 272 Q63 277 68 282 L285 495 Q290 500 295 500 Q300 500 305 494 L344 451 Q349 446 349 441 Q349 436 344 431 L203 273 L305 112 Q308 107 308 103 Q308 97 303 92 L249 35 L249 35 Z " />
<glyph glyph-name="guilsinglright" unicode="&#x203a;" horiz-adv-x="385" d="M106 35 Q101 30 96 30 Q90 30 86 36 L46 91 Q43 95 43 100 Q43 106 47 110 L189 273 L87 430 Q85 433 85 439 Q85 446 90 450 L142 496 Q146 500 152 500 Q157 500 162 494 L326 283 Q330 277 330 274 Q330 271 325 264 L106 35 L106 35 Z " />
<glyph glyph-name="quotedblbase" unicode="&#x201e;" horiz-adv-x="530" d="M146 160 Q178 160 199.5 138.5 Q221 117 221 83 Q221 57 208 32.5 Q195 8 178 -21 L96 -159 Q90 -168 79 -168 L60 -168 Q52 -168 49 -163.5 Q46 -159 49 -152 L109 -4 Q86 3 71.5 21.5 Q57 40 57 66 Q57 86 64.5 103.5 Q72 121 84.5 133.5 Q97 146 113 153 Q129 160 146 160 Z M356 160 Q388 160 409.5 138.5 Q431 117 431 83 Q431 57 418 32.5 Q405 8 388 -21 L306 -159 Q300 -168 289 -168 L270 -168 Q262 -168 259 -163.5 Q256 -159 259 -152 L319 -4 Q296 3 281.5 21.5 Q267 40 267 66 Q267 86 274.5 103.5 Q282 121 294.5 133.5 Q307 146 323 153 Q339 160 356 160 Z " />
<glyph glyph-name="quotedblleft" unicode="&#x201c;" horiz-adv-x="530" d="M219 546 Q242 539 256.5 520.5 Q271 502 271 476 Q271 456 263.5 438.5 Q256 421 243.5 408.5 Q231 396 215 389 Q199 382 182 382 Q150 382 128.5 403.5 Q107 425 107 459 Q107 485 120 509.5 Q133 534 150 563 L232 701 Q238 710 249 710 L268 710 Q276 710 279 705.5 Q282 701 279 694 L219 546 L219 546 Z M429 546 Q452 539 466.5 520.5 Q481 502 481 476 Q481 456 473.5 438.5 Q466 421 453.5 408.5 Q441 396 425 389 Q409 382 392 382 Q360 382 338.5 403.5 Q317 425 317 459 Q317 485 330 509.5 Q343 534 360 563 L442 701 Q448 710 459 710 L478 710 Q486 710 489 705.5 Q492 701 489 694 L429 546 L429 546 Z " />
<glyph glyph-name="quotedblright" unicode="&#x201d;" horiz-adv-x="530" d="M216 721 Q248 721 269.5 699.5 Q291 678 291 644 Q291 618 278 593.5 Q265 569 248 540 L166 402 Q160 393 149 393 L130 393 Q122 393 119 397.5 Q116 402 119 409 L179 557 Q156 564 141.5 582.5 Q127 601 127 627 Q127 647 134.5 664.5 Q142 682 154.5 694.5 Q167 707 183 714 Q199 721 216 721 Z M426 721 Q458 721 479.5 699.5 Q501 678 501 644 Q501 618 488 593.5 Q475 569 458 540 L376 402 Q370 393 359 393 L340 393 Q332 393 329 397.5 Q326 402 329 409 L389 557 Q366 564 351.5 582.5 Q337 601 337 627 Q337 647 344.5 664.5 Q352 682 364.5 694.5 Q377 707 393 714 Q409 721 426 721 Z " />
<glyph glyph-name="quoteleft" unicode="&#x2018;" horiz-adv-x="319" d="M219 546 Q242 539 256.5 520.5 Q271 502 271 476 Q271 456 263.5 438.5 Q256 421 243.5 408.5 Q231 396 215 389 Q199 382 182 382 Q150 382 128.5 403.5 Q107 425 107 459 Q107 485 120 509.5 Q133 534 150 563 L232 701 Q238 710 249 710 L268 710 Q276 710 279 705.5 Q282 701 279 694 L219 546 L219 546 Z " />
<glyph glyph-name="quoteright" unicode="&#x2019;" horiz-adv-x="320" d="M216 720 Q248 720 269.5 698.5 Q291 677 291 643 Q291 617 278 592.5 Q265 568 248 539 L166 401 Q160 392 149 392 L130 392 Q122 392 119 396.5 Q116 401 119 408 L179 556 Q156 563 141.5 581.5 Q127 600 127 626 Q127 646 134.5 663.5 Q142 681 154.5 693.5 Q167 706 183 713 Q199 720 216 720 Z " />
<glyph glyph-name="quotesinglbase" unicode="&#x201a;" horiz-adv-x="320" d="M146 159 Q178 159 199.5 137.5 Q221 116 221 82 Q221 56 208 31.5 Q195 7 178 -22 L96 -160 Q90 -169 79 -169 L60 -169 Q52 -169 49 -164.5 Q46 -160 49 -153 L109 -5 Q86 2 71.5 20.5 Q57 39 57 65 Q57 85 64.5 102.5 Q72 120 84.5 132.5 Q97 145 113 152 Q129 159 146 159 Z " />
<glyph glyph-name="emspace" unicode="&#x2003;" horiz-adv-x="1000" d="" />
<glyph glyph-name="enspace" unicode="&#x2002;" horiz-adv-x="500" d="" />
<glyph glyph-name="fourperemspace" unicode="&#x2005;" horiz-adv-x="250" d="" />
<glyph glyph-name="hairspace" unicode="&#x200a;" horiz-adv-x="69" d="" />
<glyph glyph-name="Acircumflex" unicode="&#xc2;" horiz-adv-x="667" d="M505 0 Q492 0 489 12 Q481 48 473 84 Q465 120 457 156 L187 156 Q170 119 152.5 83 Q135 47 118 10 Q114 0 102 0 L-15 0 Q-23 0 -26.5 5 Q-30 10 -26 17 L325 702 Q329 712 341 712 L439 712 Q451 712 454 700 L637 16 Q637 14 637.5 13.5 Q638 13 638 12 Q636 0 625 0 L505 0 Z M434 261 L371 544 Q337 474 304 403.5 Q271 333 237 261 L434 261 Z M561 774 Q564 769 564 766 Q564 757 552 757 L497 757 Q488 757 480 765 L416 840 L333 764 Q326 757 316 757 L261 757 Q250 757 250 765 Q250 770 254 774 L369 900 Q376 908 386 908 L461 908 Q473 908 478 899 L561 774 L561 774 Z " />
<glyph glyph-name="nbspace" unicode="&#xa0;" horiz-adv-x="206" d="" />
<glyph glyph-name="thinspace" unicode="&#x2009;" horiz-adv-x="103" d="" />
<glyph glyph-name="threeperemspace" unicode="&#x2004;" horiz-adv-x="476" d="" />
<glyph glyph-name="cent" unicode="&#xa2;" horiz-adv-x="472" d="M361 491 Q329 491 299 480.5 Q269 470 246.5 450.5 Q224 431 210.5 403 Q197 375 197 341 Q197 286 234.5 256 Q272 226 326 226 Q353 226 377 232 Q401 238 421 248 Q427 250 429 250 Q438 250 437 237 L426 147 Q424 136 415 132 Q394 124 365 117.5 Q336 111 304 109 L282 -17 Q280 -30 267 -30 L214 -30 Q198 -30 202 -14 L233 114 Q194 121 160.5 139 Q127 157 102 184.5 Q77 212 63 248.5 Q49 285 49 330 Q49 387 68.5 434 Q88 481 122 515.5 Q156 550 202 572 Q248 594 300 602 L317 727 Q319 740 332 740 L384 740 Q400 740 397 725 L372 605 Q398 603 422 598.5 Q446 594 464 586 Q475 581 473 569 L462 477 Q461 469 457 466 Q453 463 448 467 Q431 478 409 484.5 Q387 491 361 491 Z " />
<glyph glyph-name="currency" unicode="&#xa4;" horiz-adv-x="619" d="M609 129 Q614 124 614 119 Q614 114 609 109 L572 73 Q567 68 562 68 Q557 68 552 73 L456 170 Q429 151 395.5 140.5 Q362 130 324 130 Q286 130 252.5 140.5 Q219 151 192 170 L97 72 Q92 67 87 67 Q82 67 77 72 L40 110 Q36 114 36 120 Q36 126 40 130 L136 228 Q119 255 109 287 Q99 319 99 354 Q99 392 109 424.5 Q119 457 138 485 L38 586 Q34 590 34 596 Q34 602 38 606 L75 644 Q79 649 85 649 Q91 649 95 644 L195 542 Q221 559 253 569 Q285 579 322 579 Q359 579 391.5 569 Q424 559 451 542 L550 644 Q554 649 560 649 Q566 649 570 644 L607 606 Q612 601 612 596 Q612 591 607 586 L508 485 Q527 458 537.5 425 Q548 392 548 354 Q548 284 512 228 L609 129 Z M324 229 Q378 229 412 264 Q446 299 446 353 Q446 409 412 444.5 Q378 480 323 480 Q268 480 234.5 444.5 Q201 409 201 355 Q201 328 210 305 Q219 282 235 265 Q251 248 274 238.5 Q297 229 324 229 Z " />
<glyph glyph-name="dollar" unicode="&#x24;" horiz-adv-x="585" d="M367 588 Q316 588 283.5 564.5 Q251 541 251 505 Q251 487 260 473.5 Q269 460 284.5 450 Q300 440 320 431.5 Q340 423 363 414 Q397 400 426 385.5 Q455 371 476 351.5 Q497 332 509 306 Q521 280 521 244 Q521 193 502 150.5 Q483 108 449 77.5 Q415 47 367 28.5 Q319 10 261 7 L229 -121 Q226 -133 214 -133 L163 -133 Q148 -133 151 -117 L183 11 Q147 15 112.5 24.5 Q78 34 52 48 Q41 54 43 66 L56 162 Q58 179 73 171 Q110 149 154 135.5 Q198 122 243 122 Q269 122 292 128.5 Q315 135 332.5 147 Q350 159 360 176.5 Q370 194 370 217 Q370 235 362 247.5 Q354 260 339.5 270.5 Q325 281 304.5 289.5 Q284 298 259 308 Q232 320 204 334 Q176 348 152.5 368 Q129 388 114.5 415.5 Q100 443 100 482 Q100 530 119 568.5 Q138 607 171 635 Q204 663 248 679.5 Q292 696 343 700 L374 820 Q377 832 389 832 L439 832 Q454 832 451 816 L421 698 Q452 695 481 688 Q510 681 535 672 Q546 668 545 655 L532 562 Q530 545 516 553 Q484 569 443.5 578.5 Q403 588 367 588 Z " />
<glyph glyph-name="euro" unicode="&#x20ac;" horiz-adv-x="585" d="M472 597 Q407 597 353 565 Q299 533 266 475 L540 475 Q554 475 553 460 L547 406 Q545 393 532 393 L236 393 Q232 378 230.5 361.5 Q229 345 228 328 L522 328 Q536 328 535 313 L529 258 Q527 245 514 245 L238 245 Q255 183 300 149 Q345 115 408 115 Q440 115 470 122.5 Q500 130 525 141 Q531 143 532 143 Q542 143 540 130 L528 36 Q526 25 517 21 Q487 8 448 -0.5 Q409 -9 362 -9 Q310 -9 265 8.5 Q220 26 185 58.5 Q150 91 127 138 Q104 185 97 245 L40 245 Q25 245 27 260 L33 315 Q35 328 48 328 L94 328 Q95 345 96.5 361 Q98 377 101 393 L58 393 Q43 393 45 408 L51 462 Q53 475 65 475 L124 475 Q146 533 182 578.5 Q218 624 263 655.5 Q308 687 360.5 703.5 Q413 720 468 720 Q506 720 539 713 Q572 706 595 698 Q605 694 604 681 L592 585 Q590 568 581 574 Q563 584 534 590.5 Q505 597 472 597 Z " />
<glyph glyph-name="florin" unicode="&#x192;" horiz-adv-x="474" d="M434 644 Q399 644 377.5 622 Q356 600 344 553 L326 480 L447 480 Q461 480 460 465 L452 394 Q450 381 438 381 L301 381 L207 1 Q182 -99 134.5 -145.5 Q87 -192 6 -192 Q-21 -192 -45 -189 Q-69 -186 -86 -180 Q-97 -177 -96 -164 L-87 -82 Q-85 -66 -70 -71 Q-60 -74 -47.5 -76.5 Q-35 -79 -20 -79 Q15 -79 36.5 -57 Q58 -35 70 12 L161 381 L70 381 Q55 381 57 396 L65 467 Q67 480 79 480 L185 480 L206 564 Q230 665 278 711 Q326 757 407 757 Q436 757 459.5 752.5 Q483 748 501 742 Q512 739 511 726 L502 645 Q500 629 489 634 Q466 644 434 644 Z " />
<glyph glyph-name="sterling" unicode="&#xa3;" horiz-adv-x="585" d="M472 609 Q367 609 337 486 L319 409 L492 409 Q507 409 505 394 L495 330 Q493 317 480 317 L297 317 L246 102 L485 102 Q499 102 498 87 L488 13 Q486 0 473 0 L51 0 Q36 0 38 15 L48 89 Q50 102 63 102 L121 102 L172 317 L109 317 Q94 317 96 332 L105 396 Q107 409 120 409 L194 409 L215 500 Q239 607 302.5 663.5 Q366 720 457 720 Q494 720 526.5 713.5 Q559 707 583 696 Q595 692 593 679 L582 595 Q580 578 567 585 Q547 596 523.5 602.5 Q500 609 472 609 Z " />
<glyph glyph-name="yen" unicode="&#xa5;" horiz-adv-x="632" d="M670 711 Q682 711 682 702 Q682 698 679 694 L418 323 L534 323 Q549 323 547 308 L537 244 Q535 231 522 231 L383 231 L354 13 Q352 0 339 0 L222 0 Q207 0 209 15 L237 231 L102 231 Q87 231 89 246 L99 310 Q101 323 114 323 L226 323 L62 695 Q61 697 61 701 Q61 711 73 711 L202 711 Q214 711 218 700 L339 406 L533 702 Q538 711 550 711 L670 711 L670 711 Z " />
<glyph glyph-name="plus" unicode="&#x2b;" horiz-adv-x="582" d="M531 354 Q545 354 545 340 L545 266 Q545 252 531 252 L340 252 L340 57 Q340 43 326 43 L256 43 Q242 43 242 57 L242 252 L51 252 Q37 252 37 266 L37 340 Q37 354 51 354 L242 354 L242 549 Q242 563 256 563 L326 563 Q340 563 340 549 L340 354 L531 354 L531 354 Z " />
<glyph glyph-name="minus" unicode="&#x2212;" horiz-adv-x="582" d="M51 252 Q37 252 37 266 L37 340 Q37 354 51 354 L531 354 Q545 354 545 340 L545 266 Q545 252 531 252 L51 252 L51 252 Z " />
<glyph glyph-name="multiply" unicode="&#xd7;" horiz-adv-x="582" d="M531 492 Q536 487 536 482 Q536 477 531 472 L361 302 L530 132 Q535 127 535 121 Q535 116 531 112 L482 59 Q477 54 472 54 Q467 54 462 59 L291 231 L119 59 Q114 54 109 54 Q104 54 99 59 L50 112 Q46 116 46 121 Q46 127 51 132 L220 302 L51 471 Q46 476 46 482 Q46 487 50 491 L99 544 Q103 549 109 549 Q115 549 119 545 L291 372 L462 544 Q466 549 472 549 Q478 549 482 544 L531 492 L531 492 Z " />
<glyph glyph-name="divide" unicode="&#xf7;" horiz-adv-x="582" d="M265 451 Q236 451 219.5 470 Q203 489 203 518 Q203 552 226 576.5 Q249 601 283 601 Q312 601 329 581.5 Q346 562 346 534 Q346 500 322.5 475.5 Q299 451 265 451 Z M51 254 Q37 254 37 268 L37 342 Q37 356 51 356 L531 356 Q545 356 545 342 L545 268 Q545 254 531 254 L51 254 Z M265 18 Q236 18 219.5 37 Q203 56 203 85 Q203 119 226 143.5 Q249 168 283 168 Q312 168 329 148.5 Q346 129 346 101 Q346 67 322.5 42.5 Q299 18 265 18 Z " />
<glyph glyph-name="equal" unicode="&#x3d;" horiz-adv-x="582" d="M51 353 Q37 353 37 367 L37 441 Q37 455 51 455 L531 455 Q545 455 545 441 L545 367 Q545 353 531 353 L51 353 Z M51 145 Q37 145 37 159 L37 233 Q37 247 51 247 L531 247 Q545 247 545 233 L545 159 Q545 145 531 145 L51 145 Z " />
<glyph glyph-name="notequal" unicode="&#x2260;" horiz-adv-x="582" d="M545 367 Q545 353 531 353 L336 353 L283 247 L531 247 Q545 247 545 233 L545 159 Q545 145 531 145 L231 145 L185 53 Q181 43 169 43 L136 43 Q128 43 124.5 48 Q121 53 125 60 L169 145 L51 145 Q37 145 37 159 L37 233 Q37 247 51 247 L220 247 L274 353 L51 353 Q37 353 37 367 L37 441 Q37 455 51 455 L325 455 L375 553 Q379 563 391 563 L423 563 Q431 563 434.5 558 Q438 553 434 546 L388 455 L531 455 Q545 455 545 441 L545 367 L545 367 Z " />
<glyph glyph-name="greater" unicode="&#x3e;" horiz-adv-x="582" d="M73 7 Q69 5 66 5 Q56 5 56 17 L56 116 Q56 127 66 132 L385 283 L66 435 Q56 441 56 451 L56 548 Q56 556 61 559 Q66 562 73 558 L554 319 Q564 313 564 303 L564 263 Q564 251 554 247 L73 7 L73 7 Z " />
<glyph glyph-name="less" unicode="&#x3c;" horiz-adv-x="582" d="M545 17 Q545 9 540 6 Q535 3 528 7 L47 247 Q37 251 37 263 L37 303 Q37 313 47 319 L528 558 Q532 560 535 560 Q545 560 545 548 L545 451 Q545 441 535 435 L216 283 L535 132 Q545 127 545 116 L545 17 L545 17 Z " />
<glyph glyph-name="greaterequal" unicode="&#x2265;" horiz-adv-x="582" d="M57 146 Q53 144 50 144 Q40 144 40 156 L40 255 Q40 266 50 271 L369 422 L50 574 Q40 580 40 590 L40 687 Q40 695 45 698 Q50 701 57 697 L538 458 Q548 452 548 442 L548 402 Q548 390 538 386 L57 146 Z M51 1 Q37 1 37 15 L37 89 Q37 103 51 103 L531 103 Q545 103 545 89 L545 15 Q545 1 531 1 L51 1 Z " />
<glyph glyph-name="lessequal" unicode="&#x2264;" horiz-adv-x="582" d="M543 156 Q543 148 538 145 Q533 142 526 146 L45 386 Q35 390 35 402 L35 442 Q35 452 45 458 L526 697 Q530 699 533 699 Q543 699 543 687 L543 590 Q543 580 533 574 L214 422 L533 271 Q543 266 543 255 L543 156 Z M546 15 Q546 1 532 1 L52 1 Q38 1 38 15 L38 89 Q38 103 52 103 L532 103 Q546 103 546 89 L546 15 Z " />
<glyph glyph-name="plusminus" unicode="&#xb1;" horiz-adv-x="582" d="M243 206 Q229 206 229 220 L229 349 L67 349 Q53 349 53 363 L53 437 Q53 451 67 451 L229 451 L229 581 Q229 595 243 595 L311 595 Q325 595 325 581 L325 451 L487 451 Q501 451 501 437 L501 363 Q501 349 487 349 L325 349 L325 220 Q325 206 311 206 L243 206 Z M37 129 Q37 143 51 143 L531 143 Q545 143 545 129 L545 55 Q545 41 531 41 L51 41 Q37 41 37 55 L37 129 Z " />
<glyph glyph-name="approxequal" unicode="&#x2248;" horiz-adv-x="600" d="M379 345 Q344 345 319 360.5 Q294 376 271 395 Q252 410 233.5 422.5 Q215 435 192 435 Q165 435 148.5 416 Q132 397 128 362 Q126 348 114 348 L59 348 Q45 348 45 362 Q47 399 56 431.5 Q65 464 82 488 Q99 512 123 526 Q147 540 179 540 Q217 540 244 523.5 Q271 507 294 488 Q312 472 329.5 460.5 Q347 449 368 449 Q393 449 406.5 468.5 Q420 488 423 519 Q425 533 438 533 L494 533 Q508 533 507 512 Q502 436 467.5 390.5 Q433 345 379 345 Z M379 122 Q344 122 319 137.5 Q294 153 271 172 Q252 187 233.5 199.5 Q215 212 192 212 Q165 212 148.5 193 Q132 174 128 139 Q126 125 114 125 L59 125 Q45 125 45 139 Q47 176 56 208.5 Q65 241 82 265 Q99 289 123 303 Q147 317 179 317 Q217 317 244 300.5 Q271 284 294 265 Q312 249 329.5 237.5 Q347 226 368 226 Q393 226 406.5 245.5 Q420 265 423 296 Q425 310 438 310 L494 310 Q508 310 507 289 Q502 213 467.5 167.5 Q433 122 379 122 Z " />
<glyph glyph-name="asciitilde" unicode="&#x7e;" horiz-adv-x="582" d="M379 214 Q344 214 319 229.5 Q294 245 271 264 Q252 279 233.5 291.5 Q215 304 192 304 Q165 304 148.5 285 Q132 266 128 231 Q126 217 114 217 L59 217 Q45 217 45 231 Q47 268 56 300.5 Q65 333 82 357 Q99 381 123 395 Q147 409 179 409 Q217 409 244 392.5 Q271 376 294 357 Q312 341 329.5 329.5 Q347 318 368 318 Q393 318 406.5 337.5 Q420 357 423 388 Q425 402 438 402 L494 402 Q508 402 507 381 Q502 305 467.5 259.5 Q433 214 379 214 Z " />
<glyph glyph-name="logicalnot" unicode="&#xac;" horiz-adv-x="582" d="M487 409 Q501 409 501 395 L501 154 Q501 140 487 140 L412 140 Q398 140 398 154 L398 308 L67 308 Q53 308 53 322 L53 395 Q53 409 67 409 L487 409 L487 409 Z " />
<glyph glyph-name="infinity" unicode="&#x221e;" horiz-adv-x="914" d="M677 512 Q718 512 754.5 496.5 Q791 481 818 452.5 Q845 424 860.5 384 Q876 344 876 296 Q876 248 860.5 208 Q845 168 818 140 Q791 112 755 96.5 Q719 81 678 81 Q643 81 613 92.5 Q583 104 557 123 Q531 142 509 165.5 Q487 189 468 213 Q422 155 370.5 118 Q319 81 258 81 Q215 81 178 97 Q141 113 113.5 141.5 Q86 170 70.5 208.5 Q55 247 55 292 Q55 338 71.5 378 Q88 418 116 448 Q144 478 181 495 Q218 512 260 512 Q293 512 321 500 Q349 488 373.5 469 Q398 450 419 426 Q440 402 458 377 Q479 404 501.5 428 Q524 452 550.5 471 Q577 490 608 501 Q639 512 677 512 Z M255 185 Q290 185 325.5 214 Q361 243 399 295 Q359 349 325.5 378.5 Q292 408 256 408 Q237 408 220 399.5 Q203 391 189.5 376 Q176 361 168 340.5 Q160 320 160 296 Q160 272 168 251.5 Q176 231 189 216.5 Q202 202 219 193.5 Q236 185 255 185 Z M679 185 Q717 185 744 213.5 Q771 242 771 293 Q771 319 763 340.5 Q755 362 742 377 Q729 392 711.5 400 Q694 408 675 408 Q654 408 634.5 398.5 Q615 389 596 372.5 Q577 356 559.5 334.5 Q542 313 525 289 Q565 241 601 213 Q637 185 679 185 Z " />
<glyph glyph-name="integral" unicode="&#x222b;" horiz-adv-x="420" d="M17 -210 Q-41 -210 -77 -198 Q-88 -195 -88 -182 L-88 -100 Q-88 -84 -72 -89 Q-61 -92 -49 -94 Q-37 -96 -22 -96 Q46 -96 61 -5 L156 564 Q171 665 214.5 711 Q258 757 339 757 Q368 757 392 752.5 Q416 748 435 742 Q446 738 446 726 L446 646 Q446 630 430 636 Q419 639 406.5 641.5 Q394 644 378 644 Q343 644 323.5 622 Q304 600 296 553 L200 -16 Q185 -117 141.5 -163.5 Q98 -210 17 -210 Z " />
<glyph glyph-name="product" unicode="&#x220f;" horiz-adv-x="698" d="M685 710 Q699 710 699 696 L699 613 Q699 599 685 599 L595 599 L595 -111 Q595 -125 581 -125 L461 -125 Q447 -125 447 -111 L447 599 L279 599 L279 -111 Q279 -125 265 -125 L153 -125 Q139 -125 139 -111 L139 599 L55 599 Q41 599 41 613 L41 696 Q41 710 55 710 L685 710 L685 710 Z " />
<glyph glyph-name="summation" unicode="&#x2211;" horiz-adv-x="564" d="M503 -17 Q517 -17 517 -31 L517 -112 Q517 -126 503 -126 L61 -126 Q47 -126 47 -112 L47 -60 Q47 -50 53 -42 L333 296 L53 626 Q47 633 47 644 L47 696 Q47 710 61 710 L498 710 Q512 710 512 696 L512 615 Q512 601 498 601 L223 601 L474 306 Q478 302 478 296 Q478 290 474 286 L220 -17 L503 -17 Z " />
<glyph glyph-name="radical" unicode="&#x221a;" horiz-adv-x="618" d="M517 699 Q522 710 533 710 L622 710 Q630 710 633 705.5 Q636 701 633 694 L310 -119 Q306 -130 294 -130 L245 -130 Q232 -130 228 -120 L25 318 Q23 322 23 324 Q23 334 35 334 L129 334 Q142 334 146 323 L269 34 L517 699 L517 699 Z " />
<glyph glyph-name="micro" unicode="&#xb5;" horiz-adv-x="600" d="M422 467 Q424 480 437 480 L549 480 Q563 480 562 465 L504 13 Q502 0 489 0 L398 0 Q385 0 385 14 L387 71 L384 72 Q337 -9 254 -9 Q225 -9 203 -0.5 Q181 8 168 28 L153 -187 Q151 -200 138 -200 L23 -200 Q8 -200 11 -185 L60 83 L100 467 Q102 480 114 480 L225 480 Q239 480 238 465 L203 188 L203 189 Q202 183 201.5 177 Q201 171 201 165 Q201 126 220.5 109.5 Q240 93 275 93 Q323 93 352.5 125.5 Q382 158 390 213 L422 467 L422 467 Z " />
<glyph glyph-name="partialdiff" unicode="&#x2202;" horiz-adv-x="569" d="M252 720 Q326 720 380.5 697.5 Q435 675 470.5 634.5 Q506 594 523 538 Q540 482 540 414 Q540 324 518 247 Q496 170 456.5 113 Q417 56 361 23.5 Q305 -9 236 -9 Q195 -9 158.5 5 Q122 19 95 45.5 Q68 72 52 110.5 Q36 149 36 199 Q36 258 56.5 306.5 Q77 355 112 389 Q147 423 192.5 441.5 Q238 460 288 460 Q326 460 360.5 449.5 Q395 439 421 418 Q413 619 236 619 Q214 619 191 616.5 Q168 614 148 608 L144 608 Q132 608 133 621 L142 693 Q144 705 155 708 Q201 720 252 720 Z M257 97 Q290 97 317 115.5 Q344 134 364 166 Q384 198 397 239.5 Q410 281 416 328 Q396 344 366.5 353 Q337 362 308 362 Q277 362 251 350 Q225 338 206 317 Q187 296 176.5 267.5 Q166 239 166 207 Q166 157 190.5 127 Q215 97 257 97 Z " />
<glyph glyph-name="percent" unicode="&#x25;" horiz-adv-x="725" d="M61 -5 Q55 -1 55 6 Q55 11 59 15 L650 723 Q655 728 661 728 Q665 728 670 725 L685 714 Q692 710 692 704 Q692 699 688 695 L97 -15 Q92 -21 87 -21 Q81 -21 77 -17 L61 -5 Z M208 405 Q183 405 161 414.5 Q139 424 122.5 442 Q106 460 96.5 485.5 Q87 511 87 542 Q87 582 100.5 615 Q114 648 136.5 671.5 Q159 695 188 707.5 Q217 720 247 720 Q272 720 294 710 Q316 700 332.5 682 Q349 664 358.5 638.5 Q368 613 368 582 Q368 542 354.5 509.5 Q341 477 318.5 453.5 Q296 430 267 417.5 Q238 405 208 405 Z M216 476 Q249 476 268.5 506 Q288 536 288 579 Q288 611 275 630 Q262 649 239 649 Q207 649 187 620 Q167 591 167 546 Q167 515 180 495.5 Q193 476 216 476 Z M508 -10 Q482 -10 460 -0.5 Q438 9 422 27 Q406 45 396.5 70 Q387 95 387 126 Q387 167 400.5 200 Q414 233 436 256.5 Q458 280 487 292.5 Q516 305 546 305 Q571 305 593 295 Q615 285 631.5 267 Q648 249 657.5 223.5 Q667 198 667 167 Q667 127 653.5 94.5 Q640 62 618 38.5 Q596 15 567 2.5 Q538 -10 508 -10 Z M516 61 Q548 61 567.5 91 Q587 121 587 164 Q587 196 574 215 Q561 234 537 234 Q506 234 485.5 205 Q465 176 465 131 Q465 99 479 80 Q493 61 516 61 Z " />
<glyph glyph-name="perthousand" unicode="&#x2030;" horiz-adv-x="1050" d="M61 -5 Q55 -1 55 6 Q55 11 59 15 L650 723 Q655 728 661 728 Q665 728 670 725 L685 714 Q692 710 692 704 Q692 699 688 695 L97 -15 Q92 -21 87 -21 Q81 -21 77 -17 L61 -5 Z M208 405 Q183 405 161 414.5 Q139 424 122.5 442 Q106 460 96.5 485.5 Q87 511 87 542 Q87 582 100.5 615 Q114 648 136.5 671.5 Q159 695 188 707.5 Q217 720 247 720 Q272 720 294 710 Q316 700 332.5 682 Q349 664 358.5 638.5 Q368 613 368 582 Q368 542 354.5 509.5 Q341 477 318.5 453.5 Q296 430 267 417.5 Q238 405 208 405 Z M216 476 Q249 476 268.5 506 Q288 536 288 579 Q288 611 275 630 Q262 649 239 649 Q207 649 187 620 Q167 591 167 546 Q167 515 180 495.5 Q193 476 216 476 Z M508 -10 Q482 -10 460 -0.5 Q438 9 422 27 Q406 45 396.5 70 Q387 95 387 126 Q387 167 400.5 200 Q414 233 436 256.5 Q458 280 487 292.5 Q516 305 546 305 Q571 305 593 295 Q615 285 631.5 267 Q648 249 657.5 223.5 Q667 198 667 167 Q667 127 653.5 94.5 Q640 62 618 38.5 Q596 15 567 2.5 Q538 -10 508 -10 Z M833 -10 Q807 -10 785 -0.5 Q763 9 746.5 27 Q730 45 720.5 70 Q711 95 711 126 Q711 167 724.5 200 Q738 233 760.5 256.5 Q783 280 812 292.5 Q841 305 871 305 Q896 305 918 295 Q940 285 956.5 267 Q973 249 982.5 223.5 Q992 198 992 167 Q992 127 978.5 94.5 Q965 62 942.5 38.5 Q920 15 891.5 2.5 Q863 -10 833 -10 Z M516 61 Q548 61 567.5 91 Q587 121 587 164 Q587 196 574 215 Q561 234 537 234 Q506 234 485.5 205 Q465 176 465 131 Q465 99 479 80 Q493 61 516 61 Z M841 61 Q873 61 892.5 91 Q912 121 912 164 Q912 196 899 215 Q886 234 862 234 Q831 234 810.5 205 Q790 176 790 131 Q790 99 803.5 80 Q817 61 841 61 Z " />
<glyph glyph-name="lozenge" unicode="&#x25ca;" horiz-adv-x="582" d="M279 -49 Q270 -49 263 -39 L47 341 Q44 345 44 351 Q44 356 47 361 L262 741 Q269 751 279 751 L306 751 Q315 751 322 741 L535 361 Q538 356 538 351 Q538 345 535 341 L322 -39 Q315 -49 306 -49 L279 -49 Z M443 351 L293 619 L138 351 L293 83 L443 351 Z " />
<glyph glyph-name="apple" unicode="&#xf8ff;" horiz-adv-x="999" d="M499 -140 Q430 -140 366.5 -122 Q303 -104 247.5 -71.5 Q192 -39 146.5 6.5 Q101 52 68.5 107.5 Q36 163 18 227 Q0 291 0 360 Q0 463 39.5 554 Q79 645 146.5 712.5 Q214 780 305 819.5 Q396 859 499 859 Q602 859 693 819.5 Q784 780 852 712.5 Q920 645 959.5 554 Q999 463 999 360 Q999 256 959.5 165 Q920 74 852 6.5 Q784 -61 693 -100.5 Q602 -140 499 -140 Z M499 109 Q585 109 671.5 112 Q758 115 840 124 Q864 126 876.5 134.5 Q889 143 892 168 Q896 216 896.5 263.5 Q897 311 897 360 Q897 408 896.5 455.5 Q896 503 892 551 Q889 576 876.5 584.5 Q864 593 840 595 Q758 604 671.5 607 Q585 610 499 610 Q413 610 326.5 607 Q240 604 157 595 Q134 593 121.5 584.5 Q109 576 106 551 Q101 503 100.5 455.5 Q100 408 100 360 Q100 311 100.5 263.5 Q101 216 106 168 Q109 143 121.5 134.5 Q134 126 157 124 Q240 115 326.5 112 Q413 109 499 109 Z M499 157 Q456 157 419 173 Q382 189 355 217 Q328 245 312.5 281.5 Q297 318 297 360 Q297 401 312.5 438 Q328 475 355 502.5 Q382 530 419 546 Q456 562 499 562 Q542 562 579 546 Q616 530 643 502.5 Q670 475 685.5 438 Q701 401 701 360 Q701 318 685.5 281.5 Q670 245 643 217 Q616 189 579 173 Q542 157 499 157 Z " />
<glyph glyph-name="at" unicode="&#x40;" horiz-adv-x="886" d="M651 431 Q665 431 664 416 L632 159 Q631 154 631 144 Q631 101 672 101 Q696 101 717 116.5 Q738 132 754 159 Q770 186 779 222.5 Q788 259 788 301 Q788 362 766.5 414 Q745 466 705 503.5 Q665 541 609.5 562 Q554 583 487 583 Q408 583 338 554 Q268 525 215.5 475 Q163 425 132.5 358 Q102 291 102 215 Q102 149 126 90 Q150 31 194 -13 Q238 -57 300 -82.5 Q362 -108 437 -108 Q493 -108 554 -93.5 Q615 -79 669 -49 Q673 -46 677 -46 Q686 -46 684 -59 L680 -92 Q679 -104 670 -108 Q615 -138 552 -151.5 Q489 -165 431 -165 Q345 -165 273.5 -136 Q202 -107 150.5 -56 Q99 -5 70.5 64 Q42 133 42 213 Q42 303 78.5 380.5 Q115 458 177 515 Q239 572 320.5 605 Q402 638 493 638 Q572 638 637.5 613 Q703 588 749.5 544 Q796 500 822 439 Q848 378 848 306 Q848 248 832.5 199 Q817 150 790 114 Q763 78 725.5 57.5 Q688 37 644 37 Q598 37 569 58 Q540 79 534 115 Q506 77 468.5 59.5 Q431 42 391 42 Q359 42 330.5 54.5 Q302 67 280 90.5 Q258 114 245.5 146.5 Q233 179 233 218 Q233 266 251 306.5 Q269 347 298.5 376.5 Q328 406 365 422 Q402 438 440 438 Q480 438 510.5 420.5 Q541 403 558 367 L565 418 Q567 431 580 431 L651 431 Z M429 131 Q467 131 498.5 155 Q530 179 541 223 L544 252 L544 255 Q544 299 519 323.5 Q494 348 457 348 Q434 348 412 339.5 Q390 331 373.5 315 Q357 299 347 276 Q337 253 337 225 Q337 180 364 155.5 Q391 131 429 131 Z " />
<glyph glyph-name="ampersand" unicode="&#x26;" horiz-adv-x="700" d="M632 339 Q621 275 597.5 222 Q574 169 540 127 L624 17 Q627 12 627 9 Q627 0 615 0 L496 0 Q484 0 479 8 L450 46 Q407 19 358.5 4.5 Q310 -10 258 -10 Q209 -10 167 1.5 Q125 13 94 36 Q63 59 45.5 94 Q28 129 28 176 Q28 248 73 302 Q118 356 196 384 Q176 413 163 445 Q150 477 150 512 Q150 559 169.5 597.5 Q189 636 222 663.5 Q255 691 299 706 Q343 721 393 721 Q425 721 455.5 716.5 Q486 712 512 704 Q524 700 522 687 L510 599 Q509 583 493 590 Q474 598 451.5 602.5 Q429 607 407 607 Q383 607 361.5 600 Q340 593 324 579.5 Q308 566 298.5 547 Q289 528 289 504 Q289 471 308.5 436.5 Q328 402 363 357 L470 217 Q506 274 516 348 Q518 359 519 369 Q520 379 521 390 Q523 404 536 404 L626 404 Q641 404 639 388 Q637 375 635.5 362.5 Q634 350 632 339 Z M167 191 Q167 149 198.5 125 Q230 101 284 101 Q312 101 338 109 Q364 117 388 131 L256 312 Q211 292 189 260.5 Q167 229 167 191 Z " />
<glyph glyph-name="paragraph" unicode="&#xb6;" horiz-adv-x="581" d="M423 710 Q437 710 436 695 L346 62 Q328 -69 248 -174 Q243 -182 231 -182 L191 -182 Q179 -182 179 -174 Q179 -169 183 -165 Q260 -62 277 62 L303 247 L284 247 Q235 247 194 261 Q153 275 123 301.5 Q93 328 76 365.5 Q59 403 59 450 Q59 510 82.5 558 Q106 606 145.5 640 Q185 674 237.5 692 Q290 710 349 710 L423 710 Z M493 697 Q495 710 508 710 L548 710 Q562 710 561 695 L493 215 Q478 103 418 42 Q414 37 409 37 Q400 37 402 51 L493 697 Z " />
<glyph glyph-name="section" unicode="&#xa7;" horiz-adv-x="564" d="M555 617 Q553 602 538 607 Q517 616 491.5 622 Q466 628 440 632.5 Q414 637 390 639 Q366 641 348 641 Q298 641 251 622 L454 279 Q481 233 494 194.5 Q507 156 507 116 Q507 56 483 0.5 Q459 -55 415 -97.5 Q371 -140 308.5 -165 Q246 -190 169 -190 Q126 -190 75 -180 Q24 -170 -18 -147 Q-29 -141 -27 -129 L-15 -42 Q-14 -31 -6 -31 Q-1 -31 2 -33 Q85 -76 193 -76 Q240 -76 279 -67 Q318 -58 350 -41 L136 316 Q110 361 94 399.5 Q78 438 78 484 Q78 541 101.5 590.5 Q125 640 166 677 Q207 714 263.5 735 Q320 756 386 756 Q427 756 473 748.5 Q519 741 557 727 Q568 723 567 710 L555 617 Z M203 594 Q174 572 156.5 540.5 Q139 509 139 471 Q139 438 152.5 407.5 Q166 377 186 341 L392 -11 Q449 41 449 118 Q449 175 409 243 L203 594 Z " />
<glyph glyph-name="copyright" unicode="&#xa9;" horiz-adv-x="810" d="M379 -10 Q306 -10 245 14 Q184 38 140 81.5 Q96 125 71.5 185.5 Q47 246 47 318 Q47 406 81 479.5 Q115 553 172 606.5 Q229 660 303.5 690 Q378 720 459 720 Q530 720 590.5 695.5 Q651 671 695.5 626.5 Q740 582 765 520.5 Q790 459 790 385 Q790 299 756.5 226.5 Q723 154 666.5 101.5 Q610 49 535.5 19.5 Q461 -10 379 -10 Z M384 25 Q457 25 524 51.5 Q591 78 642 125 Q693 172 723.5 238 Q754 304 754 384 Q754 451 731.5 506.5 Q709 562 669 601.5 Q629 641 574 663 Q519 685 454 685 Q380 685 313 658 Q246 631 195 583 Q144 535 113.5 468.5 Q83 402 83 322 Q83 256 105.5 201.5 Q128 147 168 108 Q208 69 263 47 Q318 25 384 25 Z M395 144 Q359 144 327 156.5 Q295 169 271.5 193 Q248 217 234 251 Q220 285 220 328 Q220 383 240 427 Q260 471 293 501.5 Q326 532 368 548.5 Q410 565 454 565 Q483 565 508.5 558 Q534 551 550 542 Q561 536 559 525 L551 462 Q550 452 542 452 Q537 452 533 455 Q518 465 497.5 471 Q477 477 454 477 Q429 477 405.5 467 Q382 457 363.5 439 Q345 421 334 396 Q323 371 323 340 Q323 290 352 262.5 Q381 235 422 235 Q446 235 469.5 242 Q493 249 513 260 Q517 263 522 263 Q529 263 528 251 L520 192 Q519 182 512 178 Q489 164 459.5 154 Q430 144 395 144 Z " />
<glyph glyph-name="registered" unicode="&#xae;" horiz-adv-x="477" d="M297 720 Q334 720 364.5 707.5 Q395 695 417 672.5 Q439 650 451 619 Q463 588 463 550 Q463 502 446.5 462.5 Q430 423 401 394.5 Q372 366 333 350 Q294 334 250 334 Q213 334 182.5 346.5 Q152 359 130 381 Q108 403 96 434 Q84 465 84 503 Q84 551 101 591 Q118 631 147 659.5 Q176 688 214.5 704 Q253 720 297 720 Z M253 362 Q290 362 323 375.5 Q356 389 381 413.5 Q406 438 420 472.5 Q434 507 434 548 Q434 614 395.5 653 Q357 692 294 692 Q257 692 224 678.5 Q191 665 166.5 640.5 Q142 616 127.5 582 Q113 548 113 506 Q113 440 151.5 401 Q190 362 253 362 Z M354 579 Q354 556 340 540.5 Q326 525 302 520 L347 454 Q350 449 350 446 Q350 437 338 437 L318 437 Q306 437 301 446 L259 514 L250 514 L243 450 Q241 437 228 437 L214 437 Q199 437 201 452 L220 617 Q222 630 235 630 L289 630 Q319 630 336.5 616 Q354 602 354 579 Z M253 540 L271 540 Q289 540 299.5 548.5 Q310 557 310 573 Q310 598 278 598 L260 598 L253 540 Z " />
<glyph glyph-name="trademark" unicode="&#x2122;" horiz-adv-x="798" d="M357 647 Q355 634 342 634 L258 634 L225 361 Q223 348 210 348 L146 348 Q131 348 133 363 L166 634 L85 634 Q70 634 72 649 L77 697 Q79 710 92 710 L349 710 Q363 710 362 695 L357 647 Z M790 361 Q790 348 776 348 L712 348 Q698 348 698 362 L693 585 L592 368 Q588 358 575 358 L541 358 Q528 358 525 370 L475 579 L409 360 Q406 348 394 348 L337 348 Q320 348 325 364 L429 698 Q432 710 445 710 L510 710 Q523 710 526 698 L574 477 L674 699 Q678 710 691 710 L750 710 Q762 710 764 697 L790 363 L790 361 Z " />
<glyph glyph-name="degree" unicode="&#xb0;" horiz-adv-x="403" d="M255 428 Q226 428 202 438 Q178 448 160 465 Q142 482 132 506 Q122 530 122 559 Q122 594 135.5 623.5 Q149 653 172.5 674.5 Q196 696 226.5 708 Q257 720 290 720 Q318 720 342.5 710.5 Q367 701 385 684 Q403 667 413 643 Q423 619 423 590 Q423 555 409 525.5 Q395 496 372 474 Q349 452 318.5 440 Q288 428 255 428 Z M264 504 Q295 504 316.5 527 Q338 550 338 583 Q338 611 322.5 627.5 Q307 644 281 644 Q250 644 228 622 Q206 600 206 566 Q206 539 222 521.5 Q238 504 264 504 Z " />
<glyph glyph-name="bar" unicode="&#x7c;" horiz-adv-x="177" d="M3 -200 Q-12 -200 -10 -185 L124 827 Q126 840 139 840 L193 840 Q207 840 206 825 L72 -187 Q70 -200 57 -200 L3 -200 L3 -200 Z " />
<glyph glyph-name="brokenbar" unicode="&#xa6;" horiz-adv-x="177" d="M85 422 Q70 422 72 437 L124 827 Q126 840 139 840 L193 840 Q207 840 206 825 L155 435 Q153 422 140 422 L85 422 Z M3 -200 Q-12 -200 -10 -185 L41 205 Q43 218 56 218 L111 218 Q125 218 124 203 L72 -187 Q70 -200 57 -200 L3 -200 Z " />
<glyph glyph-name="dagger" unicode="&#x2020;" horiz-adv-x="382" d="M383 600 Q398 600 396 586 L388 516 Q386 503 373 503 L277 507 L247 255 Q245 242 232 242 L153 242 Q138 242 140 257 L170 507 L75 503 Q60 503 62 517 L70 587 Q72 600 85 600 L180 596 L192 697 Q194 710 207 710 L287 710 Q301 710 300 695 L288 596 L383 600 L383 600 Z " />
<glyph glyph-name="daggerdbl" unicode="&#x2021;" horiz-adv-x="382" d="M390 534 Q388 522 375 522 L280 526 L268 423 L362 427 Q377 427 375 413 L367 343 Q365 330 352 330 L257 334 L248 255 Q246 242 233 242 L153 242 Q138 242 140 257 L149 334 L53 330 Q38 330 40 344 L48 415 Q49 427 63 427 L160 423 L172 526 L77 522 Q62 522 64 536 L72 606 Q74 619 87 619 L183 615 L192 697 Q194 710 207 710 L287 710 Q301 710 300 695 L291 615 L385 619 Q400 619 398 605 L390 534 L390 534 Z " />
<glyph glyph-name="asciicircum" unicode="&#x5e;" horiz-adv-x="600" d="M491 293 Q493 287 493 285 Q493 276 481 276 L422 276 Q411 276 405 285 L321 400 L208 283 Q201 276 191 276 L131 276 Q119 276 119 284 Q119 287 123 293 L270 474 Q276 482 287 482 L373 482 Q382 482 389 472 L491 293 L491 293 Z " />
<glyph glyph-name="dieresiscomb" unicode="&#x308;" d="M-38 605 Q-61 605 -74.5 621 Q-88 637 -88 660 Q-88 688 -69.5 708 Q-51 728 -23 728 Q0 728 14 712 Q28 696 28 673 Q28 645 8.5 625 Q-11 605 -38 605 Z M129 605 Q106 605 92.5 621 Q79 637 79 660 Q79 688 97.5 708 Q116 728 144 728 Q167 728 181 712 Q195 696 195 673 Q195 645 175.5 625 Q156 605 129 605 Z " />
<glyph glyph-name="dotaccentcomb" unicode="&#x307;" d="M46 598 Q18 598 1 617 Q-16 636 -16 665 Q-16 699 7 723.5 Q30 748 64 748 Q92 748 109 728.5 Q126 709 126 681 Q126 647 102.5 622.5 Q79 598 46 598 Z " />
<glyph glyph-name="gravecomb" unicode="&#x300;" d="M117 551 Q119 548 119 543 Q119 534 108 534 L45 534 Q35 534 28 541 L-118 692 Q-123 697 -123 701 Q-123 708 -112 710 L4 726 L8 726 Q18 726 22 718 L117 551 L117 551 Z " />
<glyph glyph-name="acutecomb" unicode="&#x301;" d="M-46 534 Q-57 534 -57 543 Q-57 548 -55 551 L40 718 Q45 728 58 726 L174 710 Q185 708 185 701 Q185 697 180 692 L34 541 Q27 534 17 534 L-46 534 L-46 534 Z " />
<glyph glyph-name="hungarumlautcomb" unicode="&#x30b;" d="M-127 552 Q-144 552 -138 568 L-47 766 Q-43 777 -29 774 L54 751 Q63 748 63 740 Q63 735 61 732 L-50 561 Q-55 552 -67 552 L-127 552 Z M37 552 Q29 552 26 557 Q23 562 27 569 L125 767 Q131 778 143 775 L235 751 Q244 748 244 741 Q244 736 241 732 L110 560 Q105 552 93 552 L37 552 Z " />
<glyph glyph-name="circumflexcomb" unicode="&#x302;" d="M195 572 Q197 568 197 566 Q197 555 184 555 L127 555 Q117 555 110 565 L53 662 L-29 563 Q-35 555 -46 555 L-105 555 Q-116 555 -116 563 Q-116 567 -113 572 L13 739 Q18 747 30 747 L95 747 Q107 747 111 737 L195 572 L195 572 Z " />
<glyph glyph-name="caroncomb" unicode="&#x30c;" d="M80 713 Q88 721 97 721 L162 721 Q174 721 174 712 Q174 708 171 704 L68 552 Q63 543 51 543 L-25 543 Q-36 543 -42 552 L-134 704 Q-137 708 -137 711 Q-137 721 -124 721 L-56 721 Q-44 721 -39 713 L17 639 L80 713 L80 713 Z " />
<glyph glyph-name="brevecomb" unicode="&#x306;" d="M42 575 Q-16 575 -52.5 612 Q-89 649 -89 708 L-89 710 Q-89 722 -75 722 L-37 722 Q-24 722 -22 708 Q-19 681 -1 664 Q17 647 49 647 Q82 647 104 664.5 Q126 682 137 710 Q141 722 153 722 L191 722 Q198 722 201.5 717.5 Q205 713 203 705 Q195 676 179.5 652.5 Q164 629 143 611.5 Q122 594 96 584.5 Q70 575 42 575 Z " />
<glyph glyph-name="ringcomb" unicode="&#x30a;" d="M37 544 Q-3 544 -31 570 Q-59 596 -59 638 Q-59 663 -48.5 683.5 Q-38 704 -21 719 Q-4 734 17.5 742 Q39 750 62 750 Q101 750 130 725 Q159 700 159 659 Q159 634 148.5 613 Q138 592 121 576.5 Q104 561 82 552.5 Q60 544 37 544 Z M43 598 Q66 598 82 614 Q98 630 98 653 Q98 672 86.5 684 Q75 696 56 696 Q33 696 17.5 680.5 Q2 665 2 642 Q2 623 13.5 610.5 Q25 598 43 598 Z " />
<glyph glyph-name="tildecomb" unicode="&#x303;" d="M115 565 Q91 565 72.5 576.5 Q54 588 39 600 Q26 611 13.5 620 Q1 629 -14 629 Q-30 629 -41 617 Q-52 605 -56 580 Q-59 567 -71 567 L-114 567 Q-130 567 -128 582 Q-125 611 -116 637.5 Q-107 664 -93 683.5 Q-79 703 -59 714.5 Q-39 726 -14 726 Q13 726 32 713 Q51 700 67 686 Q80 675 91 667.5 Q102 660 115 660 Q132 660 141 672.5 Q150 685 154 706 Q156 719 168 719 L213 719 Q229 719 226 700 Q222 672 212.5 647.5 Q203 623 189 604.5 Q175 586 156 575.5 Q137 565 115 565 Z " />
<glyph glyph-name="macroncomb" unicode="&#x304;" d="M-94 608 Q-109 608 -107 623 L-101 679 Q-99 692 -87 692 L195 692 Q209 692 208 677 L202 621 Q200 608 188 608 L-94 608 L-94 608 Z " />
<glyph glyph-name="cedillacomb" unicode="&#x327;" d="M-18 -38 Q16 -39 36.5 -55 Q57 -71 57 -100 Q57 -121 47 -138 Q37 -155 19.5 -167 Q2 -179 -21 -185.5 Q-44 -192 -69 -192 Q-92 -192 -109.5 -188.5 Q-127 -185 -140 -180 Q-151 -175 -149 -163 L-145 -133 Q-143 -117 -128 -124 Q-117 -128 -104 -131 Q-91 -134 -76 -134 Q-55 -134 -41 -126.5 Q-27 -119 -27 -106 Q-27 -94 -38.5 -87.5 Q-50 -81 -67 -81 Q-75 -81 -83 -82 Q-91 -83 -99 -85 Q-101 -83 -102 -80 Q-103 -78 -103 -75.5 Q-103 -73 -101 -69 L-43 16 Q-38 25 -26 25 L6 25 Q18 25 18 16 Q18 12 15 8 L-18 -38 L-18 -38 Z " />
<glyph glyph-name="ogonekcomb" unicode="&#x328;" horiz-adv-x="561" d="M243 -192 Q201 -192 172.5 -168.5 Q144 -145 144 -105 Q144 -55 186.5 -21.5 Q229 12 303 41 Q309 43 311 43 Q315 43 322 38 L341 21 Q346 16 346 12 Q346 7 338 2 Q287 -25 266 -47 Q245 -69 245 -89 Q245 -105 255.5 -113.5 Q266 -122 283 -122 Q295 -122 306 -119 L311 -119 Q322 -119 321 -132 L316 -167 Q315 -178 307 -181 Q280 -192 243 -192 Z " />
<glyph glyph-name="slashshortcomb" unicode="&#x337;" horiz-adv-x="447" d="M35 -44 Q23 -44 23 -35 Q23 -32 26 -27 L427 533 Q433 542 444 542 L473 542 Q485 542 485 533 Q485 529 482 525 L82 -35 Q76 -44 65 -44 L35 -44 L35 -44 Z " />
<glyph glyph-name="slashlongcomb" unicode="&#x338;" horiz-adv-x="611" d="M36 -43 Q24 -43 24 -34 Q24 -31 27 -26 L615 735 Q620 743 632 743 L661 743 Q673 743 673 734 Q673 730 670 726 L83 -35 Q78 -43 66 -43 L36 -43 L36 -43 Z " />
<glyph glyph-name="acute" unicode="&#xb4;" horiz-adv-x="500" d="M165 534 Q154 534 154 543 Q154 548 156 551 L251 718 Q256 728 269 726 L385 710 Q396 708 396 701 Q396 697 391 692 L245 541 Q238 534 228 534 L165 534 L165 534 Z " />
<glyph glyph-name="breve" unicode="&#x2d8;" horiz-adv-x="500" d="M292 575 Q234 575 197.5 612 Q161 649 161 708 L161 710 Q161 722 175 722 L213 722 Q226 722 228 708 Q231 681 249 664 Q267 647 299 647 Q332 647 354 664.5 Q376 682 387 710 Q391 722 403 722 L441 722 Q448 722 451.5 717.5 Q455 713 453 705 Q445 676 429.5 652.5 Q414 629 393 611.5 Q372 594 346 584.5 Q320 575 292 575 Z " />
<glyph glyph-name="caron" unicode="&#x2c7;" horiz-adv-x="500" d="M330 713 Q338 721 347 721 L412 721 Q424 721 424 712 Q424 708 421 704 L318 552 Q313 543 301 543 L225 543 Q214 543 208 552 L116 704 Q113 708 113 711 Q113 721 126 721 L194 721 Q206 721 211 713 L267 639 L330 713 L330 713 Z " />
<glyph glyph-name="cedilla" unicode="&#xb8;" horiz-adv-x="500" d="M232 -38 Q266 -39 286.5 -55 Q307 -71 307 -100 Q307 -121 297 -138 Q287 -155 269.5 -167 Q252 -179 229 -185.5 Q206 -192 181 -192 Q158 -192 140.5 -188.5 Q123 -185 110 -180 Q99 -175 101 -163 L105 -133 Q107 -117 122 -124 Q133 -128 146 -131 Q159 -134 174 -134 Q195 -134 209 -126.5 Q223 -119 223 -106 Q223 -94 211.5 -87.5 Q200 -81 183 -81 Q175 -81 167 -82 Q159 -83 151 -85 Q149 -83 148 -80 Q147 -78 147 -75.5 Q147 -73 149 -69 L207 16 Q212 25 224 25 L256 25 Q268 25 268 16 Q268 12 265 8 L232 -38 L232 -38 Z " />
<glyph glyph-name="circumflex" unicode="&#x2c6;" horiz-adv-x="500" d="M445 572 Q447 568 447 566 Q447 555 434 555 L377 555 Q367 555 360 565 L303 662 L221 563 Q215 555 204 555 L145 555 Q134 555 134 563 Q134 567 137 572 L263 739 Q268 747 280 747 L345 747 Q357 747 361 737 L445 572 L445 572 Z " />
<glyph glyph-name="dieresis" unicode="&#xa8;" horiz-adv-x="500" d="M212 605 Q189 605 175.5 621 Q162 637 162 660 Q162 688 180.5 708 Q199 728 227 728 Q250 728 264 712 Q278 696 278 673 Q278 645 258.5 625 Q239 605 212 605 Z M379 605 Q356 605 342.5 621 Q329 637 329 660 Q329 688 347.5 708 Q366 728 394 728 Q417 728 431 712 Q445 696 445 673 Q445 645 425.5 625 Q406 605 379 605 Z " />
<glyph glyph-name="dotaccent" unicode="&#x2d9;" horiz-adv-x="500" d="M296 598 Q268 598 251 617 Q234 636 234 665 Q234 699 257 723.5 Q280 748 314 748 Q342 748 359 728.5 Q376 709 376 681 Q376 647 352.5 622.5 Q329 598 296 598 Z " />
<glyph glyph-name="grave" unicode="&#x60;" horiz-adv-x="500" d="M441 551 Q443 548 443 543 Q443 534 432 534 L369 534 Q359 534 352 541 L206 692 Q201 697 201 701 Q201 708 212 710 L328 726 L332 726 Q342 726 346 718 L441 551 L441 551 Z " />
<glyph glyph-name="hungarumlaut" unicode="&#x2dd;" horiz-adv-x="500" d="M120 552 Q103 552 109 568 L200 766 Q204 777 218 774 L301 751 Q310 748 310 740 Q310 735 308 732 L197 561 Q192 552 180 552 L120 552 Z M284 552 Q276 552 273 557 Q270 562 274 569 L372 767 Q378 778 390 775 L482 751 Q491 748 491 741 Q491 736 488 732 L357 560 Q352 552 340 552 L284 552 Z " />
<glyph glyph-name="macron" unicode="&#xaf;" horiz-adv-x="500" d="M156 608 Q141 608 143 623 L149 679 Q151 692 163 692 L445 692 Q459 692 458 677 L452 621 Q450 608 438 608 L156 608 L156 608 Z " />
<glyph glyph-name="ogonek" unicode="&#x2db;" horiz-adv-x="500" d="M215 -192 Q173 -192 144.5 -168.5 Q116 -145 116 -105 Q116 -55 158.5 -21.5 Q201 12 275 41 Q281 43 283 43 Q287 43 294 38 L313 21 Q318 16 318 12 Q318 7 310 2 Q259 -25 238 -47 Q217 -69 217 -89 Q217 -105 227.5 -113.5 Q238 -122 255 -122 Q267 -122 278 -119 L283 -119 Q294 -119 293 -132 L288 -167 Q287 -178 279 -181 Q252 -192 215 -192 Z " />
<glyph glyph-name="ring" unicode="&#x2da;" horiz-adv-x="500" d="M287 544 Q247 544 219 570 Q191 596 191 638 Q191 663 201.5 683.5 Q212 704 229 719 Q246 734 267.5 742 Q289 750 312 750 Q351 750 380 725 Q409 700 409 659 Q409 634 398.5 613 Q388 592 371 576.5 Q354 561 332 552.5 Q310 544 287 544 Z M293 598 Q316 598 332 614 Q348 630 348 653 Q348 672 336.5 684 Q325 696 306 696 Q283 696 267.5 680.5 Q252 665 252 642 Q252 623 263.5 610.5 Q275 598 293 598 Z " />
<glyph glyph-name="tilde" unicode="&#x2dc;" horiz-adv-x="500" d="M366 565 Q342 565 323.5 576.5 Q305 588 290 600 Q277 611 264.5 620 Q252 629 237 629 Q221 629 210 617 Q199 605 195 580 Q192 567 180 567 L137 567 Q121 567 123 582 Q126 611 135 637.5 Q144 664 158 683.5 Q172 703 192 714.5 Q212 726 237 726 Q264 726 283 713 Q302 700 318 686 Q331 675 342 667.5 Q353 660 366 660 Q383 660 392 672.5 Q401 685 405 706 Q407 719 419 719 L464 719 Q480 719 477 700 Q473 672 463.5 647.5 Q454 623 440 604.5 Q426 586 407 575.5 Q388 565 366 565 Z " />
<glyph glyph-name="A" unicode="A" horiz-adv-x="666" d="M505 0 Q492 0 489 12 Q481 48 473 84 Q465 120 457 156 L187 156 Q170 119 152.5 83 Q135 47 118 10 Q114 0 102 0 L-15 0 Q-23 0 -26.5 5 Q-30 10 -26 17 L325 702 Q329 712 341 712 L439 712 Q451 712 454 700 L637 16 Q637 14 637.5 13.5 Q638 13 638 12 Q636 0 625 0 L505 0 Z M434 261 L371 544 Q337 474 304 403.5 Q271 333 237 261 L434 261 Z " />
<glyph glyph-name="Aacute" unicode="&#xc1;" horiz-adv-x="667" d="M505 0 Q492 0 489 12 Q481 48 473 84 Q465 120 457 156 L187 156 Q170 119 152.5 83 Q135 47 118 10 Q114 0 102 0 L-15 0 Q-23 0 -26.5 5 Q-30 10 -26 17 L325 702 Q329 712 341 712 L439 712 Q451 712 454 700 L637 16 Q637 14 637.5 13.5 Q638 13 638 12 Q636 0 625 0 L505 0 Z M434 261 L371 544 Q337 474 304 403.5 Q271 333 237 261 L434 261 Z M358 759 Q346 759 346 768 Q346 770 348 776 L417 900 Q424 910 433 910 L541 910 Q552 910 552 902 Q552 897 548 893 L426 766 Q419 759 409 759 L358 759 L358 759 Z " />
</font>
</svg>
