<?xml version="1.0" encoding="UTF-8"?>
<svg xmlns="http://www.w3.org/2000/svg" xmlns:xlink="http://www.w3.org/1999/xlink" version="1.2" >
<font id="GlobotipoTexto-Thin">
<font-face  font-family="Globotipo Texto" units-per-em="1000" ascent="1000" descent="-400" font-style="normal" font-weight="100" font-stretch="normal" cap-height="710" x-height="480" underline-position="-75" underline-thickness="50" />
<missing-glyph  horiz-adv-x="700" d="M350 709 Q423 709 487.5 681 Q552 653 600 605 Q648 557 676 492.5 Q704 428 704 355 Q704 281 676 216.5 Q648 152 600 104 Q552 56 487.5 28 Q423 0 350 0 Q276 0 211.5 28 Q147 56 99 104 Q51 152 23 216.5 Q-5 281 -5 355 Q-5 428 23 492.5 Q51 557 99 605 Q147 653 211.5 681 Q276 709 350 709 Z M350 20 Q419 20 480 46.5 Q541 73 586 118.5 Q631 164 657.5 225 Q684 286 684 355 Q684 424 657.5 485 Q631 546 586 591 Q541 636 480 662.5 Q419 689 350 689 Q281 689 220 662.5 Q159 636 113.5 591 Q68 546 41.5 485 Q15 424 15 355 Q15 286 41.5 225 Q68 164 113.5 118.5 Q159 73 220 46.5 Q281 20 350 20 Z M569 559 L364 354 L569 149 L555 135 L350 340 L145 135 L131 149 L336 354 L131 559 L145 573 L350 368 L555 573 L569 559 Z " />
<glyph glyph-name=".null" d="" />
<glyph glyph-name="nonmarkingreturn" unicode="&#xd;" horiz-adv-x="218" d="" />
<glyph glyph-name="space" unicode="&#x20;" horiz-adv-x="218" d="" />
<glyph glyph-name="Adieresis" unicode="&#xc4;" horiz-adv-x="626" d="M608 6 Q609 3 608.5 1.5 Q608 0 603 0 L582 0 Q576 0 573 7 Q549 67 525.5 127 Q502 187 478 248 L145 248 Q121 187 96.5 126.5 Q72 66 48 6 Q46 0 39 0 L20 0 Q13 0 17 6 L300 709 Q301 715 309 715 L318 715 Q323 715 327 709 L608 6 Z M466 277 L312 670 Q274 570 235 472.5 Q196 375 157 277 L466 277 Z M238 780 Q219 780 208 793 Q197 806 197 823 Q197 841 208 854 Q219 867 238 867 Q257 867 268 854 Q279 841 279 823 Q279 806 268 793 Q257 780 238 780 Z M388 780 Q369 780 358 793 Q347 806 347 823 Q347 841 358 854 Q369 867 388 867 Q407 867 418 854 Q429 841 429 823 Q429 806 418 793 Q407 780 388 780 Z " />
<glyph glyph-name="Agrave" unicode="&#xc0;" horiz-adv-x="626" d="M608 6 Q609 3 608.5 1.5 Q608 0 603 0 L582 0 Q576 0 573 7 Q549 67 525.5 127 Q502 187 478 248 L145 248 Q121 187 96.5 126.5 Q72 66 48 6 Q46 0 39 0 L20 0 Q13 0 17 6 L300 709 Q301 715 309 715 L318 715 Q323 715 327 709 L608 6 Z M466 277 L312 670 Q274 570 235 472.5 Q196 375 157 277 L466 277 Z M315 770 Q318 765 311 765 L300 765 Q294 765 290 770 L194 888 Q189 893 197 893 L241 893 Q246 893 250 887 L315 770 L315 770 Z " />
<glyph glyph-name="Aring" unicode="&#xc5;" horiz-adv-x="626" d="M608 6 Q609 3 608.5 1.5 Q608 0 603 0 L582 0 Q576 0 573 7 Q549 67 525.5 127 Q502 187 478 248 L145 248 Q121 187 96.5 126.5 Q72 66 48 6 Q46 0 39 0 L20 0 Q13 0 17 6 L300 709 Q301 715 309 715 L318 715 Q323 715 327 709 L608 6 Z M466 277 L312 670 Q274 570 235 472.5 Q196 375 157 277 L466 277 Z M312 743 Q278 743 255.5 766.5 Q233 790 233 825 Q233 860 255.5 882.5 Q278 905 312 905 Q345 905 368 882.5 Q391 860 391 825 Q391 790 368.5 766.5 Q346 743 312 743 Z M312 763 Q337 763 353 781 Q369 799 369 825 Q369 852 353 869 Q337 886 312 886 Q286 886 270.5 869 Q255 852 255 825 Q255 799 270.5 781 Q286 763 312 763 Z " />
<glyph glyph-name="Atilde" unicode="&#xc3;" horiz-adv-x="626" d="M608 6 Q609 3 608.5 1.5 Q608 0 603 0 L582 0 Q576 0 573 7 Q549 67 525.5 127 Q502 187 478 248 L145 248 Q121 187 96.5 126.5 Q72 66 48 6 Q46 0 39 0 L20 0 Q13 0 17 6 L300 709 Q301 715 309 715 L318 715 Q323 715 327 709 L608 6 Z M466 277 L312 670 Q274 570 235 472.5 Q196 375 157 277 L466 277 Z M254 849 Q230 849 217.5 828.5 Q205 808 203 776 Q203 770 197 770 L186 770 Q180 770 180 776 Q182 818 201 847 Q220 876 253 876 Q280 876 294.5 862 Q309 848 321 834 Q332 821 343.5 810 Q355 799 374 799 Q396 799 407 818 Q418 837 420 866 Q420 872 426 872 L438 872 Q444 872 444 866 Q442 825 424 798 Q406 771 374 771 Q348 771 332.5 784.5 Q317 798 306 813 Q295 827 284.5 838 Q274 849 254 849 Z " />
<glyph glyph-name="AE" unicode="&#xc6;" horiz-adv-x="783" d="M457 682 L457 387 L698 387 Q704 387 704 380 L704 365 Q704 359 697 359 L457 359 L457 28 L722 28 Q728 28 728 21 L728 6 Q728 0 721 0 L433 0 Q427 0 427 7 L427 226 L176 226 L48 5 Q45 0 38 0 L19 0 Q13 0 17 6 L420 705 Q423 710 430 710 L722 710 Q728 710 728 703 L728 688 Q728 682 721 682 L457 682 Z M427 254 L427 660 L192 254 L427 254 Z " />
<glyph glyph-name="B" unicode="B" horiz-adv-x="504" d="M295 370 Q379 361 424.5 313.5 Q470 266 470 197 Q470 153 453 117 Q436 81 404.5 55 Q373 29 329 14.5 Q285 0 230 0 L90 0 Q84 0 84 7 L84 704 Q84 710 91 710 L208 710 Q311 710 371.5 663.5 Q432 617 432 537 Q432 508 423.5 481 Q415 454 398 431.5 Q381 409 355 393 Q329 377 295 371 L295 370 Z M114 682 L114 381 L229 381 Q305 381 353.5 421 Q402 461 402 535 Q402 604 351 643 Q300 682 209 682 L114 682 Z M229 27 Q327 27 383 74 Q439 121 439 198 Q439 234 425 262.5 Q411 291 385.5 311 Q360 331 325.5 342 Q291 353 249 353 L114 353 L114 27 L229 27 Z " />
<glyph glyph-name="C" unicode="C" horiz-adv-x="636" d="M410 -11 Q333 -11 266.5 15 Q200 41 150.5 89.5 Q101 138 72.5 206.5 Q44 275 44 359 Q44 442 72.5 508.5 Q101 575 151 622 Q201 669 267.5 694.5 Q334 720 411 720 Q456 720 497 711 Q538 702 571 690 Q577 688 577 681 L577 668 Q577 655 565 660 Q533 674 495 683 Q457 692 412 692 Q341 692 279 668.5 Q217 645 171.5 601.5 Q126 558 100 497 Q74 436 74 360 Q74 280 100 217 Q126 154 171.5 110 Q217 66 279 42.5 Q341 19 412 19 Q459 19 499.5 27.5 Q540 36 574 48 Q577 49 580 49 Q586 49 586 40 L586 28 Q586 22 580 20 Q545 7 502 -2 Q459 -11 410 -11 Z " />
<glyph glyph-name="Ccedilla" unicode="&#xc7;" horiz-adv-x="636" d="M574 48 Q577 49 580 49 Q586 49 586 40 L586 28 Q586 22 580 20 Q545 7 502 -2 Q459 -11 410 -11 L404 -11 L375 -48 Q380 -47 386 -46.5 Q392 -46 397 -46 Q427 -46 446 -62 Q465 -78 465 -104 Q465 -135 439.5 -153.5 Q414 -172 379 -172 Q344 -172 315 -159 Q310 -156 310 -150 L310 -140 Q310 -135 315 -137 Q329 -143 344.5 -147 Q360 -151 378 -151 Q403 -151 422 -139 Q441 -127 441 -105 Q441 -85 425 -75 Q409 -65 388 -65 Q360 -65 339 -73 L337 -71 L382 -10 Q310 -6 248.5 22 Q187 50 141.5 98 Q96 146 70 212 Q44 278 44 359 Q44 442 72.5 508.5 Q101 575 151 622 Q201 669 267.5 694.5 Q334 720 411 720 Q456 720 497 711 Q538 702 571 690 Q577 688 577 681 L577 668 Q577 655 565 660 Q533 674 495 683 Q457 692 412 692 Q341 692 279 668.5 Q217 645 171.5 601.5 Q126 558 100 497 Q74 436 74 360 Q74 280 100 217 Q126 154 171.5 110 Q217 66 279 42.5 Q341 19 412 19 Q459 19 499.5 27.5 Q540 36 574 48 Z " />
<glyph glyph-name="D" unicode="D" horiz-adv-x="654" d="M84 704 Q84 710 91 710 L201 710 Q292 710 367 684 Q442 658 496 611 Q550 564 580 498 Q610 432 610 352 Q610 273 580.5 208.5 Q551 144 497.5 97.5 Q444 51 368.5 25.5 Q293 0 201 0 L90 0 Q84 0 84 7 L84 704 Z M114 683 L114 27 L202 28 Q287 28 357 51 Q427 74 476.5 116.5 Q526 159 553 219 Q580 279 580 352 Q580 427 553 487.5 Q526 548 476.5 591.5 Q427 635 357 658.5 Q287 682 202 682 L114 683 Z " />
<glyph glyph-name="Eth" unicode="&#xd0;" horiz-adv-x="632" d="M201 710 Q292 710 367 684 Q442 658 496 611 Q550 564 580 498 Q610 432 610 352 Q610 273 580.5 208.5 Q551 144 497.5 97.5 Q444 51 368.5 25.5 Q293 0 201 0 L90 0 Q84 0 84 7 L84 359 L22 359 Q16 359 16 366 L16 379 Q16 385 23 385 L84 385 L84 704 Q84 710 91 710 L201 710 Z M202 28 Q287 28 357 51 Q427 74 476.5 116.5 Q526 159 553 219 Q580 279 580 352 Q580 427 553 487.5 Q526 548 476.5 591.5 Q427 635 357 658.5 Q287 682 202 682 L114 683 L114 385 L344 385 Q350 385 350 378 L350 365 Q350 359 343 359 L114 359 L114 27 L202 28 Z " />
<glyph glyph-name="E" unicode="E" horiz-adv-x="484" d="M114 681 L114 388 L394 388 Q400 388 400 381 L400 365 Q400 359 393 359 L114 359 L114 29 L423 29 Q429 29 429 22 L429 6 Q429 0 422 0 L89 0 Q83 0 83 7 L83 704 Q83 710 90 710 L423 710 Q429 710 429 703 L429 687 Q429 681 422 681 L114 681 Z " />
<glyph glyph-name="Eacute" unicode="&#xc9;" horiz-adv-x="484" d="M114 681 L114 388 L394 388 Q400 388 400 381 L400 365 Q400 359 393 359 L114 359 L114 29 L423 29 Q429 29 429 22 L429 6 Q429 0 422 0 L89 0 Q83 0 83 7 L83 704 Q83 710 90 710 L423 710 Q429 710 429 703 L429 687 Q429 681 422 681 L114 681 Z M241 764 Q234 764 238 770 L303 887 Q306 892 313 892 L357 892 Q363 892 358 886 L263 769 Q261 767 259 765.5 Q257 764 252 764 L241 764 L241 764 Z " />
<glyph glyph-name="Ecircumflex" unicode="&#xca;" horiz-adv-x="484" d="M114 681 L114 388 L394 388 Q400 388 400 381 L400 365 Q400 359 393 359 L114 359 L114 29 L423 29 Q429 29 429 22 L429 6 Q429 0 422 0 L89 0 Q83 0 83 7 L83 704 Q83 710 90 710 L423 710 Q429 710 429 703 L429 687 Q429 681 422 681 L114 681 Z M380 761 Q385 756 378 756 L358 756 Q352 756 348 760 L255 860 L161 760 Q157 756 151 756 L131 756 Q125 756 129 761 L238 887 Q243 892 248 892 L261 892 Q267 892 271 887 L380 761 L380 761 Z " />
<glyph glyph-name="Edieresis" unicode="&#xcb;" horiz-adv-x="484" d="M114 681 L114 388 L394 388 Q400 388 400 381 L400 365 Q400 359 393 359 L114 359 L114 29 L423 29 Q429 29 429 22 L429 6 Q429 0 422 0 L89 0 Q83 0 83 7 L83 704 Q83 710 90 710 L423 710 Q429 710 429 703 L429 687 Q429 681 422 681 L114 681 Z M181 780 Q162 780 151 793 Q140 806 140 823 Q140 841 151 854 Q162 867 181 867 Q200 867 211 854 Q222 841 222 823 Q222 806 211 793 Q200 780 181 780 Z M331 780 Q312 780 301 793 Q290 806 290 823 Q290 841 301 854 Q312 867 331 867 Q350 867 361 854 Q372 841 372 823 Q372 806 361 793 Q350 780 331 780 Z " />
<glyph glyph-name="Egrave" unicode="&#xc8;" horiz-adv-x="484" d="M114 681 L114 388 L394 388 Q400 388 400 381 L400 365 Q400 359 393 359 L114 359 L114 29 L423 29 Q429 29 429 22 L429 6 Q429 0 422 0 L89 0 Q83 0 83 7 L83 704 Q83 710 90 710 L423 710 Q429 710 429 703 L429 687 Q429 681 422 681 L114 681 Z M258 770 Q261 765 254 765 L243 765 Q237 765 233 770 L137 888 Q132 893 140 893 L184 893 Q189 893 193 887 L258 770 L258 770 Z " />
<glyph glyph-name="F" unicode="F" horiz-adv-x="457" d="M410 710 Q416 710 416 703 L416 687 Q416 681 409 681 L114 681 L114 366 L391 366 Q397 366 397 359 L397 343 Q397 337 390 337 L114 337 L114 6 Q114 0 107 0 L90 0 Q84 0 84 7 L84 704 Q84 710 90 710 L410 710 L410 710 Z " />
<glyph glyph-name="G" unicode="G" horiz-adv-x="745" d="M403 -11 Q329 -11 263.5 15.5 Q198 42 149 90.5 Q100 139 71.5 206.5 Q43 274 43 355 Q43 437 72.5 504.5 Q102 572 152.5 620 Q203 668 271 694 Q339 720 417 720 Q471 720 533 706 Q595 692 645 660 Q650 657 650 650 L650 637 Q650 628 646 628 Q643 628 639 631 Q591 662 531 676.5 Q471 691 417 691 Q346 691 284 667 Q222 643 175 599 Q128 555 101 493 Q74 431 74 354 Q74 279 100.5 217 Q127 155 172 111 Q217 67 276.5 43 Q336 19 402 19 Q461 19 513 38.5 Q565 58 603.5 94.5 Q642 131 664.5 184 Q687 237 687 305 L442 305 Q436 305 436 312 L436 326 Q436 332 443 332 L709 332 Q716 332 716 325 L716 319 Q716 238 691.5 176 Q667 114 624.5 72.5 Q582 31 525 10 Q468 -11 403 -11 Z " />
<glyph glyph-name="H" unicode="H" horiz-adv-x="648" d="M558 710 Q564 710 564 703 L564 6 Q564 0 557 0 L540 0 Q534 0 534 7 L534 358 L114 358 L114 6 Q114 0 107 0 L90 0 Q84 0 84 7 L84 704 Q84 710 91 710 L108 710 Q114 710 114 703 L114 385 L534 385 L534 704 Q534 710 541 710 L558 710 L558 710 Z " />
<glyph glyph-name="I" unicode="I" horiz-adv-x="223" d="M102 0 Q96 0 96 7 L96 704 Q96 710 103 710 L121 710 Q127 710 127 703 L127 6 Q127 0 120 0 L102 0 L102 0 Z " />
<glyph glyph-name="Iacute" unicode="&#xcd;" horiz-adv-x="223" d="M102 0 Q96 0 96 7 L96 704 Q96 710 103 710 L121 710 Q127 710 127 703 L127 6 Q127 0 120 0 L102 0 L102 0 Z M98 764 Q91 764 95 770 L160 887 Q163 892 170 892 L214 892 Q220 892 215 886 L120 769 Q118 767 116 765.5 Q114 764 109 764 L98 764 L98 764 Z " />
<glyph glyph-name="Icircumflex" unicode="&#xce;" horiz-adv-x="223" d="M102 0 Q96 0 96 7 L96 704 Q96 710 103 710 L121 710 Q127 710 127 703 L127 6 Q127 0 120 0 L102 0 L102 0 Z M237 761 Q242 756 235 756 L215 756 Q209 756 205 760 L112 860 L18 760 Q14 756 8 756 L-12 756 Q-18 756 -14 761 L95 887 Q100 892 105 892 L118 892 Q124 892 128 887 L237 761 L237 761 Z " />
<glyph glyph-name="Idieresis" unicode="&#xcf;" horiz-adv-x="223" d="M102 0 Q96 0 96 7 L96 704 Q96 710 103 710 L121 710 Q127 710 127 703 L127 6 Q127 0 120 0 L102 0 L102 0 Z M38 780 Q19 780 8 793 Q-3 806 -3 823 Q-3 841 8 854 Q19 867 38 867 Q57 867 68 854 Q79 841 79 823 Q79 806 68 793 Q57 780 38 780 Z M188 780 Q169 780 158 793 Q147 806 147 823 Q147 841 158 854 Q169 867 188 867 Q207 867 218 854 Q229 841 229 823 Q229 806 218 793 Q207 780 188 780 Z " />
<glyph glyph-name="Igrave" unicode="&#xcc;" horiz-adv-x="223" d="M102 0 Q96 0 96 7 L96 704 Q96 710 103 710 L121 710 Q127 710 127 703 L127 6 Q127 0 120 0 L102 0 L102 0 Z M115 770 Q118 765 111 765 L100 765 Q94 765 90 770 L-6 888 Q-11 893 -3 893 L41 893 Q46 893 50 887 L115 770 L115 770 Z " />
<glyph glyph-name="J" unicode="J" horiz-adv-x="357" d="M132 -10 Q94 -10 67 -3 Q40 4 20 15 Q15 18 15 25 L15 47 Q15 51 17 51 Q18 51 26 46 Q45 35 73.5 27.5 Q102 20 131 20 Q179 20 213.5 52 Q248 84 248 151 L248 704 Q248 710 254 710 L272 710 Q278 710 278 704 L278 152 Q278 71 237.5 30.5 Q197 -10 132 -10 Z " />
<glyph glyph-name="K" unicode="K" horiz-adv-x="508" d="M487 9 Q491 5 491 3 Q491 0 483 0 L461 0 Q455 0 450 5 L114 363 L114 6 Q114 0 107 0 L89 0 Q83 0 83 7 L83 704 Q83 710 90 710 L108 710 Q114 710 114 703 L114 371 L440 706 Q444 710 451 710 L473 710 Q486 710 477 701 L148 368 L487 9 L487 9 Z " />
<glyph glyph-name="L" unicode="L" horiz-adv-x="451" d="M418 30 Q424 30 424 23 L424 6 Q424 0 417 0 L90 0 Q84 0 84 7 L84 704 Q84 710 91 710 L108 710 Q114 710 114 703 L114 30 L418 30 L418 30 Z " />
<glyph glyph-name="Lslash" unicode="&#x141;" horiz-adv-x="451" d="M418 30 Q424 30 424 23 L424 6 Q424 0 417 0 L90 0 Q84 0 84 7 L84 361 L35 342 Q29 340 29 347 L29 359 Q29 364 36 368 L84 387 L84 704 Q84 710 91 710 L108 710 Q114 710 114 703 L114 398 L186 426 Q189 427 190.5 426.5 Q192 426 192 421 L192 409 Q192 403 185 400 L114 373 L114 30 L418 30 L418 30 Z " />
<glyph glyph-name="M" unicode="M" horiz-adv-x="841" d="M802 6 Q803 0 796 0 L776 0 Q770 0 769 7 L658 667 L438 31 Q436 25 429 25 L412 25 Q406 25 404 32 L184 667 L70 6 Q69 3 68 1.5 Q67 0 62 0 L39 0 Q38 0 38 1 L161 706 Q162 712 169 712 L193 712 Q199 712 201 705 L422 69 L642 706 Q643 712 651 712 L673 712 Q679 712 680 705 L802 6 L802 6 Z " />
<glyph glyph-name="N" unicode="N" horiz-adv-x="705" d="M615 710 Q621 710 621 703 L621 6 Q621 0 614 0 L600 0 Q594 0 590 6 L113 653 L113 6 Q113 0 106 0 L90 0 Q84 0 84 7 L84 704 Q84 710 91 710 L105 710 Q111 710 115 704 L592 55 L592 704 Q592 710 599 710 L615 710 L615 710 Z " />
<glyph glyph-name="Ntilde" unicode="&#xd1;" horiz-adv-x="705" d="M615 710 Q621 710 621 703 L621 6 Q621 0 614 0 L600 0 Q594 0 590 6 L113 653 L113 6 Q113 0 106 0 L90 0 Q84 0 84 7 L84 704 Q84 710 91 710 L105 710 Q111 710 115 704 L592 55 L592 704 Q592 710 599 710 L615 710 L615 710 Z M294 849 Q270 849 257.5 828.5 Q245 808 243 776 Q243 770 237 770 L226 770 Q220 770 220 776 Q222 818 241 847 Q260 876 293 876 Q320 876 334.5 862 Q349 848 361 834 Q372 821 383.5 810 Q395 799 414 799 Q436 799 447 818 Q458 837 460 866 Q460 872 466 872 L478 872 Q484 872 484 866 Q482 825 464 798 Q446 771 414 771 Q388 771 372.5 784.5 Q357 798 346 813 Q335 827 324.5 838 Q314 849 294 849 Z " />
<glyph glyph-name="O" unicode="O" horiz-adv-x="819" d="M409 -11 Q334 -11 267 16.5 Q200 44 150.5 92.5 Q101 141 72 207.5 Q43 274 43 351 Q43 430 72.5 497.5 Q102 565 152 614.5 Q202 664 268.5 692 Q335 720 409 720 Q484 720 550.5 692 Q617 664 667 614.5 Q717 565 746 497.5 Q775 430 775 351 Q775 274 746 208 Q717 142 667.5 93 Q618 44 551 16.5 Q484 -11 409 -11 Z M409 18 Q478 18 539.5 43.5 Q601 69 647 113.5 Q693 158 719.5 219 Q746 280 746 351 Q746 424 719.5 486.5 Q693 549 647 594.5 Q601 640 539.5 666 Q478 692 409 692 Q340 692 278.5 666 Q217 640 171.5 594.5 Q126 549 99.5 486.5 Q73 424 73 351 Q73 280 99.5 219 Q126 158 171.5 113.5 Q217 69 278.5 43.5 Q340 18 409 18 Z " />
<glyph glyph-name="Oacute" unicode="&#xd3;" horiz-adv-x="820" d="M409 -11 Q334 -11 267 16.5 Q200 44 150.5 92.5 Q101 141 72 207.5 Q43 274 43 351 Q43 430 72.5 497.5 Q102 565 152 614.5 Q202 664 268.5 692 Q335 720 409 720 Q484 720 550.5 692 Q617 664 667 614.5 Q717 565 746 497.5 Q775 430 775 351 Q775 274 746 208 Q717 142 667.5 93 Q618 44 551 16.5 Q484 -11 409 -11 Z M409 18 Q478 18 539.5 43.5 Q601 69 647 113.5 Q693 158 719.5 219 Q746 280 746 351 Q746 424 719.5 486.5 Q693 549 647 594.5 Q601 640 539.5 666 Q478 692 409 692 Q340 692 278.5 666 Q217 640 171.5 594.5 Q126 549 99.5 486.5 Q73 424 73 351 Q73 280 99.5 219 Q126 158 171.5 113.5 Q217 69 278.5 43.5 Q340 18 409 18 Z M395 764 Q388 764 392 770 L457 887 Q460 892 467 892 L511 892 Q517 892 512 886 L417 769 Q415 767 413 765.5 Q411 764 406 764 L395 764 L395 764 Z " />
<glyph glyph-name="Ocircumflex" unicode="&#xd4;" horiz-adv-x="820" d="M409 -11 Q334 -11 267 16.5 Q200 44 150.5 92.5 Q101 141 72 207.5 Q43 274 43 351 Q43 430 72.5 497.5 Q102 565 152 614.5 Q202 664 268.5 692 Q335 720 409 720 Q484 720 550.5 692 Q617 664 667 614.5 Q717 565 746 497.5 Q775 430 775 351 Q775 274 746 208 Q717 142 667.5 93 Q618 44 551 16.5 Q484 -11 409 -11 Z M409 18 Q478 18 539.5 43.5 Q601 69 647 113.5 Q693 158 719.5 219 Q746 280 746 351 Q746 424 719.5 486.5 Q693 549 647 594.5 Q601 640 539.5 666 Q478 692 409 692 Q340 692 278.5 666 Q217 640 171.5 594.5 Q126 549 99.5 486.5 Q73 424 73 351 Q73 280 99.5 219 Q126 158 171.5 113.5 Q217 69 278.5 43.5 Q340 18 409 18 Z M534 761 Q539 756 532 756 L512 756 Q506 756 502 760 L409 860 L315 760 Q311 756 305 756 L285 756 Q279 756 283 761 L392 887 Q397 892 402 892 L415 892 Q421 892 425 887 L534 761 L534 761 Z " />
<glyph glyph-name="Odieresis" unicode="&#xd6;" horiz-adv-x="820" d="M409 -11 Q334 -11 267 16.5 Q200 44 150.5 92.5 Q101 141 72 207.5 Q43 274 43 351 Q43 430 72.5 497.5 Q102 565 152 614.5 Q202 664 268.5 692 Q335 720 409 720 Q484 720 550.5 692 Q617 664 667 614.5 Q717 565 746 497.5 Q775 430 775 351 Q775 274 746 208 Q717 142 667.5 93 Q618 44 551 16.5 Q484 -11 409 -11 Z M409 18 Q478 18 539.5 43.5 Q601 69 647 113.5 Q693 158 719.5 219 Q746 280 746 351 Q746 424 719.5 486.5 Q693 549 647 594.5 Q601 640 539.5 666 Q478 692 409 692 Q340 692 278.5 666 Q217 640 171.5 594.5 Q126 549 99.5 486.5 Q73 424 73 351 Q73 280 99.5 219 Q126 158 171.5 113.5 Q217 69 278.5 43.5 Q340 18 409 18 Z M335 780 Q316 780 305 793 Q294 806 294 823 Q294 841 305 854 Q316 867 335 867 Q354 867 365 854 Q376 841 376 823 Q376 806 365 793 Q354 780 335 780 Z M485 780 Q466 780 455 793 Q444 806 444 823 Q444 841 455 854 Q466 867 485 867 Q504 867 515 854 Q526 841 526 823 Q526 806 515 793 Q504 780 485 780 Z " />
<glyph glyph-name="Ograve" unicode="&#xd2;" horiz-adv-x="820" d="M409 -11 Q334 -11 267 16.5 Q200 44 150.5 92.5 Q101 141 72 207.5 Q43 274 43 351 Q43 430 72.5 497.5 Q102 565 152 614.5 Q202 664 268.5 692 Q335 720 409 720 Q484 720 550.5 692 Q617 664 667 614.5 Q717 565 746 497.5 Q775 430 775 351 Q775 274 746 208 Q717 142 667.5 93 Q618 44 551 16.5 Q484 -11 409 -11 Z M409 18 Q478 18 539.5 43.5 Q601 69 647 113.5 Q693 158 719.5 219 Q746 280 746 351 Q746 424 719.5 486.5 Q693 549 647 594.5 Q601 640 539.5 666 Q478 692 409 692 Q340 692 278.5 666 Q217 640 171.5 594.5 Q126 549 99.5 486.5 Q73 424 73 351 Q73 280 99.5 219 Q126 158 171.5 113.5 Q217 69 278.5 43.5 Q340 18 409 18 Z M412 770 Q415 765 408 765 L397 765 Q391 765 387 770 L291 888 Q286 893 294 893 L338 893 Q343 893 347 887 L412 770 L412 770 Z " />
<glyph glyph-name="Oslash" unicode="&#xd8;" horiz-adv-x="820" d="M590 673 Q631 649 665 616 Q699 583 723.5 541.5 Q748 500 761.5 452 Q775 404 775 351 Q775 274 746 208 Q717 142 667.5 93 Q618 44 551 16.5 Q484 -11 409 -11 Q319 -11 245 27 L214 -31 Q211 -36 204 -36 L194 -36 Q187 -36 191 -30 L226 36 Q185 59 151.5 91.5 Q118 124 94 164.5 Q70 205 56.5 252 Q43 299 43 351 Q43 430 72.5 497.5 Q102 565 152 614.5 Q202 664 268.5 692 Q335 720 409 720 Q496 720 572 682 L602 739 Q605 744 612 744 L622 744 Q629 744 625 738 L590 673 Z M73 351 Q73 256 119 180.5 Q165 105 240 62 L559 658 Q488 692 409 692 Q340 692 278.5 666 Q217 640 171.5 594.5 Q126 549 99.5 486.5 Q73 424 73 351 Z M409 18 Q478 18 539.5 43.5 Q601 69 647 113.5 Q693 158 719.5 219 Q746 280 746 351 Q746 450 699.5 527 Q653 604 577 648 L259 52 Q329 18 409 18 Z " />
<glyph glyph-name="Otilde" unicode="&#xd5;" horiz-adv-x="820" d="M409 -11 Q334 -11 267 16.5 Q200 44 150.5 92.5 Q101 141 72 207.5 Q43 274 43 351 Q43 430 72.5 497.5 Q102 565 152 614.5 Q202 664 268.5 692 Q335 720 409 720 Q484 720 550.5 692 Q617 664 667 614.5 Q717 565 746 497.5 Q775 430 775 351 Q775 274 746 208 Q717 142 667.5 93 Q618 44 551 16.5 Q484 -11 409 -11 Z M409 18 Q478 18 539.5 43.5 Q601 69 647 113.5 Q693 158 719.5 219 Q746 280 746 351 Q746 424 719.5 486.5 Q693 549 647 594.5 Q601 640 539.5 666 Q478 692 409 692 Q340 692 278.5 666 Q217 640 171.5 594.5 Q126 549 99.5 486.5 Q73 424 73 351 Q73 280 99.5 219 Q126 158 171.5 113.5 Q217 69 278.5 43.5 Q340 18 409 18 Z M351 849 Q327 849 314.5 828.5 Q302 808 300 776 Q300 770 294 770 L283 770 Q277 770 277 776 Q279 818 298 847 Q317 876 350 876 Q377 876 391.5 862 Q406 848 418 834 Q429 821 440.5 810 Q452 799 471 799 Q493 799 504 818 Q515 837 517 866 Q517 872 523 872 L535 872 Q541 872 541 866 Q539 825 521 798 Q503 771 471 771 Q445 771 429.5 784.5 Q414 798 403 813 Q392 827 381.5 838 Q371 849 351 849 Z " />
<glyph glyph-name="OE" unicode="&#x152;" horiz-adv-x="820" d="M465 681 L465 387 L729 387 Q735 387 735 380 L735 365 Q735 359 728 359 L465 359 L465 29 L758 29 Q764 29 764 22 L764 6 Q764 0 757 0 L437 0 Q347 0 274.5 27 Q202 54 150.5 102 Q99 150 71.5 216 Q44 282 44 361 Q44 439 72 503 Q100 567 152 613 Q204 659 276 684.5 Q348 710 437 710 L758 710 Q764 710 764 703 L764 687 Q764 681 757 681 L465 681 Z M434 682 Q351 682 285 658.5 Q219 635 172 592.5 Q125 550 100 491 Q75 432 75 361 Q75 287 100 226.5 Q125 166 172 122 Q219 78 285 53.5 Q351 29 434 29 L434 682 Z " />
<glyph glyph-name="P" unicode="P" horiz-adv-x="483" d="M222 710 Q275 710 317 695.5 Q359 681 388.5 655 Q418 629 434 592 Q450 555 450 510 Q450 465 434.5 428.5 Q419 392 389.5 365.5 Q360 339 317.5 324.5 Q275 310 222 310 L114 310 L114 6 Q114 0 107 0 L90 0 Q84 0 84 7 L84 704 Q84 710 91 710 L222 710 Z M222 338 Q317 338 368.5 385 Q420 432 420 510 Q420 588 368.5 635 Q317 682 222 682 L114 682 L114 338 L222 338 Z " />
<glyph glyph-name="Thorn" unicode="&#xde;" horiz-adv-x="483" d="M222 562 Q274 562 316 547.5 Q358 533 388 507 Q418 481 434 444 Q450 407 450 362 Q450 317 434 280.5 Q418 244 388 217.5 Q358 191 316 176.5 Q274 162 222 162 L114 162 L114 6 Q114 0 107 0 L90 0 Q84 0 84 7 L84 704 Q84 710 91 710 L108 710 Q114 710 114 703 L114 562 L222 562 Z M222 190 Q316 190 368 237 Q420 284 420 362 Q420 401 406.5 432.5 Q393 464 367.5 486.5 Q342 509 305 521.5 Q268 534 222 534 L114 534 L114 190 L222 190 Z " />
<glyph glyph-name="Q" unicode="Q" horiz-adv-x="820" d="M778 -61 Q782 -65 777 -70 L765 -80 Q761 -84 756 -79 L628 60 Q582 26 526.5 7.5 Q471 -11 409 -11 Q334 -11 267 16.5 Q200 44 150.5 92.5 Q101 141 72 207.5 Q43 274 43 351 Q43 430 72.5 497.5 Q102 565 152 614.5 Q202 664 268.5 692 Q335 720 409 720 Q484 720 550.5 692 Q617 664 667 614.5 Q717 565 746 497.5 Q775 430 775 351 Q775 267 741.5 197 Q708 127 650 77 L778 -61 Z M73 351 Q73 280 99.5 219 Q126 158 171.5 113.5 Q217 69 278.5 43.5 Q340 18 409 18 Q478 18 539.5 43.5 Q601 69 647 113.5 Q693 158 719.5 219 Q746 280 746 351 Q746 424 719.5 486.5 Q693 549 647 594.5 Q601 640 539.5 666 Q478 692 409 692 Q340 692 278.5 666 Q217 640 171.5 594.5 Q126 549 99.5 486.5 Q73 424 73 351 Z " />
<glyph glyph-name="R" unicode="R" horiz-adv-x="524" d="M479 10 Q483 4 483 3 Q483 0 474 0 L454 0 Q448 0 444 6 L187 346 L113 346 L113 6 Q113 0 106 0 L89 0 Q83 0 83 7 L83 704 Q83 710 90 710 L218 710 Q269 710 311 697 Q353 684 382 660 Q411 636 427 602.5 Q443 569 443 528 Q443 488 427.5 454.5 Q412 421 383 397 Q354 373 313 360 Q272 347 221 347 L479 10 Z M113 373 L219 373 Q310 373 361.5 415.5 Q413 458 413 528 Q413 598 361.5 640 Q310 682 219 682 L113 682 L113 373 Z " />
<glyph glyph-name="S" unicode="S" horiz-adv-x="488" d="M222 -11 Q172 -11 123 2 Q74 15 41 35 Q37 36 37 43 L37 63 Q37 68 38 68 Q38 68 42 66 Q79 43 126 30.5 Q173 18 222 18 Q264 18 299.5 29 Q335 40 361 60.5 Q387 81 401.5 110.5 Q416 140 416 177 Q416 211 402.5 237.5 Q389 264 365.5 285.5 Q342 307 310 324.5 Q278 342 241 358 Q206 374 172.5 391.5 Q139 409 112 432 Q85 455 68.5 485.5 Q52 516 52 557 Q52 591 66 621 Q80 651 105.5 673 Q131 695 167 707.5 Q203 720 246 720 Q289 720 327.5 711.5 Q366 703 396 688 Q402 686 402 679 L402 660 Q402 655 400 655 Q399 655 397 657 Q367 673 328.5 682.5 Q290 692 247 692 Q212 692 182.5 682 Q153 672 130.5 654.5 Q108 637 95.5 612.5 Q83 588 83 558 Q83 523 97.5 497 Q112 471 136.5 451.5 Q161 432 192 416 Q223 400 256 385 Q296 367 331 347 Q366 327 391.5 302.5 Q417 278 431.5 247.5 Q446 217 446 178 Q446 136 429.5 101 Q413 66 383 41 Q353 16 312 2.5 Q271 -11 222 -11 Z " />
<glyph glyph-name="Scaron" unicode="&#x160;" horiz-adv-x="488" d="M222 -11 Q172 -11 123 2 Q74 15 41 35 Q37 36 37 43 L37 63 Q37 68 38 68 Q38 68 42 66 Q79 43 126 30.5 Q173 18 222 18 Q264 18 299.5 29 Q335 40 361 60.5 Q387 81 401.5 110.5 Q416 140 416 177 Q416 211 402.5 237.5 Q389 264 365.5 285.5 Q342 307 310 324.5 Q278 342 241 358 Q206 374 172.5 391.5 Q139 409 112 432 Q85 455 68.5 485.5 Q52 516 52 557 Q52 591 66 621 Q80 651 105.5 673 Q131 695 167 707.5 Q203 720 246 720 Q289 720 327.5 711.5 Q366 703 396 688 Q402 686 402 679 L402 660 Q402 655 400 655 Q399 655 397 657 Q367 673 328.5 682.5 Q290 692 247 692 Q212 692 182.5 682 Q153 672 130.5 654.5 Q108 637 95.5 612.5 Q83 588 83 558 Q83 523 97.5 497 Q112 471 136.5 451.5 Q161 432 192 416 Q223 400 256 385 Q296 367 331 347 Q366 327 391.5 302.5 Q417 278 431.5 247.5 Q446 217 446 178 Q446 136 429.5 101 Q413 66 383 41 Q353 16 312 2.5 Q271 -11 222 -11 Z M367 892 Q373 892 368 887 L260 761 Q258 759 256 757.5 Q254 756 249 756 L239 756 Q233 756 228 761 L119 887 Q114 892 122 892 L140 892 Q146 892 151 887 L245 788 L339 888 Q343 892 350 892 L367 892 L367 892 Z " />
<glyph glyph-name="T" unicode="T" horiz-adv-x="493" d="M469 710 Q475 710 475 703 L475 686 Q475 680 468 680 L262 680 L262 6 Q262 0 255 0 L237 0 Q231 0 231 7 L231 680 L24 680 Q18 680 18 687 L18 704 Q18 710 25 710 L469 710 L469 710 Z " />
<glyph glyph-name="U" unicode="U" horiz-adv-x="635" d="M317 -11 Q266 -11 222.5 5 Q179 21 147.5 54 Q116 87 98.5 138.5 Q81 190 81 261 L81 704 Q81 710 88 710 L105 710 Q111 710 111 703 L111 260 Q111 195 126.5 149 Q142 103 169.5 74 Q197 45 235 31.5 Q273 18 318 18 Q362 18 400 31.5 Q438 45 465.5 74 Q493 103 508.5 149 Q524 195 524 260 L524 704 Q524 710 531 710 L548 710 Q554 710 554 703 L554 261 Q554 190 536 138.5 Q518 87 486.5 54 Q455 21 411.5 5 Q368 -11 317 -11 Z " />
<glyph glyph-name="Uacute" unicode="&#xda;" horiz-adv-x="635" d="M317 -11 Q266 -11 222.5 5 Q179 21 147.5 54 Q116 87 98.5 138.5 Q81 190 81 261 L81 704 Q81 710 88 710 L105 710 Q111 710 111 703 L111 260 Q111 195 126.5 149 Q142 103 169.5 74 Q197 45 235 31.5 Q273 18 318 18 Q362 18 400 31.5 Q438 45 465.5 74 Q493 103 508.5 149 Q524 195 524 260 L524 704 Q524 710 531 710 L548 710 Q554 710 554 703 L554 261 Q554 190 536 138.5 Q518 87 486.5 54 Q455 21 411.5 5 Q368 -11 317 -11 Z M304 764 Q297 764 301 770 L366 887 Q369 892 376 892 L420 892 Q426 892 421 886 L326 769 Q324 767 322 765.5 Q320 764 315 764 L304 764 L304 764 Z " />
<glyph glyph-name="Ucircumflex" unicode="&#xdb;" horiz-adv-x="635" d="M317 -11 Q266 -11 222.5 5 Q179 21 147.5 54 Q116 87 98.5 138.5 Q81 190 81 261 L81 704 Q81 710 88 710 L105 710 Q111 710 111 703 L111 260 Q111 195 126.5 149 Q142 103 169.5 74 Q197 45 235 31.5 Q273 18 318 18 Q362 18 400 31.5 Q438 45 465.5 74 Q493 103 508.5 149 Q524 195 524 260 L524 704 Q524 710 531 710 L548 710 Q554 710 554 703 L554 261 Q554 190 536 138.5 Q518 87 486.5 54 Q455 21 411.5 5 Q368 -11 317 -11 Z M443 761 Q448 756 441 756 L421 756 Q415 756 411 760 L318 860 L224 760 Q220 756 214 756 L194 756 Q188 756 192 761 L301 887 Q306 892 311 892 L324 892 Q330 892 334 887 L443 761 L443 761 Z " />
<glyph glyph-name="Udieresis" unicode="&#xdc;" horiz-adv-x="635" d="M317 -11 Q266 -11 222.5 5 Q179 21 147.5 54 Q116 87 98.5 138.5 Q81 190 81 261 L81 704 Q81 710 88 710 L105 710 Q111 710 111 703 L111 260 Q111 195 126.5 149 Q142 103 169.5 74 Q197 45 235 31.5 Q273 18 318 18 Q362 18 400 31.5 Q438 45 465.5 74 Q493 103 508.5 149 Q524 195 524 260 L524 704 Q524 710 531 710 L548 710 Q554 710 554 703 L554 261 Q554 190 536 138.5 Q518 87 486.5 54 Q455 21 411.5 5 Q368 -11 317 -11 Z M244 780 Q225 780 214 793 Q203 806 203 823 Q203 841 214 854 Q225 867 244 867 Q263 867 274 854 Q285 841 285 823 Q285 806 274 793 Q263 780 244 780 Z M394 780 Q375 780 364 793 Q353 806 353 823 Q353 841 364 854 Q375 867 394 867 Q413 867 424 854 Q435 841 435 823 Q435 806 424 793 Q413 780 394 780 Z " />
<glyph glyph-name="Ugrave" unicode="&#xd9;" horiz-adv-x="635" d="M317 -11 Q266 -11 222.5 5 Q179 21 147.5 54 Q116 87 98.5 138.5 Q81 190 81 261 L81 704 Q81 710 88 710 L105 710 Q111 710 111 703 L111 260 Q111 195 126.5 149 Q142 103 169.5 74 Q197 45 235 31.5 Q273 18 318 18 Q362 18 400 31.5 Q438 45 465.5 74 Q493 103 508.5 149 Q524 195 524 260 L524 704 Q524 710 531 710 L548 710 Q554 710 554 703 L554 261 Q554 190 536 138.5 Q518 87 486.5 54 Q455 21 411.5 5 Q368 -11 317 -11 Z M321 770 Q324 765 317 765 L306 765 Q300 765 296 770 L200 888 Q195 893 203 893 L247 893 Q252 893 256 887 L321 770 L321 770 Z " />
<glyph glyph-name="V" unicode="V" horiz-adv-x="630" d="M607 710 Q613 710 610 703 L323 -4 Q321 -9 314 -9 L309 -9 Q308 -9 308 -8 L17 709 Q17 710 18 710 L44 710 Q49 710 53 704 L315 48 L578 704 Q579 710 587 710 L607 710 L607 710 Z " />
<glyph glyph-name="W" unicode="W" horiz-adv-x="928" d="M905 710 Q911 710 909 703 L697 4 Q695 -2 688 -2 L672 -2 Q666 -2 664 5 L464 661 L264 4 Q262 -2 255 -2 L239 -2 Q233 -2 231 5 L19 704 Q17 710 24 710 L43 710 Q49 710 51 703 L249 43 L449 704 Q450 710 458 710 L474 710 Q480 710 482 703 L680 42 L879 704 Q880 710 888 710 L905 710 L905 710 Z " />
<glyph glyph-name="X" unicode="X" horiz-adv-x="595" d="M580 5 Q585 0 577 0 L556 0 Q550 0 546 6 L297 341 L49 5 Q47 3 45 1.5 Q43 0 38 0 L17 0 Q11 0 15 6 L280 364 L27 705 Q22 710 30 710 L53 710 Q59 710 63 704 L299 386 L532 705 Q534 707 536 708.5 Q538 710 543 710 L566 710 Q572 710 568 704 L315 363 L580 5 L580 5 Z " />
<glyph glyph-name="Y" unicode="Y" horiz-adv-x="530" d="M256 0 Q250 0 250 7 L250 309 L16 699 Q13 703 13 706 Q13 710 22 710 L38 710 Q44 710 48 704 L265 337 L483 705 Q486 710 493 710 L507 710 Q520 710 513 699 L280 309 L280 6 Q280 0 273 0 L256 0 L256 0 Z " />
<glyph glyph-name="Yacute" unicode="&#xdd;" horiz-adv-x="530" d="M256 0 Q250 0 250 7 L250 309 L16 699 Q13 703 13 706 Q13 710 22 710 L38 710 Q44 710 48 704 L265 337 L483 705 Q486 710 493 710 L507 710 Q520 710 513 699 L280 309 L280 6 Q280 0 273 0 L256 0 L256 0 Z M252 764 Q245 764 249 770 L314 887 Q317 892 324 892 L368 892 Q374 892 369 886 L274 769 Q272 767 270 765.5 Q268 764 263 764 L252 764 L252 764 Z " />
<glyph glyph-name="Ydieresis" unicode="&#x178;" horiz-adv-x="530" d="M256 0 Q250 0 250 7 L250 309 L16 699 Q13 703 13 706 Q13 710 22 710 L38 710 Q44 710 48 704 L265 337 L483 705 Q486 710 493 710 L507 710 Q520 710 513 699 L280 309 L280 6 Q280 0 273 0 L256 0 L256 0 Z M192 780 Q173 780 162 793 Q151 806 151 823 Q151 841 162 854 Q173 867 192 867 Q211 867 222 854 Q233 841 233 823 Q233 806 222 793 Q211 780 192 780 Z M342 780 Q323 780 312 793 Q301 806 301 823 Q301 841 312 854 Q323 867 342 867 Q361 867 372 854 Q383 841 383 823 Q383 806 372 793 Q361 780 342 780 Z " />
<glyph glyph-name="Z" unicode="Z" horiz-adv-x="551" d="M499 28 Q505 28 505 21 L505 6 Q505 0 498 0 L44 0 Q38 0 38 7 L38 9 Q38 14 42 21 L456 682 L68 682 Q62 682 62 689 L62 704 Q62 710 69 710 L489 710 Q495 710 495 703 L495 701 Q495 696 491 689 L77 28 L499 28 Z " />
<glyph glyph-name="Zcaron" unicode="&#x17d;" horiz-adv-x="551" d="M499 28 Q505 28 505 21 L505 6 Q505 0 498 0 L44 0 Q38 0 38 7 L38 9 Q38 14 42 21 L456 682 L68 682 Q62 682 62 689 L62 704 Q62 710 69 710 L489 710 Q495 710 495 703 L495 701 Q495 696 491 689 L77 28 L499 28 Z M399 892 Q405 892 400 887 L292 761 Q290 759 288 757.5 Q286 756 281 756 L271 756 Q265 756 260 761 L151 887 Q146 892 154 892 L172 892 Q178 892 183 887 L277 788 L371 888 Q375 892 382 892 L399 892 L399 892 Z " />
<glyph glyph-name="a" unicode="a" horiz-adv-x="585" d="M502 480 Q508 480 508 473 L508 6 Q508 0 501 0 L484 0 Q478 0 478 7 L478 126 Q464 93 443 67.5 Q422 42 395.5 24.5 Q369 7 339.5 -1.5 Q310 -10 280 -10 Q238 -10 196.5 6.5 Q155 23 123 55 Q91 87 71 133.5 Q51 180 51 240 Q51 300 70 347 Q89 394 120.5 425.5 Q152 457 193.5 473.5 Q235 490 280 490 Q344 490 398 456.5 Q452 423 478 357 L478 474 Q478 480 485 480 L502 480 Z M282 18 Q319 18 354.5 32.5 Q390 47 418 75.5 Q446 104 463 145 Q480 186 480 240 Q480 294 464 335 Q448 376 420.5 404.5 Q393 433 357 447.5 Q321 462 282 462 Q242 462 205.5 447.5 Q169 433 141.5 404.5 Q114 376 98 335 Q82 294 82 240 Q82 186 99.5 145 Q117 104 145 75.5 Q173 47 209 32.5 Q245 18 282 18 Z " />
<glyph glyph-name="aacute" unicode="&#xe1;" horiz-adv-x="585" d="M502 480 Q508 480 508 473 L508 6 Q508 0 501 0 L484 0 Q478 0 478 7 L478 126 Q464 93 443 67.5 Q422 42 395.5 24.5 Q369 7 339.5 -1.5 Q310 -10 280 -10 Q238 -10 196.5 6.5 Q155 23 123 55 Q91 87 71 133.5 Q51 180 51 240 Q51 300 70 347 Q89 394 120.5 425.5 Q152 457 193.5 473.5 Q235 490 280 490 Q344 490 398 456.5 Q452 423 478 357 L478 474 Q478 480 485 480 L502 480 Z M282 18 Q319 18 354.5 32.5 Q390 47 418 75.5 Q446 104 463 145 Q480 186 480 240 Q480 294 464 335 Q448 376 420.5 404.5 Q393 433 357 447.5 Q321 462 282 462 Q242 462 205.5 447.5 Q169 433 141.5 404.5 Q114 376 98 335 Q82 294 82 240 Q82 186 99.5 145 Q117 104 145 75.5 Q173 47 209 32.5 Q245 18 282 18 Z M260 565 Q254 565 258 571 L374 760 Q376 762 377.5 763 Q379 764 383 762 L409 751 Q415 750 411 743 L285 570 Q283 568 281 566.5 Q279 565 274 565 L260 565 L260 565 Z " />
<glyph glyph-name="abreve" unicode="&#x103;" horiz-adv-x="585" d="M502 480 Q508 480 508 473 L508 6 Q508 0 501 0 L484 0 Q478 0 478 7 L478 126 Q464 93 443 67.5 Q422 42 395.5 24.5 Q369 7 339.5 -1.5 Q310 -10 280 -10 Q238 -10 196.5 6.5 Q155 23 123 55 Q91 87 71 133.5 Q51 180 51 240 Q51 300 70 347 Q89 394 120.5 425.5 Q152 457 193.5 473.5 Q235 490 280 490 Q344 490 398 456.5 Q452 423 478 357 L478 474 Q478 480 485 480 L502 480 Z M282 18 Q319 18 354.5 32.5 Q390 47 418 75.5 Q446 104 463 145 Q480 186 480 240 Q480 294 464 335 Q448 376 420.5 404.5 Q393 433 357 447.5 Q321 462 282 462 Q242 462 205.5 447.5 Q169 433 141.5 404.5 Q114 376 98 335 Q82 294 82 240 Q82 186 99.5 145 Q117 104 145 75.5 Q173 47 209 32.5 Q245 18 282 18 Z M303 605 Q254 605 222 636.5 Q190 668 187 716 Q187 722 193 722 L203 722 Q209 722 209 716 Q212 678 237.5 654.5 Q263 631 303 631 Q342 631 368 654.5 Q394 678 396 716 Q396 722 402 722 L413 722 Q419 722 419 716 Q416 668 383.5 636.5 Q351 605 303 605 Z " />
<glyph glyph-name="acircumflex" unicode="&#xe2;" horiz-adv-x="585" d="M502 480 Q508 480 508 473 L508 6 Q508 0 501 0 L484 0 Q478 0 478 7 L478 126 Q464 93 443 67.5 Q422 42 395.5 24.5 Q369 7 339.5 -1.5 Q310 -10 280 -10 Q238 -10 196.5 6.5 Q155 23 123 55 Q91 87 71 133.5 Q51 180 51 240 Q51 300 70 347 Q89 394 120.5 425.5 Q152 457 193.5 473.5 Q235 490 280 490 Q344 490 398 456.5 Q452 423 478 357 L478 474 Q478 480 485 480 L502 480 Z M282 18 Q319 18 354.5 32.5 Q390 47 418 75.5 Q446 104 463 145 Q480 186 480 240 Q480 294 464 335 Q448 376 420.5 404.5 Q393 433 357 447.5 Q321 462 282 462 Q242 462 205.5 447.5 Q169 433 141.5 404.5 Q114 376 98 335 Q82 294 82 240 Q82 186 99.5 145 Q117 104 145 75.5 Q173 47 209 32.5 Q245 18 282 18 Z M430 570 Q433 565 427 565 L407 565 Q400 565 398 570 L304 712 L209 570 Q206 565 200 565 L181 565 Q175 565 178 570 L288 745 Q291 750 297 750 L310 750 Q316 750 319 745 L430 570 L430 570 Z " />
<glyph glyph-name="adieresis" unicode="&#xe4;" horiz-adv-x="585" d="M502 480 Q508 480 508 473 L508 6 Q508 0 501 0 L484 0 Q478 0 478 7 L478 126 Q464 93 443 67.5 Q422 42 395.5 24.5 Q369 7 339.5 -1.5 Q310 -10 280 -10 Q238 -10 196.5 6.5 Q155 23 123 55 Q91 87 71 133.5 Q51 180 51 240 Q51 300 70 347 Q89 394 120.5 425.5 Q152 457 193.5 473.5 Q235 490 280 490 Q344 490 398 456.5 Q452 423 478 357 L478 474 Q478 480 485 480 L502 480 Z M282 18 Q319 18 354.5 32.5 Q390 47 418 75.5 Q446 104 463 145 Q480 186 480 240 Q480 294 464 335 Q448 376 420.5 404.5 Q393 433 357 447.5 Q321 462 282 462 Q242 462 205.5 447.5 Q169 433 141.5 404.5 Q114 376 98 335 Q82 294 82 240 Q82 186 99.5 145 Q117 104 145 75.5 Q173 47 209 32.5 Q245 18 282 18 Z M236 656 Q222 656 213.5 665.5 Q205 675 205 688 Q205 702 213.5 711.5 Q222 721 236 721 Q250 721 258.5 711.5 Q267 702 267 688 Q267 675 258.5 665.5 Q250 656 236 656 Z M369 656 Q355 656 346.5 665.5 Q338 675 338 688 Q338 702 346.5 711.5 Q355 721 369 721 Q383 721 391.5 711.5 Q400 702 400 688 Q400 675 391.5 665.5 Q383 656 369 656 Z " />
<glyph glyph-name="agrave" unicode="&#xe0;" horiz-adv-x="585" d="M502 480 Q508 480 508 473 L508 6 Q508 0 501 0 L484 0 Q478 0 478 7 L478 126 Q464 93 443 67.5 Q422 42 395.5 24.5 Q369 7 339.5 -1.5 Q310 -10 280 -10 Q238 -10 196.5 6.5 Q155 23 123 55 Q91 87 71 133.5 Q51 180 51 240 Q51 300 70 347 Q89 394 120.5 425.5 Q152 457 193.5 473.5 Q235 490 280 490 Q344 490 398 456.5 Q452 423 478 357 L478 474 Q478 480 485 480 L502 480 Z M282 18 Q319 18 354.5 32.5 Q390 47 418 75.5 Q446 104 463 145 Q480 186 480 240 Q480 294 464 335 Q448 376 420.5 404.5 Q393 433 357 447.5 Q321 462 282 462 Q242 462 205.5 447.5 Q169 433 141.5 404.5 Q114 376 98 335 Q82 294 82 240 Q82 186 99.5 145 Q117 104 145 75.5 Q173 47 209 32.5 Q245 18 282 18 Z M321 570 Q324 565 317 565 L303 565 Q297 565 293 571 L167 744 Q163 748 169 752 L195 763 Q202 765 205 759 L321 570 L321 570 Z " />
<glyph glyph-name="aring" unicode="&#xe5;" horiz-adv-x="585" d="M502 480 Q508 480 508 473 L508 6 Q508 0 501 0 L484 0 Q478 0 478 7 L478 126 Q464 93 443 67.5 Q422 42 395.5 24.5 Q369 7 339.5 -1.5 Q310 -10 280 -10 Q238 -10 196.5 6.5 Q155 23 123 55 Q91 87 71 133.5 Q51 180 51 240 Q51 300 70 347 Q89 394 120.5 425.5 Q152 457 193.5 473.5 Q235 490 280 490 Q344 490 398 456.5 Q452 423 478 357 L478 474 Q478 480 485 480 L502 480 Z M282 18 Q319 18 354.5 32.5 Q390 47 418 75.5 Q446 104 463 145 Q480 186 480 240 Q480 294 464 335 Q448 376 420.5 404.5 Q393 433 357 447.5 Q321 462 282 462 Q242 462 205.5 447.5 Q169 433 141.5 404.5 Q114 376 98 335 Q82 294 82 240 Q82 186 99.5 145 Q117 104 145 75.5 Q173 47 209 32.5 Q245 18 282 18 Z M303 583 Q269 583 246.5 606.5 Q224 630 224 665 Q224 700 246.5 722 Q269 744 303 744 Q336 744 359 722 Q382 700 382 665 Q382 630 359.5 606.5 Q337 583 303 583 Z M303 603 Q328 603 344 620.5 Q360 638 360 665 Q360 691 344 708.5 Q328 726 303 726 Q277 726 261.5 708.5 Q246 691 246 665 Q246 638 261.5 620.5 Q277 603 303 603 Z " />
<glyph glyph-name="atilde" unicode="&#xe3;" horiz-adv-x="585" d="M502 480 Q508 480 508 473 L508 6 Q508 0 501 0 L484 0 Q478 0 478 7 L478 126 Q464 93 443 67.5 Q422 42 395.5 24.5 Q369 7 339.5 -1.5 Q310 -10 280 -10 Q238 -10 196.5 6.5 Q155 23 123 55 Q91 87 71 133.5 Q51 180 51 240 Q51 300 70 347 Q89 394 120.5 425.5 Q152 457 193.5 473.5 Q235 490 280 490 Q344 490 398 456.5 Q452 423 478 357 L478 474 Q478 480 485 480 L502 480 Z M282 18 Q319 18 354.5 32.5 Q390 47 418 75.5 Q446 104 463 145 Q480 186 480 240 Q480 294 464 335 Q448 376 420.5 404.5 Q393 433 357 447.5 Q321 462 282 462 Q242 462 205.5 447.5 Q169 433 141.5 404.5 Q114 376 98 335 Q82 294 82 240 Q82 186 99.5 145 Q117 104 145 75.5 Q173 47 209 32.5 Q245 18 282 18 Z M364 612 Q340 612 325 625 Q310 638 297 654 Q286 668 274.5 679 Q263 690 245 690 Q220 690 208 669 Q196 648 194 616 Q194 610 188 610 L176 610 Q170 610 170 616 Q172 660 191 689 Q210 718 245 718 Q271 718 286.5 704 Q302 690 314 675 Q325 661 336 651 Q347 641 364 641 Q387 641 398.5 659.5 Q410 678 412 707 Q412 713 418 713 L430 713 Q436 713 436 707 Q434 666 415 639 Q396 612 364 612 Z " />
<glyph glyph-name="ae" unicode="&#xe6;" horiz-adv-x="794" d="M576 490 Q615 490 647 476.5 Q679 463 702 437 Q725 411 737.5 373.5 Q750 336 750 289 L750 277 Q749 274 748 272.5 Q747 271 742 271 L408 271 Q407 264 407 257.5 Q407 251 407 243 Q407 187 420.5 144.5 Q434 102 458.5 73.5 Q483 45 517 31 Q551 17 592 17 Q633 17 670.5 31 Q708 45 740 73 Q744 77 744 70 L744 51 Q744 45 739 40 Q677 -10 591 -10 Q519 -10 467 29 Q415 68 393 139 Q382 101 361.5 73 Q341 45 315.5 27 Q290 9 260.5 0.5 Q231 -8 201 -8 Q135 -8 93 27 Q51 62 51 125 Q51 196 106.5 236 Q162 276 261 276 Q294 276 328.5 274.5 Q363 273 378 271 L378 321 Q378 394 340.5 428.5 Q303 463 222 463 Q187 463 150 454.5 Q113 446 82 429 Q77 426 77 433 L77 450 Q77 457 83 459 Q112 473 150 481.5 Q188 490 224 490 Q305 490 348 460.5 Q391 431 402 368 Q426 425 471 457.5 Q516 490 576 490 Z M576 463 Q512 463 467.5 419.5 Q423 376 411 296 L723 296 Q722 334 711 365 Q700 396 680.5 417.5 Q661 439 634.5 451 Q608 463 576 463 Z M205 18 Q232 18 262 29.5 Q292 41 318 65 Q344 89 361 126.5 Q378 164 378 216 L378 246 Q370 247 356 247.5 Q342 248 326 249 Q310 250 293.5 250.5 Q277 251 264 251 Q175 251 128 218.5 Q81 186 81 126 Q81 98 91 78 Q101 58 118 44.5 Q135 31 157.5 24.5 Q180 18 205 18 Z " />
<glyph glyph-name="b" unicode="b" horiz-adv-x="585" d="M305 490 Q350 490 391.5 473.5 Q433 457 464.5 425.5 Q496 394 514.5 347 Q533 300 533 240 Q533 180 513.5 133.5 Q494 87 461.5 55 Q429 23 388 6.5 Q347 -10 305 -10 Q275 -10 245.5 -1.5 Q216 7 190 24 Q164 41 142 66 Q120 91 107 124 L107 6 Q107 0 100 0 L83 0 Q77 0 77 7 L77 744 Q77 750 84 750 L101 750 Q107 750 107 743 L107 359 Q120 391 141 415.5 Q162 440 188 456.5 Q214 473 243.5 481.5 Q273 490 305 490 Z M303 18 Q340 18 376 32.5 Q412 47 440 75.5 Q468 104 485.5 145 Q503 186 503 240 Q503 294 487 335 Q471 376 443.5 404.5 Q416 433 379.5 447.5 Q343 462 303 462 Q264 462 228 447.5 Q192 433 164.5 404.5 Q137 376 121 335 Q105 294 105 240 Q105 186 122 145 Q139 104 167 75.5 Q195 47 230.5 32.5 Q266 18 303 18 Z " />
<glyph glyph-name="c" unicode="c" horiz-adv-x="474" d="M303 -10 Q251 -10 205.5 7.5 Q160 25 125.5 58 Q91 91 71 137 Q51 183 51 240 Q51 296 69.5 342 Q88 388 121 421 Q154 454 200 472 Q246 490 301 490 Q336 490 366.5 484 Q397 478 423 467 Q429 465 429 458 L429 445 Q429 433 418 438 Q393 451 364 456.5 Q335 462 303 462 Q256 462 216 446.5 Q176 431 146 402 Q116 373 99 332 Q82 291 82 240 Q82 187 99.5 146 Q117 105 148 76.5 Q179 48 219.5 33 Q260 18 307 18 Q374 18 424 43 Q430 45 431 45 Q436 45 436 36 L436 22 Q436 17 430 13 Q404 2 372 -4 Q340 -10 303 -10 Z " />
<glyph glyph-name="ccedilla" unicode="&#xe7;" horiz-adv-x="474" d="M424 43 Q430 45 431 45 Q436 45 436 36 L436 22 Q436 17 430 13 Q404 2 372.5 -4 Q341 -10 305 -10 L275 -48 Q280 -47 286 -46.5 Q292 -46 297 -46 Q327 -46 346 -62 Q365 -78 365 -104 Q365 -135 339.5 -153.5 Q314 -172 279 -172 Q244 -172 215 -159 Q210 -156 210 -150 L210 -140 Q210 -135 215 -137 Q229 -143 244.5 -147 Q260 -151 278 -151 Q303 -151 322 -139 Q341 -127 341 -105 Q341 -85 325 -75 Q309 -65 288 -65 Q260 -65 239 -73 L237 -71 L283 -9 Q235 -6 192.5 13.5 Q150 33 118.5 65 Q87 97 69 141.5 Q51 186 51 240 Q51 296 69.5 342 Q88 388 121 421 Q154 454 200 472 Q246 490 301 490 Q336 490 366.5 484 Q397 478 423 467 Q429 465 429 458 L429 445 Q429 433 418 438 Q393 451 364 456.5 Q335 462 303 462 Q256 462 216 446.5 Q176 431 146 402 Q116 373 99 332 Q82 291 82 240 Q82 187 99.5 146 Q117 105 148 76.5 Q179 48 219.5 33 Q260 18 307 18 Q374 18 424 43 Z " />
<glyph glyph-name="d" unicode="d" horiz-adv-x="585" d="M501 750 Q507 750 507 743 L507 6 Q507 0 500 0 L484 0 Q478 0 478 7 L478 124 Q464 91 442.5 66 Q421 41 394.5 24 Q368 7 338.5 -1.5 Q309 -10 279 -10 Q237 -10 196 6.5 Q155 23 123 55 Q91 87 71 133.5 Q51 180 51 240 Q51 300 70 347 Q89 394 120.5 425.5 Q152 457 193.5 473.5 Q235 490 280 490 Q311 490 341 481.5 Q371 473 397 456.5 Q423 440 444 415.5 Q465 391 478 359 L478 744 Q478 750 485 750 L501 750 Z M282 18 Q319 18 354.5 32.5 Q390 47 418 75.5 Q446 104 463 145 Q480 186 480 240 Q480 294 463.5 335 Q447 376 420 404.5 Q393 433 357 447.5 Q321 462 282 462 Q242 462 205.5 447.5 Q169 433 141.5 404.5 Q114 376 97.5 335 Q81 294 81 240 Q81 186 98.5 145 Q116 104 144 75.5 Q172 47 208 32.5 Q244 18 282 18 Z " />
<glyph glyph-name="eth" unicode="&#xf0;" horiz-adv-x="585" d="M334 621 Q391 571 429 521.5 Q467 472 490.5 425 Q514 378 523.5 333.5 Q533 289 533 249 Q533 187 513 138.5 Q493 90 460 57 Q427 24 384 7 Q341 -10 296 -10 Q248 -10 203.5 8 Q159 26 125 58.5 Q91 91 71 135.5 Q51 180 51 233 Q51 286 70 329.5 Q89 373 121.5 404.5 Q154 436 196 453.5 Q238 471 285 471 Q322 471 354.5 460.5 Q387 450 414 431 Q441 412 462.5 387 Q484 362 498 333 L500 334 Q480 403 434.5 472 Q389 541 315 606 L225 532 Q224 532 224 533 L215 542 Q210 547 216 551 L300 620 Q249 662 186 701 Q181 704 187 708 L198 716 Q202 720 209 716 Q240 696 267 675.5 Q294 655 318 635 L420 718 Q425 723 429 717 L434 712 Q439 707 433 703 L334 621 Z M296 18 Q338 18 375.5 34.5 Q413 51 441.5 79.5 Q470 108 487 146.5 Q504 185 504 229 Q504 274 486 313.5 Q468 353 437.5 382 Q407 411 368 427.5 Q329 444 287 444 Q247 444 209.5 428.5 Q172 413 143.5 385.5 Q115 358 97.5 319 Q80 280 80 234 Q80 189 97.5 149.5 Q115 110 144.5 80.5 Q174 51 213 34.5 Q252 18 296 18 Z " />
<glyph glyph-name="e" unicode="e" horiz-adv-x="517" d="M83 272 Q82 264 81.5 257 Q81 250 81 242 Q81 191 97 149.5 Q113 108 141.5 78.5 Q170 49 208 33 Q246 17 290 17 Q325 17 352 24 Q379 31 401 42 Q430 56 445.5 68.5 Q461 81 465 81 Q468 81 468 74 L468 60 Q468 54 463 50 Q426 20 381.5 5 Q337 -10 288 -10 Q238 -10 194.5 7.5 Q151 25 119 58 Q87 91 69 137.5 Q51 184 51 241 Q51 295 68.5 341 Q86 387 117 420 Q148 453 189 471.5 Q230 490 278 490 Q321 490 357 476.5 Q393 463 419 436.5 Q445 410 459.5 372.5 Q474 335 474 287 Q474 278 471 275 Q468 272 463 272 L83 272 Z M278 463 Q244 463 213 451 Q182 439 156.5 417.5 Q131 396 112.5 365 Q94 334 86 296 L447 296 Q447 333 434 364 Q421 395 398.5 417 Q376 439 345 451 Q314 463 278 463 Z " />
<glyph glyph-name="eacute" unicode="&#xe9;" horiz-adv-x="518" d="M83 272 Q82 264 81.5 257 Q81 250 81 242 Q81 191 97 149.5 Q113 108 141.5 78.5 Q170 49 208 33 Q246 17 290 17 Q325 17 352 24 Q379 31 401 42 Q430 56 445.5 68.5 Q461 81 465 81 Q468 81 468 74 L468 60 Q468 54 463 50 Q426 20 381.5 5 Q337 -10 288 -10 Q238 -10 194.5 7.5 Q151 25 119 58 Q87 91 69 137.5 Q51 184 51 241 Q51 295 68.5 341 Q86 387 117 420 Q148 453 189 471.5 Q230 490 278 490 Q321 490 357 476.5 Q393 463 419 436.5 Q445 410 459.5 372.5 Q474 335 474 287 Q474 278 471 275 Q468 272 463 272 L83 272 Z M278 463 Q244 463 213 451 Q182 439 156.5 417.5 Q131 396 112.5 365 Q94 334 86 296 L447 296 Q447 333 434 364 Q421 395 398.5 417 Q376 439 345 451 Q314 463 278 463 Z M222 565 Q216 565 220 571 L336 760 Q338 762 339.5 763 Q341 764 345 762 L371 751 Q377 750 373 743 L247 570 Q245 568 243 566.5 Q241 565 236 565 L222 565 L222 565 Z " />
<glyph glyph-name="ecircumflex" unicode="&#xea;" horiz-adv-x="518" d="M83 272 Q82 264 81.5 257 Q81 250 81 242 Q81 191 97 149.5 Q113 108 141.5 78.5 Q170 49 208 33 Q246 17 290 17 Q325 17 352 24 Q379 31 401 42 Q430 56 445.5 68.5 Q461 81 465 81 Q468 81 468 74 L468 60 Q468 54 463 50 Q426 20 381.5 5 Q337 -10 288 -10 Q238 -10 194.5 7.5 Q151 25 119 58 Q87 91 69 137.5 Q51 184 51 241 Q51 295 68.5 341 Q86 387 117 420 Q148 453 189 471.5 Q230 490 278 490 Q321 490 357 476.5 Q393 463 419 436.5 Q445 410 459.5 372.5 Q474 335 474 287 Q474 278 471 275 Q468 272 463 272 L83 272 Z M278 463 Q244 463 213 451 Q182 439 156.5 417.5 Q131 396 112.5 365 Q94 334 86 296 L447 296 Q447 333 434 364 Q421 395 398.5 417 Q376 439 345 451 Q314 463 278 463 Z M392 570 Q395 565 389 565 L369 565 Q362 565 360 570 L266 712 L171 570 Q168 565 162 565 L143 565 Q137 565 140 570 L250 745 Q253 750 259 750 L272 750 Q278 750 281 745 L392 570 L392 570 Z " />
<glyph glyph-name="edieresis" unicode="&#xeb;" horiz-adv-x="518" d="M83 272 Q82 264 81.5 257 Q81 250 81 242 Q81 191 97 149.5 Q113 108 141.5 78.5 Q170 49 208 33 Q246 17 290 17 Q325 17 352 24 Q379 31 401 42 Q430 56 445.5 68.5 Q461 81 465 81 Q468 81 468 74 L468 60 Q468 54 463 50 Q426 20 381.5 5 Q337 -10 288 -10 Q238 -10 194.5 7.5 Q151 25 119 58 Q87 91 69 137.5 Q51 184 51 241 Q51 295 68.5 341 Q86 387 117 420 Q148 453 189 471.5 Q230 490 278 490 Q321 490 357 476.5 Q393 463 419 436.5 Q445 410 459.5 372.5 Q474 335 474 287 Q474 278 471 275 Q468 272 463 272 L83 272 Z M278 463 Q244 463 213 451 Q182 439 156.5 417.5 Q131 396 112.5 365 Q94 334 86 296 L447 296 Q447 333 434 364 Q421 395 398.5 417 Q376 439 345 451 Q314 463 278 463 Z M198 656 Q184 656 175.5 665.5 Q167 675 167 688 Q167 702 175.5 711.5 Q184 721 198 721 Q212 721 220.5 711.5 Q229 702 229 688 Q229 675 220.5 665.5 Q212 656 198 656 Z M331 656 Q317 656 308.5 665.5 Q300 675 300 688 Q300 702 308.5 711.5 Q317 721 331 721 Q345 721 353.5 711.5 Q362 702 362 688 Q362 675 353.5 665.5 Q345 656 331 656 Z " />
<glyph glyph-name="egrave" unicode="&#xe8;" horiz-adv-x="518" d="M83 272 Q82 264 81.5 257 Q81 250 81 242 Q81 191 97 149.5 Q113 108 141.5 78.5 Q170 49 208 33 Q246 17 290 17 Q325 17 352 24 Q379 31 401 42 Q430 56 445.5 68.5 Q461 81 465 81 Q468 81 468 74 L468 60 Q468 54 463 50 Q426 20 381.5 5 Q337 -10 288 -10 Q238 -10 194.5 7.5 Q151 25 119 58 Q87 91 69 137.5 Q51 184 51 241 Q51 295 68.5 341 Q86 387 117 420 Q148 453 189 471.5 Q230 490 278 490 Q321 490 357 476.5 Q393 463 419 436.5 Q445 410 459.5 372.5 Q474 335 474 287 Q474 278 471 275 Q468 272 463 272 L83 272 Z M278 463 Q244 463 213 451 Q182 439 156.5 417.5 Q131 396 112.5 365 Q94 334 86 296 L447 296 Q447 333 434 364 Q421 395 398.5 417 Q376 439 345 451 Q314 463 278 463 Z M283 570 Q286 565 279 565 L265 565 Q259 565 255 571 L129 744 Q125 748 131 752 L157 763 Q164 765 167 759 L283 570 L283 570 Z " />
<glyph glyph-name="eogonek" unicode="&#x119;" horiz-adv-x="518" d="M83 272 Q82 264 81.5 257 Q81 250 81 242 Q81 191 97 149.5 Q113 108 141.5 78.5 Q170 49 208 33 Q246 17 290 17 Q325 17 352 24 Q379 31 401 42 Q430 56 445.5 68.5 Q461 81 465 81 Q468 81 468 74 L468 60 Q468 54 463 50 Q409 7 344 -5 Q265 -52 265 -100 Q265 -123 282 -136 Q299 -149 322 -149 Q340 -149 356 -142 Q362 -141 362 -146 L362 -156 Q362 -163 357 -165 Q343 -172 320 -172 Q287 -172 263 -152.5 Q239 -133 239 -101 Q239 -76 256 -52.5 Q273 -29 299 -10 L288 -10 Q238 -10 194.5 7.5 Q151 25 119 58 Q87 91 69 137.5 Q51 184 51 241 Q51 295 68.5 341 Q86 387 117 420 Q148 453 189 471.5 Q230 490 278 490 Q321 490 357 476.5 Q393 463 419 436.5 Q445 410 459.5 372.5 Q474 335 474 287 Q474 278 471 275 Q468 272 463 272 L83 272 Z M278 463 Q244 463 213 451 Q182 439 156.5 417.5 Q131 396 112.5 365 Q94 334 86 296 L447 296 Q447 333 434 364 Q421 395 398.5 417 Q376 439 345 451 Q314 463 278 463 Z " />
<glyph glyph-name="f" unicode="f" horiz-adv-x="315" d="M318 744 Q323 741 323 734 L323 723 Q323 716 321 714.5 Q319 713 312 717 Q287 733 246 733 Q204 733 178.5 709 Q153 685 153 628 L153 480 L306 480 Q312 480 312 473 L312 461 Q312 455 305 455 L153 455 L153 6 Q153 0 146 0 L129 0 Q123 0 123 7 L123 455 L39 455 Q33 455 33 462 L33 474 Q33 480 40 480 L123 480 L123 629 Q123 699 155 729.5 Q187 760 243 760 Q266 760 285 755.5 Q304 751 318 744 Z " />
<glyph glyph-name="g" unicode="g" horiz-adv-x="581" d="M498 480 Q504 480 504 473 L504 63 Q504 9 487.5 -34.5 Q471 -78 440 -108.5 Q409 -139 364 -155.5 Q319 -172 262 -172 Q212 -172 169.5 -161.5 Q127 -151 95 -134 Q90 -131 90 -124 L90 -111 Q90 -104 92 -102.5 Q94 -101 101 -105 Q133 -125 174.5 -135 Q216 -145 261 -145 Q364 -145 419 -90.5 Q474 -36 474 61 L474 146 Q461 113 440 88 Q419 63 393 45.5 Q367 28 337 19.5 Q307 11 276 11 Q232 11 191 26.5 Q150 42 119 72.5 Q88 103 69.5 148 Q51 193 51 251 Q51 308 70.5 352.5 Q90 397 121.5 427.5 Q153 458 193.5 474 Q234 490 276 490 Q307 490 337 481 Q367 472 393 455 Q419 438 440 412.5 Q461 387 474 354 L474 474 Q474 480 481 480 L498 480 Z M279 38 Q319 38 355 53.5 Q391 69 417 96.5 Q443 124 458.5 163 Q474 202 474 250 Q474 295 458.5 334 Q443 373 417 401.5 Q391 430 355 446.5 Q319 463 279 463 Q242 463 206.5 449 Q171 435 143 408 Q115 381 98 341.5 Q81 302 81 250 Q81 199 97.5 159.5 Q114 120 141 93 Q168 66 204 52 Q240 38 279 38 Z " />
<glyph glyph-name="h" unicode="h" horiz-adv-x="518" d="M277 490 Q350 490 395.5 447.5 Q441 405 441 315 L441 6 Q441 0 435 0 L417 0 Q411 0 411 6 L411 314 Q411 393 373.5 428 Q336 463 273 463 Q201 463 157 414.5 Q113 366 107 286 L107 6 Q107 0 101 0 L83 0 Q77 0 77 6 L77 744 Q77 750 83 750 L101 750 Q107 750 107 744 L107 365 Q127 426 171 458 Q215 490 277 490 Z " />
<glyph glyph-name="i" unicode="i" horiz-adv-x="210" d="M105 654 Q90 654 81.5 664 Q73 674 73 688 Q73 702 81.5 712 Q90 722 105 722 Q120 722 129 712 Q138 702 138 688 Q138 674 129 664 Q120 654 105 654 Z M95 0 Q89 0 89 7 L89 474 Q89 480 96 480 L113 480 Q119 480 119 473 L119 6 Q119 0 112 0 L95 0 Z " />
<glyph glyph-name="idotless" unicode="&#x131;" horiz-adv-x="227" d="M104 0 Q98 0 98 7 L98 474 Q98 480 105 480 L122 480 Q128 480 128 473 L128 6 Q128 0 121 0 L104 0 L104 0 Z " />
<glyph glyph-name="iacute" unicode="&#xed;" horiz-adv-x="227" d="M104 0 Q98 0 98 7 L98 474 Q98 480 105 480 L122 480 Q128 480 128 473 L128 6 Q128 0 121 0 L104 0 L104 0 Z M105 565 Q99 565 101 572 L154 756 Q156 762 163 760 L190 750 Q197 748 193 741 L127 571 Q125 565 118 565 L105 565 L105 565 Z " />
<glyph glyph-name="icircumflex" unicode="&#xee;" horiz-adv-x="227" d="M104 0 Q98 0 98 7 L98 474 Q98 480 105 480 L122 480 Q128 480 128 473 L128 6 Q128 0 121 0 L104 0 L104 0 Z M240 570 Q243 565 237 565 L217 565 Q210 565 208 570 L114 712 L19 570 Q16 565 10 565 L-9 565 Q-15 565 -12 570 L98 745 Q101 750 107 750 L120 750 Q126 750 129 745 L240 570 L240 570 Z " />
<glyph glyph-name="idieresis" unicode="&#xef;" horiz-adv-x="227" d="M104 0 Q98 0 98 7 L98 474 Q98 480 105 480 L122 480 Q128 480 128 473 L128 6 Q128 0 121 0 L104 0 L104 0 Z M46 656 Q32 656 23.5 665.5 Q15 675 15 688 Q15 702 23.5 711.5 Q32 721 46 721 Q60 721 68.5 711.5 Q77 702 77 688 Q77 675 68.5 665.5 Q60 656 46 656 Z M179 656 Q165 656 156.5 665.5 Q148 675 148 688 Q148 702 156.5 711.5 Q165 721 179 721 Q193 721 201.5 711.5 Q210 702 210 688 Q210 675 201.5 665.5 Q193 656 179 656 Z " />
<glyph glyph-name="igrave" unicode="&#xec;" horiz-adv-x="227" d="M125 571 Q126 568 125.5 566.5 Q125 565 120 565 L107 565 Q101 565 98 572 L32 742 Q31 745 31.5 746.5 Q32 748 37 750 L64 760 Q67 761 68.5 760.5 Q70 760 72 755 L125 571 Z M104 0 Q98 0 98 7 L98 474 Q98 480 105 480 L122 480 Q128 480 128 473 L128 6 Q128 0 121 0 L104 0 Z " />
<glyph glyph-name="j" unicode="j" horiz-adv-x="209" d="M105 654 Q90 654 81.5 664 Q73 674 73 688 Q73 702 81.5 712 Q90 722 105 722 Q120 722 129 712 Q138 702 138 688 Q138 674 129 664 Q120 654 105 654 Z M30 -172 Q15 -172 2 -169 Q-11 -166 -22 -161 Q-27 -158 -27 -151 L-27 -134 Q-27 -128 -21 -132 Q0 -145 28 -145 Q54 -145 71.5 -127.5 Q89 -110 89 -77 L89 474 Q89 480 96 480 L113 480 Q119 480 119 473 L119 -77 Q119 -125 94.5 -148.5 Q70 -172 30 -172 Z " />
<glyph glyph-name="k" unicode="k" horiz-adv-x="415" d="M414 5 Q421 0 411 0 L384 0 Q378 0 373 5 L106 254 L106 6 Q106 0 99 0 L82 0 Q76 0 76 7 L76 744 Q76 750 83 750 L100 750 Q106 750 106 743 L106 258 L348 476 Q352 480 359 480 L389 480 Q395 480 390 475 L144 257 L414 5 L414 5 Z " />
<glyph glyph-name="l" unicode="l" horiz-adv-x="241" d="M162 -10 Q123 -10 102 10 Q81 30 81 77 L81 744 Q81 750 88 750 L105 750 Q111 750 111 743 L111 80 Q111 45 126 31 Q141 17 169 17 Q181 17 195.5 20.5 Q210 24 221 31 Q225 33 226.5 32.5 Q228 32 228 26 L228 11 Q228 4 222 2 Q210 -3 194 -6.5 Q178 -10 162 -10 Z " />
<glyph glyph-name="lslash" unicode="&#x142;" horiz-adv-x="241" d="M221 31 Q225 33 226.5 32.5 Q228 32 228 26 L228 11 Q228 4 222 2 Q210 -3 194 -6.5 Q178 -10 162 -10 Q123 -10 102 10 Q81 30 81 77 L81 417 L26 396 Q20 394 20 401 L20 413 Q20 418 27 422 L81 443 L81 744 Q81 750 88 750 L105 750 Q111 750 111 743 L111 454 L177 480 Q180 481 181.5 480.5 Q183 480 183 475 L183 463 Q183 457 176 454 L111 429 L111 80 Q111 45 126 31 Q141 17 169 17 Q181 17 195.5 20.5 Q210 24 221 31 Z " />
<glyph glyph-name="m" unicode="m" horiz-adv-x="758" d="M533 490 Q561 490 588 481 Q615 472 635.5 453.5 Q656 435 668.5 407 Q681 379 681 342 L681 6 Q681 0 674 0 L657 0 Q651 0 651 7 L651 340 Q651 372 640.5 395.5 Q630 419 613 434 Q596 449 574.5 456 Q553 463 530 463 Q503 463 478.5 452.5 Q454 442 435 423.5 Q416 405 405 380 Q394 355 394 326 L394 6 Q394 0 387 0 L370 0 Q364 0 364 7 L364 340 Q364 372 353.5 395.5 Q343 419 326 434 Q309 449 287.5 456 Q266 463 243 463 Q216 463 191.5 452.5 Q167 442 148 423.5 Q129 405 118 380 Q107 355 107 326 L107 6 Q107 0 100 0 L83 0 Q77 0 77 7 L77 474 Q77 480 84 480 L101 480 Q107 480 107 473 L107 401 Q127 445 164.5 467.5 Q202 490 247 490 Q270 490 292.5 484 Q315 478 333.5 465 Q352 452 366.5 433 Q381 414 388 389 Q405 439 445 464.5 Q485 490 533 490 Z " />
<glyph glyph-name="n" unicode="n" horiz-adv-x="519" d="M273 490 Q310 490 341 479.5 Q372 469 394.5 447 Q417 425 429.5 391.5 Q442 358 442 312 L442 6 Q442 0 435 0 L418 0 Q412 0 412 7 L412 311 Q412 392 372.5 427.5 Q333 463 270 463 Q234 463 204 450.5 Q174 438 152.5 415.5 Q131 393 119 363 Q107 333 107 299 L107 6 Q107 0 100 0 L83 0 Q77 0 77 7 L77 474 Q77 480 84 480 L101 480 Q107 480 107 473 L107 383 Q127 434 170 462 Q213 490 273 490 Z " />
<glyph glyph-name="ntilde" unicode="&#xf1;" horiz-adv-x="518" d="M273 490 Q310 490 341 479.5 Q372 469 394.5 447 Q417 425 429.5 391.5 Q442 358 442 312 L442 6 Q442 0 435 0 L418 0 Q412 0 412 7 L412 311 Q412 392 372.5 427.5 Q333 463 270 463 Q234 463 204 450.5 Q174 438 152.5 415.5 Q131 393 119 363 Q107 333 107 299 L107 6 Q107 0 100 0 L83 0 Q77 0 77 7 L77 474 Q77 480 84 480 L101 480 Q107 480 107 473 L107 383 Q127 434 170 462 Q213 490 273 490 Z M318 612 Q294 612 279 625 Q264 638 251 654 Q240 668 228.5 679 Q217 690 199 690 Q174 690 162 669 Q150 648 148 616 Q148 610 142 610 L130 610 Q124 610 124 616 Q126 660 145 689 Q164 718 199 718 Q225 718 240.5 704 Q256 690 268 675 Q279 661 290 651 Q301 641 318 641 Q341 641 352.5 659.5 Q364 678 366 707 Q366 713 372 713 L384 713 Q390 713 390 707 Q388 666 369 639 Q350 612 318 612 Z " />
<glyph glyph-name="o" unicode="o" horiz-adv-x="582" d="M291 -10 Q243 -10 199.5 9 Q156 28 123 62 Q90 96 70.5 142 Q51 188 51 242 Q51 295 70.5 340.5 Q90 386 123 419 Q156 452 199.5 471 Q243 490 291 490 Q339 490 382.5 471 Q426 452 459 419 Q492 386 511.5 340.5 Q531 295 531 242 Q531 188 511.5 142 Q492 96 459 62 Q426 28 382.5 9 Q339 -10 291 -10 Z M291 18 Q333 18 371.5 34.5 Q410 51 438.5 81 Q467 111 484 152 Q501 193 501 242 Q501 290 484 330.5 Q467 371 438.5 400 Q410 429 371.5 445.5 Q333 462 291 462 Q249 462 210.5 445.5 Q172 429 143.5 400 Q115 371 98 330.5 Q81 290 81 242 Q81 193 98 152 Q115 111 144 81 Q173 51 211 34.5 Q249 18 291 18 Z " />
<glyph glyph-name="oacute" unicode="&#xf3;" horiz-adv-x="582" d="M291 -10 Q243 -10 199.5 9 Q156 28 123 62 Q90 96 70.5 142 Q51 188 51 242 Q51 295 70.5 340.5 Q90 386 123 419 Q156 452 199.5 471 Q243 490 291 490 Q339 490 382.5 471 Q426 452 459 419 Q492 386 511.5 340.5 Q531 295 531 242 Q531 188 511.5 142 Q492 96 459 62 Q426 28 382.5 9 Q339 -10 291 -10 Z M291 18 Q333 18 371.5 34.5 Q410 51 438.5 81 Q467 111 484 152 Q501 193 501 242 Q501 290 484 330.5 Q467 371 438.5 400 Q410 429 371.5 445.5 Q333 462 291 462 Q249 462 210.5 445.5 Q172 429 143.5 400 Q115 371 98 330.5 Q81 290 81 242 Q81 193 98 152 Q115 111 144 81 Q173 51 211 34.5 Q249 18 291 18 Z M248 565 Q242 565 246 571 L362 760 Q364 762 365.5 763 Q367 764 371 762 L397 751 Q403 750 399 743 L273 570 Q271 568 269 566.5 Q267 565 262 565 L248 565 L248 565 Z " />
<glyph glyph-name="ocircumflex" unicode="&#xf4;" horiz-adv-x="582" d="M291 -10 Q243 -10 199.5 9 Q156 28 123 62 Q90 96 70.5 142 Q51 188 51 242 Q51 295 70.5 340.5 Q90 386 123 419 Q156 452 199.5 471 Q243 490 291 490 Q339 490 382.5 471 Q426 452 459 419 Q492 386 511.5 340.5 Q531 295 531 242 Q531 188 511.5 142 Q492 96 459 62 Q426 28 382.5 9 Q339 -10 291 -10 Z M291 18 Q333 18 371.5 34.5 Q410 51 438.5 81 Q467 111 484 152 Q501 193 501 242 Q501 290 484 330.5 Q467 371 438.5 400 Q410 429 371.5 445.5 Q333 462 291 462 Q249 462 210.5 445.5 Q172 429 143.5 400 Q115 371 98 330.5 Q81 290 81 242 Q81 193 98 152 Q115 111 144 81 Q173 51 211 34.5 Q249 18 291 18 Z M418 570 Q421 565 415 565 L395 565 Q388 565 386 570 L292 712 L197 570 Q194 565 188 565 L169 565 Q163 565 166 570 L276 745 Q279 750 285 750 L298 750 Q304 750 307 745 L418 570 L418 570 Z " />
<glyph glyph-name="odieresis" unicode="&#xf6;" horiz-adv-x="582" d="M291 -10 Q243 -10 199.5 9 Q156 28 123 62 Q90 96 70.5 142 Q51 188 51 242 Q51 295 70.5 340.5 Q90 386 123 419 Q156 452 199.5 471 Q243 490 291 490 Q339 490 382.5 471 Q426 452 459 419 Q492 386 511.5 340.5 Q531 295 531 242 Q531 188 511.5 142 Q492 96 459 62 Q426 28 382.5 9 Q339 -10 291 -10 Z M291 18 Q333 18 371.5 34.5 Q410 51 438.5 81 Q467 111 484 152 Q501 193 501 242 Q501 290 484 330.5 Q467 371 438.5 400 Q410 429 371.5 445.5 Q333 462 291 462 Q249 462 210.5 445.5 Q172 429 143.5 400 Q115 371 98 330.5 Q81 290 81 242 Q81 193 98 152 Q115 111 144 81 Q173 51 211 34.5 Q249 18 291 18 Z M224 656 Q210 656 201.5 665.5 Q193 675 193 688 Q193 702 201.5 711.5 Q210 721 224 721 Q238 721 246.5 711.5 Q255 702 255 688 Q255 675 246.5 665.5 Q238 656 224 656 Z M357 656 Q343 656 334.5 665.5 Q326 675 326 688 Q326 702 334.5 711.5 Q343 721 357 721 Q371 721 379.5 711.5 Q388 702 388 688 Q388 675 379.5 665.5 Q371 656 357 656 Z " />
<glyph glyph-name="ograve" unicode="&#xf2;" horiz-adv-x="582" d="M291 -10 Q243 -10 199.5 9 Q156 28 123 62 Q90 96 70.5 142 Q51 188 51 242 Q51 295 70.5 340.5 Q90 386 123 419 Q156 452 199.5 471 Q243 490 291 490 Q339 490 382.5 471 Q426 452 459 419 Q492 386 511.5 340.5 Q531 295 531 242 Q531 188 511.5 142 Q492 96 459 62 Q426 28 382.5 9 Q339 -10 291 -10 Z M291 18 Q333 18 371.5 34.5 Q410 51 438.5 81 Q467 111 484 152 Q501 193 501 242 Q501 290 484 330.5 Q467 371 438.5 400 Q410 429 371.5 445.5 Q333 462 291 462 Q249 462 210.5 445.5 Q172 429 143.5 400 Q115 371 98 330.5 Q81 290 81 242 Q81 193 98 152 Q115 111 144 81 Q173 51 211 34.5 Q249 18 291 18 Z M309 570 Q312 565 305 565 L291 565 Q285 565 281 571 L155 744 Q151 748 157 752 L183 763 Q190 765 193 759 L309 570 L309 570 Z " />
<glyph glyph-name="oslash" unicode="&#xf8;" horiz-adv-x="582" d="M415 454 Q466 422 498.5 366.5 Q531 311 531 242 Q531 188 511.5 142 Q492 96 459 62 Q426 28 382.5 9 Q339 -10 291 -10 Q262 -10 235 -3 Q208 4 184 17 L147 -52 Q144 -57 137 -57 L127 -57 Q120 -57 124 -51 L166 27 Q115 60 83 116 Q51 172 51 242 Q51 295 70.5 340.5 Q90 386 123 419 Q156 452 199.5 471 Q243 490 291 490 Q348 490 397 464 L434 533 Q437 538 444 538 L454 538 Q461 538 457 532 L415 454 Z M81 242 Q81 179 108 130 Q135 81 179 52 L384 440 Q340 462 291 462 Q249 462 210.5 445.5 Q172 429 143.5 400 Q115 371 98 330.5 Q81 290 81 242 Z M291 18 Q333 18 371.5 34.5 Q410 51 438.5 81 Q467 111 484 152 Q501 193 501 242 Q501 304 474 352.5 Q447 401 402 429 L197 42 Q239 18 291 18 Z " />
<glyph glyph-name="otilde" unicode="&#xf5;" horiz-adv-x="582" d="M291 -10 Q243 -10 199.5 9 Q156 28 123 62 Q90 96 70.5 142 Q51 188 51 242 Q51 295 70.5 340.5 Q90 386 123 419 Q156 452 199.5 471 Q243 490 291 490 Q339 490 382.5 471 Q426 452 459 419 Q492 386 511.5 340.5 Q531 295 531 242 Q531 188 511.5 142 Q492 96 459 62 Q426 28 382.5 9 Q339 -10 291 -10 Z M291 18 Q333 18 371.5 34.5 Q410 51 438.5 81 Q467 111 484 152 Q501 193 501 242 Q501 290 484 330.5 Q467 371 438.5 400 Q410 429 371.5 445.5 Q333 462 291 462 Q249 462 210.5 445.5 Q172 429 143.5 400 Q115 371 98 330.5 Q81 290 81 242 Q81 193 98 152 Q115 111 144 81 Q173 51 211 34.5 Q249 18 291 18 Z M352 612 Q328 612 313 625 Q298 638 285 654 Q274 668 262.5 679 Q251 690 233 690 Q208 690 196 669 Q184 648 182 616 Q182 610 176 610 L164 610 Q158 610 158 616 Q160 660 179 689 Q198 718 233 718 Q259 718 274.5 704 Q290 690 302 675 Q313 661 324 651 Q335 641 352 641 Q375 641 386.5 659.5 Q398 678 400 707 Q400 713 406 713 L418 713 Q424 713 424 707 Q422 666 403 639 Q384 612 352 612 Z " />
<glyph glyph-name="oe" unicode="&#x153;" horiz-adv-x="893" d="M485 273 Q484 265 483.5 257 Q483 249 483 241 Q483 131 538 74 Q593 17 684 17 Q726 17 765.5 30.5 Q805 44 839 73 Q843 77 843 70 L843 52 Q843 46 838 42 Q805 16 765.5 3 Q726 -10 682 -10 Q602 -10 546 31 Q490 72 467 148 Q445 76 392 33 Q339 -10 267 -10 Q221 -10 181.5 9 Q142 28 113 61.5 Q84 95 67.5 141.5 Q51 188 51 242 Q51 296 67.5 341.5 Q84 387 113 420 Q142 453 181.5 471.5 Q221 490 267 490 Q302 490 333.5 478.5 Q365 467 391 446.5 Q417 426 436.5 397 Q456 368 467 333 Q490 404 541 447 Q592 490 664 490 Q705 490 739 476.5 Q773 463 797.5 437 Q822 411 835.5 373 Q849 335 849 286 Q849 273 837 273 L485 273 Z M664 464 Q626 464 596.5 451 Q567 438 544.5 415.5 Q522 393 508 362.5 Q494 332 488 296 L823 296 Q821 372 777 418 Q733 464 664 464 Z M268 17 Q307 17 341 34 Q375 51 399.5 81 Q424 111 438 152.5 Q452 194 452 242 Q452 290 438 330.5 Q424 371 399.5 400.5 Q375 430 341 446.5 Q307 463 268 463 Q227 463 193 446.5 Q159 430 133.5 401 Q108 372 94 331 Q80 290 80 242 Q80 193 94 151.5 Q108 110 133.5 80 Q159 50 193 33.5 Q227 17 268 17 Z " />
<glyph glyph-name="p" unicode="p" horiz-adv-x="586" d="M305 490 Q351 490 392.5 473.5 Q434 457 465.5 425.5 Q497 394 515.5 347 Q534 300 534 240 Q534 180 514 133.5 Q494 87 462 55 Q430 23 389 6.5 Q348 -10 305 -10 Q245 -10 190.5 23.5 Q136 57 107 122 L107 -155 Q107 -162 100 -162 L84 -162 Q77 -162 77 -155 L77 473 Q77 480 84 480 L100 480 Q107 480 107 473 L107 360 Q134 424 188 457 Q242 490 305 490 Z M303 18 Q340 18 376.5 32.5 Q413 47 441 75 Q469 103 486.5 144.5 Q504 186 504 240 Q504 294 488 335 Q472 376 444 404.5 Q416 433 379.5 447.5 Q343 462 303 462 Q264 462 228 447 Q192 432 164.5 403.5 Q137 375 121 334 Q105 293 105 240 Q105 187 122 145.5 Q139 104 166.5 75.5 Q194 47 229.5 32.5 Q265 18 303 18 Z " />
<glyph glyph-name="thorn" unicode="&#xfe;" horiz-adv-x="556" d="M292 490 Q334 490 373 473.5 Q412 457 441 425 Q470 393 487.5 346.5 Q505 300 505 240 Q505 180 486.5 133.5 Q468 87 438 55 Q408 23 369.5 6.5 Q331 -10 292 -10 Q233 -10 183.5 24 Q134 58 108 123 L107 -157 Q107 -163 100 -163 L83 -163 Q77 -163 77 -156 L77 744 Q77 750 84 750 L100 750 Q106 750 106 743 L106 353 Q131 420 181.5 455 Q232 490 292 490 Z M288 17 Q322 17 355.5 31.5 Q389 46 415.5 74 Q442 102 458 144 Q474 186 474 240 Q474 294 459 335.5 Q444 377 418.5 405.5 Q393 434 359 448.5 Q325 463 288 463 Q250 463 216 447 Q182 431 157 401.5 Q132 372 117.5 331 Q103 290 103 240 Q103 190 117.5 149 Q132 108 157 78.5 Q182 49 216 33 Q250 17 288 17 Z " />
<glyph glyph-name="q" unicode="q" horiz-adv-x="584" d="M501 480 Q507 480 507 473 L507 -155 Q507 -162 501 -162 L484 -162 Q477 -162 477 -155 L477 121 Q463 89 441.5 64.5 Q420 40 394 23.5 Q368 7 338.5 -1.5 Q309 -10 279 -10 Q237 -10 196 6.5 Q155 23 122.5 55 Q90 87 70.5 133.5 Q51 180 51 240 Q51 300 69.5 347 Q88 394 119.5 425.5 Q151 457 192 473.5 Q233 490 279 490 Q343 490 397 456.5 Q451 423 478 360 L478 473 Q478 480 485 480 L501 480 Z M282 17 Q319 17 354.5 31.5 Q390 46 418 74.5 Q446 103 463 144.5 Q480 186 480 240 Q480 293 464 334.5 Q448 376 420.5 404.5 Q393 433 357 448 Q321 463 282 463 Q241 463 205 448.5 Q169 434 141 405.5 Q113 377 97 335.5 Q81 294 81 240 Q81 186 98.5 144 Q116 102 144.5 74 Q173 46 209 31.5 Q245 17 282 17 Z " />
<glyph glyph-name="r" unicode="r" horiz-adv-x="329" d="M294 490 Q300 490 300 483 L300 464 Q300 458 293 458 Q240 456 201 427 Q154 395 130.5 328.5 Q107 262 107 172 L107 6 Q107 0 100 0 L83 0 Q77 0 77 7 L77 474 Q77 480 84 480 L100 480 Q106 480 106 473 L106 311 Q126 399 174 443.5 Q222 488 294 490 Z " />
<glyph glyph-name="s" unicode="s" horiz-adv-x="433" d="M205 -10 Q188 -10 169 -7.5 Q150 -5 131.5 -0.5 Q113 4 96 10.5 Q79 17 66 25 Q61 30 61 35 L61 55 Q61 59 63 59 Q64 59 66 57 Q96 37 134.5 27 Q173 17 206 17 Q269 17 306.5 48.5 Q344 80 344 127 Q344 153 333 170.5 Q322 188 303.5 200.5 Q285 213 260.5 222 Q236 231 210 239 Q183 248 157 258 Q131 268 110.5 282.5 Q90 297 78 317.5 Q66 338 66 368 Q66 422 107.5 456 Q149 490 222 490 Q256 490 289.5 482.5 Q323 475 349 463 Q354 460 354 454 L354 435 Q354 431 352 431 Q350 431 348 432 Q322 446 288 454.5 Q254 463 222 463 Q163 463 129.5 437.5 Q96 412 96 370 Q96 346 106.5 329.5 Q117 313 135 301.5 Q153 290 176 281.5 Q199 273 224 265 Q252 256 278.5 245.5 Q305 235 326 220 Q347 205 360 183.5 Q373 162 373 131 Q373 101 361 75 Q349 49 327 30 Q305 11 274 0.5 Q243 -10 205 -10 Z " />
<glyph glyph-name="scaron" unicode="&#x161;" horiz-adv-x="433" d="M205 -10 Q188 -10 169 -7.5 Q150 -5 131.5 -0.5 Q113 4 96 10.5 Q79 17 66 25 Q61 30 61 35 L61 55 Q61 59 63 59 Q64 59 66 57 Q96 37 134.5 27 Q173 17 206 17 Q269 17 306.5 48.5 Q344 80 344 127 Q344 153 333 170.5 Q322 188 303.5 200.5 Q285 213 260.5 222 Q236 231 210 239 Q183 248 157 258 Q131 268 110.5 282.5 Q90 297 78 317.5 Q66 338 66 368 Q66 422 107.5 456 Q149 490 222 490 Q256 490 289.5 482.5 Q323 475 349 463 Q354 460 354 454 L354 435 Q354 431 352 431 Q350 431 348 432 Q322 446 288 454.5 Q254 463 222 463 Q163 463 129.5 437.5 Q96 412 96 370 Q96 346 106.5 329.5 Q117 313 135 301.5 Q153 290 176 281.5 Q199 273 224 265 Q252 256 278.5 245.5 Q305 235 326 220 Q347 205 360 183.5 Q373 162 373 131 Q373 101 361 75 Q349 49 327 30 Q305 11 274 0.5 Q243 -10 205 -10 Z M338 747 Q344 747 340 741 L231 577 Q228 572 221 572 L210 572 Q204 572 200 578 L90 742 Q87 747 94 747 L112 747 Q118 747 122 741 L216 606 L311 742 Q314 747 321 747 L338 747 L338 747 Z " />
<glyph glyph-name="germandbls" unicode="&#xdf;" horiz-adv-x="492" d="M278 -10 Q254 -10 225.5 -5 Q197 0 179 7 Q174 9 174 16 L174 33 Q174 40 180 36 Q200 28 226.5 22.5 Q253 17 275 17 Q338 17 371 48.5 Q404 80 404 133 Q404 177 378 206.5 Q352 236 315 260 Q294 273 274 286 Q254 299 238.5 314.5 Q223 330 213.5 350 Q204 370 204 398 Q204 439 223.5 467 Q243 495 268 521 Q283 537 295 550.5 Q307 564 316 578 Q325 592 329.5 607.5 Q334 623 334 643 Q334 684 304 708 Q274 732 227 732 Q176 732 143.5 697.5 Q111 663 111 591 L111 6 Q111 0 104 0 L87 0 Q81 0 81 7 L81 590 Q81 633 92 665 Q103 697 122.5 718 Q142 739 169 749.5 Q196 760 227 760 Q255 760 280 752 Q305 744 323.5 729 Q342 714 353 692.5 Q364 671 364 644 Q364 621 358 603 Q352 585 342.5 569.5 Q333 554 320 540 Q307 526 293 511 Q269 484 250.5 459.5 Q232 435 232 400 Q232 378 240 361.5 Q248 345 262 331.5 Q276 318 294.5 306 Q313 294 334 280 Q353 267 371 254 Q389 241 402.5 224.5 Q416 208 424 186 Q432 164 432 134 Q432 71 392.5 30.5 Q353 -10 278 -10 Z " />
<glyph glyph-name="t" unicode="t" horiz-adv-x="325" d="M284 27 Q287 28 291 28 Q296 28 296 19 L296 9 Q296 3 289 1 Q275 -4 256.5 -7 Q238 -10 221 -10 Q163 -10 135 20.5 Q107 51 107 123 L107 456 L30 456 Q24 456 24 463 L24 474 Q24 480 31 480 L107 480 L107 615 Q107 621 114 621 L131 621 Q137 621 137 614 L137 480 L280 480 Q286 480 286 473 L286 462 Q286 456 279 456 L137 456 L137 124 Q137 65 159 41 Q181 17 226 17 Q240 17 255 19.5 Q270 22 284 27 Z " />
<glyph glyph-name="u" unicode="u" horiz-adv-x="511" d="M428 480 Q434 480 434 473 L434 6 Q434 0 427 0 L411 0 Q405 0 405 7 L405 105 L404 112 L404 114 Q384 53 341 21.5 Q298 -10 238 -10 Q203 -10 173.5 0.5 Q144 11 122.5 34 Q101 57 89 92 Q77 127 77 177 L77 474 Q77 480 84 480 L101 480 Q107 480 107 473 L107 177 Q107 133 117 102.5 Q127 72 145 53 Q163 34 187.5 25.5 Q212 17 242 17 Q279 17 309 31.5 Q339 46 360 72.5 Q381 99 392.5 136.5 Q404 174 404 219 L404 474 Q404 480 411 480 L428 480 L428 480 Z " />
<glyph glyph-name="uacute" unicode="&#xfa;" horiz-adv-x="510" d="M428 480 Q434 480 434 473 L434 6 Q434 0 427 0 L411 0 Q405 0 405 7 L405 105 L404 112 L404 114 Q384 53 341 21.5 Q298 -10 238 -10 Q203 -10 173.5 0.5 Q144 11 122.5 34 Q101 57 89 92 Q77 127 77 177 L77 474 Q77 480 84 480 L101 480 Q107 480 107 473 L107 177 Q107 133 117 102.5 Q127 72 145 53 Q163 34 187.5 25.5 Q212 17 242 17 Q279 17 309 31.5 Q339 46 360 72.5 Q381 99 392.5 136.5 Q404 174 404 219 L404 474 Q404 480 411 480 L428 480 L428 480 Z M211 565 Q205 565 209 571 L325 760 Q327 762 328.5 763 Q330 764 334 762 L360 751 Q366 750 362 743 L236 570 Q234 568 232 566.5 Q230 565 225 565 L211 565 L211 565 Z " />
<glyph glyph-name="ucircumflex" unicode="&#xfb;" horiz-adv-x="510" d="M428 480 Q434 480 434 473 L434 6 Q434 0 427 0 L411 0 Q405 0 405 7 L405 105 L404 112 L404 114 Q384 53 341 21.5 Q298 -10 238 -10 Q203 -10 173.5 0.5 Q144 11 122.5 34 Q101 57 89 92 Q77 127 77 177 L77 474 Q77 480 84 480 L101 480 Q107 480 107 473 L107 177 Q107 133 117 102.5 Q127 72 145 53 Q163 34 187.5 25.5 Q212 17 242 17 Q279 17 309 31.5 Q339 46 360 72.5 Q381 99 392.5 136.5 Q404 174 404 219 L404 474 Q404 480 411 480 L428 480 L428 480 Z M381 570 Q384 565 378 565 L358 565 Q351 565 349 570 L255 712 L160 570 Q157 565 151 565 L132 565 Q126 565 129 570 L239 745 Q242 750 248 750 L261 750 Q267 750 270 745 L381 570 L381 570 Z " />
<glyph glyph-name="udieresis" unicode="&#xfc;" horiz-adv-x="510" d="M428 480 Q434 480 434 473 L434 6 Q434 0 427 0 L411 0 Q405 0 405 7 L405 105 L404 112 L404 114 Q384 53 341 21.5 Q298 -10 238 -10 Q203 -10 173.5 0.5 Q144 11 122.5 34 Q101 57 89 92 Q77 127 77 177 L77 474 Q77 480 84 480 L101 480 Q107 480 107 473 L107 177 Q107 133 117 102.5 Q127 72 145 53 Q163 34 187.5 25.5 Q212 17 242 17 Q279 17 309 31.5 Q339 46 360 72.5 Q381 99 392.5 136.5 Q404 174 404 219 L404 474 Q404 480 411 480 L428 480 L428 480 Z M187 656 Q173 656 164.5 665.5 Q156 675 156 688 Q156 702 164.5 711.5 Q173 721 187 721 Q201 721 209.5 711.5 Q218 702 218 688 Q218 675 209.5 665.5 Q201 656 187 656 Z M320 656 Q306 656 297.5 665.5 Q289 675 289 688 Q289 702 297.5 711.5 Q306 721 320 721 Q334 721 342.5 711.5 Q351 702 351 688 Q351 675 342.5 665.5 Q334 656 320 656 Z " />
<glyph glyph-name="ugrave" unicode="&#xf9;" horiz-adv-x="510" d="M428 480 Q434 480 434 473 L434 6 Q434 0 427 0 L411 0 Q405 0 405 7 L405 105 L404 112 L404 114 Q384 53 341 21.5 Q298 -10 238 -10 Q203 -10 173.5 0.5 Q144 11 122.5 34 Q101 57 89 92 Q77 127 77 177 L77 474 Q77 480 84 480 L101 480 Q107 480 107 473 L107 177 Q107 133 117 102.5 Q127 72 145 53 Q163 34 187.5 25.5 Q212 17 242 17 Q279 17 309 31.5 Q339 46 360 72.5 Q381 99 392.5 136.5 Q404 174 404 219 L404 474 Q404 480 411 480 L428 480 L428 480 Z M272 570 Q275 565 268 565 L254 565 Q248 565 244 571 L118 744 Q114 748 120 752 L146 763 Q153 765 156 759 L272 570 L272 570 Z " />
<glyph glyph-name="v" unicode="v" horiz-adv-x="468" d="M436 480 Q443 480 439 474 L251 6 Q249 0 242 0 L225 0 Q220 0 216 6 L28 474 Q26 480 33 480 L53 480 Q58 480 62 473 L235 38 L408 474 Q409 480 417 480 L436 480 L436 480 Z " />
<glyph glyph-name="w" unicode="w" horiz-adv-x="648" d="M617 480 Q623 480 621 473 L486 6 Q484 0 477 0 L461 0 Q455 0 453 7 L325 435 L196 6 Q194 0 187 0 L171 0 Q165 0 163 7 L27 474 Q25 480 32 480 L50 480 Q56 480 58 473 L181 43 L308 474 Q309 480 317 480 L333 480 Q339 480 341 473 L469 45 L589 474 Q590 480 598 480 L617 480 L617 480 Z " />
<glyph glyph-name="x" unicode="x" horiz-adv-x="424" d="M405 11 Q409 5 409 4 Q409 0 400 0 L381 0 Q375 0 371 6 L214 225 L52 5 Q50 3 48 1.5 Q46 0 41 0 L22 0 Q9 0 17 10 L195 246 L32 470 Q28 476 28 477 Q28 480 37 480 L56 480 Q62 480 66 474 L214 269 L364 475 Q366 477 368 478.5 Q370 480 375 480 L393 480 Q400 480 401.5 478 Q403 476 398 470 L233 249 L405 11 L405 11 Z " />
<glyph glyph-name="y" unicode="y" horiz-adv-x="463" d="M440 480 Q447 480 443 474 L216 -63 Q193 -116 162 -144 Q131 -172 90 -172 Q67 -172 50 -167.5 Q33 -163 19 -155 Q14 -152 14 -145 L14 -126 Q14 -120 20 -124 Q47 -145 90 -145 Q121 -145 146 -123.5 Q171 -102 188 -60 L217 7 L18 474 Q16 480 23 480 L42 480 Q47 480 51 474 L232 45 L413 474 Q414 480 422 480 L440 480 L440 480 Z " />
<glyph glyph-name="yacute" unicode="&#xfd;" horiz-adv-x="463" d="M440 480 Q447 480 443 474 L216 -63 Q193 -116 162 -144 Q131 -172 90 -172 Q67 -172 50 -167.5 Q33 -163 19 -155 Q14 -152 14 -145 L14 -126 Q14 -120 20 -124 Q47 -145 90 -145 Q121 -145 146 -123.5 Q171 -102 188 -60 L217 7 L18 474 Q16 480 23 480 L42 480 Q47 480 51 474 L232 45 L413 474 Q414 480 422 480 L440 480 L440 480 Z M183 565 Q177 565 181 571 L297 760 Q299 762 300.5 763 Q302 764 306 762 L332 751 Q338 750 334 743 L208 570 Q206 568 204 566.5 Q202 565 197 565 L183 565 L183 565 Z " />
<glyph glyph-name="ydieresis" unicode="&#xff;" horiz-adv-x="463" d="M440 480 Q447 480 443 474 L216 -63 Q193 -116 162 -144 Q131 -172 90 -172 Q67 -172 50 -167.5 Q33 -163 19 -155 Q14 -152 14 -145 L14 -126 Q14 -120 20 -124 Q47 -145 90 -145 Q121 -145 146 -123.5 Q171 -102 188 -60 L217 7 L18 474 Q16 480 23 480 L42 480 Q47 480 51 474 L232 45 L413 474 Q414 480 422 480 L440 480 L440 480 Z M159 656 Q145 656 136.5 665.5 Q128 675 128 688 Q128 702 136.5 711.5 Q145 721 159 721 Q173 721 181.5 711.5 Q190 702 190 688 Q190 675 181.5 665.5 Q173 656 159 656 Z M292 656 Q278 656 269.5 665.5 Q261 675 261 688 Q261 702 269.5 711.5 Q278 721 292 721 Q306 721 314.5 711.5 Q323 702 323 688 Q323 675 314.5 665.5 Q306 656 292 656 Z " />
<glyph glyph-name="z" unicode="z" horiz-adv-x="435" d="M41 0 Q35 0 35 7 L35 11 Q35 16 39 23 L354 453 L60 453 Q54 453 54 460 L54 474 Q54 480 61 480 L387 480 Q393 480 393 473 L393 469 Q393 464 389 457 L73 27 L386 27 Q392 27 392 20 L392 6 Q392 0 385 0 L41 0 L41 0 Z " />
<glyph glyph-name="zcaron" unicode="&#x17e;" horiz-adv-x="437" d="M41 0 Q35 0 35 7 L35 11 Q35 16 39 23 L354 453 L60 453 Q54 453 54 460 L54 474 Q54 480 61 480 L387 480 Q393 480 393 473 L393 469 Q393 464 389 457 L73 27 L386 27 Q392 27 392 20 L392 6 Q392 0 385 0 L41 0 L41 0 Z M331 747 Q337 747 333 741 L224 577 Q221 572 214 572 L203 572 Q197 572 193 578 L83 742 Q80 747 87 747 L105 747 Q111 747 115 741 L209 606 L304 742 Q307 747 314 747 L331 747 L331 747 Z " />
<glyph glyph-name="fi" unicode="&#xfb01;" horiz-adv-x="525" d="M318 744 Q323 741 323 734 L323 723 Q323 716 321 714.5 Q319 713 312 717 Q287 733 246 733 Q204 733 178.5 709 Q153 685 153 628 L153 480 L306 480 Q312 480 312 473 L312 461 Q312 455 305 455 L153 455 L153 6 Q153 0 146 0 L129 0 Q123 0 123 7 L123 455 L39 455 Q33 455 33 462 L33 474 Q33 480 40 480 L123 480 L123 629 Q123 699 155 729.5 Q187 760 243 760 Q266 760 285 755.5 Q304 751 318 744 Z M420 654 Q405 654 396.5 664 Q388 674 388 688 Q388 702 396.5 712 Q405 722 420 722 Q435 722 444 712 Q453 702 453 688 Q453 674 444 664 Q435 654 420 654 Z M410 0 Q404 0 404 7 L404 474 Q404 480 411 480 L428 480 Q434 480 434 473 L434 6 Q434 0 427 0 L410 0 Z " />
<glyph glyph-name="fl" unicode="&#xfb02;" horiz-adv-x="556" d="M318 744 Q323 741 323 734 L323 723 Q323 716 321 714.5 Q319 713 312 717 Q287 733 246 733 Q204 733 178.5 709 Q153 685 153 628 L153 480 L306 480 Q312 480 312 473 L312 461 Q312 455 305 455 L153 455 L153 6 Q153 0 146 0 L129 0 Q123 0 123 7 L123 455 L39 455 Q33 455 33 462 L33 474 Q33 480 40 480 L123 480 L123 629 Q123 699 155 729.5 Q187 760 243 760 Q266 760 285 755.5 Q304 751 318 744 Z M477 -10 Q438 -10 417 10 Q396 30 396 77 L396 744 Q396 750 403 750 L420 750 Q426 750 426 743 L426 80 Q426 45 441 31 Q456 17 484 17 Q496 17 510.5 20.5 Q525 24 536 31 Q540 33 541.5 32.5 Q543 32 543 26 L543 11 Q543 4 537 2 Q525 -3 509 -6.5 Q493 -10 477 -10 Z " />
<glyph glyph-name="ordfeminine" unicode="&#xaa;" horiz-adv-x="370" d="M169 438 Q145 438 122 447.5 Q99 457 81 475 Q63 493 52.5 519 Q42 545 42 578 Q42 612 52 638 Q62 664 79 682 Q96 700 119.5 709.5 Q143 719 169 719 Q204 719 232 703 Q260 687 277 655 L277 705 Q277 711 283 711 L298 711 Q304 711 304 705 L304 450 Q304 444 298 444 L283 444 Q277 444 277 450 L277 506 Q260 472 231 455 Q202 438 169 438 Z M175 695 Q132 695 101 665 Q70 635 70 578 Q70 550 79 528.5 Q88 507 102.5 492 Q117 477 136 469.5 Q155 462 175 462 Q194 462 212.5 469.5 Q231 477 245 492 Q259 507 268 528.5 Q277 550 277 578 Q277 606 268.5 628 Q260 650 246 665 Q232 680 213.5 687.5 Q195 695 175 695 Z M313 376 Q319 376 319 370 L319 361 Q319 355 313 355 L59 355 Q53 355 53 361 L53 370 Q53 376 59 376 L313 376 Z " />
<glyph glyph-name="ordmasculine" unicode="&#xba;" horiz-adv-x="356" d="M179 443 Q150 443 125 453.5 Q100 464 81.5 482.5 Q63 501 52.5 526.5 Q42 552 42 582 Q42 612 52.5 637.5 Q63 663 81.5 681.5 Q100 700 125 710 Q150 720 179 720 Q207 720 231.5 710 Q256 700 274.5 681.5 Q293 663 303.5 637.5 Q314 612 314 582 Q314 552 303.5 526.5 Q293 501 275 482.5 Q257 464 232 453.5 Q207 443 179 443 Z M179 468 Q225 468 255.5 499.5 Q286 531 286 582 Q286 632 255.5 663.5 Q225 695 179 695 Q132 695 101 663.5 Q70 632 70 582 Q70 531 101 499.5 Q132 468 179 468 Z M59 358 Q53 358 53 364 L53 373 Q53 379 59 379 L302 379 Q308 379 308 373 L308 364 Q308 358 302 358 L59 358 Z " />
<glyph glyph-name="Delta" unicode="&#x394;" horiz-adv-x="622" d="M22 0 Q16 0 16 7 Q16 10 16.5 12.5 Q17 15 19 19 L300 709 Q301 715 309 715 L315 715 Q320 715 324 709 L605 19 Q606 16 606.5 13.5 Q607 11 607 6 Q607 0 600 0 L22 0 Z M570 28 L311 665 L52 28 L570 28 Z " />
<glyph glyph-name="Omega" unicode="&#x3a9;" horiz-adv-x="670" d="M70 0 Q64 0 64 7 L64 23 Q64 29 71 29 L267 29 L267 133 Q216 148 175 176.5 Q134 205 104.5 243 Q75 281 59 328 Q43 375 43 428 Q43 491 65 544.5 Q87 598 126 637 Q165 676 217.5 698 Q270 720 331 720 Q392 720 444.5 698 Q497 676 535.5 637 Q574 598 596 544.5 Q618 491 618 428 Q618 375 602 328 Q586 281 556.5 243 Q527 205 486 176.5 Q445 148 395 133 L395 29 L592 29 Q598 29 598 22 L598 6 Q598 0 591 0 L372 0 Q366 0 366 7 L366 138 Q366 144 373 146 Q418 161 457.5 187 Q497 213 526 248.5 Q555 284 571.5 328.5 Q588 373 588 426 Q588 483 568.5 531.5 Q549 580 515 616 Q481 652 433.5 672 Q386 692 331 692 Q275 692 228 672 Q181 652 147 616 Q113 580 93.5 531.5 Q74 483 74 426 Q74 373 90.5 328 Q107 283 136 247.5 Q165 212 204.5 186.5 Q244 161 290 146 Q296 144 296 137 L296 6 Q296 0 289 0 L70 0 L70 0 Z " />
<glyph glyph-name="mu" unicode="&#x3bc;" horiz-adv-x="511" d="M428 480 Q434 480 434 473 L434 6 Q434 0 427 0 L411 0 Q405 0 405 7 L405 106 L404 113 L404 118 Q385 55 342.5 22.5 Q300 -10 240 -10 Q195 -10 160 7.5 Q125 25 105 65 L107 -156 Q107 -162 100 -162 L83 -162 Q77 -162 77 -155 L78 86 L77 474 Q77 480 84 480 L101 480 Q107 480 107 473 L107 174 Q107 87 144.5 51.5 Q182 16 242 16 Q279 16 309 30.5 Q339 45 360 72 Q381 99 392.5 137 Q404 175 404 221 L404 474 Q404 480 411 480 L428 480 L428 480 Z " />
<glyph glyph-name="pi" unicode="&#x3c0;" horiz-adv-x="489" d="M454 31 Q458 33 459.5 32.5 Q461 32 461 26 L461 11 Q461 4 455 2 Q443 -3 427 -6.5 Q411 -10 396 -10 Q357 -10 336 11.5 Q315 33 315 83 L315 452 L129 452 L129 6 Q129 0 122 0 L106 0 Q100 0 100 7 L100 452 L11 452 Q5 452 5 459 L5 474 Q5 480 12 480 L433 480 Q439 480 439 473 L439 458 Q439 452 432 452 L344 452 L344 85 Q344 48 359.5 32.5 Q375 17 402 17 Q415 17 429 20.5 Q443 24 454 31 Z " />
<glyph glyph-name="zero" unicode="0" horiz-adv-x="640" d="M320 -11 Q265 -11 218.5 12.5 Q172 36 138 82 Q104 128 85 195.5 Q66 263 66 351 Q66 439 85.5 507.5 Q105 576 139.5 623.5 Q174 671 220 695.5 Q266 720 320 720 Q373 720 419.5 695 Q466 670 500.5 623 Q535 576 554.5 507.5 Q574 439 574 351 Q574 264 554.5 196.5 Q535 129 501 83 Q467 37 420.5 13 Q374 -11 320 -11 Z M320 19 Q368 19 409 40.5 Q450 62 480 104 Q510 146 527 208 Q544 270 544 351 Q544 432 527 495.5 Q510 559 480 602.5 Q450 646 409 668.5 Q368 691 320 691 Q272 691 231 668.5 Q190 646 160 602.5 Q130 559 113 496 Q96 433 96 351 Q96 269 113 207 Q130 145 160 103 Q190 61 231 40 Q272 19 320 19 Z " />
<glyph glyph-name="one" unicode="1" horiz-adv-x="415" d="M250 710 Q256 710 256 703 L256 6 Q256 0 249 0 L232 0 Q226 0 226 7 L226 675 L56 588 Q51 585 51 592 L51 609 Q51 614 57 618 L231 707 Q235 710 243 710 L250 710 L250 710 Z " />
<glyph glyph-name="two" unicode="2" horiz-adv-x="526" d="M474 27 Q480 27 480 20 L480 6 Q480 0 473 0 L54 0 Q42 0 42 8 Q42 12 49 21 L302 326 Q327 357 348.5 384 Q370 411 386 437 Q402 463 410.5 489.5 Q419 516 419 546 Q419 577 405 604 Q391 631 366.5 650.5 Q342 670 307.5 681.5 Q273 693 232 693 Q182 693 139 681 Q96 669 66 651 Q56 646 56 646 Q54 646 54 651 L54 667 Q54 673 60 677 Q92 697 138 708.5 Q184 720 235 720 Q283 720 322.5 707 Q362 694 390 671 Q418 648 433.5 616.5 Q449 585 449 547 Q449 514 440.5 485.5 Q432 457 416.5 430 Q401 403 379 375.5 Q357 348 331 317 L88 27 L474 27 L474 27 Z " />
<glyph glyph-name="three" unicode="3" horiz-adv-x="522" d="M262 379 Q308 374 346.5 358.5 Q385 343 412.5 318.5 Q440 294 455 262 Q470 230 470 193 Q470 151 453 114.5 Q436 78 405 50 Q374 22 330.5 6 Q287 -10 233 -10 Q179 -10 133.5 0.5 Q88 11 53 28 Q48 31 48 38 L48 58 Q48 63 54 61 Q90 42 132 30.5 Q174 19 233 19 Q279 19 317 32.5 Q355 46 382 69.5 Q409 93 424 125 Q439 157 439 193 Q439 230 422 261 Q405 292 372.5 314.5 Q340 337 292.5 349.5 Q245 362 184 362 L164 362 Q158 362 158 369 L158 384 Q158 390 165 390 L185 390 Q240 390 282 404.5 Q324 419 351.5 442 Q379 465 393 493.5 Q407 522 407 551 Q407 581 394.5 606.5 Q382 632 358 651 Q334 670 300.5 681 Q267 692 225 692 Q178 692 140.5 680 Q103 668 70 650 Q65 647 65 654 L65 674 Q65 679 71 683 Q103 699 143 709.5 Q183 720 226 720 Q275 720 314.5 707 Q354 694 381 671.5 Q408 649 422.5 618.5 Q437 588 437 554 Q437 525 425.5 496.5 Q414 468 391.5 444 Q369 420 336.5 402.5 Q304 385 262 379 Z " />
<glyph glyph-name="four" unicode="4" horiz-adv-x="571" d="M532 179 Q538 179 538 172 L538 157 Q538 151 531 151 L425 151 L425 6 Q425 0 418 0 L401 0 Q395 0 395 7 L395 151 L27 151 Q21 151 21 158 L21 167 Q21 172 25 179 L402 705 Q405 710 412 710 L419 710 Q425 710 425 703 L425 179 L532 179 Z M396 650 Q382 630 368 610.5 Q354 591 340 571 L56 179 L395 179 L395 557 Q395 580 395 603 Q395 626 396 650 Z " />
<glyph glyph-name="five" unicode="5" horiz-adv-x="533" d="M237 444 Q289 444 333.5 428.5 Q378 413 410.5 384.5 Q443 356 461.5 315 Q480 274 480 224 Q480 171 459.5 128 Q439 85 402.5 54.5 Q366 24 316 7 Q266 -10 208 -10 Q167 -10 127.5 -1.5 Q88 7 56 23 Q51 26 51 33 L51 50 Q51 54 54 54 Q54 54 56 53 Q90 36 128.5 27 Q167 18 207 18 Q258 18 302.5 32.5 Q347 47 380 74 Q413 101 431.5 138.5 Q450 176 450 223 Q450 267 433 303 Q416 339 386 364.5 Q356 390 315.5 404 Q275 418 228 418 Q196 418 170.5 412.5 Q145 407 126 400.5 Q107 394 95.5 388.5 Q84 383 79 383 Q72 383 72 390 Q72 393 72.5 397 Q73 401 74 407 L140 704 Q141 710 148 710 L441 710 Q447 710 447 703 L447 687 Q447 681 440 681 L163 681 L104 417 Q131 430 165.5 437 Q200 444 237 444 Z " />
<glyph glyph-name="six" unicode="6" horiz-adv-x="548" d="M274 424 Q322 424 363 408 Q404 392 434 363.5 Q464 335 481 294.5 Q498 254 498 206 Q498 159 479.5 119.5 Q461 80 430 51 Q399 22 358.5 6 Q318 -10 274 -10 Q227 -10 186.5 5.5 Q146 21 115.5 49 Q85 77 67.5 115.5 Q50 154 50 201 Q50 252 67.5 299.5 Q85 347 125 397 L372 705 Q374 707 376 708.5 Q378 710 383 710 L405 710 Q411 710 407 705 L170 413 Q162 402 149 387.5 Q136 373 122 356 Q160 394 196 409 Q232 424 274 424 Z M274 18 Q314 18 349.5 32.5 Q385 47 411.5 72.5 Q438 98 453.5 132.5 Q469 167 469 206 Q469 249 454 284.5 Q439 320 413 345 Q387 370 351 384 Q315 398 272 398 Q231 398 196 383 Q161 368 135 341.5 Q109 315 94 279 Q79 243 79 201 Q79 163 94 129.5 Q109 96 135 71 Q161 46 196.5 32 Q232 18 274 18 Z " />
<glyph glyph-name="seven" unicode="7" horiz-adv-x="498" d="M466 710 Q473 710 469 704 L103 5 Q100 0 93 0 L73 0 Q66 0 70 6 L425 680 L56 680 Q50 680 50 687 L50 704 Q50 710 57 710 L466 710 L466 710 Z " />
<glyph glyph-name="eight" unicode="8" horiz-adv-x="586" d="M293 -8 Q245 -8 203.5 6.5 Q162 21 131.5 47.5 Q101 74 83 110.5 Q65 147 65 192 Q65 228 78 259 Q91 290 112.5 314 Q134 338 162.5 354.5 Q191 371 223 379 Q165 396 131 441 Q97 486 97 546 Q97 583 112 614.5 Q127 646 153.5 669.5 Q180 693 215.5 706.5 Q251 720 293 720 Q335 720 371 706.5 Q407 693 433.5 669.5 Q460 646 475 614.5 Q490 583 490 546 Q490 487 455.5 441.5 Q421 396 364 379 Q395 371 423.5 354.5 Q452 338 473.5 314 Q495 290 508 259 Q521 228 521 192 Q521 147 503.5 110.5 Q486 74 455 47.5 Q424 21 382.5 6.5 Q341 -8 293 -8 Z M293 392 Q332 392 363 404 Q394 416 416 437 Q438 458 450 485.5 Q462 513 462 545 Q462 576 449 603 Q436 630 413 650 Q390 670 359 681.5 Q328 693 293 693 Q258 693 227.5 681.5 Q197 670 174 650 Q151 630 138 603 Q125 576 125 545 Q125 513 137 485.5 Q149 458 170.5 437 Q192 416 223 404 Q254 392 293 392 Z M293 19 Q335 19 371.5 32.5 Q408 46 434.5 69 Q461 92 476 124 Q491 156 491 193 Q491 232 475 263.5 Q459 295 432 317.5 Q405 340 369 352.5 Q333 365 293 365 Q254 365 218 352.5 Q182 340 154.5 317.5 Q127 295 111 263.5 Q95 232 95 193 Q95 156 110 124 Q125 92 152 69 Q179 46 215 32.5 Q251 19 293 19 Z " />
<glyph glyph-name="nine" unicode="9" horiz-adv-x="548" d="M271 720 Q317 720 358 704.5 Q399 689 429.5 661 Q460 633 477.5 594 Q495 555 495 509 Q495 458 477.5 410.5 Q460 363 420 313 L173 5 Q171 3 169 1.5 Q167 0 162 0 L140 0 Q134 0 138 5 L375 297 Q383 308 396 322.5 Q409 337 423 354 Q385 316 349 301 Q313 286 271 286 Q223 286 182 302 Q141 318 111 346.5 Q81 375 64 415.5 Q47 456 47 504 Q47 551 65.5 590.5 Q84 630 115 659 Q146 688 186.5 704 Q227 720 271 720 Z M273 312 Q313 312 348.5 327 Q384 342 410 368.5 Q436 395 451 431 Q466 467 466 509 Q466 547 451 580.5 Q436 614 410 638.5 Q384 663 348.5 677.5 Q313 692 271 692 Q231 692 195.5 677 Q160 662 133.5 636.5 Q107 611 91.5 577 Q76 543 76 504 Q76 461 90.5 425.5 Q105 390 131.5 365 Q158 340 194 326 Q230 312 273 312 Z " />
<glyph glyph-name="onesuperior" unicode="&#xb9;" horiz-adv-x="354" d="M212 844 Q218 844 218 837 L218 426 Q218 420 211 420 L198 420 Q192 420 192 427 L192 814 L67 763 Q61 761 61 768 L61 781 Q61 786 67 790 L195 842 Q198 843 200.5 843.5 Q203 844 207 844 L212 844 L212 844 Z " />
<glyph glyph-name="twosuperior" unicode="&#xb2;" horiz-adv-x="362" d="M304 443 Q310 443 310 436 L310 426 Q310 420 303 420 L41 420 Q35 420 39 425 L195 612 Q226 648 245 677 Q264 706 264 740 Q264 777 234.5 801.5 Q205 826 157 826 Q128 826 101.5 817 Q75 808 54 793 Q49 788 49 796 L49 810 Q49 816 55 820 Q76 834 104 842 Q132 850 162 850 Q219 850 254.5 820.5 Q290 791 290 744 Q290 706 271.5 675 Q253 644 222 606 L83 443 L304 443 L304 443 Z " />
<glyph glyph-name="threesuperior" unicode="&#xb3;" horiz-adv-x="360" d="M187 646 Q244 639 277 609.5 Q310 580 310 536 Q310 510 299.5 488 Q289 466 269.5 449.5 Q250 433 223 423.5 Q196 414 163 414 Q131 414 104 420 Q77 426 56 435 Q51 438 51 445 L51 458 Q51 465 57 461 Q78 451 102.5 444.5 Q127 438 161 438 Q215 438 248 466.5 Q281 495 281 537 Q281 579 242.5 606 Q204 633 133 633 L122 633 Q116 633 116 640 L116 650 Q116 656 123 656 L133 656 Q166 656 190 664 Q214 672 230 685 Q246 698 254 714 Q262 730 262 747 Q262 780 233.5 803.5 Q205 827 157 827 Q130 827 108 820.5 Q86 814 66 804 Q61 801 61 808 L61 821 Q61 828 67 830 Q87 838 110.5 844 Q134 850 159 850 Q221 850 255.5 821.5 Q290 793 290 751 Q290 716 264 685.5 Q238 655 187 646 Z " />
<glyph glyph-name="fraction" unicode="&#x2044;" horiz-adv-x="117" d="M-181 -17 Q-186 -14 -182 -8 L266 720 Q268 722 269.5 723 Q271 724 275 722 L282 718 Q287 715 283 709 L-165 -19 Q-167 -21 -168.5 -22 Q-170 -23 -174 -21 L-181 -17 L-181 -17 Z " />
<glyph glyph-name="onehalf" unicode="&#xbd;" horiz-adv-x="836" d="M212 714 Q218 714 218 707 L218 296 Q218 290 211 290 L198 290 Q192 290 192 297 L192 684 L67 633 Q61 631 61 638 L61 651 Q61 656 67 660 L195 712 Q198 713 200.5 713.5 Q203 714 207 714 L212 714 L212 714 Z M176 -17 Q171 -14 175 -8 L623 720 Q625 722 626.5 723 Q628 724 632 722 L639 718 Q644 715 640 709 L192 -19 Q190 -21 188.5 -22 Q187 -23 183 -21 L176 -17 L176 -17 Z M778 23 Q784 23 784 16 L784 6 Q784 0 777 0 L515 0 Q509 0 513 5 L669 192 Q700 228 719 257 Q738 286 738 320 Q738 357 708.5 381.5 Q679 406 631 406 Q602 406 575.5 397 Q549 388 528 373 Q523 368 523 376 L523 390 Q523 396 529 400 Q550 414 578 422 Q606 430 636 430 Q693 430 728.5 400.5 Q764 371 764 324 Q764 286 745.5 255 Q727 224 696 186 L557 23 L778 23 L778 23 Z " />
<glyph glyph-name="onequarter" unicode="&#xbc;" horiz-adv-x="735" d="M212 714 Q218 714 218 707 L218 296 Q218 290 211 290 L198 290 Q192 290 192 297 L192 684 L67 633 Q61 631 61 638 L61 651 Q61 656 67 660 L195 712 Q198 713 200.5 713.5 Q203 714 207 714 L212 714 L212 714 Z M176 -17 Q171 -14 175 -8 L623 720 Q625 722 626.5 723 Q628 724 632 722 L639 718 Q644 715 640 709 L192 -19 Q190 -21 188.5 -22 Q187 -23 183 -21 L176 -17 L176 -17 Z M706 110 Q712 110 712 103 L712 93 Q712 87 705 87 L650 87 L650 6 Q650 0 643 0 L629 0 Q623 0 623 7 L623 87 L422 87 Q416 87 416 93 L416 101 Q416 106 419 112 L625 419 Q628 424 634 424 L644 424 Q650 424 650 417 L650 110 L706 110 Z M624 110 L624 378 L444 110 L624 110 Z " />
<glyph glyph-name="threequarters" unicode="&#xbe;" horiz-adv-x="738" d="M187 516 Q244 509 277 479.5 Q310 450 310 406 Q310 380 299.5 358 Q289 336 269.5 319.5 Q250 303 223 293.5 Q196 284 163 284 Q131 284 104 290 Q77 296 56 305 Q51 308 51 315 L51 328 Q51 335 57 331 Q78 321 102.5 314.5 Q127 308 161 308 Q215 308 248 336.5 Q281 365 281 407 Q281 449 242.5 476 Q204 503 133 503 L122 503 Q116 503 116 510 L116 520 Q116 526 123 526 L133 526 Q166 526 190 534 Q214 542 230 555 Q246 568 254 584 Q262 600 262 617 Q262 650 233.5 673.5 Q205 697 157 697 Q130 697 108 690.5 Q86 684 66 674 Q61 671 61 678 L61 691 Q61 698 67 700 Q87 708 110.5 714 Q134 720 159 720 Q221 720 255.5 691.5 Q290 663 290 621 Q290 586 264 555.5 Q238 525 187 516 Z M179 -17 Q174 -14 178 -8 L626 720 Q628 722 629.5 723 Q631 724 635 722 L642 718 Q647 715 643 709 L195 -19 Q193 -21 191.5 -22 Q190 -23 186 -21 L179 -17 L179 -17 Z M709 110 Q715 110 715 103 L715 93 Q715 87 708 87 L653 87 L653 6 Q653 0 646 0 L632 0 Q626 0 626 7 L626 87 L425 87 Q419 87 419 93 L419 101 Q419 106 422 112 L628 419 Q631 424 637 424 L647 424 Q653 424 653 417 L653 110 L709 110 Z M627 110 L627 378 L447 110 L627 110 Z " />
<glyph glyph-name="oneeighth" unicode="&#x215b;" horiz-adv-x="836" d="M212 714 Q218 714 218 707 L218 296 Q218 290 211 290 L198 290 Q192 290 192 297 L192 684 L67 633 Q61 631 61 638 L61 651 Q61 656 67 660 L195 712 Q198 713 200.5 713.5 Q203 714 207 714 L212 714 L212 714 Z M176 -17 Q171 -14 175 -8 L623 720 Q625 722 626.5 723 Q628 724 632 722 L639 718 Q644 715 640 709 L192 -19 Q190 -21 188.5 -22 Q187 -23 183 -21 L176 -17 L176 -17 Z M655 -5 Q626 -5 600.5 3.5 Q575 12 556.5 28 Q538 44 527 66.5 Q516 89 516 116 Q516 158 543.5 187.5 Q571 217 608 226 Q574 237 554 263 Q534 289 534 325 Q534 372 568.5 401 Q603 430 655 430 Q680 430 702 422.5 Q724 415 740.5 401 Q757 387 766 367.5 Q775 348 775 325 Q775 289 755 263 Q735 237 701 226 Q739 217 766.5 187.5 Q794 158 794 116 Q794 89 783 66.5 Q772 44 753.5 28 Q735 12 709.5 3.5 Q684 -5 655 -5 Z M655 235 Q699 235 725 260 Q751 285 751 323 Q751 361 723.5 385 Q696 409 655 409 Q614 409 586.5 385 Q559 361 559 323 Q559 285 584.5 260 Q610 235 655 235 Z M655 17 Q679 17 699.5 24.5 Q720 32 735.5 45.5 Q751 59 759.5 77.5 Q768 96 768 117 Q768 138 759 155.5 Q750 173 734 186.5 Q718 200 697.5 207.5 Q677 215 655 215 Q632 215 612 207.5 Q592 200 576 186.5 Q560 173 551 155.5 Q542 138 542 117 Q542 96 550.5 77.5 Q559 59 574.5 45.5 Q590 32 610.5 24.5 Q631 17 655 17 Z " />
<glyph glyph-name="threeeighths" unicode="&#x215c;" horiz-adv-x="839" d="M187 516 Q244 509 277 479.5 Q310 450 310 406 Q310 380 299.5 358 Q289 336 269.5 319.5 Q250 303 223 293.5 Q196 284 163 284 Q131 284 104 290 Q77 296 56 305 Q51 308 51 315 L51 328 Q51 335 57 331 Q78 321 102.5 314.5 Q127 308 161 308 Q215 308 248 336.5 Q281 365 281 407 Q281 449 242.5 476 Q204 503 133 503 L122 503 Q116 503 116 510 L116 520 Q116 526 123 526 L133 526 Q166 526 190 534 Q214 542 230 555 Q246 568 254 584 Q262 600 262 617 Q262 650 233.5 673.5 Q205 697 157 697 Q130 697 108 690.5 Q86 684 66 674 Q61 671 61 678 L61 691 Q61 698 67 700 Q87 708 110.5 714 Q134 720 159 720 Q221 720 255.5 691.5 Q290 663 290 621 Q290 586 264 555.5 Q238 525 187 516 Z M179 -17 Q174 -14 178 -8 L626 720 Q628 722 629.5 723 Q631 724 635 722 L642 718 Q647 715 643 709 L195 -19 Q193 -21 191.5 -22 Q190 -23 186 -21 L179 -17 L179 -17 Z M658 -5 Q629 -5 603.5 3.5 Q578 12 559.5 28 Q541 44 530 66.5 Q519 89 519 116 Q519 158 546.5 187.5 Q574 217 611 226 Q577 237 557 263 Q537 289 537 325 Q537 372 571.5 401 Q606 430 658 430 Q683 430 705 422.5 Q727 415 743.5 401 Q760 387 769 367.5 Q778 348 778 325 Q778 289 758 263 Q738 237 704 226 Q742 217 769.5 187.5 Q797 158 797 116 Q797 89 786 66.5 Q775 44 756.5 28 Q738 12 712.5 3.5 Q687 -5 658 -5 Z M658 235 Q702 235 728 260 Q754 285 754 323 Q754 361 726.5 385 Q699 409 658 409 Q617 409 589.5 385 Q562 361 562 323 Q562 285 587.5 260 Q613 235 658 235 Z M658 17 Q682 17 702.5 24.5 Q723 32 738.5 45.5 Q754 59 762.5 77.5 Q771 96 771 117 Q771 138 762 155.5 Q753 173 737 186.5 Q721 200 700.5 207.5 Q680 215 658 215 Q635 215 615 207.5 Q595 200 579 186.5 Q563 173 554 155.5 Q545 138 545 117 Q545 96 553.5 77.5 Q562 59 577.5 45.5 Q593 32 613.5 24.5 Q634 17 658 17 Z " />
<glyph glyph-name="fiveeighths" unicode="&#x215d;" horiz-adv-x="840" d="M165 556 Q195 556 220.5 547 Q246 538 264.5 521 Q283 504 294 479.5 Q305 455 305 424 Q305 392 293 366.5 Q281 341 259.5 322.5 Q238 304 209.5 294 Q181 284 148 284 Q100 284 62 303 Q57 306 57 313 L57 324 Q57 329 63 327 Q104 308 144 308 Q172 308 196.5 316.5 Q221 325 239 340 Q257 355 267 376.5 Q277 398 277 424 Q277 475 242.5 504.5 Q208 534 155 534 Q138 534 115 529 Q92 524 72 513 Q67 509 68 517 L107 708 Q108 714 115 714 L280 714 Q286 714 286 707 L286 696 Q286 690 279 690 L128 690 L98 544 Q112 550 129.5 553 Q147 556 165 556 Z M180 -17 Q175 -14 179 -8 L627 720 Q629 722 630.5 723 Q632 724 636 722 L643 718 Q648 715 644 709 L196 -19 Q194 -21 192.5 -22 Q191 -23 187 -21 L180 -17 L180 -17 Z M659 -5 Q630 -5 604.5 3.5 Q579 12 560.5 28 Q542 44 531 66.5 Q520 89 520 116 Q520 158 547.5 187.5 Q575 217 612 226 Q578 237 558 263 Q538 289 538 325 Q538 372 572.5 401 Q607 430 659 430 Q684 430 706 422.5 Q728 415 744.5 401 Q761 387 770 367.5 Q779 348 779 325 Q779 289 759 263 Q739 237 705 226 Q743 217 770.5 187.5 Q798 158 798 116 Q798 89 787 66.5 Q776 44 757.5 28 Q739 12 713.5 3.5 Q688 -5 659 -5 Z M659 235 Q703 235 729 260 Q755 285 755 323 Q755 361 727.5 385 Q700 409 659 409 Q618 409 590.5 385 Q563 361 563 323 Q563 285 588.5 260 Q614 235 659 235 Z M659 17 Q683 17 703.5 24.5 Q724 32 739.5 45.5 Q755 59 763.5 77.5 Q772 96 772 117 Q772 138 763 155.5 Q754 173 738 186.5 Q722 200 701.5 207.5 Q681 215 659 215 Q636 215 616 207.5 Q596 200 580 186.5 Q564 173 555 155.5 Q546 138 546 117 Q546 96 554.5 77.5 Q563 59 578.5 45.5 Q594 32 614.5 24.5 Q635 17 659 17 Z " />
<glyph glyph-name="seveneighths" unicode="&#x215e;" horiz-adv-x="771" d="M306 714 Q313 714 309 708 L94 295 Q91 290 84 290 L68 290 Q61 290 65 296 L271 689 L58 689 Q52 689 52 696 L52 708 Q52 714 59 714 L306 714 L306 714 Z M112 -17 Q107 -14 111 -8 L559 720 Q561 722 562.5 723 Q564 724 568 722 L575 718 Q580 715 576 709 L128 -19 Q126 -21 124.5 -22 Q123 -23 119 -21 L112 -17 L112 -17 Z M591 -5 Q562 -5 536.5 3.5 Q511 12 492.5 28 Q474 44 463 66.5 Q452 89 452 116 Q452 158 479.5 187.5 Q507 217 544 226 Q510 237 490 263 Q470 289 470 325 Q470 372 504.5 401 Q539 430 591 430 Q616 430 638 422.5 Q660 415 676.5 401 Q693 387 702 367.5 Q711 348 711 325 Q711 289 691 263 Q671 237 637 226 Q675 217 702.5 187.5 Q730 158 730 116 Q730 89 719 66.5 Q708 44 689.5 28 Q671 12 645.5 3.5 Q620 -5 591 -5 Z M591 235 Q635 235 661 260 Q687 285 687 323 Q687 361 659.5 385 Q632 409 591 409 Q550 409 522.5 385 Q495 361 495 323 Q495 285 520.5 260 Q546 235 591 235 Z M591 17 Q615 17 635.5 24.5 Q656 32 671.5 45.5 Q687 59 695.5 77.5 Q704 96 704 117 Q704 138 695 155.5 Q686 173 670 186.5 Q654 200 633.5 207.5 Q613 215 591 215 Q568 215 548 207.5 Q528 200 512 186.5 Q496 173 487 155.5 Q478 138 478 117 Q478 96 486.5 77.5 Q495 59 510.5 45.5 Q526 32 546.5 24.5 Q567 17 591 17 Z " />
<glyph glyph-name="asterisk" unicode="&#x2a;" horiz-adv-x="383" d="M347 590 Q348 587 347.5 585.5 Q347 584 342 582 L312 575 Q310 574 307.5 573.5 Q305 573 300 572 L204 546 L269 467 Q271 465 272.5 463 Q274 461 277 457 L295 435 Q300 430 293 426 L277 414 Q275 412 273 412 Q271 412 269 417 L253 442 Q251 444 249.5 446.5 Q248 449 246 453 L191 537 L136 451 Q134 449 132.5 447 Q131 445 129 440 L113 416 Q110 411 104 415 L88 427 Q83 430 88 436 L107 459 Q109 461 111 463 Q113 465 115 469 L177 546 L80 572 L68 575 L40 583 Q37 584 35.5 585 Q34 586 36 591 L42 610 Q43 616 51 613 L78 602 Q82 600 91 597 L184 561 L178 662 L178 675 L176 704 Q176 710 183 710 L203 710 Q209 710 209 703 L206 673 L206 660 L201 562 L293 598 Q296 600 298.5 600.5 Q301 601 305 603 L333 613 Q338 617 340 609 L347 590 L347 590 Z " />
<glyph glyph-name="backslash" unicode="&#x5c;" horiz-adv-x="316" d="M309 -93 Q310 -96 309.5 -97.5 Q309 -99 304 -99 L291 -99 Q285 -99 283 -92 L8 752 Q6 758 13 758 L26 758 Q32 758 34 751 L309 -93 L309 -93 Z " />
<glyph glyph-name="periodcentered" unicode="&#xb7;" horiz-adv-x="203" d="M102 216 Q82 216 71 229 Q60 242 60 260 Q60 278 71 291 Q82 304 102 304 Q121 304 132 291 Q143 278 143 260 Q143 242 132 229 Q121 216 102 216 Z " />
<glyph glyph-name="bullet" unicode="&#x2022;" horiz-adv-x="245" d="M123 268 Q94 268 77 287.5 Q60 307 60 334 Q60 361 77 380.5 Q94 400 123 400 Q152 400 168.5 380.5 Q185 361 185 334 Q185 307 168.5 287.5 Q152 268 123 268 Z " />
<glyph glyph-name="colon" unicode="&#x3a;" horiz-adv-x="203" d="M102 308 Q82 308 71 321 Q60 334 60 352 Q60 370 71 383 Q82 396 102 396 Q121 396 132 383 Q143 370 143 352 Q143 334 132 321 Q121 308 102 308 Z M102 -9 Q82 -9 71 4 Q60 17 60 35 Q60 53 71 66 Q82 79 102 79 Q121 79 132 66 Q143 53 143 35 Q143 17 132 4 Q121 -9 102 -9 Z " />
<glyph glyph-name="comma" unicode="&#x2c;" horiz-adv-x="203" d="M101 81 Q118 81 130.5 69.5 Q143 58 143 38 Q143 22 137 6.5 Q131 -9 124 -26 L83 -124 Q80 -130 74 -130 L68 -130 Q60 -130 63 -122 L98 -7 Q83 -6 71.5 5 Q60 16 60 36 Q60 58 73 69.5 Q86 81 101 81 Z " />
<glyph glyph-name="ellipsis" unicode="&#x2026;" horiz-adv-x="556" d="M102 -7 Q82 -7 71 6 Q60 19 60 37 Q60 55 71 68 Q82 81 102 81 Q121 81 132 68 Q143 55 143 37 Q143 19 132 6 Q121 -7 102 -7 Z M278 -7 Q258 -7 247 6 Q236 19 236 37 Q236 55 247 68 Q258 81 278 81 Q297 81 308 68 Q319 55 319 37 Q319 19 308 6 Q297 -7 278 -7 Z M455 -7 Q435 -7 424 6 Q413 19 413 37 Q413 55 424 68 Q435 81 455 81 Q474 81 485 68 Q496 55 496 37 Q496 19 485 6 Q474 -7 455 -7 Z " />
<glyph glyph-name="exclam" unicode="&#x21;" horiz-adv-x="204" d="M95 159 Q89 159 89 166 L86 704 Q86 710 93 710 L111 710 Q117 710 117 703 L115 165 Q115 159 108 159 L95 159 Z M103 -7 Q83 -7 72 6 Q61 19 61 37 Q61 55 72 68 Q83 81 103 81 Q122 81 133 68 Q144 55 144 37 Q144 19 133 6 Q122 -7 103 -7 Z " />
<glyph glyph-name="exclamdown" unicode="&#xa1;" horiz-adv-x="204" d="M103 720 Q122 720 133 707 Q144 694 144 676 Q144 658 133 645 Q122 632 103 632 Q83 632 72 645 Q61 658 61 676 Q61 694 72 707 Q83 720 103 720 Z M89 548 Q89 554 96 554 L109 554 Q115 554 115 547 L117 9 Q117 3 110 3 L92 3 Q86 3 86 10 L89 548 Z " />
<glyph glyph-name="numbersign" unicode="&#x23;" horiz-adv-x="623" d="M581 510 Q587 510 587 503 L587 488 Q587 484 582 484 L452 484 L403 251 L554 251 Q558 251 558 246 L558 230 Q558 225 552 225 L398 225 L351 6 Q350 3 349 1.5 Q348 0 343 0 L329 0 Q325 0 326 5 L373 225 L183 225 L137 5 Q135 0 130 0 L117 0 Q111 0 112 7 L158 225 L50 225 Q44 225 44 232 L44 245 Q44 251 51 251 L163 251 L213 484 L78 484 Q73 484 73 490 L73 504 Q73 510 80 510 L218 510 L259 704 Q260 710 267 710 L281 710 Q285 710 284 705 L243 510 L433 510 L474 705 Q476 710 481 710 L494 710 Q500 710 499 703 L458 510 L581 510 Z M427 484 L238 484 L189 251 L378 251 L427 484 Z " />
<glyph glyph-name="period" unicode="&#x2e;" horiz-adv-x="203" d="M102 -7 Q82 -7 71 6 Q60 19 60 37 Q60 55 71 68 Q82 81 102 81 Q121 81 132 68 Q143 55 143 37 Q143 19 132 6 Q121 -7 102 -7 Z " />
<glyph glyph-name="question" unicode="&#x3f;" horiz-adv-x="478" d="M195 151 Q189 151 189 158 L186 314 Q186 319 192 323 Q227 341 261 362 Q295 383 321.5 408.5 Q348 434 364.5 466 Q381 498 381 539 Q381 574 367.5 602 Q354 630 330 650 Q306 670 273.5 680.5 Q241 691 202 691 Q155 691 116 680 Q77 669 45 652 Q40 649 40 656 L40 674 Q40 681 46 683 Q75 698 117 709 Q159 720 204 720 Q251 720 289.5 707 Q328 694 355 670.5 Q382 647 397 614 Q412 581 412 541 Q412 495 394.5 459.5 Q377 424 349.5 395.5 Q322 367 286.5 345 Q251 323 215 305 L212 157 Q212 151 205 151 L195 151 Z M199 -7 Q180 -7 168.5 6 Q157 19 157 37 Q157 54 168.5 67 Q180 80 199 80 Q218 80 229.5 67 Q241 54 241 37 Q241 19 229.5 6 Q218 -7 199 -7 Z " />
<glyph glyph-name="questiondown" unicode="&#xbf;" horiz-adv-x="478" d="M279 720 Q298 720 309.5 707 Q321 694 321 676 Q321 659 309.5 646 Q298 633 279 633 Q260 633 248.5 646 Q237 659 237 676 Q237 694 248.5 707 Q260 720 279 720 Z M283 562 Q289 562 289 555 L292 399 Q292 394 286 390 Q251 372 217 351 Q183 330 156.5 304.5 Q130 279 113.5 247 Q97 215 97 174 Q97 139 110.5 111 Q124 83 148 63 Q172 43 204.5 32.5 Q237 22 276 22 Q323 22 362 33 Q401 44 433 61 Q438 64 438 57 L438 39 Q438 32 432 30 Q403 15 361 4 Q319 -7 274 -7 Q227 -7 188.5 6 Q150 19 123 42.5 Q96 66 81 99 Q66 132 66 172 Q66 218 83.5 253.5 Q101 289 128.5 317.5 Q156 346 191.5 368 Q227 390 263 408 L266 556 Q266 562 273 562 L283 562 Z " />
<glyph glyph-name="quotedbl" unicode="&#x22;" horiz-adv-x="302" d="M66 511 Q60 511 60 518 L54 704 Q54 710 61 710 L82 710 Q88 710 88 703 L81 517 Q81 511 74 511 L66 511 Z M180 511 Q174 511 174 518 L168 704 Q168 710 175 710 L196 710 Q202 710 202 703 L195 517 Q195 511 188 511 L180 511 Z " />
<glyph glyph-name="quotesingle" unicode="&#x27;" horiz-adv-x="165" d="M78 511 Q72 511 72 518 L66 704 Q66 710 73 710 L94 710 Q100 710 100 703 L93 517 Q93 511 86 511 L78 511 L78 511 Z " />
<glyph glyph-name="semicolon" unicode="&#x3b;" horiz-adv-x="203" d="M102 308 Q82 308 71 321 Q60 334 60 352 Q60 370 71 383 Q82 396 102 396 Q121 396 132 383 Q143 370 143 352 Q143 334 132 321 Q121 308 102 308 Z M102 81 Q119 81 131 69.5 Q143 58 143 38 Q143 22 137.5 6.5 Q132 -9 125 -26 L84 -124 Q81 -130 75 -130 L69 -130 Q61 -130 64 -122 L99 -7 Q84 -6 72.5 5 Q61 16 61 36 Q61 58 74 69.5 Q87 81 102 81 Z " />
<glyph glyph-name="slash" unicode="&#x2f;" horiz-adv-x="316" d="M13 -99 Q7 -99 9 -92 L284 752 Q285 758 293 758 L306 758 Q312 758 310 751 L35 -93 Q33 -99 26 -99 L13 -99 L13 -99 Z " />
<glyph glyph-name="underscore" unicode="&#x5f;" horiz-adv-x="509" d="M67 -117 Q61 -117 61 -110 L61 -95 Q61 -89 68 -89 L442 -89 Q448 -89 448 -96 L448 -111 Q448 -117 441 -117 L67 -117 L67 -117 Z " />
<glyph glyph-name="braceleft" unicode="&#x7b;" horiz-adv-x="222" d="M146 692 Q115 692 97.5 674.5 Q80 657 80 628 Q80 604 90.5 572 Q101 540 113.5 507 Q126 474 136.5 441.5 Q147 409 147 383 Q147 357 132.5 333 Q118 309 86 303 Q118 297 132.5 273 Q147 249 147 223 Q147 197 136.5 164.5 Q126 132 113.5 99 Q101 66 90.5 34 Q80 2 80 -22 Q80 -51 97.5 -68.5 Q115 -86 146 -86 Q166 -86 181 -82 Q184 -81 185.5 -81.5 Q187 -82 187 -87 L187 -97 Q187 -104 180 -105 Q167 -109 139 -109 Q94 -109 73 -85 Q52 -61 52 -23 Q52 4 62.5 36.5 Q73 69 86 102 Q99 135 109.5 166.5 Q120 198 120 222 Q120 233 117.5 244.5 Q115 256 107.5 265.5 Q100 275 87.5 281.5 Q75 288 55 290 Q49 290 49 297 L49 310 Q49 316 56 317 Q95 321 107.5 341 Q120 361 120 384 Q120 408 109.5 439.5 Q99 471 86 504 Q73 537 62.5 569.5 Q52 602 52 629 Q52 667 73 691 Q94 715 139 715 Q168 715 181 711 Q187 709 187 702 L187 692 Q187 686 180 688 Q165 692 146 692 Z " />
<glyph glyph-name="braceright" unicode="&#x7d;" horiz-adv-x="222" d="M170 316 Q176 316 176 309 L176 296 Q176 290 169 289 Q130 285 117.5 265 Q105 245 105 222 Q105 198 115.5 166.5 Q126 135 139 102 Q152 69 162.5 36.5 Q173 4 173 -23 Q173 -61 152 -85 Q131 -109 86 -109 Q57 -109 44 -105 Q38 -104 38 -96 L38 -86 Q38 -80 45 -82 Q60 -86 79 -86 Q110 -86 127.5 -68.5 Q145 -51 145 -22 Q145 2 134.5 34 Q124 66 111.5 99 Q99 132 88.5 164.5 Q78 197 78 223 Q78 249 92.5 273 Q107 297 139 303 Q107 309 92.5 333 Q78 357 78 383 Q78 409 88.5 441.5 Q99 474 111.5 507 Q124 540 134.5 572 Q145 604 145 628 Q145 657 127.5 674.5 Q110 692 79 692 Q59 692 44 688 Q38 686 38 693 L38 703 Q38 710 45 711 Q58 715 86 715 Q131 715 152 691 Q173 667 173 629 Q173 602 162.5 569.5 Q152 537 139 504 Q126 471 115.5 439.5 Q105 408 105 384 Q105 373 107.5 361.5 Q110 350 117.5 340.5 Q125 331 137.5 324.5 Q150 318 170 316 Z " />
<glyph glyph-name="bracketleft" unicode="&#x5b;" horiz-adv-x="266" d="M220 -100 Q220 -106 213 -106 L90 -106 Q84 -106 84 -99 L84 704 Q84 710 91 710 L206 710 Q212 710 212 703 L212 691 Q212 685 205 685 L111 685 L111 -81 L214 -81 Q220 -81 220 -88 L220 -100 L220 -100 Z " />
<glyph glyph-name="bracketright" unicode="&#x5d;" horiz-adv-x="266" d="M52 -106 Q46 -106 46 -99 L46 -87 Q46 -81 53 -81 L155 -81 L155 685 L60 685 Q54 685 54 692 L54 704 Q54 710 61 710 L176 710 Q182 710 182 703 L182 -100 Q182 -106 175 -106 L52 -106 L52 -106 Z " />
<glyph glyph-name="parenleft" unicode="&#x28;" horiz-adv-x="269" d="M242 -93 Q246 -97 239 -97 L225 -97 Q219 -97 214 -92 Q177 -54 148 -7.5 Q119 39 98.5 91 Q78 143 67.5 198 Q57 253 57 307 Q57 361 67.5 416 Q78 471 98.5 522.5 Q119 574 148 621 Q177 668 215 706 Q219 710 226 710 L240 710 Q246 710 241 705 Q204 665 175 616 Q146 567 126 514.5 Q106 462 95.5 409 Q85 356 85 307 Q85 258 95.5 204.5 Q106 151 126.5 98 Q147 45 176 -4 Q205 -53 242 -93 Z " />
<glyph glyph-name="parenright" unicode="&#x29;" horiz-adv-x="269" d="M29 -97 Q23 -97 28 -92 Q65 -52 94 -3 Q123 46 143 98.5 Q163 151 173.5 204.5 Q184 258 184 307 Q184 356 173.5 409.5 Q163 463 142.5 515.5 Q122 568 93 617 Q64 666 27 706 Q23 710 30 710 L44 710 Q50 710 55 705 Q92 667 121 620.5 Q150 574 170.5 522 Q191 470 201.5 415.5 Q212 361 212 307 Q212 253 201.5 197.5 Q191 142 170.5 90.5 Q150 39 120.5 -8 Q91 -55 54 -93 Q50 -97 43 -97 L29 -97 L29 -97 Z " />
<glyph glyph-name="emdash" unicode="&#x2014;" horiz-adv-x="872" d="M67 246 Q61 246 61 253 L61 268 Q61 274 68 274 L805 274 Q811 274 811 267 L811 252 Q811 246 804 246 L67 246 L67 246 Z " />
<glyph glyph-name="endash" unicode="&#x2013;" horiz-adv-x="509" d="M67 246 Q61 246 61 253 L61 268 Q61 274 68 274 L442 274 Q448 274 448 267 L448 252 Q448 246 441 246 L67 246 L67 246 Z " />
<glyph glyph-name="hyphen" unicode="&#x2d;" horiz-adv-x="379" d="M67 246 Q61 246 61 253 L61 268 Q61 274 68 274 L312 274 Q318 274 318 267 L318 252 Q318 246 311 246 L67 246 L67 246 Z " />
<glyph glyph-name="softhyphen" unicode="&#xad;" horiz-adv-x="379" d="M67 246 Q61 246 61 253 L61 268 Q61 274 68 274 L312 274 Q318 274 318 267 L318 252 Q318 246 311 246 L67 246 L67 246 Z " />
<glyph glyph-name="guillemetleft" unicode="&#xab;" horiz-adv-x="500" d="M236 56 Q234 54 231 54 Q228 54 227 56 L64 242 Q62 243 62 246 Q62 249 65 252 L227 428 Q229 430 231 430 Q233 430 236 427 L245 416 Q247 414 247 412 Q247 410 244 407 L99 247 L245 77 Q247 73 247 72 Q247 71 245 67 L236 56 Z M398 56 Q396 54 393 54 Q390 54 389 56 L226 242 Q224 243 224 246 Q224 249 227 252 L389 428 Q391 430 393 430 Q395 430 398 427 L407 416 Q409 414 409 412 Q409 410 406 407 L261 247 L407 77 Q409 73 409 72 Q409 71 407 67 L398 56 Z " />
<glyph glyph-name="guillemetright" unicode="&#xbb;" horiz-adv-x="500" d="M110 56 Q108 54 105 54 Q103 54 102 56 L93 67 Q91 68 91 71 Q91 74 94 77 L239 247 L93 408 Q91 410 91 412 Q91 414 94 417 L103 428 Q105 430 107 430 Q109 430 112 427 L274 251 Q276 249 276 247 Q276 245 273 242 L110 56 Z M272 56 Q270 54 267 54 Q265 54 264 56 L255 67 Q253 68 253 71 Q253 74 256 77 L401 247 L255 408 Q253 410 253 412 Q253 414 256 417 L265 428 Q267 430 269 430 Q271 430 274 427 L436 251 Q438 249 438 247 Q438 245 435 242 L272 56 Z " />
<glyph glyph-name="guilsinglleft" unicode="&#x2039;" horiz-adv-x="338" d="M236 56 Q234 54 231 54 Q228 54 227 56 L64 242 Q62 243 62 246 Q62 249 65 252 L227 428 Q229 430 231 430 Q233 430 236 427 L245 416 Q247 414 247 412 Q247 410 244 407 L99 247 L245 77 Q247 73 247 72 Q247 71 245 67 L236 56 Z " />
<glyph glyph-name="guilsinglright" unicode="&#x203a;" horiz-adv-x="338" d="M110 56 Q108 54 105 54 Q103 54 102 56 L93 67 Q91 68 91 71 Q91 74 94 77 L239 247 L93 408 Q91 410 91 412 Q91 414 94 417 L103 428 Q105 430 107 430 Q109 430 112 427 L274 251 Q276 249 276 247 Q276 245 273 242 L110 56 Z " />
<glyph glyph-name="quotedblbase" unicode="&#x201e;" horiz-adv-x="345" d="M101 80 Q118 80 130.5 68.5 Q143 57 143 37 Q143 21 137 5.5 Q131 -10 124 -27 L83 -125 Q80 -131 74 -131 L68 -131 Q60 -131 63 -123 L98 -8 Q83 -7 71.5 4 Q60 15 60 35 Q60 57 73 68.5 Q86 80 101 80 Z M242 80 Q259 80 271.5 68.5 Q284 57 284 37 Q284 21 278 5.5 Q272 -10 265 -27 L224 -125 Q221 -131 215 -131 L209 -131 Q201 -131 204 -123 L239 -8 Q224 -7 212.5 4 Q201 15 201 35 Q201 57 214 68.5 Q227 80 242 80 Z " />
<glyph glyph-name="quotedblleft" unicode="&#x201c;" horiz-adv-x="338" d="M77 587 Q92 586 103.5 575 Q115 564 115 544 Q115 522 102 510.5 Q89 499 74 499 Q57 499 44.5 510.5 Q32 522 32 542 Q32 558 38 573.5 Q44 589 51 606 L92 704 Q95 710 101 710 L107 710 Q115 710 112 702 L77 587 L77 587 Z M218 587 Q233 586 244.5 575 Q256 564 256 544 Q256 522 243 510.5 Q230 499 215 499 Q198 499 185.5 510.5 Q173 522 173 542 Q173 558 179 573.5 Q185 589 192 606 L233 704 Q236 710 242 710 L248 710 Q256 710 253 702 L218 587 L218 587 Z " />
<glyph glyph-name="quotedblright" unicode="&#x201d;" horiz-adv-x="339" d="M127 719 Q144 719 156.5 707.5 Q169 696 169 676 Q169 660 163 644.5 Q157 629 150 612 L109 514 Q106 508 100 508 L94 508 Q86 508 89 516 L124 631 Q109 632 97.5 643 Q86 654 86 674 Q86 696 99 707.5 Q112 719 127 719 Z M268 719 Q285 719 297.5 707.5 Q310 696 310 676 Q310 660 304 644.5 Q298 629 291 612 L250 514 Q247 508 241 508 L235 508 Q227 508 230 516 L265 631 Q250 632 238.5 643 Q227 654 227 674 Q227 696 240 707.5 Q253 719 268 719 Z " />
<glyph glyph-name="quoteleft" unicode="&#x2018;" horiz-adv-x="197" d="M79 597 Q94 596 105.5 585 Q117 574 117 554 Q117 532 104 520.5 Q91 509 76 509 Q59 509 46.5 520.5 Q34 532 34 552 Q34 568 40 583.5 Q46 599 53 616 L94 714 Q97 720 103 720 L109 720 Q117 720 114 712 L79 597 L79 597 Z " />
<glyph glyph-name="quoteright" unicode="&#x2019;" horiz-adv-x="197" d="M124 720 Q141 720 153.5 708.5 Q166 697 166 677 Q166 661 160 645.5 Q154 630 147 613 L106 515 Q103 509 97 509 L91 509 Q83 509 86 517 L121 632 Q106 633 94.5 644 Q83 655 83 675 Q83 697 96 708.5 Q109 720 124 720 Z " />
<glyph glyph-name="quotesinglbase" unicode="&#x201a;" horiz-adv-x="203" d="M101 81 Q118 81 130.5 69.5 Q143 58 143 38 Q143 22 137 6.5 Q131 -9 124 -26 L83 -124 Q80 -130 74 -130 L68 -130 Q60 -130 63 -122 L98 -7 Q83 -6 71.5 5 Q60 16 60 36 Q60 58 73 69.5 Q86 81 101 81 Z " />
<glyph glyph-name="emspace" unicode="&#x2003;" horiz-adv-x="1000" d="" />
<glyph glyph-name="enspace" unicode="&#x2002;" horiz-adv-x="500" d="" />
<glyph glyph-name="fourperemspace" unicode="&#x2005;" horiz-adv-x="250" d="" />
<glyph glyph-name="hairspace" unicode="&#x200a;" horiz-adv-x="67" d="" />
<glyph glyph-name="Acircumflex" unicode="&#xc2;" horiz-adv-x="626" d="M608 6 Q609 3 608.5 1.5 Q608 0 603 0 L582 0 Q576 0 573 7 Q549 67 525.5 127 Q502 187 478 248 L145 248 Q121 187 96.5 126.5 Q72 66 48 6 Q46 0 39 0 L20 0 Q13 0 17 6 L300 709 Q301 715 309 715 L318 715 Q323 715 327 709 L608 6 Z M466 277 L312 670 Q274 570 235 472.5 Q196 375 157 277 L466 277 Z M437 761 Q442 756 435 756 L415 756 Q409 756 405 760 L312 860 L218 760 Q214 756 208 756 L188 756 Q182 756 186 761 L295 887 Q300 892 305 892 L318 892 Q324 892 328 887 L437 761 L437 761 Z " />
<glyph glyph-name="nbspace" unicode="&#xa0;" horiz-adv-x="218" d="" />
<glyph glyph-name="thinspace" unicode="&#x2009;" horiz-adv-x="109" d="" />
<glyph glyph-name="threeperemspace" unicode="&#x2004;" horiz-adv-x="594" d="" />
<glyph glyph-name="cent" unicode="&#xa2;" horiz-adv-x="474" d="M424 161 Q430 163 431 163 Q436 163 436 154 L436 140 Q436 135 430 131 Q404 121 372 115 Q340 109 303 109 L293 109 L284 -15 Q282 -21 277 -21 L265 -21 Q258 -21 259 -15 L268 111 Q222 117 182.5 136.5 Q143 156 113.5 188 Q84 220 67.5 263 Q51 306 51 359 Q51 411 67.5 455 Q84 499 113.5 531.5 Q143 564 184 583.5 Q225 603 274 608 L283 724 Q283 731 290 731 L302 731 Q308 731 308 724 L299 609 L300 609 Q335 609 366.5 602.5 Q398 596 424 585 Q429 583 429 576 L429 564 Q429 552 417 557 Q367 581 303 581 Q256 581 215.5 565.5 Q175 550 145 521 Q115 492 98 451 Q81 410 81 359 Q81 306 98.5 265 Q116 224 147 195 Q178 166 218.5 151 Q259 136 306 136 Q371 136 424 161 Z " />
<glyph glyph-name="currency" unicode="&#xa4;" horiz-adv-x="585" d="M560 109 Q564 105 559 100 L551 92 Q547 88 542 93 L432 206 Q406 177 370.5 161.5 Q335 146 293 146 Q251 146 216 161.5 Q181 177 155 206 L44 92 Q40 88 35 93 L27 101 Q23 105 28 110 L139 225 Q120 253 109.5 287.5 Q99 322 99 363 Q99 404 109.5 438.5 Q120 473 140 501 L27 617 Q23 621 28 626 L36 633 Q40 637 45 632 L155 520 Q181 548 216 563.5 Q251 579 293 579 Q335 579 370 563.5 Q405 548 431 519 L543 633 Q547 637 552 632 L560 625 Q564 621 559 616 L446 501 Q466 473 476.5 438.5 Q487 404 487 363 Q487 322 476.5 287.5 Q466 253 447 225 L560 109 Z M293 172 Q330 172 361 186.5 Q392 201 414 226.5 Q436 252 448.5 287 Q461 322 461 363 Q461 404 448.5 438.5 Q436 473 414 498.5 Q392 524 361 538.5 Q330 553 293 553 Q256 553 225 538.5 Q194 524 172 498.5 Q150 473 137.5 438.5 Q125 404 125 363 Q125 322 137.5 287 Q150 252 172 226.5 Q194 201 225 186.5 Q256 172 293 172 Z " />
<glyph glyph-name="dollar" unicode="&#x24;" horiz-adv-x="585" d="M498 199 Q498 155 482 120.5 Q466 86 437 61.5 Q408 37 368 23.5 Q328 10 280 9 L270 -125 Q270 -131 263 -131 L252 -131 Q246 -131 247 -124 L257 9 Q210 11 166 25 Q122 39 92 59 Q87 62 87 69 L87 89 Q87 95 93 91 Q126 68 169 53 Q212 38 259 36 L283 361 Q252 372 219.5 384.5 Q187 397 160 417 Q133 437 116 466 Q99 495 99 539 Q99 574 114 604 Q129 634 156 655.5 Q183 677 219.5 689.5 Q256 702 299 702 L308 702 L318 827 Q318 833 325 833 L337 833 Q343 833 342 826 L332 700 Q370 696 403.5 685 Q437 674 466 658 Q471 655 471 648 L471 627 Q471 621 465 625 Q404 664 330 672 L309 384 Q352 370 387 353.5 Q422 337 446.5 315 Q471 293 484.5 265 Q498 237 498 199 Z M131 540 Q131 507 143.5 483 Q156 459 177.5 442 Q199 425 226.5 413 Q254 401 284 391 L306 674 L300 674 Q264 674 233 664 Q202 654 179.5 636 Q157 618 144 593.5 Q131 569 131 540 Z M282 36 Q322 37 356 48 Q390 59 414.5 79.5 Q439 100 453 129.5 Q467 159 467 197 Q467 231 455 255 Q443 279 422 296.5 Q401 314 371.5 327.5 Q342 341 306 353 L282 36 Z " />
<glyph glyph-name="euro" unicode="&#x20ac;" horiz-adv-x="585" d="M529 49 Q534 52 534 45 L534 27 Q534 22 528 18 Q499 6 464 -2.5 Q429 -11 389 -11 Q335 -11 286.5 9 Q238 29 200 66.5 Q162 104 135.5 157 Q109 210 99 277 L36 277 Q30 277 30 284 L30 296 Q30 302 37 302 L96 302 Q93 329 93 359 Q93 369 93 378.5 Q93 388 94 398 L36 398 Q30 398 30 405 L30 417 Q30 423 37 423 L97 423 Q106 492 132 547 Q158 602 197 640.5 Q236 679 285 699.5 Q334 720 390 720 Q426 720 459.5 711 Q493 702 520 691 Q525 688 525 681 L525 663 Q525 656 519 660 Q493 673 461 682.5 Q429 692 392 692 Q341 692 296 673.5 Q251 655 216 620 Q181 585 157.5 535 Q134 485 126 423 L488 423 Q494 423 494 416 L494 404 Q494 398 487 398 L123 398 Q122 389 122 379.5 Q122 370 122 360 Q122 330 125 302 L488 302 Q494 302 494 295 L494 283 Q494 277 487 277 L128 277 Q138 216 162 168 Q186 120 221 86.5 Q256 53 299.5 35.5 Q343 18 392 18 Q431 18 465.5 27 Q500 36 529 49 Z " />
<glyph glyph-name="florin" unicode="&#x192;" horiz-adv-x="439" d="M430 744 Q435 741 435 734 L435 723 Q435 716 433 714.5 Q431 713 424 717 Q410 725 393 729 Q376 733 356 733 Q278 733 257 619 L231 480 L381 480 Q387 480 387 473 L387 461 Q387 455 380 455 L226 455 L135 -33 Q123 -104 93 -138 Q63 -172 10 -172 Q-13 -172 -31 -168.5 Q-49 -165 -62 -160 Q-68 -159 -68 -151 L-68 -134 Q-68 -129 -62 -131 Q-34 -145 7 -145 Q85 -145 106 -32 L197 455 L95 455 Q89 455 89 462 L89 474 Q89 480 96 480 L202 480 L228 621 Q240 692 270 726 Q300 760 353 760 Q377 760 396.5 755.5 Q416 751 430 744 Z " />
<glyph glyph-name="sterling" unicode="&#xa3;" horiz-adv-x="585" d="M506 688 Q511 685 511 678 L511 660 Q511 654 505 658 Q481 675 450.5 684 Q420 693 385 693 Q316 693 279 650.5 Q242 608 232 536 L212 387 L438 387 Q444 387 444 380 L444 367 Q444 361 437 361 L209 361 L165 27 L483 27 Q489 27 489 20 L489 6 Q489 0 482 0 L75 0 Q69 0 69 7 L69 21 Q69 27 76 27 L136 27 L180 361 L98 361 Q92 361 92 368 L92 381 Q92 387 99 387 L183 387 L203 536 Q214 621 257.5 670.5 Q301 720 384 720 Q419 720 451 711 Q483 702 506 688 Z " />
<glyph glyph-name="yen" unicode="&#xa5;" horiz-adv-x="530" d="M507 710 Q520 710 513 699 L290 325 L424 325 Q430 325 430 318 L430 302 Q430 296 423 296 L280 296 L280 6 Q280 0 273 0 L256 0 Q250 0 250 7 L250 296 L106 296 Q100 296 100 303 L100 319 Q100 325 107 325 L240 325 L16 699 Q13 703 13 706 Q13 710 22 710 L38 710 Q44 710 48 704 L265 337 L483 705 Q486 710 493 710 L507 710 L507 710 Z " />
<glyph glyph-name="plus" unicode="&#x2b;" horiz-adv-x="542" d="M496 308 Q502 308 502 301 L502 286 Q502 280 495 280 L285 280 L285 58 Q285 52 278 52 L263 52 Q257 52 257 59 L257 280 L46 280 Q40 280 40 287 L40 302 Q40 308 47 308 L257 308 L257 529 Q257 535 264 535 L279 535 Q285 535 285 528 L285 308 L496 308 L496 308 Z " />
<glyph glyph-name="minus" unicode="&#x2212;" horiz-adv-x="542" d="M46 280 Q40 280 40 287 L40 302 Q40 308 47 308 L496 308 Q502 308 502 301 L502 286 Q502 280 495 280 L46 280 L46 280 Z " />
<glyph glyph-name="multiply" unicode="&#xd7;" horiz-adv-x="542" d="M487 92 Q491 88 486 83 L476 71 Q471 66 467 71 L271 268 L74 71 Q70 67 65 72 L54 83 Q50 87 55 92 L251 288 L55 485 Q51 489 56 494 L65 505 Q69 509 74 505 L271 308 L468 505 Q472 509 477 504 L487 494 Q491 490 486 485 L290 289 L487 92 Z " />
<glyph glyph-name="divide" unicode="&#xf7;" horiz-adv-x="542" d="M272 450 Q252 450 241 463 Q230 476 230 494 Q230 512 241 524.5 Q252 537 272 537 Q290 537 301 524.5 Q312 512 312 494 Q312 476 301 463 Q290 450 272 450 Z M46 280 Q40 280 40 287 L40 302 Q40 308 47 308 L496 308 Q502 308 502 301 L502 286 Q502 280 495 280 L46 280 Z M272 49 Q252 49 241 62 Q230 75 230 93 Q230 111 241 123.5 Q252 136 272 136 Q290 136 301 123.5 Q312 111 312 93 Q312 75 301 62 Q290 49 272 49 Z " />
<glyph glyph-name="equal" unicode="&#x3d;" horiz-adv-x="542" d="M46 371 Q40 371 40 378 L40 393 Q40 399 47 399 L496 399 Q502 399 502 392 L502 377 Q502 371 495 371 L46 371 Z M46 180 Q40 180 40 187 L40 202 Q40 208 47 208 L496 208 Q502 208 502 201 L502 186 Q502 180 495 180 L46 180 Z " />
<glyph glyph-name="notequal" unicode="&#x2260;" horiz-adv-x="542" d="M305 371 L232 208 L496 208 Q502 208 502 201 L502 186 Q502 180 495 180 L220 180 L165 57 Q163 52 156 52 L144 52 Q137 52 141 58 L195 180 L46 180 Q40 180 40 187 L40 202 Q40 208 47 208 L208 208 L280 371 L46 371 Q40 371 40 378 L40 393 Q40 399 47 399 L293 399 L351 530 Q353 535 360 535 L372 535 Q379 535 375 529 L317 399 L496 399 Q502 399 502 392 L502 377 Q502 371 495 371 L305 371 Z " />
<glyph glyph-name="greater" unicode="&#x3e;" horiz-adv-x="542" d="M63 2 Q58 -1 58 6 L58 27 Q58 32 64 36 L477 246 L63 456 Q58 459 58 466 L58 487 Q58 494 64 490 L516 258 Q521 255 521 248 L521 243 Q521 238 515 234 L63 2 L63 2 Z " />
<glyph glyph-name="less" unicode="&#x3c;" horiz-adv-x="542" d="M502 5 Q502 -2 496 2 L44 234 Q39 237 39 244 L39 249 Q39 254 45 258 L497 490 Q502 493 502 486 L502 465 Q502 460 496 456 L83 246 L497 36 Q502 33 502 26 L502 5 L502 5 Z " />
<glyph glyph-name="greaterequal" unicode="&#x2265;" horiz-adv-x="542" d="M45 79 Q40 76 40 83 L40 104 Q40 109 46 113 L454 320 Q456 322 456.5 323 Q457 324 453 326 L45 533 Q40 536 40 543 L40 564 Q40 571 46 567 L503 332 L503 320 Q503 315 497 311 L45 79 Z M46 3 Q40 3 40 10 L40 25 Q40 31 47 31 L496 31 Q502 31 502 24 L502 9 Q502 3 495 3 L46 3 Z " />
<glyph glyph-name="lessequal" unicode="&#x2264;" horiz-adv-x="542" d="M502 82 Q502 75 496 79 L44 311 Q39 314 39 321 L39 332 L497 567 Q502 570 502 563 L502 542 Q502 537 496 533 L88 326 Q86 324 85.5 323 Q85 322 89 320 L497 113 Q502 110 502 103 L502 82 Z M502 9 Q502 3 495 3 L46 3 Q40 3 40 10 L40 25 Q40 31 47 31 L496 31 Q502 31 502 24 L502 9 Z " />
<glyph glyph-name="plusminus" unicode="&#xb1;" horiz-adv-x="542" d="M56 297 Q50 297 50 304 L50 319 Q50 325 57 325 L239 325 L239 478 Q239 484 246 484 L260 484 Q266 484 266 477 L266 325 L449 325 Q455 325 455 318 L455 303 Q455 297 448 297 L266 297 L266 145 Q266 139 259 139 L245 139 Q239 139 239 146 L239 297 L56 297 Z M496 104 Q502 104 502 97 L502 82 Q502 76 495 76 L46 76 Q40 76 40 83 L40 98 Q40 104 47 104 L496 104 Z " />
<glyph glyph-name="approxequal" unicode="&#x2248;" horiz-adv-x="600" d="M350 334 Q314 334 292 351.5 Q270 369 251 390 Q233 410 213 426.5 Q193 443 160 443 Q122 443 101.5 413.5 Q81 384 78 338 Q78 332 71 332 L58 332 Q52 332 52 339 Q54 396 82 434 Q110 472 159 472 Q199 472 223 453.5 Q247 435 267 413 Q284 393 303 378 Q322 363 351 363 Q386 363 405.5 390.5 Q425 418 427 460 Q427 466 434 466 L447 466 Q453 466 453 459 Q451 405 424 369.5 Q397 334 350 334 Z M350 153 Q314 153 292 170.5 Q270 188 251 209 Q233 229 213 245.5 Q193 262 160 262 Q122 262 101.5 232.5 Q81 203 78 157 Q78 151 71 151 L58 151 Q52 151 52 158 Q54 215 82 253 Q110 291 159 291 Q199 291 223 272.5 Q247 254 267 232 Q284 212 303 197 Q322 182 351 182 Q386 182 405.5 209.5 Q425 237 427 279 Q427 285 434 285 L447 285 Q453 285 453 278 Q451 224 424 188.5 Q397 153 350 153 Z " />
<glyph glyph-name="asciitilde" unicode="&#x7e;" horiz-adv-x="542" d="M350 240 Q314 240 292 257.5 Q270 275 251 296 Q233 316 213 332.5 Q193 349 160 349 Q122 349 101.5 319.5 Q81 290 78 244 Q78 238 71 238 L58 238 Q52 238 52 245 Q54 302 82 340 Q110 378 159 378 Q199 378 223 359.5 Q247 341 267 319 Q284 299 303 284 Q322 269 351 269 Q386 269 405.5 296.5 Q425 324 427 366 Q427 372 434 372 L447 372 Q453 372 453 365 Q451 311 424 275.5 Q397 240 350 240 Z " />
<glyph glyph-name="logicalnot" unicode="&#xac;" horiz-adv-x="542" d="M449 335 Q455 335 455 328 L455 145 Q455 139 448 139 L433 139 Q427 139 427 146 L427 307 L56 307 Q50 307 50 314 L50 329 Q50 335 57 335 L449 335 L449 335 Z " />
<glyph glyph-name="infinity" unicode="&#x221e;" horiz-adv-x="860" d="M641 471 Q674 471 701.5 458.5 Q729 446 749.5 423.5 Q770 401 781.5 368.5 Q793 336 793 296 Q793 255 781.5 223 Q770 191 750 168.5 Q730 146 702.5 134 Q675 122 643 122 Q606 122 575 136.5 Q544 151 517.5 173 Q491 195 468.5 222 Q446 249 428 274 Q408 246 386 219 Q364 192 338.5 170.5 Q313 149 284 135.5 Q255 122 221 122 Q189 122 161 135 Q133 148 112 170.5 Q91 193 79 224 Q67 255 67 292 Q67 329 79.5 361.5 Q92 394 113.5 418.5 Q135 443 164 457 Q193 471 226 471 Q259 471 287.5 457 Q316 443 341 421 Q366 399 387.5 371.5 Q409 344 429 317 Q447 343 468.5 370 Q490 397 516 419.5 Q542 442 573 456.5 Q604 471 641 471 Z M224 148 Q252 148 278 161 Q304 174 327.5 195 Q351 216 372 242 Q393 268 413 295 Q393 322 372.5 348.5 Q352 375 328.5 396.5 Q305 418 279.5 431 Q254 444 225 444 Q198 444 174.5 432 Q151 420 133 400 Q115 380 104.5 353 Q94 326 94 295 Q94 265 104.5 238 Q115 211 132.5 191 Q150 171 173.5 159.5 Q197 148 224 148 Z M645 148 Q697 148 731.5 185 Q766 222 766 291 Q766 326 756.5 354 Q747 382 730 402 Q713 422 690 433 Q667 444 640 444 Q609 444 581 430 Q553 416 528.5 394.5 Q504 373 483 347 Q462 321 444 296 Q464 269 486 242.5 Q508 216 532.5 195 Q557 174 585 161 Q613 148 645 148 Z " />
<glyph glyph-name="integral" unicode="&#x222b;" horiz-adv-x="448" d="M10 -209 Q-13 -209 -31 -206 Q-49 -203 -62 -198 Q-68 -197 -68 -189 L-68 -171 Q-68 -166 -62 -168 Q-34 -182 7 -182 Q85 -182 106 -69 L236 621 Q249 692 278.5 726 Q308 760 361 760 Q385 760 404.5 755.5 Q424 751 438 744 Q443 741 443 734 L443 723 Q443 716 441 714.5 Q439 713 432 717 Q406 733 364 733 Q287 733 265 619 L135 -70 Q122 -141 92.5 -175 Q63 -209 10 -209 Z " />
<glyph glyph-name="product" unicode="&#x220f;" horiz-adv-x="696" d="M586 710 Q592 710 592 703 L592 687 Q592 681 585 681 L477 681 L477 -114 Q477 -120 470 -120 L452 -120 Q446 -120 446 -113 L446 681 L198 681 L198 -114 Q198 -120 191 -120 L174 -120 Q168 -120 168 -113 L168 681 L69 681 Q68 681 68 682 L68 704 Q68 710 75 710 L586 710 L586 710 Z " />
<glyph glyph-name="summation" unicode="&#x2211;" horiz-adv-x="533" d="M467 689 Q467 683 460 683 L104 683 L400 314 Q404 309 404 304 Q404 299 400 294 L103 -94 L461 -94 Q467 -94 467 -101 L467 -115 Q467 -121 460 -121 L72 -121 Q66 -121 66 -114 L66 -105 Q66 -100 70 -93 L375 304 L70 684 Q66 688 66 695 L66 704 Q66 710 73 710 L461 710 Q467 710 467 703 L467 689 L467 689 Z " />
<glyph glyph-name="radical" unicode="&#x221a;" horiz-adv-x="517" d="M473 710 Q479 710 477 703 L218 -124 Q216 -130 209 -130 L201 -130 Q196 -130 192 -124 L14 322 Q12 328 12 328 Q12 334 22 334 L32 334 Q37 334 41 327 L205 -88 L447 704 Q448 710 456 710 L473 710 L473 710 Z " />
<glyph glyph-name="micro" unicode="&#xb5;" horiz-adv-x="511" d="M428 480 Q434 480 434 473 L434 6 Q434 0 427 0 L411 0 Q405 0 405 7 L405 106 L404 113 L404 118 Q385 55 342.5 22.5 Q300 -10 240 -10 Q195 -10 160 7.5 Q125 25 105 65 L107 -156 Q107 -162 100 -162 L83 -162 Q77 -162 77 -155 L78 86 L77 474 Q77 480 84 480 L101 480 Q107 480 107 473 L107 174 Q107 87 144.5 51.5 Q182 16 242 16 Q279 16 309 30.5 Q339 45 360 72 Q381 99 392.5 137 Q404 175 404 221 L404 474 Q404 480 411 480 L428 480 L428 480 Z " />
<glyph glyph-name="partialdiff" unicode="&#x2202;" horiz-adv-x="585" d="M241 719 Q308 719 360 692.5 Q412 666 447.5 615 Q483 564 501.5 489.5 Q520 415 520 320 Q520 252 504.5 192 Q489 132 458 87 Q427 42 380 16 Q333 -10 270 -10 Q227 -10 188.5 5 Q150 20 120.5 48 Q91 76 74 116 Q57 156 57 207 Q57 257 76.5 300.5 Q96 344 131 376.5 Q166 409 215 428 Q264 447 324 447 Q366 447 410.5 437.5 Q455 428 487 409 Q473 541 411.5 617 Q350 693 241 693 Q209 693 174.5 689 Q140 685 114 674 Q108 672 108 679 L108 696 Q108 702 115 704 Q142 712 174 715.5 Q206 719 241 719 Z M271 17 Q328 17 369.5 40.5 Q411 64 438 105 Q465 146 478.5 201.5 Q492 257 492 320 Q492 336 491.5 351 Q491 366 490 381 Q458 400 413.5 410.5 Q369 421 327 421 Q273 421 229 404.5 Q185 388 153 358.5 Q121 329 103.5 290 Q86 251 86 206 Q86 164 100.5 129 Q115 94 140.5 69 Q166 44 199.5 30.5 Q233 17 271 17 Z " />
<glyph glyph-name="percent" unicode="&#x25;" horiz-adv-x="671" d="M93 -17 Q88 -14 92 -8 L540 720 Q542 722 543.5 723 Q545 724 549 722 L556 718 Q561 715 557 709 L109 -19 Q107 -21 105.5 -22 Q104 -23 100 -21 L93 -17 Z M176 432 Q153 432 133.5 442 Q114 452 99 471 Q84 490 75.5 516.5 Q67 543 67 575 Q67 608 75.5 635 Q84 662 99 681 Q114 700 133.5 710 Q153 720 176 720 Q198 720 217.5 710 Q237 700 252 681 Q267 662 275.5 635 Q284 608 284 575 Q284 543 275.5 516.5 Q267 490 252 471 Q237 452 217.5 442 Q198 432 176 432 Z M176 455 Q211 455 236 487 Q261 519 261 575 Q261 634 236 665.5 Q211 697 176 697 Q141 697 115.5 666 Q90 635 90 575 Q90 519 115.5 487 Q141 455 176 455 Z M496 -10 Q473 -10 453.5 0 Q434 10 419 29 Q404 48 395.5 74.5 Q387 101 387 133 Q387 166 395.5 193 Q404 220 419 239 Q434 258 453.5 268 Q473 278 496 278 Q518 278 537.5 268 Q557 258 572 239 Q587 220 595.5 193 Q604 166 604 133 Q604 101 595.5 74.5 Q587 48 572 29 Q557 10 537.5 0 Q518 -10 496 -10 Z M496 13 Q531 13 556 45 Q581 77 581 133 Q581 193 556 224 Q531 255 496 255 Q461 255 435.5 224 Q410 193 410 133 Q410 77 435.5 45 Q461 13 496 13 Z " />
<glyph glyph-name="perthousand" unicode="&#x2030;" horiz-adv-x="926" d="M98 -17 Q93 -14 97 -8 L545 720 Q547 722 548.5 723 Q550 724 554 722 L561 718 Q566 715 562 709 L114 -19 Q112 -21 110.5 -22 Q109 -23 105 -21 L98 -17 Z M176 432 Q153 432 133.5 442 Q114 452 99 471 Q84 490 75.5 516.5 Q67 543 67 575 Q67 608 75.5 635 Q84 662 99 681 Q114 700 133.5 710 Q153 720 176 720 Q198 720 217.5 710 Q237 700 252 681 Q267 662 275.5 635 Q284 608 284 575 Q284 543 275.5 516.5 Q267 490 252 471 Q237 452 217.5 442 Q198 432 176 432 Z M176 455 Q211 455 236 487 Q261 519 261 575 Q261 634 236 665.5 Q211 697 176 697 Q141 697 115.5 666 Q90 635 90 575 Q90 519 115.5 487 Q141 455 176 455 Z M473 -10 Q450 -10 430.5 0 Q411 10 396 29 Q381 48 372.5 74.5 Q364 101 364 133 Q364 166 372.5 193 Q381 220 396 239 Q411 258 430.5 268 Q450 278 473 278 Q495 278 515 268 Q535 258 550 239 Q565 220 573.5 193 Q582 166 582 133 Q582 101 573.5 74.5 Q565 48 550 29 Q535 10 515 0 Q495 -10 473 -10 Z M750 -10 Q728 -10 708 0 Q688 10 673 29 Q658 48 649.5 74.5 Q641 101 641 133 Q641 166 649.5 193 Q658 220 673 239 Q688 258 708 268 Q728 278 750 278 Q772 278 792 268 Q812 258 827 239 Q842 220 850.5 193 Q859 166 859 133 Q859 101 850.5 74.5 Q842 48 827 29 Q812 10 792 0 Q772 -10 750 -10 Z M473 13 Q508 13 533 45 Q558 77 558 133 Q558 193 533 224 Q508 255 473 255 Q438 255 413 224 Q388 193 388 133 Q388 77 413 45 Q438 13 473 13 Z M750 13 Q785 13 810 45 Q835 77 835 133 Q835 193 810 224 Q785 255 750 255 Q715 255 690 224 Q665 193 665 133 Q665 77 690 45 Q715 13 750 13 Z " />
<glyph glyph-name="lozenge" unicode="&#x25ca;" horiz-adv-x="542" d="M272 -56 Q267 -56 263 -50 L47 339 Q45 341 45 344 Q45 346 47 350 L263 739 Q266 744 273 744 L278 744 Q282 744 287 738 L495 349 Q496 347 496 344 Q496 340 495 338 L287 -51 Q284 -56 277 -56 L272 -56 Z M471 344 L275 708 L71 344 L275 -21 L471 344 Z " />
<glyph glyph-name="apple" unicode="&#xf8ff;" horiz-adv-x="999" d="M499 -140 Q430 -140 366.5 -122 Q303 -104 247.5 -71.5 Q192 -39 146.5 6.5 Q101 52 68.5 107.5 Q36 163 18 227 Q0 291 0 360 Q0 463 39.5 554 Q79 645 146.5 712.5 Q214 780 305 819.5 Q396 859 499 859 Q602 859 693 819.5 Q784 780 852 712.5 Q920 645 959.5 554 Q999 463 999 360 Q999 256 959.5 165 Q920 74 852 6.5 Q784 -61 693 -100.5 Q602 -140 499 -140 Z M499 109 Q585 109 671.5 112 Q758 115 840 124 Q864 126 876.5 134.5 Q889 143 892 168 Q896 216 896.5 263.5 Q897 311 897 360 Q897 408 896.5 455.5 Q896 503 892 551 Q889 576 876.5 584.5 Q864 593 840 595 Q758 604 671.5 607 Q585 610 499 610 Q413 610 326.5 607 Q240 604 157 595 Q134 593 121.5 584.5 Q109 576 106 551 Q101 503 100.5 455.5 Q100 408 100 360 Q100 311 100.5 263.5 Q101 216 106 168 Q109 143 121.5 134.5 Q134 126 157 124 Q240 115 326.5 112 Q413 109 499 109 Z M499 157 Q456 157 419 173 Q382 189 355 217 Q328 245 312.5 281.5 Q297 318 297 360 Q297 401 312.5 438 Q328 475 355 502.5 Q382 530 419 546 Q456 562 499 562 Q542 562 579 546 Q616 530 643 502.5 Q670 475 685.5 438 Q701 401 701 360 Q701 318 685.5 281.5 Q670 245 643 217 Q616 189 579 173 Q542 157 499 157 Z " />
<glyph glyph-name="at" unicode="&#x40;" horiz-adv-x="823" d="M574 428 Q580 428 580 421 L580 145 Q580 106 598.5 86.5 Q617 67 646 67 Q671 67 692 82.5 Q713 98 728 124.5 Q743 151 751.5 186 Q760 221 760 260 Q760 330 735 391 Q710 452 664.5 497.5 Q619 543 556.5 569 Q494 595 419 595 Q341 595 275.5 566.5 Q210 538 162.5 489 Q115 440 89 375 Q63 310 63 237 Q63 164 89 98.5 Q115 33 162.5 -16.5 Q210 -66 275.5 -95 Q341 -124 421 -124 Q449 -124 480 -120 Q511 -116 541 -108 Q571 -100 598 -88.5 Q625 -77 646 -62 Q651 -60 652 -59 Q653 -58 655 -58 Q657 -58 657 -63 L657 -79 Q657 -85 651 -89 Q627 -104 598 -115 Q569 -126 538.5 -133 Q508 -140 478 -143.5 Q448 -147 421 -147 Q338 -147 268 -116.5 Q198 -86 147 -33.5 Q96 19 67.5 88.5 Q39 158 39 237 Q39 316 68 385.5 Q97 455 148 506.5 Q199 558 268.5 587.5 Q338 617 419 617 Q498 617 564.5 589 Q631 561 680 513 Q729 465 756.5 400 Q784 335 784 260 Q784 215 773.5 175.5 Q763 136 744.5 106.5 Q726 77 700.5 60 Q675 43 645 43 Q607 43 581 67.5 Q555 92 554 140 Q531 90 490 65 Q449 40 404 40 Q370 40 338 54 Q306 68 281 94.5 Q256 121 240.5 158 Q225 195 225 240 Q225 284 239.5 320 Q254 356 278.5 381.5 Q303 407 335.5 421 Q368 435 404 435 Q450 435 490 411 Q530 387 553 339 L554 422 Q554 428 561 428 L574 428 Z M408 65 Q436 65 462 76.5 Q488 88 508.5 109.5 Q529 131 541.5 163.5 Q554 196 554 238 Q554 280 542 312 Q530 344 509.5 366 Q489 388 462.5 399.5 Q436 411 407 411 Q376 411 348 398.5 Q320 386 299 363.5 Q278 341 265.5 309 Q253 277 253 239 Q253 199 266 167 Q279 135 301 112.5 Q323 90 350.5 77.5 Q378 65 408 65 Z " />
<glyph glyph-name="ampersand" unicode="&#x26;" horiz-adv-x="614" d="M569 3 Q573 -1 566 -1 L540 -1 Q534 -1 529 4 L457 80 Q419 37 367 13.5 Q315 -10 255 -10 Q210 -10 171 3 Q132 16 103.5 39.5 Q75 63 59 95.5 Q43 128 43 168 Q43 231 80 281.5 Q117 332 192 363 Q154 407 130 451 Q106 495 106 549 Q106 588 120.5 619.5 Q135 651 159.5 673.5 Q184 696 217 708 Q250 720 286 720 Q324 720 352.5 715 Q381 710 404 702 Q410 700 410 693 L410 676 Q410 669 404 673 Q381 682 353 687 Q325 692 289 692 Q259 692 231.5 682.5 Q204 673 182.5 654.5 Q161 636 148.5 609.5 Q136 583 136 549 Q136 491 170.5 440 Q205 389 261 330 L456 123 Q482 161 496.5 209.5 Q511 258 511 315 Q511 355 504 393 Q502 399 510 399 L526 399 Q532 399 533 392 Q535 372 537 353 Q539 334 539 316 Q539 252 522 198.5 Q505 145 475 103 L569 3 Z M257 18 Q312 18 358 40 Q404 62 438 101 L306 245 L283 267 L234 318 Q227 325 221 331.5 Q215 338 209 345 Q142 316 107.5 271 Q73 226 73 169 Q73 134 87 106.5 Q101 79 125.5 59 Q150 39 183.5 28.5 Q217 18 257 18 Z " />
<glyph glyph-name="paragraph" unicode="&#xb6;" horiz-adv-x="542" d="M374 710 Q380 710 380 703 L380 19 Q380 -38 367.5 -79 Q355 -120 330 -157 Q327 -162 320 -162 L305 -162 Q299 -162 303 -156 Q329 -119 342 -78 Q355 -37 355 19 L355 310 L322 310 Q269 310 225 324.5 Q181 339 149.5 365.5 Q118 392 101 428.5 Q84 465 84 510 Q84 555 101 591.5 Q118 628 149.5 654.5 Q181 681 225 695.5 Q269 710 322 710 L374 710 Z M439 710 Q445 710 445 703 L445 176 L445 163 Q445 134 443.5 111.5 Q442 89 439 71.5 Q436 54 432 40.5 Q428 27 423 15 Q421 9 421 17 L421 704 Q421 710 428 710 L439 710 Z " />
<glyph glyph-name="section" unicode="&#xa7;" horiz-adv-x="526" d="M415 275 Q457 224 471 177.5 Q485 131 485 91 Q485 34 465.5 -14 Q446 -62 411 -96 Q376 -130 327 -149 Q278 -168 220 -168 Q178 -168 136 -158.5 Q94 -149 46 -127 Q41 -125 41 -118 L41 -100 Q41 -93 47 -97 Q98 -123 141 -132 Q184 -141 219 -141 Q294 -141 349.5 -109.5 Q405 -78 434 -23 L98 387 Q66 426 51 461 Q36 496 36 541 Q36 589 53 629 Q70 669 100.5 697 Q131 725 174 740.5 Q217 756 269 756 Q287 756 307 754 Q327 752 347 748.5 Q367 745 385.5 740.5 Q404 736 418 730 Q424 728 424 721 L424 703 Q424 696 418 700 Q387 713 345 721 Q303 729 267 729 Q212 729 169.5 710 Q127 691 99 657 L415 275 Z M444 0 Q460 39 460 89 Q460 127 448 169 Q436 211 396 260 L86 639 Q60 596 60 540 Q60 502 73.5 470.5 Q87 439 119 399 L444 0 Z " />
<glyph glyph-name="copyright" unicode="&#xa9;" horiz-adv-x="811" d="M405 -11 Q331 -11 265 15.5 Q199 42 150 89.5 Q101 137 72.5 203.5 Q44 270 44 351 Q44 434 73 502 Q102 570 151.5 618.5 Q201 667 266.5 693.5 Q332 720 405 720 Q478 720 544 693.5 Q610 667 659.5 618.5 Q709 570 738 502 Q767 434 767 351 Q767 270 738.5 203.5 Q710 137 660.5 89.5 Q611 42 545.5 15.5 Q480 -11 405 -11 Z M405 9 Q475 9 537 33.5 Q599 58 645.5 103 Q692 148 719 211 Q746 274 746 351 Q746 430 719 494.5 Q692 559 645.5 605 Q599 651 537 676 Q475 701 405 701 Q336 701 274 676 Q212 651 165.5 605 Q119 559 92 494.5 Q65 430 65 351 Q65 274 92 211 Q119 148 165.5 103 Q212 58 274 33.5 Q336 9 405 9 Z M408 156 Q373 156 341 170 Q309 184 283.5 210.5 Q258 237 243 274 Q228 311 228 357 Q228 402 243 438 Q258 474 283.5 499.5 Q309 525 341 539 Q373 553 408 553 Q437 553 462 545.5 Q487 538 507 527 Q512 524 512 517 L512 503 Q512 498 506 500 Q486 511 462 519.5 Q438 528 410 528 Q380 528 352.5 516 Q325 504 303 481.5 Q281 459 268 427.5 Q255 396 255 357 Q255 316 268 283 Q281 250 303 227.5 Q325 205 352.5 193 Q380 181 410 181 Q440 181 466 189.5 Q492 198 512 212 Q517 217 517 209 L517 192 Q517 185 511 183 Q491 172 464.5 164 Q438 156 408 156 Z " />
<glyph glyph-name="registered" unicode="&#xae;" horiz-adv-x="474" d="M237 720 Q277 720 311 706 Q345 692 370.5 666.5 Q396 641 410.5 605.5 Q425 570 425 527 Q425 484 411 448.5 Q397 413 371.5 387.5 Q346 362 311.5 348 Q277 334 237 334 Q196 334 162 348 Q128 362 102.5 387.5 Q77 413 63 448.5 Q49 484 49 527 Q49 570 63.5 605.5 Q78 641 103 666.5 Q128 692 162.5 706 Q197 720 237 720 Z M237 353 Q273 353 303.5 365.5 Q334 378 356.5 401 Q379 424 391.5 456 Q404 488 404 527 Q404 566 391.5 598.5 Q379 631 356.5 653.5 Q334 676 303.5 688.5 Q273 701 237 701 Q201 701 170.5 688.5 Q140 676 117.5 653.5 Q95 631 82.5 598.5 Q70 566 70 527 Q70 488 82.5 456 Q95 424 117.5 401 Q140 378 170.5 365.5 Q201 353 237 353 Z M318 440 Q321 435 321 433 Q321 430 313 430 L304 430 Q298 430 294 435 L221 526 L204 526 L204 436 Q204 430 197 430 L188 430 Q182 430 182 437 L182 631 Q182 637 189 637 L235 637 Q267 637 285 622 Q303 607 303 582 Q303 558 287.5 543.5 Q272 529 245 527 L318 440 Z M204 545 L236 545 Q257 545 269 555 Q281 565 281 581 Q281 598 269 607.5 Q257 617 236 617 L204 617 L204 545 Z " />
<glyph glyph-name="trademark" unicode="&#x2122;" horiz-adv-x="690" d="M651 379 Q652 373 646 373 L630 373 Q624 373 623 379 L571 677 L463 391 Q461 385 455 385 L447 385 Q441 385 439 391 L333 673 L278 379 Q276 373 271 373 L257 373 Q251 373 252 379 L314 704 Q315 710 321 710 L337 710 Q343 710 345 704 L452 420 L558 704 Q559 710 566 710 L581 710 Q587 710 588 704 L651 379 Z M254 692 Q254 686 248 686 L149 686 L149 379 Q149 373 143 373 L129 373 Q123 373 123 379 L123 686 L24 686 Q18 686 18 692 L18 703 Q18 709 24 709 L248 709 Q254 709 254 703 L254 692 Z " />
<glyph glyph-name="degree" unicode="&#xb0;" horiz-adv-x="303" d="M152 487 Q128 487 107 496 Q86 505 71 520.5 Q56 536 47.5 557.5 Q39 579 39 605 Q39 630 47.5 651 Q56 672 71.5 687.5 Q87 703 107.5 711.5 Q128 720 152 720 Q176 720 196.5 711.5 Q217 703 232 687.5 Q247 672 255.5 651 Q264 630 264 605 Q264 579 255.5 557.5 Q247 536 232 520.5 Q217 505 196.5 496 Q176 487 152 487 Z M152 509 Q190 509 215 536.5 Q240 564 240 605 Q240 646 215 672 Q190 698 152 698 Q114 698 88.5 672 Q63 646 63 605 Q63 564 88.5 536.5 Q114 509 152 509 Z " />
<glyph glyph-name="bar" unicode="&#x7c;" horiz-adv-x="130" d="M58 -200 Q52 -200 52 -193 L52 834 Q52 840 59 840 L72 840 Q78 840 78 833 L78 -194 Q78 -200 71 -200 L58 -200 L58 -200 Z " />
<glyph glyph-name="brokenbar" unicode="&#xa6;" horiz-adv-x="130" d="M58 425 Q52 425 52 432 L52 834 Q52 840 59 840 L72 840 Q78 840 78 833 L78 431 Q78 425 71 425 L58 425 Z M58 -200 Q52 -200 52 -193 L52 209 Q52 215 59 215 L72 215 Q78 215 78 208 L78 -194 Q78 -200 71 -200 L58 -200 Z " />
<glyph glyph-name="dagger" unicode="&#x2020;" horiz-adv-x="332" d="M287 589 Q293 589 293 582 L293 566 Q293 560 286 560 L177 563 L177 286 Q177 280 170 280 L155 280 Q149 280 149 287 L149 563 L37 560 Q31 560 31 567 L31 583 Q31 589 38 589 L149 587 L149 704 Q149 710 156 710 L171 710 Q177 710 177 703 L177 587 L287 589 L287 589 Z " />
<glyph glyph-name="daggerdbl" unicode="&#x2021;" horiz-adv-x="332" d="M176 565 L176 418 L287 420 Q293 420 293 413 L293 397 Q293 391 286 391 L176 393 L176 286 Q176 280 169 280 L155 280 Q149 280 149 287 L149 393 L37 391 Q31 391 31 398 L31 414 Q31 420 38 420 L149 418 L149 565 L37 563 Q31 563 31 570 L31 586 Q31 592 38 592 L149 589 L149 704 Q149 710 156 710 L170 710 Q176 710 176 703 L176 589 L287 592 Q293 592 293 585 L293 569 Q293 563 286 563 L176 565 Z " />
<glyph glyph-name="asciicircum" unicode="&#x5e;" horiz-adv-x="600" d="M456 310 Q461 305 453 305 L434 305 Q428 305 423 310 L301 449 L176 309 Q172 305 165 305 L146 305 Q140 305 144 310 L284 480 Q286 482 288 483.5 Q290 485 295 485 L308 485 Q314 485 318 480 L456 310 L456 310 Z " />
<glyph glyph-name="dieresiscomb" unicode="&#x308;" d="M-67 656 Q-81 656 -89.5 665.5 Q-98 675 -98 688 Q-98 702 -89.5 711.5 Q-81 721 -67 721 Q-53 721 -44.5 711.5 Q-36 702 -36 688 Q-36 675 -44.5 665.5 Q-53 656 -67 656 Z M66 656 Q52 656 43.5 665.5 Q35 675 35 688 Q35 702 43.5 711.5 Q52 721 66 721 Q80 721 88.5 711.5 Q97 702 97 688 Q97 675 88.5 665.5 Q80 656 66 656 Z " />
<glyph glyph-name="dotaccentcomb" unicode="&#x307;" d="M0 635 Q-20 635 -30.5 648 Q-41 661 -41 679 Q-41 697 -30.5 709.5 Q-20 722 0 722 Q19 722 30 709.5 Q41 697 41 679 Q41 661 30 648 Q19 635 0 635 Z " />
<glyph glyph-name="gravecomb" unicode="&#x300;" d="M17 570 Q20 565 13 565 L-1 565 Q-7 565 -11 571 L-137 744 Q-141 748 -135 752 L-109 763 Q-102 765 -99 759 L17 570 L17 570 Z " />
<glyph glyph-name="acutecomb" unicode="&#x301;" d="M-43 565 Q-49 565 -45 571 L71 760 Q73 762 74.5 763 Q76 764 80 762 L106 751 Q112 750 108 743 L-18 570 Q-20 568 -22 566.5 Q-24 565 -29 565 L-43 565 L-43 565 Z " />
<glyph glyph-name="hungarumlautcomb" unicode="&#x30b;" d="M-75 565 Q-82 565 -78 571 L13 756 Q16 761 23 759 L46 751 Q52 750 48 743 L-52 570 Q-55 565 -62 565 L-75 565 Z M26 565 Q19 565 23 571 L116 756 Q119 761 126 759 L150 751 Q156 750 152 743 L50 570 Q47 565 40 565 L26 565 Z " />
<glyph glyph-name="circumflexcomb" unicode="&#x302;" d="M126 570 Q129 565 123 565 L103 565 Q96 565 94 570 L0 712 L-95 570 Q-98 565 -104 565 L-123 565 Q-129 565 -126 570 L-16 745 Q-13 750 -7 750 L6 750 Q12 750 15 745 L126 570 L126 570 Z " />
<glyph glyph-name="caroncomb" unicode="&#x30c;" d="M122 747 Q128 747 124 741 L15 577 Q12 572 5 572 L-6 572 Q-12 572 -16 578 L-126 742 Q-129 747 -122 747 L-104 747 Q-98 747 -94 741 L0 606 L95 742 Q98 747 105 747 L122 747 L122 747 Z " />
<glyph glyph-name="brevecomb" unicode="&#x306;" d="M0 605 Q-49 605 -81 636.5 Q-113 668 -116 716 Q-116 722 -110 722 L-100 722 Q-94 722 -94 716 Q-91 678 -65.5 654.5 Q-40 631 0 631 Q39 631 65 654.5 Q91 678 93 716 Q93 722 99 722 L110 722 Q116 722 116 716 Q113 668 80.5 636.5 Q48 605 0 605 Z " />
<glyph glyph-name="ringcomb" unicode="&#x30a;" d="M0 583 Q-34 583 -56.5 606.5 Q-79 630 -79 665 Q-79 700 -56.5 722 Q-34 744 0 744 Q33 744 56 722 Q79 700 79 665 Q79 630 56.5 606.5 Q34 583 0 583 Z M0 603 Q25 603 41 620.5 Q57 638 57 665 Q57 691 41 708.5 Q25 726 0 726 Q-26 726 -41.5 708.5 Q-57 691 -57 665 Q-57 638 -41.5 620.5 Q-26 603 0 603 Z " />
<glyph glyph-name="tildecomb" unicode="&#x303;" d="M61 614 Q37 614 22 627 Q7 640 -6 656 Q-17 670 -28.5 681 Q-40 692 -58 692 Q-83 692 -95 671 Q-107 650 -109 618 Q-109 612 -115 612 L-127 612 Q-133 612 -133 618 Q-131 662 -112 691 Q-93 720 -58 720 Q-32 720 -16.5 706 Q-1 692 11 677 Q22 663 33 653 Q44 643 61 643 Q84 643 95.5 661.5 Q107 680 109 709 Q109 715 115 715 L127 715 Q133 715 133 709 Q131 668 112 641 Q93 614 61 614 Z " />
<glyph glyph-name="macroncomb" unicode="&#x304;" d="M-121 645 Q-127 645 -127 652 L-127 666 Q-127 672 -120 672 L121 672 Q127 672 127 665 L127 651 Q127 645 120 645 L-121 645 L-121 645 Z " />
<glyph glyph-name="cedillacomb" unicode="&#x327;" horiz-adv-x="30" d="M23 -46 Q53 -46 72 -62 Q91 -78 91 -104 Q91 -135 65.5 -153.5 Q40 -172 5 -172 Q-30 -172 -59 -159 Q-64 -156 -64 -150 L-64 -140 Q-64 -135 -59 -137 Q-45 -143 -29.5 -147 Q-14 -151 4 -151 Q29 -151 48 -139 Q67 -127 67 -105 Q67 -85 51 -75 Q35 -65 14 -65 Q-14 -65 -35 -73 L-37 -71 L20 6 L43 6 L1 -48 Q6 -47 12 -46.5 Q18 -46 23 -46 Z " />
<glyph glyph-name="ogonekcomb" unicode="&#x328;" d="M19 -171 Q-14 -171 -38 -151.5 Q-62 -132 -62 -100 Q-62 -66 -31.5 -34.5 Q-1 -3 43 17 L60 6 Q10 -21 -13 -47 Q-36 -73 -36 -99 Q-36 -122 -19 -135 Q-2 -148 21 -148 Q39 -148 55 -141 Q61 -140 61 -145 L61 -155 Q61 -162 56 -164 Q42 -171 19 -171 Z " />
<glyph glyph-name="slashshortcomb" unicode="&#x337;" d="M-164 -46 Q-171 -46 -167 -40 L143 544 Q146 549 153 549 L163 549 Q170 549 166 543 L-144 -41 Q-147 -46 -154 -46 L-164 -46 L-164 -46 Z " />
<glyph glyph-name="slashlongcomb" unicode="&#x338;" d="M-215 -45 Q-222 -45 -218 -39 L193 730 Q196 735 203 735 L213 735 Q220 735 216 729 L-195 -40 Q-198 -45 -205 -45 L-215 -45 L-215 -45 Z " />
<glyph glyph-name="acute" unicode="&#xb4;" horiz-adv-x="500" d="M175 565 Q169 565 173 571 L289 760 Q291 762 292.5 763 Q294 764 298 762 L324 751 Q330 750 326 743 L200 570 Q198 568 196 566.5 Q194 565 189 565 L175 565 L175 565 Z " />
<glyph glyph-name="breve" unicode="&#x2d8;" horiz-adv-x="500" d="M250 605 Q201 605 169 636.5 Q137 668 134 716 Q134 722 140 722 L150 722 Q156 722 156 716 Q159 678 184.5 654.5 Q210 631 250 631 Q289 631 315 654.5 Q341 678 343 716 Q343 722 349 722 L360 722 Q366 722 366 716 Q363 668 330.5 636.5 Q298 605 250 605 Z " />
<glyph glyph-name="caron" unicode="&#x2c7;" horiz-adv-x="500" d="M372 747 Q378 747 374 741 L265 577 Q262 572 255 572 L244 572 Q238 572 234 578 L124 742 Q121 747 128 747 L146 747 Q152 747 156 741 L250 606 L345 742 Q348 747 355 747 L372 747 L372 747 Z " />
<glyph glyph-name="cedilla" unicode="&#xb8;" horiz-adv-x="503" d="M275 -46 Q305 -46 324 -62 Q343 -78 343 -104 Q343 -135 317.5 -153.5 Q292 -172 257 -172 Q222 -172 193 -159 Q188 -156 188 -150 L188 -140 Q188 -135 193 -137 Q207 -143 222.5 -147 Q238 -151 256 -151 Q281 -151 300 -139 Q319 -127 319 -105 Q319 -85 303 -75 Q287 -65 266 -65 Q238 -65 217 -73 L215 -71 L272 6 L295 6 L253 -48 Q258 -47 264 -46.5 Q270 -46 275 -46 Z " />
<glyph glyph-name="circumflex" unicode="&#x2c6;" horiz-adv-x="500" d="M376 570 Q379 565 373 565 L353 565 Q346 565 344 570 L250 712 L155 570 Q152 565 146 565 L127 565 Q121 565 124 570 L234 745 Q237 750 243 750 L256 750 Q262 750 265 745 L376 570 L376 570 Z " />
<glyph glyph-name="dieresis" unicode="&#xa8;" horiz-adv-x="500" d="M183 656 Q169 656 160.5 665.5 Q152 675 152 688 Q152 702 160.5 711.5 Q169 721 183 721 Q197 721 205.5 711.5 Q214 702 214 688 Q214 675 205.5 665.5 Q197 656 183 656 Z M316 656 Q302 656 293.5 665.5 Q285 675 285 688 Q285 702 293.5 711.5 Q302 721 316 721 Q330 721 338.5 711.5 Q347 702 347 688 Q347 675 338.5 665.5 Q330 656 316 656 Z " />
<glyph glyph-name="dotaccent" unicode="&#x2d9;" horiz-adv-x="500" d="M250 635 Q230 635 219.5 648 Q209 661 209 679 Q209 697 219.5 709.5 Q230 722 250 722 Q269 722 280 709.5 Q291 697 291 679 Q291 661 280 648 Q269 635 250 635 Z " />
<glyph glyph-name="grave" unicode="&#x60;" horiz-adv-x="500" d="M326 570 Q329 565 322 565 L308 565 Q302 565 298 571 L172 744 Q168 748 174 752 L200 763 Q207 765 210 759 L326 570 L326 570 Z " />
<glyph glyph-name="hungarumlaut" unicode="&#x2dd;" horiz-adv-x="500" d="M138 565 Q131 565 135 571 L226 756 Q229 761 236 759 L259 751 Q265 750 261 743 L161 570 Q158 565 151 565 L138 565 Z M239 565 Q232 565 236 571 L329 756 Q332 761 339 759 L363 751 Q369 750 365 743 L263 570 Q260 565 253 565 L239 565 Z " />
<glyph glyph-name="macron" unicode="&#xaf;" horiz-adv-x="500" d="M129 645 Q123 645 123 652 L123 666 Q123 672 130 672 L371 672 Q377 672 377 665 L377 651 Q377 645 370 645 L129 645 L129 645 Z " />
<glyph glyph-name="ogonek" unicode="&#x2db;" horiz-adv-x="500" d="M269 -171 Q236 -171 212 -151.5 Q188 -132 188 -100 Q188 -66 218.5 -34.5 Q249 -3 293 17 L310 6 Q260 -21 237 -47 Q214 -73 214 -99 Q214 -122 231 -135 Q248 -148 271 -148 Q289 -148 305 -141 Q311 -140 311 -145 L311 -155 Q311 -162 306 -164 Q292 -171 269 -171 Z " />
<glyph glyph-name="ring" unicode="&#x2da;" horiz-adv-x="500" d="M250 583 Q216 583 193.5 606.5 Q171 630 171 665 Q171 700 193.5 722 Q216 744 250 744 Q283 744 306 722 Q329 700 329 665 Q329 630 306.5 606.5 Q284 583 250 583 Z M250 603 Q275 603 291 620.5 Q307 638 307 665 Q307 691 291 708.5 Q275 726 250 726 Q224 726 208.5 708.5 Q193 691 193 665 Q193 638 208.5 620.5 Q224 603 250 603 Z " />
<glyph glyph-name="tilde" unicode="&#x2dc;" horiz-adv-x="500" d="M311 614 Q287 614 272 627 Q257 640 244 656 Q233 670 221.5 681 Q210 692 192 692 Q167 692 155 671 Q143 650 141 618 Q141 612 135 612 L123 612 Q117 612 117 618 Q119 662 138 691 Q157 720 192 720 Q218 720 233.5 706 Q249 692 261 677 Q272 663 283 653 Q294 643 311 643 Q334 643 345.5 661.5 Q357 680 359 709 Q359 715 365 715 L377 715 Q383 715 383 709 Q381 668 362 641 Q343 614 311 614 Z " />
<glyph glyph-name="A" unicode="A" horiz-adv-x="624" d="M608 6 Q609 3 608.5 1.5 Q608 0 603 0 L582 0 Q576 0 573 7 Q549 67 525.5 127 Q502 187 478 248 L145 248 Q121 187 96.5 126.5 Q72 66 48 6 Q46 0 39 0 L20 0 Q13 0 17 6 L300 709 Q301 715 309 715 L318 715 Q323 715 327 709 L608 6 Z M466 277 L312 670 Q274 570 235 472.5 Q196 375 157 277 L466 277 Z " />
<glyph glyph-name="Aacute" unicode="&#xc1;" horiz-adv-x="626" d="M608 6 Q609 3 608.5 1.5 Q608 0 603 0 L582 0 Q576 0 573 7 Q549 67 525.5 127 Q502 187 478 248 L145 248 Q121 187 96.5 126.5 Q72 66 48 6 Q46 0 39 0 L20 0 Q13 0 17 6 L300 709 Q301 715 309 715 L318 715 Q323 715 327 709 L608 6 Z M466 277 L312 670 Q274 570 235 472.5 Q196 375 157 277 L466 277 Z M298 764 Q291 764 295 770 L360 887 Q363 892 370 892 L414 892 Q420 892 415 886 L320 769 Q318 767 316 765.5 Q314 764 309 764 L298 764 L298 764 Z " />
</font>
</svg>
