<?xml version="1.0" encoding="UTF-8"?>
<svg xmlns="http://www.w3.org/2000/svg" xmlns:xlink="http://www.w3.org/1999/xlink" version="1.2" >
<font id="GlobotipoTexto-Light">
<font-face  font-family="Globotipo Texto" units-per-em="1000" ascent="1000" descent="-400" font-style="normal" font-weight="300" font-stretch="normal" cap-height="710" x-height="480" underline-position="-75" underline-thickness="50" />
<missing-glyph  horiz-adv-x="700" d="M350 709 Q423 709 487.5 681 Q552 653 600 605 Q648 557 676 492.5 Q704 428 704 355 Q704 281 676 216.5 Q648 152 600 104 Q552 56 487.5 28 Q423 0 350 0 Q276 0 211.5 28 Q147 56 99 104 Q51 152 23 216.5 Q-5 281 -5 355 Q-5 428 23 492.5 Q51 557 99 605 Q147 653 211.5 681 Q276 709 350 709 Z M350 20 Q419 20 480 46.5 Q541 73 586 118.5 Q631 164 657.5 225 Q684 286 684 355 Q684 424 657.5 485 Q631 546 586 591 Q541 636 480 662.5 Q419 689 350 689 Q281 689 220 662.5 Q159 636 113.5 591 Q68 546 41.5 485 Q15 424 15 355 Q15 286 41.5 225 Q68 164 113.5 118.5 Q159 73 220 46.5 Q281 20 350 20 Z M569 559 L364 354 L569 149 L555 135 L350 340 L145 135 L131 149 L336 354 L131 559 L145 573 L350 368 L555 573 L569 559 Z " />
<glyph glyph-name=".null" d="" />
<glyph glyph-name="nonmarkingreturn" unicode="&#xd;" horiz-adv-x="218" d="" />
<glyph glyph-name="space" unicode="&#x20;" horiz-adv-x="218" d="" />
<glyph glyph-name="Adieresis" unicode="&#xc4;" horiz-adv-x="643" d="M620 7 Q623 0 615 0 L574 0 Q566 0 563 7 L477 228 L156 228 L69 7 Q65 0 58 0 L20 0 Q12 0 15 7 L297 707 Q300 714 308 714 L329 714 Q337 714 340 707 L620 7 Z M460 273 Q425 365 389.5 457.5 Q354 550 318 646 Q282 550 246 457.5 Q210 365 174 273 L460 273 Z M242 779 Q220 779 207.5 794 Q195 809 195 829 Q195 849 207.5 863 Q220 877 242 877 Q263 877 275.5 863 Q288 849 288 829 Q288 809 275.5 794 Q263 779 242 779 Z M400 779 Q378 779 365.5 794 Q353 809 353 829 Q353 849 365.5 863 Q378 877 400 877 Q421 877 433.5 863 Q446 849 446 829 Q446 809 433.5 794 Q421 779 400 779 Z " />
<glyph glyph-name="Agrave" unicode="&#xc0;" horiz-adv-x="643" d="M620 7 Q623 0 615 0 L574 0 Q566 0 563 7 L477 228 L156 228 L69 7 Q65 0 58 0 L20 0 Q12 0 15 7 L297 707 Q300 714 308 714 L329 714 Q337 714 340 707 L620 7 Z M460 273 Q425 365 389.5 457.5 Q354 550 318 646 Q282 550 246 457.5 Q210 365 174 273 L460 273 Z M325 772 Q330 765 321 765 L303 765 Q296 765 290 771 L191 890 Q187 897 195 897 L251 897 Q259 897 263 890 L325 772 L325 772 Z " />
<glyph glyph-name="Aring" unicode="&#xc5;" horiz-adv-x="643" d="M620 7 Q623 0 615 0 L574 0 Q566 0 563 7 L477 228 L156 228 L69 7 Q65 0 58 0 L20 0 Q12 0 15 7 L297 707 Q300 714 308 714 L329 714 Q337 714 340 707 L620 7 Z M460 273 Q425 365 389.5 457.5 Q354 550 318 646 Q282 550 246 457.5 Q210 365 174 273 L460 273 Z M318 743 Q282 743 257.5 767.5 Q233 792 233 830 Q233 867 258 890.5 Q283 914 318 914 Q353 914 377.5 890.5 Q402 867 402 830 Q402 792 377.5 767.5 Q353 743 318 743 Z M318 770 Q342 770 358 787 Q374 804 374 830 Q374 856 358 872.5 Q342 889 318 889 Q293 889 277.5 872.5 Q262 856 262 830 Q262 804 277.5 787 Q293 770 318 770 Z " />
<glyph glyph-name="Atilde" unicode="&#xc3;" horiz-adv-x="643" d="M620 7 Q623 0 615 0 L574 0 Q566 0 563 7 L477 228 L156 228 L69 7 Q65 0 58 0 L20 0 Q12 0 15 7 L297 707 Q300 714 308 714 L329 714 Q337 714 340 707 L620 7 Z M460 273 Q425 365 389.5 457.5 Q354 550 318 646 Q282 550 246 457.5 Q210 365 174 273 L460 273 Z M258 844 Q235 844 222.5 825.5 Q210 807 208 778 Q208 772 202 772 L183 772 Q177 772 177 778 Q179 823 199.5 854 Q220 885 257 885 Q283 885 298.5 872 Q314 859 327 845 Q338 834 350 824 Q362 814 379 814 Q400 814 411.5 831 Q423 848 425 875 Q425 881 431 881 L451 881 Q457 881 457 875 Q455 831 435 801.5 Q415 772 381 772 Q355 772 339 784.5 Q323 797 310 811 Q299 823 288 833.5 Q277 844 258 844 Z " />
<glyph glyph-name="AE" unicode="&#xc6;" horiz-adv-x="795" d="M476 667 L476 393 L709 393 Q717 393 717 385 L717 358 Q717 350 709 350 L476 350 L476 43 L734 43 Q742 43 742 35 L742 8 Q742 0 734 0 L436 0 Q428 0 428 8 L428 212 L183 212 L67 7 Q62 0 55 0 L18 0 Q10 0 14 7 L412 703 Q417 710 424 710 L735 710 Q742 710 742 703 L742 675 Q742 667 734 667 L476 667 Z M428 254 L428 643 L207 254 L428 254 Z " />
<glyph glyph-name="B" unicode="B" horiz-adv-x="518" d="M315 372 Q396 362 441.5 315 Q487 268 487 199 Q487 155 469.5 118 Q452 81 419.5 55 Q387 29 341 14.5 Q295 0 238 0 L89 0 Q81 0 81 8 L81 702 Q81 710 89 710 L218 710 Q271 710 314 698 Q357 686 387 663.5 Q417 641 433 608.5 Q449 576 449 536 Q449 478 415 432 Q381 386 315 373 L315 372 Z M131 666 L131 389 L237 389 Q272 389 302 398.5 Q332 408 353.5 426 Q375 444 387 470.5 Q399 497 399 531 Q399 595 351 630.5 Q303 666 220 666 L131 666 Z M237 43 Q329 43 381.5 86 Q434 129 434 200 Q434 233 420.5 260 Q407 287 383 306 Q359 325 326 335 Q293 345 254 345 L131 345 L131 43 L237 43 Z " />
<glyph glyph-name="C" unicode="C" horiz-adv-x="641" d="M412 -11 Q335 -11 267.5 15 Q200 41 150 89 Q100 137 71 205.5 Q42 274 42 359 Q42 442 71 508.5 Q100 575 150.5 622 Q201 669 269 694.5 Q337 720 414 720 Q460 720 501.5 711 Q543 702 576 690 Q583 686 583 679 L583 651 Q583 636 568 641 Q537 655 499 664 Q461 673 418 673 Q349 673 290 651 Q231 629 187 588 Q143 547 118 489.5 Q93 432 93 360 Q93 285 118 225.5 Q143 166 187 124 Q231 82 290.5 60 Q350 38 418 38 Q464 38 504.5 46.5 Q545 55 578 69 Q581 70 586 70 Q593 70 593 59 L593 32 Q593 24 586 21 Q551 7 506.5 -2 Q462 -11 412 -11 Z " />
<glyph glyph-name="Ccedilla" unicode="&#xc7;" horiz-adv-x="641" d="M578 69 Q581 70 586 70 Q593 70 593 59 L593 32 Q593 24 586 21 Q551 7 506.5 -2 Q462 -11 412 -11 L406 -11 L382 -45 Q385 -44 388.5 -44 Q392 -44 395 -44 Q427 -44 447 -60.5 Q467 -77 467 -104 Q467 -137 440.5 -156 Q414 -175 376 -175 Q339 -175 311 -162 Q305 -159 305 -152 L305 -136 Q305 -130 311 -132 Q324 -138 340 -142 Q356 -146 373 -146 Q397 -146 414.5 -135.5 Q432 -125 432 -105 Q432 -87 417 -78 Q402 -69 382 -69 Q355 -69 334 -77 L332 -74 L376 -10 Q305 -4 244 24.5 Q183 53 138 100.5 Q93 148 67.5 213.5 Q42 279 42 359 Q42 442 71 508.5 Q100 575 150.5 622 Q201 669 269 694.5 Q337 720 414 720 Q460 720 501.5 711 Q543 702 576 690 Q583 686 583 679 L583 651 Q583 636 568 641 Q537 655 499 664 Q461 673 418 673 Q349 673 290 651 Q231 629 187 588 Q143 547 118 489.5 Q93 432 93 360 Q93 285 118 225.5 Q143 166 187 124 Q231 82 290.5 60 Q350 38 418 38 Q464 38 504.5 46.5 Q545 55 578 69 Z " />
<glyph glyph-name="D" unicode="D" horiz-adv-x="667" d="M81 702 Q81 710 89 710 L211 710 Q304 710 380 684 Q456 658 510.5 611 Q565 564 595 498.5 Q625 433 625 353 Q625 274 595.5 209 Q566 144 511.5 97.5 Q457 51 380.5 25.5 Q304 0 211 0 L89 0 Q81 0 81 8 L81 702 Z M131 665 L131 45 L213 45 Q295 45 361.5 67 Q428 89 475 129 Q522 169 547.5 226 Q573 283 573 352 Q573 423 547.5 481 Q522 539 475 580 Q428 621 361.5 643 Q295 665 213 665 L131 665 Z " />
<glyph glyph-name="Eth" unicode="&#xd0;" horiz-adv-x="646" d="M211 710 Q304 710 380 684 Q456 658 510.5 611 Q565 564 595 498.5 Q625 433 625 353 Q625 274 595.5 209 Q566 144 511.5 97.5 Q457 51 380.5 25.5 Q304 0 211 0 L89 0 Q81 0 81 8 L81 349 L23 349 Q15 349 15 357 L15 383 Q15 391 23 391 L81 391 L81 702 Q81 710 89 710 L211 710 Z M213 45 Q295 45 361.5 67 Q428 89 475 129 Q522 169 547.5 226 Q573 283 573 352 Q573 423 547.5 481 Q522 539 475 580 Q428 621 361.5 643 Q295 665 213 665 L131 665 L131 389 L349 389 Q357 389 357 381 L357 359 Q357 351 349 351 L131 351 L131 45 L213 45 Z " />
<glyph glyph-name="E" unicode="E" horiz-adv-x="494" d="M131 664 L131 394 L402 394 Q410 394 410 386 L410 357 Q410 349 402 349 L131 349 L131 46 L432 46 Q440 46 440 38 L440 8 Q440 0 432 0 L89 0 Q81 0 81 8 L81 702 Q81 710 89 710 L432 710 Q440 710 440 702 L440 672 Q440 664 432 664 L131 664 Z " />
<glyph glyph-name="Eacute" unicode="&#xc9;" horiz-adv-x="493" d="M131 664 L131 394 L402 394 Q410 394 410 386 L410 357 Q410 349 402 349 L131 349 L131 46 L432 46 Q440 46 440 38 L440 8 Q440 0 432 0 L89 0 Q81 0 81 8 L81 702 Q81 710 89 710 L432 710 Q440 710 440 702 L440 672 Q440 664 432 664 L131 664 Z M240 763 Q232 763 236 770 L297 889 Q302 896 309 896 L366 896 Q376 896 370 889 L271 769 Q266 763 258 763 L240 763 L240 763 Z " />
<glyph glyph-name="Ecircumflex" unicode="&#xca;" horiz-adv-x="493" d="M131 664 L131 394 L402 394 Q410 394 410 386 L410 357 Q410 349 402 349 L131 349 L131 46 L432 46 Q440 46 440 38 L440 8 Q440 0 432 0 L89 0 Q81 0 81 8 L81 702 Q81 710 89 710 L432 710 Q440 710 440 702 L440 672 Q440 664 432 664 L131 664 Z M390 762 Q396 756 388 756 L360 756 Q353 756 348 761 L258 856 L167 761 Q162 756 155 756 L127 756 Q120 756 125 762 L233 890 Q236 892 238 893.5 Q240 895 245 895 L270 895 Q277 895 282 890 L390 762 L390 762 Z " />
<glyph glyph-name="Edieresis" unicode="&#xcb;" horiz-adv-x="493" d="M131 664 L131 394 L402 394 Q410 394 410 386 L410 357 Q410 349 402 349 L131 349 L131 46 L432 46 Q440 46 440 38 L440 8 Q440 0 432 0 L89 0 Q81 0 81 8 L81 702 Q81 710 89 710 L432 710 Q440 710 440 702 L440 672 Q440 664 432 664 L131 664 Z M182 779 Q160 779 147.5 794 Q135 809 135 829 Q135 849 147.5 863 Q160 877 182 877 Q203 877 215.5 863 Q228 849 228 829 Q228 809 215.5 794 Q203 779 182 779 Z M340 779 Q318 779 305.5 794 Q293 809 293 829 Q293 849 305.5 863 Q318 877 340 877 Q361 877 373.5 863 Q386 849 386 829 Q386 809 373.5 794 Q361 779 340 779 Z " />
<glyph glyph-name="Egrave" unicode="&#xc8;" horiz-adv-x="493" d="M131 664 L131 394 L402 394 Q410 394 410 386 L410 357 Q410 349 402 349 L131 349 L131 46 L432 46 Q440 46 440 38 L440 8 Q440 0 432 0 L89 0 Q81 0 81 8 L81 702 Q81 710 89 710 L432 710 Q440 710 440 702 L440 672 Q440 664 432 664 L131 664 Z M265 772 Q270 765 261 765 L243 765 Q236 765 230 771 L131 890 Q127 897 135 897 L191 897 Q199 897 203 890 L265 772 L265 772 Z " />
<glyph glyph-name="F" unicode="F" horiz-adv-x="468" d="M421 710 Q429 710 429 702 L429 673 Q429 665 421 665 L131 665 L131 370 L401 370 Q409 370 409 362 L409 333 Q409 325 401 325 L131 325 L131 8 Q131 0 123 0 L89 0 Q81 0 81 8 L81 702 Q81 710 89 710 L421 710 L421 710 Z " />
<glyph glyph-name="G" unicode="G" horiz-adv-x="752" d="M405 -11 Q330 -11 263.5 15.5 Q197 42 147.5 90.5 Q98 139 69.5 206.5 Q41 274 41 355 Q41 437 70.5 504 Q100 571 151.5 619 Q203 667 272 693.5 Q341 720 420 720 Q447 720 477.5 716.5 Q508 713 538 706 Q568 699 596.5 688.5 Q625 678 649 663 Q656 659 656 651 L656 622 Q656 611 650 611 Q647 611 641 614 Q595 643 535 657.5 Q475 672 422 672 Q354 672 294 649.5 Q234 627 189.5 585.5 Q145 544 119 485 Q93 426 93 354 Q93 282 118 224 Q143 166 185.5 124.5 Q228 83 284.5 60.5 Q341 38 404 38 Q460 38 509.5 56 Q559 74 595.5 107.5 Q632 141 653.5 189.5 Q675 238 675 299 L441 299 Q433 299 433 307 L433 337 Q433 345 441 345 L713 345 Q721 345 722 337 L722 320 Q722 239 697.5 177.5 Q673 116 630 74 Q587 32 529 10.5 Q471 -11 405 -11 Z " />
<glyph glyph-name="H" unicode="H" horiz-adv-x="661" d="M573 710 Q581 710 581 702 L581 8 Q581 0 573 0 L538 0 Q530 0 530 8 L530 348 L131 348 L131 8 Q131 0 123 0 L89 0 Q81 0 81 8 L81 702 Q81 710 89 710 L123 710 Q131 710 131 702 L131 392 L530 392 L530 702 Q530 710 538 710 L573 710 L573 710 Z " />
<glyph glyph-name="I" unicode="I" horiz-adv-x="239" d="M101 0 Q93 0 93 8 L93 702 Q93 710 101 710 L137 710 Q145 710 145 702 L145 8 Q145 0 137 0 L101 0 L101 0 Z " />
<glyph glyph-name="Iacute" unicode="&#xcd;" horiz-adv-x="239" d="M101 0 Q93 0 93 8 L93 702 Q93 710 101 710 L137 710 Q145 710 145 702 L145 8 Q145 0 137 0 L101 0 L101 0 Z M101 763 Q93 763 97 770 L158 889 Q163 896 170 896 L227 896 Q237 896 231 889 L132 769 Q127 763 119 763 L101 763 L101 763 Z " />
<glyph glyph-name="Icircumflex" unicode="&#xce;" horiz-adv-x="239" d="M101 0 Q93 0 93 8 L93 702 Q93 710 101 710 L137 710 Q145 710 145 702 L145 8 Q145 0 137 0 L101 0 L101 0 Z M251 762 Q257 756 249 756 L221 756 Q214 756 209 761 L119 856 L28 761 Q23 756 16 756 L-12 756 Q-19 756 -14 762 L94 890 Q97 892 99 893.5 Q101 895 106 895 L131 895 Q138 895 143 890 L251 762 L251 762 Z " />
<glyph glyph-name="Idieresis" unicode="&#xcf;" horiz-adv-x="239" d="M101 0 Q93 0 93 8 L93 702 Q93 710 101 710 L137 710 Q145 710 145 702 L145 8 Q145 0 137 0 L101 0 L101 0 Z M43 779 Q21 779 8.5 794 Q-4 809 -4 829 Q-4 849 8.5 863 Q21 877 43 877 Q64 877 76.5 863 Q89 849 89 829 Q89 809 76.5 794 Q64 779 43 779 Z M201 779 Q179 779 166.5 794 Q154 809 154 829 Q154 849 166.5 863 Q179 877 201 877 Q222 877 234.5 863 Q247 849 247 829 Q247 809 234.5 794 Q222 779 201 779 Z " />
<glyph glyph-name="Igrave" unicode="&#xcc;" horiz-adv-x="239" d="M101 0 Q93 0 93 8 L93 702 Q93 710 101 710 L137 710 Q145 710 145 702 L145 8 Q145 0 137 0 L101 0 L101 0 Z M126 772 Q131 765 122 765 L104 765 Q97 765 91 771 L-8 890 Q-12 897 -4 897 L52 897 Q60 897 64 890 L126 772 L126 772 Z " />
<glyph glyph-name="J" unicode="J" horiz-adv-x="373" d="M135 -10 Q97 -10 69.5 -3 Q42 4 22 15 Q15 20 15 27 L15 66 Q15 71 18 71 Q20 71 28 66 Q47 55 75 47.5 Q103 40 132 40 Q156 40 176.5 48 Q197 56 212.5 71.5 Q228 87 237 111 Q246 135 246 168 L246 702 Q246 710 253 710 L290 710 Q297 710 297 702 L297 169 Q297 81 252 35.5 Q207 -10 135 -10 Z " />
<glyph glyph-name="K" unicode="K" horiz-adv-x="535" d="M516 12 Q521 7 521 4 Q521 0 511 0 L467 0 Q459 0 454 6 L132 361 L132 8 Q132 0 124 0 L88 0 Q80 0 80 8 L80 702 Q80 710 88 710 L124 710 Q132 710 132 702 L132 372 L446 704 Q450 710 459 710 L502 710 Q512 710 512 706 Q512 704 507 699 L186 367 L516 12 L516 12 Z " />
<glyph glyph-name="L" unicode="L" horiz-adv-x="463" d="M428 48 Q436 48 436 40 L436 8 Q436 0 428 0 L89 0 Q81 0 81 8 L81 702 Q81 710 89 710 L124 710 Q132 710 132 702 L132 48 L428 48 L428 48 Z " />
<glyph glyph-name="Lslash" unicode="&#x141;" horiz-adv-x="463" d="M428 48 Q436 48 436 40 L436 8 Q436 0 428 0 L89 0 Q81 0 81 8 L81 351 L34 332 Q27 328 27 337 L27 355 Q27 363 34 366 L81 385 L81 702 Q81 710 89 710 L124 710 Q132 710 132 702 L132 405 L201 432 Q208 435 208 427 L208 409 Q208 401 201 398 L132 371 L132 48 L428 48 L428 48 Z " />
<glyph glyph-name="M" unicode="M" horiz-adv-x="857" d="M821 8 Q821 0 814 0 L776 0 Q768 0 767 8 L661 635 L454 31 Q451 23 443 23 L414 23 Q406 23 403 31 L195 632 L86 8 Q86 0 77 0 L35 0 Q34 0 34 1 L160 704 Q160 712 169 712 L208 712 Q216 712 219 704 L430 98 L639 704 Q642 712 650 712 L686 712 Q694 712 695 704 L821 8 Z " />
<glyph glyph-name="N" unicode="N" horiz-adv-x="716" d="M627 710 Q635 710 635 702 L635 8 Q635 0 627 0 L601 0 Q594 0 588 6 L129 619 L129 8 Q129 0 121 0 L89 0 Q81 0 81 8 L81 702 Q81 710 89 710 L115 710 Q122 710 128 704 L587 89 L587 702 Q587 710 595 710 L627 710 L627 710 Z " />
<glyph glyph-name="Ntilde" unicode="&#xd1;" horiz-adv-x="716" d="M627 710 Q635 710 635 702 L635 8 Q635 0 627 0 L601 0 Q594 0 588 6 L129 619 L129 8 Q129 0 121 0 L89 0 Q81 0 81 8 L81 702 Q81 710 89 710 L115 710 Q122 710 128 704 L587 89 L587 702 Q587 710 595 710 L627 710 L627 710 Z M298 844 Q275 844 262.5 825.5 Q250 807 248 778 Q248 772 242 772 L223 772 Q217 772 217 778 Q219 823 239.5 854 Q260 885 297 885 Q323 885 338.5 872 Q354 859 367 845 Q378 834 390 824 Q402 814 419 814 Q440 814 451.5 831 Q463 848 465 875 Q465 881 471 881 L491 881 Q497 881 497 875 Q495 831 475 801.5 Q455 772 421 772 Q395 772 379 784.5 Q363 797 350 811 Q339 823 328 833.5 Q317 844 298 844 Z " />
<glyph glyph-name="O" unicode="O" horiz-adv-x="819" d="M409 -10 Q334 -10 267 17.5 Q200 45 149.5 93 Q99 141 70 207.5 Q41 274 41 352 Q41 431 70.5 498.5 Q100 566 150.5 615.5 Q201 665 267.5 692.5 Q334 720 409 720 Q484 720 550.5 692.5 Q617 665 667.5 615.5 Q718 566 747.5 498.5 Q777 431 777 352 Q777 274 748 207.5 Q719 141 669 93 Q619 45 552 17.5 Q485 -10 409 -10 Z M409 38 Q475 38 533 62 Q591 86 634.5 128 Q678 170 703.5 227.5 Q729 285 729 352 Q729 421 703.5 479.5 Q678 538 634.5 580.5 Q591 623 533 647.5 Q475 672 409 672 Q343 672 285 647.5 Q227 623 183.5 580.5 Q140 538 115 479.5 Q90 421 90 352 Q90 285 115 227.5 Q140 170 183.5 128 Q227 86 285 62 Q343 38 409 38 Z " />
<glyph glyph-name="Oacute" unicode="&#xd3;" horiz-adv-x="825" d="M409 -10 Q334 -10 267 17.5 Q200 45 149.5 93 Q99 141 70 207.5 Q41 274 41 352 Q41 431 70.5 498.5 Q100 566 150.5 615.5 Q201 665 267.5 692.5 Q334 720 409 720 Q484 720 550.5 692.5 Q617 665 667.5 615.5 Q718 566 747.5 498.5 Q777 431 777 352 Q777 274 748 207.5 Q719 141 669 93 Q619 45 552 17.5 Q485 -10 409 -10 Z M409 38 Q475 38 533 62 Q591 86 634.5 128 Q678 170 703.5 227.5 Q729 285 729 352 Q729 421 703.5 479.5 Q678 538 634.5 580.5 Q591 623 533 647.5 Q475 672 409 672 Q343 672 285 647.5 Q227 623 183.5 580.5 Q140 538 115 479.5 Q90 421 90 352 Q90 285 115 227.5 Q140 170 183.5 128 Q227 86 285 62 Q343 38 409 38 Z M391 763 Q383 763 387 770 L448 889 Q453 896 460 896 L517 896 Q527 896 521 889 L422 769 Q417 763 409 763 L391 763 L391 763 Z " />
<glyph glyph-name="Ocircumflex" unicode="&#xd4;" horiz-adv-x="825" d="M409 -10 Q334 -10 267 17.5 Q200 45 149.5 93 Q99 141 70 207.5 Q41 274 41 352 Q41 431 70.5 498.5 Q100 566 150.5 615.5 Q201 665 267.5 692.5 Q334 720 409 720 Q484 720 550.5 692.5 Q617 665 667.5 615.5 Q718 566 747.5 498.5 Q777 431 777 352 Q777 274 748 207.5 Q719 141 669 93 Q619 45 552 17.5 Q485 -10 409 -10 Z M409 38 Q475 38 533 62 Q591 86 634.5 128 Q678 170 703.5 227.5 Q729 285 729 352 Q729 421 703.5 479.5 Q678 538 634.5 580.5 Q591 623 533 647.5 Q475 672 409 672 Q343 672 285 647.5 Q227 623 183.5 580.5 Q140 538 115 479.5 Q90 421 90 352 Q90 285 115 227.5 Q140 170 183.5 128 Q227 86 285 62 Q343 38 409 38 Z M541 762 Q547 756 539 756 L511 756 Q504 756 499 761 L409 856 L318 761 Q313 756 306 756 L278 756 Q271 756 276 762 L384 890 Q387 892 389 893.5 Q391 895 396 895 L421 895 Q428 895 433 890 L541 762 L541 762 Z " />
<glyph glyph-name="Odieresis" unicode="&#xd6;" horiz-adv-x="825" d="M409 -10 Q334 -10 267 17.5 Q200 45 149.5 93 Q99 141 70 207.5 Q41 274 41 352 Q41 431 70.5 498.5 Q100 566 150.5 615.5 Q201 665 267.5 692.5 Q334 720 409 720 Q484 720 550.5 692.5 Q617 665 667.5 615.5 Q718 566 747.5 498.5 Q777 431 777 352 Q777 274 748 207.5 Q719 141 669 93 Q619 45 552 17.5 Q485 -10 409 -10 Z M409 38 Q475 38 533 62 Q591 86 634.5 128 Q678 170 703.5 227.5 Q729 285 729 352 Q729 421 703.5 479.5 Q678 538 634.5 580.5 Q591 623 533 647.5 Q475 672 409 672 Q343 672 285 647.5 Q227 623 183.5 580.5 Q140 538 115 479.5 Q90 421 90 352 Q90 285 115 227.5 Q140 170 183.5 128 Q227 86 285 62 Q343 38 409 38 Z M333 779 Q311 779 298.5 794 Q286 809 286 829 Q286 849 298.5 863 Q311 877 333 877 Q354 877 366.5 863 Q379 849 379 829 Q379 809 366.5 794 Q354 779 333 779 Z M491 779 Q469 779 456.5 794 Q444 809 444 829 Q444 849 456.5 863 Q469 877 491 877 Q512 877 524.5 863 Q537 849 537 829 Q537 809 524.5 794 Q512 779 491 779 Z " />
<glyph glyph-name="Ograve" unicode="&#xd2;" horiz-adv-x="825" d="M409 -10 Q334 -10 267 17.5 Q200 45 149.5 93 Q99 141 70 207.5 Q41 274 41 352 Q41 431 70.5 498.5 Q100 566 150.5 615.5 Q201 665 267.5 692.5 Q334 720 409 720 Q484 720 550.5 692.5 Q617 665 667.5 615.5 Q718 566 747.5 498.5 Q777 431 777 352 Q777 274 748 207.5 Q719 141 669 93 Q619 45 552 17.5 Q485 -10 409 -10 Z M409 38 Q475 38 533 62 Q591 86 634.5 128 Q678 170 703.5 227.5 Q729 285 729 352 Q729 421 703.5 479.5 Q678 538 634.5 580.5 Q591 623 533 647.5 Q475 672 409 672 Q343 672 285 647.5 Q227 623 183.5 580.5 Q140 538 115 479.5 Q90 421 90 352 Q90 285 115 227.5 Q140 170 183.5 128 Q227 86 285 62 Q343 38 409 38 Z M416 772 Q421 765 412 765 L394 765 Q387 765 381 771 L282 890 Q278 897 286 897 L342 897 Q350 897 354 890 L416 772 L416 772 Z " />
<glyph glyph-name="Oslash" unicode="&#xd8;" horiz-adv-x="825" d="M598 668 Q638 645 671 612 Q704 579 727.5 538.5 Q751 498 764 451 Q777 404 777 352 Q777 274 748 207.5 Q719 141 669 93 Q619 45 552 17.5 Q485 -10 409 -10 Q319 -10 243 28 L212 -28 Q207 -35 200 -35 L185 -35 Q177 -35 181 -28 L219 41 Q139 87 90 168 Q41 249 41 352 Q41 431 70.5 498.5 Q100 566 150.5 615.5 Q201 665 267.5 692.5 Q334 720 409 720 Q454 720 495.5 710 Q537 700 575 681 L605 736 Q610 743 617 743 L632 743 Q640 743 636 736 L598 668 Z M90 352 Q90 264 132 194 Q174 124 243 83 L551 640 Q519 655 483 663.5 Q447 672 409 672 Q343 672 285 647.5 Q227 623 183.5 580.5 Q140 538 115 479.5 Q90 421 90 352 Z M409 38 Q475 38 533 62 Q591 86 634.5 128 Q678 170 703.5 227.5 Q729 285 729 352 Q729 443 686.5 514 Q644 585 575 627 L266 70 Q332 38 409 38 Z " />
<glyph glyph-name="Otilde" unicode="&#xd5;" horiz-adv-x="825" d="M409 -10 Q334 -10 267 17.5 Q200 45 149.5 93 Q99 141 70 207.5 Q41 274 41 352 Q41 431 70.5 498.5 Q100 566 150.5 615.5 Q201 665 267.5 692.5 Q334 720 409 720 Q484 720 550.5 692.5 Q617 665 667.5 615.5 Q718 566 747.5 498.5 Q777 431 777 352 Q777 274 748 207.5 Q719 141 669 93 Q619 45 552 17.5 Q485 -10 409 -10 Z M409 38 Q475 38 533 62 Q591 86 634.5 128 Q678 170 703.5 227.5 Q729 285 729 352 Q729 421 703.5 479.5 Q678 538 634.5 580.5 Q591 623 533 647.5 Q475 672 409 672 Q343 672 285 647.5 Q227 623 183.5 580.5 Q140 538 115 479.5 Q90 421 90 352 Q90 285 115 227.5 Q140 170 183.5 128 Q227 86 285 62 Q343 38 409 38 Z M349 844 Q326 844 313.5 825.5 Q301 807 299 778 Q299 772 293 772 L274 772 Q268 772 268 778 Q270 823 290.5 854 Q311 885 348 885 Q374 885 389.5 872 Q405 859 418 845 Q429 834 441 824 Q453 814 470 814 Q491 814 502.5 831 Q514 848 516 875 Q516 881 522 881 L542 881 Q548 881 548 875 Q546 831 526 801.5 Q506 772 472 772 Q446 772 430 784.5 Q414 797 401 811 Q390 823 379 833.5 Q368 844 349 844 Z " />
<glyph glyph-name="OE" unicode="&#x152;" horiz-adv-x="837" d="M491 666 L491 394 L746 394 Q754 394 754 386 L754 357 Q754 349 746 349 L491 349 L491 44 L776 44 Q784 44 784 36 L784 8 Q784 0 776 0 L442 0 Q352 0 278 26.5 Q204 53 151.5 100.5 Q99 148 70.5 214 Q42 280 42 360 Q42 439 71 503.5 Q100 568 153 614 Q206 660 279.5 685 Q353 710 442 710 L776 710 Q784 710 784 702 L784 674 Q784 666 776 666 L491 666 Z M440 665 Q361 665 297 642.5 Q233 620 188 580 Q143 540 119 484 Q95 428 95 360 Q95 290 119 232.5 Q143 175 188 133.5 Q233 92 297 69 Q361 46 440 46 L440 665 Z " />
<glyph glyph-name="P" unicode="P" horiz-adv-x="502" d="M233 710 Q288 710 332 695.5 Q376 681 407 654 Q438 627 455 589 Q472 551 472 505 Q472 459 455.5 421 Q439 383 407.5 356 Q376 329 331.5 314 Q287 299 232 299 L132 299 L132 8 Q132 0 124 0 L89 0 Q81 0 81 8 L81 702 Q81 710 89 710 L233 710 Z M232 343 Q322 343 371 387 Q420 431 420 505 Q420 578 371 622 Q322 666 232 666 L132 666 L132 343 L232 343 Z " />
<glyph glyph-name="Thorn" unicode="&#xde;" horiz-adv-x="502" d="M233 567 Q287 567 331.5 552 Q376 537 407 510 Q438 483 455 445 Q472 407 472 361 Q472 315 455 277 Q438 239 406.5 212 Q375 185 331 170.5 Q287 156 232 156 L132 156 L132 8 Q132 0 124 0 L89 0 Q81 0 81 8 L81 702 Q81 710 89 710 L124 710 Q132 710 132 702 L132 567 L233 567 Z M232 199 Q321 199 370.5 243.5 Q420 288 420 361 Q420 435 370.5 479 Q321 523 232 523 L132 523 L132 199 L232 199 Z " />
<glyph glyph-name="Q" unicode="Q" horiz-adv-x="825" d="M785 -53 Q790 -59 784 -64 L762 -85 Q756 -90 751 -84 L624 57 Q579 25 524 7.5 Q469 -10 409 -10 Q334 -10 267 17.5 Q200 45 149.5 93 Q99 141 70 207.5 Q41 274 41 352 Q41 431 70.5 498.5 Q100 566 150.5 615.5 Q201 665 267.5 692.5 Q334 720 409 720 Q484 720 550.5 692.5 Q617 665 667.5 615.5 Q718 566 747.5 498.5 Q777 431 777 352 Q777 270 745.5 201.5 Q714 133 660 84 L785 -53 Z M90 352 Q90 285 115 227.5 Q140 170 183.5 128 Q227 86 285 62 Q343 38 409 38 Q475 38 533 62 Q591 86 634.5 128 Q678 170 703.5 227.5 Q729 285 729 352 Q729 421 703.5 479.5 Q678 538 634.5 580.5 Q591 623 533 647.5 Q475 672 409 672 Q343 672 285 647.5 Q227 623 183.5 580.5 Q140 538 115 479.5 Q90 421 90 352 Z " />
<glyph glyph-name="R" unicode="R" horiz-adv-x="538" d="M500 12 Q504 6 504 5 Q504 0 494 0 L452 0 Q445 0 439 6 L195 335 L131 335 L131 8 Q131 0 123 0 L89 0 Q81 0 81 8 L81 702 Q81 710 89 710 L229 710 Q282 710 325 697 Q368 684 398 660 Q428 636 444.5 601.5 Q461 567 461 525 Q461 485 446 452 Q431 419 403.5 394 Q376 369 337 354.5 Q298 340 250 338 L500 12 Z M131 376 L228 376 Q314 376 362.5 416 Q411 456 411 523 Q411 589 362.5 628.5 Q314 668 228 668 L131 668 L131 376 Z " />
<glyph glyph-name="S" unicode="S" horiz-adv-x="500" d="M229 -11 Q178 -11 127.5 2 Q77 15 42 35 Q37 37 37 45 L37 82 Q37 87 39 87 Q41 87 43 86 Q81 62 129 49 Q177 36 226 36 Q266 36 299.5 46 Q333 56 357.5 74.5 Q382 93 395.5 120 Q409 147 409 181 Q409 212 396 236.5 Q383 261 360.5 281 Q338 301 307.5 317 Q277 333 242 348 Q206 364 172 382 Q138 400 111 423.5 Q84 447 67.5 478 Q51 509 51 550 Q51 587 66 618 Q81 649 108 671.5 Q135 694 172.5 707 Q210 720 255 720 Q299 720 338 711.5 Q377 703 409 689 Q416 685 416 678 L416 644 Q416 638 413 638 Q411 638 409 639 Q379 656 339.5 665 Q300 674 258 674 Q225 674 197 665 Q169 656 148 640 Q127 624 115 601.5 Q103 579 103 552 Q103 519 117 495.5 Q131 472 154 453.5 Q177 435 206.5 420 Q236 405 268 391 Q309 373 344 353.5 Q379 334 405 309 Q431 284 445.5 253.5 Q460 223 460 183 Q460 140 443 104 Q426 68 395 42.5 Q364 17 322 3 Q280 -11 229 -11 Z " />
<glyph glyph-name="Scaron" unicode="&#x160;" horiz-adv-x="500" d="M229 -11 Q178 -11 127.5 2 Q77 15 42 35 Q37 37 37 45 L37 82 Q37 87 39 87 Q41 87 43 86 Q81 62 129 49 Q177 36 226 36 Q266 36 299.5 46 Q333 56 357.5 74.5 Q382 93 395.5 120 Q409 147 409 181 Q409 212 396 236.5 Q383 261 360.5 281 Q338 301 307.5 317 Q277 333 242 348 Q206 364 172 382 Q138 400 111 423.5 Q84 447 67.5 478 Q51 509 51 550 Q51 587 66 618 Q81 649 108 671.5 Q135 694 172.5 707 Q210 720 255 720 Q299 720 338 711.5 Q377 703 409 689 Q416 685 416 678 L416 644 Q416 638 413 638 Q411 638 409 639 Q379 656 339.5 665 Q300 674 258 674 Q225 674 197 665 Q169 656 148 640 Q127 624 115 601.5 Q103 579 103 552 Q103 519 117 495.5 Q131 472 154 453.5 Q177 435 206.5 420 Q236 405 268 391 Q309 373 344 353.5 Q379 334 405 309 Q431 284 445.5 253.5 Q460 223 460 183 Q460 140 443 104 Q426 68 395 42.5 Q364 17 322 3 Q280 -11 229 -11 Z M379 895 Q388 895 382 889 L271 762 Q266 756 258 756 L243 756 Q236 756 230 762 L119 889 Q114 895 122 895 L147 895 Q155 895 161 889 L251 796 L341 889 Q347 895 355 895 L379 895 L379 895 Z " />
<glyph glyph-name="T" unicode="T" horiz-adv-x="508" d="M482 710 Q490 710 490 702 L490 671 Q490 663 482 663 L279 663 L279 8 Q279 0 271 0 L237 0 Q229 0 229 8 L229 663 L26 663 Q18 663 18 671 L18 702 Q18 710 26 710 L482 710 L482 710 Z " />
<glyph glyph-name="U" unicode="U" horiz-adv-x="649" d="M323 -11 Q270 -11 225.5 5.5 Q181 22 148.5 55.5 Q116 89 97.5 141.5 Q79 194 79 266 L79 702 Q79 710 87 710 L122 710 Q130 710 130 702 L130 263 Q130 203 144.5 160 Q159 117 185 89.5 Q211 62 247 49.5 Q283 37 325 37 Q367 37 402.5 49.5 Q438 62 464.5 89.5 Q491 117 505.5 160 Q520 203 520 263 L520 702 Q520 710 528 710 L562 710 Q570 710 570 702 L570 266 Q570 194 551.5 141.5 Q533 89 500 55.5 Q467 22 421.5 5.5 Q376 -11 323 -11 Z " />
<glyph glyph-name="Uacute" unicode="&#xda;" horiz-adv-x="649" d="M323 -11 Q270 -11 225.5 5.5 Q181 22 148.5 55.5 Q116 89 97.5 141.5 Q79 194 79 266 L79 702 Q79 710 87 710 L122 710 Q130 710 130 702 L130 263 Q130 203 144.5 160 Q159 117 185 89.5 Q211 62 247 49.5 Q283 37 325 37 Q367 37 402.5 49.5 Q438 62 464.5 89.5 Q491 117 505.5 160 Q520 203 520 263 L520 702 Q520 710 528 710 L562 710 Q570 710 570 702 L570 266 Q570 194 551.5 141.5 Q533 89 500 55.5 Q467 22 421.5 5.5 Q376 -11 323 -11 Z M306 763 Q298 763 302 770 L363 889 Q368 896 375 896 L432 896 Q442 896 436 889 L337 769 Q332 763 324 763 L306 763 L306 763 Z " />
<glyph glyph-name="Ucircumflex" unicode="&#xdb;" horiz-adv-x="649" d="M323 -11 Q270 -11 225.5 5.5 Q181 22 148.5 55.5 Q116 89 97.5 141.5 Q79 194 79 266 L79 702 Q79 710 87 710 L122 710 Q130 710 130 702 L130 263 Q130 203 144.5 160 Q159 117 185 89.5 Q211 62 247 49.5 Q283 37 325 37 Q367 37 402.5 49.5 Q438 62 464.5 89.5 Q491 117 505.5 160 Q520 203 520 263 L520 702 Q520 710 528 710 L562 710 Q570 710 570 702 L570 266 Q570 194 551.5 141.5 Q533 89 500 55.5 Q467 22 421.5 5.5 Q376 -11 323 -11 Z M456 762 Q462 756 454 756 L426 756 Q419 756 414 761 L324 856 L233 761 Q228 756 221 756 L193 756 Q186 756 191 762 L299 890 Q302 892 304 893.5 Q306 895 311 895 L336 895 Q343 895 348 890 L456 762 L456 762 Z " />
<glyph glyph-name="Udieresis" unicode="&#xdc;" horiz-adv-x="649" d="M323 -11 Q270 -11 225.5 5.5 Q181 22 148.5 55.5 Q116 89 97.5 141.5 Q79 194 79 266 L79 702 Q79 710 87 710 L122 710 Q130 710 130 702 L130 263 Q130 203 144.5 160 Q159 117 185 89.5 Q211 62 247 49.5 Q283 37 325 37 Q367 37 402.5 49.5 Q438 62 464.5 89.5 Q491 117 505.5 160 Q520 203 520 263 L520 702 Q520 710 528 710 L562 710 Q570 710 570 702 L570 266 Q570 194 551.5 141.5 Q533 89 500 55.5 Q467 22 421.5 5.5 Q376 -11 323 -11 Z M248 779 Q226 779 213.5 794 Q201 809 201 829 Q201 849 213.5 863 Q226 877 248 877 Q269 877 281.5 863 Q294 849 294 829 Q294 809 281.5 794 Q269 779 248 779 Z M406 779 Q384 779 371.5 794 Q359 809 359 829 Q359 849 371.5 863 Q384 877 406 877 Q427 877 439.5 863 Q452 849 452 829 Q452 809 439.5 794 Q427 779 406 779 Z " />
<glyph glyph-name="Ugrave" unicode="&#xd9;" horiz-adv-x="649" d="M323 -11 Q270 -11 225.5 5.5 Q181 22 148.5 55.5 Q116 89 97.5 141.5 Q79 194 79 266 L79 702 Q79 710 87 710 L122 710 Q130 710 130 702 L130 263 Q130 203 144.5 160 Q159 117 185 89.5 Q211 62 247 49.5 Q283 37 325 37 Q367 37 402.5 49.5 Q438 62 464.5 89.5 Q491 117 505.5 160 Q520 203 520 263 L520 702 Q520 710 528 710 L562 710 Q570 710 570 702 L570 266 Q570 194 551.5 141.5 Q533 89 500 55.5 Q467 22 421.5 5.5 Q376 -11 323 -11 Z M331 772 Q336 765 327 765 L309 765 Q302 765 296 771 L197 890 Q193 897 201 897 L257 897 Q265 897 269 890 L331 772 L331 772 Z " />
<glyph glyph-name="V" unicode="V" horiz-adv-x="646" d="M623 710 Q631 710 628 702 L340 -1 Q336 -8 329 -8 L310 -8 Q308 -8 307 -6 L16 708 Q14 710 18 710 L63 710 Q71 710 74 703 L324 72 L574 703 Q577 710 585 710 L623 710 L623 710 Z " />
<glyph glyph-name="W" unicode="W" horiz-adv-x="944" d="M919 710 Q926 710 925 702 L714 6 Q712 -2 704 -2 L673 -2 Q664 -2 663 6 L472 628 L280 6 Q278 -2 270 -2 L240 -2 Q231 -2 230 6 L17 702 L17 705 Q17 710 23 710 L61 710 Q70 710 71 702 L257 70 L449 702 Q451 710 459 710 L488 710 Q497 710 498 702 L689 70 L875 702 Q877 710 885 710 L919 710 L919 710 Z " />
<glyph glyph-name="X" unicode="X" horiz-adv-x="613" d="M598 6 Q602 0 595 0 L553 0 Q546 0 540 6 L305 325 L73 6 Q68 0 60 0 L18 0 Q9 0 15 6 L278 362 L25 704 Q20 710 28 710 L72 710 Q79 710 85 704 L309 400 L527 704 Q531 710 540 710 L584 710 Q593 710 587 704 L336 362 L598 6 L598 6 Z " />
<glyph glyph-name="Y" unicode="Y" horiz-adv-x="549" d="M256 0 Q248 0 248 8 L248 305 L14 696 Q11 700 11 704 Q11 710 22 710 L56 710 Q64 710 68 703 L276 349 L482 703 Q485 710 494 710 L526 710 Q537 710 537 704 Q537 702 534 696 L300 305 L300 8 Q300 0 292 0 L256 0 L256 0 Z " />
<glyph glyph-name="Yacute" unicode="&#xdd;" horiz-adv-x="549" d="M256 0 Q248 0 248 8 L248 305 L14 696 Q11 700 11 704 Q11 710 22 710 L56 710 Q64 710 68 703 L276 349 L482 703 Q485 710 494 710 L526 710 Q537 710 537 704 Q537 702 534 696 L300 305 L300 8 Q300 0 292 0 L256 0 L256 0 Z M257 763 Q249 763 253 770 L314 889 Q319 896 326 896 L383 896 Q393 896 387 889 L288 769 Q283 763 275 763 L257 763 L257 763 Z " />
<glyph glyph-name="Ydieresis" unicode="&#x178;" horiz-adv-x="549" d="M256 0 Q248 0 248 8 L248 305 L14 696 Q11 700 11 704 Q11 710 22 710 L56 710 Q64 710 68 703 L276 349 L482 703 Q485 710 494 710 L526 710 Q537 710 537 704 Q537 702 534 696 L300 305 L300 8 Q300 0 292 0 L256 0 L256 0 Z M199 779 Q177 779 164.5 794 Q152 809 152 829 Q152 849 164.5 863 Q177 877 199 877 Q220 877 232.5 863 Q245 849 245 829 Q245 809 232.5 794 Q220 779 199 779 Z M357 779 Q335 779 322.5 794 Q310 809 310 829 Q310 849 322.5 863 Q335 877 357 877 Q378 877 390.5 863 Q403 849 403 829 Q403 809 390.5 794 Q378 779 357 779 Z " />
<glyph glyph-name="Z" unicode="Z" horiz-adv-x="562" d="M508 44 Q516 44 516 36 L516 8 Q516 0 508 0 L46 0 Q38 0 38 8 L38 17 Q38 25 42 32 L444 666 L69 666 Q61 666 61 674 L61 702 Q61 710 69 710 L499 710 Q507 710 507 702 L507 693 Q507 685 503 678 L101 44 L508 44 Z " />
<glyph glyph-name="Zcaron" unicode="&#x17d;" horiz-adv-x="562" d="M508 44 Q516 44 516 36 L516 8 Q516 0 508 0 L46 0 Q38 0 38 8 L38 17 Q38 25 42 32 L444 666 L69 666 Q61 666 61 674 L61 702 Q61 710 69 710 L499 710 Q507 710 507 702 L507 693 Q507 685 503 678 L101 44 L508 44 Z M411 895 Q420 895 414 889 L303 762 Q298 756 290 756 L275 756 Q268 756 262 762 L151 889 Q146 895 154 895 L179 895 Q187 895 193 889 L283 796 L373 889 Q379 895 387 895 L411 895 L411 895 Z " />
<glyph glyph-name="a" unicode="a" horiz-adv-x="596" d="M512 480 Q520 480 520 472 L520 8 Q520 0 512 0 L478 0 Q470 0 470 8 L470 112 Q457 82 436.5 59 Q416 36 391 21 Q366 6 337.5 -2 Q309 -10 280 -10 Q238 -10 196.5 7 Q155 24 122 56 Q89 88 69 134.5 Q49 181 49 241 Q49 300 68 346.5 Q87 393 119.5 425 Q152 457 193.5 473.5 Q235 490 280 490 Q341 490 392.5 460.5 Q444 431 470 372 L470 472 Q470 480 478 480 L512 480 Z M287 37 Q323 37 356 50.5 Q389 64 414.5 90.5 Q440 117 455.5 154.5 Q471 192 471 240 Q471 288 456 325.5 Q441 363 416 389.5 Q391 416 357.5 429.5 Q324 443 287 443 Q249 443 215 429.5 Q181 416 155.5 389.5 Q130 363 115 325.5 Q100 288 100 240 Q100 192 116 154.5 Q132 117 158 90.5 Q184 64 217.5 50.5 Q251 37 287 37 Z " />
<glyph glyph-name="aacute" unicode="&#xe1;" horiz-adv-x="596" d="M512 480 Q520 480 520 472 L520 8 Q520 0 512 0 L478 0 Q470 0 470 8 L470 112 Q457 82 436.5 59 Q416 36 391 21 Q366 6 337.5 -2 Q309 -10 280 -10 Q238 -10 196.5 7 Q155 24 122 56 Q89 88 69 134.5 Q49 181 49 241 Q49 300 68 346.5 Q87 393 119.5 425 Q152 457 193.5 473.5 Q235 490 280 490 Q341 490 392.5 460.5 Q444 431 470 372 L470 472 Q470 480 478 480 L512 480 Z M287 37 Q323 37 356 50.5 Q389 64 414.5 90.5 Q440 117 455.5 154.5 Q471 192 471 240 Q471 288 456 325.5 Q441 363 416 389.5 Q391 416 357.5 429.5 Q324 443 287 443 Q249 443 215 429.5 Q181 416 155.5 389.5 Q130 363 115 325.5 Q100 288 100 240 Q100 192 116 154.5 Q132 117 158 90.5 Q184 64 217.5 50.5 Q251 37 287 37 Z M262 563 Q254 563 258 570 L369 760 Q372 767 381 764 L419 751 Q428 748 422 742 L297 569 Q292 563 284 563 L262 563 L262 563 Z " />
<glyph glyph-name="abreve" unicode="&#x103;" horiz-adv-x="596" d="M512 480 Q520 480 520 472 L520 8 Q520 0 512 0 L478 0 Q470 0 470 8 L470 112 Q457 82 436.5 59 Q416 36 391 21 Q366 6 337.5 -2 Q309 -10 280 -10 Q238 -10 196.5 7 Q155 24 122 56 Q89 88 69 134.5 Q49 181 49 241 Q49 300 68 346.5 Q87 393 119.5 425 Q152 457 193.5 473.5 Q235 490 280 490 Q341 490 392.5 460.5 Q444 431 470 372 L470 472 Q470 480 478 480 L512 480 Z M287 37 Q323 37 356 50.5 Q389 64 414.5 90.5 Q440 117 455.5 154.5 Q471 192 471 240 Q471 288 456 325.5 Q441 363 416 389.5 Q391 416 357.5 429.5 Q324 443 287 443 Q249 443 215 429.5 Q181 416 155.5 389.5 Q130 363 115 325.5 Q100 288 100 240 Q100 192 116 154.5 Q132 117 158 90.5 Q184 64 217.5 50.5 Q251 37 287 37 Z M306 599 Q281 599 259.5 608 Q238 617 221.5 632.5 Q205 648 195 669.5 Q185 691 184 717 Q184 724 191 724 L208 724 Q215 724 215 717 Q218 682 243 659 Q268 636 306 636 Q344 636 368.5 659 Q393 682 397 717 Q397 724 404 724 L420 724 Q427 724 427 717 Q425 691 415.5 669.5 Q406 648 390 632.5 Q374 617 352.5 608 Q331 599 306 599 Z " />
<glyph glyph-name="acircumflex" unicode="&#xe2;" horiz-adv-x="596" d="M512 480 Q520 480 520 472 L520 8 Q520 0 512 0 L478 0 Q470 0 470 8 L470 112 Q457 82 436.5 59 Q416 36 391 21 Q366 6 337.5 -2 Q309 -10 280 -10 Q238 -10 196.5 7 Q155 24 122 56 Q89 88 69 134.5 Q49 181 49 241 Q49 300 68 346.5 Q87 393 119.5 425 Q152 457 193.5 473.5 Q235 490 280 490 Q341 490 392.5 460.5 Q444 431 470 372 L470 472 Q470 480 478 480 L512 480 Z M287 37 Q323 37 356 50.5 Q389 64 414.5 90.5 Q440 117 455.5 154.5 Q471 192 471 240 Q471 288 456 325.5 Q441 363 416 389.5 Q391 416 357.5 429.5 Q324 443 287 443 Q249 443 215 429.5 Q181 416 155.5 389.5 Q130 363 115 325.5 Q100 288 100 240 Q100 192 116 154.5 Q132 117 158 90.5 Q184 64 217.5 50.5 Q251 37 287 37 Z M439 568 Q443 562 436 562 L408 562 Q401 562 397 568 L307 702 L216 568 Q214 565 212 563.5 Q210 562 205 562 L177 562 Q170 562 174 568 L284 743 Q288 749 295 749 L318 749 Q325 749 329 743 L439 568 L439 568 Z " />
<glyph glyph-name="adieresis" unicode="&#xe4;" horiz-adv-x="596" d="M512 480 Q520 480 520 472 L520 8 Q520 0 512 0 L478 0 Q470 0 470 8 L470 112 Q457 82 436.5 59 Q416 36 391 21 Q366 6 337.5 -2 Q309 -10 280 -10 Q238 -10 196.5 7 Q155 24 122 56 Q89 88 69 134.5 Q49 181 49 241 Q49 300 68 346.5 Q87 393 119.5 425 Q152 457 193.5 473.5 Q235 490 280 490 Q341 490 392.5 460.5 Q444 431 470 372 L470 472 Q470 480 478 480 L512 480 Z M287 37 Q323 37 356 50.5 Q389 64 414.5 90.5 Q440 117 455.5 154.5 Q471 192 471 240 Q471 288 456 325.5 Q441 363 416 389.5 Q391 416 357.5 429.5 Q324 443 287 443 Q249 443 215 429.5 Q181 416 155.5 389.5 Q130 363 115 325.5 Q100 288 100 240 Q100 192 116 154.5 Q132 117 158 90.5 Q184 64 217.5 50.5 Q251 37 287 37 Z M236 647 Q219 647 209.5 658 Q200 669 200 685 Q200 700 209.5 711 Q219 722 236 722 Q252 722 261.5 711 Q271 700 271 685 Q271 669 261.5 658 Q252 647 236 647 Z M376 647 Q359 647 349.5 658 Q340 669 340 685 Q340 700 349.5 711 Q359 722 376 722 Q392 722 401.5 711 Q411 700 411 685 Q411 669 401.5 658 Q392 647 376 647 Z " />
<glyph glyph-name="agrave" unicode="&#xe0;" horiz-adv-x="596" d="M512 480 Q520 480 520 472 L520 8 Q520 0 512 0 L478 0 Q470 0 470 8 L470 112 Q457 82 436.5 59 Q416 36 391 21 Q366 6 337.5 -2 Q309 -10 280 -10 Q238 -10 196.5 7 Q155 24 122 56 Q89 88 69 134.5 Q49 181 49 241 Q49 300 68 346.5 Q87 393 119.5 425 Q152 457 193.5 473.5 Q235 490 280 490 Q341 490 392.5 460.5 Q444 431 470 372 L470 472 Q470 480 478 480 L512 480 Z M287 37 Q323 37 356 50.5 Q389 64 414.5 90.5 Q440 117 455.5 154.5 Q471 192 471 240 Q471 288 456 325.5 Q441 363 416 389.5 Q391 416 357.5 429.5 Q324 443 287 443 Q249 443 215 429.5 Q181 416 155.5 389.5 Q130 363 115 325.5 Q100 288 100 240 Q100 192 116 154.5 Q132 117 158 90.5 Q184 64 217.5 50.5 Q251 37 287 37 Z M326 570 Q329 563 322 563 L300 563 Q293 563 287 569 L162 742 Q157 748 165 751 L203 764 Q205 765 207 765 Q212 765 215 760 L326 570 L326 570 Z " />
<glyph glyph-name="aring" unicode="&#xe5;" horiz-adv-x="596" d="M512 480 Q520 480 520 472 L520 8 Q520 0 512 0 L478 0 Q470 0 470 8 L470 112 Q457 82 436.5 59 Q416 36 391 21 Q366 6 337.5 -2 Q309 -10 280 -10 Q238 -10 196.5 7 Q155 24 122 56 Q89 88 69 134.5 Q49 181 49 241 Q49 300 68 346.5 Q87 393 119.5 425 Q152 457 193.5 473.5 Q235 490 280 490 Q341 490 392.5 460.5 Q444 431 470 372 L470 472 Q470 480 478 480 L512 480 Z M287 37 Q323 37 356 50.5 Q389 64 414.5 90.5 Q440 117 455.5 154.5 Q471 192 471 240 Q471 288 456 325.5 Q441 363 416 389.5 Q391 416 357.5 429.5 Q324 443 287 443 Q249 443 215 429.5 Q181 416 155.5 389.5 Q130 363 115 325.5 Q100 288 100 240 Q100 192 116 154.5 Q132 117 158 90.5 Q184 64 217.5 50.5 Q251 37 287 37 Z M306 575 Q270 575 245.5 599.5 Q221 624 221 662 Q221 699 246 722.5 Q271 746 306 746 Q341 746 365.5 722.5 Q390 699 390 662 Q390 624 365.5 599.5 Q341 575 306 575 Z M306 602 Q330 602 346 619 Q362 636 362 662 Q362 688 346 704.5 Q330 721 306 721 Q281 721 265.5 704.5 Q250 688 250 662 Q250 636 265.5 619 Q281 602 306 602 Z " />
<glyph glyph-name="atilde" unicode="&#xe3;" horiz-adv-x="596" d="M512 480 Q520 480 520 472 L520 8 Q520 0 512 0 L478 0 Q470 0 470 8 L470 112 Q457 82 436.5 59 Q416 36 391 21 Q366 6 337.5 -2 Q309 -10 280 -10 Q238 -10 196.5 7 Q155 24 122 56 Q89 88 69 134.5 Q49 181 49 241 Q49 300 68 346.5 Q87 393 119.5 425 Q152 457 193.5 473.5 Q235 490 280 490 Q341 490 392.5 460.5 Q444 431 470 372 L470 472 Q470 480 478 480 L512 480 Z M287 37 Q323 37 356 50.5 Q389 64 414.5 90.5 Q440 117 455.5 154.5 Q471 192 471 240 Q471 288 456 325.5 Q441 363 416 389.5 Q391 416 357.5 429.5 Q324 443 287 443 Q249 443 215 429.5 Q181 416 155.5 389.5 Q130 363 115 325.5 Q100 288 100 240 Q100 192 116 154.5 Q132 117 158 90.5 Q184 64 217.5 50.5 Q251 37 287 37 Z M370 603 Q345 603 329 616 Q313 629 299 644 Q288 658 276 668 Q264 678 247 678 Q224 678 211.5 658.5 Q199 639 197 607 Q197 601 191 601 L171 601 Q165 601 165 607 Q167 655 187.5 687.5 Q208 720 246 720 Q272 720 288.5 706.5 Q305 693 318 678 Q329 665 340 655.5 Q351 646 368 646 Q389 646 400.5 663 Q412 680 414 709 Q414 715 420 715 L441 715 Q447 715 447 709 Q445 664 425 633.5 Q405 603 370 603 Z " />
<glyph glyph-name="ae" unicode="&#xe6;" horiz-adv-x="797" d="M574 490 Q614 490 647 476 Q680 462 704 436.5 Q728 411 741 373.5 Q754 336 754 290 Q754 284 753.5 277.5 Q753 271 753 266 Q751 258 744 258 L418 258 L418 245 Q418 139 467.5 87 Q517 35 595 35 Q634 35 672.5 48 Q711 61 740 87 Q746 91 746 84 L746 51 Q746 43 740 38 Q711 16 672 3 Q633 -10 591 -10 Q521 -10 470 24 Q419 58 393 119 Q379 86 358 62.5 Q337 39 311.5 23 Q286 7 257.5 -0.5 Q229 -8 201 -8 Q134 -8 91.5 27.5 Q49 63 49 126 Q49 200 107.5 239 Q166 278 263 279 Q293 280 323 278.5 Q353 277 369 275 L369 309 Q369 381 331.5 414 Q294 447 218 447 Q184 447 148 438.5 Q112 430 83 415 Q76 410 76 419 L76 450 Q76 458 83 461 Q113 475 150 482.5 Q187 490 224 490 Q370 490 404 386 Q430 435 473.5 462.5 Q517 490 574 490 Z M574 445 Q515 445 474 407 Q433 369 422 297 L709 297 Q707 365 670 405 Q633 445 574 445 Z M209 34 Q234 34 262.5 44.5 Q291 55 314.5 77 Q338 99 353.5 132.5 Q369 166 369 212 L369 237 Q353 238 322.5 240 Q292 242 268 242 Q187 242 142.5 212.5 Q98 183 98 129 Q98 105 107 87 Q116 69 131.5 57.5 Q147 46 167 40 Q187 34 209 34 Z " />
<glyph glyph-name="b" unicode="b" horiz-adv-x="596" d="M317 490 Q363 490 404.5 473.5 Q446 457 477.5 425 Q509 393 528 346.5 Q547 300 547 241 Q547 181 527 134.5 Q507 88 475 56 Q443 24 402 7 Q361 -10 318 -10 Q289 -10 260.5 -2 Q232 6 206.5 21 Q181 36 160 59 Q139 82 126 112 L126 8 Q126 0 118 0 L85 0 Q77 0 77 8 L77 741 Q77 749 85 749 L118 749 Q126 749 126 741 L127 375 Q140 403 160.5 425 Q181 447 206 461 Q231 475 259.5 482.5 Q288 490 317 490 Z M309 37 Q345 37 378.5 50.5 Q412 64 438.5 90 Q465 116 480.5 154 Q496 192 496 240 Q496 288 481 325.5 Q466 363 440.5 389.5 Q415 416 381 429.5 Q347 443 309 443 Q272 443 238.5 429.5 Q205 416 180 389.5 Q155 363 140 325.5 Q125 288 125 240 Q125 192 140.5 154 Q156 116 181.5 90 Q207 64 240.5 50.5 Q274 37 309 37 Z " />
<glyph glyph-name="c" unicode="c" horiz-adv-x="477" d="M306 -10 Q253 -10 206.5 7.5 Q160 25 125 57.5 Q90 90 69.5 136.5 Q49 183 49 240 Q49 296 68 342 Q87 388 121 421 Q155 454 202 472 Q249 490 304 490 Q339 490 370 484 Q401 478 427 468 Q434 464 434 457 L434 431 Q434 420 428 420 Q426 420 420 422 Q396 433 368 438.5 Q340 444 311 444 Q267 444 228.5 429.5 Q190 415 161.5 388.5 Q133 362 116.5 324.5 Q100 287 100 240 Q100 192 117 154 Q134 116 163 90 Q192 64 231 50 Q270 36 314 36 Q374 36 426 58 Q432 60 434 60 Q440 60 440 49 L440 24 Q440 16 433 13 Q407 3 374.5 -3.5 Q342 -10 306 -10 Z " />
<glyph glyph-name="ccedilla" unicode="&#xe7;" horiz-adv-x="477" d="M426 58 Q432 60 434 60 Q440 60 440 49 L440 24 Q440 16 433 13 Q407 3 374.5 -3.5 Q342 -10 306 -10 L282 -45 Q285 -44 288.5 -44 Q292 -44 295 -44 Q327 -44 347 -60.5 Q367 -77 367 -104 Q367 -137 340.5 -156 Q314 -175 276 -175 Q239 -175 211 -162 Q205 -159 205 -152 L205 -136 Q205 -130 211 -132 Q224 -138 240 -142 Q256 -146 273 -146 Q297 -146 314.5 -135.5 Q332 -125 332 -105 Q332 -87 317 -78 Q302 -69 282 -69 Q255 -69 234 -77 L232 -74 L277 -9 Q229 -4 187.5 15.5 Q146 35 115.5 67 Q85 99 67 143 Q49 187 49 240 Q49 296 68 342 Q87 388 121 421 Q155 454 202 472 Q249 490 304 490 Q339 490 370 484 Q401 478 427 468 Q434 464 434 457 L434 431 Q434 420 428 420 Q426 420 420 422 Q396 433 368 438.5 Q340 444 311 444 Q267 444 228.5 429.5 Q190 415 161.5 388.5 Q133 362 116.5 324.5 Q100 287 100 240 Q100 192 117 154 Q134 116 163 90 Q192 64 231 50 Q270 36 314 36 Q374 36 426 58 Z " />
<glyph glyph-name="d" unicode="d" horiz-adv-x="596" d="M511 749 Q519 749 519 741 L519 8 Q519 0 511 0 L478 0 Q470 0 470 8 L470 112 Q457 82 436 59 Q415 36 389.5 21 Q364 6 335 -2 Q306 -10 278 -10 Q235 -10 194 7 Q153 24 120.5 56 Q88 88 68.5 134.5 Q49 181 49 241 Q49 300 68 346.5 Q87 393 118.5 425 Q150 457 191.5 473.5 Q233 490 279 490 Q308 490 336.5 482.5 Q365 475 390.5 460.5 Q416 446 436.5 424 Q457 402 470 372 L470 741 Q470 749 478 749 L511 749 Z M287 37 Q323 37 356 50.5 Q389 64 414.5 90 Q440 116 455.5 154 Q471 192 471 240 Q471 288 456 325.5 Q441 363 416 389.5 Q391 416 357.5 429.5 Q324 443 287 443 Q249 443 215 429.5 Q181 416 155.5 389.5 Q130 363 115 325.5 Q100 288 100 240 Q100 192 115.5 154 Q131 116 157.5 90 Q184 64 217.5 50.5 Q251 37 287 37 Z " />
<glyph glyph-name="eth" unicode="&#xf0;" horiz-adv-x="592" d="M348 623 Q403 575 440.5 526.5 Q478 478 500.5 431.5 Q523 385 532.5 341 Q542 297 542 256 Q542 192 521.5 142.5 Q501 93 467.5 59 Q434 25 390 7.5 Q346 -10 299 -10 Q249 -10 204 8 Q159 26 124.5 58.5 Q90 91 69.5 136 Q49 181 49 235 Q49 289 68.5 333 Q88 377 120.5 408.5 Q153 440 195.5 457.5 Q238 475 285 475 Q354 475 406.5 440.5 Q459 406 488 353 L490 354 Q471 413 427.5 476 Q384 539 315 599 L217 529 L205 546 Q200 552 207 556 L293 618 Q243 659 185 692 Q179 696 185 700 L209 716 Q217 720 223 716 Q252 697 277.5 678.5 Q303 660 326 641 L430 715 Q436 720 440 713 L447 702 Q452 696 445 692 L348 623 Z M299 36 Q338 36 373.5 51 Q409 66 435.5 92 Q462 118 477.5 154 Q493 190 493 231 Q493 273 476.5 309.5 Q460 346 432 373 Q404 400 367.5 415 Q331 430 292 430 Q254 430 219 415.5 Q184 401 157 375.5 Q130 350 114 314 Q98 278 98 235 Q98 193 114 156.5 Q130 120 157.5 93.5 Q185 67 221.5 51.5 Q258 36 299 36 Z " />
<glyph glyph-name="e" unicode="e" horiz-adv-x="522" d="M100 259 L100 243 Q100 195 115 156.5 Q130 118 156.5 91 Q183 64 219.5 49.5 Q256 35 298 35 Q330 35 356.5 41 Q383 47 406 57 Q435 70 450.5 82.5 Q466 95 470 95 Q474 95 474 87 L474 60 Q474 52 468 47 Q432 19 387 4.5 Q342 -10 293 -10 Q240 -10 195.5 8 Q151 26 118.5 58.5 Q86 91 67.5 137 Q49 183 49 240 Q49 295 67 341 Q85 387 116 420 Q147 453 189.5 471.5 Q232 490 280 490 Q323 490 359.5 476 Q396 462 423 435.5 Q450 409 465 370.5 Q480 332 480 283 Q480 268 476 263.5 Q472 259 464 259 L100 259 Z M280 445 Q248 445 220 434.5 Q192 424 169 405 Q146 386 129.5 358.5 Q113 331 106 297 L436 297 Q435 330 423 357 Q411 384 390.5 403.5 Q370 423 341.5 434 Q313 445 280 445 Z " />
<glyph glyph-name="eacute" unicode="&#xe9;" horiz-adv-x="528" d="M100 259 L100 243 Q100 195 115 156.5 Q130 118 156.5 91 Q183 64 219.5 49.5 Q256 35 298 35 Q330 35 356.5 41 Q383 47 406 57 Q435 70 450.5 82.5 Q466 95 470 95 Q474 95 474 87 L474 60 Q474 52 468 47 Q432 19 387 4.5 Q342 -10 293 -10 Q240 -10 195.5 8 Q151 26 118.5 58.5 Q86 91 67.5 137 Q49 183 49 240 Q49 295 67 341 Q85 387 116 420 Q147 453 189.5 471.5 Q232 490 280 490 Q323 490 359.5 476 Q396 462 423 435.5 Q450 409 465 370.5 Q480 332 480 283 Q480 268 476 263.5 Q472 259 464 259 L100 259 Z M280 445 Q248 445 220 434.5 Q192 424 169 405 Q146 386 129.5 358.5 Q113 331 106 297 L436 297 Q435 330 423 357 Q411 384 390.5 403.5 Q370 423 341.5 434 Q313 445 280 445 Z M223 565 Q215 565 219 572 L330 762 Q333 769 342 766 L380 753 Q389 750 383 744 L258 571 Q253 565 245 565 L223 565 L223 565 Z " />
<glyph glyph-name="ecircumflex" unicode="&#xea;" horiz-adv-x="528" d="M100 259 L100 243 Q100 195 115 156.5 Q130 118 156.5 91 Q183 64 219.5 49.5 Q256 35 298 35 Q330 35 356.5 41 Q383 47 406 57 Q435 70 450.5 82.5 Q466 95 470 95 Q474 95 474 87 L474 60 Q474 52 468 47 Q432 19 387 4.5 Q342 -10 293 -10 Q240 -10 195.5 8 Q151 26 118.5 58.5 Q86 91 67.5 137 Q49 183 49 240 Q49 295 67 341 Q85 387 116 420 Q147 453 189.5 471.5 Q232 490 280 490 Q323 490 359.5 476 Q396 462 423 435.5 Q450 409 465 370.5 Q480 332 480 283 Q480 268 476 263.5 Q472 259 464 259 L100 259 Z M280 445 Q248 445 220 434.5 Q192 424 169 405 Q146 386 129.5 358.5 Q113 331 106 297 L436 297 Q435 330 423 357 Q411 384 390.5 403.5 Q370 423 341.5 434 Q313 445 280 445 Z M400 570 Q404 564 397 564 L369 564 Q362 564 358 570 L268 704 L177 570 Q175 567 173 565.5 Q171 564 166 564 L138 564 Q131 564 135 570 L245 745 Q249 751 256 751 L279 751 Q286 751 290 745 L400 570 L400 570 Z " />
<glyph glyph-name="edieresis" unicode="&#xeb;" horiz-adv-x="528" d="M100 259 L100 243 Q100 195 115 156.5 Q130 118 156.5 91 Q183 64 219.5 49.5 Q256 35 298 35 Q330 35 356.5 41 Q383 47 406 57 Q435 70 450.5 82.5 Q466 95 470 95 Q474 95 474 87 L474 60 Q474 52 468 47 Q432 19 387 4.5 Q342 -10 293 -10 Q240 -10 195.5 8 Q151 26 118.5 58.5 Q86 91 67.5 137 Q49 183 49 240 Q49 295 67 341 Q85 387 116 420 Q147 453 189.5 471.5 Q232 490 280 490 Q323 490 359.5 476 Q396 462 423 435.5 Q450 409 465 370.5 Q480 332 480 283 Q480 268 476 263.5 Q472 259 464 259 L100 259 Z M280 445 Q248 445 220 434.5 Q192 424 169 405 Q146 386 129.5 358.5 Q113 331 106 297 L436 297 Q435 330 423 357 Q411 384 390.5 403.5 Q370 423 341.5 434 Q313 445 280 445 Z M197 649 Q180 649 170.5 660 Q161 671 161 687 Q161 702 170.5 713 Q180 724 197 724 Q213 724 222.5 713 Q232 702 232 687 Q232 671 222.5 660 Q213 649 197 649 Z M337 649 Q320 649 310.5 660 Q301 671 301 687 Q301 702 310.5 713 Q320 724 337 724 Q353 724 362.5 713 Q372 702 372 687 Q372 671 362.5 660 Q353 649 337 649 Z " />
<glyph glyph-name="egrave" unicode="&#xe8;" horiz-adv-x="528" d="M100 259 L100 243 Q100 195 115 156.5 Q130 118 156.5 91 Q183 64 219.5 49.5 Q256 35 298 35 Q330 35 356.5 41 Q383 47 406 57 Q435 70 450.5 82.5 Q466 95 470 95 Q474 95 474 87 L474 60 Q474 52 468 47 Q432 19 387 4.5 Q342 -10 293 -10 Q240 -10 195.5 8 Q151 26 118.5 58.5 Q86 91 67.5 137 Q49 183 49 240 Q49 295 67 341 Q85 387 116 420 Q147 453 189.5 471.5 Q232 490 280 490 Q323 490 359.5 476 Q396 462 423 435.5 Q450 409 465 370.5 Q480 332 480 283 Q480 268 476 263.5 Q472 259 464 259 L100 259 Z M280 445 Q248 445 220 434.5 Q192 424 169 405 Q146 386 129.5 358.5 Q113 331 106 297 L436 297 Q435 330 423 357 Q411 384 390.5 403.5 Q370 423 341.5 434 Q313 445 280 445 Z M287 572 Q290 565 283 565 L261 565 Q254 565 248 571 L123 744 Q118 750 126 753 L164 766 Q166 767 168 767 Q173 767 176 762 L287 572 L287 572 Z " />
<glyph glyph-name="eogonek" unicode="&#x119;" horiz-adv-x="528" d="M100 259 L100 243 Q100 195 115 156.5 Q130 118 156.5 91 Q183 64 219.5 49.5 Q256 35 298 35 Q330 35 356.5 41 Q383 47 406 57 Q435 70 450.5 82.5 Q466 95 470 95 Q474 95 474 87 L474 60 Q474 52 468 47 Q416 7 349 -5 Q308 -28 289.5 -50 Q271 -72 271 -95 Q271 -117 287 -129.5 Q303 -142 326 -142 Q335 -142 343.5 -140 Q352 -138 360 -135 Q364 -134 365.5 -134.5 Q367 -135 367 -140 L367 -157 Q367 -165 361 -167 Q343 -175 320 -175 Q283 -175 257 -154.5 Q231 -134 231 -99 Q231 -74 246.5 -51 Q262 -28 288 -10 Q236 -9 192.5 9 Q149 27 117 60 Q85 93 67 138.5 Q49 184 49 240 Q49 295 67 341 Q85 387 116 420 Q147 453 189.5 471.5 Q232 490 280 490 Q323 490 359.5 476 Q396 462 423 435.5 Q450 409 465 370.5 Q480 332 480 283 Q480 268 476 263.5 Q472 259 464 259 L100 259 Z M280 445 Q248 445 220 434.5 Q192 424 169 405 Q146 386 129.5 358.5 Q113 331 106 297 L436 297 Q435 330 423 357 Q411 384 390.5 403.5 Q370 423 341.5 434 Q313 445 280 445 Z " />
<glyph glyph-name="f" unicode="f" horiz-adv-x="332" d="M332 744 Q339 739 339 732 L339 711 Q339 701 333 701 Q329 701 325 703 Q297 716 263 716 Q221 716 196 692.5 Q171 669 171 614 L171 480 L321 480 Q329 480 329 472 L329 449 Q329 441 321 441 L171 441 L171 8 Q171 0 163 0 L129 0 Q121 0 121 8 L121 441 L39 441 Q31 441 31 449 L31 472 Q31 480 39 480 L121 480 L121 615 Q121 691 156 725 Q191 759 254 759 Q278 759 297.5 755 Q317 751 332 744 Z " />
<glyph glyph-name="g" unicode="g" horiz-adv-x="589" d="M506 480 Q514 480 514 472 L514 71 Q514 -46 447 -110.5 Q380 -175 264 -175 Q213 -175 170 -165.5 Q127 -156 95 -139 Q88 -136 88 -127 L88 -100 Q88 -89 94 -89 Q96 -89 102 -92 Q135 -111 175.5 -121 Q216 -131 260 -131 Q357 -131 410 -80 Q463 -29 463 62 L463 134 Q435 74 384 43.5 Q333 13 273 13 Q229 13 188.5 29 Q148 45 117 75 Q86 105 67.5 149.5 Q49 194 49 251 Q49 308 68 352.5 Q87 397 118.5 427.5 Q150 458 190 474 Q230 490 273 490 Q333 490 385 459.5 Q437 429 464 367 L464 472 Q464 480 472 480 L506 480 Z M282 57 Q320 57 353 71 Q386 85 411 110.5 Q436 136 450 171.5 Q464 207 464 251 Q464 292 450 327.5 Q436 363 411 389 Q386 415 353 429.5 Q320 444 282 444 Q247 444 214.5 431.5 Q182 419 156.5 394.5 Q131 370 115.5 334 Q100 298 100 251 Q100 204 115 168 Q130 132 155 107 Q180 82 213 69.5 Q246 57 282 57 Z " />
<glyph glyph-name="h" unicode="h" horiz-adv-x="535" d="M291 490 Q366 490 413 446 Q460 402 460 310 L460 6 Q460 0 454 0 L416 0 Q410 0 410 6 L410 308 Q410 381 374.5 413.5 Q339 446 279 446 Q213 446 172.5 403 Q132 360 126 287 L126 6 Q126 0 120 0 L82 0 Q76 0 76 6 L76 743 Q76 749 82 749 L119 749 Q125 749 125 743 L125 383 Q148 435 190 462.5 Q232 490 291 490 Z " />
<glyph glyph-name="i" unicode="i" horiz-adv-x="221" d="M111 639 Q91 639 80 652 Q69 665 69 682 Q69 700 80 713 Q91 726 111 726 Q130 726 141.5 713 Q153 700 153 682 Q153 665 141.5 652 Q130 639 111 639 Z M94 0 Q86 0 86 8 L86 472 Q86 480 94 480 L127 480 Q135 480 135 472 L135 8 Q135 0 127 0 L94 0 Z " />
<glyph glyph-name="idotless" unicode="&#x131;" horiz-adv-x="239" d="M103 0 Q95 0 95 8 L95 472 Q95 480 103 480 L136 480 Q144 480 144 472 L144 8 Q144 0 136 0 L103 0 L103 0 Z " />
<glyph glyph-name="iacute" unicode="&#xed;" horiz-adv-x="239" d="M106 561 Q99 561 100 569 L155 757 Q157 765 165 762 L205 749 Q213 746 210 739 L140 568 Q136 561 129 561 L106 561 L106 561 Z M103 0 Q95 0 95 8 L95 472 Q95 480 103 480 L136 480 Q144 480 144 472 L144 8 Q144 0 136 0 L103 0 L103 0 Z " />
<glyph glyph-name="icircumflex" unicode="&#xee;" horiz-adv-x="239" d="M103 0 Q95 0 95 8 L95 472 Q95 480 103 480 L136 480 Q144 480 144 472 L144 8 Q144 0 136 0 L103 0 L103 0 Z M252 568 Q256 562 249 562 L221 562 Q214 562 210 568 L120 702 L29 568 Q27 565 25 563.5 Q23 562 18 562 L-10 562 Q-17 562 -13 568 L97 743 Q101 749 108 749 L131 749 Q138 749 142 743 L252 568 L252 568 Z " />
<glyph glyph-name="idieresis" unicode="&#xef;" horiz-adv-x="239" d="M103 0 Q95 0 95 8 L95 472 Q95 480 103 480 L136 480 Q144 480 144 472 L144 8 Q144 0 136 0 L103 0 L103 0 Z M49 647 Q32 647 22.5 658 Q13 669 13 685 Q13 700 22.5 711 Q32 722 49 722 Q65 722 74.5 711 Q84 700 84 685 Q84 669 74.5 658 Q65 647 49 647 Z M189 647 Q172 647 162.5 658 Q153 669 153 685 Q153 700 162.5 711 Q172 722 189 722 Q205 722 214.5 711 Q224 700 224 685 Q224 669 214.5 658 Q205 647 189 647 Z " />
<glyph glyph-name="igrave" unicode="&#xec;" horiz-adv-x="239" d="M138 566 Q138 561 132 561 L109 561 Q101 561 98 568 L28 739 Q27 740 27 743 Q27 747 33 749 L73 762 Q75 763 77 763 Q81 763 83 757 L138 569 L138 566 Z M103 0 Q95 0 95 8 L95 472 Q95 480 103 480 L136 480 Q144 480 144 472 L144 8 Q144 0 136 0 L103 0 Z " />
<glyph glyph-name="j" unicode="j" horiz-adv-x="221" d="M112 639 Q92 639 81 652 Q70 665 70 682 Q70 700 81 713 Q92 726 112 726 Q131 726 142.5 713 Q154 700 154 682 Q154 665 142.5 652 Q131 639 112 639 Z M32 -175 Q2 -175 -23 -165 Q-30 -162 -30 -154 L-30 -124 Q-30 -116 -23 -120 Q-4 -132 24 -132 Q50 -132 68 -115 Q86 -98 86 -65 L86 472 Q86 480 94 480 L128 480 Q136 480 136 472 L136 -65 Q136 -121 108 -148 Q80 -175 32 -175 Z " />
<glyph glyph-name="k" unicode="k" horiz-adv-x="440" d="M437 7 Q444 0 434 0 L387 0 Q379 0 373 6 L123 254 L123 8 Q123 0 115 0 L82 0 Q74 0 74 8 L74 741 Q74 749 82 749 L115 749 Q123 749 123 741 L123 260 L350 475 Q357 480 364 480 L413 480 Q421 480 415 475 L181 257 L437 7 L437 7 Z " />
<glyph glyph-name="l" unicode="l" horiz-adv-x="256" d="M170 -10 Q125 -10 101.5 13 Q78 36 78 89 L78 741 Q78 749 86 749 L120 749 Q128 749 128 741 L128 95 Q128 61 143 47.5 Q158 34 184 34 Q196 34 209.5 37 Q223 40 234 46 Q238 48 239 48 Q243 48 243 40 L243 14 Q243 6 236 3 Q207 -10 170 -10 Z " />
<glyph glyph-name="lslash" unicode="&#x142;" horiz-adv-x="256" d="M234 46 Q238 48 239 48 Q243 48 243 40 L243 14 Q243 6 236 3 Q207 -10 170 -10 Q125 -10 101.5 13 Q78 36 78 89 L78 401 L25 380 Q18 376 18 385 L18 403 Q18 411 25 414 L78 435 L78 741 Q78 749 86 749 L120 749 Q128 749 128 741 L128 455 L192 480 Q199 483 199 475 L199 457 Q199 449 192 446 L128 421 L128 95 Q128 61 143 47.5 Q158 34 184 34 Q196 34 209.5 37 Q223 40 234 46 Z " />
<glyph glyph-name="m" unicode="m" horiz-adv-x="781" d="M552 490 Q582 490 610 480.5 Q638 471 659 451.5 Q680 432 693 403 Q706 374 706 334 L706 8 Q706 0 698 0 L664 0 Q656 0 656 8 L656 331 Q656 361 646.5 382.5 Q637 404 621 418 Q605 432 584.5 438.5 Q564 445 543 445 Q517 445 494 435.5 Q471 426 454 409 Q437 392 426.5 369 Q416 346 416 318 L416 8 Q416 0 408 0 L374 0 Q366 0 366 8 L366 331 Q366 361 356.5 382.5 Q347 404 331 418 Q315 432 294.5 438.5 Q274 445 252 445 Q227 445 204 435.5 Q181 426 163.5 409 Q146 392 135.5 369 Q125 346 125 318 L125 8 Q125 0 117 0 L84 0 Q76 0 76 8 L76 472 Q76 480 84 480 L115 480 Q123 480 123 472 L123 402 Q143 446 181 468 Q219 490 264 490 Q311 490 351 466.5 Q391 443 407 393 Q427 441 466.5 465.5 Q506 490 552 490 Z " />
<glyph glyph-name="n" unicode="n" horiz-adv-x="535" d="M288 490 Q364 490 412 445.5 Q460 401 460 307 L460 8 Q460 0 452 0 L418 0 Q410 0 410 8 L410 305 Q410 380 373.5 413 Q337 446 277 446 Q243 446 215.5 434.5 Q188 423 168 402 Q148 381 137 352.5 Q126 324 126 291 L126 8 Q126 0 118 0 L84 0 Q76 0 76 8 L76 472 Q76 480 84 480 L116 480 Q124 480 124 472 L124 391 Q146 439 188 464.5 Q230 490 288 490 Z " />
<glyph glyph-name="ntilde" unicode="&#xf1;" horiz-adv-x="532" d="M288 490 Q364 490 412 445.5 Q460 401 460 307 L460 8 Q460 0 452 0 L418 0 Q410 0 410 8 L410 305 Q410 380 373.5 413 Q337 446 277 446 Q243 446 215.5 434.5 Q188 423 168 402 Q148 381 137 352.5 Q126 324 126 291 L126 8 Q126 0 118 0 L84 0 Q76 0 76 8 L76 472 Q76 480 84 480 L116 480 Q124 480 124 472 L124 391 Q146 439 188 464.5 Q230 490 288 490 Z M330 603 Q305 603 289 616 Q273 629 259 644 Q248 658 236 668 Q224 678 207 678 Q184 678 171.5 658.5 Q159 639 157 607 Q157 601 151 601 L131 601 Q125 601 125 607 Q127 655 147.5 687.5 Q168 720 206 720 Q232 720 248.5 706.5 Q265 693 278 678 Q289 665 300 655.5 Q311 646 328 646 Q349 646 360.5 663 Q372 680 374 709 Q374 715 380 715 L401 715 Q407 715 407 709 Q405 664 385 633.5 Q365 603 330 603 Z " />
<glyph glyph-name="o" unicode="o" horiz-adv-x="587" d="M294 -10 Q244 -10 200 9.5 Q156 29 122 62.5 Q88 96 68.5 142 Q49 188 49 242 Q49 295 69 340.5 Q89 386 122.5 419 Q156 452 200.5 471 Q245 490 294 490 Q343 490 387.5 471 Q432 452 465.5 419 Q499 386 518.5 340.5 Q538 295 538 242 Q538 188 518.5 142 Q499 96 465.5 62.5 Q432 29 387.5 9.5 Q343 -10 294 -10 Z M294 36 Q334 36 369.5 51.5 Q405 67 431.5 94 Q458 121 473.5 159 Q489 197 489 242 Q489 286 473.5 323 Q458 360 431.5 387 Q405 414 369.5 429 Q334 444 294 444 Q254 444 218.5 429 Q183 414 156.5 387 Q130 360 114.5 323 Q99 286 99 242 Q99 197 114.5 159 Q130 121 157 94 Q184 67 219.5 51.5 Q255 36 294 36 Z " />
<glyph glyph-name="oacute" unicode="&#xf3;" horiz-adv-x="588" d="M294 -10 Q244 -10 200 9.5 Q156 29 122 62.5 Q88 96 68.5 142 Q49 188 49 242 Q49 295 69 340.5 Q89 386 122.5 419 Q156 452 200.5 471 Q245 490 294 490 Q343 490 387.5 471 Q432 452 465.5 419 Q499 386 518.5 340.5 Q538 295 538 242 Q538 188 518.5 142 Q499 96 465.5 62.5 Q432 29 387.5 9.5 Q343 -10 294 -10 Z M294 36 Q334 36 369.5 51.5 Q405 67 431.5 94 Q458 121 473.5 159 Q489 197 489 242 Q489 286 473.5 323 Q458 360 431.5 387 Q405 414 369.5 429 Q334 444 294 444 Q254 444 218.5 429 Q183 414 156.5 387 Q130 360 114.5 323 Q99 286 99 242 Q99 197 114.5 159 Q130 121 157 94 Q184 67 219.5 51.5 Q255 36 294 36 Z M250 563 Q242 563 246 570 L357 760 Q360 767 369 764 L407 751 Q416 748 410 742 L285 569 Q280 563 272 563 L250 563 L250 563 Z " />
<glyph glyph-name="ocircumflex" unicode="&#xf4;" horiz-adv-x="588" d="M294 -10 Q244 -10 200 9.5 Q156 29 122 62.5 Q88 96 68.5 142 Q49 188 49 242 Q49 295 69 340.5 Q89 386 122.5 419 Q156 452 200.5 471 Q245 490 294 490 Q343 490 387.5 471 Q432 452 465.5 419 Q499 386 518.5 340.5 Q538 295 538 242 Q538 188 518.5 142 Q499 96 465.5 62.5 Q432 29 387.5 9.5 Q343 -10 294 -10 Z M294 36 Q334 36 369.5 51.5 Q405 67 431.5 94 Q458 121 473.5 159 Q489 197 489 242 Q489 286 473.5 323 Q458 360 431.5 387 Q405 414 369.5 429 Q334 444 294 444 Q254 444 218.5 429 Q183 414 156.5 387 Q130 360 114.5 323 Q99 286 99 242 Q99 197 114.5 159 Q130 121 157 94 Q184 67 219.5 51.5 Q255 36 294 36 Z M427 568 Q431 562 424 562 L396 562 Q389 562 385 568 L295 702 L204 568 Q202 565 200 563.5 Q198 562 193 562 L165 562 Q158 562 162 568 L272 743 Q276 749 283 749 L306 749 Q313 749 317 743 L427 568 L427 568 Z " />
<glyph glyph-name="odieresis" unicode="&#xf6;" horiz-adv-x="588" d="M294 -10 Q244 -10 200 9.5 Q156 29 122 62.5 Q88 96 68.5 142 Q49 188 49 242 Q49 295 69 340.5 Q89 386 122.5 419 Q156 452 200.5 471 Q245 490 294 490 Q343 490 387.5 471 Q432 452 465.5 419 Q499 386 518.5 340.5 Q538 295 538 242 Q538 188 518.5 142 Q499 96 465.5 62.5 Q432 29 387.5 9.5 Q343 -10 294 -10 Z M294 36 Q334 36 369.5 51.5 Q405 67 431.5 94 Q458 121 473.5 159 Q489 197 489 242 Q489 286 473.5 323 Q458 360 431.5 387 Q405 414 369.5 429 Q334 444 294 444 Q254 444 218.5 429 Q183 414 156.5 387 Q130 360 114.5 323 Q99 286 99 242 Q99 197 114.5 159 Q130 121 157 94 Q184 67 219.5 51.5 Q255 36 294 36 Z M224 647 Q207 647 197.5 658 Q188 669 188 685 Q188 700 197.5 711 Q207 722 224 722 Q240 722 249.5 711 Q259 700 259 685 Q259 669 249.5 658 Q240 647 224 647 Z M364 647 Q347 647 337.5 658 Q328 669 328 685 Q328 700 337.5 711 Q347 722 364 722 Q380 722 389.5 711 Q399 700 399 685 Q399 669 389.5 658 Q380 647 364 647 Z " />
<glyph glyph-name="ograve" unicode="&#xf2;" horiz-adv-x="588" d="M294 -10 Q244 -10 200 9.5 Q156 29 122 62.5 Q88 96 68.5 142 Q49 188 49 242 Q49 295 69 340.5 Q89 386 122.5 419 Q156 452 200.5 471 Q245 490 294 490 Q343 490 387.5 471 Q432 452 465.5 419 Q499 386 518.5 340.5 Q538 295 538 242 Q538 188 518.5 142 Q499 96 465.5 62.5 Q432 29 387.5 9.5 Q343 -10 294 -10 Z M294 36 Q334 36 369.5 51.5 Q405 67 431.5 94 Q458 121 473.5 159 Q489 197 489 242 Q489 286 473.5 323 Q458 360 431.5 387 Q405 414 369.5 429 Q334 444 294 444 Q254 444 218.5 429 Q183 414 156.5 387 Q130 360 114.5 323 Q99 286 99 242 Q99 197 114.5 159 Q130 121 157 94 Q184 67 219.5 51.5 Q255 36 294 36 Z M314 570 Q317 563 310 563 L288 563 Q281 563 275 569 L150 742 Q145 748 153 751 L191 764 Q193 765 195 765 Q200 765 203 760 L314 570 L314 570 Z " />
<glyph glyph-name="oslash" unicode="&#xf8;" horiz-adv-x="588" d="M424 452 Q475 420 506.5 365.5 Q538 311 538 242 Q538 188 518.5 142 Q499 96 465.5 62.5 Q432 29 387.5 9.5 Q343 -10 294 -10 Q236 -10 186 16 L151 -49 Q146 -56 139 -56 L124 -56 Q116 -56 120 -49 L163 29 Q112 62 80.5 117.5 Q49 173 49 242 Q49 295 69 340.5 Q89 386 122.5 419 Q156 452 200.5 471 Q245 490 294 490 Q349 490 401 465 L436 530 Q441 537 448 537 L463 537 Q471 537 467 530 L424 452 Z M99 242 Q99 186 123 141.5 Q147 97 185 70 L379 425 Q338 444 294 444 Q254 444 218.5 429 Q183 414 156.5 387 Q130 360 114.5 323 Q99 286 99 242 Z M294 36 Q334 36 369.5 51.5 Q405 67 431.5 94 Q458 121 473.5 159 Q489 197 489 242 Q489 298 465 341.5 Q441 385 402 411 L208 56 Q250 36 294 36 Z " />
<glyph glyph-name="otilde" unicode="&#xf5;" horiz-adv-x="588" d="M294 -10 Q244 -10 200 9.5 Q156 29 122 62.5 Q88 96 68.5 142 Q49 188 49 242 Q49 295 69 340.5 Q89 386 122.5 419 Q156 452 200.5 471 Q245 490 294 490 Q343 490 387.5 471 Q432 452 465.5 419 Q499 386 518.5 340.5 Q538 295 538 242 Q538 188 518.5 142 Q499 96 465.5 62.5 Q432 29 387.5 9.5 Q343 -10 294 -10 Z M294 36 Q334 36 369.5 51.5 Q405 67 431.5 94 Q458 121 473.5 159 Q489 197 489 242 Q489 286 473.5 323 Q458 360 431.5 387 Q405 414 369.5 429 Q334 444 294 444 Q254 444 218.5 429 Q183 414 156.5 387 Q130 360 114.5 323 Q99 286 99 242 Q99 197 114.5 159 Q130 121 157 94 Q184 67 219.5 51.5 Q255 36 294 36 Z M358 603 Q333 603 317 616 Q301 629 287 644 Q276 658 264 668 Q252 678 235 678 Q212 678 199.5 658.5 Q187 639 185 607 Q185 601 179 601 L159 601 Q153 601 153 607 Q155 655 175.5 687.5 Q196 720 234 720 Q260 720 276.5 706.5 Q293 693 306 678 Q317 665 328 655.5 Q339 646 356 646 Q377 646 388.5 663 Q400 680 402 709 Q402 715 408 715 L429 715 Q435 715 435 709 Q433 664 413 633.5 Q393 603 358 603 Z " />
<glyph glyph-name="oe" unicode="&#x153;" horiz-adv-x="900" d="M498 263 Q497 258 497 253 Q497 248 497 243 Q497 140 549 86.5 Q601 33 690 33 Q732 33 772.5 45.5 Q813 58 845 85 Q851 89 851 82 L851 53 Q851 45 845 40 Q813 15 772 2.5 Q731 -10 686 -10 Q607 -10 550.5 29 Q494 68 470 141 Q447 72 393 31 Q339 -10 269 -10 Q222 -10 182 9 Q142 28 112.5 61.5 Q83 95 66 141.5 Q49 188 49 242 Q49 296 66 341.5 Q83 387 112.5 420 Q142 453 182 471.5 Q222 490 269 490 Q338 490 392 449.5 Q446 409 470 340 Q494 408 545 449 Q596 490 668 490 Q709 490 743.5 476.5 Q778 463 803.5 436.5 Q829 410 843.5 371 Q858 332 858 281 Q858 270 854.5 266.5 Q851 263 843 263 L498 263 Z M666 450 Q631 450 603.5 438 Q576 426 555.5 405.5 Q535 385 521.5 357 Q508 329 502 296 L816 296 Q813 367 771.5 408.5 Q730 450 666 450 Z M272 35 Q309 35 340.5 50.5 Q372 66 395 94 Q418 122 431 159.5 Q444 197 444 242 Q444 286 431 323 Q418 360 395 387 Q372 414 340.5 429.5 Q309 445 272 445 Q234 445 201.5 430 Q169 415 145.5 388 Q122 361 109 323.5 Q96 286 96 242 Q96 197 109 159 Q122 121 145.5 93.5 Q169 66 201.5 50.5 Q234 35 272 35 Z " />
<glyph glyph-name="p" unicode="p" horiz-adv-x="597" d="M315 490 Q361 490 403 473 Q445 456 477 424 Q509 392 528.5 345.5 Q548 299 548 239 Q548 180 528 134 Q508 88 475.5 56 Q443 24 401 7 Q359 -10 315 -10 Q259 -10 207.5 19.5 Q156 49 127 106 L127 -155 Q127 -166 117 -166 L87 -166 Q77 -166 77 -155 L77 469 Q77 480 87 480 L116 480 Q127 480 127 469 L127 374 Q140 402 160 424 Q180 446 205 460.5 Q230 475 258 482.5 Q286 490 315 490 Z M310 37 Q346 37 379.5 50.5 Q413 64 439.5 90 Q466 116 481.5 154 Q497 192 497 240 Q497 288 482 325.5 Q467 363 441.5 389.5 Q416 416 382 429.5 Q348 443 310 443 Q272 443 238.5 429 Q205 415 180 389 Q155 363 140 325.5 Q125 288 125 240 Q125 192 140.5 154.5 Q156 117 181.5 91 Q207 65 240.5 51 Q274 37 310 37 Z " />
<glyph glyph-name="thorn" unicode="&#xfe;" horiz-adv-x="566" d="M303 490 Q346 490 385 473 Q424 456 453.5 424 Q483 392 500 345.5 Q517 299 517 240 Q517 181 499 134.5 Q481 88 451 56 Q421 24 382.5 7 Q344 -10 303 -10 Q246 -10 198.5 20 Q151 50 125 108 L125 -161 Q125 -169 117 -169 L83 -169 Q75 -169 75 -161 L75 741 Q75 749 83 749 L114 749 Q122 749 122 741 L122 366 Q148 427 196 458.5 Q244 490 303 490 Z M292 33 Q325 33 356 46.5 Q387 60 411.5 86 Q436 112 451 151 Q466 190 466 240 Q466 290 452 328.5 Q438 367 414 393 Q390 419 358.5 432.5 Q327 446 292 446 Q256 446 224.5 431 Q193 416 169.5 389 Q146 362 132.5 324 Q119 286 119 240 Q119 193 132.5 155 Q146 117 169.5 90 Q193 63 224.5 48 Q256 33 292 33 Z " />
<glyph glyph-name="q" unicode="q" horiz-adv-x="590" d="M508 480 Q515 480 515 472 L515 -158 Q515 -166 508 -166 L473 -166 Q465 -166 465 -158 L465 107 Q436 49 385 19.5 Q334 -10 276 -10 Q232 -10 191 7 Q150 24 118.5 56 Q87 88 67.5 134.5 Q48 181 48 240 Q48 299 66 345.5 Q84 392 115.5 424 Q147 456 188 473 Q229 490 276 490 Q338 490 389.5 459.5 Q441 429 468 369 L468 472 Q468 480 475 480 L508 480 Z M284 33 Q319 33 352 47 Q385 61 411 87 Q437 113 453 151.5 Q469 190 469 240 Q469 289 454 327.5 Q439 366 413.5 392 Q388 418 354.5 432 Q321 446 284 446 Q246 446 212.5 432.5 Q179 419 153 393 Q127 367 112 328.5 Q97 290 97 240 Q97 190 113 151 Q129 112 155.5 86 Q182 60 215.5 46.5 Q249 33 284 33 Z " />
<glyph glyph-name="r" unicode="r" horiz-adv-x="342" d="M306 490 Q314 490 314 482 L314 444 Q314 436 306 436 Q257 435 219 410 Q172 381 147.5 319 Q123 257 123 172 L123 8 Q123 0 115 0 L82 0 Q74 0 74 8 L74 472 Q74 480 82 480 L114 480 Q122 480 122 472 L122 318 Q142 403 188.5 445.5 Q235 488 306 490 Z " />
<glyph glyph-name="s" unicode="s" horiz-adv-x="438" d="M208 -10 Q171 -10 131 -1 Q91 8 65 25 Q60 27 60 34 L60 70 Q60 76 62 76 Q62 76 66 74 Q96 55 134 45 Q172 35 207 35 Q266 35 300 61.5 Q334 88 334 130 Q334 153 324 168.5 Q314 184 296.5 195 Q279 206 256 214.5 Q233 223 207 231 Q179 240 153 250.5 Q127 261 106.5 276 Q86 291 74 312 Q62 333 62 363 Q62 420 106.5 455 Q151 490 226 490 Q261 490 295.5 482.5 Q330 475 357 463 Q362 460 362 454 L362 419 Q362 414 359 414 Q357 414 355 415 Q328 429 293 437.5 Q258 446 226 446 Q172 446 141.5 424 Q111 402 111 366 Q111 345 121 330.5 Q131 316 147.5 305.5 Q164 295 185.5 287.5 Q207 280 231 273 Q260 264 287.5 253.5 Q315 243 336 227.5 Q357 212 369.5 189.5 Q382 167 382 135 Q382 70 334.5 30 Q287 -10 208 -10 Z " />
<glyph glyph-name="scaron" unicode="&#x161;" horiz-adv-x="440" d="M208 -10 Q171 -10 131 -1 Q91 8 65 25 Q60 27 60 34 L60 70 Q60 76 62 76 Q62 76 66 74 Q96 55 134 45 Q172 35 207 35 Q266 35 300 61.5 Q334 88 334 130 Q334 153 324 168.5 Q314 184 296.5 195 Q279 206 256 214.5 Q233 223 207 231 Q179 240 153 250.5 Q127 261 106.5 276 Q86 291 74 312 Q62 333 62 363 Q62 420 106.5 455 Q151 490 226 490 Q261 490 295.5 482.5 Q330 475 357 463 Q362 460 362 454 L362 419 Q362 414 359 414 Q357 414 355 415 Q328 429 293 437.5 Q258 446 226 446 Q172 446 141.5 424 Q111 402 111 366 Q111 345 121 330.5 Q131 316 147.5 305.5 Q164 295 185.5 287.5 Q207 280 231 273 Q260 264 287.5 253.5 Q315 243 336 227.5 Q357 212 369.5 189.5 Q382 167 382 135 Q382 70 334.5 30 Q287 -10 208 -10 Z M346 744 Q354 744 350 737 L240 574 Q237 567 228 567 L209 567 Q201 567 197 574 L87 737 Q84 744 91 744 L117 744 Q124 744 130 737 L219 612 L307 737 Q311 744 320 744 L346 744 L346 744 Z " />
<glyph glyph-name="germandbls" unicode="&#xdf;" horiz-adv-x="515" d="M299 -10 Q274 -10 244.5 -5 Q215 0 196 7 Q190 10 190 17 L190 51 Q190 57 196 55 Q216 46 243 40.5 Q270 35 291 35 Q350 35 380.5 63 Q411 91 411 138 Q411 180 385.5 207 Q360 234 323 260 Q302 274 282.5 287 Q263 300 248 315 Q233 330 224 349 Q215 368 215 394 Q215 434 234.5 461 Q254 488 279 516 Q293 531 304 544 Q315 557 323 570 Q331 583 335.5 597.5 Q340 612 340 630 Q340 668 312 691 Q284 714 239 714 Q191 714 159.5 682 Q128 650 128 581 L128 8 Q128 0 120 0 L86 0 Q78 0 78 8 L78 579 Q78 625 90 658.5 Q102 692 123.5 714.5 Q145 737 174.5 748 Q204 759 238 759 Q269 759 297 750.5 Q325 742 345 725.5 Q365 709 377 685.5 Q389 662 389 633 Q389 590 368.5 560.5 Q348 531 321 502 Q296 473 279 451.5 Q262 430 262 399 Q262 379 269.5 365 Q277 351 290 338.5 Q303 326 321 314.5 Q339 303 360 289 Q379 275 397 261 Q415 247 428.5 229.5 Q442 212 450 190 Q458 168 458 138 Q458 73 417 31.5 Q376 -10 299 -10 Z " />
<glyph glyph-name="t" unicode="t" horiz-adv-x="339" d="M295 41 Q298 42 303 42 Q310 42 310 31 L310 12 Q310 4 302 1 Q286 -4 267 -7 Q248 -10 229 -10 Q166 -10 135.5 23 Q105 56 105 132 L105 442 L29 442 Q21 442 21 450 L21 472 Q21 480 29 480 L105 480 L105 616 Q105 624 113 624 L147 624 Q155 624 155 616 L155 480 L293 480 Q301 480 301 472 L301 450 Q301 442 293 442 L155 442 L155 136 Q155 79 176 56 Q197 33 241 33 Q268 33 295 41 Z " />
<glyph glyph-name="u" unicode="u" horiz-adv-x="527" d="M443 480 Q451 480 451 472 L451 8 Q451 0 443 0 L413 0 Q405 0 405 8 L404 97 L403 98 Q382 45 340.5 17.5 Q299 -10 242 -10 Q206 -10 175 1 Q144 12 122 35.5 Q100 59 87.5 95 Q75 131 75 181 L75 472 Q75 480 83 480 L117 480 Q125 480 125 472 L125 182 Q125 101 160.5 67.5 Q196 34 253 34 Q287 34 314.5 47 Q342 60 361.5 83.5 Q381 107 391 139.5 Q401 172 401 211 L401 472 Q401 480 409 480 L443 480 L443 480 Z " />
<glyph glyph-name="uacute" unicode="&#xfa;" horiz-adv-x="524" d="M443 480 Q451 480 451 472 L451 8 Q451 0 443 0 L413 0 Q405 0 405 8 L404 97 L403 98 Q382 45 340.5 17.5 Q299 -10 242 -10 Q206 -10 175 1 Q144 12 122 35.5 Q100 59 87.5 95 Q75 131 75 181 L75 472 Q75 480 83 480 L117 480 Q125 480 125 472 L125 182 Q125 101 160.5 67.5 Q196 34 253 34 Q287 34 314.5 47 Q342 60 361.5 83.5 Q381 107 391 139.5 Q401 172 401 211 L401 472 Q401 480 409 480 L443 480 L443 480 Z M218 563 Q210 563 214 570 L325 760 Q328 767 337 764 L375 751 Q384 748 378 742 L253 569 Q248 563 240 563 L218 563 L218 563 Z " />
<glyph glyph-name="ucircumflex" unicode="&#xfb;" horiz-adv-x="524" d="M443 480 Q451 480 451 472 L451 8 Q451 0 443 0 L413 0 Q405 0 405 8 L404 97 L403 98 Q382 45 340.5 17.5 Q299 -10 242 -10 Q206 -10 175 1 Q144 12 122 35.5 Q100 59 87.5 95 Q75 131 75 181 L75 472 Q75 480 83 480 L117 480 Q125 480 125 472 L125 182 Q125 101 160.5 67.5 Q196 34 253 34 Q287 34 314.5 47 Q342 60 361.5 83.5 Q381 107 391 139.5 Q401 172 401 211 L401 472 Q401 480 409 480 L443 480 L443 480 Z M395 568 Q399 562 392 562 L364 562 Q357 562 353 568 L263 702 L172 568 Q170 565 168 563.5 Q166 562 161 562 L133 562 Q126 562 130 568 L240 743 Q244 749 251 749 L274 749 Q281 749 285 743 L395 568 L395 568 Z " />
<glyph glyph-name="udieresis" unicode="&#xfc;" horiz-adv-x="524" d="M443 480 Q451 480 451 472 L451 8 Q451 0 443 0 L413 0 Q405 0 405 8 L404 97 L403 98 Q382 45 340.5 17.5 Q299 -10 242 -10 Q206 -10 175 1 Q144 12 122 35.5 Q100 59 87.5 95 Q75 131 75 181 L75 472 Q75 480 83 480 L117 480 Q125 480 125 472 L125 182 Q125 101 160.5 67.5 Q196 34 253 34 Q287 34 314.5 47 Q342 60 361.5 83.5 Q381 107 391 139.5 Q401 172 401 211 L401 472 Q401 480 409 480 L443 480 L443 480 Z M192 647 Q175 647 165.5 658 Q156 669 156 685 Q156 700 165.5 711 Q175 722 192 722 Q208 722 217.5 711 Q227 700 227 685 Q227 669 217.5 658 Q208 647 192 647 Z M332 647 Q315 647 305.5 658 Q296 669 296 685 Q296 700 305.5 711 Q315 722 332 722 Q348 722 357.5 711 Q367 700 367 685 Q367 669 357.5 658 Q348 647 332 647 Z " />
<glyph glyph-name="ugrave" unicode="&#xf9;" horiz-adv-x="524" d="M443 480 Q451 480 451 472 L451 8 Q451 0 443 0 L413 0 Q405 0 405 8 L404 97 L403 98 Q382 45 340.5 17.5 Q299 -10 242 -10 Q206 -10 175 1 Q144 12 122 35.5 Q100 59 87.5 95 Q75 131 75 181 L75 472 Q75 480 83 480 L117 480 Q125 480 125 472 L125 182 Q125 101 160.5 67.5 Q196 34 253 34 Q287 34 314.5 47 Q342 60 361.5 83.5 Q381 107 391 139.5 Q401 172 401 211 L401 472 Q401 480 409 480 L443 480 L443 480 Z M282 570 Q285 563 278 563 L256 563 Q249 563 243 569 L118 742 Q113 748 121 751 L159 764 Q161 765 163 765 Q168 765 171 760 L282 570 L282 570 Z " />
<glyph glyph-name="v" unicode="v" horiz-adv-x="485" d="M453 480 Q461 480 458 473 L269 7 Q265 0 258 0 L226 0 Q218 0 215 7 L26 473 Q22 480 31 480 L70 480 Q78 480 81 473 L243 62 L405 473 Q408 480 416 480 L453 480 L453 480 Z " />
<glyph glyph-name="w" unicode="w" horiz-adv-x="664" d="M635 480 Q642 480 641 472 L504 8 Q502 0 494 0 L464 0 Q455 0 454 8 L333 411 L211 8 Q209 0 201 0 L172 0 Q163 0 162 8 L23 472 L23 475 Q23 480 29 480 L66 480 Q75 480 76 472 L190 73 L308 472 Q310 480 318 480 L348 480 Q357 480 358 472 L479 75 L589 472 Q591 480 599 480 L635 480 L635 480 Z " />
<glyph glyph-name="x" unicode="x" horiz-adv-x="447" d="M429 13 Q433 7 433 5 Q433 0 423 0 L383 0 Q376 0 370 7 L225 211 L74 6 Q69 0 61 0 L24 0 Q14 0 14 5 Q14 8 18 13 L194 245 L31 467 Q28 471 28 475 Q28 480 38 480 L75 480 Q82 480 88 473 L225 282 L365 474 Q369 480 378 480 L414 480 Q424 480 424 475 Q424 472 420 467 L256 247 L429 13 L429 13 Z " />
<glyph glyph-name="y" unicode="y" horiz-adv-x="479" d="M456 480 Q464 480 461 473 L236 -53 Q184 -175 95 -175 Q51 -175 21 -159 Q14 -156 14 -147 L14 -117 Q14 -109 21 -113 Q36 -123 53 -128 Q70 -133 93 -133 Q125 -133 151 -110.5 Q177 -88 194 -46 L217 9 L16 473 Q12 480 21 480 L58 480 Q66 480 69 473 L241 66 L411 473 Q414 480 422 480 L456 480 L456 480 Z " />
<glyph glyph-name="yacute" unicode="&#xfd;" horiz-adv-x="479" d="M456 480 Q464 480 461 473 L236 -53 Q184 -175 95 -175 Q51 -175 21 -159 Q14 -156 14 -147 L14 -117 Q14 -109 21 -113 Q36 -123 53 -128 Q70 -133 93 -133 Q125 -133 151 -110.5 Q177 -88 194 -46 L217 9 L16 473 Q12 480 21 480 L58 480 Q66 480 69 473 L241 66 L411 473 Q414 480 422 480 L456 480 L456 480 Z M190 563 Q182 563 186 570 L297 760 Q300 767 309 764 L347 751 Q356 748 350 742 L225 569 Q220 563 212 563 L190 563 L190 563 Z " />
<glyph glyph-name="ydieresis" unicode="&#xff;" horiz-adv-x="479" d="M456 480 Q464 480 461 473 L236 -53 Q184 -175 95 -175 Q51 -175 21 -159 Q14 -156 14 -147 L14 -117 Q14 -109 21 -113 Q36 -123 53 -128 Q70 -133 93 -133 Q125 -133 151 -110.5 Q177 -88 194 -46 L217 9 L16 473 Q12 480 21 480 L58 480 Q66 480 69 473 L241 66 L411 473 Q414 480 422 480 L456 480 L456 480 Z M164 647 Q147 647 137.5 658 Q128 669 128 685 Q128 700 137.5 711 Q147 722 164 722 Q180 722 189.5 711 Q199 700 199 685 Q199 669 189.5 658 Q180 647 164 647 Z M304 647 Q287 647 277.5 658 Q268 669 268 685 Q268 700 277.5 711 Q287 722 304 722 Q320 722 329.5 711 Q339 700 339 685 Q339 669 329.5 658 Q320 647 304 647 Z " />
<glyph glyph-name="z" unicode="z" horiz-adv-x="442" d="M40 0 Q32 0 32 8 L32 15 Q32 24 37 29 L336 435 L59 435 Q51 435 51 443 L51 472 Q51 480 59 480 L394 480 Q402 480 402 472 L402 465 Q402 456 397 451 L98 45 L394 45 Q402 45 402 37 L402 8 Q402 0 394 0 L40 0 L40 0 Z " />
<glyph glyph-name="zcaron" unicode="&#x17e;" horiz-adv-x="449" d="M40 0 Q32 0 32 8 L32 15 Q32 24 37 29 L336 435 L59 435 Q51 435 51 443 L51 472 Q51 480 59 480 L394 480 Q402 480 402 472 L402 465 Q402 456 397 451 L98 45 L394 45 Q402 45 402 37 L402 8 Q402 0 394 0 L40 0 L40 0 Z M340 744 Q348 744 344 737 L234 574 Q231 567 222 567 L203 567 Q195 567 191 574 L81 737 Q78 744 85 744 L111 744 Q118 744 124 737 L213 612 L301 737 Q305 744 314 744 L340 744 L340 744 Z " />
<glyph glyph-name="fi" unicode="&#xfb01;" horiz-adv-x="553" d="M332 744 Q339 739 339 732 L339 711 Q339 701 333 701 Q329 701 325 703 Q297 716 263 716 Q221 716 196 692.5 Q171 669 171 614 L171 480 L321 480 Q329 480 329 472 L329 449 Q329 441 321 441 L171 441 L171 8 Q171 0 163 0 L129 0 Q121 0 121 8 L121 441 L39 441 Q31 441 31 449 L31 472 Q31 480 39 480 L121 480 L121 615 Q121 691 156 725 Q191 759 254 759 Q278 759 297.5 755 Q317 751 332 744 Z M442 639 Q422 639 411 652 Q400 665 400 682 Q400 700 411 713 Q422 726 442 726 Q461 726 472.5 713 Q484 700 484 682 Q484 665 472.5 652 Q461 639 442 639 Z M425 0 Q417 0 417 8 L417 472 Q417 480 425 480 L458 480 Q466 480 466 472 L466 8 Q466 0 458 0 L425 0 Z " />
<glyph glyph-name="fl" unicode="&#xfb02;" horiz-adv-x="587" d="M332 744 Q339 739 339 732 L339 711 Q339 701 333 701 Q329 701 325 703 Q297 716 263 716 Q221 716 196 692.5 Q171 669 171 614 L171 480 L321 480 Q329 480 329 472 L329 449 Q329 441 321 441 L171 441 L171 8 Q171 0 163 0 L129 0 Q121 0 121 8 L121 441 L39 441 Q31 441 31 449 L31 472 Q31 480 39 480 L121 480 L121 615 Q121 691 156 725 Q191 759 254 759 Q278 759 297.5 755 Q317 751 332 744 Z M502 -10 Q457 -10 433.5 13 Q410 36 410 89 L410 741 Q410 749 418 749 L452 749 Q460 749 460 741 L460 95 Q460 61 475 47.5 Q490 34 516 34 Q528 34 541.5 37 Q555 40 566 46 Q570 48 571 48 Q575 48 575 40 L575 14 Q575 6 568 3 Q539 -10 502 -10 Z " />
<glyph glyph-name="ordfeminine" unicode="&#xaa;" horiz-adv-x="395" d="M176 423 Q150 423 126 433 Q102 443 83.5 462 Q65 481 54 508.5 Q43 536 43 571 Q43 606 53.5 633.5 Q64 661 82 680 Q100 699 124 709 Q148 719 176 719 Q210 719 238.5 704 Q267 689 284 658 L284 704 Q284 711 291 711 L320 711 Q327 711 327 704 L327 436 Q327 429 320 429 L291 429 Q284 429 284 436 L284 488 Q266 456 237.5 439.5 Q209 423 176 423 Z M187 683 Q145 683 116 653.5 Q87 624 87 570 Q87 543 95.5 522.5 Q104 502 118 488 Q132 474 150 466.5 Q168 459 187 459 Q205 459 223 466.5 Q241 474 254.5 488 Q268 502 276.5 522.5 Q285 543 285 570 Q285 624 255.5 653.5 Q226 683 187 683 Z M335 361 Q342 361 342 354 L342 338 Q342 331 335 331 L60 331 Q53 331 53 338 L53 354 Q53 361 60 361 L335 361 Z " />
<glyph glyph-name="ordmasculine" unicode="&#xba;" horiz-adv-x="375" d="M188 430 Q157 430 130 441 Q103 452 83.5 471.5 Q64 491 53 517.5 Q42 544 42 576 Q42 607 53 633.5 Q64 660 83.5 679.5 Q103 699 130 709.5 Q157 720 188 720 Q219 720 245.5 709.5 Q272 699 291.5 679.5 Q311 660 322 633.5 Q333 607 333 576 Q333 544 322 517.5 Q311 491 291.5 471.5 Q272 452 245.5 441 Q219 430 188 430 Z M188 468 Q233 468 261.5 498 Q290 528 290 576 Q290 624 261.5 653 Q233 682 188 682 Q143 682 114 653 Q85 624 85 576 Q85 528 114 498 Q143 468 188 468 Z M61 336 Q54 336 54 343 L54 359 Q54 366 61 366 L319 366 Q326 366 326 359 L326 343 Q326 336 319 336 L61 336 Z " />
<glyph glyph-name="Delta" unicode="&#x394;" horiz-adv-x="627" d="M24 0 Q16 0 16 8 L16 16 Q16 23 19 31 L293 707 Q296 714 304 714 L323 714 Q331 714 334 707 L608 31 Q611 25 611 16 L611 8 Q611 0 603 0 L24 0 Z M556 42 L313 639 L71 42 L556 42 Z " />
<glyph glyph-name="Omega" unicode="&#x3a9;" horiz-adv-x="686" d="M68 0 Q60 0 60 8 L60 37 Q60 45 68 45 L258 45 L258 138 Q210 153 170 180.5 Q130 208 102 245.5 Q74 283 58.5 328.5 Q43 374 43 426 Q43 489 66 543 Q89 597 128.5 636.5 Q168 676 222 698 Q276 720 339 720 Q401 720 455 698 Q509 676 549 636.5 Q589 597 612 543 Q635 489 635 426 Q635 374 619.5 328.5 Q604 283 575.5 245.5 Q547 208 507.5 180.5 Q468 153 420 138 L420 45 L610 45 Q618 45 618 37 L618 8 Q618 0 610 0 L382 0 Q374 0 374 8 L374 140 Q374 148 382 151 Q425 166 461.5 191.5 Q498 217 525 250.5 Q552 284 567.5 326.5 Q583 369 583 419 Q583 474 564.5 520.5 Q546 567 513.5 601 Q481 635 436.5 654 Q392 673 339 673 Q286 673 241 654 Q196 635 163.5 601 Q131 567 112.5 520.5 Q94 474 94 419 Q94 369 109.5 326.5 Q125 284 152 250.5 Q179 217 216 191.5 Q253 166 296 151 Q304 148 304 140 L304 8 Q304 0 296 0 L68 0 L68 0 Z " />
<glyph glyph-name="mu" unicode="&#x3bc;" horiz-adv-x="525" d="M443 480 Q451 480 451 472 L451 8 Q451 0 443 0 L414 0 Q406 0 406 8 L405 99 L402 105 Q382 48 342.5 19 Q303 -10 247 -10 Q205 -10 172 5.5 Q139 21 120 56 L124 -158 Q124 -166 116 -166 L81 -166 Q73 -166 73 -158 L76 80 L74 472 Q74 480 82 480 L116 480 Q124 480 124 472 L124 178 Q124 97 158.5 63.5 Q193 30 250 30 Q321 30 361 82 Q401 134 401 219 L401 472 Q401 480 409 480 L443 480 L443 480 Z " />
<glyph glyph-name="pi" unicode="&#x3c0;" horiz-adv-x="515" d="M476 44 Q485 50 485 40 L485 15 Q485 7 478 3 Q465 -3 448 -6.5 Q431 -10 414 -10 Q370 -10 346.5 14.5 Q323 39 323 93 L323 437 L147 437 L147 8 Q147 0 139 0 L107 0 Q99 0 99 8 L99 437 L13 437 Q5 437 5 445 L5 472 Q5 480 13 480 L456 480 Q464 480 464 472 L464 445 Q464 437 456 437 L371 437 L371 100 Q371 64 386 48.5 Q401 33 427 33 Q439 33 452 36 Q465 39 476 44 Z " />
<glyph glyph-name="zero" unicode="0" horiz-adv-x="646" d="M323 -11 Q267 -11 219.5 12.5 Q172 36 137 82 Q102 128 82 195.5 Q62 263 62 352 Q62 440 82 509 Q102 578 137.5 624.5 Q173 671 220.5 695.5 Q268 720 323 720 Q377 720 424.5 695.5 Q472 671 507.5 624 Q543 577 563 508.5 Q583 440 583 352 Q583 264 563 196 Q543 128 508 82 Q473 36 425.5 12.5 Q378 -11 323 -11 Z M323 38 Q368 38 406.5 58 Q445 78 473 118 Q501 158 517 216.5 Q533 275 533 352 Q533 428 517 488 Q501 548 473 588.5 Q445 629 406.5 650.5 Q368 672 323 672 Q278 672 239.5 651 Q201 630 173 589 Q145 548 129 488.5 Q113 429 113 352 Q113 275 129 216.5 Q145 158 173 118 Q201 78 239.5 58 Q278 38 323 38 Z " />
<glyph glyph-name="one" unicode="1" horiz-adv-x="424" d="M263 710 Q271 710 271 702 L271 8 Q271 0 263 0 L228 0 Q220 0 220 8 L220 650 L57 570 Q50 565 50 574 L50 605 Q50 613 57 617 L237 706 Q242 710 252 710 L263 710 L263 710 Z " />
<glyph glyph-name="two" unicode="2" horiz-adv-x="534" d="M479 45 Q487 45 487 37 L487 8 Q487 0 479 0 L54 0 Q41 0 41 9 Q41 13 48 22 L293 321 Q317 351 337.5 377.5 Q358 404 373 429 Q388 454 396.5 479.5 Q405 505 405 534 Q405 564 392 590 Q379 616 355 634.5 Q331 653 298 664 Q265 675 225 675 Q177 675 136.5 664 Q96 653 67 636 Q57 631 56 631 Q53 631 53 636 L53 667 Q53 675 60 679 Q93 698 139 709 Q185 720 236 720 Q285 720 325.5 707 Q366 694 395 670.5 Q424 647 440 614 Q456 581 456 541 Q456 509 447.5 480.5 Q439 452 424 424.5 Q409 397 388 369.5 Q367 342 342 311 L120 45 L479 45 L479 45 Z " />
<glyph glyph-name="three" unicode="3" horiz-adv-x="528" d="M278 379 Q323 373 360 357 Q397 341 423 317 Q449 293 463 262 Q477 231 477 195 Q477 152 459 114.5 Q441 77 409 49.5 Q377 22 331.5 6 Q286 -10 231 -10 Q177 -10 133 -0.5 Q89 9 55 26 Q48 29 48 37 L48 71 Q48 79 55 75 Q90 58 131 47.5 Q172 37 228 37 Q272 37 308 49.5 Q344 62 370 83.5 Q396 105 410.5 134 Q425 163 425 197 Q425 266 362.5 309 Q300 352 183 352 L161 352 Q153 352 153 360 L153 389 Q153 397 161 397 L183 397 Q236 397 275.5 410 Q315 423 341.5 444 Q368 465 381 491 Q394 517 394 544 Q394 600 347.5 637 Q301 674 220 674 Q175 674 138.5 663 Q102 652 71 635 Q64 631 64 639 L64 674 Q64 682 71 685 Q103 700 142.5 710 Q182 720 226 720 Q277 720 317.5 707 Q358 694 386 671.5 Q414 649 429 618.5 Q444 588 444 553 Q444 525 433 497.5 Q422 470 401 446.5 Q380 423 349 405 Q318 387 278 379 Z " />
<glyph glyph-name="four" unicode="4" horiz-adv-x="576" d="M536 188 Q544 188 544 180 L544 152 Q544 144 536 144 L436 144 L436 8 Q436 0 428 0 L394 0 Q386 0 386 8 L386 144 L30 144 Q22 144 22 152 L22 174 Q22 183 27 189 L391 703 Q395 710 404 710 L428 710 Q436 710 436 702 L436 188 L536 188 Z M388 624 Q374 604 360.5 584 Q347 564 333 544 L74 188 L387 188 L387 530 Q387 552 387 576 Q387 600 388 624 Z " />
<glyph glyph-name="five" unicode="5" horiz-adv-x="539" d="M241 446 Q293 446 338 431 Q383 416 416.5 387.5 Q450 359 469 318.5 Q488 278 488 227 Q488 173 466.5 129.5 Q445 86 407.5 55 Q370 24 319 7 Q268 -10 209 -10 Q168 -10 128.5 -1.5 Q89 7 58 22 Q51 27 51 34 L51 65 Q51 70 54 70 Q55 70 55.5 69.5 Q56 69 57 69 Q90 53 128 44 Q166 35 205 35 Q254 35 296.5 48.5 Q339 62 370 87 Q401 112 418.5 147 Q436 182 436 225 Q436 266 420 299.5 Q404 333 375.5 356.5 Q347 380 308.5 393 Q270 406 224 406 Q193 406 168 400.5 Q143 395 124.5 389 Q106 383 94.5 377.5 Q83 372 78 372 Q71 372 71 380 Q71 385 74 399 L136 702 Q138 710 146 710 L447 710 Q455 710 455 702 L455 672 Q455 664 447 664 L173 664 L124 427 Q149 437 179 441.5 Q209 446 241 446 Z " />
<glyph glyph-name="six" unicode="6" horiz-adv-x="557" d="M285 429 Q333 429 374 413 Q415 397 445 368.5 Q475 340 492 299.5 Q509 259 509 211 Q509 163 490 122 Q471 81 439.5 52 Q408 23 366 6.5 Q324 -10 279 -10 Q231 -10 189 6 Q147 22 116 50.5 Q85 79 67 118.5 Q49 158 49 205 Q49 258 67 306.5 Q85 355 125 406 L364 704 Q368 710 377 710 L417 710 Q426 710 420 704 L202 438 L154 379 Q186 406 217.5 417.5 Q249 429 285 429 Z M279 35 Q316 35 349.5 48.5 Q383 62 408 86 Q433 110 447.5 142 Q462 174 462 211 Q462 251 448 283.5 Q434 316 409 339.5 Q384 363 350.5 375.5 Q317 388 277 388 Q239 388 206 374 Q173 360 148.5 335.5 Q124 311 110 278 Q96 245 96 206 Q96 170 110 139 Q124 108 148.5 85 Q173 62 206.5 48.5 Q240 35 279 35 Z " />
<glyph glyph-name="seven" unicode="7" horiz-adv-x="506" d="M475 710 Q483 710 479 703 L124 7 Q119 0 112 0 L74 0 Q66 0 70 7 L409 662 L57 662 Q49 662 49 670 L49 702 Q49 710 57 710 L475 710 L475 710 Z " />
<glyph glyph-name="eight" unicode="8" horiz-adv-x="588" d="M294 -8 Q246 -8 203.5 6.5 Q161 21 129.5 47.5 Q98 74 80 111 Q62 148 62 194 Q62 229 74 259.5 Q86 290 107 314 Q128 338 155.5 354.5 Q183 371 213 379 Q157 397 124.5 441.5 Q92 486 92 543 Q92 581 107.5 613.5 Q123 646 150 669.5 Q177 693 214 706.5 Q251 720 294 720 Q337 720 374 706.5 Q411 693 438 669.5 Q465 646 480.5 613.5 Q496 581 496 543 Q496 486 463.5 441.5 Q431 397 375 379 Q406 371 433.5 354.5 Q461 338 482 314 Q503 290 515 259.5 Q527 229 527 194 Q527 148 508.5 111 Q490 74 458.5 47.5 Q427 21 384.5 6.5 Q342 -8 294 -8 Z M294 397 Q330 397 358.5 408 Q387 419 407.5 438.5 Q428 458 439 484 Q450 510 450 540 Q450 569 438 594 Q426 619 405 637.5 Q384 656 355.5 666.5 Q327 677 294 677 Q262 677 233.5 666.5 Q205 656 184 637.5 Q163 619 151 594 Q139 569 139 540 Q139 511 150 485 Q161 459 181 439.5 Q201 420 229.5 408.5 Q258 397 294 397 Z M294 36 Q333 36 366.5 48 Q400 60 424.5 81.5 Q449 103 463 132 Q477 161 477 196 Q477 232 462 261.5 Q447 291 422 312 Q397 333 364 344.5 Q331 356 294 356 Q258 356 225 344.5 Q192 333 167 312 Q142 291 127 261.5 Q112 232 112 196 Q112 161 126 132 Q140 103 164.5 81.5 Q189 60 222 48 Q255 36 294 36 Z " />
<glyph glyph-name="nine" unicode="9" horiz-adv-x="557" d="M275 720 Q323 720 365 704 Q407 688 438 659.5 Q469 631 487 591.5 Q505 552 505 505 Q505 452 487 403.5 Q469 355 429 304 L190 6 Q185 0 177 0 L137 0 Q128 0 134 6 L352 272 L400 331 Q368 304 336.5 292.5 Q305 281 269 281 Q221 281 180 297 Q139 313 109 341.5 Q79 370 62 410.5 Q45 451 45 499 Q45 547 64 588 Q83 629 114.5 658 Q146 687 188 703.5 Q230 720 275 720 Z M277 322 Q315 322 348 336 Q381 350 405.5 374.5 Q430 399 444 432 Q458 465 458 504 Q458 540 444 571 Q430 602 405.5 625 Q381 648 347.5 661.5 Q314 675 275 675 Q238 675 204.5 661.5 Q171 648 146 624 Q121 600 106.5 568 Q92 536 92 499 Q92 459 106 426.5 Q120 394 144.5 370.5 Q169 347 203 334.5 Q237 322 277 322 Z " />
<glyph glyph-name="onesuperior" unicode="&#xb9;" horiz-adv-x="356" d="M216 844 Q224 844 224 836 L224 431 Q224 423 216 423 L195 423 Q187 423 187 431 L187 800 L68 754 Q61 750 61 759 L61 778 Q61 786 68 789 L196 841 Q202 844 209 844 L216 844 L216 844 Z " />
<glyph glyph-name="twosuperior" unicode="&#xb2;" horiz-adv-x="365" d="M306 455 Q314 455 314 447 L314 431 Q314 423 306 423 L41 423 Q34 423 39 429 L190 611 Q219 646 238 674 Q257 702 257 734 Q257 770 228 793.5 Q199 817 153 817 Q126 817 101 809 Q76 801 56 787 Q49 783 49 790 L49 810 Q49 818 56 822 Q76 835 104 842.5 Q132 850 162 850 Q222 850 258 820 Q294 790 294 742 Q294 704 275.5 673.5 Q257 643 227 605 L99 455 L306 455 L306 455 Z " />
<glyph glyph-name="threesuperior" unicode="&#xb3;" horiz-adv-x="360" d="M193 648 Q249 640 280.5 611 Q312 582 312 540 Q312 514 301 491.5 Q290 469 270 452.5 Q250 436 222 426.5 Q194 417 160 417 Q128 417 102 422.5 Q76 428 56 437 Q49 440 49 448 L49 466 Q49 474 56 471 Q76 462 100 456 Q124 450 156 450 Q208 450 239.5 476.5 Q271 503 271 542 Q271 580 234.5 605 Q198 630 131 630 L119 630 Q111 630 111 638 L111 652 Q111 660 119 660 L130 660 Q161 660 184.5 667.5 Q208 675 223.5 687 Q239 699 246.5 714 Q254 729 254 744 Q254 776 226.5 797 Q199 818 152 818 Q126 818 105 812.5 Q84 807 65 798 Q58 793 58 802 L58 820 Q58 828 65 831 Q85 839 108.5 844.5 Q132 850 157 850 Q221 850 256.5 821.5 Q292 793 292 751 Q292 718 267 688.5 Q242 659 193 648 Z " />
<glyph glyph-name="fraction" unicode="&#x2044;" horiz-adv-x="115" d="M-187 -14 Q-194 -10 -190 -3 L267 720 Q271 727 278 723 L287 717 Q294 713 290 706 L-167 -17 Q-171 -24 -178 -20 L-187 -14 L-187 -14 Z " />
<glyph glyph-name="onehalf" unicode="&#xbd;" horiz-adv-x="841" d="M216 714 Q224 714 224 706 L224 301 Q224 293 216 293 L195 293 Q187 293 187 301 L187 670 L68 624 Q61 620 61 629 L61 648 Q61 656 68 659 L196 711 Q202 714 209 714 L216 714 L216 714 Z M174 -14 Q167 -10 171 -3 L628 720 Q632 727 639 723 L648 717 Q655 713 651 706 L194 -17 Q190 -24 183 -20 L174 -14 L174 -14 Z M782 32 Q790 32 790 24 L790 8 Q790 0 782 0 L517 0 Q510 0 515 6 L666 188 Q695 223 714 251 Q733 279 733 311 Q733 347 704 370.5 Q675 394 629 394 Q602 394 577 386 Q552 378 532 364 Q525 360 525 367 L525 387 Q525 395 532 399 Q552 412 580 419.5 Q608 427 638 427 Q698 427 734 397 Q770 367 770 319 Q770 281 751.5 250.5 Q733 220 703 182 L575 32 L782 32 L782 32 Z " />
<glyph glyph-name="onequarter" unicode="&#xbc;" horiz-adv-x="742" d="M216 714 Q224 714 224 706 L224 301 Q224 293 216 293 L195 293 Q187 293 187 301 L187 670 L68 624 Q61 620 61 629 L61 648 Q61 656 68 659 L196 711 Q202 714 209 714 L216 714 L216 714 Z M174 -14 Q167 -10 171 -3 L628 720 Q632 727 639 723 L648 717 Q655 713 651 706 L194 -17 Q190 -24 183 -20 L174 -14 L174 -14 Z M711 114 Q719 114 719 106 L719 90 Q719 82 711 82 L658 82 L658 8 Q658 0 650 0 L630 0 Q622 0 622 8 L622 82 L425 82 Q418 82 418 89 L418 105 Q418 111 422 118 L623 415 Q627 421 634 421 L650 421 Q658 421 658 413 L658 114 L711 114 Z M623 114 L623 361 L454 114 L623 114 Z " />
<glyph glyph-name="threequarters" unicode="&#xbe;" horiz-adv-x="741" d="M193 518 Q249 510 280.5 481 Q312 452 312 410 Q312 384 301 361.5 Q290 339 270 322.5 Q250 306 222 296.5 Q194 287 160 287 Q128 287 102 292.5 Q76 298 56 307 Q49 310 49 318 L49 336 Q49 344 56 341 Q76 332 100 326 Q124 320 156 320 Q208 320 239.5 346.5 Q271 373 271 412 Q271 450 234.5 475 Q198 500 131 500 L119 500 Q111 500 111 508 L111 522 Q111 530 119 530 L130 530 Q161 530 184.5 537.5 Q208 545 223.5 557 Q239 569 246.5 584 Q254 599 254 614 Q254 646 226.5 667 Q199 688 152 688 Q126 688 105 682.5 Q84 677 65 668 Q58 663 58 672 L58 690 Q58 698 65 701 Q85 709 108.5 714.5 Q132 720 157 720 Q221 720 256.5 691.5 Q292 663 292 621 Q292 588 267 558.5 Q242 529 193 518 Z M173 -14 Q166 -10 170 -3 L627 720 Q631 727 638 723 L647 717 Q654 713 650 706 L193 -17 Q189 -24 182 -20 L173 -14 L173 -14 Z M710 114 Q718 114 718 106 L718 90 Q718 82 710 82 L657 82 L657 8 Q657 0 649 0 L629 0 Q621 0 621 8 L621 82 L424 82 Q417 82 417 89 L417 105 Q417 111 421 118 L622 415 Q626 421 633 421 L649 421 Q657 421 657 413 L657 114 L710 114 Z M622 114 L622 361 L453 114 L622 114 Z " />
<glyph glyph-name="oneeighth" unicode="&#x215b;" horiz-adv-x="840" d="M216 714 Q224 714 224 706 L224 301 Q224 293 216 293 L195 293 Q187 293 187 301 L187 670 L68 624 Q61 620 61 629 L61 648 Q61 656 68 659 L196 711 Q202 714 209 714 L216 714 L216 714 Z M174 -14 Q167 -10 171 -3 L628 720 Q632 727 639 723 L648 717 Q655 713 651 706 L194 -17 Q190 -24 183 -20 L174 -14 L174 -14 Z M658 -5 Q629 -5 603 3.5 Q577 12 557.5 27.5 Q538 43 527 65.5 Q516 88 516 116 Q516 158 543 186 Q570 214 607 224 Q574 235 554.5 261 Q535 287 535 322 Q535 369 570 398 Q605 427 658 427 Q711 427 746 398 Q781 369 781 322 Q781 287 761.5 261 Q742 235 709 224 Q746 214 773 186 Q800 158 800 116 Q800 88 789 65.5 Q778 43 758.5 27.5 Q739 12 713.5 3.5 Q688 -5 658 -5 Z M658 237 Q700 237 724 260 Q748 283 748 318 Q748 353 722 375.5 Q696 398 658 398 Q620 398 594 375.5 Q568 353 568 318 Q568 283 592 260 Q616 237 658 237 Z M658 25 Q704 25 734.5 51 Q765 77 765 118 Q765 137 756.5 154 Q748 171 733 183 Q718 195 698.5 202 Q679 209 658 209 Q637 209 617.5 202 Q598 195 583.5 183 Q569 171 560.5 154 Q552 137 552 118 Q552 77 582.5 51 Q613 25 658 25 Z " />
<glyph glyph-name="threeeighths" unicode="&#x215c;" horiz-adv-x="839" d="M193 518 Q249 510 280.5 481 Q312 452 312 410 Q312 384 301 361.5 Q290 339 270 322.5 Q250 306 222 296.5 Q194 287 160 287 Q128 287 102 292.5 Q76 298 56 307 Q49 310 49 318 L49 336 Q49 344 56 341 Q76 332 100 326 Q124 320 156 320 Q208 320 239.5 346.5 Q271 373 271 412 Q271 450 234.5 475 Q198 500 131 500 L119 500 Q111 500 111 508 L111 522 Q111 530 119 530 L130 530 Q161 530 184.5 537.5 Q208 545 223.5 557 Q239 569 246.5 584 Q254 599 254 614 Q254 646 226.5 667 Q199 688 152 688 Q126 688 105 682.5 Q84 677 65 668 Q58 663 58 672 L58 690 Q58 698 65 701 Q85 709 108.5 714.5 Q132 720 157 720 Q221 720 256.5 691.5 Q292 663 292 621 Q292 588 267 558.5 Q242 529 193 518 Z M173 -14 Q166 -10 170 -3 L627 720 Q631 727 638 723 L647 717 Q654 713 650 706 L193 -17 Q189 -24 182 -20 L173 -14 L173 -14 Z M657 -5 Q628 -5 602 3.5 Q576 12 556.5 27.5 Q537 43 526 65.5 Q515 88 515 116 Q515 158 542 186 Q569 214 606 224 Q573 235 553.5 261 Q534 287 534 322 Q534 369 569 398 Q604 427 657 427 Q710 427 745 398 Q780 369 780 322 Q780 287 760.5 261 Q741 235 708 224 Q745 214 772 186 Q799 158 799 116 Q799 88 788 65.5 Q777 43 757.5 27.5 Q738 12 712.5 3.5 Q687 -5 657 -5 Z M657 237 Q699 237 723 260 Q747 283 747 318 Q747 353 721 375.5 Q695 398 657 398 Q619 398 593 375.5 Q567 353 567 318 Q567 283 591 260 Q615 237 657 237 Z M657 25 Q703 25 733.5 51 Q764 77 764 118 Q764 137 755.5 154 Q747 171 732 183 Q717 195 697.5 202 Q678 209 657 209 Q636 209 616.5 202 Q597 195 582.5 183 Q568 171 559.5 154 Q551 137 551 118 Q551 77 581.5 51 Q612 25 657 25 Z " />
<glyph glyph-name="fiveeighths" unicode="&#x215d;" horiz-adv-x="843" d="M167 559 Q197 559 223 550 Q249 541 268.5 524 Q288 507 299 483 Q310 459 310 428 Q310 396 297.5 370 Q285 344 263 325.5 Q241 307 211.5 297 Q182 287 148 287 Q125 287 103 291.5 Q81 296 64 304 Q57 307 57 316 L57 334 Q57 342 64 338 Q82 330 102.5 325 Q123 320 143 320 Q198 320 233.5 349.5 Q269 379 269 427 Q269 474 236.5 501.5 Q204 529 153 529 Q136 529 114.5 524.5 Q93 520 73 510 Q66 506 67 514 L104 706 Q104 714 113 714 L283 714 Q291 714 291 706 L291 689 Q291 681 283 681 L133 681 L107 550 Q134 559 167 559 Z M177 -14 Q170 -10 174 -3 L631 720 Q635 727 642 723 L651 717 Q658 713 654 706 L197 -17 Q193 -24 186 -20 L177 -14 L177 -14 Z M662 -5 Q633 -5 607 3.5 Q581 12 561.5 27.5 Q542 43 531 65.5 Q520 88 520 116 Q520 158 547 186 Q574 214 611 224 Q578 235 558.5 261 Q539 287 539 322 Q539 369 574 398 Q609 427 662 427 Q715 427 750 398 Q785 369 785 322 Q785 287 765.5 261 Q746 235 713 224 Q750 214 777 186 Q804 158 804 116 Q804 88 793 65.5 Q782 43 762.5 27.5 Q743 12 717.5 3.5 Q692 -5 662 -5 Z M662 237 Q704 237 728 260 Q752 283 752 318 Q752 353 726 375.5 Q700 398 662 398 Q624 398 598 375.5 Q572 353 572 318 Q572 283 596 260 Q620 237 662 237 Z M662 25 Q708 25 738.5 51 Q769 77 769 118 Q769 137 760.5 154 Q752 171 737 183 Q722 195 702.5 202 Q683 209 662 209 Q641 209 621.5 202 Q602 195 587.5 183 Q573 171 564.5 154 Q556 137 556 118 Q556 77 586.5 51 Q617 25 662 25 Z " />
<glyph glyph-name="seveneighths" unicode="&#x215e;" horiz-adv-x="777" d="M310 714 Q318 714 314 707 L105 300 Q100 293 93 293 L69 293 Q61 293 65 300 L262 679 L58 679 Q50 679 50 687 L50 706 Q50 714 58 714 L310 714 L310 714 Z M111 -14 Q104 -10 108 -3 L565 720 Q569 727 576 723 L585 717 Q592 713 588 706 L131 -17 Q127 -24 120 -20 L111 -14 L111 -14 Z M595 -5 Q566 -5 540 3.5 Q514 12 494.5 27.5 Q475 43 464 65.5 Q453 88 453 116 Q453 158 480 186 Q507 214 544 224 Q511 235 491.5 261 Q472 287 472 322 Q472 369 507 398 Q542 427 595 427 Q648 427 683 398 Q718 369 718 322 Q718 287 698.5 261 Q679 235 646 224 Q683 214 710 186 Q737 158 737 116 Q737 88 726 65.5 Q715 43 695.5 27.5 Q676 12 650.5 3.5 Q625 -5 595 -5 Z M595 237 Q637 237 661 260 Q685 283 685 318 Q685 353 659 375.5 Q633 398 595 398 Q557 398 531 375.5 Q505 353 505 318 Q505 283 529 260 Q553 237 595 237 Z M595 25 Q641 25 671.5 51 Q702 77 702 118 Q702 137 693.5 154 Q685 171 670 183 Q655 195 635.5 202 Q616 209 595 209 Q574 209 554.5 202 Q535 195 520.5 183 Q506 171 497.5 154 Q489 137 489 118 Q489 77 519.5 51 Q550 25 595 25 Z " />
<glyph glyph-name="asterisk" unicode="&#x2a;" horiz-adv-x="397" d="M361 581 Q362 579 362 577 Q362 572 356 571 L325 564 L310 561 L214 539 L280 465 Q283 463 285.5 460 Q288 457 291 453 L310 429 Q316 423 309 418 L284 400 Q278 396 273 402 L257 429 L249 443 L198 527 L149 443 L141 429 L124 403 Q119 396 113 401 L88 419 Q82 424 87 430 L107 453 L118 465 L183 539 L87 560 Q83 561 79.5 562 Q76 563 72 564 L41 572 Q33 574 36 581 L46 611 Q48 619 56 615 L84 603 L99 597 L189 558 L180 655 Q179 659 179 662.5 Q179 666 178 671 L177 702 L177 704 Q177 710 184 710 L215 710 Q223 710 222 702 L220 671 Q219 667 219 663.5 Q219 660 218 655 L209 558 L298 597 Q303 599 313 604 L342 615 Q343 616 346 616 Q350 616 352 610 L361 581 L361 581 Z " />
<glyph glyph-name="backslash" unicode="&#x5c;" horiz-adv-x="328" d="M325 -94 Q328 -102 320 -102 L297 -102 Q289 -102 286 -94 L5 756 Q2 764 10 764 L33 764 Q41 764 44 756 L325 -94 L325 -94 Z " />
<glyph glyph-name="periodcentered" unicode="&#xb7;" horiz-adv-x="213" d="M107 207 Q84 207 71 222.5 Q58 238 58 259 Q58 280 71 295 Q84 310 107 310 Q129 310 142 295 Q155 280 155 259 Q155 238 142 222.5 Q129 207 107 207 Z " />
<glyph glyph-name="bullet" unicode="&#x2022;" horiz-adv-x="262" d="M132 243 Q98 243 78 266 Q58 289 58 321 Q58 353 78 375 Q98 397 132 397 Q164 397 184 375 Q204 353 204 321 Q204 289 184 266 Q164 243 132 243 Z " />
<glyph glyph-name="colon" unicode="&#x3a;" horiz-adv-x="211" d="M106 305 Q83 305 70.5 320.5 Q58 336 58 357 Q58 377 70.5 392 Q83 407 106 407 Q128 407 141 392 Q154 377 154 357 Q154 336 141 320.5 Q128 305 106 305 Z M106 -9 Q83 -9 70.5 6.5 Q58 22 58 43 Q58 63 70.5 78 Q83 93 106 93 Q128 93 141 78 Q154 63 154 43 Q154 22 141 6.5 Q128 -9 106 -9 Z " />
<glyph glyph-name="comma" unicode="&#x2c;" horiz-adv-x="213" d="M106 96 Q126 96 141 82 Q156 68 156 45 Q156 28 149 10.5 Q142 -7 134 -26 L89 -131 Q86 -138 79 -138 L69 -138 Q60 -138 63 -129 L100 -7 Q83 -5 70.5 8.5 Q58 22 58 43 Q58 68 73 82 Q88 96 106 96 Z " />
<glyph glyph-name="ellipsis" unicode="&#x2026;" horiz-adv-x="591" d="M107 -7 Q84 -7 71 8.5 Q58 24 58 45 Q58 66 71 81 Q84 96 107 96 Q129 96 142 81 Q155 66 155 45 Q155 24 142 8.5 Q129 -7 107 -7 Z M296 -7 Q273 -7 260 8.5 Q247 24 247 45 Q247 66 260 81 Q273 96 296 96 Q318 96 331 81 Q344 66 344 45 Q344 24 331 8.5 Q318 -7 296 -7 Z M485 -7 Q462 -7 449 8.5 Q436 24 436 45 Q436 66 449 81 Q462 96 485 96 Q507 96 520 81 Q533 66 533 45 Q533 24 520 8.5 Q507 -7 485 -7 Z " />
<glyph glyph-name="exclam" unicode="&#x21;" horiz-adv-x="216" d="M96 171 Q88 171 88 179 L81 702 Q81 710 89 710 L126 710 Q134 710 134 702 L127 179 Q127 171 119 171 L96 171 Z M109 -7 Q86 -7 73 8.5 Q60 24 60 45 Q60 66 73 81 Q86 96 109 96 Q131 96 144 81 Q157 66 157 45 Q157 24 144 8.5 Q131 -7 109 -7 Z " />
<glyph glyph-name="exclamdown" unicode="&#xa1;" horiz-adv-x="216" d="M109 720 Q131 720 144 704.5 Q157 689 157 668 Q157 647 144 632 Q131 617 109 617 Q86 617 73 632 Q60 647 60 668 Q60 689 73 704.5 Q86 720 109 720 Z M88 534 Q88 542 96 542 L119 542 Q127 542 127 534 L134 11 Q134 3 126 3 L89 3 Q81 3 81 11 L88 534 Z " />
<glyph glyph-name="numbersign" unicode="&#x23;" horiz-adv-x="631" d="M591 512 Q599 512 599 504 L599 482 Q599 476 593 476 L463 476 L418 255 L564 255 Q570 255 570 249 L570 225 Q570 219 564 219 L410 219 L367 8 Q365 0 357 0 L334 0 Q328 0 329 5 L373 219 L189 219 L145 6 Q143 0 138 0 L116 0 Q107 0 110 8 L153 219 L49 219 Q41 219 41 227 L41 247 Q41 255 49 255 L161 255 L206 476 L76 476 Q70 476 70 482 L70 504 Q70 512 78 512 L214 512 L253 702 Q255 710 263 710 L286 710 Q292 710 291 705 L251 512 L434 512 L474 704 Q475 710 481 710 L504 710 Q513 710 510 702 L471 512 L591 512 Z M427 476 L243 476 L197 255 L381 255 L427 476 Z " />
<glyph glyph-name="period" unicode="&#x2e;" horiz-adv-x="213" d="M107 -7 Q84 -7 71 8.5 Q58 24 58 45 Q58 66 71 81 Q84 96 107 96 Q129 96 142 81 Q155 66 155 45 Q155 24 142 8.5 Q129 -7 107 -7 Z " />
<glyph glyph-name="question" unicode="&#x3f;" horiz-adv-x="482" d="M190 161 Q183 161 183 168 L179 319 Q179 327 186 330 Q220 348 253 367 Q286 386 311.5 410 Q337 434 352.5 464 Q368 494 368 532 Q368 565 355 591 Q342 617 319 636 Q296 655 264.5 665 Q233 675 196 675 Q151 675 114 665 Q77 655 46 639 Q39 634 39 643 L39 673 Q39 681 46 685 Q75 700 117 710 Q159 720 204 720 Q252 720 292 706.5 Q332 693 360 669 Q388 645 403.5 611.5 Q419 578 419 538 Q419 492 401.5 456.5 Q384 421 356.5 393.5 Q329 366 294 344.5 Q259 323 224 305 L220 168 Q220 161 213 161 L190 161 Z M200 -7 Q177 -7 163.5 8 Q150 23 150 43 Q150 63 163.5 78 Q177 93 200 93 Q222 93 235.5 78 Q249 63 249 43 Q249 23 235.5 8 Q222 -7 200 -7 Z " />
<glyph glyph-name="questiondown" unicode="&#xbf;" horiz-adv-x="482" d="M282 720 Q305 720 318.5 705 Q332 690 332 670 Q332 650 318.5 635 Q305 620 282 620 Q260 620 246.5 635 Q233 650 233 670 Q233 690 246.5 705 Q260 720 282 720 Z M292 552 Q299 552 299 545 L303 394 Q303 386 296 383 Q261 365 228.5 346 Q196 327 170.5 303 Q145 279 129.5 249 Q114 219 114 181 Q114 148 127 122 Q140 96 163 77 Q186 58 217.5 48 Q249 38 286 38 Q331 38 368 48 Q405 58 436 74 Q443 79 443 70 L443 40 Q443 32 436 28 Q407 13 365 3 Q323 -7 278 -7 Q230 -7 190 6 Q150 19 122 43 Q94 67 78.5 100.5 Q63 134 63 175 Q63 221 80 256.5 Q97 292 125 319.5 Q153 347 188 368.5 Q223 390 258 408 L262 545 Q262 552 269 552 L292 552 Z " />
<glyph glyph-name="quotedbl" unicode="&#x22;" horiz-adv-x="332" d="M69 495 Q61 495 61 503 L52 702 Q52 710 60 710 L97 710 Q105 710 105 702 L95 503 Q95 495 87 495 L69 495 Z M201 495 Q193 495 193 503 L184 702 Q184 710 192 710 L229 710 Q237 710 237 702 L227 503 Q227 495 219 495 L201 495 Z " />
<glyph glyph-name="quotesingle" unicode="&#x27;" horiz-adv-x="181" d="M81 495 Q73 495 73 503 L64 702 Q64 710 72 710 L109 710 Q117 710 117 702 L107 503 Q107 495 99 495 L81 495 L81 495 Z " />
<glyph glyph-name="semicolon" unicode="&#x3b;" horiz-adv-x="212" d="M107 303 Q84 303 71 318.5 Q58 334 58 355 Q58 376 71 391 Q84 406 107 406 Q129 406 142 391 Q155 376 155 355 Q155 334 142 318.5 Q129 303 107 303 Z M106 94 Q126 94 140.5 80.5 Q155 67 155 44 Q155 27 148.5 9.5 Q142 -8 134 -27 L89 -131 Q86 -138 79 -138 L69 -138 Q60 -138 63 -129 L99 -8 Q82 -6 70 7.5 Q58 21 58 42 Q58 66 73 80 Q88 94 106 94 Z " />
<glyph glyph-name="slash" unicode="&#x2f;" horiz-adv-x="328" d="M11 -102 Q3 -102 6 -94 L287 756 Q290 764 298 764 L321 764 Q329 764 326 756 L45 -94 Q42 -102 34 -102 L11 -102 L11 -102 Z " />
<glyph glyph-name="underscore" unicode="&#x5f;" horiz-adv-x="525" d="M70 -128 Q62 -128 62 -120 L62 -93 Q62 -85 70 -85 L454 -85 Q462 -85 462 -93 L462 -120 Q462 -128 454 -128 L70 -128 L70 -128 Z " />
<glyph glyph-name="braceleft" unicode="&#x7b;" horiz-adv-x="235" d="M160 682 Q130 682 113 665.5 Q96 649 96 620 Q96 597 106.5 566.5 Q117 536 129.5 503.5 Q142 471 152.5 439.5 Q163 408 163 382 Q163 355 147.5 330 Q132 305 97 298 Q132 290 147.5 265 Q163 240 163 213 Q163 187 152.5 155.5 Q142 124 129.5 91.5 Q117 59 106.5 28.5 Q96 -2 96 -25 Q96 -54 113 -70.5 Q130 -87 160 -87 Q180 -87 193 -83 L196 -83 Q201 -83 201 -89 L201 -105 Q201 -114 193 -115 Q185 -117 173.5 -119 Q162 -121 148 -121 Q98 -121 75.5 -95 Q53 -69 53 -30 Q53 -3 63.5 29.5 Q74 62 87 94.5 Q100 127 110.5 157 Q121 187 121 211 Q121 234 108 254 Q95 274 57 278 Q49 280 49 287 L49 308 Q49 316 57 317 Q95 321 108 341 Q121 361 121 384 Q121 408 110.5 438 Q100 468 87 500.5 Q74 533 63.5 565.5 Q53 598 53 625 Q53 664 75.5 690 Q98 716 148 716 Q162 716 173.5 714 Q185 712 193 710 Q201 708 201 700 L201 684 Q201 677 193 678 Q180 682 160 682 Z " />
<glyph glyph-name="braceright" unicode="&#x7d;" horiz-adv-x="235" d="M181 317 Q189 315 189 308 L189 287 Q189 279 181 278 Q143 274 130 254 Q117 234 117 211 Q117 187 127.5 157 Q138 127 151 94.5 Q164 62 174.5 29.5 Q185 -3 185 -30 Q185 -69 162.5 -95 Q140 -121 90 -121 Q76 -121 64.5 -119 Q53 -117 45 -115 Q37 -113 37 -105 L37 -89 Q37 -82 45 -83 Q58 -87 78 -87 Q108 -87 125 -70.5 Q142 -54 142 -25 Q142 -2 131.5 28.5 Q121 59 108.5 91.5 Q96 124 85.5 155.5 Q75 187 75 213 Q75 240 90.5 265 Q106 290 141 298 Q106 305 90.5 330 Q75 355 75 382 Q75 408 85.5 439.5 Q96 471 108.5 503.5 Q121 536 131.5 566.5 Q142 597 142 620 Q142 649 125 665.5 Q108 682 78 682 Q58 682 45 678 L42 678 Q37 678 37 684 L37 700 Q37 709 45 710 Q53 712 64.5 714 Q76 716 90 716 Q140 716 162.5 690 Q185 664 185 625 Q185 598 174.5 565.5 Q164 533 151 500.5 Q138 468 127.5 438 Q117 408 117 384 Q117 361 130 341 Q143 321 181 317 Z " />
<glyph glyph-name="bracketleft" unicode="&#x5b;" horiz-adv-x="276" d="M232 -109 Q232 -117 224 -117 L89 -117 Q81 -117 81 -109 L81 702 Q81 710 89 710 L217 710 Q225 710 225 702 L225 681 Q225 673 217 673 L122 673 L122 -80 L224 -80 Q232 -80 232 -88 L232 -109 L232 -109 Z " />
<glyph glyph-name="bracketright" unicode="&#x5d;" horiz-adv-x="276" d="M52 -117 Q44 -117 44 -109 L44 -88 Q44 -80 52 -80 L154 -80 L154 673 L59 673 Q51 673 51 681 L51 702 Q51 710 59 710 L187 710 Q195 710 195 702 L195 -109 Q195 -117 187 -117 L52 -117 L52 -117 Z " />
<glyph glyph-name="parenleft" unicode="&#x28;" horiz-adv-x="285" d="M258 -103 Q262 -109 255 -109 L230 -109 Q222 -109 216 -103 Q179 -64 149.5 -17.5 Q120 29 99.5 81 Q79 133 68 189 Q57 245 57 301 Q57 357 68 412.5 Q79 468 99.5 520 Q120 572 149.5 618.5 Q179 665 216 704 Q222 710 230 710 L255 710 Q263 710 258 704 Q221 663 192 614 Q163 565 142.5 512 Q122 459 111.5 405 Q101 351 101 301 Q101 250 111.5 196 Q122 142 142.5 89 Q163 36 192 -13 Q221 -62 258 -103 Z " />
<glyph glyph-name="parenright" unicode="&#x29;" horiz-adv-x="285" d="M30 -109 Q22 -109 27 -103 Q64 -62 93 -13 Q122 36 142 89 Q162 142 173 196 Q184 250 184 301 Q184 351 173 405 Q162 459 142 512 Q122 565 93 614 Q64 663 27 704 Q22 710 30 710 L55 710 Q63 710 69 704 Q106 665 135.5 618.5 Q165 572 185.5 520 Q206 468 217 412.5 Q228 357 228 301 Q228 245 217 189 Q206 133 185.5 81 Q165 29 135.5 -17.5 Q106 -64 69 -103 Q63 -109 55 -109 L30 -109 L30 -109 Z " />
<glyph glyph-name="emdash" unicode="&#x2014;" horiz-adv-x="884" d="M70 238 Q62 238 62 246 L62 272 Q62 280 70 280 L813 280 Q821 280 821 272 L821 246 Q821 238 813 238 L70 238 L70 238 Z " />
<glyph glyph-name="endash" unicode="&#x2013;" horiz-adv-x="525" d="M70 238 Q62 238 62 246 L62 273 Q62 281 70 281 L454 281 Q462 281 462 273 L462 246 Q462 238 454 238 L70 238 L70 238 Z " />
<glyph glyph-name="hyphen" unicode="&#x2d;" horiz-adv-x="393" d="M70 238 Q62 238 62 246 L62 273 Q62 281 70 281 L323 281 Q331 281 331 273 L331 246 Q331 238 323 238 L70 238 L70 238 Z " />
<glyph glyph-name="softhyphen" unicode="&#xad;" horiz-adv-x="393" d="M70 238 Q62 238 62 246 L62 273 Q62 281 70 281 L323 281 Q331 281 331 273 L331 246 Q331 238 323 238 L70 238 L70 238 Z " />
<glyph glyph-name="guillemetleft" unicode="&#xab;" horiz-adv-x="526" d="M241 51 Q238 48 236 48 Q234 48 231 51 L62 246 Q60 248 60 252 Q60 256 62 258 L230 441 Q231 444 235 444 Q238 444 241 441 L257 424 Q260 421 260 417 Q260 416 258 412 L115 252 L258 84 Q260 78 260 77 Q260 74 258 72 L241 51 Z M418 51 Q415 48 413 48 Q411 48 408 51 L239 246 Q237 248 237 252 Q237 256 239 258 L407 441 Q408 444 412 444 Q415 444 418 441 L434 424 Q437 421 437 417 Q437 416 435 412 L292 252 L435 84 Q437 78 437 77 Q437 74 435 72 L418 51 Z " />
<glyph glyph-name="guillemetright" unicode="&#xbb;" horiz-adv-x="526" d="M118 51 Q115 48 113 48 Q111 48 108 51 L91 72 Q89 74 89 79 Q89 82 91 84 L234 252 L91 412 Q89 414 89 417 Q89 421 92 424 L108 441 Q111 444 114 444 Q116 444 119 441 L287 258 Q289 252 289 251 Q289 248 287 246 L118 51 Z M295 51 Q292 48 290 48 Q288 48 285 51 L268 72 Q266 74 266 79 Q266 82 268 84 L411 252 L268 412 Q266 414 266 417 Q266 421 269 424 L285 441 Q288 444 291 444 Q293 444 296 441 L464 258 Q466 252 466 251 Q466 248 464 246 L295 51 Z " />
<glyph glyph-name="guilsinglleft" unicode="&#x2039;" horiz-adv-x="349" d="M241 51 Q238 48 236 48 Q234 48 231 51 L62 246 Q60 248 60 252 Q60 256 62 258 L230 441 Q231 444 235 444 Q238 444 241 441 L257 424 Q260 421 260 417 Q260 416 258 412 L115 252 L258 84 Q260 78 260 77 Q260 74 258 72 L241 51 Z " />
<glyph glyph-name="guilsinglright" unicode="&#x203a;" horiz-adv-x="349" d="M118 51 Q115 48 113 48 Q111 48 108 51 L91 72 Q89 74 89 79 Q89 82 91 84 L234 252 L91 412 Q89 414 89 417 Q89 421 92 424 L108 441 Q111 444 114 444 Q116 444 119 441 L287 258 Q289 252 289 251 Q289 248 287 246 L118 51 Z " />
<glyph glyph-name="quotedblbase" unicode="&#x201e;" horiz-adv-x="370" d="M104 96 Q124 96 139 82 Q154 68 154 45 Q154 28 147 10.5 Q140 -7 132 -26 L87 -131 Q84 -138 77 -138 L67 -138 Q58 -138 61 -129 L98 -7 Q81 -5 68.5 8.5 Q56 22 56 43 Q56 68 71 82 Q86 96 104 96 Z M261 96 Q281 96 296 82 Q311 68 311 45 Q311 28 304 10.5 Q297 -7 289 -26 L244 -131 Q241 -138 234 -138 L224 -138 Q215 -138 218 -129 L255 -7 Q238 -5 225.5 8.5 Q213 22 213 43 Q213 68 228 82 Q243 96 261 96 Z " />
<glyph glyph-name="quotedblleft" unicode="&#x201c;" horiz-adv-x="368" d="M87 579 Q104 577 116.5 563.5 Q129 550 129 529 Q129 504 114 490 Q99 476 81 476 Q61 476 46 490 Q31 504 31 527 Q31 544 38 561.5 Q45 579 53 598 L98 703 Q101 710 108 710 L118 710 Q127 710 124 701 L87 579 L87 579 Z M244 579 Q261 577 273.5 563.5 Q286 550 286 529 Q286 504 271 490 Q256 476 238 476 Q218 476 203 490 Q188 504 188 527 Q188 544 195 561.5 Q202 579 210 598 L255 703 Q258 710 265 710 L275 710 Q284 710 281 701 L244 579 L244 579 Z " />
<glyph glyph-name="quotedblright" unicode="&#x201d;" horiz-adv-x="368" d="M133 720 Q153 720 168 706 Q183 692 183 669 Q183 652 176 634.5 Q169 617 161 598 L116 493 Q113 486 106 486 L96 486 Q87 486 90 495 L127 617 Q110 619 97.5 632.5 Q85 646 85 667 Q85 692 100 706 Q115 720 133 720 Z M290 720 Q310 720 325 706 Q340 692 340 669 Q340 652 333 634.5 Q326 617 318 598 L273 493 Q270 486 263 486 L253 486 Q244 486 247 495 L284 617 Q267 619 254.5 632.5 Q242 646 242 667 Q242 692 257 706 Q272 720 290 720 Z " />
<glyph glyph-name="quoteleft" unicode="&#x2018;" horiz-adv-x="211" d="M89 589 Q106 587 118.5 573.5 Q131 560 131 539 Q131 514 116 500 Q101 486 83 486 Q63 486 48 500 Q33 514 33 537 Q33 554 40 571.5 Q47 589 55 608 L100 713 Q103 720 110 720 L120 720 Q129 720 126 711 L89 589 L89 589 Z " />
<glyph glyph-name="quoteright" unicode="&#x2019;" horiz-adv-x="211" d="M132 720 Q152 720 167 706 Q182 692 182 669 Q182 652 175 634.5 Q168 617 160 598 L115 493 Q112 486 105 486 L95 486 Q86 486 89 495 L126 617 Q109 619 96.5 632.5 Q84 646 84 667 Q84 692 99 706 Q114 720 132 720 Z " />
<glyph glyph-name="quotesinglbase" unicode="&#x201a;" horiz-adv-x="213" d="M106 96 Q126 96 141 82 Q156 68 156 45 Q156 28 149 10.5 Q142 -7 134 -26 L89 -131 Q86 -138 79 -138 L69 -138 Q60 -138 63 -129 L100 -7 Q83 -5 70.5 8.5 Q58 22 58 43 Q58 68 73 82 Q88 96 106 96 Z " />
<glyph glyph-name="emspace" unicode="&#x2003;" horiz-adv-x="1000" d="" />
<glyph glyph-name="enspace" unicode="&#x2002;" horiz-adv-x="500" d="" />
<glyph glyph-name="fourperemspace" unicode="&#x2005;" horiz-adv-x="250" d="" />
<glyph glyph-name="hairspace" unicode="&#x200a;" horiz-adv-x="69" d="" />
<glyph glyph-name="Acircumflex" unicode="&#xc2;" horiz-adv-x="643" d="M620 7 Q623 0 615 0 L574 0 Q566 0 563 7 L477 228 L156 228 L69 7 Q65 0 58 0 L20 0 Q12 0 15 7 L297 707 Q300 714 308 714 L329 714 Q337 714 340 707 L620 7 Z M460 273 Q425 365 389.5 457.5 Q354 550 318 646 Q282 550 246 457.5 Q210 365 174 273 L460 273 Z M450 762 Q456 756 448 756 L420 756 Q413 756 408 761 L318 856 L227 761 Q222 756 215 756 L187 756 Q180 756 185 762 L293 890 Q296 892 298 893.5 Q300 895 305 895 L330 895 Q337 895 342 890 L450 762 L450 762 Z " />
<glyph glyph-name="nbspace" unicode="&#xa0;" horiz-adv-x="218" d="" />
<glyph glyph-name="thinspace" unicode="&#x2009;" horiz-adv-x="109" d="" />
<glyph glyph-name="threeperemspace" unicode="&#x2004;" horiz-adv-x="581" d="" />
<glyph glyph-name="cent" unicode="&#xa2;" horiz-adv-x="472" d="M422 176 Q428 178 430 178 Q436 178 436 167 L436 142 Q436 134 429 131 Q403 121 371 114.5 Q339 108 301 108 L298 108 L288 -15 Q287 -19 286 -21 Q285 -23 280 -23 L261 -23 Q254 -23 254 -15 L264 110 Q219 116 180 136 Q141 156 111.5 188 Q82 220 65.5 263 Q49 306 49 358 Q49 411 65.5 455 Q82 499 111.5 531 Q141 563 182 582.5 Q223 602 272 607 L282 725 Q282 733 290 733 L308 733 Q316 733 315 725 L306 608 Q340 607 369.5 601 Q399 595 422 586 Q429 582 429 576 L429 550 Q429 539 423 539 Q421 539 415 541 Q366 564 305 564 Q261 564 223.5 549.5 Q186 535 158 508 Q130 481 114 443 Q98 405 98 358 Q98 309 114.5 271 Q131 233 159.5 206.5 Q188 180 226.5 166 Q265 152 308 152 Q371 152 422 176 Z " />
<glyph glyph-name="currency" unicode="&#xa4;" horiz-adv-x="585" d="M561 108 Q566 102 561 97 L548 85 Q542 80 536 86 L429 197 Q403 171 369 156.5 Q335 142 293 142 Q251 142 217 157 Q183 172 157 198 L50 85 Q44 79 38 85 L25 97 Q19 103 25 109 L135 224 Q95 281 95 361 Q95 442 135 499 L25 615 Q19 621 25 626 L38 639 Q44 644 50 638 L157 526 Q183 552 217 566.5 Q251 581 293 581 Q335 581 369 566.5 Q403 552 429 526 L536 639 Q542 645 548 639 L561 627 Q567 621 561 615 L451 500 Q470 472 480.5 437 Q491 402 491 361 Q491 281 451 224 L561 108 Z M293 182 Q328 182 357 195.5 Q386 209 407 233 Q428 257 439.5 290 Q451 323 451 361 Q451 400 439.5 433 Q428 466 407 490 Q386 514 357 527.5 Q328 541 293 541 Q257 541 228 527.5 Q199 514 178 490 Q157 466 145.5 433 Q134 400 134 361 Q134 323 145.5 290 Q157 257 178 233 Q199 209 228 195.5 Q257 182 293 182 Z " />
<glyph glyph-name="dollar" unicode="&#x24;" horiz-adv-x="585" d="M504 203 Q504 159 488 124 Q472 89 443.5 63.5 Q415 38 374.5 24 Q334 10 286 8 L276 -124 Q274 -132 267 -132 L248 -132 Q240 -132 241 -124 L251 9 Q206 12 163 24.5 Q120 37 89 57 Q82 60 82 69 L82 104 Q82 113 89 107 Q124 84 166.5 69.5 Q209 55 255 52 L278 351 Q247 362 214 375 Q181 388 154 408 Q127 428 110 458 Q93 488 93 532 Q93 569 109 600.5 Q125 632 153 654.5 Q181 677 219 689.5 Q257 702 301 702 L304 702 L313 825 Q315 833 322 833 L342 833 Q350 833 349 825 L339 700 Q375 696 408 686 Q441 676 470 660 Q477 655 477 648 L477 614 Q477 606 470 610 Q409 648 336 656 L315 390 Q358 376 392.5 359.5 Q427 343 452 321 Q477 299 490.5 270.5 Q504 242 504 203 Z M146 535 Q146 506 157 485 Q168 464 186.5 448.5 Q205 433 229.5 421.5 Q254 410 281 401 L300 658 Q267 658 239 648.5 Q211 639 190.5 622.5 Q170 606 158 584 Q146 562 146 535 Z M290 53 Q360 57 405.5 94.5 Q451 132 451 200 Q451 230 441 251 Q431 272 412.5 288 Q394 304 368.5 316 Q343 328 312 339 L290 53 Z " />
<glyph glyph-name="euro" unicode="&#x20ac;" horiz-adv-x="585" d="M528 66 Q535 71 535 62 L535 30 Q535 22 528 19 Q499 6 464 -2.5 Q429 -11 388 -11 Q334 -11 285.5 8.5 Q237 28 198.5 64.5 Q160 101 133 153 Q106 205 95 270 L35 270 Q27 270 27 278 L27 298 Q27 306 35 306 L91 306 Q88 331 88 359 Q88 369 88 378 Q88 387 89 396 L35 396 Q27 396 27 404 L27 424 Q27 432 35 432 L93 432 Q103 499 130 552 Q157 605 196 642.5 Q235 680 284.5 700 Q334 720 390 720 Q427 720 460 711.5 Q493 703 519 692 Q526 688 526 681 L526 649 Q526 641 519 645 Q495 657 463 665.5 Q431 674 395 674 Q347 674 305 657.5 Q263 641 230 609.5 Q197 578 174.5 533 Q152 488 143 432 L490 432 Q498 432 498 424 L498 404 Q498 396 490 396 L138 396 Q137 387 137 378 Q137 369 137 359 Q137 331 140 306 L490 306 Q498 306 498 298 L498 278 Q498 270 490 270 L145 270 Q155 214 178.5 170.5 Q202 127 234.5 97 Q267 67 308 51.5 Q349 36 395 36 Q434 36 467.5 44.5 Q501 53 528 66 Z " />
<glyph glyph-name="florin" unicode="&#x192;" horiz-adv-x="451" d="M438 743 Q445 739 445 732 L445 710 Q445 700 439 700 Q435 700 431 702 Q405 716 368 716 Q293 716 272 607 L249 480 L392 480 Q400 480 400 472 L400 449 Q400 441 392 441 L242 441 L157 -25 Q144 -102 111.5 -138.5 Q79 -175 21 -175 Q-2 -175 -20.5 -172 Q-39 -169 -53 -165 Q-61 -162 -61 -154 L-61 -124 Q-61 -116 -54 -120 Q-41 -125 -24.5 -128.5 Q-8 -132 12 -132 Q87 -132 108 -23 L192 441 L94 441 Q86 441 86 449 L86 472 Q86 480 94 480 L200 480 L223 609 Q236 686 268.5 722.5 Q301 759 358 759 Q383 759 403 754.5 Q423 750 438 743 Z " />
<glyph glyph-name="sterling" unicode="&#xa3;" horiz-adv-x="585" d="M506 691 Q513 688 513 679 L513 648 Q513 640 506 644 Q483 658 454 667 Q425 676 391 676 Q325 676 289 635 Q253 594 244 525 L227 392 L442 392 Q450 392 450 384 L450 359 Q450 351 442 351 L222 351 L183 44 L486 44 Q494 44 494 36 L494 8 Q494 0 486 0 L75 0 Q67 0 67 8 L67 36 Q67 44 75 44 L134 44 L173 351 L95 351 Q87 351 87 359 L87 384 Q87 392 95 392 L178 392 L195 529 Q206 619 252.5 669.5 Q299 720 385 720 Q420 720 451.5 712.5 Q483 705 506 691 Z " />
<glyph glyph-name="yen" unicode="&#xa5;" horiz-adv-x="549" d="M526 710 Q537 710 537 704 Q537 702 534 696 L313 327 L441 327 Q449 327 449 319 L449 292 Q449 284 441 284 L300 284 L300 8 Q300 0 292 0 L256 0 Q248 0 248 8 L248 284 L107 284 Q99 284 99 292 L99 319 Q99 327 107 327 L235 327 L14 696 Q11 700 11 704 Q11 710 22 710 L56 710 Q64 710 68 703 L276 349 L482 703 Q485 710 494 710 L526 710 L526 710 Z " />
<glyph glyph-name="plus" unicode="&#x2b;" horiz-adv-x="550" d="M503 318 Q511 318 511 310 L511 282 Q511 274 503 274 L296 274 L296 58 Q296 50 288 50 L262 50 Q254 50 254 58 L254 274 L47 274 Q39 274 39 282 L39 310 Q39 318 47 318 L254 318 L254 533 Q254 541 262 541 L288 541 Q296 541 296 533 L296 318 L503 318 L503 318 Z " />
<glyph glyph-name="minus" unicode="&#x2212;" horiz-adv-x="550" d="M47 274 Q39 274 39 282 L39 310 Q39 318 47 318 L503 318 Q511 318 511 310 L511 282 Q511 274 503 274 L47 274 L47 274 Z " />
<glyph glyph-name="multiply" unicode="&#xd7;" horiz-adv-x="550" d="M494 101 Q500 94 495 89 L477 69 Q472 63 466 69 L275 261 L84 70 Q78 64 73 70 L54 89 Q49 95 55 101 L245 291 L56 480 Q49 486 55 492 L72 512 Q77 518 83 512 L275 321 L465 511 Q471 517 477 511 L494 493 Q500 487 494 481 L304 291 L494 101 L494 101 Z " />
<glyph glyph-name="divide" unicode="&#xf7;" horiz-adv-x="550" d="M275 449 Q253 449 240 464.5 Q227 480 227 500 Q227 520 240 535 Q253 550 275 550 Q297 550 310 535 Q323 520 323 500 Q323 480 310 464.5 Q297 449 275 449 Z M47 275 Q39 275 39 283 L39 311 Q39 319 47 319 L503 319 Q511 319 511 311 L511 283 Q511 275 503 275 L47 275 Z M275 43 Q253 43 240 58.5 Q227 74 227 94 Q227 114 240 129 Q253 144 275 144 Q297 144 310 129 Q323 114 323 94 Q323 74 310 58.5 Q297 43 275 43 Z " />
<glyph glyph-name="equal" unicode="&#x3d;" horiz-adv-x="550" d="M47 368 Q39 368 39 376 L39 404 Q39 412 47 412 L503 412 Q511 412 511 404 L511 376 Q511 368 503 368 L47 368 Z M47 173 Q39 173 39 181 L39 209 Q39 217 47 217 L503 217 Q511 217 511 209 L511 181 Q511 173 503 173 L47 173 Z " />
<glyph glyph-name="notequal" unicode="&#x2260;" horiz-adv-x="550" d="M311 368 L242 217 L503 217 Q511 217 511 209 L511 181 Q511 173 503 173 L222 173 L169 57 Q165 50 158 50 L142 50 Q134 50 137 57 L190 173 L47 173 Q39 173 39 181 L39 209 Q39 217 47 217 L210 217 L279 368 L47 368 Q39 368 39 376 L39 404 Q39 412 47 412 L299 412 L355 534 Q358 541 366 541 L382 541 Q390 541 387 534 L331 412 L503 412 Q511 412 511 404 L511 376 Q511 368 503 368 L311 368 Z " />
<glyph glyph-name="greater" unicode="&#x3e;" horiz-adv-x="550" d="M66 3 Q59 -2 59 7 L59 44 Q59 52 66 56 L461 254 L66 452 Q59 457 59 464 L59 500 Q59 508 66 504 L524 271 Q531 266 531 259 L531 248 Q531 240 524 236 L66 3 L66 3 Z " />
<glyph glyph-name="less" unicode="&#x3c;" horiz-adv-x="550" d="M511 7 Q511 -1 504 3 L46 236 Q39 241 39 248 L39 259 Q39 267 46 271 L504 504 Q511 509 511 500 L511 464 Q511 456 504 452 L109 254 L504 56 Q511 51 511 44 L511 7 L511 7 Z " />
<glyph glyph-name="greaterequal" unicode="&#x2265;" horiz-adv-x="550" d="M46 92 Q39 87 39 96 L39 133 Q39 141 46 145 L434 339 Q440 343 434 347 L46 541 Q39 546 39 553 L39 589 Q39 597 46 593 L511 356 L511 337 Q511 329 504 325 L46 92 Z M47 2 Q39 2 39 10 L39 38 Q39 46 47 46 L503 46 Q511 46 511 38 L511 10 Q511 2 503 2 L47 2 Z " />
<glyph glyph-name="lessequal" unicode="&#x2264;" horiz-adv-x="550" d="M511 96 Q511 88 504 92 L46 325 Q39 330 39 337 L39 356 L504 593 Q511 598 511 589 L511 553 Q511 545 504 541 L116 347 Q110 343 116 339 L504 145 Q511 140 511 133 L511 96 Z M511 10 Q511 2 503 2 L47 2 Q39 2 39 10 L39 38 Q39 46 47 46 L503 46 Q511 46 511 38 L511 10 Z " />
<glyph glyph-name="plusminus" unicode="&#xb1;" horiz-adv-x="550" d="M59 308 Q51 308 51 316 L51 344 Q51 352 59 352 L237 352 L237 499 Q237 507 245 507 L270 507 Q278 507 278 499 L278 352 L456 352 Q464 352 464 344 L464 316 Q464 308 456 308 L278 308 L278 161 Q278 153 270 153 L245 153 Q237 153 237 161 L237 308 L59 308 Z M503 114 Q511 114 511 106 L511 78 Q511 70 503 70 L47 70 Q39 70 39 78 L39 106 Q39 114 47 114 L503 114 Z " />
<glyph glyph-name="approxequal" unicode="&#x2248;" horiz-adv-x="600" d="M357 336 Q320 336 297.5 353.5 Q275 371 255 392 Q236 412 216.5 427 Q197 442 166 442 Q129 442 109.5 414.5 Q90 387 87 343 Q87 335 79 335 L58 335 Q50 335 50 343 Q51 373 59.5 399.5 Q68 426 82 445 Q96 464 116 475 Q136 486 162 486 Q202 486 227 468 Q252 450 272 428 Q290 409 308.5 394.5 Q327 380 355 380 Q389 380 407 406 Q425 432 427 472 Q427 480 435 480 L456 480 Q464 480 464 472 Q462 413 433.5 374.5 Q405 336 357 336 Z M357 145 Q320 145 297.5 162.5 Q275 180 255 201 Q236 221 216.5 236 Q197 251 166 251 Q129 251 109.5 223.5 Q90 196 87 152 Q87 144 79 144 L58 144 Q50 144 50 152 Q51 182 59.5 208.5 Q68 235 82 254 Q96 273 116 284 Q136 295 162 295 Q202 295 227 277 Q252 259 272 237 Q290 218 308.5 203.5 Q327 189 355 189 Q389 189 407 215 Q425 241 427 281 Q427 289 435 289 L456 289 Q464 289 464 281 Q462 222 433.5 183.5 Q405 145 357 145 Z " />
<glyph glyph-name="asciitilde" unicode="&#x7e;" horiz-adv-x="550" d="M357 234 Q320 234 297.5 251.5 Q275 269 255 290 Q236 310 216.5 325 Q197 340 166 340 Q129 340 109.5 312.5 Q90 285 87 241 Q87 233 79 233 L58 233 Q50 233 50 241 Q51 271 59.5 297.5 Q68 324 82 343 Q96 362 116 373 Q136 384 162 384 Q202 384 227 366 Q252 348 272 326 Q290 307 308.5 292.5 Q327 278 355 278 Q389 278 407 304 Q425 330 427 370 Q427 378 435 378 L456 378 Q464 378 464 370 Q462 311 433.5 272.5 Q405 234 357 234 Z " />
<glyph glyph-name="logicalnot" unicode="&#xac;" horiz-adv-x="550" d="M456 350 Q464 350 464 342 L464 147 Q464 139 456 139 L429 139 Q421 139 421 147 L421 307 L59 307 Q51 307 51 315 L51 342 Q51 350 59 350 L456 350 L456 350 Z " />
<glyph glyph-name="infinity" unicode="&#x221e;" horiz-adv-x="875" d="M648 479 Q682 479 712 466 Q742 453 763.5 429 Q785 405 797.5 371.5 Q810 338 810 296 Q810 254 798 220.5 Q786 187 764.5 163 Q743 139 713.5 126.5 Q684 114 650 114 Q614 114 583 128 Q552 142 525.5 163.5 Q499 185 477 211 Q455 237 437 262 Q416 234 393.5 207.5 Q371 181 345.5 160 Q320 139 291 126.5 Q262 114 229 114 Q194 114 164.5 127.5 Q135 141 112.5 165 Q90 189 77.5 221.5 Q65 254 65 292 Q65 331 78 365 Q91 399 113.5 424.5 Q136 450 167 464.5 Q198 479 233 479 Q266 479 294.5 465.5 Q323 452 348 430.5 Q373 409 394.5 382.5 Q416 356 435 329 Q454 355 475.5 382 Q497 409 523.5 430.5 Q550 452 580.5 465.5 Q611 479 648 479 Z M230 156 Q256 156 280.5 167.5 Q305 179 327.5 198.5 Q350 218 370.5 243.5 Q391 269 411 296 Q391 323 370.5 348.5 Q350 374 328 393.5 Q306 413 282 425 Q258 437 231 437 Q206 437 183.5 426 Q161 415 144 395.5 Q127 376 117 350.5 Q107 325 107 295 Q107 266 117 240.5 Q127 215 143.5 196 Q160 177 182.5 166.5 Q205 156 230 156 Z M653 156 Q702 156 735 191 Q768 226 768 292 Q768 358 733.5 397.5 Q699 437 647 437 Q618 437 592 424 Q566 411 543 390.5 Q520 370 499.5 345 Q479 320 461 295 Q481 269 502.5 244 Q524 219 547.5 199.5 Q571 180 597 168 Q623 156 653 156 Z " />
<glyph glyph-name="integral" unicode="&#x222b;" horiz-adv-x="459" d="M21 -209 Q-2 -209 -21 -206 Q-40 -203 -54 -198 Q-61 -195 -61 -187 L-61 -157 Q-61 -149 -54 -153 Q-26 -166 12 -166 Q87 -166 108 -57 L230 609 Q244 686 276 722.5 Q308 759 366 759 Q391 759 411 754.5 Q431 750 446 743 Q453 739 453 732 L453 710 Q453 700 447 700 Q443 700 439 702 Q413 716 375 716 Q299 716 280 607 L157 -59 Q143 -136 111 -172.5 Q79 -209 21 -209 Z " />
<glyph glyph-name="product" unicode="&#x220f;" horiz-adv-x="714" d="M607 710 Q615 710 615 702 L615 672 Q615 664 607 664 L502 664 L502 -113 Q502 -121 494 -121 L458 -121 Q450 -121 450 -113 L450 664 L216 664 L216 -113 Q216 -121 208 -121 L173 -121 Q165 -121 165 -113 L165 664 L67 664 Q66 664 66 665 L66 702 Q66 710 74 710 L607 710 L607 710 Z " />
<glyph glyph-name="summation" unicode="&#x2211;" horiz-adv-x="544" d="M472 -79 Q480 -79 480 -87 L480 -114 Q480 -122 472 -122 L72 -122 Q64 -122 64 -114 L64 -97 Q64 -88 69 -83 L369 303 L68 673 Q64 677 64 685 L64 702 Q64 710 72 710 L470 710 Q478 710 478 702 L478 675 Q478 667 470 667 L127 667 L413 315 Q418 308 418 303 Q418 296 413 290 L126 -79 L472 -79 L472 -79 Z " />
<glyph glyph-name="radical" unicode="&#x221a;" horiz-adv-x="542" d="M497 710 Q504 710 503 702 L233 -122 Q231 -130 223 -130 L209 -130 Q201 -130 198 -123 L14 319 Q12 325 12 326 Q12 334 24 334 L47 334 Q55 334 58 327 L215 -62 L457 702 Q459 710 467 710 L497 710 L497 710 Z " />
<glyph glyph-name="micro" unicode="&#xb5;" horiz-adv-x="525" d="M443 480 Q451 480 451 472 L451 8 Q451 0 443 0 L414 0 Q406 0 406 8 L405 99 L402 105 Q382 48 342.5 19 Q303 -10 247 -10 Q205 -10 172 5.5 Q139 21 120 56 L124 -158 Q124 -166 116 -166 L81 -166 Q73 -166 73 -158 L76 80 L74 472 Q74 480 82 480 L116 480 Q124 480 124 472 L124 178 Q124 97 158.5 63.5 Q193 30 250 30 Q321 30 361 82 Q401 134 401 219 L401 472 Q401 480 409 480 L443 480 L443 480 Z " />
<glyph glyph-name="partialdiff" unicode="&#x2202;" horiz-adv-x="584" d="M235 719 Q306 719 360 692 Q414 665 450.5 614 Q487 563 505.5 489.5 Q524 416 524 323 Q524 253 508 192.5 Q492 132 460.5 87 Q429 42 382 16 Q335 -10 272 -10 Q228 -10 188.5 5 Q149 20 119 48.5 Q89 77 71.5 117.5 Q54 158 54 210 Q54 261 73.5 305 Q93 349 128 381.5 Q163 414 211.5 432.5 Q260 451 318 451 Q359 451 400.5 442 Q442 433 472 416 Q457 538 397.5 608 Q338 678 233 678 Q204 678 172 674 Q140 670 114 662 Q106 659 106 667 L106 695 Q106 704 114 705 Q140 713 171 716 Q202 719 235 719 Z M273 33 Q325 33 363.5 54.5 Q402 76 427.5 114.5 Q453 153 465.5 205 Q478 257 478 318 Q478 332 477.5 345.5 Q477 359 476 373 Q447 390 405.5 399.5 Q364 409 325 409 Q275 409 234 393.5 Q193 378 163.5 351 Q134 324 117.5 287.5 Q101 251 101 209 Q101 170 114.5 137.5 Q128 105 151.5 81.5 Q175 58 206.5 45.5 Q238 33 273 33 Z " />
<glyph glyph-name="percent" unicode="&#x25;" horiz-adv-x="688" d="M97 -14 Q90 -10 94 -3 L551 720 Q555 727 562 723 L571 717 Q578 713 574 706 L117 -17 Q113 -24 106 -20 L97 -14 Z M180 427 Q156 427 135.5 437.5 Q115 448 99 467 Q83 486 74 513 Q65 540 65 573 Q65 607 74 634 Q83 661 99 680 Q115 699 135.5 709.5 Q156 720 180 720 Q203 720 224 709.5 Q245 699 260.5 680 Q276 661 285.5 634 Q295 607 295 573 Q295 540 285.5 513 Q276 486 260.5 467 Q245 448 224 437.5 Q203 427 180 427 Z M180 459 Q214 459 237 489.5 Q260 520 260 573 Q260 627 237 657.5 Q214 688 180 688 Q146 688 122.5 658 Q99 628 99 573 Q99 520 122.5 489.5 Q146 459 180 459 Z M508 -10 Q484 -10 463.5 0.5 Q443 11 427 30 Q411 49 402 76 Q393 103 393 136 Q393 170 402 197.5 Q411 225 427 244 Q443 263 463.5 273 Q484 283 508 283 Q532 283 552.5 273 Q573 263 589 244 Q605 225 614 197.5 Q623 170 623 136 Q623 103 614 76 Q605 49 589 30 Q573 11 552.5 0.5 Q532 -10 508 -10 Z M508 22 Q542 22 565 53 Q588 84 588 136 Q588 191 565 221 Q542 251 508 251 Q474 251 450.5 221 Q427 191 427 136 Q427 84 450.5 53 Q474 22 508 22 Z " />
<glyph glyph-name="perthousand" unicode="&#x2030;" horiz-adv-x="954" d="M101 -14 Q94 -10 98 -3 L555 720 Q559 727 566 723 L575 717 Q582 713 578 706 L121 -17 Q117 -24 110 -20 L101 -14 Z M180 427 Q156 427 135.5 437.5 Q115 448 99 467 Q83 486 74 513 Q65 540 65 573 Q65 607 74 634 Q83 661 99 680 Q115 699 135.5 709.5 Q156 720 180 720 Q203 720 224 709.5 Q245 699 260.5 680 Q276 661 285.5 634 Q295 607 295 573 Q295 540 285.5 513 Q276 486 260.5 467 Q245 448 224 437.5 Q203 427 180 427 Z M180 459 Q214 459 237 489.5 Q260 520 260 573 Q260 627 237 657.5 Q214 688 180 688 Q146 688 122.5 658 Q99 628 99 573 Q99 520 122.5 489.5 Q146 459 180 459 Z M486 -10 Q462 -10 441.5 0.5 Q421 11 405 30 Q389 49 380 76 Q371 103 371 136 Q371 170 380 197.5 Q389 225 405 244 Q421 263 441.5 273 Q462 283 486 283 Q510 283 530.5 273 Q551 263 567 244 Q583 225 592 197.5 Q601 170 601 136 Q601 103 592 76 Q583 49 567 30 Q551 11 530.5 0.5 Q510 -10 486 -10 Z M774 -10 Q750 -10 729.5 0.5 Q709 11 693 30 Q677 49 668 76 Q659 103 659 136 Q659 170 668 197.5 Q677 225 693 244 Q709 263 729.5 273 Q750 283 774 283 Q798 283 818.5 273 Q839 263 855 244 Q871 225 880 197.5 Q889 170 889 136 Q889 103 880 76 Q871 49 855 30 Q839 11 818.5 0.5 Q798 -10 774 -10 Z M486 22 Q520 22 543 53 Q566 84 566 136 Q566 191 543 221 Q520 251 486 251 Q452 251 428.5 221 Q405 191 405 136 Q405 84 428.5 53 Q452 22 486 22 Z M774 22 Q808 22 831 53 Q854 84 854 136 Q854 191 831 221 Q808 251 774 251 Q740 251 716.5 221 Q693 191 693 136 Q693 84 716.5 53 Q740 22 774 22 Z " />
<glyph glyph-name="lozenge" unicode="&#x25ca;" horiz-adv-x="550" d="M275 -55 Q267 -55 263 -48 L47 338 Q45 340 45 344 Q45 349 47 352 L263 738 Q267 745 275 745 L282 745 Q290 745 294 738 L502 352 Q504 348 504 345 Q504 342 502 338 L294 -48 Q290 -55 282 -55 L275 -55 Z M465 345 L279 689 L85 345 L279 1 L465 345 Z " />
<glyph glyph-name="apple" unicode="&#xf8ff;" horiz-adv-x="999" d="M499 -140 Q430 -140 366.5 -122 Q303 -104 247.5 -71.5 Q192 -39 146.5 6.5 Q101 52 68.5 107.5 Q36 163 18 227 Q0 291 0 360 Q0 463 39.5 554 Q79 645 146.5 712.5 Q214 780 305 819.5 Q396 859 499 859 Q602 859 693 819.5 Q784 780 852 712.5 Q920 645 959.5 554 Q999 463 999 360 Q999 256 959.5 165 Q920 74 852 6.5 Q784 -61 693 -100.5 Q602 -140 499 -140 Z M499 109 Q585 109 671.5 112 Q758 115 840 124 Q864 126 876.5 134.5 Q889 143 892 168 Q896 216 896.5 263.5 Q897 311 897 360 Q897 408 896.5 455.5 Q896 503 892 551 Q889 576 876.5 584.5 Q864 593 840 595 Q758 604 671.5 607 Q585 610 499 610 Q413 610 326.5 607 Q240 604 157 595 Q134 593 121.5 584.5 Q109 576 106 551 Q101 503 100.5 455.5 Q100 408 100 360 Q100 311 100.5 263.5 Q101 216 106 168 Q109 143 121.5 134.5 Q134 126 157 124 Q240 115 326.5 112 Q413 109 499 109 Z M499 157 Q456 157 419 173 Q382 189 355 217 Q328 245 312.5 281.5 Q297 318 297 360 Q297 401 312.5 438 Q328 475 355 502.5 Q382 530 419 546 Q456 562 499 562 Q542 562 579 546 Q616 530 643 502.5 Q670 475 685.5 438 Q701 401 701 360 Q701 318 685.5 281.5 Q670 245 643 217 Q616 189 579 173 Q542 157 499 157 Z " />
<glyph glyph-name="at" unicode="&#x40;" horiz-adv-x="838" d="M587 429 Q595 429 595 421 L595 149 Q595 112 612.5 94 Q630 76 658 76 Q682 76 702 90.5 Q722 105 737 130 Q752 155 760 189 Q768 223 768 261 Q768 331 742.5 391 Q717 451 672 495.5 Q627 540 564.5 565.5 Q502 591 428 591 Q349 591 283.5 563 Q218 535 170.5 487 Q123 439 97 375 Q71 311 71 238 Q71 166 97.5 101 Q124 36 171.5 -13 Q219 -62 285 -91 Q351 -120 431 -120 Q458 -120 488 -116.5 Q518 -113 546.5 -106 Q575 -99 602 -88.5 Q629 -78 650 -65 Q660 -60 663.5 -57 Q667 -54 669 -54 Q672 -54 672 -60 L672 -81 Q672 -89 665 -93 Q640 -108 611 -119 Q582 -130 551 -137 Q520 -144 489.5 -147.5 Q459 -151 432 -151 Q347 -151 275 -120.5 Q203 -90 150.5 -37 Q98 16 68.5 87 Q39 158 39 238 Q39 319 68.5 388.5 Q98 458 150 510 Q202 562 273.5 591.5 Q345 621 428 621 Q508 621 576 593 Q644 565 693.5 516.5 Q743 468 771 402.5 Q799 337 799 261 Q799 215 788.5 175.5 Q778 136 758.5 106.5 Q739 77 712 60 Q685 43 653 43 Q614 43 586 66 Q558 89 555 134 Q532 87 492.5 64 Q453 41 408 41 Q374 41 341.5 55 Q309 69 283.5 95.5 Q258 122 242.5 158.5 Q227 195 227 240 Q227 284 241.5 320 Q256 356 281 382 Q306 408 338.5 422 Q371 436 407 436 Q453 436 492 413.5 Q531 391 554 345 L555 421 Q555 429 563 429 L587 429 Z M417 77 Q443 77 468 87.5 Q493 98 512.5 118.5 Q532 139 543.5 169 Q555 199 555 238 Q555 277 543.5 307 Q532 337 513 357.5 Q494 378 468.5 388.5 Q443 399 416 399 Q386 399 359.5 387.5 Q333 376 313 355 Q293 334 281.5 304.5 Q270 275 270 239 Q270 202 282.5 172 Q295 142 315.5 121 Q336 100 362.5 88.5 Q389 77 417 77 Z " />
<glyph glyph-name="ampersand" unicode="&#x26;" horiz-adv-x="626" d="M584 5 Q588 -1 581 -1 L536 -1 Q528 -1 523 5 L460 73 Q422 33 371.5 11.5 Q321 -10 262 -10 Q215 -10 174.5 3 Q134 16 104.5 40 Q75 64 58 98 Q41 132 41 173 Q41 236 78 286.5 Q115 337 188 367 Q151 410 128.5 452.5 Q106 495 106 546 Q106 586 121 618 Q136 650 161.5 672.5 Q187 695 221 707.5 Q255 720 293 720 Q330 720 358.5 715.5 Q387 711 410 703 Q418 700 418 692 L418 661 Q418 653 411 656 Q388 666 361 671.5 Q334 677 301 677 Q272 677 246 667.5 Q220 658 200 641 Q180 624 168 599 Q156 574 156 543 Q156 489 189.5 440.5 Q223 392 277 335 L458 140 Q482 176 495.5 221.5 Q509 267 509 320 Q509 337 507.5 355.5 Q506 374 502 392 Q502 400 509 400 L538 400 Q546 400 547 392 Q553 356 553 323 Q553 259 536 204.5 Q519 150 489 107 L584 5 Z M265 34 Q314 34 356 52.5 Q398 71 430 105 L294 256 L273 276 L230 321 L214 338 Q153 312 122 271 Q91 230 91 177 Q91 144 104 118 Q117 92 140 73 Q163 54 195 44 Q227 34 265 34 Z " />
<glyph glyph-name="paragraph" unicode="&#xb6;" horiz-adv-x="557" d="M379 710 Q387 710 387 702 L387 24 Q387 -32 374.5 -76 Q362 -120 336 -158 Q332 -165 323 -165 L301 -165 Q292 -165 298 -159 Q327 -119 340.5 -75.5 Q354 -32 354 24 L354 298 L323 298 Q269 298 224.5 312.5 Q180 327 148 354 Q116 381 98.5 419 Q81 457 81 504 Q81 550 98.5 588 Q116 626 148 653 Q180 680 224.5 695 Q269 710 323 710 L379 710 Z M456 710 Q464 710 464 702 L464 189 L464 173 Q463 114 456 79 Q449 44 435 18 Q431 10 431 19 L431 702 Q431 710 439 710 L456 710 Z " />
<glyph glyph-name="section" unicode="&#xa7;" horiz-adv-x="536" d="M425 274 Q467 222 482 176 Q497 130 497 88 Q497 31 477.5 -17 Q458 -65 422 -100 Q386 -135 336 -154.5 Q286 -174 225 -174 Q140 -174 49 -133 Q42 -130 42 -122 L42 -90 Q42 -82 49 -86 Q97 -111 142 -120.5 Q187 -130 226 -130 Q298 -130 350.5 -103.5 Q403 -77 432 -31 L102 374 Q70 415 53 452 Q36 489 36 537 Q36 586 53.5 626.5 Q71 667 103 695.5 Q135 724 179 740 Q223 756 277 756 Q313 756 356 748.5 Q399 741 430 730 Q437 726 437 719 L437 687 Q437 679 430 682 Q396 696 351.5 704 Q307 712 271 712 Q221 712 181 696.5 Q141 681 114 653 L425 274 Z M446 -4 Q465 37 465 89 Q465 127 452.5 167.5 Q440 208 402 255 L96 631 Q67 588 67 532 Q67 493 81.5 461 Q96 429 128 389 L446 -4 Z " />
<glyph glyph-name="copyright" unicode="&#xa9;" horiz-adv-x="811" d="M406 -11 Q331 -11 265 15.5 Q199 42 149.5 89.5 Q100 137 71 203.5 Q42 270 42 351 Q42 434 71.5 502 Q101 570 150.5 618.5 Q200 667 266 693.5 Q332 720 406 720 Q479 720 545 693.5 Q611 667 660.5 618.5 Q710 570 739.5 502 Q769 434 769 351 Q769 270 740 203.5 Q711 137 661.5 89.5 Q612 42 546 15.5 Q480 -11 406 -11 Z M406 12 Q475 12 536.5 36.5 Q598 61 644.5 105.5 Q691 150 718 212.5 Q745 275 745 351 Q745 429 718 493 Q691 557 644.5 602.5 Q598 648 536.5 673 Q475 698 406 698 Q337 698 275 673 Q213 648 166.5 602.5 Q120 557 93 493 Q66 429 66 351 Q66 275 93 212.5 Q120 150 166.5 105.5 Q213 61 275 36.5 Q337 12 406 12 Z M408 153 Q373 153 339.5 167.5 Q306 182 280.5 208.5 Q255 235 239.5 272.5 Q224 310 224 357 Q224 403 239.5 439.5 Q255 476 281 501.5 Q307 527 340 541 Q373 555 409 555 Q438 555 463 548 Q488 541 507 531 Q514 527 514 519 L514 495 Q514 487 507 491 Q488 502 464.5 510 Q441 518 413 518 Q384 518 357.5 507 Q331 496 310.5 475 Q290 454 277.5 424 Q265 394 265 357 Q265 318 277.5 287 Q290 256 311 234.5 Q332 213 358.5 201.5 Q385 190 413 190 Q442 190 467.5 198.5 Q493 207 514 221 Q520 225 520 218 L520 193 Q520 185 513 181 Q492 170 466 161.5 Q440 153 408 153 Z " />
<glyph glyph-name="registered" unicode="&#xae;" horiz-adv-x="476" d="M238 720 Q278 720 312 706 Q346 692 371.5 666.5 Q397 641 411.5 605.5 Q426 570 426 527 Q426 484 412 448.5 Q398 413 372.5 387.5 Q347 362 312.5 348 Q278 334 238 334 Q197 334 163 348 Q129 362 103.5 387.5 Q78 413 64 448.5 Q50 484 50 527 Q50 570 64.5 605.5 Q79 641 104 666.5 Q129 692 163.5 706 Q198 720 238 720 Z M238 355 Q274 355 304.5 367.5 Q335 380 357 402.5 Q379 425 391.5 456.5 Q404 488 404 527 Q404 566 391.5 597.5 Q379 629 357 651.5 Q335 674 304.5 686.5 Q274 699 238 699 Q202 699 172 686.5 Q142 674 119.5 651.5 Q97 629 84.5 597.5 Q72 566 72 527 Q72 488 84.5 456.5 Q97 425 119.5 402.5 Q142 380 172 367.5 Q202 355 238 355 Z M318 444 Q322 438 322 437 Q322 432 312 432 L304 432 Q297 432 291 438 L222 524 L207 524 L207 440 Q207 432 199 432 L190 432 Q182 432 182 440 L182 627 Q182 635 190 635 L238 635 Q269 635 287 620 Q305 605 305 580 Q305 557 290.5 542.5 Q276 528 250 526 L318 444 Z M207 544 L237 544 Q257 544 268 553.5 Q279 563 279 579 Q279 595 268 604.5 Q257 614 237 614 L207 614 L207 544 Z " />
<glyph glyph-name="trademark" unicode="&#x2122;" horiz-adv-x="714" d="M676 375 Q677 368 670 368 L644 368 Q637 368 636 375 L587 662 L485 386 Q484 379 476 379 L462 379 Q455 379 453 386 L352 657 L301 375 Q300 368 293 368 L269 368 Q262 368 263 375 L326 703 Q327 710 334 710 L360 710 Q367 710 369 703 L470 428 L570 703 Q571 710 579 710 L603 710 Q610 710 611 703 L676 375 Z M264 684 Q264 677 257 677 L160 677 L160 375 Q160 368 153 368 L129 368 Q122 368 122 375 L122 677 L25 677 Q18 677 18 684 L18 702 Q18 709 25 709 L257 709 Q264 709 264 702 L264 684 Z " />
<glyph glyph-name="degree" unicode="&#xb0;" horiz-adv-x="318" d="M159 475 Q133 475 111.5 484.5 Q90 494 73.5 510.5 Q57 527 48 549.5 Q39 572 39 599 Q39 625 48.5 647.5 Q58 670 74 686 Q90 702 112 711 Q134 720 159 720 Q184 720 206 711 Q228 702 244 686 Q260 670 269.5 647.5 Q279 625 279 599 Q279 572 270 549.5 Q261 527 244.5 510.5 Q228 494 206 484.5 Q184 475 159 475 Z M159 507 Q195 507 219.5 533.5 Q244 560 244 599 Q244 637 219.5 662.5 Q195 688 159 688 Q123 688 98.5 662.5 Q74 637 74 599 Q74 560 98.5 533.5 Q123 507 159 507 Z " />
<glyph glyph-name="bar" unicode="&#x7c;" horiz-adv-x="137" d="M58 -200 Q50 -200 50 -192 L50 832 Q50 840 58 840 L79 840 Q87 840 87 832 L87 -192 Q87 -200 79 -200 L58 -200 L58 -200 Z " />
<glyph glyph-name="brokenbar" unicode="&#xa6;" horiz-adv-x="137" d="M58 424 Q50 424 50 432 L50 832 Q50 840 58 840 L79 840 Q87 840 87 832 L87 432 Q87 424 79 424 L58 424 Z M58 -200 Q50 -200 50 -192 L50 208 Q50 216 58 216 L79 216 Q87 216 87 208 L87 -192 Q87 -200 79 -200 L58 -200 Z " />
<glyph glyph-name="dagger" unicode="&#x2020;" horiz-adv-x="341" d="M296 591 Q304 591 304 583 L304 557 Q304 549 296 549 L190 551 L190 281 Q190 273 182 273 L154 273 Q146 273 146 281 L146 552 L38 549 Q30 549 30 557 L30 583 Q30 591 38 591 L146 588 L146 702 Q146 710 154 710 L182 710 Q190 710 190 702 L190 589 L296 591 L296 591 Z " />
<glyph glyph-name="daggerdbl" unicode="&#x2021;" horiz-adv-x="341" d="M189 557 L189 419 L296 422 Q304 422 304 414 L304 387 Q304 379 296 379 L189 382 L189 281 Q189 273 181 273 L154 273 Q146 273 146 281 L146 382 L38 379 Q30 379 30 387 L30 414 Q30 422 38 422 L146 419 L146 558 L38 555 Q30 555 30 563 L30 589 Q30 597 38 597 L146 594 L146 702 Q146 710 154 710 L181 710 Q189 710 189 702 L189 595 L296 597 Q304 597 304 589 L304 563 Q304 555 296 555 L189 557 Z " />
<glyph glyph-name="asciicircum" unicode="&#x5e;" horiz-adv-x="600" d="M463 305 Q467 299 460 299 L433 299 Q426 299 420 305 L301 440 L181 305 Q176 299 168 299 L140 299 Q131 299 137 305 L275 478 Q279 484 288 484 L313 484 Q320 484 326 478 L463 305 L463 305 Z " />
<glyph glyph-name="dieresiscomb" unicode="&#x308;" d="M-70 647 Q-87 647 -96.5 658 Q-106 669 -106 685 Q-106 700 -96.5 711 Q-87 722 -70 722 Q-54 722 -44.5 711 Q-35 700 -35 685 Q-35 669 -44.5 658 Q-54 647 -70 647 Z M70 647 Q53 647 43.5 658 Q34 669 34 685 Q34 700 43.5 711 Q53 722 70 722 Q86 722 95.5 711 Q105 700 105 685 Q105 669 95.5 658 Q86 647 70 647 Z " />
<glyph glyph-name="dotaccentcomb" unicode="&#x307;" d="M1 627 Q-22 627 -34.5 642.5 Q-47 658 -47 678 Q-47 698 -34.5 713 Q-22 728 1 728 Q22 728 35 713 Q48 698 48 678 Q48 658 35 642.5 Q22 627 1 627 Z " />
<glyph glyph-name="gravecomb" unicode="&#x300;" d="M19 570 Q22 563 15 563 L-7 563 Q-14 563 -20 569 L-145 742 Q-150 748 -142 751 L-104 764 Q-102 765 -100 765 Q-95 765 -92 760 L19 570 L19 570 Z " />
<glyph glyph-name="acutecomb" unicode="&#x301;" d="M-44 563 Q-52 563 -48 570 L63 760 Q66 767 75 764 L113 751 Q122 748 116 742 L-9 569 Q-14 563 -22 563 L-44 563 L-44 563 Z " />
<glyph glyph-name="hungarumlautcomb" unicode="&#x30b;" d="M-84 562 Q-92 562 -89 569 L-3 757 Q0 763 8 762 L43 751 Q51 749 47 742 L-51 569 Q-56 562 -63 562 L-84 562 Z M28 562 Q20 562 23 569 L114 757 Q117 763 125 762 L161 751 Q169 749 165 742 L61 569 Q57 562 49 562 L28 562 Z " />
<glyph glyph-name="circumflexcomb" unicode="&#x302;" d="M132 568 Q136 562 129 562 L101 562 Q94 562 90 568 L0 702 L-91 568 Q-93 565 -95 563.5 Q-97 562 -102 562 L-130 562 Q-137 562 -133 568 L-23 743 Q-19 749 -12 749 L11 749 Q18 749 22 743 L132 568 L132 568 Z " />
<glyph glyph-name="caroncomb" unicode="&#x30c;" d="M127 744 Q135 744 131 737 L21 574 Q18 567 9 567 L-10 567 Q-18 567 -22 574 L-132 737 Q-135 744 -128 744 L-102 744 Q-95 744 -89 737 L0 612 L88 737 Q92 744 101 744 L127 744 L127 744 Z " />
<glyph glyph-name="brevecomb" unicode="&#x306;" d="M0 599 Q-25 599 -46.5 608 Q-68 617 -84.5 632.5 Q-101 648 -111 669.5 Q-121 691 -122 717 Q-122 724 -115 724 L-98 724 Q-91 724 -91 717 Q-88 682 -63 659 Q-38 636 0 636 Q38 636 62.5 659 Q87 682 91 717 Q91 724 98 724 L114 724 Q121 724 121 717 Q119 691 109.5 669.5 Q100 648 84 632.5 Q68 617 46.5 608 Q25 599 0 599 Z " />
<glyph glyph-name="ringcomb" unicode="&#x30a;" d="M0 575 Q-36 575 -60.5 599.5 Q-85 624 -85 662 Q-85 699 -60 722.5 Q-35 746 0 746 Q35 746 59.5 722.5 Q84 699 84 662 Q84 624 59.5 599.5 Q35 575 0 575 Z M0 602 Q24 602 40 619 Q56 636 56 662 Q56 688 40 704.5 Q24 721 0 721 Q-25 721 -40.5 704.5 Q-56 688 -56 662 Q-56 636 -40.5 619 Q-25 602 0 602 Z " />
<glyph glyph-name="tildecomb" unicode="&#x303;" d="M64 604 Q39 604 23 617 Q7 630 -7 645 Q-18 659 -30 669 Q-42 679 -59 679 Q-82 679 -94.5 659.5 Q-107 640 -109 608 Q-109 602 -115 602 L-135 602 Q-141 602 -141 608 Q-139 656 -118.5 688.5 Q-98 721 -60 721 Q-34 721 -17.5 707.5 Q-1 694 12 679 Q23 666 34 656.5 Q45 647 62 647 Q83 647 94.5 664 Q106 681 108 710 Q108 716 114 716 L135 716 Q141 716 141 710 Q139 665 119 634.5 Q99 604 64 604 Z " />
<glyph glyph-name="macroncomb" unicode="&#x304;" d="M-126 638 Q-134 638 -134 646 L-134 668 Q-134 676 -126 676 L125 676 Q133 676 133 668 L133 646 Q133 638 125 638 L-126 638 L-126 638 Z " />
<glyph glyph-name="cedillacomb" unicode="&#x327;" horiz-adv-x="100" d="M57 -44 Q89 -44 109 -60.5 Q129 -77 129 -104 Q129 -137 102.5 -156 Q76 -175 38 -175 Q1 -175 -27 -162 Q-33 -159 -33 -152 L-33 -136 Q-33 -130 -27 -132 Q-14 -138 2 -142 Q18 -146 35 -146 Q59 -146 76.5 -135.5 Q94 -125 94 -105 Q94 -87 79 -78 Q64 -69 44 -69 Q17 -69 -4 -77 L-6 -74 L51 9 L82 9 L44 -45 Q47 -44 50.5 -44 Q54 -44 57 -44 Z " />
<glyph glyph-name="ogonekcomb" unicode="&#x328;" d="M20 -175 Q-17 -175 -43 -154.5 Q-69 -134 -69 -99 Q-69 -80 -60 -62.5 Q-51 -45 -35 -29.5 Q-19 -14 1.5 -1 Q22 12 46 21 L69 6 Q18 -20 -5.5 -45 Q-29 -70 -29 -95 Q-29 -117 -13 -129.5 Q3 -142 26 -142 Q35 -142 43.5 -140 Q52 -138 60 -135 Q64 -134 65.5 -134.5 Q67 -135 67 -140 L67 -157 Q67 -165 61 -167 Q43 -175 20 -175 Z " />
<glyph glyph-name="slashshortcomb" unicode="&#x337;" d="M-170 -45 Q-178 -45 -174 -38 L142 541 Q147 548 154 548 L169 548 Q177 548 173 541 L-143 -38 Q-148 -45 -155 -45 L-170 -45 L-170 -45 Z " />
<glyph glyph-name="slashlongcomb" unicode="&#x338;" d="M-224 -43 Q-232 -43 -228 -36 L196 728 Q201 735 208 735 L223 735 Q231 735 227 728 L-197 -36 Q-202 -43 -209 -43 L-224 -43 L-224 -43 Z " />
<glyph glyph-name="acute" unicode="&#xb4;" horiz-adv-x="500" d="M172 563 Q164 563 168 570 L279 760 Q282 767 291 764 L329 751 Q338 748 332 742 L207 569 Q202 563 194 563 L172 563 L172 563 Z " />
<glyph glyph-name="breve" unicode="&#x2d8;" horiz-adv-x="500" d="M250 599 Q225 599 203.5 608 Q182 617 165.5 632.5 Q149 648 139 669.5 Q129 691 128 717 Q128 724 135 724 L152 724 Q159 724 159 717 Q162 682 187 659 Q212 636 250 636 Q288 636 312.5 659 Q337 682 341 717 Q341 724 348 724 L364 724 Q371 724 371 717 Q369 691 359.5 669.5 Q350 648 334 632.5 Q318 617 296.5 608 Q275 599 250 599 Z " />
<glyph glyph-name="caron" unicode="&#x2c7;" horiz-adv-x="500" d="M377 744 Q385 744 381 737 L271 574 Q268 567 259 567 L240 567 Q232 567 228 574 L118 737 Q115 744 122 744 L148 744 Q155 744 161 737 L250 612 L338 737 Q342 744 351 744 L377 744 L377 744 Z " />
<glyph glyph-name="cedilla" unicode="&#xb8;" horiz-adv-x="508" d="M311 -44 Q343 -44 363 -60.5 Q383 -77 383 -104 Q383 -137 356.5 -156 Q330 -175 292 -175 Q255 -175 227 -162 Q221 -159 221 -152 L221 -136 Q221 -130 227 -132 Q240 -138 256 -142 Q272 -146 289 -146 Q313 -146 330.5 -135.5 Q348 -125 348 -105 Q348 -87 333 -78 Q318 -69 298 -69 Q271 -69 250 -77 L248 -74 L305 9 L336 9 L298 -45 Q301 -44 304.5 -44 Q308 -44 311 -44 Z " />
<glyph glyph-name="circumflex" unicode="&#x2c6;" horiz-adv-x="500" d="M382 568 Q386 562 379 562 L351 562 Q344 562 340 568 L250 702 L159 568 Q157 565 155 563.5 Q153 562 148 562 L120 562 Q113 562 117 568 L227 743 Q231 749 238 749 L261 749 Q268 749 272 743 L382 568 L382 568 Z " />
<glyph glyph-name="dieresis" unicode="&#xa8;" horiz-adv-x="500" d="M180 647 Q163 647 153.5 658 Q144 669 144 685 Q144 700 153.5 711 Q163 722 180 722 Q196 722 205.5 711 Q215 700 215 685 Q215 669 205.5 658 Q196 647 180 647 Z M320 647 Q303 647 293.5 658 Q284 669 284 685 Q284 700 293.5 711 Q303 722 320 722 Q336 722 345.5 711 Q355 700 355 685 Q355 669 345.5 658 Q336 647 320 647 Z " />
<glyph glyph-name="dotaccent" unicode="&#x2d9;" horiz-adv-x="500" d="M251 627 Q228 627 215.5 642.5 Q203 658 203 678 Q203 698 215.5 713 Q228 728 251 728 Q272 728 285 713 Q298 698 298 678 Q298 658 285 642.5 Q272 627 251 627 Z " />
<glyph glyph-name="grave" unicode="&#x60;" horiz-adv-x="500" d="M330 570 Q333 563 326 563 L304 563 Q297 563 291 569 L166 742 Q161 748 169 751 L207 764 Q209 765 211 765 Q216 765 219 760 L330 570 L330 570 Z " />
<glyph glyph-name="hungarumlaut" unicode="&#x2dd;" horiz-adv-x="500" d="M128 562 Q120 562 123 569 L209 757 Q212 763 220 762 L255 751 Q263 749 259 742 L161 569 Q156 562 149 562 L128 562 Z M240 562 Q232 562 235 569 L326 757 Q329 763 337 762 L373 751 Q381 749 377 742 L273 569 Q269 562 261 562 L240 562 Z " />
<glyph glyph-name="macron" unicode="&#xaf;" horiz-adv-x="500" d="M124 638 Q116 638 116 646 L116 668 Q116 676 124 676 L375 676 Q383 676 383 668 L383 646 Q383 638 375 638 L124 638 L124 638 Z " />
<glyph glyph-name="ogonek" unicode="&#x2db;" horiz-adv-x="500" d="M271 -175 Q234 -175 208 -154.5 Q182 -134 182 -99 Q182 -80 191 -62.5 Q200 -45 216 -29.5 Q232 -14 252.5 -1 Q273 12 297 21 L320 6 Q269 -20 245.5 -45 Q222 -70 222 -95 Q222 -117 238 -129.5 Q254 -142 277 -142 Q286 -142 294.5 -140 Q303 -138 311 -135 Q315 -134 316.5 -134.5 Q318 -135 318 -140 L318 -157 Q318 -165 312 -167 Q294 -175 271 -175 Z " />
<glyph glyph-name="ring" unicode="&#x2da;" horiz-adv-x="500" d="M250 575 Q214 575 189.5 599.5 Q165 624 165 662 Q165 699 190 722.5 Q215 746 250 746 Q285 746 309.5 722.5 Q334 699 334 662 Q334 624 309.5 599.5 Q285 575 250 575 Z M250 602 Q274 602 290 619 Q306 636 306 662 Q306 688 290 704.5 Q274 721 250 721 Q225 721 209.5 704.5 Q194 688 194 662 Q194 636 209.5 619 Q225 602 250 602 Z " />
<glyph glyph-name="tilde" unicode="&#x2dc;" horiz-adv-x="500" d="M314 604 Q289 604 273 617 Q257 630 243 645 Q232 659 220 669 Q208 679 191 679 Q168 679 155.5 659.5 Q143 640 141 608 Q141 602 135 602 L115 602 Q109 602 109 608 Q111 656 131.5 688.5 Q152 721 190 721 Q216 721 232.5 707.5 Q249 694 262 679 Q273 666 284 656.5 Q295 647 312 647 Q333 647 344.5 664 Q356 681 358 710 Q358 716 364 716 L385 716 Q391 716 391 710 Q389 665 369 634.5 Q349 604 314 604 Z " />
<glyph glyph-name="A" unicode="A" horiz-adv-x="636" d="M620 7 Q623 0 615 0 L574 0 Q566 0 563 7 L477 228 L156 228 L69 7 Q65 0 58 0 L20 0 Q12 0 15 7 L297 707 Q300 714 308 714 L329 714 Q337 714 340 707 L620 7 Z M460 273 Q425 365 389.5 457.5 Q354 550 318 646 Q282 550 246 457.5 Q210 365 174 273 L460 273 Z " />
<glyph glyph-name="Aacute" unicode="&#xc1;" horiz-adv-x="643" d="M620 7 Q623 0 615 0 L574 0 Q566 0 563 7 L477 228 L156 228 L69 7 Q65 0 58 0 L20 0 Q12 0 15 7 L297 707 Q300 714 308 714 L329 714 Q337 714 340 707 L620 7 Z M460 273 Q425 365 389.5 457.5 Q354 550 318 646 Q282 550 246 457.5 Q210 365 174 273 L460 273 Z M300 763 Q292 763 296 770 L357 889 Q362 896 369 896 L426 896 Q436 896 430 889 L331 769 Q326 763 318 763 L300 763 L300 763 Z " />
</font>
</svg>
