<?xml version="1.0" encoding="UTF-8"?>
<svg xmlns="http://www.w3.org/2000/svg" xmlns:xlink="http://www.w3.org/1999/xlink" version="1.2" >
<font id="GlobotipoTexto-Bold">
<font-face  font-family="Globotipo Texto" units-per-em="1000" ascent="1000" descent="-400" font-style="normal" font-weight="700" font-stretch="normal" cap-height="710" x-height="480" underline-position="-75" underline-thickness="50" />
<missing-glyph  horiz-adv-x="700" d="M350 709 Q423 709 487.5 681 Q552 653 600 605 Q648 557 676 492.5 Q704 428 704 355 Q704 281 676 216.5 Q648 152 600 104 Q552 56 487.5 28 Q423 0 350 0 Q276 0 211.5 28 Q147 56 99 104 Q51 152 23 216.5 Q-5 281 -5 355 Q-5 428 23 492.5 Q51 557 99 605 Q147 653 211.5 681 Q276 709 350 709 Z M350 20 Q419 20 480 46.5 Q541 73 586 118.5 Q631 164 657.5 225 Q684 286 684 355 Q684 424 657.5 485 Q631 546 586 591 Q541 636 480 662.5 Q419 689 350 689 Q281 689 220 662.5 Q159 636 113.5 591 Q68 546 41.5 485 Q15 424 15 355 Q15 286 41.5 225 Q68 164 113.5 118.5 Q159 73 220 46.5 Q281 20 350 20 Z M569 559 L364 354 L569 149 L555 135 L350 340 L145 135 L131 149 L336 354 L131 559 L145 573 L350 368 L555 573 L569 559 Z " />
<glyph glyph-name=".null" d="" />
<glyph glyph-name="nonmarkingreturn" unicode="&#xd;" horiz-adv-x="206" d="" />
<glyph glyph-name="space" unicode="&#x20;" horiz-adv-x="206" d="" />
<glyph glyph-name="Adieresis" unicode="&#xc4;" horiz-adv-x="705" d="M664 12 Q665 10 665 7 Q665 0 655 0 L522 0 Q510 0 504 13 Q493 45 481.5 76.5 Q470 108 458 140 L204 140 Q193 108 181 76 Q169 44 157 12 Q154 0 139 0 L16 0 Q2 0 8 13 L281 699 Q286 711 300 711 L375 711 Q387 711 393 698 L664 12 Z M419 254 Q397 316 376 381 Q355 446 333 518 Q288 376 245 254 L419 254 Z M250 774 Q221 774 203.5 794 Q186 814 186 843 Q186 871 203.5 891 Q221 911 250 911 Q278 911 296 891 Q314 871 314 843 Q314 814 296 794 Q278 774 250 774 Z M434 774 Q405 774 387.5 794 Q370 814 370 843 Q370 871 387.5 891 Q405 911 434 911 Q462 911 480 891 Q498 871 498 843 Q498 814 480 794 Q462 774 434 774 Z " />
<glyph glyph-name="Agrave" unicode="&#xc0;" horiz-adv-x="705" d="M664 12 Q665 10 665 7 Q665 0 655 0 L522 0 Q510 0 504 13 Q493 45 481.5 76.5 Q470 108 458 140 L204 140 Q193 108 181 76 Q169 44 157 12 Q154 0 139 0 L16 0 Q2 0 8 13 L281 699 Q286 711 300 711 L375 711 Q387 711 393 698 L664 12 Z M419 254 Q397 316 376 381 Q355 446 333 518 Q288 376 245 254 L419 254 Z M363 774 Q364 772 364 769 Q364 762 354 762 L302 762 Q288 762 280 773 L171 903 Q167 909 167 910 Q167 914 177 914 L290 914 Q303 914 309 901 L363 774 L363 774 Z " />
<glyph glyph-name="Aring" unicode="&#xc5;" horiz-adv-x="705" d="M664 12 Q665 10 665 7 Q665 0 655 0 L522 0 Q510 0 504 13 Q493 45 481.5 76.5 Q470 108 458 140 L204 140 Q193 108 181 76 Q169 44 157 12 Q154 0 139 0 L16 0 Q2 0 8 13 L281 699 Q286 711 300 711 L375 711 Q387 711 393 698 L664 12 Z M419 254 Q397 316 376 381 Q355 446 333 518 Q288 376 245 254 L419 254 Z M337 743 Q316 743 296.5 751 Q277 759 262 773 Q247 787 238 806 Q229 825 229 848 Q229 870 238 889 Q247 908 262 921 Q277 934 296.5 941.5 Q316 949 337 949 Q358 949 377.5 941.5 Q397 934 412 921 Q427 908 436 889 Q445 870 445 848 Q445 825 436 806 Q427 787 412 773 Q397 759 377.5 751 Q358 743 337 743 Z M337 798 Q357 798 370.5 812 Q384 826 384 847 Q384 868 370.5 881.5 Q357 895 337 895 Q316 895 302.5 881.5 Q289 868 289 847 Q289 826 302.5 812 Q316 798 337 798 Z " />
<glyph glyph-name="Atilde" unicode="&#xc3;" horiz-adv-x="705" d="M664 12 Q665 10 665 7 Q665 0 655 0 L522 0 Q510 0 504 13 Q493 45 481.5 76.5 Q470 108 458 140 L204 140 Q193 108 181 76 Q169 44 157 12 Q154 0 139 0 L16 0 Q2 0 8 13 L281 699 Q286 711 300 711 L375 711 Q387 711 393 698 L664 12 Z M419 254 Q397 316 376 381 Q355 446 333 518 Q288 376 245 254 L419 254 Z M276 825 Q258 825 246 814.5 Q234 804 232 783 Q232 776 225 776 L168 776 Q161 776 161 783 Q162 810 169 835 Q176 860 189.5 878.5 Q203 897 223 908 Q243 919 269 919 Q293 919 313.5 908 Q334 897 351 886 Q364 877 376 870.5 Q388 864 399 864 Q416 864 425.5 876.5 Q435 889 437 909 Q437 916 444 916 L503 916 Q510 916 510 909 Q509 880 501 855 Q493 830 479.5 811.5 Q466 793 447.5 782 Q429 771 406 771 Q383 771 363.5 781 Q344 791 327 802 Q313 811 301 818 Q289 825 276 825 Z " />
<glyph glyph-name="AE" unicode="&#xc6;" horiz-adv-x="852" d="M563 605 L563 418 L761 418 Q774 418 774 404 L774 326 Q774 313 760 313 L563 313 L563 105 L793 105 Q806 105 806 91 L806 13 Q806 0 792 0 L442 0 Q429 0 429 14 L429 153 L227 153 L155 12 Q149 0 135 0 L15 0 Q1 0 9 12 L377 699 Q383 710 397 710 L794 710 Q806 710 806 697 L806 618 Q806 605 792 605 L563 605 Z M429 259 L429 552 L280 259 L429 259 Z " />
<glyph glyph-name="B" unicode="B" horiz-adv-x="571" d="M396 382 Q468 368 509.5 323.5 Q551 279 551 209 Q551 164 532.5 125.5 Q514 87 478.5 59 Q443 31 391.5 15.5 Q340 0 275 0 L82 0 Q69 0 69 14 L69 697 Q69 710 83 710 L256 710 Q381 710 447.5 664 Q514 618 514 535 Q514 478 481 436.5 Q448 395 396 384 L396 382 Z M209 603 L209 418 L266 418 Q317 418 348 442 Q379 466 379 513 Q379 557 347 580 Q315 603 261 603 L209 603 Z M265 107 Q329 107 366.5 134.5 Q404 162 404 211 Q404 258 367.5 284.5 Q331 311 269 311 L209 311 L209 107 L265 107 Z " />
<glyph glyph-name="C" unicode="C" horiz-adv-x="642" d="M410 -9 Q335 -9 266.5 16.5 Q198 42 146.5 89 Q95 136 64.5 204 Q34 272 34 357 Q34 441 65 508.5 Q96 576 148.5 623 Q201 670 270 695 Q339 720 415 720 Q466 720 509 711 Q552 702 581 691 Q593 686 593 672 L593 578 Q593 558 581 558 Q577 558 565 563 Q537 577 501.5 584.5 Q466 592 428 592 Q376 592 330.5 575.5 Q285 559 251.5 528.5 Q218 498 198.5 455 Q179 412 179 358 Q179 302 198.5 258 Q218 214 251.5 183.5 Q285 153 330.5 136.5 Q376 120 428 120 Q469 120 506.5 130 Q544 140 576 154 Q586 159 591 159 Q603 159 603 137 L603 46 Q603 33 591 27 Q556 11 511 1 Q466 -9 410 -9 Z " />
<glyph glyph-name="Ccedilla" unicode="&#xc7;" horiz-adv-x="642" d="M576 154 Q586 159 591 159 Q603 159 603 137 L603 46 Q603 33 591 27 Q556 11 511 1 Q466 -9 410 -9 L404 -9 L387 -38 Q423 -39 446.5 -57 Q470 -75 470 -107 Q470 -147 436.5 -169.5 Q403 -192 355 -192 Q331 -192 312.5 -188.5 Q294 -185 281 -180 Q271 -176 271 -164 L271 -128 Q271 -117 281 -121 Q294 -126 309 -130 Q324 -134 341 -134 Q361 -134 374 -127 Q387 -120 387 -108 Q387 -95 374 -88 Q361 -81 343 -81 Q319 -81 301 -89 L298 -86 L345 -4 Q280 6 223.5 35.5 Q167 65 125 111 Q83 157 58.5 219 Q34 281 34 357 Q34 441 65 508.5 Q96 576 148.5 623 Q201 670 270 695 Q339 720 415 720 Q466 720 509 711 Q552 702 581 691 Q593 686 593 672 L593 578 Q593 558 581 558 Q577 558 565 563 Q537 577 501.5 584.5 Q466 592 428 592 Q376 592 330.5 575.5 Q285 559 251.5 528.5 Q218 498 198.5 455 Q179 412 179 358 Q179 302 198.5 258 Q218 214 251.5 183.5 Q285 153 330.5 136.5 Q376 120 428 120 Q469 120 506.5 130 Q544 140 576 154 Z " />
<glyph glyph-name="D" unicode="D" horiz-adv-x="719" d="M69 697 Q69 710 83 710 L260 710 Q357 710 435.5 684 Q514 658 569.5 611.5 Q625 565 655 500.5 Q685 436 685 358 Q685 278 655 212 Q625 146 570 99 Q515 52 436 26 Q357 0 260 0 L82 0 Q69 0 69 14 L69 697 Z M213 591 L213 118 L262 119 Q325 119 375.5 135.5 Q426 152 462 182.5 Q498 213 517.5 256.5 Q537 300 537 354 Q537 409 517.5 453 Q498 497 462 527.5 Q426 558 375.5 574.5 Q325 591 262 591 L213 591 Z " />
<glyph glyph-name="Eth" unicode="&#xd0;" horiz-adv-x="697" d="M260 710 Q357 710 435.5 684 Q514 658 569.5 611.5 Q625 565 655 500.5 Q685 436 685 358 Q685 278 655 212 Q625 146 570 99 Q515 52 436 26 Q357 0 260 0 L82 0 Q69 0 69 14 L69 313 L22 313 Q9 313 9 327 L9 401 Q9 414 23 414 L69 414 L69 697 Q69 710 83 710 L260 710 Z M262 119 Q325 119 375.5 135.5 Q426 152 462 182.5 Q498 213 517.5 256.5 Q537 300 537 354 Q537 409 517.5 453 Q498 497 462 527.5 Q426 558 375.5 574.5 Q325 591 262 591 L213 591 L213 410 L357 410 Q370 410 370 396 L370 330 Q370 317 356 317 L213 317 L213 118 L262 119 Z " />
<glyph glyph-name="E" unicode="E" horiz-adv-x="530" d="M209 596 L209 422 L436 422 Q449 422 449 408 L449 321 Q449 308 435 308 L209 308 L209 114 L470 114 Q483 114 483 100 L483 13 Q483 0 469 0 L82 0 Q69 0 69 14 L69 697 Q69 710 83 710 L470 710 Q483 710 483 696 L483 609 Q483 596 469 596 L209 596 Z " />
<glyph glyph-name="Eacute" unicode="&#xc9;" horiz-adv-x="528" d="M209 596 L209 422 L436 422 Q449 422 449 408 L449 321 Q449 308 435 308 L209 308 L209 114 L470 114 Q483 114 483 100 L483 13 Q483 0 469 0 L82 0 Q69 0 69 14 L69 697 Q69 710 83 710 L470 710 Q483 710 483 696 L483 609 Q483 596 469 596 L209 596 Z M225 759 Q212 759 218 772 L272 898 Q277 910 291 910 L405 910 Q413 910 413 906 Q413 903 409 899 L299 769 Q291 759 277 759 L225 759 L225 759 Z " />
<glyph glyph-name="Ecircumflex" unicode="&#xca;" horiz-adv-x="528" d="M209 596 L209 422 L436 422 Q449 422 449 408 L449 321 Q449 308 435 308 L209 308 L209 114 L470 114 Q483 114 483 100 L483 13 Q483 0 469 0 L82 0 Q69 0 69 14 L69 697 Q69 710 83 710 L470 710 Q483 710 483 696 L483 609 Q483 596 469 596 L209 596 Z M428 766 Q434 757 424 757 L361 757 Q350 757 342 765 L269 840 L198 765 Q190 757 179 757 L113 757 Q103 757 109 766 L214 899 Q221 908 232 908 L306 908 Q318 908 324 899 L428 766 L428 766 Z " />
<glyph glyph-name="Edieresis" unicode="&#xcb;" horiz-adv-x="528" d="M209 596 L209 422 L436 422 Q449 422 449 408 L449 321 Q449 308 435 308 L209 308 L209 114 L470 114 Q483 114 483 100 L483 13 Q483 0 469 0 L82 0 Q69 0 69 14 L69 697 Q69 710 83 710 L470 710 Q483 710 483 696 L483 609 Q483 596 469 596 L209 596 Z M182 774 Q153 774 135.5 794 Q118 814 118 843 Q118 871 135.5 891 Q153 911 182 911 Q210 911 228 891 Q246 871 246 843 Q246 814 228 794 Q210 774 182 774 Z M366 774 Q337 774 319.5 794 Q302 814 302 843 Q302 871 319.5 891 Q337 911 366 911 Q394 911 412 891 Q430 871 430 843 Q430 814 412 794 Q394 774 366 774 Z " />
<glyph glyph-name="Egrave" unicode="&#xc8;" horiz-adv-x="528" d="M209 596 L209 422 L436 422 Q449 422 449 408 L449 321 Q449 308 435 308 L209 308 L209 114 L470 114 Q483 114 483 100 L483 13 Q483 0 469 0 L82 0 Q69 0 69 14 L69 697 Q69 710 83 710 L470 710 Q483 710 483 696 L483 609 Q483 596 469 596 L209 596 Z M295 774 Q296 772 296 769 Q296 762 286 762 L234 762 Q220 762 212 773 L103 903 Q99 909 99 910 Q99 914 109 914 L222 914 Q235 914 241 901 L295 774 L295 774 Z " />
<glyph glyph-name="F" unicode="F" horiz-adv-x="509" d="M465 710 Q478 710 478 696 L478 611 Q478 598 464 598 L210 598 L210 387 L440 387 Q453 387 453 373 L453 288 Q453 275 439 275 L210 275 L210 13 Q210 0 196 0 L82 0 Q69 0 69 14 L69 697 Q69 710 83 710 L465 710 L465 710 Z " />
<glyph glyph-name="G" unicode="G" horiz-adv-x="757" d="M397 -9 Q320 -9 254 18 Q188 45 138.5 93.5 Q89 142 61 209 Q33 276 33 356 Q33 435 62.5 501.5 Q92 568 144.5 616.5 Q197 665 269 692.5 Q341 720 425 720 Q453 720 483.5 716.5 Q514 713 543 707 Q572 701 598.5 692 Q625 683 644 672 Q655 666 655 651 L655 565 Q655 542 642 542 Q634 542 622 548 Q582 569 530.5 582 Q479 595 425 595 Q373 595 328 577.5 Q283 560 249.5 528.5 Q216 497 197 453 Q178 409 178 355 Q178 301 196 257 Q214 213 245 182 Q276 151 317 134.5 Q358 118 403 118 Q443 118 478.5 129.5 Q514 141 541 162 Q568 183 583.5 213 Q599 243 600 280 L419 280 Q406 280 406 294 L406 384 Q406 397 420 397 L713 397 Q727 397 728 383 Q730 369 731 355 Q732 341 732 325 Q732 246 706.5 184 Q681 122 636 79 Q591 36 530 13.5 Q469 -9 397 -9 Z " />
<glyph glyph-name="H" unicode="H" horiz-adv-x="718" d="M636 710 Q649 710 649 696 L649 13 Q649 0 635 0 L517 0 Q504 0 504 14 L504 306 L213 306 L213 13 Q213 0 199 0 L82 0 Q69 0 69 14 L69 697 Q69 710 83 710 L200 710 Q213 710 213 696 L213 420 L504 420 L504 697 Q504 710 518 710 L636 710 L636 710 Z " />
<glyph glyph-name="I" unicode="I" horiz-adv-x="309" d="M95 0 Q82 0 82 14 L82 697 Q82 710 96 710 L215 710 Q228 710 228 696 L228 13 Q228 0 214 0 L95 0 L95 0 Z " />
<glyph glyph-name="Iacute" unicode="&#xcd;" horiz-adv-x="309" d="M95 0 Q82 0 82 14 L82 697 Q82 710 96 710 L215 710 Q228 710 228 696 L228 13 Q228 0 214 0 L95 0 L95 0 Z M111 759 Q98 759 104 772 L158 898 Q163 910 177 910 L291 910 Q299 910 299 906 Q299 903 295 899 L185 769 Q177 759 163 759 L111 759 L111 759 Z " />
<glyph glyph-name="Icircumflex" unicode="&#xce;" horiz-adv-x="309" d="M95 0 Q82 0 82 14 L82 697 Q82 710 96 710 L215 710 Q228 710 228 696 L228 13 Q228 0 214 0 L95 0 L95 0 Z M314 766 Q320 757 310 757 L247 757 Q236 757 228 765 L155 840 L84 765 Q76 757 65 757 L-1 757 Q-11 757 -5 766 L100 899 Q107 908 118 908 L192 908 Q204 908 210 899 L314 766 L314 766 Z " />
<glyph glyph-name="Idieresis" unicode="&#xcf;" horiz-adv-x="309" d="M95 0 Q82 0 82 14 L82 697 Q82 710 96 710 L215 710 Q228 710 228 696 L228 13 Q228 0 214 0 L95 0 L95 0 Z M68 774 Q39 774 21.5 794 Q4 814 4 843 Q4 871 21.5 891 Q39 911 68 911 Q96 911 114 891 Q132 871 132 843 Q132 814 114 794 Q96 774 68 774 Z M252 774 Q223 774 205.5 794 Q188 814 188 843 Q188 871 205.5 891 Q223 911 252 911 Q280 911 298 891 Q316 871 316 843 Q316 814 298 794 Q280 774 252 774 Z " />
<glyph glyph-name="Igrave" unicode="&#xcc;" horiz-adv-x="309" d="M95 0 Q82 0 82 14 L82 697 Q82 710 96 710 L215 710 Q228 710 228 696 L228 13 Q228 0 214 0 L95 0 L95 0 Z M181 774 Q182 772 182 769 Q182 762 172 762 L120 762 Q106 762 98 773 L-11 903 Q-15 909 -15 910 Q-15 914 -5 914 L108 914 Q121 914 127 901 L181 774 L181 774 Z " />
<glyph glyph-name="J" unicode="J" horiz-adv-x="433" d="M146 -9 Q111 -9 80.5 -3 Q50 3 28 14 Q16 19 16 33 L16 140 Q16 150 22 150 Q24 150 26.5 148.5 Q29 147 34 145 Q53 136 77.5 129.5 Q102 123 127 123 Q169 123 196 148 Q223 173 223 229 L223 697 Q223 710 236 710 L356 710 Q369 710 369 697 L369 231 Q369 174 353 129 Q337 84 307.5 53.5 Q278 23 237 7 Q196 -9 146 -9 Z " />
<glyph glyph-name="K" unicode="K" horiz-adv-x="652" d="M634 24 Q642 14 642 9 Q642 0 622 0 L483 0 Q470 0 462 11 L215 337 L215 13 Q215 0 201 0 L82 0 Q69 0 69 14 L69 697 Q69 710 83 710 L202 710 Q215 710 215 696 L215 389 L459 700 Q467 710 481 710 L618 710 Q636 710 636 701 Q636 695 628 686 L355 363 L634 24 L634 24 Z " />
<glyph glyph-name="L" unicode="L" horiz-adv-x="491" d="M457 125 Q470 125 470 111 L470 13 Q470 0 456 0 L82 0 Q69 0 69 14 L69 697 Q69 710 83 710 L201 710 Q214 710 214 696 L214 125 L457 125 L457 125 Z " />
<glyph glyph-name="Lslash" unicode="&#x141;" horiz-adv-x="491" d="M457 125 Q470 125 470 111 L470 13 Q470 0 456 0 L82 0 Q69 0 69 14 L69 312 L27 295 Q25 294 22 294 Q15 294 15 304 L15 349 Q15 361 28 367 L69 383 L69 697 Q69 710 83 710 L201 710 Q214 710 214 696 L214 440 L271 463 Q273 464 276 464 Q283 464 283 454 L283 409 Q283 397 270 391 L214 369 L214 125 L457 125 L457 125 Z " />
<glyph glyph-name="M" unicode="M" horiz-adv-x="901" d="M888 10 Q888 0 876 0 L754 0 Q740 0 739 14 L663 484 L506 22 Q503 10 488 10 L416 10 Q404 10 398 23 L237 474 L154 13 Q152 0 138 0 L12 0 Q11 0 11 1 L145 698 Q147 711 161 711 L272 711 Q284 711 290 698 L458 229 L620 699 Q623 711 638 711 L738 711 Q751 711 754 697 L888 13 L888 10 Z " />
<glyph glyph-name="N" unicode="N" horiz-adv-x="748" d="M666 710 Q679 710 679 696 L679 13 Q679 0 665 0 L585 0 Q573 0 563 11 L204 467 L204 13 Q204 0 190 0 L82 0 Q69 0 69 14 L69 697 Q69 710 83 710 L163 710 Q175 710 185 699 L544 238 L544 697 Q544 710 558 710 L666 710 L666 710 Z " />
<glyph glyph-name="Ntilde" unicode="&#xd1;" horiz-adv-x="748" d="M666 710 Q679 710 679 696 L679 13 Q679 0 665 0 L585 0 Q573 0 563 11 L204 467 L204 13 Q204 0 190 0 L82 0 Q69 0 69 14 L69 697 Q69 710 83 710 L163 710 Q175 710 185 699 L544 238 L544 697 Q544 710 558 710 L666 710 L666 710 Z M313 825 Q295 825 283 814.5 Q271 804 269 783 Q269 776 262 776 L205 776 Q198 776 198 783 Q199 810 206 835 Q213 860 226.5 878.5 Q240 897 260 908 Q280 919 306 919 Q330 919 350.5 908 Q371 897 388 886 Q401 877 413 870.5 Q425 864 436 864 Q453 864 462.5 876.5 Q472 889 474 909 Q474 916 481 916 L540 916 Q547 916 547 909 Q546 880 538 855 Q530 830 516.5 811.5 Q503 793 484.5 782 Q466 771 443 771 Q420 771 400.5 781 Q381 791 364 802 Q350 811 338 818 Q326 825 313 825 Z " />
<glyph glyph-name="O" unicode="O" horiz-adv-x="800" d="M400 -9 Q325 -9 258.5 18 Q192 45 141.5 93 Q91 141 62 207.5 Q33 274 33 354 Q33 434 62.5 501.5 Q92 569 142 617.5 Q192 666 258.5 693.5 Q325 721 400 721 Q474 721 540.5 693.5 Q607 666 657.5 617.5 Q708 569 737.5 501.5 Q767 434 767 354 Q767 275 737.5 208.5 Q708 142 658 93.5 Q608 45 541.5 18 Q475 -9 400 -9 Z M400 126 Q448 126 490 143.5 Q532 161 563 191.5 Q594 222 612 264 Q630 306 630 354 Q630 403 612 446 Q594 489 563 520 Q532 551 490 569 Q448 587 400 587 Q351 587 309 569 Q267 551 236 520 Q205 489 187.5 446 Q170 403 170 354 Q170 306 187.5 264 Q205 222 236 191.5 Q267 161 309 143.5 Q351 126 400 126 Z " />
<glyph glyph-name="Oacute" unicode="&#xd3;" horiz-adv-x="810" d="M400 -9 Q325 -9 258.5 18 Q192 45 141.5 93 Q91 141 62 207.5 Q33 274 33 354 Q33 434 62.5 501.5 Q92 569 142 617.5 Q192 666 258.5 693.5 Q325 721 400 721 Q474 721 540.5 693.5 Q607 666 657.5 617.5 Q708 569 737.5 501.5 Q767 434 767 354 Q767 275 737.5 208.5 Q708 142 658 93.5 Q608 45 541.5 18 Q475 -9 400 -9 Z M400 126 Q448 126 490 143.5 Q532 161 563 191.5 Q594 222 612 264 Q630 306 630 354 Q630 403 612 446 Q594 489 563 520 Q532 551 490 569 Q448 587 400 587 Q351 587 309 569 Q267 551 236 520 Q205 489 187.5 446 Q170 403 170 354 Q170 306 187.5 264 Q205 222 236 191.5 Q267 161 309 143.5 Q351 126 400 126 Z M356 760 Q343 760 349 773 L403 899 Q408 911 422 911 L536 911 Q544 911 544 907 Q544 904 540 900 L430 770 Q422 760 408 760 L356 760 L356 760 Z " />
<glyph glyph-name="Ocircumflex" unicode="&#xd4;" horiz-adv-x="810" d="M400 -9 Q325 -9 258.5 18 Q192 45 141.5 93 Q91 141 62 207.5 Q33 274 33 354 Q33 434 62.5 501.5 Q92 569 142 617.5 Q192 666 258.5 693.5 Q325 721 400 721 Q474 721 540.5 693.5 Q607 666 657.5 617.5 Q708 569 737.5 501.5 Q767 434 767 354 Q767 275 737.5 208.5 Q708 142 658 93.5 Q608 45 541.5 18 Q475 -9 400 -9 Z M400 126 Q448 126 490 143.5 Q532 161 563 191.5 Q594 222 612 264 Q630 306 630 354 Q630 403 612 446 Q594 489 563 520 Q532 551 490 569 Q448 587 400 587 Q351 587 309 569 Q267 551 236 520 Q205 489 187.5 446 Q170 403 170 354 Q170 306 187.5 264 Q205 222 236 191.5 Q267 161 309 143.5 Q351 126 400 126 Z M559 767 Q565 758 555 758 L492 758 Q481 758 473 766 L400 841 L329 766 Q321 758 310 758 L244 758 Q234 758 240 767 L345 900 Q352 909 363 909 L437 909 Q449 909 455 900 L559 767 L559 767 Z " />
<glyph glyph-name="Odieresis" unicode="&#xd6;" horiz-adv-x="810" d="M400 -9 Q325 -9 258.5 18 Q192 45 141.5 93 Q91 141 62 207.5 Q33 274 33 354 Q33 434 62.5 501.5 Q92 569 142 617.5 Q192 666 258.5 693.5 Q325 721 400 721 Q474 721 540.5 693.5 Q607 666 657.5 617.5 Q708 569 737.5 501.5 Q767 434 767 354 Q767 275 737.5 208.5 Q708 142 658 93.5 Q608 45 541.5 18 Q475 -9 400 -9 Z M400 126 Q448 126 490 143.5 Q532 161 563 191.5 Q594 222 612 264 Q630 306 630 354 Q630 403 612 446 Q594 489 563 520 Q532 551 490 569 Q448 587 400 587 Q351 587 309 569 Q267 551 236 520 Q205 489 187.5 446 Q170 403 170 354 Q170 306 187.5 264 Q205 222 236 191.5 Q267 161 309 143.5 Q351 126 400 126 Z M313 775 Q284 775 266.5 795 Q249 815 249 844 Q249 872 266.5 892 Q284 912 313 912 Q341 912 359 892 Q377 872 377 844 Q377 815 359 795 Q341 775 313 775 Z M497 775 Q468 775 450.5 795 Q433 815 433 844 Q433 872 450.5 892 Q468 912 497 912 Q525 912 543 892 Q561 872 561 844 Q561 815 543 795 Q525 775 497 775 Z " />
<glyph glyph-name="Ograve" unicode="&#xd2;" horiz-adv-x="810" d="M400 -9 Q325 -9 258.5 18 Q192 45 141.5 93 Q91 141 62 207.5 Q33 274 33 354 Q33 434 62.5 501.5 Q92 569 142 617.5 Q192 666 258.5 693.5 Q325 721 400 721 Q474 721 540.5 693.5 Q607 666 657.5 617.5 Q708 569 737.5 501.5 Q767 434 767 354 Q767 275 737.5 208.5 Q708 142 658 93.5 Q608 45 541.5 18 Q475 -9 400 -9 Z M400 126 Q448 126 490 143.5 Q532 161 563 191.5 Q594 222 612 264 Q630 306 630 354 Q630 403 612 446 Q594 489 563 520 Q532 551 490 569 Q448 587 400 587 Q351 587 309 569 Q267 551 236 520 Q205 489 187.5 446 Q170 403 170 354 Q170 306 187.5 264 Q205 222 236 191.5 Q267 161 309 143.5 Q351 126 400 126 Z M426 775 Q427 773 427 770 Q427 763 417 763 L365 763 Q351 763 343 774 L234 904 Q230 910 230 911 Q230 915 240 915 L353 915 Q366 915 372 902 L426 775 L426 775 Z " />
<glyph glyph-name="Oslash" unicode="&#xd8;" horiz-adv-x="810" d="M621 649 Q687 600 727 524 Q767 448 767 354 Q767 275 737.5 208.5 Q708 142 658 93.5 Q608 45 541.5 18 Q475 -9 400 -9 Q304 -9 223 34 L183 -27 Q177 -38 162 -38 L126 -38 Q118 -38 118 -34 Q118 -31 121 -26 L178 62 Q112 110 72.5 185 Q33 260 33 354 Q33 434 62.5 501.5 Q92 569 142 617.5 Q192 666 258.5 693.5 Q325 721 400 721 Q448 721 492.5 709.5 Q537 698 578 676 L617 737 Q623 748 638 748 L672 748 Q680 748 680 744 Q680 740 677 736 L621 649 Z M170 354 Q170 299 192.5 253.5 Q215 208 253 177 L504 563 Q481 574 455 580.5 Q429 587 400 587 Q351 587 309 569 Q267 551 236 520 Q205 489 187.5 446 Q170 403 170 354 Z M400 126 Q448 126 490 143.5 Q532 161 563 191.5 Q594 222 612 264 Q630 306 630 354 Q630 410 607.5 456.5 Q585 503 547 535 L297 149 Q345 126 400 126 Z " />
<glyph glyph-name="Otilde" unicode="&#xd5;" horiz-adv-x="810" d="M400 -9 Q325 -9 258.5 18 Q192 45 141.5 93 Q91 141 62 207.5 Q33 274 33 354 Q33 434 62.5 501.5 Q92 569 142 617.5 Q192 666 258.5 693.5 Q325 721 400 721 Q474 721 540.5 693.5 Q607 666 657.5 617.5 Q708 569 737.5 501.5 Q767 434 767 354 Q767 275 737.5 208.5 Q708 142 658 93.5 Q608 45 541.5 18 Q475 -9 400 -9 Z M400 126 Q448 126 490 143.5 Q532 161 563 191.5 Q594 222 612 264 Q630 306 630 354 Q630 403 612 446 Q594 489 563 520 Q532 551 490 569 Q448 587 400 587 Q351 587 309 569 Q267 551 236 520 Q205 489 187.5 446 Q170 403 170 354 Q170 306 187.5 264 Q205 222 236 191.5 Q267 161 309 143.5 Q351 126 400 126 Z M339 826 Q321 826 309 815.5 Q297 805 295 784 Q295 777 288 777 L231 777 Q224 777 224 784 Q225 811 232 836 Q239 861 252.5 879.5 Q266 898 286 909 Q306 920 332 920 Q356 920 376.5 909 Q397 898 414 887 Q427 878 439 871.5 Q451 865 462 865 Q479 865 488.5 877.5 Q498 890 500 910 Q500 917 507 917 L566 917 Q573 917 573 910 Q572 881 564 856 Q556 831 542.5 812.5 Q529 794 510.5 783 Q492 772 469 772 Q446 772 426.5 782 Q407 792 390 803 Q376 812 364 819 Q352 826 339 826 Z " />
<glyph glyph-name="OE" unicode="&#x152;" horiz-adv-x="902" d="M592 603 L592 419 L810 419 Q823 419 823 405 L823 325 Q823 312 809 312 L592 312 L592 107 L844 107 Q857 107 857 93 L857 13 Q857 0 843 0 L448 0 Q357 0 281 25.5 Q205 51 150 98.5 Q95 146 64.5 212 Q34 278 34 359 Q34 439 65 504 Q96 569 151 614.5 Q206 660 282 685 Q358 710 448 710 L844 710 Q857 710 857 696 L857 616 Q857 603 843 603 L592 603 Z M451 591 Q387 591 336.5 574 Q286 557 251 526.5 Q216 496 197.5 453.5 Q179 411 179 359 Q179 305 197.5 261 Q216 217 251 185.5 Q286 154 336.5 136.5 Q387 119 451 119 L451 591 Z " />
<glyph glyph-name="P" unicode="P" horiz-adv-x="586" d="M269 710 Q337 710 391.5 694.5 Q446 679 484.5 649 Q523 619 543.5 575.5 Q564 532 564 477 Q564 424 544 380.5 Q524 337 486 306.5 Q448 276 393 259.5 Q338 243 269 243 L214 243 L214 13 Q214 0 200 0 L82 0 Q69 0 69 14 L69 697 Q69 710 83 710 L269 710 Z M267 357 Q340 357 378 390 Q416 423 416 477 Q416 532 378 564.5 Q340 597 268 597 L214 597 L214 357 L267 357 Z " />
<glyph glyph-name="Thorn" unicode="&#xde;" horiz-adv-x="586" d="M269 591 Q337 591 391.5 575.5 Q446 560 484.5 530 Q523 500 543.5 456.5 Q564 413 564 358 Q564 305 544 261.5 Q524 218 485.5 187.5 Q447 157 392.5 140.5 Q338 124 269 124 L214 124 L214 13 Q214 0 200 0 L82 0 Q69 0 69 14 L69 697 Q69 710 83 710 L201 710 Q214 710 214 696 L214 591 L269 591 Z M267 238 Q339 238 377.5 270.5 Q416 303 416 358 Q416 413 377.5 445 Q339 477 268 477 L214 477 L214 238 L267 238 Z " />
<glyph glyph-name="Q" unicode="Q" horiz-adv-x="810" d="M786 -24 Q790 -28 790 -33 Q790 -39 785 -43 L714 -106 Q710 -110 705 -110 Q699 -110 695 -104 L577 35 Q537 14 492.5 2.5 Q448 -9 400 -9 Q325 -9 258.5 18 Q192 45 141.5 93 Q91 141 62 207.5 Q33 274 33 354 Q33 434 62.5 501.5 Q92 569 142 617.5 Q192 666 258.5 693.5 Q325 721 400 721 Q474 721 540.5 693.5 Q607 666 657.5 617.5 Q708 569 737.5 501.5 Q767 434 767 354 Q767 280 742 217.5 Q717 155 672 107 L786 -24 Z M170 354 Q170 306 187.5 264 Q205 222 236 191.5 Q267 161 309 143.5 Q351 126 400 126 Q448 126 490 143.5 Q532 161 563 191.5 Q594 222 612 264 Q630 306 630 354 Q630 403 612 446 Q594 489 563 520 Q532 551 490 569 Q448 587 400 587 Q351 587 309 569 Q267 551 236 520 Q205 489 187.5 446 Q170 403 170 354 Z " />
<glyph glyph-name="R" unicode="R" horiz-adv-x="609" d="M591 20 Q597 12 597 8 Q597 0 581 0 L441 0 Q428 0 420 12 L233 286 L209 286 L209 13 Q209 0 195 0 L82 0 Q69 0 69 14 L69 697 Q69 710 83 710 L280 710 Q340 710 388.5 696.5 Q437 683 471.5 657.5 Q506 632 525 595.5 Q544 559 544 512 Q544 434 499.5 380.5 Q455 327 374 308 L591 20 Z M209 390 L271 390 Q336 390 371 418.5 Q406 447 406 498 Q406 547 370.5 575 Q335 603 271 603 L209 603 L209 390 Z " />
<glyph glyph-name="S" unicode="S" horiz-adv-x="539" d="M246 -10 Q195 -10 140.5 1.5 Q86 13 46 33 Q36 38 36 51 L36 159 Q36 168 40 168 Q41 168 47 166 Q93 137 141.5 123.5 Q190 110 235 110 Q293 110 329 133 Q365 156 365 198 Q365 220 355 236 Q345 252 327.5 264.5 Q310 277 287 287.5 Q264 298 238 309 Q196 328 160 348 Q124 368 97.5 393.5 Q71 419 56 450.5 Q41 482 41 523 Q41 568 59.5 604.5 Q78 641 111 666.5 Q144 692 189 706 Q234 720 287 720 Q331 720 374.5 712.5 Q418 705 451 692 Q463 687 463 674 L463 575 Q463 566 458 566 Q454 566 452 567 Q418 582 375 591.5 Q332 601 296 601 Q244 601 213.5 580.5 Q183 560 183 527 Q183 506 194.5 490.5 Q206 475 224.5 462.5 Q243 450 266.5 440 Q290 430 315 419 Q357 400 392 379.5 Q427 359 452.5 334 Q478 309 492.5 277.5 Q507 246 507 206 Q507 160 488.5 120.5 Q470 81 436 52 Q402 23 353.5 6.5 Q305 -10 246 -10 Z " />
<glyph glyph-name="Scaron" unicode="&#x160;" horiz-adv-x="539" d="M246 -10 Q195 -10 140.5 1.5 Q86 13 46 33 Q36 38 36 51 L36 159 Q36 168 40 168 Q41 168 47 166 Q93 137 141.5 123.5 Q190 110 235 110 Q293 110 329 133 Q365 156 365 198 Q365 220 355 236 Q345 252 327.5 264.5 Q310 277 287 287.5 Q264 298 238 309 Q196 328 160 348 Q124 368 97.5 393.5 Q71 419 56 450.5 Q41 482 41 523 Q41 568 59.5 604.5 Q78 641 111 666.5 Q144 692 189 706 Q234 720 287 720 Q331 720 374.5 712.5 Q418 705 451 692 Q463 687 463 674 L463 575 Q463 566 458 566 Q454 566 452 567 Q418 582 375 591.5 Q332 601 296 601 Q244 601 213.5 580.5 Q183 560 183 527 Q183 506 194.5 490.5 Q206 475 224.5 462.5 Q243 450 266.5 440 Q290 430 315 419 Q357 400 392 379.5 Q427 359 452.5 334 Q478 309 492.5 277.5 Q507 246 507 206 Q507 160 488.5 120.5 Q470 81 436 52 Q402 23 353.5 6.5 Q305 -10 246 -10 Z M421 908 Q428 908 428 904 Q428 901 425 897 L313 767 Q305 757 291 757 L248 757 Q234 757 226 768 L113 898 Q110 901 110 904 Q110 908 119 908 L181 908 Q194 908 204 898 L273 832 L339 899 Q348 908 362 908 L421 908 L421 908 Z " />
<glyph glyph-name="T" unicode="T" horiz-adv-x="565" d="M535 710 Q548 710 548 696 L548 601 Q548 588 534 588 L355 588 L355 13 Q355 0 341 0 L223 0 Q210 0 210 14 L210 588 L30 588 Q17 588 17 602 L17 697 Q17 710 31 710 L535 710 L535 710 Z " />
<glyph glyph-name="U" unicode="U" horiz-adv-x="692" d="M340 -9 Q281 -9 230.5 8.5 Q180 26 143 61.5 Q106 97 85.5 151 Q65 205 65 278 L65 698 Q65 711 79 711 L197 711 Q210 711 210 697 L210 267 Q210 189 248 151.5 Q286 114 347 114 Q407 114 445 151.5 Q483 189 483 267 L483 698 Q483 711 497 711 L614 711 Q627 711 627 697 L627 278 Q627 205 605.5 151 Q584 97 545.5 61.5 Q507 26 454.5 8.5 Q402 -9 340 -9 Z " />
<glyph glyph-name="Uacute" unicode="&#xda;" horiz-adv-x="692" d="M340 -9 Q281 -9 230.5 8.5 Q180 26 143 61.5 Q106 97 85.5 151 Q65 205 65 278 L65 698 Q65 711 79 711 L197 711 Q210 711 210 697 L210 267 Q210 189 248 151.5 Q286 114 347 114 Q407 114 445 151.5 Q483 189 483 267 L483 698 Q483 711 497 711 L614 711 Q627 711 627 697 L627 278 Q627 205 605.5 151 Q584 97 545.5 61.5 Q507 26 454.5 8.5 Q402 -9 340 -9 Z M300 759 Q287 759 293 772 L347 898 Q352 910 366 910 L480 910 Q488 910 488 906 Q488 903 484 899 L374 769 Q366 759 352 759 L300 759 L300 759 Z " />
<glyph glyph-name="Ucircumflex" unicode="&#xdb;" horiz-adv-x="692" d="M340 -9 Q281 -9 230.5 8.5 Q180 26 143 61.5 Q106 97 85.5 151 Q65 205 65 278 L65 698 Q65 711 79 711 L197 711 Q210 711 210 697 L210 267 Q210 189 248 151.5 Q286 114 347 114 Q407 114 445 151.5 Q483 189 483 267 L483 698 Q483 711 497 711 L614 711 Q627 711 627 697 L627 278 Q627 205 605.5 151 Q584 97 545.5 61.5 Q507 26 454.5 8.5 Q402 -9 340 -9 Z M503 766 Q509 757 499 757 L436 757 Q425 757 417 765 L344 840 L273 765 Q265 757 254 757 L188 757 Q178 757 184 766 L289 899 Q296 908 307 908 L381 908 Q393 908 399 899 L503 766 L503 766 Z " />
<glyph glyph-name="Udieresis" unicode="&#xdc;" horiz-adv-x="692" d="M340 -9 Q281 -9 230.5 8.5 Q180 26 143 61.5 Q106 97 85.5 151 Q65 205 65 278 L65 698 Q65 711 79 711 L197 711 Q210 711 210 697 L210 267 Q210 189 248 151.5 Q286 114 347 114 Q407 114 445 151.5 Q483 189 483 267 L483 698 Q483 711 497 711 L614 711 Q627 711 627 697 L627 278 Q627 205 605.5 151 Q584 97 545.5 61.5 Q507 26 454.5 8.5 Q402 -9 340 -9 Z M257 774 Q228 774 210.5 794 Q193 814 193 843 Q193 871 210.5 891 Q228 911 257 911 Q285 911 303 891 Q321 871 321 843 Q321 814 303 794 Q285 774 257 774 Z M441 774 Q412 774 394.5 794 Q377 814 377 843 Q377 871 394.5 891 Q412 911 441 911 Q469 911 487 891 Q505 871 505 843 Q505 814 487 794 Q469 774 441 774 Z " />
<glyph glyph-name="Ugrave" unicode="&#xd9;" horiz-adv-x="692" d="M340 -9 Q281 -9 230.5 8.5 Q180 26 143 61.5 Q106 97 85.5 151 Q65 205 65 278 L65 698 Q65 711 79 711 L197 711 Q210 711 210 697 L210 267 Q210 189 248 151.5 Q286 114 347 114 Q407 114 445 151.5 Q483 189 483 267 L483 698 Q483 711 497 711 L614 711 Q627 711 627 697 L627 278 Q627 205 605.5 151 Q584 97 545.5 61.5 Q507 26 454.5 8.5 Q402 -9 340 -9 Z M370 774 Q371 772 371 769 Q371 762 361 762 L309 762 Q295 762 287 773 L178 903 Q174 909 174 910 Q174 914 184 914 L297 914 Q310 914 316 901 L370 774 L370 774 Z " />
<glyph glyph-name="V" unicode="V" horiz-adv-x="689" d="M670 710 Q679 710 679 703 Q679 700 676.5 693.5 Q674 687 670 677 L404 8 Q399 -4 385 -4 L300 -4 Q287 -4 283 8 L9 700 Q9 701 8.5 702 Q8 703 8 704 Q8 710 18 710 L153 710 Q165 710 171 697 L348 200 L529 698 Q532 710 547 710 L670 710 L670 710 Z " />
<glyph glyph-name="W" unicode="W" horiz-adv-x="994" d="M967 710 Q980 710 976 697 L777 12 Q772 0 759 0 L651 0 Q638 0 634 13 L496 499 L357 12 Q352 0 339 0 L236 0 Q223 0 219 13 L20 675 Q17 684 15 690.5 Q13 697 13 701 Q13 704 15.5 707 Q18 710 24 710 L151 710 Q167 710 171 696 L298 199 L433 698 Q438 710 451 710 L549 710 Q562 710 566 697 L706 200 L828 697 Q831 710 845 710 L967 710 L967 710 Z " />
<glyph glyph-name="X" unicode="X" horiz-adv-x="681" d="M676 11 Q678 7 678 5 Q678 0 669 0 L519 0 Q506 0 498 12 L339 251 L184 11 Q178 0 163 0 L13 0 Q0 0 8 11 L257 357 L11 699 Q8 703 8 706 Q8 710 17 710 L170 710 Q183 710 191 698 L345 469 L492 699 Q498 710 513 710 L663 710 Q676 710 668 699 L428 363 L676 11 L676 11 Z " />
<glyph glyph-name="Y" unicode="Y" horiz-adv-x="624" d="M252 0 Q239 0 239 14 L239 283 L8 684 Q3 694 3 699 Q3 711 25 711 L140 711 Q152 711 160 699 L318 405 L472 699 Q478 711 492 711 L599 711 Q620 711 620 699 Q620 692 614 683 L385 283 L385 13 Q385 0 371 0 L252 0 L252 0 Z " />
<glyph glyph-name="Yacute" unicode="&#xdd;" horiz-adv-x="624" d="M252 0 Q239 0 239 14 L239 283 L8 684 Q3 694 3 699 Q3 711 25 711 L140 711 Q152 711 160 699 L318 405 L472 699 Q478 711 492 711 L599 711 Q620 711 620 699 Q620 692 614 683 L385 283 L385 13 Q385 0 371 0 L252 0 L252 0 Z M269 759 Q256 759 262 772 L316 898 Q321 910 335 910 L449 910 Q457 910 457 906 Q457 903 453 899 L343 769 Q335 759 321 759 L269 759 L269 759 Z " />
<glyph glyph-name="Ydieresis" unicode="&#x178;" horiz-adv-x="624" d="M252 0 Q239 0 239 14 L239 283 L8 684 Q3 694 3 699 Q3 711 25 711 L140 711 Q152 711 160 699 L318 405 L472 699 Q478 711 492 711 L599 711 Q620 711 620 699 Q620 692 614 683 L385 283 L385 13 Q385 0 371 0 L252 0 L252 0 Z M226 774 Q197 774 179.5 794 Q162 814 162 843 Q162 871 179.5 891 Q197 911 226 911 Q254 911 272 891 Q290 871 290 843 Q290 814 272 794 Q254 774 226 774 Z M410 774 Q381 774 363.5 794 Q346 814 346 843 Q346 871 363.5 891 Q381 911 410 911 Q438 911 456 891 Q474 871 474 843 Q474 814 456 794 Q438 774 410 774 Z " />
<glyph glyph-name="Z" unicode="Z" horiz-adv-x="600" d="M540 111 Q553 111 553 97 L553 13 Q553 0 539 0 L52 0 Q39 0 39 14 L39 54 Q39 66 46 79 L376 599 L69 599 Q56 599 56 613 L56 697 Q56 710 70 710 L529 710 Q542 710 542 696 L542 656 Q542 644 535 631 L205 111 L540 111 Z " />
<glyph glyph-name="Zcaron" unicode="&#x17d;" horiz-adv-x="600" d="M540 111 Q553 111 553 97 L553 13 Q553 0 539 0 L52 0 Q39 0 39 14 L39 54 Q39 66 46 79 L376 599 L69 599 Q56 599 56 613 L56 697 Q56 710 70 710 L529 710 Q542 710 542 696 L542 656 Q542 644 535 631 L205 111 L540 111 Z M453 908 Q460 908 460 904 Q460 901 457 897 L345 767 Q337 757 323 757 L280 757 Q266 757 258 768 L145 898 Q142 901 142 904 Q142 908 151 908 L213 908 Q226 908 236 898 L305 832 L371 899 Q380 908 394 908 L453 908 L453 908 Z " />
<glyph glyph-name="a" unicode="a" horiz-adv-x="635" d="M556 480 Q569 480 569 466 L569 13 Q569 0 555 0 L444 0 Q431 0 431 14 L431 79 Q408 32 364.5 11.5 Q321 -9 273 -9 Q227 -9 184 9 Q141 27 108 60 Q75 93 55.5 139 Q36 185 36 241 Q36 297 55.5 343 Q75 389 107.5 421.5 Q140 454 183 472 Q226 490 273 490 Q322 490 365 471 Q408 452 431 406 L431 467 Q431 480 445 480 L556 480 Z M307 115 Q333 115 356 124 Q379 133 396 149.5 Q413 166 423 189 Q433 212 433 241 Q433 270 423.5 293 Q414 316 397 332.5 Q380 349 357 357.5 Q334 366 307 366 Q281 366 257.5 357 Q234 348 217 332 Q200 316 190 292.5 Q180 269 180 241 Q180 212 190.5 189 Q201 166 218 149.5 Q235 133 258 124 Q281 115 307 115 Z " />
<glyph glyph-name="aacute" unicode="&#xe1;" horiz-adv-x="635" d="M556 480 Q569 480 569 466 L569 13 Q569 0 555 0 L444 0 Q431 0 431 14 L431 79 Q408 32 364.5 11.5 Q321 -9 273 -9 Q227 -9 184 9 Q141 27 108 60 Q75 93 55.5 139 Q36 185 36 241 Q36 297 55.5 343 Q75 389 107.5 421.5 Q140 454 183 472 Q226 490 273 490 Q322 490 365 471 Q408 452 431 406 L431 467 Q431 480 445 480 L556 480 Z M307 115 Q333 115 356 124 Q379 133 396 149.5 Q413 166 423 189 Q433 212 433 241 Q433 270 423.5 293 Q414 316 397 332.5 Q380 349 357 357.5 Q334 366 307 366 Q281 366 257.5 357 Q234 348 217 332 Q200 316 190 292.5 Q180 269 180 241 Q180 212 190.5 189 Q201 166 218 149.5 Q235 133 258 124 Q281 115 307 115 Z M260 551 Q247 551 253 564 L348 767 Q353 779 366 775 L462 744 Q469 743 469 737 Q469 734 466 728 L344 560 Q338 551 327 551 L260 551 L260 551 Z " />
<glyph glyph-name="abreve" unicode="&#x103;" horiz-adv-x="635" d="M556 480 Q569 480 569 466 L569 13 Q569 0 555 0 L444 0 Q431 0 431 14 L431 79 Q408 32 364.5 11.5 Q321 -9 273 -9 Q227 -9 184 9 Q141 27 108 60 Q75 93 55.5 139 Q36 185 36 241 Q36 297 55.5 343 Q75 389 107.5 421.5 Q140 454 183 472 Q226 490 273 490 Q322 490 365 471 Q408 452 431 406 L431 467 Q431 480 445 480 L556 480 Z M307 115 Q333 115 356 124 Q379 133 396 149.5 Q413 166 423 189 Q433 212 433 241 Q433 270 423.5 293 Q414 316 397 332.5 Q380 349 357 357.5 Q334 366 307 366 Q281 366 257.5 357 Q234 348 217 332 Q200 316 190 292.5 Q180 269 180 241 Q180 212 190.5 189 Q201 166 218 149.5 Q235 133 258 124 Q281 115 307 115 Z M317 573 Q257 573 216.5 613 Q176 653 169 722 L169 724 Q169 733 179 733 L223 733 Q233 733 236 722 Q243 692 263 675.5 Q283 659 317 659 Q349 659 369.5 675.5 Q390 692 397 722 Q400 733 410 733 L454 733 Q465 733 464 722 Q457 653 416.5 613 Q376 573 317 573 Z " />
<glyph glyph-name="acircumflex" unicode="&#xe2;" horiz-adv-x="635" d="M556 480 Q569 480 569 466 L569 13 Q569 0 555 0 L444 0 Q431 0 431 14 L431 79 Q408 32 364.5 11.5 Q321 -9 273 -9 Q227 -9 184 9 Q141 27 108 60 Q75 93 55.5 139 Q36 185 36 241 Q36 297 55.5 343 Q75 389 107.5 421.5 Q140 454 183 472 Q226 490 273 490 Q322 490 365 471 Q408 452 431 406 L431 467 Q431 480 445 480 L556 480 Z M307 115 Q333 115 356 124 Q379 133 396 149.5 Q413 166 423 189 Q433 212 433 241 Q433 270 423.5 293 Q414 316 397 332.5 Q380 349 357 357.5 Q334 366 307 366 Q281 366 257.5 357 Q234 348 217 332 Q200 316 190 292.5 Q180 269 180 241 Q180 212 190.5 189 Q201 166 218 149.5 Q235 133 258 124 Q281 115 307 115 Z M475 565 Q477 561 477 559 Q477 555 470 555 L405 555 Q393 555 387 564 L317 660 L248 564 Q242 555 231 555 L163 555 Q152 555 158 565 L268 738 Q274 747 285 747 L349 747 Q360 747 366 738 L475 565 L475 565 Z " />
<glyph glyph-name="adieresis" unicode="&#xe4;" horiz-adv-x="635" d="M556 480 Q569 480 569 466 L569 13 Q569 0 555 0 L444 0 Q431 0 431 14 L431 79 Q408 32 364.5 11.5 Q321 -9 273 -9 Q227 -9 184 9 Q141 27 108 60 Q75 93 55.5 139 Q36 185 36 241 Q36 297 55.5 343 Q75 389 107.5 421.5 Q140 454 183 472 Q226 490 273 490 Q322 490 365 471 Q408 452 431 406 L431 467 Q431 480 445 480 L556 480 Z M307 115 Q333 115 356 124 Q379 133 396 149.5 Q413 166 423 189 Q433 212 433 241 Q433 270 423.5 293 Q414 316 397 332.5 Q380 349 357 357.5 Q334 366 307 366 Q281 366 257.5 357 Q234 348 217 332 Q200 316 190 292.5 Q180 269 180 241 Q180 212 190.5 189 Q201 166 218 149.5 Q235 133 258 124 Q281 115 307 115 Z M231 605 Q205 605 189.5 623 Q174 641 174 667 Q174 692 189.5 710 Q205 728 231 728 Q257 728 273 710 Q289 692 289 667 Q289 641 273 623 Q257 605 231 605 Z M403 605 Q377 605 361.5 623 Q346 641 346 667 Q346 692 361.5 710 Q377 728 403 728 Q429 728 445 710 Q461 692 461 667 Q461 641 445 623 Q429 605 403 605 Z " />
<glyph glyph-name="agrave" unicode="&#xe0;" horiz-adv-x="635" d="M556 480 Q569 480 569 466 L569 13 Q569 0 555 0 L444 0 Q431 0 431 14 L431 79 Q408 32 364.5 11.5 Q321 -9 273 -9 Q227 -9 184 9 Q141 27 108 60 Q75 93 55.5 139 Q36 185 36 241 Q36 297 55.5 343 Q75 389 107.5 421.5 Q140 454 183 472 Q226 490 273 490 Q322 490 365 471 Q408 452 431 406 L431 467 Q431 480 445 480 L556 480 Z M307 115 Q333 115 356 124 Q379 133 396 149.5 Q413 166 423 189 Q433 212 433 241 Q433 270 423.5 293 Q414 316 397 332.5 Q380 349 357 357.5 Q334 366 307 366 Q281 366 257.5 357 Q234 348 217 332 Q200 316 190 292.5 Q180 269 180 241 Q180 212 190.5 189 Q201 166 218 149.5 Q235 133 258 124 Q281 115 307 115 Z M352 563 Q353 561 353 558 Q353 551 343 551 L277 551 Q265 551 260 560 L137 729 Q134 733 134 736 Q134 742 143 745 L239 775 Q241 775 241.5 775.5 Q242 776 244 776 Q253 776 257 766 L352 563 L352 563 Z " />
<glyph glyph-name="aring" unicode="&#xe5;" horiz-adv-x="635" d="M556 480 Q569 480 569 466 L569 13 Q569 0 555 0 L444 0 Q431 0 431 14 L431 79 Q408 32 364.5 11.5 Q321 -9 273 -9 Q227 -9 184 9 Q141 27 108 60 Q75 93 55.5 139 Q36 185 36 241 Q36 297 55.5 343 Q75 389 107.5 421.5 Q140 454 183 472 Q226 490 273 490 Q322 490 365 471 Q408 452 431 406 L431 467 Q431 480 445 480 L556 480 Z M307 115 Q333 115 356 124 Q379 133 396 149.5 Q413 166 423 189 Q433 212 433 241 Q433 270 423.5 293 Q414 316 397 332.5 Q380 349 357 357.5 Q334 366 307 366 Q281 366 257.5 357 Q234 348 217 332 Q200 316 190 292.5 Q180 269 180 241 Q180 212 190.5 189 Q201 166 218 149.5 Q235 133 258 124 Q281 115 307 115 Z M317 544 Q296 544 276.5 551.5 Q257 559 242 573 Q227 587 218 606 Q209 625 209 648 Q209 671 218 689.5 Q227 708 242 721.5 Q257 735 276.5 742.5 Q296 750 317 750 Q338 750 357.5 742.5 Q377 735 392 721.5 Q407 708 416 689.5 Q425 671 425 648 Q425 625 416 606 Q407 587 392 573 Q377 559 357.5 551.5 Q338 544 317 544 Z M317 598 Q337 598 350.5 612.5 Q364 627 364 648 Q364 669 350.5 682.5 Q337 696 317 696 Q296 696 282.5 682.5 Q269 669 269 648 Q269 627 282.5 612.5 Q296 598 317 598 Z " />
<glyph glyph-name="atilde" unicode="&#xe3;" horiz-adv-x="635" d="M556 480 Q569 480 569 466 L569 13 Q569 0 555 0 L444 0 Q431 0 431 14 L431 79 Q408 32 364.5 11.5 Q321 -9 273 -9 Q227 -9 184 9 Q141 27 108 60 Q75 93 55.5 139 Q36 185 36 241 Q36 297 55.5 343 Q75 389 107.5 421.5 Q140 454 183 472 Q226 490 273 490 Q322 490 365 471 Q408 452 431 406 L431 467 Q431 480 445 480 L556 480 Z M307 115 Q333 115 356 124 Q379 133 396 149.5 Q413 166 423 189 Q433 212 433 241 Q433 270 423.5 293 Q414 316 397 332.5 Q380 349 357 357.5 Q334 366 307 366 Q281 366 257.5 357 Q234 348 217 332 Q200 316 190 292.5 Q180 269 180 241 Q180 212 190.5 189 Q201 166 218 149.5 Q235 133 258 124 Q281 115 307 115 Z M387 565 Q363 565 344 576.5 Q325 588 310 600 Q296 611 283 620 Q270 629 256 629 Q218 629 213 574 Q213 567 206 567 L149 567 Q142 567 142 574 Q143 604 150 631.5 Q157 659 170.5 680 Q184 701 204 713.5 Q224 726 250 726 Q276 726 296 713 Q316 700 333 686 Q346 675 357 667.5 Q368 660 381 660 Q398 660 407 674.5 Q416 689 418 712 Q418 719 425 719 L484 719 Q491 719 491 712 Q490 682 482.5 655 Q475 628 461.5 608 Q448 588 429 576.5 Q410 565 387 565 Z " />
<glyph glyph-name="ae" unicode="&#xe6;" horiz-adv-x="786" d="M554 490 Q597 490 633.5 475.5 Q670 461 695.5 434.5 Q721 408 735.5 370 Q750 332 750 284 Q750 270 749 256.5 Q748 243 746 232 Q744 219 730 219 L453 219 Q461 151 498 121 Q535 91 588 91 Q625 91 664.5 103 Q704 115 731 137 Q733 139 737 139 Q741 139 741 131 L741 52 Q741 38 730 31 Q701 13 658.5 1.5 Q616 -10 572 -10 Q509 -10 460.5 13.5 Q412 37 380 79 Q348 34 300.5 12.5 Q253 -9 199 -9 Q164 -9 134 0.5 Q104 10 82 28 Q60 46 48 72 Q36 98 36 132 Q36 203 92.5 242 Q149 281 246 286 Q257 287 267 287 Q277 287 288 287 L326 287 Q322 345 289 368 Q256 391 202 391 Q170 391 139 383.5 Q108 376 83 363 Q81 362 77 362 Q72 362 72 371 L72 447 Q72 461 85 465 Q114 476 150 483 Q186 490 224 490 Q284 490 325 473.5 Q366 457 392 422 Q454 490 554 490 Z M550 398 Q471 398 454 300 L633 300 Q630 345 609 371.5 Q588 398 550 398 Z M226 82 Q244 82 262 88.5 Q280 95 294.5 110 Q309 125 318 149.5 Q327 174 327 209 L327 218 Q311 217 293.5 216.5 Q276 216 260 214 Q218 212 189 195 Q160 178 160 143 Q160 113 179.5 97.5 Q199 82 226 82 Z " />
<glyph glyph-name="b" unicode="b" horiz-adv-x="632" d="M360 490 Q408 490 451 472 Q494 454 526.5 421.5 Q559 389 577.5 343 Q596 297 596 241 Q596 185 576.5 139 Q557 93 525 60 Q493 27 450 9 Q407 -9 361 -9 Q338 -9 315 -4 Q292 1 271 12 Q250 23 232.5 39.5 Q215 56 203 79 L203 13 Q203 0 189 0 L79 0 Q66 0 66 14 L66 734 Q66 747 80 747 L190 747 Q203 747 203 733 L203 407 Q215 429 232.5 445 Q250 461 271 471 Q292 481 314.5 485.5 Q337 490 360 490 Z M326 115 Q351 115 374.5 123.5 Q398 132 415 148.5 Q432 165 442.5 188.5 Q453 212 453 242 Q453 270 443 293 Q433 316 415.5 332 Q398 348 375 357 Q352 366 326 366 Q300 366 277.5 357.5 Q255 349 238 332.5 Q221 316 211 293 Q201 270 201 241 Q201 212 211 188.5 Q221 165 238 148.5 Q255 132 277.5 123.5 Q300 115 326 115 Z " />
<glyph glyph-name="c" unicode="c" horiz-adv-x="468" d="M302 -8 Q250 -8 202 8.5 Q154 25 117 57 Q80 89 58 135.5 Q36 182 36 241 Q36 299 57 345 Q78 391 115 423 Q152 455 201 472 Q250 489 306 489 Q338 489 367.5 484 Q397 479 419 470 Q431 465 431 450 L431 372 Q431 353 419 353 Q412 353 403 357 Q369 371 328 371 Q298 371 272 362 Q246 353 226.5 336 Q207 319 195.5 294.5 Q184 270 184 240 Q184 209 195.5 185 Q207 161 227 144.5 Q247 128 273 119.5 Q299 111 329 111 Q374 111 409 127 Q414 129 417.5 130 Q421 131 424 131 Q437 131 437 109 L437 32 Q437 18 424 13 Q401 4 369 -2 Q337 -8 302 -8 Z " />
<glyph glyph-name="ccedilla" unicode="&#xe7;" horiz-adv-x="469" d="M409 127 Q414 129 417.5 130 Q421 131 424 131 Q437 131 437 109 L437 32 Q437 18 424 13 Q402 5 371.5 -1 Q341 -7 308 -8 L291 -38 Q327 -39 350.5 -57 Q374 -75 374 -107 Q374 -147 340.5 -169.5 Q307 -192 259 -192 Q235 -192 216.5 -188.5 Q198 -185 185 -180 Q175 -176 175 -164 L175 -128 Q175 -117 185 -121 Q198 -126 213 -130 Q228 -134 245 -134 Q265 -134 278 -127 Q291 -120 291 -108 Q291 -95 278 -88 Q265 -81 247 -81 Q223 -81 205 -89 L202 -86 L249 -3 Q205 4 166.5 24 Q128 44 99 75 Q70 106 53 147.5 Q36 189 36 241 Q36 299 57 345 Q78 391 115 423 Q152 455 201 472 Q250 489 306 489 Q338 489 367.5 484 Q397 479 419 470 Q431 465 431 450 L431 372 Q431 353 419 353 Q412 353 403 357 Q369 371 328 371 Q298 371 272 362 Q246 353 226.5 336 Q207 319 195.5 294.5 Q184 270 184 240 Q184 209 195.5 185 Q207 161 227 144.5 Q247 128 273 119.5 Q299 111 329 111 Q374 111 409 127 Z " />
<glyph glyph-name="d" unicode="d" horiz-adv-x="635" d="M555 747 Q568 747 568 733 L568 13 Q568 0 554 0 L444 0 Q431 0 431 14 L431 79 Q419 56 401.5 39.5 Q384 23 362.5 12 Q341 1 317.5 -4 Q294 -9 271 -9 Q224 -9 181.5 9 Q139 27 107 60 Q75 93 55.5 139 Q36 185 36 241 Q36 297 54.5 343 Q73 389 105.5 421.5 Q138 454 181 472 Q224 490 272 490 Q295 490 318.5 485.5 Q342 481 363 471 Q384 461 401.5 445 Q419 429 431 406 L431 734 Q431 747 445 747 L555 747 Z M307 115 Q333 115 356 124 Q379 133 396 149.5 Q413 166 423 189 Q433 212 433 241 Q433 270 423 293 Q413 316 396 332.5 Q379 349 356 357.5 Q333 366 307 366 Q280 366 257 357 Q234 348 217 332 Q200 316 190 292.5 Q180 269 180 241 Q180 212 190 189 Q200 166 217.5 149.5 Q235 133 258 124 Q281 115 307 115 Z " />
<glyph glyph-name="eth" unicode="&#xf0;" horiz-adv-x="591" d="M383 630 Q428 591 460.5 547.5 Q493 504 514 459 Q535 414 545 368.5 Q555 323 555 280 Q555 212 534.5 158.5 Q514 105 478.5 67.5 Q443 30 395 10 Q347 -10 291 -10 Q240 -10 194 8 Q148 26 113 59 Q78 92 57 138.5 Q36 185 36 241 Q36 295 55 339 Q74 383 106.5 414.5 Q139 446 181 463 Q223 480 270 480 Q314 480 350 465.5 Q386 451 412 425 L415 427 Q394 467 361 506.5 Q328 546 284 582 L159 521 Q158 521 158 522 L140 555 Q138 559 138 561 Q138 566 145 570 L240 615 Q189 650 133 674 Q130 676 128 678 L128 680 Q128 680 134 684 L227 716 Q230 717 237 717 Q244 717 252 714 Q300 690 339 663 L441 712 Q445 714 447 714 Q452 714 456 707 L469 684 Q471 680 471 678 Q471 673 464 669 L383 630 Z M297 107 Q325 107 349.5 117 Q374 127 391 144.5 Q408 162 418 186 Q428 210 428 239 Q428 267 418 291 Q408 315 391 332 Q374 349 349.5 359 Q325 369 297 369 Q268 369 244 359.5 Q220 350 202.5 332.5 Q185 315 175 291 Q165 267 165 239 Q165 211 175 187 Q185 163 203 145 Q221 127 245 117 Q269 107 297 107 Z " />
<glyph glyph-name="e" unicode="e" horiz-adv-x="537" d="M501 266 Q501 248 499.5 237 Q498 226 494 220.5 Q490 215 483 213.5 Q476 212 465 212 L173 212 Q184 162 222 135 Q260 108 320 108 Q343 108 370 112 Q397 116 422 123 Q446 131 460.5 138.5 Q475 146 481 146 Q489 146 489 134 L489 55 Q489 41 478 34 Q447 15 398 3.5 Q349 -8 298 -8 Q242 -8 194 10 Q146 28 111 61 Q76 94 56 139.5 Q36 185 36 241 Q36 296 55.5 342 Q75 388 109 421 Q143 454 188 472 Q233 490 284 490 Q326 490 365.5 476.5 Q405 463 435 435.5 Q465 408 483 366 Q501 324 501 266 Z M283 383 Q244 383 215.5 361 Q187 339 175 299 L384 299 Q379 334 352 358.5 Q325 383 283 383 Z " />
<glyph glyph-name="eacute" unicode="&#xe9;" horiz-adv-x="550" d="M501 266 Q501 248 499.5 237 Q498 226 494 220.5 Q490 215 483 213.5 Q476 212 465 212 L173 212 Q184 162 222 135 Q260 108 320 108 Q343 108 370 112 Q397 116 422 123 Q446 131 460.5 138.5 Q475 146 481 146 Q489 146 489 134 L489 55 Q489 41 478 34 Q447 15 398 3.5 Q349 -8 298 -8 Q242 -8 194 10 Q146 28 111 61 Q76 94 56 139.5 Q36 185 36 241 Q36 296 55.5 342 Q75 388 109 421 Q143 454 188 472 Q233 490 284 490 Q326 490 365.5 476.5 Q405 463 435 435.5 Q465 408 483 366 Q501 324 501 266 Z M283 383 Q244 383 215.5 361 Q187 339 175 299 L384 299 Q379 334 352 358.5 Q325 383 283 383 Z M218 559 Q205 559 211 572 L306 775 Q311 787 324 783 L420 752 Q427 751 427 745 Q427 742 424 736 L302 568 Q296 559 285 559 L218 559 L218 559 Z " />
<glyph glyph-name="ecircumflex" unicode="&#xea;" horiz-adv-x="550" d="M501 266 Q501 248 499.5 237 Q498 226 494 220.5 Q490 215 483 213.5 Q476 212 465 212 L173 212 Q184 162 222 135 Q260 108 320 108 Q343 108 370 112 Q397 116 422 123 Q446 131 460.5 138.5 Q475 146 481 146 Q489 146 489 134 L489 55 Q489 41 478 34 Q447 15 398 3.5 Q349 -8 298 -8 Q242 -8 194 10 Q146 28 111 61 Q76 94 56 139.5 Q36 185 36 241 Q36 296 55.5 342 Q75 388 109 421 Q143 454 188 472 Q233 490 284 490 Q326 490 365.5 476.5 Q405 463 435 435.5 Q465 408 483 366 Q501 324 501 266 Z M283 383 Q244 383 215.5 361 Q187 339 175 299 L384 299 Q379 334 352 358.5 Q325 383 283 383 Z M433 573 Q435 569 435 567 Q435 563 428 563 L363 563 Q351 563 345 572 L275 668 L206 572 Q200 563 189 563 L121 563 Q110 563 116 573 L226 746 Q232 755 243 755 L307 755 Q318 755 324 746 L433 573 L433 573 Z " />
<glyph glyph-name="edieresis" unicode="&#xeb;" horiz-adv-x="550" d="M501 266 Q501 248 499.5 237 Q498 226 494 220.5 Q490 215 483 213.5 Q476 212 465 212 L173 212 Q184 162 222 135 Q260 108 320 108 Q343 108 370 112 Q397 116 422 123 Q446 131 460.5 138.5 Q475 146 481 146 Q489 146 489 134 L489 55 Q489 41 478 34 Q447 15 398 3.5 Q349 -8 298 -8 Q242 -8 194 10 Q146 28 111 61 Q76 94 56 139.5 Q36 185 36 241 Q36 296 55.5 342 Q75 388 109 421 Q143 454 188 472 Q233 490 284 490 Q326 490 365.5 476.5 Q405 463 435 435.5 Q465 408 483 366 Q501 324 501 266 Z M283 383 Q244 383 215.5 361 Q187 339 175 299 L384 299 Q379 334 352 358.5 Q325 383 283 383 Z M189 613 Q163 613 147.5 631 Q132 649 132 675 Q132 700 147.5 718 Q163 736 189 736 Q215 736 231 718 Q247 700 247 675 Q247 649 231 631 Q215 613 189 613 Z M361 613 Q335 613 319.5 631 Q304 649 304 675 Q304 700 319.5 718 Q335 736 361 736 Q387 736 403 718 Q419 700 419 675 Q419 649 403 631 Q387 613 361 613 Z " />
<glyph glyph-name="egrave" unicode="&#xe8;" horiz-adv-x="550" d="M501 266 Q501 248 499.5 237 Q498 226 494 220.5 Q490 215 483 213.5 Q476 212 465 212 L173 212 Q184 162 222 135 Q260 108 320 108 Q343 108 370 112 Q397 116 422 123 Q446 131 460.5 138.5 Q475 146 481 146 Q489 146 489 134 L489 55 Q489 41 478 34 Q447 15 398 3.5 Q349 -8 298 -8 Q242 -8 194 10 Q146 28 111 61 Q76 94 56 139.5 Q36 185 36 241 Q36 296 55.5 342 Q75 388 109 421 Q143 454 188 472 Q233 490 284 490 Q326 490 365.5 476.5 Q405 463 435 435.5 Q465 408 483 366 Q501 324 501 266 Z M283 383 Q244 383 215.5 361 Q187 339 175 299 L384 299 Q379 334 352 358.5 Q325 383 283 383 Z M310 571 Q311 569 311 566 Q311 559 301 559 L235 559 Q223 559 218 568 L95 737 Q92 741 92 744 Q92 750 101 753 L197 783 Q199 783 199.5 783.5 Q200 784 202 784 Q211 784 215 774 L310 571 L310 571 Z " />
<glyph glyph-name="eogonek" unicode="&#x119;" horiz-adv-x="550" d="M501 266 Q501 248 499.5 237 Q498 226 494 220.5 Q490 215 483 213.5 Q476 212 465 212 L173 212 Q184 162 222 135 Q260 108 320 108 Q343 108 370 112 Q397 116 422 123 Q446 131 460.5 138.5 Q475 146 481 146 Q489 146 489 134 L489 55 Q489 41 478 34 Q441 11 380 0 Q334 -25 315 -46.5 Q296 -68 296 -89 Q296 -106 307.5 -115 Q319 -124 338 -124 Q348 -124 357 -121.5 Q366 -119 374 -117 L377 -117 Q385 -117 385 -126 L385 -166 Q385 -178 375 -181 Q364 -186 350 -189 Q336 -192 319 -192 Q268 -192 233 -167.5 Q198 -143 198 -98 Q198 -69 215 -46 Q232 -23 260 -6 Q211 0 170 20.5 Q129 41 99 73 Q69 105 52.5 147.5 Q36 190 36 241 Q36 296 55.5 342 Q75 388 109 421 Q143 454 188 472 Q233 490 284 490 Q326 490 365.5 476.5 Q405 463 435 435.5 Q465 408 483 366 Q501 324 501 266 Z M283 383 Q244 383 215.5 361 Q187 339 175 299 L384 299 Q379 334 352 358.5 Q325 383 283 383 Z " />
<glyph glyph-name="f" unicode="f" horiz-adv-x="391" d="M327 644 Q291 644 269.5 624 Q248 604 248 558 L248 480 L375 480 Q388 480 388 466 L388 394 Q388 381 374 381 L248 381 L248 13 Q248 0 234 0 L121 0 Q108 0 108 14 L108 381 L33 381 Q20 381 20 395 L20 467 Q20 480 34 480 L108 480 L108 568 Q108 662 154 709.5 Q200 757 288 757 Q315 757 339 753.5 Q363 750 381 744 Q393 739 393 725 L393 660 Q393 638 376 638 Q373 638 370 638.5 Q367 639 363 640 Q355 642 346 643 Q337 644 327 644 Z " />
<glyph glyph-name="g" unicode="g" horiz-adv-x="615" d="M539 480 Q552 480 552 466 L552 106 Q552 31 530 -25 Q508 -81 469 -118 Q430 -155 377.5 -173.5 Q325 -192 264 -192 Q210 -192 164.5 -183.5 Q119 -175 84 -156 Q73 -151 73 -136 L73 -34 Q73 -26 77 -26 Q80 -26 85 -29 Q122 -52 164.5 -63.5 Q207 -75 247 -75 Q319 -75 362.5 -39 Q406 -3 406 68 L406 94 Q377 57 338 38.5 Q299 20 253 20 Q207 20 167.5 37 Q128 54 98.5 84.5 Q69 115 52.5 158 Q36 201 36 254 Q36 306 53 349.5 Q70 393 99.5 424 Q129 455 168.5 472 Q208 489 253 489 Q300 489 341.5 470 Q383 451 412 409 L412 467 Q412 480 426 480 L539 480 Z M288 129 Q313 129 335.5 137.5 Q358 146 374.5 162 Q391 178 400.5 200.5 Q410 223 410 251 Q410 279 400.5 301.5 Q391 324 374.5 340.5 Q358 357 335.5 366 Q313 375 288 375 Q263 375 241 366.5 Q219 358 202 342.5 Q185 327 175 304 Q165 281 165 251 Q165 222 175 199.5 Q185 177 201.5 161 Q218 145 240.5 137 Q263 129 288 129 Z " />
<glyph glyph-name="h" unicode="h" horiz-adv-x="601" d="M356 490 Q438 490 488 443 Q538 396 538 296 L538 0 L398 0 L398 284 Q398 334 373 356 Q348 378 306 378 Q259 378 232.5 348 Q206 318 206 267 L206 0 L66 0 L66 747 L202 747 L202 414 Q252 490 356 490 Z " />
<glyph glyph-name="i" unicode="i" horiz-adv-x="273" d="M137 578 Q97 578 74.5 601.5 Q52 625 52 659 Q52 693 74.5 716.5 Q97 740 137 740 Q177 740 199 716.5 Q221 693 221 659 Q221 625 199 601.5 Q177 578 137 578 Z M80 0 Q67 0 67 14 L67 467 Q67 480 81 480 L194 480 Q207 480 207 466 L207 13 Q207 0 193 0 L80 0 Z " />
<glyph glyph-name="idotless" unicode="&#x131;" horiz-adv-x="293" d="M90 0 Q77 0 77 14 L77 467 Q77 480 91 480 L204 480 Q217 480 217 466 L217 13 Q217 0 203 0 L90 0 L90 0 Z " />
<glyph glyph-name="iacute" unicode="&#xed;" horiz-adv-x="293" d="M110 551 Q97 551 101 564 L165 766 Q169 778 182 774 L279 744 Q291 739 284 728 L195 562 Q189 551 175 551 L110 551 L110 551 Z M90 0 Q77 0 77 14 L77 467 Q77 480 91 480 L204 480 Q217 480 217 466 L217 13 Q217 0 203 0 L90 0 L90 0 Z " />
<glyph glyph-name="icircumflex" unicode="&#xee;" horiz-adv-x="293" d="M90 0 Q77 0 77 14 L77 467 Q77 480 91 480 L204 480 Q217 480 217 466 L217 13 Q217 0 203 0 L90 0 L90 0 Z M305 565 Q307 561 307 559 Q307 555 300 555 L235 555 Q223 555 217 564 L147 660 L78 564 Q72 555 61 555 L-7 555 Q-18 555 -12 565 L98 738 Q104 747 115 747 L179 747 Q190 747 196 738 L305 565 L305 565 Z " />
<glyph glyph-name="idieresis" unicode="&#xef;" horiz-adv-x="293" d="M90 0 Q77 0 77 14 L77 467 Q77 480 91 480 L204 480 Q217 480 217 466 L217 13 Q217 0 203 0 L90 0 L90 0 Z M61 605 Q35 605 19.5 623 Q4 641 4 667 Q4 692 19.5 710 Q35 728 61 728 Q87 728 103 710 Q119 692 119 667 Q119 641 103 623 Q87 605 61 605 Z M233 605 Q207 605 191.5 623 Q176 641 176 667 Q176 692 191.5 710 Q207 728 233 728 Q259 728 275 710 Q291 692 291 667 Q291 641 275 623 Q259 605 233 605 Z " />
<glyph glyph-name="igrave" unicode="&#xec;" horiz-adv-x="293" d="M193 563 Q193 561 193.5 560.5 Q194 560 194 559 Q194 551 183 551 L118 551 Q105 551 98 563 L9 729 Q7 733 7 735 Q7 741 16 744 L113 774 Q115 775 118 775 Q126 775 129 765 L193 563 Z M90 0 Q77 0 77 14 L77 467 Q77 480 91 480 L204 480 Q217 480 217 466 L217 13 Q217 0 203 0 L90 0 Z " />
<glyph glyph-name="j" unicode="j" horiz-adv-x="275" d="M140 578 Q100 578 77.5 601.5 Q55 625 55 659 Q55 693 77.5 716.5 Q100 740 140 740 Q180 740 202 716.5 Q224 693 224 659 Q224 625 202 601.5 Q180 578 140 578 Z M43 -192 Q24 -192 5.5 -190 Q-13 -188 -28 -183 Q-40 -178 -40 -164 L-40 -79 Q-40 -68 -28 -73 Q-7 -81 12 -81 Q38 -81 53.5 -65.5 Q69 -50 69 -22 L69 467 Q69 480 83 480 L196 480 Q209 480 209 466 L209 -22 Q209 -107 166 -149.5 Q123 -192 43 -192 Z " />
<glyph glyph-name="k" unicode="k" horiz-adv-x="550" d="M546 10 Q549 7 549 4 Q549 0 540 0 L397 0 Q384 0 376 11 L200 246 L200 13 Q200 0 186 0 L73 0 Q60 0 60 14 L60 734 Q60 747 74 747 L187 747 Q200 747 200 733 L200 269 L364 470 Q372 480 386 480 L529 480 Q542 480 533 470 L345 258 L546 10 L546 10 Z " />
<glyph glyph-name="l" unicode="l" horiz-adv-x="317" d="M203 -10 Q137 -10 100 27 Q63 64 63 143 L63 734 Q63 747 77 747 L190 747 Q203 747 203 733 L203 162 Q203 131 216 118.5 Q229 106 252 106 Q270 106 289 113 Q295 115 296 115 Q303 115 303 104 L303 23 Q303 9 290 4 Q273 -3 249 -6.5 Q225 -10 203 -10 Z " />
<glyph glyph-name="lslash" unicode="&#x142;" horiz-adv-x="317" d="M289 113 Q295 115 296 115 Q303 115 303 104 L303 23 Q303 9 290 4 Q273 -3 249 -6.5 Q225 -10 203 -10 Q137 -10 100 27 Q63 64 63 143 L63 339 L17 321 Q15 320 12 320 Q5 320 5 330 L5 375 Q5 387 18 393 L63 411 L63 734 Q63 747 77 747 L190 747 Q203 747 203 733 L203 466 L261 489 Q263 490 266 490 Q273 490 273 480 L273 435 Q273 423 260 417 L203 394 L203 162 Q203 131 216 118.5 Q229 106 252 106 Q270 106 289 113 Z " />
<glyph glyph-name="m" unicode="m" horiz-adv-x="865" d="M627 490 Q664 490 696 480 Q728 470 751.5 448.5 Q775 427 788.5 392.5 Q802 358 802 310 L802 13 Q802 0 788 0 L675 0 Q662 0 662 14 L662 307 Q662 347 640 365.5 Q618 384 587 384 Q552 384 528 361 Q504 338 504 300 L504 13 Q504 0 490 0 L377 0 Q364 0 364 14 L364 307 Q364 347 342 365.5 Q320 384 289 384 Q254 384 230 361 Q206 338 206 300 L206 13 Q206 0 192 0 L79 0 Q66 0 66 14 L66 467 Q66 480 80 480 L185 480 Q198 480 198 466 L198 413 Q220 452 256 471 Q292 490 335 490 Q384 490 424 470 Q464 450 485 405 Q508 448 545.5 469 Q583 490 627 490 Z " />
<glyph glyph-name="n" unicode="n" horiz-adv-x="601" d="M354 490 Q438 490 488 441.5 Q538 393 538 294 L538 13 Q538 0 524 0 L411 0 Q398 0 398 14 L398 283 Q398 333 373 355.5 Q348 378 306 378 Q260 378 233 350 Q206 322 206 271 L205 271 L205 13 Q205 0 191 0 L79 0 Q66 0 66 14 L66 467 Q66 480 80 480 L186 480 Q199 480 199 466 L199 410 Q247 490 354 490 Z " />
<glyph glyph-name="ntilde" unicode="&#xf1;" horiz-adv-x="593" d="M354 490 Q438 490 488 441.5 Q538 393 538 294 L538 13 Q538 0 524 0 L411 0 Q398 0 398 14 L398 283 Q398 333 373 355.5 Q348 378 306 378 Q260 378 233 350 Q206 322 206 271 L205 271 L205 13 Q205 0 191 0 L79 0 Q66 0 66 14 L66 467 Q66 480 80 480 L186 480 Q199 480 199 466 L199 410 Q247 490 354 490 Z M371 565 Q347 565 328 576.5 Q309 588 294 600 Q280 611 267 620 Q254 629 240 629 Q202 629 197 574 Q197 567 190 567 L133 567 Q126 567 126 574 Q127 604 134 631.5 Q141 659 154.5 680 Q168 701 188 713.5 Q208 726 234 726 Q260 726 280 713 Q300 700 317 686 Q330 675 341 667.5 Q352 660 365 660 Q382 660 391 674.5 Q400 689 402 712 Q402 719 409 719 L468 719 Q475 719 475 712 Q474 682 466.5 655 Q459 628 445.5 608 Q432 588 413 576.5 Q394 565 371 565 Z " />
<glyph glyph-name="o" unicode="o" horiz-adv-x="587" d="M294 -10 Q240 -10 193 10 Q146 30 111 64 Q76 98 56 144 Q36 190 36 242 Q36 294 56 339.5 Q76 385 111 418.5 Q146 452 193 471 Q240 490 294 490 Q348 490 395 471 Q442 452 477 418.5 Q512 385 532 339.5 Q552 294 552 242 Q552 189 533 143 Q514 97 479.5 63 Q445 29 397.5 9.5 Q350 -10 294 -10 Z M294 114 Q320 114 342.5 123 Q365 132 382 148.5 Q399 165 409 188 Q419 211 419 240 Q419 299 383 332.5 Q347 366 294 366 Q268 366 245 357 Q222 348 205 332 Q188 316 178 292.5 Q168 269 168 241 Q168 212 178.5 188.5 Q189 165 206 148.5 Q223 132 246 123 Q269 114 294 114 Z " />
<glyph glyph-name="oacute" unicode="&#xf3;" horiz-adv-x="589" d="M294 -10 Q240 -10 193 10 Q146 30 111 64 Q76 98 56 144 Q36 190 36 242 Q36 294 56 339.5 Q76 385 111 418.5 Q146 452 193 471 Q240 490 294 490 Q348 490 395 471 Q442 452 477 418.5 Q512 385 532 339.5 Q552 294 552 242 Q552 189 533 143 Q514 97 479.5 63 Q445 29 397.5 9.5 Q350 -10 294 -10 Z M294 114 Q320 114 342.5 123 Q365 132 382 148.5 Q399 165 409 188 Q419 211 419 240 Q419 299 383 332.5 Q347 366 294 366 Q268 366 245 357 Q222 348 205 332 Q188 316 178 292.5 Q168 269 168 241 Q168 212 178.5 188.5 Q189 165 206 148.5 Q223 132 246 123 Q269 114 294 114 Z M237 551 Q224 551 230 564 L325 767 Q330 779 343 775 L439 744 Q446 743 446 737 Q446 734 443 728 L321 560 Q315 551 304 551 L237 551 L237 551 Z " />
<glyph glyph-name="ocircumflex" unicode="&#xf4;" horiz-adv-x="589" d="M294 -10 Q240 -10 193 10 Q146 30 111 64 Q76 98 56 144 Q36 190 36 242 Q36 294 56 339.5 Q76 385 111 418.5 Q146 452 193 471 Q240 490 294 490 Q348 490 395 471 Q442 452 477 418.5 Q512 385 532 339.5 Q552 294 552 242 Q552 189 533 143 Q514 97 479.5 63 Q445 29 397.5 9.5 Q350 -10 294 -10 Z M294 114 Q320 114 342.5 123 Q365 132 382 148.5 Q399 165 409 188 Q419 211 419 240 Q419 299 383 332.5 Q347 366 294 366 Q268 366 245 357 Q222 348 205 332 Q188 316 178 292.5 Q168 269 168 241 Q168 212 178.5 188.5 Q189 165 206 148.5 Q223 132 246 123 Q269 114 294 114 Z M452 565 Q454 561 454 559 Q454 555 447 555 L382 555 Q370 555 364 564 L294 660 L225 564 Q219 555 208 555 L140 555 Q129 555 135 565 L245 738 Q251 747 262 747 L326 747 Q337 747 343 738 L452 565 L452 565 Z " />
<glyph glyph-name="odieresis" unicode="&#xf6;" horiz-adv-x="589" d="M294 -10 Q240 -10 193 10 Q146 30 111 64 Q76 98 56 144 Q36 190 36 242 Q36 294 56 339.5 Q76 385 111 418.5 Q146 452 193 471 Q240 490 294 490 Q348 490 395 471 Q442 452 477 418.5 Q512 385 532 339.5 Q552 294 552 242 Q552 189 533 143 Q514 97 479.5 63 Q445 29 397.5 9.5 Q350 -10 294 -10 Z M294 114 Q320 114 342.5 123 Q365 132 382 148.5 Q399 165 409 188 Q419 211 419 240 Q419 299 383 332.5 Q347 366 294 366 Q268 366 245 357 Q222 348 205 332 Q188 316 178 292.5 Q168 269 168 241 Q168 212 178.5 188.5 Q189 165 206 148.5 Q223 132 246 123 Q269 114 294 114 Z M208 605 Q182 605 166.5 623 Q151 641 151 667 Q151 692 166.5 710 Q182 728 208 728 Q234 728 250 710 Q266 692 266 667 Q266 641 250 623 Q234 605 208 605 Z M380 605 Q354 605 338.5 623 Q323 641 323 667 Q323 692 338.5 710 Q354 728 380 728 Q406 728 422 710 Q438 692 438 667 Q438 641 422 623 Q406 605 380 605 Z " />
<glyph glyph-name="ograve" unicode="&#xf2;" horiz-adv-x="589" d="M294 -10 Q240 -10 193 10 Q146 30 111 64 Q76 98 56 144 Q36 190 36 242 Q36 294 56 339.5 Q76 385 111 418.5 Q146 452 193 471 Q240 490 294 490 Q348 490 395 471 Q442 452 477 418.5 Q512 385 532 339.5 Q552 294 552 242 Q552 189 533 143 Q514 97 479.5 63 Q445 29 397.5 9.5 Q350 -10 294 -10 Z M294 114 Q320 114 342.5 123 Q365 132 382 148.5 Q399 165 409 188 Q419 211 419 240 Q419 299 383 332.5 Q347 366 294 366 Q268 366 245 357 Q222 348 205 332 Q188 316 178 292.5 Q168 269 168 241 Q168 212 178.5 188.5 Q189 165 206 148.5 Q223 132 246 123 Q269 114 294 114 Z M329 563 Q330 561 330 558 Q330 551 320 551 L254 551 Q242 551 237 560 L114 729 Q111 733 111 736 Q111 742 120 745 L216 775 Q218 775 218.5 775.5 Q219 776 221 776 Q230 776 234 766 L329 563 L329 563 Z " />
<glyph glyph-name="oslash" unicode="&#xf8;" horiz-adv-x="581" d="M443 445 Q493 412 522.5 359 Q552 306 552 242 Q552 189 533 143 Q514 97 479.5 63 Q445 29 397.5 9.5 Q350 -10 294 -10 Q238 -10 188 12 L156 -42 Q150 -53 135 -53 L100 -53 Q87 -53 94 -41 L141 39 Q93 74 64.5 126.5 Q36 179 36 242 Q36 294 56 339.5 Q76 385 111 418.5 Q146 452 193 471 Q240 490 294 490 Q346 490 395 471 L426 523 Q432 534 447 534 L482 534 Q495 534 488 522 L443 445 Z M294 114 Q320 114 342.5 123 Q365 132 382 148.5 Q399 165 409 188 Q419 211 419 240 Q419 299 383 332.5 Q347 366 294 366 Q268 366 245 357 Q222 348 205 332 Q188 316 178 292.5 Q168 269 168 241 Q168 212 178.5 188.5 Q189 165 206 148.5 Q223 132 246 123 Q269 114 294 114 Z " />
<glyph glyph-name="otilde" unicode="&#xf5;" horiz-adv-x="589" d="M294 -10 Q240 -10 193 10 Q146 30 111 64 Q76 98 56 144 Q36 190 36 242 Q36 294 56 339.5 Q76 385 111 418.5 Q146 452 193 471 Q240 490 294 490 Q348 490 395 471 Q442 452 477 418.5 Q512 385 532 339.5 Q552 294 552 242 Q552 189 533 143 Q514 97 479.5 63 Q445 29 397.5 9.5 Q350 -10 294 -10 Z M294 114 Q320 114 342.5 123 Q365 132 382 148.5 Q399 165 409 188 Q419 211 419 240 Q419 299 383 332.5 Q347 366 294 366 Q268 366 245 357 Q222 348 205 332 Q188 316 178 292.5 Q168 269 168 241 Q168 212 178.5 188.5 Q189 165 206 148.5 Q223 132 246 123 Q269 114 294 114 Z M364 565 Q340 565 321 576.5 Q302 588 287 600 Q273 611 260 620 Q247 629 233 629 Q195 629 190 574 Q190 567 183 567 L126 567 Q119 567 119 574 Q120 604 127 631.5 Q134 659 147.5 680 Q161 701 181 713.5 Q201 726 227 726 Q253 726 273 713 Q293 700 310 686 Q323 675 334 667.5 Q345 660 358 660 Q375 660 384 674.5 Q393 689 395 712 Q395 719 402 719 L461 719 Q468 719 468 712 Q467 682 459.5 655 Q452 628 438.5 608 Q425 588 406 576.5 Q387 565 364 565 Z " />
<glyph glyph-name="oe" unicode="&#x153;" horiz-adv-x="904" d="M870 261 Q870 232 862.5 224 Q855 216 834 216 L552 216 Q560 168 594.5 135.5 Q629 103 697 103 Q738 103 780 113 Q822 123 850 139 Q854 141 856 141 Q861 141 861 132 L861 52 Q861 38 850 31 Q821 12 775.5 1 Q730 -10 682 -10 Q610 -10 551.5 23 Q493 56 466 121 Q442 59 388 24.5 Q334 -10 267 -10 Q218 -10 176 8.5 Q134 27 102.5 60.5 Q71 94 53 140.5 Q35 187 35 242 Q35 297 53 342.5 Q71 388 102 421 Q133 454 175 472 Q217 490 265 490 Q334 490 386.5 454.5 Q439 419 464 356 Q489 417 541.5 453.5 Q594 490 660 490 Q700 490 738 476.5 Q776 463 805 434.5 Q834 406 852 363 Q870 320 870 261 Z M659 384 Q619 384 593 360 Q567 336 556 298 L755 298 Q749 338 723 361 Q697 384 659 384 Z M276 113 Q302 113 323.5 123 Q345 133 360 150.5 Q375 168 383 191 Q391 214 391 241 Q391 268 383 291 Q375 314 360 331 Q345 348 323.5 357.5 Q302 367 276 367 Q249 367 227.5 357.5 Q206 348 190.5 331 Q175 314 167 291 Q159 268 159 241 Q159 187 190.5 150 Q222 113 276 113 Z " />
<glyph glyph-name="p" unicode="p" horiz-adv-x="632" d="M358 489 Q405 489 448 471 Q491 453 524 420 Q557 387 576.5 341 Q596 295 596 239 Q596 183 577 137 Q558 91 525 58.5 Q492 26 448.5 8 Q405 -10 356 -10 Q312 -10 270.5 8.5 Q229 27 204 70 L204 -166 Q204 -182 188 -182 L82 -182 Q66 -182 66 -166 L66 464 Q66 480 82 480 L186 480 Q203 480 203 464 L203 405 Q227 450 270 469.5 Q313 489 358 489 Z M326 114 Q352 114 375 123 Q398 132 415.5 148 Q433 164 443 187 Q453 210 453 239 Q453 268 442.5 291.5 Q432 315 415 331.5 Q398 348 374.5 356.5 Q351 365 326 365 Q300 365 277.5 356 Q255 347 238 330.5 Q221 314 211 291 Q201 268 201 239 Q201 210 211 187 Q221 164 238 147.5 Q255 131 277.5 122.5 Q300 114 326 114 Z " />
<glyph glyph-name="thorn" unicode="&#xfe;" horiz-adv-x="612" d="M351 489 Q400 489 441.5 471 Q483 453 513 420 Q543 387 560 341 Q577 295 577 239 Q577 183 559.5 137 Q542 91 511.5 58.5 Q481 26 439.5 8 Q398 -10 350 -10 Q254 -10 203 56 L203 -178 Q203 -191 189 -191 L76 -191 Q63 -191 63 -177 L63 733 Q63 746 77 746 L180 746 Q193 746 193 732 L193 407 Q246 489 351 489 Z M311 105 Q335 105 356.5 114 Q378 123 394 140.5 Q410 158 419.5 182.5 Q429 207 429 239 Q429 303 394.5 338 Q360 373 311 373 Q260 373 226.5 337.5 Q193 302 193 239 Q193 177 226.5 141 Q260 105 311 105 Z " />
<glyph glyph-name="q" unicode="q" horiz-adv-x="618" d="M542 480 Q555 480 555 466 L555 -168 Q555 -182 542 -182 L428 -182 Q415 -182 415 -168 L415 55 Q389 22 350.5 6 Q312 -10 264 -10 Q215 -10 173 8 Q131 26 100.5 58.5 Q70 91 52.5 137 Q35 183 35 239 Q35 295 52 341 Q69 387 99.5 420 Q130 453 172 471 Q214 489 264 489 Q372 489 425 408 L425 466 Q425 480 438 480 L542 480 Z M296 104 Q321 104 344.5 113.5 Q368 123 386 140 Q404 157 414.5 182 Q425 207 425 239 Q425 270 414.5 295 Q404 320 386.5 337 Q369 354 345.5 363.5 Q322 373 296 373 Q270 373 246.5 364 Q223 355 206 337.5 Q189 320 179 295 Q169 270 169 239 Q169 207 179.5 182 Q190 157 207.5 139.5 Q225 122 248 113 Q271 104 296 104 Z " />
<glyph glyph-name="r" unicode="r" horiz-adv-x="397" d="M362 490 Q375 490 375 476 L375 357 Q375 345 361 345 Q330 345 297 334 Q254 320 227 278 Q200 236 200 168 L200 13 Q200 0 186 0 L73 0 Q60 0 60 14 L60 467 Q60 480 74 480 L182 480 Q195 480 195 466 L195 342 Q236 482 362 490 Z " />
<glyph glyph-name="s" unicode="s" horiz-adv-x="470" d="M221 -9 Q179 -9 134 -0.5 Q89 8 60 22 Q51 26 51 37 L51 130 Q51 140 56 140 Q58 140 62 138 Q97 121 138.5 111 Q180 101 219 101 Q254 101 272.5 111.5 Q291 122 291 141 Q291 152 285.5 159 Q280 166 268.5 171.5 Q257 177 238.5 182.5 Q220 188 194 195 Q162 204 135 216 Q108 228 88 245 Q68 262 57 285 Q46 308 46 340 Q46 376 62 404 Q78 432 106 451 Q134 470 173 480 Q212 490 257 490 Q295 490 331 484 Q367 478 396 467 Q405 464 405 453 L405 365 Q405 356 399 356 Q396 356 393 357 Q365 368 328.5 375.5 Q292 383 263 383 Q227 383 209 373 Q191 363 191 346 Q191 326 212.5 318 Q234 310 276 296 Q309 287 337 276 Q365 265 385.5 248.5 Q406 232 417.5 208.5 Q429 185 429 151 Q429 78 373.5 34.5 Q318 -9 221 -9 Z " />
<glyph glyph-name="scaron" unicode="&#x161;" horiz-adv-x="461" d="M221 -9 Q179 -9 134 -0.5 Q89 8 60 22 Q51 26 51 37 L51 130 Q51 140 56 140 Q58 140 62 138 Q97 121 138.5 111 Q180 101 219 101 Q254 101 272.5 111.5 Q291 122 291 141 Q291 152 285.5 159 Q280 166 268.5 171.5 Q257 177 238.5 182.5 Q220 188 194 195 Q162 204 135 216 Q108 228 88 245 Q68 262 57 285 Q46 308 46 340 Q46 376 62 404 Q78 432 106 451 Q134 470 173 480 Q212 490 257 490 Q295 490 331 484 Q367 478 396 467 Q405 464 405 453 L405 365 Q405 356 399 356 Q396 356 393 357 Q365 368 328.5 375.5 Q292 383 263 383 Q227 383 209 373 Q191 363 191 346 Q191 326 212.5 318 Q234 310 276 296 Q309 287 337 276 Q365 265 385.5 248.5 Q406 232 417.5 208.5 Q429 185 429 151 Q429 78 373.5 34.5 Q318 -9 221 -9 Z M385 721 Q393 721 393 717 Q393 713 390 709 L291 554 Q285 543 270 543 L198 543 Q185 543 177 555 L78 710 Q76 714 76 716 Q76 721 85 721 L157 721 Q171 721 179 710 L237 639 L294 711 Q302 721 316 721 L385 721 L385 721 Z " />
<glyph glyph-name="germandbls" unicode="&#xdf;" horiz-adv-x="613" d="M393 -9 Q364 -9 328 -3 Q292 3 267 13 Q260 16 260 25 L260 122 Q260 129 268 125 Q291 112 317.5 106 Q344 100 364 100 Q399 100 418.5 115.5 Q438 131 438 158 Q438 191 415 211.5 Q392 232 359 255 Q336 270 318.5 283.5 Q301 297 289 310.5 Q277 324 271 340.5 Q265 357 265 378 Q265 409 281.5 433 Q298 457 321 489 Q338 513 350 532.5 Q362 552 362 578 Q362 606 340.5 623 Q319 640 288 640 Q251 640 227.5 617 Q204 594 204 543 L204 13 Q204 0 190 0 L77 0 Q64 0 64 14 L64 545 Q64 597 80 637 Q96 677 125 703.5 Q154 730 194 743.5 Q234 757 282 757 Q327 757 366 745.5 Q405 734 433.5 712.5 Q462 691 478 661.5 Q494 632 494 596 Q494 561 479 530.5 Q464 500 441 473 Q415 441 405.5 425.5 Q396 410 396 393 Q396 369 415 354.5 Q434 340 474 314 Q516 284 544 248 Q572 212 572 156 Q572 80 524 35.5 Q476 -9 393 -9 Z " />
<glyph glyph-name="t" unicode="t" horiz-adv-x="398" d="M340 109 Q348 111 352 111 Q369 111 369 87 L369 23 Q369 9 356 5 Q332 -3 305.5 -6.5 Q279 -10 255 -10 Q172 -10 132 32 Q92 74 92 164 L92 382 L23 382 Q10 382 10 396 L10 467 Q10 480 24 480 L92 480 L92 621 Q92 634 106 634 L218 634 Q231 634 231 620 L231 480 L352 480 Q365 480 365 466 L365 395 Q365 382 351 382 L231 382 L231 182 Q231 105 300 105 Q311 105 320.5 106 Q330 107 340 109 Z " />
<glyph glyph-name="u" unicode="u" horiz-adv-x="590" d="M512 480 Q525 480 525 466 L525 13 Q525 0 511 0 L411 0 Q398 0 398 14 L396 73 Q373 34 334.5 12.5 Q296 -9 245 -9 Q205 -9 171.5 3.5 Q138 16 114 40.5 Q90 65 76.5 101.5 Q63 138 63 187 L63 467 Q63 480 77 480 L190 480 Q203 480 203 466 L203 195 Q203 144 227.5 121.5 Q252 99 293 99 Q337 99 361 127.5 Q385 156 385 200 L385 467 Q385 480 399 480 L512 480 L512 480 Z " />
<glyph glyph-name="uacute" unicode="&#xfa;" horiz-adv-x="584" d="M512 480 Q525 480 525 466 L525 13 Q525 0 511 0 L411 0 Q398 0 398 14 L396 73 Q373 34 334.5 12.5 Q296 -9 245 -9 Q205 -9 171.5 3.5 Q138 16 114 40.5 Q90 65 76.5 101.5 Q63 138 63 187 L63 467 Q63 480 77 480 L190 480 Q203 480 203 466 L203 195 Q203 144 227.5 121.5 Q252 99 293 99 Q337 99 361 127.5 Q385 156 385 200 L385 467 Q385 480 399 480 L512 480 L512 480 Z M237 551 Q224 551 230 564 L325 767 Q330 779 343 775 L439 744 Q446 743 446 737 Q446 734 443 728 L321 560 Q315 551 304 551 L237 551 L237 551 Z " />
<glyph glyph-name="ucircumflex" unicode="&#xfb;" horiz-adv-x="584" d="M512 480 Q525 480 525 466 L525 13 Q525 0 511 0 L411 0 Q398 0 398 14 L396 73 Q373 34 334.5 12.5 Q296 -9 245 -9 Q205 -9 171.5 3.5 Q138 16 114 40.5 Q90 65 76.5 101.5 Q63 138 63 187 L63 467 Q63 480 77 480 L190 480 Q203 480 203 466 L203 195 Q203 144 227.5 121.5 Q252 99 293 99 Q337 99 361 127.5 Q385 156 385 200 L385 467 Q385 480 399 480 L512 480 L512 480 Z M452 565 Q454 561 454 559 Q454 555 447 555 L382 555 Q370 555 364 564 L294 660 L225 564 Q219 555 208 555 L140 555 Q129 555 135 565 L245 738 Q251 747 262 747 L326 747 Q337 747 343 738 L452 565 L452 565 Z " />
<glyph glyph-name="udieresis" unicode="&#xfc;" horiz-adv-x="584" d="M512 480 Q525 480 525 466 L525 13 Q525 0 511 0 L411 0 Q398 0 398 14 L396 73 Q373 34 334.5 12.5 Q296 -9 245 -9 Q205 -9 171.5 3.5 Q138 16 114 40.5 Q90 65 76.5 101.5 Q63 138 63 187 L63 467 Q63 480 77 480 L190 480 Q203 480 203 466 L203 195 Q203 144 227.5 121.5 Q252 99 293 99 Q337 99 361 127.5 Q385 156 385 200 L385 467 Q385 480 399 480 L512 480 L512 480 Z M208 605 Q182 605 166.5 623 Q151 641 151 667 Q151 692 166.5 710 Q182 728 208 728 Q234 728 250 710 Q266 692 266 667 Q266 641 250 623 Q234 605 208 605 Z M380 605 Q354 605 338.5 623 Q323 641 323 667 Q323 692 338.5 710 Q354 728 380 728 Q406 728 422 710 Q438 692 438 667 Q438 641 422 623 Q406 605 380 605 Z " />
<glyph glyph-name="ugrave" unicode="&#xf9;" horiz-adv-x="584" d="M512 480 Q525 480 525 466 L525 13 Q525 0 511 0 L411 0 Q398 0 398 14 L396 73 Q373 34 334.5 12.5 Q296 -9 245 -9 Q205 -9 171.5 3.5 Q138 16 114 40.5 Q90 65 76.5 101.5 Q63 138 63 187 L63 467 Q63 480 77 480 L190 480 Q203 480 203 466 L203 195 Q203 144 227.5 121.5 Q252 99 293 99 Q337 99 361 127.5 Q385 156 385 200 L385 467 Q385 480 399 480 L512 480 L512 480 Z M329 563 Q330 561 330 558 Q330 551 320 551 L254 551 Q242 551 237 560 L114 729 Q111 733 111 736 Q111 742 120 745 L216 775 Q218 775 218.5 775.5 Q219 776 221 776 Q230 776 234 766 L329 563 L329 563 Z " />
<glyph glyph-name="v" unicode="v" horiz-adv-x="539" d="M519 480 Q531 480 527 467 L337 12 Q332 0 318 0 L220 0 Q206 0 202 13 L11 468 Q10 470 10 473 Q10 480 20 480 L153 480 Q165 480 171 467 L273 182 L372 468 Q375 480 390 480 L519 480 L519 480 Z " />
<glyph glyph-name="w" unicode="w" horiz-adv-x="741" d="M725 480 Q738 480 734 467 L586 12 Q583 0 568 0 L476 0 Q463 0 459 13 L371 299 L284 12 Q279 0 266 0 L175 0 Q162 0 158 13 L7 468 Q7 470 6.5 470.5 Q6 471 6 472 Q6 480 17 480 L140 480 Q153 480 157 467 L230 203 L308 468 Q313 480 326 480 L420 480 Q433 480 437 467 L521 200 L590 467 Q593 480 607 480 L725 480 L725 480 Z " />
<glyph glyph-name="x" unicode="x" horiz-adv-x="546" d="M530 24 Q537 16 537 9 Q537 0 517 0 L375 0 Q362 0 354 12 L269 144 L177 11 Q171 0 156 0 L29 0 Q10 0 10 9 Q10 14 18 25 L191 239 L24 455 Q17 463 17 470 Q17 480 37 480 L172 480 Q185 480 193 468 L277 336 L366 469 Q372 480 387 480 L507 480 Q526 480 526 470 Q526 465 519 455 L356 243 L530 24 L530 24 Z " />
<glyph glyph-name="y" unicode="y" horiz-adv-x="540" d="M524 480 Q537 480 531 467 L318 -18 Q279 -110 230 -151 Q181 -192 115 -192 Q89 -192 67.5 -188.5 Q46 -185 28 -176 Q16 -172 16 -156 L16 -71 Q16 -59 29 -64 Q68 -81 106 -81 Q144 -81 169 -57 Q194 -33 210 12 L3 468 Q2 470 2 473 Q2 480 12 480 L130 480 Q142 480 148 467 L270 159 L394 468 Q399 480 413 480 L524 480 L524 480 Z " />
<glyph glyph-name="yacute" unicode="&#xfd;" horiz-adv-x="540" d="M524 480 Q537 480 531 467 L318 -18 Q279 -110 230 -151 Q181 -192 115 -192 Q89 -192 67.5 -188.5 Q46 -185 28 -176 Q16 -172 16 -156 L16 -71 Q16 -59 29 -64 Q68 -81 106 -81 Q144 -81 169 -57 Q194 -33 210 12 L3 468 Q2 470 2 473 Q2 480 12 480 L130 480 Q142 480 148 467 L270 159 L394 468 Q399 480 413 480 L524 480 L524 480 Z M207 551 Q194 551 200 564 L295 767 Q300 779 313 775 L409 744 Q416 743 416 737 Q416 734 413 728 L291 560 Q285 551 274 551 L207 551 L207 551 Z " />
<glyph glyph-name="ydieresis" unicode="&#xff;" horiz-adv-x="540" d="M524 480 Q537 480 531 467 L318 -18 Q279 -110 230 -151 Q181 -192 115 -192 Q89 -192 67.5 -188.5 Q46 -185 28 -176 Q16 -172 16 -156 L16 -71 Q16 -59 29 -64 Q68 -81 106 -81 Q144 -81 169 -57 Q194 -33 210 12 L3 468 Q2 470 2 473 Q2 480 12 480 L130 480 Q142 480 148 467 L270 159 L394 468 Q399 480 413 480 L524 480 L524 480 Z M178 605 Q152 605 136.5 623 Q121 641 121 667 Q121 692 136.5 710 Q152 728 178 728 Q204 728 220 710 Q236 692 236 667 Q236 641 220 623 Q204 605 178 605 Z M350 605 Q324 605 308.5 623 Q293 641 293 667 Q293 692 308.5 710 Q324 728 350 728 Q376 728 392 710 Q408 692 408 667 Q408 641 392 623 Q376 605 350 605 Z " />
<glyph glyph-name="z" unicode="z" horiz-adv-x="464" d="M32 0 Q19 0 19 14 L19 37 Q19 50 27 61 L248 364 L47 364 Q34 364 34 378 L34 467 Q34 480 48 480 L422 480 Q435 480 435 466 L435 443 Q435 430 427 419 L205 116 L424 116 Q437 116 437 102 L437 13 Q437 0 423 0 L32 0 L32 0 Z " />
<glyph glyph-name="zcaron" unicode="&#x17e;" horiz-adv-x="491" d="M32 0 Q19 0 19 14 L19 37 Q19 50 27 61 L248 364 L47 364 Q34 364 34 378 L34 467 Q34 480 48 480 L422 480 Q435 480 435 466 L435 443 Q435 430 427 419 L205 116 L424 116 Q437 116 437 102 L437 13 Q437 0 423 0 L32 0 L32 0 Z M371 721 Q379 721 379 717 Q379 713 376 709 L277 554 Q271 543 256 543 L184 543 Q171 543 163 555 L64 710 Q62 714 62 716 Q62 721 71 721 L143 721 Q157 721 165 710 L223 639 L280 711 Q288 721 302 721 L371 721 L371 721 Z " />
<glyph glyph-name="fi" unicode="&#xfb01;" horiz-adv-x="665" d="M327 644 Q291 644 269.5 624 Q248 604 248 558 L248 480 L375 480 Q388 480 388 466 L388 394 Q388 381 374 381 L248 381 L248 13 Q248 0 234 0 L121 0 Q108 0 108 14 L108 381 L33 381 Q20 381 20 395 L20 467 Q20 480 34 480 L108 480 L108 568 Q108 662 154 709.5 Q200 757 288 757 Q315 757 339 753.5 Q363 750 381 744 Q393 739 393 725 L393 660 Q393 638 376 638 Q373 638 370 638.5 Q367 639 363 640 Q355 642 346 643 Q337 644 327 644 Z M528 578 Q488 578 465.5 601.5 Q443 625 443 659 Q443 693 465.5 716.5 Q488 740 528 740 Q568 740 590 716.5 Q612 693 612 659 Q612 625 590 601.5 Q568 578 528 578 Z M471 0 Q458 0 458 14 L458 467 Q458 480 472 480 L585 480 Q598 480 598 466 L598 13 Q598 0 584 0 L471 0 Z " />
<glyph glyph-name="fl" unicode="&#xfb02;" horiz-adv-x="708" d="M327 644 Q291 644 269.5 624 Q248 604 248 558 L248 480 L375 480 Q388 480 388 466 L388 394 Q388 381 374 381 L248 381 L248 13 Q248 0 234 0 L121 0 Q108 0 108 14 L108 381 L33 381 Q20 381 20 395 L20 467 Q20 480 34 480 L108 480 L108 568 Q108 662 154 709.5 Q200 757 288 757 Q315 757 339 753.5 Q363 750 381 744 Q393 739 393 725 L393 660 Q393 638 376 638 Q373 638 370 638.5 Q367 639 363 640 Q355 642 346 643 Q337 644 327 644 Z M594 -10 Q528 -10 491 27 Q454 64 454 143 L454 734 Q454 747 468 747 L581 747 Q594 747 594 733 L594 162 Q594 131 607 118.5 Q620 106 643 106 Q661 106 680 113 Q686 115 687 115 Q694 115 694 104 L694 23 Q694 9 681 4 Q664 -3 640 -6.5 Q616 -10 594 -10 Z " />
<glyph glyph-name="ordfeminine" unicode="&#xaa;" horiz-adv-x="510" d="M209 361 Q176 361 147.5 374 Q119 387 98 411 Q77 435 64.5 468 Q52 501 52 540 Q52 579 64 612 Q76 645 97.5 668.5 Q119 692 147.5 705 Q176 718 209 718 Q244 718 271.5 706 Q299 694 319 667 L318 699 Q318 710 329 710 L421 710 Q432 710 432 699 L432 379 Q432 368 421 368 L330 368 Q319 368 319 379 L319 418 Q278 361 209 361 Z M245 632 Q213 632 192.5 607.5 Q172 583 172 539 Q172 496 193.5 471.5 Q215 447 245 447 Q275 447 297 471.5 Q319 496 319 539 Q319 583 298 607.5 Q277 632 245 632 Z M436 297 Q447 297 447 286 L447 243 Q447 232 436 232 L72 232 Q61 232 61 243 L61 286 Q61 297 72 297 L436 297 Z " />
<glyph glyph-name="ordmasculine" unicode="&#xba;" horiz-adv-x="466" d="M234 381 Q195 381 161.5 393.5 Q128 406 103.5 429 Q79 452 65 483 Q51 514 51 552 Q51 589 65 620 Q79 651 103.5 673.5 Q128 696 161.5 708 Q195 720 234 720 Q273 720 306 708 Q339 696 363 673.5 Q387 651 401 620 Q415 589 415 552 Q415 514 401 483 Q387 452 363 429 Q339 406 306 393.5 Q273 381 234 381 Z M234 474 Q266 474 286.5 495.5 Q307 517 307 551 Q307 586 286.5 607 Q266 628 234 628 Q202 628 181 607 Q160 586 160 551 Q160 517 181 495.5 Q202 474 234 474 Z M75 254 Q64 254 64 265 L64 309 Q64 320 75 320 L394 320 Q405 320 405 309 L405 265 Q405 254 394 254 L75 254 Z " />
<glyph glyph-name="Delta" unicode="&#x394;" horiz-adv-x="627" d="M30 0 Q17 0 17 14 L17 50 Q17 56 18 62.5 Q19 69 22 76 L258 700 Q263 712 277 712 L350 712 Q362 712 368 699 L605 75 Q610 63 610 49 L610 13 Q610 0 596 0 L30 0 Z M472 104 L313 533 L154 104 L472 104 Z " />
<glyph glyph-name="Omega" unicode="&#x3a9;" horiz-adv-x="738" d="M51 0 Q38 0 38 14 L38 102 Q38 115 52 115 L213 115 L213 164 Q176 178 144 202 Q112 226 88 258 Q64 290 50.5 330 Q37 370 37 417 Q37 484 63 539.5 Q89 595 134 635.5 Q179 676 239 698.5 Q299 721 367 721 Q435 721 495 698.5 Q555 676 599.5 635.5 Q644 595 670 539.5 Q696 484 696 417 Q696 370 682.5 330 Q669 290 645.5 258 Q622 226 590 202 Q558 178 521 164 L521 115 L682 115 Q695 115 695 101 L695 13 Q695 0 681 0 L414 0 Q401 0 401 14 L401 159 Q401 172 414 178 Q477 210 515.5 264 Q554 318 554 392 Q554 435 540 471.5 Q526 508 501.5 535 Q477 562 442.5 577 Q408 592 367 592 Q325 592 290.5 577 Q256 562 231.5 535 Q207 508 193 471.5 Q179 435 179 392 Q179 318 218 264 Q257 210 320 178 Q332 171 332 158 L332 13 Q332 0 318 0 L51 0 L51 0 Z " />
<glyph glyph-name="mu" unicode="&#x3bc;" horiz-adv-x="587" d="M514 480 Q527 480 527 466 L527 13 Q527 0 513 0 L421 0 Q408 0 407 14 L403 71 L398 72 Q363 -9 280 -9 Q251 -9 227.5 -0.5 Q204 8 188 27 L202 -169 L202 -171 Q202 -182 189 -182 L72 -182 Q59 -182 60 -168 L73 49 L63 467 Q63 480 77 480 L190 480 Q203 480 203 466 L203 189 Q203 136 226 114.5 Q249 93 288 93 Q336 93 361.5 126 Q387 159 387 215 L387 467 Q387 480 401 480 L514 480 L514 480 Z " />
<glyph glyph-name="pi" unicode="&#x3c0;" horiz-adv-x="610" d="M564 113 Q566 114 570 114 Q578 114 578 103 L578 33 Q578 19 567 12 Q550 2 525.5 -4 Q501 -10 479 -10 Q419 -10 382 26.5 Q345 63 345 135 L345 378 L220 378 L220 13 Q220 0 206 0 L98 0 Q85 0 85 14 L85 378 L15 378 Q2 378 2 392 L2 467 Q2 480 16 480 L549 480 Q562 480 562 466 L562 391 Q562 378 548 378 L479 378 L479 162 Q479 132 492 119 Q505 106 528 106 Q537 106 546.5 107.5 Q556 109 564 113 Z " />
<glyph glyph-name="zero" unicode="0" horiz-adv-x="667" d="M334 -9 Q275 -9 223 14 Q171 37 132 83 Q93 129 70 197 Q47 265 47 355 Q47 445 70 513 Q93 581 132 627 Q171 673 223 696.5 Q275 720 334 720 Q392 720 444 696.5 Q496 673 535 627 Q574 581 597 512.5 Q620 444 620 355 Q620 266 597 198 Q574 130 535 84 Q496 38 444 14.5 Q392 -9 334 -9 Z M334 121 Q401 121 440.5 180.5 Q480 240 480 355 Q480 468 440.5 529 Q401 590 334 590 Q268 590 228 529.5 Q188 469 188 355 Q188 240 228 180.5 Q268 121 334 121 Z " />
<glyph glyph-name="one" unicode="1" horiz-adv-x="463" d="M323 710 Q336 710 336 696 L336 13 Q336 0 322 0 L209 0 Q196 0 196 14 L196 545 L58 483 Q56 482 53 482 Q46 482 46 492 L46 588 Q46 601 59 607 L265 704 Q275 710 291 710 L323 710 L323 710 Z " />
<glyph glyph-name="two" unicode="2" horiz-adv-x="569" d="M501 119 Q514 119 514 105 L514 13 Q514 0 500 0 L44 0 Q29 0 29 9 Q29 12 31 15 Q33 18 36 23 L243 296 Q284 350 311.5 394 Q339 438 339 485 Q339 537 300 568.5 Q261 600 193 600 Q160 600 131.5 592 Q103 584 85 575 Q74 570 68.5 567 Q63 564 60 564 Q54 564 54 575 L54 666 Q54 680 66 685 Q101 702 145.5 711 Q190 720 237 720 Q292 720 338 706 Q384 692 416 665 Q448 638 466 599 Q484 560 484 511 Q484 450 454.5 392.5 Q425 335 379 275 L258 119 L501 119 L501 119 Z " />
<glyph glyph-name="three" unicode="3" horiz-adv-x="552" d="M329 383 Q420 366 462 318.5 Q504 271 504 205 Q504 156 482.5 116.5 Q461 77 423 49 Q385 21 333.5 5.5 Q282 -10 223 -10 Q171 -10 128.5 -2.5 Q86 5 55 17 Q43 22 43 36 L43 133 Q43 145 56 141 Q87 130 120.5 122.5 Q154 115 198 115 Q268 115 311 142.5 Q354 170 354 214 Q354 259 308.5 285 Q263 311 174 311 L143 311 Q130 311 130 325 L130 415 Q130 428 144 428 L167 428 Q253 428 292 454.5 Q331 481 331 516 Q331 554 294 577 Q257 600 197 600 Q157 600 126.5 591.5 Q96 583 68 569 Q62 567 62 567 Q56 567 56 577 L56 676 Q56 690 69 694 Q100 705 140 712.5 Q180 720 224 720 Q282 720 327.5 707 Q373 694 405 671.5 Q437 649 454 618 Q471 587 471 550 Q471 496 437.5 451 Q404 406 329 383 Z " />
<glyph glyph-name="four" unicode="4" horiz-adv-x="586" d="M548 225 Q561 225 561 211 L561 126 Q561 113 547 113 L480 113 L480 13 Q480 0 466 0 L355 0 Q342 0 342 14 L342 113 L35 113 Q22 113 22 127 L22 207 Q22 220 30 232 L338 699 Q344 710 359 710 L467 710 Q480 710 480 696 L480 225 L548 225 Z M347 534 Q334 502 322.5 480 Q311 458 296 433 L155 226 L342 226 L342 421 Q342 443 343 471 Q344 499 349 534 L347 534 Z " />
<glyph glyph-name="five" unicode="5" horiz-adv-x="565" d="M256 456 Q311 456 359.5 442 Q408 428 443 400.5 Q478 373 498.5 332 Q519 291 519 237 Q519 180 494.5 134 Q470 88 428 56 Q386 24 331 7 Q276 -10 215 -10 Q169 -10 130 -2.5 Q91 5 62 17 Q50 23 50 37 L50 129 Q50 137 56 137 Q57 137 57.5 136.5 Q58 136 59 136 Q90 124 124.5 116.5 Q159 109 193 109 Q233 109 265.5 118.5 Q298 128 321 144.5 Q344 161 357 184.5 Q370 208 370 235 Q370 289 325.5 321.5 Q281 354 207 354 Q181 354 158 350 Q135 346 117.5 340.5 Q100 335 88.5 331 Q77 327 73 327 Q65 327 65 336 Q65 341 66 347.5 Q67 354 68 362 L122 697 Q124 710 138 710 L470 710 Q483 710 483 696 L483 608 Q483 595 469 595 L222 595 L199 452 Q213 454 227 455 Q241 456 256 456 Z " />
<glyph glyph-name="six" unicode="6" horiz-adv-x="597" d="M339 449 Q385 449 425 432.5 Q465 416 494 387 Q523 358 539.5 317.5 Q556 277 556 229 Q556 176 536 132.5 Q516 89 481 57 Q446 25 399 7.5 Q352 -10 298 -10 Q242 -10 196 8 Q150 26 116.5 57.5 Q83 89 64.5 132.5 Q46 176 46 226 Q46 339 127 444 L329 700 Q337 710 351 710 L472 710 Q479 710 479 706 Q479 703 476 699 L340 536 Q332 525 320.5 510 Q309 495 296.5 479 Q284 463 272.5 448 Q261 433 252 421 Q290 449 339 449 Z M301 111 Q327 111 350.5 120 Q374 129 391.5 145 Q409 161 419 182.5 Q429 204 429 230 Q429 285 392 317.5 Q355 350 300 350 Q273 350 250 341 Q227 332 210 315.5 Q193 299 183 276.5 Q173 254 173 227 Q173 202 182.5 180.5 Q192 159 209.5 143.5 Q227 128 250.5 119.5 Q274 111 301 111 Z " />
<glyph glyph-name="seven" unicode="7" horiz-adv-x="545" d="M522 710 Q533 710 533 703 Q533 700 530 694 L201 12 Q194 0 181 0 L65 0 Q55 0 55 7 Q55 9 57 15 L341 588 L53 588 Q40 588 40 602 L40 697 Q40 710 54 710 L522 710 L522 710 Z " />
<glyph glyph-name="eight" unicode="8" horiz-adv-x="589" d="M296 -10 Q246 -10 200.5 4 Q155 18 120.5 45 Q86 72 65.5 111 Q45 150 45 200 Q45 266 79.5 312 Q114 358 167 377 Q121 401 96.5 441 Q72 481 72 530 Q72 572 89.5 607 Q107 642 137 667 Q167 692 208 706 Q249 720 296 720 Q342 720 383 706.5 Q424 693 454 668 Q484 643 501.5 608 Q519 573 519 530 Q519 481 495 440.5 Q471 400 426 377 Q478 357 512.5 311.5 Q547 266 547 201 Q547 150 526.5 111 Q506 72 471.5 45 Q437 18 391.5 4 Q346 -10 296 -10 Z M295 423 Q338 423 365 449.5 Q392 476 392 517 Q392 559 364 583.5 Q336 608 296 608 Q256 608 228 583.5 Q200 559 200 517 Q200 476 226.5 449.5 Q253 423 295 423 Z M296 106 Q344 106 375.5 134.5 Q407 163 407 211 Q407 235 398 254.5 Q389 274 374 288 Q359 302 339 309.5 Q319 317 296 317 Q273 317 252.5 309.5 Q232 302 217 288 Q202 274 193 254.5 Q184 235 184 211 Q184 163 215.5 134.5 Q247 106 296 106 Z " />
<glyph glyph-name="nine" unicode="9" horiz-adv-x="597" d="M298 720 Q353 720 399.5 702 Q446 684 479.5 652.5 Q513 621 531.5 577.5 Q550 534 550 484 Q550 371 469 266 L267 10 Q259 0 245 0 L124 0 Q117 0 117 4 Q117 6 120 11 L256 174 Q264 185 275.5 200 Q287 215 299.5 231 Q312 247 323.5 262 Q335 277 344 289 Q306 261 257 261 Q210 261 170.5 277.5 Q131 294 102 323 Q73 352 56.5 392.5 Q40 433 40 481 Q40 533 60 577 Q80 621 115 653 Q150 685 197 702.5 Q244 720 298 720 Z M296 360 Q323 360 346 369 Q369 378 386 394.5 Q403 411 413 433.5 Q423 456 423 483 Q423 508 413.5 529.5 Q404 551 386.5 566.5 Q369 582 345.5 590.5 Q322 599 295 599 Q269 599 245.5 590 Q222 581 204.5 565 Q187 549 177 527 Q167 505 167 480 Q167 425 204 392.5 Q241 360 296 360 Z " />
<glyph glyph-name="onesuperior" unicode="&#xb9;" horiz-adv-x="352" d="M231 844 Q244 844 244 830 L244 440 Q244 427 230 427 L169 427 Q156 427 156 441 L156 744 L64 709 Q62 708 59 708 Q52 708 52 718 L52 767 Q52 780 65 786 L183 839 Q193 844 204 844 L231 844 L231 844 Z " />
<glyph glyph-name="twosuperior" unicode="&#xb2;" horiz-adv-x="377" d="M317 501 Q330 501 330 487 L330 440 Q330 427 316 427 L39 427 Q30 427 30 431 Q30 434 34 438 L164 599 Q190 631 207 656.5 Q224 682 224 710 Q224 739 200.5 757 Q177 775 138 775 Q97 775 59 756 Q57 755 53 755 Q48 755 48 764 L48 813 Q48 827 61 832 Q82 840 108.5 845 Q135 850 163 850 Q232 850 273.5 818.5 Q315 787 315 733 Q315 693 296.5 659 Q278 625 248 589 L172 501 L317 501 L317 501 Z " />
<glyph glyph-name="threesuperior" unicode="&#xb3;" horiz-adv-x="349" d="M210 653 Q267 642 293.5 614.5 Q320 587 320 549 Q320 520 306.5 496 Q293 472 269 455.5 Q245 439 213 430 Q181 421 144 421 Q115 421 89.5 425 Q64 429 45 435 Q33 440 33 454 L33 498 Q33 510 46 506 Q63 501 82.5 497.5 Q102 494 127 494 Q171 494 196.5 510.5 Q222 527 222 554 Q222 580 195 595.5 Q168 611 114 611 L99 611 Q86 611 86 625 L86 664 Q86 677 100 677 L109 677 Q163 677 186 693 Q209 709 209 732 Q209 754 187 768 Q165 782 128 782 Q105 782 87 778.5 Q69 775 53 769 Q51 768 48 768 Q41 768 41 778 L41 820 Q41 834 54 837 Q73 843 96.5 846.5 Q120 850 145 850 Q217 850 258 822.5 Q299 795 299 751 Q299 719 278 693 Q257 667 210 653 Z " />
<glyph glyph-name="fraction" unicode="&#x2044;" horiz-adv-x="115" d="M-211 -3 Q-218 0 -218 6 Q-218 8 -214 16 L277 722 Q280 729 286 729 Q288 729 296 725 L315 713 Q322 709 322 704 Q322 702 318 694 L-173 -14 Q-177 -21 -182 -21 Q-184 -21 -192 -17 L-211 -3 L-211 -3 Z " />
<glyph glyph-name="onehalf" unicode="&#xbd;" horiz-adv-x="857" d="M231 714 Q244 714 244 700 L244 310 Q244 297 230 297 L169 297 Q156 297 156 311 L156 614 L64 579 Q62 578 59 578 Q52 578 52 588 L52 637 Q52 650 65 656 L183 709 Q193 714 204 714 L231 714 L231 714 Z M154 -3 Q147 0 147 6 Q147 8 151 16 L642 722 Q645 729 651 729 Q653 729 661 725 L680 713 Q687 709 687 704 Q687 702 683 694 L192 -14 Q188 -21 183 -21 Q181 -21 173 -17 L154 -3 L154 -3 Z M797 74 Q810 74 810 60 L810 13 Q810 0 796 0 L519 0 Q510 0 510 4 Q510 7 514 11 L644 172 Q670 204 687 229.5 Q704 255 704 283 Q704 312 680.5 330 Q657 348 618 348 Q577 348 539 329 Q537 328 533 328 Q528 328 528 337 L528 386 Q528 400 541 405 Q562 413 588.5 418 Q615 423 643 423 Q712 423 753.5 391.5 Q795 360 795 306 Q795 266 776.5 232 Q758 198 728 162 L652 74 L797 74 L797 74 Z " />
<glyph glyph-name="onequarter" unicode="&#xbc;" horiz-adv-x="769" d="M231 714 Q244 714 244 700 L244 310 Q244 297 230 297 L169 297 Q156 297 156 311 L156 614 L64 579 Q62 578 59 578 Q52 578 52 588 L52 637 Q52 650 65 656 L183 709 Q193 714 204 714 L231 714 L231 714 Z M154 -3 Q147 0 147 6 Q147 8 151 16 L642 722 Q645 729 651 729 Q653 729 661 725 L680 713 Q687 709 687 704 Q687 702 683 694 L192 -14 Q188 -21 183 -21 Q181 -21 173 -17 L154 -3 L154 -3 Z M736 131 Q749 131 749 117 L749 77 Q749 64 735 64 L695 64 L695 13 Q695 0 681 0 L627 0 Q614 0 614 14 L614 64 L431 64 Q420 64 420 75 L420 121 Q420 130 426 141 L609 408 Q615 417 626 417 L682 417 Q695 417 695 403 L695 131 L736 131 Z M493 131 L616 131 L617 302 L493 131 Z " />
<glyph glyph-name="threequarters" unicode="&#xbe;" horiz-adv-x="753" d="M210 523 Q267 512 293.5 484.5 Q320 457 320 419 Q320 390 306.5 366 Q293 342 269 325.5 Q245 309 213 300 Q181 291 144 291 Q115 291 89.5 295 Q64 299 45 305 Q33 310 33 324 L33 368 Q33 380 46 376 Q63 371 82.5 367.5 Q102 364 127 364 Q171 364 196.5 380.5 Q222 397 222 424 Q222 450 195 465.5 Q168 481 114 481 L99 481 Q86 481 86 495 L86 534 Q86 547 100 547 L109 547 Q163 547 186 563 Q209 579 209 602 Q209 624 187 638 Q165 652 128 652 Q105 652 87 648.5 Q69 645 53 639 Q51 638 48 638 Q41 638 41 648 L41 690 Q41 704 54 707 Q73 713 96.5 716.5 Q120 720 145 720 Q217 720 258 692.5 Q299 665 299 621 Q299 589 278 563 Q257 537 210 523 Z M138 -3 Q131 0 131 6 Q131 8 135 16 L626 722 Q629 729 635 729 Q637 729 645 725 L664 713 Q671 709 671 704 Q671 702 667 694 L176 -14 Q172 -21 167 -21 Q165 -21 157 -17 L138 -3 L138 -3 Z M720 131 Q733 131 733 117 L733 77 Q733 64 719 64 L679 64 L679 13 Q679 0 665 0 L611 0 Q598 0 598 14 L598 64 L415 64 Q404 64 404 75 L404 121 Q404 130 410 141 L593 408 Q599 417 610 417 L666 417 Q679 417 679 403 L679 131 L720 131 Z M477 131 L600 131 L601 302 L477 131 Z " />
<glyph glyph-name="oneeighth" unicode="&#x215b;" horiz-adv-x="855" d="M231 714 Q244 714 244 700 L244 310 Q244 297 230 297 L169 297 Q156 297 156 311 L156 614 L64 579 Q62 578 59 578 Q52 578 52 588 L52 637 Q52 650 65 656 L183 709 Q193 714 204 714 L231 714 L231 714 Z M154 -3 Q147 0 147 6 Q147 8 151 16 L642 722 Q645 729 651 729 Q653 729 661 725 L680 713 Q687 709 687 704 Q687 702 683 694 L192 -14 Q188 -21 183 -21 Q181 -21 173 -17 L154 -3 L154 -3 Z M669 -5 Q638 -5 609.5 3 Q581 11 559.5 27 Q538 43 525.5 66 Q513 89 513 119 Q513 158 536.5 184.5 Q560 211 595 222 Q531 250 531 314 Q531 339 541.5 359 Q552 379 570.5 393.5 Q589 408 614.5 415.5 Q640 423 669 423 Q698 423 723.5 415.5 Q749 408 767.5 393.5 Q786 379 796.5 359 Q807 339 807 314 Q807 283 790 259.5 Q773 236 742 222 Q777 211 800.5 184.5 Q824 158 824 119 Q824 89 811.5 66 Q799 43 777.5 27 Q756 11 728 3 Q700 -5 669 -5 Z M669 247 Q698 247 715.5 263.5 Q733 280 733 306 Q733 331 714.5 346 Q696 361 669 361 Q642 361 623.5 346 Q605 331 605 306 Q605 280 622.5 263.5 Q640 247 669 247 Z M669 59 Q701 59 722.5 77 Q744 95 744 124 Q744 153 722 170.5 Q700 188 669 188 Q638 188 616 170.5 Q594 153 594 124 Q594 95 615 77 Q636 59 669 59 Z " />
<glyph glyph-name="threeeighths" unicode="&#x215c;" horiz-adv-x="839" d="M210 523 Q267 512 293.5 484.5 Q320 457 320 419 Q320 390 306.5 366 Q293 342 269 325.5 Q245 309 213 300 Q181 291 144 291 Q115 291 89.5 295 Q64 299 45 305 Q33 310 33 324 L33 368 Q33 380 46 376 Q63 371 82.5 367.5 Q102 364 127 364 Q171 364 196.5 380.5 Q222 397 222 424 Q222 450 195 465.5 Q168 481 114 481 L99 481 Q86 481 86 495 L86 534 Q86 547 100 547 L109 547 Q163 547 186 563 Q209 579 209 602 Q209 624 187 638 Q165 652 128 652 Q105 652 87 648.5 Q69 645 53 639 Q51 638 48 638 Q41 638 41 648 L41 690 Q41 704 54 707 Q73 713 96.5 716.5 Q120 720 145 720 Q217 720 258 692.5 Q299 665 299 621 Q299 589 278 563 Q257 537 210 523 Z M138 -3 Q131 0 131 6 Q131 8 135 16 L626 722 Q629 729 635 729 Q637 729 645 725 L664 713 Q671 709 671 704 Q671 702 667 694 L176 -14 Q172 -21 167 -21 Q165 -21 157 -17 L138 -3 L138 -3 Z M653 -5 Q622 -5 593.5 3 Q565 11 543.5 27 Q522 43 509.5 66 Q497 89 497 119 Q497 158 520.5 184.5 Q544 211 579 222 Q515 250 515 314 Q515 339 525.5 359 Q536 379 554.5 393.5 Q573 408 598.5 415.5 Q624 423 653 423 Q682 423 707.5 415.5 Q733 408 751.5 393.5 Q770 379 780.5 359 Q791 339 791 314 Q791 283 774 259.5 Q757 236 726 222 Q761 211 784.5 184.5 Q808 158 808 119 Q808 89 795.5 66 Q783 43 761.5 27 Q740 11 712 3 Q684 -5 653 -5 Z M653 247 Q682 247 699.5 263.5 Q717 280 717 306 Q717 331 698.5 346 Q680 361 653 361 Q626 361 607.5 346 Q589 331 589 306 Q589 280 606.5 263.5 Q624 247 653 247 Z M653 59 Q685 59 706.5 77 Q728 95 728 124 Q728 153 706 170.5 Q684 188 653 188 Q622 188 600 170.5 Q578 153 578 124 Q578 95 599 77 Q620 59 653 59 Z " />
<glyph glyph-name="fiveeighths" unicode="&#x215d;" horiz-adv-x="866" d="M175 566 Q208 566 236.5 558 Q265 550 286 534 Q307 518 319 493.5 Q331 469 331 437 Q331 403 316.5 376 Q302 349 277 330 Q252 311 220 301 Q188 291 154 291 Q126 291 103.5 295 Q81 299 64 306 Q52 310 52 325 L52 370 Q52 382 65 378 Q82 373 100 369.5 Q118 366 135 366 Q182 366 209 386 Q236 406 236 436 Q236 465 210.5 483 Q185 501 143 501 Q126 501 107.5 498 Q89 495 71 488 Q69 487 66 487 Q60 487 61 497 L91 701 Q93 714 107 714 L297 714 Q310 714 310 700 L310 655 Q310 642 296 642 L158 642 L146 565 Q153 566 160 566 Q167 566 175 566 Z M165 -3 Q158 0 158 6 Q158 8 162 16 L653 722 Q656 729 662 729 Q664 729 672 725 L691 713 Q698 709 698 704 Q698 702 694 694 L203 -14 Q199 -21 194 -21 Q192 -21 184 -17 L165 -3 L165 -3 Z M680 -5 Q649 -5 620.5 3 Q592 11 570.5 27 Q549 43 536.5 66 Q524 89 524 119 Q524 158 547.5 184.5 Q571 211 606 222 Q542 250 542 314 Q542 339 552.5 359 Q563 379 581.5 393.5 Q600 408 625.5 415.5 Q651 423 680 423 Q709 423 734.5 415.5 Q760 408 778.5 393.5 Q797 379 807.5 359 Q818 339 818 314 Q818 283 801 259.5 Q784 236 753 222 Q788 211 811.5 184.5 Q835 158 835 119 Q835 89 822.5 66 Q810 43 788.5 27 Q767 11 739 3 Q711 -5 680 -5 Z M680 247 Q709 247 726.5 263.5 Q744 280 744 306 Q744 331 725.5 346 Q707 361 680 361 Q653 361 634.5 346 Q616 331 616 306 Q616 280 633.5 263.5 Q651 247 680 247 Z M680 59 Q712 59 733.5 77 Q755 95 755 124 Q755 153 733 170.5 Q711 188 680 188 Q649 188 627 170.5 Q605 153 605 124 Q605 95 626 77 Q647 59 680 59 Z " />
<glyph glyph-name="seveneighths" unicode="&#x215e;" horiz-adv-x="811" d="M333 714 Q346 714 340 701 L147 309 Q141 297 127 297 L63 297 Q50 297 56 309 L225 638 L55 638 Q42 638 42 652 L42 701 Q42 714 56 714 L333 714 L333 714 Z M109 -3 Q102 0 102 6 Q102 8 106 16 L597 722 Q600 729 606 729 Q608 729 616 725 L635 713 Q642 709 642 704 Q642 702 638 694 L147 -14 Q143 -21 138 -21 Q136 -21 128 -17 L109 -3 L109 -3 Z M624 -5 Q593 -5 564.5 3 Q536 11 514.5 27 Q493 43 480.5 66 Q468 89 468 119 Q468 158 491.5 184.5 Q515 211 550 222 Q486 250 486 314 Q486 339 496.5 359 Q507 379 525.5 393.5 Q544 408 569.5 415.5 Q595 423 624 423 Q653 423 678.5 415.5 Q704 408 722.5 393.5 Q741 379 751.5 359 Q762 339 762 314 Q762 283 745 259.5 Q728 236 697 222 Q732 211 755.5 184.5 Q779 158 779 119 Q779 89 766.5 66 Q754 43 732.5 27 Q711 11 683 3 Q655 -5 624 -5 Z M624 247 Q653 247 670.5 263.5 Q688 280 688 306 Q688 331 669.5 346 Q651 361 624 361 Q597 361 578.5 346 Q560 331 560 306 Q560 280 577.5 263.5 Q595 247 624 247 Z M624 59 Q656 59 677.5 77 Q699 95 699 124 Q699 153 677 170.5 Q655 188 624 188 Q593 188 571 170.5 Q549 153 549 124 Q549 95 570 77 Q591 59 624 59 Z " />
<glyph glyph-name="asterisk" unicode="&#x2a;" horiz-adv-x="449" d="M416 541 Q417 539 417 536 Q417 529 407 526 L361 517 Q355 516 348.5 515 Q342 514 334 514 L254 508 L318 455 Q323 451 328 446.5 Q333 442 338 437 L368 403 Q372 399 372 395 Q372 389 366 385 L304 341 Q301 338 297 338 Q291 338 287 345 L265 386 Q259 396 253 410 L224 483 L195 409 Q191 399 183 384 L161 345 Q157 338 152 338 Q149 338 143 342 L81 387 Q76 390 76 395 Q76 400 80 404 L112 438 Q117 443 121.5 447.5 Q126 452 132 457 L194 509 L113 514 Q101 514 86 517 L42 527 Q29 529 33 542 L57 615 Q59 623 66 623 Q68 623 74 621 L116 601 Q128 596 139 589 L205 547 L185 625 Q183 631 182.5 637.5 Q182 644 180 652 L175 697 Q175 710 188 710 L264 710 Q278 710 275 696 L270 650 Q269 644 268 637.5 Q267 631 265 623 L246 548 L311 590 L335 603 L377 621 Q381 623 383 623 Q390 623 393 613 L416 541 L416 541 Z " />
<glyph glyph-name="backslash" unicode="&#x5c;" horiz-adv-x="356" d="M369 -111 Q369 -113 369.5 -113.5 Q370 -114 370 -115 Q370 -123 359 -123 L293 -123 Q280 -123 276 -110 L-15 767 Q-15 769 -15.5 769.5 Q-16 770 -16 771 Q-16 779 -5 779 L62 779 Q75 779 79 766 L369 -111 L369 -111 Z " />
<glyph glyph-name="periodcentered" unicode="&#xb7;" horiz-adv-x="264" d="M132 171 Q97 171 75.5 195.5 Q54 220 54 255 Q54 289 75.5 313.5 Q97 338 132 338 Q167 338 189 313.5 Q211 289 211 255 Q211 220 189 195.5 Q167 171 132 171 Z " />
<glyph glyph-name="bullet" unicode="&#x2022;" horiz-adv-x="343" d="M171 143 Q145 143 123.5 152.5 Q102 162 86.5 179 Q71 196 62.5 219 Q54 242 54 269 Q54 294 62.5 316.5 Q71 339 86.5 356 Q102 373 123.5 383 Q145 393 171 393 Q197 393 219 383 Q241 373 256.5 356 Q272 339 281 316.5 Q290 294 290 269 Q290 242 281 219 Q272 196 256.5 179 Q241 162 219 152.5 Q197 143 171 143 Z " />
<glyph glyph-name="colon" unicode="&#x3a;" horiz-adv-x="253" d="M128 293 Q95 293 74 316.5 Q53 340 53 373 Q53 405 74 429 Q95 453 128 453 Q161 453 182 429 Q203 405 203 373 Q203 340 182 316.5 Q161 293 128 293 Z M128 -9 Q95 -9 74 14.5 Q53 38 53 71 Q53 103 74 127 Q95 151 128 151 Q161 151 182 127 Q203 103 203 71 Q203 38 182 14.5 Q161 -9 128 -9 Z " />
<glyph glyph-name="comma" unicode="&#x2c;" horiz-adv-x="269" d="M133 158 Q167 158 191.5 134.5 Q216 111 216 73 Q216 49 206.5 26.5 Q197 4 185 -22 L121 -156 Q116 -169 102 -169 L84 -169 Q66 -169 72 -151 L115 -5 Q89 1 71.5 22.5 Q54 44 54 73 Q54 111 78 134.5 Q102 158 133 158 Z " />
<glyph glyph-name="ellipsis" unicode="&#x2026;" horiz-adv-x="744" d="M132 -8 Q97 -8 75.5 16.5 Q54 41 54 76 Q54 110 75.5 134.5 Q97 159 132 159 Q167 159 189 134.5 Q211 110 211 76 Q211 41 189 16.5 Q167 -8 132 -8 Z M372 -8 Q337 -8 315.5 16.5 Q294 41 294 76 Q294 110 315.5 134.5 Q337 159 372 159 Q407 159 429 134.5 Q451 110 451 76 Q451 41 429 16.5 Q407 -8 372 -8 Z M612 -8 Q577 -8 555.5 16.5 Q534 41 534 76 Q534 110 555.5 134.5 Q577 159 612 159 Q647 159 669 134.5 Q691 110 691 76 Q691 41 669 16.5 Q647 -8 612 -8 Z " />
<glyph glyph-name="exclam" unicode="&#x21;" horiz-adv-x="281" d="M105 225 Q92 225 91 239 L66 697 L66 699 Q66 710 79 710 L202 710 Q215 710 214 696 L190 238 Q188 225 175 225 L105 225 Z M140 -8 Q105 -8 83.5 16.5 Q62 41 62 76 Q62 110 83.5 134.5 Q105 159 140 159 Q175 159 197 134.5 Q219 110 219 76 Q219 41 197 16.5 Q175 -8 140 -8 Z " />
<glyph glyph-name="exclamdown" unicode="&#xa1;" horiz-adv-x="281" d="M140 720 Q175 720 197 695.5 Q219 671 219 636 Q219 602 197 577.5 Q175 553 140 553 Q105 553 83.5 577.5 Q62 602 62 636 Q62 671 83.5 695.5 Q105 720 140 720 Z M91 474 Q93 487 106 487 L176 487 Q189 487 190 473 L214 15 L214 13 Q214 2 201 2 L78 2 Q65 2 66 16 L91 474 Z " />
<glyph glyph-name="numbersign" unicode="&#x23;" horiz-adv-x="646" d="M612 516 Q625 516 625 502 L625 447 Q625 438 615 438 L494 438 L463 270 L590 270 Q599 270 599 260 L599 203 Q599 193 588 193 L448 193 L414 13 Q412 0 398 0 L337 0 Q329 0 330 10 L364 193 L217 193 L182 10 Q180 0 169 0 L110 0 Q97 0 100 14 L134 193 L44 193 Q31 193 31 207 L31 257 Q31 270 45 270 L148 270 L180 438 L67 438 Q57 438 57 449 L57 503 Q57 516 71 516 L195 516 L229 697 Q231 710 245 710 L306 710 Q314 710 313 700 L278 516 L425 516 L460 700 Q462 710 473 710 L533 710 Q546 710 543 696 L509 516 L612 516 Z M411 438 L263 438 L231 270 L379 270 L411 438 Z " />
<glyph glyph-name="period" unicode="&#x2e;" horiz-adv-x="264" d="M132 -8 Q97 -8 75.5 16.5 Q54 41 54 76 Q54 110 75.5 134.5 Q97 159 132 159 Q167 159 189 134.5 Q211 110 211 76 Q211 41 189 16.5 Q167 -8 132 -8 Z " />
<glyph glyph-name="question" unicode="&#x3f;" horiz-adv-x="487" d="M154 202 Q145 202 144 212 L138 345 L138 347 Q138 356 148 360 Q182 373 211 387.5 Q240 402 261 419 Q282 436 293.5 456.5 Q305 477 305 504 Q305 555 264 582.5 Q223 610 160 610 Q125 610 95.5 603.5 Q66 597 41 586 Q39 585 36 585 Q29 585 29 595 L29 675 Q29 688 42 694 Q72 706 111 713 Q150 720 195 720 Q253 720 299 705.5 Q345 691 377 665 Q409 639 426 603 Q443 567 443 523 Q443 477 426 442 Q409 407 381 380.5 Q353 354 318.5 335 Q284 316 249 301 L244 211 Q244 202 234 202 L154 202 Z M191 -8 Q156 -8 133 14 Q110 36 110 68 Q110 100 133 122 Q156 144 191 144 Q227 144 250 122 Q273 100 273 68 Q273 36 250 14 Q227 -8 191 -8 Z " />
<glyph glyph-name="questiondown" unicode="&#xbf;" horiz-adv-x="488" d="M297 720 Q332 720 355 698 Q378 676 378 644 Q378 612 355 590 Q332 568 297 568 Q261 568 238 590 Q215 612 215 644 Q215 676 238 698 Q261 720 297 720 Z M334 510 Q343 510 344 500 L350 367 L350 365 Q350 356 340 352 Q305 338 276.5 324 Q248 310 227 293 Q206 276 194.5 255.5 Q183 235 183 208 Q183 157 224 129.5 Q265 102 328 102 Q363 102 392.5 108.5 Q422 115 447 126 Q449 127 452 127 Q459 127 459 117 L459 37 Q459 24 446 18 Q416 6 377 -1 Q338 -8 293 -8 Q235 -8 189 6.5 Q143 21 111 47 Q79 73 62 109 Q45 145 45 189 Q45 235 62 270 Q79 305 107 331.5 Q135 358 169.5 377 Q204 396 239 411 L244 501 Q244 510 254 510 L334 510 Z " />
<glyph glyph-name="quotedbl" unicode="&#x22;" horiz-adv-x="459" d="M82 433 Q69 433 68 447 L46 697 L46 699 Q46 710 59 710 L169 710 Q182 710 181 696 L159 446 Q157 433 144 433 L82 433 Z M290 433 Q277 433 276 447 L254 697 L254 699 Q254 710 267 710 L377 710 Q390 710 389 696 L367 446 Q365 433 352 433 L290 433 Z " />
<glyph glyph-name="quotesingle" unicode="&#x27;" horiz-adv-x="239" d="M88 433 Q75 433 74 447 L52 697 L52 699 Q52 710 65 710 L175 710 Q188 710 187 696 L165 446 Q163 433 150 433 L88 433 L88 433 Z " />
<glyph glyph-name="semicolon" unicode="&#x3b;" horiz-adv-x="264" d="M132 282 Q97 282 75.5 306.5 Q54 331 54 366 Q54 400 75.5 424.5 Q97 449 132 449 Q167 449 189 424.5 Q211 400 211 366 Q211 331 189 306.5 Q167 282 132 282 Z M131 148 Q164 148 188 125 Q212 102 212 66 Q212 43 202.5 21.5 Q193 0 182 -26 L120 -157 Q115 -169 101 -169 L84 -169 Q66 -169 72 -152 L113 -10 Q87 -4 70.5 16.5 Q54 37 54 66 Q54 102 77.5 125 Q101 148 131 148 Z " />
<glyph glyph-name="slash" unicode="&#x2f;" horiz-adv-x="356" d="M-6 -123 Q-19 -123 -15 -110 L275 767 Q278 779 293 779 L360 779 Q373 779 369 766 L78 -111 Q75 -123 60 -123 L-6 -123 L-6 -123 Z " />
<glyph glyph-name="underscore" unicode="&#x5f;" horiz-adv-x="574" d="M77 -174 Q64 -174 64 -160 L64 -85 Q64 -72 78 -72 L496 -72 Q509 -72 509 -86 L509 -161 Q509 -174 495 -174 L77 -174 L77 -174 Z " />
<glyph glyph-name="braceleft" unicode="&#x7b;" horiz-adv-x="279" d="M211 642 Q184 642 168.5 627 Q153 612 153 587 Q153 567 163.5 540.5 Q174 514 186.5 486 Q199 458 209.5 429.5 Q220 401 220 376 Q220 342 197 312 Q174 282 126 275 Q174 268 197 238 Q220 208 220 174 Q220 149 209.5 120.5 Q199 92 186.5 64 Q174 36 163.5 9.5 Q153 -17 153 -37 Q153 -62 168.5 -77 Q184 -92 211 -92 Q225 -92 239 -89 L242 -89 Q252 -89 252 -100 L252 -141 Q252 -155 239 -159 Q228 -163 213 -165.5 Q198 -168 177 -168 Q144 -168 120.5 -158.5 Q97 -149 81.5 -133.5 Q66 -118 58.5 -98 Q51 -78 51 -57 Q51 -29 62 2 Q73 33 86.5 63 Q100 93 111 120.5 Q122 148 122 169 Q122 192 108.5 210.5 Q95 229 61 233 Q48 235 48 248 L48 303 Q48 316 62 317 Q95 322 108.5 340 Q122 358 122 381 Q122 402 111 429.5 Q100 457 86.5 487 Q73 517 62 547.5 Q51 578 51 607 Q51 628 58.5 648 Q66 668 81.5 683.5 Q97 699 120.5 708.5 Q144 718 177 718 Q199 718 214 715.5 Q229 713 240 709 Q252 704 252 690 L252 649 Q252 636 238 639 Q224 642 211 642 Z " />
<glyph glyph-name="braceright" unicode="&#x7d;" horiz-adv-x="279" d="M220 317 Q233 315 233 302 L233 247 Q233 234 219 233 Q186 228 172.5 210 Q159 192 159 169 Q159 148 170 120.5 Q181 93 194.5 63 Q208 33 219 2 Q230 -29 230 -57 Q230 -78 222.5 -98 Q215 -118 199.5 -133.5 Q184 -149 160.5 -158.5 Q137 -168 104 -168 Q82 -168 67 -165.5 Q52 -163 41 -159 Q29 -155 29 -140 L29 -99 Q29 -86 43 -89 Q56 -92 70 -92 Q97 -92 112.5 -77 Q128 -62 128 -37 Q128 -17 117.5 9.5 Q107 36 94.5 64 Q82 92 71.5 120.5 Q61 149 61 174 Q61 208 84 238 Q107 268 155 275 Q107 282 84 312 Q61 342 61 376 Q61 401 71.5 429.5 Q82 458 94.5 486 Q107 514 117.5 540.5 Q128 567 128 587 Q128 612 112.5 627 Q97 642 70 642 Q55 642 42 639 L39 639 Q29 639 29 650 L29 691 Q29 705 42 709 Q53 713 68 715.5 Q83 718 104 718 Q137 718 160.5 708.5 Q184 699 199.5 683.5 Q215 668 222.5 648 Q230 628 230 607 Q230 578 219 547.5 Q208 517 194.5 487 Q181 457 170 429.5 Q159 402 159 381 Q159 358 172.5 339.5 Q186 321 220 317 Z " />
<glyph glyph-name="bracketleft" unicode="&#x5b;" horiz-adv-x="317" d="M285 -148 Q285 -161 271 -161 L81 -161 Q68 -161 68 -147 L68 697 Q68 710 82 710 L268 710 Q281 710 281 696 L281 634 Q281 621 267 621 L171 621 L171 -71 L272 -71 Q285 -71 285 -85 L285 -148 L285 -148 Z " />
<glyph glyph-name="bracketright" unicode="&#x5d;" horiz-adv-x="317" d="M45 -161 Q32 -161 32 -147 L32 -84 Q32 -71 46 -71 L146 -71 L146 621 L49 621 Q36 621 36 635 L36 697 Q36 710 50 710 L236 710 Q249 710 249 696 L249 -148 Q249 -161 235 -161 L45 -161 L45 -161 Z " />
<glyph glyph-name="parenleft" unicode="&#x28;" horiz-adv-x="356" d="M333 -146 Q336 -149 336 -152 Q336 -156 327 -156 L248 -156 Q235 -156 225 -146 Q149 -65 104.5 42 Q60 149 60 277 Q60 405 104.5 512 Q149 619 226 701 Q235 710 249 710 L328 710 Q335 710 335 706 Q335 703 332 699 Q260 611 218 500 Q176 389 176 277 Q176 221 187 164.5 Q198 108 218 53.5 Q238 -1 267.5 -52 Q297 -103 333 -146 Z " />
<glyph glyph-name="parenright" unicode="&#x29;" horiz-adv-x="356" d="M28 -156 Q21 -156 21 -152 Q21 -150 24 -145 Q96 -57 138 54 Q180 165 180 277 Q180 333 169 389.5 Q158 446 138 500.5 Q118 555 88.5 605.5 Q59 656 23 700 Q20 703 20 706 Q20 710 29 710 L108 710 Q121 710 131 700 Q207 619 251.5 512 Q296 405 296 277 Q296 149 251.5 42 Q207 -65 130 -147 Q121 -156 107 -156 L28 -156 L28 -156 Z " />
<glyph glyph-name="emdash" unicode="&#x2014;" horiz-adv-x="931" d="M77 204 Q64 204 64 218 L64 292 Q64 305 78 305 L853 305 Q866 305 866 291 L866 217 Q866 204 852 204 L77 204 L77 204 Z " />
<glyph glyph-name="endash" unicode="&#x2013;" horiz-adv-x="574" d="M77 204 Q64 204 64 218 L64 293 Q64 306 78 306 L496 306 Q509 306 509 292 L509 217 Q509 204 495 204 L77 204 L77 204 Z " />
<glyph glyph-name="hyphen" unicode="&#x2d;" horiz-adv-x="440" d="M77 204 Q64 204 64 218 L64 293 Q64 306 78 306 L363 306 Q376 306 376 292 L376 217 Q376 204 362 204 L77 204 L77 204 Z " />
<glyph glyph-name="softhyphen" unicode="&#xad;" horiz-adv-x="440" d="M77 204 Q64 204 64 218 L64 293 Q64 306 78 306 L363 306 Q376 306 376 292 L376 217 Q376 204 362 204 L77 204 L77 204 Z " />
<glyph glyph-name="guillemetleft" unicode="&#xab;" horiz-adv-x="614" d="M257 34 Q254 29 249 29 Q244 29 240 35 L48 263 Q44 269 44 272 Q44 276 49 283 L239 495 Q244 500 248 500 Q253 500 258 495 L305 450 Q310 445 310 440 Q310 437 305 430 L184 273 L306 111 Q310 105 310 102 Q310 97 305 90 L257 34 Z M487 34 Q484 29 479 29 Q474 29 470 35 L278 263 Q274 269 274 272 Q274 276 279 283 L469 495 Q474 500 478 500 Q483 500 488 495 L535 450 Q540 445 540 440 Q540 437 535 430 L414 273 L536 111 Q540 105 540 102 Q540 97 535 90 L487 34 Z " />
<glyph glyph-name="guillemetright" unicode="&#xbb;" horiz-adv-x="614" d="M143 34 Q140 29 135 29 Q130 29 126 35 L78 91 Q74 95 74 101 Q74 107 78 112 L200 273 L78 431 Q74 437 74 440 Q74 445 80 451 L127 496 Q130 500 135 500 Q141 500 145 495 L335 283 Q340 278 340 273 Q340 269 335 262 L143 34 Z M373 34 Q370 29 365 29 Q360 29 356 35 L308 91 Q304 95 304 101 Q304 107 308 112 L430 273 L308 431 Q304 437 304 440 Q304 445 310 451 L357 496 Q360 500 365 500 Q371 500 375 495 L565 283 Q570 278 570 273 Q570 269 565 262 L373 34 Z " />
<glyph glyph-name="guilsinglleft" unicode="&#x2039;" horiz-adv-x="384" d="M257 34 Q254 29 249 29 Q244 29 240 35 L48 263 Q44 269 44 272 Q44 276 49 283 L239 495 Q244 500 248 500 Q253 500 258 495 L305 450 Q310 445 310 440 Q310 437 305 430 L184 273 L306 111 Q310 105 310 102 Q310 97 305 90 L257 34 L257 34 Z " />
<glyph glyph-name="guilsinglright" unicode="&#x203a;" horiz-adv-x="384" d="M143 34 Q140 29 135 29 Q130 29 126 35 L78 91 Q74 95 74 101 Q74 107 78 112 L200 273 L78 431 Q74 437 74 440 Q74 445 80 451 L127 496 Q130 500 135 500 Q141 500 145 495 L335 283 Q340 278 340 273 Q340 269 335 262 L143 34 L143 34 Z " />
<glyph glyph-name="quotedblbase" unicode="&#x201e;" horiz-adv-x="482" d="M132 158 Q166 158 190.5 134.5 Q215 111 215 73 Q215 49 205.5 26.5 Q196 4 184 -22 L120 -156 Q115 -169 101 -169 L83 -169 Q65 -169 71 -151 L114 -5 Q88 1 70.5 22.5 Q53 44 53 73 Q53 111 77 134.5 Q101 158 132 158 Z M345 158 Q379 158 403.5 134.5 Q428 111 428 73 Q428 49 418.5 26.5 Q409 4 397 -22 L333 -156 Q328 -169 314 -169 L296 -169 Q278 -169 284 -151 L327 -5 Q301 1 283.5 22.5 Q266 44 266 73 Q266 111 290 134.5 Q314 158 345 158 Z " />
<glyph glyph-name="quotedblleft" unicode="&#x201c;" horiz-adv-x="487" d="M140 546 Q166 540 183.5 518.5 Q201 497 201 468 Q201 430 177 406.5 Q153 383 122 383 Q88 383 63.5 406.5 Q39 430 39 468 Q39 492 48.5 514.5 Q58 537 70 563 L134 697 Q139 710 153 710 L171 710 Q189 710 183 692 L140 546 L140 546 Z M353 546 Q379 540 396.5 518.5 Q414 497 414 468 Q414 430 390 406.5 Q366 383 335 383 Q301 383 276.5 406.5 Q252 430 252 468 Q252 492 261.5 514.5 Q271 537 283 563 L347 697 Q352 710 366 710 L384 710 Q402 710 396 692 L353 546 L353 546 Z " />
<glyph glyph-name="quotedblright" unicode="&#x201d;" horiz-adv-x="487" d="M155 720 Q189 720 213.5 696.5 Q238 673 238 635 Q238 611 228.5 588.5 Q219 566 207 540 L143 406 Q138 393 124 393 L106 393 Q88 393 94 411 L137 557 Q111 563 93.5 584.5 Q76 606 76 635 Q76 673 100 696.5 Q124 720 155 720 Z M368 720 Q402 720 426.5 696.5 Q451 673 451 635 Q451 611 441.5 588.5 Q432 566 420 540 L356 406 Q351 393 337 393 L319 393 Q301 393 307 411 L350 557 Q324 563 306.5 584.5 Q289 606 289 635 Q289 673 313 696.5 Q337 720 368 720 Z " />
<glyph glyph-name="quoteleft" unicode="&#x2018;" horiz-adv-x="274" d="M140 556 Q166 550 183.5 528.5 Q201 507 201 478 Q201 440 177 416.5 Q153 393 122 393 Q88 393 63.5 416.5 Q39 440 39 478 Q39 502 48.5 524.5 Q58 547 70 573 L134 707 Q139 720 153 720 L171 720 Q189 720 183 702 L140 556 L140 556 Z " />
<glyph glyph-name="quoteright" unicode="&#x2019;" horiz-adv-x="274" d="M153 719 Q187 719 211.5 695.5 Q236 672 236 634 Q236 610 226.5 587.5 Q217 565 205 539 L141 405 Q136 392 122 392 L104 392 Q86 392 92 410 L135 556 Q109 562 91.5 583.5 Q74 605 74 634 Q74 672 98 695.5 Q122 719 153 719 Z " />
<glyph glyph-name="quotesinglbase" unicode="&#x201a;" horiz-adv-x="269" d="M133 158 Q167 158 191.5 134.5 Q216 111 216 73 Q216 49 206.5 26.5 Q197 4 185 -22 L121 -156 Q116 -169 102 -169 L84 -169 Q66 -169 72 -151 L115 -5 Q89 1 71.5 22.5 Q54 44 54 73 Q54 111 78 134.5 Q102 158 133 158 Z " />
<glyph glyph-name="emspace" unicode="&#x2003;" horiz-adv-x="1000" d="" />
<glyph glyph-name="enspace" unicode="&#x2002;" horiz-adv-x="500" d="" />
<glyph glyph-name="fourperemspace" unicode="&#x2005;" horiz-adv-x="250" d="" />
<glyph glyph-name="hairspace" unicode="&#x200a;" horiz-adv-x="65" d="" />
<glyph glyph-name="Acircumflex" unicode="&#xc2;" horiz-adv-x="705" d="M664 12 Q665 10 665 7 Q665 0 655 0 L522 0 Q510 0 504 13 Q493 45 481.5 76.5 Q470 108 458 140 L204 140 Q193 108 181 76 Q169 44 157 12 Q154 0 139 0 L16 0 Q2 0 8 13 L281 699 Q286 711 300 711 L375 711 Q387 711 393 698 L664 12 Z M419 254 Q397 316 376 381 Q355 446 333 518 Q288 376 245 254 L419 254 Z M496 766 Q502 757 492 757 L429 757 Q418 757 410 765 L337 840 L266 765 Q258 757 247 757 L181 757 Q171 757 177 766 L282 899 Q289 908 300 908 L374 908 Q386 908 392 899 L496 766 L496 766 Z " />
<glyph glyph-name="nbspace" unicode="&#xa0;" horiz-adv-x="206" d="" />
<glyph glyph-name="thinspace" unicode="&#x2009;" horiz-adv-x="103" d="" />
<glyph glyph-name="threeperemspace" unicode="&#x2004;" horiz-adv-x="476" d="" />
<glyph glyph-name="cent" unicode="&#xa2;" horiz-adv-x="472" d="M413 238 Q418 240 421.5 241 Q425 242 428 242 Q441 242 441 220 L441 145 Q441 134 432 130 Q412 122 383.5 115.5 Q355 109 320 107 L310 -16 Q308 -30 295 -30 L247 -30 Q235 -30 236 -16 L247 111 Q205 118 167 138 Q129 158 100.5 189.5 Q72 221 55 263 Q38 305 38 357 Q38 411 56 455 Q74 499 105.5 531 Q137 563 179 581.5 Q221 600 268 605 L278 726 Q278 740 292 740 L340 740 Q352 740 352 726 L341 604 Q394 598 426 584 Q435 581 435 569 L435 494 Q435 472 420 472 Q413 472 406 475 Q388 481 366.5 484.5 Q345 488 322 488 Q292 488 265.5 479 Q239 470 219.5 452.5 Q200 435 188.5 410.5 Q177 386 177 356 Q177 324 188.5 299 Q200 274 220 257 Q240 240 267 231 Q294 222 324 222 Q348 222 370.5 226 Q393 230 413 238 Z " />
<glyph glyph-name="currency" unicode="&#xa4;" horiz-adv-x="585" d="M567 130 Q571 127 571 122 Q571 116 566 111 L528 74 Q524 70 519 70 Q516 70 509 75 L417 171 Q391 152 359 142 Q327 132 290 132 Q253 132 220.5 142.5 Q188 153 162 171 L69 73 Q63 69 60 69 Q57 69 50 74 L13 113 Q9 116 9 121 Q9 127 14 132 L107 230 Q71 286 71 356 Q71 394 81 427 Q91 460 109 487 L13 589 Q9 592 9 597 Q9 603 14 608 L52 646 Q56 650 61 650 Q67 650 71 645 L166 544 Q192 561 223.5 570.5 Q255 580 290 580 Q360 580 413 544 L510 647 Q514 651 519 651 Q525 651 529 646 L567 607 Q571 604 571 598 Q571 593 566 588 L470 487 Q488 460 498 427 Q508 394 508 356 Q508 321 499 289 Q490 257 473 230 L567 130 Z M290 231 Q315 231 336.5 240.5 Q358 250 374 266.5 Q390 283 398.5 306 Q407 329 407 356 Q407 384 398.5 407 Q390 430 374 446.5 Q358 463 336.5 472.5 Q315 482 290 482 Q264 482 242.5 472.5 Q221 463 205.5 446 Q190 429 181.5 406 Q173 383 173 356 Q173 302 205 266.5 Q237 231 290 231 Z " />
<glyph glyph-name="dollar" unicode="&#x24;" horiz-adv-x="585" d="M523 221 Q523 174 506.5 136 Q490 98 460 70.5 Q430 43 387.5 27 Q345 11 293 8 L278 -120 Q276 -133 262 -133 L211 -133 Q197 -133 200 -119 L215 11 Q177 15 142 24.5 Q107 34 79 48 Q68 53 68 68 L68 160 Q68 173 77 173 Q80 173 84 171 Q123 149 169 135.5 Q215 122 260 122 Q308 122 341 144 Q374 166 374 210 Q374 230 365.5 245 Q357 260 341 271.5 Q325 283 302 292.5 Q279 302 251 312 Q219 324 186.5 339 Q154 354 127.5 375.5 Q101 397 84 428 Q67 459 67 504 Q67 547 83.5 582 Q100 617 129 642 Q158 667 197.5 682 Q237 697 283 700 L297 819 Q299 832 313 832 L365 832 Q379 832 376 818 L361 698 Q425 692 479 672 Q491 667 491 653 L491 564 Q491 551 481 551 Q477 551 475 552 Q440 569 399 578.5 Q358 588 322 588 Q274 588 245.5 567 Q217 546 217 512 Q217 491 227 477 Q237 463 254 452 Q271 441 293.5 432 Q316 423 341 414 Q380 399 413.5 382.5 Q447 366 471.5 344.5 Q496 323 509.5 293 Q523 263 523 221 Z " />
<glyph glyph-name="euro" unicode="&#x20ac;" horiz-adv-x="585" d="M532 143 Q534 144 538 144 Q543 144 543 135 L543 37 Q543 24 530 18 Q502 6 465 -1.5 Q428 -9 383 -9 Q330 -9 282.5 8 Q235 25 195.5 57 Q156 89 127.5 136 Q99 183 84 242 L27 242 Q14 242 14 256 L14 310 Q14 323 28 323 L71 323 Q70 331 70 339.5 Q70 348 70 357 Q70 365 70 372.5 Q70 380 71 388 L27 388 Q14 388 14 402 L14 458 Q14 471 28 471 L84 471 Q99 530 128.5 576 Q158 622 198.5 654 Q239 686 288.5 703 Q338 720 392 720 Q430 720 464 713.5 Q498 707 521 699 Q533 694 533 680 L533 582 Q533 571 521 576 Q501 585 472.5 591 Q444 597 412 597 Q347 597 298 564 Q249 531 224 471 L504 471 Q517 471 517 457 L517 401 Q517 388 503 388 L204 388 Q203 380 203 373 Q203 366 203 358 Q203 349 203.5 340 Q204 331 205 323 L504 323 Q517 323 517 309 L517 255 Q517 242 503 242 L223 242 Q248 179 298 147 Q348 115 412 115 Q447 115 477.5 123 Q508 131 532 143 Z " />
<glyph glyph-name="florin" unicode="&#x192;" horiz-adv-x="515" d="M486 742 Q498 739 498 724 L498 660 Q498 638 481 638 Q478 638 475 638.5 Q472 639 468 640 Q460 642 450.5 643 Q441 644 430 644 Q395 644 375 622 Q355 600 347 553 L335 480 L457 480 Q470 480 470 466 L470 394 Q470 381 456 381 L319 381 L256 1 Q241 -100 197.5 -146 Q154 -192 73 -192 Q16 -192 -20 -180 Q-32 -177 -32 -162 L-32 -79 Q-32 -67 -19 -71 Q3 -79 34 -79 Q102 -79 117 12 L178 381 L85 381 Q72 381 72 395 L72 467 Q72 480 86 480 L194 480 L208 564 Q222 665 266 711 Q310 757 391 757 Q419 757 443 752.5 Q467 748 486 742 Z " />
<glyph glyph-name="sterling" unicode="&#xa3;" horiz-adv-x="585" d="M512 699 Q524 694 524 680 L524 592 Q524 580 512 585 Q469 605 418 605 Q367 605 337 574 Q307 543 301 486 L294 417 L464 417 Q477 417 477 403 L477 327 Q477 314 463 314 L283 314 L262 115 L497 115 Q510 115 510 101 L510 13 Q510 0 496 0 L70 0 Q57 0 57 14 L57 102 Q57 115 71 115 L124 115 L145 314 L83 314 Q70 314 70 328 L70 404 Q70 417 84 417 L156 417 L165 500 Q175 609 234 664.5 Q293 720 389 720 Q424 720 455.5 714.5 Q487 709 512 699 Z " />
<glyph glyph-name="yen" unicode="&#xa5;" horiz-adv-x="624" d="M599 711 Q620 711 620 699 Q620 692 614 683 L417 339 L515 339 Q528 339 528 325 L528 250 Q528 237 514 237 L385 237 L385 13 Q385 0 371 0 L252 0 Q239 0 239 14 L239 237 L113 237 Q100 237 100 251 L100 326 Q100 339 114 339 L207 339 L8 684 Q3 694 3 699 Q3 711 25 711 L140 711 Q152 711 160 699 L318 405 L472 699 Q478 711 492 711 L599 711 L599 711 Z " />
<glyph glyph-name="plus" unicode="&#x2b;" horiz-adv-x="582" d="M532 354 Q545 354 545 340 L545 265 Q545 252 531 252 L340 252 L340 56 Q340 43 326 43 L255 43 Q242 43 242 57 L242 252 L50 252 Q37 252 37 266 L37 341 Q37 354 51 354 L242 354 L242 550 Q242 563 256 563 L327 563 Q340 563 340 549 L340 354 L532 354 L532 354 Z " />
<glyph glyph-name="minus" unicode="&#x2212;" horiz-adv-x="582" d="M50 252 Q37 252 37 266 L37 341 Q37 354 51 354 L532 354 Q545 354 545 340 L545 265 Q545 252 531 252 L50 252 L50 252 Z " />
<glyph glyph-name="multiply" unicode="&#xd7;" horiz-adv-x="582" d="M531 131 Q535 128 535 122 Q535 117 530 112 L481 59 Q476 54 472 54 Q467 54 462 59 L290 231 L118 58 Q114 54 109 54 Q106 54 99 59 L50 112 Q46 116 46 121 Q46 127 51 132 L220 301 L50 472 Q46 476 46 481 Q46 487 50 491 L100 545 Q105 550 109 550 Q114 550 119 545 L291 372 L463 545 Q467 549 472 549 Q478 549 482 544 L532 491 Q536 488 536 483 Q536 477 531 472 L361 302 L531 131 Z " />
<glyph glyph-name="divide" unicode="&#xf7;" horiz-adv-x="582" d="M287 451 Q255 451 235.5 472.5 Q216 494 216 526 Q216 557 235.5 579 Q255 601 287 601 Q318 601 338 579 Q358 557 358 526 Q358 494 338 472.5 Q318 451 287 451 Z M50 254 Q37 254 37 268 L37 343 Q37 356 51 356 L532 356 Q545 356 545 342 L545 267 Q545 254 531 254 L50 254 Z M287 18 Q255 18 235.5 39.5 Q216 61 216 93 Q216 124 235.5 146 Q255 168 287 168 Q318 168 338 146 Q358 124 358 93 Q358 61 338 39.5 Q318 18 287 18 Z " />
<glyph glyph-name="equal" unicode="&#x3d;" horiz-adv-x="582" d="M50 353 Q37 353 37 367 L37 442 Q37 455 51 455 L532 455 Q545 455 545 441 L545 366 Q545 353 531 353 L50 353 Z M50 145 Q37 145 37 159 L37 234 Q37 247 51 247 L532 247 Q545 247 545 233 L545 158 Q545 145 531 145 L50 145 Z " />
<glyph glyph-name="notequal" unicode="&#x2260;" horiz-adv-x="582" d="M337 353 L283 247 L532 247 Q545 247 545 233 L545 158 Q545 145 531 145 L231 145 L186 55 Q180 43 166 43 L130 43 Q117 43 123 55 L169 145 L50 145 Q37 145 37 159 L37 234 Q37 247 51 247 L220 247 L274 353 L50 353 Q37 353 37 367 L37 442 Q37 455 51 455 L325 455 L374 551 Q380 563 394 563 L429 563 Q442 563 436 550 L388 455 L532 455 Q545 455 545 441 L545 366 Q545 353 531 353 L337 353 Z " />
<glyph glyph-name="greater" unicode="&#x3e;" horiz-adv-x="582" d="M65 5 Q59 3 59 3 Q53 3 53 13 L53 114 Q53 127 66 133 L382 283 L65 434 Q53 441 53 454 L53 553 Q53 566 66 560 L549 320 Q561 314 561 300 L561 265 Q561 252 548 246 L65 5 L65 5 Z " />
<glyph glyph-name="less" unicode="&#x3c;" horiz-adv-x="582" d="M545 12 Q545 -1 532 5 L49 246 Q37 252 37 266 L37 301 Q37 314 50 320 L533 560 Q539 562 539 562 Q545 562 545 552 L545 453 Q545 440 532 434 L216 283 L533 133 Q545 126 545 113 L545 12 L545 12 Z " />
<glyph glyph-name="greaterequal" unicode="&#x2265;" horiz-adv-x="582" d="M49 144 Q43 142 43 142 Q37 142 37 152 L37 253 Q37 266 50 272 L354 416 Q360 419 360 422 Q360 425 353 428 L49 573 Q37 580 37 593 L37 692 Q37 705 50 699 L545 453 L545 404 Q545 391 532 385 L49 144 Z M50 1 Q37 1 37 15 L37 90 Q37 103 51 103 L532 103 Q545 103 545 89 L545 14 Q545 1 531 1 L50 1 Z " />
<glyph glyph-name="lessequal" unicode="&#x2264;" horiz-adv-x="582" d="M546 151 Q546 138 533 144 L50 385 Q38 391 38 405 L38 453 L534 699 Q540 701 540 701 Q546 701 546 691 L546 592 Q546 579 533 573 L229 428 Q224 425 224 422 Q224 419 230 416 L534 272 Q546 265 546 252 L546 151 Z M546 14 Q546 1 532 1 L51 1 Q38 1 38 15 L38 90 Q38 103 52 103 L533 103 Q546 103 546 89 L546 14 Z " />
<glyph glyph-name="plusminus" unicode="&#xb1;" horiz-adv-x="582" d="M66 349 Q53 349 53 363 L53 438 Q53 451 67 451 L229 451 L229 582 Q229 595 243 595 L312 595 Q325 595 325 581 L325 451 L488 451 Q501 451 501 437 L501 362 Q501 349 487 349 L325 349 L325 219 Q325 206 311 206 L242 206 Q229 206 229 220 L229 349 L66 349 Z M532 143 Q545 143 545 129 L545 54 Q545 41 531 41 L50 41 Q37 41 37 55 L37 130 Q37 143 51 143 L532 143 Z " />
<glyph glyph-name="approxequal" unicode="&#x2248;" horiz-adv-x="600" d="M379 345 Q344 345 319 360.5 Q294 376 271 395 Q252 410 233.5 422.5 Q215 435 192 435 Q164 435 148 415.5 Q132 396 128 361 Q126 348 113 348 L58 348 Q45 348 45 362 Q47 399 56 431.5 Q65 464 82 488 Q99 512 123 526 Q147 540 179 540 Q217 540 244 523.5 Q271 507 294 488 Q312 472 329.5 460.5 Q347 449 368 449 Q394 449 407 469 Q420 489 423 520 Q425 533 438 533 L495 533 Q508 533 508 519 Q505 440 470 392.5 Q435 345 379 345 Z M379 122 Q344 122 319 137.5 Q294 153 271 172 Q252 187 233.5 199.5 Q215 212 192 212 Q164 212 148 192.5 Q132 173 128 138 Q126 125 113 125 L58 125 Q45 125 45 139 Q47 176 56 208.5 Q65 241 82 265 Q99 289 123 303 Q147 317 179 317 Q217 317 244 300.5 Q271 284 294 265 Q312 249 329.5 237.5 Q347 226 368 226 Q394 226 407 246 Q420 266 423 297 Q425 310 438 310 L495 310 Q508 310 508 296 Q505 217 470 169.5 Q435 122 379 122 Z " />
<glyph glyph-name="asciitilde" unicode="&#x7e;" horiz-adv-x="582" d="M379 214 Q344 214 319 229.5 Q294 245 271 264 Q252 279 233.5 291.5 Q215 304 192 304 Q164 304 148 284.5 Q132 265 128 230 Q126 217 113 217 L58 217 Q45 217 45 231 Q47 268 56 300.5 Q65 333 82 357 Q99 381 123 395 Q147 409 179 409 Q217 409 244 392.5 Q271 376 294 357 Q312 341 329.5 329.5 Q347 318 368 318 Q394 318 407 338 Q420 358 423 389 Q425 402 438 402 L495 402 Q508 402 508 388 Q505 309 470 261.5 Q435 214 379 214 Z " />
<glyph glyph-name="logicalnot" unicode="&#xac;" horiz-adv-x="582" d="M488 409 Q501 409 501 395 L501 153 Q501 140 487 140 L411 140 Q398 140 398 154 L398 308 L66 308 Q53 308 53 322 L53 396 Q53 409 67 409 L488 409 L488 409 Z " />
<glyph glyph-name="infinity" unicode="&#x221e;" horiz-adv-x="930" d="M677 512 Q718 512 754.5 496.5 Q791 481 818 452.5 Q845 424 860.5 384 Q876 344 876 296 Q876 248 860.5 208 Q845 168 818 140 Q791 112 755 96.5 Q719 81 678 81 Q643 81 613 92.5 Q583 104 556.5 123 Q530 142 508 165.5 Q486 189 468 213 Q422 155 370.5 118 Q319 81 257 81 Q215 81 178 97 Q141 113 113.5 141.5 Q86 170 70 208.5 Q54 247 54 292 Q54 338 70.5 378 Q87 418 115 448 Q143 478 180.5 495 Q218 512 260 512 Q293 512 321 500 Q349 488 373.5 469 Q398 450 419 425.5 Q440 401 458 376 Q479 403 501.5 427.5 Q524 452 550.5 471 Q577 490 608 501 Q639 512 677 512 Z M254 185 Q290 185 325.5 214 Q361 243 399 295 Q359 349 325.5 378.5 Q292 408 255 408 Q237 408 219.5 399.5 Q202 391 188.5 376 Q175 361 167 340.5 Q159 320 159 296 Q159 272 167 251.5 Q175 231 188 216.5 Q201 202 218.5 193.5 Q236 185 254 185 Z M679 185 Q717 185 744 213.5 Q771 242 771 293 Q771 319 763 340.5 Q755 362 742 377 Q729 392 711.5 400 Q694 408 675 408 Q654 408 634 398.5 Q614 389 595.5 372.5 Q577 356 559 335 Q541 314 524 290 Q564 242 600.5 213.5 Q637 185 679 185 Z " />
<glyph glyph-name="integral" unicode="&#x222b;" horiz-adv-x="519" d="M73 -210 Q16 -210 -20 -198 Q-32 -195 -32 -180 L-32 -96 Q-32 -84 -19 -88 Q3 -96 34 -96 Q102 -96 117 -5 L212 564 Q227 665 270.5 711 Q314 757 395 757 Q423 757 447 752.5 Q471 748 490 742 Q502 739 502 724 L502 660 Q502 638 485 638 Q482 638 479 638.5 Q476 639 472 640 Q464 642 454.5 643 Q445 644 434 644 Q399 644 379.5 622 Q360 600 352 553 L256 -16 Q241 -117 197.5 -163.5 Q154 -210 73 -210 Z " />
<glyph glyph-name="product" unicode="&#x220f;" horiz-adv-x="779" d="M697 710 Q710 710 710 696 L710 612 Q710 599 696 599 L606 599 L606 -112 Q606 -125 592 -125 L471 -125 Q458 -125 458 -111 L458 599 L290 599 L290 -112 Q290 -125 276 -125 L163 -125 Q150 -125 150 -111 L150 599 L53 599 Q52 599 52 600 L52 697 Q52 710 66 710 L697 710 L697 710 Z " />
<glyph glyph-name="summation" unicode="&#x2211;" horiz-adv-x="564" d="M504 -17 Q517 -17 517 -31 L517 -113 Q517 -126 503 -126 L60 -126 Q47 -126 47 -112 L47 -63 Q47 -51 56 -39 L333 296 L54 626 Q47 635 47 645 L47 697 Q47 710 61 710 L499 710 Q512 710 512 696 L512 614 Q512 601 498 601 L223 601 L462 320 Q472 307 472 296 Q472 285 461 271 L220 -17 L504 -17 L504 -17 Z " />
<glyph glyph-name="radical" unicode="&#x221a;" horiz-adv-x="655" d="M612 710 Q626 710 620 697 L304 -118 Q299 -130 285 -130 L239 -130 Q226 -130 220 -117 L15 306 Q11 316 11 320 Q11 334 34 334 L113 334 Q126 334 132 321 L261 33 L503 700 Q506 712 521 712 L612 710 L612 710 Z " />
<glyph glyph-name="micro" unicode="&#xb5;" horiz-adv-x="587" d="M514 480 Q527 480 527 466 L527 13 Q527 0 513 0 L421 0 Q408 0 407 14 L403 71 L398 72 Q363 -9 280 -9 Q251 -9 227.5 -0.5 Q204 8 188 27 L202 -169 L202 -171 Q202 -182 189 -182 L72 -182 Q59 -182 60 -168 L73 49 L63 467 Q63 480 77 480 L190 480 Q203 480 203 466 L203 189 Q203 136 226 114.5 Q249 93 288 93 Q336 93 361.5 126 Q387 159 387 215 L387 467 Q387 480 401 480 L514 480 L514 480 Z " />
<glyph glyph-name="partialdiff" unicode="&#x2202;" horiz-adv-x="583" d="M209 720 Q294 720 356.5 693 Q419 666 459 616.5 Q499 567 518.5 498 Q538 429 538 346 Q538 266 520.5 201 Q503 136 469 89 Q435 42 386.5 16.5 Q338 -9 277 -9 Q231 -9 189 7 Q147 23 114.5 53 Q82 83 63 127 Q44 171 44 227 Q44 280 62.5 323.5 Q81 367 113 397.5 Q145 428 189 445 Q233 462 284 462 Q317 462 351 455 Q385 448 413 434 Q378 615 203 615 Q156 615 112 604 Q110 604 109.5 603.5 Q109 603 108 603 Q100 603 100 614 L100 693 Q100 706 114 709 Q136 714 159.5 717 Q183 720 209 720 Z M282 104 Q349 104 385 163 Q421 222 422 331 Q400 345 370 353.5 Q340 362 311 362 Q278 362 251.5 351.5 Q225 341 206 323 Q187 305 176.5 280 Q166 255 166 226 Q166 199 175 176.5 Q184 154 199.5 138 Q215 122 236 113 Q257 104 282 104 Z " />
<glyph glyph-name="percent" unicode="&#x25;" horiz-adv-x="747" d="M104 -3 Q97 0 97 6 Q97 8 101 16 L592 722 Q595 729 601 729 Q603 729 611 725 L630 713 Q637 709 637 704 Q637 702 633 694 L142 -14 Q138 -21 133 -21 Q131 -21 123 -17 L104 -3 Z M193 405 Q165 405 140 416 Q115 427 96 447.5 Q77 468 65.5 497 Q54 526 54 562 Q54 598 65.5 627.5 Q77 657 96 677.5 Q115 698 140 709 Q165 720 193 720 Q221 720 246 709 Q271 698 290 677.5 Q309 657 320.5 627.5 Q332 598 332 562 Q332 526 320.5 497 Q309 468 290 447.5 Q271 427 246 416 Q221 405 193 405 Z M193 476 Q220 476 236 500 Q252 524 252 562 Q252 601 236 625 Q220 649 193 649 Q166 649 149.5 625 Q133 601 133 562 Q133 524 149.5 500 Q166 476 193 476 Z M554 -10 Q526 -10 501 1 Q476 12 457 32.5 Q438 53 426.5 82 Q415 111 415 147 Q415 183 426.5 212.5 Q438 242 457 262.5 Q476 283 501 294 Q526 305 554 305 Q582 305 607 294 Q632 283 651 262 Q670 241 681 212 Q692 183 692 147 Q692 111 681 82 Q670 53 651 32.5 Q632 12 607 1 Q582 -10 554 -10 Z M554 61 Q581 61 597 85 Q613 109 613 147 Q613 185 597 209.5 Q581 234 554 234 Q527 234 510.5 210 Q494 186 494 147 Q494 109 510.5 85 Q527 61 554 61 Z " />
<glyph glyph-name="perthousand" unicode="&#x2030;" horiz-adv-x="1058" d="M106 -3 Q99 0 99 6 Q99 8 103 16 L594 722 Q597 729 603 729 Q605 729 613 725 L632 713 Q639 709 639 704 Q639 702 635 694 L144 -14 Q140 -21 135 -21 Q133 -21 125 -17 L106 -3 Z M193 405 Q165 405 140 416 Q115 427 96 447.5 Q77 468 65.5 497 Q54 526 54 562 Q54 598 65.5 627.5 Q77 657 96 677.5 Q115 698 140 709 Q165 720 193 720 Q221 720 246 709 Q271 698 290 677.5 Q309 657 320.5 627.5 Q332 598 332 562 Q332 526 320.5 497 Q309 468 290 447.5 Q271 427 246 416 Q221 405 193 405 Z M193 476 Q220 476 236 500 Q252 524 252 562 Q252 601 236 625 Q220 649 193 649 Q166 649 149.5 625 Q133 601 133 562 Q133 524 149.5 500 Q166 476 193 476 Z M544 -10 Q516 -10 491 1 Q466 12 447 32.5 Q428 53 416.5 82 Q405 111 405 147 Q405 183 416.5 212.5 Q428 242 447 262.5 Q466 283 491 294 Q516 305 544 305 Q572 305 597 294 Q622 283 641 262 Q660 241 671 212 Q682 183 682 147 Q682 111 671 82 Q660 53 641 32.5 Q622 12 597 1 Q572 -10 544 -10 Z M865 -10 Q837 -10 812 1 Q787 12 768 32.5 Q749 53 737.5 82 Q726 111 726 147 Q726 183 737.5 212.5 Q749 242 768 262.5 Q787 283 812 294 Q837 305 865 305 Q893 305 918 294 Q943 283 962 262 Q981 241 992 212 Q1003 183 1003 147 Q1003 111 992 82 Q981 53 962 32.5 Q943 12 918 1 Q893 -10 865 -10 Z M544 61 Q571 61 587 85 Q603 109 603 147 Q603 185 587 209.5 Q571 234 544 234 Q517 234 500.5 210 Q484 186 484 147 Q484 109 500.5 85 Q517 61 544 61 Z M865 61 Q892 61 908 85 Q924 109 924 147 Q924 185 908 209.5 Q892 234 865 234 Q838 234 821.5 210 Q805 186 805 147 Q805 109 821.5 85 Q838 61 865 61 Z " />
<glyph glyph-name="lozenge" unicode="&#x25ca;" horiz-adv-x="582" d="M281 -49 Q268 -49 261 -37 L48 340 Q45 344 45 350 Q45 356 49 363 L262 740 Q268 751 282 751 L304 751 Q317 751 324 739 L534 362 Q537 357 537 352 Q537 346 533 339 L323 -38 Q317 -49 303 -49 L281 -49 Z M443 351 L293 619 L138 351 L293 83 L443 351 Z " />
<glyph glyph-name="apple" unicode="&#xf8ff;" horiz-adv-x="999" d="M499 -140 Q430 -140 366.5 -122 Q303 -104 247.5 -71.5 Q192 -39 146.5 6.5 Q101 52 68.5 107.5 Q36 163 18 227 Q0 291 0 360 Q0 463 39.5 554 Q79 645 146.5 712.5 Q214 780 305 819.5 Q396 859 499 859 Q602 859 693 819.5 Q784 780 852 712.5 Q920 645 959.5 554 Q999 463 999 360 Q999 256 959.5 165 Q920 74 852 6.5 Q784 -61 693 -100.5 Q602 -140 499 -140 Z M499 109 Q585 109 671.5 112 Q758 115 840 124 Q864 126 876.5 134.5 Q889 143 892 168 Q896 216 896.5 263.5 Q897 311 897 360 Q897 408 896.5 455.5 Q896 503 892 551 Q889 576 876.5 584.5 Q864 593 840 595 Q758 604 671.5 607 Q585 610 499 610 Q413 610 326.5 607 Q240 604 157 595 Q134 593 121.5 584.5 Q109 576 106 551 Q101 503 100.5 455.5 Q100 408 100 360 Q100 311 100.5 263.5 Q101 216 106 168 Q109 143 121.5 134.5 Q134 126 157 124 Q240 115 326.5 112 Q413 109 499 109 Z M499 157 Q456 157 419 173 Q382 189 355 217 Q328 245 312.5 281.5 Q297 318 297 360 Q297 401 312.5 438 Q328 475 355 502.5 Q382 530 419 546 Q456 562 499 562 Q542 562 579 546 Q616 530 643 502.5 Q670 475 685.5 438 Q701 401 701 360 Q701 318 685.5 281.5 Q670 245 643 217 Q616 189 579 173 Q542 157 499 157 Z " />
<glyph glyph-name="at" unicode="&#x40;" horiz-adv-x="880" d="M627 431 Q640 431 640 417 L640 159 Q640 101 687 101 Q728 101 753.5 147 Q779 193 779 272 Q779 338 754.5 395 Q730 452 686 494 Q642 536 582 559.5 Q522 583 451 583 Q375 583 311 556.5 Q247 530 200.5 483.5 Q154 437 128 374.5 Q102 312 102 240 Q102 169 129.5 105.5 Q157 42 206 -5.5 Q255 -53 322 -80.5 Q389 -108 468 -108 Q517 -108 567.5 -97.5 Q618 -87 658 -66 Q687 -57 696.5 -51 Q706 -45 711 -45 Q718 -45 718 -56 L718 -90 Q718 -103 706 -110 Q653 -139 590.5 -152 Q528 -165 469 -165 Q378 -165 300 -133.5 Q222 -102 164.5 -47 Q107 8 74.5 82 Q42 156 42 240 Q42 325 73.5 398 Q105 471 159.5 524.5 Q214 578 289 608 Q364 638 451 638 Q533 638 604 610 Q675 582 727 533 Q779 484 808.5 417 Q838 350 838 272 Q838 219 826 175.5 Q814 132 791.5 101 Q769 70 737.5 53.5 Q706 37 667 37 Q621 37 589 58.5 Q557 80 547 118 Q524 78 488.5 60 Q453 42 412 42 Q379 42 346.5 56.5 Q314 71 289 97.5 Q264 124 248.5 160.5 Q233 197 233 242 Q233 285 248 321.5 Q263 358 288 383.5 Q313 409 345.5 423.5 Q378 438 412 438 Q453 438 486 421.5 Q519 405 541 370 L542 418 Q542 431 556 431 L627 431 Z M441 131 Q481 131 511 159.5 Q541 188 541 240 Q541 291 511.5 319.5 Q482 348 441 348 Q398 348 367.5 319.5 Q337 291 337 240 Q337 214 345.5 194 Q354 174 368.5 160 Q383 146 402 138.5 Q421 131 441 131 Z " />
<glyph glyph-name="ampersand" unicode="&#x26;" horiz-adv-x="690" d="M659 10 Q663 6 663 4 Q663 0 654 0 L522 0 Q509 0 500 10 L470 44 Q393 -10 292 -10 Q238 -10 191 3.5 Q144 17 109 43 Q74 69 54 107 Q34 145 34 194 Q34 257 69 306.5 Q104 356 170 384 Q140 422 124.5 456.5 Q109 491 109 533 Q109 575 125.5 610 Q142 645 171 669.5 Q200 694 239 707.5 Q278 721 324 721 Q357 721 388 716.5 Q419 712 445 704 Q458 701 458 687 L458 595 Q458 583 446 588 Q426 597 402 602 Q378 607 354 607 Q309 607 278 582.5 Q247 558 247 517 Q247 479 275 442.5 Q303 406 348 357 L473 218 Q501 276 501 345 Q502 365 499 391 L499 394 Q499 404 511 404 L603 404 Q617 404 617 390 Q618 381 618.5 371.5 Q619 362 619 353 Q618 287 601 230.5 Q584 174 553 128 L659 10 Z M170 208 Q170 161 206.5 132.5 Q243 104 300 104 Q352 104 395 130 L248 301 L237 312 Q170 278 170 208 Z " />
<glyph glyph-name="paragraph" unicode="&#xb6;" horiz-adv-x="620" d="M400 710 Q413 710 413 696 L413 62 Q413 -1 397 -60 Q381 -119 350 -171 Q344 -182 329 -182 L283 -182 Q275 -182 275 -178 Q275 -175 278 -170 Q345 -65 345 62 L345 247 L324 247 Q271 247 224.5 263 Q178 279 143.5 309 Q109 339 89 382 Q69 425 69 478 Q69 532 89 575 Q109 618 143.5 648 Q178 678 224.5 694 Q271 710 324 710 L400 710 Z M526 710 Q539 710 539 696 L539 228 L539 201 Q535 92 479 32 Q475 28 474 28 Q470 28 470 37 L470 697 Q470 710 484 710 L526 710 Z " />
<glyph glyph-name="section" unicode="&#xa7;" horiz-adv-x="570" d="M453 279 Q499 220 518.5 174 Q538 128 538 78 Q538 23 518.5 -26 Q499 -75 461.5 -111.5 Q424 -148 370.5 -169 Q317 -190 248 -190 Q199 -190 147.5 -180 Q96 -170 49 -148 Q37 -142 37 -128 L37 -38 Q37 -26 49 -31 Q96 -54 149 -65 Q202 -76 255 -76 Q348 -76 403 -41 L123 316 Q104 341 88 364 Q72 387 60 411.5 Q48 436 41 462.5 Q34 489 34 520 Q34 572 53 615 Q72 658 107.5 689.5 Q143 721 192.5 738.5 Q242 756 302 756 Q341 756 389 748.5 Q437 741 475 727 Q487 722 487 708 L487 614 Q487 602 474 606 Q452 615 425.5 621.5 Q399 628 372 632.5 Q345 637 321 639 Q297 641 279 641 Q224 641 184 623 L453 279 Z M442 -7 Q474 33 474 90 Q474 125 460.5 161 Q447 197 412 242 L141 594 Q100 555 100 495 Q100 454 119 420 Q138 386 170 342 L442 -7 Z " />
<glyph glyph-name="copyright" unicode="&#xa9;" horiz-adv-x="802" d="M401 -10 Q326 -10 259 16.5 Q192 43 142 90.5 Q92 138 63 204.5 Q34 271 34 351 Q34 434 63.5 502 Q93 570 143 618.5 Q193 667 260 693.5 Q327 720 401 720 Q475 720 541.5 693.5 Q608 667 658.5 618.5 Q709 570 738.5 502 Q768 434 768 351 Q768 271 739 204.5 Q710 138 660 90.5 Q610 43 543 16.5 Q476 -10 401 -10 Z M401 25 Q468 25 528.5 48.5 Q589 72 634.5 115 Q680 158 706.5 218 Q733 278 733 351 Q733 427 706.5 488.5 Q680 550 634.5 593.5 Q589 637 528.5 661 Q468 685 401 685 Q333 685 273 661 Q213 637 167.5 593.5 Q122 550 95.5 488.5 Q69 427 69 351 Q69 278 95.5 218 Q122 158 167.5 115 Q213 72 273 48.5 Q333 25 401 25 Z M406 144 Q366 144 329 158.5 Q292 173 264 200.5 Q236 228 219.5 267 Q203 306 203 356 Q203 405 220 444 Q237 483 265.5 510 Q294 537 331 551 Q368 565 409 565 Q439 565 466.5 557.5 Q494 550 511 540 Q519 535 519 525 L519 456 Q519 444 508 451 Q491 463 468.5 470 Q446 477 422 477 Q398 477 377 468.5 Q356 460 340 444.5 Q324 429 314.5 406.5 Q305 384 305 357 Q305 328 314.5 305.5 Q324 283 340.5 267 Q357 251 378 243 Q399 235 422 235 Q448 235 472 243 Q496 251 515 265 Q518 268 521 268 Q525 268 525 259 L525 192 Q525 181 517 176 Q496 162 468.5 153 Q441 144 406 144 Z " />
<glyph glyph-name="registered" unicode="&#xae;" horiz-adv-x="476" d="M238 720 Q278 720 312 706 Q346 692 371.5 666.5 Q397 641 411.5 605.5 Q426 570 426 527 Q426 484 412 448.5 Q398 413 372.5 387.5 Q347 362 312.5 348 Q278 334 238 334 Q197 334 163 348 Q129 362 103.5 387.5 Q78 413 64 448.5 Q50 484 50 527 Q50 570 64.5 605.5 Q79 641 104 666.5 Q129 692 163.5 706 Q198 720 238 720 Z M238 363 Q272 363 301 375 Q330 387 351 408.5 Q372 430 384 460 Q396 490 396 527 Q396 564 384 594.5 Q372 625 351 646.5 Q330 668 301 679.5 Q272 691 238 691 Q204 691 175 679.5 Q146 668 125 646.5 Q104 625 92 594.5 Q80 564 80 527 Q80 490 92 460 Q104 430 125 408.5 Q146 387 175 375 Q204 363 238 363 Z M314 462 Q322 452 322 447 Q322 438 302 438 L295 438 Q282 438 274 449 L225 514 L216 514 L216 451 Q216 438 202 438 L187 438 Q174 438 174 452 L174 616 Q174 629 188 629 L241 629 Q273 629 292.5 614 Q312 599 312 573 Q312 530 266 520 L314 462 Z M216 540 L233 540 Q268 540 268 569 Q268 597 233 597 L216 597 L216 540 Z " />
<glyph glyph-name="trademark" unicode="&#x2122;" horiz-adv-x="804" d="M293 710 Q304 710 304 699 L304 645 Q304 634 293 634 L206 634 L206 359 Q206 348 195 348 L125 348 Q114 348 114 359 L114 634 L28 634 Q17 634 17 645 L17 699 Q17 710 28 710 L293 710 Z M776 356 Q776 348 767 348 L696 348 Q686 348 683 359 L650 585 L575 368 Q570 358 560 358 L523 358 Q512 358 508 368 L430 579 L392 359 Q390 348 379 348 L315 348 Q305 348 306 359 L371 699 Q373 710 384 710 L452 710 Q463 710 467 700 L544 477 L619 700 Q622 710 633 710 L694 710 Q706 710 707 699 L776 359 L776 356 Z " />
<glyph glyph-name="degree" unicode="&#xb0;" horiz-adv-x="372" d="M186 428 Q155 428 128 439 Q101 450 80.5 469.5 Q60 489 48.5 516 Q37 543 37 575 Q37 607 48.5 633.5 Q60 660 80.5 679.5 Q101 699 128 709.5 Q155 720 186 720 Q217 720 244 709.5 Q271 699 291.5 679.5 Q312 660 324 633.5 Q336 607 336 575 Q336 543 324 516 Q312 489 291.5 469.5 Q271 450 244 439 Q217 428 186 428 Z M186 503 Q215 503 233.5 523 Q252 543 252 575 Q252 606 233.5 625.5 Q215 645 186 645 Q157 645 138.5 625.5 Q120 606 120 575 Q120 543 138.5 523 Q157 503 186 503 Z " />
<glyph glyph-name="bar" unicode="&#x7c;" horiz-adv-x="168" d="M56 -200 Q43 -200 43 -186 L43 827 Q43 840 57 840 L112 840 Q125 840 125 826 L125 -187 Q125 -200 111 -200 L56 -200 L56 -200 Z " />
<glyph glyph-name="brokenbar" unicode="&#xa6;" horiz-adv-x="168" d="M56 422 Q43 422 43 436 L43 827 Q43 840 57 840 L112 840 Q125 840 125 826 L125 435 Q125 422 111 422 L56 422 Z M56 -200 Q43 -200 43 -186 L43 205 Q43 218 57 218 L112 218 Q125 218 125 204 L125 -187 Q125 -200 111 -200 L56 -200 Z " />
<glyph glyph-name="dagger" unicode="&#x2020;" horiz-adv-x="382" d="M342 600 Q353 600 353 587 L353 515 Q353 502 339 503 L243 507 L243 255 Q243 242 229 242 L149 242 Q136 242 136 256 L135 508 L39 503 L37 503 Q26 503 26 516 L26 588 Q26 601 40 600 L135 596 L135 697 Q135 710 149 710 L230 710 Q243 710 243 696 L243 596 L340 600 L342 600 Z " />
<glyph glyph-name="daggerdbl" unicode="&#x2021;" horiz-adv-x="382" d="M244 526 L244 423 L340 427 L342 427 Q353 427 353 414 L353 342 Q353 329 339 330 L244 334 L244 255 Q244 242 230 242 L149 242 Q136 242 136 256 L136 335 L39 330 L37 330 Q26 330 26 343 L26 415 Q26 428 40 427 L136 423 L136 526 L39 522 L37 522 Q26 522 26 535 L26 607 Q26 620 40 619 L136 614 L136 697 Q136 710 150 710 L231 710 Q244 710 244 696 L244 615 L340 619 L342 619 Q353 619 353 606 L353 534 Q353 521 339 522 L244 526 Z " />
<glyph glyph-name="asciicircum" unicode="&#x5e;" horiz-adv-x="600" d="M489 287 Q491 283 491 281 Q491 276 482 276 L419 276 Q405 276 397 287 L301 400 L204 286 Q196 276 182 276 L118 276 Q110 276 110 280 Q110 283 113 288 L241 471 Q247 482 262 482 L341 482 Q354 482 362 470 L489 287 L489 287 Z " />
<glyph glyph-name="dieresiscomb" unicode="&#x308;" d="M-86 605 Q-112 605 -127.5 623 Q-143 641 -143 667 Q-143 692 -127.5 710 Q-112 728 -86 728 Q-60 728 -44 710 Q-28 692 -28 667 Q-28 641 -44 623 Q-60 605 -86 605 Z M86 605 Q60 605 44.5 623 Q29 641 29 667 Q29 692 44.5 710 Q60 728 86 728 Q112 728 128 710 Q144 692 144 667 Q144 641 128 623 Q112 605 86 605 Z " />
<glyph glyph-name="dotaccentcomb" unicode="&#x307;" d="M3 598 Q-29 598 -48 619.5 Q-67 641 -67 673 Q-67 704 -48 726 Q-29 748 3 748 Q34 748 54 726 Q74 704 74 673 Q74 641 54 619.5 Q34 598 3 598 Z " />
<glyph glyph-name="gravecomb" unicode="&#x300;" d="M34 563 Q35 561 35 558 Q35 551 25 551 L-41 551 Q-53 551 -58 560 L-181 729 Q-184 733 -184 736 Q-184 742 -175 745 L-79 775 Q-77 775 -76.5 775.5 Q-76 776 -74 776 Q-65 776 -61 766 L34 563 L34 563 Z " />
<glyph glyph-name="acutecomb" unicode="&#x301;" d="M-57 551 Q-70 551 -64 564 L31 767 Q36 779 49 775 L145 744 Q152 743 152 737 Q152 734 149 728 L27 560 Q21 551 10 551 L-57 551 L-57 551 Z " />
<glyph glyph-name="hungarumlautcomb" unicode="&#x30b;" d="M33 552 Q19 552 25 565 L99 766 Q104 778 118 775 L215 749 Q224 747 224 741 Q224 737 221 733 L112 563 Q106 552 91 552 L33 552 Z M-131 552 Q-144 552 -140 565 L-72 766 Q-68 778 -55 774 L34 750 Q42 747 42 741 Q42 736 40 733 L-49 564 Q-55 552 -69 552 L-131 552 Z " />
<glyph glyph-name="circumflexcomb" unicode="&#x302;" d="M158 565 Q160 561 160 559 Q160 555 153 555 L88 555 Q76 555 70 564 L0 660 L-69 564 Q-75 555 -86 555 L-154 555 Q-165 555 -159 565 L-49 738 Q-43 747 -32 747 L32 747 Q43 747 49 738 L158 565 L158 565 Z " />
<glyph glyph-name="caroncomb" unicode="&#x30c;" d="M150 721 Q158 721 158 717 Q158 713 155 709 L56 554 Q50 543 35 543 L-37 543 Q-50 543 -58 555 L-157 710 Q-159 714 -159 716 Q-159 721 -150 721 L-78 721 Q-64 721 -56 710 L2 639 L59 711 Q67 721 81 721 L150 721 L150 721 Z " />
<glyph glyph-name="brevecomb" unicode="&#x306;" d="M0 573 Q-60 573 -100.5 613 Q-141 653 -148 722 L-148 724 Q-148 733 -138 733 L-94 733 Q-84 733 -81 722 Q-74 692 -54 675.5 Q-34 659 0 659 Q32 659 52.5 675.5 Q73 692 80 722 Q83 733 93 733 L137 733 Q148 733 147 722 Q140 653 99.5 613 Q59 573 0 573 Z " />
<glyph glyph-name="ringcomb" unicode="&#x30a;" d="M0 544 Q-21 544 -40.5 551.5 Q-60 559 -75 573 Q-90 587 -99 606 Q-108 625 -108 648 Q-108 671 -99 689.5 Q-90 708 -75 721.5 Q-60 735 -40.5 742.5 Q-21 750 0 750 Q21 750 40.5 742.5 Q60 735 75 721.5 Q90 708 99 689.5 Q108 671 108 648 Q108 625 99 606 Q90 587 75 573 Q60 559 40.5 551.5 Q21 544 0 544 Z M0 598 Q20 598 33.5 612.5 Q47 627 47 648 Q47 669 33.5 682.5 Q20 696 0 696 Q-21 696 -34.5 682.5 Q-48 669 -48 648 Q-48 627 -34.5 612.5 Q-21 598 0 598 Z " />
<glyph glyph-name="tildecomb" unicode="&#x303;" d="M70 565 Q46 565 27 576.5 Q8 588 -7 600 Q-21 611 -34 620 Q-47 629 -61 629 Q-99 629 -104 574 Q-104 567 -111 567 L-168 567 Q-175 567 -175 574 Q-174 604 -167 631.5 Q-160 659 -146.5 680 Q-133 701 -113 713.5 Q-93 726 -67 726 Q-41 726 -21 713 Q-1 700 16 686 Q29 675 40 667.5 Q51 660 64 660 Q81 660 90 674.5 Q99 689 101 712 Q101 719 108 719 L167 719 Q174 719 174 712 Q173 682 165.5 655 Q158 628 144.5 608 Q131 588 112 576.5 Q93 565 70 565 Z " />
<glyph glyph-name="macroncomb" unicode="&#x304;" d="M-142 608 Q-155 608 -155 622 L-155 679 Q-155 692 -141 692 L142 692 Q155 692 155 678 L155 621 Q155 608 141 608 L-142 608 L-142 608 Z " />
<glyph glyph-name="cedillacomb" unicode="&#x327;" horiz-adv-x="302" d="M163 -38 Q199 -39 222.5 -57 Q246 -75 246 -107 Q246 -147 212.5 -169.5 Q179 -192 131 -192 Q107 -192 88.5 -188.5 Q70 -185 57 -180 Q47 -176 47 -164 L47 -128 Q47 -117 57 -121 Q70 -126 85 -130 Q100 -134 117 -134 Q137 -134 150 -127 Q163 -120 163 -108 Q163 -95 150 -88 Q137 -81 119 -81 Q95 -81 77 -89 L74 -86 L137 25 L200 25 L163 -38 L163 -38 Z " />
<glyph glyph-name="ogonekcomb" unicode="&#x328;" d="M22 -192 Q-29 -192 -64 -167.5 Q-99 -143 -99 -98 Q-99 -74 -86.5 -53.5 Q-74 -33 -52.5 -16.5 Q-31 0 -3 13 Q25 26 57 35 L101 9 Q44 -19 21.5 -42.5 Q-1 -66 -1 -89 Q-1 -106 10.5 -115 Q22 -124 41 -124 Q51 -124 60 -121.5 Q69 -119 77 -117 L80 -117 Q88 -117 88 -126 L88 -166 Q88 -178 78 -181 Q67 -186 53 -189 Q39 -192 22 -192 Z " />
<glyph glyph-name="slashshortcomb" unicode="&#x337;" d="M-191 -44 Q-204 -44 -197 -32 L135 531 Q141 542 156 542 L191 542 Q204 542 197 530 L-135 -33 Q-141 -44 -156 -44 L-191 -44 L-191 -44 Z " />
<glyph glyph-name="slashlongcomb" unicode="&#x338;" d="M-274 -43 Q-282 -43 -282 -39 Q-282 -36 -279 -31 L217 732 Q223 743 238 743 L272 743 Q280 743 280 739 Q280 735 277 731 L-217 -32 Q-223 -43 -238 -43 L-274 -43 L-274 -43 Z " />
<glyph glyph-name="acute" unicode="&#xb4;" horiz-adv-x="500" d="M154 551 Q141 551 147 564 L242 767 Q247 779 260 775 L356 744 Q363 743 363 737 Q363 734 360 728 L238 560 Q232 551 221 551 L154 551 L154 551 Z " />
<glyph glyph-name="breve" unicode="&#x2d8;" horiz-adv-x="500" d="M250 573 Q190 573 149.5 613 Q109 653 102 722 L102 724 Q102 733 112 733 L156 733 Q166 733 169 722 Q176 692 196 675.5 Q216 659 250 659 Q282 659 302.5 675.5 Q323 692 330 722 Q333 733 343 733 L387 733 Q398 733 397 722 Q390 653 349.5 613 Q309 573 250 573 Z " />
<glyph glyph-name="caron" unicode="&#x2c7;" horiz-adv-x="500" d="M400 721 Q408 721 408 717 Q408 713 405 709 L306 554 Q300 543 285 543 L213 543 Q200 543 192 555 L93 710 Q91 714 91 716 Q91 721 100 721 L172 721 Q186 721 194 710 L252 639 L309 711 Q317 721 331 721 L400 721 L400 721 Z " />
<glyph glyph-name="cedilla" unicode="&#xb8;" horiz-adv-x="508" d="M417 -38 Q453 -39 476.5 -57 Q500 -75 500 -107 Q500 -147 466.5 -169.5 Q433 -192 385 -192 Q361 -192 342.5 -188.5 Q324 -185 311 -180 Q301 -176 301 -164 L301 -128 Q301 -117 311 -121 Q324 -126 339 -130 Q354 -134 371 -134 Q391 -134 404 -127 Q417 -120 417 -108 Q417 -95 404 -88 Q391 -81 373 -81 Q349 -81 331 -89 L328 -86 L391 25 L454 25 L417 -38 L417 -38 Z " />
<glyph glyph-name="circumflex" unicode="&#x2c6;" horiz-adv-x="500" d="M408 565 Q410 561 410 559 Q410 555 403 555 L338 555 Q326 555 320 564 L250 660 L181 564 Q175 555 164 555 L96 555 Q85 555 91 565 L201 738 Q207 747 218 747 L282 747 Q293 747 299 738 L408 565 L408 565 Z " />
<glyph glyph-name="dieresis" unicode="&#xa8;" horiz-adv-x="500" d="M164 605 Q138 605 122.5 623 Q107 641 107 667 Q107 692 122.5 710 Q138 728 164 728 Q190 728 206 710 Q222 692 222 667 Q222 641 206 623 Q190 605 164 605 Z M336 605 Q310 605 294.5 623 Q279 641 279 667 Q279 692 294.5 710 Q310 728 336 728 Q362 728 378 710 Q394 692 394 667 Q394 641 378 623 Q362 605 336 605 Z " />
<glyph glyph-name="dotaccent" unicode="&#x2d9;" horiz-adv-x="500" d="M253 598 Q221 598 202 619.5 Q183 641 183 673 Q183 704 202 726 Q221 748 253 748 Q284 748 304 726 Q324 704 324 673 Q324 641 304 619.5 Q284 598 253 598 Z " />
<glyph glyph-name="grave" unicode="&#x60;" horiz-adv-x="500" d="M353 563 Q354 561 354 558 Q354 551 344 551 L280 551 Q267 551 259 562 L138 729 Q135 733 135 736 Q135 742 144 745 L242 776 Q243 776 244 776.5 Q245 777 246 777 Q252 777 257 769 L353 563 L353 563 Z " />
<glyph glyph-name="hungarumlaut" unicode="&#x2dd;" horiz-adv-x="500" d="M244 552 Q230 552 236 565 L310 766 Q315 778 329 775 L426 749 Q435 747 435 741 Q435 737 432 733 L323 563 Q317 552 302 552 L244 552 Z M80 552 Q67 552 71 565 L139 766 Q143 778 156 774 L245 750 Q253 747 253 741 Q253 736 251 733 L162 564 Q156 552 142 552 L80 552 Z " />
<glyph glyph-name="macron" unicode="&#xaf;" horiz-adv-x="500" d="M108 608 Q95 608 95 622 L95 679 Q95 692 109 692 L392 692 Q405 692 405 678 L405 621 Q405 608 391 608 L108 608 L108 608 Z " />
<glyph glyph-name="ogonek" unicode="&#x2db;" horiz-adv-x="500" d="M277 -192 Q226 -192 191 -167.5 Q156 -143 156 -98 Q156 -74 168.5 -53.5 Q181 -33 202.5 -16.5 Q224 0 252 13 Q280 26 312 35 L356 9 Q299 -19 276.5 -42.5 Q254 -66 254 -89 Q254 -106 265.5 -115 Q277 -124 296 -124 Q306 -124 315 -121.5 Q324 -119 332 -117 L335 -117 Q343 -117 343 -126 L343 -166 Q343 -178 333 -181 Q322 -186 308 -189 Q294 -192 277 -192 Z " />
<glyph glyph-name="ring" unicode="&#x2da;" horiz-adv-x="500" d="M250 544 Q229 544 209.5 551.5 Q190 559 175 573 Q160 587 151 606 Q142 625 142 648 Q142 671 151 689.5 Q160 708 175 721.5 Q190 735 209.5 742.5 Q229 750 250 750 Q271 750 290.5 742.5 Q310 735 325 721.5 Q340 708 349 689.5 Q358 671 358 648 Q358 625 349 606 Q340 587 325 573 Q310 559 290.5 551.5 Q271 544 250 544 Z M250 598 Q270 598 283.5 612.5 Q297 627 297 648 Q297 669 283.5 682.5 Q270 696 250 696 Q229 696 215.5 682.5 Q202 669 202 648 Q202 627 215.5 612.5 Q229 598 250 598 Z " />
<glyph glyph-name="tilde" unicode="&#x2dc;" horiz-adv-x="500" d="M320 565 Q296 565 277 576.5 Q258 588 243 600 Q229 611 216 620 Q203 629 189 629 Q151 629 146 574 Q146 567 139 567 L82 567 Q75 567 75 574 Q76 604 83 631.5 Q90 659 103.5 680 Q117 701 137 713.5 Q157 726 183 726 Q209 726 229 713 Q249 700 266 686 Q279 675 290 667.5 Q301 660 314 660 Q331 660 340 674.5 Q349 689 351 712 Q351 719 358 719 L417 719 Q424 719 424 712 Q423 682 415.5 655 Q408 628 394.5 608 Q381 588 362 576.5 Q343 565 320 565 Z " />
<glyph glyph-name="A" unicode="A" horiz-adv-x="672" d="M664 12 Q665 10 665 7 Q665 0 655 0 L522 0 Q510 0 504 13 Q493 45 481.5 76.5 Q470 108 458 140 L204 140 Q193 108 181 76 Q169 44 157 12 Q154 0 139 0 L16 0 Q2 0 8 13 L281 699 Q286 711 300 711 L375 711 Q387 711 393 698 L664 12 Z M419 254 Q397 316 376 381 Q355 446 333 518 Q288 376 245 254 L419 254 Z " />
<glyph glyph-name="Aacute" unicode="&#xc1;" horiz-adv-x="705" d="M664 12 Q665 10 665 7 Q665 0 655 0 L522 0 Q510 0 504 13 Q493 45 481.5 76.5 Q470 108 458 140 L204 140 Q193 108 181 76 Q169 44 157 12 Q154 0 139 0 L16 0 Q2 0 8 13 L281 699 Q286 711 300 711 L375 711 Q387 711 393 698 L664 12 Z M419 254 Q397 316 376 381 Q355 446 333 518 Q288 376 245 254 L419 254 Z M293 759 Q280 759 286 772 L340 898 Q345 910 359 910 L473 910 Q481 910 481 906 Q481 903 477 899 L367 769 Q359 759 345 759 L293 759 L293 759 Z " />
</font>
</svg>
