<?xml version="1.0" encoding="UTF-8"?>
<svg xmlns="http://www.w3.org/2000/svg" xmlns:xlink="http://www.w3.org/1999/xlink" version="1.2" >
<font id="GlobotipoTexto-Regular">
<font-face  font-family="Globotipo Texto" units-per-em="1000" ascent="1000" descent="-400" font-style="normal" font-weight="400" font-stretch="normal" cap-height="710" x-height="480" underline-position="-75" underline-thickness="50" />
<missing-glyph  horiz-adv-x="700" d="M350 709 Q423 709 487.5 681 Q552 653 600 605 Q648 557 676 492.5 Q704 428 704 355 Q704 281 676 216.5 Q648 152 600 104 Q552 56 487.5 28 Q423 0 350 0 Q276 0 211.5 28 Q147 56 99 104 Q51 152 23 216.5 Q-5 281 -5 355 Q-5 428 23 492.5 Q51 557 99 605 Q147 653 211.5 681 Q276 709 350 709 Z M350 20 Q419 20 480 46.5 Q541 73 586 118.5 Q631 164 657.5 225 Q684 286 684 355 Q684 424 657.5 485 Q631 546 586 591 Q541 636 480 662.5 Q419 689 350 689 Q281 689 220 662.5 Q159 636 113.5 591 Q68 546 41.5 485 Q15 424 15 355 Q15 286 41.5 225 Q68 164 113.5 118.5 Q159 73 220 46.5 Q281 20 350 20 Z M569 559 L364 354 L569 149 L555 135 L350 340 L145 135 L131 149 L336 354 L131 559 L145 573 L350 368 L555 573 L569 559 Z " />
<glyph glyph-name=".null" d="" />
<glyph glyph-name="nonmarkingreturn" unicode="&#xd;" horiz-adv-x="214" d="" />
<glyph glyph-name="space" unicode="&#x20;" horiz-adv-x="214" d="" />
<glyph glyph-name="Adieresis" unicode="&#xc4;" horiz-adv-x="663" d="M635 8 Q636 7 636 4 Q636 0 628 0 L556 0 Q547 0 543 9 L471 199 L172 199 L98 8 Q95 0 85 0 L18 0 Q9 0 13 9 L292 705 Q295 713 305 713 L345 713 Q354 713 358 704 L635 8 Z M446 267 Q415 350 384.5 434 Q354 518 323 609 Q291 518 260 433.5 Q229 349 198 267 L446 267 Z M245 778 Q222 778 207 794.5 Q192 811 192 834 Q192 857 207 873 Q222 889 245 889 Q269 889 284 873 Q299 857 299 834 Q299 811 284 794.5 Q269 778 245 778 Z M411 778 Q388 778 373 794.5 Q358 811 358 834 Q358 857 373 873 Q388 889 411 889 Q435 889 450 873 Q465 857 465 834 Q465 811 450 794.5 Q435 778 411 778 Z " />
<glyph glyph-name="Agrave" unicode="&#xc0;" horiz-adv-x="663" d="M635 8 Q636 7 636 4 Q636 0 628 0 L556 0 Q547 0 543 9 L471 199 L172 199 L98 8 Q95 0 85 0 L18 0 Q9 0 13 9 L292 705 Q295 713 305 713 L345 713 Q354 713 358 704 L635 8 Z M446 267 Q415 350 384.5 434 Q354 518 323 609 Q291 518 260 433.5 Q229 349 198 267 L446 267 Z M337 772 Q339 768 339 768 Q339 764 331 764 L301 764 Q293 764 286 772 L183 896 Q177 903 188 903 L264 903 Q273 903 277 894 L337 772 L337 772 Z " />
<glyph glyph-name="Aring" unicode="&#xc5;" horiz-adv-x="663" d="M635 8 Q636 7 636 4 Q636 0 628 0 L556 0 Q547 0 543 9 L471 199 L172 199 L98 8 Q95 0 85 0 L18 0 Q9 0 13 9 L292 705 Q295 713 305 713 L345 713 Q354 713 358 704 L635 8 Z M446 267 Q415 350 384.5 434 Q354 518 323 609 Q291 518 260 433.5 Q229 349 198 267 L446 267 Z M324 743 Q305 743 288 750 Q271 757 258.5 769.5 Q246 782 239 799 Q232 816 232 836 Q232 876 259 900.5 Q286 925 324 925 Q361 925 388.5 900.5 Q416 876 416 836 Q416 795 389 769 Q362 743 324 743 Z M324 779 Q347 779 362 795 Q377 811 377 836 Q377 860 362 875.5 Q347 891 324 891 Q301 891 286 875 Q271 859 271 836 Q271 811 286 795 Q301 779 324 779 Z " />
<glyph glyph-name="Atilde" unicode="&#xc3;" horiz-adv-x="663" d="M635 8 Q636 7 636 4 Q636 0 628 0 L556 0 Q547 0 543 9 L471 199 L172 199 L98 8 Q95 0 85 0 L18 0 Q9 0 13 9 L292 705 Q295 713 305 713 L345 713 Q354 713 358 704 L635 8 Z M446 267 Q415 350 384.5 434 Q354 518 323 609 Q291 518 260 433.5 Q229 349 198 267 L446 267 Z M262 837 Q241 837 228.5 823 Q216 809 214 784 Q214 779 209 779 L174 779 Q169 779 169 784 Q171 832 194 865.5 Q217 899 261 899 Q287 899 304 887.5 Q321 876 335 864 Q347 853 359 845 Q371 837 387 837 Q407 837 417.5 851.5 Q428 866 430 891 Q430 896 435 896 L471 896 Q476 896 476 891 Q474 842 451.5 809 Q429 776 390 776 Q365 776 347.5 787 Q330 798 316 810 Q303 821 291 829 Q279 837 262 837 Z " />
<glyph glyph-name="AE" unicode="&#xc6;" horiz-adv-x="806" d="M499 647 L499 401 L719 401 Q728 401 728 391 L728 347 Q728 338 718 338 L499 338 L499 63 L746 63 Q755 63 755 53 L755 9 Q755 0 745 0 L432 0 Q423 0 423 10 L423 192 L194 192 L93 8 Q91 4 88 2 Q85 0 79 0 L14 0 Q5 0 10 9 L400 702 Q402 706 405 708 Q408 710 414 710 L747 710 Q755 710 755 701 L755 656 Q755 647 745 647 L499 647 Z M423 256 L423 608 L229 256 L423 256 Z " />
<glyph glyph-name="B" unicode="B" horiz-adv-x="538" d="M347 376 Q424 365 467 318.5 Q510 272 510 203 Q510 158 492 121 Q474 84 441 57 Q408 30 360 15 Q312 0 252 0 L86 0 Q77 0 77 10 L77 701 Q77 710 87 710 L232 710 Q346 710 409.5 663.5 Q473 617 473 536 Q473 478 440 433.5 Q407 389 347 377 L347 376 Z M157 642 L157 400 L248 400 Q311 400 351.5 432.5 Q392 465 392 525 Q392 581 349.5 611.5 Q307 642 235 642 L157 642 Z M247 68 Q329 68 376 105 Q423 142 423 204 Q423 263 378 297.5 Q333 332 260 332 L157 332 L157 68 L247 68 Z " />
<glyph glyph-name="C" unicode="C" horiz-adv-x="641" d="M411 -10 Q334 -10 266.5 15.5 Q199 41 149 89 Q99 137 69.5 205 Q40 273 40 358 Q40 442 69.5 509 Q99 576 150 623 Q201 670 269 695 Q337 720 414 720 Q462 720 504.5 711 Q547 702 579 690 Q587 687 587 677 L587 627 Q587 613 578 613 Q574 613 567 616 Q537 630 500 638.5 Q463 647 421 647 Q358 647 303.5 626.5 Q249 606 208.5 568.5 Q168 531 145 478 Q122 425 122 359 Q122 290 145 235.5 Q168 181 208.5 143 Q249 105 303.5 84.5 Q358 64 421 64 Q466 64 505.5 73 Q545 82 577 96 Q581 98 587 98 Q596 98 596 83 L596 36 Q596 27 587 23 Q552 9 507.5 -0.5 Q463 -10 411 -10 Z " />
<glyph glyph-name="Ccedilla" unicode="&#xc7;" horiz-adv-x="641" d="M577 96 Q581 98 587 98 Q596 98 596 83 L596 36 Q596 27 587 23 Q552 9 507.5 -0.5 Q463 -10 411 -10 L403 -10 L382 -42 L387 -42 Q421 -42 443 -59 Q465 -76 465 -105 Q465 -140 436 -160 Q407 -180 365 -180 Q345 -180 328 -176.5 Q311 -173 297 -168 Q290 -165 290 -156 L290 -130 Q290 -122 297 -125 Q310 -131 325.5 -135 Q341 -139 359 -139 Q381 -139 396.5 -130.5 Q412 -122 412 -107 Q412 -92 398.5 -84 Q385 -76 365 -76 Q353 -76 340.5 -78 Q328 -80 319 -84 L316 -81 L363 -7 Q295 0 236 29 Q177 58 133.5 105 Q90 152 65 216 Q40 280 40 358 Q40 442 69.5 509 Q99 576 150 623 Q201 670 269 695 Q337 720 414 720 Q462 720 504.5 711 Q547 702 579 690 Q587 687 587 677 L587 627 Q587 613 578 613 Q574 613 567 616 Q537 630 500 638.5 Q463 647 421 647 Q358 647 303.5 626.5 Q249 606 208.5 568.5 Q168 531 145 478 Q122 425 122 359 Q122 290 145 235.5 Q168 181 208.5 143 Q249 105 303.5 84.5 Q358 64 421 64 Q466 64 505.5 73 Q545 82 577 96 Z " />
<glyph glyph-name="D" unicode="D" horiz-adv-x="684" d="M77 701 Q77 710 87 710 L227 710 Q321 710 398 684 Q475 658 530 611 Q585 564 615 499 Q645 434 645 355 Q645 275 615.5 210 Q586 145 531 98 Q476 51 399 25.5 Q322 0 227 0 L86 0 Q77 0 77 10 L77 701 Z M159 641 L159 68 L230 69 Q305 69 366 89 Q427 109 470.5 146 Q514 183 537.5 235.5 Q561 288 561 353 Q561 419 537.5 472 Q514 525 470.5 562.5 Q427 600 366 620.5 Q305 641 230 641 L159 641 Z " />
<glyph glyph-name="Eth" unicode="&#xd0;" horiz-adv-x="663" d="M227 710 Q321 710 398 684 Q475 658 530 611 Q585 564 615 499 Q645 434 645 355 Q645 275 615.5 210 Q586 145 531 98 Q476 51 399 25.5 Q322 0 227 0 L86 0 Q77 0 77 10 L77 338 L22 338 Q13 338 13 348 L13 389 Q13 398 23 398 L77 398 L77 701 Q77 710 87 710 L227 710 Z M230 69 Q305 69 366 89 Q427 109 470.5 146 Q514 183 537.5 235.5 Q561 288 561 353 Q561 419 537.5 472 Q514 525 470.5 562.5 Q427 600 366 620.5 Q305 641 230 641 L159 641 L159 396 L352 396 Q361 396 361 386 L361 349 Q361 340 351 340 L159 340 L159 68 L230 69 Z " />
<glyph glyph-name="E" unicode="E" horiz-adv-x="506" d="M157 642 L157 403 L414 403 Q423 403 423 393 L423 345 Q423 336 413 336 L157 336 L157 68 L446 68 Q455 68 455 58 L455 9 Q455 0 445 0 L86 0 Q77 0 77 10 L77 701 Q77 710 87 710 L446 710 Q455 710 455 700 L455 651 Q455 642 445 642 L157 642 Z " />
<glyph glyph-name="Eacute" unicode="&#xc9;" horiz-adv-x="505" d="M157 642 L157 403 L414 403 Q423 403 423 393 L423 345 Q423 336 413 336 L157 336 L157 68 L446 68 Q455 68 455 58 L455 9 Q455 0 445 0 L86 0 Q77 0 77 10 L77 701 Q77 710 87 710 L446 710 Q455 710 455 700 L455 651 Q455 642 445 642 L157 642 Z M234 762 Q225 762 229 771 L289 893 Q291 897 294 899 Q297 901 303 901 L380 901 Q391 901 383 893 L280 769 Q274 762 264 762 L234 762 L234 762 Z " />
<glyph glyph-name="Ecircumflex" unicode="&#xca;" horiz-adv-x="505" d="M157 642 L157 403 L414 403 Q423 403 423 393 L423 345 Q423 336 413 336 L157 336 L157 68 L446 68 Q455 68 455 58 L455 9 Q455 0 445 0 L86 0 Q77 0 77 10 L77 701 Q77 710 87 710 L446 710 Q455 710 455 700 L455 651 Q455 642 445 642 L157 642 Z M404 762 Q408 756 401 756 L360 756 Q352 756 346 762 L262 851 L178 762 Q172 756 164 756 L122 756 Q113 756 119 762 L228 894 Q232 900 241 900 L282 900 Q289 900 295 894 L404 762 L404 762 Z " />
<glyph glyph-name="Edieresis" unicode="&#xcb;" horiz-adv-x="505" d="M157 642 L157 403 L414 403 Q423 403 423 393 L423 345 Q423 336 413 336 L157 336 L157 68 L446 68 Q455 68 455 58 L455 9 Q455 0 445 0 L86 0 Q77 0 77 10 L77 701 Q77 710 87 710 L446 710 Q455 710 455 700 L455 651 Q455 642 445 642 L157 642 Z M183 778 Q160 778 145 794.5 Q130 811 130 834 Q130 857 145 873 Q160 889 183 889 Q207 889 222 873 Q237 857 237 834 Q237 811 222 794.5 Q207 778 183 778 Z M349 778 Q326 778 311 794.5 Q296 811 296 834 Q296 857 311 873 Q326 889 349 889 Q373 889 388 873 Q403 857 403 834 Q403 811 388 794.5 Q373 778 349 778 Z " />
<glyph glyph-name="Egrave" unicode="&#xc8;" horiz-adv-x="505" d="M157 642 L157 403 L414 403 Q423 403 423 393 L423 345 Q423 336 413 336 L157 336 L157 68 L446 68 Q455 68 455 58 L455 9 Q455 0 445 0 L86 0 Q77 0 77 10 L77 701 Q77 710 87 710 L446 710 Q455 710 455 700 L455 651 Q455 642 445 642 L157 642 Z M275 772 Q277 768 277 768 Q277 764 269 764 L239 764 Q231 764 224 772 L121 896 Q115 903 126 903 L202 903 Q211 903 215 894 L275 772 L275 772 Z " />
<glyph glyph-name="F" unicode="F" horiz-adv-x="481" d="M436 710 Q445 710 445 700 L445 652 Q445 643 435 643 L157 643 L157 376 L414 376 Q423 376 423 366 L423 318 Q423 309 413 309 L157 309 L157 9 Q157 0 147 0 L86 0 Q77 0 77 10 L77 701 Q77 710 87 710 L436 710 L436 710 Z " />
<glyph glyph-name="G" unicode="G" horiz-adv-x="753" d="M402 -10 Q326 -10 260 16.5 Q194 43 145 91 Q96 139 67.5 206 Q39 273 39 354 Q39 435 68.5 502.5 Q98 570 149 618 Q200 666 269.5 693 Q339 720 419 720 Q447 720 478 716.5 Q509 713 539 706.5 Q569 700 596.5 690.5 Q624 681 647 668 Q655 663 655 653 L655 600 Q655 585 647 585 Q644 585 634 590 Q590 616 533 629.5 Q476 643 425 643 Q361 643 305.5 622.5 Q250 602 209 564 Q168 526 144.5 472.5 Q121 419 121 353 Q121 288 143.5 235 Q166 182 204.5 144.5 Q243 107 294 86.5 Q345 66 402 66 Q452 66 496.5 81.5 Q541 97 574.5 126 Q608 155 628 197 Q648 239 648 292 L431 292 Q422 292 422 302 L422 353 Q422 362 432 362 L711 362 Q721 362 721 352 Q722 345 722.5 337.5 Q723 330 723 322 Q723 242 698 180 Q673 118 630 76 Q587 34 528 12 Q469 -10 402 -10 Z " />
<glyph glyph-name="H" unicode="H" horiz-adv-x="680" d="M594 710 Q603 710 603 700 L603 9 Q603 0 593 0 L530 0 Q521 0 521 10 L521 335 L159 335 L159 9 Q159 0 149 0 L86 0 Q77 0 77 10 L77 701 Q77 710 87 710 L150 710 Q159 710 159 700 L159 401 L521 401 L521 701 Q521 710 531 710 L594 710 L594 710 Z " />
<glyph glyph-name="I" unicode="I" horiz-adv-x="262" d="M98 0 Q89 0 89 10 L89 701 Q89 710 99 710 L164 710 Q173 710 173 700 L173 9 Q173 0 163 0 L98 0 L98 0 Z " />
<glyph glyph-name="Iacute" unicode="&#xcd;" horiz-adv-x="262" d="M98 0 Q89 0 89 10 L89 701 Q89 710 99 710 L164 710 Q173 710 173 700 L173 9 Q173 0 163 0 L98 0 L98 0 Z M103 762 Q94 762 98 771 L158 893 Q160 897 163 899 Q166 901 172 901 L249 901 Q260 901 252 893 L149 769 Q143 762 133 762 L103 762 L103 762 Z " />
<glyph glyph-name="Icircumflex" unicode="&#xce;" horiz-adv-x="262" d="M98 0 Q89 0 89 10 L89 701 Q89 710 99 710 L164 710 Q173 710 173 700 L173 9 Q173 0 163 0 L98 0 L98 0 Z M273 762 Q277 756 270 756 L229 756 Q221 756 215 762 L131 851 L47 762 Q41 756 33 756 L-9 756 Q-18 756 -12 762 L97 894 Q101 900 110 900 L151 900 Q158 900 164 894 L273 762 L273 762 Z " />
<glyph glyph-name="Idieresis" unicode="&#xcf;" horiz-adv-x="262" d="M98 0 Q89 0 89 10 L89 701 Q89 710 99 710 L164 710 Q173 710 173 700 L173 9 Q173 0 163 0 L98 0 L98 0 Z M52 778 Q29 778 14 794.5 Q-1 811 -1 834 Q-1 857 14 873 Q29 889 52 889 Q76 889 91 873 Q106 857 106 834 Q106 811 91 794.5 Q76 778 52 778 Z M218 778 Q195 778 180 794.5 Q165 811 165 834 Q165 857 180 873 Q195 889 218 889 Q242 889 257 873 Q272 857 272 834 Q272 811 257 794.5 Q242 778 218 778 Z " />
<glyph glyph-name="Igrave" unicode="&#xcc;" horiz-adv-x="262" d="M98 0 Q89 0 89 10 L89 701 Q89 710 99 710 L164 710 Q173 710 173 700 L173 9 Q173 0 163 0 L98 0 L98 0 Z M144 772 Q146 768 146 768 Q146 764 138 764 L108 764 Q100 764 93 772 L-10 896 Q-16 903 -5 903 L71 903 Q80 903 84 894 L144 772 L144 772 Z " />
<glyph glyph-name="J" unicode="J" horiz-adv-x="393" d="M136 -9 Q100 -9 72 -2.5 Q44 4 24 15 Q16 20 16 29 L16 95 Q16 102 19 102 Q21 102 23 100 Q25 98 30 96 Q50 85 77 77.5 Q104 70 133 70 Q178 70 208 98.5 Q238 127 238 190 L238 700 Q238 710 248 710 L312 710 Q321 710 321 700 L321 191 Q321 95 270.5 43 Q220 -9 136 -9 Z " />
<glyph glyph-name="K" unicode="K" horiz-adv-x="574" d="M555 16 Q561 10 561 6 Q561 0 547 0 L472 0 Q464 0 456 8 L160 353 L160 9 Q160 0 150 0 L85 0 Q76 0 76 10 L76 701 Q76 710 86 710 L151 710 Q160 710 160 700 L160 376 L450 703 Q456 710 466 710 L541 710 Q553 710 553 705 Q553 701 547 694 L242 366 L555 16 L555 16 Z " />
<glyph glyph-name="L" unicode="L" horiz-adv-x="472" d="M438 73 Q447 73 447 63 L447 9 Q447 0 437 0 L86 0 Q77 0 77 10 L77 701 Q77 710 87 710 L150 710 Q159 710 159 700 L159 73 L438 73 L438 73 Z " />
<glyph glyph-name="Lslash" unicode="&#x141;" horiz-adv-x="472" d="M438 73 Q447 73 447 63 L447 9 Q447 0 437 0 L86 0 Q77 0 77 10 L77 338 L30 320 Q29 319 26 319 Q22 319 22 327 L22 354 Q22 363 31 367 L77 385 L77 701 Q77 710 87 710 L150 710 Q159 710 159 700 L159 417 L225 443 Q226 444 229 444 Q233 444 233 436 L233 409 Q233 400 224 396 L159 371 L159 73 L438 73 L438 73 Z " />
<glyph glyph-name="M" unicode="M" horiz-adv-x="870" d="M842 6 Q842 0 834 0 L769 0 Q760 0 758 10 L660 584 L471 28 Q468 19 458 19 L413 19 Q404 19 401 28 L209 579 L108 9 Q106 0 96 0 L27 0 Q26 0 26 1 L155 702 Q156 711 167 711 L231 711 Q240 711 243 702 L439 142 L631 702 Q634 711 644 711 L702 711 Q710 711 713 701 L842 9 L842 6 Z " />
<glyph glyph-name="N" unicode="N" horiz-adv-x="727" d="M641 710 Q650 710 650 700 L650 9 Q650 0 640 0 L595 0 Q587 0 580 8 L154 569 L154 9 Q154 0 144 0 L86 0 Q77 0 77 10 L77 701 Q77 710 87 710 L131 710 Q139 710 146 702 L573 138 L573 701 Q573 710 583 710 L641 710 L641 710 Z " />
<glyph glyph-name="Ntilde" unicode="&#xd1;" horiz-adv-x="727" d="M641 710 Q650 710 650 700 L650 9 Q650 0 640 0 L595 0 Q587 0 580 8 L154 569 L154 9 Q154 0 144 0 L86 0 Q77 0 77 10 L77 701 Q77 710 87 710 L131 710 Q139 710 146 702 L573 138 L573 701 Q573 710 583 710 L641 710 L641 710 Z M302 837 Q281 837 268.5 823 Q256 809 254 784 Q254 779 249 779 L214 779 Q209 779 209 784 Q211 832 234 865.5 Q257 899 301 899 Q327 899 344 887.5 Q361 876 375 864 Q387 853 399 845 Q411 837 427 837 Q447 837 457.5 851.5 Q468 866 470 891 Q470 896 475 896 L511 896 Q516 896 516 891 Q514 842 491.5 809 Q469 776 430 776 Q405 776 387.5 787 Q370 798 356 810 Q343 821 331 829 Q319 837 302 837 Z " />
<glyph glyph-name="O" unicode="O" horiz-adv-x="812" d="M406 -10 Q331 -10 264 17.5 Q197 45 147 93.5 Q97 142 68 208.5 Q39 275 39 353 Q39 432 68.5 499.5 Q98 567 148 616 Q198 665 264.5 692.5 Q331 720 406 720 Q481 720 547.5 692.5 Q614 665 664.5 616 Q715 567 744.5 499.5 Q774 432 774 353 Q774 275 745 208.5 Q716 142 665.5 93.5 Q615 45 548 17.5 Q481 -10 406 -10 Z M406 66 Q466 66 519 88 Q572 110 611.5 148.5 Q651 187 673.5 239.5 Q696 292 696 353 Q696 415 673.5 468.5 Q651 522 611.5 561 Q572 600 519 622.5 Q466 645 406 645 Q346 645 293 622.5 Q240 600 201 561 Q162 522 139.5 468.5 Q117 415 117 353 Q117 292 139.5 239.5 Q162 187 201 148.5 Q240 110 293 88 Q346 66 406 66 Z " />
<glyph glyph-name="Oacute" unicode="&#xd3;" horiz-adv-x="820" d="M406 -10 Q331 -10 264 17.5 Q197 45 147 93.5 Q97 142 68 208.5 Q39 275 39 353 Q39 432 68.5 499.5 Q98 567 148 616 Q198 665 264.5 692.5 Q331 720 406 720 Q481 720 547.5 692.5 Q614 665 664.5 616 Q715 567 744.5 499.5 Q774 432 774 353 Q774 275 745 208.5 Q716 142 665.5 93.5 Q615 45 548 17.5 Q481 -10 406 -10 Z M406 66 Q466 66 519 88 Q572 110 611.5 148.5 Q651 187 673.5 239.5 Q696 292 696 353 Q696 415 673.5 468.5 Q651 522 611.5 561 Q572 600 519 622.5 Q466 645 406 645 Q346 645 293 622.5 Q240 600 201 561 Q162 522 139.5 468.5 Q117 415 117 353 Q117 292 139.5 239.5 Q162 187 201 148.5 Q240 110 293 88 Q346 66 406 66 Z M378 762 Q369 762 373 771 L433 893 Q435 897 438 899 Q441 901 447 901 L524 901 Q535 901 527 893 L424 769 Q418 762 408 762 L378 762 L378 762 Z " />
<glyph glyph-name="Ocircumflex" unicode="&#xd4;" horiz-adv-x="820" d="M406 -10 Q331 -10 264 17.5 Q197 45 147 93.5 Q97 142 68 208.5 Q39 275 39 353 Q39 432 68.5 499.5 Q98 567 148 616 Q198 665 264.5 692.5 Q331 720 406 720 Q481 720 547.5 692.5 Q614 665 664.5 616 Q715 567 744.5 499.5 Q774 432 774 353 Q774 275 745 208.5 Q716 142 665.5 93.5 Q615 45 548 17.5 Q481 -10 406 -10 Z M406 66 Q466 66 519 88 Q572 110 611.5 148.5 Q651 187 673.5 239.5 Q696 292 696 353 Q696 415 673.5 468.5 Q651 522 611.5 561 Q572 600 519 622.5 Q466 645 406 645 Q346 645 293 622.5 Q240 600 201 561 Q162 522 139.5 468.5 Q117 415 117 353 Q117 292 139.5 239.5 Q162 187 201 148.5 Q240 110 293 88 Q346 66 406 66 Z M548 762 Q552 756 545 756 L504 756 Q496 756 490 762 L406 851 L322 762 Q316 756 308 756 L266 756 Q257 756 263 762 L372 894 Q376 900 385 900 L426 900 Q433 900 439 894 L548 762 L548 762 Z " />
<glyph glyph-name="Odieresis" unicode="&#xd6;" horiz-adv-x="820" d="M406 -10 Q331 -10 264 17.5 Q197 45 147 93.5 Q97 142 68 208.5 Q39 275 39 353 Q39 432 68.5 499.5 Q98 567 148 616 Q198 665 264.5 692.5 Q331 720 406 720 Q481 720 547.5 692.5 Q614 665 664.5 616 Q715 567 744.5 499.5 Q774 432 774 353 Q774 275 745 208.5 Q716 142 665.5 93.5 Q615 45 548 17.5 Q481 -10 406 -10 Z M406 66 Q466 66 519 88 Q572 110 611.5 148.5 Q651 187 673.5 239.5 Q696 292 696 353 Q696 415 673.5 468.5 Q651 522 611.5 561 Q572 600 519 622.5 Q466 645 406 645 Q346 645 293 622.5 Q240 600 201 561 Q162 522 139.5 468.5 Q117 415 117 353 Q117 292 139.5 239.5 Q162 187 201 148.5 Q240 110 293 88 Q346 66 406 66 Z M327 778 Q304 778 289 794.5 Q274 811 274 834 Q274 857 289 873 Q304 889 327 889 Q351 889 366 873 Q381 857 381 834 Q381 811 366 794.5 Q351 778 327 778 Z M493 778 Q470 778 455 794.5 Q440 811 440 834 Q440 857 455 873 Q470 889 493 889 Q517 889 532 873 Q547 857 547 834 Q547 811 532 794.5 Q517 778 493 778 Z " />
<glyph glyph-name="Ograve" unicode="&#xd2;" horiz-adv-x="820" d="M406 -10 Q331 -10 264 17.5 Q197 45 147 93.5 Q97 142 68 208.5 Q39 275 39 353 Q39 432 68.5 499.5 Q98 567 148 616 Q198 665 264.5 692.5 Q331 720 406 720 Q481 720 547.5 692.5 Q614 665 664.5 616 Q715 567 744.5 499.5 Q774 432 774 353 Q774 275 745 208.5 Q716 142 665.5 93.5 Q615 45 548 17.5 Q481 -10 406 -10 Z M406 66 Q466 66 519 88 Q572 110 611.5 148.5 Q651 187 673.5 239.5 Q696 292 696 353 Q696 415 673.5 468.5 Q651 522 611.5 561 Q572 600 519 622.5 Q466 645 406 645 Q346 645 293 622.5 Q240 600 201 561 Q162 522 139.5 468.5 Q117 415 117 353 Q117 292 139.5 239.5 Q162 187 201 148.5 Q240 110 293 88 Q346 66 406 66 Z M419 772 Q421 768 421 768 Q421 764 413 764 L383 764 Q375 764 368 772 L265 896 Q259 903 270 903 L346 903 Q355 903 359 894 L419 772 L419 772 Z " />
<glyph glyph-name="Oslash" unicode="&#xd8;" horiz-adv-x="820" d="M607 662 Q682 614 728 534 Q774 454 774 353 Q774 275 745 208.5 Q716 142 665.5 93.5 Q615 45 548 17.5 Q481 -10 406 -10 Q314 -10 236 30 L202 -28 Q197 -36 187 -36 L165 -36 Q156 -36 161 -27 L205 48 Q130 96 84.5 174.5 Q39 253 39 353 Q39 432 68.5 499.5 Q98 567 148 616 Q198 665 264.5 692.5 Q331 720 406 720 Q499 720 576 679 L609 736 Q614 744 624 744 L646 744 Q655 744 650 735 L607 662 Z M117 353 Q117 276 151.5 214 Q186 152 244 114 L538 614 Q476 645 406 645 Q346 645 293 622.5 Q240 600 201 561 Q162 522 139.5 468.5 Q117 415 117 353 Z M406 66 Q466 66 519 88 Q572 110 611.5 148.5 Q651 187 673.5 239.5 Q696 292 696 353 Q696 431 661.5 494.5 Q627 558 569 596 L275 96 Q304 82 337.5 74 Q371 66 406 66 Z " />
<glyph glyph-name="Otilde" unicode="&#xd5;" horiz-adv-x="820" d="M406 -10 Q331 -10 264 17.5 Q197 45 147 93.5 Q97 142 68 208.5 Q39 275 39 353 Q39 432 68.5 499.5 Q98 567 148 616 Q198 665 264.5 692.5 Q331 720 406 720 Q481 720 547.5 692.5 Q614 665 664.5 616 Q715 567 744.5 499.5 Q774 432 774 353 Q774 275 745 208.5 Q716 142 665.5 93.5 Q615 45 548 17.5 Q481 -10 406 -10 Z M406 66 Q466 66 519 88 Q572 110 611.5 148.5 Q651 187 673.5 239.5 Q696 292 696 353 Q696 415 673.5 468.5 Q651 522 611.5 561 Q572 600 519 622.5 Q466 645 406 645 Q346 645 293 622.5 Q240 600 201 561 Q162 522 139.5 468.5 Q117 415 117 353 Q117 292 139.5 239.5 Q162 187 201 148.5 Q240 110 293 88 Q346 66 406 66 Z M344 837 Q323 837 310.5 823 Q298 809 296 784 Q296 779 291 779 L256 779 Q251 779 251 784 Q253 832 276 865.5 Q299 899 343 899 Q369 899 386 887.5 Q403 876 417 864 Q429 853 441 845 Q453 837 469 837 Q489 837 499.5 851.5 Q510 866 512 891 Q512 896 517 896 L553 896 Q558 896 558 891 Q556 842 533.5 809 Q511 776 472 776 Q447 776 429.5 787 Q412 798 398 810 Q385 821 373 829 Q361 837 344 837 Z " />
<glyph glyph-name="OE" unicode="&#x152;" horiz-adv-x="859" d="M525 646 L525 402 L768 402 Q777 402 777 392 L777 346 Q777 337 767 337 L525 337 L525 64 L800 64 Q809 64 809 54 L809 9 Q809 0 799 0 L444 0 Q353 0 278.5 26.5 Q204 53 151 100.5 Q98 148 69 214 Q40 280 40 360 Q40 439 69.5 503.5 Q99 568 152.5 614 Q206 660 280.5 685 Q355 710 444 710 L800 710 Q809 710 809 700 L809 655 Q809 646 799 646 L525 646 Z M444 641 Q370 641 310.5 620.5 Q251 600 209.5 563 Q168 526 145.5 474.5 Q123 423 123 360 Q123 295 145.5 242 Q168 189 209.5 150.5 Q251 112 310.5 91 Q370 70 444 70 L444 641 Z " />
<glyph glyph-name="P" unicode="P" horiz-adv-x="530" d="M245 710 Q304 710 352 695 Q400 680 433.5 652 Q467 624 485 584.5 Q503 545 503 496 Q503 448 485 408 Q467 368 434 340 Q401 312 353 296.5 Q305 281 245 281 L159 281 L159 9 Q159 0 149 0 L86 0 Q77 0 77 10 L77 701 Q77 710 87 710 L245 710 Z M244 347 Q329 347 374 387.5 Q419 428 419 496 Q419 563 373.5 603.5 Q328 644 244 644 L159 644 L159 347 L244 347 Z " />
<glyph glyph-name="Thorn" unicode="&#xde;" horiz-adv-x="530" d="M245 574 Q304 574 351.5 559 Q399 544 433 516.5 Q467 489 485 449 Q503 409 503 360 Q503 312 485 272 Q467 232 433.5 204 Q400 176 352 160.5 Q304 145 245 145 L159 145 L159 9 Q159 0 149 0 L86 0 Q77 0 77 10 L77 701 Q77 710 87 710 L150 710 Q159 710 159 700 L159 574 L245 574 Z M244 212 Q327 212 373 252.5 Q419 293 419 360 Q419 428 373 468 Q327 508 244 508 L159 508 L159 212 L244 212 Z " />
<glyph glyph-name="Q" unicode="Q" horiz-adv-x="820" d="M786 -44 Q789 -49 789 -51 Q789 -54 785 -58 L746 -92 Q743 -95 739 -95 Q736 -95 732 -91 L609 49 Q565 20 514 5 Q463 -10 406 -10 Q331 -10 264 17.5 Q197 45 147 93.5 Q97 142 68 208.5 Q39 275 39 353 Q39 432 68.5 499.5 Q98 567 148 616 Q198 665 264.5 692.5 Q331 720 406 720 Q481 720 547.5 692.5 Q614 665 664.5 616 Q715 567 744.5 499.5 Q774 432 774 353 Q774 274 744.5 207 Q715 140 664 92 L786 -44 Z M117 353 Q117 292 139.5 239.5 Q162 187 201 148.5 Q240 110 293 88 Q346 66 406 66 Q466 66 519 88 Q572 110 611.5 148.5 Q651 187 673.5 239.5 Q696 292 696 353 Q696 415 673.5 468.5 Q651 522 611.5 561 Q572 600 519 622.5 Q466 645 406 645 Q346 645 293 622.5 Q240 600 201 561 Q162 522 139.5 468.5 Q117 415 117 353 Z " />
<glyph glyph-name="R" unicode="R" horiz-adv-x="560" d="M529 15 Q533 10 533 6 Q533 0 521 0 L446 0 Q438 0 431 8 L208 319 L157 319 L157 9 Q157 0 147 0 L86 0 Q77 0 77 10 L77 701 Q77 710 87 710 L245 710 Q300 710 345 697 Q390 684 421.5 659.5 Q453 635 470 600 Q487 565 487 521 Q487 442 435 390 Q383 338 292 327 L529 15 Z M157 381 L242 381 Q320 381 364.5 417 Q409 453 409 515 Q409 575 364.5 611 Q320 647 242 647 L157 647 L157 381 Z " />
<glyph glyph-name="S" unicode="S" horiz-adv-x="513" d="M234 -10 Q183 -10 131.5 2 Q80 14 43 34 Q36 39 36 47 L36 108 Q36 114 39 114 Q42 114 44 113 Q86 87 133.5 73.5 Q181 60 229 60 Q302 60 348 93.5 Q394 127 394 187 Q394 215 382 236.5 Q370 258 349.5 275.5 Q329 293 301 307.5 Q273 322 241 336 Q203 353 168 371.5 Q133 390 106.5 414 Q80 438 64 469 Q48 500 48 541 Q48 581 64 614 Q80 647 109 670.5 Q138 694 178 707 Q218 720 266 720 Q310 720 350.5 712 Q391 704 423 690 Q431 687 431 676 L431 621 Q431 614 428 614 Q425 614 423 615 Q391 631 351 640.5 Q311 650 271 650 Q209 650 169.5 621 Q130 592 130 544 Q130 515 143 494 Q156 473 177.5 456.5 Q199 440 227 426.5 Q255 413 284 400 Q325 382 360 362 Q395 342 421 317 Q447 292 461.5 261.5 Q476 231 476 191 Q476 147 458.5 110 Q441 73 409 46.5 Q377 20 332.5 5 Q288 -10 234 -10 Z " />
<glyph glyph-name="Scaron" unicode="&#x160;" horiz-adv-x="513" d="M234 -10 Q183 -10 131.5 2 Q80 14 43 34 Q36 39 36 47 L36 108 Q36 114 39 114 Q42 114 44 113 Q86 87 133.5 73.5 Q181 60 229 60 Q302 60 348 93.5 Q394 127 394 187 Q394 215 382 236.5 Q370 258 349.5 275.5 Q329 293 301 307.5 Q273 322 241 336 Q203 353 168 371.5 Q133 390 106.5 414 Q80 438 64 469 Q48 500 48 541 Q48 581 64 614 Q80 647 109 670.5 Q138 694 178 707 Q218 720 266 720 Q310 720 350.5 712 Q391 704 423 690 Q431 687 431 676 L431 621 Q431 614 428 614 Q425 614 423 615 Q391 631 351 640.5 Q311 650 271 650 Q209 650 169.5 621 Q130 592 130 544 Q130 515 143 494 Q156 473 177.5 456.5 Q199 440 227 426.5 Q255 413 284 400 Q325 382 360 362 Q395 342 421 317 Q447 292 461.5 261.5 Q476 231 476 191 Q476 147 458.5 110 Q441 73 409 46.5 Q377 20 332.5 5 Q288 -10 234 -10 Z M394 900 Q404 900 396 892 L285 763 Q279 756 269 756 L243 756 Q235 756 227 764 L116 893 Q110 900 120 900 L158 900 Q163 900 166 899 Q169 898 174 893 L258 808 L341 894 Q347 900 357 900 L394 900 L394 900 Z " />
<glyph glyph-name="T" unicode="T" horiz-adv-x="527" d="M501 710 Q510 710 510 700 L510 648 Q510 639 500 639 L305 639 L305 9 Q305 0 295 0 L231 0 Q222 0 222 10 L222 639 L26 639 Q17 639 17 649 L17 701 Q17 710 27 710 L501 710 L501 710 Z " />
<glyph glyph-name="U" unicode="U" horiz-adv-x="663" d="M329 -10 Q274 -10 227 6.5 Q180 23 146 57.5 Q112 92 93 145 Q74 198 74 270 L74 701 Q74 710 84 710 L147 710 Q156 710 156 700 L156 264 Q156 210 169 172 Q182 134 205.5 109.5 Q229 85 261.5 73.5 Q294 62 332 62 Q370 62 402 73.5 Q434 85 457.5 109.5 Q481 134 494 172 Q507 210 507 264 L507 701 Q507 710 517 710 L580 710 Q589 710 589 700 L589 270 Q589 198 569.5 145 Q550 92 515.5 57.5 Q481 23 433 6.5 Q385 -10 329 -10 Z " />
<glyph glyph-name="Uacute" unicode="&#xda;" horiz-adv-x="663" d="M329 -10 Q274 -10 227 6.5 Q180 23 146 57.5 Q112 92 93 145 Q74 198 74 270 L74 701 Q74 710 84 710 L147 710 Q156 710 156 700 L156 264 Q156 210 169 172 Q182 134 205.5 109.5 Q229 85 261.5 73.5 Q294 62 332 62 Q370 62 402 73.5 Q434 85 457.5 109.5 Q481 134 494 172 Q507 210 507 264 L507 701 Q507 710 517 710 L580 710 Q589 710 589 700 L589 270 Q589 198 569.5 145 Q550 92 515.5 57.5 Q481 23 433 6.5 Q385 -10 329 -10 Z M303 762 Q294 762 298 771 L358 893 Q360 897 363 899 Q366 901 372 901 L449 901 Q460 901 452 893 L349 769 Q343 762 333 762 L303 762 L303 762 Z " />
<glyph glyph-name="Ucircumflex" unicode="&#xdb;" horiz-adv-x="663" d="M329 -10 Q274 -10 227 6.5 Q180 23 146 57.5 Q112 92 93 145 Q74 198 74 270 L74 701 Q74 710 84 710 L147 710 Q156 710 156 700 L156 264 Q156 210 169 172 Q182 134 205.5 109.5 Q229 85 261.5 73.5 Q294 62 332 62 Q370 62 402 73.5 Q434 85 457.5 109.5 Q481 134 494 172 Q507 210 507 264 L507 701 Q507 710 517 710 L580 710 Q589 710 589 700 L589 270 Q589 198 569.5 145 Q550 92 515.5 57.5 Q481 23 433 6.5 Q385 -10 329 -10 Z M473 762 Q477 756 470 756 L429 756 Q421 756 415 762 L331 851 L247 762 Q241 756 233 756 L191 756 Q182 756 188 762 L297 894 Q301 900 310 900 L351 900 Q358 900 364 894 L473 762 L473 762 Z " />
<glyph glyph-name="Udieresis" unicode="&#xdc;" horiz-adv-x="663" d="M329 -10 Q274 -10 227 6.5 Q180 23 146 57.5 Q112 92 93 145 Q74 198 74 270 L74 701 Q74 710 84 710 L147 710 Q156 710 156 700 L156 264 Q156 210 169 172 Q182 134 205.5 109.5 Q229 85 261.5 73.5 Q294 62 332 62 Q370 62 402 73.5 Q434 85 457.5 109.5 Q481 134 494 172 Q507 210 507 264 L507 701 Q507 710 517 710 L580 710 Q589 710 589 700 L589 270 Q589 198 569.5 145 Q550 92 515.5 57.5 Q481 23 433 6.5 Q385 -10 329 -10 Z M252 778 Q229 778 214 794.5 Q199 811 199 834 Q199 857 214 873 Q229 889 252 889 Q276 889 291 873 Q306 857 306 834 Q306 811 291 794.5 Q276 778 252 778 Z M418 778 Q395 778 380 794.5 Q365 811 365 834 Q365 857 380 873 Q395 889 418 889 Q442 889 457 873 Q472 857 472 834 Q472 811 457 794.5 Q442 778 418 778 Z " />
<glyph glyph-name="Ugrave" unicode="&#xd9;" horiz-adv-x="663" d="M329 -10 Q274 -10 227 6.5 Q180 23 146 57.5 Q112 92 93 145 Q74 198 74 270 L74 701 Q74 710 84 710 L147 710 Q156 710 156 700 L156 264 Q156 210 169 172 Q182 134 205.5 109.5 Q229 85 261.5 73.5 Q294 62 332 62 Q370 62 402 73.5 Q434 85 457.5 109.5 Q481 134 494 172 Q507 210 507 264 L507 701 Q507 710 517 710 L580 710 Q589 710 589 700 L589 270 Q589 198 569.5 145 Q550 92 515.5 57.5 Q481 23 433 6.5 Q385 -10 329 -10 Z M344 772 Q346 768 346 768 Q346 764 338 764 L308 764 Q300 764 293 772 L190 896 Q184 903 195 903 L271 903 Q280 903 284 894 L344 772 L344 772 Z " />
<glyph glyph-name="V" unicode="V" horiz-adv-x="660" d="M639 710 Q648 710 644 700 L359 1 Q356 -7 346 -7 L306 -7 Q303 -7 302 -4 L14 706 Q13 710 17 710 L91 710 Q100 710 104 701 L332 111 L560 702 Q563 710 573 710 L639 710 L639 710 Z " />
<glyph glyph-name="W" unicode="W" horiz-adv-x="951" d="M927 710 Q935 710 933 700 L730 8 Q727 -1 717 -1 L662 -1 Q652 -1 650 9 L476 582 L301 8 Q298 -1 288 -1 L233 -1 Q223 -1 221 9 L15 701 Q14 703 14 705 Q14 710 22 710 L88 710 Q97 710 100 700 L265 114 L440 701 Q443 710 453 710 L503 710 Q512 710 515 700 L691 112 L855 701 Q856 710 867 710 L927 710 L927 710 Z " />
<glyph glyph-name="X" unicode="X" horiz-adv-x="635" d="M625 7 Q627 3 626.5 1.5 Q626 0 620 0 L541 0 Q533 0 526 8 L317 302 L110 7 Q106 0 95 0 L16 0 Q6 0 13 8 L271 361 L19 703 Q17 707 17.5 708.5 Q18 710 24 710 L106 710 Q114 710 121 702 L321 423 L516 703 Q520 710 531 710 L611 710 Q621 710 614 702 L367 362 L625 7 L625 7 Z " />
<glyph glyph-name="Y" unicode="Y" horiz-adv-x="574" d="M254 0 Q245 0 245 10 L245 298 L13 692 Q9 700 9 702 Q9 710 24 710 L84 710 Q93 710 98 701 L290 367 L479 702 Q481 706 484 708 Q487 710 493 710 L550 710 Q564 710 564 702 Q564 698 560 691 L328 298 L328 9 Q328 0 318 0 L254 0 L254 0 Z " />
<glyph glyph-name="Yacute" unicode="&#xdd;" horiz-adv-x="574" d="M254 0 Q245 0 245 10 L245 298 L13 692 Q9 700 9 702 Q9 710 24 710 L84 710 Q93 710 98 701 L290 367 L479 702 Q481 706 484 708 Q487 710 493 710 L550 710 Q564 710 564 702 Q564 698 560 691 L328 298 L328 9 Q328 0 318 0 L254 0 L254 0 Z M259 762 Q250 762 254 771 L314 893 Q316 897 319 899 Q322 901 328 901 L405 901 Q416 901 408 893 L305 769 Q299 762 289 762 L259 762 L259 762 Z " />
<glyph glyph-name="Ydieresis" unicode="&#x178;" horiz-adv-x="574" d="M254 0 Q245 0 245 10 L245 298 L13 692 Q9 700 9 702 Q9 710 24 710 L84 710 Q93 710 98 701 L290 367 L479 702 Q481 706 484 708 Q487 710 493 710 L550 710 Q564 710 564 702 Q564 698 560 691 L328 298 L328 9 Q328 0 318 0 L254 0 L254 0 Z M208 778 Q185 778 170 794.5 Q155 811 155 834 Q155 857 170 873 Q185 889 208 889 Q232 889 247 873 Q262 857 262 834 Q262 811 247 794.5 Q232 778 208 778 Z M374 778 Q351 778 336 794.5 Q321 811 321 834 Q321 857 336 873 Q351 889 374 889 Q398 889 413 873 Q428 857 428 834 Q428 811 413 794.5 Q398 778 374 778 Z " />
<glyph glyph-name="Z" unicode="Z" horiz-adv-x="574" d="M520 66 Q529 66 529 56 L529 9 Q529 0 519 0 L47 0 Q38 0 38 10 L38 29 Q38 38 43 46 L421 644 L68 644 Q59 644 59 654 L59 701 Q59 710 69 710 L510 710 Q519 710 519 700 L519 681 Q519 671 514 664 L135 66 L520 66 Z " />
<glyph glyph-name="Zcaron" unicode="&#x17d;" horiz-adv-x="574" d="M520 66 Q529 66 529 56 L529 9 Q529 0 519 0 L47 0 Q38 0 38 10 L38 29 Q38 38 43 46 L421 644 L68 644 Q59 644 59 654 L59 701 Q59 710 69 710 L510 710 Q519 710 519 700 L519 681 Q519 671 514 664 L135 66 L520 66 Z M426 900 Q436 900 428 892 L317 763 Q311 756 301 756 L275 756 Q267 756 259 764 L148 893 Q142 900 152 900 L190 900 Q195 900 198 899 Q201 898 206 893 L290 808 L373 894 Q379 900 389 900 L426 900 L426 900 Z " />
<glyph glyph-name="a" unicode="a" horiz-adv-x="613" d="M529 480 Q538 480 538 470 L538 9 Q538 0 528 0 L467 0 Q458 0 458 10 L458 92 Q433 42 384.5 16.5 Q336 -9 280 -9 Q237 -9 195 8 Q153 25 119.5 57.5 Q86 90 65.5 136.5 Q45 183 45 242 Q45 300 65 346 Q85 392 118 424 Q151 456 193.5 473 Q236 490 281 490 Q338 490 384.5 466.5 Q431 443 457 393 L458 471 Q458 480 468 480 L529 480 Z M294 63 Q328 63 358 75.5 Q388 88 410.5 111 Q433 134 446 167 Q459 200 459 241 Q459 281 446 313.5 Q433 346 411 368.5 Q389 391 358.5 403.5 Q328 416 294 416 Q259 416 229 403.5 Q199 391 176 368 Q153 345 140 313 Q127 281 127 241 Q127 200 140.5 167 Q154 134 177.5 111 Q201 88 231 75.5 Q261 63 294 63 Z " />
<glyph glyph-name="aacute" unicode="&#xe1;" horiz-adv-x="609" d="M529 480 Q538 480 538 470 L538 9 Q538 0 528 0 L467 0 Q458 0 458 10 L458 92 Q433 42 384.5 16.5 Q336 -9 280 -9 Q237 -9 195 8 Q153 25 119.5 57.5 Q86 90 65.5 136.5 Q45 183 45 242 Q45 300 65 346 Q85 392 118 424 Q151 456 193.5 473 Q236 490 281 490 Q338 490 384.5 466.5 Q431 443 457 393 L458 471 Q458 480 468 480 L529 480 Z M294 63 Q328 63 358 75.5 Q388 88 410.5 111 Q433 134 446 167 Q459 200 459 241 Q459 281 446 313.5 Q433 346 411 368.5 Q389 391 358.5 403.5 Q328 416 294 416 Q259 416 229 403.5 Q199 391 176 368 Q153 345 140 313 Q127 281 127 241 Q127 200 140.5 167 Q154 134 177.5 111 Q201 88 231 75.5 Q261 63 294 63 Z M262 559 Q253 559 258 568 L362 763 Q366 770 376 768 L434 749 Q444 746 437 738 L313 566 Q309 559 298 559 L262 559 L262 559 Z " />
<glyph glyph-name="abreve" unicode="&#x103;" horiz-adv-x="609" d="M529 480 Q538 480 538 470 L538 9 Q538 0 528 0 L467 0 Q458 0 458 10 L458 92 Q433 42 384.5 16.5 Q336 -9 280 -9 Q237 -9 195 8 Q153 25 119.5 57.5 Q86 90 65.5 136.5 Q45 183 45 242 Q45 300 65 346 Q85 392 118 424 Q151 456 193.5 473 Q236 490 281 490 Q338 490 384.5 466.5 Q431 443 457 393 L458 471 Q458 480 468 480 L529 480 Z M294 63 Q328 63 358 75.5 Q388 88 410.5 111 Q433 134 446 167 Q459 200 459 241 Q459 281 446 313.5 Q433 346 411 368.5 Q389 391 358.5 403.5 Q328 416 294 416 Q259 416 229 403.5 Q199 391 176 368 Q153 345 140 313 Q127 281 127 241 Q127 200 140.5 167 Q154 134 177.5 111 Q201 88 231 75.5 Q261 63 294 63 Z M310 591 Q257 591 220.5 626.5 Q184 662 179 719 Q179 727 187 727 L214 727 Q222 727 223 719 Q227 684 250 663.5 Q273 643 310 643 Q346 643 369 663.5 Q392 684 397 719 Q399 727 406 727 L432 727 Q440 727 440 719 Q435 662 399.5 626.5 Q364 591 310 591 Z " />
<glyph glyph-name="acircumflex" unicode="&#xe2;" horiz-adv-x="609" d="M529 480 Q538 480 538 470 L538 9 Q538 0 528 0 L467 0 Q458 0 458 10 L458 92 Q433 42 384.5 16.5 Q336 -9 280 -9 Q237 -9 195 8 Q153 25 119.5 57.5 Q86 90 65.5 136.5 Q45 183 45 242 Q45 300 65 346 Q85 392 118 424 Q151 456 193.5 473 Q236 490 281 490 Q338 490 384.5 466.5 Q431 443 457 393 L458 471 Q458 480 468 480 L529 480 Z M294 63 Q328 63 358 75.5 Q388 88 410.5 111 Q433 134 446 167 Q459 200 459 241 Q459 281 446 313.5 Q433 346 411 368.5 Q389 391 358.5 403.5 Q328 416 294 416 Q259 416 229 403.5 Q199 391 176 368 Q153 345 140 313 Q127 281 127 241 Q127 200 140.5 167 Q154 134 177.5 111 Q201 88 231 75.5 Q261 63 294 63 Z M453 567 Q456 560 449 560 L407 560 Q400 560 394 567 L311 689 L228 567 Q224 560 215 560 L173 560 Q165 560 169 567 L280 742 Q283 749 292 749 L330 749 Q338 749 342 742 L453 567 L453 567 Z " />
<glyph glyph-name="adieresis" unicode="&#xe4;" horiz-adv-x="609" d="M529 480 Q538 480 538 470 L538 9 Q538 0 528 0 L467 0 Q458 0 458 10 L458 92 Q433 42 384.5 16.5 Q336 -9 280 -9 Q237 -9 195 8 Q153 25 119.5 57.5 Q86 90 65.5 136.5 Q45 183 45 242 Q45 300 65 346 Q85 392 118 424 Q151 456 193.5 473 Q236 490 281 490 Q338 490 384.5 466.5 Q431 443 457 393 L458 471 Q458 480 468 480 L529 480 Z M294 63 Q328 63 358 75.5 Q388 88 410.5 111 Q433 134 446 167 Q459 200 459 241 Q459 281 446 313.5 Q433 346 411 368.5 Q389 391 358.5 403.5 Q328 416 294 416 Q259 416 229 403.5 Q199 391 176 368 Q153 345 140 313 Q127 281 127 241 Q127 200 140.5 167 Q154 134 177.5 111 Q201 88 231 75.5 Q261 63 294 63 Z M234 634 Q215 634 203 647 Q191 660 191 679 Q191 697 203 710.5 Q215 724 234 724 Q254 724 265.5 710.5 Q277 697 277 679 Q277 660 265.5 647 Q254 634 234 634 Z M385 634 Q366 634 354 647 Q342 660 342 679 Q342 697 354 710.5 Q366 724 385 724 Q405 724 416.5 710.5 Q428 697 428 679 Q428 660 416.5 647 Q405 634 385 634 Z " />
<glyph glyph-name="agrave" unicode="&#xe0;" horiz-adv-x="609" d="M529 480 Q538 480 538 470 L538 9 Q538 0 528 0 L467 0 Q458 0 458 10 L458 92 Q433 42 384.5 16.5 Q336 -9 280 -9 Q237 -9 195 8 Q153 25 119.5 57.5 Q86 90 65.5 136.5 Q45 183 45 242 Q45 300 65 346 Q85 392 118 424 Q151 456 193.5 473 Q236 490 281 490 Q338 490 384.5 466.5 Q431 443 457 393 L458 471 Q458 480 468 480 L529 480 Z M294 63 Q328 63 358 75.5 Q388 88 410.5 111 Q433 134 446 167 Q459 200 459 241 Q459 281 446 313.5 Q433 346 411 368.5 Q389 391 358.5 403.5 Q328 416 294 416 Q259 416 229 403.5 Q199 391 176 368 Q153 345 140 313 Q127 281 127 241 Q127 200 140.5 167 Q154 134 177.5 111 Q201 88 231 75.5 Q261 63 294 63 Z M335 567 Q337 563 337 563 Q337 559 329 559 L293 559 Q285 559 278 567 L154 739 Q152 743 152 744 Q152 748 159 749 L217 768 Q219 769 222 769 Q227 769 231 762 L335 567 L335 567 Z " />
<glyph glyph-name="aring" unicode="&#xe5;" horiz-adv-x="609" d="M529 480 Q538 480 538 470 L538 9 Q538 0 528 0 L467 0 Q458 0 458 10 L458 92 Q433 42 384.5 16.5 Q336 -9 280 -9 Q237 -9 195 8 Q153 25 119.5 57.5 Q86 90 65.5 136.5 Q45 183 45 242 Q45 300 65 346 Q85 392 118 424 Q151 456 193.5 473 Q236 490 281 490 Q338 490 384.5 466.5 Q431 443 457 393 L458 471 Q458 480 468 480 L529 480 Z M294 63 Q328 63 358 75.5 Q388 88 410.5 111 Q433 134 446 167 Q459 200 459 241 Q459 281 446 313.5 Q433 346 411 368.5 Q389 391 358.5 403.5 Q328 416 294 416 Q259 416 229 403.5 Q199 391 176 368 Q153 345 140 313 Q127 281 127 241 Q127 200 140.5 167 Q154 134 177.5 111 Q201 88 231 75.5 Q261 63 294 63 Z M310 565 Q291 565 274 572 Q257 579 244.5 591.5 Q232 604 225 621 Q218 638 218 658 Q218 698 245 722.5 Q272 747 310 747 Q347 747 374.5 722.5 Q402 698 402 658 Q402 617 375 591 Q348 565 310 565 Z M310 601 Q333 601 348 617 Q363 633 363 658 Q363 682 348 697.5 Q333 713 310 713 Q287 713 272 697 Q257 681 257 658 Q257 633 272 617 Q287 601 310 601 Z " />
<glyph glyph-name="atilde" unicode="&#xe3;" horiz-adv-x="609" d="M529 480 Q538 480 538 470 L538 9 Q538 0 528 0 L467 0 Q458 0 458 10 L458 92 Q433 42 384.5 16.5 Q336 -9 280 -9 Q237 -9 195 8 Q153 25 119.5 57.5 Q86 90 65.5 136.5 Q45 183 45 242 Q45 300 65 346 Q85 392 118 424 Q151 456 193.5 473 Q236 490 281 490 Q338 490 384.5 466.5 Q431 443 457 393 L458 471 Q458 480 468 480 L529 480 Z M294 63 Q328 63 358 75.5 Q388 88 410.5 111 Q433 134 446 167 Q459 200 459 241 Q459 281 446 313.5 Q433 346 411 368.5 Q389 391 358.5 403.5 Q328 416 294 416 Q259 416 229 403.5 Q199 391 176 368 Q153 345 140 313 Q127 281 127 241 Q127 200 140.5 167 Q154 134 177.5 111 Q201 88 231 75.5 Q261 63 294 63 Z M377 589 Q352 589 334.5 601.5 Q317 614 303 628 Q291 641 278.5 650 Q266 659 249 659 Q228 659 215.5 641.5 Q203 624 202 592 Q202 587 197 587 L161 587 Q156 587 156 592 Q158 646 180.5 683.5 Q203 721 248 721 Q274 721 291.5 708 Q309 695 323 681 Q335 669 346.5 660 Q358 651 374 651 Q394 651 405 667 Q416 683 417 711 Q417 716 422 716 L459 716 Q464 716 464 711 Q462 659 439 624 Q416 589 377 589 Z " />
<glyph glyph-name="ae" unicode="&#xe6;" horiz-adv-x="794" d="M565 490 Q606 490 640.5 476 Q675 462 699.5 436.5 Q724 411 738 374 Q752 337 752 292 Q752 267 749 248 Q747 239 737 239 L432 239 Q433 194 446 160.5 Q459 127 480.5 105 Q502 83 530.5 72 Q559 61 593 61 Q631 61 670.5 73.5 Q710 86 737 108 Q744 114 744 104 L744 49 Q744 44 742.5 41 Q741 38 736 34 Q710 17 668.5 3.5 Q627 -10 586 -10 Q519 -10 468 18 Q417 46 388 97 Q356 43 305 17 Q254 -9 198 -9 Q165 -9 137.5 0.5 Q110 10 89.5 27.5 Q69 45 57.5 70 Q46 95 46 127 Q46 166 63 195 Q80 224 109 243.5 Q138 263 178 273 Q218 283 264 284 Q287 284 310.5 283 Q334 282 351 281 L351 295 Q351 364 315 393.5 Q279 423 209 423 Q177 423 144.5 415.5 Q112 408 83 395 Q79 393 79 393 Q75 393 75 401 L75 452 Q75 461 84 465 Q114 477 150 483.5 Q186 490 221 490 Q290 490 333 470 Q376 450 399 406 Q428 446 470.5 468 Q513 490 565 490 Z M566 419 Q516 419 481.5 388 Q447 357 436 298 L680 298 Q677 353 646.5 386 Q616 419 566 419 Z M214 58 Q237 58 261.5 67 Q286 76 306 95 Q326 114 338.5 141.5 Q351 169 351 207 L351 223 Q336 225 314.5 226 Q293 227 273 227 Q206 227 166 203.5 Q126 180 126 133 Q126 96 151.5 77 Q177 58 214 58 Z " />
<glyph glyph-name="b" unicode="b" horiz-adv-x="613" d="M335 490 Q381 490 423 473 Q465 456 497.5 424 Q530 392 549 346 Q568 300 568 242 Q568 183 548 136.5 Q528 90 495.5 57.5 Q463 25 421 8 Q379 -9 336 -9 Q310 -9 283.5 -2.5 Q257 4 233 16.5 Q209 29 189 47.5 Q169 66 156 90 L156 9 Q156 0 146 0 L85 0 Q76 0 76 10 L76 739 Q76 748 86 748 L147 748 Q156 748 156 738 L156 393 Q169 418 189 436.5 Q209 455 233 467 Q257 479 283 484.5 Q309 490 335 490 Z M319 63 Q352 63 382.5 75.5 Q413 88 436 111 Q459 134 472.5 167 Q486 200 486 241 Q486 281 473 313 Q460 345 437.5 368 Q415 391 384.5 403.5 Q354 416 319 416 Q285 416 255 403.5 Q225 391 203 368.5 Q181 346 168 313.5 Q155 281 155 241 Q155 200 168 167 Q181 134 203.5 111 Q226 88 256 75.5 Q286 63 319 63 Z " />
<glyph glyph-name="c" unicode="c" horiz-adv-x="475" d="M306 -9 Q253 -9 206 8.5 Q159 26 123.5 58 Q88 90 67 136.5 Q46 183 46 241 Q46 298 66 343.5 Q86 389 120.5 421.5 Q155 454 202.5 471.5 Q250 489 306 489 Q340 489 371 483.5 Q402 478 426 468 Q430 466 432 463 Q434 460 434 454 L434 412 Q434 397 424 397 Q420 397 414 400 Q371 417 317 417 Q278 417 243.5 404.5 Q209 392 183.5 369 Q158 346 143.5 313.5 Q129 281 129 240 Q129 198 144 165.5 Q159 133 185 110.5 Q211 88 246 76 Q281 64 320 64 Q348 64 373.5 69 Q399 74 421 82 Q427 84 430 84 Q440 84 440 68 L440 26 Q440 17 431 13 Q406 3 373.5 -3 Q341 -9 306 -9 Z " />
<glyph glyph-name="ccedilla" unicode="&#xe7;" horiz-adv-x="474" d="M421 82 Q427 84 430 84 Q440 84 440 68 L440 26 Q440 17 431 13 Q406 3 373.5 -3 Q341 -9 306 -9 L284 -42 L289 -42 Q323 -42 345 -59 Q367 -76 367 -105 Q367 -140 338 -160 Q309 -180 267 -180 Q247 -180 230 -176.5 Q213 -173 199 -168 Q192 -165 192 -156 L192 -130 Q192 -122 199 -125 Q212 -131 227.5 -135 Q243 -139 261 -139 Q283 -139 298.5 -130.5 Q314 -122 314 -107 Q314 -92 300.5 -84 Q287 -76 267 -76 Q255 -76 242.5 -78 Q230 -80 221 -84 L218 -81 L265 -6 Q219 0 179 19.5 Q139 39 109.5 71 Q80 103 63 145.5 Q46 188 46 241 Q46 298 66 343.5 Q86 389 120.5 421.5 Q155 454 202.5 471.5 Q250 489 306 489 Q340 489 371 483.5 Q402 478 426 468 Q430 466 432 463 Q434 460 434 454 L434 412 Q434 397 424 397 Q420 397 414 400 Q371 417 317 417 Q278 417 243.5 404.5 Q209 392 183.5 369 Q158 346 143.5 313.5 Q129 281 129 240 Q129 198 144 165.5 Q159 133 185 110.5 Q211 88 246 76 Q281 64 320 64 Q348 64 373.5 69 Q399 74 421 82 Z " />
<glyph glyph-name="d" unicode="d" horiz-adv-x="613" d="M529 748 Q538 748 538 738 L538 9 Q538 0 528 0 L466 0 Q457 0 457 10 L457 89 Q444 65 424 46.5 Q404 28 380 15.5 Q356 3 329.5 -3 Q303 -9 277 -9 Q233 -9 191.5 8 Q150 25 117.5 57.5 Q85 90 65 136.5 Q45 183 45 242 Q45 300 64 346 Q83 392 115.5 424 Q148 456 190 473 Q232 490 278 490 Q304 490 330 484.5 Q356 479 380 467 Q404 455 423.5 437 Q443 419 457 394 L457 739 Q457 748 467 748 L529 748 Z M294 63 Q327 63 357 75.5 Q387 88 409.5 111 Q432 134 445.5 167 Q459 200 459 241 Q459 281 446 313.5 Q433 346 410.5 368.5 Q388 391 358 403.5 Q328 416 294 416 Q259 416 228.5 403.5 Q198 391 175.5 368 Q153 345 140 313 Q127 281 127 241 Q127 200 140.5 167 Q154 134 177 111 Q200 88 230.5 75.5 Q261 63 294 63 Z " />
<glyph glyph-name="eth" unicode="&#xf0;" horiz-adv-x="594" d="M365 622 Q417 577 452.5 531 Q488 485 509.5 440 Q531 395 540 351 Q549 307 549 265 Q549 199 528.5 148 Q508 97 473.5 62 Q439 27 393.5 8.5 Q348 -10 298 -10 Q248 -10 202 8 Q156 26 121.5 59 Q87 92 66.5 137.5 Q46 183 46 238 Q46 293 65.5 338 Q85 383 117.5 415 Q150 447 192.5 464.5 Q235 482 282 482 Q338 482 384 458 Q430 434 461 389 L463 391 Q447 433 406 484.5 Q365 536 305 587 L195 523 Q194 523 194 524 L176 554 Q172 561 179 565 L268 616 Q223 649 171 678 L169 678 Q163 682 171 687 L220 716 Q224 718 227 718 Q231 718 237 715 Q263 699 286 683.5 Q309 668 329 651 L434 711 Q438 713 438 713 Q442 713 445 708 L457 684 Q459 682 459 680 Q459 676 454 673 L365 622 Z M299 62 Q335 62 366 75 Q397 88 420.5 111.5 Q444 135 457 166.5 Q470 198 470 236 Q470 274 456.5 306 Q443 338 419 361 Q395 384 363.5 397 Q332 410 296 410 Q261 410 230 397.5 Q199 385 176 362.5 Q153 340 139.5 308 Q126 276 126 238 Q126 200 139.5 168 Q153 136 176.5 112.5 Q200 89 231.5 75.5 Q263 62 299 62 Z " />
<glyph glyph-name="e" unicode="e" horiz-adv-x="525" d="M475 114 Q479 114 479 106 L479 57 Q479 52 477.5 49 Q476 46 471 42 Q438 18 392.5 4.5 Q347 -9 297 -9 Q241 -9 194.5 9 Q148 27 115 60 Q82 93 63.5 138.5 Q45 184 45 240 Q45 295 63.5 341 Q82 387 114 420 Q146 453 188.5 471.5 Q231 490 280 490 Q323 490 360.5 475.5 Q398 461 425.5 434 Q453 407 468.5 367.5 Q484 328 484 277 Q484 252 478.5 246 Q473 240 460 240 L127 240 Q128 197 141.5 163.5 Q155 130 178.5 107 Q202 84 234.5 72 Q267 60 306 60 Q359 60 410 80 Q439 91 454.5 102.5 Q470 114 475 114 Z M280 420 Q226 420 186.5 388 Q147 356 133 299 L415 299 Q410 352 374 386 Q338 420 280 420 Z " />
<glyph glyph-name="eacute" unicode="&#xe9;" horiz-adv-x="535" d="M475 114 Q479 114 479 106 L479 57 Q479 52 477.5 49 Q476 46 471 42 Q438 18 392.5 4.5 Q347 -9 297 -9 Q241 -9 194.5 9 Q148 27 115 60 Q82 93 63.5 138.5 Q45 184 45 240 Q45 295 63.5 341 Q82 387 114 420 Q146 453 188.5 471.5 Q231 490 280 490 Q323 490 360.5 475.5 Q398 461 425.5 434 Q453 407 468.5 367.5 Q484 328 484 277 Q484 252 478.5 246 Q473 240 460 240 L127 240 Q128 197 141.5 163.5 Q155 130 178.5 107 Q202 84 234.5 72 Q267 60 306 60 Q359 60 410 80 Q439 91 454.5 102.5 Q470 114 475 114 Z M280 420 Q226 420 186.5 388 Q147 356 133 299 L415 299 Q410 352 374 386 Q338 420 280 420 Z M220 563 Q211 563 216 572 L320 767 Q324 774 334 772 L392 753 Q402 750 395 742 L271 570 Q267 563 256 563 L220 563 L220 563 Z " />
<glyph glyph-name="ecircumflex" unicode="&#xea;" horiz-adv-x="535" d="M475 114 Q479 114 479 106 L479 57 Q479 52 477.5 49 Q476 46 471 42 Q438 18 392.5 4.5 Q347 -9 297 -9 Q241 -9 194.5 9 Q148 27 115 60 Q82 93 63.5 138.5 Q45 184 45 240 Q45 295 63.5 341 Q82 387 114 420 Q146 453 188.5 471.5 Q231 490 280 490 Q323 490 360.5 475.5 Q398 461 425.5 434 Q453 407 468.5 367.5 Q484 328 484 277 Q484 252 478.5 246 Q473 240 460 240 L127 240 Q128 197 141.5 163.5 Q155 130 178.5 107 Q202 84 234.5 72 Q267 60 306 60 Q359 60 410 80 Q439 91 454.5 102.5 Q470 114 475 114 Z M280 420 Q226 420 186.5 388 Q147 356 133 299 L415 299 Q410 352 374 386 Q338 420 280 420 Z M411 571 Q414 564 407 564 L365 564 Q358 564 352 571 L269 693 L186 571 Q182 564 173 564 L131 564 Q123 564 127 571 L238 746 Q241 753 250 753 L288 753 Q296 753 300 746 L411 571 L411 571 Z " />
<glyph glyph-name="edieresis" unicode="&#xeb;" horiz-adv-x="535" d="M475 114 Q479 114 479 106 L479 57 Q479 52 477.5 49 Q476 46 471 42 Q438 18 392.5 4.5 Q347 -9 297 -9 Q241 -9 194.5 9 Q148 27 115 60 Q82 93 63.5 138.5 Q45 184 45 240 Q45 295 63.5 341 Q82 387 114 420 Q146 453 188.5 471.5 Q231 490 280 490 Q323 490 360.5 475.5 Q398 461 425.5 434 Q453 407 468.5 367.5 Q484 328 484 277 Q484 252 478.5 246 Q473 240 460 240 L127 240 Q128 197 141.5 163.5 Q155 130 178.5 107 Q202 84 234.5 72 Q267 60 306 60 Q359 60 410 80 Q439 91 454.5 102.5 Q470 114 475 114 Z M280 420 Q226 420 186.5 388 Q147 356 133 299 L415 299 Q410 352 374 386 Q338 420 280 420 Z M192 638 Q173 638 161 651 Q149 664 149 683 Q149 701 161 714.5 Q173 728 192 728 Q212 728 223.5 714.5 Q235 701 235 683 Q235 664 223.5 651 Q212 638 192 638 Z M343 638 Q324 638 312 651 Q300 664 300 683 Q300 701 312 714.5 Q324 728 343 728 Q363 728 374.5 714.5 Q386 701 386 683 Q386 664 374.5 651 Q363 638 343 638 Z " />
<glyph glyph-name="egrave" unicode="&#xe8;" horiz-adv-x="535" d="M475 114 Q479 114 479 106 L479 57 Q479 52 477.5 49 Q476 46 471 42 Q438 18 392.5 4.5 Q347 -9 297 -9 Q241 -9 194.5 9 Q148 27 115 60 Q82 93 63.5 138.5 Q45 184 45 240 Q45 295 63.5 341 Q82 387 114 420 Q146 453 188.5 471.5 Q231 490 280 490 Q323 490 360.5 475.5 Q398 461 425.5 434 Q453 407 468.5 367.5 Q484 328 484 277 Q484 252 478.5 246 Q473 240 460 240 L127 240 Q128 197 141.5 163.5 Q155 130 178.5 107 Q202 84 234.5 72 Q267 60 306 60 Q359 60 410 80 Q439 91 454.5 102.5 Q470 114 475 114 Z M280 420 Q226 420 186.5 388 Q147 356 133 299 L415 299 Q410 352 374 386 Q338 420 280 420 Z M293 571 Q295 567 295 567 Q295 563 287 563 L251 563 Q243 563 236 571 L112 743 Q110 747 110 748 Q110 752 117 753 L175 772 Q177 773 180 773 Q185 773 189 766 L293 571 L293 571 Z " />
<glyph glyph-name="eogonek" unicode="&#x119;" horiz-adv-x="535" d="M475 114 Q479 114 479 106 L479 57 Q479 52 477.5 49 Q476 46 471 42 Q426 9 362 -3 Q319 -26 300.5 -48 Q282 -70 282 -91 Q282 -111 296 -122 Q310 -133 331 -133 Q341 -133 349.5 -130.5 Q358 -128 366 -126 L369 -126 Q374 -126 374 -132 L374 -160 Q374 -168 367 -171 Q347 -180 320 -180 Q276 -180 246.5 -158 Q217 -136 217 -96 Q217 -70 233.5 -48 Q250 -26 276 -8 Q225 -5 182.5 14.5 Q140 34 109.5 66.5 Q79 99 62 143 Q45 187 45 240 Q45 295 63.5 341 Q82 387 114 420 Q146 453 188.5 471.5 Q231 490 280 490 Q323 490 360.5 475.5 Q398 461 425.5 434 Q453 407 468.5 367.5 Q484 328 484 277 Q484 252 478.5 246 Q473 240 460 240 L127 240 Q128 197 141.5 163.5 Q155 130 178.5 107 Q202 84 234.5 72 Q267 60 306 60 Q359 60 410 80 Q439 91 454.5 102.5 Q470 114 475 114 Z M280 420 Q226 420 186.5 388 Q147 356 133 299 L415 299 Q410 352 374 386 Q338 420 280 420 Z " />
<glyph glyph-name="f" unicode="f" horiz-adv-x="351" d="M349 744 Q353 742 355 739 Q357 736 357 730 L357 694 Q357 680 348 680 Q344 680 338 683 Q313 693 284 693 Q245 693 221 670.5 Q197 648 197 596 L197 480 L340 480 Q349 480 349 470 L349 431 Q349 422 339 422 L197 422 L197 9 Q197 0 187 0 L126 0 Q117 0 117 10 L117 422 L37 422 Q28 422 28 432 L28 471 Q28 480 38 480 L117 480 L117 600 Q117 681 155.5 720 Q194 759 265 759 Q290 759 311.5 755 Q333 751 349 744 Z " />
<glyph glyph-name="g" unicode="g" horiz-adv-x="597" d="M515 480 Q524 480 524 470 L524 82 Q524 19 505.5 -30 Q487 -79 453 -112.5 Q419 -146 371 -163.5 Q323 -181 265 -181 Q213 -181 169 -172 Q125 -163 92 -145 Q84 -142 84 -131 L84 -84 Q84 -71 92 -71 Q95 -71 103 -74 Q137 -93 176.5 -102 Q216 -111 257 -111 Q344 -111 393 -65.5 Q442 -20 442 64 L442 115 Q414 64 368 39.5 Q322 15 268 15 Q223 15 182.5 31 Q142 47 111.5 78 Q81 109 63 152.5 Q45 196 45 252 Q45 307 63.5 351 Q82 395 113 426 Q144 457 184 473 Q224 489 268 489 Q322 489 368.5 464.5 Q415 440 444 387 L444 471 Q444 480 454 480 L515 480 Z M286 84 Q319 84 348 96 Q377 108 398 130 Q419 152 431.5 182.5 Q444 213 444 251 Q444 287 431.5 317.5 Q419 348 398 370.5 Q377 393 348 405.5 Q319 418 286 418 Q255 418 226.5 407 Q198 396 176 375 Q154 354 140.5 322.5 Q127 291 127 251 Q127 211 139.5 180 Q152 149 174 127.5 Q196 106 225 95 Q254 84 286 84 Z " />
<glyph glyph-name="h" unicode="h" horiz-adv-x="561" d="M311 490 Q351 490 383.5 478.5 Q416 467 439 443.5 Q462 420 475 384.5 Q488 349 488 300 L488 4 Q488 0 485 0 L412 0 Q408 0 408 3 L408 298 Q408 363 376 392.5 Q344 422 290 422 Q232 422 196.5 386 Q161 350 155 287 L155 4 Q155 0 152 0 L79 0 Q75 0 75 3 L75 744 Q75 748 78 748 L149 748 Q153 748 153 745 L153 404 Q202 490 311 490 Z " />
<glyph glyph-name="i" unicode="i" horiz-adv-x="239" d="M120 619 Q93 619 78 635.5 Q63 652 63 675 Q63 698 78 714 Q93 730 120 730 Q146 730 161 714 Q176 698 176 675 Q176 652 161 635.5 Q146 619 120 619 Z M89 0 Q80 0 80 10 L80 471 Q80 480 90 480 L150 480 Q159 480 159 470 L159 9 Q159 0 149 0 L89 0 Z " />
<glyph glyph-name="idotless" unicode="&#x131;" horiz-adv-x="257" d="M98 0 Q89 0 89 10 L89 471 Q89 480 99 480 L159 480 Q168 480 168 470 L168 9 Q168 0 158 0 L98 0 L98 0 Z " />
<glyph glyph-name="iacute" unicode="&#xed;" horiz-adv-x="257" d="M107 558 Q98 558 101 568 L159 760 Q162 769 172 766 L230 747 Q239 744 235 735 L159 566 Q157 562 154 560 Q151 558 145 558 L107 558 L107 558 Z M98 0 Q89 0 89 10 L89 471 Q89 480 99 480 L159 480 Q168 480 168 470 L168 9 Q168 0 158 0 L98 0 L98 0 Z " />
<glyph glyph-name="icircumflex" unicode="&#xee;" horiz-adv-x="257" d="M272 567 Q275 560 268 560 L226 560 Q219 560 213 567 L130 689 L47 567 Q43 560 34 560 L-8 560 Q-16 560 -12 567 L99 742 Q102 749 111 749 L149 749 Q157 749 161 742 L272 567 L272 567 Z M98 0 Q89 0 89 10 L89 471 Q89 480 99 480 L159 480 Q168 480 168 470 L168 9 Q168 0 158 0 L98 0 L98 0 Z " />
<glyph glyph-name="idieresis" unicode="&#xef;" horiz-adv-x="257" d="M98 0 Q89 0 89 10 L89 471 Q89 480 99 480 L159 480 Q168 480 168 470 L168 9 Q168 0 158 0 L98 0 L98 0 Z M53 634 Q34 634 22 647 Q10 660 10 679 Q10 697 22 710.5 Q34 724 53 724 Q73 724 84.5 710.5 Q96 697 96 679 Q96 660 84.5 647 Q73 634 53 634 Z M204 634 Q185 634 173 647 Q161 660 161 679 Q161 697 173 710.5 Q185 724 204 724 Q224 724 235.5 710.5 Q247 697 247 679 Q247 660 235.5 647 Q224 634 204 634 Z " />
<glyph glyph-name="igrave" unicode="&#xec;" horiz-adv-x="257" d="M157 567 Q158 565 158 563 Q158 558 150 558 L112 558 Q103 558 99 567 L23 736 Q21 740 21 741 Q21 745 29 747 L87 766 Q89 767 92 767 Q98 767 99 759 L157 567 Z M98 0 Q89 0 89 10 L89 471 Q89 480 99 480 L159 480 Q168 480 168 470 L168 9 Q168 0 158 0 L98 0 Z " />
<glyph glyph-name="j" unicode="j" horiz-adv-x="239" d="M121 619 Q94 619 79 635.5 Q64 652 64 675 Q64 698 79 714 Q94 730 121 730 Q147 730 162 714 Q177 698 177 675 Q177 652 162 635.5 Q147 619 121 619 Z M36 -181 Q19 -181 3 -178.5 Q-13 -176 -25 -171 Q-29 -169 -31 -166 Q-33 -163 -33 -157 L-33 -109 Q-33 -100 -25 -105 Q-5 -116 20 -116 Q46 -116 63 -99 Q80 -82 80 -51 L80 471 Q80 480 90 480 L151 480 Q160 480 160 470 L160 -51 Q160 -117 127 -149 Q94 -181 36 -181 Z " />
<glyph glyph-name="k" unicode="k" horiz-adv-x="477" d="M473 7 Q480 0 469 0 L388 0 Q383 0 380 1 Q377 2 372 7 L149 252 L149 9 Q149 0 139 0 L78 0 Q69 0 69 10 L69 739 Q69 748 79 748 L140 748 Q149 748 149 738 L149 262 L353 474 Q359 480 369 480 L451 480 Q456 480 457 479 Q458 478 453 473 L239 257 L473 7 L473 7 Z " />
<glyph glyph-name="l" unicode="l" horiz-adv-x="276" d="M181 -10 Q130 -10 101.5 17.5 Q73 45 73 106 L73 740 Q73 749 83 749 L144 749 Q153 749 153 739 L153 116 Q153 84 167 70.5 Q181 57 207 57 Q230 57 253 67 Q257 69 259 69 Q263 69 263 60 L263 16 Q263 7 254 3 Q239 -3 219.5 -6.5 Q200 -10 181 -10 Z " />
<glyph glyph-name="lslash" unicode="&#x142;" horiz-adv-x="276" d="M253 67 Q257 69 259 69 Q263 69 263 60 L263 16 Q263 7 254 3 Q239 -3 219.5 -6.5 Q200 -10 181 -10 Q130 -10 101.5 17.5 Q73 45 73 106 L73 381 L21 361 Q20 360 17 360 Q13 360 13 368 L13 395 Q13 404 22 408 L73 428 L73 740 Q73 749 83 749 L144 749 Q153 749 153 739 L153 459 L216 484 Q217 485 220 485 Q224 485 224 477 L224 450 Q224 441 215 437 L153 413 L153 116 Q153 84 167 70.5 Q181 57 207 57 Q230 57 253 67 Z " />
<glyph glyph-name="m" unicode="m" horiz-adv-x="812" d="M575 490 Q608 490 638 480 Q668 470 690.5 449.5 Q713 429 726.5 397.5 Q740 366 740 322 L740 9 Q740 0 730 0 L669 0 Q660 0 660 10 L660 319 Q660 346 651.5 365.5 Q643 385 629 397 Q615 409 596.5 415 Q578 421 559 421 Q536 421 516 412.5 Q496 404 480.5 389 Q465 374 456 353.5 Q447 333 447 308 L447 9 Q447 0 437 0 L376 0 Q367 0 367 10 L367 319 Q367 346 358.5 365.5 Q350 385 336 397 Q322 409 304 415 Q286 421 267 421 Q244 421 223.5 412.5 Q203 404 187.5 389 Q172 374 163 353.5 Q154 333 154 308 L154 9 Q154 0 144 0 L84 0 Q75 0 75 10 L75 471 Q75 480 85 480 L143 480 Q152 480 152 470 L152 411 Q173 450 209 470 Q245 490 288 490 Q335 490 374.5 468.5 Q414 447 433 400 Q454 445 492 467.5 Q530 490 575 490 Z " />
<glyph glyph-name="n" unicode="n" horiz-adv-x="561" d="M309 490 Q389 490 438.5 443.5 Q488 397 488 299 L488 9 Q488 0 478 0 L418 0 Q409 0 409 10 L409 298 Q409 364 376 393 Q343 422 289 422 Q227 422 191 383 Q155 344 155 279 L155 9 Q155 0 145 0 L84 0 Q75 0 75 10 L75 471 Q75 480 85 480 L144 480 Q153 480 153 470 L153 408 Q177 448 216.5 469 Q256 490 309 490 Z " />
<glyph glyph-name="ntilde" unicode="&#xf1;" horiz-adv-x="552" d="M309 490 Q389 490 438.5 443.5 Q488 397 488 299 L488 9 Q488 0 478 0 L418 0 Q409 0 409 10 L409 298 Q409 364 376 393 Q343 422 289 422 Q227 422 191 383 Q155 344 155 279 L155 9 Q155 0 145 0 L84 0 Q75 0 75 10 L75 471 Q75 480 85 480 L144 480 Q153 480 153 470 L153 408 Q177 448 216.5 469 Q256 490 309 490 Z M347 589 Q322 589 304.5 601.5 Q287 614 273 628 Q261 641 248.5 650 Q236 659 219 659 Q198 659 185.5 641.5 Q173 624 172 592 Q172 587 167 587 L131 587 Q126 587 126 592 Q128 646 150.5 683.5 Q173 721 218 721 Q244 721 261.5 708 Q279 695 293 681 Q305 669 316.5 660 Q328 651 344 651 Q364 651 375 667 Q386 683 387 711 Q387 716 392 716 L429 716 Q434 716 434 711 Q432 659 409 624 Q386 589 347 589 Z " />
<glyph glyph-name="o" unicode="o" horiz-adv-x="592" d="M296 -10 Q245 -10 199 9.5 Q153 29 119 62.5 Q85 96 65 142 Q45 188 45 242 Q45 295 65 340.5 Q85 386 119.5 419 Q154 452 199.5 471 Q245 490 296 490 Q347 490 392.5 471 Q438 452 472 419 Q506 386 526 340.5 Q546 295 546 242 Q546 188 526 142 Q506 96 472 62.5 Q438 29 392.5 9.5 Q347 -10 296 -10 Z M296 62 Q332 62 363 75 Q394 88 417.5 112 Q441 136 454 169 Q467 202 467 241 Q467 280 454 312.5 Q441 345 417.5 368.5 Q394 392 363 404.5 Q332 417 296 417 Q260 417 229 404 Q198 391 175 368 Q152 345 138.5 312.5 Q125 280 125 241 Q125 202 138.5 169 Q152 136 175.5 112 Q199 88 230 75 Q261 62 296 62 Z " />
<glyph glyph-name="oacute" unicode="&#xf3;" horiz-adv-x="588" d="M296 -10 Q245 -10 199 9.5 Q153 29 119 62.5 Q85 96 65 142 Q45 188 45 242 Q45 295 65 340.5 Q85 386 119.5 419 Q154 452 199.5 471 Q245 490 296 490 Q347 490 392.5 471 Q438 452 472 419 Q506 386 526 340.5 Q546 295 546 242 Q546 188 526 142 Q506 96 472 62.5 Q438 29 392.5 9.5 Q347 -10 296 -10 Z M296 62 Q332 62 363 75 Q394 88 417.5 112 Q441 136 454 169 Q467 202 467 241 Q467 280 454 312.5 Q441 345 417.5 368.5 Q394 392 363 404.5 Q332 417 296 417 Q260 417 229 404 Q198 391 175 368 Q152 345 138.5 312.5 Q125 280 125 241 Q125 202 138.5 169 Q152 136 175.5 112 Q199 88 230 75 Q261 62 296 62 Z M248 559 Q239 559 244 568 L348 763 Q352 770 362 768 L420 749 Q430 746 423 738 L299 566 Q295 559 284 559 L248 559 L248 559 Z " />
<glyph glyph-name="ocircumflex" unicode="&#xf4;" horiz-adv-x="588" d="M296 -10 Q245 -10 199 9.5 Q153 29 119 62.5 Q85 96 65 142 Q45 188 45 242 Q45 295 65 340.5 Q85 386 119.5 419 Q154 452 199.5 471 Q245 490 296 490 Q347 490 392.5 471 Q438 452 472 419 Q506 386 526 340.5 Q546 295 546 242 Q546 188 526 142 Q506 96 472 62.5 Q438 29 392.5 9.5 Q347 -10 296 -10 Z M296 62 Q332 62 363 75 Q394 88 417.5 112 Q441 136 454 169 Q467 202 467 241 Q467 280 454 312.5 Q441 345 417.5 368.5 Q394 392 363 404.5 Q332 417 296 417 Q260 417 229 404 Q198 391 175 368 Q152 345 138.5 312.5 Q125 280 125 241 Q125 202 138.5 169 Q152 136 175.5 112 Q199 88 230 75 Q261 62 296 62 Z M439 567 Q442 560 435 560 L393 560 Q386 560 380 567 L297 689 L214 567 Q210 560 201 560 L159 560 Q151 560 155 567 L266 742 Q269 749 278 749 L316 749 Q324 749 328 742 L439 567 L439 567 Z " />
<glyph glyph-name="odieresis" unicode="&#xf6;" horiz-adv-x="588" d="M296 -10 Q245 -10 199 9.5 Q153 29 119 62.5 Q85 96 65 142 Q45 188 45 242 Q45 295 65 340.5 Q85 386 119.5 419 Q154 452 199.5 471 Q245 490 296 490 Q347 490 392.5 471 Q438 452 472 419 Q506 386 526 340.5 Q546 295 546 242 Q546 188 526 142 Q506 96 472 62.5 Q438 29 392.5 9.5 Q347 -10 296 -10 Z M296 62 Q332 62 363 75 Q394 88 417.5 112 Q441 136 454 169 Q467 202 467 241 Q467 280 454 312.5 Q441 345 417.5 368.5 Q394 392 363 404.5 Q332 417 296 417 Q260 417 229 404 Q198 391 175 368 Q152 345 138.5 312.5 Q125 280 125 241 Q125 202 138.5 169 Q152 136 175.5 112 Q199 88 230 75 Q261 62 296 62 Z M220 634 Q201 634 189 647 Q177 660 177 679 Q177 697 189 710.5 Q201 724 220 724 Q240 724 251.5 710.5 Q263 697 263 679 Q263 660 251.5 647 Q240 634 220 634 Z M371 634 Q352 634 340 647 Q328 660 328 679 Q328 697 340 710.5 Q352 724 371 724 Q391 724 402.5 710.5 Q414 697 414 679 Q414 660 402.5 647 Q391 634 371 634 Z " />
<glyph glyph-name="ograve" unicode="&#xf2;" horiz-adv-x="588" d="M296 -10 Q245 -10 199 9.5 Q153 29 119 62.5 Q85 96 65 142 Q45 188 45 242 Q45 295 65 340.5 Q85 386 119.5 419 Q154 452 199.5 471 Q245 490 296 490 Q347 490 392.5 471 Q438 452 472 419 Q506 386 526 340.5 Q546 295 546 242 Q546 188 526 142 Q506 96 472 62.5 Q438 29 392.5 9.5 Q347 -10 296 -10 Z M296 62 Q332 62 363 75 Q394 88 417.5 112 Q441 136 454 169 Q467 202 467 241 Q467 280 454 312.5 Q441 345 417.5 368.5 Q394 392 363 404.5 Q332 417 296 417 Q260 417 229 404 Q198 391 175 368 Q152 345 138.5 312.5 Q125 280 125 241 Q125 202 138.5 169 Q152 136 175.5 112 Q199 88 230 75 Q261 62 296 62 Z M321 567 Q323 563 323 563 Q323 559 315 559 L279 559 Q271 559 264 567 L140 739 Q138 743 138 744 Q138 748 145 749 L203 768 Q205 769 208 769 Q213 769 217 762 L321 567 L321 567 Z " />
<glyph glyph-name="oslash" unicode="&#xf8;" horiz-adv-x="588" d="M434 450 Q485 417 515.5 363 Q546 309 546 242 Q546 188 526 142 Q506 96 472 62.5 Q438 29 392.5 9.5 Q347 -10 296 -10 Q238 -10 189 14 L155 -47 Q153 -51 150 -53 Q147 -55 141 -55 L118 -55 Q109 -55 114 -46 L157 31 Q106 65 75.5 119.5 Q45 174 45 242 Q45 295 65 340.5 Q85 386 119.5 419 Q154 452 199.5 471 Q245 490 296 490 Q352 490 403 467 L437 528 Q439 532 442 534 Q445 536 451 536 L473 536 Q482 536 477 527 L434 450 Z M125 241 Q125 194 143.5 157 Q162 120 194 96 L367 403 Q333 417 296 417 Q260 417 229 404 Q198 391 175 368 Q152 345 138.5 312.5 Q125 280 125 241 Z M296 62 Q332 62 363 75 Q394 88 417.5 112 Q441 136 454 169 Q467 202 467 241 Q467 289 448.5 325.5 Q430 362 398 385 L225 77 Q258 62 296 62 Z " />
<glyph glyph-name="otilde" unicode="&#xf5;" horiz-adv-x="588" d="M296 -10 Q245 -10 199 9.5 Q153 29 119 62.5 Q85 96 65 142 Q45 188 45 242 Q45 295 65 340.5 Q85 386 119.5 419 Q154 452 199.5 471 Q245 490 296 490 Q347 490 392.5 471 Q438 452 472 419 Q506 386 526 340.5 Q546 295 546 242 Q546 188 526 142 Q506 96 472 62.5 Q438 29 392.5 9.5 Q347 -10 296 -10 Z M296 62 Q332 62 363 75 Q394 88 417.5 112 Q441 136 454 169 Q467 202 467 241 Q467 280 454 312.5 Q441 345 417.5 368.5 Q394 392 363 404.5 Q332 417 296 417 Q260 417 229 404 Q198 391 175 368 Q152 345 138.5 312.5 Q125 280 125 241 Q125 202 138.5 169 Q152 136 175.5 112 Q199 88 230 75 Q261 62 296 62 Z M363 589 Q338 589 320.5 601.5 Q303 614 289 628 Q277 641 264.5 650 Q252 659 235 659 Q214 659 201.5 641.5 Q189 624 188 592 Q188 587 183 587 L147 587 Q142 587 142 592 Q144 646 166.5 683.5 Q189 721 234 721 Q260 721 277.5 708 Q295 695 309 681 Q321 669 332.5 660 Q344 651 360 651 Q380 651 391 667 Q402 683 403 711 Q403 716 408 716 L445 716 Q450 716 450 711 Q448 659 425 624 Q402 589 363 589 Z " />
<glyph glyph-name="oe" unicode="&#x153;" horiz-adv-x="901" d="M514 248 L514 244 Q514 156 560 105.5 Q606 55 693 55 Q735 55 776 67 Q817 79 847 102 Q854 108 854 98 L854 52 Q854 47 852.5 44 Q851 41 846 37 Q815 14 773 2 Q731 -10 685 -10 Q608 -10 551 27 Q494 64 468 134 Q445 68 391 29 Q337 -10 269 -10 Q221 -10 180 9 Q139 28 109 61.5 Q79 95 61.5 141 Q44 187 44 242 Q44 296 61.5 341.5 Q79 387 109 420 Q139 453 180 471.5 Q221 490 268 490 Q337 490 390.5 450.5 Q444 411 468 345 Q491 411 543 450.5 Q595 490 665 490 Q706 490 742 476.5 Q778 463 804.5 436 Q831 409 846.5 368.5 Q862 328 862 274 Q862 258 857.5 253 Q853 248 840 248 L514 248 Z M664 428 Q604 428 567 390.5 Q530 353 519 296 L796 296 Q792 356 756 392 Q720 428 664 428 Z M273 60 Q307 60 335 74 Q363 88 383 112 Q403 136 414.5 169.5 Q426 203 426 242 Q426 280 414.5 312.5 Q403 345 383 369 Q363 393 335 406.5 Q307 420 273 420 Q238 420 209.5 406.5 Q181 393 160.5 369 Q140 345 128.5 312.5 Q117 280 117 242 Q117 203 128.5 169.5 Q140 136 160.5 112 Q181 88 209.5 74 Q238 60 273 60 Z " />
<glyph glyph-name="p" unicode="p" horiz-adv-x="614" d="M330 489 Q376 489 419 472 Q462 455 495.5 422.5 Q529 390 549 343.5 Q569 297 569 239 Q569 181 549 135 Q529 89 495.5 56.5 Q462 24 418.5 7 Q375 -10 329 -10 Q278 -10 231.5 13.5 Q185 37 156 85 L156 -155 Q156 -171 141 -171 L91 -171 Q76 -171 76 -155 L76 464 Q76 480 91 480 L140 480 Q156 480 156 464 L156 392 Q182 440 230 464.5 Q278 489 330 489 Z M320 64 Q354 64 384 76.5 Q414 89 437 111.5 Q460 134 473.5 166.5 Q487 199 487 239 Q487 280 473.5 313 Q460 346 437.5 369 Q415 392 384.5 404.5 Q354 417 320 417 Q285 417 255 404 Q225 391 202.5 368 Q180 345 167 312 Q154 279 154 239 Q154 199 167 167 Q180 135 202.5 112 Q225 89 255.5 76.5 Q286 64 320 64 Z " />
<glyph glyph-name="thorn" unicode="&#xfe;" horiz-adv-x="580" d="M319 490 Q364 490 404 472.5 Q444 455 473.5 422.5 Q503 390 520 344 Q537 298 537 240 Q537 182 519 135.5 Q501 89 471 57 Q441 25 401.5 7.5 Q362 -10 319 -10 Q265 -10 221.5 14.5 Q178 39 151 88 L151 -168 Q151 -177 141 -177 L80 -177 Q71 -177 71 -167 L71 739 Q71 748 81 748 L137 748 Q146 748 146 738 L146 382 Q172 436 217 463 Q262 490 319 490 Z M298 57 Q328 57 356 69 Q384 81 405.5 104 Q427 127 440 161 Q453 195 453 239 Q453 283 440.5 317.5 Q428 352 406.5 375.5 Q385 399 357 411 Q329 423 298 423 Q266 423 238 410 Q210 397 189 373 Q168 349 156 315.5 Q144 282 144 240 Q144 198 156 164.5 Q168 131 189 107 Q210 83 238 70 Q266 57 298 57 Z " />
<glyph glyph-name="q" unicode="q" horiz-adv-x="598" d="M518 480 Q527 480 527 470 L527 -161 Q527 -171 518 -171 L457 -171 Q447 -171 447 -161 L447 88 Q418 39 372 14.5 Q326 -10 272 -10 Q227 -10 185.5 7.5 Q144 25 112.5 57 Q81 89 62.5 135.5 Q44 182 44 240 Q44 298 62 344.5 Q80 391 110.5 423 Q141 455 182.5 472.5 Q224 490 272 490 Q331 490 378 463 Q425 436 452 384 L452 470 Q452 480 461 480 L518 480 Z M287 56 Q319 56 349 68.5 Q379 81 402 104.5 Q425 128 439 162 Q453 196 453 240 Q453 283 439.5 317 Q426 351 403 374 Q380 397 350 409.5 Q320 422 287 422 Q253 422 223 410 Q193 398 170 374.5 Q147 351 133.5 317 Q120 283 120 239 Q120 195 134.5 160.5 Q149 126 172 103 Q195 80 225 68 Q255 56 287 56 Z " />
<glyph glyph-name="r" unicode="r" horiz-adv-x="360" d="M325 490 Q334 490 334 480 L334 415 Q334 406 324 406 Q303 405 282.5 400.5 Q262 396 245 386 Q200 362 174.5 306 Q149 250 149 170 L149 9 Q149 0 139 0 L78 0 Q69 0 69 10 L69 471 Q69 480 79 480 L137 480 Q146 480 146 470 L146 324 Q187 484 325 490 Z " />
<glyph glyph-name="s" unicode="s" horiz-adv-x="446" d="M211 -9 Q172 -9 130.5 0 Q89 9 63 24 Q58 27 58 32 L58 93 Q58 99 61 99 Q64 99 66 98 Q96 80 133.5 70 Q171 60 209 60 Q261 60 290.5 80 Q320 100 320 135 Q320 153 311.5 165.5 Q303 178 288 187.5 Q273 197 251 204 Q229 211 202 219 Q173 227 146.5 238 Q120 249 100 265 Q80 281 68.5 303 Q57 325 57 356 Q57 386 70 411 Q83 436 106.5 453.5 Q130 471 162.5 480.5 Q195 490 233 490 Q270 490 305 482.5 Q340 475 369 462 Q374 460 374 454 L374 396 Q374 390 370 390 Q367 390 365 391 Q337 405 300.5 413.5 Q264 422 233 422 Q185 422 160 405 Q135 388 135 360 Q135 343 143.5 331 Q152 319 166.5 311 Q181 303 200.5 296.5 Q220 290 242 284 Q273 275 301 264 Q329 253 350 237 Q371 221 383 198 Q395 175 395 142 Q395 72 345 31.5 Q295 -9 211 -9 Z " />
<glyph glyph-name="scaron" unicode="&#x161;" horiz-adv-x="447" d="M211 -9 Q172 -9 130.5 0 Q89 9 63 24 Q58 27 58 32 L58 93 Q58 99 61 99 Q64 99 66 98 Q96 80 133.5 70 Q171 60 209 60 Q261 60 290.5 80 Q320 100 320 135 Q320 153 311.5 165.5 Q303 178 288 187.5 Q273 197 251 204 Q229 211 202 219 Q173 227 146.5 238 Q120 249 100 265 Q80 281 68.5 303 Q57 325 57 356 Q57 386 70 411 Q83 436 106.5 453.5 Q130 471 162.5 480.5 Q195 490 233 490 Q270 490 305 482.5 Q340 475 369 462 Q374 460 374 454 L374 396 Q374 390 370 390 Q367 390 365 391 Q337 405 300.5 413.5 Q264 422 233 422 Q185 422 160 405 Q135 388 135 360 Q135 343 143.5 331 Q152 319 166.5 311 Q181 303 200.5 296.5 Q220 290 242 284 Q273 275 301 264 Q329 253 350 237 Q371 221 383 198 Q395 175 395 142 Q395 72 345 31.5 Q295 -9 211 -9 Z M358 737 Q367 737 362 729 L256 567 Q251 559 241 559 L203 559 Q194 559 189 567 L82 729 Q77 737 87 737 L130 737 Q138 737 145 729 L224 621 L302 730 Q306 737 317 737 L358 737 L358 737 Z " />
<glyph glyph-name="germandbls" unicode="&#xdf;" horiz-adv-x="546" d="M330 -9 Q304 -9 271.5 -3.5 Q239 2 219 10 Q214 12 214 18 L214 79 Q214 84 219 82 Q240 72 267.5 66 Q295 60 315 60 Q365 60 391 82.5 Q417 105 417 143 Q417 182 392.5 207.5 Q368 233 331 259 Q309 274 290 287.5 Q271 301 257.5 315 Q244 329 236 346.5 Q228 364 228 388 Q228 406 233.5 421.5 Q239 437 248 451 Q257 465 268.5 479.5 Q280 494 293 510 Q316 538 330.5 559.5 Q345 581 345 613 Q345 646 319 667 Q293 688 255 688 Q210 688 181.5 660.5 Q153 633 153 570 L153 9 Q153 0 143 0 L82 0 Q73 0 73 10 L73 565 Q73 614 87 650.5 Q101 687 125 711 Q149 735 182 746.5 Q215 758 253 758 Q289 758 320 748 Q351 738 374.5 720 Q398 702 411 676.5 Q424 651 424 619 Q424 581 405.5 550.5 Q387 520 360 489 Q331 456 317.5 437.5 Q304 419 304 395 Q304 380 310 369.5 Q316 359 327 348.5 Q338 338 355 327 Q372 316 394 301 Q415 286 433.5 270 Q452 254 465.5 235.5 Q479 217 487 194.5 Q495 172 495 143 Q495 75 451.5 33 Q408 -9 330 -9 Z " />
<glyph glyph-name="t" unicode="t" horiz-adv-x="359" d="M310 64 Q313 65 318 65 Q330 65 330 49 L330 15 Q330 5 320 3 Q301 -3 279.5 -6.5 Q258 -10 238 -10 Q168 -10 134 25.5 Q100 61 100 142 L100 423 L26 423 Q17 423 17 433 L17 471 Q17 480 27 480 L100 480 L100 618 Q100 627 110 627 L171 627 Q180 627 180 617 L180 480 L313 480 Q322 480 322 470 L322 432 Q322 423 312 423 L180 423 L180 151 Q180 100 200 78 Q220 56 261 56 Q286 56 310 64 Z " />
<glyph glyph-name="u" unicode="u" horiz-adv-x="551" d="M467 480 Q476 480 476 470 L476 9 Q476 0 466 0 L413 0 Q404 0 404 10 L402 79 Q379 36 339.5 13.5 Q300 -9 249 -9 Q211 -9 178.5 3 Q146 15 122.5 39 Q99 63 85.5 100 Q72 137 72 187 L72 471 Q72 480 82 480 L143 480 Q152 480 152 470 L152 188 Q152 117 184.5 87.5 Q217 58 269 58 Q299 58 322.5 69 Q346 80 362.5 99 Q379 118 388 144 Q397 170 397 201 L397 471 Q397 480 407 480 L467 480 L467 480 Z " />
<glyph glyph-name="uacute" unicode="&#xfa;" horiz-adv-x="544" d="M467 480 Q476 480 476 470 L476 9 Q476 0 466 0 L413 0 Q404 0 404 10 L402 79 Q379 36 339.5 13.5 Q300 -9 249 -9 Q211 -9 178.5 3 Q146 15 122.5 39 Q99 63 85.5 100 Q72 137 72 187 L72 471 Q72 480 82 480 L143 480 Q152 480 152 470 L152 188 Q152 117 184.5 87.5 Q217 58 269 58 Q299 58 322.5 69 Q346 80 362.5 99 Q379 118 388 144 Q397 170 397 201 L397 471 Q397 480 407 480 L467 480 L467 480 Z M226 559 Q217 559 222 568 L326 763 Q330 770 340 768 L398 749 Q408 746 401 738 L277 566 Q273 559 262 559 L226 559 L226 559 Z " />
<glyph glyph-name="ucircumflex" unicode="&#xfb;" horiz-adv-x="544" d="M467 480 Q476 480 476 470 L476 9 Q476 0 466 0 L413 0 Q404 0 404 10 L402 79 Q379 36 339.5 13.5 Q300 -9 249 -9 Q211 -9 178.5 3 Q146 15 122.5 39 Q99 63 85.5 100 Q72 137 72 187 L72 471 Q72 480 82 480 L143 480 Q152 480 152 470 L152 188 Q152 117 184.5 87.5 Q217 58 269 58 Q299 58 322.5 69 Q346 80 362.5 99 Q379 118 388 144 Q397 170 397 201 L397 471 Q397 480 407 480 L467 480 L467 480 Z M417 567 Q420 560 413 560 L371 560 Q364 560 358 567 L275 689 L192 567 Q188 560 179 560 L137 560 Q129 560 133 567 L244 742 Q247 749 256 749 L294 749 Q302 749 306 742 L417 567 L417 567 Z " />
<glyph glyph-name="udieresis" unicode="&#xfc;" horiz-adv-x="544" d="M467 480 Q476 480 476 470 L476 9 Q476 0 466 0 L413 0 Q404 0 404 10 L402 79 Q379 36 339.5 13.5 Q300 -9 249 -9 Q211 -9 178.5 3 Q146 15 122.5 39 Q99 63 85.5 100 Q72 137 72 187 L72 471 Q72 480 82 480 L143 480 Q152 480 152 470 L152 188 Q152 117 184.5 87.5 Q217 58 269 58 Q299 58 322.5 69 Q346 80 362.5 99 Q379 118 388 144 Q397 170 397 201 L397 471 Q397 480 407 480 L467 480 L467 480 Z M198 634 Q179 634 167 647 Q155 660 155 679 Q155 697 167 710.5 Q179 724 198 724 Q218 724 229.5 710.5 Q241 697 241 679 Q241 660 229.5 647 Q218 634 198 634 Z M349 634 Q330 634 318 647 Q306 660 306 679 Q306 697 318 710.5 Q330 724 349 724 Q369 724 380.5 710.5 Q392 697 392 679 Q392 660 380.5 647 Q369 634 349 634 Z " />
<glyph glyph-name="ugrave" unicode="&#xf9;" horiz-adv-x="544" d="M467 480 Q476 480 476 470 L476 9 Q476 0 466 0 L413 0 Q404 0 404 10 L402 79 Q379 36 339.5 13.5 Q300 -9 249 -9 Q211 -9 178.5 3 Q146 15 122.5 39 Q99 63 85.5 100 Q72 137 72 187 L72 471 Q72 480 82 480 L143 480 Q152 480 152 470 L152 188 Q152 117 184.5 87.5 Q217 58 269 58 Q299 58 322.5 69 Q346 80 362.5 99 Q379 118 388 144 Q397 170 397 201 L397 471 Q397 480 407 480 L467 480 L467 480 Z M299 567 Q301 563 301 563 Q301 559 293 559 L257 559 Q249 559 242 567 L118 739 Q116 743 116 744 Q116 748 123 749 L181 768 Q183 769 186 769 Q191 769 195 762 L299 567 L299 567 Z " />
<glyph glyph-name="v" unicode="v" horiz-adv-x="503" d="M476 480 Q485 480 481 471 L291 8 Q288 0 278 0 L223 0 Q214 0 210 9 L21 472 Q20 473 20 476 Q20 480 28 480 L99 480 Q108 480 112 471 L254 100 L394 472 Q397 480 407 480 L476 480 L476 480 Z " />
<glyph glyph-name="w" unicode="w" horiz-adv-x="689" d="M665 480 Q673 480 671 470 L531 9 Q528 0 518 0 L466 0 Q456 0 454 10 L345 374 L236 9 Q233 0 223 0 L172 0 Q162 0 160 10 L17 471 Q16 473 16 475 Q16 480 24 480 L91 480 Q100 480 103 470 L202 117 L306 471 Q309 480 319 480 L373 480 Q382 480 385 470 L492 116 L588 471 Q589 480 600 480 L665 480 L665 480 Z " />
<glyph glyph-name="x" unicode="x" horiz-adv-x="481" d="M462 17 Q467 10 467 6 Q467 0 453 0 L380 0 Q372 0 365 8 L240 189 L108 7 Q104 0 93 0 L26 0 Q13 0 13 7 Q13 10 18 17 L193 242 L30 463 Q26 468 26 473 Q26 480 40 480 L108 480 Q116 480 123 472 L242 300 L365 473 Q369 480 380 480 L445 480 Q458 480 458 473 Q458 470 453 462 L289 245 L462 17 L462 17 Z " />
<glyph glyph-name="y" unicode="y" horiz-adv-x="499" d="M479 480 Q488 480 484 471 L263 -42 Q233 -112 194 -146.5 Q155 -181 102 -181 Q55 -181 23 -164 Q15 -161 15 -150 L15 -101 Q15 -92 24 -97 Q57 -116 97 -116 Q132 -116 157 -93 Q182 -70 199 -26 L215 11 L12 472 Q10 476 10 476 Q10 480 18 480 L83 480 Q92 480 96 471 L251 96 L406 472 Q409 480 419 480 L479 480 L479 480 Z " />
<glyph glyph-name="yacute" unicode="&#xfd;" horiz-adv-x="499" d="M479 480 Q488 480 484 471 L263 -42 Q233 -112 194 -146.5 Q155 -181 102 -181 Q55 -181 23 -164 Q15 -161 15 -150 L15 -101 Q15 -92 24 -97 Q57 -116 97 -116 Q132 -116 157 -93 Q182 -70 199 -26 L215 11 L12 472 Q10 476 10 476 Q10 480 18 480 L83 480 Q92 480 96 471 L251 96 L406 472 Q409 480 419 480 L479 480 L479 480 Z M196 559 Q187 559 192 568 L296 763 Q300 770 310 768 L368 749 Q378 746 371 738 L247 566 Q243 559 232 559 L196 559 L196 559 Z " />
<glyph glyph-name="ydieresis" unicode="&#xff;" horiz-adv-x="499" d="M479 480 Q488 480 484 471 L263 -42 Q233 -112 194 -146.5 Q155 -181 102 -181 Q55 -181 23 -164 Q15 -161 15 -150 L15 -101 Q15 -92 24 -97 Q57 -116 97 -116 Q132 -116 157 -93 Q182 -70 199 -26 L215 11 L12 472 Q10 476 10 476 Q10 480 18 480 L83 480 Q92 480 96 471 L251 96 L406 472 Q409 480 419 480 L479 480 L479 480 Z M168 634 Q149 634 137 647 Q125 660 125 679 Q125 697 137 710.5 Q149 724 168 724 Q188 724 199.5 710.5 Q211 697 211 679 Q211 660 199.5 647 Q188 634 168 634 Z M319 634 Q300 634 288 647 Q276 660 276 679 Q276 697 288 710.5 Q300 724 319 724 Q339 724 350.5 710.5 Q362 697 362 679 Q362 660 350.5 647 Q339 634 319 634 Z " />
<glyph glyph-name="z" unicode="z" horiz-adv-x="444" d="M33 0 Q24 0 24 10 L24 23 Q24 33 30 40 L299 411 L50 411 Q41 411 41 421 L41 471 Q41 480 51 480 L401 480 Q410 480 410 470 L410 457 Q410 447 404 440 L133 69 L402 69 Q411 69 411 59 L411 9 Q411 0 401 0 L33 0 L33 0 Z " />
<glyph glyph-name="zcaron" unicode="&#x17e;" horiz-adv-x="463" d="M33 0 Q24 0 24 10 L24 23 Q24 33 30 40 L299 411 L50 411 Q41 411 41 421 L41 471 Q41 480 51 480 L401 480 Q410 480 410 470 L410 457 Q410 447 404 440 L133 69 L402 69 Q411 69 411 59 L411 9 Q411 0 401 0 L33 0 L33 0 Z M347 737 Q356 737 351 729 L245 567 Q240 559 230 559 L192 559 Q183 559 178 567 L71 729 Q66 737 76 737 L119 737 Q127 737 134 729 L213 621 L291 730 Q295 737 306 737 L347 737 L347 737 Z " />
<glyph glyph-name="fi" unicode="&#xfb01;" horiz-adv-x="590" d="M349 744 Q353 742 355 739 Q357 736 357 730 L357 694 Q357 680 348 680 Q344 680 338 683 Q313 693 284 693 Q245 693 221 670.5 Q197 648 197 596 L197 480 L340 480 Q349 480 349 470 L349 431 Q349 422 339 422 L197 422 L197 9 Q197 0 187 0 L126 0 Q117 0 117 10 L117 422 L37 422 Q28 422 28 432 L28 471 Q28 480 38 480 L117 480 L117 600 Q117 681 155.5 720 Q194 759 265 759 Q290 759 311.5 755 Q333 751 349 744 Z M471 619 Q444 619 429 635.5 Q414 652 414 675 Q414 698 429 714 Q444 730 471 730 Q497 730 512 714 Q527 698 527 675 Q527 652 512 635.5 Q497 619 471 619 Z M440 0 Q431 0 431 10 L431 471 Q431 480 441 480 L501 480 Q510 480 510 470 L510 9 Q510 0 500 0 L440 0 Z " />
<glyph glyph-name="fl" unicode="&#xfb02;" horiz-adv-x="628" d="M349 744 Q353 742 355 739 Q357 736 357 730 L357 694 Q357 680 348 680 Q344 680 338 683 Q313 693 284 693 Q245 693 221 670.5 Q197 648 197 596 L197 480 L340 480 Q349 480 349 470 L349 431 Q349 422 339 422 L197 422 L197 9 Q197 0 187 0 L126 0 Q117 0 117 10 L117 422 L37 422 Q28 422 28 432 L28 471 Q28 480 38 480 L117 480 L117 600 Q117 681 155.5 720 Q194 759 265 759 Q290 759 311.5 755 Q333 751 349 744 Z M532 -10 Q481 -10 452.5 17.5 Q424 45 424 106 L424 740 Q424 749 434 749 L495 749 Q504 749 504 739 L504 116 Q504 84 518 70.5 Q532 57 558 57 Q581 57 604 67 Q608 69 610 69 Q614 69 614 60 L614 16 Q614 7 605 3 Q590 -3 570.5 -6.5 Q551 -10 532 -10 Z " />
<glyph glyph-name="ordfeminine" unicode="&#xaa;" horiz-adv-x="433" d="M187 403 Q159 403 133.5 414 Q108 425 88.5 445.5 Q69 466 57.5 495.5 Q46 525 46 561 Q46 597 57 626.5 Q68 656 87 676.5 Q106 697 132 708 Q158 719 187 719 Q222 719 249.5 705 Q277 691 296 661 L296 703 Q296 711 304 711 L354 711 Q362 711 362 703 L362 417 Q362 409 354 409 L304 409 Q296 409 296 417 L296 466 Q276 434 248 418.5 Q220 403 187 403 Z M206 666 Q168 666 141.5 638.5 Q115 611 115 560 Q115 535 122.5 515.5 Q130 496 143 482.5 Q156 469 172 462 Q188 455 206 455 Q224 455 240 462 Q256 469 268.5 482.5 Q281 496 288.5 515.5 Q296 535 296 560 Q296 611 269.5 638.5 Q243 666 206 666 Z M369 340 Q377 340 377 332 L377 307 Q377 299 369 299 L64 299 Q56 299 56 307 L56 332 Q56 340 64 340 L369 340 Z " />
<glyph glyph-name="ordmasculine" unicode="&#xba;" horiz-adv-x="405" d="M203 414 Q169 414 140 425.5 Q111 437 90 457.5 Q69 478 57 506.5 Q45 535 45 568 Q45 602 57 630 Q69 658 90 678 Q111 698 140 709 Q169 720 203 720 Q236 720 265 709 Q294 698 315 678 Q336 658 348 630 Q360 602 360 568 Q360 535 348 506.5 Q336 478 315 457.5 Q294 437 265 425.5 Q236 414 203 414 Z M203 470 Q243 470 269.5 497.5 Q296 525 296 568 Q296 611 269.5 638 Q243 665 203 665 Q163 665 136.5 638 Q110 611 110 568 Q110 525 136.5 497.5 Q163 470 203 470 Z M65 310 Q57 310 57 318 L57 343 Q57 351 65 351 L345 351 Q353 351 353 343 L353 318 Q353 310 345 310 L65 310 Z " />
<glyph glyph-name="Delta" unicode="&#x394;" horiz-adv-x="627" d="M25 0 Q16 0 16 10 L16 27 Q16 36 20 45 L282 706 Q285 714 295 714 L333 714 Q342 714 346 705 L608 44 Q611 36 611 26 L611 9 Q611 0 601 0 L25 0 Z M528 62 L313 604 L98 62 L528 62 Z " />
<glyph glyph-name="Omega" unicode="&#x3a9;" horiz-adv-x="703" d="M61 0 Q52 0 52 10 L52 59 Q52 68 62 68 L243 68 L243 147 Q198 162 161 188.5 Q124 215 97.5 250.5 Q71 286 56 329.5 Q41 373 41 423 Q41 487 65 541.5 Q89 596 130 636 Q171 676 227 698 Q283 720 348 720 Q412 720 468 698 Q524 676 565.5 636 Q607 596 631 541.5 Q655 487 655 423 Q655 373 640 329.5 Q625 286 598 250.5 Q571 215 534 188.5 Q497 162 453 147 L453 68 L635 68 Q644 68 644 58 L644 9 Q644 0 634 0 L392 0 Q383 0 383 10 L383 147 Q383 156 392 160 Q431 175 464.5 199 Q498 223 522.5 255 Q547 287 560.5 326 Q574 365 574 411 Q574 462 557 505 Q540 548 510 579.5 Q480 611 438.5 629 Q397 647 348 647 Q299 647 257.5 629 Q216 611 186 579.5 Q156 548 139.5 505 Q123 462 123 411 Q123 365 136.5 325.5 Q150 286 174 254.5 Q198 223 231.5 199 Q265 175 305 159 Q313 156 313 146 L313 9 Q313 0 303 0 L61 0 L61 0 Z " />
<glyph glyph-name="mu" unicode="&#x3bc;" horiz-adv-x="546" d="M467 480 Q476 480 476 470 L476 9 Q476 0 466 0 L416 0 Q407 0 407 10 L404 90 L400 93 Q360 -10 258 -10 Q220 -10 190.5 3.5 Q161 17 143 46 L150 -162 Q150 -171 140 -171 L77 -171 Q68 -171 68 -161 L75 70 L70 471 Q70 480 80 480 L141 480 Q150 480 150 470 L150 181 Q150 110 181 80 Q212 50 263 50 Q326 50 361.5 96 Q397 142 397 218 L397 471 Q397 480 407 480 L467 480 L467 480 Z " />
<glyph glyph-name="pi" unicode="&#x3c0;" horiz-adv-x="546" d="M506 66 Q510 68 512 68 Q516 68 516 59 L516 20 Q516 11 507 6 Q493 -1 473.5 -5.5 Q454 -10 435 -10 Q386 -10 358 18.5 Q330 47 330 107 L330 418 L172 418 L172 9 Q172 0 162 0 L103 0 Q94 0 94 10 L94 418 L13 418 Q4 418 4 428 L4 471 Q4 480 14 480 L487 480 Q496 480 496 470 L496 427 Q496 418 486 418 L407 418 L407 120 Q407 85 421.5 71 Q436 57 461 57 Q486 57 506 66 Z " />
<glyph glyph-name="zero" unicode="0" horiz-adv-x="653" d="M326 -10 Q269 -10 220 13.5 Q171 37 135 82.5 Q99 128 78 196 Q57 264 57 353 Q57 442 78 510.5 Q99 579 135.5 625.5 Q172 672 221 696 Q270 720 326 720 Q382 720 431 696 Q480 672 516.5 625 Q553 578 574 509.5 Q595 441 595 353 Q595 264 574 196.5 Q553 129 517 83 Q481 37 432 13.5 Q383 -10 326 -10 Z M326 65 Q368 65 402.5 83.5 Q437 102 462 138.5 Q487 175 501 228.5 Q515 282 515 353 Q515 423 501 477.5 Q487 532 462 569.5 Q437 607 402.5 626.5 Q368 646 326 646 Q285 646 250.5 626.5 Q216 607 191 570 Q166 533 152 478 Q138 423 138 353 Q138 282 152 228.5 Q166 175 191 138.5 Q216 102 250.5 83.5 Q285 65 326 65 Z " />
<glyph glyph-name="one" unicode="1" horiz-adv-x="437" d="M283 710 Q292 710 292 700 L292 9 Q292 0 282 0 L221 0 Q212 0 212 10 L212 615 L57 541 Q53 539 53 539 Q49 539 49 547 L49 600 Q49 609 58 613 L247 706 Q254 710 265 710 L283 710 L283 710 Z " />
<glyph glyph-name="two" unicode="2" horiz-adv-x="546" d="M487 69 Q496 69 496 59 L496 9 Q496 0 486 0 L50 0 Q37 0 37 9 Q37 13 44 22 L276 313 Q299 342 318.5 367.5 Q338 393 352.5 417.5 Q367 442 375 466.5 Q383 491 383 518 Q383 547 371 571.5 Q359 596 336.5 613.5 Q314 631 283 641 Q252 651 214 651 Q172 651 135.5 640.5 Q99 630 73 616 Q66 613 63 611 Q60 609 58 609 Q54 609 54 617 L54 667 Q54 676 63 681 Q96 699 141.5 709.5 Q187 720 236 720 Q287 720 329.5 706.5 Q372 693 402 668 Q432 643 448.5 608.5 Q465 574 465 531 Q465 468 434 414 Q403 360 354 299 L166 69 L487 69 L487 69 Z " />
<glyph glyph-name="three" unicode="3" horiz-adv-x="536" d="M297 381 Q388 366 437 316.5 Q486 267 486 198 Q486 153 467 115 Q448 77 413.5 49.5 Q379 22 332 6 Q285 -10 228 -10 Q174 -10 130.5 -1 Q87 8 54 23 Q50 25 48 28 Q46 31 46 37 L46 92 Q46 101 55 97 Q89 82 128 72 Q167 62 218 62 Q259 62 292.5 73 Q326 84 350 102.5 Q374 121 387.5 146.5 Q401 172 401 202 Q401 263 344.5 301 Q288 339 180 339 L154 339 Q145 339 145 349 L145 398 Q145 407 155 407 L178 407 Q228 407 264.5 418 Q301 429 325 447 Q349 465 361 488 Q373 511 373 535 Q373 585 329.5 617.5 Q286 650 213 650 Q169 650 134.5 640 Q100 630 69 613 Q65 611 65 611 Q61 611 61 619 L61 675 Q61 684 70 688 Q102 702 142 711 Q182 720 226 720 Q279 720 321 707 Q363 694 392.5 671.5 Q422 649 437.5 618.5 Q453 588 453 552 Q453 497 414 449 Q375 401 297 381 Z " />
<glyph glyph-name="four" unicode="4" horiz-adv-x="579" d="M541 200 Q550 200 550 190 L550 143 Q550 134 540 134 L450 134 L450 9 Q450 0 440 0 L380 0 Q371 0 371 10 L371 134 L31 134 Q22 134 22 144 L22 185 Q22 195 28 202 L374 703 Q378 710 389 710 L441 710 Q450 710 450 700 L450 200 L541 200 Z M375 595 Q361 572 348 551 Q335 530 321 508 L102 201 L372 200 L372 495 Q372 539 375 595 Z " />
<glyph glyph-name="five" unicode="5" horiz-adv-x="548" d="M246 449 Q299 449 345 434.5 Q391 420 425 392 Q459 364 478.5 323 Q498 282 498 230 Q498 175 475.5 131 Q453 87 414 55.5 Q375 24 323 7 Q271 -10 211 -10 Q169 -10 129 -2 Q89 6 58 21 Q54 23 52 26 Q50 29 50 35 L50 86 Q50 91 55 91 L58 91 Q90 76 126.5 67.5 Q163 59 201 59 Q247 59 286 71.5 Q325 84 353.5 106 Q382 128 398 159 Q414 190 414 228 Q414 264 399.5 294 Q385 324 359 345 Q333 366 297 377.5 Q261 389 218 389 Q189 389 165 384 Q141 379 123 373.5 Q105 368 93 363 Q81 358 76 358 Q69 358 69 366 Q69 373 72 387 L131 701 Q132 710 143 710 L455 710 Q464 710 464 700 L464 651 Q464 642 454 642 L189 642 L149 437 Q194 449 246 449 Z " />
<glyph glyph-name="six" unicode="6" horiz-adv-x="570" d="M303 435 Q351 435 391.5 419 Q432 403 461.5 374 Q491 345 508 305 Q525 265 525 217 Q525 167 505.5 125.5 Q486 84 453 54 Q420 24 376.5 7 Q333 -10 285 -10 Q234 -10 191 6.5 Q148 23 116 52.5 Q84 82 66 123 Q48 164 48 212 Q48 266 66.5 316.5 Q85 367 126 418 L352 703 Q358 710 368 710 L436 710 Q446 710 439 702 L248 470 Q237 455 219.5 433.5 Q202 412 187 393 Q214 416 242.5 425.5 Q271 435 303 435 Z M286 60 Q320 60 350 72 Q380 84 402.5 105.5 Q425 127 438 155.5 Q451 184 451 217 Q451 253 438.5 282.5 Q426 312 403.5 332.5 Q381 353 350.5 364.5 Q320 376 284 376 Q250 376 220.5 363.5 Q191 351 169 329.5 Q147 308 134.5 278 Q122 248 122 213 Q122 181 134.5 153 Q147 125 169 104.5 Q191 84 221 72 Q251 60 286 60 Z " />
<glyph glyph-name="seven" unicode="7" horiz-adv-x="519" d="M491 710 Q501 710 496 700 L149 8 Q147 4 144 2 Q141 0 135 0 L71 0 Q61 0 66 10 L386 638 L55 638 Q46 638 46 648 L46 701 Q46 710 56 710 L491 710 L491 710 Z " />
<glyph glyph-name="eight" unicode="8" horiz-adv-x="588" d="M295 -9 Q246 -9 202.5 5.5 Q159 20 126.5 46.5 Q94 73 75 111 Q56 149 56 196 Q56 230 67 259.5 Q78 289 97.5 312.5 Q117 336 143 353 Q169 370 198 378 Q145 398 115.5 441 Q86 484 86 539 Q86 578 102 611 Q118 644 146 668.5 Q174 693 212.5 706.5 Q251 720 295 720 Q339 720 377 706.5 Q415 693 443.5 669 Q472 645 488 611.5 Q504 578 504 539 Q504 484 474 441 Q444 398 392 378 Q421 370 446.5 353 Q472 336 491.5 312.5 Q511 289 522 259.5 Q533 230 533 196 Q533 149 514 111 Q495 73 462.5 46.5 Q430 20 387 5.5 Q344 -9 295 -9 Z M294 405 Q325 405 350 415 Q375 425 393 442 Q411 459 420.5 482.5 Q430 506 430 533 Q430 559 419.5 581.5 Q409 604 390.5 620.5 Q372 637 347.5 646 Q323 655 295 655 Q266 655 241.5 646 Q217 637 198.5 620.5 Q180 604 169.5 581.5 Q159 559 159 533 Q159 506 168.5 483 Q178 460 195.5 442.5 Q213 425 238 415 Q263 405 294 405 Z M295 58 Q329 58 358 68.5 Q387 79 408 98 Q429 117 441 143.5 Q453 170 453 201 Q453 233 440.5 259.5 Q428 286 406 304.5 Q384 323 355.5 333.5 Q327 344 295 344 Q263 344 234 333.5 Q205 323 183 304.5 Q161 286 148.5 259.5 Q136 233 136 201 Q136 170 148 143.5 Q160 117 181.5 98 Q203 79 232 68.5 Q261 58 295 58 Z " />
<glyph glyph-name="nine" unicode="9" horiz-adv-x="570" d="M283 720 Q334 720 377 703.5 Q420 687 452 657.5 Q484 628 502 587 Q520 546 520 498 Q520 444 501.5 393.5 Q483 343 442 292 L216 7 Q210 0 200 0 L132 0 Q122 0 129 8 L320 240 Q331 255 348.5 276.5 Q366 298 381 317 Q354 294 325.5 284.5 Q297 275 265 275 Q217 275 176.5 291 Q136 307 106.5 336 Q77 365 60 405 Q43 445 43 493 Q43 543 62.5 584.5 Q82 626 115 656 Q148 686 191.5 703 Q235 720 283 720 Z M284 334 Q318 334 347.5 346.5 Q377 359 399 380.5 Q421 402 433.5 432 Q446 462 446 497 Q446 529 433.5 557 Q421 585 399 605.5 Q377 626 347 638 Q317 650 282 650 Q248 650 218 638 Q188 626 165.5 604.5 Q143 583 130 554.5 Q117 526 117 493 Q117 457 129.5 427.5 Q142 398 164.5 377.5 Q187 357 217.5 345.5 Q248 334 284 334 Z " />
<glyph glyph-name="onesuperior" unicode="&#xb9;" horiz-adv-x="354" d="M222 844 Q231 844 231 834 L231 433 Q231 424 221 424 L186 424 Q177 424 177 434 L177 782 L66 738 Q65 737 62 737 Q58 737 58 745 L58 775 Q58 784 67 788 L192 841 Q198 844 207 844 L222 844 L222 844 Z " />
<glyph glyph-name="twosuperior" unicode="&#xb2;" horiz-adv-x="369" d="M310 470 Q319 470 319 460 L319 433 Q319 424 309 424 L40 424 Q30 424 37 431 L182 607 Q210 641 228 668 Q246 695 246 726 Q246 760 219 781.5 Q192 803 148 803 Q122 803 99 795.5 Q76 788 56 776 Q52 774 50.5 774.5 Q49 775 49 781 L49 812 Q49 821 58 826 Q78 837 105.5 843.5 Q133 850 162 850 Q225 850 263 819.5 Q301 789 301 739 Q301 700 282.5 668.5 Q264 637 234 600 L123 470 L310 470 L310 470 Z " />
<glyph glyph-name="threesuperior" unicode="&#xb3;" horiz-adv-x="356" d="M199 650 Q256 641 285.5 612 Q315 583 315 542 Q315 515 303 492 Q291 469 270 452.5 Q249 436 219.5 427 Q190 418 155 418 Q123 418 97.5 423 Q72 428 52 436 Q48 438 46 441 Q44 444 44 450 L44 477 Q44 486 53 482 Q73 474 95 469 Q117 464 146 464 Q195 464 225 487 Q255 510 255 545 Q255 580 221.5 602 Q188 624 125 624 L112 624 Q103 624 103 634 L103 657 Q103 666 113 666 L123 666 Q183 666 211 688.5 Q239 711 239 740 Q239 769 213.5 787.5 Q188 806 144 806 Q118 806 98.5 801 Q79 796 60 788 Q56 786 56 786 Q52 786 52 794 L52 820 Q52 829 61 833 Q81 841 104.5 845.5 Q128 850 153 850 Q219 850 256.5 821.5 Q294 793 294 751 Q294 718 270.5 689.5 Q247 661 199 650 Z " />
<glyph glyph-name="fraction" unicode="&#x2044;" horiz-adv-x="115" d="M-195 -11 Q-203 -6 -198 2 L270 721 Q275 729 284 724 L297 716 Q305 711 300 703 L-169 -16 Q-174 -24 -182 -19 L-195 -11 L-195 -11 Z " />
<glyph glyph-name="onehalf" unicode="&#xbd;" horiz-adv-x="846" d="M222 714 Q231 714 231 704 L231 303 Q231 294 221 294 L186 294 Q177 294 177 304 L177 652 L66 608 Q65 607 62 607 Q58 607 58 615 L58 645 Q58 654 67 658 L192 711 Q198 714 207 714 L222 714 L222 714 Z M167 -11 Q159 -6 164 2 L632 721 Q637 729 646 724 L659 716 Q667 711 662 703 L193 -16 Q188 -24 180 -19 L167 -11 L167 -11 Z M787 46 Q796 46 796 36 L796 9 Q796 0 786 0 L517 0 Q507 0 514 7 L659 183 Q687 217 705 244 Q723 271 723 302 Q723 336 696 357.5 Q669 379 625 379 Q599 379 576 371.5 Q553 364 533 352 Q529 350 527.5 350.5 Q526 351 526 357 L526 388 Q526 397 535 402 Q555 413 582.5 419.5 Q610 426 639 426 Q702 426 740 395.5 Q778 365 778 315 Q778 276 759.5 244.5 Q741 213 711 176 L600 46 L787 46 L787 46 Z " />
<glyph glyph-name="onequarter" unicode="&#xbc;" horiz-adv-x="751" d="M222 714 Q231 714 231 704 L231 303 Q231 294 221 294 L186 294 Q177 294 177 304 L177 652 L66 608 Q65 607 62 607 Q58 607 58 615 L58 645 Q58 654 67 658 L192 711 Q198 714 207 714 L222 714 L222 714 Z M167 -11 Q159 -6 164 2 L632 721 Q637 729 646 724 L659 716 Q667 711 662 703 L193 -16 Q188 -24 180 -19 L167 -11 L167 -11 Z M719 119 Q728 119 728 109 L728 86 Q728 77 718 77 L670 77 L670 9 Q670 0 660 0 L628 0 Q619 0 619 10 L619 77 L426 77 Q418 77 418 85 L418 110 Q418 118 422 125 L618 413 Q621 420 630 420 L661 420 Q670 420 670 410 L670 119 L719 119 Z M467 120 L620 119 L621 343 L467 120 Z " />
<glyph glyph-name="threequarters" unicode="&#xbe;" horiz-adv-x="745" d="M199 520 Q256 511 285.5 482 Q315 453 315 412 Q315 385 303 362 Q291 339 270 322.5 Q249 306 219.5 297 Q190 288 155 288 Q123 288 97.5 293 Q72 298 52 306 Q48 308 46 311 Q44 314 44 320 L44 347 Q44 356 53 352 Q73 344 95 339 Q117 334 146 334 Q195 334 225 357 Q255 380 255 415 Q255 450 221.5 472 Q188 494 125 494 L112 494 Q103 494 103 504 L103 527 Q103 536 113 536 L123 536 Q183 536 211 558.5 Q239 581 239 610 Q239 639 213.5 657.5 Q188 676 144 676 Q118 676 98.5 671 Q79 666 60 658 Q56 656 56 656 Q52 656 52 664 L52 690 Q52 699 61 703 Q81 711 104.5 715.5 Q128 720 153 720 Q219 720 256.5 691.5 Q294 663 294 621 Q294 588 270.5 559.5 Q247 531 199 520 Z M161 -11 Q153 -6 158 2 L626 721 Q631 729 640 724 L653 716 Q661 711 656 703 L187 -16 Q182 -24 174 -19 L161 -11 L161 -11 Z M714 119 Q723 119 723 109 L723 86 Q723 77 713 77 L665 77 L665 9 Q665 0 655 0 L623 0 Q614 0 614 10 L614 77 L421 77 Q413 77 413 85 L413 110 Q413 118 417 125 L613 413 Q616 420 625 420 L656 420 Q665 420 665 410 L665 119 L714 119 Z M462 120 L615 119 L616 343 L462 120 Z " />
<glyph glyph-name="oneeighth" unicode="&#x215b;" horiz-adv-x="845" d="M222 714 Q231 714 231 704 L231 303 Q231 294 221 294 L186 294 Q177 294 177 304 L177 652 L66 608 Q65 607 62 607 Q58 607 58 615 L58 645 Q58 654 67 658 L192 711 Q198 714 207 714 L222 714 L222 714 Z M167 -11 Q159 -6 164 2 L632 721 Q637 729 646 724 L659 716 Q667 711 662 703 L193 -16 Q188 -24 180 -19 L167 -11 L167 -11 Z M662 -5 Q632 -5 605.5 3.5 Q579 12 558.5 27.5 Q538 43 526.5 65.5 Q515 88 515 117 Q515 158 541 185.5 Q567 213 603 223 Q570 236 551.5 260.5 Q533 285 533 319 Q533 343 543 362.5 Q553 382 570 396.5 Q587 411 611 418.5 Q635 426 662 426 Q716 426 752.5 396.5 Q789 367 789 319 Q789 285 770.5 260.5 Q752 236 720 223 Q756 213 782 185.5 Q808 158 808 117 Q808 88 796.5 65.5 Q785 43 765 27.5 Q745 12 718.5 3.5 Q692 -5 662 -5 Z M662 240 Q699 240 721 261 Q743 282 743 314 Q743 346 719.5 366 Q696 386 662 386 Q627 386 603.5 366 Q580 346 580 314 Q580 282 602 261 Q624 240 662 240 Z M662 36 Q703 36 730 59.5 Q757 83 757 120 Q757 138 749.5 153 Q742 168 729 179 Q716 190 698.5 196 Q681 202 662 202 Q642 202 625 196 Q608 190 594.5 179 Q581 168 573.5 153 Q566 138 566 120 Q566 83 593 59.5 Q620 36 662 36 Z " />
<glyph glyph-name="threeeighths" unicode="&#x215c;" horiz-adv-x="839" d="M199 520 Q256 511 285.5 482 Q315 453 315 412 Q315 385 303 362 Q291 339 270 322.5 Q249 306 219.5 297 Q190 288 155 288 Q123 288 97.5 293 Q72 298 52 306 Q48 308 46 311 Q44 314 44 320 L44 347 Q44 356 53 352 Q73 344 95 339 Q117 334 146 334 Q195 334 225 357 Q255 380 255 415 Q255 450 221.5 472 Q188 494 125 494 L112 494 Q103 494 103 504 L103 527 Q103 536 113 536 L123 536 Q183 536 211 558.5 Q239 581 239 610 Q239 639 213.5 657.5 Q188 676 144 676 Q118 676 98.5 671 Q79 666 60 658 Q56 656 56 656 Q52 656 52 664 L52 690 Q52 699 61 703 Q81 711 104.5 715.5 Q128 720 153 720 Q219 720 256.5 691.5 Q294 663 294 621 Q294 588 270.5 559.5 Q247 531 199 520 Z M161 -11 Q153 -6 158 2 L626 721 Q631 729 640 724 L653 716 Q661 711 656 703 L187 -16 Q182 -24 174 -19 L161 -11 L161 -11 Z M657 -5 Q627 -5 600.5 3.5 Q574 12 553.5 27.5 Q533 43 521.5 65.5 Q510 88 510 117 Q510 158 536 185.5 Q562 213 598 223 Q565 236 546.5 260.5 Q528 285 528 319 Q528 343 538 362.5 Q548 382 565 396.5 Q582 411 606 418.5 Q630 426 657 426 Q711 426 747.5 396.5 Q784 367 784 319 Q784 285 765.5 260.5 Q747 236 715 223 Q751 213 777 185.5 Q803 158 803 117 Q803 88 791.5 65.5 Q780 43 760 27.5 Q740 12 713.5 3.5 Q687 -5 657 -5 Z M657 240 Q694 240 716 261 Q738 282 738 314 Q738 346 714.5 366 Q691 386 657 386 Q622 386 598.5 366 Q575 346 575 314 Q575 282 597 261 Q619 240 657 240 Z M657 36 Q698 36 725 59.5 Q752 83 752 120 Q752 138 744.5 153 Q737 168 724 179 Q711 190 693.5 196 Q676 202 657 202 Q637 202 620 196 Q603 190 589.5 179 Q576 168 568.5 153 Q561 138 561 120 Q561 83 588 59.5 Q615 36 657 36 Z " />
<glyph glyph-name="fiveeighths" unicode="&#x215d;" horiz-adv-x="851" d="M170 561 Q201 561 227.5 552.5 Q254 544 274 527 Q294 510 305.5 485.5 Q317 461 317 430 Q317 398 303.5 371.5 Q290 345 267.5 326.5 Q245 308 214.5 298 Q184 288 150 288 Q98 288 64 305 Q56 308 56 319 L56 346 Q56 355 65 351 Q82 343 101 339 Q120 335 140 335 Q192 335 225 361.5 Q258 388 258 430 Q258 471 228 495.5 Q198 520 150 520 Q133 520 112 515.5 Q91 511 72 502 Q68 500 66 501 Q64 502 66 508 L99 705 Q100 714 111 714 L288 714 Q297 714 297 704 L297 677 Q297 668 287 668 L142 668 L121 556 Q146 561 170 561 Z M173 -11 Q165 -6 170 2 L638 721 Q643 729 652 724 L665 716 Q673 711 668 703 L199 -16 Q194 -24 186 -19 L173 -11 L173 -11 Z M668 -5 Q638 -5 611.5 3.5 Q585 12 564.5 27.5 Q544 43 532.5 65.5 Q521 88 521 117 Q521 158 547 185.5 Q573 213 609 223 Q576 236 557.5 260.5 Q539 285 539 319 Q539 343 549 362.5 Q559 382 576 396.5 Q593 411 617 418.5 Q641 426 668 426 Q722 426 758.5 396.5 Q795 367 795 319 Q795 285 776.5 260.5 Q758 236 726 223 Q762 213 788 185.5 Q814 158 814 117 Q814 88 802.5 65.5 Q791 43 771 27.5 Q751 12 724.5 3.5 Q698 -5 668 -5 Z M668 240 Q705 240 727 261 Q749 282 749 314 Q749 346 725.5 366 Q702 386 668 386 Q633 386 609.5 366 Q586 346 586 314 Q586 282 608 261 Q630 240 668 240 Z M668 36 Q709 36 736 59.5 Q763 83 763 120 Q763 138 755.5 153 Q748 168 735 179 Q722 190 704.5 196 Q687 202 668 202 Q648 202 631 196 Q614 190 600.5 179 Q587 168 579.5 153 Q572 138 572 120 Q572 83 599 59.5 Q626 36 668 36 Z " />
<glyph glyph-name="seveneighths" unicode="&#x215e;" horiz-adv-x="788" d="M318 714 Q327 714 322 705 L118 302 Q116 298 113 296 Q110 294 104 294 L66 294 Q57 294 62 303 L250 665 L57 665 Q48 665 48 675 L48 705 Q48 714 58 714 L318 714 L318 714 Z M110 -11 Q102 -6 107 2 L575 721 Q580 729 589 724 L602 716 Q610 711 605 703 L136 -16 Q131 -24 123 -19 L110 -11 L110 -11 Z M606 -5 Q576 -5 549.5 3.5 Q523 12 502.5 27.5 Q482 43 470.5 65.5 Q459 88 459 117 Q459 158 485 185.5 Q511 213 547 223 Q514 236 495.5 260.5 Q477 285 477 319 Q477 343 487 362.5 Q497 382 514 396.5 Q531 411 555 418.5 Q579 426 606 426 Q660 426 696.5 396.5 Q733 367 733 319 Q733 285 714.5 260.5 Q696 236 664 223 Q700 213 726 185.5 Q752 158 752 117 Q752 88 740.5 65.5 Q729 43 709 27.5 Q689 12 662.5 3.5 Q636 -5 606 -5 Z M606 240 Q643 240 665 261 Q687 282 687 314 Q687 346 663.5 366 Q640 386 606 386 Q571 386 547.5 366 Q524 346 524 314 Q524 282 546 261 Q568 240 606 240 Z M606 36 Q647 36 674 59.5 Q701 83 701 120 Q701 138 693.5 153 Q686 168 673 179 Q660 190 642.5 196 Q625 202 606 202 Q586 202 569 196 Q552 190 538.5 179 Q525 168 517.5 153 Q510 138 510 120 Q510 83 537 59.5 Q564 36 606 36 Z " />
<glyph glyph-name="asterisk" unicode="&#x2a;" horiz-adv-x="414" d="M380 564 Q380 558 373 557 L336 548 Q332 547 328 546.5 Q324 546 318 545 L227 530 L293 461 Q296 458 299 455 Q302 452 306 447 L330 420 Q333 417 333 415 Q333 411 328 408 L291 381 Q288 378 285 378 Q281 378 278 384 L259 416 Q257 420 254.5 423.5 Q252 427 250 432 L207 514 L163 431 Q160 425 154 415 L136 384 Q130 376 123 382 L86 409 Q78 414 85 422 L109 450 L122 463 L187 529 L95 545 Q86 546 76 549 L41 557 Q36 559 34.5 561 Q33 563 35 569 L49 612 Q52 621 61 617 L95 602 Q100 600 103.5 598.5 Q107 597 113 594 L195 553 L182 646 Q181 651 181 655 Q181 659 180 665 L177 701 L177 704 Q177 710 186 710 L232 710 Q241 710 240 700 L237 663 Q236 658 236 654 Q236 650 235 644 L221 555 L303 595 Q308 597 311.5 599 Q315 601 321 603 L354 617 Q356 618 359 618 Q364 618 365 611 L380 567 L380 564 Z " />
<glyph glyph-name="backslash" unicode="&#x5c;" horiz-adv-x="338" d="M341 -100 Q342 -102 342 -104 Q342 -109 334 -109 L295 -109 Q286 -109 283 -100 L-1 760 Q-2 762 -2 764 Q-2 769 6 769 L44 769 Q53 769 56 760 L341 -100 L341 -100 Z " />
<glyph glyph-name="periodcentered" unicode="&#xb7;" horiz-adv-x="230" d="M115 196 Q89 196 72.5 214 Q56 232 56 258 Q56 283 72.5 301 Q89 319 115 319 Q141 319 157.5 301 Q174 283 174 258 Q174 232 157.5 214 Q141 196 115 196 Z " />
<glyph glyph-name="bullet" unicode="&#x2022;" horiz-adv-x="289" d="M145 211 Q105 211 80.5 238.5 Q56 266 56 304 Q56 342 80.5 369 Q105 396 145 396 Q184 396 208.5 369 Q233 342 233 304 Q233 266 208.5 238.5 Q184 211 145 211 Z " />
<glyph glyph-name="colon" unicode="&#x3a;" horiz-adv-x="225" d="M114 301 Q88 301 72 319 Q56 337 56 362 Q56 386 72 404 Q88 422 114 422 Q140 422 155.5 404 Q171 386 171 362 Q171 337 155.5 319 Q140 301 114 301 Z M114 -9 Q88 -9 72 9 Q56 27 56 52 Q56 76 72 94 Q88 112 114 112 Q140 112 155.5 94 Q171 76 171 52 Q171 27 155.5 9 Q140 -9 114 -9 Z " />
<glyph glyph-name="comma" unicode="&#x2c;" horiz-adv-x="232" d="M115 116 Q140 116 158 99 Q176 82 176 54 Q176 34 168 15 Q160 -4 151 -25 L100 -139 Q95 -148 87 -148 L74 -148 Q63 -148 66 -136 L105 -6 Q85 -3 70.5 13 Q56 29 56 53 Q56 82 74 99 Q92 116 115 116 Z " />
<glyph glyph-name="ellipsis" unicode="&#x2026;" horiz-adv-x="642" d="M115 -7 Q89 -7 72.5 11 Q56 29 56 55 Q56 80 72.5 98 Q89 116 115 116 Q141 116 157.5 98 Q174 80 174 55 Q174 29 157.5 11 Q141 -7 115 -7 Z M321 -7 Q295 -7 278.5 11 Q262 29 262 55 Q262 80 278.5 98 Q295 116 321 116 Q347 116 363.5 98 Q380 80 380 55 Q380 29 363.5 11 Q347 -7 321 -7 Z M527 -7 Q501 -7 484.5 11 Q468 29 468 55 Q468 80 484.5 98 Q501 116 527 116 Q553 116 569.5 98 Q586 80 586 55 Q586 29 569.5 11 Q553 -7 527 -7 Z " />
<glyph glyph-name="exclam" unicode="&#x21;" horiz-adv-x="238" d="M99 188 Q90 188 90 198 L76 701 Q76 710 86 710 L152 710 Q161 710 161 700 L148 197 Q148 188 138 188 L99 188 Z M119 -7 Q93 -7 76.5 11 Q60 29 60 55 Q60 80 76.5 98 Q93 116 119 116 Q145 116 161.5 98 Q178 80 178 55 Q178 29 161.5 11 Q145 -7 119 -7 Z " />
<glyph glyph-name="exclamdown" unicode="&#xa1;" horiz-adv-x="238" d="M119 719 Q145 719 161.5 701 Q178 683 178 657 Q178 632 161.5 614 Q145 596 119 596 Q93 596 76.5 614 Q60 632 60 657 Q60 683 76.5 701 Q93 719 119 719 Z M90 515 Q90 524 100 524 L139 524 Q148 524 148 514 L161 11 Q161 2 151 2 L85 2 Q76 2 76 12 L90 515 Z " />
<glyph glyph-name="numbersign" unicode="&#x23;" horiz-adv-x="636" d="M599 513 Q608 513 608 503 L608 470 Q608 464 601 464 L474 464 L432 260 L574 260 Q580 260 580 253 L580 218 Q580 211 572 211 L423 211 L382 9 Q380 0 370 0 L334 0 Q328 0 329 7 L370 211 L198 211 L157 7 Q156 0 148 0 L113 0 Q103 0 106 10 L146 211 L47 211 Q38 211 38 221 L38 251 Q38 260 48 260 L156 260 L197 464 L72 464 Q65 464 65 472 L65 504 Q65 513 75 513 L207 513 L245 701 Q246 710 257 710 L293 710 Q299 710 298 703 L260 513 L432 513 L470 703 Q471 710 479 710 L514 710 Q523 710 521 700 L483 513 L599 513 Z M422 464 L250 464 L208 260 L380 260 L422 464 Z " />
<glyph glyph-name="period" unicode="&#x2e;" horiz-adv-x="230" d="M115 -7 Q89 -7 72.5 11 Q56 29 56 55 Q56 80 72.5 98 Q89 116 115 116 Q141 116 157.5 98 Q174 80 174 55 Q174 29 157.5 11 Q141 -7 115 -7 Z " />
<glyph glyph-name="question" unicode="&#x3f;" horiz-adv-x="483" d="M178 174 Q171 174 171 182 L165 328 Q165 336 173 340 Q208 356 239.5 373.5 Q271 391 295 413 Q319 435 333 461.5 Q347 488 347 523 Q347 553 334.5 577.5 Q322 602 300.5 619 Q279 636 249 645 Q219 654 184 654 Q142 654 107.5 645 Q73 636 44 621 Q40 619 40 619 Q36 619 36 627 L36 675 Q36 684 45 688 Q75 702 115.5 711 Q156 720 201 720 Q253 720 294.5 706.5 Q336 693 365.5 668 Q395 643 411 609 Q427 575 427 533 Q427 488 410 452.5 Q393 417 365 389.5 Q337 362 302.5 341 Q268 320 233 303 L229 181 Q229 174 221 174 L178 174 Z M197 -8 Q170 -8 153.5 9.5 Q137 27 137 51 Q137 75 153.5 92 Q170 109 197 109 Q224 109 240.5 92 Q257 75 257 51 Q257 27 240.5 9.5 Q224 -8 197 -8 Z " />
<glyph glyph-name="questiondown" unicode="&#xbf;" horiz-adv-x="484" d="M287 720 Q314 720 330.5 702.5 Q347 685 347 661 Q347 637 330.5 620 Q314 603 287 603 Q260 603 243.5 620 Q227 637 227 661 Q227 685 243.5 702.5 Q260 720 287 720 Z M306 538 Q313 538 313 530 L319 384 Q319 376 311 372 Q276 356 244.5 338.5 Q213 321 189 299 Q165 277 151 250 Q137 223 137 189 Q137 159 149 134.5 Q161 110 183 93 Q205 76 235 67 Q265 58 300 58 Q342 58 376.5 67 Q411 76 440 91 Q444 93 444 93 Q448 93 448 85 L448 37 Q448 28 439 24 Q409 10 368.5 1 Q328 -8 283 -8 Q231 -8 189.5 5.5 Q148 19 118.5 44 Q89 69 73 103 Q57 137 57 179 Q57 224 74 259.5 Q91 295 119 322.5 Q147 350 181.5 371 Q216 392 251 409 L255 531 Q255 538 263 538 L306 538 Z " />
<glyph glyph-name="quotedbl" unicode="&#x22;" horiz-adv-x="375" d="M73 475 Q64 475 63 485 L50 701 L50 704 Q50 710 59 710 L122 710 Q131 710 130 700 L117 484 Q116 479 114 477 Q112 475 106 475 L73 475 Z M230 475 Q221 475 220 485 L207 701 L207 704 Q207 710 216 710 L279 710 Q288 710 287 700 L274 484 Q273 479 271 477 Q269 475 263 475 L230 475 Z " />
<glyph glyph-name="quotesingle" unicode="&#x27;" horiz-adv-x="200" d="M83 475 Q74 475 73 485 L60 701 L60 704 Q60 710 69 710 L132 710 Q141 710 140 700 L127 484 Q126 479 124 477 Q122 475 116 475 L83 475 L83 475 Z " />
<glyph glyph-name="semicolon" unicode="&#x3b;" horiz-adv-x="229" d="M115 297 Q89 297 72.5 315 Q56 333 56 359 Q56 384 72.5 402 Q89 420 115 420 Q141 420 157.5 402 Q174 384 174 359 Q174 333 157.5 315 Q141 297 115 297 Z M114 112 Q139 112 156.5 95.5 Q174 79 174 51 Q174 32 166 13 Q158 -6 150 -27 L99 -139 Q94 -148 87 -148 L74 -148 Q63 -148 66 -136 L104 -8 Q84 -5 70 11 Q56 27 56 50 Q56 79 74 95.5 Q92 112 114 112 Z " />
<glyph glyph-name="slash" unicode="&#x2f;" horiz-adv-x="338" d="M4 -109 Q-5 -109 -2 -100 L283 760 Q286 769 296 769 L334 769 Q343 769 340 760 L56 -100 Q53 -109 43 -109 L4 -109 L4 -109 Z " />
<glyph glyph-name="underscore" unicode="&#x5f;" horiz-adv-x="541" d="M72 -143 Q63 -143 63 -133 L63 -90 Q63 -81 73 -81 L469 -81 Q478 -81 478 -91 L478 -134 Q478 -143 468 -143 L72 -143 L72 -143 Z " />
<glyph glyph-name="braceleft" unicode="&#x7b;" horiz-adv-x="250" d="M177 669 Q148 669 131 653 Q114 637 114 609 Q114 587 124.5 558 Q135 529 147.5 498 Q160 467 170.5 436 Q181 405 181 380 Q181 351 162.5 324 Q144 297 104 290 Q144 283 162.5 256 Q181 229 181 200 Q181 174 170.5 143.5 Q160 113 147.5 82 Q135 51 124.5 22 Q114 -7 114 -29 Q114 -57 131 -73 Q148 -89 177 -89 Q195 -89 208 -85 L211 -85 Q217 -85 217 -93 L217 -118 Q217 -127 208 -130 Q190 -136 157 -136 Q102 -136 77 -108 Q52 -80 52 -39 Q52 -11 63 20.5 Q74 52 86.5 83.5 Q99 115 110 144.5 Q121 174 121 197 Q121 220 108 239.5 Q95 259 57 263 Q48 264 48 274 L48 307 Q48 316 58 317 Q95 321 108 340.5 Q121 360 121 383 Q121 406 110 435.5 Q99 465 86.5 496.5 Q74 528 63 559.5 Q52 591 52 619 Q52 660 77 688 Q102 716 157 716 Q174 716 186.5 714 Q199 712 209 710 Q217 707 217 697 L217 672 Q217 663 207 666 Q193 669 177 669 Z " />
<glyph glyph-name="braceright" unicode="&#x7d;" horiz-adv-x="250" d="M195 317 Q200 316 202 314 Q204 312 204 306 L204 273 Q204 264 194 263 Q157 259 144 239.5 Q131 220 131 197 Q131 174 142 144.5 Q153 115 165.5 83.5 Q178 52 189 20.5 Q200 -11 200 -39 Q200 -80 175 -108 Q150 -136 95 -136 Q78 -136 65.5 -134 Q53 -132 43 -130 Q35 -127 35 -117 L35 -92 Q35 -84 45 -86 Q58 -89 75 -89 Q104 -89 121 -73 Q138 -57 138 -29 Q138 -7 127.5 22 Q117 51 104.5 82 Q92 113 81.5 143.5 Q71 174 71 200 Q71 229 89.5 256 Q108 283 148 290 Q108 297 89.5 324 Q71 351 71 380 Q71 405 81.5 436 Q92 467 104.5 498 Q117 529 127.5 558 Q138 587 138 609 Q138 637 121 653 Q104 669 75 669 Q57 669 44 665 L41 665 Q35 665 35 673 L35 698 Q35 707 44 710 Q62 716 95 716 Q150 716 175 688 Q200 660 200 619 Q200 591 189 559.5 Q178 528 165.5 496.5 Q153 465 142 435.5 Q131 406 131 383 Q131 360 144 340.5 Q157 321 195 317 Z " />
<glyph glyph-name="bracketleft" unicode="&#x5b;" horiz-adv-x="290" d="M250 -122 Q250 -131 240 -131 L86 -131 Q77 -131 77 -121 L77 701 Q77 710 87 710 L235 710 Q244 710 244 700 L244 665 Q244 656 234 656 L139 656 L139 -77 L241 -77 Q250 -77 250 -87 L250 -122 L250 -122 Z " />
<glyph glyph-name="bracketright" unicode="&#x5d;" horiz-adv-x="290" d="M49 -131 Q40 -131 40 -121 L40 -86 Q40 -77 50 -77 L151 -77 L151 656 L55 656 Q46 656 46 666 L46 701 Q46 710 56 710 L204 710 Q213 710 213 700 L213 -122 Q213 -131 203 -131 L49 -131 L49 -131 Z " />
<glyph glyph-name="parenleft" unicode="&#x28;" horiz-adv-x="309" d="M283 -117 Q289 -124 279 -124 L235 -124 Q230 -124 227 -123 Q224 -122 219 -117 Q144 -38 101.5 69 Q59 176 59 293 Q59 411 101.5 518 Q144 625 220 704 Q226 710 236 710 L280 710 Q285 710 286 709 Q287 708 282 703 Q246 661 217 611 Q188 561 167.5 508 Q147 455 136.5 400 Q126 345 126 293 Q126 241 137 186 Q148 131 168 77.5 Q188 24 217.5 -25.5 Q247 -75 283 -117 Z " />
<glyph glyph-name="parenright" unicode="&#x29;" horiz-adv-x="309" d="M29 -124 Q24 -124 23 -123 Q22 -122 27 -117 Q63 -75 92 -25 Q121 25 141.5 78 Q162 131 172.5 186 Q183 241 183 293 Q183 345 172 400 Q161 455 141 508.5 Q121 562 91.5 611.5 Q62 661 26 703 Q20 710 30 710 L74 710 Q79 710 82 709 Q85 708 90 703 Q165 624 207.5 517 Q250 410 250 293 Q250 175 207.5 68 Q165 -39 89 -118 Q83 -124 73 -124 L29 -124 L29 -124 Z " />
<glyph glyph-name="emdash" unicode="&#x2014;" horiz-adv-x="899" d="M72 227 Q63 227 63 237 L63 279 Q63 288 73 288 L827 288 Q836 288 836 278 L836 236 Q836 227 826 227 L72 227 L72 227 Z " />
<glyph glyph-name="endash" unicode="&#x2013;" horiz-adv-x="541" d="M72 227 Q63 227 63 237 L63 280 Q63 289 73 289 L469 289 Q478 289 478 279 L478 236 Q478 227 468 227 L72 227 L72 227 Z " />
<glyph glyph-name="hyphen" unicode="&#x2d;" horiz-adv-x="409" d="M72 227 Q63 227 63 237 L63 280 Q63 289 73 289 L337 289 Q346 289 346 279 L346 236 Q346 227 336 227 L72 227 L72 227 Z " />
<glyph glyph-name="softhyphen" unicode="&#xad;" horiz-adv-x="409" d="M72 227 Q63 227 63 237 L63 280 Q63 289 73 289 L337 289 Q346 289 346 279 L346 236 Q346 227 336 227 L72 227 L72 227 Z " />
<glyph glyph-name="guillemetleft" unicode="&#xab;" horiz-adv-x="555" d="M246 45 Q242 41 241 41 Q239 41 234 46 L57 252 Q54 256 54 259 Q54 262 58 266 L234 459 Q237 463 240 463 Q243 463 247 459 L274 432 Q277 429 277 425 Q277 422 274 418 L138 259 L274 92 Q277 87 277 84 Q277 81 274 77 L246 45 Z M440 45 Q436 41 435 41 Q433 41 428 46 L251 252 Q248 256 248 259 Q248 262 252 266 L428 459 Q431 463 434 463 Q437 463 441 459 L468 432 Q471 429 471 425 Q471 422 468 418 L332 259 L468 92 Q471 87 471 84 Q471 81 468 77 L440 45 Z " />
<glyph glyph-name="guillemetright" unicode="&#xbb;" horiz-adv-x="555" d="M127 45 Q123 41 122 41 Q120 41 115 46 L87 78 Q84 82 84 86 Q84 88 87 93 L223 259 L87 419 Q84 423 84 426 Q84 429 88 433 L115 460 Q118 463 121 463 Q124 463 128 459 L304 266 Q307 261 307 258 Q307 255 304 251 L127 45 Z M321 45 Q317 41 316 41 Q314 41 309 46 L281 78 Q278 82 278 86 Q278 88 281 93 L417 259 L281 419 Q278 423 278 426 Q278 429 282 433 L309 460 Q312 463 315 463 Q318 463 322 459 L498 266 Q501 261 501 258 Q501 255 498 251 L321 45 Z " />
<glyph glyph-name="guilsinglleft" unicode="&#x2039;" horiz-adv-x="361" d="M246 45 Q242 41 241 41 Q239 41 234 46 L57 252 Q54 256 54 259 Q54 262 58 266 L234 459 Q237 463 240 463 Q243 463 247 459 L274 432 Q277 429 277 425 Q277 422 274 418 L138 259 L274 92 Q277 87 277 84 Q277 81 274 77 L246 45 L246 45 Z " />
<glyph glyph-name="guilsinglright" unicode="&#x203a;" horiz-adv-x="361" d="M127 45 Q123 41 122 41 Q120 41 115 46 L87 78 Q84 82 84 86 Q84 88 87 93 L223 259 L87 419 Q84 423 84 426 Q84 429 88 433 L115 460 Q118 463 121 463 Q124 463 128 459 L304 266 Q307 261 307 258 Q307 255 304 251 L127 45 L127 45 Z " />
<glyph glyph-name="quotedblbase" unicode="&#x201e;" horiz-adv-x="407" d="M114 116 Q139 116 157 99 Q175 82 175 54 Q175 34 167 15 Q159 -4 150 -25 L99 -139 Q94 -148 86 -148 L73 -148 Q62 -148 65 -136 L104 -6 Q84 -3 69.5 13 Q55 29 55 53 Q55 82 73 99 Q91 116 114 116 Z M289 116 Q314 116 332 99 Q350 82 350 54 Q350 34 342 15 Q334 -4 325 -25 L274 -139 Q269 -148 261 -148 L248 -148 Q237 -148 240 -136 L279 -6 Q259 -3 244.5 13 Q230 29 230 53 Q230 82 248 99 Q266 116 289 116 Z " />
<glyph glyph-name="quotedblleft" unicode="&#x201c;" horiz-adv-x="407" d="M105 568 Q125 565 139.5 549 Q154 533 154 509 Q154 480 136 463 Q118 446 95 446 Q70 446 52 463 Q34 480 34 508 Q34 528 42 547 Q50 566 59 587 L110 701 Q114 710 123 710 L136 710 Q147 710 144 698 L105 568 L105 568 Z M280 568 Q300 565 314.5 549 Q329 533 329 509 Q329 480 311 463 Q293 446 270 446 Q245 446 227 463 Q209 480 209 508 Q209 528 217 547 Q225 566 234 587 L285 701 Q289 710 298 710 L311 710 Q322 710 319 698 L280 568 L280 568 Z " />
<glyph glyph-name="quotedblright" unicode="&#x201d;" horiz-adv-x="407" d="M141 720 Q166 720 184 703 Q202 686 202 658 Q202 638 194 619 Q186 600 177 579 L126 465 Q121 456 113 456 L100 456 Q89 456 92 468 L131 598 Q111 601 96.5 617 Q82 633 82 657 Q82 686 100 703 Q118 720 141 720 Z M316 720 Q341 720 359 703 Q377 686 377 658 Q377 638 369 619 Q361 600 352 579 L301 465 Q296 456 288 456 L275 456 Q264 456 267 468 L306 598 Q286 601 271.5 617 Q257 633 257 657 Q257 686 275 703 Q293 720 316 720 Z " />
<glyph glyph-name="quoteleft" unicode="&#x2018;" horiz-adv-x="232" d="M106 578 Q126 575 140.5 559 Q155 543 155 519 Q155 490 137 473 Q119 456 96 456 Q71 456 53 473 Q35 490 35 518 Q35 538 43 557 Q51 576 60 597 L111 711 Q115 720 124 720 L137 720 Q148 720 145 708 L106 578 L106 578 Z " />
<glyph glyph-name="quoteright" unicode="&#x2019;" horiz-adv-x="232" d="M139 720 Q164 720 182 703 Q200 686 200 658 Q200 638 192 619 Q184 600 175 579 L124 465 Q119 456 111 456 L98 456 Q87 456 90 468 L129 598 Q109 601 94.5 617 Q80 633 80 657 Q80 686 98 703 Q116 720 139 720 Z " />
<glyph glyph-name="quotesinglbase" unicode="&#x201a;" horiz-adv-x="232" d="M115 116 Q140 116 158 99 Q176 82 176 54 Q176 34 168 15 Q160 -4 151 -25 L100 -139 Q95 -148 87 -148 L74 -148 Q63 -148 66 -136 L105 -6 Q85 -3 70.5 13 Q56 29 56 53 Q56 82 74 99 Q92 116 115 116 Z " />
<glyph glyph-name="emspace" unicode="&#x2003;" horiz-adv-x="1000" d="" />
<glyph glyph-name="enspace" unicode="&#x2002;" horiz-adv-x="500" d="" />
<glyph glyph-name="fourperemspace" unicode="&#x2005;" horiz-adv-x="250" d="" />
<glyph glyph-name="hairspace" unicode="&#x200a;" horiz-adv-x="68" d="" />
<glyph glyph-name="Acircumflex" unicode="&#xc2;" horiz-adv-x="663" d="M635 8 Q636 7 636 4 Q636 0 628 0 L556 0 Q547 0 543 9 L471 199 L172 199 L98 8 Q95 0 85 0 L18 0 Q9 0 13 9 L292 705 Q295 713 305 713 L345 713 Q354 713 358 704 L635 8 Z M446 267 Q415 350 384.5 434 Q354 518 323 609 Q291 518 260 433.5 Q229 349 198 267 L446 267 Z M466 762 Q470 756 463 756 L422 756 Q414 756 408 762 L324 851 L240 762 Q234 756 226 756 L184 756 Q175 756 181 762 L290 894 Q294 900 303 900 L344 900 Q351 900 357 894 L466 762 L466 762 Z " />
<glyph glyph-name="nbspace" unicode="&#xa0;" horiz-adv-x="214" d="" />
<glyph glyph-name="thinspace" unicode="&#x2009;" horiz-adv-x="107" d="" />
<glyph glyph-name="threeperemspace" unicode="&#x2004;" horiz-adv-x="546" d="" />
<glyph glyph-name="cent" unicode="&#xa2;" horiz-adv-x="469" d="M416 196 Q420 198 426 198 Q435 198 435 183 L435 142 Q435 134 427 131 Q404 121 372.5 114.5 Q341 108 304 107 L294 -16 Q294 -26 284 -26 L256 -26 Q246 -26 247 -16 L257 110 Q213 116 174.5 136 Q136 156 107.5 188 Q79 220 62 262.5 Q45 305 45 358 Q45 412 62 455.5 Q79 499 109.5 531.5 Q140 564 181 583 Q222 602 270 606 L279 726 Q280 735 290 735 L318 735 Q327 735 327 726 L317 606 Q348 604 374.5 598.5 Q401 593 422 585 Q429 582 429 573 L429 532 Q429 518 420 518 Q416 518 409 521 Q387 529 361.5 534 Q336 539 309 539 Q270 539 236.5 526.5 Q203 514 178 490 Q153 466 138.5 432.5 Q124 399 124 357 Q124 314 139 280 Q154 246 179.5 223 Q205 200 239 187.5 Q273 175 311 175 Q371 175 416 196 Z " />
<glyph glyph-name="currency" unicode="&#xa4;" horiz-adv-x="585" d="M564 116 Q567 113 567 109 Q567 106 563 102 L541 81 Q538 78 534 78 Q531 78 527 82 L426 188 Q400 165 366 152 Q332 139 292 139 Q252 139 218 152 Q184 165 158 189 L55 81 Q52 77 49 77 Q46 77 42 81 L20 103 Q17 106 17 109 Q17 112 21 116 L126 226 Q87 282 87 360 Q87 399 97 433.5 Q107 468 126 496 L20 607 Q17 611 17 614 Q17 617 21 621 L43 642 Q46 645 49 645 Q52 645 56 641 L159 533 Q185 556 218.5 568.5 Q252 581 292 581 Q332 581 365.5 568.5 Q399 556 425 533 L528 641 Q531 645 534 645 Q537 645 541 641 L563 620 Q567 617 567 614 Q567 611 563 607 L457 496 Q497 439 497 360 Q497 322 487 288 Q477 254 458 226 L564 116 Z M292 198 Q324 198 350.5 210 Q377 222 396.5 244 Q416 266 426.5 295.5 Q437 325 437 360 Q437 395 426.5 424.5 Q416 454 396.5 476 Q377 498 350.5 510 Q324 522 292 522 Q260 522 233 510 Q206 498 187 476 Q168 454 157.5 424.5 Q147 395 147 360 Q147 325 157.5 295.5 Q168 266 187 244 Q206 222 233 210 Q260 198 292 198 Z " />
<glyph glyph-name="dollar" unicode="&#x24;" horiz-adv-x="585" d="M510 209 Q510 165 494 129 Q478 93 449.5 67 Q421 41 381 26 Q341 11 293 8 L282 -123 Q281 -128 279 -130 Q277 -132 271 -132 L240 -132 Q231 -132 232 -122 L243 9 Q199 13 157 24.5 Q115 36 85 54 Q77 58 77 69 L77 125 Q77 134 85 129 Q120 107 162 93 Q204 79 248 76 L269 337 Q238 349 205 362.5 Q172 376 145 397 Q118 418 101 448 Q84 478 84 523 Q84 563 100.5 595.5 Q117 628 145.5 651.5 Q174 675 213.5 688 Q253 701 298 702 L308 824 Q309 833 319 833 L349 833 Q358 833 357 823 L347 700 Q382 696 413.5 687 Q445 678 473 664 Q477 662 479 659 Q481 656 481 650 L481 596 Q481 587 472 592 Q444 609 410.5 619.5 Q377 630 342 633 L323 398 Q365 384 399 367.5 Q433 351 458 329 Q483 307 496.5 278 Q510 249 510 209 Z M170 528 Q170 505 178 487.5 Q186 470 200.5 456.5 Q215 443 234 433 Q253 423 275 415 L293 634 Q239 629 204.5 600.5 Q170 572 170 528 Z M298 77 Q355 84 390 115.5 Q425 147 425 202 Q425 250 395.5 275 Q366 300 318 319 L298 77 Z " />
<glyph glyph-name="euro" unicode="&#x20ac;" horiz-adv-x="585" d="M529 91 Q533 93 533 93 Q537 93 537 85 L537 31 Q537 22 528 18 Q499 6 463.5 -2 Q428 -10 386 -10 Q333 -10 285 8.5 Q237 27 198 62 Q159 97 131 147.5 Q103 198 91 261 L32 261 Q23 261 23 271 L23 303 Q23 312 33 312 L84 312 Q83 323 82.5 334.5 Q82 346 82 358 Q82 367 82 376 Q82 385 83 394 L32 394 Q23 394 23 404 L23 436 Q23 445 33 445 L90 445 Q102 509 129.5 560.5 Q157 612 197 647 Q237 682 286.5 701 Q336 720 391 720 Q429 720 462 712 Q495 704 519 694 Q527 691 527 681 L527 627 Q527 618 518 623 Q496 634 465.5 642 Q435 650 401 650 Q358 650 320 636 Q282 622 251.5 595.5 Q221 569 199 531 Q177 493 167 445 L495 445 Q504 445 504 435 L504 403 Q504 394 494 394 L159 394 Q158 386 158 377 Q158 368 158 359 Q158 347 158.5 335 Q159 323 160 312 L495 312 Q504 312 504 302 L504 270 Q504 261 494 261 L169 261 Q192 164 254.5 112.5 Q317 61 401 61 Q438 61 470.5 69.5 Q503 78 529 91 Z " />
<glyph glyph-name="florin" unicode="&#x192;" horiz-adv-x="473" d="M455 743 Q459 741 461 738 Q463 735 463 729 L463 694 Q463 680 454 680 Q450 680 444 683 Q432 688 418 690.5 Q404 693 388 693 Q316 693 297 589 L278 480 L415 480 Q424 480 424 470 L424 431 Q424 422 414 422 L268 422 L190 -17 Q176 -102 140 -141.5 Q104 -181 39 -181 Q14 -181 -7 -177.5 Q-28 -174 -43 -169 Q-51 -166 -51 -156 L-51 -109 Q-51 -100 -42 -104 Q-17 -115 20 -115 Q92 -115 111 -12 L188 422 L90 422 Q81 422 81 432 L81 471 Q81 480 91 480 L198 480 L218 595 Q232 680 267.5 719.5 Q303 759 369 759 Q395 759 416.5 754.5 Q438 750 455 743 Z " />
<glyph glyph-name="sterling" unicode="&#xa3;" horiz-adv-x="585" d="M509 693 Q517 690 517 679 L517 629 Q517 620 508 625 Q485 638 458 645.5 Q431 653 400 653 Q339 653 305 615.5 Q271 578 263 513 L249 400 L450 400 Q459 400 459 390 L459 348 Q459 339 449 339 L242 339 L210 67 L490 67 Q499 67 499 57 L499 9 Q499 0 489 0 L72 0 Q63 0 63 10 L63 58 Q63 67 73 67 L131 67 L163 339 L90 339 Q81 339 81 349 L81 391 Q81 400 91 400 L171 400 L185 520 Q196 616 246.5 668 Q297 720 386 720 Q421 720 453 713 Q485 706 509 693 Z " />
<glyph glyph-name="yen" unicode="&#xa5;" horiz-adv-x="574" d="M550 710 Q564 710 564 702 Q564 698 560 691 L347 331 L467 331 Q476 331 476 321 L476 278 Q476 269 466 269 L328 269 L328 9 Q328 0 318 0 L254 0 Q245 0 245 10 L245 269 L109 269 Q100 269 100 279 L100 322 Q100 331 110 331 L226 331 L13 692 Q9 700 9 702 Q9 710 24 710 L84 710 Q93 710 98 701 L290 367 L479 702 Q481 706 484 708 Q487 710 493 710 L550 710 L550 710 Z " />
<glyph glyph-name="plus" unicode="&#x2b;" horiz-adv-x="561" d="M513 329 Q522 329 522 319 L522 276 Q522 267 512 267 L311 267 L311 57 Q311 48 301 48 L259 48 Q250 48 250 58 L250 267 L48 267 Q39 267 39 277 L39 320 Q39 329 49 329 L250 329 L250 539 Q250 548 260 548 L302 548 Q311 548 311 538 L311 329 L513 329 L513 329 Z " />
<glyph glyph-name="minus" unicode="&#x2212;" horiz-adv-x="561" d="M48 267 Q39 267 39 277 L39 320 Q39 329 49 329 L513 329 Q522 329 522 319 L522 276 Q522 267 512 267 L48 267 L48 267 Z " />
<glyph glyph-name="multiply" unicode="&#xd7;" horiz-adv-x="561" d="M508 110 Q511 107 511 104 Q511 101 507 97 L478 66 Q475 62 472 62 Q469 62 465 66 L280 251 L94 65 Q91 62 88 62 Q85 62 81 66 L52 97 Q49 101 49 104 Q49 107 53 111 L237 295 L53 479 Q50 482 50 485 Q50 488 54 492 L82 523 Q85 527 88 527 Q91 527 95 523 L280 338 L465 523 Q468 526 471 526 Q474 526 478 522 L508 492 Q511 489 511 486 Q511 483 507 479 L323 295 L508 110 Z " />
<glyph glyph-name="divide" unicode="&#xf7;" horiz-adv-x="561" d="M279 450 Q254 450 238.5 467.5 Q223 485 223 509 Q223 533 238.5 550 Q254 567 279 567 Q305 567 320.5 550 Q336 533 336 509 Q336 485 320.5 467.5 Q305 450 279 450 Z M48 268 Q39 268 39 278 L39 321 Q39 330 49 330 L513 330 Q522 330 522 320 L522 277 Q522 268 512 268 L48 268 Z M279 35 Q254 35 238.5 52.5 Q223 70 223 94 Q223 118 238.5 135 Q254 152 279 152 Q305 152 320.5 135 Q336 118 336 94 Q336 70 320.5 52.5 Q305 35 279 35 Z " />
<glyph glyph-name="equal" unicode="&#x3d;" horiz-adv-x="561" d="M48 363 Q39 363 39 373 L39 416 Q39 425 49 425 L513 425 Q522 425 522 415 L522 372 Q522 363 512 363 L48 363 Z M48 164 Q39 164 39 174 L39 217 Q39 226 49 226 L513 226 Q522 226 522 216 L522 173 Q522 164 512 164 L48 164 Z " />
<glyph glyph-name="notequal" unicode="&#x2260;" horiz-adv-x="561" d="M321 363 L256 226 L513 226 Q522 226 522 216 L522 173 Q522 164 512 164 L226 164 L175 56 Q173 52 170 50 Q167 48 161 48 L137 48 Q128 48 132 57 L183 164 L48 164 Q39 164 39 174 L39 217 Q39 226 49 226 L212 226 L277 363 L48 363 Q39 363 39 373 L39 416 Q39 425 49 425 L306 425 L361 540 Q363 544 366 546 Q369 548 375 548 L399 548 Q408 548 404 539 L350 425 L513 425 Q522 425 522 415 L522 372 Q522 363 512 363 L321 363 Z " />
<glyph glyph-name="greater" unicode="&#x3e;" horiz-adv-x="561" d="M65 3 Q61 1 61 1 Q57 1 57 9 L57 67 Q57 76 66 80 L434 263 L65 447 Q61 449 59 452 Q57 455 57 461 L57 518 Q57 527 66 522 L533 286 Q537 284 539 281 Q541 278 541 272 L541 253 Q541 244 532 239 L65 3 L65 3 Z " />
<glyph glyph-name="less" unicode="&#x3c;" horiz-adv-x="561" d="M522 8 Q522 -1 513 4 L46 240 Q42 242 40 245 Q38 248 38 254 L38 273 Q38 282 47 287 L514 523 Q518 525 518 525 Q522 525 522 517 L522 460 Q522 451 513 447 L145 263 L514 80 Q518 78 520 75 Q522 72 522 66 L522 8 L522 8 Z " />
<glyph glyph-name="greaterequal" unicode="&#x2265;" horiz-adv-x="561" d="M46 108 Q42 106 42 106 Q38 106 38 114 L38 172 Q38 181 47 185 L407 364 Q414 368 406 372 L46 552 Q42 554 40 557 Q38 560 38 566 L38 623 Q38 632 47 627 L522 387 L522 358 Q522 349 513 344 L46 108 Z M48 2 Q39 2 39 12 L39 55 Q39 64 49 64 L513 64 Q522 64 522 54 L522 11 Q522 2 512 2 L48 2 Z " />
<glyph glyph-name="lessequal" unicode="&#x2264;" horiz-adv-x="561" d="M523 113 Q523 104 514 109 L47 345 Q43 347 41 350 Q39 353 39 359 L39 387 L515 628 Q519 630 519 630 Q523 630 523 622 L523 565 Q523 556 514 552 L154 372 Q147 368 155 364 L515 185 Q519 183 521 180 Q523 177 523 171 L523 113 Z M522 11 Q522 2 512 2 L48 2 Q39 2 39 12 L39 55 Q39 64 49 64 L513 64 Q522 64 522 54 L522 11 Z " />
<glyph glyph-name="plusminus" unicode="&#xb1;" horiz-adv-x="561" d="M60 322 Q51 322 51 332 L51 375 Q51 384 61 384 L234 384 L234 526 Q234 535 244 535 L285 535 Q294 535 294 525 L294 384 L467 384 Q476 384 476 374 L476 331 Q476 322 466 322 L294 322 L294 179 Q294 170 284 170 L243 170 Q234 170 234 180 L234 322 L60 322 Z M513 122 Q522 122 522 112 L522 69 Q522 60 512 60 L48 60 Q39 60 39 70 L39 113 Q39 122 49 122 L513 122 Z " />
<glyph glyph-name="approxequal" unicode="&#x2248;" horiz-adv-x="600" d="M364 339 Q328 339 304.5 355.5 Q281 372 260 392 Q242 411 223 425.5 Q204 440 175 440 Q141 440 122.5 414.5 Q104 389 101 348 Q101 339 91 339 L58 339 Q49 339 49 349 Q50 381 58.5 409 Q67 437 82 458 Q97 479 118.5 491 Q140 503 168 503 Q207 503 232.5 485 Q258 467 279 447 Q297 430 315.5 416 Q334 402 360 402 Q390 402 407 426 Q424 450 426 487 Q426 496 436 496 L470 496 Q479 496 479 486 Q477 421 446 380 Q415 339 364 339 Z M364 138 Q328 138 304.5 154.5 Q281 171 260 191 Q242 210 223 224.5 Q204 239 175 239 Q141 239 122.5 213.5 Q104 188 101 147 Q101 138 91 138 L58 138 Q49 138 49 148 Q50 180 58.5 208 Q67 236 82 257 Q97 278 118.5 290 Q140 302 168 302 Q207 302 232.5 284 Q258 266 279 246 Q297 229 315.5 215 Q334 201 360 201 Q390 201 407 225 Q424 249 426 286 Q426 295 436 295 L470 295 Q479 295 479 285 Q477 220 446 179 Q415 138 364 138 Z " />
<glyph glyph-name="asciitilde" unicode="&#x7e;" horiz-adv-x="561" d="M364 228 Q328 228 304.5 244.5 Q281 261 260 281 Q242 300 223 314.5 Q204 329 175 329 Q141 329 122.5 303.5 Q104 278 101 237 Q101 228 91 228 L58 228 Q49 228 49 238 Q50 270 58.5 298 Q67 326 82 347 Q97 368 118.5 380 Q140 392 168 392 Q207 392 232.5 374 Q258 356 279 336 Q297 319 315.5 305 Q334 291 360 291 Q390 291 407 315 Q424 339 426 376 Q426 385 436 385 L470 385 Q479 385 479 375 Q477 310 446 269 Q415 228 364 228 Z " />
<glyph glyph-name="logicalnot" unicode="&#xac;" horiz-adv-x="561" d="M467 369 Q476 369 476 359 L476 148 Q476 139 466 139 L423 139 Q414 139 414 149 L414 308 L60 308 Q51 308 51 318 L51 360 Q51 369 61 369 L467 369 L467 369 Z " />
<glyph glyph-name="infinity" unicode="&#x221e;" horiz-adv-x="893" d="M658 490 Q695 490 726.5 476 Q758 462 781.5 436.5 Q805 411 818.5 375.5 Q832 340 832 296 Q832 252 818.5 216 Q805 180 782 155 Q759 130 727.5 116.5 Q696 103 660 103 Q624 103 593 116 Q562 129 536 150 Q510 171 488 196.5 Q466 222 448 247 Q427 218 403.5 192 Q380 166 354 146 Q328 126 299 114.5 Q270 103 238 103 Q201 103 168.5 117.5 Q136 132 112 157 Q88 182 74.5 216.5 Q61 251 61 292 Q61 333 75 369 Q89 405 114 432 Q139 459 171.5 474.5 Q204 490 242 490 Q275 490 303.5 477 Q332 464 356.5 443.5 Q381 423 402.5 397 Q424 371 442 345 Q462 372 484 398 Q506 424 532.5 444.5 Q559 465 590 477.5 Q621 490 658 490 Z M238 165 Q261 165 283 175 Q305 185 326 203 Q347 221 367 244.5 Q387 268 407 295 Q387 323 367 347 Q347 371 326.5 389 Q306 407 284.5 417.5 Q263 428 239 428 Q216 428 195 417.5 Q174 407 158.5 389 Q143 371 133.5 347 Q124 323 124 295 Q124 268 133 244 Q142 220 158 202.5 Q174 185 194.5 175 Q215 165 238 165 Z M661 165 Q706 165 737.5 198 Q769 231 769 292 Q769 355 736.5 391.5 Q704 428 656 428 Q630 428 606 416.5 Q582 405 560.5 386 Q539 367 519.5 343 Q500 319 482 294 Q502 268 522.5 244.5 Q543 221 565 203.5 Q587 186 610.5 175.5 Q634 165 661 165 Z " />
<glyph glyph-name="integral" unicode="&#x222b;" horiz-adv-x="479" d="M39 -209 Q14 -209 -7 -206 Q-28 -203 -43 -198 Q-51 -195 -51 -185 L-51 -137 Q-51 -128 -42 -132 Q-17 -143 20 -143 Q92 -143 111 -40 L224 595 Q238 680 274 719.5 Q310 759 376 759 Q402 759 423.5 754.5 Q445 750 461 743 Q465 741 467 738 Q469 735 469 729 L469 694 Q469 680 460 680 Q456 680 450 683 Q438 688 424.5 690.5 Q411 693 395 693 Q322 693 304 589 L190 -45 Q176 -130 140 -169.5 Q104 -209 39 -209 Z " />
<glyph glyph-name="product" unicode="&#x220f;" horiz-adv-x="736" d="M637 710 Q646 710 646 700 L646 652 Q646 643 636 643 L537 643 L537 -113 Q537 -122 527 -122 L462 -122 Q453 -122 453 -112 L453 643 L241 643 L241 -113 Q241 -122 231 -122 L169 -122 Q160 -122 160 -112 L160 643 L62 643 Q61 643 61 644 L61 701 Q61 710 71 710 L637 710 L637 710 Z " />
<glyph glyph-name="summation" unicode="&#x2211;" horiz-adv-x="550" d="M483 -59 Q492 -59 492 -69 L492 -114 Q492 -123 482 -123 L68 -123 Q59 -123 59 -113 L59 -86 Q59 -76 65 -69 L357 301 L64 658 Q59 665 59 672 L59 701 Q59 710 69 710 L481 710 Q490 710 490 700 L490 655 Q490 646 480 646 L158 646 L430 317 Q436 309 436 301 Q436 292 429 284 L156 -59 L483 -59 L483 -59 Z " />
<glyph glyph-name="radical" unicode="&#x221a;" horiz-adv-x="580" d="M536 710 Q545 710 542 701 L257 -121 Q254 -130 244 -130 L218 -130 Q209 -130 205 -121 L14 315 Q12 321 12 324 Q12 334 28 334 L70 334 Q79 334 83 325 L230 -30 L472 702 Q475 711 485 711 L536 710 L536 710 Z " />
<glyph glyph-name="micro" unicode="&#xb5;" horiz-adv-x="546" d="M467 480 Q476 480 476 470 L476 9 Q476 0 466 0 L416 0 Q407 0 407 10 L404 90 L400 93 Q360 -10 258 -10 Q220 -10 190.5 3.5 Q161 17 143 46 L150 -162 Q150 -171 140 -171 L77 -171 Q68 -171 68 -161 L75 70 L70 471 Q70 480 80 480 L141 480 Q150 480 150 470 L150 181 Q150 110 181 80 Q212 50 263 50 Q326 50 361.5 96 Q397 142 397 218 L397 471 Q397 480 407 480 L467 480 L467 480 Z " />
<glyph glyph-name="partialdiff" unicode="&#x2202;" horiz-adv-x="582" d="M226 720 Q302 720 358.5 693 Q415 666 452.5 615 Q490 564 509 492 Q528 420 528 330 Q528 257 511.5 195 Q495 133 463 87.5 Q431 42 383.5 16.5 Q336 -9 274 -9 Q229 -9 189 6 Q149 21 118 50 Q87 79 69 120.5 Q51 162 51 215 Q51 267 70 311.5 Q89 356 123 388.5 Q157 421 203.5 439 Q250 457 306 457 Q344 457 383.5 449 Q423 441 452 426 Q435 536 378.5 597 Q322 658 223 658 Q195 658 166 654.5 Q137 651 113 643 Q111 642 109 642 Q104 642 104 650 L104 695 Q104 704 114 707 Q162 720 226 720 Z M276 56 Q322 56 356 75.5 Q390 95 413 130.5 Q436 166 447.5 215.5 Q459 265 459 325 Q459 333 459 342.5 Q459 352 458 360 Q431 376 393.5 385 Q356 394 321 394 Q277 394 240.5 380 Q204 366 178 342 Q152 318 137.5 285 Q123 252 123 215 Q123 179 135 150 Q147 121 167.5 100 Q188 79 216 67.5 Q244 56 276 56 Z " />
<glyph glyph-name="percent" unicode="&#x25;" horiz-adv-x="707" d="M99 -11 Q91 -6 96 2 L564 721 Q569 729 578 724 L591 716 Q599 711 594 703 L125 -16 Q120 -24 112 -19 L99 -11 Z M184 420 Q159 420 137 430.5 Q115 441 98 460.5 Q81 480 71 507.5 Q61 535 61 569 Q61 604 71 632 Q81 660 98 679.5 Q115 699 137 709.5 Q159 720 184 720 Q209 720 231.5 709.5 Q254 699 270.5 679.5 Q287 660 297 632 Q307 604 307 569 Q307 535 297 507.5 Q287 480 270.5 460.5 Q254 441 231.5 430.5 Q209 420 184 420 Z M184 465 Q216 465 237 493 Q258 521 258 569 Q258 619 237 647 Q216 675 184 675 Q152 675 131.5 647.5 Q111 620 111 569 Q111 521 131.5 493 Q152 465 184 465 Z M523 -10 Q498 -10 476 0.5 Q454 11 437 30.5 Q420 50 410 77.5 Q400 105 400 139 Q400 174 410 202 Q420 230 437 249.5 Q454 269 476 279.5 Q498 290 523 290 Q548 290 570.5 279.5 Q593 269 609.5 249.5 Q626 230 636 202 Q646 174 646 139 Q646 105 636 77.5 Q626 50 609.5 30.5 Q593 11 570.5 0.5 Q548 -10 523 -10 Z M523 35 Q555 35 576 63 Q597 91 597 139 Q597 190 576 217.5 Q555 245 523 245 Q491 245 470 217.5 Q449 190 449 139 Q449 91 470 63 Q491 35 523 35 Z " />
<glyph glyph-name="perthousand" unicode="&#x2030;" horiz-adv-x="988" d="M103 -11 Q95 -6 100 2 L568 721 Q573 729 582 724 L595 716 Q603 711 598 703 L129 -16 Q124 -24 116 -19 L103 -11 Z M184 420 Q159 420 137 430.5 Q115 441 98 460.5 Q81 480 71 507.5 Q61 535 61 569 Q61 604 71 632 Q81 660 98 679.5 Q115 699 137 709.5 Q159 720 184 720 Q209 720 231.5 709.5 Q254 699 270.5 679.5 Q287 660 297 632 Q307 604 307 569 Q307 535 297 507.5 Q287 480 270.5 460.5 Q254 441 231.5 430.5 Q209 420 184 420 Z M184 465 Q216 465 237 493 Q258 521 258 569 Q258 619 237 647 Q216 675 184 675 Q152 675 131.5 647.5 Q111 620 111 569 Q111 521 131.5 493 Q152 465 184 465 Z M505 -10 Q480 -10 458 0.5 Q436 11 419 30.5 Q402 50 392 77.5 Q382 105 382 139 Q382 174 392 202 Q402 230 419 249.5 Q436 269 458 279.5 Q480 290 505 290 Q530 290 552.5 279.5 Q575 269 591.5 249.5 Q608 230 618 202 Q628 174 628 139 Q628 105 618 77.5 Q608 50 591.5 30.5 Q575 11 552.5 0.5 Q530 -10 505 -10 Z M804 -10 Q779 -10 757 0.5 Q735 11 718 30.5 Q701 50 691 77.5 Q681 105 681 139 Q681 174 691 202 Q701 230 718 249.5 Q735 269 757 279.5 Q779 290 804 290 Q829 290 851.5 279.5 Q874 269 890.5 249.5 Q907 230 917 202 Q927 174 927 139 Q927 105 917 77.5 Q907 50 890.5 30.5 Q874 11 851.5 0.5 Q829 -10 804 -10 Z M505 35 Q537 35 558 63 Q579 91 579 139 Q579 190 558 217.5 Q537 245 505 245 Q473 245 452.5 217.5 Q432 190 432 139 Q432 91 452.5 63 Q473 35 505 35 Z M804 35 Q836 35 857 63 Q878 91 878 139 Q878 190 857 217.5 Q836 245 804 245 Q772 245 751.5 217.5 Q731 190 731 139 Q731 91 751.5 63 Q772 35 804 35 Z " />
<glyph glyph-name="lozenge" unicode="&#x25ca;" horiz-adv-x="561" d="M277 -53 Q268 -53 263 -44 L47 339 Q45 343 45 346 Q45 350 48 356 L264 739 Q266 743 269 745 Q272 747 278 747 L290 747 Q299 747 304 738 L513 355 Q515 351 515 348 Q515 344 512 338 L303 -45 Q301 -49 298 -51 Q295 -53 289 -53 L277 -53 Z M458 347 L284 667 L103 347 L284 28 L458 347 Z " />
<glyph glyph-name="apple" unicode="&#xf8ff;" horiz-adv-x="999" d="M499 -140 Q430 -140 366.5 -122 Q303 -104 247.5 -71.5 Q192 -39 146.5 6.5 Q101 52 68.5 107.5 Q36 163 18 227 Q0 291 0 360 Q0 463 39.5 554 Q79 645 146.5 712.5 Q214 780 305 819.5 Q396 859 499 859 Q602 859 693 819.5 Q784 780 852 712.5 Q920 645 959.5 554 Q999 463 999 360 Q999 256 959.5 165 Q920 74 852 6.5 Q784 -61 693 -100.5 Q602 -140 499 -140 Z M499 109 Q585 109 671.5 112 Q758 115 840 124 Q864 126 876.5 134.5 Q889 143 892 168 Q896 216 896.5 263.5 Q897 311 897 360 Q897 408 896.5 455.5 Q896 503 892 551 Q889 576 876.5 584.5 Q864 593 840 595 Q758 604 671.5 607 Q585 610 499 610 Q413 610 326.5 607 Q240 604 157 595 Q134 593 121.5 584.5 Q109 576 106 551 Q101 503 100.5 455.5 Q100 408 100 360 Q100 311 100.5 263.5 Q101 216 106 168 Q109 143 121.5 134.5 Q134 126 157 124 Q240 115 326.5 112 Q413 109 499 109 Z M499 157 Q456 157 419 173 Q382 189 355 217 Q328 245 312.5 281.5 Q297 318 297 360 Q297 401 312.5 438 Q328 475 355 502.5 Q382 530 419 546 Q456 562 499 562 Q542 562 579 546 Q616 530 643 502.5 Q670 475 685.5 438 Q701 401 701 360 Q701 318 685.5 281.5 Q670 245 643 217 Q616 189 579 173 Q542 157 499 157 Z " />
<glyph glyph-name="at" unicode="&#x40;" horiz-adv-x="855" d="M604 430 Q613 430 613 420 L613 155 Q613 122 628 105.5 Q643 89 669 89 Q691 89 709.5 102 Q728 115 741 138 Q754 161 761.5 193.5 Q769 226 769 264 Q769 332 744.5 390.5 Q720 449 675.5 491.5 Q631 534 570 558.5 Q509 583 437 583 Q360 583 296 556 Q232 529 185 482.5 Q138 436 112 373.5 Q86 311 86 240 Q86 169 113 105.5 Q140 42 188 -6 Q236 -54 302 -82 Q368 -110 447 -110 Q495 -110 546.5 -100.5 Q598 -91 636 -71 Q663 -60 671.5 -53.5 Q680 -47 684 -47 Q689 -47 689 -56 L689 -85 Q689 -94 681 -99 Q631 -129 568 -142.5 Q505 -156 448 -156 Q361 -156 286.5 -125 Q212 -94 157.5 -40 Q103 14 72 86 Q41 158 41 240 Q41 322 71 393 Q101 464 154.5 516 Q208 568 280.5 597.5 Q353 627 437 627 Q518 627 587 599 Q656 571 706.5 522.5 Q757 474 785.5 407.5 Q814 341 814 264 Q814 215 803 174 Q792 133 772 103.5 Q752 74 724 57.5 Q696 41 662 41 Q619 41 590 64 Q561 87 555 125 Q532 82 493.5 61.5 Q455 41 413 41 Q379 41 346 55.5 Q313 70 287.5 96 Q262 122 246.5 159 Q231 196 231 241 Q231 285 246 321 Q261 357 286.5 383 Q312 409 345 423 Q378 437 413 437 Q456 437 492.5 418.5 Q529 400 552 360 L553 421 Q553 430 563 430 L604 430 Z M427 94 Q451 94 474 103.5 Q497 113 514.5 131.5 Q532 150 542.5 177 Q553 204 553 239 Q553 273 542.5 299.5 Q532 326 515 344.5 Q498 363 475 372.5 Q452 382 427 382 Q400 382 376 372 Q352 362 334 344 Q316 326 305.5 299.5 Q295 273 295 240 Q295 206 306 179 Q317 152 335.5 133 Q354 114 377.5 104 Q401 94 427 94 Z " />
<glyph glyph-name="ampersand" unicode="&#x26;" horiz-adv-x="645" d="M608 6 Q614 -1 604 -1 L529 -1 Q524 -1 521 0 Q518 1 513 6 L462 61 Q424 27 376 8.5 Q328 -10 272 -10 Q223 -10 180.5 3 Q138 16 106.5 41 Q75 66 57 101 Q39 136 39 180 Q39 243 75.5 293 Q112 343 182 372 Q147 414 127 454 Q107 494 107 542 Q107 582 122.5 615 Q138 648 164 671.5 Q190 695 225.5 707.5 Q261 720 302 720 Q338 720 367.5 715.5 Q397 711 422 703 Q431 700 431 690 L431 639 Q431 630 422 634 Q377 654 318 654 Q291 654 267 646 Q243 638 225 622.5 Q207 607 196 584.5 Q185 562 185 534 Q185 486 216.5 441.5 Q248 397 299 343 L462 165 Q482 199 493.5 240 Q505 281 505 328 Q505 344 503.5 359.5 Q502 375 500 392 L500 395 Q500 401 508 401 L559 401 Q568 401 569 391 Q571 376 572 361.5 Q573 347 573 333 Q573 268 556 213 Q539 158 509 114 L608 6 Z M118 187 Q118 157 129.5 133 Q141 109 162 92 Q183 75 212 66 Q241 57 276 57 Q318 57 353.5 71 Q389 85 418 111 L275 272 L258 290 L223 325 L220 329 Q169 306 143.5 269.5 Q118 233 118 187 Z " />
<glyph glyph-name="paragraph" unicode="&#xb6;" horiz-adv-x="578" d="M387 710 Q396 710 396 700 L396 36 Q396 -23 382 -71 Q368 -119 340 -163 Q336 -171 325 -171 L294 -171 Q284 -171 291 -163 Q321 -119 336 -70.5 Q351 -22 351 36 L351 282 L324 282 Q270 282 225 297 Q180 312 147 340 Q114 368 95.5 407.5 Q77 447 77 496 Q77 545 95.5 584.5 Q114 624 147 652 Q180 680 225 695 Q270 710 324 710 L387 710 Z M480 710 Q489 710 489 700 L489 201 L489 182 Q488 124 478 86.5 Q468 49 449 22 Q444 14 444 25 L444 701 Q444 710 454 710 L480 710 Z " />
<glyph glyph-name="section" unicode="&#xa7;" horiz-adv-x="548" d="M434 276 Q478 222 494 176 Q510 130 510 85 Q510 28 490.5 -20 Q471 -68 435 -103.5 Q399 -139 347.5 -159 Q296 -179 233 -179 Q188 -179 141.5 -169 Q95 -159 48 -138 Q44 -136 42 -133 Q40 -130 40 -124 L40 -73 Q40 -64 49 -69 Q97 -92 144.5 -102.5 Q192 -113 236 -113 Q300 -113 348 -93 Q396 -73 425 -37 L109 355 Q75 399 55 439 Q35 479 35 532 Q35 582 53 623 Q71 664 104 693.5 Q137 723 183 739.5 Q229 756 285 756 Q323 756 367.5 748.5 Q412 741 446 728 Q454 725 454 715 L454 663 Q454 654 445 658 Q407 672 358.5 680.5 Q310 689 273 689 Q231 689 196.5 677.5 Q162 666 136 646 L434 276 Z M446 -6 Q468 36 468 89 Q468 126 455.5 165.5 Q443 205 405 251 L110 620 Q95 600 86.5 574.5 Q78 549 78 520 Q78 480 94 447.5 Q110 415 142 374 L446 -6 Z " />
<glyph glyph-name="copyright" unicode="&#xa9;" horiz-adv-x="808" d="M404 -11 Q329 -11 263 15.5 Q197 42 147.5 89.5 Q98 137 69 203.5 Q40 270 40 351 Q40 434 69.5 502 Q99 570 148.5 618.5 Q198 667 264 693.5 Q330 720 404 720 Q477 720 543.5 693.5 Q610 667 660 618.5 Q710 570 739.5 502 Q769 434 769 351 Q769 270 740 203.5 Q711 137 661 89.5 Q611 42 545 15.5 Q479 -11 404 -11 Z M404 16 Q473 16 534 40 Q595 64 641 108 Q687 152 714 214 Q741 276 741 351 Q741 429 714 492 Q687 555 641 600 Q595 645 534 669.5 Q473 694 404 694 Q335 694 274 669.5 Q213 645 167 600 Q121 555 94 492 Q67 429 67 351 Q67 276 94 214 Q121 152 167 108 Q213 64 274 40 Q335 16 404 16 Z M408 150 Q371 150 336.5 164.5 Q302 179 275.5 206 Q249 233 233 271 Q217 309 217 357 Q217 403 233 440.5 Q249 478 275.5 504.5 Q302 531 336.5 545 Q371 559 409 559 Q438 559 464.5 551.5 Q491 544 509 534 Q516 530 516 521 L516 482 Q516 473 508 478 Q489 490 465.5 497.5 Q442 505 416 505 Q389 505 364 494.5 Q339 484 320 464.5 Q301 445 289.5 418 Q278 391 278 357 Q278 321 289.5 293 Q301 265 320.5 245.5 Q340 226 364.5 215.5 Q389 205 416 205 Q445 205 470 213.5 Q495 222 515 236 Q519 238 520.5 237.5 Q522 237 522 231 L522 192 Q522 184 514 179 Q493 167 466.5 158.5 Q440 150 408 150 Z " />
<glyph glyph-name="registered" unicode="&#xae;" horiz-adv-x="476" d="M238 720 Q278 720 312 706 Q346 692 371.5 666.5 Q397 641 411.5 605.5 Q426 570 426 527 Q426 484 412 448.5 Q398 413 372.5 387.5 Q347 362 312.5 348 Q278 334 238 334 Q197 334 163 348 Q129 362 103.5 387.5 Q78 413 64 448.5 Q50 484 50 527 Q50 570 64.5 605.5 Q79 641 104 666.5 Q129 692 163.5 706 Q198 720 238 720 Z M238 357 Q273 357 303 369 Q333 381 354.5 403.5 Q376 426 388.5 457.5 Q401 489 401 527 Q401 566 388.5 597 Q376 628 354.5 650.5 Q333 673 303 685 Q273 697 238 697 Q203 697 173 685 Q143 673 121.5 650.5 Q100 628 87.5 597 Q75 566 75 527 Q75 489 87.5 457.5 Q100 426 121.5 403.5 Q143 381 173 369 Q203 357 238 357 Z M317 450 Q322 443 322 440 Q322 434 308 434 L300 434 Q292 434 285 442 L222 521 L210 521 L210 443 Q210 434 200 434 L188 434 Q179 434 179 444 L179 624 Q179 633 189 633 L239 633 Q271 633 289 618 Q307 603 307 578 Q307 555 293.5 541.5 Q280 528 256 523 L317 450 Z M210 543 L236 543 Q255 543 265.5 552 Q276 561 276 576 Q276 590 265.5 599 Q255 608 236 608 L210 608 L210 543 Z " />
<glyph glyph-name="trademark" unicode="&#x2122;" horiz-adv-x="744" d="M708 367 Q708 362 702 362 L661 362 Q653 362 652 370 L608 638 L515 380 Q512 372 504 372 L482 372 Q474 372 471 380 L378 631 L331 370 Q331 362 322 362 L284 362 Q276 362 277 370 L341 702 Q341 710 350 710 L391 710 Q399 710 402 702 L495 445 L586 702 Q589 710 597 710 L634 710 Q641 710 644 702 L708 370 L708 367 Z M277 671 Q277 663 269 663 L175 663 L175 370 Q175 362 167 362 L127 362 Q119 362 119 370 L119 663 L25 663 Q17 663 17 671 L17 701 Q17 709 25 709 L269 709 Q277 709 277 701 L277 671 Z " />
<glyph glyph-name="degree" unicode="&#xb0;" horiz-adv-x="336" d="M168 460 Q141 460 117 470 Q93 480 75.5 497 Q58 514 48 538 Q38 562 38 591 Q38 619 48 642.5 Q58 666 76 683.5 Q94 701 117.5 710.5 Q141 720 168 720 Q195 720 218.5 710.5 Q242 701 260 683.5 Q278 666 288 642.5 Q298 619 298 591 Q298 562 288 538 Q278 514 260 497 Q242 480 218.5 470 Q195 460 168 460 Z M168 506 Q202 506 224.5 530 Q247 554 247 591 Q247 627 224.5 650.5 Q202 674 168 674 Q134 674 111.5 650.5 Q89 627 89 591 Q89 554 111.5 530 Q134 506 168 506 Z " />
<glyph glyph-name="bar" unicode="&#x7c;" horiz-adv-x="148" d="M57 -200 Q48 -200 48 -190 L48 831 Q48 840 58 840 L91 840 Q100 840 100 830 L100 -191 Q100 -200 90 -200 L57 -200 L57 -200 Z " />
<glyph glyph-name="brokenbar" unicode="&#xa6;" horiz-adv-x="148" d="M57 424 Q48 424 48 434 L48 831 Q48 840 58 840 L91 840 Q100 840 100 830 L100 433 Q100 424 90 424 L57 424 Z M57 -200 Q48 -200 48 -190 L48 207 Q48 216 58 216 L91 216 Q100 216 100 206 L100 -191 Q100 -200 90 -200 L57 -200 Z " />
<glyph glyph-name="dagger" unicode="&#x2020;" horiz-adv-x="355" d="M312 594 Q321 594 321 584 L321 543 Q321 534 311 534 L208 537 L208 272 Q208 263 198 263 L152 263 Q143 263 143 273 L142 537 L38 534 Q29 534 29 544 L29 585 Q29 594 39 594 L142 591 L142 701 Q142 710 152 710 L199 710 Q208 710 208 700 L208 591 L312 594 L312 594 Z " />
<glyph glyph-name="daggerdbl" unicode="&#x2021;" horiz-adv-x="355" d="M207 547 L207 420 L312 424 Q321 424 321 414 L321 372 Q321 363 311 363 L207 367 L207 272 Q207 263 197 263 L151 263 Q142 263 142 273 L142 367 L38 363 Q29 363 29 373 L29 415 Q29 424 39 424 L142 420 L142 547 L38 544 Q29 544 29 554 L29 595 Q29 604 39 604 L142 601 L142 701 Q142 710 152 710 L198 710 Q207 710 207 700 L207 601 L312 604 Q321 604 321 594 L321 553 Q321 544 311 544 L207 547 Z " />
<glyph glyph-name="asciicircum" unicode="&#x5e;" horiz-adv-x="600" d="M473 298 Q475 294 474.5 292.5 Q474 291 468 291 L428 291 Q420 291 412 299 L301 427 L189 298 Q183 291 173 291 L132 291 Q122 291 129 299 L264 477 Q268 484 279 484 L323 484 Q331 484 338 476 L473 298 L473 298 Z " />
<glyph glyph-name="dieresiscomb" unicode="&#x308;" d="M-76 634 Q-95 634 -107 647 Q-119 660 -119 679 Q-119 697 -107 710.5 Q-95 724 -76 724 Q-56 724 -44.5 710.5 Q-33 697 -33 679 Q-33 660 -44.5 647 Q-56 634 -76 634 Z M75 634 Q56 634 44 647 Q32 660 32 679 Q32 697 44 710.5 Q56 724 75 724 Q95 724 106.5 710.5 Q118 697 118 679 Q118 660 106.5 647 Q95 634 75 634 Z " />
<glyph glyph-name="dotaccentcomb" unicode="&#x307;" d="M1 618 Q-24 618 -39.5 635.5 Q-55 653 -55 677 Q-55 701 -39.5 718 Q-24 735 1 735 Q27 735 42.5 718 Q58 701 58 677 Q58 653 42.5 635.5 Q27 618 1 618 Z " />
<glyph glyph-name="gravecomb" unicode="&#x300;" d="M24 567 Q26 563 26 563 Q26 559 18 559 L-18 559 Q-26 559 -33 567 L-157 739 Q-159 743 -159 744 Q-159 748 -152 749 L-94 768 Q-92 769 -89 769 Q-84 769 -80 762 L24 567 L24 567 Z " />
<glyph glyph-name="acutecomb" unicode="&#x301;" d="M-48 559 Q-57 559 -52 568 L52 763 Q56 770 66 768 L124 749 Q134 746 127 738 L3 566 Q-1 559 -12 559 L-48 559 L-48 559 Z " />
<glyph glyph-name="hungarumlautcomb" unicode="&#x30b;" d="M-100 559 Q-109 559 -105 568 L-26 760 Q-23 767 -13 765 L41 751 Q50 748 45 739 L-51 567 Q-53 563 -56 561 Q-59 559 -65 559 L-100 559 Z M29 559 Q20 559 24 568 L109 760 Q113 767 123 765 L180 750 Q190 748 183 739 L78 567 Q73 559 63 559 L29 559 Z " />
<glyph glyph-name="circumflexcomb" unicode="&#x302;" d="M142 567 Q145 560 138 560 L96 560 Q89 560 83 567 L0 689 L-83 567 Q-87 560 -96 560 L-138 560 Q-146 560 -142 567 L-31 742 Q-28 749 -19 749 L19 749 Q27 749 31 742 L142 567 L142 567 Z " />
<glyph glyph-name="caroncomb" unicode="&#x30c;" d="M135 737 Q144 737 139 729 L33 567 Q28 559 18 559 L-20 559 Q-29 559 -34 567 L-141 729 Q-146 737 -136 737 L-93 737 Q-85 737 -78 729 L1 621 L79 730 Q83 737 94 737 L135 737 L135 737 Z " />
<glyph glyph-name="brevecomb" unicode="&#x306;" d="M0 591 Q-53 591 -89.5 626.5 Q-126 662 -131 719 Q-131 727 -123 727 L-96 727 Q-88 727 -87 719 Q-83 684 -60 663.5 Q-37 643 0 643 Q36 643 59 663.5 Q82 684 87 719 Q89 727 96 727 L122 727 Q130 727 130 719 Q125 662 89.5 626.5 Q54 591 0 591 Z " />
<glyph glyph-name="ringcomb" unicode="&#x30a;" d="M0 565 Q-19 565 -36 572 Q-53 579 -65.5 591.5 Q-78 604 -85 621 Q-92 638 -92 658 Q-92 698 -65 722.5 Q-38 747 0 747 Q37 747 64.5 722.5 Q92 698 92 658 Q92 617 65 591 Q38 565 0 565 Z M0 601 Q23 601 38 617 Q53 633 53 658 Q53 682 38 697.5 Q23 713 0 713 Q-23 713 -38 697 Q-53 681 -53 658 Q-53 633 -38 617 Q-23 601 0 601 Z " />
<glyph glyph-name="tildecomb" unicode="&#x303;" d="M67 589 Q42 589 24.5 601.5 Q7 614 -7 628 Q-19 641 -31.5 650 Q-44 659 -61 659 Q-82 659 -94.5 641.5 Q-107 624 -108 592 Q-108 587 -113 587 L-149 587 Q-154 587 -154 592 Q-152 646 -129.5 683.5 Q-107 721 -62 721 Q-36 721 -18.5 708 Q-1 695 13 681 Q25 669 36.5 660 Q48 651 64 651 Q84 651 95 667 Q106 683 107 711 Q107 716 112 716 L149 716 Q154 716 154 711 Q152 659 129 624 Q106 589 67 589 Z " />
<glyph glyph-name="macroncomb" unicode="&#x304;" d="M-132 628 Q-141 628 -141 638 L-141 672 Q-141 681 -131 681 L132 681 Q141 681 141 671 L141 637 Q141 628 131 628 L-132 628 L-132 628 Z " />
<glyph glyph-name="cedillacomb" unicode="&#x327;" horiz-adv-x="281" d="M146 -42 Q180 -42 202 -59 Q224 -76 224 -105 Q224 -140 195 -160 Q166 -180 124 -180 Q104 -180 87 -176.5 Q70 -173 56 -168 Q49 -165 49 -156 L49 -130 Q49 -122 56 -125 Q69 -131 84.5 -135 Q100 -139 118 -139 Q140 -139 155.5 -130.5 Q171 -122 171 -107 Q171 -92 157.5 -84 Q144 -76 124 -76 Q112 -76 99.5 -78 Q87 -80 78 -84 L75 -81 L135 14 L178 14 L141 -42 L146 -42 L146 -42 Z " />
<glyph glyph-name="ogonekcomb" unicode="&#x328;" d="M24 -180 Q-20 -180 -49.5 -158 Q-79 -136 -79 -96 Q-79 -75 -68.5 -57 Q-58 -39 -39.5 -23.5 Q-21 -8 3 5 Q27 18 54 27 L85 7 Q31 -19 8.5 -43.5 Q-14 -68 -14 -91 Q-14 -111 0 -122 Q14 -133 35 -133 Q45 -133 53.5 -130.5 Q62 -128 70 -126 L73 -126 Q78 -126 78 -132 L78 -160 Q78 -168 71 -171 Q51 -180 24 -180 Z " />
<glyph glyph-name="slashshortcomb" unicode="&#x337;" d="M-178 -45 Q-187 -45 -182 -36 L141 538 Q143 542 146 544 Q149 546 155 546 L177 546 Q186 546 181 537 L-141 -37 Q-143 -41 -146 -43 Q-149 -45 -155 -45 L-178 -45 L-178 -45 Z " />
<glyph glyph-name="slashlongcomb" unicode="&#x338;" d="M-241 -43 Q-250 -43 -245 -34 L203 729 Q208 737 218 737 L240 737 Q249 737 244 728 L-204 -35 Q-209 -43 -219 -43 L-241 -43 L-241 -43 Z " />
<glyph glyph-name="acute" unicode="&#xb4;" horiz-adv-x="500" d="M166 559 Q157 559 162 568 L266 763 Q270 770 280 768 L338 749 Q348 746 341 738 L217 566 Q213 559 202 559 L166 559 L166 559 Z " />
<glyph glyph-name="breve" unicode="&#x2d8;" horiz-adv-x="500" d="M250 591 Q197 591 160.5 626.5 Q124 662 119 719 Q119 727 127 727 L154 727 Q162 727 163 719 Q167 684 190 663.5 Q213 643 250 643 Q286 643 309 663.5 Q332 684 337 719 Q339 727 346 727 L372 727 Q380 727 380 719 Q375 662 339.5 626.5 Q304 591 250 591 Z " />
<glyph glyph-name="caron" unicode="&#x2c7;" horiz-adv-x="500" d="M385 737 Q394 737 389 729 L283 567 Q278 559 268 559 L230 559 Q221 559 216 567 L109 729 Q104 737 114 737 L157 737 Q165 737 172 729 L251 621 L329 730 Q333 737 344 737 L385 737 L385 737 Z " />
<glyph glyph-name="cedilla" unicode="&#xb8;" horiz-adv-x="508" d="M400 -42 Q434 -42 456 -59 Q478 -76 478 -105 Q478 -140 449 -160 Q420 -180 378 -180 Q358 -180 341 -176.5 Q324 -173 310 -168 Q303 -165 303 -156 L303 -130 Q303 -122 310 -125 Q323 -131 338.5 -135 Q354 -139 372 -139 Q394 -139 409.5 -130.5 Q425 -122 425 -107 Q425 -92 411.5 -84 Q398 -76 378 -76 Q366 -76 353.5 -78 Q341 -80 332 -84 L329 -81 L389 14 L432 14 L395 -42 L400 -42 L400 -42 Z " />
<glyph glyph-name="circumflex" unicode="&#x2c6;" horiz-adv-x="500" d="M392 567 Q395 560 388 560 L346 560 Q339 560 333 567 L250 689 L167 567 Q163 560 154 560 L112 560 Q104 560 108 567 L219 742 Q222 749 231 749 L269 749 Q277 749 281 742 L392 567 L392 567 Z " />
<glyph glyph-name="dieresis" unicode="&#xa8;" horiz-adv-x="500" d="M174 634 Q155 634 143 647 Q131 660 131 679 Q131 697 143 710.5 Q155 724 174 724 Q194 724 205.5 710.5 Q217 697 217 679 Q217 660 205.5 647 Q194 634 174 634 Z M325 634 Q306 634 294 647 Q282 660 282 679 Q282 697 294 710.5 Q306 724 325 724 Q345 724 356.5 710.5 Q368 697 368 679 Q368 660 356.5 647 Q345 634 325 634 Z " />
<glyph glyph-name="dotaccent" unicode="&#x2d9;" horiz-adv-x="500" d="M251 618 Q226 618 210.5 635.5 Q195 653 195 677 Q195 701 210.5 718 Q226 735 251 735 Q277 735 292.5 718 Q308 701 308 677 Q308 653 292.5 635.5 Q277 618 251 618 Z " />
<glyph glyph-name="grave" unicode="&#x60;" horiz-adv-x="500" d="M338 567 Q340 563 340 563 Q340 559 332 559 L296 559 Q288 559 281 567 L157 739 Q155 743 155 744 Q155 748 162 749 L220 768 Q222 769 225 769 Q230 769 234 762 L338 567 L338 567 Z " />
<glyph glyph-name="hungarumlaut" unicode="&#x2dd;" horiz-adv-x="500" d="M112 559 Q103 559 107 568 L186 760 Q189 767 199 765 L253 751 Q262 748 257 739 L161 567 Q159 563 156 561 Q153 559 147 559 L112 559 Z M241 559 Q232 559 236 568 L321 760 Q325 767 335 765 L392 750 Q402 748 395 739 L290 567 Q285 559 275 559 L241 559 Z " />
<glyph glyph-name="macron" unicode="&#xaf;" horiz-adv-x="500" d="M118 628 Q109 628 109 638 L109 672 Q109 681 119 681 L382 681 Q391 681 391 671 L391 637 Q391 628 381 628 L118 628 L118 628 Z " />
<glyph glyph-name="ogonek" unicode="&#x2db;" horiz-adv-x="500" d="M277 -180 Q233 -180 203.5 -158 Q174 -136 174 -96 Q174 -75 184.5 -57 Q195 -39 213.5 -23.5 Q232 -8 256 5 Q280 18 307 27 L338 7 Q284 -19 261.5 -43.5 Q239 -68 239 -91 Q239 -111 253 -122 Q267 -133 288 -133 Q298 -133 306.5 -130.5 Q315 -128 323 -126 L326 -126 Q331 -126 331 -132 L331 -160 Q331 -168 324 -171 Q304 -180 277 -180 Z " />
<glyph glyph-name="ring" unicode="&#x2da;" horiz-adv-x="500" d="M250 565 Q231 565 214 572 Q197 579 184.5 591.5 Q172 604 165 621 Q158 638 158 658 Q158 698 185 722.5 Q212 747 250 747 Q287 747 314.5 722.5 Q342 698 342 658 Q342 617 315 591 Q288 565 250 565 Z M250 601 Q273 601 288 617 Q303 633 303 658 Q303 682 288 697.5 Q273 713 250 713 Q227 713 212 697 Q197 681 197 658 Q197 633 212 617 Q227 601 250 601 Z " />
<glyph glyph-name="tilde" unicode="&#x2dc;" horiz-adv-x="500" d="M317 589 Q292 589 274.5 601.5 Q257 614 243 628 Q231 641 218.5 650 Q206 659 189 659 Q168 659 155.5 641.5 Q143 624 142 592 Q142 587 137 587 L101 587 Q96 587 96 592 Q98 646 120.5 683.5 Q143 721 188 721 Q214 721 231.5 708 Q249 695 263 681 Q275 669 286.5 660 Q298 651 314 651 Q334 651 345 667 Q356 683 357 711 Q357 716 362 716 L399 716 Q404 716 404 711 Q402 659 379 624 Q356 589 317 589 Z " />
<glyph glyph-name="A" unicode="A" horiz-adv-x="648" d="M635 8 Q636 7 636 4 Q636 0 628 0 L556 0 Q547 0 543 9 L471 199 L172 199 L98 8 Q95 0 85 0 L18 0 Q9 0 13 9 L292 705 Q295 713 305 713 L345 713 Q354 713 358 704 L635 8 Z M446 267 Q415 350 384.5 434 Q354 518 323 609 Q291 518 260 433.5 Q229 349 198 267 L446 267 Z " />
<glyph glyph-name="Aacute" unicode="&#xc1;" horiz-adv-x="663" d="M635 8 Q636 7 636 4 Q636 0 628 0 L556 0 Q547 0 543 9 L471 199 L172 199 L98 8 Q95 0 85 0 L18 0 Q9 0 13 9 L292 705 Q295 713 305 713 L345 713 Q354 713 358 704 L635 8 Z M446 267 Q415 350 384.5 434 Q354 518 323 609 Q291 518 260 433.5 Q229 349 198 267 L446 267 Z M296 762 Q287 762 291 771 L351 893 Q353 897 356 899 Q359 901 365 901 L442 901 Q453 901 445 893 L342 769 Q336 762 326 762 L296 762 L296 762 Z " />
</font>
</svg>
