<?xml version="1.0" encoding="UTF-8"?>
<svg xmlns="http://www.w3.org/2000/svg" xmlns:xlink="http://www.w3.org/1999/xlink" version="1.2" >
<font id="GlobotipoTexto-Black">
<font-face  font-family="Globotipo Texto" units-per-em="1000" ascent="1000" descent="-400" font-style="normal" font-weight="900" font-stretch="normal" cap-height="710" x-height="480" underline-position="-75" underline-thickness="50" />
<missing-glyph  horiz-adv-x="700" d="M350 709 Q423 709 487.5 681 Q552 653 600 605 Q648 557 676 492.5 Q704 428 704 355 Q704 281 676 216.5 Q648 152 600 104 Q552 56 487.5 28 Q423 0 350 0 Q276 0 211.5 28 Q147 56 99 104 Q51 152 23 216.5 Q-5 281 -5 355 Q-5 428 23 492.5 Q51 557 99 605 Q147 653 211.5 681 Q276 709 350 709 Z M350 20 Q419 20 480 46.5 Q541 73 586 118.5 Q631 164 657.5 225 Q684 286 684 355 Q684 424 657.5 485 Q631 546 586 591 Q541 636 480 662.5 Q419 689 350 689 Q281 689 220 662.5 Q159 636 113.5 591 Q68 546 41.5 485 Q15 424 15 355 Q15 286 41.5 225 Q68 164 113.5 118.5 Q159 73 220 46.5 Q281 20 350 20 Z M569 559 L364 354 L569 149 L555 135 L350 340 L145 135 L131 149 L336 354 L131 559 L145 573 L350 368 L555 573 L569 559 Z " />
<glyph glyph-name=".null" d="" />
<glyph glyph-name="nonmarkingreturn" unicode="&#xd;" horiz-adv-x="203" d="" />
<glyph glyph-name="space" unicode="&#x20;" horiz-adv-x="203" d="" />
<glyph glyph-name="Adieresis" unicode="&#xc4;" horiz-adv-x="751" d="M713 15 Q714 13 714 9 Q714 0 703 0 L515 0 Q508 0 502 3.5 Q496 7 494 15 Q487 37 480 59 Q473 81 466 104 L249 104 Q242 81 235 59 Q228 37 221 15 Q219 9 213.5 4.5 Q208 0 200 0 L20 0 Q4 0 10 15 L277 695 Q279 701 285 705.5 Q291 710 299 710 L426 710 Q442 710 448 695 L713 15 Z M423 246 L359 463 Q342 409 326 354.5 Q310 300 293 246 L423 246 Z M263 772 Q231 772 211 793.5 Q191 815 191 845 Q191 874 211 895.5 Q231 917 263 917 Q295 917 315 895.5 Q335 874 335 845 Q335 815 315 793.5 Q295 772 263 772 Z M467 772 Q435 772 415 793.5 Q395 815 395 845 Q395 874 415 895.5 Q435 917 467 917 Q499 917 519 895.5 Q539 874 539 845 Q539 815 519 793.5 Q499 772 467 772 Z " />
<glyph glyph-name="Agrave" unicode="&#xc0;" horiz-adv-x="751" d="M713 15 Q714 13 714 9 Q714 0 703 0 L515 0 Q508 0 502 3.5 Q496 7 494 15 Q487 37 480 59 Q473 81 466 104 L249 104 Q242 81 235 59 Q228 37 221 15 Q219 9 213.5 4.5 Q208 0 200 0 L20 0 Q4 0 10 15 L277 695 Q279 701 285 705.5 Q291 710 299 710 L426 710 Q442 710 448 695 L713 15 Z M423 246 L359 463 Q342 409 326 354.5 Q310 300 293 246 L423 246 Z M402 777 Q404 773 404 771 Q404 762 392 762 L314 762 Q298 762 288 774 L170 909 Q166 913 166 917 Q166 923 176 923 L331 923 Q347 923 353 908 L402 777 L402 777 Z " />
<glyph glyph-name="Aring" unicode="&#xc5;" horiz-adv-x="751" d="M713 15 Q714 13 714 9 Q714 0 703 0 L515 0 Q508 0 502 3.5 Q496 7 494 15 Q487 37 480 59 Q473 81 466 104 L249 104 Q242 81 235 59 Q228 37 221 15 Q219 9 213.5 4.5 Q208 0 200 0 L20 0 Q4 0 10 15 L277 695 Q279 701 285 705.5 Q291 710 299 710 L426 710 Q442 710 448 695 L713 15 Z M423 246 L359 463 Q342 409 326 354.5 Q310 300 293 246 L423 246 Z M362 743 Q338 743 316 751.5 Q294 760 277 775.5 Q260 791 249.5 812 Q239 833 239 858 Q239 883 249.5 903.5 Q260 924 277 938.5 Q294 953 316 961 Q338 969 362 969 Q386 969 408 961 Q430 953 447.5 938.5 Q465 924 475.5 903.5 Q486 883 486 858 Q486 833 475.5 812 Q465 791 448 775.5 Q431 760 408.5 751.5 Q386 743 362 743 Z M362 812 Q381 812 393 824.5 Q405 837 405 857 Q405 876 393 888 Q381 900 362 900 Q344 900 332 888 Q320 876 320 857 Q320 837 332 824.5 Q344 812 362 812 Z " />
<glyph glyph-name="Atilde" unicode="&#xc3;" horiz-adv-x="751" d="M713 15 Q714 13 714 9 Q714 0 703 0 L515 0 Q508 0 502 3.5 Q496 7 494 15 Q487 37 480 59 Q473 81 466 104 L249 104 Q242 81 235 59 Q228 37 221 15 Q219 9 213.5 4.5 Q208 0 200 0 L20 0 Q4 0 10 15 L277 695 Q279 701 285 705.5 Q291 710 299 710 L426 710 Q442 710 448 695 L713 15 Z M423 246 L359 463 Q342 409 326 354.5 Q310 300 293 246 L423 246 Z M302 815 Q270 815 263 781 Q262 776 260 773.5 Q258 771 251 771 L179 771 Q168 771 168 782 Q169 813 177 840.5 Q185 868 199.5 889 Q214 910 235.5 922.5 Q257 935 287 935 Q311 935 334.5 923.5 Q358 912 378 901 Q391 894 402 888.5 Q413 883 422 883 Q448 883 453 920 Q454 925 456 928 Q458 931 465 931 L541 931 Q552 931 552 920 Q550 888 541.5 860 Q533 832 517.5 811 Q502 790 480.5 778 Q459 766 432 766 Q411 766 390 775.5 Q369 785 350 796 Q336 804 324 809.5 Q312 815 302 815 Z " />
<glyph glyph-name="AE" unicode="&#xc6;" horiz-adv-x="910" d="M636 573 L636 431 L819 431 Q835 431 835 415 L835 310 Q835 294 819 294 L636 294 L636 137 L855 137 Q871 137 871 121 L871 16 Q871 0 855 0 L464 0 Q448 0 448 16 L448 122 L267 122 L218 15 Q211 0 195 0 L41 0 Q29 0 21.5 4.5 Q14 9 14 17 Q14 24 20 35 L360 696 Q367 710 383 710 L855 710 Q871 710 871 694 L871 589 Q871 573 855 573 L636 573 Z M448 260 L448 513 L331 260 L448 260 Z " />
<glyph glyph-name="B" unicode="B" horiz-adv-x="612" d="M442 383 Q514 368 556 324.5 Q598 281 598 212 Q598 165 577.5 126 Q557 87 519 59 Q481 31 426 15.5 Q371 0 301 0 L77 0 Q61 0 61 16 L61 694 Q61 710 77 710 L291 710 Q421 710 491 665 Q561 620 561 535 Q561 506 552 481.5 Q543 457 527 437.5 Q511 418 489 404.5 Q467 391 442 385 L442 383 Z M376 505 Q376 540 351 559 Q326 578 283 578 L256 578 L256 428 L284 428 Q328 428 352 447.5 Q376 467 376 505 Z M285 132 Q337 132 366 153.5 Q395 175 395 216 Q395 254 366 275.5 Q337 297 286 297 L256 297 L256 132 L285 132 Z " />
<glyph glyph-name="C" unicode="C" horiz-adv-x="650" d="M411 -9 Q337 -9 268 16 Q199 41 146 88.5 Q93 136 61 203.5 Q29 271 29 356 Q29 441 61.5 509 Q94 577 148 623.5 Q202 670 272.5 695 Q343 720 420 720 Q473 720 518.5 711.5 Q564 703 591 692 Q606 687 606 670 L606 541 Q606 517 591 517 Q585 517 573 522 Q545 535 510.5 542.5 Q476 550 440 550 Q397 550 360 536.5 Q323 523 295.5 498 Q268 473 252 437.5 Q236 402 236 358 Q236 312 252 276 Q268 240 296 215 Q324 190 360.5 176.5 Q397 163 439 163 Q478 163 515 172.5 Q552 182 583 198 Q593 204 601 204 Q616 204 616 179 L616 54 Q616 47 613 40.5 Q610 34 602 31 Q567 13 519.5 2 Q472 -9 411 -9 Z " />
<glyph glyph-name="Ccedilla" unicode="&#xc7;" horiz-adv-x="650" d="M583 198 Q593 204 601 204 Q616 204 616 179 L616 54 Q616 47 613 40.5 Q610 34 602 31 Q568 13 521.5 2.5 Q475 -8 415 -9 L401 -34 Q439 -37 462.5 -56 Q486 -75 486 -108 Q486 -152 448.5 -176 Q411 -200 356 -200 Q329 -200 309.5 -196.5 Q290 -193 277 -188 Q265 -184 265 -170 L265 -127 Q265 -114 277 -119 Q288 -124 302.5 -127.5 Q317 -131 334 -131 Q351 -131 362 -125 Q373 -119 373 -108 Q373 -96 361.5 -89.5 Q350 -83 333 -83 Q314 -83 295 -90 L292 -87 L338 -3 Q275 8 219 37.5 Q163 67 120.5 113 Q78 159 53.5 220 Q29 281 29 356 Q29 441 61.5 509 Q94 577 148 623.5 Q202 670 272.5 695 Q343 720 420 720 Q473 720 518.5 711.5 Q564 703 591 692 Q606 687 606 670 L606 541 Q606 517 591 517 Q585 517 573 522 Q545 535 510.5 542.5 Q476 550 440 550 Q397 550 360 536.5 Q323 523 295.5 498 Q268 473 252 437.5 Q236 402 236 358 Q236 312 252 276 Q268 240 296 215 Q324 190 360.5 176.5 Q397 163 439 163 Q478 163 515 172.5 Q552 182 583 198 Z " />
<glyph glyph-name="D" unicode="D" horiz-adv-x="756" d="M61 694 Q61 710 77 710 L290 710 Q391 710 472 684 Q553 658 609.5 611.5 Q666 565 696 500.5 Q726 436 726 360 Q726 280 696 213.5 Q666 147 609.5 99.5 Q553 52 472.5 26 Q392 0 290 0 L77 0 Q61 0 61 16 L61 694 Z M266 553 L266 157 L295 157 Q397 157 456.5 209 Q516 261 516 354 Q516 401 500.5 438 Q485 475 456 500.5 Q427 526 386.5 539.5 Q346 553 295 553 L266 553 Z " />
<glyph glyph-name="Eth" unicode="&#xd0;" horiz-adv-x="734" d="M290 710 Q391 710 472 684 Q553 658 609.5 611.5 Q666 565 696 500.5 Q726 436 726 360 Q726 280 696 213.5 Q666 147 609.5 99.5 Q553 52 472.5 26 Q392 0 290 0 L77 0 Q61 0 61 16 L61 293 L22 293 Q6 293 6 309 L6 411 Q6 427 22 427 L61 427 L61 694 Q61 710 77 710 L290 710 Z M295 157 Q397 157 456.5 209 Q516 261 516 354 Q516 401 500.5 438 Q485 475 456 500.5 Q427 526 386.5 539.5 Q346 553 295 553 L266 553 L266 421 L368 421 Q384 421 384 405 L384 315 Q384 299 368 299 L266 299 L266 157 L295 157 Z " />
<glyph glyph-name="E" unicode="E" horiz-adv-x="555" d="M261 562 L261 436 L461 436 Q477 436 477 420 L477 304 Q477 288 461 288 L261 288 L261 148 L498 148 Q514 148 514 132 L514 16 Q514 0 498 0 L76 0 Q60 0 60 16 L60 694 Q60 710 76 710 L498 710 Q514 710 514 694 L514 578 Q514 562 498 562 L261 562 Z " />
<glyph glyph-name="Eacute" unicode="&#xc9;" horiz-adv-x="553" d="M261 562 L261 436 L461 436 Q477 436 477 420 L477 304 Q477 288 461 288 L261 288 L261 148 L498 148 Q514 148 514 132 L514 16 Q514 0 498 0 L76 0 Q60 0 60 16 L60 694 Q60 710 76 710 L498 710 Q514 710 514 694 L514 578 Q514 562 498 562 L261 562 Z M223 757 Q207 757 213 772 L262 904 Q265 910 270.5 914.5 Q276 919 284 919 L441 919 Q451 919 451 914 Q451 910 447 905 L328 769 Q318 757 301 757 L223 757 L223 757 Z " />
<glyph glyph-name="Ecircumflex" unicode="&#xca;" horiz-adv-x="553" d="M261 562 L261 436 L461 436 Q477 436 477 420 L477 304 Q477 288 461 288 L261 288 L261 148 L498 148 Q514 148 514 132 L514 16 Q514 0 498 0 L76 0 Q60 0 60 16 L60 694 Q60 710 76 710 L498 710 Q514 710 514 694 L514 578 Q514 562 498 562 L261 562 Z M463 767 Q467 763 467 760 Q467 756 458 756 L369 756 Q356 756 347 765 L283 832 L222 766 Q217 761 212.5 758.5 Q208 756 200 756 L108 756 Q99 756 99 760 Q99 763 103 767 L208 906 Q216 916 229 916 L338 916 Q351 916 359 906 L463 767 L463 767 Z " />
<glyph glyph-name="Edieresis" unicode="&#xcb;" horiz-adv-x="553" d="M261 562 L261 436 L461 436 Q477 436 477 420 L477 304 Q477 288 461 288 L261 288 L261 148 L498 148 Q514 148 514 132 L514 16 Q514 0 498 0 L76 0 Q60 0 60 16 L60 694 Q60 710 76 710 L498 710 Q514 710 514 694 L514 578 Q514 562 498 562 L261 562 Z M184 772 Q152 772 132 793.5 Q112 815 112 845 Q112 874 132 895.5 Q152 917 184 917 Q216 917 236 895.5 Q256 874 256 845 Q256 815 236 793.5 Q216 772 184 772 Z M388 772 Q356 772 336 793.5 Q316 815 316 845 Q316 874 336 895.5 Q356 917 388 917 Q420 917 440 895.5 Q460 874 460 845 Q460 815 440 793.5 Q420 772 388 772 Z " />
<glyph glyph-name="Egrave" unicode="&#xc8;" horiz-adv-x="553" d="M261 562 L261 436 L461 436 Q477 436 477 420 L477 304 Q477 288 461 288 L261 288 L261 148 L498 148 Q514 148 514 132 L514 16 Q514 0 498 0 L76 0 Q60 0 60 16 L60 694 Q60 710 76 710 L498 710 Q514 710 514 694 L514 578 Q514 562 498 562 L261 562 Z M323 777 Q325 773 325 771 Q325 762 313 762 L235 762 Q219 762 209 774 L91 909 Q87 913 87 917 Q87 923 97 923 L252 923 Q268 923 274 908 L323 777 L323 777 Z " />
<glyph glyph-name="F" unicode="F" horiz-adv-x="539" d="M497 710 Q513 710 513 694 L513 578 Q513 562 497 562 L261 562 L261 396 L470 396 Q486 396 486 380 L486 264 Q486 248 470 248 L261 248 L261 16 Q261 0 245 0 L77 0 Q61 0 61 16 L61 694 Q61 710 77 710 L497 710 L497 710 Z " />
<glyph glyph-name="G" unicode="G" horiz-adv-x="772" d="M404 -9 Q324 -9 255.5 18 Q187 45 137 93 Q87 141 58 207.5 Q29 274 29 353 Q29 433 60 500.5 Q91 568 145.5 616.5 Q200 665 275 692.5 Q350 720 439 720 Q467 720 498 717 Q529 714 558.5 708 Q588 702 614 694 Q640 686 659 676 Q673 669 673 652 L673 538 Q673 510 656 510 Q648 510 636 516 Q597 535 546 546.5 Q495 558 443 558 Q399 558 361 543.5 Q323 529 295.5 502 Q268 475 252 437.5 Q236 400 236 355 Q236 310 250 273 Q264 236 288.5 210.5 Q313 185 345 171 Q377 157 413 157 Q445 157 473 165.5 Q501 174 521.5 189 Q542 204 554.5 225 Q567 246 568 272 L427 272 Q411 272 411 288 L411 405 Q411 421 427 421 L727 421 Q743 421 746 405 Q749 388 751 368 Q753 348 753 327 Q753 250 727 188 Q701 126 654.5 82 Q608 38 544 14.5 Q480 -9 404 -9 Z " />
<glyph glyph-name="H" unicode="H" horiz-adv-x="757" d="M680 710 Q696 710 696 694 L696 16 Q696 0 680 0 L506 0 Q490 0 490 16 L490 284 L266 284 L266 16 Q266 0 250 0 L77 0 Q61 0 61 16 L61 694 Q61 710 77 710 L250 710 Q266 710 266 694 L266 434 L490 434 L490 694 Q490 710 506 710 L680 710 L680 710 Z " />
<glyph glyph-name="I" unicode="I" horiz-adv-x="355" d="M90 0 Q74 0 74 16 L74 694 Q74 710 90 710 L266 710 Q282 710 282 694 L282 16 Q282 0 266 0 L90 0 L90 0 Z " />
<glyph glyph-name="Iacute" unicode="&#xcd;" horiz-adv-x="355" d="M90 0 Q74 0 74 16 L74 694 Q74 710 90 710 L266 710 Q282 710 282 694 L282 16 Q282 0 266 0 L90 0 L90 0 Z M118 757 Q102 757 108 772 L157 904 Q160 910 165.5 914.5 Q171 919 179 919 L336 919 Q346 919 346 914 Q346 910 342 905 L223 769 Q213 757 196 757 L118 757 L118 757 Z " />
<glyph glyph-name="Icircumflex" unicode="&#xce;" horiz-adv-x="355" d="M90 0 Q74 0 74 16 L74 694 Q74 710 90 710 L266 710 Q282 710 282 694 L282 16 Q282 0 266 0 L90 0 L90 0 Z M358 767 Q362 763 362 760 Q362 756 353 756 L264 756 Q251 756 242 765 L178 832 L117 766 Q112 761 107.5 758.5 Q103 756 95 756 L3 756 Q-6 756 -6 760 Q-6 763 -2 767 L103 906 Q111 916 124 916 L233 916 Q246 916 254 906 L358 767 L358 767 Z " />
<glyph glyph-name="Idieresis" unicode="&#xcf;" horiz-adv-x="355" d="M90 0 Q74 0 74 16 L74 694 Q74 710 90 710 L266 710 Q282 710 282 694 L282 16 Q282 0 266 0 L90 0 L90 0 Z M79 772 Q47 772 27 793.5 Q7 815 7 845 Q7 874 27 895.5 Q47 917 79 917 Q111 917 131 895.5 Q151 874 151 845 Q151 815 131 793.5 Q111 772 79 772 Z M283 772 Q251 772 231 793.5 Q211 815 211 845 Q211 874 231 895.5 Q251 917 283 917 Q315 917 335 895.5 Q355 874 355 845 Q355 815 335 793.5 Q315 772 283 772 Z " />
<glyph glyph-name="Igrave" unicode="&#xcc;" horiz-adv-x="355" d="M90 0 Q74 0 74 16 L74 694 Q74 710 90 710 L266 710 Q282 710 282 694 L282 16 Q282 0 266 0 L90 0 L90 0 Z M218 777 Q220 773 220 771 Q220 762 208 762 L130 762 Q114 762 104 774 L-14 909 Q-18 913 -18 917 Q-18 923 -8 923 L147 923 Q163 923 169 908 L218 777 L218 777 Z " />
<glyph glyph-name="J" unicode="J" horiz-adv-x="477" d="M160 -8 Q125 -8 91 -2.5 Q57 3 33 13 Q17 19 17 36 L17 171 Q17 183 26 183 Q28 183 30.5 182 Q33 181 37 180 Q55 172 77 166.5 Q99 161 121 161 Q163 161 188.5 184.5 Q214 208 214 259 L214 694 Q214 711 230 711 L404 711 Q421 711 421 694 L421 263 Q421 197 402 146.5 Q383 96 348.5 61.5 Q314 27 266 9.5 Q218 -8 160 -8 Z " />
<glyph glyph-name="K" unicode="K" horiz-adv-x="731" d="M717 31 Q726 20 726 13 Q726 0 702 0 L498 0 Q482 0 473 13 L269 320 L269 16 Q269 0 253 0 L77 0 Q61 0 61 16 L61 694 Q61 710 77 710 L253 710 Q269 710 269 694 L269 400 L472 697 Q476 702 482.5 706 Q489 710 497 710 L700 710 Q724 710 724 698 Q724 691 715 679 L466 361 L717 31 L717 31 Z " />
<glyph glyph-name="L" unicode="L" horiz-adv-x="518" d="M484 165 Q500 165 500 149 L500 16 Q500 0 484 0 L77 0 Q61 0 61 16 L61 694 Q61 710 77 710 L252 710 Q268 710 268 694 L268 165 L484 165 L484 165 Z " />
<glyph glyph-name="Lslash" unicode="&#x141;" horiz-adv-x="518" d="M484 165 Q500 165 500 149 L500 16 Q500 0 484 0 L77 0 Q61 0 61 16 L61 287 L22 272 Q20 271 16 271 Q7 271 7 282 L7 343 Q7 359 22 365 L61 380 L61 694 Q61 710 77 710 L252 710 Q268 710 268 694 L268 458 L317 477 Q321 479 323 479 Q332 479 332 467 L332 407 Q332 391 317 385 L268 366 L268 165 L484 165 L484 165 Z " />
<glyph glyph-name="M" unicode="M" horiz-adv-x="955" d="M944 12 Q944 0 931 0 L752 0 Q745 0 740 4 Q735 8 734 16 L679 408 L549 20 Q547 14 541.5 9.5 Q536 5 528 5 L430 5 Q423 5 417 8.5 Q411 12 409 20 L273 399 L207 16 Q203 0 188 0 L24 0 Q8 0 11 16 L142 695 Q146 711 161 711 L320 711 Q336 711 341 696 L486 287 L622 696 Q624 702 629.5 706.5 Q635 711 643 711 L787 711 Q803 711 806 695 L944 16 L944 12 Z " />
<glyph glyph-name="N" unicode="N" horiz-adv-x="776" d="M699 710 Q715 710 715 694 L715 16 Q715 0 699 0 L581 0 Q565 0 555 12 L252 387 L252 16 Q252 0 236 0 L77 0 Q61 0 61 16 L61 694 Q61 710 77 710 L195 710 Q210 710 221 698 L524 319 L524 694 Q524 710 540 710 L699 710 L699 710 Z " />
<glyph glyph-name="Ntilde" unicode="&#xd1;" horiz-adv-x="776" d="M699 710 Q715 710 715 694 L715 16 Q715 0 699 0 L581 0 Q565 0 555 12 L252 387 L252 16 Q252 0 236 0 L77 0 Q61 0 61 16 L61 694 Q61 710 77 710 L195 710 Q210 710 221 698 L524 319 L524 694 Q524 710 540 710 L699 710 L699 710 Z M329 815 Q297 815 290 781 Q289 776 287 773.5 Q285 771 278 771 L206 771 Q195 771 195 782 Q196 813 204 840.5 Q212 868 226.5 889 Q241 910 262.5 922.5 Q284 935 314 935 Q338 935 361.5 923.5 Q385 912 405 901 Q418 894 429 888.5 Q440 883 449 883 Q475 883 480 920 Q481 925 483 928 Q485 931 492 931 L568 931 Q579 931 579 920 Q577 888 568.5 860 Q560 832 544.5 811 Q529 790 507.5 778 Q486 766 459 766 Q438 766 417 775.5 Q396 785 377 796 Q363 804 351 809.5 Q339 815 329 815 Z " />
<glyph glyph-name="O" unicode="O" horiz-adv-x="810" d="M405 -8 Q329 -8 261 18.5 Q193 45 141.5 93 Q90 141 59.5 208 Q29 275 29 356 Q29 437 59.5 504.5 Q90 572 141.5 620 Q193 668 261 694.5 Q329 721 405 721 Q480 721 548.5 694.5 Q617 668 668.5 620 Q720 572 750.5 504.5 Q781 437 781 356 Q781 275 750.5 208 Q720 141 668.5 93 Q617 45 549 18.5 Q481 -8 405 -8 Z M405 170 Q444 170 477.5 184.5 Q511 199 535.5 224.5 Q560 250 573.5 283.5 Q587 317 587 356 Q587 395 573.5 429 Q560 463 535.5 488.5 Q511 514 477.5 528.5 Q444 543 405 543 Q366 543 332.5 528.5 Q299 514 274.5 488.5 Q250 463 236.5 429 Q223 395 223 356 Q223 317 236.5 283.5 Q250 250 274.5 224.5 Q299 199 332.5 184.5 Q366 170 405 170 Z " />
<glyph glyph-name="Oacute" unicode="&#xd3;" horiz-adv-x="814" d="M405 -8 Q329 -8 261 18.5 Q193 45 141.5 93 Q90 141 59.5 208 Q29 275 29 356 Q29 437 59.5 504.5 Q90 572 141.5 620 Q193 668 261 694.5 Q329 721 405 721 Q480 721 548.5 694.5 Q617 668 668.5 620 Q720 572 750.5 504.5 Q781 437 781 356 Q781 275 750.5 208 Q720 141 668.5 93 Q617 45 549 18.5 Q481 -8 405 -8 Z M405 170 Q444 170 477.5 184.5 Q511 199 535.5 224.5 Q560 250 573.5 283.5 Q587 317 587 356 Q587 395 573.5 429 Q560 463 535.5 488.5 Q511 514 477.5 528.5 Q444 543 405 543 Q366 543 332.5 528.5 Q299 514 274.5 488.5 Q250 463 236.5 429 Q223 395 223 356 Q223 317 236.5 283.5 Q250 250 274.5 224.5 Q299 199 332.5 184.5 Q366 170 405 170 Z M345 758 Q329 758 335 773 L384 905 Q387 911 392.5 915.5 Q398 920 406 920 L563 920 Q573 920 573 915 Q573 911 569 906 L450 770 Q440 758 423 758 L345 758 L345 758 Z " />
<glyph glyph-name="Ocircumflex" unicode="&#xd4;" horiz-adv-x="814" d="M405 -8 Q329 -8 261 18.5 Q193 45 141.5 93 Q90 141 59.5 208 Q29 275 29 356 Q29 437 59.5 504.5 Q90 572 141.5 620 Q193 668 261 694.5 Q329 721 405 721 Q480 721 548.5 694.5 Q617 668 668.5 620 Q720 572 750.5 504.5 Q781 437 781 356 Q781 275 750.5 208 Q720 141 668.5 93 Q617 45 549 18.5 Q481 -8 405 -8 Z M405 170 Q444 170 477.5 184.5 Q511 199 535.5 224.5 Q560 250 573.5 283.5 Q587 317 587 356 Q587 395 573.5 429 Q560 463 535.5 488.5 Q511 514 477.5 528.5 Q444 543 405 543 Q366 543 332.5 528.5 Q299 514 274.5 488.5 Q250 463 236.5 429 Q223 395 223 356 Q223 317 236.5 283.5 Q250 250 274.5 224.5 Q299 199 332.5 184.5 Q366 170 405 170 Z M585 768 Q589 764 589 761 Q589 757 580 757 L491 757 Q478 757 469 766 L405 833 L344 767 Q339 762 334.5 759.5 Q330 757 322 757 L230 757 Q221 757 221 761 Q221 764 225 768 L330 907 Q338 917 351 917 L460 917 Q473 917 481 907 L585 768 L585 768 Z " />
<glyph glyph-name="Odieresis" unicode="&#xd6;" horiz-adv-x="814" d="M405 -8 Q329 -8 261 18.5 Q193 45 141.5 93 Q90 141 59.5 208 Q29 275 29 356 Q29 437 59.5 504.5 Q90 572 141.5 620 Q193 668 261 694.5 Q329 721 405 721 Q480 721 548.5 694.5 Q617 668 668.5 620 Q720 572 750.5 504.5 Q781 437 781 356 Q781 275 750.5 208 Q720 141 668.5 93 Q617 45 549 18.5 Q481 -8 405 -8 Z M405 170 Q444 170 477.5 184.5 Q511 199 535.5 224.5 Q560 250 573.5 283.5 Q587 317 587 356 Q587 395 573.5 429 Q560 463 535.5 488.5 Q511 514 477.5 528.5 Q444 543 405 543 Q366 543 332.5 528.5 Q299 514 274.5 488.5 Q250 463 236.5 429 Q223 395 223 356 Q223 317 236.5 283.5 Q250 250 274.5 224.5 Q299 199 332.5 184.5 Q366 170 405 170 Z M306 773 Q274 773 254 794.5 Q234 816 234 846 Q234 875 254 896.5 Q274 918 306 918 Q338 918 358 896.5 Q378 875 378 846 Q378 816 358 794.5 Q338 773 306 773 Z M510 773 Q478 773 458 794.5 Q438 816 438 846 Q438 875 458 896.5 Q478 918 510 918 Q542 918 562 896.5 Q582 875 582 846 Q582 816 562 794.5 Q542 773 510 773 Z " />
<glyph glyph-name="Ograve" unicode="&#xd2;" horiz-adv-x="814" d="M405 -8 Q329 -8 261 18.5 Q193 45 141.5 93 Q90 141 59.5 208 Q29 275 29 356 Q29 437 59.5 504.5 Q90 572 141.5 620 Q193 668 261 694.5 Q329 721 405 721 Q480 721 548.5 694.5 Q617 668 668.5 620 Q720 572 750.5 504.5 Q781 437 781 356 Q781 275 750.5 208 Q720 141 668.5 93 Q617 45 549 18.5 Q481 -8 405 -8 Z M405 170 Q444 170 477.5 184.5 Q511 199 535.5 224.5 Q560 250 573.5 283.5 Q587 317 587 356 Q587 395 573.5 429 Q560 463 535.5 488.5 Q511 514 477.5 528.5 Q444 543 405 543 Q366 543 332.5 528.5 Q299 514 274.5 488.5 Q250 463 236.5 429 Q223 395 223 356 Q223 317 236.5 283.5 Q250 250 274.5 224.5 Q299 199 332.5 184.5 Q366 170 405 170 Z M445 778 Q447 774 447 772 Q447 763 435 763 L357 763 Q341 763 331 775 L213 910 Q209 914 209 918 Q209 924 219 924 L374 924 Q390 924 396 909 L445 778 L445 778 Z " />
<glyph glyph-name="Oslash" unicode="&#xd8;" horiz-adv-x="814" d="M648 638 Q708 589 744.5 517.5 Q781 446 781 356 Q781 275 750.5 208 Q720 141 668.5 93 Q617 45 549 18.5 Q481 -8 405 -8 Q355 -8 308.5 3.5 Q262 15 220 37 L177 -23 Q173 -28 166.5 -32 Q160 -36 152 -36 L86 -36 Q83 -36 85 -34 L163 75 Q102 123 65.5 194.5 Q29 266 29 356 Q29 437 59.5 504.5 Q90 572 141.5 620 Q193 668 261 694.5 Q329 721 405 721 Q505 721 591 675 L633 734 Q637 739 643.5 743 Q650 747 658 747 L709 747 Q725 747 716 734 L648 638 Z M223 356 Q223 318 236 285.5 Q249 253 272 228 L484 525 Q449 543 405 543 Q366 543 332.5 528.5 Q299 514 274.5 488.5 Q250 463 236.5 429 Q223 395 223 356 Z M405 170 Q444 170 477.5 184.5 Q511 199 535.5 224.5 Q560 250 573.5 283.5 Q587 317 587 356 Q587 394 574.5 427 Q562 460 539 485 L327 187 Q363 170 405 170 Z " />
<glyph glyph-name="Otilde" unicode="&#xd5;" horiz-adv-x="814" d="M405 -8 Q329 -8 261 18.5 Q193 45 141.5 93 Q90 141 59.5 208 Q29 275 29 356 Q29 437 59.5 504.5 Q90 572 141.5 620 Q193 668 261 694.5 Q329 721 405 721 Q480 721 548.5 694.5 Q617 668 668.5 620 Q720 572 750.5 504.5 Q781 437 781 356 Q781 275 750.5 208 Q720 141 668.5 93 Q617 45 549 18.5 Q481 -8 405 -8 Z M405 170 Q444 170 477.5 184.5 Q511 199 535.5 224.5 Q560 250 573.5 283.5 Q587 317 587 356 Q587 395 573.5 429 Q560 463 535.5 488.5 Q511 514 477.5 528.5 Q444 543 405 543 Q366 543 332.5 528.5 Q299 514 274.5 488.5 Q250 463 236.5 429 Q223 395 223 356 Q223 317 236.5 283.5 Q250 250 274.5 224.5 Q299 199 332.5 184.5 Q366 170 405 170 Z M345 816 Q313 816 306 782 Q305 777 303 774.5 Q301 772 294 772 L222 772 Q211 772 211 783 Q212 814 220 841.5 Q228 869 242.5 890 Q257 911 278.5 923.5 Q300 936 330 936 Q354 936 377.5 924.5 Q401 913 421 902 Q434 895 445 889.5 Q456 884 465 884 Q491 884 496 921 Q497 926 499 929 Q501 932 508 932 L584 932 Q595 932 595 921 Q593 889 584.5 861 Q576 833 560.5 812 Q545 791 523.5 779 Q502 767 475 767 Q454 767 433 776.5 Q412 786 393 797 Q379 805 367 810.5 Q355 816 345 816 Z " />
<glyph glyph-name="OE" unicode="&#x152;" horiz-adv-x="950" d="M665 569 L665 432 L858 432 Q874 432 874 416 L874 307 Q874 291 858 291 L665 291 L665 141 L895 141 Q911 141 911 125 L911 16 Q911 0 895 0 L458 0 Q366 0 287.5 25 Q209 50 151.5 96 Q94 142 61.5 208 Q29 274 29 357 Q29 439 61.5 504 Q94 569 152 615 Q210 661 288 685.5 Q366 710 458 710 L895 710 Q911 710 911 694 L911 585 Q911 569 895 569 L665 569 Z M464 552 Q355 552 295.5 499.5 Q236 447 236 357 Q236 267 296 212.5 Q356 158 464 158 L464 552 Z " />
<glyph glyph-name="P" unicode="P" horiz-adv-x="641" d="M298 710 Q373 710 433.5 694 Q494 678 537 646.5 Q580 615 603 569.5 Q626 524 626 465 Q626 408 603.5 362.5 Q581 317 538.5 284.5 Q496 252 435 235 Q374 218 297 218 L268 218 L268 16 Q268 0 252 0 L77 0 Q61 0 61 16 L61 694 Q61 710 77 710 L298 710 Z M294 367 Q354 367 384.5 393.5 Q415 420 415 465 Q415 510 384 535.5 Q353 561 296 561 L268 561 L268 367 L294 367 Z " />
<glyph glyph-name="Thorn" unicode="&#xde;" horiz-adv-x="641" d="M298 601 Q373 601 433.5 585 Q494 569 537 537.5 Q580 506 603 460.5 Q626 415 626 356 Q626 299 603.5 253.5 Q581 208 538.5 176 Q496 144 435 126.5 Q374 109 297 109 L268 109 L268 16 Q268 0 252 0 L77 0 Q61 0 61 16 L61 694 Q61 710 77 710 L252 710 Q268 710 268 694 L268 601 L298 601 Z M294 258 Q354 258 384.5 284.5 Q415 311 415 356 Q415 401 384 426.5 Q353 452 296 452 L268 452 L268 258 L294 258 Z " />
<glyph glyph-name="Q" unicode="Q" horiz-adv-x="814" d="M800 -10 Q804 -16 804 -21 Q804 -26 798 -32 L692 -118 Q688 -122 682 -122 Q676 -122 670 -116 L557 22 Q486 -8 405 -8 Q329 -8 261 18.5 Q193 45 141.5 93 Q90 141 59.5 208 Q29 275 29 356 Q29 437 59.5 504.5 Q90 572 141.5 620 Q193 668 261 694.5 Q329 721 405 721 Q480 721 548.5 694.5 Q617 668 668.5 620 Q720 572 750.5 504.5 Q781 437 781 356 Q781 284 757 223.5 Q733 163 691 116 L800 -10 Z M223 356 Q223 317 236.5 283.5 Q250 250 274.5 224.5 Q299 199 332.5 184.5 Q366 170 405 170 Q444 170 477.5 184.5 Q511 199 535.5 224.5 Q560 250 573.5 283.5 Q587 317 587 356 Q587 395 573.5 429 Q560 463 535.5 488.5 Q511 514 477.5 528.5 Q444 543 405 543 Q366 543 332.5 528.5 Q299 514 274.5 488.5 Q250 463 236.5 429 Q223 395 223 356 Z " />
<glyph glyph-name="R" unicode="R" horiz-adv-x="669" d="M655 26 Q662 15 662 11 Q662 0 642 0 L443 0 Q436 0 429.5 3 Q423 6 419 14 L261 267 L259 267 L259 16 Q259 0 243 0 L76 0 Q60 0 60 16 L60 694 Q60 710 76 710 L322 710 Q387 710 439.5 696 Q492 682 529 655.5 Q566 629 586 590.5 Q606 552 606 503 Q606 431 567 378 Q528 325 454 302 L655 26 Z M259 570 L259 389 L298 389 Q351 389 379 413 Q407 437 407 481 Q407 523 378.5 546.5 Q350 570 298 570 L259 570 Z " />
<glyph glyph-name="S" unicode="S" horiz-adv-x="570" d="M261 -10 Q235 -10 207 -7 Q179 -4 151.5 1 Q124 6 97.5 14 Q71 22 50 32 Q36 38 36 56 L36 194 Q36 205 42 205 Q44 205 50 203 Q100 174 150.5 160 Q201 146 244 146 Q287 146 312 162 Q337 178 337 207 Q337 223 329.5 234.5 Q322 246 309.5 255 Q297 264 279.5 271.5 Q262 279 242 287 Q194 306 156 327 Q118 348 91 374.5 Q64 401 49.5 434 Q35 467 35 509 Q35 559 56.5 598 Q78 637 115 664 Q152 691 202 705.5 Q252 720 309 720 Q356 720 402.5 712 Q449 704 484 693 Q499 686 499 671 L499 542 Q499 530 492 530 Q491 530 485 532 Q449 548 404.5 557.5 Q360 567 326 567 Q285 567 263.5 552.5 Q242 538 242 514 Q242 499 250.5 488 Q259 477 273 468 Q287 459 304.5 451.5 Q322 444 341 436 Q389 416 427 395 Q465 374 490.5 348.5 Q516 323 529.5 291.5 Q543 260 543 219 Q543 171 523.5 129 Q504 87 467.5 56.5 Q431 26 378.5 8 Q326 -10 261 -10 Z " />
<glyph glyph-name="Scaron" unicode="&#x160;" horiz-adv-x="570" d="M261 -10 Q235 -10 207 -7 Q179 -4 151.5 1 Q124 6 97.5 14 Q71 22 50 32 Q36 38 36 56 L36 194 Q36 205 42 205 Q44 205 50 203 Q100 174 150.5 160 Q201 146 244 146 Q287 146 312 162 Q337 178 337 207 Q337 223 329.5 234.5 Q322 246 309.5 255 Q297 264 279.5 271.5 Q262 279 242 287 Q194 306 156 327 Q118 348 91 374.5 Q64 401 49.5 434 Q35 467 35 509 Q35 559 56.5 598 Q78 637 115 664 Q152 691 202 705.5 Q252 720 309 720 Q356 720 402.5 712 Q449 704 484 693 Q499 686 499 671 L499 542 Q499 530 492 530 Q491 530 485 532 Q449 548 404.5 557.5 Q360 567 326 567 Q285 567 263.5 552.5 Q242 538 242 514 Q242 499 250.5 488 Q259 477 273 468 Q287 459 304.5 451.5 Q322 444 341 436 Q389 416 427 395 Q465 374 490.5 348.5 Q516 323 529.5 291.5 Q543 260 543 219 Q543 171 523.5 129 Q504 87 467.5 56.5 Q431 26 378.5 8 Q326 -10 261 -10 Z M454 916 Q470 916 460 904 L343 768 Q334 756 317 756 L253 756 Q237 756 227 768 L109 904 Q106 908 106 911 Q106 916 115 916 L204 916 Q211 916 218.5 913.5 Q226 911 232 905 L289 850 L342 905 Q353 916 369 916 L454 916 L454 916 Z " />
<glyph glyph-name="T" unicode="T" horiz-adv-x="606" d="M574 710 Q590 710 590 694 L590 565 Q590 549 574 549 L406 549 L406 16 Q406 0 390 0 L216 0 Q200 0 200 16 L200 549 L32 549 Q16 549 16 565 L16 694 Q16 710 32 710 L574 710 L574 710 Z " />
<glyph glyph-name="U" unicode="U" horiz-adv-x="727" d="M356 -9 Q291 -9 236.5 9.5 Q182 28 142 65.5 Q102 103 79.5 158 Q57 213 57 287 L57 695 Q57 711 73 711 L248 711 Q264 711 264 695 L264 272 Q264 214 291 184.5 Q318 155 365 155 Q411 155 438 184.5 Q465 214 465 272 L465 695 Q465 711 481 711 L654 711 Q670 711 670 695 L670 287 Q670 213 646.5 158 Q623 103 581 65.5 Q539 28 481.5 9.5 Q424 -9 356 -9 Z " />
<glyph glyph-name="Uacute" unicode="&#xda;" horiz-adv-x="727" d="M356 -9 Q291 -9 236.5 9.5 Q182 28 142 65.5 Q102 103 79.5 158 Q57 213 57 287 L57 695 Q57 711 73 711 L248 711 Q264 711 264 695 L264 272 Q264 214 291 184.5 Q318 155 365 155 Q411 155 438 184.5 Q465 214 465 272 L465 695 Q465 711 481 711 L654 711 Q670 711 670 695 L670 287 Q670 213 646.5 158 Q623 103 581 65.5 Q539 28 481.5 9.5 Q424 -9 356 -9 Z M300 757 Q284 757 290 772 L339 904 Q342 910 347.5 914.5 Q353 919 361 919 L518 919 Q528 919 528 914 Q528 910 524 905 L405 769 Q395 757 378 757 L300 757 L300 757 Z " />
<glyph glyph-name="Ucircumflex" unicode="&#xdb;" horiz-adv-x="727" d="M356 -9 Q291 -9 236.5 9.5 Q182 28 142 65.5 Q102 103 79.5 158 Q57 213 57 287 L57 695 Q57 711 73 711 L248 711 Q264 711 264 695 L264 272 Q264 214 291 184.5 Q318 155 365 155 Q411 155 438 184.5 Q465 214 465 272 L465 695 Q465 711 481 711 L654 711 Q670 711 670 695 L670 287 Q670 213 646.5 158 Q623 103 581 65.5 Q539 28 481.5 9.5 Q424 -9 356 -9 Z M540 767 Q544 763 544 760 Q544 756 535 756 L446 756 Q433 756 424 765 L360 832 L299 766 Q294 761 289.5 758.5 Q285 756 277 756 L185 756 Q176 756 176 760 Q176 763 180 767 L285 906 Q293 916 306 916 L415 916 Q428 916 436 906 L540 767 L540 767 Z " />
<glyph glyph-name="Udieresis" unicode="&#xdc;" horiz-adv-x="727" d="M356 -9 Q291 -9 236.5 9.5 Q182 28 142 65.5 Q102 103 79.5 158 Q57 213 57 287 L57 695 Q57 711 73 711 L248 711 Q264 711 264 695 L264 272 Q264 214 291 184.5 Q318 155 365 155 Q411 155 438 184.5 Q465 214 465 272 L465 695 Q465 711 481 711 L654 711 Q670 711 670 695 L670 287 Q670 213 646.5 158 Q623 103 581 65.5 Q539 28 481.5 9.5 Q424 -9 356 -9 Z M261 772 Q229 772 209 793.5 Q189 815 189 845 Q189 874 209 895.5 Q229 917 261 917 Q293 917 313 895.5 Q333 874 333 845 Q333 815 313 793.5 Q293 772 261 772 Z M465 772 Q433 772 413 793.5 Q393 815 393 845 Q393 874 413 895.5 Q433 917 465 917 Q497 917 517 895.5 Q537 874 537 845 Q537 815 517 793.5 Q497 772 465 772 Z " />
<glyph glyph-name="Ugrave" unicode="&#xd9;" horiz-adv-x="727" d="M356 -9 Q291 -9 236.5 9.5 Q182 28 142 65.5 Q102 103 79.5 158 Q57 213 57 287 L57 695 Q57 711 73 711 L248 711 Q264 711 264 695 L264 272 Q264 214 291 184.5 Q318 155 365 155 Q411 155 438 184.5 Q465 214 465 272 L465 695 Q465 711 481 711 L654 711 Q670 711 670 695 L670 287 Q670 213 646.5 158 Q623 103 581 65.5 Q539 28 481.5 9.5 Q424 -9 356 -9 Z M400 777 Q402 773 402 771 Q402 762 390 762 L312 762 Q296 762 286 774 L168 909 Q164 913 164 917 Q164 923 174 923 L329 923 Q345 923 351 908 L400 777 L400 777 Z " />
<glyph glyph-name="V" unicode="V" horiz-adv-x="728" d="M711 710 Q718 710 721.5 706 Q725 702 721 694 L442 14 Q437 -2 419 -2 L304 -2 Q298 -2 292.5 1 Q287 4 285 11 L6 694 Q5 696 5 701 Q5 710 17 710 L204 710 Q220 710 225 695 L369 272 L513 695 Q515 701 520.5 705.5 Q526 710 534 710 L711 710 L711 710 Z " />
<glyph glyph-name="W" unicode="W" horiz-adv-x="1036" d="M1014 710 Q1026 710 1026 701 Q1026 697 1024 691 L820 15 Q818 9 812.5 4.5 Q807 0 799 0 L653 0 Q646 0 640 3.5 Q634 7 632 15 L518 435 L404 15 Q402 9 396.5 4.5 Q391 0 383 0 L237 0 Q230 0 224 3.5 Q218 7 216 15 L17 673 Q14 682 12 690.5 Q10 699 10 701 Q10 710 22 710 L201 710 Q216 710 221 695 L319 267 L435 695 Q437 701 442.5 705.5 Q448 710 456 710 L592 710 Q608 710 613 695 L729 267 L820 694 Q824 710 840 710 L1014 710 L1014 710 Z " />
<glyph glyph-name="X" unicode="X" horiz-adv-x="721" d="M705 35 Q714 23 714 14 Q714 0 687 0 L504 0 Q497 0 490.5 3 Q484 6 480 14 L360 209 L243 14 Q236 0 219 0 L38 0 Q12 0 12 15 Q12 24 20 35 L250 354 L18 675 Q9 687 9 696 Q9 710 36 710 L222 710 Q229 710 235.5 707 Q242 704 247 696 L367 507 L476 696 Q485 710 500 710 L682 710 Q708 710 708 695 Q708 686 700 675 L478 360 L705 35 L705 35 Z " />
<glyph glyph-name="Y" unicode="Y" horiz-adv-x="676" d="M251 0 Q235 0 235 16 L235 272 L3 677 Q-3 687 -3 695 Q-3 711 23 711 L195 711 Q211 711 218 697 L347 433 L468 696 Q475 711 491 711 L652 711 Q678 711 678 695 Q678 687 672 677 L442 272 L442 16 Q442 0 426 0 L251 0 L251 0 Z " />
<glyph glyph-name="Yacute" unicode="&#xdd;" horiz-adv-x="676" d="M251 0 Q235 0 235 16 L235 272 L3 677 Q-3 687 -3 695 Q-3 711 23 711 L195 711 Q211 711 218 697 L347 433 L468 696 Q475 711 491 711 L652 711 Q678 711 678 695 Q678 687 672 677 L442 272 L442 16 Q442 0 426 0 L251 0 L251 0 Z M278 757 Q262 757 268 772 L317 904 Q320 910 325.5 914.5 Q331 919 339 919 L496 919 Q506 919 506 914 Q506 910 502 905 L383 769 Q373 757 356 757 L278 757 L278 757 Z " />
<glyph glyph-name="Ydieresis" unicode="&#x178;" horiz-adv-x="676" d="M251 0 Q235 0 235 16 L235 272 L3 677 Q-3 687 -3 695 Q-3 711 23 711 L195 711 Q211 711 218 697 L347 433 L468 696 Q475 711 491 711 L652 711 Q678 711 678 695 Q678 687 672 677 L442 272 L442 16 Q442 0 426 0 L251 0 L251 0 Z M239 772 Q207 772 187 793.5 Q167 815 167 845 Q167 874 187 895.5 Q207 917 239 917 Q271 917 291 895.5 Q311 874 311 845 Q311 815 291 793.5 Q271 772 239 772 Z M443 772 Q411 772 391 793.5 Q371 815 371 845 Q371 874 391 895.5 Q411 917 443 917 Q475 917 495 895.5 Q515 874 515 845 Q515 815 495 793.5 Q475 772 443 772 Z " />
<glyph glyph-name="Z" unicode="Z" horiz-adv-x="628" d="M566 146 Q582 146 582 130 L582 16 Q582 0 566 0 L55 0 Q39 0 39 16 L39 73 Q39 87 47 103 L336 564 L69 564 Q53 564 53 580 L53 694 Q53 710 69 710 L556 710 Q572 710 572 694 L572 637 Q572 622 563 607 L273 146 L566 146 Z " />
<glyph glyph-name="Zcaron" unicode="&#x17d;" horiz-adv-x="628" d="M566 146 Q582 146 582 130 L582 16 Q582 0 566 0 L55 0 Q39 0 39 16 L39 73 Q39 87 47 103 L336 564 L69 564 Q53 564 53 580 L53 694 Q53 710 69 710 L556 710 Q572 710 572 694 L572 637 Q572 622 563 607 L273 146 L566 146 Z M485 916 Q501 916 491 904 L374 768 Q365 756 348 756 L284 756 Q268 756 258 768 L140 904 Q137 908 137 911 Q137 916 146 916 L235 916 Q242 916 249.5 913.5 Q257 911 263 905 L320 850 L373 905 Q384 916 400 916 L485 916 L485 916 Z " />
<glyph glyph-name="a" unicode="a" horiz-adv-x="656" d="M586 480 Q602 480 602 464 L602 16 Q602 0 586 0 L424 0 Q408 0 408 16 L408 80 Q385 32 345 11.5 Q305 -9 261 -9 Q212 -9 169.5 10 Q127 29 95.5 62 Q64 95 46 141 Q28 187 28 241 Q28 295 46 341 Q64 387 95 420 Q126 453 168.5 471.5 Q211 490 261 490 Q305 490 345.5 472 Q386 454 408 408 L408 464 Q408 480 424 480 L586 480 Z M320 147 Q357 147 383.5 173 Q410 199 410 241 Q410 284 383.5 309 Q357 334 319 334 Q281 334 254 309 Q227 284 227 242 Q227 199 254.5 173 Q282 147 320 147 Z " />
<glyph glyph-name="aacute" unicode="&#xe1;" horiz-adv-x="666" d="M586 480 Q602 480 602 464 L602 16 Q602 0 586 0 L424 0 Q408 0 408 16 L408 80 Q385 32 345 11.5 Q305 -9 261 -9 Q212 -9 169.5 10 Q127 29 95.5 62 Q64 95 46 141 Q28 187 28 241 Q28 295 46 341 Q64 387 95 420 Q126 453 168.5 471.5 Q211 490 261 490 Q305 490 345.5 472 Q386 454 408 408 L408 464 Q408 480 424 480 L586 480 Z M320 147 Q357 147 383.5 173 Q410 199 410 241 Q410 284 383.5 309 Q357 334 319 334 Q281 334 254 309 Q227 284 227 242 Q227 199 254.5 173 Q282 147 320 147 Z M262 545 Q246 545 252 560 L338 770 Q343 786 359 780 L492 741 Q503 738 503 730 Q503 725 499 721 L380 558 Q376 553 369.5 549 Q363 545 355 545 L262 545 L262 545 Z " />
<glyph glyph-name="abreve" unicode="&#x103;" horiz-adv-x="666" d="M586 480 Q602 480 602 464 L602 16 Q602 0 586 0 L424 0 Q408 0 408 16 L408 80 Q385 32 345 11.5 Q305 -9 261 -9 Q212 -9 169.5 10 Q127 29 95.5 62 Q64 95 46 141 Q28 187 28 241 Q28 295 46 341 Q64 387 95 420 Q126 453 168.5 471.5 Q211 490 261 490 Q305 490 345.5 472 Q386 454 408 408 L408 464 Q408 480 424 480 L586 480 Z M320 147 Q357 147 383.5 173 Q410 199 410 241 Q410 284 383.5 309 Q357 334 319 334 Q281 334 254 309 Q227 284 227 242 Q227 199 254.5 173 Q282 147 320 147 Z M332 560 Q267 560 221.5 604 Q176 648 167 725 L167 728 Q167 738 179 738 L243 737 Q255 737 259 724 Q273 671 331 671 Q389 671 404 724 Q407 737 420 737 L484 738 Q497 738 496 725 Q487 648 441.5 604 Q396 560 332 560 Z " />
<glyph glyph-name="acircumflex" unicode="&#xe2;" horiz-adv-x="666" d="M586 480 Q602 480 602 464 L602 16 Q602 0 586 0 L424 0 Q408 0 408 16 L408 80 Q385 32 345 11.5 Q305 -9 261 -9 Q212 -9 169.5 10 Q127 29 95.5 62 Q64 95 46 141 Q28 187 28 241 Q28 295 46 341 Q64 387 95 420 Q126 453 168.5 471.5 Q211 490 261 490 Q305 490 345.5 472 Q386 454 408 408 L408 464 Q408 480 424 480 L586 480 Z M320 147 Q357 147 383.5 173 Q410 199 410 241 Q410 284 383.5 309 Q357 334 319 334 Q281 334 254 309 Q227 284 227 242 Q227 199 254.5 173 Q282 147 320 147 Z M509 561 Q512 556 512 554 Q512 549 503 549 L411 549 Q405 549 400 551 Q395 553 390 560 L332 639 L276 560 Q270 549 256 549 L160 549 Q151 549 151 554 Q151 556 154 561 L264 735 Q270 746 284 746 L380 746 Q393 746 400 735 L509 561 L509 561 Z " />
<glyph glyph-name="adieresis" unicode="&#xe4;" horiz-adv-x="666" d="M586 480 Q602 480 602 464 L602 16 Q602 0 586 0 L424 0 Q408 0 408 16 L408 80 Q385 32 345 11.5 Q305 -9 261 -9 Q212 -9 169.5 10 Q127 29 95.5 62 Q64 95 46 141 Q28 187 28 241 Q28 295 46 341 Q64 387 95 420 Q126 453 168.5 471.5 Q211 490 261 490 Q305 490 345.5 472 Q386 454 408 408 L408 464 Q408 480 424 480 L586 480 Z M320 147 Q357 147 383.5 173 Q410 199 410 241 Q410 284 383.5 309 Q357 334 319 334 Q281 334 254 309 Q227 284 227 242 Q227 199 254.5 173 Q282 147 320 147 Z M235 586 Q203 586 183 607.5 Q163 629 163 658 Q163 688 183 709 Q203 730 235 730 Q266 730 286 709 Q306 688 306 658 Q306 629 286 607.5 Q266 586 235 586 Z M429 586 Q397 586 377 607.5 Q357 629 357 658 Q357 688 377 709 Q397 730 429 730 Q460 730 480 709 Q500 688 500 658 Q500 629 480 607.5 Q460 586 429 586 Z " />
<glyph glyph-name="agrave" unicode="&#xe0;" horiz-adv-x="666" d="M586 480 Q602 480 602 464 L602 16 Q602 0 586 0 L424 0 Q408 0 408 16 L408 80 Q385 32 345 11.5 Q305 -9 261 -9 Q212 -9 169.5 10 Q127 29 95.5 62 Q64 95 46 141 Q28 187 28 241 Q28 295 46 341 Q64 387 95 420 Q126 453 168.5 471.5 Q211 490 261 490 Q305 490 345.5 472 Q386 454 408 408 L408 464 Q408 480 424 480 L586 480 Z M320 147 Q357 147 383.5 173 Q410 199 410 241 Q410 284 383.5 309 Q357 334 319 334 Q281 334 254 309 Q227 284 227 242 Q227 199 254.5 173 Q282 147 320 147 Z M380 560 Q381 558 381 553 Q381 545 370 545 L277 545 Q261 545 252 558 L133 721 Q129 727 129 730 Q129 738 140 741 L273 780 Q275 781 279 781 Q290 781 294 770 L380 560 L380 560 Z " />
<glyph glyph-name="aring" unicode="&#xe5;" horiz-adv-x="666" d="M586 480 Q602 480 602 464 L602 16 Q602 0 586 0 L424 0 Q408 0 408 16 L408 80 Q385 32 345 11.5 Q305 -9 261 -9 Q212 -9 169.5 10 Q127 29 95.5 62 Q64 95 46 141 Q28 187 28 241 Q28 295 46 341 Q64 387 95 420 Q126 453 168.5 471.5 Q211 490 261 490 Q305 490 345.5 472 Q386 454 408 408 L408 464 Q408 480 424 480 L586 480 Z M320 147 Q357 147 383.5 173 Q410 199 410 241 Q410 284 383.5 309 Q357 334 319 334 Q281 334 254 309 Q227 284 227 242 Q227 199 254.5 173 Q282 147 320 147 Z M332 527 Q308 527 286 535.5 Q264 544 247 559.5 Q230 575 219.5 596 Q209 617 209 642 Q209 667 219.5 687.5 Q230 708 247 722.5 Q264 737 286 745 Q308 753 332 753 Q356 753 378 745 Q400 737 417.5 722.5 Q435 708 445.5 687.5 Q456 667 456 642 Q456 617 445.5 596 Q435 575 418 559.5 Q401 544 378.5 535.5 Q356 527 332 527 Z M332 596 Q351 596 363 608.5 Q375 621 375 641 Q375 660 363 672 Q351 684 332 684 Q314 684 302 672 Q290 660 290 641 Q290 621 302 608.5 Q314 596 332 596 Z " />
<glyph glyph-name="atilde" unicode="&#xe3;" horiz-adv-x="666" d="M586 480 Q602 480 602 464 L602 16 Q602 0 586 0 L424 0 Q408 0 408 16 L408 80 Q385 32 345 11.5 Q305 -9 261 -9 Q212 -9 169.5 10 Q127 29 95.5 62 Q64 95 46 141 Q28 187 28 241 Q28 295 46 341 Q64 387 95 420 Q126 453 168.5 471.5 Q211 490 261 490 Q305 490 345.5 472 Q386 454 408 408 L408 464 Q408 480 424 480 L586 480 Z M320 147 Q357 147 383.5 173 Q410 199 410 241 Q410 284 383.5 309 Q357 334 319 334 Q281 334 254 309 Q227 284 227 242 Q227 199 254.5 173 Q282 147 320 147 Z M404 549 Q380 549 360 559.5 Q340 570 323 581 Q309 591 296.5 599 Q284 607 271 607 Q241 607 235 564 Q234 559 232 556 Q230 553 223 553 L151 553 Q140 553 140 564 Q141 597 149 627.5 Q157 658 171.5 680.5 Q186 703 207.5 716.5 Q229 730 259 730 Q287 730 309.5 717 Q332 704 350 692 Q364 683 374.5 676.5 Q385 670 395 670 Q422 670 425 713 Q426 718 428 721 Q430 724 437 724 L513 724 Q524 724 524 713 Q522 679 513.5 649.5 Q505 620 489.5 597.5 Q474 575 452.5 562 Q431 549 404 549 Z " />
<glyph glyph-name="ae" unicode="&#xe6;" horiz-adv-x="805" d="M562 490 Q608 490 647 476 Q686 462 714.5 435.5 Q743 409 759.5 370 Q776 331 776 280 Q776 265 774.5 250.5 Q773 236 771 224 Q767 208 752 208 L491 208 Q502 160 532 139.5 Q562 119 609 119 Q648 119 686 129.5 Q724 140 751 158 Q755 161 759 161 Q764 161 764 151 L764 55 Q764 48 761 41.5 Q758 35 751 31 Q719 13 672.5 1.5 Q626 -10 574 -10 Q514 -10 466.5 10.5 Q419 31 387 69 Q354 29 307 10 Q260 -9 206 -9 Q167 -9 134.5 0.5 Q102 10 78.5 28.5 Q55 47 41.5 74 Q28 101 28 135 Q28 200 76 238 Q124 276 219 284 Q240 286 266 286.5 Q292 287 310 287 Q302 329 270.5 346 Q239 363 194 363 Q164 363 133.5 356 Q103 349 80 338 Q78 337 73 337 Q66 337 66 347 L66 444 Q66 460 81 466 Q112 477 150 483.5 Q188 490 229 490 Q343 490 399 430 Q464 490 562 490 Z M554 379 Q527 379 510.5 359 Q494 339 489 301 L611 301 Q609 335 595.5 357 Q582 379 554 379 Z M246 101 Q258 101 269.5 105.5 Q281 110 291 121 Q301 132 307 150.5 Q313 169 313 198 L313 210 Q299 209 285.5 208 Q272 207 260 205 Q235 200 216 187 Q197 174 197 148 Q197 125 211.5 113 Q226 101 246 101 Z " />
<glyph glyph-name="b" unicode="b" horiz-adv-x="651" d="M394 490 Q442 490 484 471.5 Q526 453 556.5 420 Q587 387 604.5 341 Q622 295 622 241 Q622 187 604 141 Q586 95 555.5 62 Q525 29 483.5 10 Q442 -9 394 -9 Q351 -9 310 11.5 Q269 32 247 80 L247 16 Q247 0 231 0 L70 0 Q54 0 54 16 L54 730 Q54 746 70 746 L231 746 Q247 746 247 730 L247 408 Q268 452 309 471 Q350 490 394 490 Z M335 147 Q373 147 400 173 Q427 199 427 242 Q427 284 400.5 309 Q374 334 336 334 Q298 334 271.5 309 Q245 284 245 241 Q245 199 271.5 173 Q298 147 335 147 Z " />
<glyph glyph-name="c" unicode="c" horiz-adv-x="470" d="M301 -9 Q249 -9 200 7.5 Q151 24 112.5 56 Q74 88 51 134.5 Q28 181 28 241 Q28 301 50.5 347 Q73 393 111.5 424.5 Q150 456 200 472.5 Q250 489 304 489 Q339 489 371 484 Q403 479 424 470 Q437 465 437 450 L437 348 Q437 324 423 324 Q417 324 404 329 Q377 341 342 341 Q320 341 300 334 Q280 327 265 314 Q250 301 241.5 282 Q233 263 233 240 Q233 216 242 198 Q251 180 266 167.5 Q281 155 300.5 148.5 Q320 142 342 142 Q377 142 408 155 Q417 159 426 159 Q434 159 438 154 Q442 149 442 135 L442 35 Q442 29 439 23 Q436 17 430 15 Q408 4 373.5 -2.5 Q339 -9 301 -9 Z " />
<glyph glyph-name="ccedilla" unicode="&#xe7;" horiz-adv-x="472" d="M408 155 Q417 159 426 159 Q434 159 438 154 Q442 149 442 135 L442 35 Q442 29 439 23 Q436 17 430 15 Q411 6 382 -0.5 Q353 -7 321 -9 L306 -34 Q344 -37 367.5 -56 Q391 -75 391 -108 Q391 -152 353.5 -176 Q316 -200 261 -200 Q234 -200 214.5 -196.5 Q195 -193 182 -188 Q170 -184 170 -170 L170 -127 Q170 -114 182 -119 Q193 -124 207.5 -127.5 Q222 -131 239 -131 Q256 -131 267 -125 Q278 -119 278 -108 Q278 -96 266.5 -89.5 Q255 -83 238 -83 Q219 -83 200 -90 L197 -87 L243 -4 Q199 4 160 24 Q121 44 92 75 Q63 106 45.5 148 Q28 190 28 241 Q28 301 50.5 347 Q73 393 111.5 424.5 Q150 456 200 472.5 Q250 489 304 489 Q339 489 371 484 Q403 479 424 470 Q437 465 437 450 L437 348 Q437 324 423 324 Q417 324 404 329 Q377 341 342 341 Q320 341 300 334 Q280 327 265 314 Q250 301 241.5 282 Q233 263 233 240 Q233 216 242 198 Q251 180 266 167.5 Q281 155 300.5 148.5 Q320 142 342 142 Q377 142 408 155 Z " />
<glyph glyph-name="d" unicode="d" horiz-adv-x="651" d="M581 746 Q597 746 597 730 L597 16 Q597 0 581 0 L419 0 Q403 0 403 16 L403 79 Q381 31 341 11 Q301 -9 259 -9 Q210 -9 168 10 Q126 29 95 62 Q64 95 46 141 Q28 187 28 241 Q28 295 45.5 341 Q63 387 94 420 Q125 453 167.5 471.5 Q210 490 259 490 Q302 490 341.5 471.5 Q381 453 403 408 L403 730 Q403 746 419 746 L581 746 Z M315 147 Q353 147 379 173 Q405 199 405 241 Q405 284 378.5 309 Q352 334 314 334 Q276 334 250 309 Q224 284 224 242 Q224 199 251 173 Q278 147 315 147 Z " />
<glyph glyph-name="eth" unicode="&#xf0;" horiz-adv-x="598" d="M402 632 Q444 596 475.5 554 Q507 512 527.5 468 Q548 424 558.5 378 Q569 332 569 289 Q569 220 548 164.5 Q527 109 490 70.5 Q453 32 402 11 Q351 -10 290 -10 Q239 -10 191.5 7.5 Q144 25 107.5 58 Q71 91 49.5 137 Q28 183 28 240 Q28 293 47 336.5 Q66 380 98.5 410.5 Q131 441 173 458 Q215 475 262 475 Q301 475 333 463.5 Q365 452 384 434 L388 436 Q365 473 335.5 507.5 Q306 542 269 574 L155 523 Q151 521 149 521 Q142 521 138 530 L129 548 Q127 552 127 554 Q127 560 136 565 L228 606 Q181 640 126 665 Q119 668 119 671 Q119 675 126 676 L245 715 Q251 717 257 717 Q267 717 275 713 Q322 692 360 664 L465 711 Q469 713 471 713 Q478 713 483 704 L492 687 Q494 681 494 679 Q494 674 486 670 L402 632 Z M300 140 Q344 140 370.5 168.5 Q397 197 397 239 Q397 281 370 309.5 Q343 338 299 338 Q255 338 227.5 309.5 Q200 281 200 239 Q200 197 228 168.5 Q256 140 300 140 Z " />
<glyph glyph-name="e" unicode="e" horiz-adv-x="564" d="M535 259 Q535 221 527 211 Q519 201 494 201 L222 201 Q236 169 267.5 152 Q299 135 347 135 Q373 135 400 138.5 Q427 142 449 148 Q473 155 487 161 Q501 167 507 167 Q517 167 517 153 L517 56 Q517 50 514.5 44 Q512 38 506 34 Q475 16 422 4 Q369 -8 312 -8 Q252 -8 200 10 Q148 28 110 61 Q72 94 50 139.5 Q28 185 28 241 Q28 298 50 344 Q72 390 109 422.5 Q146 455 195 472.5 Q244 490 297 490 Q342 490 385 476.5 Q428 463 461.5 435 Q495 407 515 363.5 Q535 320 535 259 Z M296 365 Q267 365 246.5 347 Q226 329 217 298 L369 298 Q364 324 346 344.5 Q328 365 296 365 Z " />
<glyph glyph-name="eacute" unicode="&#xe9;" horiz-adv-x="572" d="M535 259 Q535 221 527 211 Q519 201 494 201 L222 201 Q236 169 267.5 152 Q299 135 347 135 Q373 135 400 138.5 Q427 142 449 148 Q473 155 487 161 Q501 167 507 167 Q517 167 517 153 L517 56 Q517 50 514.5 44 Q512 38 506 34 Q475 16 422 4 Q369 -8 312 -8 Q252 -8 200 10 Q148 28 110 61 Q72 94 50 139.5 Q28 185 28 241 Q28 298 50 344 Q72 390 109 422.5 Q146 455 195 472.5 Q244 490 297 490 Q342 490 385 476.5 Q428 463 461.5 435 Q495 407 515 363.5 Q535 320 535 259 Z M296 365 Q267 365 246.5 347 Q226 329 217 298 L369 298 Q364 324 346 344.5 Q328 365 296 365 Z M220 552 Q204 552 210 567 L296 777 Q301 793 317 787 L450 748 Q461 745 461 737 Q461 732 457 728 L338 565 Q334 560 327.5 556 Q321 552 313 552 L220 552 L220 552 Z " />
<glyph glyph-name="ecircumflex" unicode="&#xea;" horiz-adv-x="572" d="M535 259 Q535 221 527 211 Q519 201 494 201 L222 201 Q236 169 267.5 152 Q299 135 347 135 Q373 135 400 138.5 Q427 142 449 148 Q473 155 487 161 Q501 167 507 167 Q517 167 517 153 L517 56 Q517 50 514.5 44 Q512 38 506 34 Q475 16 422 4 Q369 -8 312 -8 Q252 -8 200 10 Q148 28 110 61 Q72 94 50 139.5 Q28 185 28 241 Q28 298 50 344 Q72 390 109 422.5 Q146 455 195 472.5 Q244 490 297 490 Q342 490 385 476.5 Q428 463 461.5 435 Q495 407 515 363.5 Q535 320 535 259 Z M296 365 Q267 365 246.5 347 Q226 329 217 298 L369 298 Q364 324 346 344.5 Q328 365 296 365 Z M467 568 Q470 563 470 561 Q470 556 461 556 L369 556 Q363 556 358 558 Q353 560 348 567 L290 646 L234 567 Q228 556 214 556 L118 556 Q109 556 109 561 Q109 563 112 568 L222 742 Q228 753 242 753 L338 753 Q351 753 358 742 L467 568 L467 568 Z " />
<glyph glyph-name="edieresis" unicode="&#xeb;" horiz-adv-x="572" d="M535 259 Q535 221 527 211 Q519 201 494 201 L222 201 Q236 169 267.5 152 Q299 135 347 135 Q373 135 400 138.5 Q427 142 449 148 Q473 155 487 161 Q501 167 507 167 Q517 167 517 153 L517 56 Q517 50 514.5 44 Q512 38 506 34 Q475 16 422 4 Q369 -8 312 -8 Q252 -8 200 10 Q148 28 110 61 Q72 94 50 139.5 Q28 185 28 241 Q28 298 50 344 Q72 390 109 422.5 Q146 455 195 472.5 Q244 490 297 490 Q342 490 385 476.5 Q428 463 461.5 435 Q495 407 515 363.5 Q535 320 535 259 Z M296 365 Q267 365 246.5 347 Q226 329 217 298 L369 298 Q364 324 346 344.5 Q328 365 296 365 Z M193 593 Q161 593 141 614.5 Q121 636 121 665 Q121 695 141 716 Q161 737 193 737 Q224 737 244 716 Q264 695 264 665 Q264 636 244 614.5 Q224 593 193 593 Z M387 593 Q355 593 335 614.5 Q315 636 315 665 Q315 695 335 716 Q355 737 387 737 Q418 737 438 716 Q458 695 458 665 Q458 636 438 614.5 Q418 593 387 593 Z " />
<glyph glyph-name="egrave" unicode="&#xe8;" horiz-adv-x="572" d="M535 259 Q535 221 527 211 Q519 201 494 201 L222 201 Q236 169 267.5 152 Q299 135 347 135 Q373 135 400 138.5 Q427 142 449 148 Q473 155 487 161 Q501 167 507 167 Q517 167 517 153 L517 56 Q517 50 514.5 44 Q512 38 506 34 Q475 16 422 4 Q369 -8 312 -8 Q252 -8 200 10 Q148 28 110 61 Q72 94 50 139.5 Q28 185 28 241 Q28 298 50 344 Q72 390 109 422.5 Q146 455 195 472.5 Q244 490 297 490 Q342 490 385 476.5 Q428 463 461.5 435 Q495 407 515 363.5 Q535 320 535 259 Z M296 365 Q267 365 246.5 347 Q226 329 217 298 L369 298 Q364 324 346 344.5 Q328 365 296 365 Z M338 567 Q339 565 339 560 Q339 552 328 552 L235 552 Q219 552 210 565 L91 728 Q87 734 87 737 Q87 745 98 748 L231 787 Q233 788 237 788 Q248 788 252 777 L338 567 L338 567 Z " />
<glyph glyph-name="eogonek" unicode="&#x119;" horiz-adv-x="572" d="M535 259 Q535 221 527 211 Q519 201 494 201 L222 201 Q236 169 267.5 152 Q299 135 347 135 Q373 135 400 138.5 Q427 142 449 148 Q473 155 487 161 Q501 167 507 167 Q517 167 517 153 L517 56 Q517 50 514.5 44 Q512 38 506 34 Q467 11 399 0 Q351 -25 332 -46.5 Q313 -68 313 -88 Q313 -119 351 -119 Q360 -119 369.5 -117 Q379 -115 387 -113 Q389 -113 389.5 -112.5 Q390 -112 391 -112 Q400 -112 400 -124 L400 -171 Q400 -185 388 -189 Q363 -200 326 -200 Q267 -200 228.5 -174 Q190 -148 190 -100 Q190 -69 207.5 -45 Q225 -21 254 -3 Q205 5 163.5 26 Q122 47 92 78.5 Q62 110 45 151 Q28 192 28 241 Q28 298 50 344 Q72 390 109 422.5 Q146 455 195 472.5 Q244 490 297 490 Q342 490 385 476.5 Q428 463 461.5 435 Q495 407 515 363.5 Q535 320 535 259 Z M296 365 Q267 365 246.5 347 Q226 329 217 298 L369 298 Q364 324 346 344.5 Q328 365 296 365 Z " />
<glyph glyph-name="f" unicode="f" horiz-adv-x="436" d="M373 607 Q339 607 319.5 588 Q300 569 300 526 L300 480 L417 480 Q433 480 433 464 L433 366 Q433 350 417 350 L300 350 L300 16 Q300 0 284 0 L117 0 Q101 0 101 16 L101 350 L30 350 Q14 350 14 366 L14 464 Q14 480 30 480 L101 480 L101 540 Q101 644 155 700 Q209 756 315 756 Q345 756 372 752.5 Q399 749 420 743 Q426 741 430.5 735.5 Q435 730 435 722 L435 633 Q435 604 410 604 Q402 604 398 605 Q392 606 386 606.5 Q380 607 373 607 Z " />
<glyph glyph-name="g" unicode="g" horiz-adv-x="643" d="M575 480 Q591 480 591 464 L591 122 Q591 38 565 -22.5 Q539 -83 495 -122.5 Q451 -162 391.5 -181 Q332 -200 266 -200 Q212 -200 164 -192 Q116 -184 80 -164 Q66 -157 66 -140 L66 -39 Q66 -14 82 -14 Q88 -14 100 -19 Q136 -36 173 -44 Q210 -52 242 -52 Q303 -52 343.5 -22 Q384 8 384 71 L384 89 Q358 56 321.5 40 Q285 24 240 24 Q194 24 155.5 41.5 Q117 59 88.5 90 Q60 121 44 163.5 Q28 206 28 256 Q28 306 44 349 Q60 392 88.5 423 Q117 454 156 471.5 Q195 489 240 489 Q285 489 324.5 471 Q364 453 392 414 L393 414 L393 464 Q393 480 409 480 L575 480 Z M300 162 Q339 162 365 186.5 Q391 211 391 253 Q391 295 365 320 Q339 345 300 345 Q259 345 233.5 320 Q208 295 208 252 Q208 211 234 186.5 Q260 162 300 162 Z " />
<glyph glyph-name="h" unicode="h" horiz-adv-x="638" d="M402 490 Q443 490 477 479 Q511 468 535 444.5 Q559 421 572.5 384 Q586 347 586 296 L586 11 Q586 0 575 0 L398 0 Q387 0 387 11 L387 273 Q387 310 369 326 Q351 342 322 342 Q290 342 271.5 322 Q253 302 253 267 L253 11 Q253 0 242 0 L65 0 Q54 0 54 11 L54 735 Q54 746 65 746 L235 746 Q246 746 246 735 L246 415 Q295 490 402 490 Z " />
<glyph glyph-name="i" unicode="i" horiz-adv-x="308" d="M154 545 Q100 545 70.5 574.5 Q41 604 41 646 Q41 689 70.5 718.5 Q100 748 154 748 Q208 748 237.5 718.5 Q267 689 267 646 Q267 604 237.5 574.5 Q208 545 154 545 Z M71 0 Q55 0 55 16 L55 464 Q55 480 71 480 L238 480 Q254 480 254 464 L254 16 Q254 0 238 0 L71 0 Z " />
<glyph glyph-name="idotless" unicode="&#x131;" horiz-adv-x="329" d="M81 0 Q65 0 65 16 L65 464 Q65 480 81 480 L248 480 Q264 480 264 464 L264 16 Q264 0 248 0 L81 0 L81 0 Z " />
<glyph glyph-name="iacute" unicode="&#xed;" horiz-adv-x="329" d="M81 0 Q65 0 65 16 L65 464 Q65 480 81 480 L248 480 Q264 480 264 464 L264 16 Q264 0 248 0 L81 0 L81 0 Z M110 545 Q94 545 99 560 L169 769 Q171 775 176 778.5 Q181 782 189 780 L305 747 Q329 739 329 723 Q329 714 322 703 L232 559 Q225 545 208 545 L110 545 L110 545 Z " />
<glyph glyph-name="icircumflex" unicode="&#xee;" horiz-adv-x="329" d="M81 0 Q65 0 65 16 L65 464 Q65 480 81 480 L248 480 Q264 480 264 464 L264 16 Q264 0 248 0 L81 0 L81 0 Z M342 561 Q345 556 345 554 Q345 549 336 549 L244 549 Q238 549 233 551 Q228 553 223 560 L165 639 L109 560 Q103 549 89 549 L-7 549 Q-16 549 -16 554 Q-16 556 -13 561 L97 735 Q103 746 117 746 L213 746 Q226 746 233 735 L342 561 L342 561 Z " />
<glyph glyph-name="idieresis" unicode="&#xef;" horiz-adv-x="329" d="M81 0 Q65 0 65 16 L65 464 Q65 480 81 480 L248 480 Q264 480 264 464 L264 16 Q264 0 248 0 L81 0 L81 0 Z M68 586 Q36 586 16 607.5 Q-4 629 -4 658 Q-4 688 16 709 Q36 730 68 730 Q99 730 119 709 Q139 688 139 658 Q139 629 119 607.5 Q99 586 68 586 Z M262 586 Q230 586 210 607.5 Q190 629 190 658 Q190 688 210 709 Q230 730 262 730 Q293 730 313 709 Q333 688 333 658 Q333 629 313 607.5 Q293 586 262 586 Z " />
<glyph glyph-name="igrave" unicode="&#xec;" horiz-adv-x="329" d="M231 560 Q232 558 232 554 Q232 545 220 545 L122 545 Q115 545 108.5 548 Q102 551 98 559 L8 703 Q1 715 1 722 Q1 739 25 747 L141 780 Q143 780 143.5 780.5 Q144 781 146 781 Q151 781 155 778 Q159 775 161 769 L231 560 Z M81 0 Q65 0 65 16 L65 464 Q65 480 81 480 L248 480 Q264 480 264 464 L264 16 Q264 0 248 0 L81 0 Z " />
<glyph glyph-name="j" unicode="j" horiz-adv-x="311" d="M158 545 Q104 545 74.5 574.5 Q45 604 45 646 Q45 689 74.5 718.5 Q104 748 158 748 Q212 748 241.5 718.5 Q271 689 271 646 Q271 604 241.5 574.5 Q212 545 158 545 Z M49 -200 Q28 -200 6 -198 Q-16 -196 -33 -191 Q-39 -189 -43.5 -183.5 Q-48 -178 -48 -170 L-48 -56 Q-48 -42 -33 -46 Q-18 -53 3 -53 Q29 -53 43.5 -37.5 Q58 -22 58 4 L58 464 Q58 480 74 480 L241 480 Q257 480 257 464 L257 4 Q257 -98 203.5 -149 Q150 -200 49 -200 Z " />
<glyph glyph-name="k" unicode="k" horiz-adv-x="624" d="M622 13 Q625 8 625 6 Q625 0 615 0 L409 0 Q402 0 395.5 3 Q389 6 385 14 L251 237 L251 16 Q251 0 235 0 L68 0 Q52 0 52 16 L52 730 Q52 746 68 746 L235 746 Q251 746 251 730 L251 278 L378 467 Q382 472 388.5 476 Q395 480 403 480 L610 480 Q626 480 616 468 L442 259 L622 13 L622 13 Z " />
<glyph glyph-name="l" unicode="l" horiz-adv-x="358" d="M226 -10 Q145 -10 100 33.5 Q55 77 55 169 L55 730 Q55 746 71 746 L237 746 Q253 746 253 730 L253 195 Q253 167 265.5 155 Q278 143 298 143 Q312 143 329 148 Q335 150 336 150 Q345 150 345 138 L345 30 Q345 22 341.5 15.5 Q338 9 330 6 Q309 -2 280.5 -6 Q252 -10 226 -10 Z " />
<glyph glyph-name="lslash" unicode="&#x142;" horiz-adv-x="358" d="M329 148 Q335 150 336 150 Q345 150 345 138 L345 30 Q345 22 341.5 15.5 Q338 9 330 6 Q309 -2 280.5 -6 Q252 -10 226 -10 Q145 -10 100 33.5 Q55 77 55 169 L55 302 L12 286 Q10 285 6 285 Q-3 285 -3 296 L-3 357 Q-3 373 12 379 L55 395 L55 730 Q55 746 71 746 L237 746 Q253 746 253 730 L253 470 L307 491 Q311 493 313 493 Q322 493 322 481 L322 421 Q322 405 307 399 L253 378 L253 195 Q253 167 265.5 155 Q278 143 298 143 Q312 143 329 148 Z " />
<glyph glyph-name="m" unicode="m" horiz-adv-x="918" d="M686 490 Q725 490 758 480 Q791 470 815 447.5 Q839 425 852.5 389.5 Q866 354 866 304 L866 16 Q866 0 850 0 L683 0 Q667 0 667 16 L668 297 Q668 327 653 341.5 Q638 356 615 356 Q590 356 574.5 339.5 Q559 323 559 294 L559 16 Q559 0 543 0 L377 0 Q361 0 361 16 L361 297 Q361 327 346 341.5 Q331 356 308 356 Q283 356 268 339.5 Q253 323 253 294 L253 16 Q253 0 237 0 L70 0 Q54 0 54 16 L54 464 Q54 480 70 480 L220 480 Q236 480 236 464 L236 406 Q259 450 297.5 470 Q336 490 383 490 Q435 490 476 470.5 Q517 451 539 406 Q562 449 601 469.5 Q640 490 686 490 Z " />
<glyph glyph-name="n" unicode="n" horiz-adv-x="638" d="M398 490 Q484 490 534.5 441 Q585 392 585 292 L585 16 Q585 0 569 0 L403 0 Q387 0 387 16 L387 271 Q387 310 369 327.5 Q351 345 322 345 Q291 345 272 324.5 Q253 304 253 264 L253 16 Q253 0 237 0 L70 0 Q54 0 54 16 L54 464 Q54 480 70 480 L224 480 Q240 480 240 464 L240 407 Q288 490 398 490 Z " />
<glyph glyph-name="ntilde" unicode="&#xf1;" horiz-adv-x="633" d="M398 490 Q484 490 534.5 441 Q585 392 585 292 L585 16 Q585 0 569 0 L403 0 Q387 0 387 16 L387 271 Q387 310 369 327.5 Q351 345 322 345 Q291 345 272 324.5 Q253 304 253 264 L253 16 Q253 0 237 0 L70 0 Q54 0 54 16 L54 464 Q54 480 70 480 L224 480 Q240 480 240 464 L240 407 Q288 490 398 490 Z M392 549 Q368 549 348 559.5 Q328 570 311 581 Q297 591 284.5 599 Q272 607 259 607 Q229 607 223 564 Q222 559 220 556 Q218 553 211 553 L139 553 Q128 553 128 564 Q129 597 137 627.5 Q145 658 159.5 680.5 Q174 703 195.5 716.5 Q217 730 247 730 Q275 730 297.5 717 Q320 704 338 692 Q352 683 362.5 676.5 Q373 670 383 670 Q410 670 413 713 Q414 718 416 721 Q418 724 425 724 L501 724 Q512 724 512 713 Q510 679 501.5 649.5 Q493 620 477.5 597.5 Q462 575 440.5 562 Q419 549 392 549 Z " />
<glyph glyph-name="o" unicode="o" horiz-adv-x="596" d="M298 -10 Q242 -10 193 9.5 Q144 29 107.5 63 Q71 97 49.5 143 Q28 189 28 242 Q28 295 49.5 340.5 Q71 386 107.5 419 Q144 452 193 471 Q242 490 298 490 Q353 490 402.5 471 Q452 452 488.5 419 Q525 386 546.5 340.5 Q568 295 568 242 Q568 189 547.5 143 Q527 97 491 63 Q455 29 405.5 9.5 Q356 -10 298 -10 Z M299 146 Q337 146 363.5 172 Q390 198 390 240 Q390 283 363 308.5 Q336 334 298 334 Q260 334 233 308 Q206 282 206 241 Q206 198 233.5 172 Q261 146 299 146 Z " />
<glyph glyph-name="oacute" unicode="&#xf3;" horiz-adv-x="599" d="M298 -10 Q242 -10 193 9.5 Q144 29 107.5 63 Q71 97 49.5 143 Q28 189 28 242 Q28 295 49.5 340.5 Q71 386 107.5 419 Q144 452 193 471 Q242 490 298 490 Q353 490 402.5 471 Q452 452 488.5 419 Q525 386 546.5 340.5 Q568 295 568 242 Q568 189 547.5 143 Q527 97 491 63 Q455 29 405.5 9.5 Q356 -10 298 -10 Z M299 146 Q337 146 363.5 172 Q390 198 390 240 Q390 283 363 308.5 Q336 334 298 334 Q260 334 233 308 Q206 282 206 241 Q206 198 233.5 172 Q261 146 299 146 Z M228 545 Q212 545 218 560 L304 770 Q309 786 325 780 L458 741 Q469 738 469 730 Q469 725 465 721 L346 558 Q342 553 335.5 549 Q329 545 321 545 L228 545 L228 545 Z " />
<glyph glyph-name="ocircumflex" unicode="&#xf4;" horiz-adv-x="599" d="M298 -10 Q242 -10 193 9.5 Q144 29 107.5 63 Q71 97 49.5 143 Q28 189 28 242 Q28 295 49.5 340.5 Q71 386 107.5 419 Q144 452 193 471 Q242 490 298 490 Q353 490 402.5 471 Q452 452 488.5 419 Q525 386 546.5 340.5 Q568 295 568 242 Q568 189 547.5 143 Q527 97 491 63 Q455 29 405.5 9.5 Q356 -10 298 -10 Z M299 146 Q337 146 363.5 172 Q390 198 390 240 Q390 283 363 308.5 Q336 334 298 334 Q260 334 233 308 Q206 282 206 241 Q206 198 233.5 172 Q261 146 299 146 Z M475 561 Q478 556 478 554 Q478 549 469 549 L377 549 Q371 549 366 551 Q361 553 356 560 L298 639 L242 560 Q236 549 222 549 L126 549 Q117 549 117 554 Q117 556 120 561 L230 735 Q236 746 250 746 L346 746 Q359 746 366 735 L475 561 L475 561 Z " />
<glyph glyph-name="odieresis" unicode="&#xf6;" horiz-adv-x="599" d="M298 -10 Q242 -10 193 9.5 Q144 29 107.5 63 Q71 97 49.5 143 Q28 189 28 242 Q28 295 49.5 340.5 Q71 386 107.5 419 Q144 452 193 471 Q242 490 298 490 Q353 490 402.5 471 Q452 452 488.5 419 Q525 386 546.5 340.5 Q568 295 568 242 Q568 189 547.5 143 Q527 97 491 63 Q455 29 405.5 9.5 Q356 -10 298 -10 Z M299 146 Q337 146 363.5 172 Q390 198 390 240 Q390 283 363 308.5 Q336 334 298 334 Q260 334 233 308 Q206 282 206 241 Q206 198 233.5 172 Q261 146 299 146 Z M201 586 Q169 586 149 607.5 Q129 629 129 658 Q129 688 149 709 Q169 730 201 730 Q232 730 252 709 Q272 688 272 658 Q272 629 252 607.5 Q232 586 201 586 Z M395 586 Q363 586 343 607.5 Q323 629 323 658 Q323 688 343 709 Q363 730 395 730 Q426 730 446 709 Q466 688 466 658 Q466 629 446 607.5 Q426 586 395 586 Z " />
<glyph glyph-name="ograve" unicode="&#xf2;" horiz-adv-x="599" d="M298 -10 Q242 -10 193 9.5 Q144 29 107.5 63 Q71 97 49.5 143 Q28 189 28 242 Q28 295 49.5 340.5 Q71 386 107.5 419 Q144 452 193 471 Q242 490 298 490 Q353 490 402.5 471 Q452 452 488.5 419 Q525 386 546.5 340.5 Q568 295 568 242 Q568 189 547.5 143 Q527 97 491 63 Q455 29 405.5 9.5 Q356 -10 298 -10 Z M299 146 Q337 146 363.5 172 Q390 198 390 240 Q390 283 363 308.5 Q336 334 298 334 Q260 334 233 308 Q206 282 206 241 Q206 198 233.5 172 Q261 146 299 146 Z M346 560 Q347 558 347 553 Q347 545 336 545 L243 545 Q227 545 218 558 L99 721 Q95 727 95 730 Q95 738 106 741 L239 780 Q241 781 245 781 Q256 781 260 770 L346 560 L346 560 Z " />
<glyph glyph-name="oslash" unicode="&#xf8;" horiz-adv-x="605" d="M466 437 Q513 403 540.5 353 Q568 303 568 242 Q568 189 547.5 143 Q527 97 491 63 Q455 29 405.5 9.5 Q356 -10 298 -10 Q247 -10 199 7 L171 -37 Q167 -42 160.5 -46 Q154 -50 146 -50 L94 -50 Q78 -50 87 -37 L136 40 Q87 75 57.5 127 Q28 179 28 242 Q28 295 49.5 340.5 Q71 386 107.5 419 Q144 452 193 471 Q242 490 298 490 Q355 490 404 470 L435 519 Q439 524 445.5 528 Q452 532 460 532 L511 532 Q527 532 518 519 L466 437 Z M299 146 Q337 146 363.5 172 Q390 198 390 240 Q390 283 363 308.5 Q336 334 298 334 Q260 334 233 308 Q206 282 206 241 Q206 198 233.5 172 Q261 146 299 146 Z " />
<glyph glyph-name="otilde" unicode="&#xf5;" horiz-adv-x="599" d="M298 -10 Q242 -10 193 9.5 Q144 29 107.5 63 Q71 97 49.5 143 Q28 189 28 242 Q28 295 49.5 340.5 Q71 386 107.5 419 Q144 452 193 471 Q242 490 298 490 Q353 490 402.5 471 Q452 452 488.5 419 Q525 386 546.5 340.5 Q568 295 568 242 Q568 189 547.5 143 Q527 97 491 63 Q455 29 405.5 9.5 Q356 -10 298 -10 Z M299 146 Q337 146 363.5 172 Q390 198 390 240 Q390 283 363 308.5 Q336 334 298 334 Q260 334 233 308 Q206 282 206 241 Q206 198 233.5 172 Q261 146 299 146 Z M370 549 Q346 549 326 559.5 Q306 570 289 581 Q275 591 262.5 599 Q250 607 237 607 Q207 607 201 564 Q200 559 198 556 Q196 553 189 553 L117 553 Q106 553 106 564 Q107 597 115 627.5 Q123 658 137.5 680.5 Q152 703 173.5 716.5 Q195 730 225 730 Q253 730 275.5 717 Q298 704 316 692 Q330 683 340.5 676.5 Q351 670 361 670 Q388 670 391 713 Q392 718 394 721 Q396 724 403 724 L479 724 Q490 724 490 713 Q488 679 479.5 649.5 Q471 620 455.5 597.5 Q440 575 418.5 562 Q397 549 370 549 Z " />
<glyph glyph-name="oe" unicode="&#x153;" horiz-adv-x="924" d="M895 256 Q895 222 886.5 211 Q878 200 852 200 L600 200 Q611 168 638.5 148.5 Q666 129 719 129 Q761 129 802 138.5 Q843 148 870 160 Q876 162 877 162 Q884 162 884 152 L884 54 Q884 38 871 29 Q842 12 796 1 Q750 -10 699 -10 Q629 -10 568 19.5 Q507 49 476 109 Q450 52 395 21 Q340 -10 271 -10 Q221 -10 177 8.5 Q133 27 100 60.5 Q67 94 47.5 140.5 Q28 187 28 242 Q28 297 47.5 342.5 Q67 388 100.5 421 Q134 454 178.5 472 Q223 490 273 490 Q339 490 392.5 459 Q446 428 474 372 Q502 426 555 458 Q608 490 673 490 Q716 490 756 476 Q796 462 827 433 Q858 404 876.5 360 Q895 316 895 256 Z M670 361 Q644 361 625.5 344 Q607 327 599 298 L738 298 Q732 328 714 344.5 Q696 361 670 361 Z M288 146 Q328 146 350.5 174.5 Q373 203 373 241 Q373 279 350.5 306.5 Q328 334 288 334 Q246 334 224 306.5 Q202 279 202 241 Q202 203 224 174.5 Q246 146 288 146 Z " />
<glyph glyph-name="p" unicode="p" horiz-adv-x="646" d="M389 489 Q437 489 478.5 470 Q520 451 551 418 Q582 385 599.5 339.5 Q617 294 617 240 Q617 186 599.5 140.5 Q582 95 551 61.5 Q520 28 478 9.5 Q436 -9 387 -9 Q345 -9 307 8 Q269 25 246 67 L246 -173 Q246 -190 229 -190 L71 -190 Q54 -190 54 -173 L54 464 Q54 480 71 480 L226 480 Q243 480 243 464 L243 402 Q266 450 305.5 469.5 Q345 489 389 489 Z M333 146 Q371 146 397.5 171.5 Q424 197 424 239 Q424 282 397 307.5 Q370 333 332 333 Q295 333 268.5 307.5 Q242 282 242 239 Q242 197 268.5 171.5 Q295 146 333 146 Z " />
<glyph glyph-name="thorn" unicode="&#xfe;" horiz-adv-x="640" d="M385 489 Q435 489 476.5 470 Q518 451 548 418 Q578 385 594.5 339.5 Q611 294 611 240 Q611 186 594 140.5 Q577 95 547 61.5 Q517 28 475 9.5 Q433 -9 383 -9 Q296 -9 248 45 L248 -182 Q248 -198 232 -198 L70 -198 Q54 -198 54 -182 L54 729 Q54 745 70 745 L221 745 Q237 745 237 729 L237 419 Q288 489 385 489 Z M325 140 Q363 140 386 167 Q409 194 409 239 Q409 284 385.5 311.5 Q362 339 324 339 Q286 339 263 311.5 Q240 284 240 239 Q240 194 263 167 Q286 140 325 140 Z " />
<glyph glyph-name="q" unicode="q" horiz-adv-x="640" d="M569 480 Q586 480 586 464 L586 -173 Q586 -190 569 -190 L408 -190 Q392 -190 392 -173 L392 49 Q344 -9 255 -9 Q205 -9 163.5 9.5 Q122 28 92 61.5 Q62 95 45 140.5 Q28 186 28 240 Q28 294 44.5 339.5 Q61 385 90.5 418 Q120 451 161.5 470 Q203 489 253 489 Q352 489 402 415 L402 464 Q402 480 419 480 L569 480 Z M305 139 Q346 139 373 166.5 Q400 194 400 239 Q400 284 373 311 Q346 338 305 338 Q266 338 240 311 Q214 284 214 239 Q214 194 240 166.5 Q266 139 305 139 Z " />
<glyph glyph-name="r" unicode="r" horiz-adv-x="435" d="M401 489 Q415 489 415 474 L415 310 Q415 304 411.5 300 Q408 296 400 297 Q396 298 392 298 Q388 298 383 298 Q366 298 350 295 Q308 289 279 257.5 Q250 226 250 167 L250 16 Q250 0 234 0 L67 0 Q51 0 51 16 L51 464 Q51 480 67 480 L226 480 Q242 480 242 464 L242 357 L243 357 Q283 481 399 489 L401 489 Z " />
<glyph glyph-name="s" unicode="s" horiz-adv-x="488" d="M228 -8 Q181 -8 133.5 0 Q86 8 54 22 Q42 27 42 41 L42 156 Q42 167 48 167 Q51 167 56 164 Q92 145 137 135 Q182 125 218 125 Q238 125 249.5 131 Q261 137 261 149 Q261 162 246.5 167.5 Q232 173 191 184 Q155 193 126.5 204.5 Q98 216 77.5 233.5 Q57 251 46 274.5 Q35 298 35 331 Q35 371 53.5 400.5 Q72 430 103.5 450 Q135 470 178 480 Q221 490 271 490 Q308 490 346.5 485 Q385 480 417 470 Q429 467 429 453 L429 349 L429 346 Q429 338 422 338 Q417 338 415 339 Q389 349 354 356 Q319 363 290 363 Q238 363 238 338 Q238 325 252.5 320 Q267 315 307 304 Q340 295 368 284 Q396 273 416 256.5 Q436 240 447 216.5 Q458 193 458 160 Q458 123 442 92 Q426 61 396.5 39 Q367 17 324.5 4.5 Q282 -8 228 -8 Z " />
<glyph glyph-name="scaron" unicode="&#x161;" horiz-adv-x="478" d="M228 -8 Q181 -8 133.5 0 Q86 8 54 22 Q42 27 42 41 L42 156 Q42 167 48 167 Q51 167 56 164 Q92 145 137 135 Q182 125 218 125 Q238 125 249.5 131 Q261 137 261 149 Q261 162 246.5 167.5 Q232 173 191 184 Q155 193 126.5 204.5 Q98 216 77.5 233.5 Q57 251 46 274.5 Q35 298 35 331 Q35 371 53.5 400.5 Q72 430 103.5 450 Q135 470 178 480 Q221 490 271 490 Q308 490 346.5 485 Q385 480 417 470 Q429 467 429 453 L429 349 L429 346 Q429 338 422 338 Q417 338 415 339 Q389 349 354 356 Q319 363 290 363 Q238 363 238 338 Q238 325 252.5 320 Q267 315 307 304 Q340 295 368 284 Q396 273 416 256.5 Q436 240 447 216.5 Q458 193 458 160 Q458 123 442 92 Q426 61 396.5 39 Q367 17 324.5 4.5 Q282 -8 228 -8 Z M410 726 Q426 726 417 713 L313 549 Q307 538 293 538 L198 538 Q182 538 173 551 L69 713 Q66 717 66 720 Q66 726 76 726 L173 726 Q188 726 199 714 L247 657 L291 713 Q296 718 302.5 722 Q309 726 317 726 L410 726 L410 726 Z " />
<glyph glyph-name="germandbls" unicode="&#xdf;" horiz-adv-x="682" d="M454 -8 Q423 -8 384.5 -2 Q346 4 318 14 Q306 19 306 32 L306 129 Q306 150 319 150 Q326 150 334 146 Q355 137 375.5 132.5 Q396 128 412 128 Q438 128 452 139.5 Q466 151 466 171 Q466 198 444 215.5 Q422 233 393 253 Q372 267 356.5 279.5 Q341 292 330.5 305.5 Q320 319 315 335 Q310 351 310 371 Q310 398 320.5 420 Q331 442 351 471 Q364 491 374 509.5 Q384 528 384 550 Q384 575 366.5 589.5 Q349 604 323 604 Q293 604 273.5 584 Q254 564 254 518 L254 16 Q254 0 238 0 L71 0 Q55 0 55 16 L55 527 Q55 582 73 624.5 Q91 667 125 696.5 Q159 726 206.5 741 Q254 756 313 756 Q368 756 414.5 743 Q461 730 494.5 707 Q528 684 547 650.5 Q566 617 566 577 Q566 543 553 513.5 Q540 484 524 461 Q506 434 499 420.5 Q492 407 492 393 Q492 382 496.5 373.5 Q501 365 510 357 Q519 349 532 340.5 Q545 332 561 321 Q600 293 626 258 Q652 223 652 167 Q652 86 598.5 39 Q545 -8 454 -8 Z " />
<glyph glyph-name="t" unicode="t" horiz-adv-x="439" d="M372 144 Q376 145 384 145 Q395 145 402 139 Q409 133 409 116 L409 28 Q409 21 405.5 15 Q402 9 394 7 Q364 -1 333 -5.5 Q302 -10 275 -10 Q84 -10 84 183 L84 352 L18 352 Q2 352 2 368 L2 464 Q2 480 18 480 L84 480 L84 623 Q84 639 100 639 L266 639 Q282 639 282 623 L282 480 L392 480 Q408 480 408 464 L408 368 Q408 352 392 352 L282 352 L282 208 Q282 175 297.5 158.5 Q313 142 342 142 Q350 142 357.5 142.5 Q365 143 372 144 Z " />
<glyph glyph-name="u" unicode="u" horiz-adv-x="627" d="M557 480 Q573 480 573 464 L573 16 Q573 0 557 0 L410 0 Q394 0 393 16 L391 77 Q368 35 328.5 13 Q289 -9 235 -9 Q152 -9 102 40.5 Q52 90 52 188 L52 464 Q52 480 68 480 L235 480 Q251 480 251 464 L251 200 Q251 163 267 145 Q283 127 312 127 Q343 127 359 147.5 Q375 168 375 200 L375 464 Q375 480 391 480 L557 480 L557 480 Z " />
<glyph glyph-name="uacute" unicode="&#xfa;" horiz-adv-x="624" d="M557 480 Q573 480 573 464 L573 16 Q573 0 557 0 L410 0 Q394 0 393 16 L391 77 Q368 35 328.5 13 Q289 -9 235 -9 Q152 -9 102 40.5 Q52 90 52 188 L52 464 Q52 480 68 480 L235 480 Q251 480 251 464 L251 200 Q251 163 267 145 Q283 127 312 127 Q343 127 359 147.5 Q375 168 375 200 L375 464 Q375 480 391 480 L557 480 L557 480 Z M242 545 Q226 545 232 560 L318 770 Q323 786 339 780 L472 741 Q483 738 483 730 Q483 725 479 721 L360 558 Q356 553 349.5 549 Q343 545 335 545 L242 545 L242 545 Z " />
<glyph glyph-name="ucircumflex" unicode="&#xfb;" horiz-adv-x="624" d="M557 480 Q573 480 573 464 L573 16 Q573 0 557 0 L410 0 Q394 0 393 16 L391 77 Q368 35 328.5 13 Q289 -9 235 -9 Q152 -9 102 40.5 Q52 90 52 188 L52 464 Q52 480 68 480 L235 480 Q251 480 251 464 L251 200 Q251 163 267 145 Q283 127 312 127 Q343 127 359 147.5 Q375 168 375 200 L375 464 Q375 480 391 480 L557 480 L557 480 Z M489 561 Q492 556 492 554 Q492 549 483 549 L391 549 Q385 549 380 551 Q375 553 370 560 L312 639 L256 560 Q250 549 236 549 L140 549 Q131 549 131 554 Q131 556 134 561 L244 735 Q250 746 264 746 L360 746 Q373 746 380 735 L489 561 L489 561 Z " />
<glyph glyph-name="udieresis" unicode="&#xfc;" horiz-adv-x="624" d="M557 480 Q573 480 573 464 L573 16 Q573 0 557 0 L410 0 Q394 0 393 16 L391 77 Q368 35 328.5 13 Q289 -9 235 -9 Q152 -9 102 40.5 Q52 90 52 188 L52 464 Q52 480 68 480 L235 480 Q251 480 251 464 L251 200 Q251 163 267 145 Q283 127 312 127 Q343 127 359 147.5 Q375 168 375 200 L375 464 Q375 480 391 480 L557 480 L557 480 Z M215 586 Q183 586 163 607.5 Q143 629 143 658 Q143 688 163 709 Q183 730 215 730 Q246 730 266 709 Q286 688 286 658 Q286 629 266 607.5 Q246 586 215 586 Z M409 586 Q377 586 357 607.5 Q337 629 337 658 Q337 688 357 709 Q377 730 409 730 Q440 730 460 709 Q480 688 480 658 Q480 629 460 607.5 Q440 586 409 586 Z " />
<glyph glyph-name="ugrave" unicode="&#xf9;" horiz-adv-x="624" d="M557 480 Q573 480 573 464 L573 16 Q573 0 557 0 L410 0 Q394 0 393 16 L391 77 Q368 35 328.5 13 Q289 -9 235 -9 Q152 -9 102 40.5 Q52 90 52 188 L52 464 Q52 480 68 480 L235 480 Q251 480 251 464 L251 200 Q251 163 267 145 Q283 127 312 127 Q343 127 359 147.5 Q375 168 375 200 L375 464 Q375 480 391 480 L557 480 L557 480 Z M360 560 Q361 558 361 553 Q361 545 350 545 L257 545 Q241 545 232 558 L113 721 Q109 727 109 730 Q109 738 120 741 L253 780 Q255 781 259 781 Q270 781 274 770 L360 560 L360 560 Z " />
<glyph glyph-name="v" unicode="v" horiz-adv-x="582" d="M569 480 Q585 480 579 465 L383 15 Q378 0 361 0 L220 0 Q204 0 198 15 L3 465 Q2 467 2 472 Q2 480 13 480 L202 480 Q218 480 223 465 L296 240 L364 465 Q366 471 371.5 475.5 Q377 480 385 480 L569 480 L569 480 Z " />
<glyph glyph-name="w" unicode="w" horiz-adv-x="791" d="M779 480 Q794 480 790 465 L637 15 Q635 9 629.5 4.5 Q624 0 616 0 L482 0 Q466 0 462 15 L395 245 L328 15 Q326 9 321 4.5 Q316 0 308 0 L174 0 Q167 0 161 3.5 Q155 7 153 15 L-1 465 Q-2 467 -2 471 Q-2 480 10 480 L184 480 Q199 480 204 465 L256 261 L313 465 Q315 471 320 475.5 Q325 480 333 480 L464 480 Q479 480 485 465 L548 254 L595 464 Q599 480 615 480 L779 480 L779 480 Z " />
<glyph glyph-name="x" unicode="x" horiz-adv-x="604" d="M590 30 Q599 19 599 12 Q599 0 576 0 L381 0 Q374 0 367.5 3 Q361 6 357 14 L296 115 L232 14 Q223 0 207 0 L29 0 Q6 0 6 12 Q6 18 15 30 L191 239 L17 450 Q8 460 8 468 Q8 480 31 480 L220 480 Q227 480 233.5 477 Q240 474 244 466 L305 365 L368 466 Q375 480 392 480 L560 480 Q584 480 584 468 Q584 461 575 449 L412 243 L590 30 L590 30 Z " />
<glyph glyph-name="y" unicode="y" horiz-adv-x="584" d="M572 480 Q588 480 581 465 L375 3 Q326 -104 267 -152 Q208 -200 128 -200 Q99 -200 75.5 -196.5 Q52 -193 31 -184 Q16 -177 16 -161 L16 -48 Q16 -32 31 -38 Q77 -54 116 -54 Q150 -54 172.5 -37 Q195 -20 211 12 L-4 466 Q-6 470 -6 473 Q-6 480 5 480 L178 480 Q194 480 200 465 L292 219 L387 465 Q389 471 395 475.5 Q401 480 409 480 L572 480 L572 480 Z " />
<glyph glyph-name="yacute" unicode="&#xfd;" horiz-adv-x="584" d="M572 480 Q588 480 581 465 L375 3 Q326 -104 267 -152 Q208 -200 128 -200 Q99 -200 75.5 -196.5 Q52 -193 31 -184 Q16 -177 16 -161 L16 -48 Q16 -32 31 -38 Q77 -54 116 -54 Q150 -54 172.5 -37 Q195 -20 211 12 L-4 466 Q-6 470 -6 473 Q-6 480 5 480 L178 480 Q194 480 200 465 L292 219 L387 465 Q389 471 395 475.5 Q401 480 409 480 L572 480 L572 480 Z M216 545 Q200 545 206 560 L292 770 Q297 786 313 780 L446 741 Q457 738 457 730 Q457 725 453 721 L334 558 Q330 553 323.5 549 Q317 545 309 545 L216 545 L216 545 Z " />
<glyph glyph-name="ydieresis" unicode="&#xff;" horiz-adv-x="584" d="M572 480 Q588 480 581 465 L375 3 Q326 -104 267 -152 Q208 -200 128 -200 Q99 -200 75.5 -196.5 Q52 -193 31 -184 Q16 -177 16 -161 L16 -48 Q16 -32 31 -38 Q77 -54 116 -54 Q150 -54 172.5 -37 Q195 -20 211 12 L-4 466 Q-6 470 -6 473 Q-6 480 5 480 L178 480 Q194 480 200 465 L292 219 L387 465 Q389 471 395 475.5 Q401 480 409 480 L572 480 L572 480 Z M189 586 Q157 586 137 607.5 Q117 629 117 658 Q117 688 137 709 Q157 730 189 730 Q220 730 240 709 Q260 688 260 658 Q260 629 240 607.5 Q220 586 189 586 Z M383 586 Q351 586 331 607.5 Q311 629 311 658 Q311 688 331 709 Q351 730 383 730 Q414 730 434 709 Q454 688 454 658 Q454 629 434 607.5 Q414 586 383 586 Z " />
<glyph glyph-name="z" unicode="z" horiz-adv-x="505" d="M41 0 Q25 0 25 16 L25 46 Q25 61 34 75 L214 328 L54 328 Q38 328 38 344 L38 464 Q38 480 54 480 L455 480 Q471 480 471 464 L471 434 Q471 418 462 405 L281 152 L459 152 Q475 152 475 136 L475 16 Q475 0 459 0 L41 0 L41 0 Z " />
<glyph glyph-name="zcaron" unicode="&#x17e;" horiz-adv-x="523" d="M41 0 Q25 0 25 16 L25 46 Q25 61 34 75 L214 328 L54 328 Q38 328 38 344 L38 464 Q38 480 54 480 L455 480 Q471 480 471 464 L471 434 Q471 418 462 405 L281 152 L459 152 Q475 152 475 136 L475 16 Q475 0 459 0 L41 0 L41 0 Z M409 726 Q425 726 416 713 L312 549 Q306 538 292 538 L197 538 Q181 538 172 551 L68 713 Q65 717 65 720 Q65 726 75 726 L172 726 Q187 726 198 714 L246 657 L290 713 Q295 718 301.5 722 Q308 726 316 726 L409 726 L409 726 Z " />
<glyph glyph-name="fi" unicode="&#xfb01;" horiz-adv-x="743" d="M373 607 Q339 607 319.5 588 Q300 569 300 526 L300 480 L417 480 Q433 480 433 464 L433 366 Q433 350 417 350 L300 350 L300 16 Q300 0 284 0 L117 0 Q101 0 101 16 L101 350 L30 350 Q14 350 14 366 L14 464 Q14 480 30 480 L101 480 L101 540 Q101 644 155 700 Q209 756 315 756 Q345 756 372 752.5 Q399 749 420 743 Q426 741 430.5 735.5 Q435 730 435 722 L435 633 Q435 604 410 604 Q402 604 398 605 Q392 606 386 606.5 Q380 607 373 607 Z M590 545 Q536 545 506.5 574.5 Q477 604 477 646 Q477 689 506.5 718.5 Q536 748 590 748 Q644 748 673.5 718.5 Q703 689 703 646 Q703 604 673.5 574.5 Q644 545 590 545 Z M507 0 Q491 0 491 16 L491 464 Q491 480 507 480 L674 480 Q690 480 690 464 L690 16 Q690 0 674 0 L507 0 Z " />
<glyph glyph-name="fl" unicode="&#xfb02;" horiz-adv-x="794" d="M373 607 Q339 607 319.5 588 Q300 569 300 526 L300 480 L417 480 Q433 480 433 464 L433 366 Q433 350 417 350 L300 350 L300 16 Q300 0 284 0 L117 0 Q101 0 101 16 L101 350 L30 350 Q14 350 14 366 L14 464 Q14 480 30 480 L101 480 L101 540 Q101 644 155 700 Q209 756 315 756 Q345 756 372 752.5 Q399 749 420 743 Q426 741 430.5 735.5 Q435 730 435 722 L435 633 Q435 604 410 604 Q402 604 398 605 Q392 606 386 606.5 Q380 607 373 607 Z M662 -10 Q581 -10 536 33.5 Q491 77 491 169 L491 730 Q491 746 507 746 L673 746 Q689 746 689 730 L689 195 Q689 167 701.5 155 Q714 143 734 143 Q748 143 765 148 Q771 150 772 150 Q781 150 781 138 L781 30 Q781 22 777.5 15.5 Q774 9 766 6 Q745 -2 716.5 -6 Q688 -10 662 -10 Z " />
<glyph glyph-name="ordfeminine" unicode="&#xaa;" horiz-adv-x="573" d="M220 339 Q184 339 154 353.5 Q124 368 101.5 393.5 Q79 419 66.5 454 Q54 489 54 530 Q54 570 66.5 604.5 Q79 639 101.5 664.5 Q124 690 154 704 Q184 718 220 718 Q256 718 283 706.5 Q310 695 331 668 L331 697 Q331 710 344 710 L478 710 Q491 710 491 697 L491 359 Q491 346 478 346 L344 346 Q331 346 331 359 L331 394 Q290 339 220 339 Z M275 602 Q249 602 234 582 Q219 562 219 528 Q219 494 234.5 474.5 Q250 455 275 455 Q300 455 315.5 474.5 Q331 494 331 528 Q331 562 315.5 582 Q300 602 275 602 Z M491 276 Q507 276 507 260 L507 206 Q507 190 491 190 L78 190 Q62 190 62 206 L62 260 Q62 276 78 276 L491 276 Z " />
<glyph glyph-name="ordmasculine" unicode="&#xba;" horiz-adv-x="524" d="M262 354 Q217 354 179 367.5 Q141 381 113.5 406 Q86 431 70 464.5 Q54 498 54 539 Q54 580 69.5 613.5 Q85 647 113 670.5 Q141 694 179 707 Q217 720 262 720 Q307 720 345 707 Q383 694 410.5 670.5 Q438 647 454 613.5 Q470 580 470 539 Q470 498 454 464.5 Q438 431 410 406 Q382 381 344 367.5 Q306 354 262 354 Z M262 475 Q288 475 303.5 492.5 Q319 510 319 538 Q319 566 303 583 Q287 600 262 600 Q237 600 221.5 583 Q206 566 206 538 Q206 510 221.5 492.5 Q237 475 262 475 Z M81 208 Q68 208 68 221 L68 280 Q68 293 81 293 L444 293 Q457 293 457 280 L457 221 Q457 208 444 208 L81 208 Z " />
<glyph glyph-name="Delta" unicode="&#x394;" horiz-adv-x="634" d="M34 0 Q18 0 18 16 L18 70 Q18 84 23 101 L240 696 Q242 702 247.5 706.5 Q253 711 261 711 L373 711 Q389 711 394 696 L612 101 Q617 88 617 70 L617 16 Q617 0 601 0 L34 0 Z M424 136 L317 476 L210 136 L424 136 Z " />
<glyph glyph-name="Omega" unicode="&#x3a9;" horiz-adv-x="778" d="M40 0 Q24 0 24 16 L24 135 Q24 151 40 151 L184 151 L184 177 Q154 191 127 213 Q100 235 79.5 265 Q59 295 46.5 332 Q34 369 34 413 Q34 482 62 538.5 Q90 595 138.5 635.5 Q187 676 251.5 698.5 Q316 721 388 721 Q460 721 524 698.5 Q588 676 636.5 635.5 Q685 595 713 538.5 Q741 482 741 413 Q741 369 728.5 332 Q716 295 695.5 265 Q675 235 648 213 Q621 191 591 177 L591 151 L735 151 Q751 151 751 135 L751 16 Q751 0 735 0 L438 0 Q422 0 422 16 L422 166 Q422 181 436 191 Q484 223 511 270.5 Q538 318 538 379 Q538 416 527 447.5 Q516 479 496.5 501.5 Q477 524 449.5 537 Q422 550 388 550 Q354 550 326 537 Q298 524 278.5 501.5 Q259 479 248 447.5 Q237 416 237 379 Q237 318 264.5 270.5 Q292 223 340 190 Q354 183 354 166 L354 16 Q354 0 338 0 L40 0 L40 0 Z " />
<glyph glyph-name="mu" unicode="&#x3bc;" horiz-adv-x="629" d="M561 480 Q577 480 577 464 L577 16 Q577 0 561 0 L426 0 Q419 0 414 4 Q409 8 408 16 L402 57 L398 57 Q367 -9 300 -9 Q258 -9 232 13 L252 -174 L252 -177 Q252 -190 238 -190 L65 -190 Q49 -190 50 -174 L70 35 L56 464 L56 466 Q56 480 71 480 L238 480 Q254 480 254 464 L254 197 Q254 158 269 141 Q284 124 313 124 Q346 124 362.5 147.5 Q379 171 379 211 L379 464 Q379 480 395 480 L561 480 L561 480 Z " />
<glyph glyph-name="pi" unicode="&#x3c0;" horiz-adv-x="680" d="M628 147 Q630 148 635 148 Q644 148 644 136 L644 42 Q644 35 641.5 28 Q639 21 631 16 Q611 4 581.5 -3 Q552 -10 526 -10 Q491 -10 461 1 Q431 12 409.5 33.5 Q388 55 376 86 Q364 117 364 158 L364 346 L270 346 L270 16 Q270 0 254 0 L95 0 Q79 0 79 16 L79 346 L18 346 Q2 346 2 362 L2 464 Q2 480 18 480 L614 480 Q630 480 630 464 L630 362 Q630 346 614 346 L555 346 L555 195 Q555 166 567 154.5 Q579 143 599 143 Q616 143 628 147 Z " />
<glyph glyph-name="zero" unicode="0" horiz-adv-x="697" d="M348 -9 Q287 -9 231.5 14 Q176 37 134 83 Q92 129 67 197.5 Q42 266 42 356 Q42 446 67 514.5 Q92 583 134 628.5 Q176 674 231.5 697 Q287 720 348 720 Q409 720 464.5 697 Q520 674 562 628 Q604 582 629 514 Q654 446 654 356 Q654 266 629 197.5 Q604 129 562 83 Q520 37 464.5 14 Q409 -9 348 -9 Z M348 164 Q401 164 428 213 Q455 262 455 356 Q455 448 428 497.5 Q401 547 348 547 Q298 547 270.5 498 Q243 449 243 356 Q243 262 270.5 213 Q298 164 348 164 Z " />
<glyph glyph-name="one" unicode="1" horiz-adv-x="490" d="M364 711 Q380 711 380 695 L380 16 Q380 0 364 0 L197 0 Q181 0 181 16 L181 490 L59 440 Q57 439 52 439 Q44 439 44 450 L44 579 Q44 594 59 602 L286 704 Q302 711 317 711 L364 711 L364 711 Z " />
<glyph glyph-name="two" unicode="2" horiz-adv-x="582" d="M511 158 Q527 158 527 142 L527 16 Q527 0 511 0 L43 0 Q24 0 24 12 Q24 19 30 28 L210 285 Q246 336 270 377 Q294 418 294 460 Q294 506 262 533 Q230 560 171 560 Q145 560 122 554 Q99 548 83 541 Q63 531 59 531 Q51 531 51 544 L51 668 Q51 684 65 691 Q101 705 145 712.5 Q189 720 236 720 Q295 720 344 705.5 Q393 691 428 663 Q463 635 482 594.5 Q501 554 501 502 Q501 440 473.5 381.5 Q446 323 402 263 L326 158 L511 158 L511 158 Z " />
<glyph glyph-name="three" unicode="3" horiz-adv-x="569" d="M355 386 Q447 366 485.5 320 Q524 274 524 211 Q524 159 499.5 118 Q475 77 433 48.5 Q391 20 335.5 5 Q280 -10 218 -10 Q167 -10 126 -4 Q85 2 56 13 Q41 18 41 35 L41 160 Q41 175 56 171 Q84 161 114 156 Q144 151 181 151 Q239 151 274.5 170 Q310 189 310 222 Q310 292 169 292 L131 292 Q115 292 115 308 L115 424 Q115 440 131 440 L159 440 Q232 440 262 458 Q292 476 292 503 Q292 533 261.5 550 Q231 567 183 567 Q146 567 119 560.5 Q92 554 66 543 Q62 541 59 541 Q52 541 52 552 L52 677 Q52 693 67 698 Q97 708 138.5 714 Q180 720 223 720 Q285 720 334.5 707.5 Q384 695 418.5 672 Q453 649 471.5 617.5 Q490 586 490 548 Q490 494 459 452 Q428 410 355 386 Z " />
<glyph glyph-name="four" unicode="4" horiz-adv-x="609" d="M569 243 Q585 243 585 227 L585 113 Q585 97 569 97 L513 97 L513 16 Q513 0 497 0 L339 0 Q323 0 323 16 L323 97 L38 97 Q22 97 22 113 L22 226 Q22 241 31 255 L316 697 Q320 702 326.5 706 Q333 710 341 710 L497 710 Q513 710 513 694 L513 243 L569 243 Z M332 488 Q320 456 308.5 431 Q297 406 280 379 L199 244 L326 244 L326 370 Q326 393 329 426 Q332 459 337 488 L332 488 Z " />
<glyph glyph-name="five" unicode="5" horiz-adv-x="582" d="M266 461 Q324 461 374 447.5 Q424 434 461 407 Q498 380 519.5 339.5 Q541 299 541 244 Q541 184 514 137 Q487 90 442 57 Q397 24 339 7 Q281 -10 218 -10 Q171 -10 132 -3 Q93 4 65 15 Q50 22 50 38 L50 163 Q50 172 57 172 Q60 172 62 171 Q90 161 122.5 154.5 Q155 148 186 148 Q254 148 291.5 174.5 Q329 201 329 241 Q329 279 293.5 302.5 Q258 326 196 326 Q173 326 152 322.5 Q131 319 114 315 Q97 311 85.5 307.5 Q74 304 71 304 Q62 304 62 313 Q62 326 65 344 L113 694 Q115 710 131 710 L488 710 Q504 710 504 694 L504 573 Q504 557 488 557 L261 557 L248 461 L266 461 L266 461 Z " />
<glyph glyph-name="six" unicode="6" horiz-adv-x="623" d="M371 460 Q417 460 456.5 443.5 Q496 427 525 397 Q554 367 570.5 326.5 Q587 286 587 238 Q587 183 566 137.5 Q545 92 508 59 Q471 26 420 8 Q369 -10 310 -10 Q250 -10 200.5 9 Q151 28 115.5 61.5 Q80 95 61 140 Q42 185 42 237 Q42 298 63.5 354 Q85 410 126 464 L304 697 Q309 702 315.5 706 Q322 710 330 710 L509 710 Q519 710 519 705 Q519 703 515 697 L431 591 Q420 577 405 558 Q390 539 374 519 Q358 499 343.5 480 Q329 461 319 447 Q342 460 371 460 Z M315 150 Q353 150 380 174.5 Q407 199 407 239 Q407 282 380 306 Q353 330 314 330 Q276 330 249.5 305 Q223 280 223 238 Q223 198 249.5 174 Q276 150 315 150 Z " />
<glyph glyph-name="seven" unicode="7" horiz-adv-x="569" d="M551 710 Q565 710 565 700 Q565 694 563 691 L256 15 Q249 0 233 0 L62 0 Q49 0 49 10 Q49 15 51 18 L299 548 L52 548 Q36 548 36 564 L36 694 Q36 710 52 710 L551 710 L551 710 Z " />
<glyph glyph-name="eight" unicode="8" horiz-adv-x="617" d="M309 -9 Q256 -9 207.5 4.5 Q159 18 122 44.5 Q85 71 62.5 111 Q40 151 40 204 Q40 267 71 311.5 Q102 356 153 377 Q108 403 87 441 Q66 479 66 526 Q66 570 85 606 Q104 642 136.5 667.5 Q169 693 213.5 706.5 Q258 720 309 720 Q360 720 404 706.5 Q448 693 481 667.5 Q514 642 533 606 Q552 570 552 526 Q552 479 531 441 Q510 403 467 377 Q518 356 548.5 312 Q579 268 579 205 Q579 152 557 112 Q535 72 497.5 45 Q460 18 411 4.5 Q362 -9 309 -9 Z M309 436 Q338 436 357 456 Q376 476 376 508 Q376 541 357 559.5 Q338 578 309 578 Q281 578 262.5 559 Q244 540 244 508 Q244 476 262 456 Q280 436 309 436 Z M309 138 Q341 138 363 159.5 Q385 181 385 217 Q385 253 363 276 Q341 299 309 299 Q277 299 255.5 276 Q234 253 234 217 Q234 181 255 159.5 Q276 138 309 138 Z " />
<glyph glyph-name="nine" unicode="9" horiz-adv-x="623" d="M312 720 Q372 720 421.5 701 Q471 682 506.5 648.5 Q542 615 561 570 Q580 525 580 473 Q580 412 558.5 356 Q537 300 496 246 L318 13 Q313 8 306.5 4 Q300 0 292 0 L113 0 Q103 0 103 5 Q103 7 107 13 L191 119 Q202 133 217 152 Q232 171 248 191 Q264 211 278.5 230 Q293 249 303 263 Q280 250 251 250 Q205 250 165.5 266.5 Q126 283 97 313 Q68 343 51.5 383.5 Q35 424 35 472 Q35 527 56 572.5 Q77 618 114 651 Q151 684 202 702 Q253 720 312 720 Z M308 380 Q346 380 372.5 405 Q399 430 399 472 Q399 512 372.5 536 Q346 560 307 560 Q269 560 242 535.5 Q215 511 215 471 Q215 428 242 404 Q269 380 308 380 Z " />
<glyph glyph-name="onesuperior" unicode="&#xb9;" horiz-adv-x="353" d="M244 844 Q260 844 260 828 L260 448 Q260 432 244 432 L154 432 Q138 432 138 448 L138 713 L65 686 Q61 684 59 684 Q50 684 50 696 L50 761 Q50 776 64 784 L180 838 Q190 844 205 844 L244 844 L244 844 Z " />
<glyph glyph-name="twosuperior" unicode="&#xb2;" horiz-adv-x="385" d="M325 527 Q341 527 341 511 L341 448 Q341 432 325 432 L38 432 Q27 432 27 437 Q27 439 32 446 L149 596 Q172 625 187.5 648.5 Q203 672 203 697 Q203 723 182.5 738 Q162 753 127 753 Q95 753 61 740 Q57 738 54 738 Q47 738 47 749 L47 814 Q47 830 62 836 Q107 850 163 850 Q238 850 283 817.5 Q328 785 328 728 Q328 689 310 654.5 Q292 620 263 585 L214 527 L325 527 L325 527 Z " />
<glyph glyph-name="threesuperior" unicode="&#xb3;" horiz-adv-x="346" d="M220 656 Q277 645 301 618.5 Q325 592 325 555 Q325 525 310 501 Q295 477 269 460.5 Q243 444 208.5 435 Q174 426 135 426 Q106 426 81.5 429.5 Q57 433 39 438 Q24 441 24 459 L24 517 Q24 532 39 529 Q56 524 73 521.5 Q90 519 111 519 Q148 519 170.5 530.5 Q193 542 193 562 Q193 603 105 603 L88 603 Q72 603 72 619 L72 670 Q72 686 88 686 L98 686 Q145 686 164 697 Q183 708 183 725 Q183 742 163.5 752.5 Q144 763 114 763 Q93 763 76.5 760.5 Q60 758 46 753 Q44 753 43.5 752.5 Q43 752 41 752 Q31 752 31 764 L31 819 Q31 835 46 840 Q65 845 89 847.5 Q113 850 138 850 Q216 850 260 823 Q304 796 304 751 Q304 719 284.5 694.5 Q265 670 220 656 Z " />
<glyph glyph-name="fraction" unicode="&#x2044;" horiz-adv-x="112" d="M-230 2 Q-237 7 -237 14 Q-237 19 -234 24 L282 725 Q286 732 295 732 Q302 732 305 730 L333 711 Q341 706 341 699 Q341 694 338 690 L-179 -12 Q-184 -19 -191 -19 Q-197 -19 -201 -16 L-230 2 L-230 2 Z " />
<glyph glyph-name="onehalf" unicode="&#xbd;" horiz-adv-x="869" d="M244 714 Q260 714 260 698 L260 318 Q260 302 244 302 L154 302 Q138 302 138 318 L138 583 L65 556 Q61 554 59 554 Q50 554 50 566 L50 631 Q50 646 64 654 L180 708 Q190 714 205 714 L244 714 L244 714 Z M142 2 Q135 7 135 14 Q135 19 138 24 L654 725 Q658 732 667 732 Q674 732 677 730 L705 711 Q713 706 713 699 Q713 694 710 690 L193 -12 Q188 -19 181 -19 Q175 -19 171 -16 L142 2 L142 2 Z M809 95 Q825 95 825 79 L825 16 Q825 0 809 0 L522 0 Q511 0 511 5 Q511 7 516 14 L633 164 Q656 193 671.5 216.5 Q687 240 687 265 Q687 291 666.5 306 Q646 321 611 321 Q579 321 545 308 Q541 306 538 306 Q531 306 531 317 L531 382 Q531 398 546 404 Q591 418 647 418 Q722 418 767 385.5 Q812 353 812 296 Q812 257 794 222.5 Q776 188 747 153 L698 95 L809 95 L809 95 Z " />
<glyph glyph-name="onequarter" unicode="&#xbc;" horiz-adv-x="788" d="M244 714 Q260 714 260 698 L260 318 Q260 302 244 302 L154 302 Q138 302 138 318 L138 583 L65 556 Q61 554 59 554 Q50 554 50 566 L50 631 Q50 646 64 654 L180 708 Q190 714 205 714 L244 714 L244 714 Z M142 2 Q135 7 135 14 Q135 19 138 24 L654 725 Q658 732 667 732 Q674 732 677 730 L705 711 Q713 706 713 699 Q713 694 710 690 L193 -12 Q188 -19 181 -19 Q175 -19 171 -16 L142 2 L142 2 Z M753 139 Q769 139 769 123 L769 70 Q769 54 753 54 L720 54 L720 16 Q720 0 704 0 L625 0 Q609 0 609 16 L609 54 L436 54 Q423 54 423 67 L423 129 Q423 140 430 153 L601 401 Q607 412 621 412 L704 412 Q720 412 720 396 L720 139 L753 139 Z M521 140 L612 140 L613 266 L612 266 L521 140 Z " />
<glyph glyph-name="threequarters" unicode="&#xbe;" horiz-adv-x="761" d="M220 526 Q277 515 301 488.5 Q325 462 325 425 Q325 395 310 371 Q295 347 269 330.5 Q243 314 208.5 305 Q174 296 135 296 Q106 296 81.5 299.5 Q57 303 39 308 Q24 311 24 329 L24 387 Q24 402 39 399 Q56 394 73 391.5 Q90 389 111 389 Q148 389 170.5 400.5 Q193 412 193 432 Q193 473 105 473 L88 473 Q72 473 72 489 L72 540 Q72 556 88 556 L98 556 Q145 556 164 567 Q183 578 183 595 Q183 612 163.5 622.5 Q144 633 114 633 Q93 633 76.5 630.5 Q60 628 46 623 Q44 623 43.5 622.5 Q43 622 41 622 Q31 622 31 634 L31 689 Q31 705 46 710 Q65 715 89 717.5 Q113 720 138 720 Q216 720 260 693 Q304 666 304 621 Q304 589 284.5 564.5 Q265 540 220 526 Z M118 4 Q111 9 111 16 Q111 21 114 26 L630 727 Q634 734 643 734 Q650 734 653 732 L681 713 Q689 708 689 701 Q689 696 686 692 L169 -10 Q164 -17 157 -17 Q151 -17 147 -14 L118 4 L118 4 Z M726 139 Q742 139 742 123 L742 70 Q742 54 726 54 L693 54 L693 16 Q693 0 677 0 L598 0 Q582 0 582 16 L582 54 L409 54 Q396 54 396 67 L396 129 Q396 140 403 153 L574 401 Q580 412 594 412 L677 412 Q693 412 693 396 L693 139 L726 139 Z M494 140 L585 140 L586 266 L585 266 L494 140 Z " />
<glyph glyph-name="oneeighth" unicode="&#x215b;" horiz-adv-x="867" d="M244 714 Q260 714 260 698 L260 318 Q260 302 244 302 L154 302 Q138 302 138 318 L138 583 L65 556 Q61 554 59 554 Q50 554 50 566 L50 631 Q50 646 64 654 L180 708 Q190 714 205 714 L244 714 L244 714 Z M142 2 Q135 7 135 14 Q135 19 138 24 L654 725 Q658 732 667 732 Q674 732 677 730 L705 711 Q713 706 713 699 Q713 694 710 690 L193 -12 Q188 -19 181 -19 Q175 -19 171 -16 L142 2 L142 2 Z M677 -5 Q644 -5 614.5 2.5 Q585 10 562.5 26 Q540 42 526.5 65 Q513 88 513 120 Q513 157 534 182 Q555 207 589 219 Q530 249 530 308 Q530 333 541.5 353.5 Q553 374 573 388 Q593 402 619.5 410 Q646 418 677 418 Q708 418 735 410 Q762 402 781.5 388 Q801 374 812.5 353.5 Q824 333 824 308 Q824 249 765 219 Q799 207 820 182 Q841 157 841 120 Q841 88 827.5 65 Q814 42 791.5 26 Q769 10 739.5 2.5 Q710 -5 677 -5 Z M677 250 Q697 250 710 262.5 Q723 275 723 296 Q723 316 710 327 Q697 338 677 338 Q657 338 643.5 327 Q630 316 630 296 Q630 275 643 262.5 Q656 250 677 250 Z M677 76 Q700 76 716 89.5 Q732 103 732 126 Q732 149 716 162.5 Q700 176 677 176 Q654 176 638 162.5 Q622 149 622 126 Q622 103 637.5 89.5 Q653 76 677 76 Z " />
<glyph glyph-name="threeeighths" unicode="&#x215c;" horiz-adv-x="840" d="M220 526 Q277 515 301 488.5 Q325 462 325 425 Q325 395 310 371 Q295 347 269 330.5 Q243 314 208.5 305 Q174 296 135 296 Q106 296 81.5 299.5 Q57 303 39 308 Q24 311 24 329 L24 387 Q24 402 39 399 Q56 394 73 391.5 Q90 389 111 389 Q148 389 170.5 400.5 Q193 412 193 432 Q193 473 105 473 L88 473 Q72 473 72 489 L72 540 Q72 556 88 556 L98 556 Q145 556 164 567 Q183 578 183 595 Q183 612 163.5 622.5 Q144 633 114 633 Q93 633 76.5 630.5 Q60 628 46 623 Q44 623 43.5 622.5 Q43 622 41 622 Q31 622 31 634 L31 689 Q31 705 46 710 Q65 715 89 717.5 Q113 720 138 720 Q216 720 260 693 Q304 666 304 621 Q304 589 284.5 564.5 Q265 540 220 526 Z M116 2 Q109 7 109 14 Q109 19 112 24 L628 725 Q632 732 641 732 Q648 732 651 730 L679 711 Q687 706 687 699 Q687 694 684 690 L167 -12 Q162 -19 155 -19 Q149 -19 145 -16 L116 2 L116 2 Z M651 -5 Q618 -5 588.5 2.5 Q559 10 536.5 26 Q514 42 500.5 65 Q487 88 487 120 Q487 157 508 182 Q529 207 563 219 Q504 249 504 308 Q504 333 515.5 353.5 Q527 374 547 388 Q567 402 593.5 410 Q620 418 651 418 Q682 418 709 410 Q736 402 755.5 388 Q775 374 786.5 353.5 Q798 333 798 308 Q798 249 739 219 Q773 207 794 182 Q815 157 815 120 Q815 88 801.5 65 Q788 42 765.5 26 Q743 10 713.5 2.5 Q684 -5 651 -5 Z M651 250 Q671 250 684 262.5 Q697 275 697 296 Q697 316 684 327 Q671 338 651 338 Q631 338 617.5 327 Q604 316 604 296 Q604 275 617 262.5 Q630 250 651 250 Z M651 76 Q674 76 690 89.5 Q706 103 706 126 Q706 149 690 162.5 Q674 176 651 176 Q628 176 612 162.5 Q596 149 596 126 Q596 103 611.5 89.5 Q627 76 651 76 Z " />
<glyph glyph-name="fiveeighths" unicode="&#x215d;" horiz-adv-x="879" d="M181 570 Q215 570 245 562.5 Q275 555 297 539 Q319 523 332 499.5 Q345 476 345 443 Q345 409 329 381.5 Q313 354 286.5 335 Q260 316 226 306 Q192 296 157 296 Q128 296 105 299.5 Q82 303 65 309 Q50 314 50 331 L50 391 Q50 406 65 402 Q81 397 97.5 394.5 Q114 392 130 392 Q171 392 193 407 Q215 422 215 442 Q215 462 194 475 Q173 488 136 488 Q120 488 103.5 485.5 Q87 483 71 478 Q69 477 65 477 Q57 477 58 488 L83 698 Q85 714 101 714 L306 714 Q322 714 322 698 L322 637 Q322 621 306 621 L177 621 L171 570 L181 570 L181 570 Z M154 2 Q147 7 147 14 Q147 19 150 24 L666 725 Q670 732 679 732 Q686 732 689 730 L717 711 Q725 706 725 699 Q725 694 722 690 L205 -12 Q200 -19 193 -19 Q187 -19 183 -16 L154 2 L154 2 Z M689 -5 Q656 -5 626.5 2.5 Q597 10 574.5 26 Q552 42 538.5 65 Q525 88 525 120 Q525 157 546 182 Q567 207 601 219 Q542 249 542 308 Q542 333 553.5 353.5 Q565 374 585 388 Q605 402 631.5 410 Q658 418 689 418 Q720 418 747 410 Q774 402 793.5 388 Q813 374 824.5 353.5 Q836 333 836 308 Q836 249 777 219 Q811 207 832 182 Q853 157 853 120 Q853 88 839.5 65 Q826 42 803.5 26 Q781 10 751.5 2.5 Q722 -5 689 -5 Z M689 250 Q709 250 722 262.5 Q735 275 735 296 Q735 316 722 327 Q709 338 689 338 Q669 338 655.5 327 Q642 316 642 296 Q642 275 655 262.5 Q668 250 689 250 Z M689 76 Q712 76 728 89.5 Q744 103 744 126 Q744 149 728 162.5 Q712 176 689 176 Q666 176 650 162.5 Q634 149 634 126 Q634 103 649.5 89.5 Q665 76 689 76 Z " />
<glyph glyph-name="seveneighths" unicode="&#x215e;" horiz-adv-x="830" d="M347 714 Q354 714 357 710.5 Q360 707 356 700 L175 316 Q168 302 152 302 L61 302 Q45 302 52 316 L201 615 L54 615 Q38 615 38 631 L38 698 Q38 714 54 714 L347 714 L347 714 Z M105 2 Q98 7 98 14 Q98 19 101 24 L617 725 Q621 732 630 732 Q637 732 640 730 L668 711 Q676 706 676 699 Q676 694 673 690 L156 -12 Q151 -19 144 -19 Q138 -19 134 -16 L105 2 L105 2 Z M640 -5 Q607 -5 577.5 2.5 Q548 10 525.5 26 Q503 42 489.5 65 Q476 88 476 120 Q476 157 497 182 Q518 207 552 219 Q493 249 493 308 Q493 333 504.5 353.5 Q516 374 536 388 Q556 402 582.5 410 Q609 418 640 418 Q671 418 698 410 Q725 402 744.5 388 Q764 374 775.5 353.5 Q787 333 787 308 Q787 249 728 219 Q762 207 783 182 Q804 157 804 120 Q804 88 790.5 65 Q777 42 754.5 26 Q732 10 702.5 2.5 Q673 -5 640 -5 Z M640 250 Q660 250 673 262.5 Q686 275 686 296 Q686 316 673 327 Q660 338 640 338 Q620 338 606.5 327 Q593 316 593 296 Q593 275 606 262.5 Q619 250 640 250 Z M640 76 Q663 76 679 89.5 Q695 103 695 126 Q695 149 679 162.5 Q663 176 640 176 Q617 176 601 162.5 Q585 149 585 126 Q585 103 600.5 89.5 Q616 76 640 76 Z " />
<glyph glyph-name="asterisk" unicode="&#x2a;" horiz-adv-x="488" d="M457 515 Q457 513 457.5 512 Q458 511 458 509 Q458 500 446 497 L393 489 Q378 486 362 487 L293 489 L350 450 Q364 441 374 430 L411 392 Q416 387 416 382 Q416 375 409 371 L320 306 Q314 302 310 302 Q303 302 299 311 L275 358 Q272 364 268.5 371.5 Q265 379 263 387 L244 454 L225 387 Q223 381 220 373 Q217 365 213 358 L188 311 Q183 303 177 303 Q172 303 168 306 L78 372 Q71 377 71 382 Q71 387 76 392 L113 430 Q118 435 124.5 440 Q131 445 138 450 L194 488 L126 486 Q119 486 111 486 Q103 486 95 488 L43 497 Q36 499 32.5 503 Q29 507 32 515 L66 621 Q68 627 73 630 Q78 633 85 629 L133 605 Q147 598 160 588 L214 546 L190 611 Q188 617 186 625.5 Q184 634 183 642 L175 694 L175 697 Q175 710 189 710 L300 710 Q315 710 314 694 L305 642 Q304 635 302 627 Q300 619 298 611 L274 547 L328 588 Q334 593 341 597 Q348 601 355 605 L403 629 Q407 631 410 631 Q419 631 422 620 L457 515 L457 515 Z " />
<glyph glyph-name="backslash" unicode="&#x5c;" horiz-adv-x="384" d="M408 -116 Q409 -118 409 -122 Q409 -131 397 -131 L298 -131 Q291 -131 285 -127.5 Q279 -124 277 -116 L-27 776 Q-28 778 -28 782 Q-28 791 -16 791 L82 791 Q98 791 103 776 L408 -116 L408 -116 Z " />
<glyph glyph-name="periodcentered" unicode="&#xb7;" horiz-adv-x="295" d="M148 152 Q104 152 76.5 181 Q49 210 49 252 Q49 294 76.5 323 Q104 352 148 352 Q169 352 187.5 344 Q206 336 219 322.5 Q232 309 239.5 291 Q247 273 247 252 Q247 231 239.5 213 Q232 195 219 181.5 Q206 168 187.5 160 Q169 152 148 152 Z " />
<glyph glyph-name="bullet" unicode="&#x2022;" horiz-adv-x="394" d="M198 87 Q165 87 138 99 Q111 111 91.5 131.5 Q72 152 61 179 Q50 206 50 237 Q50 268 61 295.5 Q72 323 91.5 343 Q111 363 138 375 Q165 387 198 387 Q230 387 257.5 375 Q285 363 305 343 Q325 323 336 295.5 Q347 268 347 237 Q347 206 336 179 Q325 152 305 131.5 Q285 111 257.5 99 Q230 87 198 87 Z " />
<glyph glyph-name="colon" unicode="&#x3a;" horiz-adv-x="280" d="M141 287 Q121 287 104 294.5 Q87 302 75 314.5 Q63 327 56 344 Q49 361 49 380 Q49 399 56 416 Q63 433 75 445.5 Q87 458 104 465.5 Q121 473 141 473 Q161 473 178 465.5 Q195 458 207.5 445.5 Q220 433 227 416 Q234 399 234 380 Q234 361 227 344 Q220 327 207.5 314.5 Q195 302 178 294.5 Q161 287 141 287 Z M141 -8 Q121 -8 104 -0.5 Q87 7 75 19.5 Q63 32 56 49 Q49 66 49 85 Q49 104 56 121 Q63 138 75 150.5 Q87 163 104 170.5 Q121 178 141 178 Q161 178 178 170.5 Q195 163 207.5 150.5 Q220 138 227 121 Q234 104 234 85 Q234 66 227 49 Q220 32 207.5 19.5 Q195 7 178 -0.5 Q161 -8 141 -8 Z " />
<glyph glyph-name="comma" unicode="&#x2c;" horiz-adv-x="303" d="M149 192 Q171 192 190 184 Q209 176 223 162.5 Q237 149 245.5 129.5 Q254 110 254 88 Q254 60 243 35 Q232 10 216 -21 L141 -170 Q133 -186 117 -186 L91 -186 Q74 -186 74 -173 Q74 -168 75 -165 L122 -4 Q90 5 69.5 30.5 Q49 56 49 89 Q49 111 57 130 Q65 149 79 162.5 Q93 176 111 184 Q129 192 149 192 Z " />
<glyph glyph-name="ellipsis" unicode="&#x2026;" horiz-adv-x="846" d="M148 -8 Q104 -8 76.5 21 Q49 50 49 92 Q49 134 76.5 163 Q104 192 148 192 Q169 192 187.5 184 Q206 176 219 162.5 Q232 149 239.5 131 Q247 113 247 92 Q247 71 239.5 53 Q232 35 219 21.5 Q206 8 187.5 0 Q169 -8 148 -8 Z M424 -8 Q380 -8 352.5 21 Q325 50 325 92 Q325 134 352.5 163 Q380 192 424 192 Q445 192 463.5 184 Q482 176 495 162.5 Q508 149 515.5 131 Q523 113 523 92 Q523 71 515.5 53 Q508 35 495 21.5 Q482 8 463.5 0 Q445 -8 424 -8 Z M699 -8 Q655 -8 627.5 21 Q600 50 600 92 Q600 134 627.5 163 Q655 192 699 192 Q720 192 738.5 184 Q757 176 770 162.5 Q783 149 790.5 131 Q798 113 798 92 Q798 71 790.5 53 Q783 35 770 21.5 Q757 8 738.5 0 Q720 -8 699 -8 Z " />
<glyph glyph-name="exclam" unicode="&#x21;" horiz-adv-x="320" d="M109 251 Q93 251 92 267 L54 694 Q54 710 69 710 L251 710 Q267 710 266 694 L228 267 Q228 251 211 251 L109 251 Z M160 -9 Q116 -9 88.5 20 Q61 49 61 91 Q61 133 88.5 162 Q116 191 160 191 Q181 191 199.5 183 Q218 175 231 161.5 Q244 148 251.5 130 Q259 112 259 91 Q259 70 251.5 52 Q244 34 231 20.5 Q218 7 199.5 -1 Q181 -9 160 -9 Z " />
<glyph glyph-name="exclamdown" unicode="&#xa1;" horiz-adv-x="320" d="M160 720 Q181 720 199.5 712 Q218 704 231 690.5 Q244 677 251.5 659 Q259 641 259 620 Q259 599 251.5 581 Q244 563 231 549.5 Q218 536 199.5 528 Q181 520 160 520 Q116 520 88.5 549 Q61 578 61 620 Q61 662 88.5 691 Q116 720 160 720 Z M92 444 Q92 460 109 460 L211 460 Q227 460 228 444 L266 17 Q266 1 251 1 L69 1 Q53 1 54 17 L92 444 Z " />
<glyph glyph-name="numbersign" unicode="&#x23;" horiz-adv-x="664" d="M636 520 Q652 520 652 504 L652 430 Q652 419 641 419 L524 419 L499 280 L617 280 Q628 280 628 269 L628 192 Q628 179 615 179 L481 179 L452 16 Q448 0 433 0 L343 0 Q333 0 334 11 L364 179 L236 179 L206 13 Q204 0 191 0 L104 0 Q88 0 91 16 L120 179 L39 179 Q23 179 23 195 L23 264 Q23 280 39 280 L138 280 L163 419 L60 419 Q47 419 47 432 L47 504 Q47 520 63 520 L181 520 L212 694 Q216 710 231 710 L320 710 Q330 710 329 699 L297 520 L425 520 L457 697 Q459 710 472 710 L560 710 Q576 710 573 694 L542 520 L636 520 Z M407 419 L279 419 L254 280 L382 280 L407 419 Z " />
<glyph glyph-name="period" unicode="&#x2e;" horiz-adv-x="295" d="M148 -8 Q104 -8 76.5 21 Q49 50 49 92 Q49 134 76.5 163 Q104 192 148 192 Q169 192 187.5 184 Q206 176 219 162.5 Q232 149 239.5 131 Q247 113 247 92 Q247 71 239.5 53 Q232 35 219 21.5 Q206 8 187.5 0 Q169 -8 148 -8 Z " />
<glyph glyph-name="question" unicode="&#x3f;" horiz-adv-x="495" d="M152 223 Q139 223 130.5 230 Q122 237 121 252 L112 359 L112 361 Q112 371 124 376 Q191 398 228 423 Q265 448 265 490 Q265 531 229.5 552.5 Q194 574 139 574 Q118 574 98 571.5 Q78 569 61 564 Q52 561 45 561 Q24 561 24 589 L24 653 Q24 670 32.5 685 Q41 700 61 705 Q89 713 122.5 716.5 Q156 720 192 720 Q255 720 305 705 Q355 690 389.5 663 Q424 636 442.5 598.5 Q461 561 461 516 Q461 471 443.5 436.5 Q426 402 398.5 376 Q371 350 337 331.5 Q303 313 269 300 L265 252 Q263 239 255.5 231 Q248 223 233 223 L152 223 Z M189 -8 Q144 -8 115 18 Q86 44 86 82 Q86 119 115 145 Q144 171 189 171 Q234 171 263 145 Q292 119 292 82 Q292 44 263 18 Q234 -8 189 -8 Z " />
<glyph glyph-name="questiondown" unicode="&#xbf;" horiz-adv-x="495" d="M306 720 Q351 720 380 694 Q409 668 409 630 Q409 593 380 567 Q351 541 306 541 Q261 541 232 567 Q203 593 203 630 Q203 668 232 694 Q261 720 306 720 Z M343 489 Q356 489 364.5 482 Q373 475 374 460 L383 353 L383 351 Q383 340 371 336 Q304 314 267 289 Q230 264 230 222 Q230 181 265.5 159.5 Q301 138 356 138 Q377 138 397 140.5 Q417 143 434 148 Q443 151 450 151 Q471 151 471 123 L471 59 Q471 42 462.5 27 Q454 12 434 7 Q406 -1 372.5 -4.5 Q339 -8 303 -8 Q240 -8 190 7 Q140 22 105.5 49 Q71 76 52.5 113.5 Q34 151 34 196 Q34 241 51.5 275.5 Q69 310 96.5 336 Q124 362 158 380.5 Q192 399 226 412 L230 460 Q232 473 239.5 481 Q247 489 262 489 L343 489 Z " />
<glyph glyph-name="quotedbl" unicode="&#x22;" horiz-adv-x="546" d="M90 398 Q83 398 78 402 Q73 406 72 414 L43 694 L43 697 Q43 710 57 710 L218 710 Q233 710 232 694 L204 414 Q202 398 186 398 L90 398 Z M348 398 Q341 398 336 402 Q331 406 330 414 L301 694 L301 697 Q301 710 315 710 L476 710 Q491 710 490 694 L462 414 Q460 398 444 398 L348 398 Z " />
<glyph glyph-name="quotesingle" unicode="&#x27;" horiz-adv-x="281" d="M93 398 Q86 398 81 402 Q76 406 75 414 L46 694 L46 697 Q46 710 60 710 L221 710 Q236 710 235 694 L207 414 Q205 398 189 398 L93 398 L93 398 Z " />
<glyph glyph-name="semicolon" unicode="&#x3b;" horiz-adv-x="294" d="M148 272 Q104 272 76.5 301 Q49 330 49 372 Q49 414 76.5 442.5 Q104 471 148 471 Q169 471 187 463.5 Q205 456 218 442.5 Q231 429 238.5 411 Q246 393 246 372 Q246 351 238.5 333 Q231 315 218 301.5 Q205 288 187 280 Q169 272 148 272 Z M145 176 Q187 176 216.5 148 Q246 120 246 77 Q246 51 235 26.5 Q224 2 209 -27 L138 -169 Q130 -185 115 -185 L90 -185 Q74 -185 74 -173 Q74 -168 75 -165 L120 -11 Q88 -3 69 21.5 Q50 46 50 78 Q50 99 58 117 Q66 135 79 148 Q92 161 109 168.5 Q126 176 145 176 Z " />
<glyph glyph-name="slash" unicode="&#x2f;" horiz-adv-x="384" d="M-16 -131 Q-32 -131 -27 -116 L278 776 Q280 782 285.5 786.5 Q291 791 299 791 L397 791 Q412 791 408 776 L104 -116 Q102 -122 96.5 -126.5 Q91 -131 83 -131 L-16 -131 L-16 -131 Z " />
<glyph glyph-name="underscore" unicode="&#x5f;" horiz-adv-x="613" d="M83 -197 Q67 -197 67 -181 L67 -79 Q67 -63 83 -63 L530 -63 Q546 -63 546 -79 L546 -181 Q546 -197 530 -197 L83 -197 L83 -197 Z " />
<glyph glyph-name="braceleft" unicode="&#x7b;" horiz-adv-x="313" d="M248 620 Q222 620 208 606.5 Q194 593 194 570 Q194 551 204.5 527.5 Q215 504 227.5 477.5 Q240 451 250.5 424.5 Q261 398 261 373 Q261 335 232.5 302.5 Q204 270 146 263 Q204 256 232.5 223.5 Q261 191 261 153 Q261 128 250.5 101.5 Q240 75 227.5 48.5 Q215 22 204.5 -1.5 Q194 -25 194 -44 Q194 -67 208 -80.5 Q222 -94 248 -94 Q255 -94 260.5 -94 Q266 -94 272 -92 L275 -92 Q288 -92 288 -105 L288 -159 Q288 -166 285 -172.5 Q282 -179 274 -182 Q261 -187 243 -190 Q225 -193 199 -193 Q160 -193 132 -182.5 Q104 -172 86 -155 Q68 -138 59.5 -116 Q51 -94 51 -71 Q51 -42 62 -12 Q73 18 86.5 46 Q100 74 111.5 99.5 Q123 125 123 145 Q123 169 109 186.5 Q95 204 63 209 Q47 211 47 226 L47 300 Q47 316 63 317 Q95 322 109 339.5 Q123 357 123 381 Q123 401 111.5 426.5 Q100 452 86.5 480 Q73 508 62 538 Q51 568 51 597 Q51 620 59.5 642 Q68 664 86 681 Q104 698 132 708.5 Q160 719 199 719 Q225 719 243 716 Q261 713 273 708 Q288 703 288 685 L288 631 Q288 617 272 618 Q266 620 260.5 620 Q255 620 248 620 Z " />
<glyph glyph-name="braceright" unicode="&#x7d;" horiz-adv-x="313" d="M251 317 Q267 315 267 300 L267 226 Q267 210 251 209 Q219 204 205 186.5 Q191 169 191 145 Q191 125 202 99.5 Q213 74 226.5 46 Q240 18 251.5 -12 Q263 -42 263 -71 Q263 -94 254.5 -116 Q246 -138 228 -155 Q210 -172 182 -182.5 Q154 -193 115 -193 Q89 -193 71 -190 Q53 -187 41 -182 Q26 -177 26 -159 L26 -105 Q26 -91 42 -92 Q48 -94 53.5 -94 Q59 -94 66 -94 Q92 -94 106 -80.5 Q120 -67 120 -44 Q120 -25 109.5 -1.5 Q99 22 86.5 48.5 Q74 75 63.5 101.5 Q53 128 53 153 Q53 191 81.5 223.5 Q110 256 168 263 Q110 270 81.5 302.5 Q53 335 53 373 Q53 398 63.5 424.5 Q74 451 86.5 477.5 Q99 504 109.5 527.5 Q120 551 120 570 Q120 593 106 606.5 Q92 620 66 620 Q59 620 53.5 620 Q48 620 42 618 L39 618 Q26 618 26 631 L26 685 Q26 692 29 698.5 Q32 705 40 708 Q53 713 71 716 Q89 719 115 719 Q154 719 182 708.5 Q210 698 228 681 Q246 664 254.5 642 Q263 620 263 597 Q263 568 251.5 538 Q240 508 226.5 480 Q213 452 202 426.5 Q191 401 191 381 Q191 357 205 339.5 Q219 322 251 317 Z " />
<glyph glyph-name="bracketleft" unicode="&#x5b;" horiz-adv-x="346" d="M321 -168 Q321 -184 305 -184 L77 -184 Q61 -184 61 -168 L61 694 Q61 710 77 710 L303 710 Q319 710 319 694 L319 609 Q319 593 303 593 L204 593 L204 -68 L305 -68 Q321 -68 321 -84 L321 -168 L321 -168 Z " />
<glyph glyph-name="bracketright" unicode="&#x5d;" horiz-adv-x="346" d="M41 -184 Q25 -184 25 -168 L25 -84 Q25 -68 41 -68 L142 -68 L142 593 L43 593 Q27 593 27 609 L27 694 Q27 710 43 710 L269 710 Q285 710 285 694 L285 -168 Q285 -184 269 -184 L41 -184 L41 -184 Z " />
<glyph glyph-name="parenleft" unicode="&#x28;" horiz-adv-x="403" d="M368 -152 Q377 -163 377 -171 Q377 -183 353 -183 L259 -183 Q252 -183 244.5 -180 Q237 -177 232 -171 Q155 -88 108.5 20 Q62 128 62 264 Q62 400 108 507 Q154 614 232 698 Q242 710 259 710 L353 710 Q376 710 376 698 Q376 691 368 680 Q302 591 263 483.5 Q224 376 224 264 Q224 151 263 43.5 Q302 -64 368 -152 Z " />
<glyph glyph-name="parenright" unicode="&#x29;" horiz-adv-x="403" d="M50 -183 Q27 -183 27 -171 Q27 -163 35 -152 Q101 -64 140 43.5 Q179 151 179 264 Q179 376 140 483.5 Q101 591 35 679 Q26 689 26 698 Q26 710 50 710 L144 710 Q160 710 171 698 Q249 614 295 507 Q341 400 341 264 Q341 128 294.5 20 Q248 -88 171 -171 Q161 -183 144 -183 L50 -183 L50 -183 Z " />
<glyph glyph-name="emdash" unicode="&#x2014;" horiz-adv-x="963" d="M83 187 Q67 187 67 203 L67 303 Q67 319 83 319 L880 319 Q896 319 896 303 L896 203 Q896 187 880 187 L83 187 L83 187 Z " />
<glyph glyph-name="endash" unicode="&#x2013;" horiz-adv-x="613" d="M83 187 Q67 187 67 203 L67 305 Q67 321 83 321 L530 321 Q546 321 546 305 L546 203 Q546 187 530 187 L83 187 L83 187 Z " />
<glyph glyph-name="hyphen" unicode="&#x2d;" horiz-adv-x="477" d="M83 187 Q67 187 67 203 L67 305 Q67 321 83 321 L394 321 Q410 321 410 305 L410 203 Q410 187 394 187 L83 187 L83 187 Z " />
<glyph glyph-name="softhyphen" unicode="&#xad;" horiz-adv-x="477" d="M83 187 Q67 187 67 203 L67 305 Q67 321 83 321 L394 321 Q410 321 410 305 L410 203 Q410 187 394 187 L83 187 L83 187 Z " />
<glyph glyph-name="guillemetleft" unicode="&#xab;" horiz-adv-x="682" d="M270 24 Q265 18 260 18 Q253 18 249 24 L39 273 Q35 278 35 285 Q35 292 40 297 L248 526 Q252 532 260 532 Q266 532 271 527 L339 466 Q346 459 346 453 Q346 450 345 447.5 Q344 445 342 442 L231 285 L342 126 Q346 120 346 114 Q346 107 340 101 L270 24 Z M539 24 Q534 18 529 18 Q522 18 518 24 L308 273 Q304 278 304 285 Q304 292 309 297 L517 526 Q521 532 529 532 Q535 532 540 527 L608 466 Q615 459 615 453 Q615 450 614 447.5 Q613 445 611 442 L500 285 L611 126 Q615 120 615 114 Q615 107 609 101 L539 24 Z " />
<glyph glyph-name="guillemetright" unicode="&#xbb;" horiz-adv-x="682" d="M164 24 Q159 18 154 18 Q149 18 143 24 L73 101 Q67 109 67 115 Q67 121 71 126 L182 285 L71 442 Q68 446 68 452 Q68 460 74 466 L142 527 Q149 532 153 532 Q159 532 165 526 L373 297 Q378 290 378 284 Q378 278 374 273 L164 24 Z M433 24 Q428 18 423 18 Q418 18 412 24 L342 101 Q336 109 336 115 Q336 121 340 126 L451 285 L340 442 Q337 446 337 452 Q337 460 343 466 L411 527 Q418 532 422 532 Q428 532 434 526 L642 297 Q647 290 647 284 Q647 278 643 273 L433 24 Z " />
<glyph glyph-name="guilsinglleft" unicode="&#x2039;" horiz-adv-x="413" d="M270 24 Q265 18 260 18 Q253 18 249 24 L39 273 Q35 278 35 285 Q35 292 40 297 L248 526 Q252 532 260 532 Q266 532 271 527 L339 466 Q346 459 346 453 Q346 450 345 447.5 Q344 445 342 442 L231 285 L342 126 Q346 120 346 114 Q346 107 340 101 L270 24 L270 24 Z " />
<glyph glyph-name="guilsinglright" unicode="&#x203a;" horiz-adv-x="413" d="M164 24 Q159 18 154 18 Q149 18 143 24 L73 101 Q67 109 67 115 Q67 121 71 126 L182 285 L71 442 Q68 446 68 452 Q68 460 74 466 L142 527 Q149 532 153 532 Q159 532 165 526 L373 297 Q378 290 378 284 Q378 278 374 273 L164 24 L164 24 Z " />
<glyph glyph-name="quotedblbase" unicode="&#x201e;" horiz-adv-x="556" d="M146 192 Q168 192 187 184 Q206 176 220 162.5 Q234 149 242.5 129.5 Q251 110 251 88 Q251 60 240 35 Q229 10 213 -21 L138 -170 Q130 -186 114 -186 L88 -186 Q71 -186 71 -173 Q71 -168 72 -165 L119 -4 Q87 5 66.5 30.5 Q46 56 46 89 Q46 111 54 130 Q62 149 76 162.5 Q90 176 108 184 Q126 192 146 192 Z M400 192 Q422 192 441 184 Q460 176 474 162.5 Q488 149 496.5 129.5 Q505 110 505 88 Q505 60 494 35 Q483 10 467 -21 L392 -170 Q384 -186 368 -186 L342 -186 Q325 -186 325 -173 Q325 -168 326 -165 L373 -4 Q341 5 320.5 30.5 Q300 56 300 89 Q300 111 308 130 Q316 149 330 162.5 Q344 176 362 184 Q380 192 400 192 Z " />
<glyph glyph-name="quotedblleft" unicode="&#x201c;" horiz-adv-x="569" d="M173 528 Q205 519 225.5 493.5 Q246 468 246 435 Q246 413 238 394 Q230 375 216 361.5 Q202 348 184 340 Q166 332 146 332 Q124 332 105 340 Q86 348 71.5 361.5 Q57 375 49 394 Q41 413 41 436 Q41 464 52 489 Q63 514 79 545 L154 694 Q162 710 178 710 L204 710 Q221 710 221 697 Q221 692 220 689 L173 528 L173 528 Z M427 528 Q459 519 479.5 493.5 Q500 468 500 435 Q500 413 492 394 Q484 375 470 361.5 Q456 348 438 340 Q420 332 400 332 Q378 332 359 340 Q340 348 325.5 361.5 Q311 375 303 394 Q295 413 295 436 Q295 464 306 489 Q317 514 333 545 L408 694 Q416 710 432 710 L458 710 Q475 710 475 697 Q475 692 474 689 L427 528 L427 528 Z " />
<glyph glyph-name="quotedblright" unicode="&#x201d;" horiz-adv-x="569" d="M172 720 Q194 720 213 712 Q232 704 246 690.5 Q260 677 268.5 657.5 Q277 638 277 616 Q277 588 266 563 Q255 538 239 507 L164 358 Q156 342 140 342 L114 342 Q97 342 97 355 Q97 360 98 363 L145 524 Q113 533 92.5 558.5 Q72 584 72 617 Q72 639 80 658 Q88 677 102 690.5 Q116 704 134 712 Q152 720 172 720 Z M426 720 Q448 720 467 712 Q486 704 500 690.5 Q514 677 522.5 657.5 Q531 638 531 616 Q531 588 520 563 Q509 538 493 507 L418 358 Q410 342 394 342 L368 342 Q351 342 351 355 Q351 360 352 363 L399 524 Q367 533 346.5 558.5 Q326 584 326 617 Q326 639 334 658 Q342 677 356 690.5 Q370 704 388 712 Q406 720 426 720 Z " />
<glyph glyph-name="quoteleft" unicode="&#x2018;" horiz-adv-x="316" d="M172 538 Q204 529 224.5 503.5 Q245 478 245 445 Q245 423 237 404 Q229 385 215 371.5 Q201 358 183 350 Q165 342 145 342 Q123 342 104 350 Q85 358 70.5 371.5 Q56 385 48 404 Q40 423 40 446 Q40 474 51 499 Q62 524 78 555 L153 704 Q161 720 177 720 L203 720 Q220 720 220 707 Q220 702 219 699 L172 538 L172 538 Z " />
<glyph glyph-name="quoteright" unicode="&#x2019;" horiz-adv-x="316" d="M172 720 Q194 720 213 712 Q232 704 246 690.5 Q260 677 268.5 657.5 Q277 638 277 616 Q277 588 266 563 Q255 538 239 507 L164 358 Q156 342 140 342 L114 342 Q97 342 97 355 Q97 360 98 363 L145 524 Q113 533 92.5 558.5 Q72 584 72 617 Q72 639 80 658 Q88 677 102 690.5 Q116 704 134 712 Q152 720 172 720 Z " />
<glyph glyph-name="quotesinglbase" unicode="&#x201a;" horiz-adv-x="303" d="M149 192 Q171 192 190 184 Q209 176 223 162.5 Q237 149 245.5 129.5 Q254 110 254 88 Q254 60 243 35 Q232 10 216 -21 L141 -170 Q133 -186 117 -186 L91 -186 Q74 -186 74 -173 Q74 -168 75 -165 L122 -4 Q90 5 69.5 30.5 Q49 56 49 89 Q49 111 57 130 Q65 149 79 162.5 Q93 176 111 184 Q129 192 149 192 Z " />
<glyph glyph-name="emspace" unicode="&#x2003;" horiz-adv-x="1000" d="" />
<glyph glyph-name="enspace" unicode="&#x2002;" horiz-adv-x="500" d="" />
<glyph glyph-name="fourperemspace" unicode="&#x2005;" horiz-adv-x="250" d="" />
<glyph glyph-name="hairspace" unicode="&#x200a;" horiz-adv-x="68" d="" />
<glyph glyph-name="Acircumflex" unicode="&#xc2;" horiz-adv-x="751" d="M713 15 Q714 13 714 9 Q714 0 703 0 L515 0 Q508 0 502 3.5 Q496 7 494 15 Q487 37 480 59 Q473 81 466 104 L249 104 Q242 81 235 59 Q228 37 221 15 Q219 9 213.5 4.5 Q208 0 200 0 L20 0 Q4 0 10 15 L277 695 Q279 701 285 705.5 Q291 710 299 710 L426 710 Q442 710 448 695 L713 15 Z M423 246 L359 463 Q342 409 326 354.5 Q310 300 293 246 L423 246 Z M542 767 Q546 763 546 760 Q546 756 537 756 L448 756 Q435 756 426 765 L362 832 L301 766 Q296 761 291.5 758.5 Q287 756 279 756 L187 756 Q178 756 178 760 Q178 763 182 767 L287 906 Q295 916 308 916 L417 916 Q430 916 438 906 L542 767 L542 767 Z " />
<glyph glyph-name="nbspace" unicode="&#xa0;" horiz-adv-x="203" d="" />
<glyph glyph-name="thinspace" unicode="&#x2009;" horiz-adv-x="101" d="" />
<glyph glyph-name="threeperemspace" unicode="&#x2004;" horiz-adv-x="423" d="" />
<glyph glyph-name="cent" unicode="&#xa2;" horiz-adv-x="472" d="M409 267 Q418 271 427 271 Q444 271 444 246 L444 147 Q444 142 442 137.5 Q440 133 435 131 Q417 123 390 116 Q363 109 330 106 L319 -17 Q317 -33 301 -33 L233 -33 Q226 -33 221.5 -29.5 Q217 -26 219 -17 L232 112 Q191 121 155 141.5 Q119 162 91 193 Q63 224 47 265 Q31 306 31 357 Q31 411 49.5 454 Q68 497 99 528 Q130 559 171.5 578 Q213 597 258 603 L268 727 Q270 743 286 743 L353 743 Q369 743 368 727 L357 601 Q379 599 397 594 Q415 589 429 584 Q439 579 439 568 L439 469 Q439 443 419 443 Q415 443 411.5 443 Q408 443 403 445 Q388 450 371 452.5 Q354 455 335 455 Q291 455 259.5 428 Q228 401 228 354 Q228 330 236.5 312 Q245 294 260 281 Q275 268 294.5 261.5 Q314 255 336 255 Q356 255 374.5 258.5 Q393 262 409 267 Z " />
<glyph glyph-name="currency" unicode="&#xa4;" horiz-adv-x="585" d="M571 131 Q576 126 576 120 Q576 114 570 108 L517 58 Q512 53 506 53 Q500 53 494 59 L406 153 Q381 139 351.5 131 Q322 123 288 123 Q222 123 169 154 L81 59 Q76 53 69 53 Q63 53 58 58 L5 109 Q-1 113 -1 121 Q-1 127 4 132 L93 228 Q58 283 58 353 Q58 391 68 424 Q78 457 96 485 L4 585 Q-1 592 -1 596 Q-1 602 5 608 L59 658 Q66 663 70 663 Q76 663 82 657 L175 557 Q200 570 228 577 Q256 584 288 584 Q320 584 348.5 577 Q377 570 401 557 L494 658 Q498 664 506 664 Q512 664 517 659 L570 607 Q576 602 576 595 Q576 589 571 584 L480 486 Q499 458 509 424.5 Q519 391 519 353 Q519 318 510 286 Q501 254 484 227 L571 131 Z M288 253 Q328 253 352.5 281.5 Q377 310 377 353 Q377 398 352.5 426 Q328 454 288 454 Q247 454 223.5 425.5 Q200 397 200 353 Q200 310 223.5 281.5 Q247 253 288 253 Z " />
<glyph glyph-name="dollar" unicode="&#x24;" horiz-adv-x="585" d="M538 230 Q538 135 477.5 76.5 Q417 18 310 9 L295 -118 Q293 -134 277 -134 L200 -134 Q185 -134 186 -118 L201 11 Q166 16 131 24 Q96 32 69 45 Q55 52 55 68 L55 192 Q55 208 68 208 Q70 208 78 206 Q118 186 163.5 172.5 Q209 159 252 159 Q283 159 304 172.5 Q325 186 325 215 Q325 244 301 259.5 Q277 275 232 292 Q200 304 167.5 319.5 Q135 335 109 357.5 Q83 380 66 412 Q49 444 49 489 Q49 535 66 571.5 Q83 608 112.5 634.5 Q142 661 182 677.5 Q222 694 269 699 L284 816 Q286 832 302 832 L379 832 Q394 832 393 816 L378 699 Q438 693 489 676 Q495 674 499.5 668.5 Q504 663 504 655 L504 536 Q504 519 490 519 Q488 519 482 521 Q447 535 407 543.5 Q367 552 334 552 Q300 552 281 538 Q262 524 262 500 Q262 485 270 475 Q278 465 291.5 457 Q305 449 324 442 Q343 435 364 426 Q401 411 432.5 394.5 Q464 378 487.5 356 Q511 334 524.5 303.5 Q538 273 538 230 Z " />
<glyph glyph-name="euro" unicode="&#x20ac;" horiz-adv-x="585" d="M512 163 Q521 166 528 166 Q538 166 543 160 Q548 154 548 139 L548 39 Q548 23 534 16 Q507 5 468.5 -2 Q430 -9 385 -9 Q331 -9 281.5 7.5 Q232 24 191 55.5 Q150 87 119.5 132.5 Q89 178 73 236 L20 236 Q14 236 9.5 239.5 Q5 243 5 251 L5 314 Q5 320 8.5 324.5 Q12 329 20 329 L59 329 Q58 336 58 342.5 Q58 349 58 356 Q58 364 58 371 Q58 378 59 385 L20 385 Q14 385 9.5 388.5 Q5 392 5 400 L5 466 Q5 472 8.5 476.5 Q12 481 20 481 L75 481 Q92 538 123 582.5 Q154 627 196 657.5 Q238 688 288 704 Q338 720 393 720 Q430 720 464.5 714.5 Q499 709 522 702 Q528 700 532.5 694.5 Q537 689 537 681 L537 581 Q537 554 515 554 Q512 554 509 554.5 Q506 555 501 556 Q466 564 425 564 Q375 564 337 542.5 Q299 521 276 481 L514 481 Q520 481 524.5 477.5 Q529 474 529 466 L529 400 Q529 394 525.5 389.5 Q522 385 514 385 L247 385 Q246 378 246 371.5 Q246 365 246 357 Q246 349 246 342.5 Q246 336 247 329 L514 329 Q520 329 524.5 325.5 Q529 322 529 314 L529 251 Q529 245 525.5 240.5 Q522 236 514 236 L272 236 Q295 192 334 170.5 Q373 149 423 149 Q447 149 469.5 153 Q492 157 512 163 Z " />
<glyph glyph-name="florin" unicode="&#x192;" horiz-adv-x="554" d="M514 742 Q520 740 524.5 734.5 Q529 729 529 721 L529 633 Q529 604 503 604 Q496 604 492 605 Q486 606 480 606.5 Q474 607 467 607 Q435 607 417.5 587 Q400 567 394 525 L387 480 L497 480 Q513 480 513 464 L513 366 Q513 350 497 350 L369 350 L320 17 Q304 -97 253 -148.5 Q202 -200 106 -200 Q76 -200 49.5 -197 Q23 -194 3 -188 Q-12 -185 -12 -167 L-12 -55 Q-12 -40 3 -44 Q12 -47 23.5 -49 Q35 -51 49 -51 Q81 -51 98.5 -31 Q116 -11 122 31 L168 350 L79 350 Q63 350 63 366 L63 464 Q63 480 79 480 L187 480 L196 539 Q212 653 263 704.5 Q314 756 410 756 Q440 756 467 751.5 Q494 747 514 742 Z " />
<glyph glyph-name="sterling" unicode="&#xa3;" horiz-adv-x="585" d="M515 703 Q521 701 525.5 695.5 Q530 690 530 682 L530 563 Q530 547 515 553 Q498 560 478 564 Q458 568 435 568 Q393 568 367.5 541.5 Q342 515 337 464 L334 429 L478 429 Q494 429 494 413 L494 310 Q494 294 478 294 L323 294 L311 152 L507 152 Q523 152 523 136 L523 16 Q523 0 507 0 L65 0 Q49 0 49 16 L49 136 Q49 152 65 152 L114 152 L127 294 L72 294 Q56 294 56 310 L56 413 Q56 429 72 429 L139 429 L144 484 Q149 543 169 587.5 Q189 632 221.5 661.5 Q254 691 297 705.5 Q340 720 391 720 Q462 720 515 703 Z " />
<glyph glyph-name="yen" unicode="&#xa5;" horiz-adv-x="676" d="M652 711 Q678 711 678 695 Q678 687 672 677 L483 344 L568 344 Q584 344 584 328 L584 226 Q584 210 568 210 L442 210 L442 16 Q442 0 426 0 L251 0 Q235 0 235 16 L235 210 L115 210 Q99 210 99 226 L99 328 Q99 344 115 344 L194 344 L3 677 Q-3 687 -3 695 Q-3 711 23 711 L195 711 Q211 711 218 697 L347 433 L468 696 Q475 711 491 711 L652 711 L652 711 Z " />
<glyph glyph-name="plus" unicode="&#x2b;" horiz-adv-x="605" d="M553 374 Q569 374 569 358 L569 256 Q569 240 553 240 L372 240 L372 55 Q372 39 356 39 L250 39 Q234 39 234 55 L234 240 L52 240 Q36 240 36 256 L36 358 Q36 374 52 374 L234 374 L234 560 Q234 576 250 576 L356 576 Q372 576 372 560 L372 374 L553 374 L553 374 Z " />
<glyph glyph-name="minus" unicode="&#x2212;" horiz-adv-x="605" d="M52 240 Q36 240 36 256 L36 358 Q36 374 52 374 L553 374 Q569 374 569 358 L569 256 Q569 240 553 240 L52 240 L52 240 Z " />
<glyph glyph-name="multiply" unicode="&#xd7;" horiz-adv-x="605" d="M556 148 Q561 143 561 137 Q561 131 556 126 L482 53 Q477 48 471 48 Q465 48 460 53 L302 211 L143 53 Q138 48 132 48 Q126 48 121 53 L48 127 Q43 132 43 138 Q43 144 48 149 L206 307 L48 465 Q43 470 43 476 Q43 482 48 487 L121 561 Q126 566 132 566 Q138 566 143 561 L302 402 L460 560 Q465 565 471 565 Q477 565 482 560 L556 487 Q561 482 561 476 Q561 470 556 465 L397 307 L556 148 Z " />
<glyph glyph-name="divide" unicode="&#xf7;" horiz-adv-x="605" d="M294 450 Q256 450 232.5 475 Q209 500 209 535 Q209 570 232.5 595.5 Q256 621 294 621 Q332 621 356 595.5 Q380 570 380 535 Q380 500 356 475 Q332 450 294 450 Z M52 243 Q36 243 36 259 L36 361 Q36 377 52 377 L553 377 Q569 377 569 361 L569 259 Q569 243 553 243 L52 243 Z M294 4 Q256 4 232.5 29 Q209 54 209 89 Q209 124 232.5 149.5 Q256 175 294 175 Q332 175 356 149.5 Q380 124 380 89 Q380 54 356 29 Q332 4 294 4 Z " />
<glyph glyph-name="equal" unicode="&#x3d;" horiz-adv-x="605" d="M52 346 Q36 346 36 362 L36 464 Q36 480 52 480 L553 480 Q569 480 569 464 L569 362 Q569 346 553 346 L52 346 Z M52 130 Q36 130 36 146 L36 248 Q36 264 52 264 L553 264 Q569 264 569 248 L569 146 Q569 130 553 130 L52 130 Z " />
<glyph glyph-name="notequal" unicode="&#x2260;" horiz-adv-x="605" d="M354 346 L310 264 L553 264 Q569 264 569 248 L569 146 Q569 130 553 130 L238 130 L197 53 Q188 39 173 39 L121 39 Q105 39 113 53 L154 130 L52 130 Q36 130 36 146 L36 248 Q36 264 52 264 L227 264 L271 346 L52 346 Q36 346 36 362 L36 464 Q36 480 52 480 L343 480 L387 562 Q396 576 411 576 L462 576 Q478 576 470 562 L426 480 L553 480 Q569 480 569 464 L569 362 Q569 346 553 346 L354 346 Z " />
<glyph glyph-name="greater" unicode="&#x3e;" horiz-adv-x="605" d="M88 16 Q76 11 71 11 Q53 11 53 38 L53 151 Q53 166 67 174 L333 300 L67 426 Q53 433 53 449 L53 559 Q53 586 71 586 Q76 586 88 581 L574 346 Q588 339 588 323 L588 275 Q588 259 574 252 L88 16 L88 16 Z " />
<glyph glyph-name="less" unicode="&#x3c;" horiz-adv-x="605" d="M569 38 Q569 11 551 11 Q546 11 534 16 L48 252 Q34 259 34 275 L34 323 Q34 338 48 346 L534 581 Q546 586 551 586 Q569 586 569 559 L569 449 Q569 434 555 426 L289 300 L555 174 Q569 167 569 151 L569 38 L569 38 Z " />
<glyph glyph-name="greaterequal" unicode="&#x2265;" horiz-adv-x="605" d="M71 182 Q59 177 54 177 Q36 177 36 204 L36 317 Q36 332 50 340 L302 459 Q308 462 308 466 Q308 470 302 473 L71 582 Q55 590 45.5 604 Q36 618 36 638 L36 748 Q36 755 39.5 758 Q43 761 50 757 L571 505 L571 441 Q571 425 557 418 L71 182 Z M52 1 Q36 1 36 17 L36 119 Q36 135 52 135 L553 135 Q569 135 569 119 L569 17 Q569 1 553 1 L52 1 Z " />
<glyph glyph-name="lessequal" unicode="&#x2264;" horiz-adv-x="605" d="M569 204 Q569 177 551 177 Q546 177 534 182 L48 418 Q34 425 34 441 L34 505 L555 757 Q559 759 562 759 Q569 759 569 748 L569 638 Q569 621 560.5 606 Q552 591 534 582 L303 473 Q297 470 297 466 Q297 462 303 459 L555 340 Q569 333 569 317 L569 204 Z M569 17 Q569 1 553 1 L52 1 Q36 1 36 17 L36 119 Q36 135 52 135 L553 135 Q569 135 569 119 L569 17 Z " />
<glyph glyph-name="plusminus" unicode="&#xb1;" horiz-adv-x="605" d="M70 374 Q54 374 54 390 L54 493 Q54 509 70 509 L224 509 L224 629 Q224 645 240 645 L342 645 Q358 645 358 629 L358 509 L511 509 Q527 509 527 493 L527 390 Q527 374 511 374 L358 374 L358 253 Q358 237 342 237 L240 237 Q224 237 224 253 L224 374 L70 374 Z M553 162 Q569 162 569 146 L569 44 Q569 28 553 28 L52 28 Q36 28 36 44 L36 146 Q36 162 52 162 L553 162 Z " />
<glyph glyph-name="approxequal" unicode="&#x2248;" horiz-adv-x="600" d="M397 350 Q362 350 334 365 Q306 380 282 397 Q263 411 245.5 421.5 Q228 432 209 432 Q186 432 172.5 416.5 Q159 401 154 372 Q152 356 137 356 L58 356 Q42 356 42 372 Q44 412 54 448 Q64 484 82 511 Q100 538 127 554 Q154 570 190 570 Q226 570 255 554 Q284 538 309 521 Q327 507 344 497 Q361 487 379 487 Q399 487 409.5 503.5 Q420 520 422 547 Q424 563 439 563 L523 563 Q539 563 539 547 Q537 502 525.5 466 Q514 430 495.5 404 Q477 378 452 364 Q427 350 397 350 Z M397 106 Q362 106 334 121 Q306 136 282 153 Q263 167 245.5 177.5 Q228 188 209 188 Q186 188 172.5 172.5 Q159 157 154 128 Q152 112 137 112 L58 112 Q42 112 42 128 Q44 168 54 204 Q64 240 82 267 Q100 294 127 310 Q154 326 190 326 Q226 326 255 310 Q284 294 309 277 Q327 263 344 253 Q361 243 379 243 Q399 243 409.5 259.5 Q420 276 422 303 Q424 319 439 319 L523 319 Q539 319 539 303 Q537 258 525.5 222 Q514 186 495.5 160 Q477 134 452 120 Q427 106 397 106 Z " />
<glyph glyph-name="asciitilde" unicode="&#x7e;" horiz-adv-x="605" d="M397 202 Q362 202 334 217 Q306 232 282 249 Q263 263 245.5 273.5 Q228 284 209 284 Q186 284 172.5 268.5 Q159 253 154 224 Q152 208 137 208 L58 208 Q42 208 42 224 Q44 264 54 300 Q64 336 82 363 Q100 390 127 406 Q154 422 190 422 Q226 422 255 406 Q284 390 309 373 Q327 359 344 349 Q361 339 379 339 Q399 339 409.5 355.5 Q420 372 422 399 Q424 415 439 415 L523 415 Q539 415 539 399 Q537 354 525.5 318 Q514 282 495.5 256 Q477 230 452 216 Q427 202 397 202 Z " />
<glyph glyph-name="logicalnot" unicode="&#xac;" horiz-adv-x="605" d="M511 441 Q527 441 527 425 L527 156 Q527 140 511 140 L398 140 Q382 140 382 156 L382 309 L70 309 Q54 309 54 325 L54 425 Q54 441 70 441 L511 441 L511 441 Z " />
<glyph glyph-name="infinity" unicode="&#x221e;" horiz-adv-x="970" d="M697 531 Q743 531 784 513.5 Q825 496 855.5 465 Q886 434 904 391 Q922 348 922 297 Q922 245 904.5 202 Q887 159 856.5 128 Q826 97 785.5 80 Q745 63 699 63 Q664 63 634 73.5 Q604 84 578 101 Q552 118 530 140 Q508 162 490 185 Q441 128 389 95.5 Q337 63 277 63 Q229 63 187.5 80.5 Q146 98 115 129 Q84 160 66 202 Q48 244 48 293 Q48 343 66.5 386.5 Q85 430 117 462 Q149 494 190.5 512.5 Q232 531 279 531 Q311 531 339 520.5 Q367 510 391 492 Q415 474 436 451.5 Q457 429 475 405 Q496 431 519.5 454 Q543 477 570 494 Q597 511 628 521 Q659 531 697 531 Z M272 201 Q298 201 327 223.5 Q356 246 394 296 Q355 347 327 370 Q299 393 273 393 Q259 393 245 386 Q231 379 220 366 Q209 353 202.5 335 Q196 317 196 296 Q196 275 202.5 257.5 Q209 240 219.5 227.5 Q230 215 244 208 Q258 201 272 201 Z M698 201 Q728 201 751 225.5 Q774 250 774 294 Q774 339 749.5 366 Q725 393 695 393 Q662 393 630.5 363 Q599 333 567 288 Q606 245 636 223 Q666 201 698 201 Z " />
<glyph glyph-name="integral" unicode="&#x222b;" horiz-adv-x="556" d="M106 -210 Q76 -210 49.5 -207 Q23 -204 3 -198 Q-12 -195 -12 -177 L-12 -65 Q-12 -50 3 -54 Q12 -56 23.5 -58 Q35 -60 49 -60 Q81 -60 98.5 -40.5 Q116 -21 122 21 L198 539 Q214 653 265 704.5 Q316 756 412 756 Q442 756 469 751.5 Q496 747 516 742 Q522 740 526.5 734.5 Q531 729 531 721 L531 633 Q531 604 505 604 Q498 604 494 605 Q488 606 482 606.5 Q476 607 469 607 Q437 607 419.5 587 Q402 567 396 525 L320 8 Q304 -106 253 -158 Q202 -210 106 -210 Z " />
<glyph glyph-name="product" unicode="&#x220f;" horiz-adv-x="829" d="M759 710 Q775 710 775 694 L775 578 Q775 562 759 562 L677 562 L677 -111 Q677 -127 661 -127 L482 -127 Q466 -127 466 -111 L466 562 L341 562 L341 -111 Q341 -127 325 -127 L157 -127 Q141 -127 141 -111 L141 562 L61 562 Q45 562 45 578 L45 694 Q45 710 61 710 L759 710 L759 710 Z " />
<glyph glyph-name="summation" unicode="&#x2211;" horiz-adv-x="587" d="M533 16 Q549 16 549 0 L549 -112 Q549 -128 533 -128 L55 -128 Q39 -128 39 -112 L39 -44 Q39 -37 41.5 -29.5 Q44 -22 49 -16 L314 293 L49 598 Q45 603 42 610.5 Q39 618 39 626 L39 694 Q39 710 55 710 L525 710 Q541 710 541 694 L541 582 Q541 566 525 566 L285 566 L498 322 Q510 308 510 293 Q510 277 498 264 L283 16 L533 16 L533 16 Z " />
<glyph glyph-name="radical" unicode="&#x221a;" horiz-adv-x="729" d="M664 710 Q692 710 692 690 Q692 682 688 674 L350 -115 Q345 -130 328 -130 L258 -130 Q242 -130 235 -116 L17 299 Q12 308 12 317 Q12 334 38 334 L158 334 Q173 334 181 320 L291 87 L522 676 Q528 692 541.5 702 Q555 712 575 712 L664 710 L664 710 Z " />
<glyph glyph-name="micro" unicode="&#xb5;" horiz-adv-x="629" d="M561 480 Q577 480 577 464 L577 16 Q577 0 561 0 L426 0 Q419 0 414 4 Q409 8 408 16 L402 57 L398 57 Q367 -9 300 -9 Q258 -9 232 13 L252 -174 L252 -177 Q252 -190 238 -190 L65 -190 Q49 -190 50 -174 L70 35 L56 464 L56 466 Q56 480 71 480 L238 480 Q254 480 254 464 L254 197 Q254 158 269 141 Q284 124 313 124 Q346 124 362.5 147.5 Q379 171 379 211 L379 464 Q379 480 395 480 L561 480 L561 480 Z " />
<glyph glyph-name="partialdiff" unicode="&#x2202;" horiz-adv-x="597" d="M195 720 Q294 720 363 691.5 Q432 663 476 613 Q520 563 540 494.5 Q560 426 560 347 Q560 265 540.5 199.5 Q521 134 485 87.5 Q449 41 398.5 16 Q348 -9 286 -9 Q237 -9 191.5 7 Q146 23 111.5 54.5 Q77 86 56.5 131 Q36 176 36 235 Q36 289 55 332 Q74 375 106 404.5 Q138 434 180.5 450 Q223 466 270 466 Q299 466 328 460 Q357 454 381 442 Q362 516 315 550.5 Q268 585 187 585 Q148 585 111 577 Q109 577 108.5 576.5 Q108 576 107 576 Q96 576 96 589 L96 693 Q96 709 112 713 Q132 717 152 718.5 Q172 720 195 720 Z M292 137 Q337 137 364.5 182 Q392 227 394 315 Q377 325 355.5 331 Q334 337 313 337 Q265 337 237 307 Q209 277 209 231 Q209 189 231.5 163 Q254 137 292 137 Z " />
<glyph glyph-name="percent" unicode="&#x25;" horiz-adv-x="791" d="M110 2 Q103 7 103 14 Q103 19 106 24 L622 725 Q626 732 635 732 Q642 732 645 730 L673 711 Q681 706 681 699 Q681 694 678 690 L161 -12 Q156 -19 149 -19 Q143 -19 139 -16 L110 2 Z M204 394 Q173 394 144.5 405 Q116 416 94.5 437 Q73 458 60.5 488 Q48 518 48 556 Q48 594 60.5 624.5 Q73 655 94.5 676 Q116 697 144.5 708.5 Q173 720 204 720 Q235 720 263 708.5 Q291 697 312.5 675.5 Q334 654 347 623.5 Q360 593 360 556 Q360 518 347 488 Q334 458 312.5 437 Q291 416 263 405 Q235 394 204 394 Z M204 486 Q227 486 238 506 Q249 526 249 556 Q249 586 238 606.5 Q227 627 204 627 Q181 627 169.5 607 Q158 587 158 556 Q158 526 169.5 506 Q181 486 204 486 Z M587 -10 Q556 -10 528 1.5 Q500 13 478.5 34 Q457 55 444 85 Q431 115 431 152 Q431 190 444 220.5 Q457 251 478.5 272 Q500 293 528 304.5 Q556 316 587 316 Q618 316 646.5 304.5 Q675 293 696.5 271.5 Q718 250 730.5 219.5 Q743 189 743 152 Q743 115 730.5 85 Q718 55 696.5 34 Q675 13 646.5 1.5 Q618 -10 587 -10 Z M587 83 Q610 83 621.5 103 Q633 123 633 152 Q633 183 621.5 203.5 Q610 224 587 224 Q564 224 552.5 204 Q541 184 541 152 Q541 123 552.5 103 Q564 83 587 83 Z " />
<glyph glyph-name="perthousand" unicode="&#x2030;" horiz-adv-x="1134" d="M111 2 Q104 7 104 14 Q104 19 107 24 L623 725 Q627 732 636 732 Q643 732 646 730 L674 711 Q682 706 682 699 Q682 694 679 690 L162 -12 Q157 -19 150 -19 Q144 -19 140 -16 L111 2 Z M204 394 Q173 394 144.5 405 Q116 416 94.5 437 Q73 458 60.5 488 Q48 518 48 556 Q48 594 60.5 624.5 Q73 655 94.5 676 Q116 697 144.5 708.5 Q173 720 204 720 Q235 720 263 708.5 Q291 697 312.5 675.5 Q334 654 347 623.5 Q360 593 360 556 Q360 518 347 488 Q334 458 312.5 437 Q291 416 263 405 Q235 394 204 394 Z M204 486 Q227 486 238 506 Q249 526 249 556 Q249 586 238 606.5 Q227 627 204 627 Q181 627 169.5 607 Q158 587 158 556 Q158 526 169.5 506 Q181 486 204 486 Z M581 -10 Q550 -10 522 1.5 Q494 13 472.5 34 Q451 55 438.5 85 Q426 115 426 152 Q426 190 438.5 220.5 Q451 251 472.5 272 Q494 293 522 304.5 Q550 316 581 316 Q612 316 640.5 304.5 Q669 293 690.5 271.5 Q712 250 725 219.5 Q738 189 738 152 Q738 115 725 85 Q712 55 690.5 34 Q669 13 640.5 1.5 Q612 -10 581 -10 Z M930 -10 Q899 -10 871 1.5 Q843 13 821.5 34 Q800 55 787 85 Q774 115 774 152 Q774 190 787 220.5 Q800 251 821.5 272 Q843 293 871 304.5 Q899 316 930 316 Q961 316 989.5 304.5 Q1018 293 1039.5 271.5 Q1061 250 1073.5 219.5 Q1086 189 1086 152 Q1086 115 1073.5 85 Q1061 55 1039.5 34 Q1018 13 989.5 1.5 Q961 -10 930 -10 Z M581 83 Q604 83 615.5 103 Q627 123 627 152 Q627 183 615.5 203.5 Q604 224 581 224 Q559 224 547 204 Q535 184 535 152 Q535 123 547 103 Q559 83 581 83 Z M930 83 Q953 83 964.5 103 Q976 123 976 152 Q976 183 964.5 203.5 Q953 224 930 224 Q907 224 895.5 204 Q884 184 884 152 Q884 123 895.5 103 Q907 83 930 83 Z " />
<glyph glyph-name="lozenge" unicode="&#x25ca;" horiz-adv-x="605" d="M286 -46 Q270 -46 262 -32 L48 340 Q44 345 44 354 Q44 361 48 368 L262 740 Q271 754 286 754 L320 754 Q336 754 344 740 L556 368 Q560 363 560 354 Q560 347 556 340 L344 -32 Q335 -46 320 -46 L286 -46 Z M428 354 L303 577 L175 354 L303 131 L428 354 Z " />
<glyph glyph-name="apple" unicode="&#xf8ff;" horiz-adv-x="999" d="M499 -140 Q430 -140 366.5 -122 Q303 -104 247.5 -71.5 Q192 -39 146.5 6.5 Q101 52 68.5 107.5 Q36 163 18 227 Q0 291 0 360 Q0 463 39.5 554 Q79 645 146.5 712.5 Q214 780 305 819.5 Q396 859 499 859 Q602 859 693 819.5 Q784 780 852 712.5 Q920 645 959.5 554 Q999 463 999 360 Q999 256 959.5 165 Q920 74 852 6.5 Q784 -61 693 -100.5 Q602 -140 499 -140 Z M499 109 Q585 109 671.5 112 Q758 115 840 124 Q864 126 876.5 134.5 Q889 143 892 168 Q896 216 896.5 263.5 Q897 311 897 360 Q897 408 896.5 455.5 Q896 503 892 551 Q889 576 876.5 584.5 Q864 593 840 595 Q758 604 671.5 607 Q585 610 499 610 Q413 610 326.5 607 Q240 604 157 595 Q134 593 121.5 584.5 Q109 576 106 551 Q101 503 100.5 455.5 Q100 408 100 360 Q100 311 100.5 263.5 Q101 216 106 168 Q109 143 121.5 134.5 Q134 126 157 124 Q240 115 326.5 112 Q413 109 499 109 Z M499 157 Q456 157 419 173 Q382 189 355 217 Q328 245 312.5 281.5 Q297 318 297 360 Q297 401 312.5 438 Q328 475 355 502.5 Q382 530 419 546 Q456 562 499 562 Q542 562 579 546 Q616 530 643 502.5 Q670 475 685.5 438 Q701 401 701 360 Q701 318 685.5 281.5 Q670 245 643 217 Q616 189 579 173 Q542 157 499 157 Z " />
<glyph glyph-name="at" unicode="&#x40;" horiz-adv-x="909" d="M654 432 Q670 432 670 416 L670 161 Q670 108 712 108 Q750 108 776 153.5 Q802 199 802 277 Q802 343 776.5 400 Q751 457 705.5 498 Q660 539 598.5 562.5 Q537 586 465 586 Q388 586 322.5 559.5 Q257 533 209 486.5 Q161 440 134 376.5 Q107 313 107 239 Q107 167 135.5 103 Q164 39 215 -8.5 Q266 -56 335.5 -83.5 Q405 -111 486 -111 Q545 -111 605.5 -97.5 Q666 -84 713 -58 Q729 -52 735 -48.5 Q741 -45 744 -45 Q751 -45 751 -57 L751 -93 Q751 -100 748 -106.5 Q745 -113 737 -117 Q679 -147 613.5 -160.5 Q548 -174 486 -174 Q392 -174 310.5 -142 Q229 -110 169 -54.5 Q109 1 74.5 76.5 Q40 152 40 239 Q40 328 73 403 Q106 478 163 532 Q220 586 297.5 616.5 Q375 647 464 647 Q550 647 624 619 Q698 591 752.5 541.5 Q807 492 838 424.5 Q869 357 869 278 Q869 222 855 177 Q841 132 815.5 100 Q790 68 753.5 50.5 Q717 33 672 33 Q624 33 587.5 54 Q551 75 538 117 Q515 78 481.5 60.5 Q448 43 408 43 Q374 43 342.5 58 Q311 73 286.5 99.5 Q262 126 247 162.5 Q232 199 232 242 Q232 285 246.5 321.5 Q261 358 285.5 384 Q310 410 342 425 Q374 440 408 440 Q490 440 531 373 L531 416 Q531 432 547 432 L654 432 Z M456 158 Q487 158 508.5 180 Q530 202 530 240 Q530 278 508.5 300 Q487 322 456 322 Q423 322 400.5 300 Q378 278 378 241 Q378 203 401 180.5 Q424 158 456 158 Z " />
<glyph glyph-name="ampersand" unicode="&#x26;" horiz-adv-x="736" d="M709 12 Q713 8 713 4 Q713 0 704 0 L524 0 Q508 0 498 12 L481 34 Q405 -10 308 -10 Q249 -10 198.5 3.5 Q148 17 110 43.5 Q72 70 50.5 109 Q29 148 29 199 Q29 263 65 312 Q101 361 167 390 Q141 424 127.5 455.5 Q114 487 114 528 Q114 571 131.5 606.5 Q149 642 180 667.5 Q211 693 253 707 Q295 721 344 721 Q376 721 408 717 Q440 713 467 705 Q473 703 477.5 698 Q482 693 482 685 L482 564 Q482 549 468 555 Q451 563 430 567.5 Q409 572 389 572 Q354 572 331 552.5 Q308 533 308 504 Q308 474 331.5 443.5 Q355 413 394 368 L485 265 Q491 284 495 304.5 Q499 325 500 348 Q501 353 501 358.5 Q501 364 501 369 Q501 374 501 380 Q501 386 500 391 Q500 407 515 407 L647 407 Q663 407 663 391 Q663 379 663 367 Q663 355 661 344 Q657 285 640.5 234 Q624 183 595 140 L709 12 Z M214 220 Q214 182 243 157 Q272 132 320 132 Q337 132 353.5 135.5 Q370 139 385 145 L252 297 Q214 270 214 220 Z " />
<glyph glyph-name="paragraph" unicode="&#xb6;" horiz-adv-x="664" d="M417 710 Q433 710 433 694 L433 76 Q433 10 414.5 -54.5 Q396 -119 361 -177 Q357 -182 350.5 -186 Q344 -190 336 -190 L270 -190 Q254 -190 263 -177 Q301 -120 320.5 -55 Q340 10 340 76 L340 221 L326 221 Q272 221 224 238 Q176 255 140 286.5 Q104 318 82.5 363 Q61 408 61 465 Q61 523 82.5 568.5 Q104 614 140 645.5 Q176 677 224 693.5 Q272 710 326 710 L417 710 Z M575 710 Q591 710 591 694 L591 254 L591 222 Q588 165 567.5 117 Q547 69 510 36 Q506 32 503 32 Q498 32 498 42 L498 694 Q498 710 514 710 L575 710 Z " />
<glyph glyph-name="section" unicode="&#xa7;" horiz-adv-x="597" d="M477 278 Q500 247 517.5 221.5 Q535 196 546.5 171.5 Q558 147 563.5 123 Q569 99 569 71 Q569 17 549 -32.5 Q529 -82 490.5 -119.5 Q452 -157 395 -179 Q338 -201 264 -201 Q210 -201 154 -190.5 Q98 -180 50 -158 Q36 -151 36 -135 L36 -15 Q36 0 50 -6 Q95 -28 154.5 -39.5 Q214 -51 275 -51 Q336 -51 383 -37 L135 288 Q115 314 96.5 339.5 Q78 365 64 391.5 Q50 418 41.5 447 Q33 476 33 511 Q33 565 53.5 609.5 Q74 654 112 686.5 Q150 719 203.5 737 Q257 755 322 755 Q364 755 414 747.5 Q464 740 508 725 Q514 723 518.5 717.5 Q523 712 523 704 L523 578 Q523 562 508 568 Q482 577 451 583.5 Q420 590 389.5 594.5 Q359 599 332 601.5 Q305 604 287 604 Q273 604 260.5 602.5 Q248 601 236 599 L477 278 Z M440 -7 Q484 27 484 90 Q484 124 469.5 157 Q455 190 424 232 L171 573 Q148 556 134.5 532 Q121 508 121 476 Q121 456 126.5 437.5 Q132 419 142.5 400 Q153 381 166.5 361.5 Q180 342 197 320 L440 -7 Z " />
<glyph glyph-name="copyright" unicode="&#xa9;" horiz-adv-x="800" d="M400 -10 Q324 -10 256.5 16.5 Q189 43 138.5 90.5 Q88 138 58.5 204.5 Q29 271 29 351 Q29 434 59 502 Q89 570 140 618.5 Q191 667 258 693.5 Q325 720 400 720 Q475 720 542 693.5 Q609 667 660 618.5 Q711 570 741 502 Q771 434 771 351 Q771 271 741.5 204.5 Q712 138 661.5 90.5 Q611 43 543.5 16.5 Q476 -10 400 -10 Z M400 32 Q466 32 525.5 55 Q585 78 630 119.5 Q675 161 701.5 220 Q728 279 728 351 Q728 425 701.5 485.5 Q675 546 630 589 Q585 632 525.5 655.5 Q466 679 400 679 Q334 679 274.5 655.5 Q215 632 170 589 Q125 546 98.5 485.5 Q72 425 72 351 Q72 279 98.5 220 Q125 161 170 119.5 Q215 78 274.5 55 Q334 32 400 32 Z M407 139 Q364 139 325 154 Q286 169 256 196.5 Q226 224 208.5 264.5 Q191 305 191 356 Q191 407 209 446.5 Q227 486 257 514 Q287 542 326.5 556.5 Q366 571 410 571 Q442 571 470.5 563.5 Q499 556 516 547 Q525 542 525 530 L525 437 Q525 428 520 428 Q517 428 513 431 Q479 456 429 456 Q388 456 360.5 429 Q333 402 333 357 Q333 333 341 314 Q349 295 362 282.5 Q375 270 392.5 263 Q410 256 429 256 Q454 256 477.5 264 Q501 272 519 286 Q523 289 526 289 Q531 289 531 280 L531 190 Q531 179 523 173 Q502 158 473.5 148.5 Q445 139 407 139 Z " />
<glyph glyph-name="registered" unicode="&#xae;" horiz-adv-x="479" d="M239 720 Q279 720 313 706 Q347 692 372.5 666.5 Q398 641 412.5 605.5 Q427 570 427 527 Q427 484 413 448.5 Q399 413 373.5 387.5 Q348 362 313.5 348 Q279 334 239 334 Q199 334 164.5 348 Q130 362 105 387.5 Q80 413 66 448.5 Q52 484 52 527 Q52 570 66.5 605.5 Q81 641 106 666.5 Q131 692 165 706 Q199 720 239 720 Z M239 367 Q272 367 300.5 378.5 Q329 390 349.5 411 Q370 432 381.5 461.5 Q393 491 393 527 Q393 563 381.5 592.5 Q370 622 349.5 643 Q329 664 300.5 675.5 Q272 687 239 687 Q206 687 178 675.5 Q150 664 129.5 643 Q109 622 97.5 592.5 Q86 563 86 527 Q86 491 97.5 461.5 Q109 432 129.5 411 Q150 390 178 378.5 Q206 367 239 367 Z M331 451 Q334 448 334 445 Q334 441 326 441 L287 441 Q281 441 276 443 Q271 445 267 452 L227 509 L223 509 L223 454 Q223 441 210 441 L183 441 Q170 441 170 454 L170 613 Q170 626 183 626 L245 626 Q278 626 297.5 610.5 Q317 595 317 569 Q317 529 278 518 L331 451 Z M223 589 L223 538 L233 538 Q263 538 263 564 Q263 589 234 589 L223 589 Z " />
<glyph glyph-name="trademark" unicode="&#x2122;" horiz-adv-x="869" d="M319 710 Q332 710 332 697 L332 626 Q332 613 319 613 L238 613 L238 351 Q238 338 225 338 L123 338 Q110 338 110 351 L110 613 L29 613 Q16 613 16 626 L16 697 Q16 710 29 710 L319 710 Z M845 351 Q845 349 845.5 348.5 Q846 348 846 346 Q846 338 835 338 L733 338 Q721 338 718 351 L695 537 L636 358 Q633 346 619 346 L565 346 Q552 346 548 358 L485 531 L455 351 Q453 338 440 338 L348 338 Q336 338 337 351 L404 697 Q406 710 419 710 L517 710 Q530 710 534 698 L595 509 L652 698 Q654 703 657.5 706.5 Q661 710 669 710 L759 710 Q772 710 775 697 L845 351 Z " />
<glyph glyph-name="degree" unicode="&#xb0;" horiz-adv-x="412" d="M206 402 Q171 402 140.5 414 Q110 426 86.5 447 Q63 468 49.5 497 Q36 526 36 561 Q36 596 49.5 625.5 Q63 655 86 676 Q109 697 140 708.5 Q171 720 206 720 Q241 720 272 708.5 Q303 697 326 676 Q349 655 362.5 625.5 Q376 596 376 561 Q376 526 362 497 Q348 468 325 447 Q302 426 271 414 Q240 402 206 402 Z M206 500 Q230 500 245 517 Q260 534 260 561 Q260 588 245 605 Q230 622 206 622 Q182 622 167 605 Q152 588 152 561 Q152 534 167 517 Q182 500 206 500 Z " />
<glyph glyph-name="bar" unicode="&#x7c;" horiz-adv-x="189" d="M54 -200 Q38 -200 38 -184 L38 824 Q38 840 54 840 L136 840 Q152 840 152 824 L152 -184 Q152 -200 136 -200 L54 -200 L54 -200 Z " />
<glyph glyph-name="brokenbar" unicode="&#xa6;" horiz-adv-x="189" d="M54 421 Q38 421 38 437 L38 824 Q38 840 54 840 L136 840 Q152 840 152 824 L152 437 Q152 421 136 421 L54 421 Z M54 -200 Q38 -200 38 -184 L38 203 Q38 219 54 219 L136 219 Q152 219 152 203 L152 -184 Q152 -200 136 -200 L54 -200 Z " />
<glyph glyph-name="dagger" unicode="&#x2020;" horiz-adv-x="409" d="M371 604 Q385 604 385 589 L385 493 Q385 477 369 478 L280 483 L280 243 Q280 227 264 227 L144 227 Q128 227 128 243 L127 483 L39 478 L37 478 Q23 478 23 493 L23 589 Q23 605 39 604 L127 600 L127 694 Q127 710 143 710 L264 710 Q280 710 280 694 L280 600 L369 604 L371 604 Z " />
<glyph glyph-name="daggerdbl" unicode="&#x2021;" horiz-adv-x="409" d="M280 509 L280 427 L369 431 L371 431 Q385 431 385 416 L385 320 Q385 304 369 305 L280 309 L280 243 Q280 227 264 227 L144 227 Q128 227 128 243 L128 309 L39 305 L37 305 Q23 305 23 320 L23 416 Q23 432 39 431 L128 427 L128 509 L39 504 L37 504 Q23 504 23 519 L23 615 Q23 631 39 630 L128 626 L128 694 Q128 710 144 710 L264 710 Q280 710 280 694 L280 626 L369 630 L371 630 Q385 630 385 615 L385 519 Q385 503 369 504 L280 509 Z " />
<glyph glyph-name="asciicircum" unicode="&#x5e;" horiz-adv-x="600" d="M508 275 Q511 270 511 268 Q511 262 501 262 L412 262 Q396 262 386 274 L301 379 L218 275 Q208 262 192 262 L99 262 Q83 262 92 275 L217 468 Q221 473 227.5 477 Q234 481 242 481 L360 481 Q376 481 385 468 L508 275 L508 275 Z " />
<glyph glyph-name="dieresiscomb" unicode="&#x308;" d="M-97 586 Q-129 586 -149 607.5 Q-169 629 -169 658 Q-169 688 -149 709 Q-129 730 -97 730 Q-66 730 -46 709 Q-26 688 -26 658 Q-26 629 -46 607.5 Q-66 586 -97 586 Z M97 586 Q65 586 45 607.5 Q25 629 25 658 Q25 688 45 709 Q65 730 97 730 Q128 730 148 709 Q168 688 168 658 Q168 629 148 607.5 Q128 586 97 586 Z " />
<glyph glyph-name="dotaccentcomb" unicode="&#x307;" d="M2 580 Q-35 580 -58.5 605 Q-82 630 -82 665 Q-82 700 -58.5 725.5 Q-35 751 2 751 Q39 751 63 725.5 Q87 700 87 665 Q87 630 63 605 Q39 580 2 580 Z " />
<glyph glyph-name="gravecomb" unicode="&#x300;" d="M47 560 Q48 558 48 553 Q48 545 37 545 L-56 545 Q-72 545 -81 558 L-200 721 Q-204 727 -204 730 Q-204 738 -193 741 L-60 780 Q-58 781 -54 781 Q-43 781 -39 770 L47 560 L47 560 Z " />
<glyph glyph-name="acutecomb" unicode="&#x301;" d="M-69 545 Q-85 545 -79 560 L7 770 Q12 786 28 780 L161 741 Q172 738 172 730 Q172 725 168 721 L49 558 Q45 553 38.5 549 Q32 545 24 545 L-69 545 L-69 545 Z " />
<glyph glyph-name="hungarumlautcomb" unicode="&#x30b;" d="M35 546 Q19 546 24 561 L92 769 Q94 775 99.5 779 Q105 783 113 781 L250 750 Q261 748 261 740 Q261 735 258 731 L145 559 Q141 554 134.5 550 Q128 546 120 546 L35 546 Z M-161 546 Q-168 546 -171.5 549.5 Q-175 553 -173 561 L-118 769 Q-116 775 -111 778.5 Q-106 782 -98 780 L26 750 Q38 748 38 738 Q38 736 36 730 L-48 560 Q-55 546 -71 546 L-161 546 Z " />
<glyph glyph-name="circumflexcomb" unicode="&#x302;" d="M177 561 Q180 556 180 554 Q180 549 171 549 L79 549 Q73 549 68 551 Q63 553 58 560 L0 639 L-56 560 Q-62 549 -76 549 L-172 549 Q-181 549 -181 554 Q-181 556 -178 561 L-68 735 Q-62 746 -48 746 L48 746 Q61 746 68 735 L177 561 L177 561 Z " />
<glyph glyph-name="caroncomb" unicode="&#x30c;" d="M166 726 Q182 726 173 713 L69 549 Q63 538 49 538 L-46 538 Q-62 538 -71 551 L-175 713 Q-178 717 -178 720 Q-178 726 -168 726 L-71 726 Q-56 726 -45 714 L3 657 L47 713 Q52 718 58.5 722 Q65 726 73 726 L166 726 L166 726 Z " />
<glyph glyph-name="brevecomb" unicode="&#x306;" d="M0 560 Q-65 560 -110.5 604 Q-156 648 -165 725 L-165 728 Q-165 738 -153 738 L-89 737 Q-77 737 -73 724 Q-59 671 -1 671 Q57 671 72 724 Q75 737 88 737 L152 738 Q165 738 164 725 Q155 648 109.5 604 Q64 560 0 560 Z " />
<glyph glyph-name="ringcomb" unicode="&#x30a;" d="M-1 527 Q-25 527 -47 535.5 Q-69 544 -86 559.5 Q-103 575 -113.5 596 Q-124 617 -124 642 Q-124 667 -113.5 687.5 Q-103 708 -86 722.5 Q-69 737 -47 745 Q-25 753 -1 753 Q23 753 45 745 Q67 737 84.5 722.5 Q102 708 112.5 687.5 Q123 667 123 642 Q123 617 112.5 596 Q102 575 85 559.5 Q68 544 45.5 535.5 Q23 527 -1 527 Z M-1 596 Q18 596 30 608.5 Q42 621 42 641 Q42 660 30 672 Q18 684 -1 684 Q-19 684 -31 672 Q-43 660 -43 641 Q-43 621 -31 608.5 Q-19 596 -1 596 Z " />
<glyph glyph-name="tildecomb" unicode="&#x303;" d="M72 549 Q48 549 28 559.5 Q8 570 -9 581 Q-23 591 -35.5 599 Q-48 607 -61 607 Q-91 607 -97 564 Q-98 559 -100 556 Q-102 553 -109 553 L-181 553 Q-192 553 -192 564 Q-191 597 -183 627.5 Q-175 658 -160.5 680.5 Q-146 703 -124.5 716.5 Q-103 730 -73 730 Q-45 730 -22.5 717 Q0 704 18 692 Q32 683 42.5 676.5 Q53 670 63 670 Q90 670 93 713 Q94 718 96 721 Q98 724 105 724 L181 724 Q192 724 192 713 Q190 679 181.5 649.5 Q173 620 157.5 597.5 Q142 575 120.5 562 Q99 549 72 549 Z " />
<glyph glyph-name="macroncomb" unicode="&#x304;" d="M-156 592 Q-172 592 -172 608 L-172 685 Q-172 701 -156 701 L155 701 Q171 701 171 685 L171 608 Q171 592 155 592 L-156 592 L-156 592 Z " />
<glyph glyph-name="cedillacomb" unicode="&#x327;" horiz-adv-x="147" d="M97 -34 Q135 -37 158.5 -56 Q182 -75 182 -108 Q182 -152 144.5 -176 Q107 -200 52 -200 Q25 -200 5.5 -196.5 Q-14 -193 -27 -188 Q-39 -184 -39 -170 L-39 -127 Q-39 -114 -27 -119 Q-16 -124 -1.5 -127.5 Q13 -131 30 -131 Q47 -131 58 -125 Q69 -119 69 -108 Q69 -96 57.5 -89.5 Q46 -83 29 -83 Q10 -83 -9 -90 L-12 -87 L53 31 L134 31 L97 -34 L97 -34 Z " />
<glyph glyph-name="ogonekcomb" unicode="&#x328;" d="M17 -200 Q-42 -200 -80.5 -174 Q-119 -148 -119 -100 Q-119 -73 -105 -51 Q-91 -29 -67 -11.5 Q-43 6 -11.5 18.5 Q20 31 55 40 L110 9 Q50 -18 27 -42 Q4 -66 4 -88 Q4 -119 42 -119 Q51 -119 60.5 -117 Q70 -115 78 -113 Q80 -113 80.5 -112.5 Q81 -112 82 -112 Q91 -112 91 -124 L91 -171 Q91 -185 79 -189 Q54 -200 17 -200 Z " />
<glyph glyph-name="slashshortcomb" unicode="&#x337;" d="M-209 -42 Q-219 -42 -219 -36 Q-219 -33 -216 -28 L132 527 Q141 541 157 541 L208 541 Q223 541 216 527 L-133 -28 Q-140 -42 -157 -42 L-209 -42 L-209 -42 Z " />
<glyph glyph-name="slashlongcomb" unicode="&#x338;" d="M-319 -39 Q-322 -39 -320 -37 L228 731 Q232 736 238.5 740 Q245 744 253 744 L304 744 Q320 744 311 731 L-228 -26 Q-232 -31 -238.5 -35 Q-245 -39 -253 -39 L-319 -39 L-319 -39 Z " />
<glyph glyph-name="acute" unicode="&#xb4;" horiz-adv-x="500" d="M136 545 Q120 545 126 560 L212 770 Q217 786 233 780 L366 741 Q377 738 377 730 Q377 725 373 721 L254 558 Q250 553 243.5 549 Q237 545 229 545 L136 545 L136 545 Z " />
<glyph glyph-name="breve" unicode="&#x2d8;" horiz-adv-x="500" d="M250 560 Q185 560 139.5 604 Q94 648 85 725 L85 728 Q85 738 97 738 L161 737 Q173 737 177 724 Q191 671 249 671 Q307 671 322 724 Q325 737 338 737 L402 738 Q415 738 414 725 Q405 648 359.5 604 Q314 560 250 560 Z " />
<glyph glyph-name="caron" unicode="&#x2c7;" horiz-adv-x="500" d="M416 726 Q432 726 423 713 L319 549 Q313 538 299 538 L204 538 Q188 538 179 551 L75 713 Q72 717 72 720 Q72 726 82 726 L179 726 Q194 726 205 714 L253 657 L297 713 Q302 718 308.5 722 Q315 726 323 726 L416 726 L416 726 Z " />
<glyph glyph-name="cedilla" unicode="&#xb8;" horiz-adv-x="515" d="M355 -34 Q393 -37 416.5 -56 Q440 -75 440 -108 Q440 -152 402.5 -176 Q365 -200 310 -200 Q283 -200 263.5 -196.5 Q244 -193 231 -188 Q219 -184 219 -170 L219 -127 Q219 -114 231 -119 Q242 -124 256.5 -127.5 Q271 -131 288 -131 Q305 -131 316 -125 Q327 -119 327 -108 Q327 -96 315.5 -89.5 Q304 -83 287 -83 Q268 -83 249 -90 L246 -87 L311 31 L392 31 L355 -34 L355 -34 Z " />
<glyph glyph-name="circumflex" unicode="&#x2c6;" horiz-adv-x="500" d="M427 561 Q430 556 430 554 Q430 549 421 549 L329 549 Q323 549 318 551 Q313 553 308 560 L250 639 L194 560 Q188 549 174 549 L78 549 Q69 549 69 554 Q69 556 72 561 L182 735 Q188 746 202 746 L298 746 Q311 746 318 735 L427 561 L427 561 Z " />
<glyph glyph-name="dieresis" unicode="&#xa8;" horiz-adv-x="500" d="M153 586 Q121 586 101 607.5 Q81 629 81 658 Q81 688 101 709 Q121 730 153 730 Q184 730 204 709 Q224 688 224 658 Q224 629 204 607.5 Q184 586 153 586 Z M347 586 Q315 586 295 607.5 Q275 629 275 658 Q275 688 295 709 Q315 730 347 730 Q378 730 398 709 Q418 688 418 658 Q418 629 398 607.5 Q378 586 347 586 Z " />
<glyph glyph-name="dotaccent" unicode="&#x2d9;" horiz-adv-x="500" d="M252 580 Q215 580 191.5 605 Q168 630 168 665 Q168 700 191.5 725.5 Q215 751 252 751 Q289 751 313 725.5 Q337 700 337 665 Q337 630 313 605 Q289 580 252 580 Z " />
<glyph glyph-name="grave" unicode="&#x60;" horiz-adv-x="500" d="M372 560 Q373 558 373 553 Q373 545 362 545 L269 545 Q253 545 244 558 L125 721 Q121 727 121 730 Q121 738 132 741 L265 780 Q267 781 271 781 Q282 781 286 770 L372 560 L372 560 Z " />
<glyph glyph-name="hungarumlaut" unicode="&#x2dd;" horiz-adv-x="500" d="M245 546 Q229 546 234 561 L302 769 Q304 775 309.5 779 Q315 783 323 781 L460 750 Q471 748 471 740 Q471 735 468 731 L355 559 Q351 554 344.5 550 Q338 546 330 546 L245 546 Z M49 546 Q42 546 38.5 549.5 Q35 553 37 561 L92 769 Q94 775 99 778.5 Q104 782 112 780 L236 750 Q248 748 248 738 Q248 736 246 730 L162 560 Q155 546 139 546 L49 546 Z " />
<glyph glyph-name="macron" unicode="&#xaf;" horiz-adv-x="500" d="M94 592 Q78 592 78 608 L78 685 Q78 701 94 701 L405 701 Q421 701 421 685 L421 608 Q421 592 405 592 L94 592 L94 592 Z " />
<glyph glyph-name="ogonek" unicode="&#x2db;" horiz-adv-x="500" d="M274 -200 Q215 -200 176.5 -174 Q138 -148 138 -100 Q138 -73 152 -51 Q166 -29 190 -11.5 Q214 6 245.5 18.5 Q277 31 312 40 L367 9 Q307 -18 284 -42 Q261 -66 261 -88 Q261 -119 299 -119 Q308 -119 317.5 -117 Q327 -115 335 -113 Q337 -113 337.5 -112.5 Q338 -112 339 -112 Q348 -112 348 -124 L348 -171 Q348 -185 336 -189 Q311 -200 274 -200 Z " />
<glyph glyph-name="ring" unicode="&#x2da;" horiz-adv-x="500" d="M249 527 Q225 527 203 535.5 Q181 544 164 559.5 Q147 575 136.5 596 Q126 617 126 642 Q126 667 136.5 687.5 Q147 708 164 722.5 Q181 737 203 745 Q225 753 249 753 Q273 753 295 745 Q317 737 334.5 722.5 Q352 708 362.5 687.5 Q373 667 373 642 Q373 617 362.5 596 Q352 575 335 559.5 Q318 544 295.5 535.5 Q273 527 249 527 Z M249 596 Q268 596 280 608.5 Q292 621 292 641 Q292 660 280 672 Q268 684 249 684 Q231 684 219 672 Q207 660 207 641 Q207 621 219 608.5 Q231 596 249 596 Z " />
<glyph glyph-name="tilde" unicode="&#x2dc;" horiz-adv-x="500" d="M322 549 Q298 549 278 559.5 Q258 570 241 581 Q227 591 214.5 599 Q202 607 189 607 Q159 607 153 564 Q152 559 150 556 Q148 553 141 553 L69 553 Q58 553 58 564 Q59 597 67 627.5 Q75 658 89.5 680.5 Q104 703 125.5 716.5 Q147 730 177 730 Q205 730 227.5 717 Q250 704 268 692 Q282 683 292.5 676.5 Q303 670 313 670 Q340 670 343 713 Q344 718 346 721 Q348 724 355 724 L431 724 Q442 724 442 713 Q440 679 431.5 649.5 Q423 620 407.5 597.5 Q392 575 370.5 562 Q349 549 322 549 Z " />
<glyph glyph-name="A" unicode="A" horiz-adv-x="724" d="M713 15 Q714 13 714 9 Q714 0 703 0 L515 0 Q508 0 502 3.5 Q496 7 494 15 Q487 37 480 59 Q473 81 466 104 L249 104 Q242 81 235 59 Q228 37 221 15 Q219 9 213.5 4.5 Q208 0 200 0 L20 0 Q4 0 10 15 L277 695 Q279 701 285 705.5 Q291 710 299 710 L426 710 Q442 710 448 695 L713 15 Z M423 246 L359 463 Q342 409 326 354.5 Q310 300 293 246 L423 246 Z " />
<glyph glyph-name="Aacute" unicode="&#xc1;" horiz-adv-x="751" d="M713 15 Q714 13 714 9 Q714 0 703 0 L515 0 Q508 0 502 3.5 Q496 7 494 15 Q487 37 480 59 Q473 81 466 104 L249 104 Q242 81 235 59 Q228 37 221 15 Q219 9 213.5 4.5 Q208 0 200 0 L20 0 Q4 0 10 15 L277 695 Q279 701 285 705.5 Q291 710 299 710 L426 710 Q442 710 448 695 L713 15 Z M423 246 L359 463 Q342 409 326 354.5 Q310 300 293 246 L423 246 Z M302 757 Q286 757 292 772 L341 904 Q344 910 349.5 914.5 Q355 919 363 919 L520 919 Q530 919 530 914 Q530 910 526 905 L407 769 Q397 757 380 757 L302 757 L302 757 Z " />
</font>
</svg>
