<?xml version="1.0" encoding="UTF-8"?>
<svg xmlns="http://www.w3.org/2000/svg" xmlns:xlink="http://www.w3.org/1999/xlink" version="1.2" >
<font id="GlobotipoCondensada-Black">
<font-face  font-family="Globotipo Condensada" units-per-em="1000" ascent="1000" descent="-400" font-style="normal" font-weight="900" font-stretch="condensed" cap-height="710" x-height="480" underline-position="-75" underline-thickness="50" />
<missing-glyph  horiz-adv-x="700" d="M350 709 Q423 709 487.5 681 Q552 653 600 605 Q648 557 676 492.5 Q704 428 704 355 Q704 281 676 216.5 Q648 152 600 104 Q552 56 487.5 28 Q423 0 350 0 Q276 0 211.5 28 Q147 56 99 104 Q51 152 23 216.5 Q-5 281 -5 355 Q-5 428 23 492.5 Q51 557 99 605 Q147 653 211.5 681 Q276 709 350 709 Z M350 20 Q419 20 480 46.5 Q541 73 586 118.5 Q631 164 657.5 225 Q684 286 684 355 Q684 424 657.5 485 Q631 546 586 591 Q541 636 480 662.5 Q419 689 350 689 Q281 689 220 662.5 Q159 636 113.5 591 Q68 546 41.5 485 Q15 424 15 355 Q15 286 41.5 225 Q68 164 113.5 118.5 Q159 73 220 46.5 Q281 20 350 20 Z M569 559 L364 354 L569 149 L555 135 L350 340 L145 135 L131 149 L336 354 L131 559 L145 573 L350 368 L555 573 L569 559 Z " />
<glyph glyph-name=".null" d="" />
<glyph glyph-name="nonmarkingreturn" unicode="&#xd;" horiz-adv-x="185" d="" />
<glyph glyph-name="space" unicode="&#x20;" horiz-adv-x="185" d="" />
<glyph glyph-name="Adieresis" unicode="&#xc4;" horiz-adv-x="677" d="M655 14 Q656 12 656 8 Q656 0 645 0 L454 0 Q439 0 435 15 Q430 34 425.5 53.5 Q421 73 416 93 L246 93 Q241 73 236.5 53.5 Q232 34 227 15 Q222 0 208 0 L25 0 Q9 0 15 14 L247 697 Q252 711 267 711 L406 711 Q420 711 426 697 L655 14 Z M383 233 Q369 288 356.5 342 Q344 396 331 448 Q317 396 304.5 342 Q292 288 279 233 L383 233 Z M231 771 Q199 771 179 794 Q159 817 159 846 Q159 876 179 898 Q199 920 231 920 Q262 920 281.5 898 Q301 876 301 846 Q301 817 281.5 794 Q262 771 231 771 Z M442 771 Q410 771 390 794 Q370 817 370 846 Q370 876 390 898 Q410 920 442 920 Q473 920 492.5 898 Q512 876 512 846 Q512 817 492.5 794 Q473 771 442 771 Z " />
<glyph glyph-name="Agrave" unicode="&#xc0;" horiz-adv-x="677" d="M655 14 Q656 12 656 8 Q656 0 645 0 L454 0 Q439 0 435 15 Q430 34 425.5 53.5 Q421 73 416 93 L246 93 Q241 73 236.5 53.5 Q232 34 227 15 Q222 0 208 0 L25 0 Q9 0 15 14 L247 697 Q252 711 267 711 L406 711 Q420 711 426 697 L655 14 Z M383 233 Q369 288 356.5 342 Q344 396 331 448 Q317 396 304.5 342 Q292 288 279 233 L383 233 Z M383 778 Q384 776 384 772 Q384 764 373 764 L286 764 Q271 764 261 775 L140 917 Q133 924 133 930 Q133 937 149 937 L309 936 Q323 936 329 922 L383 778 L383 778 Z " />
<glyph glyph-name="Aring" unicode="&#xc5;" horiz-adv-x="677" d="M655 14 Q656 12 656 8 Q656 0 645 0 L454 0 Q439 0 435 15 Q430 34 425.5 53.5 Q421 73 416 93 L246 93 Q241 73 236.5 53.5 Q232 34 227 15 Q222 0 208 0 L25 0 Q9 0 15 14 L247 697 Q252 711 267 711 L406 711 Q420 711 426 697 L655 14 Z M383 233 Q369 288 356.5 342 Q344 396 331 448 Q317 396 304.5 342 Q292 288 279 233 L383 233 Z M335 749 Q311 749 288 758 Q265 767 248 782.5 Q231 798 220.5 819.5 Q210 841 210 866 Q210 891 220.5 912.5 Q231 934 248 949.5 Q265 965 288 973.5 Q311 982 335 982 Q359 982 382 973.5 Q405 965 422 949.5 Q439 934 449.5 912.5 Q460 891 460 866 Q460 841 449.5 819.5 Q439 798 422 782.5 Q405 767 382 758 Q359 749 335 749 Z M335 821 Q354 821 366.5 833.5 Q379 846 379 866 Q379 885 366.5 897 Q354 909 335 909 Q315 909 303 896.5 Q291 884 291 866 Q291 846 303 833.5 Q315 821 335 821 Z " />
<glyph glyph-name="Atilde" unicode="&#xc3;" horiz-adv-x="677" d="M655 14 Q656 12 656 8 Q656 0 645 0 L454 0 Q439 0 435 15 Q430 34 425.5 53.5 Q421 73 416 93 L246 93 Q241 73 236.5 53.5 Q232 34 227 15 Q222 0 208 0 L25 0 Q9 0 15 14 L247 697 Q252 711 267 711 L406 711 Q420 711 426 697 L655 14 Z M383 233 Q369 288 356.5 342 Q344 396 331 448 Q317 396 304.5 342 Q292 288 279 233 L383 233 Z M270 812 Q249 812 242 786 Q237 774 227 774 L163 774 Q151 774 152 787 Q155 821 162 850 Q169 879 181.5 900.5 Q194 922 212.5 934 Q231 946 257 946 Q283 946 303.5 934.5 Q324 923 341 913 Q352 907 360.5 902.5 Q369 898 378 898 Q389 898 394.5 906 Q400 914 403 926 Q405 938 416 938 L488 938 Q500 938 499 925 Q497 891 490 861.5 Q483 832 470 810.5 Q457 789 438.5 777 Q420 765 395 765 Q372 765 351.5 776 Q331 787 313 796 Q300 803 290.5 807.5 Q281 812 270 812 Z " />
<glyph glyph-name="AE" unicode="&#xc6;" horiz-adv-x="856" d="M607 564 L607 434 L771 434 Q786 434 786 419 L786 303 Q786 288 771 288 L607 288 L607 146 L806 146 Q821 146 821 131 L821 15 Q821 0 806 0 L438 0 Q423 0 423 15 L423 112 L255 112 L216 14 Q209 0 195 0 L35 0 Q14 0 14 15 Q14 19 17 27 L323 696 Q329 710 344 710 L806 710 Q821 710 821 695 L821 579 Q821 564 806 564 L607 564 Z M423 250 L423 529 L311 250 L423 250 Z " />
<glyph glyph-name="B" unicode="B" horiz-adv-x="591" d="M413 379 Q492 364 533 320 Q574 276 574 211 Q574 160 552 120.5 Q530 81 489.5 54.5 Q449 28 392 14 Q335 0 266 0 L71 0 Q56 0 56 15 L56 695 Q56 710 71 710 L270 710 Q332 710 382 699 Q432 688 467 665.5 Q502 643 521 609 Q540 575 540 529 Q540 474 507 433.5 Q474 393 413 381 L413 379 Z M350 505 Q350 575 261 575 L254 575 L254 430 L259 430 Q350 430 350 505 Z M261 137 Q368 137 368 219 Q368 257 341.5 277 Q315 297 262 297 L254 297 L254 137 L261 137 Z " />
<glyph glyph-name="C" unicode="C" horiz-adv-x="548" d="M344 -9 Q282 -9 226 16 Q170 41 127 88 Q84 135 58.5 202 Q33 269 33 354 Q33 440 59.5 508 Q86 576 131 623 Q176 670 236.5 695 Q297 720 365 720 Q403 720 437.5 713 Q472 706 496 696 Q510 691 510 675 L510 536 Q510 518 500 518 Q495 518 485 523 Q465 533 440.5 538.5 Q416 544 390 544 Q355 544 327 531 Q299 518 279.5 493.5 Q260 469 249 434 Q238 399 238 356 Q238 312 249.5 277.5 Q261 243 281 219 Q301 195 328.5 182.5 Q356 170 388 170 Q417 170 444.5 177 Q472 184 493 195 Q503 200 508 200 Q518 200 518 182 L518 47 Q518 31 505 25 Q474 10 432 0.5 Q390 -9 344 -9 Z " />
<glyph glyph-name="Ccedilla" unicode="&#xc7;" horiz-adv-x="548" d="M493 195 Q503 200 508 200 Q518 200 518 182 L518 47 Q518 31 505 25 Q479 13 446 4 Q413 -5 376 -8 L364 -29 Q395 -35 414.5 -54 Q434 -73 434 -104 Q434 -143 400.5 -168.5 Q367 -194 307 -194 Q286 -194 269.5 -192 Q253 -190 242 -187 Q230 -182 230 -169 L230 -125 Q230 -112 242 -115 Q253 -118 265.5 -120 Q278 -122 290 -122 Q303 -122 313 -117.5 Q323 -113 323 -104 Q323 -94 312 -89 Q301 -84 284 -84 Q269 -84 257 -88 L254 -84 L294 -5 Q240 4 192.5 33 Q145 62 109.5 108 Q74 154 53.5 216 Q33 278 33 354 Q33 440 59.5 508 Q86 576 131 623 Q176 670 236.5 695 Q297 720 365 720 Q403 720 437.5 713 Q472 706 496 696 Q510 691 510 675 L510 536 Q510 518 500 518 Q495 518 485 523 Q465 533 440.5 538.5 Q416 544 390 544 Q355 544 327 531 Q299 518 279.5 493.5 Q260 469 249 434 Q238 399 238 356 Q238 312 249.5 277.5 Q261 243 281 219 Q301 195 328.5 182.5 Q356 170 388 170 Q417 170 444.5 177 Q472 184 493 195 Z " />
<glyph glyph-name="D" unicode="D" horiz-adv-x="663" d="M56 695 Q56 710 71 710 L244 710 Q335 710 407 683.5 Q479 657 528.5 610 Q578 563 604 498 Q630 433 630 356 Q630 278 604 212.5 Q578 147 528.5 99.5 Q479 52 407 26 Q335 0 244 0 L71 0 Q56 0 56 15 L56 695 Z M257 549 L257 161 L259 162 Q301 162 332 176 Q363 190 383.5 215.5 Q404 241 414 276.5 Q424 312 424 355 Q424 398 414 433.5 Q404 469 383.5 494.5 Q363 520 332 534 Q301 548 259 548 L257 549 Z " />
<glyph glyph-name="Eth" unicode="&#xd0;" horiz-adv-x="678" d="M244 710 Q335 710 407 683.5 Q479 657 528.5 610 Q578 563 604 498 Q630 433 630 356 Q630 278 604 212.5 Q578 147 528.5 99.5 Q479 52 407 26 Q335 0 244 0 L71 0 Q56 0 56 15 L56 277 L20 277 Q5 277 5 292 L5 417 Q5 432 20 432 L56 432 L56 695 Q56 710 71 710 L244 710 Z M259 162 Q301 162 332 176 Q363 190 383.5 215.5 Q404 241 414 276.5 Q424 312 424 355 Q424 398 414 433.5 Q404 469 383.5 494.5 Q363 520 332 534 Q301 548 259 548 L257 549 L257 419 L329 419 Q344 419 344 404 L344 305 Q344 290 329 290 L257 290 L257 161 L259 162 Z " />
<glyph glyph-name="E" unicode="E" horiz-adv-x="509" d="M263 549 L263 440 L422 440 Q437 440 437 425 L437 294 Q437 279 422 279 L263 279 L263 161 L458 161 Q473 161 473 146 L473 15 Q473 0 458 0 L71 0 Q56 0 56 15 L56 695 Q56 710 71 710 L458 710 Q473 710 473 695 L473 564 Q473 549 458 549 L263 549 Z " />
<glyph glyph-name="Eacute" unicode="&#xc9;" horiz-adv-x="508" d="M263 549 L263 440 L422 440 Q437 440 437 425 L437 294 Q437 279 422 279 L263 279 L263 161 L458 161 Q473 161 473 146 L473 15 Q473 0 458 0 L71 0 Q56 0 56 15 L56 695 Q56 710 71 710 L458 710 Q473 710 473 695 L473 564 Q473 549 458 549 L263 549 Z M213 755 Q197 755 203 769 L256 913 Q261 927 276 927 L447 928 Q463 928 463 921 Q463 916 456 908 L325 766 Q316 755 300 755 L213 755 L213 755 Z " />
<glyph glyph-name="Ecircumflex" unicode="&#xca;" horiz-adv-x="508" d="M263 549 L263 440 L422 440 Q437 440 437 425 L437 294 Q437 279 422 279 L263 279 L263 161 L458 161 Q473 161 473 146 L473 15 Q473 0 458 0 L71 0 Q56 0 56 15 L56 695 Q56 710 71 710 L458 710 Q473 710 473 695 L473 564 Q473 549 458 549 L263 549 Z M432 771 Q435 765 435 762 Q435 755 423 755 L330 755 Q318 755 309 765 L261 826 L213 765 Q205 755 192 755 L98 755 Q86 755 86 762 Q86 765 89 771 L184 917 Q190 928 204 928 L317 928 Q330 928 337 917 L432 771 L432 771 Z " />
<glyph glyph-name="Edieresis" unicode="&#xcb;" horiz-adv-x="508" d="M263 549 L263 440 L422 440 Q437 440 437 425 L437 294 Q437 279 422 279 L263 279 L263 161 L458 161 Q473 161 473 146 L473 15 Q473 0 458 0 L71 0 Q56 0 56 15 L56 695 Q56 710 71 710 L458 710 Q473 710 473 695 L473 564 Q473 549 458 549 L263 549 Z M157 771 Q125 771 105 794 Q85 817 85 846 Q85 876 105 898 Q125 920 157 920 Q188 920 207.5 898 Q227 876 227 846 Q227 817 207.5 794 Q188 771 157 771 Z M368 771 Q336 771 316 794 Q296 817 296 846 Q296 876 316 898 Q336 920 368 920 Q399 920 418.5 898 Q438 876 438 846 Q438 817 418.5 794 Q399 771 368 771 Z " />
<glyph glyph-name="Egrave" unicode="&#xc8;" horiz-adv-x="508" d="M263 549 L263 440 L422 440 Q437 440 437 425 L437 294 Q437 279 422 279 L263 279 L263 161 L458 161 Q473 161 473 146 L473 15 Q473 0 458 0 L71 0 Q56 0 56 15 L56 695 Q56 710 71 710 L458 710 Q473 710 473 695 L473 564 Q473 549 458 549 L263 549 Z M309 778 Q310 776 310 772 Q310 764 299 764 L212 764 Q197 764 187 775 L66 917 Q59 924 59 930 Q59 937 75 937 L235 936 Q249 936 255 922 L309 778 L309 778 Z " />
<glyph glyph-name="F" unicode="F" horiz-adv-x="485" d="M444 710 Q459 710 459 695 L459 564 Q459 549 444 549 L263 549 L263 398 L418 398 Q433 398 433 383 L433 253 Q433 238 418 238 L263 238 L263 15 Q263 0 248 0 L71 0 Q56 0 56 15 L56 695 Q56 710 71 710 L444 710 L444 710 Z " />
<glyph glyph-name="G" unicode="G" horiz-adv-x="644" d="M345 -8 Q280 -8 223.5 16.5 Q167 41 124.5 87.5 Q82 134 57.5 200.5 Q33 267 33 350 Q33 438 61 507 Q89 576 137 623.5 Q185 671 249 695.5 Q313 720 386 720 Q425 720 469 711.5 Q513 703 544 689 Q558 684 558 668 L557 546 Q557 524 542 524 Q536 524 529 527 Q500 537 465.5 543.5 Q431 550 400 550 Q323 550 280.5 497 Q238 444 238 357 Q238 270 267.5 216.5 Q297 163 350 163 Q393 163 419.5 192 Q446 221 448 278 L362 278 Q347 278 347 293 L347 415 Q347 430 362 430 L598 430 Q613 430 617 416 Q622 396 624.5 372 Q627 348 627 319 Q627 247 607.5 186.5 Q588 126 551.5 83 Q515 40 462.5 16 Q410 -8 345 -8 Z " />
<glyph glyph-name="H" unicode="H" horiz-adv-x="689" d="M618 710 Q633 710 633 695 L633 15 Q633 0 618 0 L447 0 Q432 0 432 15 L432 276 L257 276 L257 15 Q257 0 242 0 L71 0 Q56 0 56 15 L56 695 Q56 710 71 710 L242 710 Q257 710 257 695 L257 433 L432 433 L432 695 Q432 710 447 710 L618 710 L618 710 Z " />
<glyph glyph-name="I" unicode="I" horiz-adv-x="335" d="M75 0 Q60 0 60 15 L60 695 Q60 710 75 710 L260 710 Q275 710 275 695 L275 15 Q275 0 260 0 L75 0 L75 0 Z " />
<glyph glyph-name="Iacute" unicode="&#xcd;" horiz-adv-x="335" d="M75 0 Q60 0 60 15 L60 695 Q60 710 75 710 L260 710 Q275 710 275 695 L275 15 Q275 0 260 0 L75 0 L75 0 Z M120 755 Q104 755 110 769 L163 913 Q168 927 183 927 L354 928 Q370 928 370 921 Q370 916 363 908 L232 766 Q223 755 207 755 L120 755 L120 755 Z " />
<glyph glyph-name="Icircumflex" unicode="&#xce;" horiz-adv-x="335" d="M75 0 Q60 0 60 15 L60 695 Q60 710 75 710 L260 710 Q275 710 275 695 L275 15 Q275 0 260 0 L75 0 L75 0 Z M339 771 Q342 765 342 762 Q342 755 330 755 L237 755 Q225 755 216 765 L168 826 L120 765 Q112 755 99 755 L5 755 Q-7 755 -7 762 Q-7 765 -4 771 L91 917 Q97 928 111 928 L224 928 Q237 928 244 917 L339 771 L339 771 Z " />
<glyph glyph-name="Idieresis" unicode="&#xcf;" horiz-adv-x="335" d="M75 0 Q60 0 60 15 L60 695 Q60 710 75 710 L260 710 Q275 710 275 695 L275 15 Q275 0 260 0 L75 0 L75 0 Z M64 771 Q32 771 12 794 Q-8 817 -8 846 Q-8 876 12 898 Q32 920 64 920 Q95 920 114.5 898 Q134 876 134 846 Q134 817 114.5 794 Q95 771 64 771 Z M275 771 Q243 771 223 794 Q203 817 203 846 Q203 876 223 898 Q243 920 275 920 Q306 920 325.5 898 Q345 876 345 846 Q345 817 325.5 794 Q306 771 275 771 Z " />
<glyph glyph-name="Igrave" unicode="&#xcc;" horiz-adv-x="335" d="M75 0 Q60 0 60 15 L60 695 Q60 710 75 710 L260 710 Q275 710 275 695 L275 15 Q275 0 260 0 L75 0 L75 0 Z M216 778 Q217 776 217 772 Q217 764 206 764 L119 764 Q104 764 94 775 L-27 917 Q-34 924 -34 930 Q-34 937 -18 937 L142 936 Q156 936 162 922 L216 778 L216 778 Z " />
<glyph glyph-name="J" unicode="J" horiz-adv-x="435" d="M140 -8 Q108 -8 80 -3.5 Q52 1 31 9 Q18 14 18 30 L18 160 Q18 171 26 171 Q29 171 34 170 Q39 169 47 167 Q58 164 72.5 161.5 Q87 159 102 159 Q136 159 156 181.5 Q176 204 176 250 L176 696 Q176 711 190 711 L369 711 Q384 711 384 696 L384 255 Q384 190 366.5 141 Q349 92 316.5 59 Q284 26 239 9 Q194 -8 140 -8 Z " />
<glyph glyph-name="K" unicode="K" horiz-adv-x="677" d="M672 26 Q677 18 677 12 Q677 0 657 0 L448 0 Q433 0 427 14 L271 341 L271 15 Q271 0 256 0 L71 0 Q56 0 56 15 L56 695 Q56 710 71 710 L256 710 Q271 710 271 695 L271 378 L428 697 Q434 710 450 710 L652 710 Q672 710 672 698 Q672 692 667 684 L473 363 L672 26 L672 26 Z " />
<glyph glyph-name="L" unicode="L" horiz-adv-x="508" d="M471 175 Q486 175 486 160 L486 15 Q486 0 471 0 L71 0 Q56 0 56 15 L56 695 Q56 710 71 710 L250 710 Q265 710 265 695 L265 175 L471 175 L471 175 Z " />
<glyph glyph-name="Lslash" unicode="&#x141;" horiz-adv-x="508" d="M471 175 Q486 175 486 160 L486 15 Q486 0 471 0 L71 0 Q56 0 56 15 L56 271 L18 255 Q14 253 11 253 Q4 253 4 264 L4 340 Q4 355 18 361 L56 377 L56 695 Q56 710 71 710 L250 710 Q265 710 265 695 L265 465 L315 486 Q319 488 322 488 Q329 488 329 477 L329 401 Q329 386 315 380 L265 359 L265 175 L471 175 L471 175 Z " />
<glyph glyph-name="M" unicode="M" horiz-adv-x="847" d="M831 15 Q831 13 831.5 12.5 Q832 12 832 10 Q832 0 819 0 L633 0 Q618 0 617 15 L585 365 L497 17 Q492 2 478 2 L371 2 Q356 2 352 16 L253 367 L211 15 Q209 0 194 0 L29 0 Q15 0 16 15 L126 695 Q128 710 143 710 L303 710 Q318 710 322 696 L430 300 L530 695 Q535 710 549 710 L696 710 Q711 710 714 695 L831 15 L831 15 Z " />
<glyph glyph-name="N" unicode="N" horiz-adv-x="700" d="M629 710 Q644 710 644 695 L644 15 Q644 0 629 0 L500 0 Q485 0 477 12 L243 361 L243 15 Q243 0 228 0 L71 0 Q56 0 56 15 L56 695 Q56 710 71 710 L200 710 Q215 710 223 697 L458 336 L458 695 Q458 710 473 710 L629 710 L629 710 Z " />
<glyph glyph-name="Ntilde" unicode="&#xd1;" horiz-adv-x="700" d="M629 710 Q644 710 644 695 L644 15 Q644 0 629 0 L500 0 Q485 0 477 12 L243 361 L243 15 Q243 0 228 0 L71 0 Q56 0 56 15 L56 695 Q56 710 71 710 L200 710 Q215 710 223 697 L458 336 L458 695 Q458 710 473 710 L629 710 L629 710 Z M290 812 Q269 812 262 786 Q257 774 247 774 L183 774 Q171 774 172 787 Q175 821 182 850 Q189 879 201.5 900.5 Q214 922 232.5 934 Q251 946 277 946 Q303 946 323.5 934.5 Q344 923 361 913 Q372 907 380.5 902.5 Q389 898 398 898 Q409 898 414.5 906 Q420 914 423 926 Q425 938 436 938 L508 938 Q520 938 519 925 Q517 891 510 861.5 Q503 832 490 810.5 Q477 789 458.5 777 Q440 765 415 765 Q392 765 371.5 776 Q351 787 333 796 Q320 803 310.5 807.5 Q301 812 290 812 Z " />
<glyph glyph-name="O" unicode="O" horiz-adv-x="692" d="M346 -8 Q283 -8 226 16.5 Q169 41 126.5 88 Q84 135 58.5 202 Q33 269 33 355 Q33 441 58.5 509 Q84 577 126.5 624 Q169 671 226 695.5 Q283 720 346 720 Q409 720 465.5 695.5 Q522 671 565 624 Q608 577 633.5 509 Q659 441 659 355 Q659 269 633.5 202 Q608 135 565.5 88 Q523 41 466 16.5 Q409 -8 346 -8 Z M346 169 Q375 169 396 185 Q417 201 430.5 227 Q444 253 450.5 286.5 Q457 320 457 355 Q457 391 450.5 424.5 Q444 458 430.5 484.5 Q417 511 396 527 Q375 543 346 543 Q317 543 296 527 Q275 511 261.5 484.5 Q248 458 242 424.5 Q236 391 236 355 Q236 320 242 286.5 Q248 253 261.5 227 Q275 201 296 185 Q317 169 346 169 Z " />
<glyph glyph-name="Oacute" unicode="&#xd3;" horiz-adv-x="693" d="M346 -8 Q283 -8 226 16.5 Q169 41 126.5 88 Q84 135 58.5 202 Q33 269 33 355 Q33 441 58.5 509 Q84 577 126.5 624 Q169 671 226 695.5 Q283 720 346 720 Q409 720 465.5 695.5 Q522 671 565 624 Q608 577 633.5 509 Q659 441 659 355 Q659 269 633.5 202 Q608 135 565.5 88 Q523 41 466 16.5 Q409 -8 346 -8 Z M346 169 Q375 169 396 185 Q417 201 430.5 227 Q444 253 450.5 286.5 Q457 320 457 355 Q457 391 450.5 424.5 Q444 458 430.5 484.5 Q417 511 396 527 Q375 543 346 543 Q317 543 296 527 Q275 511 261.5 484.5 Q248 458 242 424.5 Q236 391 236 355 Q236 320 242 286.5 Q248 253 261.5 227 Q275 201 296 185 Q317 169 346 169 Z M298 755 Q282 755 288 769 L341 913 Q346 927 361 927 L532 928 Q548 928 548 921 Q548 916 541 908 L410 766 Q401 755 385 755 L298 755 L298 755 Z " />
<glyph glyph-name="Ocircumflex" unicode="&#xd4;" horiz-adv-x="693" d="M346 -8 Q283 -8 226 16.5 Q169 41 126.5 88 Q84 135 58.5 202 Q33 269 33 355 Q33 441 58.5 509 Q84 577 126.5 624 Q169 671 226 695.5 Q283 720 346 720 Q409 720 465.5 695.5 Q522 671 565 624 Q608 577 633.5 509 Q659 441 659 355 Q659 269 633.5 202 Q608 135 565.5 88 Q523 41 466 16.5 Q409 -8 346 -8 Z M346 169 Q375 169 396 185 Q417 201 430.5 227 Q444 253 450.5 286.5 Q457 320 457 355 Q457 391 450.5 424.5 Q444 458 430.5 484.5 Q417 511 396 527 Q375 543 346 543 Q317 543 296 527 Q275 511 261.5 484.5 Q248 458 242 424.5 Q236 391 236 355 Q236 320 242 286.5 Q248 253 261.5 227 Q275 201 296 185 Q317 169 346 169 Z M517 771 Q520 765 520 762 Q520 755 508 755 L415 755 Q403 755 394 765 L346 826 L298 765 Q290 755 277 755 L183 755 Q171 755 171 762 Q171 765 174 771 L269 917 Q275 928 289 928 L402 928 Q415 928 422 917 L517 771 L517 771 Z " />
<glyph glyph-name="Odieresis" unicode="&#xd6;" horiz-adv-x="693" d="M346 -8 Q283 -8 226 16.5 Q169 41 126.5 88 Q84 135 58.5 202 Q33 269 33 355 Q33 441 58.5 509 Q84 577 126.5 624 Q169 671 226 695.5 Q283 720 346 720 Q409 720 465.5 695.5 Q522 671 565 624 Q608 577 633.5 509 Q659 441 659 355 Q659 269 633.5 202 Q608 135 565.5 88 Q523 41 466 16.5 Q409 -8 346 -8 Z M346 169 Q375 169 396 185 Q417 201 430.5 227 Q444 253 450.5 286.5 Q457 320 457 355 Q457 391 450.5 424.5 Q444 458 430.5 484.5 Q417 511 396 527 Q375 543 346 543 Q317 543 296 527 Q275 511 261.5 484.5 Q248 458 242 424.5 Q236 391 236 355 Q236 320 242 286.5 Q248 253 261.5 227 Q275 201 296 185 Q317 169 346 169 Z M242 771 Q210 771 190 794 Q170 817 170 846 Q170 876 190 898 Q210 920 242 920 Q273 920 292.5 898 Q312 876 312 846 Q312 817 292.5 794 Q273 771 242 771 Z M453 771 Q421 771 401 794 Q381 817 381 846 Q381 876 401 898 Q421 920 453 920 Q484 920 503.5 898 Q523 876 523 846 Q523 817 503.5 794 Q484 771 453 771 Z " />
<glyph glyph-name="Ograve" unicode="&#xd2;" horiz-adv-x="693" d="M346 -8 Q283 -8 226 16.5 Q169 41 126.5 88 Q84 135 58.5 202 Q33 269 33 355 Q33 441 58.5 509 Q84 577 126.5 624 Q169 671 226 695.5 Q283 720 346 720 Q409 720 465.5 695.5 Q522 671 565 624 Q608 577 633.5 509 Q659 441 659 355 Q659 269 633.5 202 Q608 135 565.5 88 Q523 41 466 16.5 Q409 -8 346 -8 Z M346 169 Q375 169 396 185 Q417 201 430.5 227 Q444 253 450.5 286.5 Q457 320 457 355 Q457 391 450.5 424.5 Q444 458 430.5 484.5 Q417 511 396 527 Q375 543 346 543 Q317 543 296 527 Q275 511 261.5 484.5 Q248 458 242 424.5 Q236 391 236 355 Q236 320 242 286.5 Q248 253 261.5 227 Q275 201 296 185 Q317 169 346 169 Z M394 778 Q395 776 395 772 Q395 764 384 764 L297 764 Q282 764 272 775 L151 917 Q144 924 144 930 Q144 937 160 937 L320 936 Q334 936 340 922 L394 778 L394 778 Z " />
<glyph glyph-name="Oslash" unicode="&#xd8;" horiz-adv-x="693" d="M573 615 Q613 568 636 503 Q659 438 659 355 Q659 269 633.5 202 Q608 135 565.5 88 Q523 41 466 16.5 Q409 -8 346 -8 Q300 -8 258 5 Q216 18 179 43 L151 3 Q141 -9 127 -9 L59 -9 Q47 -9 54 1 L120 96 Q79 143 56 208 Q33 273 33 355 Q33 441 58.5 509 Q84 577 126.5 624 Q169 671 226 695.5 Q283 720 346 720 Q439 720 515 668 L541 706 Q551 718 565 718 L630 718 Q640 718 640 713 Q640 712 636 706 L573 615 Z M236 355 Q236 315 244 277 L409 515 Q384 543 346 543 Q317 543 296 527 Q275 511 261.5 484.5 Q248 458 242 424.5 Q236 391 236 355 Z M346 169 Q375 169 396 185 Q417 201 430.5 227 Q444 253 450.5 286.5 Q457 320 457 355 Q457 394 449 434 L284 196 Q309 169 346 169 Z " />
<glyph glyph-name="Otilde" unicode="&#xd5;" horiz-adv-x="693" d="M346 -8 Q283 -8 226 16.5 Q169 41 126.5 88 Q84 135 58.5 202 Q33 269 33 355 Q33 441 58.5 509 Q84 577 126.5 624 Q169 671 226 695.5 Q283 720 346 720 Q409 720 465.5 695.5 Q522 671 565 624 Q608 577 633.5 509 Q659 441 659 355 Q659 269 633.5 202 Q608 135 565.5 88 Q523 41 466 16.5 Q409 -8 346 -8 Z M346 169 Q375 169 396 185 Q417 201 430.5 227 Q444 253 450.5 286.5 Q457 320 457 355 Q457 391 450.5 424.5 Q444 458 430.5 484.5 Q417 511 396 527 Q375 543 346 543 Q317 543 296 527 Q275 511 261.5 484.5 Q248 458 242 424.5 Q236 391 236 355 Q236 320 242 286.5 Q248 253 261.5 227 Q275 201 296 185 Q317 169 346 169 Z M281 812 Q260 812 253 786 Q248 774 238 774 L174 774 Q162 774 163 787 Q166 821 173 850 Q180 879 192.5 900.5 Q205 922 223.5 934 Q242 946 268 946 Q294 946 314.5 934.5 Q335 923 352 913 Q363 907 371.5 902.5 Q380 898 389 898 Q400 898 405.5 906 Q411 914 414 926 Q416 938 427 938 L499 938 Q511 938 510 925 Q508 891 501 861.5 Q494 832 481 810.5 Q468 789 449.5 777 Q431 765 406 765 Q383 765 362.5 776 Q342 787 324 796 Q311 803 301.5 807.5 Q292 812 281 812 Z " />
<glyph glyph-name="OE" unicode="&#x152;" horiz-adv-x="876" d="M647 551 L647 439 L789 439 Q804 439 804 424 L804 295 Q804 280 789 280 L647 280 L647 159 L826 159 Q841 159 841 144 L841 15 Q841 0 826 0 L439 0 Q356 0 282.5 24 Q209 48 153.5 93.5 Q98 139 65.5 205 Q33 271 33 356 Q33 440 65.5 506 Q98 572 153.5 617.5 Q209 663 282.5 686.5 Q356 710 439 710 L826 710 Q841 710 841 695 L841 566 Q841 551 826 551 L647 551 Z M440 541 Q354 541 305.5 493 Q257 445 257 356 Q257 266 305.5 217.5 Q354 169 440 169 L440 541 Z " />
<glyph glyph-name="P" unicode="P" horiz-adv-x="596" d="M277 710 Q342 710 398 694 Q454 678 495 648 Q536 618 559 574.5 Q582 531 582 475 Q582 421 559.5 377.5 Q537 334 495.5 303.5 Q454 273 397 256.5 Q340 240 271 240 L265 240 L265 15 Q265 0 250 0 L71 0 Q56 0 56 15 L56 695 Q56 710 71 710 L277 710 Z M267 388 Q317 388 343.5 412 Q370 436 370 475 Q370 515 343.5 538.5 Q317 562 269 562 L265 562 L265 388 L267 388 Z " />
<glyph glyph-name="Thorn" unicode="&#xde;" horiz-adv-x="596" d="M277 584 Q342 584 398 568 Q454 552 495 522 Q536 492 559 448.5 Q582 405 582 349 Q582 295 559.5 251.5 Q537 208 495.5 177.5 Q454 147 397 130.5 Q340 114 271 114 L265 114 L265 15 Q265 0 250 0 L71 0 Q56 0 56 15 L56 695 Q56 710 71 710 L250 710 Q265 710 265 695 L265 584 L277 584 Z M267 262 Q317 262 343.5 285.5 Q370 309 370 349 Q370 389 343.5 412.5 Q317 436 269 436 L265 436 L265 262 L267 262 Z " />
<glyph glyph-name="Q" unicode="Q" horiz-adv-x="693" d="M664 -23 Q668 -29 668 -33 Q668 -39 661 -43 L549 -120 Q544 -123 540 -123 Q534 -123 528 -116 L440 7 Q395 -8 346 -8 Q283 -8 226 16.5 Q169 41 126.5 88 Q84 135 58.5 202 Q33 269 33 355 Q33 441 58.5 509 Q84 577 126.5 624 Q169 671 226 695.5 Q283 720 346 720 Q409 720 465.5 695.5 Q522 671 565 624 Q608 577 633.5 509 Q659 441 659 355 Q659 274 636.5 210 Q614 146 576 100 L664 -23 Z M236 355 Q236 320 242 286.5 Q248 253 261.5 227 Q275 201 296 185 Q317 169 346 169 Q375 169 396 185 Q417 201 430.5 227 Q444 253 450.5 286.5 Q457 320 457 355 Q457 391 450.5 424.5 Q444 458 430.5 484.5 Q417 511 396 527 Q375 543 346 543 Q317 543 296 527 Q275 511 261.5 484.5 Q248 458 242 424.5 Q236 391 236 355 Z " />
<glyph glyph-name="R" unicode="R" horiz-adv-x="636" d="M615 24 Q620 18 620 11 Q620 0 602 0 L413 0 Q397 0 391 13 L255 257 L255 15 Q255 0 240 0 L71 0 Q56 0 56 15 L56 695 Q56 710 71 710 L281 710 Q346 710 399.5 695.5 Q453 681 490.5 653 Q528 625 548.5 584 Q569 543 569 491 Q569 423 534 373 Q499 323 434 300 L615 24 Z M255 563 L255 381 L259 381 Q313 381 338.5 405.5 Q364 430 364 473 Q364 515 337 539 Q310 563 259 563 L255 563 Z " />
<glyph glyph-name="S" unicode="S" horiz-adv-x="536" d="M246 -10 Q196 -10 144.5 -0.5 Q93 9 54 27 Q41 34 41 48 L41 191 Q41 200 47 200 Q51 200 54 198 Q93 178 134.5 166 Q176 154 216 154 Q254 154 276.5 168.5 Q299 183 299 211 Q299 235 281.5 250 Q264 265 226 281 Q186 297 152 317 Q118 337 93 363 Q68 389 53.5 423 Q39 457 39 501 Q39 554 60 595 Q81 636 117 663.5 Q153 691 200 705.5 Q247 720 299 720 Q339 720 379 714.5 Q419 709 451 698 Q465 693 465 679 L465 551 Q465 540 458 540 Q456 540 452 542 Q423 553 387.5 559.5 Q352 566 326 566 Q291 566 271.5 552 Q252 538 252 515 Q252 499 258.5 487.5 Q265 476 277 467 Q289 458 305.5 449.5 Q322 441 342 432 Q381 413 412 392.5 Q443 372 464.5 347 Q486 322 497.5 290.5 Q509 259 509 218 Q509 168 490.5 126.5 Q472 85 438 54.5 Q404 24 355.5 7 Q307 -10 246 -10 Z " />
<glyph glyph-name="Scaron" unicode="&#x160;" horiz-adv-x="536" d="M246 -10 Q196 -10 144.5 -0.5 Q93 9 54 27 Q41 34 41 48 L41 191 Q41 200 47 200 Q51 200 54 198 Q93 178 134.5 166 Q176 154 216 154 Q254 154 276.5 168.5 Q299 183 299 211 Q299 235 281.5 250 Q264 265 226 281 Q186 297 152 317 Q118 337 93 363 Q68 389 53.5 423 Q39 457 39 501 Q39 554 60 595 Q81 636 117 663.5 Q153 691 200 705.5 Q247 720 299 720 Q339 720 379 714.5 Q419 709 451 698 Q465 693 465 679 L465 551 Q465 540 458 540 Q456 540 452 542 Q423 553 387.5 559.5 Q352 566 326 566 Q291 566 271.5 552 Q252 538 252 515 Q252 499 258.5 487.5 Q265 476 277 467 Q289 458 305.5 449.5 Q322 441 342 432 Q381 413 412 392.5 Q443 372 464.5 347 Q486 322 497.5 290.5 Q509 259 509 218 Q509 168 490.5 126.5 Q472 85 438 54.5 Q404 24 355.5 7 Q307 -10 246 -10 Z M436 928 Q446 928 446 923 Q446 922 442 916 L328 767 Q319 755 304 755 L236 755 Q221 755 212 767 L98 916 Q95 920 95 923 Q95 928 104 928 L193 928 Q208 928 219 917 L272 865 L323 917 Q332 928 348 928 L436 928 L436 928 Z " />
<glyph glyph-name="T" unicode="T" horiz-adv-x="562" d="M531 710 Q546 710 546 695 L546 561 Q546 546 531 546 L381 546 L381 15 Q381 0 366 0 L196 0 Q181 0 181 15 L181 546 L31 546 Q16 546 16 561 L16 695 Q16 710 31 710 L531 710 L531 710 Z " />
<glyph glyph-name="U" unicode="U" horiz-adv-x="675" d="M337 -8 Q274 -8 222 10.5 Q170 29 133 65 Q96 101 75.5 154.5 Q55 208 55 279 L55 696 Q55 711 70 711 L241 711 Q256 711 256 696 L256 264 Q256 213 278 188.5 Q300 164 339 164 Q378 164 400 188.5 Q422 213 422 264 L422 696 Q422 711 437 711 L604 711 Q619 711 619 696 L619 279 Q619 208 598.5 154.5 Q578 101 541 65 Q504 29 452 10.5 Q400 -8 337 -8 Z " />
<glyph glyph-name="Uacute" unicode="&#xda;" horiz-adv-x="675" d="M337 -8 Q274 -8 222 10.5 Q170 29 133 65 Q96 101 75.5 154.5 Q55 208 55 279 L55 696 Q55 711 70 711 L241 711 Q256 711 256 696 L256 264 Q256 213 278 188.5 Q300 164 339 164 Q378 164 400 188.5 Q422 213 422 264 L422 696 Q422 711 437 711 L604 711 Q619 711 619 696 L619 279 Q619 208 598.5 154.5 Q578 101 541 65 Q504 29 452 10.5 Q400 -8 337 -8 Z M283 755 Q267 755 273 769 L326 913 Q331 927 346 927 L517 928 Q533 928 533 921 Q533 916 526 908 L395 766 Q386 755 370 755 L283 755 L283 755 Z " />
<glyph glyph-name="Ucircumflex" unicode="&#xdb;" horiz-adv-x="675" d="M337 -8 Q274 -8 222 10.5 Q170 29 133 65 Q96 101 75.5 154.5 Q55 208 55 279 L55 696 Q55 711 70 711 L241 711 Q256 711 256 696 L256 264 Q256 213 278 188.5 Q300 164 339 164 Q378 164 400 188.5 Q422 213 422 264 L422 696 Q422 711 437 711 L604 711 Q619 711 619 696 L619 279 Q619 208 598.5 154.5 Q578 101 541 65 Q504 29 452 10.5 Q400 -8 337 -8 Z M502 771 Q505 765 505 762 Q505 755 493 755 L400 755 Q388 755 379 765 L331 826 L283 765 Q275 755 262 755 L168 755 Q156 755 156 762 Q156 765 159 771 L254 917 Q260 928 274 928 L387 928 Q400 928 407 917 L502 771 L502 771 Z " />
<glyph glyph-name="Udieresis" unicode="&#xdc;" horiz-adv-x="675" d="M337 -8 Q274 -8 222 10.5 Q170 29 133 65 Q96 101 75.5 154.5 Q55 208 55 279 L55 696 Q55 711 70 711 L241 711 Q256 711 256 696 L256 264 Q256 213 278 188.5 Q300 164 339 164 Q378 164 400 188.5 Q422 213 422 264 L422 696 Q422 711 437 711 L604 711 Q619 711 619 696 L619 279 Q619 208 598.5 154.5 Q578 101 541 65 Q504 29 452 10.5 Q400 -8 337 -8 Z M227 771 Q195 771 175 794 Q155 817 155 846 Q155 876 175 898 Q195 920 227 920 Q258 920 277.5 898 Q297 876 297 846 Q297 817 277.5 794 Q258 771 227 771 Z M438 771 Q406 771 386 794 Q366 817 366 846 Q366 876 386 898 Q406 920 438 920 Q469 920 488.5 898 Q508 876 508 846 Q508 817 488.5 794 Q469 771 438 771 Z " />
<glyph glyph-name="Ugrave" unicode="&#xd9;" horiz-adv-x="675" d="M337 -8 Q274 -8 222 10.5 Q170 29 133 65 Q96 101 75.5 154.5 Q55 208 55 279 L55 696 Q55 711 70 711 L241 711 Q256 711 256 696 L256 264 Q256 213 278 188.5 Q300 164 339 164 Q378 164 400 188.5 Q422 213 422 264 L422 696 Q422 711 437 711 L604 711 Q619 711 619 696 L619 279 Q619 208 598.5 154.5 Q578 101 541 65 Q504 29 452 10.5 Q400 -8 337 -8 Z M379 778 Q380 776 380 772 Q380 764 369 764 L282 764 Q267 764 257 775 L136 917 Q129 924 129 930 Q129 937 145 937 L305 936 Q319 936 325 922 L379 778 L379 778 Z " />
<glyph glyph-name="V" unicode="V" horiz-adv-x="688" d="M662 710 Q678 710 678 699 Q678 698 676 690 L429 18 Q423 -1 402 -1 L283 -1 Q264 -1 257 17 L12 690 Q10 696 10 699 Q10 710 26 710 L214 710 Q229 710 233 696 L348 283 L462 696 Q465 710 481 710 L662 710 L662 710 Z " />
<glyph glyph-name="W" unicode="W" horiz-adv-x="943" d="M919 710 Q934 710 930 696 L748 14 Q744 0 729 0 L580 0 Q565 0 561 15 L472 385 L383 15 Q378 0 364 0 L217 0 Q202 0 198 14 L12 696 Q12 698 11.5 698.5 Q11 699 11 701 Q11 710 23 710 L207 710 Q222 710 225 695 L306 305 L395 695 Q398 710 413 710 L544 710 Q559 710 562 695 L654 300 L730 695 Q733 710 748 710 L919 710 L919 710 Z " />
<glyph glyph-name="X" unicode="X" horiz-adv-x="611" d="M598 27 Q603 19 603 13 Q603 0 582 0 L402 0 Q387 0 381 14 L304 188 L229 14 Q222 0 208 0 L34 0 Q13 0 13 13 Q13 17 18 27 L209 355 L15 683 Q10 693 10 698 Q10 710 30 710 L212 710 Q227 710 233 696 L311 521 L379 696 Q384 710 399 710 L569 710 Q590 710 590 697 Q590 693 585 683 L409 354 L598 27 L598 27 Z " />
<glyph glyph-name="Y" unicode="Y" horiz-adv-x="612" d="M217 0 Q202 0 202 15 L202 275 L-7 684 Q-11 691 -11 698 Q-11 711 9 711 L185 711 Q200 711 206 697 L315 436 L416 697 Q421 711 436 711 L601 711 Q621 711 621 698 Q621 691 617 684 L411 275 L411 15 Q411 0 396 0 L217 0 L217 0 Z " />
<glyph glyph-name="Yacute" unicode="&#xdd;" horiz-adv-x="612" d="M217 0 Q202 0 202 15 L202 275 L-7 684 Q-11 691 -11 698 Q-11 711 9 711 L185 711 Q200 711 206 697 L315 436 L416 697 Q421 711 436 711 L601 711 Q621 711 621 698 Q621 691 617 684 L411 275 L411 15 Q411 0 396 0 L217 0 L217 0 Z M258 755 Q242 755 248 769 L301 913 Q306 927 321 927 L492 928 Q508 928 508 921 Q508 916 501 908 L370 766 Q361 755 345 755 L258 755 L258 755 Z " />
<glyph glyph-name="Ydieresis" unicode="&#x178;" horiz-adv-x="612" d="M217 0 Q202 0 202 15 L202 275 L-7 684 Q-11 691 -11 698 Q-11 711 9 711 L185 711 Q200 711 206 697 L315 436 L416 697 Q421 711 436 711 L601 711 Q621 711 621 698 Q621 691 617 684 L411 275 L411 15 Q411 0 396 0 L217 0 L217 0 Z M202 771 Q170 771 150 794 Q130 817 130 846 Q130 876 150 898 Q170 920 202 920 Q233 920 252.5 898 Q272 876 272 846 Q272 817 252.5 794 Q233 771 202 771 Z M413 771 Q381 771 361 794 Q341 817 341 846 Q341 876 361 898 Q381 920 413 920 Q444 920 463.5 898 Q483 876 483 846 Q483 817 463.5 794 Q444 771 413 771 Z " />
<glyph glyph-name="Z" unicode="Z" horiz-adv-x="543" d="M505 156 Q520 156 520 141 L520 15 Q520 0 505 0 L42 0 Q27 0 27 15 L27 78 Q27 93 34 106 L274 554 L53 554 Q38 554 38 569 L38 695 Q38 710 53 710 L501 710 Q516 710 516 695 L516 632 Q516 617 509 604 L267 156 L505 156 Z " />
<glyph glyph-name="Zcaron" unicode="&#x17d;" horiz-adv-x="543" d="M505 156 Q520 156 520 141 L520 15 Q520 0 505 0 L42 0 Q27 0 27 15 L27 78 Q27 93 34 106 L274 554 L53 554 Q38 554 38 569 L38 695 Q38 710 53 710 L501 710 Q516 710 516 695 L516 632 Q516 617 509 604 L267 156 L505 156 Z M448 928 Q458 928 458 923 Q458 922 454 916 L340 767 Q331 755 316 755 L248 755 Q233 755 224 767 L110 916 Q107 920 107 923 Q107 928 116 928 L205 928 Q220 928 231 917 L284 865 L335 917 Q344 928 360 928 L448 928 L448 928 Z " />
<glyph glyph-name="a" unicode="a" horiz-adv-x="572" d="M514 480 Q529 480 529 465 L529 15 Q529 0 514 0 L352 0 Q337 0 337 15 L337 82 L336 82 Q317 34 285 13 Q253 -8 208 -8 Q167 -8 134 11 Q101 30 77.5 63.5 Q54 97 41 142.5 Q28 188 28 242 Q28 295 41 340.5 Q54 386 77.5 419 Q101 452 134 471 Q167 490 208 490 Q255 490 286.5 469.5 Q318 449 336 404 L337 404 L337 465 Q337 480 352 480 L514 480 Z M281 143 Q310 143 322.5 171 Q335 199 335 241 Q335 284 322.5 310.5 Q310 337 281 337 Q252 337 239.5 310 Q227 283 227 241 Q227 199 239.5 171 Q252 143 281 143 Z " />
<glyph glyph-name="aacute" unicode="&#xe1;" horiz-adv-x="575" d="M514 480 Q529 480 529 465 L529 15 Q529 0 514 0 L352 0 Q337 0 337 15 L337 82 L336 82 Q317 34 285 13 Q253 -8 208 -8 Q167 -8 134 11 Q101 30 77.5 63.5 Q54 97 41 142.5 Q28 188 28 242 Q28 295 41 340.5 Q54 386 77.5 419 Q101 452 134 471 Q167 490 208 490 Q255 490 286.5 469.5 Q318 449 336 404 L337 404 L337 465 Q337 480 352 480 L514 480 Z M281 143 Q310 143 322.5 171 Q335 199 335 241 Q335 284 322.5 310.5 Q310 337 281 337 Q252 337 239.5 310 Q227 283 227 241 Q227 199 239.5 171 Q252 143 281 143 Z M229 542 Q214 542 220 556 L311 765 Q318 779 331 774 L457 734 Q473 729 473 719 Q473 712 467 705 L351 554 Q342 542 327 542 L229 542 L229 542 Z " />
<glyph glyph-name="abreve" unicode="&#x103;" horiz-adv-x="575" d="M514 480 Q529 480 529 465 L529 15 Q529 0 514 0 L352 0 Q337 0 337 15 L337 82 L336 82 Q317 34 285 13 Q253 -8 208 -8 Q167 -8 134 11 Q101 30 77.5 63.5 Q54 97 41 142.5 Q28 188 28 242 Q28 295 41 340.5 Q54 386 77.5 419 Q101 452 134 471 Q167 490 208 490 Q255 490 286.5 469.5 Q318 449 336 404 L337 404 L337 465 Q337 480 352 480 L514 480 Z M281 143 Q310 143 322.5 171 Q335 199 335 241 Q335 284 322.5 310.5 Q310 337 281 337 Q252 337 239.5 310 Q227 283 227 241 Q227 199 239.5 171 Q252 143 281 143 Z M293 562 Q266 562 240.5 573 Q215 584 195.5 604 Q176 624 163 651 Q150 678 148 711 L148 713 Q148 724 160 724 L227 724 Q239 724 242 711 Q248 689 260.5 676.5 Q273 664 293 664 Q312 664 325 676.5 Q338 689 344 711 Q347 724 360 724 L426 724 Q439 724 438 711 Q435 678 422.5 651 Q410 624 390.5 604 Q371 584 346 573 Q321 562 293 562 Z " />
<glyph glyph-name="acircumflex" unicode="&#xe2;" horiz-adv-x="575" d="M514 480 Q529 480 529 465 L529 15 Q529 0 514 0 L352 0 Q337 0 337 15 L337 82 L336 82 Q317 34 285 13 Q253 -8 208 -8 Q167 -8 134 11 Q101 30 77.5 63.5 Q54 97 41 142.5 Q28 188 28 242 Q28 295 41 340.5 Q54 386 77.5 419 Q101 452 134 471 Q167 490 208 490 Q255 490 286.5 469.5 Q318 449 336 404 L337 404 L337 465 Q337 480 352 480 L514 480 Z M281 143 Q310 143 322.5 171 Q335 199 335 241 Q335 284 322.5 310.5 Q310 337 281 337 Q252 337 239.5 310 Q227 283 227 241 Q227 199 239.5 171 Q252 143 281 143 Z M466 560 Q469 554 469 551 Q469 543 456 543 L361 543 Q348 543 341 554 L294 633 L247 554 Q241 543 227 543 L131 543 Q118 543 118 551 Q118 554 121 560 L220 734 Q226 745 239 745 L348 745 Q361 745 367 734 L466 560 L466 560 Z " />
<glyph glyph-name="adieresis" unicode="&#xe4;" horiz-adv-x="575" d="M514 480 Q529 480 529 465 L529 15 Q529 0 514 0 L352 0 Q337 0 337 15 L337 82 L336 82 Q317 34 285 13 Q253 -8 208 -8 Q167 -8 134 11 Q101 30 77.5 63.5 Q54 97 41 142.5 Q28 188 28 242 Q28 295 41 340.5 Q54 386 77.5 419 Q101 452 134 471 Q167 490 208 490 Q255 490 286.5 469.5 Q318 449 336 404 L337 404 L337 465 Q337 480 352 480 L514 480 Z M281 143 Q310 143 322.5 171 Q335 199 335 241 Q335 284 322.5 310.5 Q310 337 281 337 Q252 337 239.5 310 Q227 283 227 241 Q227 199 239.5 171 Q252 143 281 143 Z M198 578 Q181 578 166.5 585 Q152 592 141.5 603 Q131 614 125.5 629 Q120 644 120 660 Q120 693 141.5 717.5 Q163 742 198 742 Q233 742 254.5 717.5 Q276 693 276 660 Q276 628 254 603 Q232 578 198 578 Z M389 578 Q372 578 357.5 585 Q343 592 332.5 603 Q322 614 316.5 629 Q311 644 311 660 Q311 693 332.5 717.5 Q354 742 389 742 Q424 742 445.5 717.5 Q467 693 467 660 Q467 628 445 603 Q423 578 389 578 Z " />
<glyph glyph-name="agrave" unicode="&#xe0;" horiz-adv-x="575" d="M514 480 Q529 480 529 465 L529 15 Q529 0 514 0 L352 0 Q337 0 337 15 L337 82 L336 82 Q317 34 285 13 Q253 -8 208 -8 Q167 -8 134 11 Q101 30 77.5 63.5 Q54 97 41 142.5 Q28 188 28 242 Q28 295 41 340.5 Q54 386 77.5 419 Q101 452 134 471 Q167 490 208 490 Q255 490 286.5 469.5 Q318 449 336 404 L337 404 L337 465 Q337 480 352 480 L514 480 Z M281 143 Q310 143 322.5 171 Q335 199 335 241 Q335 284 322.5 310.5 Q310 337 281 337 Q252 337 239.5 310 Q227 283 227 241 Q227 199 239.5 171 Q252 143 281 143 Z M365 556 Q367 552 367 549 Q367 542 356 542 L258 542 Q243 542 234 554 L118 705 Q112 712 112 719 Q112 728 128 734 L254 774 Q256 775 261 775 Q270 775 274 765 L365 556 L365 556 Z " />
<glyph glyph-name="aring" unicode="&#xe5;" horiz-adv-x="575" d="M514 480 Q529 480 529 465 L529 15 Q529 0 514 0 L352 0 Q337 0 337 15 L337 82 L336 82 Q317 34 285 13 Q253 -8 208 -8 Q167 -8 134 11 Q101 30 77.5 63.5 Q54 97 41 142.5 Q28 188 28 242 Q28 295 41 340.5 Q54 386 77.5 419 Q101 452 134 471 Q167 490 208 490 Q255 490 286.5 469.5 Q318 449 336 404 L337 404 L337 465 Q337 480 352 480 L514 480 Z M281 143 Q310 143 322.5 171 Q335 199 335 241 Q335 284 322.5 310.5 Q310 337 281 337 Q252 337 239.5 310 Q227 283 227 241 Q227 199 239.5 171 Q252 143 281 143 Z M293 522 Q269 522 246 531 Q223 540 206 555.5 Q189 571 178.5 592.5 Q168 614 168 639 Q168 664 178.5 685.5 Q189 707 206 722.5 Q223 738 246 746.5 Q269 755 293 755 Q317 755 340 746.5 Q363 738 380 722.5 Q397 707 407.5 685.5 Q418 664 418 639 Q418 614 407.5 592.5 Q397 571 380 555.5 Q363 540 340 531 Q317 522 293 522 Z M293 594 Q312 594 324.5 606.5 Q337 619 337 639 Q337 658 324.5 670 Q312 682 293 682 Q273 682 261 669.5 Q249 657 249 639 Q249 619 261 606.5 Q273 594 293 594 Z " />
<glyph glyph-name="atilde" unicode="&#xe3;" horiz-adv-x="575" d="M514 480 Q529 480 529 465 L529 15 Q529 0 514 0 L352 0 Q337 0 337 15 L337 82 L336 82 Q317 34 285 13 Q253 -8 208 -8 Q167 -8 134 11 Q101 30 77.5 63.5 Q54 97 41 142.5 Q28 188 28 242 Q28 295 41 340.5 Q54 386 77.5 419 Q101 452 134 471 Q167 490 208 490 Q255 490 286.5 469.5 Q318 449 336 404 L337 404 L337 465 Q337 480 352 480 L514 480 Z M281 143 Q310 143 322.5 171 Q335 199 335 241 Q335 284 322.5 310.5 Q310 337 281 337 Q252 337 239.5 310 Q227 283 227 241 Q227 199 239.5 171 Q252 143 281 143 Z M362 549 Q339 549 318.5 560 Q298 571 280 581 Q267 588 257.5 593 Q248 598 237 598 Q227 598 220 592 Q213 586 209 570 Q206 558 195 558 L130 558 Q118 558 119 571 Q122 605 129 635 Q136 665 148.5 686.5 Q161 708 179.5 720.5 Q198 733 224 733 Q250 733 270.5 721.5 Q291 710 308 699 Q319 692 327.5 687.5 Q336 683 345 683 Q356 683 362 691 Q368 699 370 712 Q373 724 384 724 L455 724 Q467 724 466 711 Q464 676 457 646.5 Q450 617 437 595.5 Q424 574 405.5 561.5 Q387 549 362 549 Z " />
<glyph glyph-name="ae" unicode="&#xe6;" horiz-adv-x="741" d="M512 490 Q552 490 589 477.5 Q626 465 654 438 Q682 411 698.5 369.5 Q715 328 715 270 Q715 256 713.5 240.5 Q712 225 709 212 Q705 198 690 198 L459 198 Q470 169 494 150.5 Q518 132 563 132 Q600 132 631.5 141.5 Q663 151 686 165 Q689 167 694 167 Q699 167 699 158 L699 55 Q699 39 687 31 Q660 14 617 3 Q574 -8 517 -8 Q467 -8 427 8.5 Q387 25 358 56 Q328 21 289 5.5 Q250 -10 204 -10 Q120 -10 74 28 Q28 66 28 134 Q28 198 72 235 Q116 272 189 281 Q209 283 232 284 Q255 285 271 285 Q262 322 228 337.5 Q194 353 149 353 Q130 353 110 348.5 Q90 344 74 336 Q68 334 67 334 Q61 334 61 344 L61 447 Q61 462 75 468 Q101 479 132.5 484.5 Q164 490 197 490 Q251 490 294 477.5 Q337 465 368 439 Q427 490 512 490 Z M498 364 Q477 364 466.5 346 Q456 328 452 300 L538 300 Q537 312 535 323.5 Q533 335 528.5 344 Q524 353 516.5 358.5 Q509 364 498 364 Z M235 103 Q250 103 261.5 116.5 Q273 130 273 169 L273 203 L244 197 Q224 192 213 179.5 Q202 167 202 145 Q202 125 211.5 114 Q221 103 235 103 Z " />
<glyph glyph-name="b" unicode="b" horiz-adv-x="568" d="M361 490 Q401 490 434 471 Q467 452 490.5 419 Q514 386 527 340.5 Q540 295 540 242 Q540 188 527 142.5 Q514 97 490.5 63.5 Q467 30 434 11 Q401 -8 361 -8 Q316 -8 284 13 Q252 34 233 82 L232 82 L232 15 Q232 0 217 0 L58 0 Q43 0 43 15 L43 730 Q43 745 58 745 L217 745 Q232 745 232 730 L232 404 L233 404 Q268 490 361 490 Z M288 143 Q317 143 329.5 171 Q342 199 342 241 Q342 283 329.5 310 Q317 337 288 337 Q259 337 246.5 310.5 Q234 284 234 241 Q234 199 246.5 171 Q259 143 288 143 Z " />
<glyph glyph-name="c" unicode="c" horiz-adv-x="423" d="M271 -8 Q224 -8 180 8.5 Q136 25 102.5 56.5 Q69 88 48.5 134.5 Q28 181 28 241 Q28 301 48 347 Q68 393 102 424.5 Q136 456 180 472.5 Q224 489 272 489 Q302 489 329.5 485 Q357 481 376 475 Q389 470 389 455 L389 351 Q389 332 376 332 Q370 332 363 335 Q341 343 317 343 Q280 343 254 315.5 Q228 288 228 240 Q228 192 254 165.5 Q280 139 317 139 Q346 139 367 148 Q372 150 375.5 151 Q379 152 382 152 Q393 152 393 134 L393 31 Q393 25 390.5 19.5 Q388 14 380 11 Q361 3 332 -2.5 Q303 -8 271 -8 Z " />
<glyph glyph-name="ccedilla" unicode="&#xe7;" horiz-adv-x="423" d="M367 148 Q372 150 375.5 151 Q379 152 382 152 Q393 152 393 134 L393 31 Q393 25 390.5 19.5 Q388 14 380 11 Q366 4 345 -0.5 Q324 -5 299 -7 L287 -29 Q318 -35 337.5 -54 Q357 -73 357 -104 Q357 -143 323.5 -168.5 Q290 -194 230 -194 Q209 -194 192.5 -192 Q176 -190 165 -187 Q153 -182 153 -169 L153 -125 Q153 -112 165 -115 Q176 -118 188.5 -120 Q201 -122 213 -122 Q226 -122 236 -117.5 Q246 -113 246 -104 Q246 -94 235 -89 Q224 -84 207 -84 Q192 -84 180 -88 L177 -84 L218 -3 Q179 5 144.5 25 Q110 45 84 76 Q58 107 43 148.5 Q28 190 28 241 Q28 301 48 347 Q68 393 102 424.5 Q136 456 180 472.5 Q224 489 272 489 Q302 489 329.5 485 Q357 481 376 475 Q389 470 389 455 L389 351 Q389 332 376 332 Q370 332 363 335 Q341 343 317 343 Q280 343 254 315.5 Q228 288 228 240 Q228 192 254 165.5 Q280 139 317 139 Q346 139 367 148 Z " />
<glyph glyph-name="d" unicode="d" horiz-adv-x="568" d="M510 745 Q525 745 525 730 L525 15 Q525 0 510 0 L351 0 Q336 0 336 15 L336 82 L335 82 Q315 34 283.5 13 Q252 -8 207 -8 Q167 -8 134 11 Q101 30 77.5 63.5 Q54 97 41 142.5 Q28 188 28 242 Q28 295 41 340.5 Q54 386 77 419 Q100 452 133 471 Q166 490 207 490 Q300 490 335 404 L336 404 L336 730 Q336 745 351 745 L510 745 Z M280 143 Q308 143 321 171 Q334 199 334 241 Q334 284 321.5 310.5 Q309 337 280 337 Q251 337 238.5 310 Q226 283 226 241 Q226 199 238.5 171 Q251 143 280 143 Z " />
<glyph glyph-name="eth" unicode="&#xf0;" horiz-adv-x="546" d="M374 631 Q445 555 481.5 467 Q518 379 518 294 Q518 217 498.5 160 Q479 103 445.5 65.5 Q412 28 367 9 Q322 -10 271 -10 Q223 -10 179 7 Q135 24 101.5 56 Q68 88 48 135 Q28 182 28 241 Q28 292 44 334.5 Q60 377 88 407.5 Q116 438 154 454.5 Q192 471 237 471 Q276 471 305.5 453 Q335 435 352 404 L356 406 Q340 448 312.5 489 Q285 530 247 570 L143 520 Q139 518 136 518 Q130 518 125 526 L118 539 Q116 545 116 546 Q116 552 124 557 L216 601 Q198 617 178.5 632.5 Q159 648 138 662 Q132 666 132 669 Q132 672 139 675 L256 715 Q262 717 266 717 Q274 717 282 711 Q299 699 314 687 Q329 675 343 661 L439 707 Q443 709 446 709 Q453 709 457 702 L464 688 Q466 684 466 681 Q466 676 458 671 L374 631 Z M273 141 Q303 141 315.5 169 Q328 197 328 235 Q328 274 315 302.5 Q302 331 273 331 Q244 331 230.5 303.5 Q217 276 217 236 Q217 198 230.5 169.5 Q244 141 273 141 Z " />
<glyph glyph-name="e" unicode="e" horiz-adv-x="520" d="M494 254 Q494 234 492.5 222.5 Q491 211 488 205.5 Q485 200 480 198.5 Q475 197 468 197 L229 197 Q249 135 335 135 Q362 135 383.5 138.5 Q405 142 421 147 Q440 153 450.5 159 Q461 165 466 165 Q476 165 476 149 L476 54 Q476 48 473.5 42 Q471 36 465 31 Q439 14 394 3.5 Q349 -7 297 -7 Q236 -7 186.5 10.5 Q137 28 101.5 60 Q66 92 47 137.5 Q28 183 28 239 Q28 296 47.5 342.5 Q67 389 101 422 Q135 455 180.5 472.5 Q226 490 278 490 Q322 490 361 476.5 Q400 463 429.5 434.5 Q459 406 476.5 361 Q494 316 494 254 Z M272 361 Q251 361 240 343.5 Q229 326 224 300 L317 300 Q316 310 313.5 320.5 Q311 331 306 340 Q301 349 292.5 355 Q284 361 272 361 Z " />
<glyph glyph-name="eacute" unicode="&#xe9;" horiz-adv-x="522" d="M494 254 Q494 234 492.5 222.5 Q491 211 488 205.5 Q485 200 480 198.5 Q475 197 468 197 L229 197 Q249 135 335 135 Q362 135 383.5 138.5 Q405 142 421 147 Q440 153 450.5 159 Q461 165 466 165 Q476 165 476 149 L476 54 Q476 48 473.5 42 Q471 36 465 31 Q439 14 394 3.5 Q349 -7 297 -7 Q236 -7 186.5 10.5 Q137 28 101.5 60 Q66 92 47 137.5 Q28 183 28 239 Q28 296 47.5 342.5 Q67 389 101 422 Q135 455 180.5 472.5 Q226 490 278 490 Q322 490 361 476.5 Q400 463 429.5 434.5 Q459 406 476.5 361 Q494 316 494 254 Z M272 361 Q251 361 240 343.5 Q229 326 224 300 L317 300 Q316 310 313.5 320.5 Q311 331 306 340 Q301 349 292.5 355 Q284 361 272 361 Z M202 543 Q187 543 193 557 L284 766 Q291 780 304 775 L430 735 Q446 730 446 720 Q446 713 440 706 L324 555 Q315 543 300 543 L202 543 L202 543 Z " />
<glyph glyph-name="ecircumflex" unicode="&#xea;" horiz-adv-x="522" d="M494 254 Q494 234 492.5 222.5 Q491 211 488 205.5 Q485 200 480 198.5 Q475 197 468 197 L229 197 Q249 135 335 135 Q362 135 383.5 138.5 Q405 142 421 147 Q440 153 450.5 159 Q461 165 466 165 Q476 165 476 149 L476 54 Q476 48 473.5 42 Q471 36 465 31 Q439 14 394 3.5 Q349 -7 297 -7 Q236 -7 186.5 10.5 Q137 28 101.5 60 Q66 92 47 137.5 Q28 183 28 239 Q28 296 47.5 342.5 Q67 389 101 422 Q135 455 180.5 472.5 Q226 490 278 490 Q322 490 361 476.5 Q400 463 429.5 434.5 Q459 406 476.5 361 Q494 316 494 254 Z M272 361 Q251 361 240 343.5 Q229 326 224 300 L317 300 Q316 310 313.5 320.5 Q311 331 306 340 Q301 349 292.5 355 Q284 361 272 361 Z M439 561 Q442 555 442 552 Q442 544 429 544 L334 544 Q321 544 314 555 L267 634 L220 555 Q214 544 200 544 L104 544 Q91 544 91 552 Q91 555 94 561 L193 735 Q199 746 212 746 L321 746 Q334 746 340 735 L439 561 L439 561 Z " />
<glyph glyph-name="edieresis" unicode="&#xeb;" horiz-adv-x="522" d="M494 254 Q494 234 492.5 222.5 Q491 211 488 205.5 Q485 200 480 198.5 Q475 197 468 197 L229 197 Q249 135 335 135 Q362 135 383.5 138.5 Q405 142 421 147 Q440 153 450.5 159 Q461 165 466 165 Q476 165 476 149 L476 54 Q476 48 473.5 42 Q471 36 465 31 Q439 14 394 3.5 Q349 -7 297 -7 Q236 -7 186.5 10.5 Q137 28 101.5 60 Q66 92 47 137.5 Q28 183 28 239 Q28 296 47.5 342.5 Q67 389 101 422 Q135 455 180.5 472.5 Q226 490 278 490 Q322 490 361 476.5 Q400 463 429.5 434.5 Q459 406 476.5 361 Q494 316 494 254 Z M272 361 Q251 361 240 343.5 Q229 326 224 300 L317 300 Q316 310 313.5 320.5 Q311 331 306 340 Q301 349 292.5 355 Q284 361 272 361 Z M171 579 Q154 579 139.5 586 Q125 593 114.5 604 Q104 615 98.5 630 Q93 645 93 661 Q93 694 114.5 718.5 Q136 743 171 743 Q206 743 227.5 718.5 Q249 694 249 661 Q249 629 227 604 Q205 579 171 579 Z M362 579 Q345 579 330.5 586 Q316 593 305.5 604 Q295 615 289.5 630 Q284 645 284 661 Q284 694 305.5 718.5 Q327 743 362 743 Q397 743 418.5 718.5 Q440 694 440 661 Q440 629 418 604 Q396 579 362 579 Z " />
<glyph glyph-name="egrave" unicode="&#xe8;" horiz-adv-x="522" d="M494 254 Q494 234 492.5 222.5 Q491 211 488 205.5 Q485 200 480 198.5 Q475 197 468 197 L229 197 Q249 135 335 135 Q362 135 383.5 138.5 Q405 142 421 147 Q440 153 450.5 159 Q461 165 466 165 Q476 165 476 149 L476 54 Q476 48 473.5 42 Q471 36 465 31 Q439 14 394 3.5 Q349 -7 297 -7 Q236 -7 186.5 10.5 Q137 28 101.5 60 Q66 92 47 137.5 Q28 183 28 239 Q28 296 47.5 342.5 Q67 389 101 422 Q135 455 180.5 472.5 Q226 490 278 490 Q322 490 361 476.5 Q400 463 429.5 434.5 Q459 406 476.5 361 Q494 316 494 254 Z M272 361 Q251 361 240 343.5 Q229 326 224 300 L317 300 Q316 310 313.5 320.5 Q311 331 306 340 Q301 349 292.5 355 Q284 361 272 361 Z M338 557 Q340 553 340 550 Q340 543 329 543 L231 543 Q216 543 207 555 L91 706 Q85 713 85 720 Q85 729 101 735 L227 775 Q229 776 234 776 Q243 776 247 766 L338 557 L338 557 Z " />
<glyph glyph-name="eogonek" unicode="&#x119;" horiz-adv-x="522" d="M494 254 Q494 234 492.5 222.5 Q491 211 488 205.5 Q485 200 480 198.5 Q475 197 468 197 L229 197 Q249 135 335 135 Q362 135 383.5 138.5 Q405 142 421 147 Q440 153 450.5 159 Q461 165 466 165 Q476 165 476 149 L476 54 Q476 48 473.5 42 Q471 36 465 31 Q449 21 426 13 Q403 5 374 0 Q326 -26 307.5 -48 Q289 -70 289 -86 Q289 -117 325 -117 Q333 -117 342 -114.5 Q351 -112 359 -110 Q361 -109 364 -109 Q371 -109 371 -119 L371 -167 Q371 -181 359 -185 Q334 -196 300 -196 Q246 -196 212 -169.5 Q178 -143 178 -99 Q178 -69 192 -44.5 Q206 -20 229 -1 Q135 17 81.5 80 Q28 143 28 239 Q28 296 47.5 342.5 Q67 389 101 422 Q135 455 180.5 472.5 Q226 490 278 490 Q322 490 361 476.5 Q400 463 429.5 434.5 Q459 406 476.5 361 Q494 316 494 254 Z M272 361 Q251 361 240 343.5 Q229 326 224 300 L317 300 Q316 310 313.5 320.5 Q311 331 306 340 Q301 349 292.5 355 Q284 361 272 361 Z " />
<glyph glyph-name="f" unicode="f" horiz-adv-x="395" d="M338 600 Q309 600 292 583.5 Q275 567 275 530 L275 480 L375 480 Q390 480 390 465 L390 359 Q390 344 375 344 L275 344 L275 15 Q275 0 260 0 L94 0 Q79 0 79 15 L79 344 L23 344 Q8 344 8 359 L8 465 Q8 480 23 480 L79 480 L79 533 Q79 644 132 700 Q185 756 286 756 Q309 756 333.5 752.5 Q358 749 376 744 Q390 739 390 724 L390 621 Q390 594 361 598 Q356 599 350.5 599.5 Q345 600 338 600 Z " />
<glyph glyph-name="g" unicode="g" horiz-adv-x="565" d="M512 480 Q527 480 527 465 L527 85 Q527 13 503 -40 Q479 -93 437 -127.5 Q395 -162 339 -179 Q283 -196 220 -196 Q182 -196 142.5 -190 Q103 -184 74 -172 Q61 -166 61 -150 L61 -43 Q61 -23 75 -23 Q80 -23 88 -26 Q119 -38 150 -43.5 Q181 -49 207 -49 Q255 -49 288.5 -22.5 Q322 4 322 60 L322 81 Q282 28 205 28 Q168 28 135.5 44.5 Q103 61 79 92 Q55 123 41.5 165.5 Q28 208 28 261 Q28 313 42.5 355.5 Q57 398 81.5 427.5 Q106 457 138 473 Q170 489 205 489 Q243 489 274.5 474 Q306 459 327 426 L329 426 L329 465 Q329 480 344 480 L512 480 Z M276 169 Q305 169 317.5 195 Q330 221 330 259 Q330 298 317.5 322.5 Q305 347 276 347 Q247 347 235 322.5 Q223 298 223 259 Q223 221 235 195 Q247 169 276 169 Z " />
<glyph glyph-name="h" unicode="h" horiz-adv-x="563" d="M362 490 Q397 490 427 480.5 Q457 471 478.5 450 Q500 429 512 395 Q524 361 524 312 L524 14 Q524 0 510 0 L340 0 Q326 0 326 14 L326 280 Q326 308 314.5 320 Q303 332 283 332 Q261 332 250 317 Q239 302 239 275 L239 14 Q239 0 225 0 L57 0 Q43 0 43 14 L43 731 Q43 745 57 745 L216 745 Q230 745 230 731 L230 429 Q252 461 285.5 475.5 Q319 490 362 490 Z " />
<glyph glyph-name="i" unicode="i" horiz-adv-x="282" d="M141 527 Q87 527 57 559.5 Q27 592 27 640 Q27 688 57 721 Q87 754 141 754 Q168 754 189 745 Q210 736 224.5 720.5 Q239 705 246.5 684.5 Q254 664 254 640 Q254 592 224.5 559.5 Q195 527 141 527 Z M59 0 Q44 0 44 15 L44 465 Q44 480 59 480 L225 480 Q240 480 240 465 L240 15 Q240 0 225 0 L59 0 Z " />
<glyph glyph-name="idotless" unicode="&#x131;" horiz-adv-x="287" d="M61 0 Q46 0 46 15 L46 465 Q46 480 61 480 L227 480 Q242 480 242 465 L242 15 Q242 0 227 0 L61 0 L61 0 Z " />
<glyph glyph-name="iacute" unicode="&#xed;" horiz-adv-x="287" d="M61 0 Q46 0 46 15 L46 465 Q46 480 61 480 L227 480 Q242 480 242 465 L242 15 Q242 0 227 0 L61 0 L61 0 Z M86 537 Q71 537 74 552 L121 759 Q124 774 138 770 L279 733 Q298 727 298 713 Q298 706 294 699 L215 550 Q208 537 193 537 L86 537 L86 537 Z " />
<glyph glyph-name="icircumflex" unicode="&#xee;" horiz-adv-x="287" d="M61 0 Q46 0 46 15 L46 465 Q46 480 61 480 L227 480 Q242 480 242 465 L242 15 Q242 0 227 0 L61 0 L61 0 Z M317 560 Q320 554 320 551 Q320 543 307 543 L212 543 Q199 543 192 554 L145 633 L98 554 Q92 543 78 543 L-18 543 Q-31 543 -31 551 Q-31 554 -28 560 L71 734 Q77 745 90 745 L199 745 Q212 745 218 734 L317 560 L317 560 Z " />
<glyph glyph-name="idieresis" unicode="&#xef;" horiz-adv-x="287" d="M61 0 Q46 0 46 15 L46 465 Q46 480 61 480 L227 480 Q242 480 242 465 L242 15 Q242 0 227 0 L61 0 L61 0 Z M49 578 Q32 578 17.5 585 Q3 592 -7.5 603 Q-18 614 -23.5 629 Q-29 644 -29 660 Q-29 693 -7.5 717.5 Q14 742 49 742 Q84 742 105.5 717.5 Q127 693 127 660 Q127 628 105 603 Q83 578 49 578 Z M240 578 Q223 578 208.5 585 Q194 592 183.5 603 Q173 614 167.5 629 Q162 644 162 660 Q162 693 183.5 717.5 Q205 742 240 742 Q275 742 296.5 717.5 Q318 693 318 660 Q318 628 296 603 Q274 578 240 578 Z " />
<glyph glyph-name="igrave" unicode="&#xec;" horiz-adv-x="287" d="M214 552 Q214 550 214.5 549.5 Q215 549 215 547 Q215 537 202 537 L95 537 Q80 537 73 550 L-6 699 Q-10 706 -10 713 Q-10 729 9 733 L150 770 Q152 770 152.5 770.5 Q153 771 155 771 Q164 771 167 759 L214 552 Z M61 0 Q46 0 46 15 L46 465 Q46 480 61 480 L227 480 Q242 480 242 465 L242 15 Q242 0 227 0 L61 0 Z " />
<glyph glyph-name="j" unicode="j" horiz-adv-x="283" d="M143 527 Q89 527 59 559.5 Q29 592 29 640 Q29 688 59 721 Q89 754 143 754 Q170 754 191 745 Q212 736 226.5 720.5 Q241 705 248.5 684.5 Q256 664 256 640 Q256 592 226.5 559.5 Q197 527 143 527 Z M40 -196 Q21 -196 1.5 -194 Q-18 -192 -33 -187 Q-47 -184 -47 -167 L-47 -42 Q-47 -29 -33 -33 Q-22 -37 -6 -37 Q17 -37 30.5 -22.5 Q44 -8 44 15 L44 465 Q44 480 59 480 L225 480 Q240 480 240 465 L240 14 Q240 -91 189 -143.5 Q138 -196 40 -196 Z " />
<glyph glyph-name="k" unicode="k" horiz-adv-x="572" d="M568 13 Q571 8 571 5 Q571 0 561 0 L363 0 Q348 0 342 14 L243 228 L243 15 Q243 0 228 0 L62 0 Q47 0 47 15 L47 730 Q47 745 62 745 L228 745 Q243 745 243 730 L243 288 L340 467 Q346 480 362 480 L560 480 Q570 480 570 475 Q570 474 566 468 L420 260 L568 13 L568 13 Z " />
<glyph glyph-name="l" unicode="l" horiz-adv-x="332" d="M210 -10 Q132 -10 87.5 27.5 Q43 65 43 145 L43 731 Q43 746 58 746 L224 746 Q239 746 239 731 L239 186 Q239 163 249 153.5 Q259 144 276 144 Q293 144 308 150 Q311 151 313.5 152 Q316 153 318 153 Q325 153 325 140 L325 34 Q325 25 321.5 17 Q318 9 307 5 Q287 -2 260.5 -6 Q234 -10 210 -10 Z " />
<glyph glyph-name="lslash" unicode="&#x142;" horiz-adv-x="332" d="M308 150 Q311 151 313.5 152 Q316 153 318 153 Q325 153 325 140 L325 34 Q325 25 321.5 17 Q318 9 307 5 Q287 -2 260.5 -6 Q234 -10 210 -10 Q132 -10 87.5 27.5 Q43 65 43 145 L43 277 L0 259 Q-4 257 -7 257 Q-14 257 -14 268 L-14 344 Q-14 359 0 365 L43 383 L43 731 Q43 746 58 746 L224 746 Q239 746 239 731 L239 466 L297 490 Q301 492 304 492 Q311 492 311 481 L311 405 Q311 390 297 384 L239 360 L239 186 Q239 163 249 153.5 Q259 144 276 144 Q293 144 308 150 Z " />
<glyph glyph-name="m" unicode="m" horiz-adv-x="831" d="M635 490 Q705 490 749 446 Q793 402 793 321 L793 15 Q793 0 778 0 L612 0 Q597 0 597 15 L598 288 Q598 313 586.5 324 Q575 335 557 335 Q539 335 527.5 323.5 Q516 312 516 286 L516 15 Q516 0 501 0 L335 0 Q320 0 320 15 L320 288 Q320 313 309 324 Q298 335 280 335 Q262 335 250.5 323.5 Q239 312 239 286 L239 15 Q239 0 224 0 L58 0 Q43 0 43 15 L43 465 Q43 480 58 480 L202 480 Q217 480 217 465 L217 408 L218 408 Q240 451 277.5 470.5 Q315 490 362 490 Q407 490 442 470.5 Q477 451 497 414 Q519 454 554.5 472 Q590 490 635 490 Z " />
<glyph glyph-name="n" unicode="n" horiz-adv-x="561" d="M357 490 Q393 490 423 480 Q453 470 475 449 Q497 428 509.5 395.5 Q522 363 522 317 L522 15 Q522 0 507 0 L341 0 Q326 0 326 15 L326 288 Q326 344 284 344 Q239 344 239 286 L239 15 Q239 0 224 0 L58 0 Q43 0 43 15 L43 465 Q43 480 58 480 L208 480 Q223 480 223 465 L223 426 L224 426 Q246 458 280 474 Q314 490 357 490 Z " />
<glyph glyph-name="ntilde" unicode="&#xf1;" horiz-adv-x="560" d="M357 490 Q393 490 423 480 Q453 470 475 449 Q497 428 509.5 395.5 Q522 363 522 317 L522 15 Q522 0 507 0 L341 0 Q326 0 326 15 L326 288 Q326 344 284 344 Q239 344 239 286 L239 15 Q239 0 224 0 L58 0 Q43 0 43 15 L43 465 Q43 480 58 480 L208 480 Q223 480 223 465 L223 426 L224 426 Q246 458 280 474 Q314 490 357 490 Z M353 549 Q330 549 309.5 560 Q289 571 271 581 Q258 588 248.5 593 Q239 598 228 598 Q218 598 211 592 Q204 586 200 570 Q197 558 186 558 L121 558 Q109 558 110 571 Q113 605 120 635 Q127 665 139.5 686.5 Q152 708 170.5 720.5 Q189 733 215 733 Q241 733 261.5 721.5 Q282 710 299 699 Q310 692 318.5 687.5 Q327 683 336 683 Q347 683 353 691 Q359 699 361 712 Q364 724 375 724 L446 724 Q458 724 457 711 Q455 676 448 646.5 Q441 617 428 595.5 Q415 574 396.5 561.5 Q378 549 353 549 Z " />
<glyph glyph-name="o" unicode="o" horiz-adv-x="546" d="M273 -10 Q221 -10 176.5 9 Q132 28 99 61.5 Q66 95 47 141 Q28 187 28 242 Q28 297 46.5 342.5 Q65 388 98 420.5 Q131 453 176 471 Q221 489 273 489 Q325 489 370 471 Q415 453 448 420.5 Q481 388 499.5 342.5 Q518 297 518 242 Q518 187 499.5 140.5 Q481 94 448 60.5 Q415 27 370 8.5 Q325 -10 273 -10 Z M273 143 Q302 143 314.5 171 Q327 199 327 241 Q327 283 314.5 310 Q302 337 273 337 Q244 337 231.5 310 Q219 283 219 241 Q219 199 231.5 171 Q244 143 273 143 Z " />
<glyph glyph-name="oacute" unicode="&#xf3;" horiz-adv-x="547" d="M273 -10 Q221 -10 176.5 9 Q132 28 99 61.5 Q66 95 47 141 Q28 187 28 242 Q28 297 46.5 342.5 Q65 388 98 420.5 Q131 453 176 471 Q221 489 273 489 Q325 489 370 471 Q415 453 448 420.5 Q481 388 499.5 342.5 Q518 297 518 242 Q518 187 499.5 140.5 Q481 94 448 60.5 Q415 27 370 8.5 Q325 -10 273 -10 Z M273 143 Q302 143 314.5 171 Q327 199 327 241 Q327 283 314.5 310 Q302 337 273 337 Q244 337 231.5 310 Q219 283 219 241 Q219 199 231.5 171 Q244 143 273 143 Z M210 542 Q195 542 201 556 L292 765 Q299 779 312 774 L438 734 Q454 729 454 719 Q454 712 448 705 L332 554 Q323 542 308 542 L210 542 L210 542 Z " />
<glyph glyph-name="ocircumflex" unicode="&#xf4;" horiz-adv-x="547" d="M273 -10 Q221 -10 176.5 9 Q132 28 99 61.5 Q66 95 47 141 Q28 187 28 242 Q28 297 46.5 342.5 Q65 388 98 420.5 Q131 453 176 471 Q221 489 273 489 Q325 489 370 471 Q415 453 448 420.5 Q481 388 499.5 342.5 Q518 297 518 242 Q518 187 499.5 140.5 Q481 94 448 60.5 Q415 27 370 8.5 Q325 -10 273 -10 Z M273 143 Q302 143 314.5 171 Q327 199 327 241 Q327 283 314.5 310 Q302 337 273 337 Q244 337 231.5 310 Q219 283 219 241 Q219 199 231.5 171 Q244 143 273 143 Z M447 560 Q450 554 450 551 Q450 543 437 543 L342 543 Q329 543 322 554 L275 633 L228 554 Q222 543 208 543 L112 543 Q99 543 99 551 Q99 554 102 560 L201 734 Q207 745 220 745 L329 745 Q342 745 348 734 L447 560 L447 560 Z " />
<glyph glyph-name="odieresis" unicode="&#xf6;" horiz-adv-x="547" d="M273 -10 Q221 -10 176.5 9 Q132 28 99 61.5 Q66 95 47 141 Q28 187 28 242 Q28 297 46.5 342.5 Q65 388 98 420.5 Q131 453 176 471 Q221 489 273 489 Q325 489 370 471 Q415 453 448 420.5 Q481 388 499.5 342.5 Q518 297 518 242 Q518 187 499.5 140.5 Q481 94 448 60.5 Q415 27 370 8.5 Q325 -10 273 -10 Z M273 143 Q302 143 314.5 171 Q327 199 327 241 Q327 283 314.5 310 Q302 337 273 337 Q244 337 231.5 310 Q219 283 219 241 Q219 199 231.5 171 Q244 143 273 143 Z M179 578 Q162 578 147.5 585 Q133 592 122.5 603 Q112 614 106.5 629 Q101 644 101 660 Q101 693 122.5 717.5 Q144 742 179 742 Q214 742 235.5 717.5 Q257 693 257 660 Q257 628 235 603 Q213 578 179 578 Z M370 578 Q353 578 338.5 585 Q324 592 313.5 603 Q303 614 297.5 629 Q292 644 292 660 Q292 693 313.5 717.5 Q335 742 370 742 Q405 742 426.5 717.5 Q448 693 448 660 Q448 628 426 603 Q404 578 370 578 Z " />
<glyph glyph-name="ograve" unicode="&#xf2;" horiz-adv-x="547" d="M273 -10 Q221 -10 176.5 9 Q132 28 99 61.5 Q66 95 47 141 Q28 187 28 242 Q28 297 46.5 342.5 Q65 388 98 420.5 Q131 453 176 471 Q221 489 273 489 Q325 489 370 471 Q415 453 448 420.5 Q481 388 499.5 342.5 Q518 297 518 242 Q518 187 499.5 140.5 Q481 94 448 60.5 Q415 27 370 8.5 Q325 -10 273 -10 Z M273 143 Q302 143 314.5 171 Q327 199 327 241 Q327 283 314.5 310 Q302 337 273 337 Q244 337 231.5 310 Q219 283 219 241 Q219 199 231.5 171 Q244 143 273 143 Z M346 556 Q348 552 348 549 Q348 542 337 542 L239 542 Q224 542 215 554 L99 705 Q93 712 93 719 Q93 728 109 734 L235 774 Q237 775 242 775 Q251 775 255 765 L346 556 L346 556 Z " />
<glyph glyph-name="oslash" unicode="&#xf8;" horiz-adv-x="549" d="M444 424 Q479 391 498.5 345 Q518 299 518 242 Q518 187 499.5 140.5 Q481 94 448 60.5 Q415 27 370 8.5 Q325 -10 273 -10 Q214 -10 166 14 L137 -29 Q128 -41 114 -41 L48 -41 Q33 -41 41 -29 L101 59 Q67 93 47.5 139.5 Q28 186 28 242 Q28 297 46.5 342.5 Q65 388 98 420.5 Q131 453 176 471 Q221 489 273 489 Q329 489 379 467 L414 519 Q423 531 437 531 L502 531 Q517 531 509 519 L444 424 Z M273 143 Q302 143 314.5 171 Q327 199 327 241 Q327 283 314.5 310 Q302 337 273 337 Q244 337 231.5 310 Q219 283 219 241 Q219 199 231.5 171 Q244 143 273 143 Z " />
<glyph glyph-name="otilde" unicode="&#xf5;" horiz-adv-x="547" d="M273 -10 Q221 -10 176.5 9 Q132 28 99 61.5 Q66 95 47 141 Q28 187 28 242 Q28 297 46.5 342.5 Q65 388 98 420.5 Q131 453 176 471 Q221 489 273 489 Q325 489 370 471 Q415 453 448 420.5 Q481 388 499.5 342.5 Q518 297 518 242 Q518 187 499.5 140.5 Q481 94 448 60.5 Q415 27 370 8.5 Q325 -10 273 -10 Z M273 143 Q302 143 314.5 171 Q327 199 327 241 Q327 283 314.5 310 Q302 337 273 337 Q244 337 231.5 310 Q219 283 219 241 Q219 199 231.5 171 Q244 143 273 143 Z M343 549 Q320 549 299.5 560 Q279 571 261 581 Q248 588 238.5 593 Q229 598 218 598 Q208 598 201 592 Q194 586 190 570 Q187 558 176 558 L111 558 Q99 558 100 571 Q103 605 110 635 Q117 665 129.5 686.5 Q142 708 160.5 720.5 Q179 733 205 733 Q231 733 251.5 721.5 Q272 710 289 699 Q300 692 308.5 687.5 Q317 683 326 683 Q337 683 343 691 Q349 699 351 712 Q354 724 365 724 L436 724 Q448 724 447 711 Q445 676 438 646.5 Q431 617 418 595.5 Q405 574 386.5 561.5 Q368 549 343 549 Z " />
<glyph glyph-name="oe" unicode="&#x153;" horiz-adv-x="785" d="M759 241 Q759 218 751 207.5 Q743 197 722 197 L512 197 Q522 167 546 149.5 Q570 132 612 132 Q648 132 678 141 Q708 150 730 163 Q733 165 738 165 Q743 165 743 156 L743 55 Q743 39 732 31 Q708 14 669.5 3 Q631 -8 583 -8 Q529 -8 483.5 12.5 Q438 33 406 74 Q376 34 336 12 Q296 -10 249 -10 Q202 -10 162 8.5 Q122 27 92 60.5 Q62 94 45 140 Q28 186 28 242 Q28 297 45 343 Q62 389 92 421 Q122 453 162 471 Q202 489 249 489 Q295 489 334.5 468.5 Q374 448 404 409 Q464 490 561 490 Q600 490 636 477 Q672 464 699 434.5 Q726 405 742.5 357.5 Q759 310 759 241 Z M549 362 Q529 362 519.5 341.5 Q510 321 507 290 L590 290 Q588 325 578.5 343.5 Q569 362 549 362 Z M261 141 Q286 141 296 170.5 Q306 200 306 241 Q306 283 296.5 310.5 Q287 338 261 338 Q235 338 225 310.5 Q215 283 215 241 Q215 200 225 170.5 Q235 141 261 141 Z " />
<glyph glyph-name="p" unicode="p" horiz-adv-x="563" d="M356 490 Q396 490 429 471 Q462 452 485.5 419 Q509 386 522 340.5 Q535 295 535 242 Q535 188 522 142 Q509 96 485.5 63 Q462 30 428.5 11 Q395 -8 355 -8 Q316 -8 286.5 8 Q257 24 237 61 L237 -171 Q237 -177 234 -181.5 Q231 -186 223 -186 L58 -186 Q43 -186 43 -171 L43 465 Q43 480 58 480 L211 480 Q226 480 226 465 L226 399 L227 399 Q245 447 276.5 468.5 Q308 490 356 490 Z M283 142 Q312 142 324.5 170 Q337 198 337 240 Q337 283 324.5 309.5 Q312 336 283 336 Q255 336 242.5 309.5 Q230 283 230 241 Q230 199 242.5 170.5 Q255 142 283 142 Z " />
<glyph glyph-name="thorn" unicode="&#xfe;" horiz-adv-x="561" d="M342 488 Q385 488 420.5 469 Q456 450 481 416.5 Q506 383 519.5 337.5 Q533 292 533 238 Q533 185 519.5 139.5 Q506 94 481.5 61 Q457 28 422 9 Q387 -10 345 -10 Q278 -10 238 32 L238 -172 Q238 -187 223 -187 L58 -187 Q43 -187 43 -172 L43 730 Q43 745 58 745 L210 745 Q225 745 225 730 L225 429 Q248 460 276.5 474 Q305 488 342 488 Z M282 141 Q310 141 322 169.5 Q334 198 334 240 Q334 284 322 311 Q310 338 281 338 Q253 338 241 311 Q229 284 229 241 Q229 198 241 169.5 Q253 141 282 141 Z " />
<glyph glyph-name="q" unicode="q" horiz-adv-x="561" d="M504 480 Q518 480 518 465 L518 -171 Q518 -177 515 -181.5 Q512 -186 504 -186 L338 -186 Q324 -186 324 -171 L324 55 Q304 21 275 6.5 Q246 -8 207 -8 Q166 -8 133 11 Q100 30 76.5 63 Q53 96 40.5 142 Q28 188 28 242 Q28 295 40.5 340.5 Q53 386 76.5 419 Q100 452 132.5 471 Q165 490 206 490 Q298 490 335 405 L337 405 L337 465 Q337 480 351 480 L504 480 Z M278 141 Q307 141 319.5 169.5 Q332 198 332 241 Q332 284 319.5 311 Q307 338 278 338 Q249 338 236.5 311 Q224 284 224 240 Q224 198 236.5 169.5 Q249 141 278 141 Z " />
<glyph glyph-name="r" unicode="r" horiz-adv-x="400" d="M365 489 Q377 489 377 475 L377 298 Q377 287 366 288 L332 288 Q292 286 265 259.5 Q238 233 238 173 L238 15 Q238 0 223 0 L58 0 Q43 0 43 15 L43 465 Q43 480 58 480 L212 480 Q227 480 227 465 L227 382 L230 382 Q267 483 362 489 L365 489 Z " />
<glyph glyph-name="s" unicode="s" horiz-adv-x="415" d="M182 -7 Q140 -7 99 0.5 Q58 8 32 22 Q25 25 25 34 L25 158 Q25 167 31 167 L38 165 Q70 147 107.5 139 Q145 131 169 131 Q212 131 212 156 Q212 167 199.5 173.5 Q187 180 148 192 Q124 199 101.5 209.5 Q79 220 61.5 236 Q44 252 33 275.5 Q22 299 22 333 Q22 373 39 402.5 Q56 432 85 451.5 Q114 471 152.5 480.5 Q191 490 235 490 Q264 490 300 485.5 Q336 481 362 471 Q369 469 369 460 L370 349 Q370 338 362 338 Q360 338 356 340 Q336 347 312.5 352 Q289 357 266 357 Q243 357 231.5 350.5 Q220 344 220 334 Q220 323 232.5 317.5 Q245 312 277 302 Q301 295 323.5 285 Q346 275 363.5 259 Q381 243 391 220.5 Q401 198 401 167 Q401 129 385.5 97 Q370 65 341.5 42 Q313 19 272.5 6 Q232 -7 182 -7 Z " />
<glyph glyph-name="scaron" unicode="&#x161;" horiz-adv-x="412" d="M182 -7 Q140 -7 99 0.5 Q58 8 32 22 Q25 25 25 34 L25 158 Q25 167 31 167 L38 165 Q70 147 107.5 139 Q145 131 169 131 Q212 131 212 156 Q212 167 199.5 173.5 Q187 180 148 192 Q124 199 101.5 209.5 Q79 220 61.5 236 Q44 252 33 275.5 Q22 299 22 333 Q22 373 39 402.5 Q56 432 85 451.5 Q114 471 152.5 480.5 Q191 490 235 490 Q264 490 300 485.5 Q336 481 362 471 Q369 469 369 460 L370 349 Q370 338 362 338 Q360 338 356 340 Q336 347 312.5 352 Q289 357 266 357 Q243 357 231.5 350.5 Q220 344 220 334 Q220 323 232.5 317.5 Q245 312 277 302 Q301 295 323.5 285 Q346 275 363.5 259 Q381 243 391 220.5 Q401 198 401 167 Q401 129 385.5 97 Q370 65 341.5 42 Q313 19 272.5 6 Q232 -7 182 -7 Z M355 741 Q365 741 365 736 Q365 732 362 728 L256 551 Q250 540 236 540 L167 540 Q152 540 144 553 L39 728 Q36 732 36 736 Q36 741 46 741 L133 741 Q148 741 157 729 L203 666 L245 729 Q254 741 268 741 L355 741 L355 741 Z " />
<glyph glyph-name="germandbls" unicode="&#xdf;" horiz-adv-x="639" d="M422 -8 Q395 -8 363 -3 Q331 2 306 11 Q293 16 293 31 L293 137 Q293 156 305 156 Q308 156 311 155 Q314 154 318 152 Q338 144 357.5 139.5 Q377 135 391 135 Q416 135 428 145 Q440 155 440 171 Q440 185 433 196.5 Q426 208 415 218 Q404 228 391 237 Q378 246 365 257 Q335 280 315 308.5 Q295 337 295 376 Q295 402 304.5 423.5 Q314 445 331 471 Q343 490 352.5 507 Q362 524 362 544 Q362 568 347 583 Q332 598 306 598 Q278 598 260 580 Q242 562 242 521 L242 15 Q242 0 227 0 L58 0 Q43 0 43 15 L43 518 Q43 630 110.5 692.5 Q178 755 300 755 Q353 755 397.5 743 Q442 731 474.5 707.5 Q507 684 525.5 649 Q544 614 544 568 Q544 539 532.5 511 Q521 483 507 462 Q492 439 484 425 Q476 411 476 398 Q476 380 492.5 363.5 Q509 347 535 327 Q552 313 568.5 296.5 Q585 280 597.5 260.5 Q610 241 617.5 217.5 Q625 194 625 167 Q625 131 612 99 Q599 67 573.5 43.5 Q548 20 510 6 Q472 -8 422 -8 Z " />
<glyph glyph-name="t" unicode="t" horiz-adv-x="376" d="M268 354 L268 181 Q268 133 313 133 Q318 133 323 133 Q328 133 332 134 Q335 135 342 135 Q361 135 361 113 L361 21 Q361 6 347 2 Q302 -10 252 -10 Q72 -10 72 166 L72 354 L17 354 Q2 354 2 369 L2 465 Q2 480 17 480 L72 480 L72 623 Q72 638 87 638 L253 638 Q268 638 268 623 L268 480 L346 480 Q361 480 361 465 L361 369 Q361 354 346 354 L268 354 Z " />
<glyph glyph-name="u" unicode="u" horiz-adv-x="559" d="M501 480 Q516 480 516 465 L516 15 Q516 0 501 0 L355 0 Q341 0 338 15 L332 64 L331 64 Q288 -9 195 -9 Q121 -9 80 35 Q39 79 39 176 L39 466 Q39 481 54 481 L220 480 Q235 480 235 465 L235 183 Q235 151 246 137 Q257 123 278 123 Q300 123 310 140.5 Q320 158 320 186 L320 465 Q320 480 335 480 L501 480 L501 480 Z " />
<glyph glyph-name="uacute" unicode="&#xfa;" horiz-adv-x="558" d="M501 480 Q516 480 516 465 L516 15 Q516 0 501 0 L355 0 Q341 0 338 15 L332 64 L331 64 Q288 -9 195 -9 Q121 -9 80 35 Q39 79 39 176 L39 466 Q39 481 54 481 L220 480 Q235 480 235 465 L235 183 Q235 151 246 137 Q257 123 278 123 Q300 123 310 140.5 Q320 158 320 186 L320 465 Q320 480 335 480 L501 480 L501 480 Z M211 542 Q196 542 202 556 L293 765 Q300 779 313 774 L439 734 Q455 729 455 719 Q455 712 449 705 L333 554 Q324 542 309 542 L211 542 L211 542 Z " />
<glyph glyph-name="ucircumflex" unicode="&#xfb;" horiz-adv-x="558" d="M501 480 Q516 480 516 465 L516 15 Q516 0 501 0 L355 0 Q341 0 338 15 L332 64 L331 64 Q288 -9 195 -9 Q121 -9 80 35 Q39 79 39 176 L39 466 Q39 481 54 481 L220 480 Q235 480 235 465 L235 183 Q235 151 246 137 Q257 123 278 123 Q300 123 310 140.5 Q320 158 320 186 L320 465 Q320 480 335 480 L501 480 L501 480 Z M448 560 Q451 554 451 551 Q451 543 438 543 L343 543 Q330 543 323 554 L276 633 L229 554 Q223 543 209 543 L113 543 Q100 543 100 551 Q100 554 103 560 L202 734 Q208 745 221 745 L330 745 Q343 745 349 734 L448 560 L448 560 Z " />
<glyph glyph-name="udieresis" unicode="&#xfc;" horiz-adv-x="558" d="M501 480 Q516 480 516 465 L516 15 Q516 0 501 0 L355 0 Q341 0 338 15 L332 64 L331 64 Q288 -9 195 -9 Q121 -9 80 35 Q39 79 39 176 L39 466 Q39 481 54 481 L220 480 Q235 480 235 465 L235 183 Q235 151 246 137 Q257 123 278 123 Q300 123 310 140.5 Q320 158 320 186 L320 465 Q320 480 335 480 L501 480 L501 480 Z M180 578 Q163 578 148.5 585 Q134 592 123.5 603 Q113 614 107.5 629 Q102 644 102 660 Q102 693 123.5 717.5 Q145 742 180 742 Q215 742 236.5 717.5 Q258 693 258 660 Q258 628 236 603 Q214 578 180 578 Z M371 578 Q354 578 339.5 585 Q325 592 314.5 603 Q304 614 298.5 629 Q293 644 293 660 Q293 693 314.5 717.5 Q336 742 371 742 Q406 742 427.5 717.5 Q449 693 449 660 Q449 628 427 603 Q405 578 371 578 Z " />
<glyph glyph-name="ugrave" unicode="&#xf9;" horiz-adv-x="558" d="M501 480 Q516 480 516 465 L516 15 Q516 0 501 0 L355 0 Q341 0 338 15 L332 64 L331 64 Q288 -9 195 -9 Q121 -9 80 35 Q39 79 39 176 L39 466 Q39 481 54 481 L220 480 Q235 480 235 465 L235 183 Q235 151 246 137 Q257 123 278 123 Q300 123 310 140.5 Q320 158 320 186 L320 465 Q320 480 335 480 L501 480 L501 480 Z M347 556 Q349 552 349 549 Q349 542 338 542 L240 542 Q225 542 216 554 L100 705 Q94 712 94 719 Q94 728 110 734 L236 774 Q238 775 243 775 Q252 775 256 765 L347 556 L347 556 Z " />
<glyph glyph-name="v" unicode="v" horiz-adv-x="543" d="M525 480 Q541 480 535 466 L365 14 Q360 0 345 0 L198 0 Q184 0 178 14 L8 466 Q7 468 7 472 Q7 480 18 480 L206 480 Q221 480 224 465 L280 227 L338 465 Q343 480 357 480 L525 480 L525 480 Z " />
<glyph glyph-name="w" unicode="w" horiz-adv-x="713" d="M698 480 Q713 480 709 466 L568 14 Q564 0 549 0 L429 0 Q414 0 410 15 L355 226 L302 15 Q297 0 283 0 L164 0 Q149 0 145 14 L3 466 Q3 468 2.5 468.5 Q2 469 2 471 Q2 480 14 480 L179 480 Q194 480 197 465 L241 268 L290 465 Q295 480 309 480 L417 480 Q432 480 436 466 L491 262 L526 465 Q529 480 544 480 L698 480 L698 480 Z " />
<glyph glyph-name="x" unicode="x" horiz-adv-x="544" d="M528 25 Q534 17 534 11 Q534 0 515 0 L335 0 Q320 0 314 14 L269 113 L222 14 Q217 0 201 0 L32 0 Q13 0 13 11 Q13 17 18 25 L161 242 L17 455 Q11 462 11 469 Q11 480 30 480 L204 480 Q219 480 225 466 L271 368 L316 466 Q322 480 337 480 L504 480 Q523 480 523 469 Q523 462 518 455 L379 240 L528 25 L528 25 Z " />
<glyph glyph-name="y" unicode="y" horiz-adv-x="529" d="M514 480 Q530 480 524 466 L356 23 Q335 -31 312 -71.5 Q289 -112 260 -140 Q231 -168 195 -182 Q159 -196 113 -196 Q86 -196 60.5 -193.5 Q35 -191 11 -185 Q-3 -182 -3 -166 L-3 -49 Q-3 -34 11 -38 Q52 -49 96 -49 Q131 -49 152 -34.5 Q173 -20 187 9 L0 466 Q-2 470 -2 473 Q-2 480 9 480 L180 480 Q195 480 199 466 L265 255 L332 466 Q337 480 352 480 L514 480 L514 480 Z " />
<glyph glyph-name="yacute" unicode="&#xfd;" horiz-adv-x="529" d="M514 480 Q530 480 524 466 L356 23 Q335 -31 312 -71.5 Q289 -112 260 -140 Q231 -168 195 -182 Q159 -196 113 -196 Q86 -196 60.5 -193.5 Q35 -191 11 -185 Q-3 -182 -3 -166 L-3 -49 Q-3 -34 11 -38 Q52 -49 96 -49 Q131 -49 152 -34.5 Q173 -20 187 9 L0 466 Q-2 470 -2 473 Q-2 480 9 480 L180 480 Q195 480 199 466 L265 255 L332 466 Q337 480 352 480 L514 480 L514 480 Z M195 542 Q180 542 186 556 L277 765 Q284 779 297 774 L423 734 Q439 729 439 719 Q439 712 433 705 L317 554 Q308 542 293 542 L195 542 L195 542 Z " />
<glyph glyph-name="ydieresis" unicode="&#xff;" horiz-adv-x="529" d="M514 480 Q530 480 524 466 L356 23 Q335 -31 312 -71.5 Q289 -112 260 -140 Q231 -168 195 -182 Q159 -196 113 -196 Q86 -196 60.5 -193.5 Q35 -191 11 -185 Q-3 -182 -3 -166 L-3 -49 Q-3 -34 11 -38 Q52 -49 96 -49 Q131 -49 152 -34.5 Q173 -20 187 9 L0 466 Q-2 470 -2 473 Q-2 480 9 480 L180 480 Q195 480 199 466 L265 255 L332 466 Q337 480 352 480 L514 480 L514 480 Z M164 578 Q147 578 132.5 585 Q118 592 107.5 603 Q97 614 91.5 629 Q86 644 86 660 Q86 693 107.5 717.5 Q129 742 164 742 Q199 742 220.5 717.5 Q242 693 242 660 Q242 628 220 603 Q198 578 164 578 Z M355 578 Q338 578 323.5 585 Q309 592 298.5 603 Q288 614 282.5 629 Q277 644 277 660 Q277 693 298.5 717.5 Q320 742 355 742 Q390 742 411.5 717.5 Q433 693 433 660 Q433 628 411 603 Q389 578 355 578 Z " />
<glyph glyph-name="z" unicode="z" horiz-adv-x="457" d="M40 0 Q25 0 25 15 L25 42 Q25 56 32 70 L177 323 L51 323 Q36 323 36 338 L36 465 Q36 480 51 480 L407 480 Q422 480 422 465 L422 438 Q422 423 414 410 L268 158 L415 158 Q430 158 430 143 L430 15 Q430 0 415 0 L40 0 L40 0 Z " />
<glyph glyph-name="zcaron" unicode="&#x17e;" horiz-adv-x="461" d="M40 0 Q25 0 25 15 L25 42 Q25 56 32 70 L177 323 L51 323 Q36 323 36 338 L36 465 Q36 480 51 480 L407 480 Q422 480 422 465 L422 438 Q422 423 414 410 L268 158 L415 158 Q430 158 430 143 L430 15 Q430 0 415 0 L40 0 L40 0 Z M385 741 Q395 741 395 736 Q395 732 392 728 L286 551 Q280 540 266 540 L197 540 Q182 540 174 553 L69 728 Q66 732 66 736 Q66 741 76 741 L163 741 Q178 741 187 729 L233 666 L275 729 Q284 741 298 741 L385 741 L385 741 Z " />
<glyph glyph-name="fi" unicode="&#xfb01;" horiz-adv-x="678" d="M338 600 Q309 600 292 583.5 Q275 567 275 530 L275 480 L375 480 Q390 480 390 465 L390 359 Q390 344 375 344 L275 344 L275 15 Q275 0 260 0 L94 0 Q79 0 79 15 L79 344 L23 344 Q8 344 8 359 L8 465 Q8 480 23 480 L79 480 L79 533 Q79 644 132 700 Q185 756 286 756 Q309 756 333.5 752.5 Q358 749 376 744 Q390 739 390 724 L390 621 Q390 594 361 598 Q356 599 350.5 599.5 Q345 600 338 600 Z M536 527 Q482 527 452 559.5 Q422 592 422 640 Q422 688 452 721 Q482 754 536 754 Q563 754 584 745 Q605 736 619.5 720.5 Q634 705 641.5 684.5 Q649 664 649 640 Q649 592 619.5 559.5 Q590 527 536 527 Z M454 0 Q439 0 439 15 L439 465 Q439 480 454 480 L620 480 Q635 480 635 465 L635 15 Q635 0 620 0 L454 0 Z " />
<glyph glyph-name="fl" unicode="&#xfb02;" horiz-adv-x="727" d="M338 600 Q309 600 292 583.5 Q275 567 275 530 L275 480 L375 480 Q390 480 390 465 L390 359 Q390 344 375 344 L275 344 L275 15 Q275 0 260 0 L94 0 Q79 0 79 15 L79 344 L23 344 Q8 344 8 359 L8 465 Q8 480 23 480 L79 480 L79 533 Q79 644 132 700 Q185 756 286 756 Q309 756 333.5 752.5 Q358 749 376 744 Q390 739 390 724 L390 621 Q390 594 361 598 Q356 599 350.5 599.5 Q345 600 338 600 Z M605 -10 Q527 -10 482.5 27.5 Q438 65 438 145 L438 731 Q438 746 453 746 L619 746 Q634 746 634 731 L634 186 Q634 163 644 153.5 Q654 144 671 144 Q688 144 703 150 Q706 151 708.5 152 Q711 153 713 153 Q720 153 720 140 L720 34 Q720 25 716.5 17 Q713 9 702 5 Q682 -2 655.5 -6 Q629 -10 605 -10 Z " />
<glyph glyph-name="ordfeminine" unicode="&#xaa;" horiz-adv-x="489" d="M177 342 Q144 342 117.5 356.5 Q91 371 72.5 396.5 Q54 422 44 456.5 Q34 491 34 531 Q34 571 44 605 Q54 639 72.5 664 Q91 689 117.5 703.5 Q144 718 177 718 Q206 718 226 708 Q246 698 261 675 L261 698 Q261 711 274 711 L410 711 Q423 711 423 698 L423 360 Q423 347 410 347 L274 347 Q261 347 261 360 L261 387 Q244 363 224.5 352.5 Q205 342 177 342 Z M232 594 Q215 594 207 576 Q199 558 199 529 Q199 499 207 480.5 Q215 462 232 462 Q246 462 254 476 Q262 490 264 514 L265 543 Q263 566 255 580 Q247 594 232 594 Z M415 267 Q430 267 430 252 L430 184 Q430 169 415 169 L59 169 Q44 169 44 184 L44 252 Q44 267 59 267 L415 267 Z " />
<glyph glyph-name="ordmasculine" unicode="&#xba;" horiz-adv-x="456" d="M227 344 Q186 344 150.5 358 Q115 372 89 397.5 Q63 423 48.5 457.5 Q34 492 34 534 Q34 576 48.5 610 Q63 644 89 668.5 Q115 693 150 706.5 Q185 720 227 720 Q269 720 304.5 706.5 Q340 693 366.5 668.5 Q393 644 407.5 610 Q422 576 422 534 Q422 492 407 457.5 Q392 423 366 397.5 Q340 372 304.5 358 Q269 344 227 344 Z M228 469 Q261 469 261 533 Q261 596 228 596 Q195 596 195 533 Q195 469 228 469 Z M64 173 Q51 173 51 186 L51 257 Q51 270 64 270 L392 270 Q405 270 405 257 L405 186 Q405 173 392 173 L64 173 Z " />
<glyph glyph-name="Delta" unicode="&#x394;" horiz-adv-x="583" d="M30 0 Q15 0 15 15 L15 98 Q15 114 20 127 L207 697 Q212 711 227 711 L355 711 Q369 711 375 697 L562 127 Q567 114 567 98 L567 15 Q567 0 552 0 L30 0 Z M368 138 L291 447 L215 138 L368 138 Z " />
<glyph glyph-name="Omega" unicode="&#x3a9;" horiz-adv-x="702" d="M31 0 Q16 0 16 15 L16 142 Q16 157 31 157 L144 157 L144 167 Q123 183 104 208.5 Q85 234 70.5 266 Q56 298 47.5 336.5 Q39 375 39 417 Q39 489 64 545.5 Q89 602 131.5 641 Q174 680 230.5 700 Q287 720 351 720 Q415 720 471.5 700 Q528 680 570.5 641 Q613 602 638 545.5 Q663 489 663 417 Q663 375 654.5 336.5 Q646 298 631 266 Q616 234 597 208.5 Q578 183 557 167 L557 157 L670 157 Q685 157 685 142 L685 15 Q685 0 670 0 L390 0 Q375 0 375 15 L375 149 Q375 162 384 176 Q413 218 430.5 268 Q448 318 448 379 Q448 461 422 504.5 Q396 548 351 548 Q306 548 280 504.5 Q254 461 254 379 Q254 318 271 268 Q288 218 318 176 Q322 171 324.5 164 Q327 157 327 149 L327 15 Q327 0 312 0 L31 0 L31 0 Z " />
<glyph glyph-name="mu" unicode="&#x3bc;" horiz-adv-x="558" d="M501 480 Q516 480 516 465 L516 15 Q516 0 501 0 L364 0 Q349 0 346 15 L339 58 L337 58 Q311 -9 255 -9 Q232 -9 214 0 L233 -171 L233 -174 Q233 -186 220 -186 L52 -186 Q37 -186 38 -171 L55 49 L40 465 L40 468 Q40 480 54 480 L220 480 Q235 480 235 465 L235 183 Q235 150 246 136 Q257 122 277 122 Q300 122 310 140.5 Q320 159 320 189 L320 465 Q320 480 335 480 L501 480 L501 480 Z " />
<glyph glyph-name="pi" unicode="&#x3c0;" horiz-adv-x="644" d="M590 143 Q592 144 596 144 Q605 144 605 132 L605 30 Q605 23 602.5 17 Q600 11 592 8 Q573 0 546 -5 Q519 -10 496 -10 Q425 -10 384 32.5 Q343 75 343 165 L343 328 L275 328 L275 15 Q275 0 260 0 L100 0 Q85 0 85 15 L85 328 L30 328 Q15 328 15 343 L15 465 Q15 480 30 480 L577 480 Q592 480 592 465 L592 343 Q592 328 577 328 L532 328 L532 193 Q532 164 541.5 152 Q551 140 566 140 Q573 140 579 141 Q585 142 590 143 Z " />
<glyph glyph-name="zero" unicode="0" horiz-adv-x="625" d="M312 -9 Q258 -9 208 11.5 Q158 32 120.5 76 Q83 120 60.5 189 Q38 258 38 355 Q38 451 60.5 520.5 Q83 590 121 634 Q159 678 208.5 699 Q258 720 312 720 Q367 720 416.5 699 Q466 678 504 633.5 Q542 589 564.5 520 Q587 451 587 355 Q587 259 564.5 190.5 Q542 122 504.5 77.5 Q467 33 417 12 Q367 -9 312 -9 Z M312 173 Q352 173 368.5 216 Q385 259 385 355 Q385 450 368.5 494 Q352 538 312 538 Q274 538 257 494.5 Q240 451 240 355 Q240 258 257 215.5 Q274 173 312 173 Z " />
<glyph glyph-name="one" unicode="1" horiz-adv-x="454" d="M345 714 Q360 714 360 699 L360 15 Q360 0 345 0 L174 0 Q159 0 159 15 L159 479 L64 438 Q60 436 57 436 Q50 436 50 447 L50 584 Q50 599 64 605 L281 708 Q288 710 295 712 Q302 714 310 714 L345 714 L345 714 Z " />
<glyph glyph-name="two" unicode="2" horiz-adv-x="517" d="M454 168 Q469 168 469 153 L469 15 Q469 0 454 0 L53 0 Q33 0 33 15 Q33 21 37 28 L185 320 Q208 362 222.5 397 Q237 432 237 462 Q237 504 209.5 526.5 Q182 549 137 549 Q120 549 105 545.5 Q90 542 78 538 Q67 534 59.5 531 Q52 528 49 528 Q42 528 42 537 L42 677 Q42 692 56 698 Q87 710 124 715 Q161 720 204 720 Q260 720 305.5 706 Q351 692 383.5 665 Q416 638 433.5 599 Q451 560 451 509 Q451 462 434 414 Q417 366 384 304 L312 168 L454 168 L454 168 Z " />
<glyph glyph-name="three" unicode="3" horiz-adv-x="525" d="M341 385 Q418 365 453 319.5 Q488 274 488 216 Q488 163 463.5 121 Q439 79 398 50 Q357 21 303.5 5.5 Q250 -10 192 -10 Q145 -10 111 -4 Q77 2 54 12 Q40 17 40 33 L40 167 Q40 181 54 177 Q80 168 107 162.5 Q134 157 169 157 Q218 157 249 174 Q280 191 280 222 Q280 250 251 266 Q222 282 162 282 L121 282 Q106 282 106 297 L106 424 Q106 439 121 439 L163 439 Q217 439 239.5 455 Q262 471 262 497 Q262 527 233.5 543.5 Q205 560 163 560 Q131 560 106 554 Q81 548 60 539 Q54 537 53 537 Q47 537 47 547 L47 679 Q47 695 61 699 Q88 708 125.5 714 Q163 720 203 720 Q263 720 310 707 Q357 694 389.5 670.5 Q422 647 439.5 613.5 Q457 580 457 539 Q457 490 430 449.5 Q403 409 341 385 Z " />
<glyph glyph-name="four" unicode="4" horiz-adv-x="580" d="M541 255 Q556 255 556 240 L556 116 Q556 101 541 101 L486 101 L486 15 Q486 0 471 0 L305 0 Q290 0 290 15 L290 101 L45 101 Q30 101 30 116 L30 246 Q30 261 38 274 L304 697 Q312 710 327 710 L471 710 Q486 710 486 695 L486 255 L541 255 Z M304 455 Q295 432 284 403.5 Q273 375 260 354 L201 255 L296 255 L296 351 Q296 359 297 373 Q298 387 300 402 Q302 417 303.5 431.5 Q305 446 307 455 L304 455 Z " />
<glyph glyph-name="five" unicode="5" horiz-adv-x="544" d="M261 460 Q316 458 361.5 444.5 Q407 431 440 406 Q473 381 491.5 343.5 Q510 306 510 256 Q510 192 484.5 142.5 Q459 93 416.5 59 Q374 25 317.5 7.5 Q261 -10 200 -10 Q157 -10 122 -3.5 Q87 3 63 14 Q50 20 50 36 L50 170 Q50 180 58 180 Q61 180 63 179 Q82 172 108.5 165.5 Q135 159 165 159 Q221 159 257 181 Q293 203 293 243 Q293 279 262 299.5 Q231 320 177 320 Q136 320 106.5 310.5 Q77 301 69 301 Q60 301 60 309 Q60 314 61 319.5 Q62 325 64 339 L120 695 Q122 710 137 710 L471 710 Q486 710 486 695 L486 555 Q486 540 471 540 L274 540 L261 460 L261 460 Z " />
<glyph glyph-name="six" unicode="6" horiz-adv-x="584" d="M337 469 Q382 469 422 452 Q462 435 492 405 Q522 375 539 333.5 Q556 292 556 243 Q556 186 534.5 139.5 Q513 93 477 60 Q441 27 393.5 8.5 Q346 -10 294 -10 Q234 -10 186 9.5 Q138 29 104.5 62 Q71 95 53.5 140 Q36 185 36 236 Q36 302 55.5 357.5 Q75 413 112 467 L270 698 Q279 710 293 710 L486 710 Q495 710 495 705 Q495 702 492 698 L439 633 Q427 618 412.5 598.5 Q398 579 382 557 Q366 535 349.5 511.5 Q333 488 318 467 Q323 468 327.5 468.5 Q332 469 337 469 Z M295 156 Q327 156 350.5 177.5 Q374 199 374 238 Q374 280 350.5 300.5 Q327 321 295 321 Q263 321 239.5 299.5 Q216 278 216 237 Q216 198 238.5 177 Q261 156 295 156 Z " />
<glyph glyph-name="seven" unicode="7" horiz-adv-x="523" d="M505 710 Q521 710 516 695 L284 14 Q279 0 264 0 L81 0 Q65 0 70 15 L254 529 L45 529 Q30 529 30 544 L30 695 Q30 710 45 710 L505 710 L505 710 Z " />
<glyph glyph-name="eight" unicode="8" horiz-adv-x="598" d="M299 -8 Q248 -8 200.5 6 Q153 20 116.5 47 Q80 74 58.5 114 Q37 154 37 205 Q37 268 65 310.5 Q93 353 144 376 Q99 404 79 442 Q59 480 59 525 Q59 570 78 606 Q97 642 129.5 667.5 Q162 693 205.5 706.5 Q249 720 299 720 Q348 720 391.5 706.5 Q435 693 468 668 Q501 643 520 606.5 Q539 570 539 525 Q539 480 519.5 442 Q500 404 455 376 Q504 353 532.5 310.5 Q561 268 561 205 Q561 154 539.5 114 Q518 74 482 47 Q446 20 398.5 6 Q351 -8 299 -8 Z M299 446 Q325 446 339 464 Q353 482 353 505 Q353 528 339 545 Q325 562 299 562 Q273 562 259.5 545 Q246 528 246 505 Q246 482 259.5 464 Q273 446 299 446 Z M299 156 Q326 156 343.5 174 Q361 192 361 222 Q361 251 343.5 269.5 Q326 288 299 288 Q273 288 255.5 269.5 Q238 251 238 222 Q238 192 255 174 Q272 156 299 156 Z " />
<glyph glyph-name="nine" unicode="9" horiz-adv-x="584" d="M289 720 Q349 720 397 700.5 Q445 681 478.5 648 Q512 615 529.5 570 Q547 525 547 474 Q547 408 527.5 352.5 Q508 297 471 243 L313 12 Q304 0 290 0 L97 0 Q88 0 88 5 Q88 7 91 12 L144 77 Q156 92 170.5 111.5 Q185 131 201 153 Q217 175 233.5 198.5 Q250 222 265 243 Q260 242 255.5 241.5 Q251 241 246 241 Q201 241 161 258 Q121 275 91 305 Q61 335 44 376.5 Q27 418 27 467 Q27 524 48 570.5 Q69 617 105 650 Q141 683 188.5 701.5 Q236 720 289 720 Z M209 472 Q209 430 232.5 409.5 Q256 389 288 389 Q320 389 343.5 410.5 Q367 432 367 473 Q367 512 344.5 533 Q322 554 288 554 Q256 554 232.5 532.5 Q209 511 209 472 Z " />
<glyph glyph-name="onesuperior" unicode="&#xb9;" horiz-adv-x="309" d="M235 845 Q250 845 250 830 L250 478 Q250 463 235 463 L146 463 Q131 463 131 478 L131 711 L68 689 Q66 688 62 688 Q54 688 54 699 L54 768 Q54 783 68 789 L188 840 Q200 845 213 845 L235 845 L235 845 Z " />
<glyph glyph-name="twosuperior" unicode="&#xb2;" horiz-adv-x="347" d="M295 555 Q310 555 310 540 L310 478 Q310 463 295 463 L47 463 Q32 463 41 475 L144 633 Q159 656 170 674 Q181 692 181 709 Q181 732 163 743.5 Q145 755 115 755 Q87 755 62 746 Q60 745 56 745 Q48 745 48 756 L48 819 Q48 835 62 839 Q81 844 103.5 846.5 Q126 849 151 849 Q219 849 260 819.5 Q301 790 301 736 Q301 710 288 684 Q275 658 252 626 L204 555 L295 555 L295 555 Z " />
<glyph glyph-name="threesuperior" unicode="&#xb3;" horiz-adv-x="335" d="M218 671 Q265 660 287.5 636 Q310 612 310 580 Q310 551 295.5 528.5 Q281 506 256 490.5 Q231 475 199 467 Q167 459 132 459 Q104 459 83.5 461.5 Q63 464 48 469 Q34 472 34 489 L34 548 Q34 563 48 559 Q62 554 77 552 Q92 550 112 550 Q144 550 164.5 558.5 Q185 567 185 584 Q185 615 111 615 L94 615 Q79 615 79 630 L79 685 Q79 700 94 700 L111 700 Q149 700 165 708.5 Q181 717 181 732 Q181 748 162.5 755.5 Q144 763 115 763 Q80 763 53 755 Q51 754 47 754 Q39 754 39 765 L39 822 Q39 838 53 841 Q70 846 91.5 848 Q113 850 136 850 Q209 850 249.5 824.5 Q290 799 290 754 Q290 728 273 706 Q256 684 218 671 Z " />
<glyph glyph-name="fraction" unicode="&#x2044;" horiz-adv-x="110" d="M-210 6 Q-218 11 -218 18 Q-218 21 -215 27 L253 733 Q258 741 265 741 Q268 741 274 738 L312 716 Q320 711 320 704 Q320 701 317 695 L-151 -12 Q-156 -20 -163 -20 Q-166 -20 -172 -17 L-210 6 L-210 6 Z " />
<glyph glyph-name="onehalf" unicode="&#xbd;" horiz-adv-x="802" d="M235 715 Q250 715 250 700 L250 348 Q250 333 235 333 L146 333 Q131 333 131 348 L131 581 L68 559 Q66 558 62 558 Q54 558 54 569 L54 638 Q54 653 68 659 L188 710 Q200 715 213 715 L235 715 L235 715 Z M135 6 Q127 11 127 18 Q127 21 130 27 L598 733 Q603 741 610 741 Q613 741 619 738 L657 716 Q665 711 665 704 Q665 701 662 695 L194 -12 Q189 -20 182 -20 Q179 -20 173 -17 L135 6 L135 6 Z M750 92 Q765 92 765 77 L765 15 Q765 0 750 0 L502 0 Q487 0 496 12 L599 170 Q614 193 625 211 Q636 229 636 246 Q636 269 618 280.5 Q600 292 570 292 Q542 292 517 283 Q515 282 511 282 Q503 282 503 293 L503 356 Q503 372 517 376 Q536 381 558.5 383.5 Q581 386 606 386 Q674 386 715 356.5 Q756 327 756 273 Q756 247 743 221 Q730 195 707 163 L659 92 L750 92 L750 92 Z " />
<glyph glyph-name="onequarter" unicode="&#xbc;" horiz-adv-x="742" d="M235 715 Q250 715 250 700 L250 348 Q250 333 235 333 L146 333 Q131 333 131 348 L131 581 L68 559 Q66 558 62 558 Q54 558 54 569 L54 638 Q54 653 68 659 L188 710 Q200 715 213 715 L235 715 L235 715 Z M135 6 Q127 11 127 18 Q127 21 130 27 L598 733 Q603 741 610 741 Q613 741 619 738 L657 716 Q665 711 665 704 Q665 701 662 695 L194 -12 Q189 -20 182 -20 Q179 -20 173 -17 L135 6 L135 6 Z M712 137 Q727 137 727 122 L727 68 Q727 53 712 53 L683 53 L683 15 Q683 0 668 0 L590 0 Q575 0 575 15 L575 53 L430 53 Q417 53 417 66 L417 128 Q417 141 424 152 L579 370 Q585 381 599 381 L668 381 Q683 381 683 366 L683 137 L712 137 Z M578 229 L511 137 L579 137 L579 229 L578 229 Z " />
<glyph glyph-name="threequarters" unicode="&#xbe;" horiz-adv-x="733" d="M218 541 Q265 530 287.5 506 Q310 482 310 450 Q310 421 295.5 398.5 Q281 376 256 360.5 Q231 345 199 337 Q167 329 132 329 Q104 329 83.5 331.5 Q63 334 48 339 Q34 342 34 359 L34 418 Q34 433 48 429 Q62 424 77 422 Q92 420 112 420 Q144 420 164.5 428.5 Q185 437 185 454 Q185 485 111 485 L94 485 Q79 485 79 500 L79 555 Q79 570 94 570 L111 570 Q149 570 165 578.5 Q181 587 181 602 Q181 618 162.5 625.5 Q144 633 115 633 Q80 633 53 625 Q51 624 47 624 Q39 624 39 635 L39 692 Q39 708 53 711 Q70 716 91.5 718 Q113 720 136 720 Q209 720 249.5 694.5 Q290 669 290 624 Q290 598 273 576 Q256 554 218 541 Z M125 6 Q117 11 117 18 Q117 21 120 27 L588 733 Q593 741 600 741 Q603 741 609 738 L647 716 Q655 711 655 704 Q655 701 652 695 L184 -12 Q179 -20 172 -20 Q169 -20 163 -17 L125 6 L125 6 Z M703 137 Q718 137 718 122 L718 68 Q718 53 703 53 L674 53 L674 15 Q674 0 659 0 L581 0 Q566 0 566 15 L566 53 L421 53 Q408 53 408 66 L408 128 Q408 141 415 152 L570 370 Q576 381 590 381 L659 381 Q674 381 674 366 L674 137 L703 137 Z M569 229 L502 137 L570 137 L570 229 L569 229 Z " />
<glyph glyph-name="oneeighth" unicode="&#x215b;" horiz-adv-x="796" d="M235 715 Q250 715 250 700 L250 348 Q250 333 235 333 L146 333 Q131 333 131 348 L131 581 L68 559 Q66 558 62 558 Q54 558 54 569 L54 638 Q54 653 68 659 L188 710 Q200 715 213 715 L235 715 L235 715 Z M135 6 Q127 11 127 18 Q127 21 130 27 L598 733 Q603 741 610 741 Q613 741 619 738 L657 716 Q665 711 665 704 Q665 701 662 695 L194 -12 Q189 -20 182 -20 Q179 -20 173 -17 L135 6 L135 6 Z M626 -4 Q596 -4 568.5 3 Q541 10 520 24.5 Q499 39 486.5 60.5 Q474 82 474 112 Q474 145 492.5 167.5 Q511 190 542 202 Q489 231 489 283 Q489 307 499.5 326 Q510 345 529 358.5 Q548 372 572.5 379.5 Q597 387 626 387 Q654 387 679 379.5 Q704 372 722.5 358.5 Q741 345 752 326 Q763 307 763 283 Q763 231 709 202 Q739 190 758.5 167.5 Q778 145 778 112 Q778 82 765.5 60.5 Q753 39 732 24.5 Q711 10 683.5 3 Q656 -4 626 -4 Z M626 236 Q666 236 666 271 Q666 286 655 294.5 Q644 303 626 303 Q607 303 596 294.5 Q585 286 585 271 Q585 236 626 236 Z M626 81 Q647 81 661 90.5 Q675 100 675 119 Q675 137 661 147 Q647 157 626 157 Q606 157 591 147 Q576 137 576 119 Q576 100 590.5 90.5 Q605 81 626 81 Z " />
<glyph glyph-name="threeeighths" unicode="&#x215c;" horiz-adv-x="787" d="M218 541 Q265 530 287.5 506 Q310 482 310 450 Q310 421 295.5 398.5 Q281 376 256 360.5 Q231 345 199 337 Q167 329 132 329 Q104 329 83.5 331.5 Q63 334 48 339 Q34 342 34 359 L34 418 Q34 433 48 429 Q62 424 77 422 Q92 420 112 420 Q144 420 164.5 428.5 Q185 437 185 454 Q185 485 111 485 L94 485 Q79 485 79 500 L79 555 Q79 570 94 570 L111 570 Q149 570 165 578.5 Q181 587 181 602 Q181 618 162.5 625.5 Q144 633 115 633 Q80 633 53 625 Q51 624 47 624 Q39 624 39 635 L39 692 Q39 708 53 711 Q70 716 91.5 718 Q113 720 136 720 Q209 720 249.5 694.5 Q290 669 290 624 Q290 598 273 576 Q256 554 218 541 Z M125 6 Q117 11 117 18 Q117 21 120 27 L588 733 Q593 741 600 741 Q603 741 609 738 L647 716 Q655 711 655 704 Q655 701 652 695 L184 -12 Q179 -20 172 -20 Q169 -20 163 -17 L125 6 L125 6 Z M617 -4 Q587 -4 559.5 3 Q532 10 511 24.5 Q490 39 477.5 60.5 Q465 82 465 112 Q465 145 483.5 167.5 Q502 190 533 202 Q480 231 480 283 Q480 307 490.5 326 Q501 345 520 358.5 Q539 372 563.5 379.5 Q588 387 617 387 Q645 387 670 379.5 Q695 372 713.5 358.5 Q732 345 743 326 Q754 307 754 283 Q754 231 700 202 Q730 190 749.5 167.5 Q769 145 769 112 Q769 82 756.5 60.5 Q744 39 723 24.5 Q702 10 674.5 3 Q647 -4 617 -4 Z M617 236 Q657 236 657 271 Q657 286 646 294.5 Q635 303 617 303 Q598 303 587 294.5 Q576 286 576 271 Q576 236 617 236 Z M617 81 Q638 81 652 90.5 Q666 100 666 119 Q666 137 652 147 Q638 157 617 157 Q597 157 582 147 Q567 137 567 119 Q567 100 581.5 90.5 Q596 81 617 81 Z " />
<glyph glyph-name="fiveeighths" unicode="&#x215d;" horiz-adv-x="797" d="M165 580 Q198 580 225.5 573 Q253 566 273 552.5 Q293 539 304 518 Q315 497 315 468 Q315 435 300 409 Q285 383 260.5 365 Q236 347 203.5 337.5 Q171 328 135 328 Q89 328 61 339 Q47 344 47 360 L47 420 Q47 434 61 430 Q72 427 85 424 Q98 421 114 421 Q148 421 168.5 433 Q189 445 189 463 Q189 480 170 491.5 Q151 503 117 503 Q89 503 65 494 Q63 493 59 493 Q53 493 54 504 L87 699 Q90 714 105 714 L286 714 Q301 714 301 699 L301 635 Q301 620 286 620 L173 620 L165 580 L165 580 Z M136 6 Q128 11 128 18 Q128 21 131 27 L599 733 Q604 741 611 741 Q614 741 620 738 L658 716 Q666 711 666 704 Q666 701 663 695 L195 -12 Q190 -20 183 -20 Q180 -20 174 -17 L136 6 L136 6 Z M627 -4 Q597 -4 569.5 3 Q542 10 521 24.5 Q500 39 487.5 60.5 Q475 82 475 112 Q475 145 493.5 167.5 Q512 190 543 202 Q490 231 490 283 Q490 307 500.5 326 Q511 345 530 358.5 Q549 372 573.5 379.5 Q598 387 627 387 Q655 387 680 379.5 Q705 372 723.5 358.5 Q742 345 753 326 Q764 307 764 283 Q764 231 710 202 Q740 190 759.5 167.5 Q779 145 779 112 Q779 82 766.5 60.5 Q754 39 733 24.5 Q712 10 684.5 3 Q657 -4 627 -4 Z M627 236 Q667 236 667 271 Q667 286 656 294.5 Q645 303 627 303 Q608 303 597 294.5 Q586 286 586 271 Q586 236 627 236 Z M627 81 Q648 81 662 90.5 Q676 100 676 119 Q676 137 662 147 Q648 157 627 157 Q607 157 592 147 Q577 137 577 119 Q577 100 591.5 90.5 Q606 81 627 81 Z " />
<glyph glyph-name="seveneighths" unicode="&#x215e;" horiz-adv-x="760" d="M319 714 Q334 714 328 700 L183 347 Q176 333 162 333 L70 333 Q55 333 61 347 L179 612 L51 612 Q36 612 36 627 L36 699 Q36 714 51 714 L319 714 L319 714 Z M98 6 Q90 11 90 18 Q90 21 93 27 L561 733 Q566 741 573 741 Q576 741 582 738 L620 716 Q628 711 628 704 Q628 701 625 695 L157 -12 Q152 -20 145 -20 Q142 -20 136 -17 L98 6 L98 6 Z M590 -4 Q560 -4 532.5 3 Q505 10 484 24.5 Q463 39 450.5 60.5 Q438 82 438 112 Q438 145 456.5 167.5 Q475 190 506 202 Q453 231 453 283 Q453 307 463.5 326 Q474 345 493 358.5 Q512 372 536.5 379.5 Q561 387 590 387 Q618 387 643 379.5 Q668 372 686.5 358.5 Q705 345 716 326 Q727 307 727 283 Q727 231 673 202 Q703 190 722.5 167.5 Q742 145 742 112 Q742 82 729.5 60.5 Q717 39 696 24.5 Q675 10 647.5 3 Q620 -4 590 -4 Z M590 236 Q630 236 630 271 Q630 286 619 294.5 Q608 303 590 303 Q571 303 560 294.5 Q549 286 549 271 Q549 236 590 236 Z M590 81 Q611 81 625 90.5 Q639 100 639 119 Q639 137 625 147 Q611 157 590 157 Q570 157 555 147 Q540 137 540 119 Q540 100 554.5 90.5 Q569 81 590 81 Z " />
<glyph glyph-name="asterisk" unicode="&#x2a;" horiz-adv-x="511" d="M480 497 Q481 495 481 491 Q481 482 470 481 L414 473 Q407 472 399.5 471.5 Q392 471 384 472 L315 476 L374 438 Q386 432 398 420 L438 380 Q443 375 443 371 Q443 365 436 361 L327 282 Q323 278 318 278 Q312 278 308 286 L284 337 Q281 343 278 350 Q275 357 273 365 L256 431 L239 365 Q237 354 228 337 L203 287 Q198 279 193 279 Q188 279 184 282 L75 362 Q69 366 69 371 Q69 376 74 381 L114 420 Q119 425 124.5 429.5 Q130 434 138 438 L197 476 L127 472 Q124 472 121 471.5 Q118 471 115 471 Q111 471 106.5 471.5 Q102 472 97 473 L41 481 Q27 484 31 498 L73 626 Q78 641 91 634 L140 607 Q146 604 152.5 600 Q159 596 165 591 L220 546 L194 611 Q192 617 190 624.5 Q188 632 187 640 L177 695 L177 698 Q177 710 190 710 L325 710 Q340 710 337 695 L328 640 Q326 633 324.5 626 Q323 619 320 611 L296 550 L346 591 Q356 599 371 607 L421 633 Q427 635 429 635 Q434 635 439 626 L480 497 L480 497 Z " />
<glyph glyph-name="backslash" unicode="&#x5c;" horiz-adv-x="414" d="M437 -124 Q438 -126 438 -130 Q438 -138 427 -138 L317 -138 Q303 -138 297 -124 L-28 776 Q-29 778 -29 782 Q-29 790 -18 790 L91 790 Q105 790 111 776 L437 -124 L437 -124 Z " />
<glyph glyph-name="periodcentered" unicode="&#xb7;" horiz-adv-x="268" d="M135 137 Q113 137 94.5 145.5 Q76 154 62.5 168.5 Q49 183 41.5 202 Q34 221 34 242 Q34 263 41.5 282.5 Q49 302 62.5 316 Q76 330 94.5 338.5 Q113 347 135 347 Q179 347 206.5 316 Q234 285 234 242 Q234 221 226.5 202 Q219 183 206 168.5 Q193 154 175 145.5 Q157 137 135 137 Z " />
<glyph glyph-name="bullet" unicode="&#x2022;" horiz-adv-x="368" d="M186 42 Q153 42 125 55 Q97 68 76.5 89.5 Q56 111 45 139.5 Q34 168 34 199 Q34 231 45 260 Q56 289 76.5 310.5 Q97 332 125 344.5 Q153 357 186 357 Q219 357 246 344.5 Q273 332 292.5 310.5 Q312 289 323 260 Q334 231 334 199 Q334 168 323 139.5 Q312 111 292.5 89.5 Q273 68 246 55 Q219 42 186 42 Z " />
<glyph glyph-name="colon" unicode="&#x3a;" horiz-adv-x="264" d="M134 279 Q112 279 94 287.5 Q76 296 62.5 310 Q49 324 41.5 343 Q34 362 34 382 Q34 425 62 455.5 Q90 486 134 486 Q177 486 204 455.5 Q231 425 231 382 Q231 362 224 343 Q217 324 204 310 Q191 296 173 287.5 Q155 279 134 279 Z M134 -9 Q112 -9 94 -0.5 Q76 8 62.5 22 Q49 36 41.5 55 Q34 74 34 94 Q34 137 62 167.5 Q90 198 134 198 Q177 198 204 167.5 Q231 137 231 94 Q231 74 224 55 Q217 36 204 22 Q191 8 173 -0.5 Q155 -9 134 -9 Z " />
<glyph glyph-name="comma" unicode="&#x2c;" horiz-adv-x="270" d="M135 203 Q178 203 206.5 173 Q235 143 235 97 Q235 67 222 35 Q209 3 194 -34 L132 -184 Q125 -197 113 -197 L70 -197 Q55 -197 59 -182 L100 0 Q70 10 52 37 Q34 64 34 97 Q34 120 42 139.5 Q50 159 64 173 Q78 187 96 195 Q114 203 135 203 Z " />
<glyph glyph-name="ellipsis" unicode="&#x2026;" horiz-adv-x="857" d="M135 -7 Q113 -7 94.5 1.5 Q76 10 62.5 24.5 Q49 39 41.5 58 Q34 77 34 98 Q34 119 41.5 138.5 Q49 158 62.5 172 Q76 186 94.5 194.5 Q113 203 135 203 Q179 203 206.5 172 Q234 141 234 98 Q234 77 226.5 58 Q219 39 206 24.5 Q193 10 175 1.5 Q157 -7 135 -7 Z M430 -7 Q408 -7 389.5 1.5 Q371 10 357.5 24.5 Q344 39 336.5 58 Q329 77 329 98 Q329 119 336.5 138.5 Q344 158 357.5 172 Q371 186 389.5 194.5 Q408 203 430 203 Q474 203 501.5 172 Q529 141 529 98 Q529 77 521.5 58 Q514 39 501 24.5 Q488 10 470 1.5 Q452 -7 430 -7 Z M724 -7 Q702 -7 683.5 1.5 Q665 10 651.5 24.5 Q638 39 630.5 58 Q623 77 623 98 Q623 119 630.5 138.5 Q638 158 651.5 172 Q665 186 683.5 194.5 Q702 203 724 203 Q768 203 795.5 172 Q823 141 823 98 Q823 77 815.5 58 Q808 39 795 24.5 Q782 10 764 1.5 Q746 -7 724 -7 Z " />
<glyph glyph-name="exclam" unicode="&#x21;" horiz-adv-x="285" d="M93 251 Q78 251 77 266 L35 695 Q35 710 49 710 L236 710 Q251 710 250 695 L208 266 Q208 251 192 251 L93 251 Z M144 -10 Q122 -10 103.5 -1.5 Q85 7 71.5 21.5 Q58 36 50.5 55 Q43 74 43 95 Q43 116 50.5 135.5 Q58 155 71.5 169 Q85 183 103.5 191.5 Q122 200 144 200 Q188 200 215.5 169 Q243 138 243 95 Q243 74 235.5 55 Q228 36 215 21.5 Q202 7 184 -1.5 Q166 -10 144 -10 Z " />
<glyph glyph-name="exclamdown" unicode="&#xa1;" horiz-adv-x="285" d="M144 720 Q166 720 184 711.5 Q202 703 215 688.5 Q228 674 235.5 655 Q243 636 243 615 Q243 572 215.5 541 Q188 510 144 510 Q122 510 103.5 518.5 Q85 527 71.5 541 Q58 555 50.5 574.5 Q43 594 43 615 Q43 636 50.5 655 Q58 674 71.5 688.5 Q85 703 103.5 711.5 Q122 720 144 720 Z M77 444 Q77 459 93 459 L192 459 Q207 459 208 444 L250 15 Q250 0 236 0 L49 0 Q34 0 35 15 L77 444 Z " />
<glyph glyph-name="numbersign" unicode="&#x23;" horiz-adv-x="679" d="M647 535 Q662 535 662 520 L662 431 Q662 420 652 420 L532 420 L509 286 L629 286 Q639 286 639 276 L639 183 Q639 171 627 171 L490 171 L463 15 Q460 0 445 0 L336 0 Q324 0 327 10 L355 171 L240 171 L212 12 Q210 0 198 0 L92 0 Q77 0 80 15 L107 171 L34 171 Q19 171 19 186 L19 271 Q19 286 34 286 L126 286 L149 420 L54 420 Q42 420 42 432 L42 520 Q42 535 57 535 L169 535 L196 695 Q199 710 214 710 L324 710 Q335 710 332 700 L303 535 L417 535 L445 698 Q447 710 459 710 L567 710 Q582 710 579 695 L552 535 L647 535 Z M397 420 L283 420 L260 286 L374 286 L397 420 Z " />
<glyph glyph-name="period" unicode="&#x2e;" horiz-adv-x="268" d="M135 -7 Q113 -7 94.5 1.5 Q76 10 62.5 24.5 Q49 39 41.5 58 Q34 77 34 98 Q34 119 41.5 138.5 Q49 158 62.5 172 Q76 186 94.5 194.5 Q113 203 135 203 Q179 203 206.5 172 Q234 141 234 98 Q234 77 226.5 58 Q219 39 206 24.5 Q193 10 175 1.5 Q157 -7 135 -7 Z " />
<glyph glyph-name="question" unicode="&#x3f;" horiz-adv-x="455" d="M142 221 Q114 221 113 249 L108 358 L108 360 Q108 372 121 376 Q162 389 190 411.5 Q218 434 218 473 Q218 508 191 531.5 Q164 555 120 555 Q84 555 53 546 Q45 544 41 544 Q25 544 25 565 L25 664 Q25 678 32 689 Q39 700 53 705 Q81 713 113.5 716.5 Q146 720 175 720 Q231 720 277 704.5 Q323 689 355.5 661 Q388 633 406 594.5 Q424 556 424 510 Q424 472 411 439.5 Q398 407 376.5 381.5 Q355 356 327.5 337.5 Q300 319 270 308 L262 249 Q259 221 230 221 L142 221 Z M185 -7 Q162 -7 143.5 1 Q125 9 111.5 22.5 Q98 36 90.5 53.5 Q83 71 83 90 Q83 129 111.5 157.5 Q140 186 185 186 Q230 186 257 157.5 Q284 129 284 90 Q284 71 277 53.5 Q270 36 257 22.5 Q244 9 225.5 1 Q207 -7 185 -7 Z " />
<glyph glyph-name="questiondown" unicode="&#xbf;" horiz-adv-x="455" d="M270 720 Q292 720 311 712 Q330 704 343.5 690.5 Q357 677 364.5 659.5 Q372 642 372 623 Q372 584 343.5 555.5 Q315 527 270 527 Q225 527 198 555.5 Q171 584 171 623 Q171 642 178 659.5 Q185 677 198 690.5 Q211 704 229.5 712 Q248 720 270 720 Z M313 492 Q341 492 342 464 L347 355 L347 353 Q347 341 334 337 Q293 324 265 301.5 Q237 279 237 240 Q237 205 264 181.5 Q291 158 335 158 Q370 158 402 167 Q410 169 414 169 Q430 169 430 148 L430 49 Q430 35 423 24 Q416 13 402 8 Q374 0 341.5 -3.5 Q309 -7 280 -7 Q224 -7 178 8.5 Q132 24 99.5 52 Q67 80 49 118.5 Q31 157 31 203 Q31 241 44 273 Q57 305 78.5 330.5 Q100 356 127.5 375 Q155 394 185 405 L193 464 Q196 492 225 492 L313 492 Z " />
<glyph glyph-name="quotedbl" unicode="&#x22;" horiz-adv-x="565" d="M90 376 Q76 376 73 391 L42 695 L42 698 Q42 710 55 710 L233 710 Q249 710 246 695 L215 391 Q213 376 198 376 L90 376 Z M350 376 Q336 376 333 391 L302 695 L302 698 Q302 710 315 710 L493 710 Q509 710 506 695 L475 391 Q473 376 458 376 L350 376 Z " />
<glyph glyph-name="quotesingle" unicode="&#x27;" horiz-adv-x="288" d="M90 376 Q76 376 73 391 L42 695 L42 698 Q42 710 55 710 L233 710 Q249 710 246 695 L215 391 Q213 376 198 376 L90 376 L90 376 Z " />
<glyph glyph-name="semicolon" unicode="&#x3b;" horiz-adv-x="265" d="M134 279 Q112 279 94 287.5 Q76 296 62.5 310 Q49 324 41.5 343 Q34 362 34 382 Q34 425 62 455.5 Q90 486 134 486 Q177 486 204 455.5 Q231 425 231 382 Q231 362 224 343 Q217 324 204 310 Q191 296 173 287.5 Q155 279 134 279 Z M132 184 Q172 184 198 156 Q224 128 224 86 Q224 58 212.5 29 Q201 0 187 -34 L130 -172 Q124 -184 112 -184 L72 -184 Q59 -184 62 -171 L100 -4 Q72 6 55.5 31 Q39 56 39 86 Q39 107 46.5 125 Q54 143 66.5 156 Q79 169 96 176.5 Q113 184 132 184 Z " />
<glyph glyph-name="slash" unicode="&#x2f;" horiz-adv-x="414" d="M-18 -138 Q-34 -138 -28 -124 L298 776 Q303 790 318 790 L427 790 Q443 790 437 776 L112 -124 Q107 -138 92 -138 L-18 -138 L-18 -138 Z " />
<glyph glyph-name="underscore" unicode="&#x5f;" horiz-adv-x="678" d="M97 -208 Q82 -208 82 -193 L82 -70 Q82 -55 97 -55 L581 -55 Q596 -55 596 -70 L596 -193 Q596 -208 581 -208 L97 -208 L97 -208 Z " />
<glyph glyph-name="braceleft" unicode="&#x7b;" horiz-adv-x="331" d="M270 615 Q221 615 221 571 Q221 553 230.5 528 Q240 503 251.5 475 Q263 447 272.5 419.5 Q282 392 282 369 Q282 330 250 297 Q218 264 153 256 Q218 248 250 215 Q282 182 282 143 Q282 120 272.5 92.5 Q263 65 251.5 37 Q240 9 230.5 -16 Q221 -41 221 -59 Q221 -103 270 -103 L288 -103 L291 -103 Q303 -103 303 -116 L303 -172 Q303 -188 290 -194 Q276 -199 256 -203.5 Q236 -208 206 -208 Q165 -208 135.5 -197.5 Q106 -187 87 -169.5 Q68 -152 59 -129.5 Q50 -107 50 -83 Q50 -55 61 -25 Q72 5 84.5 33 Q97 61 108 86 Q119 111 119 130 Q119 153 105 171 Q91 189 56 194 Q41 197 41 211 L41 301 Q41 315 56 318 Q91 323 105 341 Q119 359 119 382 Q119 401 108 426 Q97 451 84.5 479 Q72 507 61 537 Q50 567 50 595 Q50 619 59 641.5 Q68 664 87 681.5 Q106 699 135.5 709.5 Q165 720 206 720 Q236 720 256 715.5 Q276 711 290 706 Q303 699 303 684 L303 628 Q303 614 288 615 L270 615 L270 615 Z " />
<glyph glyph-name="braceright" unicode="&#x7d;" horiz-adv-x="331" d="M283 318 Q298 315 298 301 L298 211 Q298 197 283 194 Q248 189 234 171 Q220 153 220 130 Q220 111 231 86 Q242 61 254.5 33 Q267 5 278 -25 Q289 -55 289 -83 Q289 -107 280 -129.5 Q271 -152 252 -169.5 Q233 -187 203.5 -197.5 Q174 -208 133 -208 Q103 -208 83 -203.5 Q63 -199 49 -194 Q36 -188 36 -172 L36 -116 Q36 -102 51 -103 L69 -103 Q118 -103 118 -59 Q118 -41 108.5 -16 Q99 9 87.5 37 Q76 65 66.5 92.5 Q57 120 57 143 Q57 182 89 215 Q121 248 186 256 Q121 264 89 297 Q57 330 57 369 Q57 392 66.5 419.5 Q76 447 87.5 475 Q99 503 108.5 528 Q118 553 118 571 Q118 615 69 615 L51 615 L48 615 Q36 615 36 628 L36 684 Q36 699 49 706 Q63 711 83 715.5 Q103 720 133 720 Q174 720 203.5 709.5 Q233 699 252 681.5 Q271 664 280 641.5 Q289 619 289 595 Q289 567 278 537 Q267 507 254.5 479 Q242 451 231 426 Q220 401 220 382 Q220 359 234 341 Q248 323 283 318 Z " />
<glyph glyph-name="bracketleft" unicode="&#x5b;" horiz-adv-x="349" d="M328 -185 Q328 -200 313 -200 L72 -200 Q57 -200 57 -185 L57 695 Q57 710 72 710 L312 710 Q327 710 327 695 L327 603 Q327 588 312 588 L208 588 L208 -78 L313 -78 Q328 -78 328 -93 L328 -185 L328 -185 Z " />
<glyph glyph-name="bracketright" unicode="&#x5d;" horiz-adv-x="349" d="M36 -200 Q21 -200 21 -185 L21 -93 Q21 -78 36 -78 L141 -78 L141 588 L37 588 Q22 588 22 603 L22 695 Q22 710 37 710 L277 710 Q292 710 292 695 L292 -185 Q292 -200 277 -200 L36 -200 L36 -200 Z " />
<glyph glyph-name="parenleft" unicode="&#x28;" horiz-adv-x="401" d="M374 -176 Q377 -181 379 -184 Q381 -187 381 -190 Q381 -199 363 -199 L254 -199 Q239 -199 229 -188 Q191 -146 160 -98.5 Q129 -51 106.5 3 Q84 57 72 119.5 Q60 182 60 255 Q60 328 72 390.5 Q84 453 106.5 507.5 Q129 562 160 609.5 Q191 657 229 699 Q238 710 254 710 L363 710 Q381 710 381 701 Q381 697 374 687 Q305 596 264.5 485.5 Q224 375 224 255 Q224 136 264.5 25.5 Q305 -85 374 -176 Z " />
<glyph glyph-name="parenright" unicode="&#x29;" horiz-adv-x="401" d="M38 -199 Q20 -199 20 -190 Q20 -187 22 -184 Q24 -181 27 -176 Q96 -85 136.5 25.5 Q177 136 177 255 Q177 375 136.5 485.5 Q96 596 27 687 Q20 697 20 701 Q20 710 38 710 L147 710 Q162 710 172 699 Q210 657 241 609.5 Q272 562 294.5 507.5 Q317 453 329 390.5 Q341 328 341 255 Q341 182 329 119.5 Q317 57 294.5 3 Q272 -51 241 -98.5 Q210 -146 172 -188 Q163 -199 147 -199 L38 -199 L38 -199 Z " />
<glyph glyph-name="emdash" unicode="&#x2014;" horiz-adv-x="916" d="M97 181 Q82 181 82 196 L82 319 Q82 334 97 334 L819 334 Q834 334 834 319 L834 196 Q834 181 819 181 L97 181 L97 181 Z " />
<glyph glyph-name="endash" unicode="&#x2013;" horiz-adv-x="678" d="M97 181 Q82 181 82 196 L82 319 Q82 334 97 334 L581 334 Q596 334 596 319 L596 196 Q596 181 581 181 L97 181 L97 181 Z " />
<glyph glyph-name="hyphen" unicode="&#x2d;" horiz-adv-x="495" d="M97 181 Q82 181 82 196 L82 322 Q82 337 97 337 L398 337 Q413 337 413 322 L413 196 Q413 181 398 181 L97 181 L97 181 Z " />
<glyph glyph-name="softhyphen" unicode="&#xad;" horiz-adv-x="495" d="M97 181 Q82 181 82 196 L82 322 Q82 337 97 337 L398 337 Q413 337 413 322 L413 196 Q413 181 398 181 L97 181 L97 181 Z " />
<glyph glyph-name="guillemetleft" unicode="&#xab;" horiz-adv-x="707" d="M266 15 Q261 10 257 10 Q253 10 247 16 L39 280 Q37 283 36 285.5 Q35 288 35 291 Q35 296 40 303 L246 547 Q251 552 257 552 Q262 552 267 548 L351 473 Q357 468 357 462 Q357 456 353 451 L242 292 L353 133 Q357 129 357 122 Q357 115 352 110 L266 15 Z M547 15 Q542 10 538 10 Q534 10 528 16 L320 280 Q318 283 317 285.5 Q316 288 316 291 Q316 296 321 303 L527 547 Q532 552 538 552 Q543 552 548 548 L632 473 Q638 468 638 462 Q638 456 634 451 L523 292 L634 133 Q638 129 638 122 Q638 115 633 110 L547 15 Z " />
<glyph glyph-name="guillemetright" unicode="&#xbb;" horiz-adv-x="707" d="M179 16 Q174 10 169 10 Q164 10 160 15 L74 110 Q69 117 69 122 Q69 128 73 133 L184 292 L73 451 Q69 455 69 461 Q69 467 75 473 L159 548 Q166 553 170 553 Q175 553 180 547 L386 303 Q391 298 391 291 Q391 285 387 280 L179 16 Z M460 16 Q455 10 450 10 Q445 10 441 15 L355 110 Q350 117 350 122 Q350 128 354 133 L465 292 L354 451 Q350 455 350 461 Q350 467 356 473 L440 548 Q447 553 451 553 Q456 553 461 547 L667 303 Q672 298 672 291 Q672 285 668 280 L460 16 Z " />
<glyph glyph-name="guilsinglleft" unicode="&#x2039;" horiz-adv-x="426" d="M266 15 Q261 10 257 10 Q253 10 247 16 L39 280 Q37 283 36 285.5 Q35 288 35 291 Q35 296 40 303 L246 547 Q251 552 257 552 Q262 552 267 548 L351 473 Q357 468 357 462 Q357 456 353 451 L242 292 L353 133 Q357 129 357 122 Q357 115 352 110 L266 15 L266 15 Z " />
<glyph glyph-name="guilsinglright" unicode="&#x203a;" horiz-adv-x="426" d="M179 16 Q174 10 169 10 Q164 10 160 15 L74 110 Q69 117 69 122 Q69 128 73 133 L184 292 L73 451 Q69 455 69 461 Q69 467 75 473 L159 548 Q166 553 170 553 Q175 553 180 547 L386 303 Q391 298 391 291 Q391 285 387 280 L179 16 L179 16 Z " />
<glyph glyph-name="quotedblbase" unicode="&#x201e;" horiz-adv-x="526" d="M120 203 Q163 203 191.5 173 Q220 143 220 97 Q220 67 207 35 Q194 3 179 -34 L117 -184 Q110 -197 98 -197 L55 -197 Q40 -197 44 -182 L85 0 Q55 10 37 37 Q19 64 19 97 Q19 120 27 139.5 Q35 159 49 173 Q63 187 81 195 Q99 203 120 203 Z M377 203 Q420 203 448.5 173 Q477 143 477 97 Q477 67 464 35 Q451 3 436 -34 L374 -184 Q367 -197 355 -197 L312 -197 Q297 -197 301 -182 L342 0 Q312 10 294 37 Q276 64 276 97 Q276 120 284 139.5 Q292 159 306 173 Q320 187 338 195 Q356 203 377 203 Z " />
<glyph glyph-name="quotedblleft" unicode="&#x201c;" horiz-adv-x="559" d="M167 513 Q197 503 215 476 Q233 449 233 416 Q233 393 225 373.5 Q217 354 203 340 Q189 326 171 318 Q153 310 132 310 Q89 310 60.5 340 Q32 370 32 416 Q32 446 45 478 Q58 510 73 547 L135 697 Q141 710 154 710 L197 710 Q212 710 208 695 L167 513 L167 513 Z M424 513 Q454 503 472 476 Q490 449 490 416 Q490 393 482 373.5 Q474 354 460 340 Q446 326 428 318 Q410 310 389 310 Q346 310 317.5 340 Q289 370 289 416 Q289 446 302 478 Q315 510 330 547 L392 697 Q398 710 411 710 L454 710 Q469 710 465 695 L424 513 L424 513 Z " />
<glyph glyph-name="quotedblright" unicode="&#x201d;" horiz-adv-x="559" d="M174 720 Q217 720 245.5 690 Q274 660 274 614 Q274 584 261 552 Q248 520 233 483 L171 333 Q164 320 152 320 L109 320 Q94 320 98 335 L139 517 Q109 527 91 554 Q73 581 73 614 Q73 637 81 656.5 Q89 676 103 690 Q117 704 135 712 Q153 720 174 720 Z M431 720 Q474 720 502.5 690 Q531 660 531 614 Q531 584 518 552 Q505 520 490 483 L428 333 Q421 320 409 320 L366 320 Q351 320 355 335 L396 517 Q366 527 348 554 Q330 581 330 614 Q330 637 338 656.5 Q346 676 360 690 Q374 704 392 712 Q410 720 431 720 Z " />
<glyph glyph-name="quoteleft" unicode="&#x2018;" horiz-adv-x="302" d="M156 523 Q186 513 204 486 Q222 459 222 426 Q222 403 214 383.5 Q206 364 192 350 Q178 336 160 328 Q142 320 121 320 Q78 320 49.5 350 Q21 380 21 426 Q21 456 34 488 Q47 520 62 557 L124 707 Q130 720 143 720 L186 720 Q201 720 197 705 L156 523 L156 523 Z " />
<glyph glyph-name="quoteright" unicode="&#x2019;" horiz-adv-x="302" d="M185 720 Q228 720 256.5 690 Q285 660 285 614 Q285 584 272 552 Q259 520 244 483 L182 333 Q175 320 163 320 L120 320 Q105 320 109 335 L150 517 Q120 527 102 554 Q84 581 84 614 Q84 637 92 656.5 Q100 676 114 690 Q128 704 146 712 Q164 720 185 720 Z " />
<glyph glyph-name="quotesinglbase" unicode="&#x201a;" horiz-adv-x="270" d="M135 203 Q178 203 206.5 173 Q235 143 235 97 Q235 67 222 35 Q209 3 194 -34 L132 -184 Q125 -197 113 -197 L70 -197 Q55 -197 59 -182 L100 0 Q70 10 52 37 Q34 64 34 97 Q34 120 42 139.5 Q50 159 64 173 Q78 187 96 195 Q114 203 135 203 Z " />
<glyph glyph-name="emspace" unicode="&#x2003;" horiz-adv-x="1000" d="" />
<glyph glyph-name="enspace" unicode="&#x2002;" horiz-adv-x="500" d="" />
<glyph glyph-name="fourperemspace" unicode="&#x2005;" horiz-adv-x="250" d="" />
<glyph glyph-name="hairspace" unicode="&#x200a;" horiz-adv-x="62" d="" />
<glyph glyph-name="Acircumflex" unicode="&#xc2;" horiz-adv-x="677" d="M655 14 Q656 12 656 8 Q656 0 645 0 L454 0 Q439 0 435 15 Q430 34 425.5 53.5 Q421 73 416 93 L246 93 Q241 73 236.5 53.5 Q232 34 227 15 Q222 0 208 0 L25 0 Q9 0 15 14 L247 697 Q252 711 267 711 L406 711 Q420 711 426 697 L655 14 Z M383 233 Q369 288 356.5 342 Q344 396 331 448 Q317 396 304.5 342 Q292 288 279 233 L383 233 Z M506 771 Q509 765 509 762 Q509 755 497 755 L404 755 Q392 755 383 765 L335 826 L287 765 Q279 755 266 755 L172 755 Q160 755 160 762 Q160 765 163 771 L258 917 Q264 928 278 928 L391 928 Q404 928 411 917 L506 771 L506 771 Z " />
<glyph glyph-name="nbspace" unicode="&#xa0;" horiz-adv-x="185" d="" />
<glyph glyph-name="thinspace" unicode="&#x2009;" horiz-adv-x="93" d="" />
<glyph glyph-name="threeperemspace" unicode="&#x2004;" horiz-adv-x="558" d="" />
<glyph glyph-name="cent" unicode="&#xa2;" horiz-adv-x="423" d="M368 266 Q373 268 376 269 Q379 270 382 270 Q394 270 394 251 L394 149 Q394 143 391.5 137.5 Q389 132 382 129 Q367 123 346 118 Q325 113 299 111 L289 -9 Q289 -23 273 -23 L207 -23 Q193 -23 194 -9 L207 118 Q170 127 137.5 147.5 Q105 168 81 198.5 Q57 229 43 269 Q29 309 29 359 Q29 412 45 455 Q61 498 88.5 529 Q116 560 153 579 Q190 598 231 604 L239 719 Q241 733 255 733 L322 733 Q336 733 335 719 L324 604 Q354 600 376 593 Q389 588 389 573 L389 470 Q389 451 376 451 Q370 451 363 454 Q352 457 340 459 Q328 461 316 461 Q279 461 253 433.5 Q227 406 227 358 Q227 310 253 283.5 Q279 257 316 257 Q330 257 343.5 259.5 Q357 262 368 266 Z " />
<glyph glyph-name="currency" unicode="&#xa4;" horiz-adv-x="520" d="M515 79 Q518 74 518 70 Q518 64 511 58 L458 23 Q454 19 449 19 Q443 19 437 26 L353 148 Q312 123 259 123 Q202 123 159 152 L73 26 Q68 19 62 19 Q58 19 53 23 L0 58 Q-7 65 -7 70 Q-7 74 -4 79 L94 224 Q77 255 68 292 Q59 329 59 370 Q59 458 95 521 L-4 665 Q-7 669 -7 674 Q-7 681 0 685 L54 722 Q58 725 63 725 Q69 725 75 718 L162 592 Q203 618 259 618 Q312 618 352 595 L437 718 Q442 725 448 725 Q452 725 457 722 L511 685 Q518 680 518 674 Q518 669 515 665 L420 527 Q459 462 459 370 Q459 282 421 218 L515 79 Z M259 260 Q290 260 306 290 Q322 320 322 370 Q322 421 306 450.5 Q290 480 259 480 Q227 480 212 450 Q197 420 197 370 Q197 320 212 290 Q227 260 259 260 Z " />
<glyph glyph-name="dollar" unicode="&#x24;" horiz-adv-x="520" d="M493 228 Q493 184 478.5 147 Q464 110 437 81.5 Q410 53 371 34.5 Q332 16 284 10 L269 -119 Q267 -134 252 -134 L158 -134 Q142 -134 145 -119 L161 12 Q129 17 100 24 Q71 31 46 42 Q33 48 33 64 L33 197 Q33 211 45 211 Q47 211 53 209 Q89 192 128.5 181 Q168 170 206 170 Q235 170 252 182 Q269 194 269 217 Q269 243 251 258 Q233 273 196 290 Q166 303 136 320 Q106 337 82 360.5 Q58 384 42.5 416 Q27 448 27 492 Q27 538 43.5 574 Q60 610 88 636.5 Q116 663 153.5 679.5 Q191 696 234 702 L250 823 Q252 838 267 838 L362 838 Q376 838 375 823 L359 703 Q408 697 449 685 Q463 681 463 666 L463 544 Q463 530 450 530 Q447 530 445 531 Q414 541 377.5 547 Q341 553 315 553 Q283 553 264 539.5 Q245 526 245 502 Q245 475 270 462 Q295 449 334 431 Q370 414 399.5 395 Q429 376 449.5 352.5 Q470 329 481.5 298.5 Q493 268 493 228 Z " />
<glyph glyph-name="euro" unicode="&#x20ac;" horiz-adv-x="520" d="M474 181 Q481 184 487 184 Q501 184 501 164 L501 36 Q501 20 488 15 Q462 4 425.5 -2.5 Q389 -9 346 -9 Q297 -9 251.5 8 Q206 25 168 57 Q130 89 101.5 135 Q73 181 59 240 L13 240 Q2 240 2 251 L2 322 Q2 333 13 333 L46 333 L46 354 Q46 361 46 367 Q46 373 47 380 L13 380 Q2 380 2 391 L2 463 Q2 474 13 474 L60 474 Q75 532 103.5 578 Q132 624 171 655.5 Q210 687 257.5 703.5 Q305 720 357 720 Q390 720 422.5 715.5 Q455 711 478 705 Q492 701 492 686 L492 554 Q492 534 477 534 Q475 534 465 536 Q448 541 427.5 544.5 Q407 548 385 548 Q347 548 317.5 528.5 Q288 509 271 474 L473 474 Q484 474 484 463 L484 391 Q484 380 473 380 L248 380 Q247 374 247 368 Q247 362 247 356 Q247 350 247 344 Q247 338 248 333 L473 333 Q484 333 484 322 L484 251 Q484 240 473 240 L271 240 Q289 204 318 185 Q347 166 383 166 Q409 166 432 170 Q455 174 474 181 Z " />
<glyph glyph-name="florin" unicode="&#x192;" horiz-adv-x="509" d="M464 744 Q478 739 478 724 L478 621 Q478 595 449 598 Q444 599 438.5 599.5 Q433 600 426 600 Q397 600 382.5 583.5 Q368 567 363 530 L357 480 L455 480 Q470 480 470 465 L470 359 Q470 344 455 344 L342 344 L305 27 Q292 -85 244 -140.5 Q196 -196 97 -196 Q73 -196 49 -192.5 Q25 -189 8 -184 Q-6 -179 -6 -164 L-6 -46 Q-6 -31 8 -35 Q25 -40 45 -40 Q74 -40 89 -23.5 Q104 -7 108 31 L145 344 L66 344 Q51 344 51 359 L51 465 Q51 480 66 480 L162 480 L168 533 Q181 645 229 700.5 Q277 756 375 756 Q398 756 422 752.5 Q446 749 464 744 Z " />
<glyph glyph-name="sterling" unicode="&#xa3;" horiz-adv-x="518" d="M410 553 Q368 553 340.5 527.5 Q313 502 309 447 L307 424 L447 424 Q462 424 462 409 L462 293 Q462 278 447 278 L297 278 L289 157 L476 157 Q491 157 491 142 L491 15 Q491 0 476 0 L42 0 Q27 0 27 15 L27 142 Q27 157 42 157 L90 157 L100 278 L45 278 Q30 278 30 293 L30 409 Q30 424 45 424 L112 424 L116 474 Q121 535 142 581 Q163 627 196 658 Q229 689 273 704.5 Q317 720 368 720 Q400 720 427 717 Q454 714 477 707 Q491 703 491 688 L491 555 Q491 540 477 544 Q462 548 444.5 550.5 Q427 553 410 553 Z " />
<glyph glyph-name="yen" unicode="&#xa5;" horiz-adv-x="612" d="M601 711 Q621 711 621 698 Q621 691 617 684 L445 342 L509 342 Q524 342 524 327 L524 202 Q524 187 509 187 L411 187 L411 15 Q411 0 396 0 L217 0 Q202 0 202 15 L202 187 L103 187 Q88 187 88 202 L88 327 Q88 342 103 342 L168 342 L-7 684 Q-11 691 -11 698 Q-11 711 9 711 L185 711 Q200 711 206 697 L315 436 L416 697 Q421 711 436 711 L601 711 L601 711 Z " />
<glyph glyph-name="plus" unicode="&#x2b;" horiz-adv-x="617" d="M566 387 Q581 387 581 372 L581 247 Q581 232 566 232 L388 232 L388 52 Q388 37 373 37 L244 37 Q229 37 229 52 L229 232 L50 232 Q35 232 35 247 L35 372 Q35 387 50 387 L229 387 L229 569 Q229 584 244 584 L373 584 Q388 584 388 569 L388 387 L566 387 L566 387 Z " />
<glyph glyph-name="minus" unicode="&#x2212;" horiz-adv-x="617" d="M50 232 Q35 232 35 247 L35 372 Q35 387 50 387 L566 387 Q581 387 581 372 L581 247 Q581 232 566 232 L50 232 L50 232 Z " />
<glyph glyph-name="multiply" unicode="&#xd7;" horiz-adv-x="617" d="M556 165 Q562 159 562 154 Q562 149 556 143 L468 55 Q462 49 457 49 Q452 49 446 55 L308 193 L170 55 Q164 49 159 49 Q154 49 148 55 L60 143 Q54 149 54 154 Q54 159 60 165 L198 303 L59 441 Q53 447 53 452 Q53 457 59 463 L147 551 Q153 557 158 557 Q163 557 169 551 L308 413 L446 551 Q452 557 457 557 Q462 557 468 551 L556 463 Q562 457 562 452 Q562 447 556 441 L418 303 L556 165 Z " />
<glyph glyph-name="divide" unicode="&#xf7;" horiz-adv-x="617" d="M309 446 Q266 446 238.5 474 Q211 502 211 539 Q211 558 218.5 575 Q226 592 239 604.5 Q252 617 270 624.5 Q288 632 309 632 Q330 632 347.5 624.5 Q365 617 378 604.5 Q391 592 398 575 Q405 558 405 539 Q405 521 398 504 Q391 487 378 474 Q365 461 347.5 453.5 Q330 446 309 446 Z M50 238 Q35 238 35 253 L35 378 Q35 393 50 393 L566 393 Q581 393 581 378 L581 253 Q581 238 566 238 L50 238 Z M309 -1 Q266 -1 238.5 27 Q211 55 211 92 Q211 111 218.5 128 Q226 145 239 157.5 Q252 170 270 177.5 Q288 185 309 185 Q330 185 347.5 177.5 Q365 170 378 157.5 Q391 145 398 128 Q405 111 405 92 Q405 74 398 57 Q391 40 378 27 Q365 14 347.5 6.5 Q330 -1 309 -1 Z " />
<glyph glyph-name="equal" unicode="&#x3d;" horiz-adv-x="617" d="M50 347 Q35 347 35 362 L35 487 Q35 502 50 502 L566 502 Q581 502 581 487 L581 362 Q581 347 566 347 L50 347 Z M50 127 Q35 127 35 142 L35 267 Q35 282 50 282 L566 282 Q581 282 581 267 L581 142 Q581 127 566 127 L50 127 Z " />
<glyph glyph-name="notequal" unicode="&#x2260;" horiz-adv-x="617" d="M367 347 L331 282 L566 282 Q581 282 581 267 L581 142 Q581 127 566 127 L245 127 L202 50 Q195 37 180 37 L114 37 Q99 37 106 50 L149 127 L50 127 Q35 127 35 142 L35 267 Q35 282 50 282 L235 282 L271 347 L50 347 Q35 347 35 362 L35 487 Q35 502 50 502 L358 502 L396 571 Q402 584 418 584 L483 584 Q497 584 491 571 L453 502 L566 502 Q581 502 581 487 L581 362 Q581 347 566 347 L367 347 Z " />
<glyph glyph-name="greater" unicode="&#x3e;" horiz-adv-x="617" d="M76 13 Q72 11 69 10 Q66 9 63 9 Q49 9 49 30 L49 172 Q49 187 63 193 L314 311 L63 428 Q49 433 49 449 L49 589 Q49 610 63 610 Q69 610 76 606 L590 356 Q603 349 603 334 L603 285 Q603 270 590 263 L76 13 L76 13 Z " />
<glyph glyph-name="less" unicode="&#x3c;" horiz-adv-x="617" d="M581 30 Q581 9 567 9 Q561 9 554 13 L40 263 Q27 269 27 285 L27 334 Q27 349 40 356 L554 606 Q558 608 561 609 Q564 610 567 610 Q581 610 581 589 L581 449 Q581 434 567 428 L316 311 L567 193 Q581 188 581 172 L581 30 L581 30 Z " />
<glyph glyph-name="greaterequal" unicode="&#x2265;" horiz-adv-x="617" d="M63 191 Q59 189 56 188 Q53 187 50 187 Q36 187 36 208 L36 350 Q36 365 50 371 L287 483 Q294 486 294 489 Q294 492 287 495 L63 599 Q51 605 43.5 616 Q36 627 36 642 L36 782 Q36 797 49 790 L590 527 L590 463 Q590 448 577 441 L63 191 Z M50 0 Q35 0 35 15 L35 140 Q35 155 50 155 L566 155 Q581 155 581 140 L581 15 Q581 0 566 0 L50 0 Z " />
<glyph glyph-name="lessequal" unicode="&#x2264;" horiz-adv-x="617" d="M585 208 Q585 187 571 187 Q565 187 558 191 L44 441 Q31 447 31 463 L31 527 L572 790 Q578 792 579 792 Q585 792 585 782 L585 642 Q585 628 578.5 617 Q572 606 558 599 L334 495 Q327 492 327 489 Q327 486 334 483 L571 371 Q585 366 585 350 L585 208 Z M586 15 Q586 0 571 0 L55 0 Q40 0 40 15 L40 140 Q40 155 55 155 L571 155 Q586 155 586 140 L586 15 Z " />
<glyph glyph-name="plusminus" unicode="&#xb1;" horiz-adv-x="617" d="M70 408 Q55 408 55 423 L55 548 Q55 563 70 563 L221 563 L221 680 Q221 695 236 695 L361 695 Q376 695 376 680 L376 563 L526 563 Q541 563 541 548 L541 423 Q541 408 526 408 L376 408 L376 290 Q376 275 361 275 L236 275 Q221 275 221 290 L221 408 L70 408 Z M566 192 Q581 192 581 177 L581 52 Q581 37 566 37 L50 37 Q35 37 35 52 L35 177 Q35 192 50 192 L566 192 Z " />
<glyph glyph-name="approxequal" unicode="&#x2248;" horiz-adv-x="600" d="M407 361 Q371 361 341 375 Q311 389 285 405 Q265 418 247 427 Q229 436 211 436 Q191 436 179.5 421.5 Q168 407 164 382 Q162 367 148 367 L64 367 Q49 367 49 382 Q51 425 61 462 Q71 499 89 526 Q107 553 133.5 568 Q160 583 195 583 Q227 583 255 569.5 Q283 556 308 541 Q329 528 348.5 518.5 Q368 509 387 509 Q405 509 415 523.5 Q425 538 427 560 Q428 567 431 571 Q434 575 442 575 L530 575 Q545 575 545 560 Q544 517 534 480.5 Q524 444 506 417.5 Q488 391 463 376 Q438 361 407 361 Z M407 105 Q371 105 341 119 Q311 133 285 149 Q265 162 247 171 Q229 180 211 180 Q191 180 179.5 165.5 Q168 151 164 126 Q162 111 148 111 L64 111 Q49 111 49 126 Q51 169 61 206 Q71 243 89 270 Q107 297 133.5 312 Q160 327 195 327 Q227 327 255 313.5 Q283 300 308 285 Q329 272 348.5 262.5 Q368 253 387 253 Q405 253 415 267.5 Q425 282 427 304 Q428 311 431 315 Q434 319 442 319 L530 319 Q545 319 545 304 Q544 261 534 224.5 Q524 188 506 161.5 Q488 135 463 120 Q438 105 407 105 Z " />
<glyph glyph-name="asciitilde" unicode="&#x7e;" horiz-adv-x="617" d="M407 203 Q371 203 341 217 Q311 231 285 247 Q265 260 247 269 Q229 278 211 278 Q191 278 179.5 263.5 Q168 249 164 224 Q162 209 148 209 L64 209 Q49 209 49 224 Q51 267 61 304 Q71 341 89 368 Q107 395 133.5 410 Q160 425 195 425 Q227 425 255 411.5 Q283 398 308 383 Q329 370 348.5 360.5 Q368 351 387 351 Q405 351 415 365.5 Q425 380 427 402 Q428 409 431 413 Q434 417 442 417 L530 417 Q545 417 545 402 Q544 359 534 322.5 Q524 286 506 259.5 Q488 233 463 218 Q438 203 407 203 Z " />
<glyph glyph-name="logicalnot" unicode="&#xac;" horiz-adv-x="617" d="M526 461 Q541 461 541 446 L541 155 Q541 140 526 140 L388 140 Q373 140 373 155 L373 309 L70 309 Q55 309 55 324 L55 446 Q55 461 70 461 L526 461 L526 461 Z " />
<glyph glyph-name="infinity" unicode="&#x221e;" horiz-adv-x="918" d="M656 551 Q701 551 741.5 533.5 Q782 516 812.5 485 Q843 454 861 411 Q879 368 879 317 Q879 265 861.5 222 Q844 179 813.5 148 Q783 117 742.5 100 Q702 83 657 83 Q625 83 597.5 92.5 Q570 102 546 117.5 Q522 133 501.5 153 Q481 173 464 194 Q418 140 369.5 111.5 Q321 83 267 83 Q220 83 178.5 100.5 Q137 118 106 149 Q75 180 57 222 Q39 264 39 313 Q39 363 57.5 406.5 Q76 450 107.5 482 Q139 514 181 532.5 Q223 551 269 551 Q298 551 323.5 541.5 Q349 532 371.5 516 Q394 500 413 479 Q432 458 449 436 Q469 461 490.5 482 Q512 503 537 518.5 Q562 534 591.5 542.5 Q621 551 656 551 Z M261 234 Q278 234 301.5 252.5 Q325 271 360 316 Q325 362 303 381 Q281 400 262 400 Q241 400 221 377.5 Q201 355 201 317 Q201 279 220.5 256.5 Q240 234 261 234 Z M656 234 Q679 234 698.5 255.5 Q718 277 718 315 Q718 334 712 349.5 Q706 365 697 376.5 Q688 388 676.5 394 Q665 400 654 400 Q628 400 603 374 Q578 348 549 308 Q584 269 608.5 251.5 Q633 234 656 234 Z " />
<glyph glyph-name="integral" unicode="&#x222b;" horiz-adv-x="511" d="M97 -210 Q73 -210 49 -206.5 Q25 -203 8 -198 Q-6 -193 -6 -178 L-6 -60 Q-6 -46 8 -50 Q16 -52 25 -53 Q34 -54 45 -54 Q74 -54 89 -37.5 Q104 -21 108 16 L170 533 Q183 645 231 700.5 Q279 756 377 756 Q400 756 424 752.5 Q448 749 466 744 Q480 739 480 724 L480 621 Q480 595 451 598 Q446 599 440.5 599.5 Q435 600 428 600 Q399 600 384.5 583.5 Q370 567 365 530 L305 13 Q292 -100 244 -155 Q196 -210 97 -210 Z " />
<glyph glyph-name="product" unicode="&#x220f;" horiz-adv-x="777" d="M720 710 Q735 710 735 695 L735 554 Q735 539 720 539 L647 539 L647 -107 Q647 -122 632 -122 L447 -122 Q432 -122 432 -107 L432 539 L334 539 L334 -107 Q334 -122 319 -122 L142 -122 Q127 -122 127 -107 L127 539 L47 539 Q32 539 32 554 L32 695 Q32 710 47 710 L720 710 L720 710 Z " />
<glyph glyph-name="summation" unicode="&#x2211;" horiz-adv-x="582" d="M522 26 Q537 26 537 11 L537 -115 Q537 -130 522 -130 L67 -130 Q52 -130 52 -115 L52 -29 Q52 -14 61 -2 L281 291 L61 582 Q57 587 54.5 594 Q52 601 52 609 L52 695 Q52 710 67 710 L512 710 Q527 710 527 695 L527 570 Q527 555 512 555 L288 555 L470 315 Q479 304 479 291 Q479 279 470 267 L288 26 L522 26 L522 26 Z " />
<glyph glyph-name="radical" unicode="&#x221a;" horiz-adv-x="688" d="M626 710 Q648 710 648 694 Q648 689 645 682 L329 -116 Q322 -130 308 -130 L245 -130 Q230 -130 223 -117 L14 307 Q12 311 11 314 Q10 317 10 320 Q10 334 31 334 L170 334 Q185 334 191 320 L273 130 L471 682 Q481 710 511 710 L626 710 L626 710 Z " />
<glyph glyph-name="micro" unicode="&#xb5;" horiz-adv-x="558" d="M501 480 Q516 480 516 465 L516 15 Q516 0 501 0 L364 0 Q349 0 346 15 L339 58 L337 58 Q311 -9 255 -9 Q232 -9 214 0 L233 -171 L233 -174 Q233 -186 220 -186 L52 -186 Q37 -186 38 -171 L55 49 L40 465 L40 468 Q40 480 54 480 L220 480 Q235 480 235 465 L235 183 Q235 150 246 136 Q257 122 277 122 Q300 122 310 140.5 Q320 159 320 189 L320 465 Q320 480 335 480 L501 480 L501 480 Z " />
<glyph glyph-name="partialdiff" unicode="&#x2202;" horiz-adv-x="523" d="M156 720 Q254 720 320 690 Q386 660 426.5 608 Q467 556 484 487.5 Q501 419 501 343 Q501 267 485 202.5 Q469 138 438 90.5 Q407 43 361.5 16.5 Q316 -10 257 -10 Q211 -10 168.5 6.5 Q126 23 93 55.5 Q60 88 40.5 135 Q21 182 21 242 Q21 296 39 338 Q57 380 86.5 409 Q116 438 155 453 Q194 468 236 468 Q256 468 273.5 465.5 Q291 463 307 458 Q290 520 249.5 547.5 Q209 575 140 575 Q123 575 109 573.5 Q95 572 83 570 Q81 570 80.5 569.5 Q80 569 78 569 Q69 569 69 581 L69 696 Q69 711 84 714 Q118 720 156 720 Z M262 143 Q287 143 303 188 Q319 233 320 324 Q302 330 279 330 Q249 330 231 302.5 Q213 275 213 230 Q213 192 225.5 167.5 Q238 143 262 143 Z " />
<glyph glyph-name="percent" unicode="&#x25;" horiz-adv-x="751" d="M113 6 Q105 11 105 18 Q105 21 108 27 L576 733 Q581 741 588 741 Q591 741 597 738 L635 716 Q643 711 643 704 Q643 701 640 695 L172 -12 Q167 -20 160 -20 Q157 -20 151 -17 L113 6 Z M199 386 Q167 386 138.5 397.5 Q110 409 87.5 430.5 Q65 452 52 483 Q39 514 39 552 Q39 591 52 622 Q65 653 87.5 674.5 Q110 696 138.5 708 Q167 720 199 720 Q230 720 259 708 Q288 696 310.5 674 Q333 652 346 621 Q359 590 359 552 Q359 514 346 483 Q333 452 310.5 430.5 Q288 409 259 397.5 Q230 386 199 386 Z M199 492 Q217 492 224 509.5 Q231 527 231 552 Q231 577 224 595.5 Q217 614 199 614 Q182 614 174 596 Q166 578 166 552 Q166 527 174 509.5 Q182 492 199 492 Z M551 -10 Q520 -10 491 1.5 Q462 13 440 34.5 Q418 56 405 87 Q392 118 392 156 Q392 195 405 226 Q418 257 440 278.5 Q462 300 491 312 Q520 324 551 324 Q583 324 612 312 Q641 300 663.5 278 Q686 256 699 225 Q712 194 712 156 Q712 118 699 87 Q686 56 663.5 34.5 Q641 13 612 1.5 Q583 -10 551 -10 Z M551 96 Q570 96 577 113.5 Q584 131 584 156 Q584 181 577 199.5 Q570 218 551 218 Q534 218 526.5 200 Q519 182 519 156 Q519 131 526.5 113.5 Q534 96 551 96 Z " />
<glyph glyph-name="perthousand" unicode="&#x2030;" horiz-adv-x="1109" d="M118 6 Q110 11 110 18 Q110 21 113 27 L581 733 Q586 741 593 741 Q596 741 602 738 L640 716 Q648 711 648 704 Q648 701 645 695 L177 -12 Q172 -20 165 -20 Q162 -20 156 -17 L118 6 Z M199 386 Q167 386 138.5 397.5 Q110 409 87.5 430.5 Q65 452 52 483 Q39 514 39 552 Q39 591 52 622 Q65 653 87.5 674.5 Q110 696 138.5 708 Q167 720 199 720 Q230 720 259 708 Q288 696 310.5 674 Q333 652 346 621 Q359 590 359 552 Q359 514 346 483 Q333 452 310.5 430.5 Q288 409 259 397.5 Q230 386 199 386 Z M199 492 Q217 492 224 509.5 Q231 527 231 552 Q231 577 224 595.5 Q217 614 199 614 Q182 614 174 596 Q166 578 166 552 Q166 527 174 509.5 Q182 492 199 492 Z M550 -10 Q519 -10 490 1.5 Q461 13 439 34.5 Q417 56 404 87 Q391 118 391 156 Q391 195 404 226 Q417 257 439 278.5 Q461 300 490 312 Q519 324 550 324 Q582 324 611 312 Q640 300 662 278 Q684 256 697 225 Q710 194 710 156 Q710 118 697 87 Q684 56 662 34.5 Q640 13 611 1.5 Q582 -10 550 -10 Z M909 -10 Q878 -10 849 1.5 Q820 13 798 34.5 Q776 56 763 87 Q750 118 750 156 Q750 195 763 226 Q776 257 798 278.5 Q820 300 849 312 Q878 324 909 324 Q941 324 970 312 Q999 300 1021 278 Q1043 256 1056 225 Q1069 194 1069 156 Q1069 118 1056 87 Q1043 56 1021 34.5 Q999 13 970 1.5 Q941 -10 909 -10 Z M550 96 Q568 96 575.5 113.5 Q583 131 583 156 Q583 181 575.5 199.5 Q568 218 550 218 Q533 218 525 200 Q517 182 517 156 Q517 131 525 113.5 Q533 96 550 96 Z M909 96 Q927 96 934.5 113.5 Q942 131 942 156 Q942 181 934.5 199.5 Q927 218 909 218 Q892 218 884.5 200 Q877 182 877 156 Q877 131 884.5 113.5 Q892 96 909 96 Z " />
<glyph glyph-name="lozenge" unicode="&#x25ca;" horiz-adv-x="617" d="M286 -44 Q271 -44 264 -31 L57 343 Q54 349 54 356 Q54 363 57 369 L264 743 Q270 756 286 756 L330 756 Q345 756 352 743 L559 369 Q562 363 562 356 Q562 349 559 343 L352 -31 Q345 -44 330 -44 L286 -44 Z M407 356 L309 530 L209 356 L309 182 L407 356 Z " />
<glyph glyph-name="apple" unicode="&#xf8ff;" horiz-adv-x="999" d="M499 -140 Q430 -140 366.5 -122 Q303 -104 247.5 -71.5 Q192 -39 146.5 6.5 Q101 52 68.5 107.5 Q36 163 18 227 Q0 291 0 360 Q0 463 39.5 554 Q79 645 146.5 712.5 Q214 780 305 819.5 Q396 859 499 859 Q602 859 693 819.5 Q784 780 852 712.5 Q920 645 959.5 554 Q999 463 999 360 Q999 256 959.5 165 Q920 74 852 6.5 Q784 -61 693 -100.5 Q602 -140 499 -140 Z M499 109 Q585 109 671.5 112 Q758 115 840 124 Q864 126 876.5 134.5 Q889 143 892 168 Q896 216 896.5 263.5 Q897 311 897 360 Q897 408 896.5 455.5 Q896 503 892 551 Q889 576 876.5 584.5 Q864 593 840 595 Q758 604 671.5 607 Q585 610 499 610 Q413 610 326.5 607 Q240 604 157 595 Q134 593 121.5 584.5 Q109 576 106 551 Q101 503 100.5 455.5 Q100 408 100 360 Q100 311 100.5 263.5 Q101 216 106 168 Q109 143 121.5 134.5 Q134 126 157 124 Q240 115 326.5 112 Q413 109 499 109 Z M499 157 Q456 157 419 173 Q382 189 355 217 Q328 245 312.5 281.5 Q297 318 297 360 Q297 401 312.5 438 Q328 475 355 502.5 Q382 530 419 546 Q456 562 499 562 Q542 562 579 546 Q616 530 643 502.5 Q670 475 685.5 438 Q701 401 701 360 Q701 318 685.5 281.5 Q670 245 643 217 Q616 189 579 173 Q542 157 499 157 Z " />
<glyph glyph-name="at" unicode="&#x40;" horiz-adv-x="853" d="M616 433 Q631 433 631 418 L631 167 Q631 117 667 117 Q702 117 725.5 160.5 Q749 204 749 278 Q749 345 726 402 Q703 459 661 500.5 Q619 542 561.5 565 Q504 588 435 588 Q361 588 300.5 561.5 Q240 535 196 488.5 Q152 442 128 379 Q104 316 104 242 Q104 168 129 102.5 Q154 37 200 -12 Q246 -61 311.5 -89.5 Q377 -118 457 -118 Q518 -118 581 -101 Q644 -84 695 -50 Q705 -45 707 -45 Q712 -45 712 -55 L712 -99 Q712 -114 699 -122 Q641 -154 579 -168.5 Q517 -183 457 -183 Q364 -183 286 -150.5 Q208 -118 152.5 -60.5 Q97 -3 66 74.5 Q35 152 35 242 Q35 332 65 407.5 Q95 483 148.5 537.5 Q202 592 275 622.5 Q348 653 434 653 Q518 653 588.5 624.5 Q659 596 710 546 Q761 496 790 428 Q819 360 819 280 Q819 224 804.5 178 Q790 132 764 99.5 Q738 67 701.5 49 Q665 31 620 31 Q598 31 576.5 36 Q555 41 537 51.5 Q519 62 505 78 Q491 94 484 117 Q466 80 436.5 62 Q407 44 371 44 Q339 44 311 59 Q283 74 263 100.5 Q243 127 231.5 163.5 Q220 200 220 243 Q220 285 231.5 321.5 Q243 358 263 384.5 Q283 411 311 426 Q339 441 371 441 Q443 441 475 369 L476 369 L476 418 Q476 433 491 433 L616 433 Z M430 161 Q450 161 462 182.5 Q474 204 474 241 Q474 277 462 298.5 Q450 320 430 320 Q408 320 396 298.5 Q384 277 384 241 Q384 204 396.5 182.5 Q409 161 430 161 Z " />
<glyph glyph-name="ampersand" unicode="&#x26;" horiz-adv-x="686" d="M652 12 Q655 7 655 5 Q655 0 646 0 L471 0 Q456 0 448 13 L436 32 Q401 12 360.5 1 Q320 -10 274 -10 Q225 -10 181 3 Q137 16 104 42.5 Q71 69 52 108 Q33 147 33 198 Q33 260 65.5 307.5 Q98 355 158 384 Q135 415 122 449 Q109 483 109 525 Q109 569 125 605 Q141 641 169.5 666.5 Q198 692 236 706 Q274 720 319 720 Q378 720 425 709 Q440 706 440 690 L440 564 Q440 550 426 555 Q414 560 398.5 563 Q383 566 366 566 Q343 566 326 549.5 Q309 533 309 507 Q309 475 329 442 Q349 409 378 370 L438 292 Q444 321 447 353 Q448 366 448.5 379 Q449 392 449 406 Q449 421 464 421 L599 421 Q614 421 614 406 Q614 392 613 377.5 Q612 363 610 349 Q600 232 549 146 L652 12 Z M212 215 Q212 178 235 154.5 Q258 131 296 131 Q324 131 348 143 L240 287 Q212 260 212 215 Z " />
<glyph glyph-name="paragraph" unicode="&#xb6;" horiz-adv-x="647" d="M412 710 Q427 710 427 695 L427 94 Q427 27 405.5 -43 Q384 -113 341 -174 Q332 -186 317 -186 L228 -186 Q219 -186 219 -182 Q219 -179 223 -175 Q273 -114 297.5 -44 Q322 26 322 94 L322 224 L311 224 Q263 224 217.5 240.5 Q172 257 136 288 Q100 319 78 364.5 Q56 410 56 467 Q56 525 78 570 Q100 615 136 646 Q172 677 217.5 693.5 Q263 710 311 710 L412 710 Z M572 710 Q587 710 587 695 L587 324 L587 294 Q585 259 577 224.5 Q569 190 556.5 158 Q544 126 527.5 98 Q511 70 492 48 Q487 43 485 43 Q482 43 482 52 L482 695 Q482 710 497 710 L572 710 Z " />
<glyph glyph-name="section" unicode="&#xa7;" horiz-adv-x="561" d="M466 258 Q497 212 515.5 167 Q534 122 534 66 Q534 7 513 -43.5 Q492 -94 453 -130.5 Q414 -167 358.5 -187.5 Q303 -208 233 -208 Q190 -208 147 -201 Q104 -194 67 -180 Q53 -174 53 -159 L53 -29 Q53 -14 67 -20 Q104 -33 154 -41 Q204 -49 252 -49 Q304 -49 343 -40 L119 300 Q105 322 90.5 345 Q76 368 64.5 394 Q53 420 45.5 450 Q38 480 38 515 Q38 573 60 617.5 Q82 662 119 692.5 Q156 723 205 739 Q254 755 309 755 Q352 755 396 749 Q440 743 478 730 Q492 725 492 710 L492 579 Q492 564 478 568 Q455 574 427.5 579.5 Q400 585 373 588.5 Q346 592 320.5 594 Q295 596 275 596 Q267 596 258.5 595.5 Q250 595 242 594 L466 258 Z M404 -16 Q456 18 456 89 Q456 124 442 153.5 Q428 183 403 221 L175 577 Q146 563 130 540 Q114 517 114 487 Q114 446 133 411 Q152 376 179 333 L404 -16 Z " />
<glyph glyph-name="copyright" unicode="&#xa9;" horiz-adv-x="693" d="M346 -11 Q282 -11 225 15.5 Q168 42 125.5 89.5 Q83 137 58 203.5 Q33 270 33 351 Q33 434 58.5 502 Q84 570 127 618.5 Q170 667 226.5 693.5 Q283 720 346 720 Q409 720 465.5 693.5 Q522 667 565.5 618.5 Q609 570 634.5 502 Q660 434 660 351 Q660 270 635 203.5 Q610 137 567 89.5 Q524 42 467 15.5 Q410 -11 346 -11 Z M346 29 Q401 29 450.5 52 Q500 75 537.5 117.5 Q575 160 597 219.5 Q619 279 619 351 Q619 426 597 487 Q575 548 537.5 591 Q500 634 450.5 657.5 Q401 681 346 681 Q291 681 242 657.5 Q193 634 155.5 591 Q118 548 96 487 Q74 426 74 351 Q74 279 96 219.5 Q118 160 155.5 117.5 Q193 75 242 52 Q291 29 346 29 Z M359 130 Q319 130 283.5 145 Q248 160 222 189 Q196 218 180.5 259.5 Q165 301 165 354 Q165 407 180.5 448.5 Q196 490 222 519 Q248 548 283.5 563 Q319 578 358 578 Q381 578 401.5 574.5 Q422 571 436 566 Q449 563 449 547 L449 452 Q449 438 437 445 Q414 459 383 459 Q348 459 328.5 431 Q309 403 309 355 Q309 305 330 278 Q351 251 382 251 Q398 251 413.5 255.5 Q429 260 441 267 Q444 269 449 269 Q454 269 454 260 L454 171 Q454 157 442 150 Q426 141 405 135.5 Q384 130 359 130 Z " />
<glyph glyph-name="registered" unicode="&#xae;" horiz-adv-x="453" d="M226 720 Q262 720 292.5 706 Q323 692 346 666.5 Q369 641 382 605.5 Q395 570 395 527 Q395 484 382 448.5 Q369 413 346.5 387.5 Q324 362 293 348 Q262 334 226 334 Q190 334 159 348 Q128 362 105.5 387.5 Q83 413 70.5 448.5 Q58 484 58 527 Q58 570 71 605.5 Q84 641 106.5 666.5 Q129 692 159.5 706 Q190 720 226 720 Z M226 363 Q256 363 281.5 375 Q307 387 325 408.5 Q343 430 353.5 460 Q364 490 364 527 Q364 564 353.5 594.5 Q343 625 325 646.5 Q307 668 281.5 679.5 Q256 691 226 691 Q197 691 172 679.5 Q147 668 128.5 646.5 Q110 625 99.5 594.5 Q89 564 89 527 Q89 490 99.5 460 Q110 430 128.5 408.5 Q147 387 172 375 Q197 363 226 363 Z M308 452 Q311 447 311 445 Q311 441 303 441 L265 441 Q252 441 245 452 L213 507 L212 507 L212 454 Q212 441 199 441 L173 441 Q160 441 160 454 L160 613 Q160 626 173 626 L222 626 Q258 626 279 611 Q300 596 300 570 Q300 530 263 516 L308 452 Z M212 587 L212 539 L217 539 Q243 539 243 564 Q243 587 218 587 L212 587 Z " />
<glyph glyph-name="trademark" unicode="&#x2122;" horiz-adv-x="828" d="M311 710 Q324 710 324 697 L324 629 Q324 616 311 616 L234 616 L234 350 Q234 337 221 337 L118 337 Q105 337 105 350 L105 616 L29 616 Q16 616 16 629 L16 697 Q16 710 29 710 L311 710 Z M809 347 Q809 337 798 337 L690 337 Q677 337 676 350 L661 517 L616 352 Q613 339 600 339 L544 339 Q531 339 527 351 L476 520 L454 350 Q452 337 439 337 L344 337 Q332 337 333 350 L391 697 Q393 710 406 710 L513 710 Q526 710 529 697 L575 524 L616 697 Q619 710 632 710 L731 710 Q745 710 746 697 L809 350 L809 347 Z " />
<glyph glyph-name="degree" unicode="&#xb0;" horiz-adv-x="432" d="M216 389 Q180 389 147.5 401.5 Q115 414 90.5 435.5 Q66 457 51.5 487.5 Q37 518 37 554 Q37 591 51.5 621.5 Q66 652 90.5 674 Q115 696 147.5 708 Q180 720 216 720 Q252 720 284.5 708 Q317 696 341.5 674 Q366 652 380.5 621.5 Q395 591 395 554 Q395 518 380.5 487.5 Q366 457 341.5 435.5 Q317 414 284.5 401.5 Q252 389 216 389 Z M216 493 Q239 493 254.5 510 Q270 527 270 554 Q270 581 254.5 598 Q239 615 216 615 Q192 615 177 598 Q162 581 162 554 Q162 527 177 510 Q192 493 216 493 Z " />
<glyph glyph-name="bar" unicode="&#x7c;" horiz-adv-x="201" d="M50 -200 Q35 -200 35 -185 L35 825 Q35 840 50 840 L151 840 Q166 840 166 825 L166 -185 Q166 -200 151 -200 L50 -200 L50 -200 Z " />
<glyph glyph-name="brokenbar" unicode="&#xa6;" horiz-adv-x="201" d="M50 420 Q35 420 35 435 L35 825 Q35 840 50 840 L151 840 Q166 840 166 825 L166 435 Q166 420 151 420 L50 420 Z M50 -200 Q35 -200 35 -185 L35 205 Q35 220 50 220 L151 220 Q166 220 166 205 L166 -185 Q166 -200 151 -200 L50 -200 Z " />
<glyph glyph-name="dagger" unicode="&#x2020;" horiz-adv-x="409" d="M375 593 Q387 593 387 579 L387 478 Q387 463 372 464 L289 469 L289 249 Q289 234 274 234 L136 234 Q121 234 121 249 L121 469 L37 464 L34 464 Q22 464 22 478 L22 579 Q22 594 37 593 L121 589 L121 695 Q121 710 136 710 L274 710 Q289 710 289 695 L289 589 L372 593 L375 593 Z " />
<glyph glyph-name="daggerdbl" unicode="&#x2021;" horiz-adv-x="409" d="M289 506 L289 432 L372 436 L375 436 Q387 436 387 422 L387 321 Q387 306 372 307 L289 312 L289 249 Q289 234 274 234 L136 234 Q121 234 121 249 L121 312 L37 307 L34 307 Q22 307 22 321 L22 422 Q22 437 37 436 L121 432 L121 507 L37 502 L34 502 Q22 502 22 516 L22 617 Q22 632 37 631 L121 626 L121 695 Q121 710 136 710 L274 710 Q289 710 289 695 L289 627 L372 631 L375 631 Q387 631 387 617 L387 516 Q387 501 372 502 L289 506 Z " />
<glyph glyph-name="asciicircum" unicode="&#x5e;" horiz-adv-x="600" d="M512 269 Q515 264 515 261 Q515 256 505 256 L405 256 Q390 256 381 268 L301 370 L221 268 Q212 256 197 256 L96 256 Q86 256 86 261 Q86 264 89 269 L221 467 Q229 480 244 480 L357 480 Q372 480 380 467 L512 269 L512 269 Z " />
<glyph glyph-name="dieresiscomb" unicode="&#x308;" d="M-95 578 Q-112 578 -126.5 585 Q-141 592 -151.5 603 Q-162 614 -167.5 629 Q-173 644 -173 660 Q-173 693 -151.5 717.5 Q-130 742 -95 742 Q-60 742 -38.5 717.5 Q-17 693 -17 660 Q-17 628 -39 603 Q-61 578 -95 578 Z M96 578 Q79 578 64.5 585 Q50 592 39.5 603 Q29 614 23.5 629 Q18 644 18 660 Q18 693 39.5 717.5 Q61 742 96 742 Q131 742 152.5 717.5 Q174 693 174 660 Q174 628 152 603 Q130 578 96 578 Z " />
<glyph glyph-name="dotaccentcomb" unicode="&#x307;" d="M1 558 Q-19 558 -35.5 565.5 Q-52 573 -64 586 Q-76 599 -82.5 616 Q-89 633 -89 651 Q-89 670 -82.5 687 Q-76 704 -64 716.5 Q-52 729 -35.5 736.5 Q-19 744 1 744 Q39 744 64 716.5 Q89 689 89 651 Q89 633 82.5 616 Q76 599 64 586 Q52 573 36 565.5 Q20 558 1 558 Z " />
<glyph glyph-name="gravecomb" unicode="&#x300;" d="M72 556 Q74 552 74 549 Q74 542 63 542 L-35 542 Q-50 542 -59 554 L-175 705 Q-181 712 -181 719 Q-181 728 -165 734 L-39 774 Q-37 775 -32 775 Q-23 775 -19 765 L72 556 L72 556 Z " />
<glyph glyph-name="acutecomb" unicode="&#x301;" d="M-64 542 Q-79 542 -73 556 L18 765 Q25 779 38 774 L164 734 Q180 729 180 719 Q180 712 174 705 L58 554 Q49 542 34 542 L-64 542 L-64 542 Z " />
<glyph glyph-name="hungarumlautcomb" unicode="&#x30b;" d="M-148 542 Q-163 542 -160 557 L-124 764 Q-121 779 -106 776 L16 751 Q34 746 34 733 Q34 727 31 720 L-44 556 Q-50 542 -65 542 L-148 542 Z M23 542 Q7 542 13 556 L86 765 Q91 779 106 776 L231 750 Q247 747 247 736 Q247 729 242 722 L135 555 Q127 542 112 542 L23 542 Z " />
<glyph glyph-name="circumflexcomb" unicode="&#x302;" d="M172 560 Q175 554 175 551 Q175 543 162 543 L67 543 Q54 543 47 554 L0 633 L-47 554 Q-53 543 -67 543 L-163 543 Q-176 543 -176 551 Q-176 554 -173 560 L-74 734 Q-68 745 -55 745 L54 745 Q67 745 73 734 L172 560 L172 560 Z " />
<glyph glyph-name="caroncomb" unicode="&#x30c;" d="M154 741 Q164 741 164 736 Q164 732 161 728 L55 551 Q49 540 35 540 L-34 540 Q-49 540 -57 553 L-162 728 Q-165 732 -165 736 Q-165 741 -155 741 L-68 741 Q-53 741 -44 729 L2 666 L44 729 Q53 741 67 741 L154 741 L154 741 Z " />
<glyph glyph-name="brevecomb" unicode="&#x306;" d="M0 562 Q-27 562 -52.5 573 Q-78 584 -97.5 604 Q-117 624 -130 651 Q-143 678 -145 711 L-145 713 Q-145 724 -133 724 L-66 724 Q-54 724 -51 711 Q-45 689 -32.5 676.5 Q-20 664 0 664 Q19 664 32 676.5 Q45 689 51 711 Q54 724 67 724 L133 724 Q146 724 145 711 Q142 678 129.5 651 Q117 624 97.5 604 Q78 584 53 573 Q28 562 0 562 Z " />
<glyph glyph-name="ringcomb" unicode="&#x30a;" d="M0 522 Q-24 522 -47 531 Q-70 540 -87 555.5 Q-104 571 -114.5 592.5 Q-125 614 -125 639 Q-125 664 -114.5 685.5 Q-104 707 -87 722.5 Q-70 738 -47 746.5 Q-24 755 0 755 Q24 755 47 746.5 Q70 738 87 722.5 Q104 707 114.5 685.5 Q125 664 125 639 Q125 614 114.5 592.5 Q104 571 87 555.5 Q70 540 47 531 Q24 522 0 522 Z M0 594 Q19 594 31.5 606.5 Q44 619 44 639 Q44 658 31.5 670 Q19 682 0 682 Q-20 682 -32 669.5 Q-44 657 -44 639 Q-44 619 -32 606.5 Q-20 594 0 594 Z " />
<glyph glyph-name="tildecomb" unicode="&#x303;" d="M69 549 Q46 549 25.5 560 Q5 571 -13 581 Q-26 588 -35.5 593 Q-45 598 -56 598 Q-66 598 -73 592 Q-80 586 -84 570 Q-87 558 -98 558 L-163 558 Q-175 558 -174 571 Q-171 605 -164 635 Q-157 665 -144.5 686.5 Q-132 708 -113.5 720.5 Q-95 733 -69 733 Q-43 733 -22.5 721.5 Q-2 710 15 699 Q26 692 34.5 687.5 Q43 683 52 683 Q63 683 69 691 Q75 699 77 712 Q80 724 91 724 L162 724 Q174 724 173 711 Q171 676 164 646.5 Q157 617 144 595.5 Q131 574 112.5 561.5 Q94 549 69 549 Z " />
<glyph glyph-name="macroncomb" unicode="&#x304;" d="M-151 582 Q-166 582 -166 597 L-166 689 Q-166 704 -151 704 L150 704 Q165 704 165 689 L165 597 Q165 582 150 582 L-151 582 L-151 582 Z " />
<glyph glyph-name="cedillacomb" unicode="&#x327;" horiz-adv-x="32" d="M47 -29 Q78 -35 97.5 -54 Q117 -73 117 -104 Q117 -143 83.5 -168.5 Q50 -194 -10 -194 Q-31 -194 -47.5 -192 Q-64 -190 -75 -187 Q-87 -182 -87 -169 L-87 -125 Q-87 -112 -75 -115 Q-64 -118 -51.5 -120 Q-39 -122 -27 -122 Q-14 -122 -4 -117.5 Q6 -113 6 -104 Q6 -94 -5 -89 Q-16 -84 -33 -84 Q-48 -84 -60 -88 L-63 -84 L-11 20 L74 20 L47 -29 L47 -29 Z " />
<glyph glyph-name="ogonekcomb" unicode="&#x328;" d="M12 -196 Q-42 -196 -76 -169.5 Q-110 -143 -110 -99 Q-110 -70 -97.5 -46.5 Q-85 -23 -63.5 -4.5 Q-42 14 -14 27 Q14 40 45 48 L107 10 Q47 -18 24 -43.5 Q1 -69 1 -86 Q1 -117 37 -117 Q45 -117 54 -114.5 Q63 -112 71 -110 Q73 -109 76 -109 Q83 -109 83 -119 L83 -167 Q83 -181 71 -185 Q46 -196 12 -196 Z " />
<glyph glyph-name="slashshortcomb" unicode="&#x337;" d="M-227 -24 Q-242 -24 -234 -12 L139 536 Q148 548 162 548 L227 548 Q242 548 234 536 L-138 -12 Q-147 -24 -161 -24 L-227 -24 L-227 -24 Z " />
<glyph glyph-name="slashlongcomb" unicode="&#x338;" d="M-287 -9 Q-299 -9 -292 1 L195 706 Q205 718 219 718 L284 718 Q294 718 294 713 Q294 712 290 706 L-195 3 Q-205 -9 -219 -9 L-287 -9 L-287 -9 Z " />
<glyph glyph-name="acute" unicode="&#xb4;" horiz-adv-x="500" d="M133 542 Q118 542 124 556 L215 765 Q222 779 235 774 L361 734 Q377 729 377 719 Q377 712 371 705 L255 554 Q246 542 231 542 L133 542 L133 542 Z " />
<glyph glyph-name="breve" unicode="&#x2d8;" horiz-adv-x="500" d="M250 562 Q223 562 197.5 573 Q172 584 152.5 604 Q133 624 120 651 Q107 678 105 711 L105 713 Q105 724 117 724 L184 724 Q196 724 199 711 Q205 689 217.5 676.5 Q230 664 250 664 Q269 664 282 676.5 Q295 689 301 711 Q304 724 317 724 L383 724 Q396 724 395 711 Q392 678 379.5 651 Q367 624 347.5 604 Q328 584 303 573 Q278 562 250 562 Z " />
<glyph glyph-name="caron" unicode="&#x2c7;" horiz-adv-x="500" d="M404 741 Q414 741 414 736 Q414 732 411 728 L305 551 Q299 540 285 540 L216 540 Q201 540 193 553 L88 728 Q85 732 85 736 Q85 741 95 741 L182 741 Q197 741 206 729 L252 666 L294 729 Q303 741 317 741 L404 741 L404 741 Z " />
<glyph glyph-name="cedilla" unicode="&#xb8;" horiz-adv-x="580" d="M337 -29 Q368 -35 387.5 -54 Q407 -73 407 -104 Q407 -143 373.5 -168.5 Q340 -194 280 -194 Q259 -194 242.5 -192 Q226 -190 215 -187 Q203 -182 203 -169 L203 -125 Q203 -112 215 -115 Q226 -118 238.5 -120 Q251 -122 263 -122 Q276 -122 286 -117.5 Q296 -113 296 -104 Q296 -94 285 -89 Q274 -84 257 -84 Q242 -84 230 -88 L227 -84 L279 20 L364 20 L337 -29 L337 -29 Z " />
<glyph glyph-name="circumflex" unicode="&#x2c6;" horiz-adv-x="500" d="M422 560 Q425 554 425 551 Q425 543 412 543 L317 543 Q304 543 297 554 L250 633 L203 554 Q197 543 183 543 L87 543 Q74 543 74 551 Q74 554 77 560 L176 734 Q182 745 195 745 L304 745 Q317 745 323 734 L422 560 L422 560 Z " />
<glyph glyph-name="dieresis" unicode="&#xa8;" horiz-adv-x="500" d="M155 578 Q138 578 123.5 585 Q109 592 98.5 603 Q88 614 82.5 629 Q77 644 77 660 Q77 693 98.5 717.5 Q120 742 155 742 Q190 742 211.5 717.5 Q233 693 233 660 Q233 628 211 603 Q189 578 155 578 Z M346 578 Q329 578 314.5 585 Q300 592 289.5 603 Q279 614 273.5 629 Q268 644 268 660 Q268 693 289.5 717.5 Q311 742 346 742 Q381 742 402.5 717.5 Q424 693 424 660 Q424 628 402 603 Q380 578 346 578 Z " />
<glyph glyph-name="dotaccent" unicode="&#x2d9;" horiz-adv-x="500" d="M251 558 Q231 558 214.5 565.5 Q198 573 186 586 Q174 599 167.5 616 Q161 633 161 651 Q161 670 167.5 687 Q174 704 186 716.5 Q198 729 214.5 736.5 Q231 744 251 744 Q289 744 314 716.5 Q339 689 339 651 Q339 633 332.5 616 Q326 599 314 586 Q302 573 286 565.5 Q270 558 251 558 Z " />
<glyph glyph-name="grave" unicode="&#x60;" horiz-adv-x="500" d="M374 556 Q376 552 376 549 Q376 542 365 542 L267 542 Q252 542 243 554 L127 705 Q121 712 121 719 Q121 728 137 734 L263 774 Q265 775 270 775 Q279 775 283 765 L374 556 L374 556 Z " />
<glyph glyph-name="hungarumlaut" unicode="&#x2dd;" horiz-adv-x="500" d="M59 542 Q44 542 47 557 L83 764 Q86 779 101 776 L223 751 Q241 746 241 733 Q241 727 238 720 L163 556 Q157 542 142 542 L59 542 Z M230 542 Q214 542 220 556 L293 765 Q298 779 313 776 L438 750 Q454 747 454 736 Q454 729 449 722 L342 555 Q334 542 319 542 L230 542 Z " />
<glyph glyph-name="macron" unicode="&#xaf;" horiz-adv-x="500" d="M99 582 Q84 582 84 597 L84 689 Q84 704 99 704 L400 704 Q415 704 415 689 L415 597 Q415 582 400 582 L99 582 L99 582 Z " />
<glyph glyph-name="ogonek" unicode="&#x2db;" horiz-adv-x="500" d="M264 -196 Q210 -196 176 -169.5 Q142 -143 142 -99 Q142 -70 154.5 -46.5 Q167 -23 188.5 -4.5 Q210 14 238 27 Q266 40 297 48 L359 10 Q299 -18 276 -43.5 Q253 -69 253 -86 Q253 -117 289 -117 Q297 -117 306 -114.5 Q315 -112 323 -110 Q325 -109 328 -109 Q335 -109 335 -119 L335 -167 Q335 -181 323 -185 Q298 -196 264 -196 Z " />
<glyph glyph-name="ring" unicode="&#x2da;" horiz-adv-x="500" d="M250 522 Q226 522 203 531 Q180 540 163 555.5 Q146 571 135.5 592.5 Q125 614 125 639 Q125 664 135.5 685.5 Q146 707 163 722.5 Q180 738 203 746.5 Q226 755 250 755 Q274 755 297 746.5 Q320 738 337 722.5 Q354 707 364.5 685.5 Q375 664 375 639 Q375 614 364.5 592.5 Q354 571 337 555.5 Q320 540 297 531 Q274 522 250 522 Z M250 594 Q269 594 281.5 606.5 Q294 619 294 639 Q294 658 281.5 670 Q269 682 250 682 Q230 682 218 669.5 Q206 657 206 639 Q206 619 218 606.5 Q230 594 250 594 Z " />
<glyph glyph-name="tilde" unicode="&#x2dc;" horiz-adv-x="500" d="M319 549 Q296 549 275.5 560 Q255 571 237 581 Q224 588 214.5 593 Q205 598 194 598 Q184 598 177 592 Q170 586 166 570 Q163 558 152 558 L87 558 Q75 558 76 571 Q79 605 86 635 Q93 665 105.5 686.5 Q118 708 136.5 720.5 Q155 733 181 733 Q207 733 227.5 721.5 Q248 710 265 699 Q276 692 284.5 687.5 Q293 683 302 683 Q313 683 319 691 Q325 699 327 712 Q330 724 341 724 L412 724 Q424 724 423 711 Q421 676 414 646.5 Q407 617 394 595.5 Q381 574 362.5 561.5 Q344 549 319 549 Z " />
<glyph glyph-name="A" unicode="A" horiz-adv-x="671" d="M655 14 Q656 12 656 8 Q656 0 645 0 L454 0 Q439 0 435 15 Q430 34 425.5 53.5 Q421 73 416 93 L246 93 Q241 73 236.5 53.5 Q232 34 227 15 Q222 0 208 0 L25 0 Q9 0 15 14 L247 697 Q252 711 267 711 L406 711 Q420 711 426 697 L655 14 Z M383 233 Q369 288 356.5 342 Q344 396 331 448 Q317 396 304.5 342 Q292 288 279 233 L383 233 Z " />
<glyph glyph-name="Aacute" unicode="&#xc1;" horiz-adv-x="677" d="M655 14 Q656 12 656 8 Q656 0 645 0 L454 0 Q439 0 435 15 Q430 34 425.5 53.5 Q421 73 416 93 L246 93 Q241 73 236.5 53.5 Q232 34 227 15 Q222 0 208 0 L25 0 Q9 0 15 14 L247 697 Q252 711 267 711 L406 711 Q420 711 426 697 L655 14 Z M383 233 Q369 288 356.5 342 Q344 396 331 448 Q317 396 304.5 342 Q292 288 279 233 L383 233 Z M287 755 Q271 755 277 769 L330 913 Q335 927 350 927 L521 928 Q537 928 537 921 Q537 916 530 908 L399 766 Q390 755 374 755 L287 755 L287 755 Z " />
</font>
</svg>
