<?xml version="1.0" encoding="UTF-8"?>
<svg xmlns="http://www.w3.org/2000/svg" xmlns:xlink="http://www.w3.org/1999/xlink" version="1.2" >
<font id="GlobotipoCondensada-BoldItalic">
<font-face  font-family="Globotipo Condensada" units-per-em="1000" ascent="1000" descent="-400" font-style="italic" font-weight="700" font-stretch="condensed" slope="-7" cap-height="710" x-height="480" underline-position="-75" underline-thickness="50" />
<missing-glyph  horiz-adv-x="700" d="M350 709 Q423 709 487.5 681 Q552 653 600 605 Q648 557 676 492.5 Q704 428 704 355 Q704 281 676 216.5 Q648 152 600 104 Q552 56 487.5 28 Q423 0 350 0 Q276 0 211.5 28 Q147 56 99 104 Q51 152 23 216.5 Q-5 281 -5 355 Q-5 428 23 492.5 Q51 557 99 605 Q147 653 211.5 681 Q276 709 350 709 Z M350 20 Q419 20 480 46.5 Q541 73 586 118.5 Q631 164 657.5 225 Q684 286 684 355 Q684 424 657.5 485 Q631 546 586 591 Q541 636 480 662.5 Q419 689 350 689 Q281 689 220 662.5 Q159 636 113.5 591 Q68 546 41.5 485 Q15 424 15 355 Q15 286 41.5 225 Q68 164 113.5 118.5 Q159 73 220 46.5 Q281 20 350 20 Z M545 563 Q555 573 565 563 Q569 559 559 549 L364 354 L559 159 Q569 149 559 139 Q555 135 545 145 L350 340 L155 145 Q145 135 135 145 Q131 149 141 159 L336 354 L141 549 Q131 559 141 569 Q145 573 155 563 L350 368 L545 563 Z " />
<glyph glyph-name=".null" d="" />
<glyph glyph-name="nonmarkingreturn" unicode="&#xd;" horiz-adv-x="180" d="" />
<glyph glyph-name="space" unicode="&#x20;" horiz-adv-x="180" d="" />
<glyph glyph-name="Adieresis" unicode="&#xc4;" horiz-adv-x="610" d="M425 0 Q412 0 410 13 L391 131 L188 131 Q175 100 162.5 70 Q150 40 138 11 Q132 0 121 0 L-3 0 Q-20 0 -14 16 L296 701 Q300 712 313 712 L410 712 Q423 712 426 700 L566 15 Q569 0 553 0 L425 0 Z M373 241 Q363 305 353 367 Q343 429 334 486 Q310 429 284.5 367 Q259 305 233 241 L373 241 Z M287 775 Q261 775 245.5 793.5 Q230 812 230 838 Q230 870 251.5 893.5 Q273 917 303 917 Q329 917 344 898.5 Q359 880 359 854 Q359 838 353 824 Q347 810 337.5 799 Q328 788 315 781.5 Q302 775 287 775 Z M461 775 Q435 775 419.5 793.5 Q404 812 404 838 Q404 870 425.5 893.5 Q447 917 477 917 Q503 917 518 898.5 Q533 880 533 854 Q533 838 527 824 Q521 810 511.5 799 Q502 788 489 781.5 Q476 775 461 775 Z " />
<glyph glyph-name="Agrave" unicode="&#xc0;" horiz-adv-x="610" d="M425 0 Q412 0 410 13 L391 131 L188 131 Q175 100 162.5 70 Q150 40 138 11 Q132 0 121 0 L-3 0 Q-20 0 -14 16 L296 701 Q300 712 313 712 L410 712 Q423 712 426 700 L566 15 Q569 0 553 0 L425 0 Z M373 241 Q363 305 353 367 Q343 429 334 486 Q310 429 284.5 367 Q259 305 233 241 L373 241 Z M400 781 Q405 765 388 765 L330 765 Q319 765 313 774 L217 908 Q212 915 215 920 Q218 925 226 925 L344 924 Q357 924 360 912 L400 781 L400 781 Z " />
<glyph glyph-name="Aring" unicode="&#xc5;" horiz-adv-x="610" d="M425 0 Q412 0 410 13 L391 131 L188 131 Q175 100 162.5 70 Q150 40 138 11 Q132 0 121 0 L-3 0 Q-20 0 -14 16 L296 701 Q300 712 313 712 L410 712 Q423 712 426 700 L566 15 Q569 0 553 0 L425 0 Z M373 241 Q363 305 353 367 Q343 429 334 486 Q310 429 284.5 367 Q259 305 233 241 L373 241 Z M366 749 Q325 749 297 775.5 Q269 802 269 844 Q269 869 279.5 890 Q290 911 307 926.5 Q324 942 346 950.5 Q368 959 391 959 Q431 959 459.5 933 Q488 907 488 865 Q488 840 477.5 818.5 Q467 797 450 781.5 Q433 766 411 757.5 Q389 749 366 749 Z M373 806 Q395 806 410.5 821 Q426 836 426 859 Q426 878 414.5 889.5 Q403 901 384 901 Q362 901 346.5 886 Q331 871 331 848 Q331 829 342.5 817.5 Q354 806 373 806 Z " />
<glyph glyph-name="Atilde" unicode="&#xc3;" horiz-adv-x="610" d="M425 0 Q412 0 410 13 L391 131 L188 131 Q175 100 162.5 70 Q150 40 138 11 Q132 0 121 0 L-3 0 Q-20 0 -14 16 L296 701 Q300 712 313 712 L410 712 Q423 712 426 700 L566 15 Q569 0 553 0 L425 0 Z M373 241 Q363 305 353 367 Q343 429 334 486 Q310 429 284.5 367 Q259 305 233 241 L373 241 Z M323 828 Q298 828 290 793 Q287 780 275 780 L235 780 Q220 780 222 795 Q227 853 249 891.5 Q271 930 314 930 Q339 930 357 918 Q375 906 390 895 Q400 887 408.5 881 Q417 875 428 875 Q441 875 448 884.5 Q455 894 457 910 Q460 923 472 923 L517 923 Q531 923 530 908 Q525 850 503 811.5 Q481 773 439 773 Q417 773 399 784 Q381 795 366 806 Q355 814 345.5 821 Q336 828 323 828 Z " />
<glyph glyph-name="AE" unicode="&#xc6;" horiz-adv-x="812" d="M815 606 Q813 593 800 593 L590 593 L569 422 L745 422 Q759 422 758 407 L748 319 Q746 306 733 306 L554 306 L531 117 L738 117 Q752 117 751 102 L741 13 Q739 0 727 0 L393 0 Q378 0 380 15 L394 129 L203 129 L138 10 Q131 0 122 0 L-3 0 Q-11 0 -13.5 5 Q-16 10 -12 17 L381 700 Q388 710 398 710 L812 710 Q826 710 825 695 L815 606 Z M407 238 L450 584 L262 238 L407 238 Z " />
<glyph glyph-name="B" unicode="B" horiz-adv-x="553" d="M385 377 Q454 365 489 325 Q524 285 524 228 Q524 175 501.5 132.5 Q479 90 438 60.5 Q397 31 340 15.5 Q283 0 214 0 L51 0 Q36 0 38 15 L128 697 Q130 710 143 710 L304 710 Q412 710 473 670.5 Q534 631 534 553 Q534 489 494.5 440.5 Q455 392 386 379 L385 377 Z M392 525 Q392 564 365 584.5 Q338 605 287 605 L259 605 L234 417 L265 417 Q328 417 360 445.5 Q392 474 392 525 Z M224 106 Q296 106 335.5 138.5 Q375 171 375 225 Q375 266 344.5 289.5 Q314 313 255 313 L220 313 L192 106 L224 106 Z " />
<glyph glyph-name="C" unicode="C" horiz-adv-x="531" d="M307 -9 Q252 -9 205 12 Q158 33 123.5 72.5 Q89 112 69 168 Q49 224 49 295 Q49 392 80 471 Q111 550 162.5 605 Q214 660 281 690 Q348 720 420 720 Q455 720 486 713.5 Q517 707 540 697 Q550 693 549 680 L534 570 Q532 553 517 563 Q498 574 473 580.5 Q448 587 419 587 Q373 587 332.5 567 Q292 547 262 511 Q232 475 214.5 424.5 Q197 374 197 313 Q197 269 208.5 234.5 Q220 200 240.5 176 Q261 152 289 139 Q317 126 351 126 Q380 126 408 133 Q436 140 459 152 Q467 156 471.5 153.5 Q476 151 475 142 L464 37 Q462 26 456 22 Q426 8 388.5 -0.5 Q351 -9 307 -9 Z " />
<glyph glyph-name="Ccedilla" unicode="&#xc7;" horiz-adv-x="531" d="M419 587 Q373 587 332.5 567 Q292 547 262 511 Q232 475 214.5 424.5 Q197 374 197 313 Q197 269 208.5 234.5 Q220 200 240.5 176 Q261 152 289 139 Q317 126 351 126 Q380 126 408 133 Q436 140 459 152 Q467 156 471.5 153.5 Q476 151 475 142 L464 37 Q462 25 453 21 Q428 10 396.5 2 Q365 -6 330 -8 L310 -35 Q339 -37 358 -54 Q377 -71 377 -98 Q377 -137 342 -162.5 Q307 -188 252 -188 Q215 -188 191 -180 Q181 -177 182 -164 L185 -135 Q187 -119 202 -124 Q212 -126 223.5 -128 Q235 -130 247 -130 Q265 -130 279 -123.5 Q293 -117 293 -104 Q293 -93 281.5 -86.5 Q270 -80 252 -80 Q240 -80 230 -83 Q228 -82 226 -79 Q222 -72 225 -68 L267 -6 Q220 1 180 25 Q140 49 111 88 Q82 127 65.5 179 Q49 231 49 295 Q49 392 80 471 Q111 550 162.5 605 Q214 660 281 690 Q348 720 420 720 Q455 720 486 713.5 Q517 707 540 697 Q550 693 549 680 L534 570 Q532 554 521 560 Q502 573 475.5 580 Q449 587 419 587 Z " />
<glyph glyph-name="D" unicode="D" horiz-adv-x="633" d="M51 0 Q36 0 38 15 L130 697 Q132 710 145 710 L284 710 Q362 710 422.5 687.5 Q483 665 525 624.5 Q567 584 589 527 Q611 470 611 402 Q611 315 580.5 241.5 Q550 168 494.5 114 Q439 60 361 30 Q283 0 188 0 L51 0 Z M215 123 Q273 123 319.5 143.5 Q366 164 397.5 200.5 Q429 237 446 286.5 Q463 336 463 395 Q463 483 416 535 Q369 587 279 587 L260 588 L196 122 L215 123 Z " />
<glyph glyph-name="Eth" unicode="&#xd0;" horiz-adv-x="638" d="M289 710 Q367 710 427.5 687.5 Q488 665 530 624.5 Q572 584 594 527 Q616 470 616 402 Q616 315 585.5 241.5 Q555 168 499.5 114 Q444 60 366 30 Q288 0 193 0 L56 0 Q41 0 43 15 L82 300 L31 300 Q16 300 18 315 L28 405 Q30 418 42 418 L98 418 L135 697 Q137 710 150 710 L289 710 Z M220 123 Q278 123 324.5 143.5 Q371 164 402.5 200.5 Q434 237 451 286.5 Q468 336 468 395 Q468 483 421 535 Q374 587 284 587 L265 588 L240 409 L353 409 Q367 409 366 394 L358 323 Q356 310 344 310 L227 310 L201 122 L220 123 Z " />
<glyph glyph-name="E" unicode="E" horiz-adv-x="486" d="M491 599 Q489 586 476 586 L257 586 L237 425 L421 425 Q435 425 434 410 L423 314 Q421 301 408 301 L222 301 L200 124 L416 124 Q430 124 429 109 L418 13 Q416 0 403 0 L51 0 Q36 0 38 15 L121 697 Q123 710 136 710 L489 710 Q503 710 502 695 L491 599 L491 599 Z " />
<glyph glyph-name="Eacute" unicode="&#xc9;" horiz-adv-x="488" d="M491 599 Q489 586 476 586 L257 586 L237 425 L421 425 Q435 425 434 410 L423 314 Q421 301 408 301 L222 301 L200 124 L416 124 Q430 124 429 109 L418 13 Q416 0 403 0 L51 0 Q36 0 38 15 L121 697 Q123 710 136 710 L489 710 Q503 710 502 695 L491 599 L491 599 Z M279 758 Q271 758 268 763 Q265 768 269 775 L341 907 Q348 917 357 917 L482 918 Q491 918 494 913 Q497 908 490 901 L353 765 Q346 758 336 758 L279 758 L279 758 Z " />
<glyph glyph-name="Ecircumflex" unicode="&#xca;" horiz-adv-x="488" d="M491 599 Q489 586 476 586 L257 586 L237 425 L421 425 Q435 425 434 410 L423 314 Q421 301 408 301 L222 301 L200 124 L416 124 Q430 124 429 109 L418 13 Q416 0 403 0 L51 0 Q36 0 38 15 L121 697 Q123 710 136 710 L489 710 Q503 710 502 695 L491 599 L491 599 Z M474 774 Q478 767 475 762 Q472 757 464 757 L402 757 Q390 757 385 766 L338 835 L272 764 Q266 757 255 757 L194 757 Q186 757 183 762 Q180 767 185 774 L290 909 Q295 917 308 917 L386 917 Q396 917 402 907 L474 774 L474 774 Z " />
<glyph glyph-name="Edieresis" unicode="&#xcb;" horiz-adv-x="488" d="M491 599 Q489 586 476 586 L257 586 L237 425 L421 425 Q435 425 434 410 L423 314 Q421 301 408 301 L222 301 L200 124 L416 124 Q430 124 429 109 L418 13 Q416 0 403 0 L51 0 Q36 0 38 15 L121 697 Q123 710 136 710 L489 710 Q503 710 502 695 L491 599 L491 599 Z M239 775 Q213 775 197.5 793.5 Q182 812 182 838 Q182 870 203.5 893.5 Q225 917 255 917 Q281 917 296 898.5 Q311 880 311 854 Q311 838 305 824 Q299 810 289.5 799 Q280 788 267 781.5 Q254 775 239 775 Z M413 775 Q387 775 371.5 793.5 Q356 812 356 838 Q356 870 377.5 893.5 Q399 917 429 917 Q455 917 470 898.5 Q485 880 485 854 Q485 838 479 824 Q473 810 463.5 799 Q454 788 441 781.5 Q428 775 413 775 Z " />
<glyph glyph-name="Egrave" unicode="&#xc8;" horiz-adv-x="488" d="M491 599 Q489 586 476 586 L257 586 L237 425 L421 425 Q435 425 434 410 L423 314 Q421 301 408 301 L222 301 L200 124 L416 124 Q430 124 429 109 L418 13 Q416 0 403 0 L51 0 Q36 0 38 15 L121 697 Q123 710 136 710 L489 710 Q503 710 502 695 L491 599 L491 599 Z M352 781 Q357 765 340 765 L282 765 Q271 765 265 774 L169 908 Q164 915 167 920 Q170 925 178 925 L296 924 Q309 924 312 912 L352 781 L352 781 Z " />
<glyph glyph-name="F" unicode="F" horiz-adv-x="457" d="M470 600 Q468 587 455 587 L264 587 L238 389 L405 389 Q419 389 418 374 L405 279 Q403 266 390 266 L222 266 L189 13 Q187 0 174 0 L54 0 Q39 0 41 15 L129 697 Q131 710 144 710 L468 710 Q482 710 481 695 L470 600 L470 600 Z " />
<glyph glyph-name="G" unicode="G" horiz-adv-x="633" d="M313 -9 Q254 -9 204.5 12.5 Q155 34 118.5 74.5 Q82 115 61.5 173 Q41 231 41 303 Q41 398 74 475 Q107 552 162.5 606.5 Q218 661 291.5 690.5 Q365 720 445 720 Q490 720 535.5 711.5 Q581 703 613 687 Q623 683 621 670 L608 571 Q607 555 591 562 Q560 577 518.5 585.5 Q477 594 435 594 Q384 594 339.5 575 Q295 556 261.5 519 Q228 482 208.5 429 Q189 376 189 309 Q189 218 228 169.5 Q267 121 329 121 Q361 121 389.5 132 Q418 143 440.5 164.5 Q463 186 478 216.5 Q493 247 499 286 L360 286 Q345 286 347 301 L360 398 Q362 411 375 411 L630 411 Q645 411 643 397 Q642 379 640.5 362 Q639 345 637 330 Q629 251 601.5 188 Q574 125 532 81.5 Q490 38 434 14.5 Q378 -9 313 -9 Z " />
<glyph glyph-name="H" unicode="H" horiz-adv-x="653" d="M497 697 Q499 710 512 710 L628 710 Q642 710 641 695 L558 13 Q556 0 543 0 L427 0 Q412 0 414 15 L449 300 L219 300 L185 13 Q183 0 170 0 L54 0 Q39 0 41 15 L123 697 Q125 710 138 710 L254 710 Q268 710 267 695 L234 419 L463 419 L497 697 L497 697 Z " />
<glyph glyph-name="I" unicode="I" horiz-adv-x="305" d="M62 0 Q47 0 49 15 L130 697 Q132 710 145 710 L271 710 Q285 710 284 695 L203 13 Q201 0 188 0 L62 0 L62 0 Z " />
<glyph glyph-name="Iacute" unicode="&#xcd;" horiz-adv-x="305" d="M62 0 Q47 0 49 15 L130 697 Q132 710 145 710 L271 710 Q285 710 284 695 L203 13 Q201 0 188 0 L62 0 L62 0 Z M175 758 Q167 758 164 763 Q161 768 165 775 L237 907 Q244 917 253 917 L378 918 Q387 918 390 913 Q393 908 386 901 L249 765 Q242 758 232 758 L175 758 L175 758 Z " />
<glyph glyph-name="Icircumflex" unicode="&#xce;" horiz-adv-x="305" d="M62 0 Q47 0 49 15 L130 697 Q132 710 145 710 L271 710 Q285 710 284 695 L203 13 Q201 0 188 0 L62 0 L62 0 Z M370 774 Q374 767 371 762 Q368 757 360 757 L298 757 Q286 757 281 766 L234 835 L168 764 Q162 757 151 757 L90 757 Q82 757 79 762 Q76 767 81 774 L186 909 Q191 917 204 917 L282 917 Q292 917 298 907 L370 774 L370 774 Z " />
<glyph glyph-name="Idieresis" unicode="&#xcf;" horiz-adv-x="305" d="M62 0 Q47 0 49 15 L130 697 Q132 710 145 710 L271 710 Q285 710 284 695 L203 13 Q201 0 188 0 L62 0 L62 0 Z M135 775 Q109 775 93.5 793.5 Q78 812 78 838 Q78 870 99.5 893.5 Q121 917 151 917 Q177 917 192 898.5 Q207 880 207 854 Q207 838 201 824 Q195 810 185.5 799 Q176 788 163 781.5 Q150 775 135 775 Z M309 775 Q283 775 267.5 793.5 Q252 812 252 838 Q252 870 273.5 893.5 Q295 917 325 917 Q351 917 366 898.5 Q381 880 381 854 Q381 838 375 824 Q369 810 359.5 799 Q350 788 337 781.5 Q324 775 309 775 Z " />
<glyph glyph-name="Igrave" unicode="&#xcc;" horiz-adv-x="305" d="M62 0 Q47 0 49 15 L130 697 Q132 710 145 710 L271 710 Q285 710 284 695 L203 13 Q201 0 188 0 L62 0 L62 0 Z M248 781 Q253 765 236 765 L178 765 Q167 765 161 774 L65 908 Q60 915 63 920 Q66 925 74 925 L192 924 Q205 924 208 912 L248 781 L248 781 Z " />
<glyph glyph-name="J" unicode="J" horiz-adv-x="398" d="M98 -9 Q67 -9 42.5 -4.5 Q18 0 1 8 Q-9 13 -7 26 L5 119 Q7 134 22 129 Q53 116 87 116 Q120 116 144 139.5 Q168 163 174 210 L237 698 Q239 711 252 711 L374 711 Q388 711 387 696 L324 214 Q317 159 297 117 Q277 75 247.5 47 Q218 19 179.5 5 Q141 -9 98 -9 Z " />
<glyph glyph-name="K" unicode="K" horiz-adv-x="606" d="M629 710 Q637 710 640 705 Q643 700 638 693 L382 365 L557 17 Q561 10 557.5 5 Q554 0 546 0 L397 0 Q384 0 380 11 L236 356 L195 13 Q193 0 180 0 L54 0 Q39 0 41 15 L122 697 Q124 710 137 710 L263 710 Q277 710 276 695 L237 368 L471 701 Q477 710 488 710 L629 710 L629 710 Z " />
<glyph glyph-name="L" unicode="L" horiz-adv-x="463" d="M413 131 Q427 131 426 116 L414 13 Q412 0 399 0 L51 0 Q36 0 38 15 L122 697 Q124 710 137 710 L258 710 Q272 710 271 695 L200 131 L413 131 Z " />
<glyph glyph-name="Lslash" unicode="&#x141;" horiz-adv-x="463" d="M413 131 Q427 131 426 116 L414 13 Q412 0 399 0 L51 0 Q36 0 38 15 L75 314 L41 300 Q34 297 29.5 300 Q25 303 25 311 L25 364 Q25 375 36 380 L86 401 L122 697 Q124 710 137 710 L258 710 Q272 710 271 695 L242 465 L286 483 Q293 486 297.5 483 Q302 480 302 472 L302 420 Q302 409 291 404 L231 379 L200 131 L413 131 Z " />
<glyph glyph-name="M" unicode="M" horiz-adv-x="845" d="M794 14 Q794 0 781 0 L650 0 Q636 0 636 14 L634 476 L449 16 Q445 5 433 5 L355 5 Q342 5 340 18 L262 470 L136 12 Q133 0 121 0 L5 0 Q-11 0 -6 16 L192 699 Q195 711 207 711 L333 711 Q347 711 348 698 L425 231 L613 700 Q617 711 629 711 L745 711 Q760 711 760 697 L794 14 L794 14 Z " />
<glyph glyph-name="N" unicode="N" horiz-adv-x="665" d="M520 697 Q522 710 535 710 L642 710 Q656 710 655 695 L570 13 Q568 0 555 0 L464 0 Q452 0 448 10 L227 444 L172 13 Q170 0 157 0 L51 0 Q36 0 38 15 L122 697 Q124 710 137 710 L228 710 Q240 710 244 700 L465 256 L520 697 L520 697 Z " />
<glyph glyph-name="Ntilde" unicode="&#xd1;" horiz-adv-x="665" d="M520 697 Q522 710 535 710 L642 710 Q656 710 655 695 L570 13 Q568 0 555 0 L464 0 Q452 0 448 10 L227 444 L172 13 Q170 0 157 0 L51 0 Q36 0 38 15 L122 697 Q124 710 137 710 L228 710 Q240 710 244 700 L465 256 L520 697 L520 697 Z M355 828 Q330 828 322 793 Q319 780 307 780 L267 780 Q252 780 254 795 Q259 853 281 891.5 Q303 930 346 930 Q371 930 389 918 Q407 906 422 895 Q432 887 440.5 881 Q449 875 460 875 Q473 875 480 884.5 Q487 894 489 910 Q492 923 504 923 L549 923 Q563 923 562 908 Q557 850 535 811.5 Q513 773 471 773 Q449 773 431 784 Q413 795 398 806 Q387 814 377.5 821 Q368 828 355 828 Z " />
<glyph glyph-name="O" unicode="O" horiz-adv-x="644" d="M294 -9 Q237 -9 190.5 12 Q144 33 110.5 72.5 Q77 112 59 169 Q41 226 41 299 Q41 393 68.5 470.5 Q96 548 142.5 603.5 Q189 659 250 689.5 Q311 720 379 720 Q434 720 480.5 698.5 Q527 677 560.5 636.5 Q594 596 612.5 538 Q631 480 631 407 Q631 314 602 237.5 Q573 161 526 106 Q479 51 418 21 Q357 -9 294 -9 Z M305 118 Q346 118 380.5 142.5 Q415 167 440 206.5 Q465 246 479 297.5 Q493 349 493 403 Q493 487 460 540 Q427 593 362 593 Q318 593 284 566 Q250 539 226.5 497 Q203 455 191 402.5 Q179 350 179 299 Q179 218 210 168 Q241 118 305 118 Z " />
<glyph glyph-name="Oacute" unicode="&#xd3;" horiz-adv-x="667" d="M294 -9 Q237 -9 190.5 12 Q144 33 110.5 72.5 Q77 112 59 169 Q41 226 41 299 Q41 393 68.5 470.5 Q96 548 142.5 603.5 Q189 659 250 689.5 Q311 720 379 720 Q434 720 480.5 698.5 Q527 677 560.5 636.5 Q594 596 612.5 538 Q631 480 631 407 Q631 314 602 237.5 Q573 161 526 106 Q479 51 418 21 Q357 -9 294 -9 Z M305 118 Q346 118 380.5 142.5 Q415 167 440 206.5 Q465 246 479 297.5 Q493 349 493 403 Q493 487 460 540 Q427 593 362 593 Q318 593 284 566 Q250 539 226.5 497 Q203 455 191 402.5 Q179 350 179 299 Q179 218 210 168 Q241 118 305 118 Z M353 758 Q345 758 342 763 Q339 768 343 775 L415 907 Q422 917 431 917 L556 918 Q565 918 568 913 Q571 908 564 901 L427 765 Q420 758 410 758 L353 758 L353 758 Z " />
<glyph glyph-name="Ocircumflex" unicode="&#xd4;" horiz-adv-x="667" d="M294 -9 Q237 -9 190.5 12 Q144 33 110.5 72.5 Q77 112 59 169 Q41 226 41 299 Q41 393 68.5 470.5 Q96 548 142.5 603.5 Q189 659 250 689.5 Q311 720 379 720 Q434 720 480.5 698.5 Q527 677 560.5 636.5 Q594 596 612.5 538 Q631 480 631 407 Q631 314 602 237.5 Q573 161 526 106 Q479 51 418 21 Q357 -9 294 -9 Z M305 118 Q346 118 380.5 142.5 Q415 167 440 206.5 Q465 246 479 297.5 Q493 349 493 403 Q493 487 460 540 Q427 593 362 593 Q318 593 284 566 Q250 539 226.5 497 Q203 455 191 402.5 Q179 350 179 299 Q179 218 210 168 Q241 118 305 118 Z M548 774 Q552 767 549 762 Q546 757 538 757 L476 757 Q464 757 459 766 L412 835 L346 764 Q340 757 329 757 L268 757 Q260 757 257 762 Q254 767 259 774 L364 909 Q369 917 382 917 L460 917 Q470 917 476 907 L548 774 L548 774 Z " />
<glyph glyph-name="Odieresis" unicode="&#xd6;" horiz-adv-x="667" d="M294 -9 Q237 -9 190.5 12 Q144 33 110.5 72.5 Q77 112 59 169 Q41 226 41 299 Q41 393 68.5 470.5 Q96 548 142.5 603.5 Q189 659 250 689.5 Q311 720 379 720 Q434 720 480.5 698.5 Q527 677 560.5 636.5 Q594 596 612.5 538 Q631 480 631 407 Q631 314 602 237.5 Q573 161 526 106 Q479 51 418 21 Q357 -9 294 -9 Z M305 118 Q346 118 380.5 142.5 Q415 167 440 206.5 Q465 246 479 297.5 Q493 349 493 403 Q493 487 460 540 Q427 593 362 593 Q318 593 284 566 Q250 539 226.5 497 Q203 455 191 402.5 Q179 350 179 299 Q179 218 210 168 Q241 118 305 118 Z M313 775 Q287 775 271.5 793.5 Q256 812 256 838 Q256 870 277.5 893.5 Q299 917 329 917 Q355 917 370 898.5 Q385 880 385 854 Q385 838 379 824 Q373 810 363.5 799 Q354 788 341 781.5 Q328 775 313 775 Z M487 775 Q461 775 445.5 793.5 Q430 812 430 838 Q430 870 451.5 893.5 Q473 917 503 917 Q529 917 544 898.5 Q559 880 559 854 Q559 838 553 824 Q547 810 537.5 799 Q528 788 515 781.5 Q502 775 487 775 Z " />
<glyph glyph-name="Ograve" unicode="&#xd2;" horiz-adv-x="667" d="M294 -9 Q237 -9 190.5 12 Q144 33 110.5 72.5 Q77 112 59 169 Q41 226 41 299 Q41 393 68.5 470.5 Q96 548 142.5 603.5 Q189 659 250 689.5 Q311 720 379 720 Q434 720 480.5 698.5 Q527 677 560.5 636.5 Q594 596 612.5 538 Q631 480 631 407 Q631 314 602 237.5 Q573 161 526 106 Q479 51 418 21 Q357 -9 294 -9 Z M305 118 Q346 118 380.5 142.5 Q415 167 440 206.5 Q465 246 479 297.5 Q493 349 493 403 Q493 487 460 540 Q427 593 362 593 Q318 593 284 566 Q250 539 226.5 497 Q203 455 191 402.5 Q179 350 179 299 Q179 218 210 168 Q241 118 305 118 Z M426 781 Q431 765 414 765 L356 765 Q345 765 339 774 L243 908 Q238 915 241 920 Q244 925 252 925 L370 924 Q383 924 386 912 L426 781 L426 781 Z " />
<glyph glyph-name="Oslash" unicode="&#xd8;" horiz-adv-x="667" d="M629 725 Q637 725 639.5 720.5 Q642 716 637 708 L572 621 Q600 581 615.5 527 Q631 473 631 407 Q631 314 602 237.5 Q573 161 526 106 Q479 51 418 21 Q357 -9 294 -9 Q201 -9 139 44 L100 -7 Q94 -16 83 -16 L42 -16 Q34 -16 31.5 -11.5 Q29 -7 34 1 L99 87 Q71 126 56 179.5 Q41 233 41 299 Q41 393 68.5 470.5 Q96 548 142.5 603.5 Q189 659 250 689.5 Q311 720 379 720 Q468 720 533 664 L573 717 Q578 725 590 725 L629 725 Z M179 299 Q179 247 191 210 L450 554 Q417 593 362 593 Q318 593 284 566 Q250 539 226.5 497 Q203 455 191 402.5 Q179 350 179 299 Z M493 403 Q493 459 480 498 L221 154 Q237 137 257.5 127.5 Q278 118 305 118 Q346 118 380.5 142.5 Q415 167 440 206.5 Q465 246 479 297.5 Q493 349 493 403 Z " />
<glyph glyph-name="Otilde" unicode="&#xd5;" horiz-adv-x="667" d="M294 -9 Q237 -9 190.5 12 Q144 33 110.5 72.5 Q77 112 59 169 Q41 226 41 299 Q41 393 68.5 470.5 Q96 548 142.5 603.5 Q189 659 250 689.5 Q311 720 379 720 Q434 720 480.5 698.5 Q527 677 560.5 636.5 Q594 596 612.5 538 Q631 480 631 407 Q631 314 602 237.5 Q573 161 526 106 Q479 51 418 21 Q357 -9 294 -9 Z M305 118 Q346 118 380.5 142.5 Q415 167 440 206.5 Q465 246 479 297.5 Q493 349 493 403 Q493 487 460 540 Q427 593 362 593 Q318 593 284 566 Q250 539 226.5 497 Q203 455 191 402.5 Q179 350 179 299 Q179 218 210 168 Q241 118 305 118 Z M349 828 Q324 828 316 793 Q313 780 301 780 L261 780 Q246 780 248 795 Q253 853 275 891.5 Q297 930 340 930 Q365 930 383 918 Q401 906 416 895 Q426 887 434.5 881 Q443 875 454 875 Q467 875 474 884.5 Q481 894 483 910 Q486 923 498 923 L543 923 Q557 923 556 908 Q551 850 529 811.5 Q507 773 465 773 Q443 773 425 784 Q407 795 392 806 Q381 814 371.5 821 Q362 828 349 828 Z " />
<glyph glyph-name="OE" unicode="&#x152;" horiz-adv-x="790" d="M791 601 Q789 588 776 588 L582 588 L559 424 L720 424 Q734 424 733 409 L720 316 Q718 303 705 303 L543 303 L518 122 L711 122 Q725 122 724 107 L712 13 Q710 0 697 0 L371 0 Q298 0 238.5 21.5 Q179 43 137 83 Q95 123 72.5 180 Q50 237 50 308 Q50 399 82 473.5 Q114 548 170.5 600.5 Q227 653 303 681.5 Q379 710 467 710 L791 710 Q805 710 804 695 L791 601 Z M432 581 Q381 581 340 561 Q299 541 270.5 506 Q242 471 226.5 422.5 Q211 374 211 316 Q211 231 252 180.5 Q293 130 371 129 L432 581 Z " />
<glyph glyph-name="P" unicode="P" horiz-adv-x="552" d="M298 710 Q418 710 485 655.5 Q552 601 552 504 Q552 446 531 399 Q510 352 469.5 319 Q429 286 371 268 Q313 250 240 250 L218 250 L190 13 Q188 0 175 0 L54 0 Q39 0 41 15 L122 697 Q124 710 137 710 L298 710 Z M243 362 Q328 362 366.5 400 Q405 438 405 496 Q405 543 373.5 570 Q342 597 273 597 L259 597 L231 362 L243 362 Z " />
<glyph glyph-name="Thorn" unicode="&#xde;" horiz-adv-x="557" d="M288 583 Q409 583 475.5 529.5 Q542 476 542 381 Q542 322 520.5 274 Q499 226 458.5 192.5 Q418 159 358.5 141 Q299 123 223 123 L204 123 L190 13 Q188 0 175 0 L54 0 Q39 0 41 15 L130 697 Q132 710 145 710 L266 710 Q280 710 279 695 L264 583 L288 583 Z M243 233 Q318 233 353.5 272 Q389 311 389 371 Q389 418 361.5 445 Q334 472 275 472 L250 472 L219 233 L243 233 Z " />
<glyph glyph-name="Q" unicode="Q" horiz-adv-x="667" d="M631 407 Q631 305 597 224 Q563 143 509 87 L584 -34 Q588 -39 586 -44.5 Q584 -50 579 -54 L495 -109 Q484 -117 476 -105 L403 14 Q349 -9 294 -9 Q237 -9 190.5 12 Q144 33 110.5 72.5 Q77 112 59 169 Q41 226 41 299 Q41 393 68.5 470.5 Q96 548 142.5 603.5 Q189 659 250 689.5 Q311 720 379 720 Q434 720 480.5 698.5 Q527 677 560.5 636.5 Q594 596 612.5 538 Q631 480 631 407 Z M179 299 Q179 218 210 168 Q241 118 305 118 Q346 118 380.5 142.5 Q415 167 440 206.5 Q465 246 479 297.5 Q493 349 493 403 Q493 487 460 540 Q427 593 362 593 Q318 593 284 566 Q250 539 226.5 497 Q203 455 191 402.5 Q179 350 179 299 Z " />
<glyph glyph-name="R" unicode="R" horiz-adv-x="560" d="M548 522 Q548 437 500.5 377.5 Q453 318 369 295 L523 17 Q531 0 513 0 L378 0 Q366 0 362 10 L236 268 L213 268 L181 13 Q179 0 166 0 L51 0 Q36 0 38 15 L123 697 Q125 710 138 710 L299 710 Q415 710 481.5 660 Q548 610 548 522 Z M254 598 L225 370 L244 370 Q320 370 360.5 406 Q401 442 401 499 Q401 544 368.5 571 Q336 598 273 598 L254 598 Z " />
<glyph glyph-name="S" unicode="S" horiz-adv-x="499" d="M192 -10 Q147 -10 102.5 -1 Q58 8 25 25 Q15 30 17 43 L30 144 Q32 161 47 152 Q79 135 115 124.5 Q151 114 188 114 Q239 114 274 140 Q309 166 309 210 Q309 242 285 264 Q261 286 216 310 Q189 324 164 341 Q139 358 119.5 380 Q100 402 88.5 430.5 Q77 459 77 495 Q77 547 98 588.5 Q119 630 155 659.5 Q191 689 238 704.5 Q285 720 337 720 Q372 720 408 715 Q444 710 473 700 Q485 697 483 683 L471 593 Q469 578 454 583 Q429 592 398 597.5 Q367 603 341 603 Q293 603 263.5 579 Q234 555 234 519 Q234 500 241.5 486 Q249 472 261.5 460 Q274 448 291.5 437.5 Q309 427 329 416 Q359 399 383.5 380.5 Q408 362 425.5 340.5 Q443 319 452.5 292.5 Q462 266 462 233 Q462 181 442 136.5 Q422 92 386 59.5 Q350 27 300.5 8.5 Q251 -10 192 -10 Z " />
<glyph glyph-name="Scaron" unicode="&#x160;" horiz-adv-x="499" d="M192 -10 Q147 -10 102.5 -1 Q58 8 25 25 Q15 30 17 43 L30 144 Q32 161 47 152 Q79 135 115 124.5 Q151 114 188 114 Q239 114 274 140 Q309 166 309 210 Q309 242 285 264 Q261 286 216 310 Q189 324 164 341 Q139 358 119.5 380 Q100 402 88.5 430.5 Q77 459 77 495 Q77 547 98 588.5 Q119 630 155 659.5 Q191 689 238 704.5 Q285 720 337 720 Q372 720 408 715 Q444 710 473 700 Q485 697 483 683 L471 593 Q469 578 454 583 Q429 592 398 597.5 Q367 603 341 603 Q293 603 263.5 579 Q234 555 234 519 Q234 500 241.5 486 Q249 472 261.5 460 Q274 448 291.5 437.5 Q309 427 329 416 Q359 399 383.5 380.5 Q408 362 425.5 340.5 Q443 319 452.5 292.5 Q462 266 462 233 Q462 181 442 136.5 Q422 92 386 59.5 Q350 27 300.5 8.5 Q251 -10 192 -10 Z M406 910 Q413 917 423 917 L478 917 Q487 917 489.5 912 Q492 907 486 900 L369 765 Q361 757 352 757 L301 757 Q290 757 284 766 L201 900 Q196 907 199.5 912 Q203 917 211 917 L269 917 Q280 917 286 909 L338 846 L406 910 L406 910 Z " />
<glyph glyph-name="T" unicode="T" horiz-adv-x="519" d="M544 710 Q558 710 557 695 L545 603 Q543 590 530 590 L374 590 L299 13 Q297 0 284 0 L168 0 Q153 0 155 15 L230 590 L75 590 Q60 590 62 605 L74 697 Q76 710 89 710 L544 710 L544 710 Z " />
<glyph glyph-name="U" unicode="U" horiz-adv-x="640" d="M291 -9 Q189 -9 128 47 Q67 103 67 214 Q67 238 70 265 L122 698 Q124 711 137 711 L252 711 Q266 711 265 696 L213 256 Q212 248 211.5 240 Q211 232 211 224 Q211 170 236.5 146 Q262 122 307 122 Q357 122 391 153.5 Q425 185 433 256 L486 698 Q488 711 501 711 L614 711 Q628 711 627 696 L575 265 Q567 197 542.5 145.5 Q518 94 480.5 59.5 Q443 25 395 8 Q347 -9 291 -9 Z " />
<glyph glyph-name="Uacute" unicode="&#xda;" horiz-adv-x="640" d="M291 -9 Q189 -9 128 47 Q67 103 67 214 Q67 238 70 265 L122 698 Q124 711 137 711 L252 711 Q266 711 265 696 L213 256 Q212 248 211.5 240 Q211 232 211 224 Q211 170 236.5 146 Q262 122 307 122 Q357 122 391 153.5 Q425 185 433 256 L486 698 Q488 711 501 711 L614 711 Q628 711 627 696 L575 265 Q567 197 542.5 145.5 Q518 94 480.5 59.5 Q443 25 395 8 Q347 -9 291 -9 Z M350 758 Q342 758 339 763 Q336 768 340 775 L412 907 Q419 917 428 917 L553 918 Q562 918 565 913 Q568 908 561 901 L424 765 Q417 758 407 758 L350 758 L350 758 Z " />
<glyph glyph-name="Ucircumflex" unicode="&#xdb;" horiz-adv-x="640" d="M291 -9 Q189 -9 128 47 Q67 103 67 214 Q67 238 70 265 L122 698 Q124 711 137 711 L252 711 Q266 711 265 696 L213 256 Q212 248 211.5 240 Q211 232 211 224 Q211 170 236.5 146 Q262 122 307 122 Q357 122 391 153.5 Q425 185 433 256 L486 698 Q488 711 501 711 L614 711 Q628 711 627 696 L575 265 Q567 197 542.5 145.5 Q518 94 480.5 59.5 Q443 25 395 8 Q347 -9 291 -9 Z M545 774 Q549 767 546 762 Q543 757 535 757 L473 757 Q461 757 456 766 L409 835 L343 764 Q337 757 326 757 L265 757 Q257 757 254 762 Q251 767 256 774 L361 909 Q366 917 379 917 L457 917 Q467 917 473 907 L545 774 L545 774 Z " />
<glyph glyph-name="Udieresis" unicode="&#xdc;" horiz-adv-x="640" d="M291 -9 Q189 -9 128 47 Q67 103 67 214 Q67 238 70 265 L122 698 Q124 711 137 711 L252 711 Q266 711 265 696 L213 256 Q212 248 211.5 240 Q211 232 211 224 Q211 170 236.5 146 Q262 122 307 122 Q357 122 391 153.5 Q425 185 433 256 L486 698 Q488 711 501 711 L614 711 Q628 711 627 696 L575 265 Q567 197 542.5 145.5 Q518 94 480.5 59.5 Q443 25 395 8 Q347 -9 291 -9 Z M310 775 Q284 775 268.5 793.5 Q253 812 253 838 Q253 870 274.5 893.5 Q296 917 326 917 Q352 917 367 898.5 Q382 880 382 854 Q382 838 376 824 Q370 810 360.5 799 Q351 788 338 781.5 Q325 775 310 775 Z M484 775 Q458 775 442.5 793.5 Q427 812 427 838 Q427 870 448.5 893.5 Q470 917 500 917 Q526 917 541 898.5 Q556 880 556 854 Q556 838 550 824 Q544 810 534.5 799 Q525 788 512 781.5 Q499 775 484 775 Z " />
<glyph glyph-name="Ugrave" unicode="&#xd9;" horiz-adv-x="640" d="M291 -9 Q189 -9 128 47 Q67 103 67 214 Q67 238 70 265 L122 698 Q124 711 137 711 L252 711 Q266 711 265 696 L213 256 Q212 248 211.5 240 Q211 232 211 224 Q211 170 236.5 146 Q262 122 307 122 Q357 122 391 153.5 Q425 185 433 256 L486 698 Q488 711 501 711 L614 711 Q628 711 627 696 L575 265 Q567 197 542.5 145.5 Q518 94 480.5 59.5 Q443 25 395 8 Q347 -9 291 -9 Z M423 781 Q428 765 411 765 L353 765 Q342 765 336 774 L240 908 Q235 915 238 920 Q241 925 249 925 L367 924 Q380 924 383 912 L423 781 L423 781 Z " />
<glyph glyph-name="V" unicode="V" horiz-adv-x="616" d="M509 699 Q513 710 525 710 L650 710 Q667 710 660 694 L338 7 Q334 -3 322 -3 L236 -3 Q223 -3 220 9 L67 695 Q64 710 80 710 L210 710 Q223 710 225 697 L308 211 L509 699 L509 699 Z " />
<glyph glyph-name="W" unicode="W" horiz-adv-x="886" d="M787 699 Q792 710 803 710 L918 710 Q926 710 929 705.5 Q932 701 929 694 L656 10 Q652 -1 640 -1 L537 -1 Q524 -1 522 12 L469 471 L291 10 Q286 -1 275 -1 L173 -1 Q160 -1 158 12 L68 695 Q66 710 81 710 L207 710 Q219 710 221 697 L264 229 L441 699 Q446 710 457 710 L548 710 Q560 710 562 697 L617 213 L787 699 L787 699 Z " />
<glyph glyph-name="X" unicode="X" horiz-adv-x="574" d="M594 710 Q613 710 603 693 L378 357 L525 16 Q528 9 525 4.5 Q522 0 514 0 L385 0 Q374 0 369 11 L287 240 L145 9 Q139 0 128 0 L4 0 Q-4 0 -7 5 Q-10 10 -5 17 L234 357 L87 694 Q84 701 87 705.5 Q90 710 98 710 L229 710 Q240 710 245 699 L324 476 L456 700 Q463 710 473 710 L594 710 L594 710 Z " />
<glyph glyph-name="Y" unicode="Y" horiz-adv-x="567" d="M473 701 Q480 711 490 711 L610 711 Q618 711 621 706 Q624 701 619 694 L360 285 L323 13 Q321 0 308 0 L187 0 Q172 0 174 15 L210 285 L58 695 Q53 711 69 711 L199 711 Q212 711 215 699 L307 408 L473 701 L473 701 Z " />
<glyph glyph-name="Yacute" unicode="&#xdd;" horiz-adv-x="567" d="M473 701 Q480 711 490 711 L610 711 Q618 711 621 706 Q624 701 619 694 L360 285 L323 13 Q321 0 308 0 L187 0 Q172 0 174 15 L210 285 L58 695 Q53 711 69 711 L199 711 Q212 711 215 699 L307 408 L473 701 L473 701 Z M304 770 Q296 770 293 775 Q290 780 294 787 L366 919 Q373 929 382 929 L507 930 Q516 930 519 925 Q522 920 515 913 L378 777 Q371 770 361 770 L304 770 L304 770 Z " />
<glyph glyph-name="Ydieresis" unicode="&#x178;" horiz-adv-x="567" d="M473 701 Q480 711 490 711 L610 711 Q618 711 621 706 Q624 701 619 694 L360 285 L323 13 Q321 0 308 0 L187 0 Q172 0 174 15 L210 285 L58 695 Q53 711 69 711 L199 711 Q212 711 215 699 L307 408 L473 701 L473 701 Z M268 775 Q242 775 226.5 793.5 Q211 812 211 838 Q211 870 232.5 893.5 Q254 917 284 917 Q310 917 325 898.5 Q340 880 340 854 Q340 838 334 824 Q328 810 318.5 799 Q309 788 296 781.5 Q283 775 268 775 Z M442 775 Q416 775 400.5 793.5 Q385 812 385 838 Q385 870 406.5 893.5 Q428 917 458 917 Q484 917 499 898.5 Q514 880 514 854 Q514 838 508 824 Q502 810 492.5 799 Q483 788 470 781.5 Q457 775 442 775 Z " />
<glyph glyph-name="Z" unicode="Z" horiz-adv-x="514" d="M450 119 Q464 119 463 104 L452 13 Q450 0 437 0 L13 0 Q-2 0 0 15 L6 62 Q8 72 12 79 L348 591 L105 591 Q90 591 92 606 L103 697 Q105 710 118 710 L524 710 Q538 710 537 695 L531 648 Q529 638 525 631 L188 119 L450 119 Z " />
<glyph glyph-name="Zcaron" unicode="&#x17d;" horiz-adv-x="514" d="M450 119 Q464 119 463 104 L452 13 Q450 0 437 0 L13 0 Q-2 0 0 15 L6 62 Q8 72 12 79 L348 591 L105 591 Q90 591 92 606 L103 697 Q105 710 118 710 L524 710 Q538 710 537 695 L531 648 Q529 638 525 631 L188 119 L450 119 Z M401 910 Q408 917 418 917 L473 917 Q482 917 484.5 912 Q487 907 481 900 L364 765 Q356 757 347 757 L296 757 Q285 757 279 766 L196 900 Q191 907 194.5 912 Q198 917 206 917 L264 917 Q275 917 281 909 L333 846 L401 910 L401 910 Z " />
<glyph glyph-name="a" unicode="a" horiz-adv-x="530" d="M370 467 Q372 480 385 480 L495 480 Q509 480 508 465 L453 13 Q451 0 438 0 L328 0 Q313 0 315 15 L322 81 Q298 33 262.5 12 Q227 -9 186 -9 Q151 -9 122.5 6 Q94 21 73.5 49 Q53 77 41.5 116 Q30 155 30 202 Q30 265 47.5 317.5 Q65 370 95 408.5 Q125 447 164.5 468.5 Q204 490 248 490 Q292 490 321 468 Q350 446 361 401 L370 467 Z M243 108 Q263 108 281 120 Q299 132 312.5 153.5 Q326 175 334 205 Q342 235 342 272 Q342 319 325 345 Q308 371 276 371 Q255 371 236.5 359.5 Q218 348 204 326.5 Q190 305 182 275.5 Q174 246 174 210 Q174 164 193 136 Q212 108 243 108 Z " />
<glyph glyph-name="aacute" unicode="&#xe1;" horiz-adv-x="536" d="M370 467 Q372 480 385 480 L495 480 Q509 480 508 465 L453 13 Q451 0 438 0 L328 0 Q313 0 315 15 L322 81 Q298 33 262.5 12 Q227 -9 186 -9 Q151 -9 122.5 6 Q94 21 73.5 49 Q53 77 41.5 116 Q30 155 30 202 Q30 265 47.5 317.5 Q65 370 95 408.5 Q125 447 164.5 468.5 Q204 490 248 490 Q292 490 321 468 Q350 446 361 401 L370 467 Z M243 108 Q263 108 281 120 Q299 132 312.5 153.5 Q326 175 334 205 Q342 235 342 272 Q342 319 325 345 Q308 371 276 371 Q255 371 236.5 359.5 Q218 348 204 326.5 Q190 305 182 275.5 Q174 246 174 210 Q174 164 193 136 Q212 108 243 108 Z M261 540 Q253 540 250 545 Q247 550 251 557 L343 731 Q349 743 361 740 L470 718 Q478 716 479.5 710.5 Q481 705 476 699 L343 548 Q336 540 326 540 L261 540 L261 540 Z " />
<glyph glyph-name="acircumflex" unicode="&#xe2;" horiz-adv-x="536" d="M370 467 Q372 480 385 480 L495 480 Q509 480 508 465 L453 13 Q451 0 438 0 L328 0 Q313 0 315 15 L322 81 Q298 33 262.5 12 Q227 -9 186 -9 Q151 -9 122.5 6 Q94 21 73.5 49 Q53 77 41.5 116 Q30 155 30 202 Q30 265 47.5 317.5 Q65 370 95 408.5 Q125 447 164.5 468.5 Q204 490 248 490 Q292 490 321 468 Q350 446 361 401 L370 467 Z M243 108 Q263 108 281 120 Q299 132 312.5 153.5 Q326 175 334 205 Q342 235 342 272 Q342 319 325 345 Q308 371 276 371 Q255 371 236.5 359.5 Q218 348 204 326.5 Q190 305 182 275.5 Q174 246 174 210 Q174 164 193 136 Q212 108 243 108 Z M464 567 Q467 560 464 555.5 Q461 551 453 551 L390 551 Q377 551 373 562 L330 657 L260 560 Q254 551 243 551 L181 551 Q162 551 172 568 L285 737 Q290 746 302 746 L377 746 Q390 746 394 735 L464 567 L464 567 Z " />
<glyph glyph-name="adieresis" unicode="&#xe4;" horiz-adv-x="536" d="M370 467 Q372 480 385 480 L495 480 Q509 480 508 465 L453 13 Q451 0 438 0 L328 0 Q313 0 315 15 L322 81 Q298 33 262.5 12 Q227 -9 186 -9 Q151 -9 122.5 6 Q94 21 73.5 49 Q53 77 41.5 116 Q30 155 30 202 Q30 265 47.5 317.5 Q65 370 95 408.5 Q125 447 164.5 468.5 Q204 490 248 490 Q292 490 321 468 Q350 446 361 401 L370 467 Z M243 108 Q263 108 281 120 Q299 132 312.5 153.5 Q326 175 334 205 Q342 235 342 272 Q342 319 325 345 Q308 371 276 371 Q255 371 236.5 359.5 Q218 348 204 326.5 Q190 305 182 275.5 Q174 246 174 210 Q174 164 193 136 Q212 108 243 108 Z M229 596 Q203 596 187 615.5 Q171 635 171 661 Q171 677 177 691.5 Q183 706 193 717 Q203 728 216.5 734.5 Q230 741 246 741 Q272 741 287.5 722 Q303 703 303 677 Q303 661 297 646.5 Q291 632 281 620.5 Q271 609 257.5 602.5 Q244 596 229 596 Z M405 596 Q379 596 363 615.5 Q347 635 347 661 Q347 677 353 691.5 Q359 706 369 717 Q379 728 392.5 734.5 Q406 741 422 741 Q448 741 463.5 722 Q479 703 479 677 Q479 661 473 646.5 Q467 632 457 620.5 Q447 609 433.5 602.5 Q420 596 405 596 Z " />
<glyph glyph-name="agrave" unicode="&#xe0;" horiz-adv-x="536" d="M370 467 Q372 480 385 480 L495 480 Q509 480 508 465 L453 13 Q451 0 438 0 L328 0 Q313 0 315 15 L322 81 Q298 33 262.5 12 Q227 -9 186 -9 Q151 -9 122.5 6 Q94 21 73.5 49 Q53 77 41.5 116 Q30 155 30 202 Q30 265 47.5 317.5 Q65 370 95 408.5 Q125 447 164.5 468.5 Q204 490 248 490 Q292 490 321 468 Q350 446 361 401 L370 467 Z M243 108 Q263 108 281 120 Q299 132 312.5 153.5 Q326 175 334 205 Q342 235 342 272 Q342 319 325 345 Q308 371 276 371 Q255 371 236.5 359.5 Q218 348 204 326.5 Q190 305 182 275.5 Q174 246 174 210 Q174 164 193 136 Q212 108 243 108 Z M398 557 Q402 550 399 545 Q396 540 388 540 L323 540 Q313 540 306 548 L173 699 Q168 705 169.5 710.5 Q171 716 179 718 L288 740 Q300 743 306 731 L398 557 L398 557 Z " />
<glyph glyph-name="aring" unicode="&#xe5;" horiz-adv-x="536" d="M370 467 Q372 480 385 480 L495 480 Q509 480 508 465 L453 13 Q451 0 438 0 L328 0 Q313 0 315 15 L322 81 Q298 33 262.5 12 Q227 -9 186 -9 Q151 -9 122.5 6 Q94 21 73.5 49 Q53 77 41.5 116 Q30 155 30 202 Q30 265 47.5 317.5 Q65 370 95 408.5 Q125 447 164.5 468.5 Q204 490 248 490 Q292 490 321 468 Q350 446 361 401 L370 467 Z M243 108 Q263 108 281 120 Q299 132 312.5 153.5 Q326 175 334 205 Q342 235 342 272 Q342 319 325 345 Q308 371 276 371 Q255 371 236.5 359.5 Q218 348 204 326.5 Q190 305 182 275.5 Q174 246 174 210 Q174 164 193 136 Q212 108 243 108 Z M307 540 Q266 540 238 566.5 Q210 593 210 635 Q210 660 220.5 681.5 Q231 703 248 718 Q265 733 287 741.5 Q309 750 332 750 Q372 750 400.5 724 Q429 698 429 656 Q429 631 418.5 609.5 Q408 588 391 572.5 Q374 557 352 548.5 Q330 540 307 540 Z M313 597 Q335 597 351 612 Q367 627 367 650 Q367 669 355.5 680.5 Q344 692 325 692 Q303 692 287.5 677 Q272 662 272 639 Q272 620 283.5 608.5 Q295 597 313 597 Z " />
<glyph glyph-name="atilde" unicode="&#xe3;" horiz-adv-x="536" d="M370 467 Q372 480 385 480 L495 480 Q509 480 508 465 L453 13 Q451 0 438 0 L328 0 Q313 0 315 15 L322 81 Q298 33 262.5 12 Q227 -9 186 -9 Q151 -9 122.5 6 Q94 21 73.5 49 Q53 77 41.5 116 Q30 155 30 202 Q30 265 47.5 317.5 Q65 370 95 408.5 Q125 447 164.5 468.5 Q204 490 248 490 Q292 490 321 468 Q350 446 361 401 L370 467 Z M243 108 Q263 108 281 120 Q299 132 312.5 153.5 Q326 175 334 205 Q342 235 342 272 Q342 319 325 345 Q308 371 276 371 Q255 371 236.5 359.5 Q218 348 204 326.5 Q190 305 182 275.5 Q174 246 174 210 Q174 164 193 136 Q212 108 243 108 Z M372 567 Q350 567 333.5 578.5 Q317 590 303 601 Q293 611 283.5 618 Q274 625 261 625 Q236 625 224 586 Q221 574 209 574 L170 574 Q155 574 158 589 Q164 619 173 644 Q182 669 195 688 Q208 707 225.5 717.5 Q243 728 264 728 Q289 728 305.5 715.5 Q322 703 336 692 Q345 683 353.5 676.5 Q362 670 373 670 Q385 670 393 680 Q401 690 405 705 Q409 718 421 718 L465 718 Q481 718 476 696 Q465 640 439 603.5 Q413 567 372 567 Z " />
<glyph glyph-name="ae" unicode="&#xe6;" horiz-adv-x="703" d="M680 311 Q680 285 676 264 Q672 243 667 227 Q662 216 651 216 L406 216 Q407 152 434 124 Q461 96 509 96 Q541 96 573 105 Q605 114 631 129 Q639 134 643.5 131.5 Q648 129 647 120 L638 45 Q637 34 628 29 Q600 12 560 1 Q520 -10 475 -10 Q422 -10 382.5 11.5 Q343 33 320 72 Q286 30 243 10.5 Q200 -9 153 -9 Q90 -9 54 23 Q18 55 18 116 Q18 159 35 191.5 Q52 224 82 245.5 Q112 267 151.5 278 Q191 289 236 290 Q252 290 265 289 Q278 288 287 288 Q288 343 261 364.5 Q234 386 188 386 Q165 386 141 379.5 Q117 373 97 362 Q89 358 84.5 361 Q80 364 81 372 L90 448 Q92 459 101 464 Q128 475 160.5 482.5 Q193 490 227 490 Q330 490 371 430 Q434 490 522 490 Q592 490 636 442 Q680 394 680 311 Z M501 388 Q469 388 447.5 365.5 Q426 343 415 301 L558 301 L558 304 Q560 342 546 365 Q532 388 501 388 Z M189 85 Q215 85 241.5 108.5 Q268 132 275 186 L279 213 Q271 213 263.5 213.5 Q256 214 248 213 Q202 212 173.5 192 Q145 172 145 134 Q145 110 157.5 97.5 Q170 85 189 85 Z " />
<glyph glyph-name="b" unicode="b" horiz-adv-x="530" d="M342 490 Q377 490 405.5 475 Q434 460 454.5 432.5 Q475 405 486.5 366.5 Q498 328 498 282 Q498 219 480.5 165.5 Q463 112 433 73.5 Q403 35 364 13.5 Q325 -8 282 -8 Q241 -8 209.5 13.5 Q178 35 166 80 L158 13 Q156 0 143 0 L36 0 Q21 0 23 15 L111 733 Q113 746 126 746 L233 746 Q247 746 246 731 L206 408 Q229 448 264.5 469 Q300 490 342 490 Z M252 109 Q273 109 291.5 121.5 Q310 134 323.5 155.5 Q337 177 345 206.5 Q353 236 353 271 Q353 317 335 344 Q317 371 285 371 Q248 371 222 339.5 Q196 308 188 257 L185 235 Q184 230 184 223.5 Q184 217 184 211 Q184 164 202 136.5 Q220 109 252 109 Z " />
<glyph glyph-name="c" unicode="c" horiz-adv-x="400" d="M226 -9 Q186 -9 150 5.5 Q114 20 87 48 Q60 76 44.5 116 Q29 156 29 207 Q29 273 50.5 325 Q72 377 108 413.5 Q144 450 191 469.5 Q238 489 288 489 Q316 489 341.5 485 Q367 481 384 473 Q395 468 393 456 L382 371 Q380 355 365 364 Q340 378 306 378 Q280 378 256.5 366.5 Q233 355 215 334 Q197 313 186 283.5 Q175 254 175 218 Q175 164 202.5 134 Q230 104 272 104 Q290 104 306.5 108 Q323 112 337 119 Q354 127 353 109 L344 27 Q342 16 337 13 Q317 4 287.5 -2.5 Q258 -9 226 -9 Z " />
<glyph glyph-name="ccedilla" unicode="&#xe7;" horiz-adv-x="401" d="M306 378 Q280 378 256.5 366.5 Q233 355 215 334 Q197 313 186 283.5 Q175 254 175 218 Q175 164 202.5 134 Q230 104 272 104 Q290 104 306.5 108 Q323 112 337 119 Q354 127 353 109 L344 27 Q342 15 333 11 Q301 -3 252 -8 L232 -35 Q261 -37 280 -54 Q299 -71 299 -98 Q299 -137 264 -162.5 Q229 -188 174 -188 Q137 -188 113 -180 Q103 -177 104 -164 L107 -135 Q109 -119 124 -124 Q134 -126 145.5 -128 Q157 -130 169 -130 Q187 -130 201 -123.5 Q215 -117 215 -104 Q215 -93 203.5 -86.5 Q192 -80 174 -80 Q162 -80 152 -83 Q150 -82 148 -79 Q144 -72 147 -68 L189 -6 Q155 0 126 17.5 Q97 35 75.5 62 Q54 89 41.5 125.5 Q29 162 29 207 Q29 273 50.5 325 Q72 377 108 413.5 Q144 450 191 469.5 Q238 489 288 489 Q316 489 341.5 485 Q367 481 384 473 Q395 468 393 456 L382 371 Q380 356 368 362 Q342 378 306 378 Z " />
<glyph glyph-name="d" unicode="d" horiz-adv-x="520" d="M394 734 Q396 747 409 747 L522 747 Q536 747 535 732 L447 13 Q445 0 432 0 L327 0 Q312 0 314 15 L321 66 Q296 27 263 9 Q230 -9 192 -9 Q157 -9 127.5 6 Q98 21 76.5 48.5 Q55 76 43 115 Q31 154 31 201 Q31 265 48.5 318 Q66 371 96.5 409 Q127 447 167.5 468.5 Q208 490 253 490 Q289 490 316 476 Q343 462 358 433 L394 734 Z M243 107 Q279 107 304.5 140 Q330 173 339 225 L342 250 Q343 256 343 261.5 Q343 267 343 273 Q343 319 325.5 345.5 Q308 372 276 372 Q253 372 234.5 360 Q216 348 202.5 326.5 Q189 305 181.5 275 Q174 245 174 210 Q174 162 193 134.5 Q212 107 243 107 Z " />
<glyph glyph-name="eth" unicode="&#xf0;" horiz-adv-x="516" d="M381 629 Q438 557 464.5 478.5 Q491 400 491 325 Q491 244 469 182 Q447 120 409.5 77 Q372 34 323 12 Q274 -10 221 -10 Q181 -10 146 5 Q111 20 85 47.5 Q59 75 44 114.5 Q29 154 29 203 Q29 262 48 311 Q67 360 99 395.5 Q131 431 173.5 451 Q216 471 264 471 Q307 471 335.5 449.5 Q364 428 378 390 L381 392 Q370 439 345.5 486.5 Q321 534 285 578 L172 518 Q171 517 169 519 L160 539 Q159 541 159 544 Q159 550 166 554 L261 605 Q245 622 227 638.5 Q209 655 189 670 Q184 675 184 678 Q184 681 191 684 L275 715 Q281 717 284 717 Q293 717 301 711 Q317 698 331 684 Q345 670 359 656 L458 709 Q462 711 464 711 Q469 711 472 704 L477 692 Q478 690 478 687 Q478 681 471 677 L381 629 Z M237 106 Q284 106 315 149.5 Q346 193 346 264 Q346 306 327 334 Q308 362 274 362 Q248 362 228 346.5 Q208 331 194.5 308 Q181 285 174 257.5 Q167 230 167 205 Q167 163 185.5 134.5 Q204 106 237 106 Z " />
<glyph glyph-name="e" unicode="e" horiz-adv-x="484" d="M282 490 Q318 490 350 480 Q382 470 406 447 Q430 424 444.5 386 Q459 348 459 292 Q459 245 447 225 Q435 205 403 205 L174 205 Q184 104 285 104 Q318 104 350 113 Q382 122 409 136 Q417 141 421 137.5 Q425 134 424 126 L415 51 Q414 40 406 35 Q379 15 339 3.5 Q299 -8 249 -8 Q202 -8 162 7.5 Q122 23 93 52 Q64 81 48 122 Q32 163 32 214 Q32 275 53 325.5 Q74 376 108.5 412.5 Q143 449 188 469.5 Q233 490 282 490 Z M273 377 Q243 377 219 354 Q195 331 183 295 L332 295 L332 305 Q333 332 319 354.5 Q305 377 273 377 Z " />
<glyph glyph-name="eacute" unicode="&#xe9;" horiz-adv-x="487" d="M282 490 Q318 490 350 480 Q382 470 406 447 Q430 424 444.5 386 Q459 348 459 292 Q459 245 447 225 Q435 205 403 205 L174 205 Q184 104 285 104 Q318 104 350 113 Q382 122 409 136 Q417 141 421 137.5 Q425 134 424 126 L415 51 Q414 40 406 35 Q379 15 339 3.5 Q299 -8 249 -8 Q202 -8 162 7.5 Q122 23 93 52 Q64 81 48 122 Q32 163 32 214 Q32 275 53 325.5 Q74 376 108.5 412.5 Q143 449 188 469.5 Q233 490 282 490 Z M273 377 Q243 377 219 354 Q195 331 183 295 L332 295 L332 305 Q333 332 319 354.5 Q305 377 273 377 Z M233 540 Q225 540 222 545 Q219 550 223 557 L315 731 Q321 743 333 740 L442 718 Q450 716 451.5 710.5 Q453 705 448 699 L315 548 Q308 540 298 540 L233 540 L233 540 Z " />
<glyph glyph-name="ecircumflex" unicode="&#xea;" horiz-adv-x="487" d="M282 490 Q318 490 350 480 Q382 470 406 447 Q430 424 444.5 386 Q459 348 459 292 Q459 245 447 225 Q435 205 403 205 L174 205 Q184 104 285 104 Q318 104 350 113 Q382 122 409 136 Q417 141 421 137.5 Q425 134 424 126 L415 51 Q414 40 406 35 Q379 15 339 3.5 Q299 -8 249 -8 Q202 -8 162 7.5 Q122 23 93 52 Q64 81 48 122 Q32 163 32 214 Q32 275 53 325.5 Q74 376 108.5 412.5 Q143 449 188 469.5 Q233 490 282 490 Z M273 377 Q243 377 219 354 Q195 331 183 295 L332 295 L332 305 Q333 332 319 354.5 Q305 377 273 377 Z M436 567 Q439 560 436 555.5 Q433 551 425 551 L362 551 Q349 551 345 562 L302 657 L232 560 Q226 551 215 551 L153 551 Q134 551 144 568 L257 737 Q262 746 274 746 L349 746 Q362 746 366 735 L436 567 L436 567 Z " />
<glyph glyph-name="edieresis" unicode="&#xeb;" horiz-adv-x="487" d="M282 490 Q318 490 350 480 Q382 470 406 447 Q430 424 444.5 386 Q459 348 459 292 Q459 245 447 225 Q435 205 403 205 L174 205 Q184 104 285 104 Q318 104 350 113 Q382 122 409 136 Q417 141 421 137.5 Q425 134 424 126 L415 51 Q414 40 406 35 Q379 15 339 3.5 Q299 -8 249 -8 Q202 -8 162 7.5 Q122 23 93 52 Q64 81 48 122 Q32 163 32 214 Q32 275 53 325.5 Q74 376 108.5 412.5 Q143 449 188 469.5 Q233 490 282 490 Z M273 377 Q243 377 219 354 Q195 331 183 295 L332 295 L332 305 Q333 332 319 354.5 Q305 377 273 377 Z M201 596 Q175 596 159 615.5 Q143 635 143 661 Q143 677 149 691.5 Q155 706 165 717 Q175 728 188.5 734.5 Q202 741 218 741 Q244 741 259.5 722 Q275 703 275 677 Q275 661 269 646.5 Q263 632 253 620.5 Q243 609 229.5 602.5 Q216 596 201 596 Z M377 596 Q351 596 335 615.5 Q319 635 319 661 Q319 677 325 691.5 Q331 706 341 717 Q351 728 364.5 734.5 Q378 741 394 741 Q420 741 435.5 722 Q451 703 451 677 Q451 661 445 646.5 Q439 632 429 620.5 Q419 609 405.5 602.5 Q392 596 377 596 Z " />
<glyph glyph-name="egrave" unicode="&#xe8;" horiz-adv-x="487" d="M282 490 Q318 490 350 480 Q382 470 406 447 Q430 424 444.5 386 Q459 348 459 292 Q459 245 447 225 Q435 205 403 205 L174 205 Q184 104 285 104 Q318 104 350 113 Q382 122 409 136 Q417 141 421 137.5 Q425 134 424 126 L415 51 Q414 40 406 35 Q379 15 339 3.5 Q299 -8 249 -8 Q202 -8 162 7.5 Q122 23 93 52 Q64 81 48 122 Q32 163 32 214 Q32 275 53 325.5 Q74 376 108.5 412.5 Q143 449 188 469.5 Q233 490 282 490 Z M273 377 Q243 377 219 354 Q195 331 183 295 L332 295 L332 305 Q333 332 319 354.5 Q305 377 273 377 Z M370 557 Q374 550 371 545 Q368 540 360 540 L295 540 Q285 540 278 548 L145 699 Q140 705 141.5 710.5 Q143 716 151 718 L260 740 Q272 743 278 731 L370 557 L370 557 Z " />
<glyph glyph-name="eogonek" unicode="&#x119;" horiz-adv-x="487" d="M282 490 Q318 490 350 480 Q382 470 406 447 Q430 424 444.5 386 Q459 348 459 292 Q459 245 447 225 Q435 205 403 205 L174 205 Q184 104 285 104 Q318 104 350 113 Q382 122 409 136 Q417 141 421 137.5 Q425 134 424 126 L415 51 Q414 40 406 35 Q388 22 364 12 Q340 2 311 -3 Q271 -26 254.5 -46.5 Q238 -67 238 -84 Q238 -101 248.5 -109.5 Q259 -118 276 -118 Q282 -118 289 -117 Q296 -116 302 -114 Q310 -111 314 -114 Q318 -117 317 -125 L313 -158 Q311 -170 302 -173 Q277 -183 248 -183 Q205 -183 177 -159.5 Q149 -136 149 -96 Q149 -70 163.5 -47 Q178 -24 204 -4 Q127 10 79.5 67 Q32 124 32 214 Q32 275 53 325.5 Q74 376 108.5 412.5 Q143 449 188 469.5 Q233 490 282 490 Z M273 377 Q243 377 219 354 Q195 331 183 295 L332 295 L332 305 Q333 332 319 354.5 Q305 377 273 377 Z " />
<glyph glyph-name="f" unicode="f" horiz-adv-x="337" d="M329 639 Q300 639 281.5 622.5 Q263 606 258 568 L247 480 L345 480 Q359 480 358 465 L351 397 Q349 384 337 384 L235 384 L168 -165 Q166 -178 153 -178 L40 -178 Q25 -178 27 -163 L94 384 L42 384 Q27 384 29 399 L37 467 Q39 480 51 480 L106 480 L117 570 Q128 664 177.5 710.5 Q227 757 308 757 Q329 757 349 754 Q369 751 384 746 Q394 742 393 729 L383 644 Q381 630 371 633 Q363 635 352.5 637 Q342 639 329 639 Z " />
<glyph glyph-name="g" unicode="g" horiz-adv-x="532" d="M367 467 Q369 480 382 480 L496 480 Q510 480 509 465 L461 73 Q453 7 427 -42 Q401 -91 362 -123.5 Q323 -156 273.5 -172.5 Q224 -189 169 -189 Q125 -189 90 -181 Q55 -173 26 -158 Q15 -152 17 -140 L28 -48 Q30 -31 45 -40 Q77 -56 109 -64.5 Q141 -73 169 -73 Q226 -73 265 -41 Q304 -9 312 54 L316 78 Q292 52 262.5 37.5 Q233 23 198 23 Q164 23 134.5 37 Q105 51 82.5 77 Q60 103 47 140 Q34 177 34 224 Q34 285 52 334 Q70 383 100 417.5 Q130 452 168.5 470.5 Q207 489 248 489 Q284 489 313.5 473 Q343 457 362 425 L367 467 Z M245 133 Q267 133 285.5 145 Q304 157 316.5 177.5 Q329 198 336 225.5 Q343 253 343 283 Q343 325 326.5 352.5 Q310 380 276 380 Q255 380 237 368.5 Q219 357 205.5 337.5 Q192 318 184.5 291 Q177 264 177 233 Q177 186 195 159.5 Q213 133 245 133 Z " />
<glyph glyph-name="h" unicode="h" horiz-adv-x="518" d="M351 490 Q411 490 447 457 Q483 424 483 352 Q483 333 480 312 L444 13 Q442 0 429 0 L315 0 Q300 0 302 15 L336 289 Q337 296 337.5 302 Q338 308 338 313 Q338 345 323.5 359 Q309 373 283 373 Q247 373 224.5 345 Q202 317 195 269 L164 13 Q162 0 149 0 L36 0 Q21 0 23 15 L111 734 Q113 747 126 747 L233 747 Q247 747 246 732 L206 414 Q258 490 351 490 Z " />
<glyph glyph-name="i" unicode="i" horiz-adv-x="252" d="M164 562 Q130 562 110 583 Q90 604 90 639 Q90 660 97.5 679 Q105 698 118.5 713 Q132 728 150 736.5 Q168 745 189 745 Q225 745 245 723.5 Q265 702 265 668 Q265 646 257 626.5 Q249 607 235 593 Q221 579 202.5 570.5 Q184 562 164 562 Z M41 0 Q26 0 28 15 L83 467 Q85 480 98 480 L211 480 Q225 480 224 465 L169 13 Q167 0 154 0 L41 0 Z " />
<glyph glyph-name="idotless" unicode="&#x131;" horiz-adv-x="254" d="M42 0 Q27 0 29 15 L84 467 Q86 480 99 480 L212 480 Q226 480 225 465 L170 13 Q168 0 155 0 L42 0 L42 0 Z " />
<glyph glyph-name="iacute" unicode="&#xed;" horiz-adv-x="254" d="M42 0 Q27 0 29 15 L84 467 Q86 480 99 480 L212 480 Q226 480 225 465 L170 13 Q168 0 155 0 L42 0 L42 0 Z M119 544 Q111 544 108 548.5 Q105 553 108 560 L179 745 Q183 757 197 754 L301 726 Q318 721 308 708 L203 553 Q198 544 186 544 L119 544 L119 544 Z " />
<glyph glyph-name="icircumflex" unicode="&#xee;" horiz-adv-x="254" d="M42 0 Q27 0 29 15 L84 467 Q86 480 99 480 L212 480 Q226 480 225 465 L170 13 Q168 0 155 0 L42 0 L42 0 Z M321 567 Q324 560 321 555.5 Q318 551 310 551 L247 551 Q234 551 230 562 L187 657 L117 560 Q111 551 100 551 L38 551 Q19 551 29 568 L142 737 Q147 746 159 746 L234 746 Q247 746 251 735 L321 567 L321 567 Z " />
<glyph glyph-name="idieresis" unicode="&#xef;" horiz-adv-x="254" d="M42 0 Q27 0 29 15 L84 467 Q86 480 99 480 L212 480 Q226 480 225 465 L170 13 Q168 0 155 0 L42 0 L42 0 Z M86 596 Q60 596 44 615.5 Q28 635 28 661 Q28 677 34 691.5 Q40 706 50 717 Q60 728 73.5 734.5 Q87 741 103 741 Q129 741 144.5 722 Q160 703 160 677 Q160 661 154 646.5 Q148 632 138 620.5 Q128 609 114.5 602.5 Q101 596 86 596 Z M262 596 Q236 596 220 615.5 Q204 635 204 661 Q204 677 210 691.5 Q216 706 226 717 Q236 728 249.5 734.5 Q263 741 279 741 Q305 741 320.5 722 Q336 703 336 677 Q336 661 330 646.5 Q324 632 314 620.5 Q304 609 290.5 602.5 Q277 596 262 596 Z " />
<glyph glyph-name="igrave" unicode="&#xec;" horiz-adv-x="254" d="M42 0 Q27 0 29 15 L84 467 Q86 480 99 480 L212 480 Q226 480 225 465 L170 13 Q168 0 155 0 L42 0 L42 0 Z M222 560 Q225 553 222 548.5 Q219 544 211 544 L144 544 Q132 544 127 553 L22 708 Q12 721 29 726 L133 754 Q147 757 151 745 L222 560 L222 560 Z " />
<glyph glyph-name="j" unicode="j" horiz-adv-x="252" d="M163 562 Q129 562 109 583 Q89 604 89 639 Q89 660 96.5 679 Q104 698 117.5 713 Q131 728 149 736.5 Q167 745 188 745 Q224 745 244 723.5 Q264 702 264 668 Q264 646 256 626.5 Q248 607 234 593 Q220 579 201.5 570.5 Q183 562 163 562 Z M-13 -195 Q-28 -195 -44 -193 Q-60 -191 -72 -186 Q-83 -182 -82 -169 L-71 -79 Q-70 -65 -55 -70 Q-44 -74 -30 -74 Q-7 -74 7 -60.5 Q21 -47 24 -24 L84 467 Q86 480 99 480 L212 480 Q226 480 225 465 L165 -24 Q154 -110 109 -152.5 Q64 -195 -13 -195 Z " />
<glyph glyph-name="k" unicode="k" horiz-adv-x="498" d="M504 480 Q513 480 515 475 Q517 470 511 463 L325 259 L465 17 Q469 10 466.5 5 Q464 0 456 0 L320 0 Q308 0 304 10 L194 240 L167 13 Q165 0 152 0 L39 0 Q24 0 26 15 L113 733 Q115 746 128 746 L241 746 Q255 746 254 731 L199 276 L354 472 Q360 480 372 480 L504 480 L504 480 Z " />
<glyph glyph-name="l" unicode="l" horiz-adv-x="279" d="M145 -10 Q91 -10 60 18 Q29 46 29 103 Q29 112 30 123.5 Q31 135 33 146 L111 734 Q113 747 126 747 L239 747 Q253 747 252 732 L175 162 Q174 157 174 147 Q174 125 184 116 Q194 107 211 107 Q226 107 240 110 Q257 115 255 98 L244 20 Q242 9 236 6 Q219 -2 193.5 -6 Q168 -10 145 -10 Z " />
<glyph glyph-name="lslash" unicode="&#x142;" horiz-adv-x="279" d="M175 162 Q174 157 174 147 Q174 125 184 116 Q194 107 211 107 Q226 107 240 110 Q257 115 255 98 L244 20 Q242 8 233 5 Q216 -2 191.5 -6 Q167 -10 145 -10 Q91 -10 60 18 Q29 46 29 103 Q29 112 30 123.5 Q31 135 33 146 L56 316 L22 302 Q15 299 10.5 302 Q6 305 6 313 L6 366 Q6 377 17 382 L67 403 L111 734 Q113 747 126 747 L239 747 Q253 747 252 732 L216 464 L267 485 Q274 488 278.5 485 Q283 482 283 474 L283 422 Q283 410 272 405 L204 377 L175 162 Z " />
<glyph glyph-name="m" unicode="m" horiz-adv-x="756" d="M596 490 Q655 490 689.5 456.5 Q724 423 724 359 Q724 352 723.5 345.5 Q723 339 722 331 L683 13 Q681 0 668 0 L555 0 Q540 0 542 15 L579 307 Q580 312 580 320 Q580 347 566.5 360 Q553 373 530 373 Q501 373 482.5 354.5 Q464 336 459 303 L424 13 Q422 0 409 0 L296 0 Q281 0 283 15 L319 307 Q320 312 320 322 Q320 348 306.5 360.5 Q293 373 270 373 Q243 373 224.5 356.5 Q206 340 201 311 Q200 303 199 303 L164 13 Q162 0 149 0 L36 0 Q21 0 23 15 L78 467 Q80 480 93 480 L192 480 Q206 480 205 465 L199 412 Q223 452 259.5 471 Q296 490 340 490 Q383 490 414 470.5 Q445 451 457 413 Q482 452 518 471 Q554 490 596 490 Z " />
<glyph glyph-name="n" unicode="n" horiz-adv-x="516" d="M348 490 Q408 490 445 458.5 Q482 427 482 359 Q482 348 481.5 338.5 Q481 329 480 320 L442 13 Q440 0 427 0 L314 0 Q299 0 301 15 L336 298 Q337 304 337.5 310 Q338 316 338 323 Q338 352 323.5 365 Q309 378 283 378 Q250 378 228.5 357 Q207 336 200 299 L165 13 Q163 0 150 0 L37 0 Q22 0 24 15 L79 467 Q81 480 94 480 L195 480 Q209 480 208 465 L202 417 Q229 454 266 472 Q303 490 348 490 Z " />
<glyph glyph-name="ntilde" unicode="&#xf1;" horiz-adv-x="522" d="M348 490 Q408 490 445 458.5 Q482 427 482 359 Q482 348 481.5 338.5 Q481 329 480 320 L442 13 Q440 0 427 0 L314 0 Q299 0 301 15 L336 298 Q337 304 337.5 310 Q338 316 338 323 Q338 352 323.5 365 Q309 378 283 378 Q250 378 228.5 357 Q207 336 200 299 L165 13 Q163 0 150 0 L37 0 Q22 0 24 15 L79 467 Q81 480 94 480 L195 480 Q209 480 208 465 L202 417 Q229 454 266 472 Q303 490 348 490 Z M351 567 Q329 567 312.5 578.5 Q296 590 282 601 Q272 611 262.5 618 Q253 625 240 625 Q215 625 203 586 Q200 574 188 574 L149 574 Q134 574 137 589 Q143 619 152 644 Q161 669 174 688 Q187 707 204.5 717.5 Q222 728 243 728 Q268 728 284.5 715.5 Q301 703 315 692 Q324 683 332.5 676.5 Q341 670 352 670 Q364 670 372 680 Q380 690 384 705 Q388 718 400 718 L444 718 Q460 718 455 696 Q444 640 418 603.5 Q392 567 351 567 Z " />
<glyph glyph-name="o" unicode="o" horiz-adv-x="519" d="M229 -10 Q185 -10 149 6.5 Q113 23 87 52 Q61 81 46.5 121.5 Q32 162 32 210 Q32 271 52.5 322.5 Q73 374 108.5 411 Q144 448 190.5 468.5 Q237 489 290 489 Q333 489 369 473 Q405 457 431.5 428.5 Q458 400 472.5 360.5 Q487 321 487 273 Q487 212 466 160.5 Q445 109 410 71 Q375 33 328 11.5 Q281 -10 229 -10 Z M242 107 Q266 107 285 120 Q304 133 317.5 155.5 Q331 178 338.5 208 Q346 238 346 271 Q346 318 328 345 Q310 372 276 372 Q252 372 232.5 359.5 Q213 347 199.5 325 Q186 303 178.5 274 Q171 245 171 211 Q171 165 190 136 Q209 107 242 107 Z " />
<glyph glyph-name="oacute" unicode="&#xf3;" horiz-adv-x="514" d="M229 -10 Q185 -10 149 6.5 Q113 23 87 52 Q61 81 46.5 121.5 Q32 162 32 210 Q32 271 52.5 322.5 Q73 374 108.5 411 Q144 448 190.5 468.5 Q237 489 290 489 Q333 489 369 473 Q405 457 431.5 428.5 Q458 400 472.5 360.5 Q487 321 487 273 Q487 212 466 160.5 Q445 109 410 71 Q375 33 328 11.5 Q281 -10 229 -10 Z M242 107 Q266 107 285 120 Q304 133 317.5 155.5 Q331 178 338.5 208 Q346 238 346 271 Q346 318 328 345 Q310 372 276 372 Q252 372 232.5 359.5 Q213 347 199.5 325 Q186 303 178.5 274 Q171 245 171 211 Q171 165 190 136 Q209 107 242 107 Z M251 540 Q243 540 240 545 Q237 550 241 557 L333 731 Q339 743 351 740 L460 718 Q468 716 469.5 710.5 Q471 705 466 699 L333 548 Q326 540 316 540 L251 540 L251 540 Z " />
<glyph glyph-name="ocircumflex" unicode="&#xf4;" horiz-adv-x="514" d="M229 -10 Q185 -10 149 6.5 Q113 23 87 52 Q61 81 46.5 121.5 Q32 162 32 210 Q32 271 52.5 322.5 Q73 374 108.5 411 Q144 448 190.5 468.5 Q237 489 290 489 Q333 489 369 473 Q405 457 431.5 428.5 Q458 400 472.5 360.5 Q487 321 487 273 Q487 212 466 160.5 Q445 109 410 71 Q375 33 328 11.5 Q281 -10 229 -10 Z M242 107 Q266 107 285 120 Q304 133 317.5 155.5 Q331 178 338.5 208 Q346 238 346 271 Q346 318 328 345 Q310 372 276 372 Q252 372 232.5 359.5 Q213 347 199.5 325 Q186 303 178.5 274 Q171 245 171 211 Q171 165 190 136 Q209 107 242 107 Z M454 567 Q457 560 454 555.5 Q451 551 443 551 L380 551 Q367 551 363 562 L320 657 L250 560 Q244 551 233 551 L171 551 Q152 551 162 568 L275 737 Q280 746 292 746 L367 746 Q380 746 384 735 L454 567 L454 567 Z " />
<glyph glyph-name="odieresis" unicode="&#xf6;" horiz-adv-x="514" d="M229 -10 Q185 -10 149 6.5 Q113 23 87 52 Q61 81 46.5 121.5 Q32 162 32 210 Q32 271 52.5 322.5 Q73 374 108.5 411 Q144 448 190.5 468.5 Q237 489 290 489 Q333 489 369 473 Q405 457 431.5 428.5 Q458 400 472.5 360.5 Q487 321 487 273 Q487 212 466 160.5 Q445 109 410 71 Q375 33 328 11.5 Q281 -10 229 -10 Z M242 107 Q266 107 285 120 Q304 133 317.5 155.5 Q331 178 338.5 208 Q346 238 346 271 Q346 318 328 345 Q310 372 276 372 Q252 372 232.5 359.5 Q213 347 199.5 325 Q186 303 178.5 274 Q171 245 171 211 Q171 165 190 136 Q209 107 242 107 Z M219 596 Q193 596 177 615.5 Q161 635 161 661 Q161 677 167 691.5 Q173 706 183 717 Q193 728 206.5 734.5 Q220 741 236 741 Q262 741 277.5 722 Q293 703 293 677 Q293 661 287 646.5 Q281 632 271 620.5 Q261 609 247.5 602.5 Q234 596 219 596 Z M395 596 Q369 596 353 615.5 Q337 635 337 661 Q337 677 343 691.5 Q349 706 359 717 Q369 728 382.5 734.5 Q396 741 412 741 Q438 741 453.5 722 Q469 703 469 677 Q469 661 463 646.5 Q457 632 447 620.5 Q437 609 423.5 602.5 Q410 596 395 596 Z " />
<glyph glyph-name="ograve" unicode="&#xf2;" horiz-adv-x="514" d="M229 -10 Q185 -10 149 6.5 Q113 23 87 52 Q61 81 46.5 121.5 Q32 162 32 210 Q32 271 52.5 322.5 Q73 374 108.5 411 Q144 448 190.5 468.5 Q237 489 290 489 Q333 489 369 473 Q405 457 431.5 428.5 Q458 400 472.5 360.5 Q487 321 487 273 Q487 212 466 160.5 Q445 109 410 71 Q375 33 328 11.5 Q281 -10 229 -10 Z M242 107 Q266 107 285 120 Q304 133 317.5 155.5 Q331 178 338.5 208 Q346 238 346 271 Q346 318 328 345 Q310 372 276 372 Q252 372 232.5 359.5 Q213 347 199.5 325 Q186 303 178.5 274 Q171 245 171 211 Q171 165 190 136 Q209 107 242 107 Z M388 557 Q392 550 389 545 Q386 540 378 540 L313 540 Q303 540 296 548 L163 699 Q158 705 159.5 710.5 Q161 716 169 718 L278 740 Q290 743 296 731 L388 557 L388 557 Z " />
<glyph glyph-name="oslash" unicode="&#xf8;" horiz-adv-x="514" d="M489 530 Q497 530 499.5 525.5 Q502 521 497 513 L433 427 Q459 398 473 359.5 Q487 321 487 273 Q487 212 466 160.5 Q445 109 410 71 Q375 33 328 11.5 Q281 -10 229 -10 Q200 -10 175 -3 Q150 4 128 17 L86 -39 Q80 -48 69 -48 L29 -48 Q21 -48 18.5 -43.5 Q16 -39 21 -31 L84 55 Q59 84 45.5 123 Q32 162 32 210 Q32 271 52.5 322.5 Q73 374 108.5 411 Q144 448 190.5 468.5 Q237 489 290 489 Q346 489 389 463 L433 521 Q439 530 450 530 L489 530 Z M171 211 Q171 191 174 175 L313 361 Q297 372 276 372 Q252 372 232.5 359.5 Q213 347 199.5 325 Q186 303 178.5 274 Q171 245 171 211 Z M346 271 Q346 289 343 306 L205 120 Q221 107 242 107 Q266 107 285 120 Q304 133 317.5 155.5 Q331 178 338.5 208 Q346 238 346 271 Z " />
<glyph glyph-name="otilde" unicode="&#xf5;" horiz-adv-x="514" d="M229 -10 Q185 -10 149 6.5 Q113 23 87 52 Q61 81 46.5 121.5 Q32 162 32 210 Q32 271 52.5 322.5 Q73 374 108.5 411 Q144 448 190.5 468.5 Q237 489 290 489 Q333 489 369 473 Q405 457 431.5 428.5 Q458 400 472.5 360.5 Q487 321 487 273 Q487 212 466 160.5 Q445 109 410 71 Q375 33 328 11.5 Q281 -10 229 -10 Z M242 107 Q266 107 285 120 Q304 133 317.5 155.5 Q331 178 338.5 208 Q346 238 346 271 Q346 318 328 345 Q310 372 276 372 Q252 372 232.5 359.5 Q213 347 199.5 325 Q186 303 178.5 274 Q171 245 171 211 Q171 165 190 136 Q209 107 242 107 Z M362 567 Q340 567 323.5 578.5 Q307 590 293 601 Q283 611 273.5 618 Q264 625 251 625 Q226 625 214 586 Q211 574 199 574 L160 574 Q145 574 148 589 Q154 619 163 644 Q172 669 185 688 Q198 707 215.5 717.5 Q233 728 254 728 Q279 728 295.5 715.5 Q312 703 326 692 Q335 683 343.5 676.5 Q352 670 363 670 Q375 670 383 680 Q391 690 395 705 Q399 718 411 718 L455 718 Q471 718 466 696 Q455 640 429 603.5 Q403 567 362 567 Z " />
<glyph glyph-name="oe" unicode="&#x153;" horiz-adv-x="753" d="M564 490 Q598 490 627.5 478 Q657 466 678.5 441.5 Q700 417 712.5 381 Q725 345 725 297 Q725 253 717 235 Q709 217 684 217 L458 217 Q459 163 486 132 Q513 101 564 101 Q596 101 625.5 110.5 Q655 120 679 136 Q687 141 691.5 138.5 Q696 136 695 127 L689 52 Q688 42 681 35 Q655 15 617.5 3.5 Q580 -8 535 -8 Q481 -8 439 15.5 Q397 39 374 86 Q344 38 299 14 Q254 -10 199 -10 Q162 -10 131 5.5 Q100 21 77.5 49.5 Q55 78 42.5 118 Q30 158 30 206 Q30 269 49 321 Q68 373 100 410.5 Q132 448 175 469 Q218 490 266 490 Q311 490 346 467 Q381 444 403 399 Q433 444 474.5 467 Q516 490 564 490 Z M549 387 Q519 387 498 361 Q477 335 467 294 L604 294 Q605 338 591.5 362.5 Q578 387 549 387 Z M226 105 Q247 105 264.5 121 Q282 137 294.5 162.5 Q307 188 314 219.5 Q321 251 321 282 Q321 326 305 350 Q289 374 260 374 Q239 374 221.5 359 Q204 344 191 319.5 Q178 295 171 264 Q164 233 164 201 Q164 156 180.5 130.5 Q197 105 226 105 Z " />
<glyph glyph-name="p" unicode="p" horiz-adv-x="529" d="M340 490 Q375 490 404 475 Q433 460 454 432 Q475 404 486.5 365.5 Q498 327 498 281 Q498 217 479 164 Q460 111 428 72.5 Q396 34 355 12.5 Q314 -9 270 -9 Q238 -9 211.5 6 Q185 21 168 54 L141 -166 Q139 -179 126 -179 L14 -179 Q-1 -179 1 -164 L78 467 Q80 480 93 480 L198 480 Q212 480 211 465 L204 413 Q230 452 264 471 Q298 490 340 490 Z M250 107 Q272 107 291 119.5 Q310 132 324 154 Q338 176 346 206 Q354 236 354 271 Q354 318 335.5 345 Q317 372 285 372 Q262 372 243 359 Q224 346 210.5 324 Q197 302 190 272.5 Q183 243 183 210 Q183 164 200.5 135.5 Q218 107 250 107 Z " />
<glyph glyph-name="thorn" unicode="&#xfe;" horiz-adv-x="529" d="M340 490 Q375 490 404 475 Q433 460 454 432 Q475 404 486.5 365.5 Q498 327 498 281 Q498 217 479 164 Q460 111 428 72.5 Q396 34 355 12.5 Q314 -9 270 -9 Q238 -9 211.5 6 Q185 21 168 54 L141 -166 Q139 -179 126 -179 L14 -179 Q-1 -179 1 -164 L111 733 Q113 746 126 746 L231 746 Q245 746 244 731 L204 413 Q230 452 264 471 Q298 490 340 490 Z M250 107 Q272 107 291 119.5 Q310 132 324 154 Q338 176 346 206 Q354 236 354 271 Q354 318 335.5 345 Q317 372 285 372 Q247 372 221 339.5 Q195 307 186 258 L183 227 Q182 222 182 218.5 Q182 215 182 210 Q182 164 200 135.5 Q218 107 250 107 Z " />
<glyph glyph-name="q" unicode="q" horiz-adv-x="528" d="M372 467 Q374 480 387 480 L491 480 Q505 480 504 465 L427 -166 Q425 -179 412 -179 L299 -179 Q284 -179 286 -164 L312 50 Q262 -9 186 -9 Q151 -9 122.5 6 Q94 21 74 49 Q54 77 42.5 115 Q31 153 31 200 Q31 263 47.5 316 Q64 369 93.5 407.5 Q123 446 162.5 468 Q202 490 247 490 Q333 490 366 416 L372 467 Z M242 105 Q265 105 283.5 118.5 Q302 132 315.5 154.5 Q329 177 336.5 207 Q344 237 344 271 Q344 317 326 345.5 Q308 374 276 374 Q253 374 234 361.5 Q215 349 201.5 327 Q188 305 180.5 275 Q173 245 173 210 Q173 162 191.5 133.5 Q210 105 242 105 Z " />
<glyph glyph-name="r" unicode="r" horiz-adv-x="363" d="M201 362 Q251 481 355 489 Q370 491 368 475 L354 350 Q352 337 339 337 Q328 336 315.5 333.5 Q303 331 292 327 Q252 317 222.5 279 Q193 241 184 169 L166 13 Q164 0 151 0 L39 0 Q24 0 26 15 L81 467 Q83 480 96 480 L201 480 Q215 480 214 465 L201 362 L201 362 Z " />
<glyph glyph-name="s" unicode="s" horiz-adv-x="391" d="M148 -8 Q112 -8 75.5 -2 Q39 4 14 16 Q3 22 5 34 L15 117 Q17 134 32 126 Q60 112 92 105 Q124 98 147 98 Q180 98 199 111.5 Q218 125 218 149 Q218 160 211.5 168 Q205 176 193 183.5 Q181 191 164 199.5 Q147 208 125 220 Q89 239 65.5 264.5 Q42 290 42 334 Q42 374 58.5 403.5 Q75 433 102 452.5 Q129 472 164.5 481 Q200 490 238 490 Q274 490 303.5 486 Q333 482 356 474 Q368 471 367 458 L358 382 Q357 367 341 372 Q322 379 298.5 382.5 Q275 386 255 386 Q223 386 205.5 373.5 Q188 361 188 341 Q188 321 209.5 310 Q231 299 266 282 Q308 262 333 237.5 Q358 213 358 168 Q358 127 342.5 94.5 Q327 62 299 39 Q271 16 232.5 4 Q194 -8 148 -8 Z " />
<glyph glyph-name="scaron" unicode="&#x161;" horiz-adv-x="389" d="M148 -8 Q112 -8 75.5 -2 Q39 4 14 16 Q3 22 5 34 L15 117 Q17 134 32 126 Q60 112 92 105 Q124 98 147 98 Q180 98 199 111.5 Q218 125 218 149 Q218 160 211.5 168 Q205 176 193 183.5 Q181 191 164 199.5 Q147 208 125 220 Q89 239 65.5 264.5 Q42 290 42 334 Q42 374 58.5 403.5 Q75 433 102 452.5 Q129 472 164.5 481 Q200 490 238 490 Q274 490 303.5 486 Q333 482 356 474 Q368 471 367 458 L358 382 Q357 367 341 372 Q322 379 298.5 382.5 Q275 386 255 386 Q223 386 205.5 373.5 Q188 361 188 341 Q188 321 209.5 310 Q231 299 266 282 Q308 262 333 237.5 Q358 213 358 168 Q358 127 342.5 94.5 Q327 62 299 39 Q271 16 232.5 4 Q194 -8 148 -8 Z M310 733 Q315 741 327 741 L382 741 Q390 741 393 736 Q396 731 391 724 L276 557 Q270 548 259 548 L210 548 Q197 548 193 558 L116 725 Q109 741 126 741 L184 741 Q193 741 200 731 L246 649 L310 733 L310 733 Z " />
<glyph glyph-name="germandbls" unicode="&#xdf;" horiz-adv-x="569" d="M340 -9 Q313 -9 282.5 -4 Q252 1 229 10 Q218 14 219 27 L229 110 Q231 127 246 119 Q265 109 286.5 104.5 Q308 100 325 100 Q363 100 385 119 Q407 138 407 169 Q407 184 401 196 Q395 208 385 218.5 Q375 229 363 239 Q351 249 338 259 Q311 280 291.5 306 Q272 332 272 370 Q272 405 287 429.5 Q302 454 326 485 Q349 513 362 534 Q375 555 375 581 Q375 607 358.5 622.5 Q342 638 313 638 Q281 638 257 617 Q233 596 226 548 L161 13 Q159 0 146 0 L31 0 Q16 0 18 15 L83 546 Q95 648 159.5 702 Q224 756 324 756 Q364 756 398 746.5 Q432 737 457 718.5 Q482 700 495.5 673 Q509 646 509 612 Q509 565 489 532.5 Q469 500 444 472 Q424 449 412 432 Q400 415 400 394 Q400 370 417 352 Q434 334 457 314 Q470 303 484 289 Q498 275 510 257 Q522 239 529.5 217.5 Q537 196 537 169 Q537 133 523.5 101 Q510 69 485 44.5 Q460 20 423 5.5 Q386 -9 340 -9 Z " />
<glyph glyph-name="t" unicode="t" horiz-adv-x="341" d="M211 172 Q209 164 209 157 Q209 150 209 145 Q209 122 221 110.5 Q233 99 253 99 Q272 99 285 103 Q302 109 300 93 L291 17 Q289 6 279 2 Q262 -3 239 -6.5 Q216 -10 192 -10 Q131 -10 98 24 Q65 58 65 115 Q65 132 68 155 L96 384 L45 384 Q30 384 32 399 L40 467 Q42 480 54 480 L108 480 L125 620 Q127 633 140 633 L253 633 Q267 633 266 618 L249 480 L331 480 Q345 480 344 465 L336 397 Q334 384 322 384 L237 384 L211 172 Z " />
<glyph glyph-name="u" unicode="u" horiz-adv-x="512" d="M348 467 Q350 480 363 480 L476 480 Q490 480 489 465 L434 13 Q432 0 419 0 L325 0 Q311 0 311 14 L309 55 Q257 -9 170 -9 Q111 -9 73 26 Q35 61 35 135 Q35 151 38 172 L73 468 Q75 481 88 481 L201 480 Q215 480 214 465 L179 175 Q178 168 177.5 162 Q177 156 177 151 Q177 118 192 104.5 Q207 91 233 91 Q268 91 288.5 120.5 Q309 150 316 200 L348 467 L348 467 Z " />
<glyph glyph-name="uacute" unicode="&#xfa;" horiz-adv-x="518" d="M348 467 Q350 480 363 480 L476 480 Q490 480 489 465 L434 13 Q432 0 419 0 L325 0 Q311 0 311 14 L309 55 Q257 -9 170 -9 Q111 -9 73 26 Q35 61 35 135 Q35 151 38 172 L73 468 Q75 481 88 481 L201 480 Q215 480 214 465 L179 175 Q178 168 177.5 162 Q177 156 177 151 Q177 118 192 104.5 Q207 91 233 91 Q268 91 288.5 120.5 Q309 150 316 200 L348 467 L348 467 Z M237 540 Q229 540 226 545 Q223 550 227 557 L319 731 Q325 743 337 740 L446 718 Q454 716 455.5 710.5 Q457 705 452 699 L319 548 Q312 540 302 540 L237 540 L237 540 Z " />
<glyph glyph-name="ucircumflex" unicode="&#xfb;" horiz-adv-x="518" d="M348 467 Q350 480 363 480 L476 480 Q490 480 489 465 L434 13 Q432 0 419 0 L325 0 Q311 0 311 14 L309 55 Q257 -9 170 -9 Q111 -9 73 26 Q35 61 35 135 Q35 151 38 172 L73 468 Q75 481 88 481 L201 480 Q215 480 214 465 L179 175 Q178 168 177.5 162 Q177 156 177 151 Q177 118 192 104.5 Q207 91 233 91 Q268 91 288.5 120.5 Q309 150 316 200 L348 467 L348 467 Z M440 567 Q443 560 440 555.5 Q437 551 429 551 L366 551 Q353 551 349 562 L306 657 L236 560 Q230 551 219 551 L157 551 Q138 551 148 568 L261 737 Q266 746 278 746 L353 746 Q366 746 370 735 L440 567 L440 567 Z " />
<glyph glyph-name="udieresis" unicode="&#xfc;" horiz-adv-x="518" d="M348 467 Q350 480 363 480 L476 480 Q490 480 489 465 L434 13 Q432 0 419 0 L325 0 Q311 0 311 14 L309 55 Q257 -9 170 -9 Q111 -9 73 26 Q35 61 35 135 Q35 151 38 172 L73 468 Q75 481 88 481 L201 480 Q215 480 214 465 L179 175 Q178 168 177.5 162 Q177 156 177 151 Q177 118 192 104.5 Q207 91 233 91 Q268 91 288.5 120.5 Q309 150 316 200 L348 467 L348 467 Z M205 596 Q179 596 163 615.5 Q147 635 147 661 Q147 677 153 691.5 Q159 706 169 717 Q179 728 192.5 734.5 Q206 741 222 741 Q248 741 263.5 722 Q279 703 279 677 Q279 661 273 646.5 Q267 632 257 620.5 Q247 609 233.5 602.5 Q220 596 205 596 Z M381 596 Q355 596 339 615.5 Q323 635 323 661 Q323 677 329 691.5 Q335 706 345 717 Q355 728 368.5 734.5 Q382 741 398 741 Q424 741 439.5 722 Q455 703 455 677 Q455 661 449 646.5 Q443 632 433 620.5 Q423 609 409.5 602.5 Q396 596 381 596 Z " />
<glyph glyph-name="ugrave" unicode="&#xf9;" horiz-adv-x="518" d="M348 467 Q350 480 363 480 L476 480 Q490 480 489 465 L434 13 Q432 0 419 0 L325 0 Q311 0 311 14 L309 55 Q257 -9 170 -9 Q111 -9 73 26 Q35 61 35 135 Q35 151 38 172 L73 468 Q75 481 88 481 L201 480 Q215 480 214 465 L179 175 Q178 168 177.5 162 Q177 156 177 151 Q177 118 192 104.5 Q207 91 233 91 Q268 91 288.5 120.5 Q309 150 316 200 L348 467 L348 467 Z M374 557 Q378 550 375 545 Q372 540 364 540 L299 540 Q289 540 282 548 L149 699 Q144 705 145.5 710.5 Q147 716 155 718 L264 740 Q276 743 282 731 L374 557 L374 557 Z " />
<glyph glyph-name="v" unicode="v" horiz-adv-x="472" d="M345 469 Q350 480 361 480 L472 480 Q489 480 482 464 L271 10 Q267 0 254 0 L150 0 Q137 0 134 12 L34 465 Q31 480 47 480 L156 480 Q169 480 171 467 L225 154 L345 469 L345 469 Z " />
<glyph glyph-name="w" unicode="w" horiz-adv-x="668" d="M551 469 Q554 480 567 480 L670 480 Q678 480 681 475.5 Q684 471 681 464 L491 11 Q487 0 474 0 L392 0 Q379 0 377 13 L335 293 L225 11 Q220 0 209 0 L128 0 Q115 0 113 13 L33 465 Q30 480 45 480 L156 480 Q169 480 171 467 L202 194 L310 469 Q315 480 326 480 L401 480 Q414 480 416 467 L460 192 L551 469 L551 469 Z " />
<glyph glyph-name="x" unicode="x" horiz-adv-x="471" d="M470 480 Q478 480 480.5 475.5 Q483 471 478 463 L312 241 L428 17 Q432 10 429 5 Q426 0 418 0 L289 0 Q278 0 273 11 L222 146 L132 9 Q127 0 115 0 L-7 0 Q-15 0 -17.5 4.5 Q-20 9 -15 17 L157 245 L45 463 Q41 470 44.5 475 Q48 480 56 480 L180 480 Q191 480 196 469 L245 337 L331 471 Q336 480 348 480 L470 480 L470 480 Z " />
<glyph glyph-name="y" unicode="y" horiz-adv-x="479" d="M358 469 Q362 480 375 480 L484 480 Q492 480 495 475 Q498 470 494 463 L268 -5 Q224 -96 173.5 -142.5 Q123 -189 50 -189 Q0 -189 -36 -176 Q-47 -173 -46 -160 L-36 -75 Q-34 -60 -19 -65 Q-3 -70 14.5 -73.5 Q32 -77 52 -77 Q89 -77 111.5 -56.5 Q134 -36 152 3 L36 464 Q33 480 48 480 L163 480 Q175 480 178 467 L233 185 L358 469 L358 469 Z " />
<glyph glyph-name="yacute" unicode="&#xfd;" horiz-adv-x="482" d="M358 469 Q362 480 375 480 L484 480 Q492 480 495 475 Q498 470 494 463 L268 -5 Q224 -96 173.5 -142.5 Q123 -189 50 -189 Q0 -189 -36 -176 Q-47 -173 -46 -160 L-36 -75 Q-34 -60 -19 -65 Q-3 -70 14.5 -73.5 Q32 -77 52 -77 Q89 -77 111.5 -56.5 Q134 -36 152 3 L36 464 Q33 480 48 480 L163 480 Q175 480 178 467 L233 185 L358 469 L358 469 Z M226 540 Q218 540 215 545 Q212 550 216 557 L308 731 Q314 743 326 740 L435 718 Q443 716 444.5 710.5 Q446 705 441 699 L308 548 Q301 540 291 540 L226 540 L226 540 Z " />
<glyph glyph-name="ydieresis" unicode="&#xff;" horiz-adv-x="482" d="M358 469 Q362 480 375 480 L484 480 Q492 480 495 475 Q498 470 494 463 L268 -5 Q224 -96 173.5 -142.5 Q123 -189 50 -189 Q0 -189 -36 -176 Q-47 -173 -46 -160 L-36 -75 Q-34 -60 -19 -65 Q-3 -70 14.5 -73.5 Q32 -77 52 -77 Q89 -77 111.5 -56.5 Q134 -36 152 3 L36 464 Q33 480 48 480 L163 480 Q175 480 178 467 L233 185 L358 469 L358 469 Z M194 596 Q168 596 152 615.5 Q136 635 136 661 Q136 677 142 691.5 Q148 706 158 717 Q168 728 181.5 734.5 Q195 741 211 741 Q237 741 252.5 722 Q268 703 268 677 Q268 661 262 646.5 Q256 632 246 620.5 Q236 609 222.5 602.5 Q209 596 194 596 Z M370 596 Q344 596 328 615.5 Q312 635 312 661 Q312 677 318 691.5 Q324 706 334 717 Q344 728 357.5 734.5 Q371 741 387 741 Q413 741 428.5 722 Q444 703 444 677 Q444 661 438 646.5 Q432 632 422 620.5 Q412 609 398.5 602.5 Q385 596 370 596 Z " />
<glyph glyph-name="z" unicode="z" horiz-adv-x="421" d="M9 0 Q-7 0 -5 15 L-3 37 Q-2 46 4 54 L229 361 L66 361 Q51 361 53 376 L63 467 Q65 480 77 480 L403 480 Q417 480 416 465 L414 444 Q413 435 407 427 L182 120 L363 120 Q377 120 376 105 L366 13 Q364 0 351 0 L9 0 L9 0 Z " />
<glyph glyph-name="zcaron" unicode="&#x17e;" horiz-adv-x="420" d="M9 0 Q-7 0 -5 15 L-3 37 Q-2 46 4 54 L229 361 L66 361 Q51 361 53 376 L63 467 Q65 480 77 480 L403 480 Q417 480 416 465 L414 444 Q413 435 407 427 L182 120 L363 120 Q377 120 376 105 L366 13 Q364 0 351 0 L9 0 L9 0 Z M313 733 Q318 741 330 741 L385 741 Q393 741 396 736 Q399 731 394 724 L279 557 Q273 548 262 548 L213 548 Q200 548 196 558 L119 725 Q112 741 129 741 L187 741 Q196 741 203 731 L249 649 L313 733 L313 733 Z " />
<glyph glyph-name="fi" unicode="&#xfb01;" horiz-adv-x="590" d="M329 639 Q300 639 281.5 622.5 Q263 606 258 568 L247 480 L345 480 Q359 480 358 465 L351 397 Q349 384 337 384 L235 384 L168 -165 Q166 -178 153 -178 L40 -178 Q25 -178 27 -163 L94 384 L42 384 Q27 384 29 399 L37 467 Q39 480 51 480 L106 480 L117 570 Q128 664 177.5 710.5 Q227 757 308 757 Q329 757 349 754 Q369 751 384 746 Q394 742 393 729 L383 644 Q381 630 371 633 Q363 635 352.5 637 Q342 639 329 639 Z M501 562 Q467 562 447 583 Q427 604 427 639 Q427 660 434.5 679 Q442 698 455.5 713 Q469 728 487 736.5 Q505 745 526 745 Q562 745 582 723.5 Q602 702 602 668 Q602 646 594 626.5 Q586 607 572 593 Q558 579 539.5 570.5 Q521 562 501 562 Z M378 0 Q363 0 365 15 L420 467 Q422 480 435 480 L548 480 Q562 480 561 465 L506 13 Q504 0 491 0 L378 0 Z " />
<glyph glyph-name="fl" unicode="&#xfb02;" horiz-adv-x="613" d="M329 639 Q300 639 281.5 622.5 Q263 606 258 568 L247 480 L345 480 Q359 480 358 465 L351 397 Q349 384 337 384 L235 384 L168 -165 Q166 -178 153 -178 L40 -178 Q25 -178 27 -163 L94 384 L42 384 Q27 384 29 399 L37 467 Q39 480 51 480 L106 480 L117 570 Q128 664 177.5 710.5 Q227 757 308 757 Q329 757 349 754 Q369 751 384 746 Q394 742 393 729 L383 644 Q381 630 371 633 Q363 635 352.5 637 Q342 639 329 639 Z M480 -10 Q426 -10 395 18 Q364 46 364 103 Q364 112 365 123.5 Q366 135 368 146 L446 734 Q448 747 461 747 L574 747 Q588 747 587 732 L510 162 Q509 157 509 147 Q509 125 519 116 Q529 107 546 107 Q561 107 575 110 Q592 115 590 98 L579 20 Q577 9 571 6 Q554 -2 528.5 -6 Q503 -10 480 -10 Z " />
<glyph glyph-name="ordfeminine" unicode="&#xaa;" horiz-adv-x="421" d="M322 698 Q324 711 336 711 L415 711 Q429 711 428 696 L390 378 Q388 365 375 365 L296 365 Q281 365 283 380 L287 410 Q249 359 193 359 Q166 359 144 370 Q122 381 106 401.5 Q90 422 81.5 450 Q73 478 73 512 Q73 557 86 594.5 Q99 632 121 660 Q143 688 172.5 703.5 Q202 719 235 719 Q293 719 318 666 L322 698 Z M235 445 Q262 445 283 476 Q304 507 304 558 Q304 592 291.5 610.5 Q279 629 258 629 Q228 629 207.5 597.5 Q187 566 187 517 Q187 484 200 464.5 Q213 445 235 445 Z M59 209 Q44 209 46 224 L51 267 Q53 280 66 280 L373 280 Q387 280 386 265 L381 222 Q379 209 366 209 L59 209 Z " />
<glyph glyph-name="ordmasculine" unicode="&#xba;" horiz-adv-x="409" d="M220 375 Q188 375 161.5 386 Q135 397 115.5 417.5 Q96 438 85.5 466 Q75 494 75 528 Q75 570 89.5 605 Q104 640 129.5 665.5 Q155 691 189 705.5 Q223 720 262 720 Q294 720 321 709 Q348 698 367.5 678 Q387 658 398 630.5 Q409 603 409 570 Q409 528 394 492.5 Q379 457 353 430.5 Q327 404 293 389.5 Q259 375 220 375 Z M232 470 Q256 470 274.5 494 Q293 518 293 569 Q293 595 282 610 Q271 625 252 625 Q228 625 210 601.5 Q192 578 192 527 Q192 501 202.5 485.5 Q213 470 232 470 Z M67 227 Q52 227 54 242 L59 289 Q61 302 73 302 L349 302 Q363 302 362 287 L357 240 Q355 227 343 227 L67 227 Z " />
<glyph glyph-name="Delta" unicode="&#x394;" horiz-adv-x="545" d="M-7 0 Q-22 0 -20 15 L-11 76 Q-9 87 -6 93 L276 702 Q280 712 293 712 L382 712 Q394 712 397 699 L515 94 Q516 89 516.5 85 Q517 81 516 76 L508 13 Q506 0 493 0 L-7 0 Z M375 106 L311 509 L137 106 L375 106 Z " />
<glyph glyph-name="Omega" unicode="&#x3a9;" horiz-adv-x="655" d="M16 0 Q1 0 3 15 L15 107 Q17 120 30 120 L156 120 L161 155 Q118 184 91 242.5 Q64 301 64 376 Q64 455 91 519 Q118 583 164 627.5 Q210 672 269.5 696 Q329 720 394 720 Q448 720 493.5 702 Q539 684 572 651 Q605 618 624 570 Q643 522 643 462 Q643 410 629.5 363 Q616 316 593 276 Q570 236 539.5 205 Q509 174 476 155 L471 120 L595 120 Q609 120 608 105 L596 13 Q594 0 581 0 L338 0 Q323 0 325 15 L343 146 Q345 157 352 162 Q410 211 448 279.5 Q486 348 486 438 Q486 508 457 549 Q428 590 377 590 Q342 590 312.5 572 Q283 554 261.5 522 Q240 490 227.5 445.5 Q215 401 215 348 Q215 291 234 243 Q253 195 285 163 Q293 156 292 145 L275 13 Q273 0 260 0 L16 0 L16 0 Z " />
<glyph glyph-name="mu" unicode="&#x3bc;" horiz-adv-x="524" d="M354 467 Q356 480 368 480 L481 480 Q495 480 494 465 L442 13 Q440 0 428 0 L334 0 Q320 0 320 14 L322 72 L320 72 Q282 -9 212 -9 Q194 -9 178 -4.5 Q162 0 151 11 L143 -186 Q143 -200 128 -200 L15 -200 Q0 -200 2 -185 L43 66 L79 468 Q81 481 93 481 L205 480 Q219 480 218 465 L183 158 Q182 122 197.5 106.5 Q213 91 239 91 Q271 91 291.5 115 Q312 139 321 179 L354 467 L354 467 Z " />
<glyph glyph-name="pi" unicode="&#x3c0;" horiz-adv-x="561" d="M460 159 Q460 155 459.5 152 Q459 149 459 146 Q459 123 468 113.5 Q477 104 493 104 Q505 104 516 107 Q533 112 531 95 L524 20 Q522 8 514 4 Q498 -3 477 -6.5 Q456 -10 436 -10 Q381 -10 350 18.5 Q319 47 319 109 Q319 117 319.5 125 Q320 133 321 141 L348 364 L255 364 L215 13 Q213 0 200 0 L91 0 Q76 0 78 15 L118 364 L60 364 Q45 364 47 379 L57 467 Q59 480 71 480 L550 480 Q564 480 563 465 L553 377 Q551 364 539 364 L485 364 L460 159 Z " />
<glyph glyph-name="zero" unicode="0" horiz-adv-x="588" d="M259 -10 Q213 -10 174 6.5 Q135 23 106.5 58 Q78 93 61.5 147 Q45 201 45 276 Q45 364 67 444.5 Q89 525 129 586.5 Q169 648 226 684 Q283 720 354 720 Q400 720 439 702.5 Q478 685 506.5 649.5 Q535 614 551 560 Q567 506 567 434 Q567 346 545 265.5 Q523 185 483 124 Q443 63 386 26.5 Q329 -10 259 -10 Z M275 129 Q330 129 362.5 183.5 Q395 238 411 334 Q423 392 423 444 Q423 509 403 545.5 Q383 582 338 582 Q283 582 250 527 Q217 472 200 376 Q194 345 190.5 317.5 Q187 290 187 266 Q187 198 210 163.5 Q233 129 275 129 Z " />
<glyph glyph-name="one" unicode="1" horiz-adv-x="435" d="M322 709 Q330 713 339 713 L364 713 Q378 713 377 698 L285 13 Q283 0 270 0 L154 0 Q139 0 141 15 L211 535 L99 483 Q91 479 87 483 Q83 487 84 495 L97 591 Q99 603 108 607 L322 709 L322 709 Z " />
<glyph glyph-name="two" unicode="2" horiz-adv-x="484" d="M220 128 L410 128 Q424 128 423 113 L410 13 Q408 0 395 0 L3 0 Q-5 0 -8 5 Q-11 10 -6 17 L211 326 Q250 379 275.5 421 Q301 463 301 502 Q301 544 272 567 Q243 590 196 590 Q170 590 145 583.5 Q120 577 96 566 Q79 558 81 576 L94 675 Q95 687 105 691 Q136 706 175 713 Q214 720 258 720 Q301 720 338.5 708.5 Q376 697 403 675 Q430 653 445.5 621 Q461 589 461 548 Q461 519 454 492.5 Q447 466 433 437.5 Q419 409 398.5 377.5 Q378 346 351 308 L220 128 Z " />
<glyph glyph-name="three" unicode="3" horiz-adv-x="517" d="M343 382 Q408 365 441 324.5 Q474 284 474 230 Q474 176 449 131.5 Q424 87 382.5 55.5 Q341 24 287 7 Q233 -10 175 -10 Q127 -10 91.5 -2.5 Q56 5 32 16 Q22 21 24 34 L37 131 Q39 148 54 141 Q78 130 105 123.5 Q132 117 169 117 Q202 117 230.5 125 Q259 133 280 147 Q301 161 313 180.5 Q325 200 325 223 Q325 259 289 281.5 Q253 304 184 304 L153 304 Q138 304 140 319 L152 411 Q154 424 167 424 L201 424 Q240 424 268 432.5 Q296 441 314 454.5 Q332 468 341 486 Q350 504 350 524 Q350 558 318.5 577.5 Q287 597 235 597 Q202 597 174.5 590.5 Q147 584 123 573 Q106 565 108 584 L120 678 Q122 689 131 693 Q161 704 200 712 Q239 720 279 720 Q379 720 434 676.5 Q489 633 489 561 Q489 503 453.5 455 Q418 407 343 382 Z " />
<glyph glyph-name="four" unicode="4" horiz-adv-x="556" d="M515 234 Q529 234 528 219 L516 130 Q514 117 501 117 L435 117 L421 13 Q419 0 406 0 L292 0 Q277 0 279 15 L293 117 L24 117 Q9 117 11 132 L24 228 Q25 235 31 244 L385 702 Q390 710 402 710 L499 710 Q513 710 512 695 L450 234 L515 234 Z M355 504 Q342 482 327 456.5 Q312 431 298 412 L158 234 L312 234 L336 407 Q337 415 339.5 427.5 Q342 440 344.5 454 Q347 468 350 481 Q353 494 355 504 Z " />
<glyph glyph-name="five" unicode="5" horiz-adv-x="540" d="M512 594 Q510 581 497 581 L286 581 L245 456 L266 456 Q316 456 357.5 444.5 Q399 433 428.5 410.5 Q458 388 474 354 Q490 320 490 275 Q490 209 463 156 Q436 103 391 66.5 Q346 30 287.5 10 Q229 -10 167 -10 Q125 -10 91 -3 Q57 4 34 16 Q24 21 26 34 L39 130 Q41 147 56 140 Q75 131 101.5 124.5 Q128 118 160 118 Q195 118 226.5 127 Q258 136 281.5 153.5 Q305 171 319 195.5 Q333 220 333 251 Q333 297 298 323 Q263 349 202 349 Q176 349 148.5 343.5 Q121 338 97 327 Q88 323 84.5 327 Q81 331 83 339 L193 698 Q196 710 209 710 L512 710 Q526 710 525 695 L512 594 L512 594 Z " />
<glyph glyph-name="six" unicode="6" horiz-adv-x="550" d="M336 456 Q376 456 410 441.5 Q444 427 469 401 Q494 375 507.5 339 Q521 303 521 261 Q521 201 497.5 151.5 Q474 102 435 66 Q396 30 346 10 Q296 -10 243 -10 Q193 -10 154 5.5 Q115 21 88 49 Q61 77 46.5 114.5 Q32 152 32 196 Q32 261 58 321.5 Q84 382 139 448 L351 702 Q357 710 368 710 L495 710 Q504 710 506.5 705 Q509 700 503 693 L386 567 Q367 546 339.5 512 Q312 478 284 446 Q298 451 311 453.5 Q324 456 336 456 Z M260 115 Q285 115 308.5 124.5 Q332 134 350 151 Q368 168 378.5 192 Q389 216 389 245 Q389 292 361.5 317.5 Q334 343 291 343 Q266 343 243 333.5 Q220 324 202 306.5 Q184 289 173.5 265 Q163 241 163 211 Q163 168 189.5 141.5 Q216 115 260 115 Z " />
<glyph glyph-name="seven" unicode="7" horiz-adv-x="480" d="M82 697 Q84 710 97 710 L520 710 Q528 710 531 705 Q534 700 530 693 L180 10 Q176 0 164 0 L39 0 Q31 0 28 5 Q25 10 29 17 L324 573 L81 573 Q66 573 68 588 L82 697 L82 697 Z " />
<glyph glyph-name="eight" unicode="8" horiz-adv-x="573" d="M253 -10 Q208 -10 168.5 2 Q129 14 99.5 38 Q70 62 53 97 Q36 132 36 178 Q36 215 47.5 247 Q59 279 78.5 304 Q98 329 125 347.5 Q152 366 182 377 Q144 398 124.5 433 Q105 468 105 511 Q105 558 125 596.5 Q145 635 179 662.5 Q213 690 257.5 705 Q302 720 351 720 Q393 720 428.5 708 Q464 696 490.5 674.5 Q517 653 531.5 622 Q546 591 546 553 Q546 496 516 450.5 Q486 405 428 377 Q471 359 499.5 320 Q528 281 528 227 Q528 170 505 125.5 Q482 81 443.5 51 Q405 21 355.5 5.5 Q306 -10 253 -10 Z M311 426 Q358 426 386 455 Q414 484 414 528 Q414 561 392.5 581.5 Q371 602 335 602 Q291 602 262 575 Q233 548 233 503 Q233 469 253 447.5 Q273 426 311 426 Z M269 111 Q294 111 316.5 119.5 Q339 128 355.5 143 Q372 158 381.5 179 Q391 200 391 226 Q391 266 364 290 Q337 314 296 314 Q272 314 250.5 306 Q229 298 212 283 Q195 268 185 247 Q175 226 175 201 Q175 159 201 135 Q227 111 269 111 Z " />
<glyph glyph-name="nine" unicode="9" horiz-adv-x="550" d="M334 720 Q384 720 423 704.5 Q462 689 489 661 Q516 633 530.5 595.5 Q545 558 545 514 Q545 449 519 388.5 Q493 328 438 262 L226 8 Q220 0 209 0 L82 0 Q73 0 70.5 5 Q68 10 74 17 L191 143 Q210 164 237.5 198 Q265 232 293 264 Q279 259 266 256.5 Q253 254 241 254 Q200 254 166.5 268.5 Q133 283 108 309 Q83 335 69.5 371 Q56 407 56 449 Q56 509 79.5 558.5 Q103 608 142 644 Q181 680 231 700 Q281 720 334 720 Z M286 367 Q311 367 334 376.5 Q357 386 375 403.5 Q393 421 403.5 445 Q414 469 414 499 Q414 542 387.5 568.5 Q361 595 317 595 Q292 595 268.5 585.5 Q245 576 227 559 Q209 542 198.5 518 Q188 494 188 465 Q188 418 215.5 392.5 Q243 367 286 367 Z " />
<glyph glyph-name="onesuperior" unicode="&#xb9;" horiz-adv-x="296" d="M237 842 Q246 845 254 845 L271 845 Q285 845 284 830 L236 465 Q234 452 221 452 L166 452 Q151 452 153 467 L191 747 L115 718 Q107 715 102.5 718.5 Q98 722 99 730 L105 776 Q106 786 117 791 L237 842 L237 842 Z " />
<glyph glyph-name="twosuperior" unicode="&#xb2;" horiz-adv-x="347" d="M196 524 L315 524 Q329 524 328 509 L323 465 Q321 452 308 452 L76 452 Q67 452 64.5 456.5 Q62 461 68 469 L188 611 Q213 639 235 669 Q257 699 257 726 Q257 749 240.5 762.5 Q224 776 195 776 Q160 776 126 760 Q118 755 113.5 758.5 Q109 762 111 770 L118 815 Q119 826 130 831 Q150 839 175.5 844 Q201 849 224 849 Q278 849 311.5 821.5 Q345 794 345 751 Q345 716 327.5 684.5 Q310 653 278 618 L196 524 Z " />
<glyph glyph-name="threesuperior" unicode="&#xb3;" horiz-adv-x="331" d="M255 664 Q297 654 317.5 631.5 Q338 609 338 578 Q338 548 323 524 Q308 500 283.5 483 Q259 466 226 457 Q193 448 157 448 Q101 448 71 460 Q61 464 62 477 L67 519 Q69 535 84 530 Q98 525 114.5 522 Q131 519 152 519 Q194 519 220 534.5 Q246 550 246 575 Q246 596 224 608.5 Q202 621 159 621 L146 621 Q131 621 133 636 L138 675 Q140 688 153 688 L168 688 Q216 688 238.5 704 Q261 720 261 741 Q261 761 241.5 772 Q222 783 190 783 Q153 783 125 772 Q107 767 109 784 L114 823 Q115 833 126 838 Q145 844 168 847.5 Q191 851 214 851 Q277 851 311 827 Q345 803 345 763 Q345 732 322.5 705 Q300 678 255 664 Z " />
<glyph glyph-name="fraction" unicode="&#x2044;" horiz-adv-x="129" d="M-206 -3 Q-217 5 -209 16 L349 728 Q357 740 368 732 L390 717 Q401 709 393 698 L-165 -15 Q-173 -26 -184 -18 L-206 -3 L-206 -3 Z " />
<glyph glyph-name="onehalf" unicode="&#xbd;" horiz-adv-x="801" d="M117 -3 Q106 5 114 16 L672 728 Q680 740 691 732 L713 717 Q724 709 716 698 L158 -15 Q150 -26 139 -18 L117 -3 L117 -3 Z M601 72 L720 72 Q734 72 733 57 L728 13 Q726 0 713 0 L481 0 Q472 0 469.5 4.5 Q467 9 473 17 L593 159 Q618 187 640 217 Q662 247 662 274 Q662 297 645.5 310.5 Q629 324 600 324 Q565 324 531 308 Q523 303 518.5 306.5 Q514 310 516 318 L523 363 Q524 374 535 379 Q555 387 580.5 392 Q606 397 629 397 Q683 397 716.5 369.5 Q750 342 750 299 Q750 264 732.5 232.5 Q715 201 683 166 L601 72 Z M221 712 Q230 715 238 715 L255 715 Q269 715 268 700 L220 335 Q218 322 205 322 L150 322 Q135 322 137 337 L175 617 L99 588 Q91 585 86.5 588.5 Q82 592 83 600 L89 646 Q90 656 101 661 L221 712 L221 712 Z " />
<glyph glyph-name="onequarter" unicode="&#xbc;" horiz-adv-x="737" d="M117 -3 Q106 5 114 16 L672 728 Q680 740 691 732 L713 717 Q724 709 716 698 L158 -15 Q150 -26 139 -18 L117 -3 L117 -3 Z M692 129 Q706 129 705 114 L700 76 Q698 63 685 63 L649 63 L642 13 Q640 0 627 0 L575 0 Q560 0 562 15 L569 63 L413 63 Q398 63 400 78 L406 122 Q408 131 413 138 L615 384 Q621 392 632 392 L678 392 Q692 392 691 377 L657 129 L692 129 Z M601 274 L480 129 L580 129 L601 274 Z M221 712 Q230 715 238 715 L255 715 Q269 715 268 700 L220 335 Q218 322 205 322 L150 322 Q135 322 137 337 L175 617 L99 588 Q91 585 86.5 588.5 Q82 592 83 600 L89 646 Q90 656 101 661 L221 712 L221 712 Z " />
<glyph glyph-name="threequarters" unicode="&#xbe;" horiz-adv-x="745" d="M125 -3 Q114 5 122 16 L680 728 Q688 740 699 732 L721 717 Q732 709 724 698 L166 -15 Q158 -26 147 -18 L125 -3 L125 -3 Z M700 129 Q714 129 713 114 L708 76 Q706 63 693 63 L657 63 L650 13 Q648 0 635 0 L583 0 Q568 0 570 15 L577 63 L421 63 Q406 63 408 78 L414 122 Q416 131 421 138 L623 384 Q629 392 640 392 L686 392 Q700 392 699 377 L665 129 L700 129 Z M609 274 L488 129 L588 129 L609 274 Z M239 534 Q281 524 301.5 501.5 Q322 479 322 448 Q322 418 307 394 Q292 370 267.5 353 Q243 336 210 327 Q177 318 141 318 Q85 318 55 330 Q45 334 46 347 L51 389 Q53 405 68 400 Q82 395 98.5 392 Q115 389 136 389 Q178 389 204 404.5 Q230 420 230 445 Q230 466 208 478.5 Q186 491 143 491 L130 491 Q115 491 117 506 L122 545 Q124 558 137 558 L152 558 Q200 558 222.5 574 Q245 590 245 611 Q245 631 225.5 642 Q206 653 174 653 Q137 653 109 642 Q91 637 93 654 L98 693 Q99 703 110 708 Q129 714 152 717.5 Q175 721 198 721 Q261 721 295 697 Q329 673 329 633 Q329 602 306.5 575 Q284 548 239 534 Z " />
<glyph glyph-name="oneeighth" unicode="&#x215b;" horiz-adv-x="794" d="M117 -3 Q106 5 114 16 L672 728 Q680 740 691 732 L713 717 Q724 709 716 698 L158 -15 Q150 -26 139 -18 L117 -3 L117 -3 Z M593 -4 Q566 -4 542.5 2.5 Q519 9 501.5 22 Q484 35 473.5 54 Q463 73 463 99 Q463 141 488.5 168.5 Q514 196 552 208 Q528 220 516 240 Q504 260 504 283 Q504 309 515.5 330 Q527 351 546.5 366 Q566 381 592.5 389.5 Q619 398 648 398 Q698 398 731 373 Q764 348 764 305 Q764 273 745.5 248.5 Q727 224 693 208 Q719 198 737 176.5 Q755 155 755 124 Q755 93 741.5 69 Q728 45 705.5 29 Q683 13 653.5 4.5 Q624 -4 593 -4 Z M626 235 Q655 235 672 250.5 Q689 266 689 291 Q689 310 675.5 321.5 Q662 333 639 333 Q612 333 594 318 Q576 303 576 279 Q576 259 589 247 Q602 235 626 235 Z M603 62 Q634 62 656 79 Q678 96 678 124 Q678 146 661 160 Q644 174 618 174 Q588 174 564.5 157 Q541 140 541 112 Q541 89 558.5 75.5 Q576 62 603 62 Z M221 712 Q230 715 238 715 L255 715 Q269 715 268 700 L220 335 Q218 322 205 322 L150 322 Q135 322 137 337 L175 617 L99 588 Q91 585 86.5 588.5 Q82 592 83 600 L89 646 Q90 656 101 661 L221 712 L221 712 Z " />
<glyph glyph-name="threeeighths" unicode="&#x215c;" horiz-adv-x="802" d="M125 -3 Q114 5 122 16 L680 728 Q688 740 699 732 L721 717 Q732 709 724 698 L166 -15 Q158 -26 147 -18 L125 -3 L125 -3 Z M601 -4 Q574 -4 550.5 2.5 Q527 9 509.5 22 Q492 35 481.5 54 Q471 73 471 99 Q471 141 496.5 168.5 Q522 196 560 208 Q536 220 524 240 Q512 260 512 283 Q512 309 523.5 330 Q535 351 554.5 366 Q574 381 600.5 389.5 Q627 398 656 398 Q706 398 739 373 Q772 348 772 305 Q772 273 753.5 248.5 Q735 224 701 208 Q727 198 745 176.5 Q763 155 763 124 Q763 93 749.5 69 Q736 45 713.5 29 Q691 13 661.5 4.5 Q632 -4 601 -4 Z M634 235 Q663 235 680 250.5 Q697 266 697 291 Q697 310 683.5 321.5 Q670 333 647 333 Q620 333 602 318 Q584 303 584 279 Q584 259 597 247 Q610 235 634 235 Z M611 62 Q642 62 664 79 Q686 96 686 124 Q686 146 669 160 Q652 174 626 174 Q596 174 572.5 157 Q549 140 549 112 Q549 89 566.5 75.5 Q584 62 611 62 Z M239 534 Q281 524 301.5 501.5 Q322 479 322 448 Q322 418 307 394 Q292 370 267.5 353 Q243 336 210 327 Q177 318 141 318 Q85 318 55 330 Q45 334 46 347 L51 389 Q53 405 68 400 Q82 395 98.5 392 Q115 389 136 389 Q178 389 204 404.5 Q230 420 230 445 Q230 466 208 478.5 Q186 491 143 491 L130 491 Q115 491 117 506 L122 545 Q124 558 137 558 L152 558 Q200 558 222.5 574 Q245 590 245 611 Q245 631 225.5 642 Q206 653 174 653 Q137 653 109 642 Q91 637 93 654 L98 693 Q99 703 110 708 Q129 714 152 717.5 Q175 721 198 721 Q261 721 295 697 Q329 673 329 633 Q329 602 306.5 575 Q284 548 239 534 Z " />
<glyph glyph-name="fiveeighths" unicode="&#x215d;" horiz-adv-x="812" d="M135 -3 Q124 5 132 16 L690 728 Q698 740 709 732 L731 717 Q742 709 734 698 L176 -15 Q168 -26 157 -18 L135 -3 L135 -3 Z M611 -4 Q584 -4 560.5 2.5 Q537 9 519.5 22 Q502 35 491.5 54 Q481 73 481 99 Q481 141 506.5 168.5 Q532 196 570 208 Q546 220 534 240 Q522 260 522 283 Q522 309 533.5 330 Q545 351 564.5 366 Q584 381 610.5 389.5 Q637 398 666 398 Q716 398 749 373 Q782 348 782 305 Q782 273 763.5 248.5 Q745 224 711 208 Q737 198 755 176.5 Q773 155 773 124 Q773 93 759.5 69 Q746 45 723.5 29 Q701 13 671.5 4.5 Q642 -4 611 -4 Z M644 235 Q673 235 690 250.5 Q707 266 707 291 Q707 310 693.5 321.5 Q680 333 657 333 Q630 333 612 318 Q594 303 594 279 Q594 259 607 247 Q620 235 644 235 Z M621 62 Q652 62 674 79 Q696 96 696 124 Q696 146 679 160 Q662 174 636 174 Q606 174 582.5 157 Q559 140 559 112 Q559 89 576.5 75.5 Q594 62 621 62 Z M341 654 Q339 641 326 641 L204 641 L180 573 L196 573 Q256 573 292.5 548.5 Q329 524 329 472 Q329 436 313 407.5 Q297 379 270.5 359 Q244 339 209.5 328 Q175 317 139 317 Q116 317 97 320.5 Q78 324 65 329 Q54 333 56 346 L61 389 Q62 404 78 399 Q103 389 134 389 Q176 389 205.5 408.5 Q235 428 235 459 Q235 483 214 498 Q193 513 156 513 Q128 513 103 504 Q95 501 91 504.5 Q87 508 90 517 L149 702 Q152 714 165 714 L333 714 Q347 714 346 699 L341 654 L341 654 Z " />
<glyph glyph-name="seveneighths" unicode="&#x215e;" horiz-adv-x="769" d="M91 -3 Q80 5 88 16 L646 728 Q654 740 665 732 L687 717 Q698 709 690 698 L132 -15 Q124 -26 113 -18 L91 -3 L91 -3 Z M567 -4 Q540 -4 516.5 2.5 Q493 9 475.5 22 Q458 35 447.5 54 Q437 73 437 99 Q437 141 462.5 168.5 Q488 196 526 208 Q502 220 490 240 Q478 260 478 283 Q478 309 489.5 330 Q501 351 520.5 366 Q540 381 566.5 389.5 Q593 398 622 398 Q672 398 705 373 Q738 348 738 305 Q738 273 719.5 248.5 Q701 224 667 208 Q693 198 711 176.5 Q729 155 729 124 Q729 93 715.5 69 Q702 45 679.5 29 Q657 13 627.5 4.5 Q598 -4 567 -4 Z M600 235 Q629 235 646 250.5 Q663 266 663 291 Q663 310 649.5 321.5 Q636 333 613 333 Q586 333 568 318 Q550 303 550 279 Q550 259 563 247 Q576 235 600 235 Z M577 62 Q608 62 630 79 Q652 96 652 124 Q652 146 635 160 Q618 174 592 174 Q562 174 538.5 157 Q515 140 515 112 Q515 89 532.5 75.5 Q550 62 577 62 Z M98 701 Q100 714 113 714 L362 714 Q370 714 372.5 709 Q375 704 371 697 L163 332 Q156 322 146 322 L85 322 Q77 322 73.5 327 Q70 332 75 339 L253 635 L105 635 Q90 635 92 650 L98 701 L98 701 Z " />
<glyph glyph-name="asterisk" unicode="&#x2a;" horiz-adv-x="412" d="M161 341 Q157 334 150 334 Q145 334 141 338 L86 384 Q80 388 80 395 Q80 400 85 405 L129 449 L196 503 L121 509 L67 521 Q52 524 58 538 L92 616 Q99 630 111 623 L153 601 Q157 599 160 597 Q163 595 167 592 L218 553 L209 637 L209 695 Q209 710 224 710 L301 710 Q316 710 312 695 L298 636 L268 552 L341 598 L394 623 Q400 625 401 625 Q409 625 410 615 L422 546 Q423 541 423 539 Q423 537 423 536 Q424 535 424 534 Q422 523 411 520 L356 509 L278 503 L331 448 L363 406 Q366 401 366 396 Q366 390 360 386 L288 336 Q283 333 281 333 Q274 333 271 342 L252 394 L234 473 L194 393 L161 341 L161 341 Z " />
<glyph glyph-name="backslash" unicode="&#x5c;" horiz-adv-x="597" d="M562 -119 Q569 -135 552 -135 L481 -135 Q468 -135 464 -125 L52 757 Q45 773 62 773 L133 773 Q146 773 150 763 L562 -119 L562 -119 Z " />
<glyph glyph-name="periodcentered" unicode="&#xb7;" horiz-adv-x="290" d="M143 221 Q111 221 92 244 Q73 267 73 299 Q73 318 80 336 Q87 354 99 367 Q111 380 127.5 388 Q144 396 163 396 Q195 396 213.5 373.5 Q232 351 232 319 Q232 299 225 281.5 Q218 264 206 250.5 Q194 237 177.5 229 Q161 221 143 221 Z " />
<glyph glyph-name="bullet" unicode="&#x2022;" horiz-adv-x="369" d="M182 201 Q158 201 138.5 210.5 Q119 220 105.5 236 Q92 252 84.5 273 Q77 294 77 318 Q77 347 87.5 373.5 Q98 400 116.5 420 Q135 440 159.5 451.5 Q184 463 212 463 Q236 463 255 454 Q274 445 287.5 429 Q301 413 308 392.5 Q315 372 315 348 Q315 319 304.5 292 Q294 265 276 245 Q258 225 233.5 213 Q209 201 182 201 Z " />
<glyph glyph-name="colon" unicode="&#x3a;" horiz-adv-x="289" d="M153 287 Q121 287 102.5 310 Q84 333 84 364 Q84 383 91 400.5 Q98 418 110 431.5 Q122 445 138 452.5 Q154 460 173 460 Q204 460 222.5 438 Q241 416 241 384 Q241 365 234 347.5 Q227 330 215 316.5 Q203 303 187 295 Q171 287 153 287 Z M114 -9 Q82 -9 63.5 14 Q45 37 45 68 Q45 87 52 104.5 Q59 122 71 135.5 Q83 149 99 156.5 Q115 164 134 164 Q165 164 183.5 142 Q202 120 202 88 Q202 69 195 51.5 Q188 34 176 20.5 Q164 7 148 -1 Q132 -9 114 -9 Z " />
<glyph glyph-name="comma" unicode="&#x2c;" horiz-adv-x="293" d="M135 168 Q167 168 187 146.5 Q207 125 207 90 Q207 61 192 32 Q177 3 159 -32 L89 -167 Q85 -177 73 -177 L48 -177 Q31 -177 36 -161 L89 -1 Q69 7 57.5 26 Q46 45 46 71 Q46 92 53.5 110 Q61 128 73 140.5 Q85 153 101 160.5 Q117 168 135 168 Z " />
<glyph glyph-name="ellipsis" unicode="&#x2026;" horiz-adv-x="802" d="M115 -7 Q83 -7 64 16 Q45 39 45 71 Q45 90 52 108 Q59 126 71 139 Q83 152 99.5 160 Q116 168 135 168 Q167 168 185.5 145.5 Q204 123 204 91 Q204 71 197 53.5 Q190 36 178 22.5 Q166 9 149.5 1 Q133 -7 115 -7 Z M371 -7 Q339 -7 320 16 Q301 39 301 71 Q301 90 308 108 Q315 126 327 139 Q339 152 355.5 160 Q372 168 391 168 Q423 168 441.5 145.5 Q460 123 460 91 Q460 71 453 53.5 Q446 36 434 22.5 Q422 9 405.5 1 Q389 -7 371 -7 Z M627 -7 Q595 -7 576 16 Q557 39 557 71 Q557 90 564 108 Q571 126 583 139 Q595 152 611.5 160 Q628 168 647 168 Q679 168 697.5 145.5 Q716 123 716 91 Q716 71 709 53.5 Q702 36 690 22.5 Q678 9 661.5 1 Q645 -7 627 -7 Z " />
<glyph glyph-name="exclam" unicode="&#x21;" horiz-adv-x="302" d="M111 227 Q95 227 97 242 L130 697 Q132 710 145 710 L270 710 Q286 710 283 695 L193 240 Q190 227 178 227 L111 227 Z M116 -9 Q84 -9 65 14 Q46 37 46 69 Q46 88 53 106 Q60 124 72 137 Q84 150 100.5 158 Q117 166 136 166 Q168 166 186.5 143.5 Q205 121 205 89 Q205 69 198 51.5 Q191 34 179 20.5 Q167 7 150.5 -1 Q134 -9 116 -9 Z " />
<glyph glyph-name="exclamdown" unicode="&#xa1;" horiz-adv-x="303" d="M215 720 Q247 720 266 697 Q285 674 285 642 Q285 622 278 604.5 Q271 587 259 574 Q247 561 230.5 553 Q214 545 195 545 Q163 545 144.5 567.5 Q126 590 126 622 Q126 641 133 659 Q140 677 152 690.5 Q164 704 180.5 712 Q197 720 215 720 Z M220 484 Q235 484 234 469 L201 14 Q199 1 186 1 L61 1 Q45 1 48 16 L138 471 Q141 484 153 484 L220 484 Z " />
<glyph glyph-name="numbersign" unicode="&#x23;" horiz-adv-x="633" d="M622 454 Q622 440 608 440 L498 440 L469 277 L583 277 Q597 277 597 263 L597 203 Q597 189 583 189 L453 189 L421 13 Q419 0 406 0 L335 0 Q320 0 323 15 L354 189 L226 189 L194 13 Q192 0 179 0 L110 0 Q95 0 98 15 L129 189 L51 189 Q37 189 37 203 L37 263 Q37 277 51 277 L145 277 L174 440 L76 440 Q62 440 62 454 L62 515 Q62 529 76 529 L190 529 L220 697 Q222 710 235 710 L306 710 Q321 710 318 695 L288 529 L415 529 L446 697 Q448 710 461 710 L532 710 Q547 710 544 695 L514 529 L608 529 Q622 529 622 515 L622 454 Z M399 440 L272 440 L242 277 L370 277 L399 440 Z " />
<glyph glyph-name="period" unicode="&#x2e;" horiz-adv-x="290" d="M115 -7 Q83 -7 64 16 Q45 39 45 71 Q45 90 52 108 Q59 126 71 139 Q83 152 99.5 160 Q116 168 135 168 Q167 168 185.5 145.5 Q204 123 204 91 Q204 71 197 53.5 Q190 36 178 22.5 Q166 9 149.5 1 Q133 -7 115 -7 Z " />
<glyph glyph-name="question" unicode="&#x3f;" horiz-adv-x="439" d="M145 200 Q131 200 132 214 L139 326 Q139 336 150 342 Q211 371 250 410 Q289 449 289 504 Q289 547 259 572 Q229 597 177 597 Q154 597 131 591.5 Q108 586 86 576 Q78 572 73.5 575 Q69 578 70 587 L82 678 Q84 690 93 694 Q123 707 161 713.5 Q199 720 234 720 Q282 720 320.5 708.5 Q359 697 386 675.5 Q413 654 428 622 Q443 590 443 550 Q443 503 427.5 466 Q412 429 385.5 398.5 Q359 368 325 343 Q291 318 254 295 L234 212 Q231 200 218 200 L145 200 Z M159 -7 Q126 -7 107 15 Q88 37 88 67 Q88 85 95 102 Q102 119 114.5 131.5 Q127 144 143.5 151.5 Q160 159 179 159 Q211 159 229.5 137.5 Q248 116 248 86 Q248 68 241 51 Q234 34 222 21 Q210 8 193.5 0.5 Q177 -7 159 -7 Z " />
<glyph glyph-name="questiondown" unicode="&#xbf;" horiz-adv-x="438" d="M308 720 Q341 720 360 698 Q379 676 379 646 Q379 628 372 611 Q365 594 352.5 581.5 Q340 569 323.5 561.5 Q307 554 288 554 Q256 554 237.5 575.5 Q219 597 219 627 Q219 645 226 662 Q233 679 245 692 Q257 705 273.5 712.5 Q290 720 308 720 Z M322 513 Q336 513 335 499 L328 387 Q328 377 317 371 Q256 342 217 303 Q178 264 178 209 Q178 166 208 141 Q238 116 290 116 Q313 116 336 121.5 Q359 127 381 137 Q389 141 393.5 138 Q398 135 397 126 L385 35 Q383 23 374 19 Q344 6 306 -0.5 Q268 -7 233 -7 Q185 -7 146.5 4.5 Q108 16 81 37.5 Q54 59 39 90.5 Q24 122 24 163 Q24 209 39.5 246.5 Q55 284 81.5 314.5 Q108 345 142 370 Q176 395 213 418 L233 501 Q236 513 249 513 L322 513 Z " />
<glyph glyph-name="quotedbl" unicode="&#x22;" horiz-adv-x="494" d="M127 415 Q113 415 113 429 L123 696 Q123 710 137 710 L258 710 Q274 710 271 695 L216 427 Q213 415 200 415 L127 415 Z M339 415 Q325 415 325 429 L335 696 Q335 710 349 710 L470 710 Q486 710 483 695 L428 427 Q425 415 412 415 L339 415 Z " />
<glyph glyph-name="quotesingle" unicode="&#x27;" horiz-adv-x="282" d="M127 415 Q113 415 113 429 L123 696 Q123 710 137 710 L258 710 Q274 710 271 695 L216 427 Q213 415 200 415 L127 415 L127 415 Z " />
<glyph glyph-name="semicolon" unicode="&#x3b;" horiz-adv-x="289" d="M172 460 Q203 460 221.5 438 Q240 416 240 384 Q240 365 233 347.5 Q226 330 214 316.5 Q202 303 186 295 Q170 287 152 287 Q120 287 101.5 310 Q83 333 83 364 Q83 383 90 400.5 Q97 418 109 431.5 Q121 445 137 452.5 Q153 460 172 460 Z M130 155 Q160 155 179 134.5 Q198 114 198 82 Q198 55 184 27 Q170 -1 153 -33 L87 -160 Q83 -170 71 -170 L49 -170 Q32 -170 37 -154 L87 -4 Q68 4 57 22 Q46 40 46 64 Q46 103 71.5 129 Q97 155 130 155 Z " />
<glyph glyph-name="slash" unicode="&#x2f;" horiz-adv-x="373" d="M-49 -135 Q-66 -135 -59 -119 L353 763 Q357 773 370 773 L441 773 Q458 773 451 757 L39 -125 Q35 -135 22 -135 L-49 -135 L-49 -135 Z " />
<glyph glyph-name="underscore" unicode="&#x5f;" horiz-adv-x="533" d="M40 -175 Q25 -175 27 -160 L37 -71 Q39 -58 51 -58 L406 -58 Q420 -58 419 -73 L409 -162 Q407 -175 394 -175 L40 -175 L40 -175 Z " />
<glyph glyph-name="braceleft" unicode="&#x7b;" horiz-adv-x="307" d="M245 719 Q269 719 285 715.5 Q301 712 312 707 Q323 702 321 690 L316 650 Q314 636 300 638 Q295 639 290 639 Q285 639 279 639 Q252 639 235.5 623 Q219 607 219 579 Q219 560 224.5 535 Q230 510 236.5 483.5 Q243 457 248.5 431 Q254 405 254 384 Q254 364 246 345 Q238 326 222.5 310.5 Q207 295 184 284 Q161 273 131 269 Q181 262 203.5 236 Q226 210 226 178 Q226 153 211.5 121 Q197 89 179.5 56 Q162 23 147.5 -7 Q133 -37 133 -58 Q133 -77 145 -88.5 Q157 -100 180 -100 Q185 -100 189.5 -100 Q194 -100 199 -99 Q215 -97 213 -113 L208 -152 Q207 -163 196 -168 Q185 -173 167 -176.5 Q149 -180 124 -180 Q93 -180 71 -171.5 Q49 -163 35 -149.5 Q21 -136 14.5 -118 Q8 -100 8 -81 Q8 -50 23 -15.5 Q38 19 56.5 52.5 Q75 86 90 116 Q105 146 105 167 Q105 187 94 201.5 Q83 216 55 221 Q42 224 43 237 L47 270 L51 303 Q52 315 66 317 Q106 322 120.5 343.5 Q135 365 135 389 Q135 407 129 431 Q123 455 116.5 482 Q110 509 104 536.5 Q98 564 98 589 Q98 614 107 637.5 Q116 661 134 679 Q152 697 179.5 708 Q207 719 245 719 Z " />
<glyph glyph-name="braceright" unicode="&#x7d;" horiz-adv-x="308" d="M211 372 Q211 352 222 337.5 Q233 323 261 318 Q275 315 274 302 L270 269 L265 235 Q264 224 250 222 Q210 217 195.5 195.5 Q181 174 181 150 Q181 132 187 108 Q193 84 199.5 57 Q206 30 212 2.5 Q218 -25 218 -50 Q218 -75 209 -98.5 Q200 -122 182 -140 Q164 -158 136.5 -169 Q109 -180 71 -180 Q47 -180 31 -176.5 Q15 -173 4 -168 Q-7 -164 -5 -151 L0 -111 Q2 -97 16 -99 Q21 -100 26 -100 Q31 -100 37 -100 Q65 -100 81 -84 Q97 -68 97 -40 Q97 -21 91.5 3.5 Q86 28 80 54.5 Q74 81 68.5 107.5 Q63 134 63 155 Q63 175 70.5 193.5 Q78 212 93.5 227.5 Q109 243 132 254 Q155 265 186 269 Q136 276 113 302.5 Q90 329 90 361 Q90 385 104.5 417 Q119 449 136.5 482 Q154 515 168.5 545 Q183 575 183 596 Q183 616 171 627.5 Q159 639 136 639 Q131 639 126.5 639 Q122 639 117 638 Q101 636 103 652 L108 691 Q110 703 120 706 Q132 711 149.5 715 Q167 719 192 719 Q223 719 245 710.5 Q267 702 281.5 688.5 Q296 675 302.5 656.5 Q309 638 309 619 Q309 589 293.5 554.5 Q278 520 260 486.5 Q242 453 226.5 423 Q211 393 211 372 Z " />
<glyph glyph-name="bracketleft" unicode="&#x5b;" horiz-adv-x="370" d="M245 -160 Q243 -173 230 -173 L31 -173 Q16 -173 18 -158 L133 697 Q135 710 148 710 L343 710 Q357 710 356 695 L348 634 Q346 621 333 621 L233 621 L139 -74 L241 -74 Q255 -74 254 -89 L245 -160 L245 -160 Z " />
<glyph glyph-name="bracketright" unicode="&#x5d;" horiz-adv-x="369" d="M30 -173 Q15 -173 17 -158 L27 -87 Q29 -74 42 -74 L145 -74 L239 621 L140 621 Q125 621 127 636 L135 697 Q137 710 150 710 L346 710 Q360 710 359 695 L244 -160 Q242 -173 229 -173 L30 -173 L30 -173 Z " />
<glyph glyph-name="parenleft" unicode="&#x28;" horiz-adv-x="355" d="M252 -153 Q257 -161 254 -165.5 Q251 -170 243 -170 L163 -170 Q152 -170 145 -162 Q91 -93 61.5 -4.5 Q32 84 32 188 Q32 271 48.5 343.5 Q65 416 95 479.5 Q125 543 167.5 598.5 Q210 654 263 703 Q270 710 280 710 L358 710 Q367 710 369.5 705 Q372 700 365 693 Q319 644 280.5 588.5 Q242 533 214 473 Q186 413 170 350 Q154 287 152 223 Q150 174 155.5 123.5 Q161 73 174 24.5 Q187 -24 206.5 -69 Q226 -114 252 -153 Z " />
<glyph glyph-name="parenright" unicode="&#x29;" horiz-adv-x="354" d="M5 -170 Q-4 -170 -6.5 -165 Q-9 -160 -3 -153 Q43 -103 82 -46.5 Q121 10 149 70.5 Q177 131 193 194.5 Q209 258 211 323 Q213 371 207 420.5 Q201 470 188.5 518 Q176 566 156 610.5 Q136 655 111 693 Q106 701 109 705.5 Q112 710 120 710 L201 710 Q211 710 218 702 Q272 635 301.5 548 Q331 461 331 358 Q331 274 314.5 201 Q298 128 267.5 63.5 Q237 -1 194.5 -57 Q152 -113 100 -163 Q93 -170 83 -170 L5 -170 L5 -170 Z " />
<glyph glyph-name="emdash" unicode="&#x2014;" horiz-adv-x="881" d="M87 208 Q72 208 74 223 L84 312 Q86 325 98 325 L800 325 Q814 325 813 310 L803 221 Q801 208 789 208 L87 208 L87 208 Z " />
<glyph glyph-name="endash" unicode="&#x2013;" horiz-adv-x="533" d="M87 208 Q72 208 74 223 L84 312 Q86 325 98 325 L453 325 Q467 325 466 310 L456 221 Q454 208 441 208 L87 208 L87 208 Z " />
<glyph glyph-name="hyphen" unicode="&#x2d;" horiz-adv-x="445" d="M87 208 Q72 208 74 223 L84 314 Q86 327 99 327 L365 327 Q379 327 378 312 L368 221 Q366 208 353 208 L87 208 L87 208 Z " />
<glyph glyph-name="softhyphen" unicode="&#xad;" horiz-adv-x="445" d="M87 208 Q72 208 74 223 L84 314 Q86 327 99 327 L365 327 Q379 327 378 312 L368 221 Q366 208 353 208 L87 208 L87 208 Z " />
<glyph glyph-name="guillemetleft" unicode="&#xab;" horiz-adv-x="622" d="M240 30 Q228 18 220 32 L65 268 Q58 279 67 288 L279 510 Q289 522 299 510 L349 457 Q357 447 349 437 L213 279 L310 120 Q316 109 307 100 L240 30 Z M475 30 Q463 18 455 32 L300 268 Q293 279 302 288 L514 510 Q524 522 534 510 L584 457 Q592 447 584 437 L448 279 L545 120 Q551 109 542 100 L475 30 Z " />
<glyph glyph-name="guillemetright" unicode="&#xbb;" horiz-adv-x="622" d="M155 516 Q167 528 175 514 L330 278 Q337 267 328 258 L116 36 Q106 24 96 36 L46 89 Q38 99 46 109 L182 267 L85 426 Q79 437 88 446 L155 516 Z M390 516 Q402 528 410 514 L565 278 Q572 267 563 258 L351 36 Q341 24 331 36 L281 89 Q273 99 281 109 L417 267 L320 426 Q314 437 323 446 L390 516 Z " />
<glyph glyph-name="guilsinglleft" unicode="&#x2039;" horiz-adv-x="387" d="M240 30 Q228 18 220 32 L65 268 Q58 279 67 288 L279 510 Q289 522 299 510 L349 457 Q357 447 349 437 L213 279 L310 120 Q316 109 307 100 L240 30 L240 30 Z " />
<glyph glyph-name="guilsinglright" unicode="&#x203a;" horiz-adv-x="387" d="M115 31 Q105 20 96 32 L46 99 Q38 109 46 119 L184 279 L87 436 Q81 447 90 455 L154 510 Q166 520 174 508 L331 289 Q338 279 330 270 L115 31 L115 31 Z " />
<glyph glyph-name="quotedblbase" unicode="&#x201e;" horiz-adv-x="497" d="M134 168 Q166 168 186 146.5 Q206 125 206 90 Q206 61 191 32 Q176 3 158 -32 L88 -167 Q84 -177 72 -177 L47 -177 Q30 -177 35 -161 L88 -1 Q68 7 56.5 26 Q45 45 45 71 Q45 92 52.5 110 Q60 128 72 140.5 Q84 153 100 160.5 Q116 168 134 168 Z M338 168 Q370 168 390 146.5 Q410 125 410 90 Q410 61 395 32 Q380 3 362 -32 L292 -167 Q288 -177 276 -177 L251 -177 Q234 -177 239 -161 L292 -1 Q272 7 260.5 26 Q249 45 249 71 Q249 92 256.5 110 Q264 128 276 140.5 Q288 153 304 160.5 Q320 168 338 168 Z " />
<glyph glyph-name="quotedblleft" unicode="&#x201c;" horiz-adv-x="497" d="M211 534 Q231 526 242.5 507 Q254 488 254 462 Q254 441 246.5 423 Q239 405 227 392.5 Q215 380 199 372.5 Q183 365 165 365 Q133 365 113 386.5 Q93 408 93 443 Q93 472 108 501 Q123 530 141 565 L211 700 Q215 710 227 710 L252 710 Q269 710 264 694 L211 534 L211 534 Z M415 534 Q435 526 446.5 507 Q458 488 458 462 Q458 441 450.5 423 Q443 405 431 392.5 Q419 380 403 372.5 Q387 365 369 365 Q337 365 317 386.5 Q297 408 297 443 Q297 472 312 501 Q327 530 345 565 L415 700 Q419 710 431 710 L456 710 Q473 710 468 694 L415 534 L415 534 Z " />
<glyph glyph-name="quotedblright" unicode="&#x201d;" horiz-adv-x="497" d="M203 720 Q235 720 255 698.5 Q275 677 275 642 Q275 613 260 584 Q245 555 227 520 L157 385 Q153 375 141 375 L116 375 Q99 375 104 391 L157 551 Q137 559 125.5 578 Q114 597 114 623 Q114 644 121.5 662 Q129 680 141 692.5 Q153 705 169 712.5 Q185 720 203 720 Z M407 720 Q439 720 459 698.5 Q479 677 479 642 Q479 613 464 584 Q449 555 431 520 L361 385 Q357 375 345 375 L320 375 Q303 375 308 391 L361 551 Q341 559 329.5 578 Q318 597 318 623 Q318 644 325.5 662 Q333 680 345 692.5 Q357 705 373 712.5 Q389 720 407 720 Z " />
<glyph glyph-name="quoteleft" unicode="&#x2018;" horiz-adv-x="293" d="M211 534 Q231 526 242.5 507 Q254 488 254 462 Q254 441 246.5 423 Q239 405 227 392.5 Q215 380 199 372.5 Q183 365 165 365 Q133 365 113 386.5 Q93 408 93 443 Q93 472 108 501 Q123 530 141 565 L211 700 Q215 710 227 710 L252 710 Q269 710 264 694 L211 534 L211 534 Z " />
<glyph glyph-name="quoteright" unicode="&#x2019;" horiz-adv-x="293" d="M204 720 Q236 720 256 698.5 Q276 677 276 642 Q276 613 261 584 Q246 555 228 520 L158 385 Q154 375 142 375 L117 375 Q100 375 105 391 L158 551 Q138 559 126.5 578 Q115 597 115 623 Q115 644 122.5 662 Q130 680 142 692.5 Q154 705 170 712.5 Q186 720 204 720 Z " />
<glyph glyph-name="quotesinglbase" unicode="&#x201a;" horiz-adv-x="293" d="M135 168 Q167 168 187 146.5 Q207 125 207 90 Q207 61 192 32 Q177 3 159 -32 L89 -167 Q85 -177 73 -177 L48 -177 Q31 -177 36 -161 L89 -1 Q69 7 57.5 26 Q46 45 46 71 Q46 92 53.5 110 Q61 128 73 140.5 Q85 153 101 160.5 Q117 168 135 168 Z " />
<glyph glyph-name="emspace" unicode="&#x2003;" horiz-adv-x="1000" d="" />
<glyph glyph-name="enspace" unicode="&#x2002;" horiz-adv-x="500" d="" />
<glyph glyph-name="fourperemspace" unicode="&#x2005;" horiz-adv-x="250" d="" />
<glyph glyph-name="hairspace" unicode="&#x200a;" horiz-adv-x="60" d="" />
<glyph glyph-name="Acircumflex" unicode="&#xc2;" horiz-adv-x="610" d="M425 0 Q412 0 410 13 L391 131 L188 131 Q175 100 162.5 70 Q150 40 138 11 Q132 0 121 0 L-3 0 Q-20 0 -14 16 L296 701 Q300 712 313 712 L410 712 Q423 712 426 700 L566 15 Q569 0 553 0 L425 0 Z M373 241 Q363 305 353 367 Q343 429 334 486 Q310 429 284.5 367 Q259 305 233 241 L373 241 Z M522 774 Q526 767 523 762 Q520 757 512 757 L450 757 Q438 757 433 766 L386 835 L320 764 Q314 757 303 757 L242 757 Q234 757 231 762 Q228 767 233 774 L338 909 Q343 917 356 917 L434 917 Q444 917 450 907 L522 774 L522 774 Z " />
<glyph glyph-name="nbspace" unicode="&#xa0;" horiz-adv-x="180" d="" />
<glyph glyph-name="thinspace" unicode="&#x2009;" horiz-adv-x="90" d="" />
<glyph glyph-name="threeperemspace" unicode="&#x2004;" horiz-adv-x="573" d="" />
<glyph glyph-name="cent" unicode="&#xa2;" horiz-adv-x="402" d="M321 503 Q295 503 271.5 491.5 Q248 480 230 459 Q212 438 201 408.5 Q190 379 190 343 Q190 289 217.5 259 Q245 229 287 229 Q305 229 321.5 233 Q338 237 352 244 Q369 252 368 234 L359 152 Q357 140 348 136 Q314 122 264 117 L239 -9 Q236 -22 224 -22 L175 -22 Q160 -22 163 -6 L195 121 Q163 128 135 146 Q107 164 87 190.5 Q67 217 55.5 252.5 Q44 288 44 332 Q44 392 62 440.5 Q80 489 111 525 Q142 561 182 583 Q222 605 267 611 L286 719 Q288 732 301 732 L350 732 Q365 732 362 717 L338 612 Q355 610 371 607 Q387 604 399 598 Q410 593 408 581 L397 496 Q395 481 383 487 Q357 503 321 503 Z " />
<glyph glyph-name="currency" unicode="&#xa4;" horiz-adv-x="568" d="M554 86 Q562 75 551 67 L515 41 Q504 33 496 44 L411 161 Q364 125 303 125 Q240 125 193 163 L106 44 Q98 33 87 41 L51 67 Q40 75 48 86 L145 220 Q111 280 111 359 Q111 443 146 502 L48 636 Q40 647 51 655 L87 681 Q98 689 106 678 L194 558 Q241 594 303 594 Q364 594 409 560 L495 678 Q503 689 514 681 L550 655 Q561 647 553 636 L458 506 Q495 444 495 359 Q495 319 485.5 282.5 Q476 246 459 217 L554 86 Z M303 230 Q345 230 370 265 Q395 300 395 360 Q395 420 370 454.5 Q345 489 303 489 Q261 489 236.5 454 Q212 419 212 360 Q212 300 236.5 265 Q261 230 303 230 Z " />
<glyph glyph-name="dollar" unicode="&#x24;" horiz-adv-x="520" d="M344 588 Q296 588 268 566.5 Q240 545 240 511 Q240 493 248 480 Q256 467 269.5 456.5 Q283 446 300.5 436.5 Q318 427 338 417 Q368 401 392.5 384 Q417 367 435 347 Q453 327 462.5 301.5 Q472 276 472 244 Q472 196 454.5 155.5 Q437 115 406 84 Q375 53 332 34 Q289 15 238 10 L204 -120 Q201 -132 189 -132 L125 -132 Q109 -132 113 -116 L147 12 Q115 15 86 23 Q57 31 34 43 Q24 48 26 61 L39 161 Q40 177 56 170 Q88 153 124.5 142.5 Q161 132 199 132 Q245 132 277 155.5 Q309 179 309 221 Q309 252 287 270.5 Q265 289 225 310 Q199 323 173.5 338.5 Q148 354 127.5 374.5 Q107 395 94 422 Q81 449 81 486 Q81 533 99 571 Q117 609 147.5 636.5 Q178 664 219 681 Q260 698 306 703 L339 824 Q342 836 354 836 L418 836 Q434 836 430 820 L398 702 Q422 700 445.5 695.5 Q469 691 489 684 Q501 681 499 667 L487 577 Q485 561 471 566 Q443 576 408.5 582 Q374 588 344 588 Z " />
<glyph glyph-name="euro" unicode="&#x20ac;" horiz-adv-x="520" d="M428 587 Q372 587 327 555 Q282 523 255 466 L480 466 Q494 466 493 451 L487 399 Q485 386 472 386 L229 386 Q225 359 223 328 L462 328 Q476 328 475 313 L469 260 Q467 247 454 247 L230 247 Q244 189 279 157 Q314 125 365 125 Q394 125 420 131.5 Q446 138 468 149 Q476 153 480.5 149.5 Q485 146 483 138 L469 36 Q467 24 458 20 Q429 7 391 -1 Q353 -9 314 -9 Q267 -9 227 8.5 Q187 26 155.5 59 Q124 92 104 139.5 Q84 187 78 247 L23 247 Q8 247 10 262 L16 315 Q18 328 31 328 L77 328 Q78 357 83 386 L41 386 Q26 386 28 401 L34 453 Q36 466 49 466 L103 466 Q124 526 157.5 573 Q191 620 233.5 652.5 Q276 685 325.5 702.5 Q375 720 427 720 Q459 720 489 714 Q519 708 540 698 Q551 694 549 681 L534 573 Q532 556 522 563 Q505 574 481 580.5 Q457 587 428 587 Z " />
<glyph glyph-name="florin" unicode="&#x192;" horiz-adv-x="453" d="M413 639 Q381 639 362 620 Q343 601 333 559 L316 480 L423 480 Q437 480 436 465 L428 390 Q426 377 414 377 L293 377 L212 8 Q191 -90 144.5 -138.5 Q98 -187 14 -187 Q-7 -187 -28 -183.5 Q-49 -180 -65 -175 Q-76 -172 -75 -159 L-66 -74 Q-64 -60 -49 -63 Q-33 -69 -8 -69 Q25 -69 44 -50 Q63 -31 72 11 L153 377 L68 377 Q53 377 55 392 L63 467 Q65 480 77 480 L176 480 L194 562 Q216 660 262 708.5 Q308 757 392 757 Q413 757 434.5 753.5 Q456 750 471 745 Q482 741 481 728 L472 644 Q470 629 459 632 Q450 635 438.5 637 Q427 639 413 639 Z " />
<glyph glyph-name="sterling" unicode="&#xa3;" horiz-adv-x="520" d="M436 594 Q392 594 361.5 567 Q331 540 317 485 L299 411 L452 411 Q466 411 465 396 L455 324 Q453 311 440 311 L275 311 L227 114 L428 114 Q442 114 441 99 L429 13 Q427 0 414 0 L20 0 Q5 0 7 15 L19 101 Q21 114 34 114 L83 114 L132 311 L78 311 Q63 311 65 326 L75 398 Q77 411 90 411 L156 411 L177 494 Q204 605 268 662.5 Q332 720 420 720 Q455 720 485.5 714.5 Q516 709 539 699 Q549 695 548 682 L535 583 Q533 566 521 573 Q503 582 482 588 Q461 594 436 594 Z " />
<glyph glyph-name="yen" unicode="&#xa5;" horiz-adv-x="567" d="M610 711 Q618 711 621 706 Q624 701 619 694 L387 328 L487 328 Q501 328 500 313 L490 241 Q488 228 475 228 L352 228 L323 13 Q321 0 308 0 L187 0 Q172 0 174 15 L202 228 L92 228 Q77 228 79 243 L88 315 Q90 328 103 328 L194 328 L58 695 Q53 711 69 711 L199 711 Q212 711 215 699 L307 408 L473 701 Q480 711 490 711 L610 711 L610 711 Z " />
<glyph glyph-name="plus" unicode="&#x2b;" horiz-adv-x="592" d="M542 365 Q556 365 556 351 L556 260 Q556 246 542 246 L354 246 L354 55 Q354 41 340 41 L252 41 Q238 41 238 55 L238 246 L51 246 Q37 246 37 260 L37 351 Q37 365 51 365 L238 365 L238 556 Q238 570 252 570 L340 570 Q354 570 354 556 L354 365 L542 365 L542 365 Z " />
<glyph glyph-name="minus" unicode="&#x2212;" horiz-adv-x="592" d="M51 246 Q37 246 37 260 L37 351 Q37 365 51 365 L542 365 Q556 365 556 351 L556 260 Q556 246 542 246 L51 246 L51 246 Z " />
<glyph glyph-name="multiply" unicode="&#xd7;" horiz-adv-x="592" d="M532 472 Q541 461 532 452 L378 299 L532 145 Q542 135 532 125 L472 61 Q463 50 452 61 L296 216 L140 61 Q129 50 120 61 L60 125 Q50 135 60 145 L214 298 L59 452 Q48 462 58 472 L119 537 Q128 548 139 537 L296 380 L452 536 Q463 547 472 536 L532 472 L532 472 Z " />
<glyph glyph-name="divide" unicode="&#xf7;" horiz-adv-x="592" d="M269 449 Q237 449 218.5 470.5 Q200 492 200 521 Q200 539 207 555 Q214 571 226 583.5 Q238 596 254 603 Q270 610 288 610 Q319 610 337.5 589 Q356 568 356 539 Q356 521 349 504.5 Q342 488 330.5 476 Q319 464 303 456.5 Q287 449 269 449 Z M51 251 Q37 251 37 265 L37 356 Q37 370 51 370 L542 370 Q556 370 556 356 L556 265 Q556 251 542 251 L51 251 Z M269 14 Q237 14 218.5 35.5 Q200 57 200 86 Q200 104 207 120 Q214 136 226 148.5 Q238 161 254 168 Q270 175 288 175 Q319 175 337.5 154 Q356 133 356 104 Q356 86 349 69.5 Q342 53 330.5 41 Q319 29 303 21.5 Q287 14 269 14 Z " />
<glyph glyph-name="equal" unicode="&#x3d;" horiz-adv-x="592" d="M51 355 Q37 355 37 369 L37 460 Q37 474 51 474 L542 474 Q556 474 556 460 L556 369 Q556 355 542 355 L51 355 Z M51 142 Q37 142 37 156 L37 247 Q37 261 51 261 L542 261 Q556 261 556 247 L556 156 Q556 142 542 142 L51 142 Z " />
<glyph glyph-name="notequal" unicode="&#x2260;" horiz-adv-x="592" d="M556 369 Q556 355 542 355 L347 355 L298 261 L542 261 Q556 261 556 247 L556 156 Q556 142 542 142 L236 142 L189 51 Q185 41 173 41 L131 41 Q123 41 120 46 Q117 51 121 58 L164 142 L51 142 Q37 142 37 156 L37 247 Q37 261 51 261 L226 261 L275 355 L51 355 Q37 355 37 369 L37 460 Q37 474 51 474 L336 474 L381 560 Q385 570 397 570 L439 570 Q447 570 450 565 Q453 560 449 553 L408 474 L542 474 Q556 474 556 460 L556 369 L556 369 Z " />
<glyph glyph-name="greater" unicode="&#x3e;" horiz-adv-x="592" d="M72 8 Q65 4 60 7.5 Q55 11 55 19 L55 132 Q55 143 65 148 L371 292 L65 437 Q55 443 55 453 L55 564 Q55 572 60 575.5 Q65 579 72 575 L569 327 Q579 323 579 311 L579 272 Q579 260 569 256 L72 8 L72 8 Z " />
<glyph glyph-name="less" unicode="&#x3c;" horiz-adv-x="592" d="M556 18 Q556 10 551 7 Q546 4 539 8 L41 256 Q31 260 31 272 L31 311 Q31 321 41 327 L539 575 Q546 579 551 576 Q556 573 556 565 L556 453 Q556 443 546 437 L240 292 L546 148 Q556 143 556 132 L556 18 L556 18 Z " />
<glyph glyph-name="greaterequal" unicode="&#x2265;" horiz-adv-x="592" d="M69 157 Q62 153 57 156.5 Q52 160 52 168 L52 281 Q52 292 62 297 L368 441 L62 586 Q52 592 52 602 L52 713 Q52 721 57 724.5 Q62 728 69 724 L566 476 Q576 472 576 460 L576 421 Q576 409 566 405 L69 157 Z M51 1 Q37 1 37 15 L37 106 Q37 120 51 120 L542 120 Q556 120 556 106 L556 15 Q556 1 542 1 L51 1 Z " />
<glyph glyph-name="lessequal" unicode="&#x2264;" horiz-adv-x="592" d="M543 168 Q543 160 538 156.5 Q533 153 526 157 L29 405 Q19 409 19 421 L19 460 Q19 472 29 476 L526 724 Q533 728 538 725 Q543 722 543 714 L543 602 Q543 592 533 586 L227 441 L533 297 Q543 292 543 281 L543 168 Z M558 15 Q558 1 544 1 L53 1 Q39 1 39 15 L39 106 Q39 120 53 120 L544 120 Q558 120 558 106 L558 15 Z " />
<glyph glyph-name="plusminus" unicode="&#xb1;" horiz-adv-x="592" d="M241 236 Q227 236 227 250 L227 377 L67 377 Q53 377 53 391 L53 482 Q53 496 67 496 L227 496 L227 621 Q227 635 241 635 L326 635 Q340 635 340 621 L340 496 L499 496 Q513 496 513 482 L513 391 Q513 377 499 377 L340 377 L340 250 Q340 236 326 236 L241 236 Z M37 154 Q37 168 51 168 L542 168 Q556 168 556 154 L556 63 Q556 49 542 49 L51 49 Q37 49 37 63 L37 154 Z " />
<glyph glyph-name="approxequal" unicode="&#x2248;" horiz-adv-x="600" d="M386 355 Q351 355 324 370.5 Q297 386 274 403 Q254 417 236 428 Q218 439 197 439 Q173 439 159 421.5 Q145 404 140 374 Q137 361 125 361 L67 361 Q52 361 54 376 Q57 413 66 445.5 Q75 478 91.5 501 Q108 524 131 537.5 Q154 551 185 551 Q218 551 244.5 537 Q271 523 294 506 Q314 491 333 479.5 Q352 468 373 468 Q396 468 408.5 485 Q421 502 423 528 Q425 542 438 542 L498 542 Q513 542 511 523 Q509 486 499.5 455.5 Q490 425 474 402.5 Q458 380 435.5 367.5 Q413 355 386 355 Z M386 124 Q351 124 324 139.5 Q297 155 274 172 Q254 186 236 197 Q218 208 197 208 Q173 208 159 190.5 Q145 173 140 143 Q137 130 125 130 L67 130 Q52 130 54 145 Q57 182 66 214.5 Q75 247 91.5 270 Q108 293 131 306.5 Q154 320 185 320 Q218 320 244.5 306 Q271 292 294 275 Q314 260 333 248.5 Q352 237 373 237 Q396 237 408.5 254 Q421 271 423 297 Q425 311 438 311 L498 311 Q513 311 511 292 Q509 255 499.5 224.5 Q490 194 474 171.5 Q458 149 435.5 136.5 Q413 124 386 124 Z " />
<glyph glyph-name="asciitilde" unicode="&#x7e;" horiz-adv-x="592" d="M386 215 Q351 215 324 230.5 Q297 246 274 263 Q254 277 236 288 Q218 299 197 299 Q173 299 159 281.5 Q145 264 140 234 Q137 221 125 221 L67 221 Q52 221 54 236 Q57 273 66 305.5 Q75 338 91.5 361 Q108 384 131 397.5 Q154 411 185 411 Q218 411 244.5 397 Q271 383 294 366 Q314 351 333 339.5 Q352 328 373 328 Q396 328 408.5 345 Q421 362 423 388 Q425 402 438 402 L498 402 Q513 402 511 383 Q509 346 499.5 315.5 Q490 285 474 262.5 Q458 240 435.5 227.5 Q413 215 386 215 Z " />
<glyph glyph-name="logicalnot" unicode="&#xac;" horiz-adv-x="592" d="M499 425 Q513 425 513 411 L513 154 Q513 140 499 140 L405 140 Q391 140 391 154 L391 308 L67 308 Q53 308 53 322 L53 411 Q53 425 67 425 L499 425 L499 425 Z " />
<glyph glyph-name="infinity" unicode="&#x221e;" horiz-adv-x="863" d="M635 530 Q675 530 710.5 514.5 Q746 499 772.5 470.5 Q799 442 814.5 402.5 Q830 363 830 315 Q830 267 814.5 228 Q799 189 772.5 160.5 Q746 132 711 116.5 Q676 101 636 101 Q604 101 576 111.5 Q548 122 524 139 Q500 156 480 177.5 Q460 199 443 222 Q399 167 351.5 134 Q304 101 248 101 Q206 101 170 117 Q134 133 107 161.5 Q80 190 64.5 228 Q49 266 49 311 Q49 357 65 397 Q81 437 108.5 466.5 Q136 496 173 513 Q210 530 251 530 Q280 530 305.5 519.5 Q331 509 353.5 491.5 Q376 474 395.5 451.5 Q415 429 432 405 Q451 430 472 453 Q493 476 518 493 Q543 510 571.5 520 Q600 530 635 530 Z M244 216 Q272 216 301.5 241 Q331 266 367 315 Q330 365 302 390 Q274 415 245 415 Q230 415 216 407.5 Q202 400 191 386.5 Q180 373 173 355 Q166 337 166 315 Q166 293 172.5 275 Q179 257 190 244 Q201 231 215 223.5 Q229 216 244 216 Z M636 216 Q667 216 690 241 Q713 266 713 312 Q713 360 688.5 387.5 Q664 415 633 415 Q616 415 599.5 406.5 Q583 398 567 383.5 Q551 369 535.5 349.5 Q520 330 504 308 Q541 264 571.5 240 Q602 216 636 216 Z " />
<glyph glyph-name="integral" unicode="&#x222b;" horiz-adv-x="401" d="M25 -210 Q4 -210 -18 -206.5 Q-40 -203 -55 -198 Q-66 -195 -66 -182 L-66 -98 Q-66 -81 -50 -86 Q-32 -91 -10 -91 Q23 -91 40.5 -72 Q58 -53 64 -12 L147 562 Q159 660 200.5 708.5 Q242 757 326 757 Q348 757 369.5 753 Q391 749 407 744 Q418 741 418 728 L418 645 Q418 629 402 634 Q384 639 361 639 Q328 639 310.5 620 Q293 601 287 559 L205 -15 Q192 -113 150.5 -161.5 Q109 -210 25 -210 Z " />
<glyph glyph-name="product" unicode="&#x220f;" horiz-adv-x="694" d="M656 710 Q670 710 670 696 L670 594 Q670 580 656 580 L575 580 L575 -107 Q575 -121 561 -121 L435 -121 Q421 -121 421 -107 L421 580 L284 580 L284 -107 Q284 -121 270 -121 L150 -121 Q136 -121 136 -107 L136 580 L53 580 Q39 580 39 594 L39 696 Q39 710 53 710 L656 710 L656 710 Z " />
<glyph glyph-name="summation" unicode="&#x2211;" horiz-adv-x="540" d="M478 -9 Q492 -9 492 -23 L492 -113 Q492 -127 478 -127 L67 -127 Q53 -127 53 -113 L53 -48 Q53 -38 59 -30 L290 294 L59 613 Q53 620 53 631 L53 696 Q53 710 67 710 L471 710 Q485 710 485 696 L485 606 Q485 592 471 592 L224 592 L432 304 Q440 294 432 284 L222 -9 L478 -9 Z " />
<glyph glyph-name="radical" unicode="&#x221a;" horiz-adv-x="609" d="M456 699 Q459 710 472 710 L570 710 Q586 710 581 694 L287 -119 Q282 -130 271 -130 L226 -130 Q213 -130 209 -119 L14 318 Q8 334 25 334 L128 334 Q140 334 144 323 L245 69 L456 699 L456 699 Z " />
<glyph glyph-name="micro" unicode="&#xb5;" horiz-adv-x="524" d="M354 467 Q356 480 368 480 L481 480 Q495 480 494 465 L442 13 Q440 0 428 0 L334 0 Q320 0 320 14 L322 72 L320 72 Q282 -9 212 -9 Q194 -9 178 -4.5 Q162 0 151 11 L143 -186 Q143 -200 128 -200 L15 -200 Q0 -200 2 -185 L43 66 L79 468 Q81 481 93 481 L205 480 Q219 480 218 465 L183 158 Q182 122 197.5 106.5 Q213 91 239 91 Q271 91 291.5 115 Q312 139 321 179 L354 467 L354 467 Z " />
<glyph glyph-name="partialdiff" unicode="&#x2202;" horiz-adv-x="540" d="M234 720 Q310 720 363 697 Q416 674 449.5 633.5 Q483 593 498.5 537.5 Q514 482 514 418 Q514 333 494 255.5 Q474 178 436.5 119 Q399 60 345 25 Q291 -10 222 -10 Q183 -10 148 4 Q113 18 86.5 45 Q60 72 45 110.5 Q30 149 30 199 Q30 259 50.5 308 Q71 357 105.5 391.5 Q140 426 184.5 444.5 Q229 463 277 463 Q333 463 373 443 Q366 524 325.5 563.5 Q285 603 207 603 Q188 603 171 601.5 Q154 600 139 595 Q123 592 124 608 L136 696 Q138 707 149 710 Q188 720 234 720 Z M243 112 Q269 112 290 132 Q311 152 327 184 Q343 216 353.5 255.5 Q364 295 369 335 Q335 351 294 351 Q269 351 247.5 339.5 Q226 328 210 308 Q194 288 185 260.5 Q176 233 176 201 Q176 161 194 136.5 Q212 112 243 112 Z " />
<glyph glyph-name="percent" unicode="&#x25;" horiz-adv-x="688" d="M53 -3 Q42 5 50 16 L608 728 Q616 740 627 732 L649 717 Q660 709 652 698 L94 -15 Q86 -26 75 -18 L53 -3 Z M200 399 Q175 399 153 409 Q131 419 114.5 437 Q98 455 88.5 480.5 Q79 506 79 538 Q79 579 92.5 612.5 Q106 646 128.5 670 Q151 694 180 707 Q209 720 239 720 Q264 720 286 710 Q308 700 324.5 682 Q341 664 350.5 638 Q360 612 360 580 Q360 539 346.5 505.5 Q333 472 310.5 448.5 Q288 425 259 412 Q230 399 200 399 Z M210 481 Q223 481 234 489 Q245 497 252 510.5 Q259 524 263 541.5 Q267 559 267 577 Q267 604 257.5 621 Q248 638 230 638 Q204 638 188 610 Q172 582 172 542 Q172 516 182 498.5 Q192 481 210 481 Z M479 -10 Q453 -10 431 0 Q409 10 393 28 Q377 46 367.5 71.5 Q358 97 358 129 Q358 170 371.5 203.5 Q385 237 407.5 261 Q430 285 459 298 Q488 311 518 311 Q543 311 565 301 Q587 291 603.5 273 Q620 255 629.5 229 Q639 203 639 171 Q639 130 625.5 96.5 Q612 63 589.5 39.5 Q567 16 538 3 Q509 -10 479 -10 Z M488 72 Q502 72 512.5 80 Q523 88 530.5 101.5 Q538 115 541.5 132.5 Q545 150 545 168 Q545 194 535.5 211.5 Q526 229 508 229 Q483 229 467 200.5 Q451 172 451 133 Q451 106 461 89 Q471 72 488 72 Z " />
<glyph glyph-name="perthousand" unicode="&#x2030;" horiz-adv-x="1013" d="M53 -3 Q42 5 50 16 L608 728 Q616 740 627 732 L649 717 Q660 709 652 698 L94 -15 Q86 -26 75 -18 L53 -3 Z M200 399 Q175 399 153 409 Q131 419 114.5 437 Q98 455 88.5 480.5 Q79 506 79 538 Q79 579 92.5 612.5 Q106 646 128.5 670 Q151 694 180 707 Q209 720 239 720 Q264 720 286 710 Q308 700 324.5 682 Q341 664 350.5 638 Q360 612 360 580 Q360 539 346.5 505.5 Q333 472 310.5 448.5 Q288 425 259 412 Q230 399 200 399 Z M210 481 Q223 481 234 489 Q245 497 252 510.5 Q259 524 263 541.5 Q267 559 267 577 Q267 604 257.5 621 Q248 638 230 638 Q204 638 188 610 Q172 582 172 542 Q172 516 182 498.5 Q192 481 210 481 Z M479 -10 Q453 -10 431 0 Q409 10 393 28 Q377 46 367.5 71.5 Q358 97 358 129 Q358 170 371.5 203.5 Q385 237 407.5 261 Q430 285 459 298 Q488 311 518 311 Q543 311 565 301 Q587 291 603.5 273 Q620 255 629.5 229 Q639 203 639 171 Q639 130 625.5 96.5 Q612 63 589.5 39.5 Q567 16 538 3 Q509 -10 479 -10 Z M804 -10 Q779 -10 757 0 Q735 10 718.5 28 Q702 46 692.5 71.5 Q683 97 683 129 Q683 170 696.5 203.5 Q710 237 732.5 261 Q755 285 784 298 Q813 311 843 311 Q868 311 890.5 301 Q913 291 929 273 Q945 255 954.5 229 Q964 203 964 171 Q964 130 950.5 96.5 Q937 63 914.5 39.5 Q892 16 863 3 Q834 -10 804 -10 Z M488 72 Q502 72 512.5 80 Q523 88 530.5 101.5 Q538 115 541.5 132.5 Q545 150 545 168 Q545 194 535.5 211.5 Q526 229 508 229 Q483 229 467 200.5 Q451 172 451 133 Q451 106 461 89 Q471 72 488 72 Z M814 72 Q827 72 837.5 80 Q848 88 855.5 101.5 Q863 115 866.5 132.5 Q870 150 870 168 Q870 194 861 211.5 Q852 229 833 229 Q808 229 792 200.5 Q776 172 776 133 Q776 106 786 89 Q796 72 814 72 Z " />
<glyph glyph-name="lozenge" unicode="&#x25ca;" horiz-adv-x="592" d="M280 -47 Q271 -47 264 -37 L58 343 Q53 353 58 363 L264 743 Q271 753 280 753 L312 753 Q324 753 328 743 L533 363 Q538 353 533 343 L328 -37 Q322 -47 312 -47 L280 -47 Z M423 353 L297 580 L169 353 L297 125 L423 353 Z " />
<glyph glyph-name="apple" unicode="&#xf8ff;" horiz-adv-x="999" d="M499 -140 Q430 -140 366.5 -122 Q303 -104 247.5 -71.5 Q192 -39 146.5 6.5 Q101 52 68.5 107.5 Q36 163 18 227 Q0 291 0 360 Q0 463 39.5 554 Q79 645 146.5 712.5 Q214 780 305 819.5 Q396 859 499 859 Q602 859 693 819.5 Q784 780 852 712.5 Q920 645 959.5 554 Q999 463 999 360 Q999 256 959.5 165 Q920 74 852 6.5 Q784 -61 693 -100.5 Q602 -140 499 -140 Z M499 109 Q585 109 671.5 112 Q758 115 840 124 Q864 126 876.5 134.5 Q889 143 892 168 Q896 216 896.5 263.5 Q897 311 897 360 Q897 408 896.5 455.5 Q896 503 892 551 Q889 576 876.5 584.5 Q864 593 840 595 Q758 604 671.5 607 Q585 610 499 610 Q413 610 326.5 607 Q240 604 157 595 Q134 593 121.5 584.5 Q109 576 106 551 Q101 503 100.5 455.5 Q100 408 100 360 Q100 311 100.5 263.5 Q101 216 106 168 Q109 143 121.5 134.5 Q134 126 157 124 Q240 115 326.5 112 Q413 109 499 109 Z M499 157 Q456 157 419 173 Q382 189 355 217 Q328 245 312.5 281.5 Q297 318 297 360 Q297 401 312.5 438 Q328 475 355 502.5 Q382 530 419 546 Q456 562 499 562 Q542 562 579 546 Q616 530 643 502.5 Q670 475 685.5 438 Q701 401 701 360 Q701 318 685.5 281.5 Q670 245 643 217 Q616 189 579 173 Q542 157 499 157 Z " />
<glyph glyph-name="at" unicode="&#x40;" horiz-adv-x="808" d="M590 431 Q604 431 603 416 L572 158 Q571 153 571 149 Q571 145 571 141 Q571 101 605 101 Q627 101 647 117 Q667 133 682 161 Q697 189 705.5 226.5 Q714 264 714 307 Q714 369 695.5 421 Q677 473 642.5 510.5 Q608 548 558 569 Q508 590 446 590 Q374 590 310.5 559.5 Q247 529 199 476.5 Q151 424 123 353.5 Q95 283 95 203 Q95 137 114.5 78.5 Q134 20 171.5 -23.5 Q209 -67 263 -92 Q317 -117 386 -117 Q440 -117 496.5 -102 Q553 -87 607 -56 Q615 -51 619.5 -54.5 Q624 -58 623 -66 L619 -96 Q618 -108 609 -112 Q552 -143 494 -156.5 Q436 -170 379 -170 Q300 -170 237.5 -141.5 Q175 -113 131 -63.5 Q87 -14 63.5 53 Q40 120 40 198 Q40 292 73.5 373.5 Q107 455 164 515 Q221 575 295.5 609 Q370 643 451 643 Q524 643 583 618 Q642 593 683 549 Q724 505 746.5 444.5 Q769 384 769 313 Q769 253 754 201.5 Q739 150 712 112.5 Q685 75 647.5 54 Q610 33 566 33 Q524 33 495 53 Q466 73 460 117 Q437 80 405.5 61.5 Q374 43 341 43 Q314 43 291 55 Q268 67 251.5 89.5 Q235 112 226 142.5 Q217 173 217 211 Q217 260 231 302 Q245 344 269 374.5 Q293 405 324 422 Q355 439 390 439 Q460 439 484 361 L492 418 Q494 431 507 431 L590 431 Z M391 133 Q417 133 438 157 Q459 181 467 222 L471 253 L471 264 Q471 303 456.5 325 Q442 347 418 347 Q384 347 359.5 311 Q335 275 335 217 Q335 177 351 155 Q367 133 391 133 Z " />
<glyph glyph-name="ampersand" unicode="&#x26;" horiz-adv-x="641" d="M573 416 Q587 416 586 401 Q584 389 582 377.5 Q580 366 578 355 Q556 222 490 132 L562 17 Q567 10 564 5 Q561 0 553 0 L436 0 Q426 0 419 10 L400 44 Q320 -10 224 -10 Q183 -10 147.5 1 Q112 12 86 34 Q60 56 45 88.5 Q30 121 30 164 Q30 236 71.5 290 Q113 344 185 377 Q167 406 156 439 Q145 472 145 508 Q145 556 163 595.5 Q181 635 211 662.5 Q241 690 280.5 705.5 Q320 721 364 721 Q393 721 418.5 717.5 Q444 714 465 708 Q477 705 475 691 L463 600 Q462 585 446 591 Q418 602 381 602 Q364 602 347.5 595.5 Q331 589 318 577 Q305 565 297.5 547.5 Q290 530 290 508 Q290 473 306 435 Q322 397 348 358 L426 234 Q437 261 445.5 291.5 Q454 322 459 357 Q461 368 462.5 379.5 Q464 391 466 403 Q467 416 480 416 L573 416 Z M163 186 Q163 145 188 121.5 Q213 98 256 98 Q304 98 345 127 L239 301 L236 305 Q199 282 181 253.5 Q163 225 163 186 Z " />
<glyph glyph-name="paragraph" unicode="&#xb6;" horiz-adv-x="574" d="M414 710 Q428 710 427 695 L342 91 Q331 19 303.5 -47 Q276 -113 228 -170 Q221 -178 211 -178 L155 -178 Q146 -178 144 -173 Q142 -168 148 -161 Q197 -105 225.5 -41.5 Q254 22 264 91 L286 250 L270 250 Q227 250 188.5 264 Q150 278 121 304 Q92 330 75 367.5 Q58 405 58 452 Q58 512 82 559.5 Q106 607 145 640.5 Q184 674 233.5 692 Q283 710 334 710 L414 710 Z M478 697 Q480 710 493 710 L543 710 Q557 710 556 695 L496 274 Q488 215 463.5 160.5 Q439 106 407 65 Q400 57 394 60 Q388 63 390 73 L478 697 Z " />
<glyph glyph-name="section" unicode="&#xa7;" horiz-adv-x="521" d="M503 619 Q501 604 486 609 Q468 615 445.5 619.5 Q423 624 400 627.5 Q377 631 355 633 Q333 635 315 635 Q276 635 240 624 L428 265 Q448 228 459 189 Q470 150 470 110 Q470 45 446.5 -10 Q423 -65 381 -105.5 Q339 -146 280.5 -169 Q222 -192 152 -192 Q112 -192 71.5 -184.5 Q31 -177 -3 -161 Q-13 -157 -12 -144 L0 -50 Q2 -33 17 -40 Q53 -56 96.5 -63.5 Q140 -71 182 -71 Q260 -71 313 -46 L120 326 Q101 362 87 401.5 Q73 441 73 490 Q73 553 96.5 602 Q120 651 159 685.5 Q198 720 248.5 738 Q299 756 354 756 Q393 756 433 749.5 Q473 743 505 731 Q516 728 515 715 L503 619 Z M191 601 Q162 581 145.5 551 Q129 521 129 483 Q129 451 140.5 419.5 Q152 388 170 353 L358 -17 Q412 32 412 114 Q412 169 377 236 L191 601 Z " />
<glyph glyph-name="copyright" unicode="&#xa9;" horiz-adv-x="696" d="M317 -11 Q259 -11 210 12 Q161 35 125 76.5 Q89 118 69 176 Q49 234 49 304 Q49 395 79 471.5 Q109 548 159 603.5 Q209 659 273.5 689.5 Q338 720 407 720 Q464 720 513 697 Q562 674 597.5 632 Q633 590 653.5 531 Q674 472 674 400 Q674 310 644.5 234.5 Q615 159 565.5 104.5 Q516 50 451.5 19.5 Q387 -11 317 -11 Z M321 23 Q383 23 440.5 50.5 Q498 78 542.5 127.5 Q587 177 613.5 246 Q640 315 640 398 Q640 463 622 516.5 Q604 570 572.5 608 Q541 646 497.5 666.5 Q454 687 403 687 Q341 687 283 659 Q225 631 181 581 Q137 531 110.5 461 Q84 391 84 307 Q84 243 102 191 Q120 139 151.5 101.5 Q183 64 226.5 43.5 Q270 23 321 23 Z M347 138 Q314 138 286 150.5 Q258 163 237 187 Q216 211 204.5 245 Q193 279 193 322 Q193 379 210.5 425.5 Q228 472 257 504 Q286 536 323.5 553.5 Q361 571 402 571 Q422 571 440.5 567.5 Q459 564 472 559 Q483 555 482 542 L473 475 Q471 459 456 467 Q436 479 407 479 Q384 479 364.5 468 Q345 457 330.5 437.5 Q316 418 307.5 391 Q299 364 299 332 Q299 284 320.5 257.5 Q342 231 374 231 Q404 231 432 244 Q449 252 447 234 L439 173 Q438 162 431 158 Q414 150 392.5 144 Q371 138 347 138 Z " />
<glyph glyph-name="registered" unicode="&#xae;" horiz-adv-x="445" d="M281 720 Q314 720 341 708 Q368 696 387.5 674 Q407 652 417.5 621 Q428 590 428 552 Q428 504 412.5 464 Q397 424 371 395 Q345 366 309 350 Q273 334 233 334 Q200 334 173.5 346 Q147 358 127.5 380 Q108 402 97.5 432.5 Q87 463 87 501 Q87 549 102.5 589 Q118 629 144.5 658.5 Q171 688 206.5 704 Q242 720 281 720 Z M237 359 Q271 359 301 373 Q331 387 353.5 412.5 Q376 438 389 473.5 Q402 509 402 551 Q402 617 368 656 Q334 695 278 695 Q245 695 215 681 Q185 667 162.5 641.5 Q140 616 126.5 581 Q113 546 113 503 Q113 438 147.5 398.5 Q182 359 237 359 Z M332 579 Q332 556 318.5 540 Q305 524 281 518 L322 452 Q327 445 324 440 Q321 435 313 435 L294 435 Q285 435 278 445 L241 512 L235 512 L228 448 Q226 435 213 435 L199 435 Q184 435 186 450 L206 619 Q208 632 221 632 L262 632 Q294 632 313 618 Q332 604 332 579 Z M246 599 L239 540 L248 540 Q268 540 278.5 549.5 Q289 559 289 574 Q289 599 256 599 L246 599 Z " />
<glyph glyph-name="trademark" unicode="&#x2122;" horiz-adv-x="743" d="M336 650 Q334 637 322 637 L248 637 L214 362 Q212 349 199 349 L132 349 Q117 349 119 364 L153 637 L81 637 Q66 637 68 652 L73 697 Q75 710 88 710 L328 710 Q342 710 341 695 L336 650 Z M733 363 Q733 349 720 349 L649 349 Q635 349 635 363 L639 569 L554 363 Q550 352 538 352 L502 352 Q489 352 487 365 L450 569 L396 361 Q393 349 381 349 L320 349 Q303 349 308 365 L404 698 Q407 710 419 710 L492 710 Q505 710 507 697 L538 489 L620 699 Q625 710 636 710 L702 710 Q717 710 717 696 L733 363 Z " />
<glyph glyph-name="degree" unicode="&#xb0;" horiz-adv-x="419" d="M261 419 Q232 419 206.5 429 Q181 439 162 457 Q143 475 132.5 499.5 Q122 524 122 554 Q122 591 136.5 621.5 Q151 652 175.5 674 Q200 696 231.5 708 Q263 720 297 720 Q327 720 352.5 710.5 Q378 701 396.5 683 Q415 665 426 640.5 Q437 616 437 586 Q437 550 422.5 519 Q408 488 383.5 466 Q359 444 327 431.5 Q295 419 261 419 Z M271 500 Q301 500 322 522 Q343 544 343 578 Q343 605 328 621.5 Q313 638 288 638 Q257 638 236 616.5 Q215 595 215 560 Q215 533 230 516.5 Q245 500 271 500 Z " />
<glyph glyph-name="bar" unicode="&#x7c;" horiz-adv-x="190" d="M1 -200 Q-14 -200 -12 -185 L124 827 Q126 840 139 840 L208 840 Q222 840 221 825 L85 -187 Q83 -200 70 -200 L1 -200 L1 -200 Z " />
<glyph glyph-name="brokenbar" unicode="&#xa6;" horiz-adv-x="190" d="M85 421 Q70 421 72 436 L124 827 Q126 840 139 840 L208 840 Q222 840 221 825 L169 434 Q167 421 154 421 L85 421 Z M1 -200 Q-14 -200 -12 -185 L41 206 Q43 219 56 219 L124 219 Q138 219 137 204 L85 -187 Q83 -200 70 -200 L1 -200 Z " />
<glyph glyph-name="dagger" unicode="&#x2020;" horiz-adv-x="382" d="M384 591 Q399 591 397 577 L389 504 Q387 491 373 491 L283 496 L255 262 Q253 249 240 249 L146 249 Q131 249 133 264 L161 496 L71 491 Q56 489 58 505 L66 579 Q67 585 71.5 588 Q76 591 82 591 L172 587 L185 697 Q187 710 200 710 L294 710 Q308 710 307 695 L294 587 L384 591 L384 591 Z " />
<glyph glyph-name="daggerdbl" unicode="&#x2021;" horiz-adv-x="382" d="M392 532 Q390 520 376 520 L286 524 L275 428 L364 432 Q379 432 377 418 L369 345 Q367 332 354 332 L264 336 L255 262 Q253 249 240 249 L146 249 Q131 249 133 264 L142 336 L52 332 Q37 332 39 346 L47 419 Q49 432 62 432 L153 428 L164 524 L75 520 Q60 520 62 534 L70 607 Q71 613 75.5 616 Q80 619 86 619 L176 615 L185 697 Q187 710 200 710 L294 710 Q308 710 307 695 L298 616 L387 619 Q402 619 400 605 L392 532 L392 532 Z " />
<glyph glyph-name="asciicircum" unicode="&#x5e;" horiz-adv-x="600" d="M487 290 Q495 273 477 273 L411 273 Q399 273 394 282 L320 392 L216 280 Q210 273 199 273 L134 273 Q125 273 123 278 Q121 283 126 290 L271 472 Q277 480 289 480 L371 480 Q380 480 387 470 L487 290 L487 290 Z " />
<glyph glyph-name="dieresiscomb" unicode="&#x308;" d="M-41 596 Q-67 596 -83 615.5 Q-99 635 -99 661 Q-99 677 -93 691.5 Q-87 706 -77 717 Q-67 728 -53.5 734.5 Q-40 741 -24 741 Q2 741 17.5 722 Q33 703 33 677 Q33 661 27 646.5 Q21 632 11 620.5 Q1 609 -12.5 602.5 Q-26 596 -41 596 Z M135 596 Q109 596 93 615.5 Q77 635 77 661 Q77 677 83 691.5 Q89 706 99 717 Q109 728 122.5 734.5 Q136 741 152 741 Q178 741 193.5 722 Q209 703 209 677 Q209 661 203 646.5 Q197 632 187 620.5 Q177 609 163.5 602.5 Q150 596 135 596 Z " />
<glyph glyph-name="dotaccentcomb" unicode="&#x307;" d="M45 580 Q16 580 -1.5 601.5 Q-19 623 -19 652 Q-19 670 -12.5 686 Q-6 702 5 714.5 Q16 727 31.5 734 Q47 741 64 741 Q93 741 110 720 Q127 699 127 670 Q127 652 120.5 635.5 Q114 619 103 607 Q92 595 77 587.5 Q62 580 45 580 Z " />
<glyph glyph-name="gravecomb" unicode="&#x300;" d="M126 557 Q130 550 127 545 Q124 540 116 540 L51 540 Q41 540 34 548 L-99 699 Q-104 705 -102.5 710.5 Q-101 716 -93 718 L16 740 Q28 743 34 731 L126 557 L126 557 Z " />
<glyph glyph-name="acutecomb" unicode="&#x301;" d="M-26 540 Q-34 540 -37 545 Q-40 550 -36 557 L56 731 Q62 743 74 740 L183 718 Q191 716 192.5 710.5 Q194 705 189 699 L56 548 Q49 540 39 540 L-26 540 L-26 540 Z " />
<glyph glyph-name="hungarumlautcomb" unicode="&#x30b;" d="M-118 550 Q-126 550 -129 554.5 Q-132 559 -129 566 L-56 761 Q-52 773 -38 770 L52 749 Q67 746 59 731 L-46 559 Q-52 550 -63 550 L-118 550 Z M27 550 Q19 550 15.5 555 Q12 560 16 567 L116 762 Q122 773 134 770 L225 749 Q241 746 231 731 L102 559 Q96 550 85 550 L27 550 Z " />
<glyph glyph-name="circumflexcomb" unicode="&#x302;" d="M187 567 Q190 560 187 555.5 Q184 551 176 551 L113 551 Q100 551 96 562 L53 657 L-17 560 Q-23 551 -34 551 L-96 551 Q-115 551 -105 568 L8 737 Q13 746 25 746 L100 746 Q113 746 117 735 L187 567 L187 567 Z " />
<glyph glyph-name="caroncomb" unicode="&#x30c;" d="M110 733 Q115 741 127 741 L182 741 Q190 741 193 736 Q196 731 191 724 L76 557 Q70 548 59 548 L10 548 Q-3 548 -7 558 L-84 725 Q-91 741 -74 741 L-16 741 Q-7 741 0 731 L46 649 L110 733 L110 733 Z " />
<glyph glyph-name="brevecomb" unicode="&#x306;" d="M41 574 Q17 574 -4 583.5 Q-25 593 -40 609.5 Q-55 626 -64 649 Q-73 672 -73 700 L-73 705 Q-73 718 -59 718 L-16 718 Q-2 718 -2 704 Q1 680 14 665 Q27 650 50 650 Q73 650 90.5 665 Q108 680 116 706 Q119 718 131 718 L173 718 Q188 718 185 700 Q178 672 164 649 Q150 626 130.5 609.5 Q111 593 88 583.5 Q65 574 41 574 Z " />
<glyph glyph-name="ringcomb" unicode="&#x30a;" d="M37 540 Q-4 540 -32 566.5 Q-60 593 -60 635 Q-60 660 -49.5 681.5 Q-39 703 -22 718 Q-5 733 17 741.5 Q39 750 62 750 Q102 750 130.5 724 Q159 698 159 656 Q159 631 148.5 609.5 Q138 588 121 572.5 Q104 557 82 548.5 Q60 540 37 540 Z M43 597 Q65 597 81 612 Q97 627 97 650 Q97 669 85.5 680.5 Q74 692 55 692 Q33 692 17.5 677 Q2 662 2 639 Q2 620 13.5 608.5 Q25 597 43 597 Z " />
<glyph glyph-name="tildecomb" unicode="&#x303;" d="M104 567 Q82 567 65.5 578.5 Q49 590 35 601 Q25 611 15.5 618 Q6 625 -7 625 Q-32 625 -44 586 Q-47 574 -59 574 L-98 574 Q-113 574 -110 589 Q-104 619 -95 644 Q-86 669 -73 688 Q-60 707 -42.5 717.5 Q-25 728 -4 728 Q21 728 37.5 715.5 Q54 703 68 692 Q77 683 85.5 676.5 Q94 670 105 670 Q117 670 125 680 Q133 690 137 705 Q141 718 153 718 L197 718 Q213 718 208 696 Q197 640 171 603.5 Q145 567 104 567 Z " />
<glyph glyph-name="macroncomb" unicode="&#x304;" d="M-85 599 Q-100 599 -98 614 L-90 681 Q-88 694 -76 694 L186 694 Q200 694 199 679 L191 612 Q189 599 176 599 L-85 599 L-85 599 Z " />
<glyph glyph-name="cedillacomb" unicode="&#x327;" d="M-15 -35 Q14 -37 33 -54 Q52 -71 52 -98 Q52 -137 17 -162.5 Q-18 -188 -73 -188 Q-110 -188 -134 -180 Q-144 -177 -143 -164 L-140 -135 Q-138 -119 -123 -124 Q-113 -126 -101.5 -128 Q-90 -130 -78 -130 Q-60 -130 -46 -123.5 Q-32 -117 -32 -104 Q-32 -93 -43.5 -86.5 Q-55 -80 -73 -80 Q-85 -80 -95 -83 Q-97 -82 -99 -79 Q-103 -72 -100 -68 L-49 8 Q-44 17 -32 17 L2 17 Q10 17 13 12.5 Q16 8 11 0 L-15 -35 L-15 -35 Z " />
<glyph glyph-name="ogonekcomb" unicode="&#x328;" horiz-adv-x="560" d="M245 -189 Q202 -189 174 -165.5 Q146 -142 146 -102 Q146 -55 188.5 -19.5 Q231 16 305 43 Q316 47 324 40 L340 26 Q353 15 336 6 Q279 -22 257 -46 Q235 -70 235 -90 Q235 -107 245.5 -115.5 Q256 -124 273 -124 Q279 -124 286 -123 Q293 -122 299 -120 Q307 -117 311 -120 Q315 -123 314 -131 L310 -164 Q308 -176 301 -178 Q277 -189 245 -189 Z " />
<glyph glyph-name="slashshortcomb" unicode="&#x337;" horiz-adv-x="508" d="M65 -30 Q57 -30 54.5 -25.5 Q52 -21 57 -13 L469 539 Q475 548 486 548 L525 548 Q533 548 535.5 543.5 Q538 539 533 531 L122 -21 Q116 -30 105 -30 L65 -30 L65 -30 Z " />
<glyph glyph-name="slashlongcomb" unicode="&#x338;" horiz-adv-x="614" d="M66 -19 Q58 -19 55.5 -14.5 Q53 -10 58 -2 L597 714 Q602 722 614 722 L653 722 Q661 722 663.5 717.5 Q666 713 661 705 L124 -10 Q118 -19 107 -19 L66 -19 L66 -19 Z " />
<glyph glyph-name="acute" unicode="&#xb4;" horiz-adv-x="500" d="M177 540 Q169 540 166 545 Q163 550 167 557 L259 731 Q265 743 277 740 L386 718 Q394 716 395.5 710.5 Q397 705 392 699 L259 548 Q252 540 242 540 L177 540 L177 540 Z " />
<glyph glyph-name="breve" unicode="&#x2d8;" horiz-adv-x="500" d="M291 574 Q267 574 246 583.5 Q225 593 210 609.5 Q195 626 186 649 Q177 672 177 700 L177 705 Q177 718 191 718 L234 718 Q248 718 248 704 Q251 680 264 665 Q277 650 300 650 Q323 650 340.5 665 Q358 680 366 706 Q369 718 381 718 L423 718 Q438 718 435 700 Q428 672 414 649 Q400 626 380.5 609.5 Q361 593 338 583.5 Q315 574 291 574 Z " />
<glyph glyph-name="caron" unicode="&#x2c7;" horiz-adv-x="500" d="M360 733 Q365 741 377 741 L432 741 Q440 741 443 736 Q446 731 441 724 L326 557 Q320 548 309 548 L260 548 Q247 548 243 558 L166 725 Q159 741 176 741 L234 741 Q243 741 250 731 L296 649 L360 733 L360 733 Z " />
<glyph glyph-name="cedilla" unicode="&#xb8;" horiz-adv-x="500" d="M235 -35 Q264 -37 283 -54 Q302 -71 302 -98 Q302 -137 267 -162.5 Q232 -188 177 -188 Q140 -188 116 -180 Q106 -177 107 -164 L110 -135 Q112 -119 127 -124 Q137 -126 148.5 -128 Q160 -130 172 -130 Q190 -130 204 -123.5 Q218 -117 218 -104 Q218 -93 206.5 -86.5 Q195 -80 177 -80 Q165 -80 155 -83 Q153 -82 151 -79 Q147 -72 150 -68 L201 8 Q206 17 218 17 L252 17 Q260 17 263 12.5 Q266 8 261 0 L235 -35 L235 -35 Z " />
<glyph glyph-name="circumflex" unicode="&#x2c6;" horiz-adv-x="500" d="M436 567 Q439 560 436 555.5 Q433 551 425 551 L362 551 Q349 551 345 562 L302 657 L232 560 Q226 551 215 551 L153 551 Q134 551 144 568 L257 737 Q262 746 274 746 L349 746 Q362 746 366 735 L436 567 L436 567 Z " />
<glyph glyph-name="dieresis" unicode="&#xa8;" horiz-adv-x="500" d="M209 596 Q183 596 167 615.5 Q151 635 151 661 Q151 677 157 691.5 Q163 706 173 717 Q183 728 196.5 734.5 Q210 741 226 741 Q252 741 267.5 722 Q283 703 283 677 Q283 661 277 646.5 Q271 632 261 620.5 Q251 609 237.5 602.5 Q224 596 209 596 Z M385 596 Q359 596 343 615.5 Q327 635 327 661 Q327 677 333 691.5 Q339 706 349 717 Q359 728 372.5 734.5 Q386 741 402 741 Q428 741 443.5 722 Q459 703 459 677 Q459 661 453 646.5 Q447 632 437 620.5 Q427 609 413.5 602.5 Q400 596 385 596 Z " />
<glyph glyph-name="dotaccent" unicode="&#x2d9;" horiz-adv-x="500" d="M295 580 Q266 580 248.5 601.5 Q231 623 231 652 Q231 670 237.5 686 Q244 702 255 714.5 Q266 727 281.5 734 Q297 741 314 741 Q343 741 360 720 Q377 699 377 670 Q377 652 370.5 635.5 Q364 619 353 607 Q342 595 327 587.5 Q312 580 295 580 Z " />
<glyph glyph-name="grave" unicode="&#x60;" horiz-adv-x="500" d="M430 557 Q434 550 431 545 Q428 540 420 540 L355 540 Q345 540 338 548 L205 699 Q200 705 201.5 710.5 Q203 716 211 718 L320 740 Q332 743 338 731 L430 557 L430 557 Z " />
<glyph glyph-name="hungarumlaut" unicode="&#x2dd;" horiz-adv-x="500" d="M129 550 Q121 550 118 554.5 Q115 559 118 566 L191 761 Q195 773 209 770 L299 749 Q314 746 306 731 L201 559 Q195 550 184 550 L129 550 Z M274 550 Q266 550 262.5 555 Q259 560 263 567 L363 762 Q369 773 381 770 L472 749 Q488 746 478 731 L349 559 Q343 550 332 550 L274 550 Z " />
<glyph glyph-name="macron" unicode="&#xaf;" horiz-adv-x="500" d="M165 599 Q150 599 152 614 L160 681 Q162 694 174 694 L436 694 Q450 694 449 679 L441 612 Q439 599 426 599 L165 599 L165 599 Z " />
<glyph glyph-name="ogonek" unicode="&#x2db;" horiz-adv-x="500" d="M212 -189 Q169 -189 141 -165.5 Q113 -142 113 -102 Q113 -55 155.5 -19.5 Q198 16 272 43 Q283 47 291 40 L307 26 Q320 15 303 6 Q246 -22 224 -46 Q202 -70 202 -90 Q202 -107 212.5 -115.5 Q223 -124 240 -124 Q246 -124 253 -123 Q260 -122 266 -120 Q274 -117 278 -120 Q282 -123 281 -131 L277 -164 Q275 -176 268 -178 Q244 -189 212 -189 Z " />
<glyph glyph-name="ring" unicode="&#x2da;" horiz-adv-x="500" d="M287 540 Q246 540 218 566.5 Q190 593 190 635 Q190 660 200.5 681.5 Q211 703 228 718 Q245 733 267 741.5 Q289 750 312 750 Q352 750 380.5 724 Q409 698 409 656 Q409 631 398.5 609.5 Q388 588 371 572.5 Q354 557 332 548.5 Q310 540 287 540 Z M293 597 Q315 597 331 612 Q347 627 347 650 Q347 669 335.5 680.5 Q324 692 305 692 Q283 692 267.5 677 Q252 662 252 639 Q252 620 263.5 608.5 Q275 597 293 597 Z " />
<glyph glyph-name="tilde" unicode="&#x2dc;" horiz-adv-x="500" d="M354 567 Q332 567 315.5 578.5 Q299 590 285 601 Q275 611 265.5 618 Q256 625 243 625 Q218 625 206 586 Q203 574 191 574 L152 574 Q137 574 140 589 Q146 619 155 644 Q164 669 177 688 Q190 707 207.5 717.5 Q225 728 246 728 Q271 728 287.5 715.5 Q304 703 318 692 Q327 683 335.5 676.5 Q344 670 355 670 Q367 670 375 680 Q383 690 387 705 Q391 718 403 718 L447 718 Q463 718 458 696 Q447 640 421 603.5 Q395 567 354 567 Z " />
<glyph glyph-name="A" unicode="A" horiz-adv-x="607" d="M425 0 Q412 0 410 13 L391 131 L188 131 Q175 100 162.5 70 Q150 40 138 11 Q132 0 121 0 L-3 0 Q-20 0 -14 16 L296 701 Q300 712 313 712 L410 712 Q423 712 426 700 L566 15 Q569 0 553 0 L425 0 Z M373 241 Q363 305 353 367 Q343 429 334 486 Q310 429 284.5 367 Q259 305 233 241 L373 241 Z " />
<glyph glyph-name="Aacute" unicode="&#xc1;" horiz-adv-x="610" d="M425 0 Q412 0 410 13 L391 131 L188 131 Q175 100 162.5 70 Q150 40 138 11 Q132 0 121 0 L-3 0 Q-20 0 -14 16 L296 701 Q300 712 313 712 L410 712 Q423 712 426 700 L566 15 Q569 0 553 0 L425 0 Z M373 241 Q363 305 353 367 Q343 429 334 486 Q310 429 284.5 367 Q259 305 233 241 L373 241 Z M327 758 Q319 758 316 763 Q313 768 317 775 L389 907 Q396 917 405 917 L530 918 Q539 918 542 913 Q545 908 538 901 L401 765 Q394 758 384 758 L327 758 L327 758 Z " />
</font>
</svg>
