<?xml version="1.0" encoding="UTF-8"?>
<svg xmlns="http://www.w3.org/2000/svg" xmlns:xlink="http://www.w3.org/1999/xlink" version="1.2" >
<font id="GlobotipoCondensada-BlackItalic">
<font-face  font-family="Globotipo Condensada" units-per-em="1000" ascent="1000" descent="-400" font-style="italic" font-weight="900" font-stretch="condensed" slope="-7" cap-height="710" x-height="480" underline-position="-75" underline-thickness="50" />
<missing-glyph  horiz-adv-x="700" d="M350 709 Q423 709 487.5 681 Q552 653 600 605 Q648 557 676 492.5 Q704 428 704 355 Q704 281 676 216.5 Q648 152 600 104 Q552 56 487.5 28 Q423 0 350 0 Q276 0 211.5 28 Q147 56 99 104 Q51 152 23 216.5 Q-5 281 -5 355 Q-5 428 23 492.5 Q51 557 99 605 Q147 653 211.5 681 Q276 709 350 709 Z M350 20 Q419 20 480 46.5 Q541 73 586 118.5 Q631 164 657.5 225 Q684 286 684 355 Q684 424 657.5 485 Q631 546 586 591 Q541 636 480 662.5 Q419 689 350 689 Q281 689 220 662.5 Q159 636 113.5 591 Q68 546 41.5 485 Q15 424 15 355 Q15 286 41.5 225 Q68 164 113.5 118.5 Q159 73 220 46.5 Q281 20 350 20 Z M545 563 Q555 569 556.5 558.5 Q558 548 550 540 L364 354 L555 163 L559 159 Q565 148 554.5 147 Q544 146 536 154 L350 340 L159 149 L155 145 Q145 139 143.5 149.5 Q142 160 150 168 L336 354 L145 545 L141 549 Q135 560 145.5 561 Q156 562 164 554 L350 368 L541 559 L545 563 Z " />
<glyph glyph-name=".null" d="" />
<glyph glyph-name="nonmarkingreturn" unicode="&#xd;" horiz-adv-x="185" d="" />
<glyph glyph-name="space" unicode="&#x20;" horiz-adv-x="185" d="" />
<glyph glyph-name="Adieresis" unicode="&#xc4;" horiz-adv-x="664" d="M428 0 Q408 0 407 19 Q401 58 398 97 L226 97 Q218 77 210.5 56.5 Q203 36 195 16 Q189 0 172 0 L2 0 Q-23 0 -13 23 L297 696 Q304 711 320 711 L459 711 Q478 711 481 693 L624 22 Q629 0 607 0 L428 0 Z M381 235 L357 440 Q337 389 317.5 337.5 Q298 286 278 235 L381 235 Z M302 771 Q272 771 255 791.5 Q238 812 238 839 Q238 855 244.5 870.5 Q251 886 262 897 Q273 908 288 915 Q303 922 320 922 Q349 922 365.5 902.5 Q382 883 382 855 Q382 839 376 824 Q370 809 359 797 Q348 785 333.5 778 Q319 771 302 771 Z M496 771 Q466 771 449 791.5 Q432 812 432 839 Q432 855 438.5 870.5 Q445 886 456 897 Q467 908 482 915 Q497 922 514 922 Q543 922 559.5 902.5 Q576 883 576 855 Q576 839 570 824 Q564 809 553 797 Q542 785 527.5 778 Q513 771 496 771 Z " />
<glyph glyph-name="Agrave" unicode="&#xc0;" horiz-adv-x="664" d="M428 0 Q408 0 407 19 Q401 58 398 97 L226 97 Q218 77 210.5 56.5 Q203 36 195 16 Q189 0 172 0 L2 0 Q-23 0 -13 23 L297 696 Q304 711 320 711 L459 711 Q478 711 481 693 L624 22 Q629 0 607 0 L428 0 Z M381 235 L357 440 Q337 389 317.5 337.5 Q298 286 278 235 L381 235 Z M444 786 Q449 764 427 764 L348 764 Q332 764 324 776 L224 913 Q216 923 220 930 Q224 937 236 937 L388 936 Q405 936 410 919 L444 786 L444 786 Z " />
<glyph glyph-name="Aring" unicode="&#xc5;" horiz-adv-x="664" d="M428 0 Q408 0 407 19 Q401 58 398 97 L226 97 Q218 77 210.5 56.5 Q203 36 195 16 Q189 0 172 0 L2 0 Q-23 0 -13 23 L297 696 Q304 711 320 711 L459 711 Q478 711 481 693 L624 22 Q629 0 607 0 L428 0 Z M381 235 L357 440 Q337 389 317.5 337.5 Q298 286 278 235 L381 235 Z M395 749 Q372 749 351.5 757 Q331 765 316 779 Q301 793 292 812.5 Q283 832 283 855 Q283 883 295 906 Q307 929 327 946 Q347 963 372 972.5 Q397 982 423 982 Q469 982 502 953 Q535 924 535 877 Q535 850 523 826.5 Q511 803 491.5 785.5 Q472 768 446.5 758.5 Q421 749 395 749 Z M404 821 Q424 821 439 835 Q454 849 454 870 Q454 887 443 898 Q432 909 414 909 Q394 909 379.5 894.5 Q365 880 365 860 Q365 843 375.5 832 Q386 821 404 821 Z " />
<glyph glyph-name="Atilde" unicode="&#xc3;" horiz-adv-x="664" d="M428 0 Q408 0 407 19 Q401 58 398 97 L226 97 Q218 77 210.5 56.5 Q203 36 195 16 Q189 0 172 0 L2 0 Q-23 0 -13 23 L297 696 Q304 711 320 711 L459 711 Q478 711 481 693 L624 22 Q629 0 607 0 L428 0 Z M381 235 L357 440 Q337 389 317.5 337.5 Q298 286 278 235 L381 235 Z M352 818 Q334 818 325 798 Q319 780 303 780 L254 780 Q232 780 235 801 Q238 834 245.5 861.5 Q253 889 265.5 909 Q278 929 296 940.5 Q314 952 339 952 Q365 952 385.5 940.5 Q406 929 423 919 Q434 913 442.5 908.5 Q451 904 460 904 Q476 904 483 926 Q489 944 505 944 L561 944 Q583 944 581 923 Q578 890 570.5 862.5 Q563 835 550 814.5 Q537 794 519 782.5 Q501 771 477 771 Q454 771 433.5 782 Q413 793 395 802 Q382 809 372.5 813.5 Q363 818 352 818 Z " />
<glyph glyph-name="AE" unicode="&#xc6;" horiz-adv-x="866" d="M872 576 Q870 557 851 557 L657 557 L643 437 L799 437 Q820 437 817 416 L803 303 Q801 284 782 284 L624 284 L608 153 L799 153 Q821 153 818 132 L804 19 Q802 0 783 0 L419 0 Q398 0 401 21 L409 90 L237 90 L198 14 Q191 0 175 0 L3 0 Q-8 0 -12 7 Q-16 14 -11 24 L362 696 Q369 710 386 710 L868 710 Q889 710 886 689 L872 576 Z M427 233 L464 540 L309 233 L427 233 Z " />
<glyph glyph-name="B" unicode="B" horiz-adv-x="601" d="M436 379 Q505 365 540 326.5 Q575 288 575 231 Q575 176 550 133 Q525 90 480.5 60.5 Q436 31 374 15.5 Q312 0 237 0 L49 0 Q27 0 30 21 L122 691 Q125 710 144 710 L337 710 Q454 710 520 671 Q586 632 586 551 Q586 487 546 441 Q506 395 437 381 L436 379 Z M290 430 Q343 430 367 452 Q391 474 391 515 Q391 575 311 575 L305 575 L285 430 L290 430 Z M250 137 Q310 137 340 161.5 Q370 186 370 229 Q370 261 345.5 279 Q321 297 273 297 L266 297 L244 137 L250 137 Z " />
<glyph glyph-name="C" unicode="C" horiz-adv-x="556" d="M315 -9 Q258 -9 209 12 Q160 33 123 73 Q86 113 65 169.5 Q44 226 44 298 Q44 396 76.5 474 Q109 552 163 607 Q217 662 287 691 Q357 720 433 720 Q469 720 502.5 713.5 Q536 707 559 697 Q574 691 571 673 L551 532 Q548 509 527 522 Q488 544 432 544 Q393 544 360 527.5 Q327 511 302.5 482 Q278 453 264.5 412 Q251 371 251 322 Q251 250 286.5 210 Q322 170 378 170 Q406 170 433 177 Q460 184 483 196 Q494 202 500.5 198 Q507 194 505 182 L490 47 Q488 31 478 27 Q446 11 405.5 1 Q365 -9 315 -9 Z " />
<glyph glyph-name="Ccedilla" unicode="&#xc7;" horiz-adv-x="556" d="M433 720 Q469 720 502.5 713.5 Q536 707 559 697 Q574 691 571 673 L551 532 Q548 509 527 522 Q488 544 432 544 Q393 544 360 527.5 Q327 511 302.5 482 Q278 453 264.5 412 Q251 371 251 322 Q251 250 286.5 210 Q322 170 378 170 Q406 170 433 177 Q460 184 483 196 Q494 202 500.5 198 Q507 194 505 182 L490 47 Q489 32 474 25 Q448 12 416.5 3.5 Q385 -5 347 -8 L333 -29 Q360 -34 377.5 -51.5 Q395 -69 395 -96 Q395 -138 356.5 -166 Q318 -194 255 -194 Q218 -194 197 -188 Q188 -186 184.5 -179 Q181 -172 182 -164 L186 -133 Q189 -113 209 -117 Q229 -122 247 -122 Q261 -122 271.5 -117.5 Q282 -113 282 -103 Q282 -94 272 -89 Q262 -84 246 -84 L235 -84 Q231 -82 229 -78 Q224 -71 229 -63 L266 -5 Q218 4 177.5 28.5 Q137 53 107.5 91.5 Q78 130 61 182 Q44 234 44 298 Q44 396 76.5 474 Q109 552 163 607 Q217 662 287 691 Q357 720 433 720 Z " />
<glyph glyph-name="D" unicode="D" horiz-adv-x="671" d="M49 0 Q27 0 30 21 L123 691 Q126 710 145 710 L314 710 Q396 710 459.5 687.5 Q523 665 566.5 624.5 Q610 584 632.5 527.5 Q655 471 655 403 Q655 317 624 243 Q593 169 536 115 Q479 61 397.5 30.5 Q316 0 215 0 L49 0 Z M253 162 Q302 162 339 180 Q376 198 400 229 Q424 260 436 302.5 Q448 345 448 393 Q448 461 417 502 Q386 543 320 548 Q306 548 305 549 L250 161 L253 162 Z " />
<glyph glyph-name="Eth" unicode="&#xd0;" horiz-adv-x="680" d="M323 710 Q405 710 468.5 687.5 Q532 665 575.5 624.5 Q619 584 641.5 527.5 Q664 471 664 403 Q664 317 633 243 Q602 169 545 115 Q488 61 406.5 30.5 Q325 0 224 0 L58 0 Q36 0 39 21 L75 277 L27 277 Q6 277 9 298 L24 413 Q27 432 45 432 L96 432 L132 691 Q135 710 154 710 L323 710 Z M262 162 Q311 162 348 180 Q385 198 409 229 Q433 260 445 302.5 Q457 345 457 393 Q457 461 426 502 Q395 543 329 548 Q315 548 314 549 L296 419 L360 419 Q381 419 378 398 L367 309 Q365 290 346 290 L277 290 L259 161 L262 162 Z " />
<glyph glyph-name="E" unicode="E" horiz-adv-x="506" d="M513 569 Q511 550 492 550 L301 550 L288 440 L440 440 Q462 440 459 419 L444 298 Q442 279 423 279 L268 279 L254 160 L443 160 Q464 160 461 139 L446 19 Q444 0 425 0 L48 0 Q27 0 30 21 L112 691 Q114 710 133 710 L510 710 Q531 710 528 689 L513 569 L513 569 Z " />
<glyph glyph-name="Eacute" unicode="&#xc9;" horiz-adv-x="508" d="M513 569 Q511 550 492 550 L301 550 L288 440 L440 440 Q462 440 459 419 L444 298 Q442 279 423 279 L268 279 L254 160 L443 160 Q464 160 461 139 L446 19 Q444 0 425 0 L48 0 Q27 0 30 21 L112 691 Q114 710 133 710 L510 710 Q531 710 528 689 L513 569 L513 569 Z M281 755 Q270 755 265.5 761.5 Q261 768 266 779 L331 912 Q338 927 354 927 L517 928 Q531 928 534 920 Q537 912 527 903 L382 765 Q372 755 358 755 L281 755 L281 755 Z " />
<glyph glyph-name="Ecircumflex" unicode="&#xca;" horiz-adv-x="508" d="M513 569 Q511 550 492 550 L301 550 L288 440 L440 440 Q462 440 459 419 L444 298 Q442 279 423 279 L268 279 L254 160 L443 160 Q464 160 461 139 L446 19 Q444 0 425 0 L48 0 Q27 0 30 21 L112 691 Q114 710 133 710 L510 710 Q531 710 528 689 L513 569 L513 569 Z M506 779 Q511 768 507 761.5 Q503 755 492 755 L410 755 Q394 755 385 768 L347 827 L292 766 Q281 755 267 755 L186 755 Q173 755 169.5 762 Q166 769 174 779 L281 916 Q290 928 305 928 L412 928 Q428 928 435 914 L506 779 L506 779 Z " />
<glyph glyph-name="Edieresis" unicode="&#xcb;" horiz-adv-x="508" d="M513 569 Q511 550 492 550 L301 550 L288 440 L440 440 Q462 440 459 419 L444 298 Q442 279 423 279 L268 279 L254 160 L443 160 Q464 160 461 139 L446 19 Q444 0 425 0 L48 0 Q27 0 30 21 L112 691 Q114 710 133 710 L510 710 Q531 710 528 689 L513 569 L513 569 Z M234 771 Q204 771 187 791.5 Q170 812 170 839 Q170 855 176.5 870.5 Q183 886 194 897 Q205 908 220 915 Q235 922 252 922 Q281 922 297.5 902.5 Q314 883 314 855 Q314 839 308 824 Q302 809 291 797 Q280 785 265.5 778 Q251 771 234 771 Z M428 771 Q398 771 381 791.5 Q364 812 364 839 Q364 855 370.5 870.5 Q377 886 388 897 Q399 908 414 915 Q429 922 446 922 Q475 922 491.5 902.5 Q508 883 508 855 Q508 839 502 824 Q496 809 485 797 Q474 785 459.5 778 Q445 771 428 771 Z " />
<glyph glyph-name="Egrave" unicode="&#xc8;" horiz-adv-x="508" d="M513 569 Q511 550 492 550 L301 550 L288 440 L440 440 Q462 440 459 419 L444 298 Q442 279 423 279 L268 279 L254 160 L443 160 Q464 160 461 139 L446 19 Q444 0 425 0 L48 0 Q27 0 30 21 L112 691 Q114 710 133 710 L510 710 Q531 710 528 689 L513 569 L513 569 Z M376 786 Q381 764 359 764 L280 764 Q264 764 256 776 L156 913 Q148 923 152 930 Q156 937 168 937 L320 936 Q337 936 342 919 L376 786 L376 786 Z " />
<glyph glyph-name="F" unicode="F" horiz-adv-x="496" d="M509 568 Q506 549 488 549 L311 549 L289 398 L437 398 Q459 398 456 377 L440 257 Q437 238 418 238 L267 238 L237 19 Q234 0 215 0 L49 0 Q27 0 30 21 L123 691 Q126 710 145 710 L507 710 Q528 710 525 689 L509 568 L509 568 Z " />
<glyph glyph-name="G" unicode="G" horiz-adv-x="647" d="M322 -8 Q261 -8 210 13.5 Q159 35 122 74.5 Q85 114 64.5 171 Q44 228 44 300 Q44 399 77 477 Q110 555 165.5 609 Q221 663 294.5 691.5 Q368 720 448 720 Q487 720 529.5 711.5 Q572 703 602 690 Q617 683 615 665 L598 538 Q595 517 574 525 Q547 536 510 543 Q473 550 441 550 Q397 550 361.5 533 Q326 516 301.5 484.5 Q277 453 263.5 408.5 Q250 364 250 309 Q250 243 273.5 203 Q297 163 341 163 Q384 163 416.5 192 Q449 221 454 278 L374 278 Q353 278 356 299 L370 411 Q372 430 391 430 L619 430 Q638 430 640 412 Q642 401 642 390 Q642 379 642 368 Q642 284 618.5 214.5 Q595 145 553 95.5 Q511 46 452 19 Q393 -8 322 -8 Z " />
<glyph glyph-name="H" unicode="H" horiz-adv-x="693" d="M491 691 Q494 710 512 710 L673 710 Q694 710 691 689 L606 19 Q603 0 585 0 L424 0 Q403 0 406 21 L438 276 L263 276 L230 19 Q227 0 209 0 L48 0 Q27 0 30 21 L115 691 Q118 710 136 710 L297 710 Q318 710 315 689 L283 433 L458 433 L491 691 L491 691 Z " />
<glyph glyph-name="I" unicode="I" horiz-adv-x="338" d="M52 0 Q31 0 34 21 L118 691 Q120 710 139 710 L314 710 Q335 710 332 689 L248 19 Q246 0 227 0 L52 0 L52 0 Z " />
<glyph glyph-name="Iacute" unicode="&#xcd;" horiz-adv-x="338" d="M52 0 Q31 0 34 21 L118 691 Q120 710 139 710 L314 710 Q335 710 332 689 L248 19 Q246 0 227 0 L52 0 L52 0 Z M187 755 Q176 755 171.5 761.5 Q167 768 172 779 L237 912 Q244 927 260 927 L423 928 Q437 928 440 920 Q443 912 433 903 L288 765 Q278 755 264 755 L187 755 L187 755 Z " />
<glyph glyph-name="Icircumflex" unicode="&#xce;" horiz-adv-x="338" d="M52 0 Q31 0 34 21 L118 691 Q120 710 139 710 L314 710 Q335 710 332 689 L248 19 Q246 0 227 0 L52 0 L52 0 Z M412 779 Q417 768 413 761.5 Q409 755 398 755 L316 755 Q300 755 291 768 L253 827 L198 766 Q187 755 173 755 L92 755 Q79 755 75.5 762 Q72 769 80 779 L187 916 Q196 928 211 928 L318 928 Q334 928 341 914 L412 779 L412 779 Z " />
<glyph glyph-name="Idieresis" unicode="&#xcf;" horiz-adv-x="338" d="M52 0 Q31 0 34 21 L118 691 Q120 710 139 710 L314 710 Q335 710 332 689 L248 19 Q246 0 227 0 L52 0 L52 0 Z M140 771 Q110 771 93 791.5 Q76 812 76 839 Q76 855 82.5 870.5 Q89 886 100 897 Q111 908 126 915 Q141 922 158 922 Q187 922 203.5 902.5 Q220 883 220 855 Q220 839 214 824 Q208 809 197 797 Q186 785 171.5 778 Q157 771 140 771 Z M334 771 Q304 771 287 791.5 Q270 812 270 839 Q270 855 276.5 870.5 Q283 886 294 897 Q305 908 320 915 Q335 922 352 922 Q381 922 397.5 902.5 Q414 883 414 855 Q414 839 408 824 Q402 809 391 797 Q380 785 365.5 778 Q351 771 334 771 Z " />
<glyph glyph-name="Igrave" unicode="&#xcc;" horiz-adv-x="338" d="M52 0 Q31 0 34 21 L118 691 Q120 710 139 710 L314 710 Q335 710 332 689 L248 19 Q246 0 227 0 L52 0 L52 0 Z M282 786 Q287 764 265 764 L186 764 Q170 764 162 776 L62 913 Q54 923 58 930 Q62 937 74 937 L226 936 Q243 936 248 919 L282 786 L282 786 Z " />
<glyph glyph-name="J" unicode="J" horiz-adv-x="450" d="M112 -8 Q80 -8 53.5 -4 Q27 0 7 8 Q-9 14 -6 32 L11 151 Q14 172 35 166 Q49 161 64 158.5 Q79 156 96 156 Q130 156 153 179.5 Q176 203 183 249 L244 692 Q247 711 266 711 L433 711 Q455 711 452 690 L391 255 Q382 190 357.5 140.5 Q333 91 296.5 58 Q260 25 213 8.5 Q166 -8 112 -8 Z " />
<glyph glyph-name="K" unicode="K" horiz-adv-x="685" d="M713 710 Q725 710 729 703.5 Q733 697 725 686 L487 363 L640 23 Q650 0 625 0 L419 0 Q403 0 397 16 L285 347 L244 19 Q242 0 223 0 L48 0 Q27 0 30 21 L114 691 Q116 710 135 710 L310 710 Q331 710 328 689 L289 372 L494 697 Q502 710 518 710 L713 710 L713 710 Z " />
<glyph glyph-name="L" unicode="L" horiz-adv-x="509" d="M458 172 Q479 172 476 151 L459 19 Q456 0 438 0 L48 0 Q27 0 30 21 L114 691 Q116 710 135 710 L302 710 Q323 710 320 689 L256 172 L458 172 Z " />
<glyph glyph-name="Lslash" unicode="&#x141;" horiz-adv-x="509" d="M458 172 Q479 172 476 151 L459 19 Q456 0 438 0 L48 0 Q27 0 30 21 L61 271 L39 262 Q16 254 16 278 L16 343 Q16 360 32 366 L75 384 L114 691 Q117 710 135 710 L302 710 Q323 710 320 689 L293 472 L326 485 Q337 490 343 485 Q349 480 349 469 L349 405 Q349 388 333 382 L279 360 L256 172 L458 172 Z " />
<glyph glyph-name="M" unicode="M" horiz-adv-x="884" d="M841 21 Q842 0 821 0 L641 0 Q621 0 621 20 L626 376 L489 17 Q483 1 466 1 L361 1 Q343 1 340 19 L281 375 L186 17 Q181 0 163 0 L4 0 Q-7 0 -11 6.5 Q-15 13 -12 23 L184 693 Q188 710 207 710 L378 710 Q397 710 400 692 L456 311 L599 694 Q605 710 622 710 L782 710 Q800 710 802 691 L841 21 L841 21 Z " />
<glyph glyph-name="N" unicode="N" horiz-adv-x="703" d="M516 691 Q518 710 537 710 L683 710 Q704 710 701 689 L617 19 Q615 0 596 0 L472 0 Q455 0 448 14 L259 362 L215 19 Q212 0 194 0 L48 0 Q27 0 30 21 L114 691 Q116 710 135 710 L259 710 Q275 710 282 696 L471 335 L516 691 L516 691 Z " />
<glyph glyph-name="Ntilde" unicode="&#xd1;" horiz-adv-x="703" d="M516 691 Q518 710 537 710 L683 710 Q704 710 701 689 L617 19 Q615 0 596 0 L472 0 Q455 0 448 14 L259 362 L215 19 Q212 0 194 0 L48 0 Q27 0 30 21 L114 691 Q116 710 135 710 L259 710 Q275 710 282 696 L471 335 L516 691 L516 691 Z M376 818 Q358 818 349 798 Q343 780 327 780 L278 780 Q256 780 259 801 Q262 834 269.5 861.5 Q277 889 289.5 909 Q302 929 320 940.5 Q338 952 363 952 Q389 952 409.5 940.5 Q430 929 447 919 Q458 913 466.5 908.5 Q475 904 484 904 Q500 904 507 926 Q513 944 529 944 L585 944 Q607 944 605 923 Q602 890 594.5 862.5 Q587 835 574 814.5 Q561 794 543 782.5 Q525 771 501 771 Q478 771 457.5 782 Q437 793 419 802 Q406 809 396.5 813.5 Q387 818 376 818 Z " />
<glyph glyph-name="O" unicode="O" horiz-adv-x="696" d="M324 -8 Q263 -8 212 13 Q161 34 123.5 73.5 Q86 113 65 170 Q44 227 44 299 Q44 397 75 475 Q106 553 156.5 607.5 Q207 662 271 691 Q335 720 401 720 Q461 720 512.5 699 Q564 678 601 638.5 Q638 599 659 542 Q680 485 680 412 Q680 314 649 236 Q618 158 567.5 104 Q517 50 453 21 Q389 -8 324 -8 Z M340 169 Q376 169 401.5 193 Q427 217 444 252.5 Q461 288 469 329.5 Q477 371 477 406 Q477 433 471.5 458 Q466 483 454.5 502 Q443 521 425.5 532 Q408 543 383 543 Q346 543 320.5 518 Q295 493 278.5 456.5 Q262 420 254.5 378.5 Q247 337 247 304 Q247 277 253 253 Q259 229 270.5 210 Q282 191 299.5 180 Q317 169 340 169 Z " />
<glyph glyph-name="Oacute" unicode="&#xd3;" horiz-adv-x="697" d="M324 -8 Q263 -8 212 13 Q161 34 123.5 73.5 Q86 113 65 170 Q44 227 44 299 Q44 397 75 475 Q106 553 156.5 607.5 Q207 662 271 691 Q335 720 401 720 Q461 720 512.5 699 Q564 678 601 638.5 Q638 599 659 542 Q680 485 680 412 Q680 314 649 236 Q618 158 567.5 104 Q517 50 453 21 Q389 -8 324 -8 Z M340 169 Q376 169 401.5 193 Q427 217 444 252.5 Q461 288 469 329.5 Q477 371 477 406 Q477 433 471.5 458 Q466 483 454.5 502 Q443 521 425.5 532 Q408 543 383 543 Q346 543 320.5 518 Q295 493 278.5 456.5 Q262 420 254.5 378.5 Q247 337 247 304 Q247 277 253 253 Q259 229 270.5 210 Q282 191 299.5 180 Q317 169 340 169 Z M372 755 Q361 755 356.5 761.5 Q352 768 357 779 L422 912 Q429 927 445 927 L608 928 Q622 928 625 920 Q628 912 618 903 L473 765 Q463 755 449 755 L372 755 L372 755 Z " />
<glyph glyph-name="Ocircumflex" unicode="&#xd4;" horiz-adv-x="697" d="M324 -8 Q263 -8 212 13 Q161 34 123.5 73.5 Q86 113 65 170 Q44 227 44 299 Q44 397 75 475 Q106 553 156.5 607.5 Q207 662 271 691 Q335 720 401 720 Q461 720 512.5 699 Q564 678 601 638.5 Q638 599 659 542 Q680 485 680 412 Q680 314 649 236 Q618 158 567.5 104 Q517 50 453 21 Q389 -8 324 -8 Z M340 169 Q376 169 401.5 193 Q427 217 444 252.5 Q461 288 469 329.5 Q477 371 477 406 Q477 433 471.5 458 Q466 483 454.5 502 Q443 521 425.5 532 Q408 543 383 543 Q346 543 320.5 518 Q295 493 278.5 456.5 Q262 420 254.5 378.5 Q247 337 247 304 Q247 277 253 253 Q259 229 270.5 210 Q282 191 299.5 180 Q317 169 340 169 Z M597 779 Q602 768 598 761.5 Q594 755 583 755 L501 755 Q485 755 476 768 L438 827 L383 766 Q372 755 358 755 L277 755 Q264 755 260.5 762 Q257 769 265 779 L372 916 Q381 928 396 928 L503 928 Q519 928 526 914 L597 779 L597 779 Z " />
<glyph glyph-name="Odieresis" unicode="&#xd6;" horiz-adv-x="697" d="M324 -8 Q263 -8 212 13 Q161 34 123.5 73.5 Q86 113 65 170 Q44 227 44 299 Q44 397 75 475 Q106 553 156.5 607.5 Q207 662 271 691 Q335 720 401 720 Q461 720 512.5 699 Q564 678 601 638.5 Q638 599 659 542 Q680 485 680 412 Q680 314 649 236 Q618 158 567.5 104 Q517 50 453 21 Q389 -8 324 -8 Z M340 169 Q376 169 401.5 193 Q427 217 444 252.5 Q461 288 469 329.5 Q477 371 477 406 Q477 433 471.5 458 Q466 483 454.5 502 Q443 521 425.5 532 Q408 543 383 543 Q346 543 320.5 518 Q295 493 278.5 456.5 Q262 420 254.5 378.5 Q247 337 247 304 Q247 277 253 253 Q259 229 270.5 210 Q282 191 299.5 180 Q317 169 340 169 Z M325 771 Q295 771 278 791.5 Q261 812 261 839 Q261 855 267.5 870.5 Q274 886 285 897 Q296 908 311 915 Q326 922 343 922 Q372 922 388.5 902.5 Q405 883 405 855 Q405 839 399 824 Q393 809 382 797 Q371 785 356.5 778 Q342 771 325 771 Z M519 771 Q489 771 472 791.5 Q455 812 455 839 Q455 855 461.5 870.5 Q468 886 479 897 Q490 908 505 915 Q520 922 537 922 Q566 922 582.5 902.5 Q599 883 599 855 Q599 839 593 824 Q587 809 576 797 Q565 785 550.5 778 Q536 771 519 771 Z " />
<glyph glyph-name="Ograve" unicode="&#xd2;" horiz-adv-x="697" d="M324 -8 Q263 -8 212 13 Q161 34 123.5 73.5 Q86 113 65 170 Q44 227 44 299 Q44 397 75 475 Q106 553 156.5 607.5 Q207 662 271 691 Q335 720 401 720 Q461 720 512.5 699 Q564 678 601 638.5 Q638 599 659 542 Q680 485 680 412 Q680 314 649 236 Q618 158 567.5 104 Q517 50 453 21 Q389 -8 324 -8 Z M340 169 Q376 169 401.5 193 Q427 217 444 252.5 Q461 288 469 329.5 Q477 371 477 406 Q477 433 471.5 458 Q466 483 454.5 502 Q443 521 425.5 532 Q408 543 383 543 Q346 543 320.5 518 Q295 493 278.5 456.5 Q262 420 254.5 378.5 Q247 337 247 304 Q247 277 253 253 Q259 229 270.5 210 Q282 191 299.5 180 Q317 169 340 169 Z M467 786 Q472 764 450 764 L371 764 Q355 764 347 776 L247 913 Q239 923 243 930 Q247 937 259 937 L411 936 Q428 936 433 919 L467 786 L467 786 Z " />
<glyph glyph-name="Oslash" unicode="&#xd8;" horiz-adv-x="697" d="M673 719 Q686 719 689.5 712.5 Q693 706 685 695 L620 615 Q649 577 664.5 526 Q680 475 680 412 Q680 314 649 236 Q618 158 567.5 104 Q517 50 453 21 Q389 -8 324 -8 Q226 -8 156 44 L123 4 Q114 -8 98 -8 L49 -8 Q36 -8 33 -1.5 Q30 5 38 16 L103 97 Q75 135 59.5 185.5 Q44 236 44 299 Q44 397 75 475 Q106 553 156.5 607.5 Q207 662 271 691 Q335 720 401 720 Q499 720 569 667 L602 707 Q611 719 626 719 L673 719 Z M247 304 Q247 296 247.5 289 Q248 282 249 275 L445 515 Q422 543 383 543 Q346 543 320.5 518 Q295 493 278.5 456.5 Q262 420 254.5 378.5 Q247 337 247 304 Z M477 406 Q477 414 476.5 421.5 Q476 429 475 437 L280 197 Q291 184 306 176.5 Q321 169 340 169 Q376 169 401.5 193 Q427 217 444 252.5 Q461 288 469 329.5 Q477 371 477 406 Z " />
<glyph glyph-name="Otilde" unicode="&#xd5;" horiz-adv-x="697" d="M324 -8 Q263 -8 212 13 Q161 34 123.5 73.5 Q86 113 65 170 Q44 227 44 299 Q44 397 75 475 Q106 553 156.5 607.5 Q207 662 271 691 Q335 720 401 720 Q461 720 512.5 699 Q564 678 601 638.5 Q638 599 659 542 Q680 485 680 412 Q680 314 649 236 Q618 158 567.5 104 Q517 50 453 21 Q389 -8 324 -8 Z M340 169 Q376 169 401.5 193 Q427 217 444 252.5 Q461 288 469 329.5 Q477 371 477 406 Q477 433 471.5 458 Q466 483 454.5 502 Q443 521 425.5 532 Q408 543 383 543 Q346 543 320.5 518 Q295 493 278.5 456.5 Q262 420 254.5 378.5 Q247 337 247 304 Q247 277 253 253 Q259 229 270.5 210 Q282 191 299.5 180 Q317 169 340 169 Z M375 818 Q357 818 348 798 Q342 780 326 780 L277 780 Q255 780 258 801 Q261 834 268.5 861.5 Q276 889 288.5 909 Q301 929 319 940.5 Q337 952 362 952 Q388 952 408.5 940.5 Q429 929 446 919 Q457 913 465.5 908.5 Q474 904 483 904 Q499 904 506 926 Q512 944 528 944 L584 944 Q606 944 604 923 Q601 890 593.5 862.5 Q586 835 573 814.5 Q560 794 542 782.5 Q524 771 500 771 Q477 771 456.5 782 Q436 793 418 802 Q405 809 395.5 813.5 Q386 818 375 818 Z " />
<glyph glyph-name="OE" unicode="&#x152;" horiz-adv-x="850" d="M854 570 Q851 551 832 551 L658 551 L642 439 L777 439 Q799 439 796 418 L780 299 Q777 280 758 280 L620 280 L603 159 L774 159 Q796 159 793 138 L777 19 Q774 0 755 0 L398 0 Q320 0 255 20.5 Q190 41 143.5 81 Q97 121 71 178 Q45 235 45 309 Q45 403 81 477.5 Q117 552 179 604 Q241 656 323 683 Q405 710 497 710 L852 710 Q873 710 870 689 L854 570 Z M449 539 Q409 539 376 524 Q343 509 319.5 480.5 Q296 452 283 411.5 Q270 371 270 320 Q270 249 303.5 210 Q337 171 398 171 L449 539 Z " />
<glyph glyph-name="P" unicode="P" horiz-adv-x="605" d="M335 710 Q398 710 449.5 695.5 Q501 681 537 653 Q573 625 592.5 584.5 Q612 544 612 492 Q612 430 588 380.5 Q564 331 519.5 296 Q475 261 412 242.5 Q349 224 270 224 L263 224 L238 19 Q236 0 217 0 L48 0 Q27 0 30 21 L113 691 Q115 710 134 710 L335 710 Z M282 372 Q347 374 377 405 Q407 436 407 482 Q407 518 382.5 539.5 Q358 561 305 562 L282 372 Z " />
<glyph glyph-name="Thorn" unicode="&#xde;" horiz-adv-x="611" d="M327 592 Q391 592 442.5 577.5 Q494 563 530 536 Q566 509 585 469.5 Q604 430 604 380 Q604 316 580 265.5 Q556 215 511 179.5 Q466 144 400.5 125 Q335 106 252 106 L251 106 L239 18 Q236 0 217 0 L49 0 Q27 0 30 21 L123 691 Q126 710 145 710 L314 710 Q335 710 332 689 L319 592 L327 592 Z M281 251 Q337 251 364 283.5 Q391 316 391 367 Q391 404 371 425.5 Q351 447 310 447 L298 447 L271 251 L281 251 Z " />
<glyph glyph-name="Q" unicode="Q" horiz-adv-x="702" d="M680 412 Q680 308 645.5 227 Q611 146 555 92 L619 -18 Q628 -35 612 -45 L497 -117 Q480 -128 470 -110 L404 3 Q363 -8 324 -8 Q263 -8 212 13 Q161 34 123.5 73.5 Q86 113 65 170 Q44 227 44 299 Q44 397 75 475 Q106 553 156.5 607.5 Q207 662 271 691 Q335 720 401 720 Q461 720 512.5 699 Q564 678 601 638.5 Q638 599 659 542 Q680 485 680 412 Z M247 304 Q247 277 253 253 Q259 229 270.5 210 Q282 191 299.5 180 Q317 169 340 169 Q376 169 401.5 193 Q427 217 444 252.5 Q461 288 469 329.5 Q477 371 477 406 Q477 433 471.5 458 Q466 483 454.5 502 Q443 521 425.5 532 Q408 543 383 543 Q346 543 320.5 518 Q295 493 278.5 456.5 Q262 420 254.5 378.5 Q247 337 247 304 Z " />
<glyph glyph-name="R" unicode="R" horiz-adv-x="629" d="M611 518 Q611 439 567 382 Q523 325 445 299 L589 24 Q594 13 589.5 6.5 Q585 0 574 0 L389 0 Q371 0 365 15 L262 257 L229 19 Q226 0 207 0 L49 0 Q27 0 30 21 L124 692 Q127 710 146 710 L351 710 Q411 710 459 697 Q507 684 541 659.5 Q575 635 593 599.5 Q611 564 611 518 Z M305 563 L280 381 L283 381 Q344 381 373.5 410 Q403 439 403 485 Q403 522 379.5 542.5 Q356 563 309 563 L305 563 Z " />
<glyph glyph-name="S" unicode="S" horiz-adv-x="541" d="M211 -10 Q163 -10 114.5 -1 Q66 8 28 26 Q12 34 15 51 L34 180 Q36 191 42.5 194 Q49 197 59 192 Q94 174 130.5 163.5 Q167 153 205 153 Q245 153 270 169.5 Q295 186 295 215 Q295 240 275 256 Q255 272 214 291 Q187 303 161.5 319.5 Q136 336 116.5 358 Q97 380 85 409 Q73 438 73 475 Q73 534 98 579.5 Q123 625 163.5 656.5 Q204 688 256.5 704 Q309 720 365 720 Q405 720 443 714.5 Q481 709 513 700 Q530 694 527 676 L511 561 Q508 540 487 546 Q460 556 428.5 561.5 Q397 567 372 567 Q335 567 313 550 Q291 533 291 507 Q291 480 314 464 Q337 448 372 429 Q434 397 471.5 355.5 Q509 314 509 246 Q509 191 487.5 144.5 Q466 98 427 63.5 Q388 29 333 9.5 Q278 -10 211 -10 Z " />
<glyph glyph-name="Scaron" unicode="&#x160;" horiz-adv-x="541" d="M211 -10 Q163 -10 114.5 -1 Q66 8 28 26 Q12 34 15 51 L34 180 Q36 191 42.5 194 Q49 197 59 192 Q94 174 130.5 163.5 Q167 153 205 153 Q245 153 270 169.5 Q295 186 295 215 Q295 240 275 256 Q255 272 214 291 Q187 303 161.5 319.5 Q136 336 116.5 358 Q97 380 85 409 Q73 438 73 475 Q73 534 98 579.5 Q123 625 163.5 656.5 Q204 688 256.5 704 Q309 720 365 720 Q405 720 443 714.5 Q481 709 513 700 Q530 694 527 676 L511 561 Q508 540 487 546 Q460 556 428.5 561.5 Q397 567 372 567 Q335 567 313 550 Q291 533 291 507 Q291 480 314 464 Q337 448 372 429 Q434 397 471.5 355.5 Q509 314 509 246 Q509 191 487.5 144.5 Q466 98 427 63.5 Q388 29 333 9.5 Q278 -10 211 -10 Z M422 918 Q432 928 447 928 L518 928 Q531 928 534 920.5 Q537 913 529 903 L408 766 Q398 755 383 755 L315 755 Q299 755 291 768 L204 904 Q197 914 201.5 921 Q206 928 218 928 L293 928 Q308 928 318 917 L364 865 L422 918 L422 918 Z " />
<glyph glyph-name="T" unicode="T" horiz-adv-x="568" d="M586 710 Q608 710 605 689 L589 571 Q586 552 567 552 L421 552 L347 19 Q344 0 325 0 L165 0 Q143 0 146 21 L221 552 L78 552 Q56 552 59 573 L75 691 Q78 710 97 710 L586 710 L586 710 Z " />
<glyph glyph-name="U" unicode="U" horiz-adv-x="677" d="M308 -8 Q193 -8 125.5 51.5 Q58 111 58 227 Q58 252 61 279 L113 692 Q115 711 134 711 L295 711 Q316 711 313 690 L260 266 Q259 259 258.5 253 Q258 247 258 241 Q258 202 277 183 Q296 164 330 164 Q368 164 393.5 189 Q419 214 425 266 L479 692 Q482 711 500 711 L656 711 Q677 711 674 690 L623 279 Q614 208 587 154.5 Q560 101 518.5 65 Q477 29 423.5 10.5 Q370 -8 308 -8 Z " />
<glyph glyph-name="Uacute" unicode="&#xda;" horiz-adv-x="677" d="M308 -8 Q193 -8 125.5 51.5 Q58 111 58 227 Q58 252 61 279 L113 692 Q115 711 134 711 L295 711 Q316 711 313 690 L260 266 Q259 259 258.5 253 Q258 247 258 241 Q258 202 277 183 Q296 164 330 164 Q368 164 393.5 189 Q419 214 425 266 L479 692 Q482 711 500 711 L656 711 Q677 711 674 690 L623 279 Q614 208 587 154.5 Q560 101 518.5 65 Q477 29 423.5 10.5 Q370 -8 308 -8 Z M366 755 Q355 755 350.5 761.5 Q346 768 351 779 L416 912 Q423 927 439 927 L602 928 Q616 928 619 920 Q622 912 612 903 L467 765 Q457 755 443 755 L366 755 L366 755 Z " />
<glyph glyph-name="Ucircumflex" unicode="&#xdb;" horiz-adv-x="677" d="M308 -8 Q193 -8 125.5 51.5 Q58 111 58 227 Q58 252 61 279 L113 692 Q115 711 134 711 L295 711 Q316 711 313 690 L260 266 Q259 259 258.5 253 Q258 247 258 241 Q258 202 277 183 Q296 164 330 164 Q368 164 393.5 189 Q419 214 425 266 L479 692 Q482 711 500 711 L656 711 Q677 711 674 690 L623 279 Q614 208 587 154.5 Q560 101 518.5 65 Q477 29 423.5 10.5 Q370 -8 308 -8 Z M591 779 Q596 768 592 761.5 Q588 755 577 755 L495 755 Q479 755 470 768 L432 827 L377 766 Q366 755 352 755 L271 755 Q258 755 254.5 762 Q251 769 259 779 L366 916 Q375 928 390 928 L497 928 Q513 928 520 914 L591 779 L591 779 Z " />
<glyph glyph-name="Udieresis" unicode="&#xdc;" horiz-adv-x="677" d="M308 -8 Q193 -8 125.5 51.5 Q58 111 58 227 Q58 252 61 279 L113 692 Q115 711 134 711 L295 711 Q316 711 313 690 L260 266 Q259 259 258.5 253 Q258 247 258 241 Q258 202 277 183 Q296 164 330 164 Q368 164 393.5 189 Q419 214 425 266 L479 692 Q482 711 500 711 L656 711 Q677 711 674 690 L623 279 Q614 208 587 154.5 Q560 101 518.5 65 Q477 29 423.5 10.5 Q370 -8 308 -8 Z M319 771 Q289 771 272 791.5 Q255 812 255 839 Q255 855 261.5 870.5 Q268 886 279 897 Q290 908 305 915 Q320 922 337 922 Q366 922 382.5 902.5 Q399 883 399 855 Q399 839 393 824 Q387 809 376 797 Q365 785 350.5 778 Q336 771 319 771 Z M513 771 Q483 771 466 791.5 Q449 812 449 839 Q449 855 455.5 870.5 Q462 886 473 897 Q484 908 499 915 Q514 922 531 922 Q560 922 576.5 902.5 Q593 883 593 855 Q593 839 587 824 Q581 809 570 797 Q559 785 544.5 778 Q530 771 513 771 Z " />
<glyph glyph-name="Ugrave" unicode="&#xd9;" horiz-adv-x="677" d="M308 -8 Q193 -8 125.5 51.5 Q58 111 58 227 Q58 252 61 279 L113 692 Q115 711 134 711 L295 711 Q316 711 313 690 L260 266 Q259 259 258.5 253 Q258 247 258 241 Q258 202 277 183 Q296 164 330 164 Q368 164 393.5 189 Q419 214 425 266 L479 692 Q482 711 500 711 L656 711 Q677 711 674 690 L623 279 Q614 208 587 154.5 Q560 101 518.5 65 Q477 29 423.5 10.5 Q370 -8 308 -8 Z M461 786 Q466 764 444 764 L365 764 Q349 764 341 776 L241 913 Q233 923 237 930 Q241 937 253 937 L405 936 Q422 936 427 919 L461 786 L461 786 Z " />
<glyph glyph-name="V" unicode="V" horiz-adv-x="681" d="M515 694 Q521 710 538 710 L711 710 Q722 710 726 703.5 Q730 697 725 686 L397 14 Q389 -1 374 -1 L249 -1 Q232 -1 227 16 L65 688 Q60 710 83 710 L264 710 Q282 710 285 692 L351 286 L515 694 L515 694 Z " />
<glyph glyph-name="W" unicode="W" horiz-adv-x="955" d="M801 694 Q807 710 824 710 L983 710 Q1008 710 998 687 L720 15 Q715 0 697 0 L555 0 Q535 0 534 19 L491 391 L345 16 Q339 0 322 0 L182 0 Q163 0 160 18 L66 689 Q63 710 85 710 L260 710 Q278 710 280 691 L309 309 L454 694 Q460 710 477 710 L600 710 Q620 710 621 691 L664 288 L801 694 L801 694 Z " />
<glyph glyph-name="X" unicode="X" horiz-adv-x="629" d="M645 710 Q657 710 661 703 Q665 696 658 686 L434 353 L579 23 Q584 12 579 6 Q574 0 563 0 L383 0 Q366 0 361 17 L307 191 L206 14 Q199 0 182 0 L12 0 Q0 0 -4 7 Q-8 14 -1 24 L235 354 L87 687 Q82 698 87 704 Q92 710 103 710 L284 710 Q301 710 306 693 L360 519 L455 696 Q463 710 479 710 L645 710 L645 710 Z " />
<glyph glyph-name="Y" unicode="Y" horiz-adv-x="625" d="M478 697 Q485 711 502 711 L666 711 Q678 711 682 704 Q686 697 679 687 L414 275 L379 19 Q376 0 357 0 L189 0 Q167 0 170 21 L206 275 L53 688 Q49 699 53.5 705 Q58 711 69 711 L247 711 Q266 711 270 694 L341 436 L478 697 L478 697 Z " />
<glyph glyph-name="Yacute" unicode="&#xdd;" horiz-adv-x="625" d="M478 697 Q485 711 502 711 L666 711 Q678 711 682 704 Q686 697 679 687 L414 275 L379 19 Q376 0 357 0 L189 0 Q167 0 170 21 L206 275 L53 688 Q49 699 53.5 705 Q58 711 69 711 L247 711 Q266 711 270 694 L341 436 L478 697 L478 697 Z M328 770 Q317 770 312.5 776.5 Q308 783 313 794 L378 927 Q385 942 401 942 L564 943 Q578 943 581 935 Q584 927 574 918 L429 780 Q419 770 405 770 L328 770 L328 770 Z " />
<glyph glyph-name="Ydieresis" unicode="&#x178;" horiz-adv-x="625" d="M478 697 Q485 711 502 711 L666 711 Q678 711 682 704 Q686 697 679 687 L414 275 L379 19 Q376 0 357 0 L189 0 Q167 0 170 21 L206 275 L53 688 Q49 699 53.5 705 Q58 711 69 711 L247 711 Q266 711 270 694 L341 436 L478 697 L478 697 Z M283 771 Q253 771 236 791.5 Q219 812 219 839 Q219 855 225.5 870.5 Q232 886 243 897 Q254 908 269 915 Q284 922 301 922 Q330 922 346.5 902.5 Q363 883 363 855 Q363 839 357 824 Q351 809 340 797 Q329 785 314.5 778 Q300 771 283 771 Z M477 771 Q447 771 430 791.5 Q413 812 413 839 Q413 855 419.5 870.5 Q426 886 437 897 Q448 908 463 915 Q478 922 495 922 Q524 922 540.5 902.5 Q557 883 557 855 Q557 839 551 824 Q545 809 534 797 Q523 785 508.5 778 Q494 771 477 771 Z " />
<glyph glyph-name="Z" unicode="Z" horiz-adv-x="550" d="M488 157 Q510 157 507 136 L491 19 Q488 0 469 0 L16 0 Q-6 0 -3 21 L5 81 Q6 89 8 94 Q10 99 14 105 L318 553 L104 553 Q82 553 85 574 L101 691 Q104 710 123 710 L561 710 Q583 710 580 689 L572 629 Q571 621 569 616 Q567 611 563 605 L258 157 L488 157 Z " />
<glyph glyph-name="Zcaron" unicode="&#x17d;" horiz-adv-x="550" d="M488 157 Q510 157 507 136 L491 19 Q488 0 469 0 L16 0 Q-6 0 -3 21 L5 81 Q6 89 8 94 Q10 99 14 105 L318 553 L104 553 Q82 553 85 574 L101 691 Q104 710 123 710 L561 710 Q583 710 580 689 L572 629 Q571 621 569 616 Q567 611 563 605 L258 157 L488 157 Z M417 918 Q427 928 442 928 L513 928 Q526 928 529 920.5 Q532 913 524 903 L403 766 Q393 755 378 755 L310 755 Q294 755 286 768 L199 904 Q192 914 196.5 921 Q201 928 213 928 L288 928 Q303 928 313 917 L359 865 L417 918 L417 918 Z " />
<glyph glyph-name="a" unicode="a" horiz-adv-x="570" d="M363 461 Q365 480 384 480 L537 480 Q558 480 555 459 L501 19 Q499 0 480 0 L328 0 Q307 0 309 21 L316 82 Q291 34 256 13 Q221 -8 180 -8 Q142 -8 113 7.5 Q84 23 64 51 Q44 79 34 118 Q24 157 24 203 Q24 263 40 315 Q56 367 85 406 Q114 445 153.5 467.5 Q193 490 241 490 Q330 490 355 404 L356 404 L363 461 Z M267 143 Q296 143 315 177 Q334 211 334 267 Q334 299 323.5 318 Q313 337 290 337 Q261 337 242 302 Q223 267 223 212 Q223 182 234 162.5 Q245 143 267 143 Z " />
<glyph glyph-name="aacute" unicode="&#xe1;" horiz-adv-x="575" d="M363 461 Q365 480 384 480 L537 480 Q558 480 555 459 L501 19 Q499 0 480 0 L328 0 Q307 0 309 21 L316 82 Q291 34 256 13 Q221 -8 180 -8 Q142 -8 113 7.5 Q84 23 64 51 Q44 79 34 118 Q24 157 24 203 Q24 263 40 315 Q56 367 85 406 Q114 445 153.5 467.5 Q193 490 241 490 Q330 490 355 404 L356 404 L363 461 Z M267 143 Q296 143 315 177 Q334 211 334 267 Q334 299 323.5 318 Q313 337 290 337 Q261 337 242 302 Q223 267 223 212 Q223 182 234 162.5 Q245 143 267 143 Z M277 540 Q265 540 261 547 Q257 554 263 564 L373 754 Q382 771 399 765 L518 727 Q529 723 531 715.5 Q533 708 525 700 L388 551 Q377 540 363 540 L277 540 L277 540 Z " />
<glyph glyph-name="acircumflex" unicode="&#xe2;" horiz-adv-x="575" d="M363 461 Q365 480 384 480 L537 480 Q558 480 555 459 L501 19 Q499 0 480 0 L328 0 Q307 0 309 21 L316 82 Q291 34 256 13 Q221 -8 180 -8 Q142 -8 113 7.5 Q84 23 64 51 Q44 79 34 118 Q24 157 24 203 Q24 263 40 315 Q56 367 85 406 Q114 445 153.5 467.5 Q193 490 241 490 Q330 490 355 404 L356 404 L363 461 Z M267 143 Q296 143 315 177 Q334 211 334 267 Q334 299 323.5 318 Q313 337 290 337 Q261 337 242 302 Q223 267 223 212 Q223 182 234 162.5 Q245 143 267 143 Z M512 566 Q517 555 512 549 Q507 543 496 543 L412 543 Q396 543 389 558 L353 633 L296 555 Q288 543 272 543 L189 543 Q177 543 173.5 549.5 Q170 556 177 567 L289 732 Q298 745 313 745 L416 745 Q434 745 440 730 L512 566 L512 566 Z " />
<glyph glyph-name="adieresis" unicode="&#xe4;" horiz-adv-x="575" d="M363 461 Q365 480 384 480 L537 480 Q558 480 555 459 L501 19 Q499 0 480 0 L328 0 Q307 0 309 21 L316 82 Q291 34 256 13 Q221 -8 180 -8 Q142 -8 113 7.5 Q84 23 64 51 Q44 79 34 118 Q24 157 24 203 Q24 263 40 315 Q56 367 85 406 Q114 445 153.5 467.5 Q193 490 241 490 Q330 490 355 404 L356 404 L363 461 Z M267 143 Q296 143 315 177 Q334 211 334 267 Q334 299 323.5 318 Q313 337 290 337 Q261 337 242 302 Q223 267 223 212 Q223 182 234 162.5 Q245 143 267 143 Z M233 578 Q201 578 182 600 Q163 622 163 651 Q163 669 170 685.5 Q177 702 189 714.5 Q201 727 217 734.5 Q233 742 252 742 Q284 742 302 720.5 Q320 699 320 669 Q320 651 313.5 635 Q307 619 295 606 Q283 593 267 585.5 Q251 578 233 578 Z M437 578 Q405 578 386 600 Q367 622 367 651 Q367 669 374 685.5 Q381 702 393 714.5 Q405 727 421 734.5 Q437 742 456 742 Q488 742 506 720.5 Q524 699 524 669 Q524 651 517.5 635 Q511 619 499 606 Q487 593 471 585.5 Q455 578 437 578 Z " />
<glyph glyph-name="agrave" unicode="&#xe0;" horiz-adv-x="575" d="M363 461 Q365 480 384 480 L537 480 Q558 480 555 459 L501 19 Q499 0 480 0 L328 0 Q307 0 309 21 L316 82 Q291 34 256 13 Q221 -8 180 -8 Q142 -8 113 7.5 Q84 23 64 51 Q44 79 34 118 Q24 157 24 203 Q24 263 40 315 Q56 367 85 406 Q114 445 153.5 467.5 Q193 490 241 490 Q330 490 355 404 L356 404 L363 461 Z M267 143 Q296 143 315 177 Q334 211 334 267 Q334 299 323.5 318 Q313 337 290 337 Q261 337 242 302 Q223 267 223 212 Q223 182 234 162.5 Q245 143 267 143 Z M414 564 Q420 554 416 547 Q412 540 400 540 L314 540 Q300 540 289 551 L152 700 Q144 708 146 715.5 Q148 723 159 727 L278 765 Q295 771 304 754 L414 564 L414 564 Z " />
<glyph glyph-name="aring" unicode="&#xe5;" horiz-adv-x="575" d="M363 461 Q365 480 384 480 L537 480 Q558 480 555 459 L501 19 Q499 0 480 0 L328 0 Q307 0 309 21 L316 82 Q291 34 256 13 Q221 -8 180 -8 Q142 -8 113 7.5 Q84 23 64 51 Q44 79 34 118 Q24 157 24 203 Q24 263 40 315 Q56 367 85 406 Q114 445 153.5 467.5 Q193 490 241 490 Q330 490 355 404 L356 404 L363 461 Z M267 143 Q296 143 315 177 Q334 211 334 267 Q334 299 323.5 318 Q313 337 290 337 Q261 337 242 302 Q223 267 223 212 Q223 182 234 162.5 Q245 143 267 143 Z M326 522 Q303 522 283 530 Q263 538 248 552 Q233 566 224 585.5 Q215 605 215 628 Q215 656 227 679 Q239 702 258.5 719 Q278 736 303.5 745.5 Q329 755 355 755 Q377 755 397.5 747.5 Q418 740 433 726 Q448 712 457 692.5 Q466 673 466 650 Q466 623 454 599.5 Q442 576 422.5 558.5 Q403 541 377.5 531.5 Q352 522 326 522 Z M335 594 Q356 594 370.5 608 Q385 622 385 644 Q385 661 374.5 671.5 Q364 682 346 682 Q325 682 311 667.5 Q297 653 297 633 Q297 616 307.5 605 Q318 594 335 594 Z " />
<glyph glyph-name="atilde" unicode="&#xe3;" horiz-adv-x="575" d="M363 461 Q365 480 384 480 L537 480 Q558 480 555 459 L501 19 Q499 0 480 0 L328 0 Q307 0 309 21 L316 82 Q291 34 256 13 Q221 -8 180 -8 Q142 -8 113 7.5 Q84 23 64 51 Q44 79 34 118 Q24 157 24 203 Q24 263 40 315 Q56 367 85 406 Q114 445 153.5 467.5 Q193 490 241 490 Q330 490 355 404 L356 404 L363 461 Z M267 143 Q296 143 315 177 Q334 211 334 267 Q334 299 323.5 318 Q313 337 290 337 Q261 337 242 302 Q223 267 223 212 Q223 182 234 162.5 Q245 143 267 143 Z M397 549 Q374 549 355 560 Q336 571 320 581 Q309 588 299 593 Q289 598 278 598 Q269 598 261.5 593 Q254 588 249 575 Q241 558 226 558 L178 558 Q168 558 163 563.5 Q158 569 160 580 Q167 613 177.5 641 Q188 669 203 689.5 Q218 710 237.5 721.5 Q257 733 282 733 Q308 733 327 721.5 Q346 710 362 699 Q372 692 380 687.5 Q388 683 397 683 Q406 683 412.5 689.5 Q419 696 423 707 Q427 715 432 719.5 Q437 724 446 724 L501 724 Q511 724 516 716 Q521 708 518 693 Q511 662 500 635.5 Q489 609 474 590 Q459 571 440 560 Q421 549 397 549 Z " />
<glyph glyph-name="ae" unicode="&#xe6;" horiz-adv-x="740" d="M720 303 Q720 277 715.5 253.5 Q711 230 705 213 Q701 198 682 198 L453 198 Q461 169 483 150.5 Q505 132 549 132 Q581 132 610.5 139.5 Q640 147 663 158 Q688 171 685 144 L675 55 Q674 39 661 32 Q632 14 589 3 Q546 -8 494 -8 Q449 -8 410 11 Q371 30 343 63 Q306 25 262 7.5 Q218 -10 168 -10 Q96 -10 53.5 23.5 Q11 57 11 120 Q11 154 24 182 Q37 210 61 230.5 Q85 251 118 263.5 Q151 276 191 281 Q211 283 234.5 284.5 Q258 286 274 285 Q270 322 238 337.5 Q206 353 161 353 Q126 353 94 340 Q69 332 72 356 L83 446 Q84 462 100 468 Q127 479 159 484.5 Q191 490 225 490 Q334 490 388 440 Q452 490 541 490 Q578 490 610.5 479 Q643 468 667.5 445 Q692 422 706 387 Q720 352 720 303 Z M511 365 Q491 365 476.5 348 Q462 331 454 300 L545 300 L545 302 Q547 325 539.5 345 Q532 365 511 365 Z M215 103 Q231 103 244 116.5 Q257 130 262 169 L266 203 Q259 201 251 199.5 Q243 198 236 197 Q187 186 187 138 Q187 121 195 112 Q203 103 215 103 Z " />
<glyph glyph-name="b" unicode="b" horiz-adv-x="565" d="M390 490 Q426 490 454 474.5 Q482 459 501.5 431.5 Q521 404 531.5 366 Q542 328 542 283 Q542 222 526 169 Q510 116 481.5 76.5 Q453 37 414 14.5 Q375 -8 329 -8 Q285 -8 255.5 12.5 Q226 33 212 81 L204 19 Q202 0 183 0 L34 0 Q13 0 16 21 L102 726 Q104 745 123 745 L272 745 Q293 745 290 724 L251 404 L252 404 Q275 449 309.5 469.5 Q344 490 390 490 Z M277 143 Q291 143 303.5 153.5 Q316 164 325.5 181 Q335 198 340.5 221 Q346 244 346 269 Q346 299 335.5 318 Q325 337 302 337 Q287 337 274.5 327 Q262 317 253 300 Q244 283 238.5 260.5 Q233 238 233 212 Q233 182 244 162.5 Q255 143 277 143 Z " />
<glyph glyph-name="c" unicode="c" horiz-adv-x="421" d="M239 -8 Q196 -8 157 6.5 Q118 21 88.5 48.5 Q59 76 41.5 116.5 Q24 157 24 210 Q24 276 47.5 328 Q71 380 110 416 Q149 452 199 470.5 Q249 489 301 489 Q330 489 355.5 485.5 Q381 482 399 476 Q415 470 413 452 L400 345 Q397 325 377 334 Q356 343 328 343 Q308 343 289 334.5 Q270 326 256 311 Q242 296 233.5 274 Q225 252 225 225 Q225 184 247.5 161.5 Q270 139 303 139 Q333 139 358 150 Q382 160 379 136 L366 32 Q365 17 356 13 Q337 5 305.5 -1.5 Q274 -8 239 -8 Z " />
<glyph glyph-name="ccedilla" unicode="&#xe7;" horiz-adv-x="421" d="M328 343 Q308 343 289 334.5 Q270 326 256 311 Q242 296 233.5 274 Q225 252 225 225 Q225 184 247.5 161.5 Q270 139 303 139 Q333 139 358 150 Q382 160 379 136 L366 32 Q364 17 350 11 Q321 -1 274 -6 L259 -29 Q286 -34 303.5 -51.5 Q321 -69 321 -96 Q321 -138 282.5 -166 Q244 -194 181 -194 Q144 -194 123 -188 Q114 -186 110.5 -179 Q107 -172 108 -164 L112 -133 Q115 -113 135 -117 Q155 -122 173 -122 Q187 -122 197.5 -117.5 Q208 -113 208 -103 Q208 -94 198 -89 Q188 -84 172 -84 L161 -84 Q157 -82 155 -78 Q150 -71 155 -63 L192 -4 Q157 3 126 20.5 Q95 38 72.5 65 Q50 92 37 128.5 Q24 165 24 210 Q24 276 47.5 328 Q71 380 110 416 Q149 452 199 470.5 Q249 489 301 489 Q330 489 355.5 485.5 Q381 482 399 476 Q415 470 413 452 L400 345 Q397 324 382 331 Q371 337 357 340 Q343 343 328 343 Z " />
<glyph glyph-name="d" unicode="d" horiz-adv-x="565" d="M395 726 Q397 745 416 745 L568 745 Q589 745 586 724 L500 19 Q498 0 479 0 L327 0 Q306 0 308 21 L315 82 Q289 34 255 13 Q221 -8 176 -8 Q140 -8 111.5 7.5 Q83 23 63.5 51 Q44 79 33.5 117 Q23 155 23 200 Q23 260 39 313 Q55 366 83.5 405.5 Q112 445 151.5 467.5 Q191 490 237 490 Q284 490 313 469.5 Q342 449 354 404 L355 404 L395 726 Z M270 143 Q296 143 314.5 174.5 Q333 206 333 269 Q333 300 321.5 318.5 Q310 337 288 337 Q274 337 262 326.5 Q250 316 241 299.5 Q232 283 227 262 Q222 241 222 219 Q222 184 234.5 163.5 Q247 143 270 143 Z " />
<glyph glyph-name="eth" unicode="&#xf0;" horiz-adv-x="544" d="M425 630 Q476 564 501.5 488.5 Q527 413 527 339 Q527 254 503 189 Q479 124 439 79.5 Q399 35 345.5 12.5 Q292 -10 234 -10 Q190 -10 152 5 Q114 20 85 47.5 Q56 75 39.5 115 Q23 155 23 206 Q23 264 42.5 313 Q62 362 95.5 397 Q129 432 173 451.5 Q217 471 267 471 Q306 471 333 453 Q360 435 372 404 L377 406 Q366 447 344.5 488.5 Q323 530 291 570 L179 519 Q177 518 173 518 L171 518 Q166 520 163 526 Q160 532 158 538 L158 539 Q157 541 157 545 Q157 553 165 556 L264 601 Q249 616 232.5 630.5 Q216 645 198 659 Q192 663 192 668 Q192 673 201 676 L316 714 Q324 716 328 716 Q341 716 349 708 Q363 697 375.5 685.5 Q388 674 399 661 L503 708 Q505 709 509 709 Q516 709 520 701 L524 689 Q525 687 525 683 Q525 675 517 672 L425 630 Z M257 141 Q288 141 308 173 Q328 205 328 264 Q328 292 317 311.5 Q306 331 283 331 Q262 331 248.5 317.5 Q235 304 227 284.5 Q219 265 215.5 244 Q212 223 212 209 Q212 181 223 161 Q234 141 257 141 Z " />
<glyph glyph-name="e" unicode="e" horiz-adv-x="521" d="M296 490 Q337 490 373.5 478 Q410 466 437.5 440.5 Q465 415 481 375 Q497 335 497 278 Q497 230 488.5 213.5 Q480 197 448 197 L224 197 Q232 165 255.5 150 Q279 135 315 135 Q349 135 382 142.5 Q415 150 442 162 Q453 167 459 162.5 Q465 158 463 146 L452 55 Q451 40 438 33 Q410 15 363.5 4 Q317 -7 266 -7 Q210 -7 165.5 8.5 Q121 24 89.5 52.5 Q58 81 41 122 Q24 163 24 214 Q24 276 47 327 Q70 378 107.5 414 Q145 450 194 470 Q243 490 296 490 Z M285 361 Q265 361 250.5 345 Q236 329 228 300 L323 300 L323 304 Q323 330 314 345.5 Q305 361 285 361 Z " />
<glyph glyph-name="eacute" unicode="&#xe9;" horiz-adv-x="522" d="M296 490 Q337 490 373.5 478 Q410 466 437.5 440.5 Q465 415 481 375 Q497 335 497 278 Q497 230 488.5 213.5 Q480 197 448 197 L224 197 Q232 165 255.5 150 Q279 135 315 135 Q349 135 382 142.5 Q415 150 442 162 Q453 167 459 162.5 Q465 158 463 146 L452 55 Q451 40 438 33 Q410 15 363.5 4 Q317 -7 266 -7 Q210 -7 165.5 8.5 Q121 24 89.5 52.5 Q58 81 41 122 Q24 163 24 214 Q24 276 47 327 Q70 378 107.5 414 Q145 450 194 470 Q243 490 296 490 Z M285 361 Q265 361 250.5 345 Q236 329 228 300 L323 300 L323 304 Q323 330 314 345.5 Q305 361 285 361 Z M246 540 Q234 540 230 547 Q226 554 232 564 L342 754 Q351 771 368 765 L487 727 Q498 723 500 715.5 Q502 708 494 700 L357 551 Q346 540 332 540 L246 540 L246 540 Z " />
<glyph glyph-name="ecircumflex" unicode="&#xea;" horiz-adv-x="522" d="M296 490 Q337 490 373.5 478 Q410 466 437.5 440.5 Q465 415 481 375 Q497 335 497 278 Q497 230 488.5 213.5 Q480 197 448 197 L224 197 Q232 165 255.5 150 Q279 135 315 135 Q349 135 382 142.5 Q415 150 442 162 Q453 167 459 162.5 Q465 158 463 146 L452 55 Q451 40 438 33 Q410 15 363.5 4 Q317 -7 266 -7 Q210 -7 165.5 8.5 Q121 24 89.5 52.5 Q58 81 41 122 Q24 163 24 214 Q24 276 47 327 Q70 378 107.5 414 Q145 450 194 470 Q243 490 296 490 Z M285 361 Q265 361 250.5 345 Q236 329 228 300 L323 300 L323 304 Q323 330 314 345.5 Q305 361 285 361 Z M481 566 Q486 555 481 549 Q476 543 465 543 L381 543 Q365 543 358 558 L322 633 L265 555 Q257 543 241 543 L158 543 Q146 543 142.5 549.5 Q139 556 146 567 L258 732 Q267 745 282 745 L385 745 Q403 745 409 730 L481 566 L481 566 Z " />
<glyph glyph-name="edieresis" unicode="&#xeb;" horiz-adv-x="522" d="M296 490 Q337 490 373.5 478 Q410 466 437.5 440.5 Q465 415 481 375 Q497 335 497 278 Q497 230 488.5 213.5 Q480 197 448 197 L224 197 Q232 165 255.5 150 Q279 135 315 135 Q349 135 382 142.5 Q415 150 442 162 Q453 167 459 162.5 Q465 158 463 146 L452 55 Q451 40 438 33 Q410 15 363.5 4 Q317 -7 266 -7 Q210 -7 165.5 8.5 Q121 24 89.5 52.5 Q58 81 41 122 Q24 163 24 214 Q24 276 47 327 Q70 378 107.5 414 Q145 450 194 470 Q243 490 296 490 Z M285 361 Q265 361 250.5 345 Q236 329 228 300 L323 300 L323 304 Q323 330 314 345.5 Q305 361 285 361 Z M202 578 Q170 578 151 600 Q132 622 132 651 Q132 669 139 685.5 Q146 702 158 714.5 Q170 727 186 734.5 Q202 742 221 742 Q253 742 271 720.5 Q289 699 289 669 Q289 651 282.5 635 Q276 619 264 606 Q252 593 236 585.5 Q220 578 202 578 Z M406 578 Q374 578 355 600 Q336 622 336 651 Q336 669 343 685.5 Q350 702 362 714.5 Q374 727 390 734.5 Q406 742 425 742 Q457 742 475 720.5 Q493 699 493 669 Q493 651 486.5 635 Q480 619 468 606 Q456 593 440 585.5 Q424 578 406 578 Z " />
<glyph glyph-name="egrave" unicode="&#xe8;" horiz-adv-x="522" d="M296 490 Q337 490 373.5 478 Q410 466 437.5 440.5 Q465 415 481 375 Q497 335 497 278 Q497 230 488.5 213.5 Q480 197 448 197 L224 197 Q232 165 255.5 150 Q279 135 315 135 Q349 135 382 142.5 Q415 150 442 162 Q453 167 459 162.5 Q465 158 463 146 L452 55 Q451 40 438 33 Q410 15 363.5 4 Q317 -7 266 -7 Q210 -7 165.5 8.5 Q121 24 89.5 52.5 Q58 81 41 122 Q24 163 24 214 Q24 276 47 327 Q70 378 107.5 414 Q145 450 194 470 Q243 490 296 490 Z M285 361 Q265 361 250.5 345 Q236 329 228 300 L323 300 L323 304 Q323 330 314 345.5 Q305 361 285 361 Z M383 564 Q389 554 385 547 Q381 540 369 540 L283 540 Q269 540 258 551 L121 700 Q113 708 115 715.5 Q117 723 128 727 L247 765 Q264 771 273 754 L383 564 L383 564 Z " />
<glyph glyph-name="eogonek" unicode="&#x119;" horiz-adv-x="522" d="M296 490 Q337 490 373.5 478 Q410 466 437.5 440.5 Q465 415 481 375 Q497 335 497 278 Q497 230 488.5 213.5 Q480 197 448 197 L224 197 Q232 165 255.5 150 Q279 135 315 135 Q349 135 382 142.5 Q415 150 442 162 Q453 167 459 162.5 Q465 158 463 146 L452 55 Q451 40 439 33 Q422 22 399 14 Q376 6 349 1 Q294 -24 273.5 -44.5 Q253 -65 253 -85 Q253 -114 288 -114 Q298 -114 309 -111 Q320 -107 326 -111 Q332 -115 330 -127 L326 -165 Q325 -181 309 -187 Q296 -191 281 -193.5 Q266 -196 251 -196 Q200 -196 168 -170.5 Q136 -145 136 -100 Q136 -70 152.5 -45.5 Q169 -21 200 -1 Q118 16 71 71.5 Q24 127 24 214 Q24 276 47 327 Q70 378 107.5 414 Q145 450 194 470 Q243 490 296 490 Z M285 361 Q265 361 250.5 345 Q236 329 228 300 L323 300 L323 304 Q323 330 314 345.5 Q305 361 285 361 Z " />
<glyph glyph-name="f" unicode="f" horiz-adv-x="387" d="M375 600 Q346 600 327 583.5 Q308 567 303 530 L297 480 L392 480 Q413 480 410 459 L400 373 Q399 354 379 354 L281 354 L217 -167 Q215 -186 196 -186 L40 -186 Q19 -186 22 -165 L86 354 L37 354 Q16 354 18 375 L28 461 Q29 480 49 480 L101 480 L108 533 Q122 644 181.5 700 Q241 756 343 756 Q366 756 388 753 Q410 750 427 745 Q444 741 442 721 L428 612 Q425 592 410 596 Q402 598 394 599 Q386 600 375 600 Z " />
<glyph glyph-name="g" unicode="g" horiz-adv-x="572" d="M360 461 Q363 480 381 480 L538 480 Q559 480 556 459 L512 99 Q503 22 472.5 -34 Q442 -90 397 -126 Q352 -162 295 -179 Q238 -196 177 -196 Q132 -196 94 -190.5 Q56 -185 26 -174 Q10 -168 12 -150 L26 -36 Q29 -14 51 -23 Q83 -37 114.5 -43 Q146 -49 172 -49 Q196 -49 218.5 -42.5 Q241 -36 258.5 -22.5 Q276 -9 288 11.5 Q300 32 304 60 L307 80 Q284 55 254.5 41.5 Q225 28 188 28 Q152 28 122.5 42.5 Q93 57 72 83.5 Q51 110 39 147.5 Q27 185 27 230 Q27 288 44.5 336 Q62 384 91 418 Q120 452 157 470.5 Q194 489 233 489 Q271 489 301.5 473.5 Q332 458 350 426 L355 426 L360 461 Z M271 171 Q286 171 298 180.5 Q310 190 318.5 206 Q327 222 331.5 243 Q336 264 336 287 Q336 312 325.5 329.5 Q315 347 291 347 Q277 347 265.5 338 Q254 329 245 314 Q236 299 231 279 Q226 259 226 237 Q226 208 236.5 189.5 Q247 171 271 171 Z " />
<glyph glyph-name="h" unicode="h" horiz-adv-x="561" d="M391 490 Q456 490 495 456.5 Q534 423 534 349 Q534 340 534 331 Q534 322 532 312 L495 19 Q493 0 474 0 L317 0 Q296 0 299 21 L330 280 Q332 290 332 296 Q332 336 294 336 Q271 336 259 321 Q247 306 242 279 L210 19 Q208 0 189 0 L34 0 Q13 0 16 21 L102 726 Q104 745 123 745 L270 745 Q291 745 288 724 L252 428 L253 428 Q303 490 391 490 Z " />
<glyph glyph-name="i" unicode="i" horiz-adv-x="288" d="M173 527 Q128 527 101.5 553.5 Q75 580 75 623 Q75 649 85.5 672.5 Q96 696 114 714 Q132 732 156 743 Q180 754 207 754 Q256 754 282 727 Q308 700 308 658 Q308 631 297.5 607 Q287 583 268.5 565 Q250 547 225.5 537 Q201 527 173 527 Z M38 0 Q17 0 20 21 L74 461 Q76 480 95 480 L251 480 Q272 480 269 459 L215 19 Q213 0 194 0 L38 0 Z " />
<glyph glyph-name="idotless" unicode="&#x131;" horiz-adv-x="288" d="M38 0 Q17 0 20 21 L74 461 Q76 480 95 480 L251 480 Q272 480 269 459 L215 19 Q213 0 194 0 L38 0 L38 0 Z " />
<glyph glyph-name="iacute" unicode="&#xed;" horiz-adv-x="288" d="M38 0 Q17 0 20 21 L74 461 Q76 480 95 480 L251 480 Q272 480 269 459 L215 19 Q213 0 194 0 L38 0 L38 0 Z M121 533 Q97 533 105 556 L176 742 Q182 760 201 755 L338 721 Q349 718 352 711 Q355 704 348 695 L234 545 Q225 533 210 533 L121 533 L121 533 Z " />
<glyph glyph-name="icircumflex" unicode="&#xee;" horiz-adv-x="288" d="M38 0 Q17 0 20 21 L74 461 Q76 480 95 480 L251 480 Q272 480 269 459 L215 19 Q213 0 194 0 L38 0 L38 0 Z M364 566 Q369 555 364 549 Q359 543 348 543 L264 543 Q248 543 241 558 L205 633 L148 555 Q140 543 124 543 L41 543 Q29 543 25.5 549.5 Q22 556 29 567 L141 732 Q150 745 165 745 L268 745 Q286 745 292 730 L364 566 L364 566 Z " />
<glyph glyph-name="idieresis" unicode="&#xef;" horiz-adv-x="288" d="M38 0 Q17 0 20 21 L74 461 Q76 480 95 480 L251 480 Q272 480 269 459 L215 19 Q213 0 194 0 L38 0 L38 0 Z M85 578 Q53 578 34 600 Q15 622 15 651 Q15 669 22 685.5 Q29 702 41 714.5 Q53 727 69 734.5 Q85 742 104 742 Q136 742 154 720.5 Q172 699 172 669 Q172 651 165.5 635 Q159 619 147 606 Q135 593 119 585.5 Q103 578 85 578 Z M289 578 Q257 578 238 600 Q219 622 219 651 Q219 669 226 685.5 Q233 702 245 714.5 Q257 727 273 734.5 Q289 742 308 742 Q340 742 358 720.5 Q376 699 376 669 Q376 651 369.5 635 Q363 619 351 606 Q339 593 323 585.5 Q307 578 289 578 Z " />
<glyph glyph-name="igrave" unicode="&#xec;" horiz-adv-x="288" d="M38 0 Q17 0 20 21 L74 461 Q76 480 95 480 L251 480 Q272 480 269 459 L215 19 Q213 0 194 0 L38 0 L38 0 Z M257 556 Q265 533 241 533 L152 533 Q137 533 128 545 L14 695 Q7 704 10 711 Q13 718 24 721 L161 755 Q180 760 186 742 L257 556 L257 556 Z " />
<glyph glyph-name="j" unicode="j" horiz-adv-x="286" d="M173 527 Q128 527 101.5 553.5 Q75 580 75 623 Q75 649 85.5 672.5 Q96 696 114 714 Q132 732 156 743 Q180 754 207 754 Q256 754 282 727 Q308 700 308 658 Q308 631 297.5 607 Q287 583 268.5 565 Q250 547 225.5 537 Q201 527 173 527 Z M-12 -204 Q-29 -204 -47.5 -202 Q-66 -200 -80 -196 Q-97 -192 -95 -172 L-81 -58 Q-78 -40 -59 -43 Q-54 -44 -49 -44.5 Q-44 -45 -39 -45 Q-16 -45 -0.5 -31 Q15 -17 18 6 L74 461 Q76 480 95 480 L251 480 Q272 480 269 459 L214 5 Q201 -100 143 -152 Q85 -204 -12 -204 Z " />
<glyph glyph-name="k" unicode="k" horiz-adv-x="567" d="M569 480 Q582 480 585.5 473 Q589 466 581 455 L418 260 L532 24 Q537 13 532.5 6.5 Q528 0 517 0 L332 0 Q315 0 309 16 L238 226 L212 19 Q210 0 191 0 L35 0 Q14 0 17 21 L103 726 Q105 745 124 745 L280 745 Q301 745 298 724 L245 289 L364 467 Q373 480 388 480 L569 480 L569 480 Z " />
<glyph glyph-name="l" unicode="l" horiz-adv-x="319" d="M166 -10 Q97 -10 59.5 23 Q22 56 22 125 Q22 135 23 149 Q24 163 26 176 L103 727 Q106 746 125 746 L279 746 Q301 746 298 725 L225 198 Q224 193 223.5 190 Q223 187 223 182 Q223 162 233 153 Q243 144 259 144 Q265 144 270.5 144.5 Q276 145 281 145 Q304 148 301 126 L287 27 Q285 10 274 6 Q254 -2 223 -6 Q192 -10 166 -10 Z " />
<glyph glyph-name="lslash" unicode="&#x142;" horiz-adv-x="319" d="M225 198 Q224 193 223.5 190 Q223 187 223 182 Q223 162 233 153 Q243 144 259 144 Q265 144 270.5 144.5 Q276 145 281 145 Q304 148 301 126 L287 27 Q285 11 271 5 Q250 -2 220.5 -6 Q191 -10 166 -10 Q97 -10 59.5 23 Q22 56 22 125 Q22 135 23 149 Q24 163 26 176 L39 272 L19 264 Q-4 254 -4 279 L-4 344 Q-4 361 12 367 L55 385 L103 728 Q106 746 125 746 L279 746 Q301 746 298 725 L262 468 L306 486 Q329 494 329 470 L329 406 Q329 389 313 383 L247 356 L225 198 Z " />
<glyph glyph-name="m" unicode="m" horiz-adv-x="828" d="M665 490 Q728 490 765.5 453.5 Q803 417 803 350 Q803 343 802.5 336 Q802 329 801 321 L764 19 Q762 0 743 0 L587 0 Q566 0 569 21 L602 288 Q605 313 595 324 Q585 335 567 335 Q549 335 536.5 323.5 Q524 312 521 286 L488 19 Q486 0 467 0 L311 0 Q290 0 293 21 L325 288 Q328 313 318 324 Q308 335 290 335 Q274 335 262.5 326 Q251 317 246 298 Q243 286 243 286 L210 19 Q208 0 189 0 L34 0 Q13 0 16 21 L70 461 Q72 480 91 480 L225 480 Q246 480 243 459 L237 408 Q264 451 304 470.5 Q344 490 392 490 Q436 490 469 470.5 Q502 451 517 414 Q544 454 582 472 Q620 490 665 490 Z " />
<glyph glyph-name="n" unicode="n" horiz-adv-x="559" d="M391 490 Q454 490 493.5 458 Q533 426 533 354 Q533 345 532.5 335.5 Q532 326 531 318 L494 19 Q492 0 473 0 L317 0 Q296 0 299 21 L331 287 Q332 291 332 295 Q332 299 332 302 Q332 344 296 344 Q273 344 259.5 326.5 Q246 309 243 280 L210 19 Q208 0 189 0 L34 0 Q13 0 16 21 L70 461 Q72 480 91 480 L230 480 Q251 480 248 459 L244 426 L246 426 Q303 490 391 490 Z " />
<glyph glyph-name="ntilde" unicode="&#xf1;" horiz-adv-x="562" d="M391 490 Q454 490 493.5 458 Q533 426 533 354 Q533 345 532.5 335.5 Q532 326 531 318 L494 19 Q492 0 473 0 L317 0 Q296 0 299 21 L331 287 Q332 291 332 295 Q332 299 332 302 Q332 344 296 344 Q273 344 259.5 326.5 Q246 309 243 280 L210 19 Q208 0 189 0 L34 0 Q13 0 16 21 L70 461 Q72 480 91 480 L230 480 Q251 480 248 459 L244 426 L246 426 Q303 490 391 490 Z M387 549 Q364 549 345 560 Q326 571 310 581 Q299 588 289 593 Q279 598 268 598 Q259 598 251.5 593 Q244 588 239 575 Q231 558 216 558 L168 558 Q158 558 153 563.5 Q148 569 150 580 Q157 613 167.5 641 Q178 669 193 689.5 Q208 710 227.5 721.5 Q247 733 272 733 Q298 733 317 721.5 Q336 710 352 699 Q362 692 370 687.5 Q378 683 387 683 Q396 683 402.5 689.5 Q409 696 413 707 Q417 715 422 719.5 Q427 724 436 724 L491 724 Q501 724 506 716 Q511 708 508 693 Q501 662 490 635.5 Q479 609 464 590 Q449 571 430 560 Q411 549 387 549 Z " />
<glyph glyph-name="o" unicode="o" horiz-adv-x="542" d="M244 -10 Q195 -10 154.5 6.5 Q114 23 85 52.5 Q56 82 40 123 Q24 164 24 214 Q24 274 46 324 Q68 374 105.5 411 Q143 448 192.5 468.5 Q242 489 297 489 Q347 489 388 473 Q429 457 458 428.5 Q487 400 503 359.5 Q519 319 519 270 Q519 210 496.5 159 Q474 108 436.5 70.5 Q399 33 349 11.5 Q299 -10 244 -10 Z M259 143 Q273 143 285.5 153.5 Q298 164 307 181 Q316 198 321.5 220 Q327 242 327 265 Q327 298 316 317.5 Q305 337 283 337 Q268 337 255.5 326 Q243 315 234 297.5 Q225 280 219.5 259 Q214 238 214 217 Q214 182 225 162.5 Q236 143 259 143 Z " />
<glyph glyph-name="oacute" unicode="&#xf3;" horiz-adv-x="543" d="M244 -10 Q195 -10 154.5 6.5 Q114 23 85 52.5 Q56 82 40 123 Q24 164 24 214 Q24 274 46 324 Q68 374 105.5 411 Q143 448 192.5 468.5 Q242 489 297 489 Q347 489 388 473 Q429 457 458 428.5 Q487 400 503 359.5 Q519 319 519 270 Q519 210 496.5 159 Q474 108 436.5 70.5 Q399 33 349 11.5 Q299 -10 244 -10 Z M259 143 Q273 143 285.5 153.5 Q298 164 307 181 Q316 198 321.5 220 Q327 242 327 265 Q327 298 316 317.5 Q305 337 283 337 Q268 337 255.5 326 Q243 315 234 297.5 Q225 280 219.5 259 Q214 238 214 217 Q214 182 225 162.5 Q236 143 259 143 Z M257 540 Q245 540 241 547 Q237 554 243 564 L353 754 Q362 771 379 765 L498 727 Q509 723 511 715.5 Q513 708 505 700 L368 551 Q357 540 343 540 L257 540 L257 540 Z " />
<glyph glyph-name="ocircumflex" unicode="&#xf4;" horiz-adv-x="543" d="M244 -10 Q195 -10 154.5 6.5 Q114 23 85 52.5 Q56 82 40 123 Q24 164 24 214 Q24 274 46 324 Q68 374 105.5 411 Q143 448 192.5 468.5 Q242 489 297 489 Q347 489 388 473 Q429 457 458 428.5 Q487 400 503 359.5 Q519 319 519 270 Q519 210 496.5 159 Q474 108 436.5 70.5 Q399 33 349 11.5 Q299 -10 244 -10 Z M259 143 Q273 143 285.5 153.5 Q298 164 307 181 Q316 198 321.5 220 Q327 242 327 265 Q327 298 316 317.5 Q305 337 283 337 Q268 337 255.5 326 Q243 315 234 297.5 Q225 280 219.5 259 Q214 238 214 217 Q214 182 225 162.5 Q236 143 259 143 Z M492 566 Q497 555 492 549 Q487 543 476 543 L392 543 Q376 543 369 558 L333 633 L276 555 Q268 543 252 543 L169 543 Q157 543 153.5 549.5 Q150 556 157 567 L269 732 Q278 745 293 745 L396 745 Q414 745 420 730 L492 566 L492 566 Z " />
<glyph glyph-name="odieresis" unicode="&#xf6;" horiz-adv-x="543" d="M244 -10 Q195 -10 154.5 6.5 Q114 23 85 52.5 Q56 82 40 123 Q24 164 24 214 Q24 274 46 324 Q68 374 105.5 411 Q143 448 192.5 468.5 Q242 489 297 489 Q347 489 388 473 Q429 457 458 428.5 Q487 400 503 359.5 Q519 319 519 270 Q519 210 496.5 159 Q474 108 436.5 70.5 Q399 33 349 11.5 Q299 -10 244 -10 Z M259 143 Q273 143 285.5 153.5 Q298 164 307 181 Q316 198 321.5 220 Q327 242 327 265 Q327 298 316 317.5 Q305 337 283 337 Q268 337 255.5 326 Q243 315 234 297.5 Q225 280 219.5 259 Q214 238 214 217 Q214 182 225 162.5 Q236 143 259 143 Z M213 578 Q181 578 162 600 Q143 622 143 651 Q143 669 150 685.5 Q157 702 169 714.5 Q181 727 197 734.5 Q213 742 232 742 Q264 742 282 720.5 Q300 699 300 669 Q300 651 293.5 635 Q287 619 275 606 Q263 593 247 585.5 Q231 578 213 578 Z M417 578 Q385 578 366 600 Q347 622 347 651 Q347 669 354 685.5 Q361 702 373 714.5 Q385 727 401 734.5 Q417 742 436 742 Q468 742 486 720.5 Q504 699 504 669 Q504 651 497.5 635 Q491 619 479 606 Q467 593 451 585.5 Q435 578 417 578 Z " />
<glyph glyph-name="ograve" unicode="&#xf2;" horiz-adv-x="543" d="M244 -10 Q195 -10 154.5 6.5 Q114 23 85 52.5 Q56 82 40 123 Q24 164 24 214 Q24 274 46 324 Q68 374 105.5 411 Q143 448 192.5 468.5 Q242 489 297 489 Q347 489 388 473 Q429 457 458 428.5 Q487 400 503 359.5 Q519 319 519 270 Q519 210 496.5 159 Q474 108 436.5 70.5 Q399 33 349 11.5 Q299 -10 244 -10 Z M259 143 Q273 143 285.5 153.5 Q298 164 307 181 Q316 198 321.5 220 Q327 242 327 265 Q327 298 316 317.5 Q305 337 283 337 Q268 337 255.5 326 Q243 315 234 297.5 Q225 280 219.5 259 Q214 238 214 217 Q214 182 225 162.5 Q236 143 259 143 Z M394 564 Q400 554 396 547 Q392 540 380 540 L294 540 Q280 540 269 551 L132 700 Q124 708 126 715.5 Q128 723 139 727 L258 765 Q275 771 284 754 L394 564 L394 564 Z " />
<glyph glyph-name="oslash" unicode="&#xf8;" horiz-adv-x="543" d="M517 528 Q530 528 533 521 Q536 514 528 504 L464 423 Q490 394 504.5 355.5 Q519 317 519 270 Q519 210 496.5 159 Q474 108 436.5 70.5 Q399 33 349 11.5 Q299 -10 244 -10 Q184 -10 136 15 L98 -32 Q89 -44 74 -44 L24 -44 Q11 -44 8 -37 Q5 -30 13 -20 L77 61 Q24 120 24 214 Q24 274 46 324 Q68 374 105.5 411 Q143 448 192.5 468.5 Q242 489 297 489 Q356 489 404 466 L444 516 Q453 528 468 528 L517 528 Z M283 337 Q269 337 257.5 328 Q246 319 237 304 Q228 289 222 270 Q216 251 215 232 L297 334 Q291 337 283 337 Z M259 143 Q272 143 284 152 Q296 161 305 176 Q314 191 319.5 211 Q325 231 327 252 L242 147 Q249 143 259 143 Z " />
<glyph glyph-name="otilde" unicode="&#xf5;" horiz-adv-x="543" d="M244 -10 Q195 -10 154.5 6.5 Q114 23 85 52.5 Q56 82 40 123 Q24 164 24 214 Q24 274 46 324 Q68 374 105.5 411 Q143 448 192.5 468.5 Q242 489 297 489 Q347 489 388 473 Q429 457 458 428.5 Q487 400 503 359.5 Q519 319 519 270 Q519 210 496.5 159 Q474 108 436.5 70.5 Q399 33 349 11.5 Q299 -10 244 -10 Z M259 143 Q273 143 285.5 153.5 Q298 164 307 181 Q316 198 321.5 220 Q327 242 327 265 Q327 298 316 317.5 Q305 337 283 337 Q268 337 255.5 326 Q243 315 234 297.5 Q225 280 219.5 259 Q214 238 214 217 Q214 182 225 162.5 Q236 143 259 143 Z M377 549 Q354 549 335 560 Q316 571 300 581 Q289 588 279 593 Q269 598 258 598 Q249 598 241.5 593 Q234 588 229 575 Q221 558 206 558 L158 558 Q148 558 143 563.5 Q138 569 140 580 Q147 613 157.5 641 Q168 669 183 689.5 Q198 710 217.5 721.5 Q237 733 262 733 Q288 733 307 721.5 Q326 710 342 699 Q352 692 360 687.5 Q368 683 377 683 Q386 683 392.5 689.5 Q399 696 403 707 Q407 715 412 719.5 Q417 724 426 724 L481 724 Q491 724 496 716 Q501 708 498 693 Q491 662 480 635.5 Q469 609 454 590 Q439 571 420 560 Q401 549 377 549 Z " />
<glyph glyph-name="oe" unicode="&#x153;" horiz-adv-x="784" d="M584 490 Q619 490 651 478.5 Q683 467 708 442.5 Q733 418 747.5 380 Q762 342 762 290 Q762 239 752.5 218 Q743 197 711 197 L506 197 Q514 166 536 149 Q558 132 597 132 Q628 132 656 139.5 Q684 147 707 158 Q718 164 724.5 160 Q731 156 729 143 L719 54 Q718 40 706 31 Q680 14 640 3 Q600 -8 552 -8 Q499 -8 457 11.5 Q415 31 387 69 Q356 31 311.5 10.5 Q267 -10 211 -10 Q170 -10 136 6 Q102 22 77 51.5 Q52 81 38 121 Q24 161 24 209 Q24 271 44.5 322.5 Q65 374 99.5 411 Q134 448 180.5 468.5 Q227 489 278 489 Q369 489 420 412 Q452 450 494 470 Q536 490 584 490 Z M562 362 Q542 362 528.5 342 Q515 322 508 290 L596 290 Q597 325 589.5 343.5 Q582 362 562 362 Z M247 141 Q263 141 274.5 155 Q286 169 293.5 190 Q301 211 305 235 Q309 259 309 279 Q309 338 271 338 Q256 338 244.5 325 Q233 312 225 292 Q217 272 213 248.5 Q209 225 209 205 Q209 175 218.5 158 Q228 141 247 141 Z " />
<glyph glyph-name="p" unicode="p" horiz-adv-x="560" d="M385 490 Q420 490 448.5 474.5 Q477 459 496.5 431 Q516 403 526.5 365 Q537 327 537 282 Q537 222 520.5 169 Q504 116 475.5 76.5 Q447 37 408 14.5 Q369 -8 324 -8 Q285 -8 257.5 8 Q230 24 214 59 L185 -167 Q182 -186 164 -186 L10 -186 Q-11 -186 -8 -165 L70 461 Q72 480 91 480 L233 480 Q254 480 251 459 L244 399 L245 399 Q269 447 303 468.5 Q337 490 385 490 Z M272 142 Q286 142 298.5 152.5 Q311 163 320 180.5 Q329 198 334.5 221 Q340 244 340 269 Q340 299 328.5 317.5 Q317 336 294 336 Q266 336 246.5 302 Q227 268 227 211 Q227 182 238 162 Q249 142 272 142 Z " />
<glyph glyph-name="thorn" unicode="&#xfe;" horiz-adv-x="560" d="M385 490 Q420 490 448.5 474.5 Q477 459 496.5 431 Q516 403 526.5 365 Q537 327 537 282 Q537 222 520.5 169 Q504 116 475.5 76.5 Q447 37 408 14.5 Q369 -8 324 -8 Q285 -8 257.5 8 Q230 24 214 59 L185 -167 Q182 -186 164 -186 L10 -186 Q-11 -186 -8 -165 L103 726 Q105 745 124 745 L266 745 Q287 745 284 724 L244 399 L245 399 Q269 447 303 468.5 Q337 490 385 490 Z M270 142 Q299 142 319 174 Q339 206 339 269 Q339 299 327.5 317.5 Q316 336 294 336 Q271 336 253.5 317 Q236 298 230 258 L227 238 Q226 232 226 225.5 Q226 219 226 211 Q226 182 236.5 162 Q247 142 270 142 Z " />
<glyph glyph-name="q" unicode="q" horiz-adv-x="559" d="M363 461 Q366 480 384 480 L525 480 Q546 480 543 459 L466 -167 Q464 -186 445 -186 L290 -186 Q269 -186 272 -165 L299 55 Q275 21 244 6.5 Q213 -8 174 -8 Q139 -8 111 7.5 Q83 23 63.5 51 Q44 79 33.5 117 Q23 155 23 200 Q23 260 39 313 Q55 366 83 405.5 Q111 445 150 467.5 Q189 490 235 490 Q328 490 354 405 L355 405 L363 461 Z M266 141 Q292 141 311 176 Q330 211 330 264 Q330 299 319 318.5 Q308 338 285 338 Q257 338 238 304 Q219 270 219 218 Q219 183 230 162 Q241 141 266 141 Z " />
<glyph glyph-name="r" unicode="r" horiz-adv-x="402" d="M248 382 Q295 479 386 489 Q397 490 402 484 Q407 478 405 468 L385 306 Q383 288 364 288 Q358 288 352 288.5 Q346 289 339 288 Q298 286 267.5 258.5 Q237 231 229 167 L211 19 Q209 0 190 0 L35 0 Q14 0 17 21 L71 461 Q73 480 92 480 L237 480 Q258 480 255 459 L246 382 L248 382 L248 382 Z " />
<glyph glyph-name="s" unicode="s" horiz-adv-x="417" d="M160 -7 Q120 -7 80.5 -1 Q41 5 14 16 Q-1 23 1 41 L14 146 Q17 169 39 158 Q68 144 101 137.5 Q134 131 156 131 Q176 131 187 136 Q198 141 198 155 Q198 162 192.5 166.5 Q187 171 176.5 176.5 Q166 182 150.5 189.5 Q135 197 114 209 Q76 228 54.5 253.5 Q33 279 33 323 Q33 368 52 399.5 Q71 431 102 451 Q133 471 172 480.5 Q211 490 251 490 Q331 490 382 476 Q399 470 397 452 L386 358 Q383 338 362 344 Q343 349 320 352.5 Q297 356 277 356 Q237 356 237 333 Q237 320 255 313 Q273 306 306 291 Q351 271 372.5 246 Q394 221 394 179 Q394 135 376.5 100.5 Q359 66 328 42 Q297 18 254 5.5 Q211 -7 160 -7 Z " />
<glyph glyph-name="scaron" unicode="&#x161;" horiz-adv-x="415" d="M160 -7 Q120 -7 80.5 -1 Q41 5 14 16 Q-1 23 1 41 L14 146 Q17 169 39 158 Q68 144 101 137.5 Q134 131 156 131 Q176 131 187 136 Q198 141 198 155 Q198 162 192.5 166.5 Q187 171 176.5 176.5 Q166 182 150.5 189.5 Q135 197 114 209 Q76 228 54.5 253.5 Q33 279 33 323 Q33 368 52 399.5 Q71 431 102 451 Q133 471 172 480.5 Q211 490 251 490 Q331 490 382 476 Q399 470 397 452 L386 358 Q383 338 362 344 Q343 349 320 352.5 Q297 356 277 356 Q237 356 237 333 Q237 320 255 313 Q273 306 306 291 Q351 271 372.5 246 Q394 221 394 179 Q394 135 376.5 100.5 Q359 66 328 42 Q297 18 254 5.5 Q211 -7 160 -7 Z M311 729 Q320 741 335 741 L406 741 Q418 741 422 734 Q426 727 419 717 L303 553 Q293 540 279 540 L213 540 Q197 540 190 555 L110 717 Q105 728 109 734.5 Q113 741 124 741 L199 741 Q216 741 223 728 L261 665 L311 729 L311 729 Z " />
<glyph glyph-name="germandbls" unicode="&#xdf;" horiz-adv-x="632" d="M393 -8 Q364 -8 332 -3 Q300 2 274 10 Q258 16 260 35 L274 140 Q277 163 298 152 Q317 143 336.5 138.5 Q356 134 371 134 Q400 134 414.5 147 Q429 160 429 180 Q429 192 423 202.5 Q417 213 408 222 Q399 231 388 239.5 Q377 248 367 257 Q343 277 326.5 303 Q310 329 310 363 Q310 395 322.5 418 Q335 441 355 470 Q370 490 381 509.5 Q392 529 392 551 Q392 573 379 585.5 Q366 598 342 598 Q314 598 293.5 580.5 Q273 563 268 521 L206 19 Q204 0 185 0 L26 0 Q5 0 8 21 L69 519 Q83 631 157.5 693 Q232 755 356 755 Q405 755 445.5 744 Q486 733 515.5 712.5 Q545 692 561.5 662 Q578 632 578 594 Q578 569 572.5 548.5 Q567 528 558 510.5 Q549 493 539 479 Q529 465 520 454 Q506 437 496.5 423 Q487 409 487 395 Q487 378 501 362 Q515 346 535 328 Q546 317 559 302.5 Q572 288 583.5 269.5 Q595 251 602.5 228.5 Q610 206 610 179 Q610 143 596 109 Q582 75 554 49 Q526 23 485.5 7.5 Q445 -8 393 -8 Z " />
<glyph glyph-name="t" unicode="t" horiz-adv-x="386" d="M265 198 Q264 192 264 186.5 Q264 181 264 176 Q264 133 305 133 Q311 133 317 133.5 Q323 134 328 135 Q351 140 348 119 L337 23 Q335 5 319 2 Q299 -3 272.5 -6.5 Q246 -10 217 -10 Q143 -10 103.5 29.5 Q64 69 64 135 Q64 154 67 175 L89 354 L39 354 Q18 354 21 375 L32 461 Q34 480 53 480 L104 480 L121 619 Q123 638 142 638 L299 638 Q320 638 317 617 L300 480 L372 480 Q393 480 390 459 L380 373 Q379 354 359 354 L285 354 L265 198 Z " />
<glyph glyph-name="u" unicode="u" horiz-adv-x="556" d="M346 461 Q348 480 367 480 L522 480 Q543 480 540 459 L486 19 Q484 0 465 0 L330 0 Q321 0 315 5.5 Q309 11 309 20 L308 61 L307 61 Q257 -9 164 -9 Q99 -9 63 25.5 Q27 60 27 134 Q27 153 30 176 L65 462 Q67 481 86 481 L242 480 Q263 480 260 459 L227 179 Q226 174 225.5 170 Q225 166 225 162 Q225 122 259 122 Q282 122 294.5 139 Q307 156 311 182 L311 184 L346 461 L346 461 Z " />
<glyph glyph-name="uacute" unicode="&#xfa;" horiz-adv-x="560" d="M346 461 Q348 480 367 480 L522 480 Q543 480 540 459 L486 19 Q484 0 465 0 L330 0 Q321 0 315 5.5 Q309 11 309 20 L308 61 L307 61 Q257 -9 164 -9 Q99 -9 63 25.5 Q27 60 27 134 Q27 153 30 176 L65 462 Q67 481 86 481 L242 480 Q263 480 260 459 L227 179 Q226 174 225.5 170 Q225 166 225 162 Q225 122 259 122 Q282 122 294.5 139 Q307 156 311 182 L311 184 L346 461 L346 461 Z M253 540 Q241 540 237 547 Q233 554 239 564 L349 754 Q358 771 375 765 L494 727 Q505 723 507 715.5 Q509 708 501 700 L364 551 Q353 540 339 540 L253 540 L253 540 Z " />
<glyph glyph-name="ucircumflex" unicode="&#xfb;" horiz-adv-x="560" d="M346 461 Q348 480 367 480 L522 480 Q543 480 540 459 L486 19 Q484 0 465 0 L330 0 Q321 0 315 5.5 Q309 11 309 20 L308 61 L307 61 Q257 -9 164 -9 Q99 -9 63 25.5 Q27 60 27 134 Q27 153 30 176 L65 462 Q67 481 86 481 L242 480 Q263 480 260 459 L227 179 Q226 174 225.5 170 Q225 166 225 162 Q225 122 259 122 Q282 122 294.5 139 Q307 156 311 182 L311 184 L346 461 L346 461 Z M488 566 Q493 555 488 549 Q483 543 472 543 L388 543 Q372 543 365 558 L329 633 L272 555 Q264 543 248 543 L165 543 Q153 543 149.5 549.5 Q146 556 153 567 L265 732 Q274 745 289 745 L392 745 Q410 745 416 730 L488 566 L488 566 Z " />
<glyph glyph-name="udieresis" unicode="&#xfc;" horiz-adv-x="560" d="M346 461 Q348 480 367 480 L522 480 Q543 480 540 459 L486 19 Q484 0 465 0 L330 0 Q321 0 315 5.5 Q309 11 309 20 L308 61 L307 61 Q257 -9 164 -9 Q99 -9 63 25.5 Q27 60 27 134 Q27 153 30 176 L65 462 Q67 481 86 481 L242 480 Q263 480 260 459 L227 179 Q226 174 225.5 170 Q225 166 225 162 Q225 122 259 122 Q282 122 294.5 139 Q307 156 311 182 L311 184 L346 461 L346 461 Z M209 578 Q177 578 158 600 Q139 622 139 651 Q139 669 146 685.5 Q153 702 165 714.5 Q177 727 193 734.5 Q209 742 228 742 Q260 742 278 720.5 Q296 699 296 669 Q296 651 289.5 635 Q283 619 271 606 Q259 593 243 585.5 Q227 578 209 578 Z M413 578 Q381 578 362 600 Q343 622 343 651 Q343 669 350 685.5 Q357 702 369 714.5 Q381 727 397 734.5 Q413 742 432 742 Q464 742 482 720.5 Q500 699 500 669 Q500 651 493.5 635 Q487 619 475 606 Q463 593 447 585.5 Q431 578 413 578 Z " />
<glyph glyph-name="ugrave" unicode="&#xf9;" horiz-adv-x="560" d="M346 461 Q348 480 367 480 L522 480 Q543 480 540 459 L486 19 Q484 0 465 0 L330 0 Q321 0 315 5.5 Q309 11 309 20 L308 61 L307 61 Q257 -9 164 -9 Q99 -9 63 25.5 Q27 60 27 134 Q27 153 30 176 L65 462 Q67 481 86 481 L242 480 Q263 480 260 459 L227 179 Q226 174 225.5 170 Q225 166 225 162 Q225 122 259 122 Q282 122 294.5 139 Q307 156 311 182 L311 184 L346 461 L346 461 Z M390 564 Q396 554 392 547 Q388 540 376 540 L290 540 Q276 540 265 551 L128 700 Q120 708 122 715.5 Q124 723 135 727 L254 765 Q271 771 280 754 L390 564 L390 564 Z " />
<glyph glyph-name="v" unicode="v" horiz-adv-x="520" d="M341 464 Q347 480 364 480 L518 480 Q529 480 533.5 473.5 Q538 467 533 456 L321 15 Q314 0 298 0 L154 0 Q137 0 132 17 L28 458 Q23 480 46 480 L197 480 Q216 480 219 462 L257 217 L341 464 L341 464 Z " />
<glyph glyph-name="w" unicode="w" horiz-adv-x="730" d="M567 463 Q572 480 589 480 L729 480 Q740 480 745 474 Q750 468 745 457 L548 15 Q542 0 524 0 L412 0 Q393 0 390 18 L357 234 L272 16 Q266 0 249 0 L138 0 Q119 0 116 18 L27 458 Q22 480 45 480 L197 480 Q217 480 218 461 L241 261 L321 464 Q327 480 344 480 L447 480 Q465 480 468 462 L503 256 L567 463 L567 463 Z " />
<glyph glyph-name="x" unicode="x" horiz-adv-x="533" d="M525 480 Q538 480 541.5 473 Q545 466 537 456 L370 240 L492 24 Q498 14 493.5 7 Q489 0 478 0 L301 0 Q285 0 279 16 L246 114 L186 14 Q178 0 162 0 L-4 0 Q-17 0 -20.5 7 Q-24 14 -16 24 L155 243 L38 456 Q33 467 37 473.5 Q41 480 52 480 L223 480 Q240 480 245 464 L278 365 L337 466 Q345 480 361 480 L525 480 L525 480 Z " />
<glyph glyph-name="y" unicode="y" horiz-adv-x="534" d="M363 465 Q369 480 387 480 L535 480 Q546 480 550 473.5 Q554 467 549 456 L332 23 Q305 -31 276.5 -71.5 Q248 -112 216 -140 Q184 -168 146 -182 Q108 -196 62 -196 Q9 -196 -34 -186 Q-52 -182 -50 -163 L-37 -55 Q-34 -36 -13 -40 Q4 -44 23 -46.5 Q42 -49 64 -49 Q99 -49 121 -34.5 Q143 -20 160 8 L31 458 Q28 468 32.5 474 Q37 480 48 480 L208 480 Q226 480 229 462 L270 252 L363 465 L363 465 Z " />
<glyph glyph-name="yacute" unicode="&#xfd;" horiz-adv-x="534" d="M363 465 Q369 480 387 480 L535 480 Q546 480 550 473.5 Q554 467 549 456 L332 23 Q305 -31 276.5 -71.5 Q248 -112 216 -140 Q184 -168 146 -182 Q108 -196 62 -196 Q9 -196 -34 -186 Q-52 -182 -50 -163 L-37 -55 Q-34 -36 -13 -40 Q4 -44 23 -46.5 Q42 -49 64 -49 Q99 -49 121 -34.5 Q143 -20 160 8 L31 458 Q28 468 32.5 474 Q37 480 48 480 L208 480 Q226 480 229 462 L270 252 L363 465 L363 465 Z M246 540 Q234 540 230 547 Q226 554 232 564 L342 754 Q351 771 368 765 L487 727 Q498 723 500 715.5 Q502 708 494 700 L357 551 Q346 540 332 540 L246 540 L246 540 Z " />
<glyph glyph-name="ydieresis" unicode="&#xff;" horiz-adv-x="534" d="M363 465 Q369 480 387 480 L535 480 Q546 480 550 473.5 Q554 467 549 456 L332 23 Q305 -31 276.5 -71.5 Q248 -112 216 -140 Q184 -168 146 -182 Q108 -196 62 -196 Q9 -196 -34 -186 Q-52 -182 -50 -163 L-37 -55 Q-34 -36 -13 -40 Q4 -44 23 -46.5 Q42 -49 64 -49 Q99 -49 121 -34.5 Q143 -20 160 8 L31 458 Q28 468 32.5 474 Q37 480 48 480 L208 480 Q226 480 229 462 L270 252 L363 465 L363 465 Z M202 578 Q170 578 151 600 Q132 622 132 651 Q132 669 139 685.5 Q146 702 158 714.5 Q170 727 186 734.5 Q202 742 221 742 Q253 742 271 720.5 Q289 699 289 669 Q289 651 282.5 635 Q276 619 264 606 Q252 593 236 585.5 Q220 578 202 578 Z M406 578 Q374 578 355 600 Q336 622 336 651 Q336 669 343 685.5 Q350 702 362 714.5 Q374 727 390 734.5 Q406 742 425 742 Q457 742 475 720.5 Q493 699 493 669 Q493 651 486.5 635 Q480 619 468 606 Q456 593 440 585.5 Q424 578 406 578 Z " />
<glyph glyph-name="z" unicode="z" horiz-adv-x="463" d="M17 0 Q-4 0 -1 21 L2 44 Q3 57 11 68 L194 323 L68 323 Q47 323 50 344 L64 461 Q66 480 85 480 L436 480 Q457 480 454 459 L451 436 Q449 422 442 412 L258 158 L405 158 Q426 158 423 137 L409 19 Q408 0 388 0 L17 0 L17 0 Z " />
<glyph glyph-name="zcaron" unicode="&#x17e;" horiz-adv-x="462" d="M17 0 Q-4 0 -1 21 L2 44 Q3 57 11 68 L194 323 L68 323 Q47 323 50 344 L64 461 Q66 480 85 480 L436 480 Q457 480 454 459 L451 436 Q449 422 442 412 L258 158 L405 158 Q426 158 423 137 L409 19 Q408 0 388 0 L17 0 L17 0 Z M325 729 Q334 741 349 741 L420 741 Q432 741 436 734 Q440 727 433 717 L317 553 Q307 540 293 540 L227 540 Q211 540 204 555 L124 717 Q119 728 123 734.5 Q127 741 138 741 L213 741 Q230 741 237 728 L275 665 L325 729 L325 729 Z " />
<glyph glyph-name="fi" unicode="&#xfb01;" horiz-adv-x="675" d="M375 600 Q346 600 327 583.5 Q308 567 303 530 L297 480 L392 480 Q413 480 410 459 L400 373 Q399 354 379 354 L281 354 L217 -167 Q215 -186 196 -186 L40 -186 Q19 -186 22 -165 L86 354 L37 354 Q16 354 18 375 L28 461 Q29 480 49 480 L101 480 L108 533 Q122 644 181.5 700 Q241 756 343 756 Q366 756 388 753 Q410 750 427 745 Q444 741 442 721 L428 612 Q425 592 410 596 Q402 598 394 599 Q386 600 375 600 Z M560 527 Q515 527 488.5 553.5 Q462 580 462 623 Q462 649 472.5 672.5 Q483 696 501 714 Q519 732 543 743 Q567 754 594 754 Q643 754 669 727 Q695 700 695 658 Q695 631 684.5 607 Q674 583 655.5 565 Q637 547 612.5 537 Q588 527 560 527 Z M425 0 Q404 0 407 21 L461 461 Q463 480 482 480 L638 480 Q659 480 656 459 L602 19 Q600 0 581 0 L425 0 Z " />
<glyph glyph-name="fl" unicode="&#xfb02;" horiz-adv-x="706" d="M375 600 Q346 600 327 583.5 Q308 567 303 530 L297 480 L392 480 Q413 480 410 459 L400 373 Q399 354 379 354 L281 354 L217 -167 Q215 -186 196 -186 L40 -186 Q19 -186 22 -165 L86 354 L37 354 Q16 354 18 375 L28 461 Q29 480 49 480 L101 480 L108 533 Q122 644 181.5 700 Q241 756 343 756 Q366 756 388 753 Q410 750 427 745 Q444 741 442 721 L428 612 Q425 592 410 596 Q402 598 394 599 Q386 600 375 600 Z M553 -10 Q484 -10 446.5 23 Q409 56 409 125 Q409 135 410 149 Q411 163 413 176 L490 727 Q493 746 512 746 L666 746 Q688 746 685 725 L612 198 Q611 193 610.5 190 Q610 187 610 182 Q610 162 620 153 Q630 144 646 144 Q652 144 657.5 144.5 Q663 145 668 145 Q691 148 688 126 L674 27 Q672 10 661 6 Q641 -2 610 -6 Q579 -10 553 -10 Z " />
<glyph glyph-name="ordfeminine" unicode="&#xaa;" horiz-adv-x="467" d="M322 692 Q325 711 343 711 L465 711 Q486 711 483 690 L443 366 Q441 347 422 347 L300 347 Q279 347 282 368 L284 388 Q247 342 192 342 Q163 342 139.5 354 Q116 366 100 387.5 Q84 409 75.5 438.5 Q67 468 67 502 Q67 546 80 585.5 Q93 625 115.5 654.5 Q138 684 169.5 701 Q201 718 239 718 Q268 718 287 707 Q306 696 319 673 L322 692 Z M260 462 Q278 462 288 478.5 Q298 495 303 515 L307 543 L307 548 Q307 569 299.5 581.5 Q292 594 278 594 Q258 594 244.5 573.5 Q231 553 231 508 Q231 487 238.5 474.5 Q246 462 260 462 Z M56 169 Q35 169 37 190 L44 248 Q45 267 65 267 L417 267 Q438 267 436 246 L429 188 Q428 169 408 169 L56 169 Z " />
<glyph glyph-name="ordmasculine" unicode="&#xba;" horiz-adv-x="460" d="M241 344 Q203 344 171 356.5 Q139 369 116 391.5 Q93 414 80.5 445 Q68 476 68 513 Q68 558 85 596 Q102 634 132 661.5 Q162 689 202 704.5 Q242 720 287 720 Q326 720 358 708 Q390 696 413.5 674 Q437 652 450 621.5 Q463 591 463 555 Q463 510 445.5 471.5 Q428 433 397.5 404.5 Q367 376 326.5 360 Q286 344 241 344 Z M257 469 Q275 469 288.5 488 Q302 507 302 554 Q302 596 273 596 Q254 596 241 577.5 Q228 559 228 512 Q228 469 257 469 Z M64 173 Q43 173 45 194 L52 251 Q54 270 73 270 L391 270 Q412 270 409 249 L402 192 Q400 173 381 173 L64 173 Z " />
<glyph glyph-name="Delta" unicode="&#x394;" horiz-adv-x="567" d="M-2 0 Q-24 0 -21 21 L-10 101 Q-9 108 -7.5 112.5 Q-6 117 -3 124 L266 696 Q273 711 289 711 L413 711 Q431 711 434 693 L543 125 Q545 118 544.5 113.5 Q544 109 543 101 L532 19 Q529 0 510 0 L-2 0 Z M348 138 L315 447 L195 138 L348 138 Z " />
<glyph glyph-name="Omega" unicode="&#x3a9;" horiz-adv-x="710" d="M12 0 Q-10 0 -7 21 L9 138 Q12 157 31 157 L140 157 L141 167 Q109 194 88 248.5 Q67 303 67 372 Q67 454 96.5 519 Q126 584 175.5 628.5 Q225 673 290 696.5 Q355 720 425 720 Q483 720 533 702.5 Q583 685 619.5 651.5 Q656 618 677 569.5 Q698 521 698 458 Q698 410 685.5 365.5 Q673 321 653 283.5 Q633 246 607.5 216 Q582 186 555 167 L553 157 L659 157 Q681 157 678 136 L662 19 Q659 0 640 0 L371 0 Q349 0 352 21 L370 151 Q371 163 381 174 Q425 227 452 288 Q479 349 479 426 Q479 484 458.5 516 Q438 548 401 548 Q373 548 350 532.5 Q327 517 310.5 488.5 Q294 460 285 420.5 Q276 381 276 333 Q276 288 286.5 248 Q297 208 316 176 Q321 169 322 163.5 Q323 158 322 150 L304 19 Q301 0 282 0 L12 0 L12 0 Z " />
<glyph glyph-name="mu" unicode="&#x3bc;" horiz-adv-x="568" d="M350 461 Q351 480 371 480 L527 480 Q548 480 546 459 L496 19 Q495 0 475 0 L346 0 Q328 0 326 19 L324 58 L321 58 Q287 -9 233 -9 Q208 -9 192 0 L190 -180 Q190 -200 170 -200 L15 -200 Q-6 -200 -3 -178 L40 59 L71 462 Q73 481 91 481 L246 480 Q267 480 265 459 L234 183 Q233 178 233 174 Q233 170 233 166 Q233 122 270 122 Q290 122 301.5 137 Q313 152 318 178 L350 461 L350 461 Z " />
<glyph glyph-name="pi" unicode="&#x3c0;" horiz-adv-x="644" d="M554 194 Q554 190 553.5 187 Q553 184 553 181 Q553 159 561 149.5 Q569 140 582 140 Q592 140 597 141 Q620 146 618 123 L608 27 Q607 19 603.5 13 Q600 7 592 5 Q574 -3 549 -6.5 Q524 -10 502 -10 Q434 -10 396.5 24 Q359 58 359 130 Q359 139 359 148.5 Q359 158 361 168 L379 328 L311 328 L277 19 Q276 0 256 0 L105 0 Q84 0 86 21 L121 328 L71 328 Q50 328 53 349 L66 461 Q67 480 87 480 L624 480 Q645 480 642 459 L629 347 Q628 328 608 328 L569 328 L554 194 Z " />
<glyph glyph-name="zero" unicode="0" horiz-adv-x="621" d="M271 -10 Q223 -10 180.5 6 Q138 22 106.5 57 Q75 92 57 147 Q39 202 39 280 Q39 363 61.5 442.5 Q84 522 126.5 583.5 Q169 645 230.5 682.5 Q292 720 371 720 Q419 720 461.5 703.5 Q504 687 535.5 652 Q567 617 585 562 Q603 507 603 430 Q603 347 580.5 267.5 Q558 188 515.5 126.5 Q473 65 411.5 27.5 Q350 -10 271 -10 Z M294 174 Q331 174 352 211.5 Q373 249 389 335 Q397 368 400 397 Q403 426 403 452 Q402 495 389.5 515.5 Q377 536 348 536 Q313 536 290.5 498 Q268 460 252 376 Q244 344 241 316.5 Q238 289 238 266 Q238 174 294 174 Z " />
<glyph glyph-name="one" unicode="1" horiz-adv-x="473" d="M351 709 Q361 714 376 714 L406 714 Q428 714 425 693 L330 18 Q327 0 308 0 L149 0 Q127 0 130 21 L194 480 L104 443 Q93 438 86.5 443.5 Q80 449 82 460 L99 583 Q100 598 115 605 L351 709 L351 709 Z " />
<glyph glyph-name="two" unicode="2" horiz-adv-x="504" d="M292 168 L425 168 Q447 168 444 147 L426 18 Q423 0 404 0 L6 0 Q-6 0 -10 7 Q-14 14 -7 24 L184 320 Q216 367 236.5 404 Q257 441 257 474 Q257 510 233.5 529.5 Q210 549 171 549 Q153 549 134.5 545 Q116 541 97 534 Q86 529 79.5 534 Q73 539 75 550 L92 676 Q93 692 109 698 Q141 710 179 715 Q217 720 260 720 Q306 720 346.5 708 Q387 696 416 672.5 Q445 649 462 615 Q479 581 479 538 Q479 510 473.5 484 Q468 458 456 430 Q444 402 425 370 Q406 338 380 299 L292 168 Z " />
<glyph glyph-name="three" unicode="3" horiz-adv-x="545" d="M379 384 Q442 365 472.5 326.5 Q503 288 503 237 Q503 179 475 133.5 Q447 88 401 56 Q355 24 296.5 7 Q238 -10 178 -10 Q132 -10 98 -4.5 Q64 1 41 11 Q25 17 28 35 L46 159 Q49 181 70 173 Q90 165 113 160.5 Q136 156 166 156 Q222 156 258.5 175.5 Q295 195 295 228 Q295 253 268 267.5 Q241 282 185 282 L151 282 Q130 282 133 303 L149 419 Q152 438 170 438 L207 438 Q272 438 297.5 457.5 Q323 477 323 507 Q323 533 295.5 546.5 Q268 560 225 560 Q197 560 173.5 555.5 Q150 551 130 543 Q119 538 113 542.5 Q107 547 109 559 L125 676 Q126 692 142 698 Q171 708 209.5 714 Q248 720 288 720 Q396 720 456.5 676 Q517 632 517 557 Q517 500 485 455 Q453 410 379 384 Z " />
<glyph glyph-name="four" unicode="4" horiz-adv-x="583" d="M537 255 Q559 255 556 234 L540 119 Q537 101 518 101 L467 101 L456 19 Q453 0 434 0 L279 0 Q257 0 260 21 L271 101 L33 101 Q11 101 14 122 L31 248 Q33 262 41 272 L369 698 Q378 710 393 710 L530 710 Q552 710 549 689 L489 255 L537 255 Z M334 455 Q322 432 307 403.5 Q292 375 276 354 L203 255 L298 255 L312 351 Q313 359 316 373 Q319 387 323 402 Q327 417 330.5 431.5 Q334 446 337 455 L334 455 Z " />
<glyph glyph-name="five" unicode="5" horiz-adv-x="571" d="M538 558 Q535 540 516 540 L323 540 L298 460 Q348 458 389 446.5 Q430 435 459.5 413 Q489 391 505.5 358 Q522 325 522 282 Q522 214 492.5 159.5 Q463 105 414 67.5 Q365 30 302 10 Q239 -10 173 -10 Q131 -10 97.5 -4 Q64 2 41 13 Q25 20 28 38 L46 162 Q49 184 70 176 Q87 170 110 164.5 Q133 159 161 159 Q191 159 216.5 165 Q242 171 260.5 183 Q279 195 290 212 Q301 229 301 251 Q301 283 273 301.5 Q245 320 192 320 Q167 320 143.5 316 Q120 312 99 305 Q87 301 81.5 306 Q76 311 80 323 L190 693 Q194 710 212 710 L537 710 Q559 710 556 689 L538 558 L538 558 Z " />
<glyph glyph-name="six" unicode="6" horiz-adv-x="578" d="M370 469 Q411 469 445.5 454 Q480 439 505.5 413 Q531 387 545 351 Q559 315 559 272 Q559 210 534 158 Q509 106 467 68.5 Q425 31 371 10.5 Q317 -10 260 -10 Q205 -10 163 6.5 Q121 23 92 52.5 Q63 82 48 121 Q33 160 33 205 Q33 274 61.5 337 Q90 400 145 468 L334 698 Q343 710 358 710 L533 710 Q546 710 549.5 702.5 Q553 695 544 685 L494 633 Q480 618 463 598.5 Q446 579 427 557 Q408 535 388.5 511.5 Q369 488 350 467 Q355 468 360 468.5 Q365 469 370 469 Z M284 156 Q302 156 318.5 162.5 Q335 169 347.5 181 Q360 193 368 210.5 Q376 228 376 250 Q376 285 356 303 Q336 321 307 321 Q270 321 242.5 296 Q215 271 215 224 Q215 192 234.5 174 Q254 156 284 156 Z " />
<glyph glyph-name="seven" unicode="7" horiz-adv-x="507" d="M80 691 Q83 710 102 710 L548 710 Q559 710 563.5 703.5 Q568 697 563 686 L240 15 Q233 0 217 0 L45 0 Q34 0 30 6.5 Q26 13 31 24 L282 529 L79 529 Q58 529 61 550 L80 691 L80 691 Z " />
<glyph glyph-name="eight" unicode="8" horiz-adv-x="599" d="M265 -10 Q218 -10 175.5 1.5 Q133 13 101 37 Q69 61 50.5 97 Q32 133 32 181 Q32 254 70 302.5 Q108 351 170 376 Q133 399 116.5 433 Q100 467 100 505 Q100 554 121.5 594 Q143 634 180 662 Q217 690 265 705 Q313 720 366 720 Q411 720 450 708 Q489 696 517.5 673.5 Q546 651 562.5 619.5 Q579 588 579 548 Q579 496 552 452 Q525 408 468 376 Q510 357 534.5 320 Q559 283 559 232 Q559 171 534 125.5 Q509 80 468 50 Q427 20 374 5 Q321 -10 265 -10 Z M327 438 Q359 438 378 459.5 Q397 481 397 515 Q397 539 383.5 553 Q370 567 345 567 Q313 567 294.5 547 Q276 527 276 494 Q276 468 289 453 Q302 438 327 438 Z M287 146 Q322 146 346 169 Q370 192 370 232 Q370 261 352.5 278 Q335 295 307 295 Q273 295 248.5 272 Q224 249 224 211 Q224 180 241.5 163 Q259 146 287 146 Z " />
<glyph glyph-name="nine" unicode="9" horiz-adv-x="578" d="M346 720 Q401 720 443 703.5 Q485 687 514 657.5 Q543 628 558 589 Q573 550 573 505 Q573 436 544.5 373 Q516 310 461 242 L272 12 Q263 0 248 0 L73 0 Q60 0 56.5 7.5 Q53 15 62 25 L112 77 Q126 92 143 111.5 Q160 131 179 153 Q198 175 217.5 198.5 Q237 222 256 243 Q251 242 246 241.5 Q241 241 236 241 Q195 241 160.5 255.5 Q126 270 100.5 296.5 Q75 323 61 359 Q47 395 47 438 Q47 500 72 552 Q97 604 139 641.5 Q181 679 235 699.5 Q289 720 346 720 Z M299 389 Q336 389 363.5 414 Q391 439 391 486 Q391 518 371.5 536 Q352 554 322 554 Q304 554 287.5 547.5 Q271 541 258.5 529 Q246 517 238 499.5 Q230 482 230 460 Q230 425 250 407 Q270 389 299 389 Z " />
<glyph glyph-name="onesuperior" unicode="&#xb9;" horiz-adv-x="314" d="M242 840 Q255 845 267 845 L287 845 Q309 845 306 824 L259 482 Q256 463 237 463 L166 463 Q144 463 147 484 L180 718 L123 697 Q112 693 106 698 Q100 703 102 714 L110 769 Q112 785 127 791 L242 840 L242 840 Z " />
<glyph glyph-name="twosuperior" unicode="&#xb2;" horiz-adv-x="355" d="M238 555 L320 555 Q342 555 339 534 L332 481 Q329 463 310 463 L84 463 Q71 463 67.5 470 Q64 477 72 488 L170 606 Q180 618 191 631.5 Q202 645 211.5 659 Q221 673 227.5 686.5 Q234 700 234 712 Q234 732 220 743.5 Q206 755 182 755 Q168 755 155 751.5 Q142 748 129 743 Q104 733 108 758 L117 812 Q120 829 134 834 Q154 841 178 845 Q202 849 224 849 Q282 849 317.5 820.5 Q353 792 353 746 Q353 712 336 681 Q319 650 290 616 L238 555 Z " />
<glyph glyph-name="threesuperior" unicode="&#xb3;" horiz-adv-x="339" d="M270 671 Q311 660 330.5 639.5 Q350 619 350 590 Q350 559 333.5 535 Q317 511 289.5 494 Q262 477 226.5 468 Q191 459 154 459 Q103 459 75 468 Q57 473 60 492 L67 541 Q70 561 91 557 Q113 550 147 550 Q181 550 203 559.5 Q225 569 225 586 Q225 615 155 615 L145 615 Q123 615 126 636 L132 681 Q135 700 154 700 L167 700 Q208 700 224.5 709 Q241 718 241 734 Q241 749 223.5 756 Q206 763 179 763 Q149 763 125 757 Q101 752 104 775 L111 821 Q114 838 129 841 Q147 846 168.5 848 Q190 850 213 850 Q280 850 317 827 Q354 804 354 763 Q354 733 334.5 709 Q315 685 270 671 Z " />
<glyph glyph-name="fraction" unicode="&#x2044;" horiz-adv-x="126" d="M-205 2 Q-222 13 -209 30 L352 731 Q365 746 380 736 L405 719 Q422 708 410 692 L-153 -10 Q-165 -25 -181 -14 L-205 2 L-205 2 Z " />
<glyph glyph-name="onehalf" unicode="&#xbd;" horiz-adv-x="834" d="M226 710 Q239 715 251 715 L271 715 Q293 715 290 694 L243 352 Q240 333 221 333 L150 333 Q128 333 131 354 L164 588 L107 567 Q96 563 90 568 Q84 573 86 584 L94 639 Q96 655 111 661 L226 710 L226 710 Z M145 2 Q128 13 141 30 L702 731 Q715 746 730 736 L755 719 Q772 708 760 692 L197 -10 Q185 -25 169 -14 L145 2 L145 2 Z M666 92 L748 92 Q770 92 767 71 L760 18 Q757 0 738 0 L512 0 Q499 0 495.5 7 Q492 14 500 25 L598 143 Q608 155 619 168.5 Q630 182 639.5 196 Q649 210 655.5 223.5 Q662 237 662 249 Q662 269 648 280.5 Q634 292 610 292 Q596 292 583 288.5 Q570 285 557 280 Q532 270 536 295 L545 349 Q548 366 562 371 Q582 378 606 382 Q630 386 652 386 Q710 386 745.5 357.5 Q781 329 781 283 Q781 249 764 218 Q747 187 718 153 L666 92 Z " />
<glyph glyph-name="onequarter" unicode="&#xbc;" horiz-adv-x="774" d="M226 710 Q239 715 251 715 L271 715 Q293 715 290 694 L243 352 Q240 333 221 333 L150 333 Q128 333 131 354 L164 588 L107 567 Q96 563 90 568 Q84 573 86 584 L94 639 Q96 655 111 661 L226 710 L226 710 Z M145 2 Q128 13 141 30 L702 731 Q715 746 730 736 L755 719 Q772 708 760 692 L197 -10 Q185 -25 169 -14 L145 2 L145 2 Z M720 137 Q742 137 739 116 L733 71 Q730 53 711 53 L686 53 L681 19 Q678 0 660 0 L593 0 Q572 0 575 21 L579 53 L442 53 Q420 53 423 74 L431 128 Q432 140 442 151 L626 370 Q636 381 651 381 L710 381 Q732 381 729 360 L698 137 L720 137 Z M607 229 L527 137 L594 137 L608 229 L607 229 Z " />
<glyph glyph-name="threequarters" unicode="&#xbe;" horiz-adv-x="764" d="M254 541 Q295 530 314.5 509.5 Q334 489 334 460 Q334 429 317.5 405 Q301 381 273.5 364 Q246 347 210.5 338 Q175 329 138 329 Q87 329 59 338 Q41 343 44 362 L51 411 Q54 431 75 427 Q97 420 131 420 Q165 420 187 429.5 Q209 439 209 456 Q209 485 139 485 L129 485 Q107 485 110 506 L116 551 Q119 570 138 570 L151 570 Q192 570 208.5 579 Q225 588 225 604 Q225 619 207.5 626 Q190 633 163 633 Q133 633 109 627 Q85 622 88 645 L95 691 Q98 708 113 711 Q131 716 152.5 718 Q174 720 197 720 Q264 720 301 697 Q338 674 338 633 Q338 603 318.5 579 Q299 555 254 541 Z M134 2 Q117 13 130 30 L691 731 Q704 746 719 736 L744 719 Q761 708 749 692 L186 -10 Q174 -25 158 -14 L134 2 L134 2 Z M710 137 Q732 137 729 116 L723 71 Q720 53 701 53 L676 53 L671 19 Q668 0 650 0 L583 0 Q562 0 565 21 L569 53 L432 53 Q410 53 413 74 L421 128 Q422 140 432 151 L616 370 Q626 381 641 381 L700 381 Q722 381 719 360 L688 137 L710 137 Z M597 229 L517 137 L584 137 L598 229 L597 229 Z " />
<glyph glyph-name="oneeighth" unicode="&#x215b;" horiz-adv-x="831" d="M226 710 Q239 715 251 715 L271 715 Q293 715 290 694 L243 352 Q240 333 221 333 L150 333 Q128 333 131 354 L164 588 L107 567 Q96 563 90 568 Q84 573 86 584 L94 639 Q96 655 111 661 L226 710 L226 710 Z M145 2 Q128 13 141 30 L702 731 Q715 746 730 736 L755 719 Q772 708 760 692 L197 -10 Q185 -25 169 -14 L145 2 L145 2 Z M622 -4 Q594 -4 569 2 Q544 8 525.5 21 Q507 34 496 53 Q485 72 485 98 Q485 138 507.5 163 Q530 188 567 202 Q545 215 534.5 233.5 Q524 252 524 272 Q524 298 536.5 319.5 Q549 341 570 356 Q591 371 618.5 379 Q646 387 677 387 Q730 387 765.5 362 Q801 337 801 294 Q801 236 735 202 Q760 191 775.5 171 Q791 151 791 123 Q791 91 777 67 Q763 43 739.5 27.5 Q716 12 685.5 4 Q655 -4 622 -4 Z M655 236 Q676 236 688 246.5 Q700 257 700 275 Q700 303 665 303 Q645 303 632.5 293 Q620 283 620 266 Q620 236 655 236 Z M634 81 Q657 81 672.5 92.5 Q688 104 688 124 Q688 139 676 148 Q664 157 644 157 Q622 157 605.5 146 Q589 135 589 115 Q589 98 601.5 89.5 Q614 81 634 81 Z " />
<glyph glyph-name="threeeighths" unicode="&#x215c;" horiz-adv-x="820" d="M254 541 Q295 530 314.5 509.5 Q334 489 334 460 Q334 429 317.5 405 Q301 381 273.5 364 Q246 347 210.5 338 Q175 329 138 329 Q87 329 59 338 Q41 343 44 362 L51 411 Q54 431 75 427 Q97 420 131 420 Q165 420 187 429.5 Q209 439 209 456 Q209 485 139 485 L129 485 Q107 485 110 506 L116 551 Q119 570 138 570 L151 570 Q192 570 208.5 579 Q225 588 225 604 Q225 619 207.5 626 Q190 633 163 633 Q133 633 109 627 Q85 622 88 645 L95 691 Q98 708 113 711 Q131 716 152.5 718 Q174 720 197 720 Q264 720 301 697 Q338 674 338 633 Q338 603 318.5 579 Q299 555 254 541 Z M134 2 Q117 13 130 30 L691 731 Q704 746 719 736 L744 719 Q761 708 749 692 L186 -10 Q174 -25 158 -14 L134 2 L134 2 Z M612 -4 Q584 -4 559 2 Q534 8 515.5 21 Q497 34 486 53 Q475 72 475 98 Q475 138 497.5 163 Q520 188 557 202 Q535 215 524.5 233.5 Q514 252 514 272 Q514 298 526.5 319.5 Q539 341 560 356 Q581 371 608.5 379 Q636 387 667 387 Q720 387 755.5 362 Q791 337 791 294 Q791 236 725 202 Q750 191 765.5 171 Q781 151 781 123 Q781 91 767 67 Q753 43 729.5 27.5 Q706 12 675.5 4 Q645 -4 612 -4 Z M645 236 Q666 236 678 246.5 Q690 257 690 275 Q690 303 655 303 Q635 303 622.5 293 Q610 283 610 266 Q610 236 645 236 Z M624 81 Q647 81 662.5 92.5 Q678 104 678 124 Q678 139 666 148 Q654 157 634 157 Q612 157 595.5 146 Q579 135 579 115 Q579 98 591.5 89.5 Q604 81 624 81 Z " />
<glyph glyph-name="fiveeighths" unicode="&#x215d;" horiz-adv-x="833" d="M352 639 Q349 620 330 620 L220 620 L207 580 Q267 579 304.5 556 Q342 533 342 482 Q342 446 325 417.5 Q308 389 280 369 Q252 349 216 338.5 Q180 328 142 328 Q100 328 72 338 Q57 343 59 362 L66 413 Q69 433 90 428 Q99 425 110 423 Q121 421 134 421 Q169 421 192 433.5 Q215 446 215 466 Q215 481 197.5 492 Q180 503 148 503 Q129 503 107 498 Q96 495 90.5 500.5 Q85 506 89 517 L145 697 Q150 714 167 714 L341 714 Q362 714 359 693 L352 639 L352 639 Z M147 2 Q130 13 143 30 L704 731 Q717 746 732 736 L757 719 Q774 708 762 692 L199 -10 Q187 -25 171 -14 L147 2 L147 2 Z M625 -4 Q597 -4 572 2 Q547 8 528.5 21 Q510 34 499 53 Q488 72 488 98 Q488 138 510.5 163 Q533 188 570 202 Q548 215 537.5 233.5 Q527 252 527 272 Q527 298 539.5 319.5 Q552 341 573 356 Q594 371 621.5 379 Q649 387 680 387 Q733 387 768.5 362 Q804 337 804 294 Q804 236 738 202 Q763 191 778.5 171 Q794 151 794 123 Q794 91 780 67 Q766 43 742.5 27.5 Q719 12 688.5 4 Q658 -4 625 -4 Z M658 236 Q679 236 691 246.5 Q703 257 703 275 Q703 303 668 303 Q648 303 635.5 293 Q623 283 623 266 Q623 236 658 236 Z M637 81 Q660 81 675.5 92.5 Q691 104 691 124 Q691 139 679 148 Q667 157 647 157 Q625 157 608.5 146 Q592 135 592 115 Q592 98 604.5 89.5 Q617 81 637 81 Z " />
<glyph glyph-name="seveneighths" unicode="&#x215e;" horiz-adv-x="794" d="M95 695 Q98 714 117 714 L370 714 Q381 714 385 707 Q389 700 384 690 L195 347 Q188 333 171 333 L92 333 Q80 333 76 340 Q72 347 78 357 L228 612 L105 612 Q84 612 87 633 L95 695 L95 695 Z M108 2 Q91 13 104 30 L665 731 Q678 746 693 736 L718 719 Q735 708 723 692 L160 -10 Q148 -25 132 -14 L108 2 L108 2 Z M585 -4 Q557 -4 532 2 Q507 8 488.5 21 Q470 34 459 53 Q448 72 448 98 Q448 138 470.5 163 Q493 188 530 202 Q508 215 497.5 233.5 Q487 252 487 272 Q487 298 499.5 319.5 Q512 341 533 356 Q554 371 581.5 379 Q609 387 640 387 Q693 387 728.5 362 Q764 337 764 294 Q764 236 698 202 Q723 191 738.5 171 Q754 151 754 123 Q754 91 740 67 Q726 43 702.5 27.5 Q679 12 648.5 4 Q618 -4 585 -4 Z M618 236 Q639 236 651 246.5 Q663 257 663 275 Q663 303 628 303 Q608 303 595.5 293 Q583 283 583 266 Q583 236 618 236 Z M597 81 Q620 81 635.5 92.5 Q651 104 651 124 Q651 139 639 148 Q627 157 607 157 Q585 157 568.5 146 Q552 135 552 115 Q552 98 564.5 89.5 Q577 81 597 81 Z " />
<glyph glyph-name="asterisk" unicode="&#x2a;" horiz-adv-x="451" d="M185 310 Q178 301 171 301 Q167 301 160 306 L84 367 Q76 373 76 380 Q76 386 83 392 L131 437 L200 486 L137 486 Q130 486 124.5 486 Q119 486 113 488 L70 496 Q57 498 57 508 Q57 513 59 516 L105 619 Q110 630 119 630 Q121 630 129 626 L166 605 Q172 601 176.5 598 Q181 595 186 590 L228 549 L214 618 Q212 624 212 630 Q212 636 212 642 L210 691 L210 693 Q210 710 228 710 L334 710 Q352 710 348 692 L334 642 Q332 636 330.5 630.5 Q329 625 326 619 L293 548 L349 592 Q354 597 359 599 Q364 601 370 604 L414 627 Q418 630 423 630 Q433 630 434 617 L451 529 Q453 523 453 519 Q453 515 453 512 Q453 498 437 495 L392 487 Q386 486 380.5 485.5 Q375 485 368 485 L305 486 L354 444 Q359 439 363 435.5 Q367 432 371 427 L397 394 Q402 387 402 382 Q402 375 393 369 L296 304 Q291 301 287 301 Q278 301 274 312 L261 355 Q259 361 258 367 Q257 373 256 379 L248 448 L222 377 Q220 370 217.5 365.5 Q215 361 212 356 L185 310 L185 310 Z " />
<glyph glyph-name="backslash" unicode="&#x5c;" horiz-adv-x="652" d="M627 -114 Q632 -125 627.5 -131.5 Q623 -138 612 -138 L515 -138 Q499 -138 492 -123 L45 766 Q40 777 44.5 783.5 Q49 790 60 790 L156 790 Q171 790 179 775 L627 -114 L627 -114 Z " />
<glyph glyph-name="periodcentered" unicode="&#xb7;" horiz-adv-x="325" d="M161 221 Q119 221 95.5 249 Q72 277 72 315 Q72 338 81 359 Q90 380 105 396 Q120 412 141 421.5 Q162 431 186 431 Q226 431 249.5 403.5 Q273 376 273 338 Q273 315 264.5 294 Q256 273 241 257 Q226 241 205.5 231 Q185 221 161 221 Z " />
<glyph glyph-name="bullet" unicode="&#x2022;" horiz-adv-x="425" d="M206 168 Q175 168 150 179.5 Q125 191 108 210.5 Q91 230 81.5 255.5 Q72 281 72 309 Q72 343 85 374.5 Q98 406 121.5 430 Q145 454 176 468.5 Q207 483 243 483 Q273 483 297 472 Q321 461 338.5 442 Q356 423 365 397.5 Q374 372 374 343 Q374 309 361 277.5 Q348 246 325.5 221.5 Q303 197 272 182.5 Q241 168 206 168 Z " />
<glyph glyph-name="colon" unicode="&#x3a;" horiz-adv-x="325" d="M170 279 Q129 279 105.5 306.5 Q82 334 82 372 Q82 394 91 415 Q100 436 115 451.5 Q130 467 150.5 476.5 Q171 486 194 486 Q234 486 257 459 Q280 432 280 394 Q280 372 271.5 351 Q263 330 248 314 Q233 298 213 288.5 Q193 279 170 279 Z M132 -9 Q91 -9 67.5 18.5 Q44 46 44 84 Q44 106 53 127 Q62 148 77 163.5 Q92 179 112.5 188.5 Q133 198 156 198 Q196 198 219 171 Q242 144 242 106 Q242 84 233.5 63 Q225 42 210 26 Q195 10 175 0.5 Q155 -9 132 -9 Z " />
<glyph glyph-name="comma" unicode="&#x2c;" horiz-adv-x="330" d="M157 203 Q199 203 224.5 176.5 Q250 150 250 108 Q250 75 231.5 41 Q213 7 191 -34 L112 -183 Q104 -197 88 -197 L57 -197 Q46 -197 41.5 -191 Q37 -185 40 -174 L97 2 Q71 12 57.5 35 Q44 58 44 87 Q44 112 53 133 Q62 154 78 169.5 Q94 185 114 194 Q134 203 157 203 Z " />
<glyph glyph-name="ellipsis" unicode="&#x2026;" horiz-adv-x="914" d="M133 -7 Q91 -7 67.5 21 Q44 49 44 87 Q44 110 53 131 Q62 152 77 168 Q92 184 113 193.5 Q134 203 158 203 Q198 203 221.5 175.5 Q245 148 245 110 Q245 87 236.5 66 Q228 45 213 29 Q198 13 177.5 3 Q157 -7 133 -7 Z M428 -7 Q386 -7 362.5 21 Q339 49 339 87 Q339 110 348 131 Q357 152 372 168 Q387 184 408 193.5 Q429 203 453 203 Q493 203 516.5 175.5 Q540 148 540 110 Q540 87 531.5 66 Q523 45 508 29 Q493 13 472.5 3 Q452 -7 428 -7 Z M722 -7 Q680 -7 656.5 21 Q633 49 633 87 Q633 110 642 131 Q651 152 666 168 Q681 184 702 193.5 Q723 203 747 203 Q787 203 810.5 175.5 Q834 148 834 110 Q834 87 825.5 66 Q817 45 802 29 Q787 13 766.5 3 Q746 -7 722 -7 Z " />
<glyph glyph-name="exclam" unicode="&#x21;" horiz-adv-x="344" d="M121 251 Q101 251 102 271 L120 690 Q122 710 141 710 L315 710 Q338 710 333 688 L233 268 Q228 251 211 251 L121 251 Z M134 -10 Q92 -10 68.5 18 Q45 46 45 84 Q45 107 54 128 Q63 149 78 165 Q93 181 114 190.5 Q135 200 159 200 Q199 200 222.5 172.5 Q246 145 246 107 Q246 84 237.5 63 Q229 42 214 26 Q199 10 178.5 0 Q158 -10 134 -10 Z " />
<glyph glyph-name="exclamdown" unicode="&#xa1;" horiz-adv-x="345" d="M239 720 Q281 720 304.5 692 Q328 664 328 626 Q328 603 319 582 Q310 561 295 545 Q280 529 259 519.5 Q238 510 214 510 Q174 510 150.5 537.5 Q127 565 127 603 Q127 625 135.5 646.5 Q144 668 159 684 Q174 700 194.5 710 Q215 720 239 720 Z M252 459 Q272 459 271 439 L253 20 Q251 0 232 0 L58 0 Q35 0 40 22 L140 442 Q145 459 162 459 L252 459 Z " />
<glyph glyph-name="numbersign" unicode="&#x23;" horiz-adv-x="679" d="M675 442 Q675 422 655 422 L546 422 L522 288 L632 288 Q652 288 652 268 L652 194 Q652 174 632 174 L503 174 L476 18 Q473 0 455 0 L360 0 Q339 0 342 22 L368 174 L253 174 L226 18 Q223 0 205 0 L112 0 Q91 0 94 22 L120 174 L52 174 Q32 174 32 194 L32 268 Q32 288 52 288 L139 288 L163 422 L75 422 Q55 422 55 442 L55 515 Q55 535 75 535 L182 535 L209 692 Q212 710 230 710 L324 710 Q345 710 342 688 L316 535 L430 535 L457 692 Q460 710 478 710 L573 710 Q594 710 591 688 L565 535 L655 535 Q675 535 675 515 L675 442 Z M411 422 L296 422 L273 288 L387 288 L411 422 Z " />
<glyph glyph-name="period" unicode="&#x2e;" horiz-adv-x="325" d="M133 -7 Q91 -7 67.5 21 Q44 49 44 87 Q44 110 53 131 Q62 152 77 168 Q92 184 113 193.5 Q134 203 158 203 Q198 203 221.5 175.5 Q245 148 245 110 Q245 87 236.5 66 Q228 45 213 29 Q198 13 177.5 3 Q157 -7 133 -7 Z " />
<glyph glyph-name="question" unicode="&#x3f;" horiz-adv-x="455" d="M139 221 Q119 221 120 241 L123 331 Q123 346 139 354 Q190 381 221 412.5 Q252 444 252 486 Q252 521 227 539.5 Q202 558 159 558 Q124 558 90 546 Q79 541 72.5 546 Q66 551 68 562 L83 678 Q84 694 100 700 Q131 711 168.5 715.5 Q206 720 239 720 Q290 720 332 709 Q374 698 404 676 Q434 654 450 622.5 Q466 591 466 549 Q466 503 450.5 466 Q435 429 409 399 Q383 369 350 343.5 Q317 318 281 294 L263 238 Q258 221 241 221 L139 221 Z M162 -6 Q120 -6 96 19.5 Q72 45 72 80 Q72 101 81 120.5 Q90 140 105.5 154.5 Q121 169 142 178 Q163 187 187 187 Q228 187 251.5 161.5 Q275 136 275 101 Q275 80 266.5 61 Q258 42 242.5 27 Q227 12 206.5 3 Q186 -6 162 -6 Z " />
<glyph glyph-name="questiondown" unicode="&#xbf;" horiz-adv-x="454" d="M321 719 Q363 719 387 693.5 Q411 668 411 633 Q411 612 402 592.5 Q393 573 377.5 558.5 Q362 544 341 535 Q320 526 296 526 Q255 526 231.5 551.5 Q208 577 208 612 Q208 633 216.5 652 Q225 671 240.5 686 Q256 701 276.5 710 Q297 719 321 719 Z M344 492 Q364 492 363 472 L360 382 Q360 367 344 359 Q293 332 262 300.5 Q231 269 231 227 Q231 192 256 173.5 Q281 155 324 155 Q358 155 393 167 Q404 172 410.5 167 Q417 162 415 151 L400 35 Q399 19 383 13 Q352 2 314.5 -2.5 Q277 -7 244 -7 Q193 -7 151 4 Q109 15 79 37 Q49 59 33 90.5 Q17 122 17 164 Q17 210 32.5 247 Q48 284 74 314 Q100 344 133 369.5 Q166 395 202 419 L220 475 Q225 492 242 492 L344 492 Z " />
<glyph glyph-name="quotedbl" unicode="&#x22;" horiz-adv-x="592" d="M133 376 Q113 376 113 396 L120 690 Q120 710 140 710 L305 710 Q328 710 323 688 L256 394 Q251 376 234 376 L133 376 Z M393 376 Q373 376 373 396 L380 690 Q380 710 400 710 L565 710 Q588 710 583 688 L516 394 Q511 376 494 376 L393 376 Z " />
<glyph glyph-name="quotesingle" unicode="&#x27;" horiz-adv-x="332" d="M133 376 Q113 376 113 396 L120 690 Q120 710 140 710 L305 710 Q328 710 323 688 L256 394 Q251 376 234 376 L133 376 L133 376 Z " />
<glyph glyph-name="semicolon" unicode="&#x3b;" horiz-adv-x="323" d="M192 486 Q232 486 255 459 Q278 432 278 394 Q278 372 269.5 351 Q261 330 246 314 Q231 298 211 288.5 Q191 279 168 279 Q127 279 103.5 306.5 Q80 334 80 372 Q80 394 89 415 Q98 436 113 451.5 Q128 467 148.5 476.5 Q169 486 192 486 Z M147 181 Q185 181 208.5 156.5 Q232 132 232 94 Q232 64 215 32.5 Q198 1 178 -36 L106 -171 Q98 -185 82 -185 L57 -185 Q46 -185 41.5 -179 Q37 -173 40 -162 L91 -4 Q68 6 55.5 27.5 Q43 49 43 75 Q43 97 51.5 116.5 Q60 136 74.5 150.5 Q89 165 107.5 173 Q126 181 147 181 Z " />
<glyph glyph-name="slash" unicode="&#x2f;" horiz-adv-x="423" d="M-54 -138 Q-65 -138 -69.5 -131.5 Q-74 -125 -69 -114 L379 775 Q386 790 402 790 L499 790 Q510 790 514 783.5 Q518 777 513 766 L66 -123 Q58 -138 43 -138 L-54 -138 L-54 -138 Z " />
<glyph glyph-name="underscore" unicode="&#x5f;" horiz-adv-x="565" d="M49 -198 Q27 -198 30 -177 L44 -64 Q46 -45 65 -45 L426 -45 Q448 -45 445 -66 L431 -179 Q429 -198 410 -198 L49 -198 L49 -198 Z " />
<glyph glyph-name="braceleft" unicode="&#x7b;" horiz-adv-x="362" d="M278 720 Q307 720 326 716 Q345 712 358 707 Q372 700 370 682 L364 634 Q361 615 345 617 L328 617 Q302 617 286 603.5 Q270 590 270 564 Q270 547 276 524.5 Q282 502 288.5 477 Q295 452 301 427.5 Q307 403 307 382 Q307 360 297.5 339.5 Q288 319 269.5 302 Q251 285 223.5 272.5 Q196 260 160 256 Q220 248 247.5 219 Q275 190 275 154 Q275 129 260.5 98.5 Q246 68 228.5 37.5 Q211 7 196.5 -20.5 Q182 -48 182 -67 Q182 -105 227 -105 L238 -105 Q260 -105 257 -125 L251 -172 Q249 -188 235 -194 Q221 -199 200 -203.5 Q179 -208 149 -208 Q112 -208 85.5 -198.5 Q59 -189 42 -173.5 Q25 -158 17 -138 Q9 -118 9 -97 Q9 -66 24.5 -33 Q40 0 59 31 Q78 62 93.5 90 Q109 118 109 139 Q109 158 97.5 173 Q86 188 60 193 Q40 198 43 216 L49 257 L55 298 Q58 315 75 318 Q113 324 128.5 345 Q144 366 144 390 Q144 407 137.5 429.5 Q131 452 123.5 477 Q116 502 110 528 Q104 554 104 579 Q104 605 114.5 630 Q125 655 146 675 Q167 695 200 707.5 Q233 720 278 720 Z " />
<glyph glyph-name="braceright" unicode="&#x7d;" horiz-adv-x="363" d="M258 373 Q258 353 269 338.5 Q280 324 306 319 Q325 315 324 296 L319 255 L313 214 Q310 197 292 194 Q254 188 238.5 167 Q223 146 223 122 Q223 105 229 82.5 Q235 60 242.5 35 Q250 10 256.5 -16 Q263 -42 263 -67 Q263 -93 252.5 -118 Q242 -143 220.5 -163 Q199 -183 166 -195.5 Q133 -208 88 -208 Q59 -208 40.5 -204 Q22 -200 9 -195 Q-7 -189 -4 -171 L3 -122 Q6 -103 22 -105 L39 -105 Q66 -105 81.5 -91.5 Q97 -78 97 -52 Q97 -35 91.5 -12.5 Q86 10 79 35 Q72 60 66.5 84.5 Q61 109 61 130 Q61 152 70 172.5 Q79 193 97.5 210 Q116 227 143.5 239 Q171 251 207 256 Q147 264 119.5 293 Q92 322 92 358 Q92 383 106.5 413.5 Q121 444 138.5 474.5 Q156 505 170.5 532.5 Q185 560 185 579 Q185 597 173 607 Q161 617 140 617 L128 617 Q106 617 109 637 L116 684 Q118 699 132 705 Q146 711 166.5 715.5 Q187 720 218 720 Q255 720 281.5 710.5 Q308 701 325 685.5 Q342 670 350 650 Q358 630 358 609 Q358 578 342.5 545 Q327 512 308 481 Q289 450 273.5 422 Q258 394 258 373 Z " />
<glyph glyph-name="bracketleft" unicode="&#x5b;" horiz-adv-x="404" d="M277 -181 Q274 -200 255 -200 L25 -200 Q3 -200 6 -179 L127 691 Q130 710 149 710 L379 710 Q401 710 398 689 L388 614 Q385 595 366 595 L265 595 L172 -71 L271 -71 Q292 -71 289 -92 L277 -181 L277 -181 Z " />
<glyph glyph-name="bracketright" unicode="&#x5d;" horiz-adv-x="404" d="M28 -200 Q6 -200 9 -179 L22 -89 Q25 -71 44 -71 L145 -71 L237 595 L139 595 Q117 595 120 616 L131 692 Q134 710 153 710 L383 710 Q405 710 402 689 L280 -181 Q277 -200 258 -200 L28 -200 L28 -200 Z " />
<glyph glyph-name="parenleft" unicode="&#x28;" horiz-adv-x="402" d="M288 -175 Q294 -186 290.5 -192.5 Q287 -199 275 -199 L164 -199 Q148 -199 140 -187 Q89 -116 58 -26.5 Q27 63 27 175 Q27 263 44 337 Q61 411 92.5 475 Q124 539 168.5 594.5 Q213 650 267 700 Q277 710 291 710 L397 710 Q410 710 413.5 703 Q417 696 408 686 Q359 633 319.5 574.5 Q280 516 251.5 453 Q223 390 207.5 323 Q192 256 192 186 Q192 89 217.5 -5.5 Q243 -100 288 -175 Z " />
<glyph glyph-name="parenright" unicode="&#x29;" horiz-adv-x="401" d="M8 -199 Q-5 -199 -8.5 -192 Q-12 -185 -3 -175 Q45 -122 85 -62.5 Q125 -3 153.5 61 Q182 125 198 193 Q214 261 214 332 Q214 427 188.5 519.5 Q163 612 118 686 Q111 697 115 703.5 Q119 710 131 710 L241 710 Q257 710 265 698 Q318 628 348.5 539 Q379 450 379 338 Q379 250 361.5 176 Q344 102 312.5 38 Q281 -26 237 -82 Q193 -138 139 -189 Q129 -199 115 -199 L8 -199 L8 -199 Z " />
<glyph glyph-name="emdash" unicode="&#x2014;" horiz-adv-x="916" d="M97 191 Q76 191 79 212 L92 324 Q93 343 113 343 L825 343 Q846 343 843 322 L830 210 Q829 191 809 191 L97 191 L97 191 Z " />
<glyph glyph-name="endash" unicode="&#x2013;" horiz-adv-x="565" d="M97 191 Q75 191 78 212 L92 325 Q94 344 113 344 L474 344 Q496 344 493 323 L479 210 Q477 191 458 191 L97 191 L97 191 Z " />
<glyph glyph-name="hyphen" unicode="&#x2d;" horiz-adv-x="495" d="M97 191 Q76 191 79 212 L93 327 Q95 346 114 346 L405 346 Q426 346 423 325 L409 210 Q407 191 388 191 L97 191 L97 191 Z " />
<glyph glyph-name="softhyphen" unicode="&#xad;" horiz-adv-x="495" d="M97 191 Q76 191 79 212 L93 327 Q95 346 114 346 L405 346 Q426 346 423 325 L409 210 Q407 191 388 191 L97 191 L97 191 Z " />
<glyph glyph-name="guillemetleft" unicode="&#xab;" horiz-adv-x="707" d="M260 19 Q243 4 232 22 L64 277 Q55 292 67 305 L298 544 Q311 559 326 544 L393 477 Q408 462 395 448 L265 292 L356 136 Q364 121 352 109 L260 19 Z M541 19 Q524 4 513 22 L345 277 Q336 292 348 305 L579 544 Q592 559 607 544 L674 477 Q689 462 676 448 L546 292 L637 136 Q645 121 633 109 L541 19 Z " />
<glyph glyph-name="guillemetright" unicode="&#xbb;" horiz-adv-x="707" d="M178 552 Q195 567 206 549 L374 294 Q383 279 371 266 L140 27 Q127 12 112 27 L45 94 Q30 109 43 123 L173 279 L82 435 Q74 450 86 462 L178 552 Z M459 552 Q476 567 487 549 L655 294 Q664 279 652 266 L421 27 Q408 12 393 27 L326 94 Q311 109 324 123 L454 279 L363 435 Q355 450 367 462 L459 552 Z " />
<glyph glyph-name="guilsinglleft" unicode="&#x2039;" horiz-adv-x="426" d="M260 19 Q243 4 232 22 L64 277 Q55 292 67 305 L298 544 Q311 559 326 544 L393 477 Q408 462 395 448 L265 292 L356 136 Q364 121 352 109 L260 19 L260 19 Z " />
<glyph glyph-name="guilsinglright" unicode="&#x203a;" horiz-adv-x="426" d="M140 20 Q133 12 125 12.5 Q117 13 111 21 L44 107 Q34 121 45 135 L175 292 L84 447 Q75 462 89 475 L177 545 Q192 557 205 541 L375 307 Q386 293 374 279 L140 20 L140 20 Z " />
<glyph glyph-name="quotedblbase" unicode="&#x201e;" horiz-adv-x="579" d="M157 203 Q199 203 224.5 176.5 Q250 150 250 108 Q250 75 231.5 41 Q213 7 191 -34 L112 -183 Q104 -197 88 -197 L57 -197 Q46 -197 41.5 -191 Q37 -185 40 -174 L97 2 Q71 12 57.5 35 Q44 58 44 87 Q44 112 53 133 Q62 154 78 169.5 Q94 185 114 194 Q134 203 157 203 Z M407 203 Q449 203 474.5 176.5 Q500 150 500 108 Q500 75 481.5 41 Q463 7 441 -34 L362 -183 Q354 -197 338 -197 L307 -197 Q296 -197 291.5 -191 Q287 -185 290 -174 L347 2 Q321 12 307.5 35 Q294 58 294 87 Q294 112 303 133 Q312 154 328 169.5 Q344 185 364 194 Q384 203 407 203 Z " />
<glyph glyph-name="quotedblleft" unicode="&#x201c;" horiz-adv-x="579" d="M236 511 Q262 501 275.5 478 Q289 455 289 426 Q289 401 280 380 Q271 359 255 343.5 Q239 328 218.5 319 Q198 310 176 310 Q134 310 108.5 336.5 Q83 363 83 405 Q83 438 101.5 472 Q120 506 142 547 L221 696 Q229 710 245 710 L276 710 Q287 710 291.5 704 Q296 698 293 687 L236 511 L236 511 Z M486 511 Q512 501 525.5 478 Q539 455 539 426 Q539 401 530 380 Q521 359 505 343.5 Q489 328 468.5 319 Q448 310 426 310 Q384 310 358.5 336.5 Q333 363 333 405 Q333 438 351.5 472 Q370 506 392 547 L471 696 Q479 710 495 710 L526 710 Q537 710 541.5 704 Q546 698 543 687 L486 511 L486 511 Z " />
<glyph glyph-name="quotedblright" unicode="&#x201d;" horiz-adv-x="578" d="M220 720 Q262 720 287.5 693.5 Q313 667 313 625 Q313 592 294.5 558 Q276 524 254 483 L175 334 Q167 320 151 320 L120 320 Q109 320 104.5 326 Q100 332 103 343 L160 519 Q134 529 120.5 552 Q107 575 107 604 Q107 629 116 650 Q125 671 141 686.5 Q157 702 177 711 Q197 720 220 720 Z M470 720 Q512 720 537.5 693.5 Q563 667 563 625 Q563 592 544.5 558 Q526 524 504 483 L425 334 Q417 320 401 320 L370 320 Q359 320 354.5 326 Q350 332 353 343 L410 519 Q384 529 370.5 552 Q357 575 357 604 Q357 629 366 650 Q375 671 391 686.5 Q407 702 427 711 Q447 720 470 720 Z " />
<glyph glyph-name="quoteleft" unicode="&#x2018;" horiz-adv-x="330" d="M236 511 Q262 501 275.5 478 Q289 455 289 426 Q289 401 280 380 Q271 359 255 343.5 Q239 328 218.5 319 Q198 310 176 310 Q134 310 108.5 336.5 Q83 363 83 405 Q83 438 101.5 472 Q120 506 142 547 L221 696 Q229 710 245 710 L276 710 Q287 710 291.5 704 Q296 698 293 687 L236 511 L236 511 Z " />
<glyph glyph-name="quoteright" unicode="&#x2019;" horiz-adv-x="329" d="M220 720 Q262 720 287.5 693.5 Q313 667 313 625 Q313 592 294.5 558 Q276 524 254 483 L175 334 Q167 320 151 320 L120 320 Q109 320 104.5 326 Q100 332 103 343 L160 519 Q134 529 120.5 552 Q107 575 107 604 Q107 629 116 650 Q125 671 141 686.5 Q157 702 177 711 Q197 720 220 720 Z " />
<glyph glyph-name="quotesinglbase" unicode="&#x201a;" horiz-adv-x="330" d="M157 203 Q199 203 224.5 176.5 Q250 150 250 108 Q250 75 231.5 41 Q213 7 191 -34 L112 -183 Q104 -197 88 -197 L57 -197 Q46 -197 41.5 -191 Q37 -185 40 -174 L97 2 Q71 12 57.5 35 Q44 58 44 87 Q44 112 53 133 Q62 154 78 169.5 Q94 185 114 194 Q134 203 157 203 Z " />
<glyph glyph-name="emspace" unicode="&#x2003;" horiz-adv-x="1000" d="" />
<glyph glyph-name="enspace" unicode="&#x2002;" horiz-adv-x="500" d="" />
<glyph glyph-name="fourperemspace" unicode="&#x2005;" horiz-adv-x="250" d="" />
<glyph glyph-name="hairspace" unicode="&#x200a;" horiz-adv-x="62" d="" />
<glyph glyph-name="Acircumflex" unicode="&#xc2;" horiz-adv-x="664" d="M428 0 Q408 0 407 19 Q401 58 398 97 L226 97 Q218 77 210.5 56.5 Q203 36 195 16 Q189 0 172 0 L2 0 Q-23 0 -13 23 L297 696 Q304 711 320 711 L459 711 Q478 711 481 693 L624 22 Q629 0 607 0 L428 0 Z M381 235 L357 440 Q337 389 317.5 337.5 Q298 286 278 235 L381 235 Z M574 779 Q579 768 575 761.5 Q571 755 560 755 L478 755 Q462 755 453 768 L415 827 L360 766 Q349 755 335 755 L254 755 Q241 755 237.5 762 Q234 769 242 779 L349 916 Q358 928 373 928 L480 928 Q496 928 503 914 L574 779 L574 779 Z " />
<glyph glyph-name="nbspace" unicode="&#xa0;" horiz-adv-x="185" d="" />
<glyph glyph-name="thinspace" unicode="&#x2009;" horiz-adv-x="93" d="" />
<glyph glyph-name="threeperemspace" unicode="&#x2004;" horiz-adv-x="558" d="" />
<glyph glyph-name="cent" unicode="&#xa2;" horiz-adv-x="421" d="M344 470 Q324 470 305 461.5 Q286 453 272 438 Q258 423 249.5 401 Q241 379 241 352 Q241 311 263.5 288.5 Q286 266 319 266 Q349 266 374 277 Q398 287 395 263 L382 159 Q380 144 366 138 Q351 132 330.5 127 Q310 122 287 120 L262 -5 Q259 -23 240 -23 L177 -23 Q166 -23 161.5 -17 Q157 -11 160 -1 L194 127 Q161 135 133 153 Q105 171 84.5 197.5 Q64 224 52 259 Q40 294 40 337 Q40 395 58.5 442 Q77 489 108 524 Q139 559 180 581 Q221 603 266 611 L284 715 Q287 733 305 733 L368 733 Q391 733 386 711 L362 614 Q393 609 415 603 Q431 597 429 579 L416 472 Q413 451 398 458 Q387 464 373 467 Q359 470 344 470 Z " />
<glyph glyph-name="currency" unicode="&#xa4;" horiz-adv-x="585" d="M513 351 Q513 309 503.5 270.5 Q494 232 475 200 L567 65 Q577 49 562 38 L517 7 Q501 -5 490 12 L408 130 Q366 105 312 105 Q256 105 212 133 L128 12 Q117 -5 101 7 L56 38 Q41 49 51 65 L147 206 Q112 268 112 351 Q112 440 147 502 L50 642 Q39 659 56 670 L102 701 Q118 713 129 696 L214 573 Q257 599 312 599 Q365 599 406 576 L489 696 Q500 713 516 701 L561 670 Q577 658 567 642 L474 508 Q513 443 513 351 Z M312 241 Q344 241 360 271 Q376 301 376 351 Q376 402 360 432 Q344 462 312 462 Q280 462 264.5 432 Q249 402 249 351 Q249 301 264.5 271 Q280 241 312 241 Z " />
<glyph glyph-name="dollar" unicode="&#x24;" horiz-adv-x="520" d="M352 553 Q320 553 300.5 539 Q281 525 281 501 Q281 476 303.5 462 Q326 448 360 431 Q390 416 414.5 399 Q439 382 456 361 Q473 340 482.5 314 Q492 288 492 255 Q492 207 474.5 165 Q457 123 425.5 91 Q394 59 350 38 Q306 17 252 10 L219 -117 Q214 -134 196 -134 L112 -134 Q101 -134 96.5 -128 Q92 -122 95 -112 L128 12 Q98 16 70.5 23 Q43 30 20 41 Q4 49 7 66 L26 195 Q29 218 50 208 Q84 191 120.5 180.5 Q157 170 195 170 Q226 170 245.5 183.5 Q265 197 265 224 Q265 246 249 260 Q233 274 202 289 Q176 301 150.5 316.5 Q125 332 105 353 Q85 374 72 402 Q59 430 59 468 Q59 519 78.5 559.5 Q98 600 131 630 Q164 660 207 678.5 Q250 697 297 703 L330 821 Q334 838 353 838 L436 838 Q447 838 451.5 832 Q456 826 453 816 L421 702 Q444 700 465 696 Q486 692 505 686 Q523 682 520 663 L504 547 Q501 525 481 533 Q452 542 416.5 547.5 Q381 553 352 553 Z " />
<glyph glyph-name="euro" unicode="&#x20ac;" horiz-adv-x="520" d="M430 720 Q462 720 493 714.5 Q524 709 546 700 Q562 694 559 676 L540 541 Q537 520 516 530 Q500 538 478.5 543 Q457 548 433 548 Q393 548 361 529 Q329 510 307 475 L488 475 Q510 475 507 454 L500 401 Q497 382 478 382 L271 382 Q269 370 268 358 Q267 346 266 333 L469 333 Q490 333 487 312 L480 257 Q478 238 459 238 L280 238 Q294 203 319 184.5 Q344 166 378 166 Q404 166 429.5 171.5 Q455 177 475 187 Q486 192 492.5 189 Q499 186 497 173 L479 44 Q478 29 463 22 Q432 8 390.5 -0.5 Q349 -9 307 -9 Q260 -9 219.5 8 Q179 25 147 56.5 Q115 88 93.5 134 Q72 180 65 238 L17 238 Q-4 238 -1 259 L6 314 Q8 333 27 333 L63 333 Q64 358 69 382 L36 382 Q15 382 18 403 L25 456 Q27 475 46 475 L94 475 Q116 533 151 578.5 Q186 624 230 655.5 Q274 687 325 703.5 Q376 720 430 720 Z " />
<glyph glyph-name="florin" unicode="&#x192;" horiz-adv-x="515" d="M462 600 Q433 600 416.5 583.5 Q400 567 391 530 L380 480 L472 480 Q493 480 490 459 L478 363 Q476 344 457 344 L348 344 L276 29 Q250 -84 194.5 -139 Q139 -194 41 -194 Q18 -194 -4 -191 Q-26 -188 -43 -183 Q-60 -179 -58 -159 L-45 -51 Q-42 -31 -21 -35 Q-9 -38 9 -38 Q38 -38 54.5 -21.5 Q71 -5 80 32 L152 344 L78 344 Q56 344 59 365 L71 461 Q73 480 92 480 L184 480 L196 533 Q223 645 278 700.5 Q333 756 431 756 Q453 756 475 753 Q497 750 514 745 Q531 739 529 721 L516 613 Q513 591 499 596 Q491 598 482 599 Q473 600 462 600 Z " />
<glyph glyph-name="sterling" unicode="&#xa3;" horiz-adv-x="520" d="M447 554 Q413 554 386 532 Q359 510 348 461 L339 421 L463 421 Q485 421 482 400 L469 309 Q466 291 447 291 L309 291 L277 150 L438 150 Q460 150 457 129 L441 18 Q438 0 419 0 L18 0 Q-4 0 -1 21 L14 131 Q17 150 36 150 L78 150 L111 291 L66 291 Q44 291 47 312 L59 402 Q62 421 81 421 L142 421 L155 474 Q170 535 196 581 Q222 627 256.5 658 Q291 689 333.5 704.5 Q376 720 423 720 Q459 720 489.5 715 Q520 710 544 702 Q561 696 558 678 L540 551 Q537 529 518 537 Q486 554 447 554 Z " />
<glyph glyph-name="yen" unicode="&#xa5;" horiz-adv-x="625" d="M666 711 Q678 711 682 704 Q686 697 679 687 L449 330 L529 330 Q551 330 548 309 L536 218 Q533 199 514 199 L403 199 L379 19 Q376 0 357 0 L189 0 Q167 0 170 21 L195 199 L100 199 Q78 199 81 220 L93 311 Q96 330 115 330 L186 330 L53 688 Q49 699 53.5 705 Q58 711 69 711 L247 711 Q266 711 270 694 L341 436 L478 697 Q485 711 502 711 L666 711 L666 711 Z " />
<glyph glyph-name="plus" unicode="&#x2b;" horiz-adv-x="617" d="M561 387 Q581 387 581 367 L581 252 Q581 232 561 232 L388 232 L388 57 Q388 37 368 37 L249 37 Q229 37 229 57 L229 232 L55 232 Q35 232 35 252 L35 367 Q35 387 55 387 L229 387 L229 564 Q229 584 249 584 L368 584 Q388 584 388 564 L388 387 L561 387 L561 387 Z " />
<glyph glyph-name="minus" unicode="&#x2212;" horiz-adv-x="617" d="M55 232 Q35 232 35 252 L35 367 Q35 387 55 387 L561 387 Q581 387 581 367 L581 252 Q581 232 561 232 L55 232 L55 232 Z " />
<glyph glyph-name="multiply" unicode="&#xd7;" horiz-adv-x="617" d="M553 466 Q567 452 553 438 L418 303 L553 168 Q567 154 553 140 L471 58 Q457 44 443 58 L308 193 L173 58 Q159 44 145 58 L63 140 Q49 154 63 168 L198 303 L62 438 Q48 452 62 466 L144 548 Q158 562 172 548 L308 413 L443 548 Q457 562 471 548 L553 466 L553 466 Z " />
<glyph glyph-name="divide" unicode="&#xf7;" horiz-adv-x="617" d="M281 446 Q241 446 218 471 Q195 496 195 529 Q195 549 203.5 567.5 Q212 586 227 600.5 Q242 615 262 623.5 Q282 632 305 632 Q343 632 366 608 Q389 584 389 550 Q389 530 380.5 511 Q372 492 357.5 477.5 Q343 463 323.5 454.5 Q304 446 281 446 Z M55 238 Q35 238 35 258 L35 373 Q35 393 55 393 L561 393 Q581 393 581 373 L581 258 Q581 238 561 238 L55 238 Z M281 -1 Q241 -1 218 24 Q195 49 195 82 Q195 102 203.5 120.5 Q212 139 227 153.5 Q242 168 262 176.5 Q282 185 305 185 Q343 185 366 161 Q389 137 389 103 Q389 83 380.5 64 Q372 45 357.5 30.5 Q343 16 323.5 7.5 Q304 -1 281 -1 Z " />
<glyph glyph-name="equal" unicode="&#x3d;" horiz-adv-x="617" d="M55 347 Q35 347 35 367 L35 482 Q35 502 55 502 L561 502 Q581 502 581 482 L581 367 Q581 347 561 347 L55 347 Z M55 127 Q35 127 35 147 L35 262 Q35 282 55 282 L561 282 Q581 282 581 262 L581 147 Q581 127 561 127 L55 127 Z " />
<glyph glyph-name="notequal" unicode="&#x2260;" horiz-adv-x="617" d="M581 367 Q581 347 561 347 L367 347 L331 282 L561 282 Q581 282 581 262 L581 147 Q581 127 561 127 L245 127 L203 51 Q196 37 179 37 L126 37 Q115 37 111 44 Q107 51 112 61 L149 127 L55 127 Q35 127 35 147 L35 262 Q35 282 55 282 L235 282 L271 347 L55 347 Q35 347 35 367 L35 482 Q35 502 55 502 L357 502 L395 570 Q402 584 419 584 L471 584 Q482 584 486 577.5 Q490 571 485 560 L453 502 L561 502 Q581 502 581 482 L581 367 L581 367 Z " />
<glyph glyph-name="greater" unicode="&#x3e;" horiz-adv-x="617" d="M79 11 Q68 6 61.5 10.5 Q55 15 55 26 L55 171 Q55 186 70 194 L321 311 L70 427 Q55 434 55 450 L55 593 Q55 604 61.5 608.5 Q68 613 79 608 L595 356 Q610 348 610 333 L610 286 Q610 270 595 263 L79 11 L79 11 Z " />
<glyph glyph-name="less" unicode="&#x3c;" horiz-adv-x="617" d="M581 26 Q581 15 574.5 11 Q568 7 557 12 L42 263 Q27 270 27 286 L27 333 Q27 348 42 356 L557 607 Q568 612 574.5 608 Q581 604 581 593 L581 450 Q581 434 566 427 L316 311 L566 194 Q581 186 581 171 L581 26 L581 26 Z " />
<glyph glyph-name="greaterequal" unicode="&#x2265;" horiz-adv-x="617" d="M66 189 Q55 184 48.5 188.5 Q42 193 42 204 L42 349 Q42 364 57 372 L308 489 L57 605 Q42 612 42 628 L42 771 Q42 782 48.5 786.5 Q55 791 66 786 L582 534 Q597 526 597 511 L597 464 Q597 448 582 441 L66 189 Z M55 0 Q35 0 35 20 L35 135 Q35 155 55 155 L561 155 Q581 155 581 135 L581 20 Q581 0 561 0 L55 0 Z " />
<glyph glyph-name="lessequal" unicode="&#x2264;" horiz-adv-x="617" d="M579 204 Q579 193 572.5 188.5 Q566 184 555 189 L39 441 Q24 448 24 464 L24 511 Q24 526 39 534 L555 786 Q566 791 572.5 786.5 Q579 782 579 771 L579 628 Q579 612 564 605 L313 489 L564 372 Q579 364 579 349 L579 204 Z M586 20 Q586 0 566 0 L60 0 Q40 0 40 20 L40 135 Q40 155 60 155 L566 155 Q586 155 586 135 L586 20 Z " />
<glyph glyph-name="plusminus" unicode="&#xb1;" horiz-adv-x="617" d="M241 275 Q221 275 221 295 L221 408 L75 408 Q55 408 55 428 L55 543 Q55 563 75 563 L221 563 L221 675 Q221 695 241 695 L356 695 Q376 695 376 675 L376 563 L521 563 Q541 563 541 543 L541 428 Q541 408 521 408 L376 408 L376 295 Q376 275 356 275 L241 275 Z M35 172 Q35 192 55 192 L561 192 Q581 192 581 172 L581 57 Q581 37 561 37 L55 37 Q35 37 35 57 L35 172 Z " />
<glyph glyph-name="approxequal" unicode="&#x2248;" horiz-adv-x="600" d="M407 361 Q371 361 341 375 Q311 389 285 405 Q265 418 247 427 Q229 436 211 436 Q192 436 181 422.5 Q170 409 165 386 Q162 367 144 367 L69 367 Q48 367 50 388 Q53 430 63 465.5 Q73 501 91 527 Q109 553 135 568 Q161 583 195 583 Q227 583 255 569.5 Q283 556 308 541 Q329 528 348.5 518.5 Q368 509 387 509 Q404 509 414 522 Q424 535 426 555 Q429 575 447 575 L525 575 Q547 575 545 547 Q543 506 532 472 Q521 438 503 413 Q485 388 461 374.5 Q437 361 407 361 Z M407 105 Q371 105 341 119 Q311 133 285 149 Q265 162 247 171 Q229 180 211 180 Q192 180 181 166.5 Q170 153 165 130 Q162 111 144 111 L69 111 Q48 111 50 132 Q53 174 63 209.5 Q73 245 91 271 Q109 297 135 312 Q161 327 195 327 Q227 327 255 313.5 Q283 300 308 285 Q329 272 348.5 262.5 Q368 253 387 253 Q404 253 414 266 Q424 279 426 299 Q429 319 447 319 L525 319 Q547 319 545 291 Q543 250 532 216 Q521 182 503 157 Q485 132 461 118.5 Q437 105 407 105 Z " />
<glyph glyph-name="asciitilde" unicode="&#x7e;" horiz-adv-x="617" d="M407 203 Q371 203 341 217 Q311 231 285 247 Q265 260 247 269 Q229 278 211 278 Q192 278 181 264.5 Q170 251 165 228 Q162 209 144 209 L69 209 Q48 209 50 230 Q53 272 63 307.5 Q73 343 91 369 Q109 395 135 410 Q161 425 195 425 Q227 425 255 411.5 Q283 398 308 383 Q329 370 348.5 360.5 Q368 351 387 351 Q404 351 414 364 Q424 377 426 397 Q429 417 447 417 L525 417 Q547 417 545 389 Q543 348 532 314 Q521 280 503 255 Q485 230 461 216.5 Q437 203 407 203 Z " />
<glyph glyph-name="logicalnot" unicode="&#xac;" horiz-adv-x="617" d="M521 461 Q541 461 541 441 L541 160 Q541 140 521 140 L393 140 Q373 140 373 160 L373 309 L75 309 Q55 309 55 329 L55 441 Q55 461 75 461 L521 461 L521 461 Z " />
<glyph glyph-name="infinity" unicode="&#x221e;" horiz-adv-x="913" d="M660 551 Q705 551 745.5 533.5 Q786 516 816.5 485 Q847 454 865 411 Q883 368 883 317 Q883 265 865.5 222 Q848 179 817.5 148 Q787 117 746.5 100 Q706 83 661 83 Q630 83 602.5 92.5 Q575 102 551 117 Q527 132 506.5 152 Q486 172 469 193 Q422 140 373.5 111.5 Q325 83 272 83 Q224 83 182.5 100.5 Q141 118 110.5 149 Q80 180 62 222 Q44 264 44 313 Q44 363 62.5 406.5 Q81 450 112.5 482 Q144 514 185.5 532.5 Q227 551 273 551 Q302 551 327.5 541.5 Q353 532 375.5 516 Q398 500 417.5 479 Q437 458 454 436 Q474 461 495.5 482 Q517 503 542 518.5 Q567 534 596 542.5 Q625 551 660 551 Z M265 234 Q282 234 305.5 252.5 Q329 271 364 316 Q329 362 307 381 Q285 400 266 400 Q245 400 225 377.5 Q205 355 205 317 Q205 279 224.5 256.5 Q244 234 265 234 Z M660 234 Q683 234 702.5 255.5 Q722 277 722 315 Q722 334 716 349.5 Q710 365 701 376.5 Q692 388 680.5 394 Q669 400 658 400 Q632 400 607 374 Q582 348 553 308 Q588 269 612.5 251.5 Q637 234 660 234 Z " />
<glyph glyph-name="integral" unicode="&#x222b;" horiz-adv-x="445" d="M59 -210 Q36 -210 13 -206.5 Q-10 -203 -28 -198 Q-44 -194 -44 -176 L-44 -68 Q-44 -46 -22 -51 Q-9 -54 8 -54 Q37 -54 51.5 -37.5 Q66 -21 71 16 L132 533 Q145 645 193 700.5 Q241 756 340 756 Q363 756 386 752.5 Q409 749 427 744 Q443 740 443 722 L443 614 Q443 592 421 597 Q407 600 391 600 Q362 600 347.5 583.5 Q333 567 328 530 L267 13 Q254 -100 206 -155 Q158 -210 59 -210 Z " />
<glyph glyph-name="product" unicode="&#x220f;" horiz-adv-x="761" d="M721 710 Q741 710 741 690 L741 559 Q741 539 721 539 L653 539 L653 -102 Q653 -122 633 -122 L457 -122 Q437 -122 437 -102 L437 539 L339 539 L339 -102 Q339 -122 319 -122 L152 -122 Q132 -122 132 -102 L132 539 L57 539 Q37 539 37 559 L37 690 Q37 710 57 710 L721 710 L721 710 Z " />
<glyph glyph-name="summation" unicode="&#x2211;" horiz-adv-x="582" d="M517 26 Q537 26 537 6 L537 -110 Q537 -130 517 -130 L72 -130 Q52 -130 52 -110 L52 -28 Q52 -14 60 -3 L281 291 L60 583 Q52 594 52 608 L52 690 Q52 710 72 710 L507 710 Q527 710 527 690 L527 575 Q527 555 507 555 L288 555 L477 305 Q487 291 477 277 L288 26 L517 26 Z " />
<glyph glyph-name="radical" unicode="&#x221a;" horiz-adv-x="676" d="M478 694 Q484 710 501 710 L635 710 Q659 710 651 687 L330 -114 Q324 -130 307 -130 L247 -130 Q231 -130 224 -115 L16 310 Q11 321 15 327.5 Q19 334 30 334 L172 334 Q190 334 195 319 L274 131 L478 694 L478 694 Z " />
<glyph glyph-name="micro" unicode="&#xb5;" horiz-adv-x="568" d="M350 461 Q351 480 371 480 L527 480 Q548 480 546 459 L496 19 Q495 0 475 0 L346 0 Q328 0 326 19 L324 58 L321 58 Q287 -9 233 -9 Q208 -9 192 0 L190 -180 Q190 -200 170 -200 L15 -200 Q-6 -200 -3 -178 L40 59 L71 462 Q73 481 91 481 L246 480 Q267 480 265 459 L234 183 Q233 178 233 174 Q233 170 233 166 Q233 122 270 122 Q290 122 301.5 137 Q313 152 318 178 L350 461 L350 461 Z " />
<glyph glyph-name="partialdiff" unicode="&#x2202;" horiz-adv-x="573" d="M232 720 Q321 720 381.5 695.5 Q442 671 479.5 629 Q517 587 533 531 Q549 475 549 412 Q549 326 528 249.5 Q507 173 467 115 Q427 57 369.5 23.5 Q312 -10 240 -10 Q196 -10 157 4.5 Q118 19 88.5 47 Q59 75 42 115.5 Q25 156 25 208 Q25 270 47.5 319 Q70 368 106 401.5 Q142 435 188 452.5 Q234 470 282 470 Q302 470 319.5 467.5 Q337 465 352 460 Q340 517 302 542 Q264 567 195 567 Q165 567 143 564 Q120 561 123 583 L139 694 Q142 711 158 714 Q177 718 195.5 719 Q214 720 232 720 Z M268 150 Q284 150 297.5 165 Q311 180 321 204 Q331 228 338.5 258 Q346 288 350 318 Q341 320 331 321.5 Q321 323 308 323 Q273 323 251 291.5 Q229 260 229 210 Q229 184 238.5 167 Q248 150 268 150 Z " />
<glyph glyph-name="percent" unicode="&#x25;" horiz-adv-x="736" d="M77 2 Q60 13 73 30 L634 731 Q647 746 662 736 L687 719 Q704 708 692 692 L129 -10 Q117 -25 101 -14 L77 2 Z M208 386 Q179 386 154 396 Q129 406 109.5 425 Q90 444 79 471 Q68 498 68 532 Q68 575 83.5 610 Q99 645 124.5 669.5 Q150 694 182.5 707 Q215 720 249 720 Q278 720 304 709.5 Q330 699 349 679.5 Q368 660 379 633 Q390 606 390 572 Q390 530 374.5 495.5 Q359 461 333.5 436.5 Q308 412 275 399 Q242 386 208 386 Z M222 492 Q234 492 241.5 499 Q249 506 254 517 Q259 528 261 541.5 Q263 555 263 568 Q263 587 257 600.5 Q251 614 237 614 Q216 614 205.5 590 Q195 566 195 538 Q195 518 201.5 505 Q208 492 222 492 Z M512 -10 Q483 -10 457 0 Q431 10 412 29 Q393 48 382 75 Q371 102 371 136 Q371 179 386.5 213.5 Q402 248 427.5 272.5 Q453 297 486 310.5 Q519 324 553 324 Q582 324 607.5 313.5 Q633 303 652.5 283.5 Q672 264 683 237 Q694 210 694 176 Q694 134 678.5 99.5 Q663 65 637.5 40.5 Q612 16 579 3 Q546 -10 512 -10 Z M524 96 Q536 96 544 103 Q552 110 556.5 121 Q561 132 563 145.5 Q565 159 565 172 Q565 191 559.5 204.5 Q554 218 539 218 Q519 218 508.5 194 Q498 170 498 142 Q498 122 504 109 Q510 96 524 96 Z " />
<glyph glyph-name="perthousand" unicode="&#x2030;" horiz-adv-x="1104" d="M77 2 Q60 13 73 30 L634 731 Q647 746 662 736 L687 719 Q704 708 692 692 L129 -10 Q117 -25 101 -14 L77 2 Z M208 386 Q179 386 154 396 Q129 406 109.5 425 Q90 444 79 471 Q68 498 68 532 Q68 575 83.5 610 Q99 645 124.5 669.5 Q150 694 182.5 707 Q215 720 249 720 Q278 720 304 709.5 Q330 699 349 679.5 Q368 660 379 633 Q390 606 390 572 Q390 530 374.5 495.5 Q359 461 333.5 436.5 Q308 412 275 399 Q242 386 208 386 Z M222 492 Q234 492 241.5 499 Q249 506 254 517 Q259 528 261 541.5 Q263 555 263 568 Q263 587 257 600.5 Q251 614 237 614 Q216 614 205.5 590 Q195 566 195 538 Q195 518 201.5 505 Q208 492 222 492 Z M512 -10 Q483 -10 457 0 Q431 10 412 29 Q393 48 382 75 Q371 102 371 136 Q371 179 386.5 213.5 Q402 248 427.5 272.5 Q453 297 486 310.5 Q519 324 553 324 Q582 324 607.5 313.5 Q633 303 652.5 283.5 Q672 264 683 237 Q694 210 694 176 Q694 134 678.5 99.5 Q663 65 637.5 40.5 Q612 16 579 3 Q546 -10 512 -10 Z M879 -10 Q850 -10 824.5 0 Q799 10 780 29 Q761 48 750 75 Q739 102 739 136 Q739 179 754.5 213.5 Q770 248 795.5 272.5 Q821 297 853.5 310.5 Q886 324 920 324 Q949 324 975 313.5 Q1001 303 1020 283.5 Q1039 264 1050 237 Q1061 210 1061 176 Q1061 134 1045.5 99.5 Q1030 65 1004.5 40.5 Q979 16 946 3 Q913 -10 879 -10 Z M524 96 Q536 96 544 103 Q552 110 556.5 121 Q561 132 563 145.5 Q565 159 565 172 Q565 191 559.5 204.5 Q554 218 539 218 Q519 218 508.5 194 Q498 170 498 142 Q498 122 504 109 Q510 96 524 96 Z M892 96 Q904 96 912 103 Q920 110 924.5 121 Q929 132 931 145.5 Q933 159 933 172 Q933 191 927 204.5 Q921 218 907 218 Q887 218 876 194 Q865 170 865 142 Q865 122 871.5 109 Q878 96 892 96 Z " />
<glyph glyph-name="lozenge" unicode="&#x25ca;" horiz-adv-x="617" d="M287 -44 Q270 -44 263 -30 L58 342 Q50 356 58 370 L263 742 Q270 756 287 756 L329 756 Q346 756 353 742 L558 370 Q566 356 558 342 L353 -30 Q346 -44 329 -44 L287 -44 Z M407 356 L309 530 L209 356 L309 182 L407 356 Z " />
<glyph glyph-name="apple" unicode="&#xf8ff;" horiz-adv-x="999" d="M499 -140 Q430 -140 366.5 -122 Q303 -104 247.5 -71.5 Q192 -39 146.5 6.5 Q101 52 68.5 107.5 Q36 163 18 227 Q0 291 0 360 Q0 463 39.5 554 Q79 645 146.5 712.5 Q214 780 305 819.5 Q396 859 499 859 Q602 859 693 819.5 Q784 780 852 712.5 Q920 645 959.5 554 Q999 463 999 360 Q999 256 959.5 165 Q920 74 852 6.5 Q784 -61 693 -100.5 Q602 -140 499 -140 Z M499 109 Q585 109 671.5 112 Q758 115 840 124 Q864 126 876.5 134.5 Q889 143 892 168 Q896 216 896.5 263.5 Q897 311 897 360 Q897 408 896.5 455.5 Q896 503 892 551 Q889 576 876.5 584.5 Q864 593 840 595 Q758 604 671.5 607 Q585 610 499 610 Q413 610 326.5 607 Q240 604 157 595 Q134 593 121.5 584.5 Q109 576 106 551 Q101 503 100.5 455.5 Q100 408 100 360 Q100 311 100.5 263.5 Q101 216 106 168 Q109 143 121.5 134.5 Q134 126 157 124 Q240 115 326.5 112 Q413 109 499 109 Z M499 157 Q456 157 419 173 Q382 189 355 217 Q328 245 312.5 281.5 Q297 318 297 360 Q297 401 312.5 438 Q328 475 355 502.5 Q382 530 419 546 Q456 562 499 562 Q542 562 579 546 Q616 530 643 502.5 Q670 475 685.5 438 Q701 401 701 360 Q701 318 685.5 281.5 Q670 245 643 217 Q616 189 579 173 Q542 157 499 157 Z " />
<glyph glyph-name="at" unicode="&#x40;" horiz-adv-x="865" d="M636 433 Q657 433 654 412 L625 167 Q624 162 624 153 Q624 117 655 117 Q675 117 694 131.5 Q713 146 727.5 172 Q742 198 751 234 Q760 270 760 313 Q760 373 739.5 423.5 Q719 474 681.5 510.5 Q644 547 591 567.5 Q538 588 472 588 Q398 588 331 558 Q264 528 214 476 Q164 424 134.5 354 Q105 284 105 203 Q105 136 126 77.5 Q147 19 186 -24.5 Q225 -68 282 -93 Q339 -118 411 -118 Q468 -118 530.5 -102.5 Q593 -87 655 -55 Q666 -49 672.5 -53.5 Q679 -58 677 -70 L674 -99 Q673 -114 658 -121 Q594 -154 529 -168.5 Q464 -183 403 -183 Q318 -183 250 -154 Q182 -125 134 -74 Q86 -23 60.5 46.5 Q35 116 35 197 Q35 296 71.5 379.5 Q108 463 169.5 523.5 Q231 584 311 618.5 Q391 653 478 653 Q557 653 622 628 Q687 603 733.5 558.5 Q780 514 805 453 Q830 392 830 320 Q830 256 812.5 203 Q795 150 764 111.5 Q733 73 690 52 Q647 31 597 31 Q552 31 516.5 51 Q481 71 472 116 Q449 80 417 62 Q385 44 350 44 Q321 44 297 56.5 Q273 69 256 91.5 Q239 114 230 145 Q221 176 221 213 Q221 261 235 302.5 Q249 344 273.5 374.5 Q298 405 330.5 423 Q363 441 399 441 Q469 441 494 369 L500 414 Q502 433 521 433 L636 433 Z M423 161 Q443 161 456.5 179.5 Q470 198 475 227 L478 247 L478 261 Q478 288 469 304 Q460 320 442 320 Q416 320 400.5 292 Q385 264 385 222 Q385 194 395.5 177.5 Q406 161 423 161 Z " />
<glyph glyph-name="ampersand" unicode="&#x26;" horiz-adv-x="691" d="M627 345 Q613 286 590 236.5 Q567 187 538 146 L614 24 Q620 14 616.5 7 Q613 0 601 0 L442 0 Q426 0 418 14 L409 32 Q371 12 329 1 Q287 -10 241 -10 Q196 -10 156.5 1.5 Q117 13 88 35.5 Q59 58 42.5 92.5 Q26 127 26 172 Q26 244 67 298 Q108 352 180 385 Q165 408 156 437 Q147 466 147 499 Q147 548 166.5 589 Q186 630 219 659.5 Q252 689 295.5 705 Q339 721 388 721 Q443 721 489 710 Q507 705 504 686 L488 572 Q485 551 464 558 Q440 566 413 566 Q388 566 368 547 Q348 528 348 496 Q348 467 362 436 Q376 405 398 370 L447 292 Q452 306 456 321 Q460 336 464 352 Q467 364 469.5 376.5 Q472 389 474 402 Q475 421 495 421 L620 421 Q630 421 635 415.5 Q640 410 638 399 Q636 385 633 372 Q630 359 627 345 Z M210 202 Q210 170 229 150.5 Q248 131 283 131 Q312 131 337 144 L250 288 Q210 257 210 202 Z " />
<glyph glyph-name="paragraph" unicode="&#xb6;" horiz-adv-x="618" d="M434 710 Q456 710 453 689 L369 94 Q360 26 328.5 -44 Q297 -114 244 -175 Q234 -186 219 -186 L150 -186 Q137 -186 134 -179 Q131 -172 139 -162 Q193 -102 224 -36 Q255 30 264 94 L282 224 L271 224 Q227 224 186.5 238.5 Q146 253 115.5 280.5 Q85 308 66.5 347.5 Q48 387 48 438 Q48 502 74 552.5 Q100 603 141.5 638 Q183 673 235 691.5 Q287 710 339 710 L434 710 Z M508 692 Q511 710 530 710 L593 710 Q615 710 612 689 L559 309 Q549 243 518 178.5 Q487 114 445 67 Q436 56 428 60 Q420 64 422 79 L508 692 Z " />
<glyph glyph-name="section" unicode="&#xa7;" horiz-adv-x="556" d="M540 585 Q537 565 516 570 Q494 576 468 581 Q442 586 416 589 Q390 592 365 594 Q340 596 321 596 Q313 596 304.5 595.5 Q296 595 288 594 L464 258 Q484 221 496 182.5 Q508 144 508 100 Q508 35 483 -21 Q458 -77 412.5 -118.5 Q367 -160 303.5 -184 Q240 -208 163 -208 Q121 -208 78.5 -200.5 Q36 -193 1 -179 Q-16 -173 -13 -155 L4 -35 Q7 -13 28 -21 Q63 -35 110 -42 Q157 -49 205 -49 Q231 -49 254 -47 Q277 -45 297 -41 L124 300 Q104 338 87 381 Q70 424 70 479 Q70 545 96 596.5 Q122 648 164.5 683 Q207 718 262.5 736.5 Q318 755 377 755 Q420 755 462.5 749 Q505 743 542 731 Q560 724 557 707 L540 585 Z M219 577 Q184 561 163.5 533.5 Q143 506 143 469 Q143 435 156 402.5 Q169 370 188 333 L363 -17 Q433 22 433 107 Q433 135 423 162 Q413 189 397 221 L219 577 Z " />
<glyph glyph-name="copyright" unicode="&#xa9;" horiz-adv-x="698" d="M319 -11 Q260 -11 210 12 Q160 35 123 77 Q86 119 65.5 177.5 Q45 236 45 307 Q45 398 75.5 474 Q106 550 157 604.5 Q208 659 273 689.5 Q338 720 407 720 Q465 720 514.5 696.5 Q564 673 601 630.5 Q638 588 659 528.5 Q680 469 680 397 Q680 307 650 232 Q620 157 569.5 103 Q519 49 454 19 Q389 -11 319 -11 Z M324 29 Q384 29 441 55.5 Q498 82 542 130.5 Q586 179 612.5 246 Q639 313 639 394 Q639 459 621 512 Q603 565 571 602.5 Q539 640 496 660.5 Q453 681 402 681 Q341 681 284 654 Q227 627 183 578 Q139 529 112.5 460.5 Q86 392 86 310 Q86 247 104 195 Q122 143 154 106.5 Q186 70 229.5 49.5 Q273 29 324 29 Z M350 130 Q314 130 283 143 Q252 156 229.5 180.5 Q207 205 194.5 241 Q182 277 182 322 Q182 382 200.5 429.5 Q219 477 250 510 Q281 543 321.5 560.5 Q362 578 405 578 Q449 578 477 568 Q493 562 491 544 L481 461 Q478 441 458 450 Q438 459 415 459 Q374 459 350.5 424 Q327 389 327 335 Q327 296 344 273.5 Q361 251 388 251 Q414 251 438 262 Q462 272 459 247 L450 172 Q448 157 438 151 Q421 142 398.5 136 Q376 130 350 130 Z " />
<glyph glyph-name="registered" unicode="&#xae;" horiz-adv-x="455" d="M286 720 Q318 720 345 708 Q372 696 391.5 674 Q411 652 422 621 Q433 590 433 552 Q433 504 417.5 464 Q402 424 375.5 395 Q349 366 313.5 350 Q278 334 238 334 Q205 334 178.5 346 Q152 358 132.5 380 Q113 402 102.5 432.5 Q92 463 92 501 Q92 549 107.5 589 Q123 629 149.5 658.5 Q176 688 211.5 704 Q247 720 286 720 Z M242 363 Q275 363 304 377 Q333 391 355 415.5 Q377 440 389.5 474.5 Q402 509 402 551 Q402 615 369 653 Q336 691 282 691 Q250 691 221 677.5 Q192 664 170 639 Q148 614 135.5 580 Q123 546 123 504 Q123 440 156 401.5 Q189 363 242 363 Z M339 573 Q339 552 327.5 537 Q316 522 294 516 L327 465 Q334 455 330 448 Q326 441 314 441 L297 441 Q281 441 274 455 L247 507 L246 507 L240 460 Q238 441 219 441 L207 441 Q186 441 189 462 L206 607 Q207 626 227 626 L270 626 Q302 626 320.5 612.5 Q339 599 339 573 Z M255 587 L250 539 L255 539 Q286 539 286 567 Q286 587 261 587 L255 587 Z " />
<glyph glyph-name="trademark" unicode="&#x2122;" horiz-adv-x="827" d="M374 635 Q371 616 353 616 L283 616 L250 356 Q247 337 229 337 L140 337 Q119 337 122 358 L154 616 L86 616 Q64 616 67 637 L74 691 Q76 710 95 710 L363 710 Q384 710 381 689 L374 635 Z M824 358 Q825 337 804 337 L711 337 Q692 337 692 357 L697 516 L633 355 Q627 339 610 339 L563 339 Q545 339 542 357 L513 521 L470 354 Q465 337 448 337 L368 337 Q357 337 352.5 343 Q348 349 351 359 L447 693 Q451 710 470 710 L567 710 Q586 710 589 691 L612 525 L673 694 Q679 710 696 710 L785 710 Q803 710 805 691 L824 358 Z " />
<glyph glyph-name="degree" unicode="&#xb0;" horiz-adv-x="472" d="M283 389 Q250 389 221 400 Q192 411 170.5 431 Q149 451 136.5 478 Q124 505 124 538 Q124 578 141 611.5 Q158 645 185.5 669 Q213 693 249 706.5 Q285 720 324 720 Q358 720 387 709 Q416 698 437.5 678.5 Q459 659 471.5 632 Q484 605 484 572 Q484 532 467 498.5 Q450 465 422.5 440.5 Q395 416 358.5 402.5 Q322 389 283 389 Z M296 493 Q322 493 340 512.5 Q358 532 358 562 Q358 585 345 600 Q332 615 311 615 Q285 615 267 595.5 Q249 576 249 546 Q249 523 261.5 508 Q274 493 296 493 Z " />
<glyph glyph-name="bar" unicode="&#x7c;" horiz-adv-x="219" d="M3 -200 Q-19 -200 -16 -179 L123 821 Q126 840 145 840 L235 840 Q257 840 254 819 L115 -181 Q112 -200 93 -200 L3 -200 L3 -200 Z " />
<glyph glyph-name="brokenbar" unicode="&#xa6;" horiz-adv-x="219" d="M89 420 Q67 420 70 441 L123 821 Q126 840 145 840 L235 840 Q257 840 254 819 L201 439 Q198 420 179 420 L89 420 Z M3 -200 Q-19 -200 -16 -179 L36 201 Q39 220 58 220 L149 220 Q171 220 168 199 L115 -181 Q112 -200 93 -200 L3 -200 Z " />
<glyph glyph-name="dagger" unicode="&#x2020;" horiz-adv-x="409" d="M408 593 Q418 594 423.5 588 Q429 582 427 572 L416 482 Q414 462 395 464 L317 469 L290 253 Q288 234 269 234 L141 234 Q120 234 123 255 L149 469 L71 464 Q61 463 55.5 469 Q50 475 52 485 L64 575 Q67 594 85 593 L163 589 L176 691 Q178 710 197 710 L325 710 Q346 710 343 689 L331 589 L408 593 L408 593 Z " />
<glyph glyph-name="daggerdbl" unicode="&#x2021;" horiz-adv-x="410" d="M420 520 Q417 501 399 502 L321 506 L312 432 L389 436 Q399 437 404.5 431 Q410 425 408 415 L397 325 Q395 305 376 307 L297 312 L290 253 Q289 234 269 234 L141 234 Q120 234 123 255 L130 312 L52 307 Q42 306 36.5 312 Q31 318 33 328 L44 418 Q46 438 65 436 L144 432 L153 507 L75 502 Q65 501 59.5 507 Q54 513 56 523 L68 613 Q71 632 89 631 L168 626 L176 691 Q178 710 197 710 L325 710 Q346 710 343 689 L336 627 L413 631 Q423 632 428.5 626 Q434 620 432 610 L420 520 L420 520 Z " />
<glyph glyph-name="asciicircum" unicode="&#x5e;" horiz-adv-x="600" d="M508 280 Q513 269 509 262.5 Q505 256 494 256 L407 256 Q392 256 383 269 L317 370 L223 267 Q212 256 198 256 L114 256 Q101 256 97.5 263 Q94 270 102 280 L249 468 Q258 480 273 480 L386 480 Q402 480 410 466 L508 280 L508 280 Z " />
<glyph glyph-name="dieresiscomb" unicode="&#x308;" d="M-59 578 Q-91 578 -110 600 Q-129 622 -129 651 Q-129 669 -122 685.5 Q-115 702 -103 714.5 Q-91 727 -75 734.5 Q-59 742 -40 742 Q-8 742 10 720.5 Q28 699 28 669 Q28 651 21.5 635 Q15 619 3 606 Q-9 593 -25 585.5 Q-41 578 -59 578 Z M145 578 Q113 578 94 600 Q75 622 75 651 Q75 669 82 685.5 Q89 702 101 714.5 Q113 727 129 734.5 Q145 742 164 742 Q196 742 214 720.5 Q232 699 232 669 Q232 651 225.5 635 Q219 619 207 606 Q195 593 179 585.5 Q163 578 145 578 Z " />
<glyph glyph-name="dotaccentcomb" unicode="&#x307;" d="M41 558 Q4 558 -17 583 Q-38 608 -38 641 Q-38 661 -30 679.5 Q-22 698 -8.5 712.5 Q5 727 23.5 735.5 Q42 744 63 744 Q98 744 119.5 720 Q141 696 141 662 Q141 642 133 623 Q125 604 111.5 589.5 Q98 575 80 566.5 Q62 558 41 558 Z " />
<glyph glyph-name="gravecomb" unicode="&#x300;" d="M119 564 Q125 554 121 547 Q117 540 105 540 L19 540 Q5 540 -6 551 L-143 700 Q-151 708 -149 715.5 Q-147 723 -136 727 L-17 765 Q0 771 9 754 L119 564 L119 564 Z " />
<glyph glyph-name="acutecomb" unicode="&#x301;" d="M-20 540 Q-32 540 -36 547 Q-40 554 -34 564 L76 754 Q85 771 102 765 L221 727 Q232 723 234 715.5 Q236 708 228 700 L91 551 Q80 540 66 540 L-20 540 L-20 540 Z " />
<glyph glyph-name="hungarumlautcomb" unicode="&#x30b;" d="M-144 542 Q-155 542 -159.5 548.5 Q-164 555 -161 565 L-103 761 Q-98 780 -79 775 L39 750 Q61 745 50 724 L-48 556 Q-56 542 -72 542 L-144 542 Z M28 542 Q17 542 12.5 548.5 Q8 555 13 566 L106 763 Q114 779 131 775 L251 750 Q262 748 265 740.5 Q268 733 261 724 L130 554 Q121 542 106 542 L28 542 Z " />
<glyph glyph-name="circumflexcomb" unicode="&#x302;" d="M209 566 Q214 555 209 549 Q204 543 193 543 L109 543 Q93 543 86 558 L50 633 L-7 555 Q-15 543 -31 543 L-114 543 Q-126 543 -129.5 549.5 Q-133 556 -126 567 L-14 732 Q-5 745 10 745 L113 745 Q131 745 137 730 L209 566 L209 566 Z " />
<glyph glyph-name="caroncomb" unicode="&#x30c;" d="M97 729 Q106 741 121 741 L192 741 Q204 741 208 734 Q212 727 205 717 L89 553 Q79 540 65 540 L-1 540 Q-17 540 -24 555 L-104 717 Q-109 728 -105 734.5 Q-101 741 -90 741 L-15 741 Q2 741 9 728 L47 665 L97 729 L97 729 Z " />
<glyph glyph-name="brevecomb" unicode="&#x306;" d="M40 563 Q13 563 -10 573.5 Q-33 584 -50.5 602 Q-68 620 -78 645.5 Q-88 671 -88 701 L-88 702 Q-88 704 -82.5 712.5 Q-77 721 -68 721 L-13 721 Q5 721 8 702 Q12 683 23 671.5 Q34 660 52 660 Q70 660 84.5 672.5 Q99 685 107 705 Q114 721 130 721 L183 721 Q194 721 198.5 714 Q203 707 200 696 Q183 637 138.5 600 Q94 563 40 563 Z " />
<glyph glyph-name="ringcomb" unicode="&#x30a;" d="M34 522 Q11 522 -9 530 Q-29 538 -44 552 Q-59 566 -68 585.5 Q-77 605 -77 628 Q-77 656 -65 679 Q-53 702 -33.5 719 Q-14 736 11.5 745.5 Q37 755 63 755 Q85 755 105.5 747.5 Q126 740 141 726 Q156 712 165 692.5 Q174 673 174 650 Q174 623 162 599.5 Q150 576 130.5 558.5 Q111 541 85.5 531.5 Q60 522 34 522 Z M43 594 Q64 594 78.5 608 Q93 622 93 644 Q93 661 82.5 671.5 Q72 682 54 682 Q33 682 19 667.5 Q5 653 5 633 Q5 616 15.5 605 Q26 594 43 594 Z " />
<glyph glyph-name="tildecomb" unicode="&#x303;" d="M106 549 Q83 549 64 560 Q45 571 29 581 Q18 588 8 593 Q-2 598 -13 598 Q-22 598 -29.5 593 Q-37 588 -42 575 Q-50 558 -65 558 L-113 558 Q-123 558 -128 563.5 Q-133 569 -131 580 Q-124 613 -113.5 641 Q-103 669 -88 689.5 Q-73 710 -53.5 721.5 Q-34 733 -9 733 Q17 733 36 721.5 Q55 710 71 699 Q81 692 89 687.5 Q97 683 106 683 Q115 683 121.5 689.5 Q128 696 132 707 Q136 715 141 719.5 Q146 724 155 724 L210 724 Q220 724 225 716 Q230 708 227 693 Q220 662 209 635.5 Q198 609 183 590 Q168 571 149 560 Q130 549 106 549 Z " />
<glyph glyph-name="macroncomb" unicode="&#x304;" d="M-103 582 Q-124 582 -121 603 L-110 685 Q-107 704 -89 704 L202 704 Q223 704 220 683 L209 601 Q206 582 188 582 L-103 582 L-103 582 Z " />
<glyph glyph-name="cedillacomb" unicode="&#x327;" d="M-1 -29 Q26 -34 43.5 -51.5 Q61 -69 61 -96 Q61 -138 22.5 -166 Q-16 -194 -79 -194 Q-116 -194 -137 -188 Q-146 -186 -149.5 -179 Q-153 -172 -152 -164 L-148 -133 Q-145 -113 -125 -117 Q-105 -122 -87 -122 Q-73 -122 -62.5 -117.5 Q-52 -113 -52 -103 Q-52 -94 -62 -89 Q-72 -84 -88 -84 L-99 -84 Q-103 -82 -105 -78 Q-110 -71 -105 -63 L-61 7 Q-53 20 -37 20 L3 20 Q15 20 19 13 Q23 6 16 -4 L-1 -29 L-1 -29 Z " />
<glyph glyph-name="ogonekcomb" unicode="&#x328;" horiz-adv-x="586" d="M248 -196 Q197 -196 165 -170.5 Q133 -145 133 -100 Q133 -49 179.5 -13 Q226 23 306 47 Q322 52 333 41 L348 27 Q366 10 342 -1 Q289 -25 269.5 -45.5 Q250 -66 250 -85 Q250 -114 285 -114 Q295 -114 306 -111 Q317 -107 323 -111 Q329 -115 327 -127 L323 -165 Q322 -181 309 -186 Q295 -191 280 -193.5 Q265 -196 248 -196 Z " />
<glyph glyph-name="slashshortcomb" unicode="&#x337;" horiz-adv-x="505" d="M52 -24 Q39 -24 36 -17 Q33 -10 41 0 L472 536 Q481 548 496 548 L545 548 Q558 548 561 541 Q564 534 556 524 L126 -12 Q117 -24 102 -24 L52 -24 L52 -24 Z " />
<glyph glyph-name="slashlongcomb" unicode="&#x338;" horiz-adv-x="620" d="M56 -9 Q43 -9 39.5 -2.5 Q36 4 44 15 L608 706 Q617 718 632 718 L679 718 Q692 718 695.5 711.5 Q699 705 691 694 L128 3 Q119 -9 104 -9 L56 -9 L56 -9 Z " />
<glyph glyph-name="acute" unicode="&#xb4;" horiz-adv-x="500" d="M176 540 Q164 540 160 547 Q156 554 162 564 L272 754 Q281 771 298 765 L417 727 Q428 723 430 715.5 Q432 708 424 700 L287 551 Q276 540 262 540 L176 540 L176 540 Z " />
<glyph glyph-name="breve" unicode="&#x2d8;" horiz-adv-x="500" d="M290 563 Q263 563 240 573.5 Q217 584 199.5 602 Q182 620 172 645.5 Q162 671 162 701 L162 702 Q162 704 167.5 712.5 Q173 721 182 721 L237 721 Q255 721 258 702 Q262 683 273 671.5 Q284 660 302 660 Q320 660 334.5 672.5 Q349 685 357 705 Q364 721 380 721 L433 721 Q444 721 448.5 714 Q453 707 450 696 Q433 637 388.5 600 Q344 563 290 563 Z " />
<glyph glyph-name="caron" unicode="&#x2c7;" horiz-adv-x="500" d="M347 729 Q356 741 371 741 L442 741 Q454 741 458 734 Q462 727 455 717 L339 553 Q329 540 315 540 L249 540 Q233 540 226 555 L146 717 Q141 728 145 734.5 Q149 741 160 741 L235 741 Q252 741 259 728 L297 665 L347 729 L347 729 Z " />
<glyph glyph-name="cedilla" unicode="&#xb8;" horiz-adv-x="500" d="M249 -29 Q276 -34 293.5 -51.5 Q311 -69 311 -96 Q311 -138 272.5 -166 Q234 -194 171 -194 Q134 -194 113 -188 Q104 -186 100.5 -179 Q97 -172 98 -164 L102 -133 Q105 -113 125 -117 Q145 -122 163 -122 Q177 -122 187.5 -117.5 Q198 -113 198 -103 Q198 -94 188 -89 Q178 -84 162 -84 L151 -84 Q147 -82 145 -78 Q140 -71 145 -63 L189 7 Q197 20 213 20 L253 20 Q265 20 269 13 Q273 6 266 -4 L249 -29 L249 -29 Z " />
<glyph glyph-name="circumflex" unicode="&#x2c6;" horiz-adv-x="500" d="M458 566 Q463 555 458 549 Q453 543 442 543 L358 543 Q342 543 335 558 L299 633 L242 555 Q234 543 218 543 L135 543 Q123 543 119.5 549.5 Q116 556 123 567 L235 732 Q244 745 259 745 L362 745 Q380 745 386 730 L458 566 L458 566 Z " />
<glyph glyph-name="dieresis" unicode="&#xa8;" horiz-adv-x="500" d="M191 578 Q159 578 140 600 Q121 622 121 651 Q121 669 128 685.5 Q135 702 147 714.5 Q159 727 175 734.5 Q191 742 210 742 Q242 742 260 720.5 Q278 699 278 669 Q278 651 271.5 635 Q265 619 253 606 Q241 593 225 585.5 Q209 578 191 578 Z M395 578 Q363 578 344 600 Q325 622 325 651 Q325 669 332 685.5 Q339 702 351 714.5 Q363 727 379 734.5 Q395 742 414 742 Q446 742 464 720.5 Q482 699 482 669 Q482 651 475.5 635 Q469 619 457 606 Q445 593 429 585.5 Q413 578 395 578 Z " />
<glyph glyph-name="dotaccent" unicode="&#x2d9;" horiz-adv-x="500" d="M291 558 Q254 558 233 583 Q212 608 212 641 Q212 661 220 679.5 Q228 698 241.5 712.5 Q255 727 273.5 735.5 Q292 744 313 744 Q348 744 369.5 720 Q391 696 391 662 Q391 642 383 623 Q375 604 361.5 589.5 Q348 575 330 566.5 Q312 558 291 558 Z " />
<glyph glyph-name="grave" unicode="&#x60;" horiz-adv-x="500" d="M433 564 Q439 554 435 547 Q431 540 419 540 L333 540 Q319 540 308 551 L171 700 Q163 708 165 715.5 Q167 723 178 727 L297 765 Q314 771 323 754 L433 564 L433 564 Z " />
<glyph glyph-name="hungarumlaut" unicode="&#x2dd;" horiz-adv-x="500" d="M101 542 Q90 542 85.5 548.5 Q81 555 84 565 L142 761 Q147 780 166 775 L284 750 Q306 745 295 724 L197 556 Q189 542 173 542 L101 542 Z M273 542 Q262 542 257.5 548.5 Q253 555 258 566 L351 763 Q359 779 376 775 L496 750 Q507 748 510 740.5 Q513 733 506 724 L375 554 Q366 542 351 542 L273 542 Z " />
<glyph glyph-name="macron" unicode="&#xaf;" horiz-adv-x="500" d="M147 582 Q126 582 129 603 L140 685 Q143 704 161 704 L452 704 Q473 704 470 683 L459 601 Q456 582 438 582 L147 582 L147 582 Z " />
<glyph glyph-name="ogonek" unicode="&#x2db;" horiz-adv-x="500" d="M214 -196 Q163 -196 131 -170.5 Q99 -145 99 -100 Q99 -49 145.5 -13 Q192 23 272 47 Q288 52 299 41 L314 27 Q332 10 308 -1 Q255 -25 235.5 -45.5 Q216 -66 216 -85 Q216 -114 251 -114 Q261 -114 272 -111 Q283 -107 289 -111 Q295 -115 293 -127 L289 -165 Q288 -181 275 -186 Q261 -191 246 -193.5 Q231 -196 214 -196 Z " />
<glyph glyph-name="ring" unicode="&#x2da;" horiz-adv-x="500" d="M284 522 Q261 522 241 530 Q221 538 206 552 Q191 566 182 585.5 Q173 605 173 628 Q173 656 185 679 Q197 702 216.5 719 Q236 736 261.5 745.5 Q287 755 313 755 Q335 755 355.5 747.5 Q376 740 391 726 Q406 712 415 692.5 Q424 673 424 650 Q424 623 412 599.5 Q400 576 380.5 558.5 Q361 541 335.5 531.5 Q310 522 284 522 Z M293 594 Q314 594 328.5 608 Q343 622 343 644 Q343 661 332.5 671.5 Q322 682 304 682 Q283 682 269 667.5 Q255 653 255 633 Q255 616 265.5 605 Q276 594 293 594 Z " />
<glyph glyph-name="tilde" unicode="&#x2dc;" horiz-adv-x="500" d="M356 549 Q333 549 314 560 Q295 571 279 581 Q268 588 258 593 Q248 598 237 598 Q228 598 220.5 593 Q213 588 208 575 Q200 558 185 558 L137 558 Q127 558 122 563.5 Q117 569 119 580 Q126 613 136.5 641 Q147 669 162 689.5 Q177 710 196.5 721.5 Q216 733 241 733 Q267 733 286 721.5 Q305 710 321 699 Q331 692 339 687.5 Q347 683 356 683 Q365 683 371.5 689.5 Q378 696 382 707 Q386 715 391 719.5 Q396 724 405 724 L460 724 Q470 724 475 716 Q480 708 477 693 Q470 662 459 635.5 Q448 609 433 590 Q418 571 399 560 Q380 549 356 549 Z " />
<glyph glyph-name="A" unicode="A" horiz-adv-x="664" d="M428 0 Q408 0 407 19 Q401 58 398 97 L226 97 Q218 77 210.5 56.5 Q203 36 195 16 Q189 0 172 0 L2 0 Q-23 0 -13 23 L297 696 Q304 711 320 711 L459 711 Q478 711 481 693 L624 22 Q629 0 607 0 L428 0 Z M381 235 L357 440 Q337 389 317.5 337.5 Q298 286 278 235 L381 235 Z " />
<glyph glyph-name="Aacute" unicode="&#xc1;" horiz-adv-x="664" d="M428 0 Q408 0 407 19 Q401 58 398 97 L226 97 Q218 77 210.5 56.5 Q203 36 195 16 Q189 0 172 0 L2 0 Q-23 0 -13 23 L297 696 Q304 711 320 711 L459 711 Q478 711 481 693 L624 22 Q629 0 607 0 L428 0 Z M381 235 L357 440 Q337 389 317.5 337.5 Q298 286 278 235 L381 235 Z M349 755 Q338 755 333.5 761.5 Q329 768 334 779 L399 912 Q406 927 422 927 L585 928 Q599 928 602 920 Q605 912 595 903 L450 765 Q440 755 426 755 L349 755 L349 755 Z " />
</font>
</svg>
